<svg width="310" height="305" viewBox="0 0 310 305" fill="none" xmlns="http://www.w3.org/2000/svg">
<mask id="mask0" mask-type="alpha" maskUnits="userSpaceOnUse" x="0" y="0" width="310" height="305">
<rect width="310" height="305" fill="white"/>
</mask>
<g mask="url(#mask0)">
<path d="M232.373 171.152H36.2148L39.5143 126.406H232.373V171.152Z" fill="#D3DCE5"/>
<path d="M138.5 171.5H172" stroke="#959DA8" stroke-width="0.8"/>
<path d="M32.4915 277.691C32.7744 276.269 32.7605 274.805 32.4508 273.388C32.1467 271.986 31.5491 270.665 30.6972 269.51C29.8686 268.384 28.7984 267.457 27.565 266.799C26.3604 266.154 25.0207 265.803 23.655 265.774C22.2893 265.745 20.936 266.039 19.7051 266.631C18.4502 267.236 17.3473 268.115 16.4779 269.203C15.5847 270.32 14.9392 271.614 14.5842 273C14.2224 274.403 14.1546 275.867 14.3853 277.298C13.3641 277.832 12.4724 278.583 11.7729 279.499C11.0548 280.438 10.5392 281.515 10.2587 282.663C9.97229 283.824 9.9231 285.031 10.1141 286.211C10.3029 287.382 10.7306 288.502 11.3706 289.501C11.9933 290.477 12.8197 291.307 13.7932 291.933C14.7481 292.546 15.8302 292.932 16.957 293.063C18.0729 293.192 19.2034 293.062 20.261 292.683C21.3352 292.3 22.3109 291.682 23.1175 290.875C23.8981 291.671 24.8418 292.288 25.8836 292.683C26.9061 293.072 28.0026 293.226 29.0926 293.135C30.1858 293.035 31.2432 292.694 32.1887 292.136C33.1556 291.564 33.9905 290.794 34.6384 289.877C35.3028 288.937 35.7716 287.873 36.0169 286.749C36.2668 285.614 36.2913 284.44 36.0892 283.296C35.8907 282.159 35.4665 281.074 34.8418 280.105C34.2379 279.143 33.4368 278.32 32.4915 277.691V277.691Z" fill="#80C33F"/>
<path fill-rule="evenodd" clip-rule="evenodd" d="M19.0282 283.147C19.1006 283.045 19.2417 283.021 19.3434 283.094L23.5965 286.122C23.6982 286.194 23.7219 286.335 23.6495 286.437C23.5772 286.539 23.4361 286.563 23.3344 286.49L19.0813 283.462C18.9796 283.389 18.9559 283.248 19.0282 283.147Z" fill="#2A3A51"/>
<path fill-rule="evenodd" clip-rule="evenodd" d="M28.6052 285.422C28.6891 285.514 28.6823 285.657 28.59 285.741L23.6182 290.261C23.5259 290.345 23.383 290.338 23.299 290.246C23.2151 290.154 23.2219 290.011 23.3142 289.927L28.286 285.407C28.3783 285.323 28.5212 285.33 28.6052 285.422Z" fill="#2A3A51"/>
<path fill-rule="evenodd" clip-rule="evenodd" d="M23.4662 276.995C23.591 276.995 23.6922 277.096 23.6922 277.221V304.484C23.6922 304.609 23.591 304.71 23.4662 304.71C23.3414 304.71 23.2402 304.609 23.2402 304.484V277.221C23.2402 277.096 23.3414 276.995 23.4662 276.995Z" fill="#2A3A51"/>
<path d="M136.78 170.925H40.0566V240.982H136.78V170.925Z" fill="#F4F5F6"/>
<path fill-rule="evenodd" clip-rule="evenodd" d="M39.6055 170.473H137.233V241.434H39.6055V170.473ZM40.5094 171.377V240.53H136.329V171.377H40.5094Z" fill="#959DA8"/>
<path d="M88.3692 125.601L36.0664 171.432L140.17 171.603" fill="#F4F5F6"/>
<path d="M134.788 171.499H42.4082L47.3483 167.092H129.31L134.788 171.499Z" fill="#F4F5F6"/>
<path fill-rule="evenodd" clip-rule="evenodd" d="M47.2612 166.866H129.389L135.428 171.725H41.8145L47.2612 166.866ZM47.4335 167.318L43.0001 171.273H134.145L129.229 167.318H47.4335Z" fill="#959DA8"/>
<path fill-rule="evenodd" clip-rule="evenodd" d="M88.3697 125L141.856 171.883H134.272V170.98H139.453L88.3696 126.202L37.2685 170.98H42.4488V171.883H34.8652L88.3697 125Z" fill="#959DA8"/>
<path fill-rule="evenodd" clip-rule="evenodd" d="M88.3607 131.304L91.6771 134.181L91.8126 134.298L93.6896 135.927L93.693 135.93L93.7167 135.95L93.7201 135.952L97.711 139.415L98.9268 140.472L100.319 141.679L103.758 144.662L104.138 144.992L106.647 147.166L109.301 149.473L109.346 149.509L113.169 152.825L114.561 154.031L115.234 154.614L119.053 157.928L119.767 158.551L119.768 158.552L122.014 160.499L124.459 162.619L124.459 162.619L124.884 162.99L124.884 162.99L126.533 164.418L129.53 167.017L134.421 171.261L134.124 171.602L129.234 167.358L126.238 164.76L124.588 163.331L124.587 163.331L124.163 162.961L124.162 162.96L121.718 160.841L119.471 158.893L119.471 158.892L118.757 158.268L114.938 154.956L114.265 154.373L112.873 153.166L109.057 149.856L109.011 149.82L106.351 147.507L103.842 145.333L103.462 145.003L100.023 142.02L98.6307 140.814L97.4149 139.756L93.4272 136.297L93.4239 136.294L93.4001 136.274L93.3967 136.271L91.5166 134.64L91.381 134.522L88.3607 131.903L87.2116 132.899L83.7182 135.927L83.2978 136.294L80.0524 139.11L77.72 141.135L73.7652 144.565L72.8794 145.333L70.4884 147.408L67.6681 149.853L63.9348 153.094L62.4567 154.373L60.997 155.638L57.2501 158.893L54.2489 161.496L52.5586 162.96L49.7003 165.442L49.6956 165.445L47.3563 167.476L42.5969 171.602L42.3008 171.261L47.06 167.134L49.3098 165.182V165.159L49.4256 165.082L52.2622 162.619L53.9527 161.155L56.9537 158.551L60.7006 155.297L62.1607 154.031L63.6385 152.752L67.3719 149.512L70.1922 147.067L72.5832 144.992L77.4239 140.793L79.756 138.768L83.001 135.953L83.4217 135.586L86.9154 132.558L88.3607 131.304Z" fill="#959DA8"/>
<path d="M107.868 255.585H68.9707V290.175H107.868V255.585Z" fill="white"/>
<path fill-rule="evenodd" clip-rule="evenodd" d="M68.7441 255.359H108.093V290.401H68.7441V255.359ZM69.1961 255.811V289.949H107.641V255.811H69.1961Z" fill="#959DA8"/>
<path fill-rule="evenodd" clip-rule="evenodd" d="M88.1973 290.225V255.581H88.6492V290.225H88.1973Z" fill="#959DA8"/>
<path fill-rule="evenodd" clip-rule="evenodd" d="M107.719 272.114H68.9707V271.662H107.719V272.114Z" fill="#959DA8"/>
<path d="M164.727 255.463H145.359V297.538H164.727V255.463Z" fill="#D3DCE5"/>
<path d="M161.983 258.134H148.094V278.17H161.983V258.134Z" fill="white"/>
<path fill-rule="evenodd" clip-rule="evenodd" d="M147.867 257.909H162.208V278.397H147.867V257.909ZM148.319 258.361V277.945H161.756V258.361H148.319Z" fill="#959DA8"/>
<path d="M138.945 242.112H135.379V296.349H138.945V242.112Z" fill="#F4F5F6"/>
<path fill-rule="evenodd" clip-rule="evenodd" d="M134.928 241.66H139.398V296.801H134.928V241.66ZM135.832 242.564V295.897H138.494V242.564H135.832Z" fill="#959DA8"/>
<path d="M43.126 242.112H39.5645V304.485H43.1306L43.126 242.112Z" fill="#F4F5F6"/>
<path fill-rule="evenodd" clip-rule="evenodd" d="M39.1133 241.66H43.5788L43.5834 304.936H39.1133V241.66ZM40.0172 242.564V304.033H42.6794L42.6749 242.564H40.0172Z" fill="#959DA8"/>
<path d="M174.068 296.177H135.334V300.593H174.068V296.177Z" fill="#F4F5F6"/>
<path fill-rule="evenodd" clip-rule="evenodd" d="M134.883 295.726H174.521V301.045H134.883V295.726ZM135.787 296.63V300.141H173.617V296.63H135.787Z" fill="#959DA8"/>
<path d="M174.068 300.584H135.334V304.548H174.068V300.584Z" fill="#F4F5F6"/>
<path fill-rule="evenodd" clip-rule="evenodd" d="M134.883 300.132H174.521V305H134.883V300.132ZM135.787 301.036V304.096H173.617V301.036H135.787Z" fill="#959DA8"/>
<path d="M148.984 281.66C149.483 281.66 149.888 281.255 149.888 280.756C149.888 280.257 149.483 279.852 148.984 279.852C148.485 279.852 148.08 280.257 148.08 280.756C148.08 281.255 148.485 281.66 148.984 281.66Z" fill="#F4F5F6"/>
<path fill-rule="evenodd" clip-rule="evenodd" d="M148.985 280.078C148.611 280.078 148.307 280.381 148.307 280.756C148.307 281.13 148.611 281.434 148.985 281.434C149.36 281.434 149.663 281.13 149.663 280.756C149.663 280.381 149.36 280.078 148.985 280.078ZM147.855 280.756C147.855 280.132 148.361 279.626 148.985 279.626C149.609 279.626 150.115 280.132 150.115 280.756C150.115 281.38 149.609 281.886 148.985 281.886C148.361 281.886 147.855 281.38 147.855 280.756Z" fill="#959DA8"/>
<path d="M160.754 185.163H146.955V209.117H160.749L160.754 185.163Z" fill="white"/>
<path fill-rule="evenodd" clip-rule="evenodd" d="M146.729 184.937H160.979L160.975 209.343H146.729V184.937ZM147.18 185.389V208.891H160.523L160.527 185.389H147.18Z" fill="#959DA8"/>
<path fill-rule="evenodd" clip-rule="evenodd" d="M160.754 195.481H146.955V195.029H160.754V195.481Z" fill="#959DA8"/>
<path d="M132.022 268.855L125.852 265.375L119.746 268.977L119.918 268.973L121.342 279.454L130.53 279.337L131.818 268.855H132.022Z" fill="#D3DCE5"/>
<path d="M130.228 270.586H121.641V272.394H130.228V270.586Z" fill="#F4F5F6"/>
<path fill-rule="evenodd" clip-rule="evenodd" d="M121.414 270.36H130.454V272.62H121.414V270.36ZM121.866 270.812V272.168H130.002V270.812H121.866Z" fill="#959DA8"/>
<path d="M68.9755 213.962H60.4512V218.279H68.9755V213.962Z" fill="#F4F5F6"/>
<path fill-rule="evenodd" clip-rule="evenodd" d="M60.2246 213.736H69.2009V218.505H60.2246V213.736ZM60.6766 214.188V218.053H68.7489V214.188H60.6766Z" fill="#959DA8"/>
<path d="M68.9755 209.443H60.4512V213.859H68.9755V209.443Z" fill="#F4F5F6"/>
<path fill-rule="evenodd" clip-rule="evenodd" d="M60.2246 209.217H69.2009V214.085H60.2246V209.217ZM60.6766 209.669V213.633H68.7489V209.669H60.6766Z" fill="#959DA8"/>
<path d="M68.9755 204.923H60.4512V209.339H68.9755V204.923Z" fill="#F4F5F6"/>
<path fill-rule="evenodd" clip-rule="evenodd" d="M60.2246 204.697H69.2009V209.565H60.2246V204.697ZM60.6766 205.149V209.113H68.7489V205.149H60.6766Z" fill="#959DA8"/>
<path d="M68.9755 204.819H60.4512V200.403H68.971V201.38L68.9755 204.819Z" fill="#F4F5F6"/>
<path fill-rule="evenodd" clip-rule="evenodd" d="M60.2246 200.177H69.1964V201.379L69.2012 205.045H60.2246V200.177ZM60.6766 200.629V204.593H68.7486L68.7444 201.38V200.629H60.6766Z" fill="#959DA8"/>
<path d="M68.971 195.883H60.4512V200.299H68.971V195.883Z" fill="#F4F5F6"/>
<path fill-rule="evenodd" clip-rule="evenodd" d="M60.2246 195.657H69.1964V200.525H60.2246V195.657ZM60.6766 196.109V200.073H68.7444V196.109H60.6766Z" fill="#959DA8"/>
<path d="M68.971 191.364H60.4512V195.78H68.971V191.364Z" fill="#F4F5F6"/>
<path fill-rule="evenodd" clip-rule="evenodd" d="M60.2246 191.138H69.1964V196.005H60.2246V191.138ZM60.6766 191.59V195.554H68.7444V191.59H60.6766Z" fill="#959DA8"/>
<path d="M68.971 186.844H60.4512V191.26H68.971V186.844Z" fill="#F4F5F6"/>
<path fill-rule="evenodd" clip-rule="evenodd" d="M60.2246 186.618H69.1964V191.485H60.2246V186.618ZM60.6766 187.07V191.034H68.7444V187.07H60.6766Z" fill="#959DA8"/>
<path d="M116.432 213.962H107.908V218.279H116.432V213.962Z" fill="#F4F5F6"/>
<path fill-rule="evenodd" clip-rule="evenodd" d="M107.682 213.736H116.658V218.505H107.682V213.736ZM108.134 214.188V218.053H116.206V214.188H108.134Z" fill="#959DA8"/>
<path d="M116.432 209.443H107.908V213.859H116.432V209.443Z" fill="#F4F5F6"/>
<path fill-rule="evenodd" clip-rule="evenodd" d="M107.682 209.217H116.658V214.085H107.682V209.217ZM108.134 209.669V213.633H116.206V209.669H108.134Z" fill="#959DA8"/>
<path d="M116.432 204.923H107.908V209.339H116.432V204.923Z" fill="#F4F5F6"/>
<path fill-rule="evenodd" clip-rule="evenodd" d="M107.682 204.697H116.658V209.565H107.682V204.697ZM108.134 205.149V209.113H116.206V205.149H108.134Z" fill="#959DA8"/>
<path d="M116.432 204.819H107.908V200.403H116.428V201.38L116.432 204.819Z" fill="#F4F5F6"/>
<path fill-rule="evenodd" clip-rule="evenodd" d="M107.682 200.177H116.653V201.379L116.658 205.045H107.682V200.177ZM108.134 200.629V204.593H116.206L116.201 201.38V200.629H108.134Z" fill="#959DA8"/>
<path d="M116.428 195.883H107.908V200.299H116.428V195.883Z" fill="#F4F5F6"/>
<path fill-rule="evenodd" clip-rule="evenodd" d="M107.682 195.657H116.653V200.525H107.682V195.657ZM108.134 196.109V200.073H116.201V196.109H108.134Z" fill="#959DA8"/>
<path d="M116.428 191.364H107.908V195.78H116.428V191.364Z" fill="#F4F5F6"/>
<path fill-rule="evenodd" clip-rule="evenodd" d="M107.682 191.138H116.653V196.005H107.682V191.138ZM108.134 191.59V195.554H116.201V191.59H108.134Z" fill="#959DA8"/>
<path d="M116.428 186.844H107.908V191.26H116.428V186.844Z" fill="#F4F5F6"/>
<path fill-rule="evenodd" clip-rule="evenodd" d="M107.682 186.618H116.653V191.485H107.682V186.618ZM108.134 187.07V191.034H116.201V187.07H108.134Z" fill="#959DA8"/>
<path fill-rule="evenodd" clip-rule="evenodd" d="M60.4297 186.71H69.3065V218.557H60.4297V186.71ZM60.8139 187.095V218.173H68.9224V187.095H60.8139Z" fill="#959DA8"/>
<path d="M116.432 284.923H107.908V289.239H116.432V284.923Z" fill="#F4F5F6"/>
<path fill-rule="evenodd" clip-rule="evenodd" d="M107.682 284.697H116.658V289.465H107.682V284.697ZM108.134 285.149V289.013H116.206V285.149H108.134Z" fill="#959DA8"/>
<path d="M116.432 280.403H107.908V284.819H116.432V280.403Z" fill="#F4F5F6"/>
<path fill-rule="evenodd" clip-rule="evenodd" d="M107.682 280.177H116.658V285.045H107.682V280.177ZM108.134 280.629V284.593H116.206V280.629H108.134Z" fill="#959DA8"/>
<path d="M116.432 275.883H107.908V280.299H116.432V275.883Z" fill="#F4F5F6"/>
<path fill-rule="evenodd" clip-rule="evenodd" d="M107.682 275.657H116.658V280.525H107.682V275.657ZM108.134 276.109V280.073H116.206V276.109H108.134Z" fill="#959DA8"/>
<path d="M116.432 275.78H107.908V271.364H116.428V272.34L116.432 275.78Z" fill="#F4F5F6"/>
<path fill-rule="evenodd" clip-rule="evenodd" d="M107.682 271.138H116.653V272.34L116.658 276.005H107.682V271.138ZM108.134 271.59V275.554H116.206L116.201 272.34V271.59H108.134Z" fill="#959DA8"/>
<path d="M116.428 266.844H107.908V271.26H116.428V266.844Z" fill="#F4F5F6"/>
<path fill-rule="evenodd" clip-rule="evenodd" d="M107.682 266.618H116.653V271.485H107.682V266.618ZM108.134 267.07V271.034H116.201V267.07H108.134Z" fill="#959DA8"/>
<path d="M116.428 262.324H107.908V266.74H116.428V262.324Z" fill="#F4F5F6"/>
<path fill-rule="evenodd" clip-rule="evenodd" d="M107.682 262.098H116.653V266.966H107.682V262.098ZM108.134 262.55V266.514H116.201V262.55H108.134Z" fill="#959DA8"/>
<path d="M116.428 257.804H107.908V262.22H116.428V257.804Z" fill="#F4F5F6"/>
<path fill-rule="evenodd" clip-rule="evenodd" d="M107.682 257.578H116.653V262.446H107.682V257.578ZM108.134 258.03V261.994H116.201V258.03H108.134Z" fill="#959DA8"/>
<path fill-rule="evenodd" clip-rule="evenodd" d="M60.4297 257.671H69.3065V289.517H60.4297V257.671ZM60.8139 258.055V289.133H68.9224V258.055H60.8139Z" fill="#959DA8"/>
<path d="M107.868 185.077H68.9707V219.666H107.868V185.077Z" fill="white"/>
<path fill-rule="evenodd" clip-rule="evenodd" d="M68.7441 184.851H108.093V219.892H68.7441V184.851ZM69.1961 185.303V219.44H107.641V185.303H69.1961Z" fill="#959DA8"/>
<path fill-rule="evenodd" clip-rule="evenodd" d="M88.1973 219.716V185.072H88.6492V219.716H88.1973Z" fill="#959DA8"/>
<path fill-rule="evenodd" clip-rule="evenodd" d="M107.719 201.605H68.9707V201.153H107.719V201.605Z" fill="#959DA8"/>
<path d="M78.7012 302.812C78.6971 301.806 78.9353 300.814 79.3957 299.92C79.8561 299.025 80.5251 298.255 81.3462 297.674C82.1673 297.092 83.1163 296.718 84.1129 296.581C85.1095 296.444 86.1245 296.549 87.0719 296.887C87.438 295.413 88.1796 294.058 89.2245 292.955C90.2694 291.853 91.582 291.039 93.0345 290.594C94.487 290.149 96.03 290.088 97.5133 290.416C98.9966 290.744 100.37 291.45 101.499 292.467C102.297 290.236 103.856 288.359 105.902 287.165C107.948 285.971 110.349 285.537 112.684 285.94C115.018 286.343 117.135 287.557 118.663 289.367C120.19 291.178 121.03 293.47 121.033 295.838C121.035 296.189 121.017 296.539 120.979 296.887C121.66 296.638 122.379 296.511 123.103 296.512C126.584 296.512 129.612 299.337 129.39 302.799C129.359 303.37 129.263 303.935 129.106 304.485H78.9363C78.7847 303.936 78.7087 303.368 78.7103 302.799L78.7012 302.812Z" fill="#80C33F"/>
<path d="M93.5046 136.024H83.3125L88.4153 131.608H88.4244L93.5046 136.024Z" fill="#F4F5F6"/>
<path fill-rule="evenodd" clip-rule="evenodd" d="M88.3302 131.382H88.508L94.1082 136.25H82.7051L88.3302 131.382ZM88.4186 131.903L83.9181 135.798H92.8992L88.4186 131.903Z" fill="#959DA8"/>
<path d="M98.7071 140.543H78.0879L83.1907 136.127H93.6269L98.7071 140.543Z" fill="#F4F5F6"/>
<path fill-rule="evenodd" clip-rule="evenodd" d="M83.1056 135.901H93.7105L99.3107 140.769H77.4805L83.1056 135.901ZM83.274 136.353L78.6935 140.317H98.1017L93.5415 136.353H83.274Z" fill="#959DA8"/>
<path d="M103.904 145.063H72.8672L77.97 140.647H98.8243L103.904 145.063Z" fill="#F4F5F6"/>
<path fill-rule="evenodd" clip-rule="evenodd" d="M77.8849 140.421H98.9078L104.508 145.289H72.2598L77.8849 140.421ZM78.0533 140.873L73.4728 144.837H103.299L98.7389 140.873H78.0533Z" fill="#959DA8"/>
<path d="M172.596 171.152H549.093L542.765 126.406H172.596V171.152Z" fill="#D3DCE5"/>
<path d="M172.143 304.485L544.572 304.485V171.152L172.143 171.152V304.485Z" fill="#F4F5F6"/>
<path fill-rule="evenodd" clip-rule="evenodd" d="M545.025 304.937L171.692 304.937V170.699L545.025 170.699V304.937ZM544.121 304.033V171.603L172.596 171.603V304.033L544.121 304.033Z" fill="#959DA8"/>
<path d="M172.144 241.208H268.867V171.152H172.144V241.208Z" fill="#F4F5F6"/>
<path fill-rule="evenodd" clip-rule="evenodd" d="M269.318 241.66H171.691V170.699H269.318V241.66ZM268.414 240.756V171.603H172.595V240.756H268.414Z" fill="#959DA8"/>
<path d="M220.052 125.772L272.355 171.603H168.979" fill="#F4F5F6"/>
<path d="M173.914 171.499H266.294L261.349 167.092H179.388L173.914 171.499Z" fill="#F4F5F6"/>
<path fill-rule="evenodd" clip-rule="evenodd" d="M179.308 166.866H261.436L266.887 171.725H173.273L179.308 166.866ZM179.468 167.318L174.556 171.273H265.701L261.263 167.318H179.468Z" fill="#959DA8"/>
<path fill-rule="evenodd" clip-rule="evenodd" d="M220.33 125L273.834 171.883H266.251V170.98H271.431L220.33 126.202L169.246 170.98H174.427V171.883H166.844L220.33 125Z" fill="#959DA8"/>
<path fill-rule="evenodd" clip-rule="evenodd" d="M220.337 131.304L221.783 132.558L225.276 135.586L225.277 135.587L225.697 135.952L228.942 138.768L231.274 140.793L236.115 144.992L238.506 147.066L241.326 149.512L245.059 152.752L246.537 154.031L247.997 155.297L251.744 158.551L254.745 161.155L256.436 162.619L259.272 165.082L259.388 165.159V165.182L261.638 167.134L266.397 171.261L266.101 171.602L261.342 167.476L259.003 165.445L258.998 165.442L256.14 162.961L254.449 161.496L251.448 158.893L247.701 155.639L246.241 154.373L244.763 153.094L241.03 149.853L238.21 147.408L234.933 144.565L230.978 141.135L228.646 139.11L225.401 136.294L224.98 135.928L224.98 135.927L221.487 132.9L220.337 131.903L217.317 134.522L217.181 134.64L215.298 136.274L215.274 136.294L215.271 136.297L211.283 139.756L210.068 140.813L208.675 142.02L205.236 145.003L204.856 145.333L202.348 147.507L199.687 149.82L199.641 149.856L194.433 154.373L193.76 154.956L189.941 158.269L189.227 158.892L186.98 160.841L184.536 162.96L184.11 163.331L182.461 164.759L179.464 167.358L174.574 171.602L174.277 171.261L179.168 167.017L182.164 164.418L183.814 162.99L184.239 162.619L186.684 160.499L188.931 158.551L189.644 157.928L193.464 154.615L194.137 154.031L199.352 149.509L199.397 149.473L202.051 147.166L204.56 144.992L204.939 144.662L208.379 141.679L209.771 140.472L210.987 139.415L214.981 135.95L215.005 135.93L215.008 135.927L216.885 134.298L217.021 134.181L220.337 131.304Z" fill="#959DA8"/>
<path d="M200.83 185.077H239.727V219.666H200.83V185.077Z" fill="white"/>
<path fill-rule="evenodd" clip-rule="evenodd" d="M200.605 184.851H239.955V219.892H200.605V184.851ZM201.057 185.303V219.44H239.503V185.303H201.057Z" fill="#959DA8"/>
<path fill-rule="evenodd" clip-rule="evenodd" d="M220.053 219.716V185.072H220.505V219.716H220.053Z" fill="#959DA8"/>
<path fill-rule="evenodd" clip-rule="evenodd" d="M200.98 201.153H239.729V201.605H200.98V201.153Z" fill="#959DA8"/>
<path d="M171.81 304.485L413.5 304.485V242.112L171.81 242.112V304.485Z" fill="#F4F5F6"/>
<path fill-rule="evenodd" clip-rule="evenodd" d="M413.951 304.937L171.357 304.937V241.66L413.951 241.66V304.937ZM413.047 304.033V242.564L172.261 242.564V304.033L413.047 304.033Z" fill="#959DA8"/>
<path d="M296.437 304.485H406.268V255.671H296.437V304.485Z" fill="#F4F5F6"/>
<path fill-rule="evenodd" clip-rule="evenodd" d="M406.494 304.71H296.212V255.445H406.494V304.71ZM406.042 304.258V255.897H296.664V304.258H406.042Z" fill="#959DA8"/>
<path d="M301.264 263.974C301.264 263.974 307.831 257.705 325.187 257.935C342.543 258.166 349.11 263.969 349.11 263.969V304.765H301.268L301.264 263.974Z" fill="#D3DCE5"/>
<path fill-rule="evenodd" clip-rule="evenodd" d="M349.351 281.465H300.926V280.562H349.351V281.465Z" fill="#F4F5F6"/>
<path d="M177.115 304.485H286.945V255.671H177.115V304.485Z" fill="#F4F5F6"/>
<path fill-rule="evenodd" clip-rule="evenodd" d="M287.172 304.71H176.889V255.445H287.172V304.71ZM286.72 304.258V255.897H177.341V304.258H286.72Z" fill="#959DA8"/>
<path d="M234.824 263.974C234.824 263.974 241.391 257.705 258.747 257.935C276.103 258.166 282.671 263.969 282.671 263.969V304.765H234.829L234.824 263.974Z" fill="#D3DCE5"/>
<path d="M181.941 263.974C181.941 263.974 188.509 257.705 205.865 257.935C223.221 258.166 229.788 263.969 229.788 263.969V304.765H181.946L181.941 263.974Z" fill="#D3DCE5"/>
<path fill-rule="evenodd" clip-rule="evenodd" d="M258.471 305V257.027H259.375V305H258.471Z" fill="#F4F5F6"/>
<path fill-rule="evenodd" clip-rule="evenodd" d="M282.909 281.465H234.484V280.562H282.909V281.465Z" fill="#F4F5F6"/>
<path fill-rule="evenodd" clip-rule="evenodd" d="M205.59 305V257.027H206.494V305H205.59Z" fill="#F4F5F6"/>
<path fill-rule="evenodd" clip-rule="evenodd" d="M230.028 281.465H181.604V280.562H230.028V281.465Z" fill="#F4F5F6"/>
<path d="M260.505 291.604H262.312V282.112H260.505V291.604Z" fill="#F4F5F6"/>
<path fill-rule="evenodd" clip-rule="evenodd" d="M262.539 291.829H260.279V281.886H262.539V291.829ZM262.087 291.377V282.338H260.731V291.377H262.087Z" fill="#959DA8"/>
<path d="M255.534 291.604H257.342V282.112H255.534V291.604Z" fill="#F4F5F6"/>
<path fill-rule="evenodd" clip-rule="evenodd" d="M257.566 291.829H255.307V281.886H257.566V291.829ZM257.114 291.377V282.338H255.758V291.377H257.114Z" fill="#959DA8"/>
<path d="M207.624 291.604H209.432V282.112H207.624V291.604Z" fill="#F4F5F6"/>
<path fill-rule="evenodd" clip-rule="evenodd" d="M209.658 291.829H207.398V281.886H209.658V291.829ZM209.206 291.377V282.338H207.85V291.377H209.206Z" fill="#959DA8"/>
<path d="M202.651 291.604H204.459V282.112H202.651V291.604Z" fill="#F4F5F6"/>
<path fill-rule="evenodd" clip-rule="evenodd" d="M204.686 291.829H202.426V281.886H204.686V291.829ZM204.234 291.377V282.338H202.878V291.377H204.234Z" fill="#959DA8"/>
<path d="M286.254 185.163H300.048V219.513H286.254V185.163Z" fill="white"/>
<path fill-rule="evenodd" clip-rule="evenodd" d="M286.029 184.937H300.276V219.739H286.029V184.937ZM286.481 185.389V219.287H299.824V185.389H286.481Z" fill="#959DA8"/>
<path fill-rule="evenodd" clip-rule="evenodd" d="M286.254 195.029H300.048V195.481H286.254V195.029Z" fill="#959DA8"/>
<path d="M291.461 291.834C291.309 291.833 291.157 291.816 291.009 291.784C283.777 290.143 283.777 281.388 283.777 281.388C283.777 269.483 291.461 263.513 291.461 263.513C291.461 263.513 299.145 269.47 299.145 281.384C299.145 281.384 299.145 290.13 291.913 291.779C291.764 291.812 291.613 291.829 291.461 291.829V291.834Z" fill="#80C33F"/>
<path fill-rule="evenodd" clip-rule="evenodd" d="M291.46 275.504C291.585 275.504 291.686 275.605 291.686 275.73V304.543C291.686 304.668 291.585 304.769 291.46 304.769C291.336 304.769 291.234 304.668 291.234 304.543V275.73C291.234 275.605 291.336 275.504 291.46 275.504Z" fill="#2A3A51"/>
<path d="M248.247 213.962H239.723V218.279H248.247V213.962Z" fill="#F4F5F6"/>
<path fill-rule="evenodd" clip-rule="evenodd" d="M239.496 213.736H248.472V218.505H239.496V213.736ZM239.948 214.188V218.053H248.02V214.188H239.948Z" fill="#959DA8"/>
<path d="M248.247 209.443H239.723V213.859H248.247V209.443Z" fill="#F4F5F6"/>
<path fill-rule="evenodd" clip-rule="evenodd" d="M239.496 209.217H248.472V214.085H239.496V209.217ZM239.948 209.669V213.633H248.02V209.669H239.948Z" fill="#959DA8"/>
<path d="M248.247 204.923H239.723V209.339H248.247V204.923Z" fill="#F4F5F6"/>
<path fill-rule="evenodd" clip-rule="evenodd" d="M239.496 204.697H248.472V209.565H239.496V204.697ZM239.948 205.149V209.113H248.02V205.149H239.948Z" fill="#959DA8"/>
<path d="M239.723 204.819H248.247V200.403H239.727V201.38L239.723 204.819Z" fill="#F4F5F6"/>
<path fill-rule="evenodd" clip-rule="evenodd" d="M239.501 200.177H248.473V205.045H239.496L239.501 201.38V200.177ZM239.953 200.629L239.949 204.593H248.021V200.629H239.953Z" fill="#959DA8"/>
<path d="M248.248 195.883H239.729V200.299H248.248V195.883Z" fill="#F4F5F6"/>
<path fill-rule="evenodd" clip-rule="evenodd" d="M239.502 195.657H248.474V200.525H239.502V195.657ZM239.954 196.109V200.073H248.022V196.109H239.954Z" fill="#959DA8"/>
<path d="M248.248 191.364H239.729V195.78H248.248V191.364Z" fill="#F4F5F6"/>
<path fill-rule="evenodd" clip-rule="evenodd" d="M239.502 191.138H248.474V196.005H239.502V191.138ZM239.954 191.59V195.554H248.022V191.59H239.954Z" fill="#959DA8"/>
<path d="M248.248 186.844H239.729V191.26H248.248V186.844Z" fill="#F4F5F6"/>
<path fill-rule="evenodd" clip-rule="evenodd" d="M239.502 186.618H248.474V191.485H239.502V186.618ZM239.954 187.07V191.034H248.022V187.07H239.954Z" fill="#959DA8"/>
<path d="M200.79 213.962H192.266V218.279H200.79V213.962Z" fill="#F4F5F6"/>
<path fill-rule="evenodd" clip-rule="evenodd" d="M192.039 213.736H201.015V218.505H192.039V213.736ZM192.491 214.188V218.053H200.563V214.188H192.491Z" fill="#959DA8"/>
<path d="M200.79 209.443H192.266V213.859H200.79V209.443Z" fill="#F4F5F6"/>
<path fill-rule="evenodd" clip-rule="evenodd" d="M192.039 209.217H201.015V214.085H192.039V209.217ZM192.491 209.669V213.633H200.563V209.669H192.491Z" fill="#959DA8"/>
<path d="M200.79 204.923H192.266V209.339H200.79V204.923Z" fill="#F4F5F6"/>
<path fill-rule="evenodd" clip-rule="evenodd" d="M192.039 204.697H201.015V209.565H192.039V204.697ZM192.491 205.149V209.113H200.563V205.149H192.491Z" fill="#959DA8"/>
<path d="M192.266 204.819H200.79V200.403H192.27V201.38L192.266 204.819Z" fill="#F4F5F6"/>
<path fill-rule="evenodd" clip-rule="evenodd" d="M192.044 200.177H201.016V205.045H192.039L192.044 201.38V200.177ZM192.496 200.629L192.492 204.593H200.564V200.629H192.496Z" fill="#959DA8"/>
<path d="M200.789 195.883H192.27V200.299H200.789V195.883Z" fill="#F4F5F6"/>
<path fill-rule="evenodd" clip-rule="evenodd" d="M192.045 195.657H201.017V200.525H192.045V195.657ZM192.497 196.109V200.073H200.565V196.109H192.497Z" fill="#959DA8"/>
<path d="M200.789 191.364H192.27V195.78H200.789V191.364Z" fill="#F4F5F6"/>
<path fill-rule="evenodd" clip-rule="evenodd" d="M192.045 191.138H201.017V196.005H192.045V191.138ZM192.497 191.59V195.554H200.565V191.59H192.497Z" fill="#959DA8"/>
<path d="M200.789 186.844H192.27V191.26H200.789V186.844Z" fill="#F4F5F6"/>
<path fill-rule="evenodd" clip-rule="evenodd" d="M192.045 186.618H201.017V191.485H192.045V186.618ZM192.497 187.07V191.034H200.565V187.07H192.497Z" fill="#959DA8"/>
<path d="M225.481 136.024H215.289L220.392 131.608H220.401L225.481 136.024Z" fill="#F4F5F6"/>
<path fill-rule="evenodd" clip-rule="evenodd" d="M220.307 131.382H220.485L226.085 136.25H214.682L220.307 131.382ZM220.395 131.903L215.895 135.798H224.876L220.395 131.903Z" fill="#959DA8"/>
<path d="M230.684 140.543H210.064L215.167 136.127H225.603L230.684 140.543Z" fill="#F4F5F6"/>
<path fill-rule="evenodd" clip-rule="evenodd" d="M215.082 135.901H225.687L231.287 140.769H209.457L215.082 135.901ZM215.251 136.353L210.67 140.317H230.078L225.518 136.353H215.251Z" fill="#959DA8"/>
<path d="M235.881 145.063H204.844L209.947 140.647H230.801L235.881 145.063Z" fill="#F4F5F6"/>
<path fill-rule="evenodd" clip-rule="evenodd" d="M209.861 140.421H230.884L236.485 145.289H204.236L209.861 140.421ZM210.03 140.873L205.449 144.837H235.276L230.715 140.873H210.03Z" fill="#959DA8"/>
<path d="M174.973 234.88V228.779L154.182 214.089L133.066 229.231L132.939 235.332L153.73 234.88H174.973Z" fill="#F4F5F6"/>
<path fill-rule="evenodd" clip-rule="evenodd" d="M154.18 213.534L175.425 228.544V235.332H174.521V229.012L154.184 214.644L133.517 229.462V235.784H132.613V228.998L154.18 213.534Z" fill="#959DA8"/>
<path fill-rule="evenodd" clip-rule="evenodd" d="M154.181 220.14L175.103 234.922L174.842 235.291L154.183 220.694L133.197 235.742L132.934 235.375L154.181 220.14Z" fill="#959DA8"/>
<path d="M549.209 235.332H36.2148V242.112H549.209V235.332Z" fill="#F4F5F6"/>
<path fill-rule="evenodd" clip-rule="evenodd" d="M35.7637 234.88H549.662V242.564H35.7637V234.88ZM36.6676 235.784V241.66H548.758V235.784H36.6676Z" fill="#959DA8"/>
<line x1="8.74228e-08" y1="304" x2="310" y2="304" stroke="#959DA8" stroke-width="2" stroke-miterlimit="10"/>
</g>
</svg>
