<svg width="310" height="305" viewBox="0 0 310 305" fill="none" xmlns="http://www.w3.org/2000/svg">
<mask id="mask0" mask-type="alpha" maskUnits="userSpaceOnUse" x="0" y="0" width="310" height="305">
<rect width="310" height="305" fill="white"/>
</mask>
<g mask="url(#mask0)">
<path d="M304.979 286.253C305.182 286.254 305.385 286.233 305.584 286.19C314.836 284.086 314.836 272.879 314.836 272.879C314.836 257.61 304.983 249.956 304.983 249.956C304.983 249.956 295.126 257.592 295.126 272.857C295.126 272.857 295.126 284.077 304.374 286.167C304.572 286.218 304.775 286.247 304.979 286.253V286.253Z" fill="#80C33F"/>
<path fill-rule="evenodd" clip-rule="evenodd" d="M304.985 264.697C305.162 264.697 305.306 264.84 305.306 265.017V303.134C305.306 303.311 305.162 303.454 304.985 303.454C304.809 303.454 304.665 303.311 304.665 303.134V265.017C304.665 264.84 304.809 264.697 304.985 264.697Z" fill="#2A3A51"/>
<path d="M285.195 284.998L281.535 281.342L277.879 284.998L277.856 303.549H285.195V284.998Z" fill="#F4F5F6"/>
<path fill-rule="evenodd" clip-rule="evenodd" d="M281.532 280.704L285.644 284.811V304H277.401L277.425 284.811L281.532 280.704ZM281.532 281.98L278.327 285.185L278.305 303.097H284.741V285.185L281.532 281.98Z" fill="#959DA8"/>
<path d="M292.519 284.998L288.863 281.342L285.207 284.998L285.18 303.549H292.519V284.998Z" fill="#F4F5F6"/>
<path fill-rule="evenodd" clip-rule="evenodd" d="M288.862 280.704L292.969 284.811V304H284.727L284.755 284.811L288.862 280.704ZM285.657 285.186L285.631 303.097H292.066V285.185L288.862 281.981L285.657 285.186Z" fill="#959DA8"/>
<path d="M299.848 284.998L296.192 281.342L292.536 284.998L292.509 303.549H299.848V284.998Z" fill="#F4F5F6"/>
<path fill-rule="evenodd" clip-rule="evenodd" d="M296.193 280.704L300.3 284.811V304H292.058L292.086 284.811L296.193 280.704ZM292.988 285.186L292.962 303.097H299.397V285.185L296.193 281.981L292.988 285.186Z" fill="#959DA8"/>
<path d="M307.176 284.998L303.515 281.342L299.859 284.998L299.837 303.549H307.176V284.998Z" fill="#F4F5F6"/>
<path fill-rule="evenodd" clip-rule="evenodd" d="M303.518 280.704L307.63 284.811V304H299.388L299.411 284.811L303.518 280.704ZM303.518 281.98L300.313 285.185L300.291 303.097H306.727V285.185L303.518 281.98Z" fill="#959DA8"/>
<path d="M314.503 284.998L310.847 281.342L307.191 284.998L307.164 303.549H314.503V284.998Z" fill="#F4F5F6"/>
<path fill-rule="evenodd" clip-rule="evenodd" d="M310.848 280.704L314.955 284.811V304H306.713L306.741 284.811L310.848 280.704ZM310.848 281.981L307.643 285.186L307.617 303.097H314.052V285.185L310.848 281.981Z" fill="#959DA8"/>
<path d="M38.4258 284.998L34.7699 281.342L31.114 284.998L31.0869 303.549H38.4258V284.998Z" fill="#F4F5F6"/>
<path fill-rule="evenodd" clip-rule="evenodd" d="M34.7727 280.704L38.88 284.811V304H30.6377L30.6657 284.811L34.7727 280.704ZM31.5679 285.186L31.5417 303.097H37.9773V285.185L34.7727 281.981L31.5679 285.186Z" fill="#959DA8"/>
<path d="M45.7549 284.998L42.099 281.342L38.4431 284.998L38.416 303.549H45.7549V284.998Z" fill="#F4F5F6"/>
<path fill-rule="evenodd" clip-rule="evenodd" d="M42.1028 280.704L46.21 284.811V304H37.9678L37.9958 284.811L42.1028 280.704ZM38.8979 285.186L38.8718 303.097H45.3073V285.185L42.1028 281.981L38.8979 285.186Z" fill="#959DA8"/>
<path d="M53.0889 284.998L49.433 281.342L45.7726 284.998L45.75 303.549H53.0889V284.998Z" fill="#F4F5F6"/>
<path fill-rule="evenodd" clip-rule="evenodd" d="M49.432 280.704L53.539 284.811V304H45.2969L45.3202 284.811L49.432 280.704ZM46.2225 285.185L46.2007 303.097H52.6363V285.185L49.4316 281.98L46.2225 285.185Z" fill="#959DA8"/>
<path d="M60.4141 284.998L56.7582 281.342L53.1023 284.998L53.0752 303.549H60.4141V284.998Z" fill="#F4F5F6"/>
<path fill-rule="evenodd" clip-rule="evenodd" d="M56.7551 280.704L60.8624 284.811V304H52.6201L52.6481 284.811L56.7551 280.704ZM53.5503 285.186L53.5241 303.097H59.9597V285.185L56.7551 281.981L53.5503 285.186Z" fill="#959DA8"/>
<path d="M67.7413 284.998L64.0853 281.342L60.4294 284.998L60.4023 303.549H67.7413V284.998Z" fill="#F4F5F6"/>
<path fill-rule="evenodd" clip-rule="evenodd" d="M64.0852 280.704L68.1925 284.811V304H59.9502L59.9782 284.811L64.0852 280.704ZM64.0852 281.981L60.8804 285.186L60.8542 303.097H67.2898V285.185L64.0852 281.981Z" fill="#959DA8"/>
<path d="M143.003 252.79H123.663V294.806H143.003V252.79Z" fill="#D3DCE5"/>
<path d="M140.263 255.457H126.394V275.465H140.263V255.457Z" fill="white"/>
<path fill-rule="evenodd" clip-rule="evenodd" d="M126.17 255.232H140.491V275.692H126.17V255.232ZM126.621 255.683V275.24H140.04V255.683H126.621Z" fill="#959DA8"/>
<path d="M140.499 278.724C140.499 279.223 140.095 279.627 139.596 279.627C139.098 279.627 138.693 279.223 138.693 278.724C138.693 278.225 139.098 277.821 139.596 277.821C140.095 277.821 140.499 278.225 140.499 278.724Z" fill="white"/>
<path fill-rule="evenodd" clip-rule="evenodd" d="M139.598 278.048C139.224 278.048 138.921 278.351 138.921 278.725C138.921 279.098 139.224 279.402 139.598 279.402C139.972 279.402 140.275 279.098 140.275 278.725C140.275 278.351 139.972 278.048 139.598 278.048ZM138.47 278.725C138.47 278.101 138.975 277.596 139.598 277.596C140.221 277.596 140.726 278.101 140.726 278.725C140.726 279.348 140.221 279.853 139.598 279.853C138.975 279.853 138.47 279.348 138.47 278.725Z" fill="#959DA8"/>
<path fill-rule="evenodd" clip-rule="evenodd" d="M90.3028 202.785L189.781 202.853L159.14 236.236L63.4707 235.14L90.3028 202.785ZM90.7267 203.688L65.374 234.259L158.747 235.329L187.729 203.755L90.7267 203.688Z" fill="#959DA8"/>
<path fill-rule="evenodd" clip-rule="evenodd" d="M114.804 294.575H166.257V299.436H114.804V294.575ZM115.255 295.027V298.985H165.806V295.027H115.255Z" fill="#959DA8"/>
<path fill-rule="evenodd" clip-rule="evenodd" d="M114.804 298.976H166.257V303.837H114.804V298.976ZM115.255 299.427V303.386H165.806V299.427H115.255Z" fill="#959DA8"/>
<path d="M161.795 234.799H62.3135V239.1H161.795V234.799Z" fill="#F4F5F6"/>
<path fill-rule="evenodd" clip-rule="evenodd" d="M61.8613 234.348H162.246V239.552H61.8613V234.348ZM62.764 235.25V238.649H161.343V235.25H62.764Z" fill="#959DA8"/>
<path d="M163.257 224.522H129.451V247.062H163.257V224.522Z" fill="#F4F5F6"/>
<path fill-rule="evenodd" clip-rule="evenodd" d="M129.226 224.296H163.483V247.288H129.226V224.296ZM129.677 224.747V246.836H163.032V224.747H129.677Z" fill="#959DA8"/>
<path d="M89.7142 224.562L115.279 246.132V303.454H64.1318V246.132L89.7142 224.562Z" fill="#F4F5F6"/>
<path fill-rule="evenodd" clip-rule="evenodd" d="M89.7125 223.972L115.728 245.923V303.905H63.6787V245.923L89.7125 223.972ZM64.5814 246.342V303.002H114.825V246.342L89.7123 225.153L64.5814 246.342Z" fill="#959DA8"/>
<path d="M34.5144 277.335C34.8102 275.951 34.7966 274.519 34.4743 273.141C34.1521 271.763 33.5292 270.474 32.6504 269.365C31.7715 268.256 30.6584 267.355 29.3907 266.726C28.1229 266.098 26.7319 265.757 25.3172 265.729C23.9025 265.701 22.499 265.986 21.2073 266.563C19.9156 267.141 18.7675 267.997 17.8453 269.07C16.9231 270.144 16.2495 271.407 15.8728 272.771C15.496 274.135 15.4255 275.566 15.6661 276.96C14.6001 277.461 13.656 278.189 12.8991 279.091C12.1422 279.994 11.5906 281.05 11.2826 282.187C10.9746 283.324 10.9176 284.515 11.1154 285.676C11.3133 286.837 11.7613 287.942 12.4285 288.912C13.0956 289.883 13.9659 290.698 14.979 291.299C15.9922 291.9 17.1239 292.273 18.2957 292.393C19.4676 292.513 20.6516 292.377 21.7656 291.994C22.8796 291.611 23.897 290.991 24.7472 290.175C25.5721 290.974 26.5571 291.589 27.637 291.98C28.717 292.37 29.8675 292.527 31.0126 292.441C32.1577 292.354 33.2715 292.025 34.2804 291.477C35.2892 290.928 36.1704 290.172 36.8656 289.258C37.5608 288.344 38.0544 287.293 38.3137 286.174C38.5731 285.055 38.5923 283.894 38.3701 282.768C38.1479 281.641 37.6894 280.574 37.0248 279.638C36.3602 278.701 35.5046 277.916 34.5144 277.335Z" fill="#80C33F"/>
<path fill-rule="evenodd" clip-rule="evenodd" d="M20.4303 282.644C20.5312 282.492 20.7358 282.451 20.8872 282.552L25.3104 285.5C25.4619 285.601 25.5028 285.805 25.4019 285.957C25.301 286.108 25.0965 286.149 24.945 286.048L20.5218 283.101C20.3704 283 20.3294 282.795 20.4303 282.644Z" fill="#2A3A51"/>
<path fill-rule="evenodd" clip-rule="evenodd" d="M30.5391 284.829C30.6575 284.967 30.6413 285.175 30.503 285.293L25.3396 289.712C25.2014 289.83 24.9934 289.814 24.8751 289.676C24.7567 289.538 24.7729 289.33 24.9112 289.211L30.0746 284.793C30.2128 284.674 30.4208 284.69 30.5391 284.829Z" fill="#2A3A51"/>
<path fill-rule="evenodd" clip-rule="evenodd" d="M25.1176 276.54C25.2995 276.54 25.4471 276.688 25.4471 276.87V303.431C25.4471 303.613 25.2995 303.761 25.1176 303.761C24.9356 303.761 24.7881 303.613 24.7881 303.431V276.87C24.7881 276.688 24.9356 276.54 25.1176 276.54Z" fill="#2A3A51"/>
<path d="M126.768 224.581H124.836V230.516H126.768V224.581Z" fill="white"/>
<path fill-rule="evenodd" clip-rule="evenodd" d="M124.389 224.129H127.223V230.967H124.389V224.129ZM125.291 225.032V230.065H126.32V225.032H125.291Z" fill="#959DA8"/>
<path d="M179.632 214.84H127.799L123.051 226.991H184.375L179.632 214.84Z" fill="#F4F5F6"/>
<path fill-rule="evenodd" clip-rule="evenodd" d="M127.491 214.389H179.94L185.036 227.442H122.39L127.491 214.389ZM128.107 215.292L123.712 226.539H183.714L179.323 215.292H128.107Z" fill="#959DA8"/>
<path d="M139.32 229.361H133.281V242.093H139.325L139.32 229.361Z" fill="white"/>
<path fill-rule="evenodd" clip-rule="evenodd" d="M133.054 229.135H139.544L139.549 242.319H133.054V229.135ZM133.505 229.586V241.867H139.097L139.093 229.586H133.505Z" fill="#959DA8"/>
<path fill-rule="evenodd" clip-rule="evenodd" d="M136.067 234.502V229.361H136.519V234.502H136.067Z" fill="#959DA8"/>
<path fill-rule="evenodd" clip-rule="evenodd" d="M139.32 234.817H133.285V234.366H139.32V234.817Z" fill="#959DA8"/>
<path d="M149.685 229.361H143.659V242.093H149.703L149.685 229.361Z" fill="white"/>
<path fill-rule="evenodd" clip-rule="evenodd" d="M143.436 229.135H149.912L149.931 242.319H143.436V229.135ZM143.887 229.586V241.867H149.479L149.461 229.586H143.887Z" fill="#959DA8"/>
<path fill-rule="evenodd" clip-rule="evenodd" d="M146.434 234.502V229.361H146.885V234.502H146.434Z" fill="#959DA8"/>
<path fill-rule="evenodd" clip-rule="evenodd" d="M149.685 234.817H143.646V234.366H149.685V234.817Z" fill="#959DA8"/>
<path d="M160.049 229.361H154.006V242.093H160.049V229.361Z" fill="white"/>
<path fill-rule="evenodd" clip-rule="evenodd" d="M153.782 229.135H160.277V242.319H153.782V229.135ZM154.234 229.586V241.867H159.826V229.586H154.234Z" fill="#959DA8"/>
<path fill-rule="evenodd" clip-rule="evenodd" d="M156.802 234.502V229.361H157.253V234.502H156.802Z" fill="#959DA8"/>
<path fill-rule="evenodd" clip-rule="evenodd" d="M160.051 234.817H154.012V234.366H160.051V234.817Z" fill="#959DA8"/>
<path d="M216.396 180.683L279.133 243.257V303.503H153.658V242.932L216.396 180.683Z" fill="#F4F5F6"/>
<path fill-rule="evenodd" clip-rule="evenodd" d="M216.395 180.046L279.582 243.07V303.955H153.205V242.744L216.395 180.046ZM154.108 243.12V303.052H278.68V243.445L216.393 181.319L154.108 243.12Z" fill="#959DA8"/>
<path d="M192.194 301.743C192.195 302.223 192.131 302.701 192.005 303.164H149.194C149.061 302.701 148.98 302.224 148.951 301.743C148.766 298.791 151.352 296.376 154.317 296.376C154.933 296.376 155.544 296.485 156.123 296.697C156.089 296.397 156.072 296.096 156.073 295.794C156.06 293.765 156.766 291.798 158.066 290.24C159.366 288.683 161.176 287.637 163.175 287.289C165.173 286.94 167.231 287.311 168.981 288.336C170.732 289.361 172.063 290.974 172.737 292.887C173.7 292.021 174.871 291.419 176.137 291.139C177.402 290.86 178.718 290.913 179.956 291.292C181.195 291.672 182.314 292.366 183.205 293.307C184.096 294.248 184.728 295.403 185.041 296.66C185.849 296.371 186.715 296.281 187.566 296.397C188.417 296.514 189.227 296.833 189.928 297.329C190.629 297.825 191.2 298.483 191.593 299.246C191.986 300.01 192.189 300.857 192.185 301.716L192.194 301.743Z" fill="#80C33F"/>
<path fill-rule="evenodd" clip-rule="evenodd" d="M277.856 242.174H154.873V241.723H277.856V242.174Z" fill="#959DA8"/>
<path fill-rule="evenodd" clip-rule="evenodd" d="M279.253 246.494H153.761V246.042H279.253V246.494Z" fill="#959DA8"/>
<path d="M240.591 238.319H188.758L184.01 250.465H245.334L240.591 238.319Z" fill="#F4F5F6"/>
<path fill-rule="evenodd" clip-rule="evenodd" d="M188.45 237.869H240.899L245.995 250.917H183.349L188.45 237.869ZM189.066 238.771L184.671 250.014H244.673L240.282 238.771H189.066Z" fill="#959DA8"/>
<path d="M223.04 202.311H209.265V231.333H223.04V202.311Z" fill="white"/>
<path fill-rule="evenodd" clip-rule="evenodd" d="M209.037 202.085H223.264V231.558H209.037V202.085ZM209.488 202.536V231.107H222.812V202.536H209.488Z" fill="#959DA8"/>
<path fill-rule="evenodd" clip-rule="evenodd" d="M215.921 214.028V202.311H216.372V214.028H215.921Z" fill="#959DA8"/>
<path fill-rule="evenodd" clip-rule="evenodd" d="M223.038 214.457H209.276V214.006H223.038V214.457Z" fill="#959DA8"/>
<path d="M203.689 252.84H189.914V281.885H203.689V252.84Z" fill="white"/>
<path fill-rule="evenodd" clip-rule="evenodd" d="M189.687 252.613H203.913V282.109H189.687V252.613ZM190.138 253.065V281.657H203.462V253.065H190.138Z" fill="#959DA8"/>
<path fill-rule="evenodd" clip-rule="evenodd" d="M196.571 264.553V252.84H197.023V264.553H196.571Z" fill="#959DA8"/>
<path fill-rule="evenodd" clip-rule="evenodd" d="M203.689 264.986H189.928V264.534H203.689V264.986Z" fill="#959DA8"/>
<path d="M221.794 252.84H208.015V281.885H221.79L221.794 252.84Z" fill="white"/>
<path fill-rule="evenodd" clip-rule="evenodd" d="M207.787 252.613H222.018L222.014 282.109H207.787V252.613ZM208.238 253.065V281.657H221.562L221.567 253.065H208.238Z" fill="#959DA8"/>
<path fill-rule="evenodd" clip-rule="evenodd" d="M214.673 264.553V252.84H215.124V264.553H214.673Z" fill="#959DA8"/>
<path fill-rule="evenodd" clip-rule="evenodd" d="M221.794 264.986H208.032V264.534H221.794V264.986Z" fill="#959DA8"/>
<path d="M239.889 252.84H226.114V281.885H239.889V252.84Z" fill="white"/>
<path fill-rule="evenodd" clip-rule="evenodd" d="M225.891 252.613H240.117V282.109H225.891V252.613ZM226.342 253.065V281.657H239.666V253.065H226.342Z" fill="#959DA8"/>
<path fill-rule="evenodd" clip-rule="evenodd" d="M232.775 264.553V252.84H233.227V264.553H232.775Z" fill="#959DA8"/>
<path fill-rule="evenodd" clip-rule="evenodd" d="M239.891 264.986H226.134V264.534H239.891V264.986Z" fill="#959DA8"/>
<path d="M87.2429 252.772H73.4678V281.798H87.2429V252.772Z" fill="white"/>
<path fill-rule="evenodd" clip-rule="evenodd" d="M73.2402 252.545H87.4667V282.023H73.2402V252.545ZM73.6916 252.997V281.572H87.0154V252.997H73.6916Z" fill="#959DA8"/>
<path fill-rule="evenodd" clip-rule="evenodd" d="M80.1279 264.489V252.772H80.5793V264.489H80.1279Z" fill="#959DA8"/>
<path fill-rule="evenodd" clip-rule="evenodd" d="M87.2424 264.922H73.4854V264.471H87.2424V264.922Z" fill="#959DA8"/>
<path d="M105.341 252.772H91.5654V281.798H105.341V252.772Z" fill="white"/>
<path fill-rule="evenodd" clip-rule="evenodd" d="M91.3398 252.545H105.566V282.023H91.3398V252.545ZM91.7912 252.997V281.572H105.115V252.997H91.7912Z" fill="#959DA8"/>
<path fill-rule="evenodd" clip-rule="evenodd" d="M98.2266 264.489V252.772H98.6779V264.489H98.2266Z" fill="#959DA8"/>
<path fill-rule="evenodd" clip-rule="evenodd" d="M105.341 264.922H91.5791V264.471H105.341V264.922Z" fill="#959DA8"/>
<path d="M107.464 285.738H72.1912L71.7354 281.739H107.92L107.464 285.738Z" fill="#F4F5F6"/>
<path fill-rule="evenodd" clip-rule="evenodd" d="M71.4824 281.514H108.173L107.665 285.964H71.9897L71.4824 281.514ZM71.9881 281.965L72.3926 285.513H107.263L107.667 281.965H71.9881Z" fill="#959DA8"/>
<path d="M187.568 250.452H185.637V256.387H187.568V250.452Z" fill="#F4F5F6"/>
<path fill-rule="evenodd" clip-rule="evenodd" d="M185.188 250H188.023V256.838H185.188V250ZM186.091 250.903V255.935H187.12V250.903H186.091Z" fill="#959DA8"/>
<path d="M243.848 250.52H241.916V256.455H243.848V250.52Z" fill="#F4F5F6"/>
<path fill-rule="evenodd" clip-rule="evenodd" d="M241.466 250.068H244.3V256.906H241.466V250.068ZM242.369 250.971V256.003H243.398V250.971H242.369Z" fill="#959DA8"/>
<path d="M122.193 250.908H115.446L89.782 225.24L64.1139 250.908H57.3662L89.782 218.497L122.193 250.908Z" fill="#F4F5F6"/>
<path d="M219.677 177.762L216.559 174.639L213.444 177.762L146.004 245.387L152.151 245.424L216.559 180.885L280.966 245.424L287.127 245.387L219.677 177.762Z" fill="#F4F5F6"/>
<path fill-rule="evenodd" clip-rule="evenodd" d="M89.7828 224.92L115.606 250.748L115.287 251.067L89.7828 225.559L64.2742 251.067L63.9551 250.748L89.7828 224.92Z" fill="#959DA8"/>
<path fill-rule="evenodd" clip-rule="evenodd" d="M89.779 217.858L123.28 251.359H115.443V250.457H121.101L89.779 219.135L58.453 250.457H64.1108V251.359H56.2734L89.779 217.858Z" fill="#959DA8"/>
<path fill-rule="evenodd" clip-rule="evenodd" d="M216.556 174L219.995 177.443L288.206 245.832L281.323 245.875L281.32 245.875H280.269L278.795 244.785L279.332 244.059L280.566 244.972L281.317 244.972L281.32 244.972L286.044 244.943L219.356 178.081L216.557 175.278L213.762 178.081L147.083 244.943L151.783 244.972L151.786 244.972L152.54 244.972L153.374 244.368L153.903 245.099L152.833 245.875H151.783L151.781 245.875L144.921 245.832L216.556 174Z" fill="#959DA8"/>
<path fill-rule="evenodd" clip-rule="evenodd" d="M216.555 180.565L281.122 245.264L280.803 245.583L216.555 181.204L152.308 245.583L151.988 245.264L216.555 180.565Z" fill="#959DA8"/>
<line x1="8.74228e-08" y1="304" x2="310" y2="304" stroke="#959DA8" stroke-width="2" stroke-miterlimit="10"/>
</g>
</svg>
