<svg width="310" height="305" viewBox="0 0 310 305" fill="none" xmlns="http://www.w3.org/2000/svg">
<mask id="mask0" mask-type="alpha" maskUnits="userSpaceOnUse" x="0" y="0" width="310" height="305">
<rect width="310" height="305" fill="white"/>
</mask>
<g mask="url(#mask0)">
<path d="M330.954 110H47.0957V119.405H330.954V110Z" fill="#D3DCE5"/>
<path fill-rule="evenodd" clip-rule="evenodd" d="M262.144 184.38H328.464V243.813H262.144V184.38ZM262.582 184.818V243.375H328.025V184.818H262.582Z" fill="#959DA8"/>
<path fill-rule="evenodd" clip-rule="evenodd" d="M244.596 125.385H319.846V177.978H244.596V125.385ZM245.034 125.824V177.54H319.408V125.824H245.034Z" fill="#959DA8"/>
<path fill-rule="evenodd" clip-rule="evenodd" d="M228.271 177.46H261.787V244.748H228.271V177.46ZM228.87 178.058V244.15H261.189V178.058H228.87Z" fill="#959DA8"/>
<path fill-rule="evenodd" clip-rule="evenodd" d="M228.291 244.167H261.77V303.54H228.291V244.167ZM228.853 244.729V302.978H261.208V244.729H228.853Z" fill="#959DA8"/>
<path fill-rule="evenodd" clip-rule="evenodd" d="M261.509 244.21H339.805V303.68H261.509V244.21ZM261.984 244.685V303.205H339.33V244.685H261.984Z" fill="#959DA8"/>
<path d="M251.246 184.234H238.199V237.817H251.246V184.234Z" fill="white"/>
<path fill-rule="evenodd" clip-rule="evenodd" d="M237.966 184.008H251.47V238.047H237.966V184.008ZM238.422 184.464V237.59H251.013V184.464H238.422Z" fill="#959DA8"/>
<path d="M251.246 247.077H238.199V300.66H251.246V247.077Z" fill="white"/>
<path fill-rule="evenodd" clip-rule="evenodd" d="M237.966 246.849H251.47V300.888H237.966V246.849ZM238.422 247.306V300.432H251.013V247.306H238.422Z" fill="#959DA8"/>
<path d="M322.616 125.603V118.763H244.812V177.33H251.651V125.603H322.616Z" fill="#F4F5F6"/>
<path fill-rule="evenodd" clip-rule="evenodd" d="M244.356 118.307H323.074V126.06H252.11V177.787H244.356V118.307ZM245.27 119.22V176.874H251.196V125.147H322.161V119.22H245.27Z" fill="#959DA8"/>
<path fill-rule="evenodd" clip-rule="evenodd" d="M117.118 177.46H150.634V244.748H117.118V177.46ZM117.716 178.058V244.15H150.035V178.058H117.716Z" fill="#959DA8"/>
<path fill-rule="evenodd" clip-rule="evenodd" d="M117.14 244.167H150.619V303.54H117.14V244.167ZM117.701 244.729V302.978H150.057V244.729H117.701Z" fill="#959DA8"/>
<path fill-rule="evenodd" clip-rule="evenodd" d="M150.36 244.21H228.657V303.68H150.36V244.21ZM150.835 244.685V303.205H228.182V244.685H150.835Z" fill="#959DA8"/>
<path d="M140.094 184.234H127.047V237.817H140.094V184.234Z" fill="white"/>
<path fill-rule="evenodd" clip-rule="evenodd" d="M126.823 184.008H140.327V238.047H126.823V184.008ZM127.28 184.464V237.59H139.87V184.464H127.28Z" fill="#959DA8"/>
<path d="M140.094 247.077H127.047V300.66H140.094V247.077Z" fill="white"/>
<path fill-rule="evenodd" clip-rule="evenodd" d="M126.823 246.849H140.327V300.888H126.823V246.849ZM127.28 247.306V300.432H139.87V247.306H127.28Z" fill="#959DA8"/>
<path d="M217.224 125.244H156.947V177.544H217.224" fill="white"/>
<path fill-rule="evenodd" clip-rule="evenodd" d="M156.627 124.92H217.228V125.569H157.275V177.22H217.228V177.869H156.627V124.92Z" fill="#959DA8"/>
<path d="M185.81 128.289H159.108V175.793H185.81V128.289Z" fill="white"/>
<path fill-rule="evenodd" clip-rule="evenodd" d="M158.879 128.06H186.037V176.02H158.879V128.06ZM159.336 128.516V175.563H185.58V128.516H159.336Z" fill="#959DA8"/>
<path fill-rule="evenodd" clip-rule="evenodd" d="M185.605 141.436H159.108V140.979H185.605V141.436Z" fill="#959DA8"/>
<path d="M217.028 125.603H187.744V169.635H217.028V125.603Z" fill="#D3DCE5"/>
<path d="M324.959 187.711H271.521V235.215H324.959V187.711Z" fill="white"/>
<path fill-rule="evenodd" clip-rule="evenodd" d="M271.29 187.482H325.184V235.443H271.29V187.482ZM271.747 187.939V234.986H324.727V187.939H271.747Z" fill="#959DA8"/>
<path fill-rule="evenodd" clip-rule="evenodd" d="M298.027 238.464V187.703H298.484V238.464H298.027Z" fill="#959DA8"/>
<path fill-rule="evenodd" clip-rule="evenodd" d="M324.758 200.859H271.543V200.402H324.758V200.859Z" fill="#959DA8"/>
<path d="M224.494 187.711H171.057V235.215H224.494V187.711Z" fill="white"/>
<path fill-rule="evenodd" clip-rule="evenodd" d="M170.829 187.482H224.723V235.443H170.829V187.482ZM171.286 187.939V234.986H224.266V187.939H171.286Z" fill="#959DA8"/>
<path fill-rule="evenodd" clip-rule="evenodd" d="M197.564 238.464V187.703H198.021V238.464H197.564Z" fill="#959DA8"/>
<path fill-rule="evenodd" clip-rule="evenodd" d="M224.295 200.859H171.08V200.402H224.295V200.859Z" fill="#959DA8"/>
<path d="M111.209 251.835H57.7715V299.338H111.209V251.835Z" fill="white"/>
<path fill-rule="evenodd" clip-rule="evenodd" d="M57.5439 251.606H111.438V299.567H57.5439V251.606ZM58.0006 252.063V299.11H110.981V252.063H58.0006Z" fill="#959DA8"/>
<path fill-rule="evenodd" clip-rule="evenodd" d="M84.2773 302.588V251.827H84.734V302.588H84.2773Z" fill="#959DA8"/>
<path fill-rule="evenodd" clip-rule="evenodd" d="M111.008 264.983H57.793V264.526H111.008V264.983Z" fill="#959DA8"/>
<path d="M204.221 127.379H191.174V175.404H204.221V127.379Z" fill="white"/>
<path fill-rule="evenodd" clip-rule="evenodd" d="M190.944 127.15H204.448V175.632H190.944V127.15ZM191.401 127.607V175.175H203.992V127.607H191.401Z" fill="#959DA8"/>
<path d="M339.285 244.448H307.659V303.015H339.285V244.448Z" fill="#D3DCE5"/>
<path d="M318.115 128.391H253.562V177.078H318.115V128.391Z" fill="white"/>
<path fill-rule="evenodd" clip-rule="evenodd" d="M253.34 128.162H318.349V177.306H253.34V128.162ZM253.797 128.618V176.849H317.892V128.618H253.797Z" fill="#959DA8"/>
<path fill-rule="evenodd" clip-rule="evenodd" d="M267.678 176.689V128.707H268.134V176.689H267.678Z" fill="#959DA8"/>
<path fill-rule="evenodd" clip-rule="evenodd" d="M285.63 176.689V128.707H286.087V176.689H285.63Z" fill="#959DA8"/>
<path fill-rule="evenodd" clip-rule="evenodd" d="M303.582 176.689V128.707H304.039V176.689H303.582Z" fill="#959DA8"/>
<path d="M220.45 125.603V118.763H150.341V176.689L157.181 176.902V125.603H220.45Z" fill="#F4F5F6"/>
<path fill-rule="evenodd" clip-rule="evenodd" d="M149.885 118.307H220.908V126.06H157.638V177.374L149.885 177.132V118.307ZM150.798 119.22V176.247L156.725 176.432V125.147H219.994V119.22H150.798Z" fill="#959DA8"/>
<path fill-rule="evenodd" clip-rule="evenodd" d="M117.697 303.234H51.3772L51.3772 244.229H117.697L117.697 303.234ZM117.259 302.796L117.259 244.667H51.8156L51.8156 302.796H117.259Z" fill="#959DA8"/>
<path fill-rule="evenodd" clip-rule="evenodd" d="M116.84 243.812H50.5198L50.5198 184.379H116.84L116.84 243.812ZM116.401 243.374L116.401 184.818H50.9582L50.9582 243.374H116.401Z" fill="#959DA8"/>
<path fill-rule="evenodd" clip-rule="evenodd" d="M134.388 177.977H59.1372V125.383H134.388V177.977ZM133.949 177.538V125.822H59.5756V177.538H133.949Z" fill="#959DA8"/>
<path d="M80.4405 184.812H50.5156V229.271H80.4405V184.812Z" fill="#D3DCE5"/>
<path d="M182.275 244.662H150.648V303.229H182.275V244.662Z" fill="#D3DCE5"/>
<path fill-rule="evenodd" clip-rule="evenodd" d="M117.47 303.681H39.1731L39.1731 244.211H117.47L117.47 303.681ZM116.995 303.206L116.995 244.686H39.6481L39.6481 303.206H116.995Z" fill="#959DA8"/>
<path d="M56.3721 125.603V118.763H134.172V177.33H127.332V125.603H56.3721Z" fill="#F4F5F6"/>
<path fill-rule="evenodd" clip-rule="evenodd" d="M55.9121 118.307H134.626V177.787H126.872V126.06H55.9121V118.307ZM56.8254 119.22V125.147H127.786V176.874H133.712V119.22H56.8254Z" fill="#959DA8"/>
<path d="M42.9006 184.599V177.759H117.499V244.449H107.666H36.2744V238.036H110.659V184.599H42.9006Z" fill="#F4F5F6"/>
<path fill-rule="evenodd" clip-rule="evenodd" d="M42.4426 177.302H117.954V244.905H35.8164V237.579H110.201V185.055H42.4426V177.302ZM43.3559 178.215V184.142H111.114V238.492H36.7297V243.991H117.041V178.215H43.3559Z" fill="#959DA8"/>
<path d="M82.8008 187.283H107.869V234.786H82.8008V187.283Z" fill="white"/>
<path fill-rule="evenodd" clip-rule="evenodd" d="M82.5693 187.055H108.094V235.015H82.5693V187.055ZM83.026 187.511V234.558H107.638V187.511H83.026Z" fill="#959DA8"/>
<path fill-rule="evenodd" clip-rule="evenodd" d="M82.793 199.973H107.87V200.43H82.793V199.973Z" fill="#959DA8"/>
<path d="M191.811 246.706H216.879V294.209H191.811V246.706Z" fill="white"/>
<path fill-rule="evenodd" clip-rule="evenodd" d="M191.588 246.477H217.113V294.437H191.588V246.477ZM192.045 246.933V293.98H216.656V246.933H192.045Z" fill="#959DA8"/>
<path fill-rule="evenodd" clip-rule="evenodd" d="M191.803 259.396H216.88V259.853H191.803V259.396Z" fill="#959DA8"/>
<path d="M272.182 246.706H297.25V294.209H272.182V246.706Z" fill="white"/>
<path fill-rule="evenodd" clip-rule="evenodd" d="M271.958 246.477H297.483V294.437H271.958V246.477ZM272.415 246.933V293.98H297.026V246.933H272.415Z" fill="#959DA8"/>
<path fill-rule="evenodd" clip-rule="evenodd" d="M272.172 259.396H297.249V259.853H272.172V259.396Z" fill="#959DA8"/>
<path d="M60.8691 128.391H125.421V177.078H60.8691V128.391Z" fill="white"/>
<path fill-rule="evenodd" clip-rule="evenodd" d="M60.6338 128.162H125.643V177.306H60.6338V128.162ZM61.0905 128.618V176.849H125.186V128.618H61.0905Z" fill="#959DA8"/>
<path fill-rule="evenodd" clip-rule="evenodd" d="M110.855 176.689V128.707H111.312V176.689H110.855Z" fill="#959DA8"/>
<path fill-rule="evenodd" clip-rule="evenodd" d="M92.8945 176.689V128.707H93.3512V176.689H92.8945Z" fill="#959DA8"/>
<path fill-rule="evenodd" clip-rule="evenodd" d="M74.9463 176.689V128.707H75.403V176.689H74.9463Z" fill="#959DA8"/>
<path d="M228.573 184.599V177.759H150.341V244.449H157.181H228.573V237.609H157.181V184.599H228.573Z" fill="#F4F5F6"/>
<path fill-rule="evenodd" clip-rule="evenodd" d="M149.885 177.302H229.03V185.055H157.638V237.151H229.03V244.905H149.885V177.302ZM150.798 178.215V243.991H228.117V238.065H156.725V184.142H228.117V178.215H150.798Z" fill="#959DA8"/>
<path d="M336.082 185.027V177.759H261.483V244.449H342.708V238.036H268.323V185.027H336.082Z" fill="#F4F5F6"/>
<path fill-rule="evenodd" clip-rule="evenodd" d="M261.03 177.302H336.542V185.483H268.784V237.579H343.168V244.905H261.03V177.302ZM261.944 178.215V243.991H342.255V238.492H267.87V184.569H335.629V178.215H261.944Z" fill="#959DA8"/>
<path d="M161.757 225.211C161.614 225.211 161.47 225.196 161.33 225.164C154.781 223.672 154.781 215.759 154.781 215.759C154.731 211.247 156.063 206.827 158.598 203.093C158.953 202.584 159.425 202.168 159.975 201.881C160.524 201.594 161.135 201.444 161.755 201.444C162.375 201.444 162.986 201.594 163.536 201.881C164.086 202.168 164.558 202.584 164.912 203.093C167.449 206.826 168.782 211.246 168.734 215.759C168.734 215.759 168.734 223.702 162.185 225.164C162.045 225.196 161.901 225.211 161.757 225.211V225.211Z" fill="#80C33F"/>
<path fill-rule="evenodd" clip-rule="evenodd" d="M161.756 209.952C161.882 209.952 161.984 210.054 161.984 210.18V237.156C161.984 237.282 161.882 237.384 161.756 237.384C161.63 237.384 161.527 237.282 161.527 237.156V210.18C161.527 210.054 161.63 209.952 161.756 209.952Z" fill="#2A3A51"/>
<path d="M300.604 228.545C300.6 227.593 300.825 226.655 301.26 225.809C301.696 224.963 302.329 224.234 303.105 223.685C303.882 223.135 304.779 222.78 305.722 222.651C306.665 222.521 307.625 222.621 308.521 222.94C308.867 221.546 309.569 220.265 310.557 219.222C311.545 218.179 312.787 217.409 314.161 216.988C315.534 216.567 316.994 216.509 318.397 216.82C319.8 217.13 321.098 217.798 322.167 218.76C322.921 216.65 324.396 214.874 326.331 213.745C328.266 212.616 330.538 212.205 332.746 212.586C334.953 212.968 336.956 214.115 338.401 215.828C339.845 217.541 340.639 219.708 340.643 221.949C340.644 222.28 340.627 222.611 340.592 222.94C341.233 222.705 340.938 229.605 340.788 230.127H300.817C300.674 229.607 300.602 229.071 300.604 228.532V228.545Z" fill="#80C33F"/>
<path d="M89.8451 169.124C89.849 168.172 89.6237 167.234 89.1882 166.388C88.7528 165.542 88.12 164.813 87.3434 164.263C86.5668 163.713 85.6692 163.359 84.7265 163.229C83.7839 163.1 82.8239 163.199 81.9278 163.519C81.5815 162.125 80.8801 160.843 79.8918 159.8C78.9035 158.757 77.662 157.988 76.2881 157.567C74.9143 157.146 73.4549 157.088 72.0519 157.398C70.6489 157.709 69.3502 158.377 68.2821 159.338C67.5276 157.228 66.053 155.453 64.1178 154.323C62.1826 153.194 59.911 152.784 57.7031 153.165C55.4952 153.546 53.4926 154.694 52.048 156.407C50.6033 158.119 49.8092 160.287 49.8057 162.527C49.8044 162.859 49.8216 163.19 49.857 163.519C49.2157 163.284 49.5107 170.184 49.6603 170.705H89.6313C89.7746 170.186 89.8466 169.649 89.8451 169.111V169.124Z" fill="#80C33F"/>
<path d="M272.56 221.363V238.035H268.473L268.477 221.363H272.56Z" fill="#F4F5F6"/>
<path fill-rule="evenodd" clip-rule="evenodd" d="M268.248 221.135H272.787V238.264H268.243L268.248 221.135ZM268.704 221.591L268.7 237.807H272.33V221.591H268.704Z" fill="#959DA8"/>
<path d="M268.284 221.363V238.035H264.197L264.202 221.363H268.284Z" fill="#F4F5F6"/>
<path fill-rule="evenodd" clip-rule="evenodd" d="M263.979 221.135H268.518V238.264H263.975L263.979 221.135ZM264.436 221.591L264.431 237.807H268.062V221.591H264.436Z" fill="#959DA8"/>
<path d="M264.009 221.363V238.035H261.205L261.209 221.363H264.009Z" fill="#F4F5F6"/>
<path fill-rule="evenodd" clip-rule="evenodd" d="M260.984 221.135H264.241V238.264H260.979L260.984 221.135ZM261.44 221.591L261.436 237.807H263.784V221.591H261.44Z" fill="#959DA8"/>
<path d="M276.837 221.363H272.66V238.035H276.837V221.363Z" fill="#F4F5F6"/>
<path fill-rule="evenodd" clip-rule="evenodd" d="M272.425 221.135H277.058V238.264H272.425V221.135ZM272.881 221.591V237.807H276.601V221.591H272.881Z" fill="#959DA8"/>
<path d="M281.109 221.363H276.933V238.035H281.109V221.363Z" fill="#F4F5F6"/>
<path fill-rule="evenodd" clip-rule="evenodd" d="M276.703 221.135H281.336V238.264H276.703V221.135ZM277.16 221.591V237.807H280.88V221.591H277.16Z" fill="#959DA8"/>
<path d="M285.381 221.363H281.204V238.035H285.381V221.363Z" fill="#F4F5F6"/>
<path fill-rule="evenodd" clip-rule="evenodd" d="M280.979 221.135H285.612V238.264H280.979V221.135ZM281.435 221.591V237.807H285.155V221.591H281.435Z" fill="#959DA8"/>
<path d="M289.659 221.363H285.482V238.035H289.659V221.363Z" fill="#F4F5F6"/>
<path fill-rule="evenodd" clip-rule="evenodd" d="M285.253 221.135H289.886V238.264H285.253V221.135ZM285.71 221.591V237.807H289.43V221.591H285.71Z" fill="#959DA8"/>
<path d="M293.935 221.363H289.759V238.035H293.935V221.363Z" fill="#F4F5F6"/>
<path fill-rule="evenodd" clip-rule="evenodd" d="M289.526 221.135H294.16V238.264H289.526V221.135ZM289.983 221.591V237.807H293.703V221.591H289.983Z" fill="#959DA8"/>
<path d="M298.207 221.363H294.03V238.035H298.207V221.363Z" fill="#F4F5F6"/>
<path fill-rule="evenodd" clip-rule="evenodd" d="M293.805 221.135H298.438V238.264H293.805V221.135ZM294.261 221.591V237.807H297.981V221.591H294.261Z" fill="#959DA8"/>
<path d="M302.483 221.363H298.307V238.035H302.483V221.363Z" fill="#F4F5F6"/>
<path fill-rule="evenodd" clip-rule="evenodd" d="M298.082 221.135H302.715V238.264H298.082V221.135ZM298.539 221.591V237.807H302.259V221.591H298.539Z" fill="#959DA8"/>
<path d="M306.763 221.363H302.586V238.035H306.763V221.363Z" fill="#F4F5F6"/>
<path fill-rule="evenodd" clip-rule="evenodd" d="M302.353 221.135H306.986V238.264H302.353V221.135ZM302.809 221.591V237.807H306.529V221.591H302.809Z" fill="#959DA8"/>
<path d="M311.031 221.363H306.854V238.035H311.031V221.363Z" fill="#F4F5F6"/>
<path fill-rule="evenodd" clip-rule="evenodd" d="M306.627 221.135H311.26V238.264H306.627V221.135ZM307.084 221.591V237.807H310.804V221.591H307.084Z" fill="#959DA8"/>
<path d="M198.171 221.363V238.035H194.084L194.088 221.363H198.171Z" fill="#F4F5F6"/>
<path fill-rule="evenodd" clip-rule="evenodd" d="M193.866 221.135H198.405V238.264H193.861L193.866 221.135ZM194.322 221.591L194.318 237.807H197.948V221.591H194.322Z" fill="#959DA8"/>
<path d="M202.448 221.363H198.271V238.035H202.448V221.363Z" fill="#F4F5F6"/>
<path fill-rule="evenodd" clip-rule="evenodd" d="M198.048 221.135H202.681V238.264H198.048V221.135ZM198.505 221.591V237.807H202.224V221.591H198.505Z" fill="#959DA8"/>
<path d="M206.727 221.363H202.551V238.035H206.727V221.363Z" fill="#F4F5F6"/>
<path fill-rule="evenodd" clip-rule="evenodd" d="M202.319 221.135H206.953V238.264H202.319V221.135ZM202.776 221.591V237.807H206.496V221.591H202.776Z" fill="#959DA8"/>
<path d="M210.998 221.363H206.821V238.035H210.998V221.363Z" fill="#F4F5F6"/>
<path fill-rule="evenodd" clip-rule="evenodd" d="M206.592 221.135H211.225V238.264H206.592V221.135ZM207.048 221.591V237.807H210.768V221.591H207.048Z" fill="#959DA8"/>
<path d="M215.271 221.363H211.095V238.035H215.271V221.363Z" fill="#F4F5F6"/>
<path fill-rule="evenodd" clip-rule="evenodd" d="M210.869 221.135H215.502V238.264H210.869V221.135ZM211.326 221.591V237.807H215.046V221.591H211.326Z" fill="#959DA8"/>
<path d="M219.55 221.363H215.373V238.035H219.55V221.363Z" fill="#F4F5F6"/>
<path fill-rule="evenodd" clip-rule="evenodd" d="M215.146 221.135H219.779V238.264H215.146V221.135ZM215.602 221.591V237.807H219.322V221.591H215.602Z" fill="#959DA8"/>
<path d="M223.826 221.363H219.649V238.035H223.826V221.363Z" fill="#F4F5F6"/>
<path fill-rule="evenodd" clip-rule="evenodd" d="M219.417 221.135H224.05V238.264H219.417V221.135ZM219.874 221.591V237.807H223.594V221.591H219.874Z" fill="#959DA8"/>
<path d="M228.099 238.035H223.923V221.363H228.099" fill="#F4F5F6"/>
<path fill-rule="evenodd" clip-rule="evenodd" d="M223.695 221.135H228.1V221.591H224.152V237.807H228.1V238.264H223.695V221.135Z" fill="#959DA8"/>
<path d="M159.702 221.363H155.525V238.035H159.702V221.363Z" fill="#F4F5F6"/>
<path fill-rule="evenodd" clip-rule="evenodd" d="M155.298 221.135H159.931V238.264H155.298V221.135ZM155.755 221.591V237.807H159.474V221.591H155.755Z" fill="#959DA8"/>
<path d="M155.424 221.363H151.247V238.035H155.424V221.363Z" fill="#F4F5F6"/>
<path fill-rule="evenodd" clip-rule="evenodd" d="M151.021 221.135H155.655V238.264H151.021V221.135ZM151.478 221.591V237.807H155.198V221.591H151.478Z" fill="#959DA8"/>
<path d="M163.976 221.363H159.8V238.035H163.976V221.363Z" fill="#F4F5F6"/>
<path fill-rule="evenodd" clip-rule="evenodd" d="M159.565 221.135H164.199V238.264H159.565V221.135ZM160.022 221.591V237.807H163.742V221.591H160.022Z" fill="#959DA8"/>
<path d="M168.246 221.363H164.069V238.035H168.246V221.363Z" fill="#F4F5F6"/>
<path fill-rule="evenodd" clip-rule="evenodd" d="M163.844 221.135H168.477V238.264H163.844V221.135ZM164.3 221.591V237.807H168.02V221.591H164.3Z" fill="#959DA8"/>
<path d="M172.524 221.363H168.348V238.035H172.524V221.363Z" fill="#F4F5F6"/>
<path fill-rule="evenodd" clip-rule="evenodd" d="M168.122 221.135H172.755V238.264H168.122V221.135ZM168.579 221.591V237.807H172.299V221.591H168.579Z" fill="#959DA8"/>
<path d="M176.804 221.363H172.627V238.035H176.804V221.363Z" fill="#F4F5F6"/>
<path fill-rule="evenodd" clip-rule="evenodd" d="M172.39 221.135H177.023V238.264H172.39V221.135ZM172.846 221.591V237.807H176.566V221.591H172.846Z" fill="#959DA8"/>
<path d="M181.074 221.363H176.897V238.035H181.074V221.363Z" fill="#F4F5F6"/>
<path fill-rule="evenodd" clip-rule="evenodd" d="M176.67 221.135H181.303V238.264H176.67V221.135ZM177.127 221.591V237.807H180.847V221.591H177.127Z" fill="#959DA8"/>
<path d="M185.348 221.363H181.171V238.035H185.348V221.363Z" fill="#F4F5F6"/>
<path fill-rule="evenodd" clip-rule="evenodd" d="M180.947 221.135H185.581V238.264H180.947V221.135ZM181.404 221.591V237.807H185.124V221.591H181.404Z" fill="#959DA8"/>
<path d="M189.622 221.363H185.445V238.035H189.622V221.363Z" fill="#F4F5F6"/>
<path fill-rule="evenodd" clip-rule="evenodd" d="M185.22 221.135H189.853V238.264H185.22V221.135ZM185.676 221.591V237.807H189.396V221.591H185.676Z" fill="#959DA8"/>
<path d="M193.902 221.363H189.726V238.035H193.902V221.363Z" fill="#F4F5F6"/>
<path fill-rule="evenodd" clip-rule="evenodd" d="M189.491 221.135H194.125V238.264H189.491V221.135ZM189.948 221.591V237.807H193.668V221.591H189.948Z" fill="#959DA8"/>
<path d="M86.6035 221.363V238.035H82.5166L82.5209 221.363H86.6035Z" fill="#F4F5F6"/>
<path fill-rule="evenodd" clip-rule="evenodd" d="M82.2876 221.135H86.8268V238.264H82.2832L82.2876 221.135ZM82.7441 221.591L82.74 237.807H86.3701V221.591H82.7441Z" fill="#959DA8"/>
<path d="M90.8749 221.363H86.6982V238.035H90.8749V221.363Z" fill="#F4F5F6"/>
<path fill-rule="evenodd" clip-rule="evenodd" d="M86.4648 221.135H91.0982V238.264H86.4648V221.135ZM86.9215 221.591V237.807H90.6415V221.591H86.9215Z" fill="#959DA8"/>
<path d="M95.1444 221.363H90.9678V238.035H95.1444V221.363Z" fill="#F4F5F6"/>
<path fill-rule="evenodd" clip-rule="evenodd" d="M90.7422 221.135H95.3755V238.264H90.7422V221.135ZM91.1988 221.591V237.807H94.9188V221.591H91.1988Z" fill="#959DA8"/>
<path d="M99.4227 221.363H95.2461V238.035H99.4227V221.363Z" fill="#F4F5F6"/>
<path fill-rule="evenodd" clip-rule="evenodd" d="M95.0225 221.135H99.6558V238.264H95.0225V221.135ZM95.4791 221.591V237.807H99.1991V221.591H95.4791Z" fill="#959DA8"/>
<path d="M103.701 221.363H99.5244V238.035H103.701V221.363Z" fill="#F4F5F6"/>
<path fill-rule="evenodd" clip-rule="evenodd" d="M99.29 221.135H103.923V238.264H99.29V221.135ZM99.7467 221.591V237.807H103.467V221.591H99.7467Z" fill="#959DA8"/>
<path d="M107.969 221.363H103.792V238.035H107.969V221.363Z" fill="#F4F5F6"/>
<path fill-rule="evenodd" clip-rule="evenodd" d="M103.564 221.135H108.198V238.264H103.564V221.135ZM104.021 221.591V237.807H107.741V221.591H104.021Z" fill="#959DA8"/>
<path d="M112.243 221.363H108.066V238.035H112.243V221.363Z" fill="#F4F5F6"/>
<path fill-rule="evenodd" clip-rule="evenodd" d="M107.844 221.135H112.477V238.264H107.844V221.135ZM108.3 221.591V237.807H112.02V221.591H108.3Z" fill="#959DA8"/>
<path d="M116.351 221.363H112.346V238.035H116.351V221.363Z" fill="#F4F5F6"/>
<path fill-rule="evenodd" clip-rule="evenodd" d="M112.14 221.16H116.552V238.239H112.14V221.16ZM112.546 221.566V237.832H116.145V221.566H112.546Z" fill="#959DA8"/>
<path d="M48.121 221.363H43.9443V238.035H48.121V221.363Z" fill="#F4F5F6"/>
<path fill-rule="evenodd" clip-rule="evenodd" d="M43.7188 221.135H48.3521V238.264H43.7188V221.135ZM44.1754 221.591V237.807H47.8954V221.591H44.1754Z" fill="#959DA8"/>
<path d="M43.8515 221.363H39.6748V238.035H43.8515V221.363Z" fill="#F4F5F6"/>
<path fill-rule="evenodd" clip-rule="evenodd" d="M39.4385 221.135H44.0718V238.264H39.4385V221.135ZM39.8951 221.591V237.807H43.6151V221.591H39.8951Z" fill="#959DA8"/>
<path d="M52.3954 221.363H48.2188V238.035H52.3954V221.363Z" fill="#F4F5F6"/>
<path fill-rule="evenodd" clip-rule="evenodd" d="M47.9951 221.135H52.6284V238.264H47.9951V221.135ZM48.4518 221.591V237.807H52.1718V221.591H48.4518Z" fill="#959DA8"/>
<path d="M56.6767 221.363H52.5V238.035H56.6767V221.363Z" fill="#F4F5F6"/>
<path fill-rule="evenodd" clip-rule="evenodd" d="M52.2666 221.135H56.8999V238.264H52.2666V221.135ZM52.7233 221.591V237.807H56.4433V221.591H52.7233Z" fill="#959DA8"/>
<path d="M60.9511 221.363H56.7744V238.035H60.9511V221.363Z" fill="#F4F5F6"/>
<path fill-rule="evenodd" clip-rule="evenodd" d="M56.5391 221.135H61.1724V238.264H56.5391V221.135ZM56.9957 221.591V237.807H60.7157V221.591H56.9957Z" fill="#959DA8"/>
<path d="M65.2206 221.363H61.0439V238.035H65.2206V221.363Z" fill="#F4F5F6"/>
<path fill-rule="evenodd" clip-rule="evenodd" d="M60.8164 221.135H65.4497V238.264H60.8164V221.135ZM61.2731 221.591V237.807H64.9931V221.591H61.2731Z" fill="#959DA8"/>
<path d="M69.4989 221.363H65.3223V238.035H69.4989V221.363Z" fill="#F4F5F6"/>
<path fill-rule="evenodd" clip-rule="evenodd" d="M65.0967 221.135H69.73V238.264H65.0967V221.135ZM65.5533 221.591V237.807H69.2733V221.591H65.5533Z" fill="#959DA8"/>
<path d="M73.7733 221.363H69.5967V238.035H73.7733V221.363Z" fill="#F4F5F6"/>
<path fill-rule="evenodd" clip-rule="evenodd" d="M69.3643 221.135H73.9976V238.264H69.3643V221.135ZM69.8209 221.591V237.807H73.5409V221.591H69.8209Z" fill="#959DA8"/>
<path d="M78.0448 221.363H73.8682V238.035H78.0448V221.363Z" fill="#F4F5F6"/>
<path fill-rule="evenodd" clip-rule="evenodd" d="M73.6445 221.135H78.2778V238.264H73.6445V221.135ZM74.1012 221.591V237.807H77.8212V221.591H74.1012Z" fill="#959DA8"/>
<path d="M82.3212 221.363H78.1445V238.035H82.3212V221.363Z" fill="#F4F5F6"/>
<path fill-rule="evenodd" clip-rule="evenodd" d="M77.918 221.135H82.5513V238.264H77.918V221.135ZM78.3746 221.591V237.807H82.0946V221.591H78.3746Z" fill="#959DA8"/>
<path d="M298.208 161.087V177.759H294.121L294.125 161.087H298.208Z" fill="#F4F5F6"/>
<path fill-rule="evenodd" clip-rule="evenodd" d="M293.901 160.857H298.44V177.986H293.896L293.901 160.857ZM294.357 161.314L294.353 177.529H297.983V161.314H294.357Z" fill="#959DA8"/>
<path d="M302.483 161.087H298.307V177.759H302.483V161.087Z" fill="#F4F5F6"/>
<path fill-rule="evenodd" clip-rule="evenodd" d="M298.082 160.857H302.715V177.986H298.082V160.857ZM298.539 161.314V177.529H302.259V161.314H298.539Z" fill="#959DA8"/>
<path d="M306.763 161.087H302.586V177.759H306.763V161.087Z" fill="#F4F5F6"/>
<path fill-rule="evenodd" clip-rule="evenodd" d="M302.353 160.857H306.986V177.986H302.353V160.857ZM302.809 161.314V177.529H306.529V161.314H302.809Z" fill="#959DA8"/>
<path d="M311.031 161.087H306.854V177.759H311.031V161.087Z" fill="#F4F5F6"/>
<path fill-rule="evenodd" clip-rule="evenodd" d="M306.627 160.857H311.26V177.986H306.627V160.857ZM307.084 161.314V177.529H310.804V161.314H307.084Z" fill="#959DA8"/>
<path d="M255.46 161.087V177.759H251.373L251.377 161.087H255.46Z" fill="#F4F5F6"/>
<path fill-rule="evenodd" clip-rule="evenodd" d="M251.148 160.857H255.687V177.986H251.144L251.148 160.857ZM251.604 161.314L251.6 177.529H255.23V161.314H251.604Z" fill="#959DA8"/>
<path d="M259.737 161.087H255.561V177.759H259.737V161.087Z" fill="#F4F5F6"/>
<path fill-rule="evenodd" clip-rule="evenodd" d="M255.329 160.857H259.962V177.986H255.329V160.857ZM255.786 161.314V177.529H259.506V161.314H255.786Z" fill="#959DA8"/>
<path d="M264.01 161.087H259.833V177.759H264.01V161.087Z" fill="#F4F5F6"/>
<path fill-rule="evenodd" clip-rule="evenodd" d="M259.601 160.857H264.234V177.986H259.601V160.857ZM260.057 161.314V177.529H263.777V161.314H260.057Z" fill="#959DA8"/>
<path d="M268.279 161.087H264.103V177.759H268.279V161.087Z" fill="#F4F5F6"/>
<path fill-rule="evenodd" clip-rule="evenodd" d="M263.879 160.857H268.512V177.986H263.879V160.857ZM264.336 161.314V177.529H268.056V161.314H264.336Z" fill="#959DA8"/>
<path d="M272.556 161.087H268.379V177.759H272.556V161.087Z" fill="#F4F5F6"/>
<path fill-rule="evenodd" clip-rule="evenodd" d="M268.155 160.857H272.789V177.986H268.155V160.857ZM268.612 161.314V177.529H272.332V161.314H268.612Z" fill="#959DA8"/>
<path d="M276.837 161.087H272.66V177.759H276.837V161.087Z" fill="#F4F5F6"/>
<path fill-rule="evenodd" clip-rule="evenodd" d="M272.425 160.857H277.058V177.986H272.425V160.857ZM272.881 161.314V177.529H276.601V161.314H272.881Z" fill="#959DA8"/>
<path d="M281.109 161.087H276.933V177.759H281.109V161.087Z" fill="#F4F5F6"/>
<path fill-rule="evenodd" clip-rule="evenodd" d="M276.703 160.857H281.336V177.986H276.703V160.857ZM277.16 161.314V177.529H280.88V161.314H277.16Z" fill="#959DA8"/>
<path d="M285.381 161.087H281.204V177.759H285.381V161.087Z" fill="#F4F5F6"/>
<path fill-rule="evenodd" clip-rule="evenodd" d="M280.979 160.857H285.612V177.986H280.979V160.857ZM281.435 161.314V177.529H285.155V161.314H281.435Z" fill="#959DA8"/>
<path d="M289.659 161.087H285.482V177.759H289.659V161.087Z" fill="#F4F5F6"/>
<path fill-rule="evenodd" clip-rule="evenodd" d="M285.253 160.857H289.886V177.986H285.253V160.857ZM285.71 161.314V177.529H289.43V161.314H285.71Z" fill="#959DA8"/>
<path d="M293.935 161.087H289.759V177.759H293.935V161.087Z" fill="#F4F5F6"/>
<path fill-rule="evenodd" clip-rule="evenodd" d="M289.526 160.857H294.16V177.986H289.526V160.857ZM289.983 161.314V177.529H293.703V161.314H289.983Z" fill="#959DA8"/>
<path d="M213.137 161.087V177.759H209.05L209.054 161.087H213.137Z" fill="#F4F5F6"/>
<path fill-rule="evenodd" clip-rule="evenodd" d="M208.822 160.857H213.361V177.986H208.817L208.822 160.857ZM209.278 161.314L209.274 177.529H212.904V161.314H209.278Z" fill="#959DA8"/>
<path d="M217.414 161.087H213.237V177.759H217.414V161.087Z" fill="#F4F5F6"/>
<path fill-rule="evenodd" clip-rule="evenodd" d="M213.005 160.857H217.638V177.986H213.005V160.857ZM213.462 161.314V177.529H217.182V161.314H213.462Z" fill="#959DA8"/>
<path d="M221.683 161.087H217.507V177.759H221.683V161.087Z" fill="#F4F5F6"/>
<path fill-rule="evenodd" clip-rule="evenodd" d="M217.283 160.857H221.917V177.986H217.283V160.857ZM217.74 161.314V177.529H221.46V161.314H217.74Z" fill="#959DA8"/>
<path d="M225.958 161.087H221.781V177.759H225.958V161.087Z" fill="#F4F5F6"/>
<path fill-rule="evenodd" clip-rule="evenodd" d="M221.558 160.857H226.191V177.986H221.558V160.857ZM222.014 161.314V177.529H225.734V161.314H222.014Z" fill="#959DA8"/>
<path d="M230.239 161.087H226.062V177.759H230.239V161.087Z" fill="#F4F5F6"/>
<path fill-rule="evenodd" clip-rule="evenodd" d="M225.829 160.857H230.462V177.986H225.829V160.857ZM226.286 161.314V177.529H230.006V161.314H226.286Z" fill="#959DA8"/>
<path d="M234.51 161.087H230.333V177.759H234.51V161.087Z" fill="#F4F5F6"/>
<path fill-rule="evenodd" clip-rule="evenodd" d="M230.105 160.857H234.739V177.986H230.105V160.857ZM230.562 161.314V177.529H234.282V161.314H230.562Z" fill="#959DA8"/>
<path d="M238.785 161.087H234.608V177.759H238.785V161.087Z" fill="#F4F5F6"/>
<path fill-rule="evenodd" clip-rule="evenodd" d="M234.385 160.857H239.018V177.986H234.385V160.857ZM234.841 161.314V177.529H238.561V161.314H234.841Z" fill="#959DA8"/>
<path d="M243.063 161.087H238.887V177.759H243.063V161.087Z" fill="#F4F5F6"/>
<path fill-rule="evenodd" clip-rule="evenodd" d="M238.657 160.857H243.291V177.986H238.657V160.857ZM239.114 161.314V177.529H242.834V161.314H239.114Z" fill="#959DA8"/>
<path d="M247.338 161.087H243.161V177.759H247.338V161.087Z" fill="#F4F5F6"/>
<path fill-rule="evenodd" clip-rule="evenodd" d="M242.929 160.857H247.562V177.986H242.929V160.857ZM243.385 161.314V177.529H247.105V161.314H243.385Z" fill="#959DA8"/>
<path d="M251.607 161.087H247.431V177.759H251.607V161.087Z" fill="#F4F5F6"/>
<path fill-rule="evenodd" clip-rule="evenodd" d="M247.207 160.857H251.84V177.986H247.207V160.857ZM247.664 161.314V177.529H251.384V161.314H247.664Z" fill="#959DA8"/>
<path d="M170.385 161.087V177.759H166.298L166.302 161.087H170.385Z" fill="#F4F5F6"/>
<path fill-rule="evenodd" clip-rule="evenodd" d="M166.075 160.857H170.614V177.986H166.07L166.075 160.857ZM166.531 161.314L166.527 177.529H170.157V161.314H166.531Z" fill="#959DA8"/>
<path d="M174.658 161.087H170.481V177.759H174.658V161.087Z" fill="#F4F5F6"/>
<path fill-rule="evenodd" clip-rule="evenodd" d="M170.254 160.857H174.887V177.986H170.254V160.857ZM170.711 161.314V177.529H174.431V161.314H170.711Z" fill="#959DA8"/>
<path d="M178.934 161.087H174.758V177.759H178.934V161.087Z" fill="#F4F5F6"/>
<path fill-rule="evenodd" clip-rule="evenodd" d="M174.535 160.857H179.168V177.986H174.535V160.857ZM174.992 161.314V177.529H178.712V161.314H174.992Z" fill="#959DA8"/>
<path d="M183.212 161.087H179.035V177.759H183.212V161.087Z" fill="#F4F5F6"/>
<path fill-rule="evenodd" clip-rule="evenodd" d="M178.806 160.857H183.439V177.986H178.806V160.857ZM179.262 161.314V177.529H182.982V161.314H179.262Z" fill="#959DA8"/>
<path d="M187.49 161.087H183.313V177.759H187.49V161.087Z" fill="#F4F5F6"/>
<path fill-rule="evenodd" clip-rule="evenodd" d="M183.08 160.857H187.713V177.986H183.08V160.857ZM183.537 161.314V177.529H187.257V161.314H183.537Z" fill="#959DA8"/>
<path d="M191.76 161.087H187.583V177.759H191.76V161.087Z" fill="#F4F5F6"/>
<path fill-rule="evenodd" clip-rule="evenodd" d="M187.359 160.857H191.993V177.986H187.359V160.857ZM187.816 161.314V177.529H191.536V161.314H187.816Z" fill="#959DA8"/>
<path d="M196.034 161.087H191.857V177.759H196.034V161.087Z" fill="#F4F5F6"/>
<path fill-rule="evenodd" clip-rule="evenodd" d="M191.634 160.857H196.267V177.986H191.634V160.857ZM192.09 161.314V177.529H195.81V161.314H192.09Z" fill="#959DA8"/>
<path d="M200.315 161.087H196.139V177.759H200.315V161.087Z" fill="#F4F5F6"/>
<path fill-rule="evenodd" clip-rule="evenodd" d="M195.905 160.857H200.539V177.986H195.905V160.857ZM196.362 161.314V177.529H200.082V161.314H196.362Z" fill="#959DA8"/>
<path d="M204.584 161.087H200.407V177.759H204.584V161.087Z" fill="#F4F5F6"/>
<path fill-rule="evenodd" clip-rule="evenodd" d="M200.18 160.857H204.813V177.986H200.18V160.857ZM200.636 161.314V177.529H204.356V161.314H200.636Z" fill="#959DA8"/>
<path d="M208.86 161.087H204.684V177.759H208.86V161.087Z" fill="#F4F5F6"/>
<path fill-rule="evenodd" clip-rule="evenodd" d="M204.461 160.857H209.094V177.986H204.461V160.857ZM204.918 161.314V177.529H208.638V161.314H204.918Z" fill="#959DA8"/>
<path d="M127.637 161.087V177.759H123.55L123.554 161.087H127.637Z" fill="#F4F5F6"/>
<path fill-rule="evenodd" clip-rule="evenodd" d="M123.329 160.857H127.868V177.986H123.324L123.329 160.857ZM123.785 161.314L123.781 177.529H127.411V161.314H123.785Z" fill="#959DA8"/>
<path d="M131.91 161.087H127.733V177.759H131.91V161.087Z" fill="#F4F5F6"/>
<path fill-rule="evenodd" clip-rule="evenodd" d="M127.508 160.857H132.141V177.986H127.508V160.857ZM127.964 161.314V177.529H131.684V161.314H127.964Z" fill="#959DA8"/>
<path d="M136.186 161.087H132.01V177.759H136.186V161.087Z" fill="#F4F5F6"/>
<path fill-rule="evenodd" clip-rule="evenodd" d="M131.786 160.857H136.419V177.986H131.786V160.857ZM132.243 161.314V177.529H135.963V161.314H132.243Z" fill="#959DA8"/>
<path d="M140.465 161.087H136.288V177.759H140.465V161.087Z" fill="#F4F5F6"/>
<path fill-rule="evenodd" clip-rule="evenodd" d="M136.056 160.857H140.689V177.986H136.056V160.857ZM136.512 161.314V177.529H140.232V161.314H136.512Z" fill="#959DA8"/>
<path d="M144.734 161.087H140.558V177.759H144.734V161.087Z" fill="#F4F5F6"/>
<path fill-rule="evenodd" clip-rule="evenodd" d="M140.332 160.857H144.965V177.986H140.332V160.857ZM140.789 161.314V177.529H144.509V161.314H140.789Z" fill="#959DA8"/>
<path d="M149.013 161.087H144.836V177.759H149.013V161.087Z" fill="#F4F5F6"/>
<path fill-rule="evenodd" clip-rule="evenodd" d="M144.609 160.857H149.243V177.986H144.609V160.857ZM145.066 161.314V177.529H148.786V161.314H145.066Z" fill="#959DA8"/>
<path d="M153.286 161.087H149.109V177.759H153.286V161.087Z" fill="#F4F5F6"/>
<path fill-rule="evenodd" clip-rule="evenodd" d="M148.88 160.857H153.513V177.986H148.88V160.857ZM149.337 161.314V177.529H153.057V161.314H149.337Z" fill="#959DA8"/>
<path d="M157.564 161.087H153.388V177.759H157.564V161.087Z" fill="#F4F5F6"/>
<path fill-rule="evenodd" clip-rule="evenodd" d="M153.154 160.857H157.788V177.986H153.154V160.857ZM153.611 161.314V177.529H157.331V161.314H153.611Z" fill="#959DA8"/>
<path d="M161.834 161.087H157.657V177.759H161.834V161.087Z" fill="#F4F5F6"/>
<path fill-rule="evenodd" clip-rule="evenodd" d="M157.434 160.857H162.067V177.986H157.434V160.857ZM157.89 161.314V177.529H161.61V161.314H157.89Z" fill="#959DA8"/>
<path d="M166.112 161.087H161.936V177.759H166.112V161.087Z" fill="#F4F5F6"/>
<path fill-rule="evenodd" clip-rule="evenodd" d="M161.71 160.857H166.343V177.986H161.71V160.857ZM162.167 161.314V177.529H165.887V161.314H162.167Z" fill="#959DA8"/>
<path d="M84.8896 161.087V177.759H80.8027L80.807 161.087H84.8896Z" fill="#F4F5F6"/>
<path fill-rule="evenodd" clip-rule="evenodd" d="M80.5786 160.857H85.1178V177.986H80.5742L80.5786 160.857ZM81.0352 161.314L81.031 177.529H84.6612V161.314H81.0352Z" fill="#959DA8"/>
<path d="M89.163 161.087H84.9863V177.759H89.163V161.087Z" fill="#F4F5F6"/>
<path fill-rule="evenodd" clip-rule="evenodd" d="M84.7607 160.857H89.3941V177.986H84.7607V160.857ZM85.2174 161.314V177.529H88.9374V161.314H85.2174Z" fill="#959DA8"/>
<path d="M93.4403 161.087H89.2637V177.759H93.4403V161.087Z" fill="#F4F5F6"/>
<path fill-rule="evenodd" clip-rule="evenodd" d="M89.0303 160.857H93.6636V177.986H89.0303V160.857ZM89.4869 161.314V177.529H93.2069V161.314H89.4869Z" fill="#959DA8"/>
<path d="M97.7147 161.087H93.5381V177.759H97.7147V161.087Z" fill="#F4F5F6"/>
<path fill-rule="evenodd" clip-rule="evenodd" d="M93.3086 160.857H97.9419V177.986H93.3086V160.857ZM93.7653 161.314V177.529H97.4852V161.314H93.7653Z" fill="#959DA8"/>
<path d="M101.986 161.087H97.8096V177.759H101.986V161.087Z" fill="#F4F5F6"/>
<path fill-rule="evenodd" clip-rule="evenodd" d="M97.582 160.857H102.215V177.986H97.582V160.857ZM98.0387 161.314V177.529H101.759V161.314H98.0387Z" fill="#959DA8"/>
<path d="M106.259 161.087H102.082V177.759H106.259V161.087Z" fill="#F4F5F6"/>
<path fill-rule="evenodd" clip-rule="evenodd" d="M101.858 160.857H106.492V177.986H101.858V160.857ZM102.315 161.314V177.529H106.035V161.314H102.315Z" fill="#959DA8"/>
<path d="M110.541 161.087H106.364V177.759H110.541V161.087Z" fill="#F4F5F6"/>
<path fill-rule="evenodd" clip-rule="evenodd" d="M106.13 160.857H110.763V177.986H106.13V160.857ZM106.587 161.314V177.529H110.307V161.314H106.587Z" fill="#959DA8"/>
<path d="M114.808 161.087H110.632V177.759H114.808V161.087Z" fill="#F4F5F6"/>
<path fill-rule="evenodd" clip-rule="evenodd" d="M110.408 160.857H115.042V177.986H110.408V160.857ZM110.865 161.314V177.529H114.585V161.314H110.865Z" fill="#959DA8"/>
<path d="M119.087 161.087H114.91V177.759H119.087V161.087Z" fill="#F4F5F6"/>
<path fill-rule="evenodd" clip-rule="evenodd" d="M114.687 160.857H119.32V177.986H114.687V160.857ZM115.143 161.314V177.529H118.863V161.314H115.143Z" fill="#959DA8"/>
<path d="M123.366 161.087H119.189V177.759H123.366V161.087Z" fill="#F4F5F6"/>
<path fill-rule="evenodd" clip-rule="evenodd" d="M118.954 160.857H123.587V177.986H118.954V160.857ZM119.411 161.314V177.529H123.131V161.314H119.411Z" fill="#959DA8"/>
<path d="M46.4144 161.087H43.0928V177.759H46.4144V161.087Z" fill="#F4F5F6"/>
<path fill-rule="evenodd" clip-rule="evenodd" d="M42.8604 160.857H46.6387V177.986H42.8604V160.857ZM43.317 161.314V177.529H46.182V161.314H43.317Z" fill="#959DA8"/>
<path d="M50.6913 161.087H46.5146V177.759H50.6913V161.087Z" fill="#F4F5F6"/>
<path fill-rule="evenodd" clip-rule="evenodd" d="M46.2822 160.857H50.9155V177.986H46.2822V160.857ZM46.7389 161.314V177.529H50.4589V161.314H46.7389Z" fill="#959DA8"/>
<path d="M54.9569 161.087H50.7803V177.759H54.9569V161.087Z" fill="#F4F5F6"/>
<path fill-rule="evenodd" clip-rule="evenodd" d="M50.5566 160.857H55.19V177.986H50.5566V160.857ZM51.0133 161.314V177.529H54.7333V161.314H51.0133Z" fill="#959DA8"/>
<path d="M59.2372 161.087H55.0605V177.759H59.2372V161.087Z" fill="#F4F5F6"/>
<path fill-rule="evenodd" clip-rule="evenodd" d="M54.8369 160.857H59.4702V177.986H54.8369V160.857ZM55.2936 161.314V177.529H59.0136V161.314H55.2936Z" fill="#959DA8"/>
<path d="M63.5126 161.087H59.3359V177.759H63.5126V161.087Z" fill="#F4F5F6"/>
<path fill-rule="evenodd" clip-rule="evenodd" d="M59.1025 160.857H63.7359V177.986H59.1025V160.857ZM59.5592 161.314V177.529H63.2792V161.314H59.5592Z" fill="#959DA8"/>
<path d="M67.789 161.087H63.6123V177.759H67.789V161.087Z" fill="#F4F5F6"/>
<path fill-rule="evenodd" clip-rule="evenodd" d="M63.3828 160.857H68.0161V177.986H63.3828V160.857ZM63.8395 161.314V177.529H67.5595V161.314H63.8395Z" fill="#959DA8"/>
<path d="M72.0614 161.087H67.8848V177.759H72.0614V161.087Z" fill="#F4F5F6"/>
<path fill-rule="evenodd" clip-rule="evenodd" d="M67.6621 160.857H72.2954V177.986H67.6621V160.857ZM68.1188 161.314V177.529H71.8388V161.314H68.1188Z" fill="#959DA8"/>
<path d="M76.3407 161.087H72.1641V177.759H76.3407V161.087Z" fill="#F4F5F6"/>
<path fill-rule="evenodd" clip-rule="evenodd" d="M71.9365 160.857H76.5698V177.986H71.9365V160.857ZM72.3932 161.314V177.529H76.1132V161.314H72.3932Z" fill="#959DA8"/>
<path d="M80.6151 161.087H76.4385V177.759H80.6151V161.087Z" fill="#F4F5F6"/>
<path fill-rule="evenodd" clip-rule="evenodd" d="M76.2041 160.857H80.8374V177.986H76.2041V160.857ZM76.6608 161.314V177.529H80.3808V161.314H76.6608Z" fill="#959DA8"/>
<path fill-rule="evenodd" clip-rule="evenodd" d="M42.5801 160.629H332.909V178.215H42.5801V160.629ZM43.4934 161.543V177.302H331.996V161.543H43.4934Z" fill="#959DA8"/>
<path fill-rule="evenodd" clip-rule="evenodd" d="M149.885 220.906H229.03V238.491H149.885V220.906ZM150.798 221.819V237.578H228.117V221.819H150.798Z" fill="#959DA8"/>
<path fill-rule="evenodd" clip-rule="evenodd" d="M261.026 220.904H341.245V238.494H261.026V220.904ZM261.944 221.822V237.576H340.327V221.822H261.944Z" fill="#959DA8"/>
<path d="M249.083 271.56C249.35 270.311 249.337 269.018 249.045 267.774C248.754 266.53 248.191 265.366 247.397 264.365C246.604 263.364 245.599 262.551 244.454 261.984C243.309 261.416 242.053 261.109 240.776 261.084C239.499 261.058 238.232 261.316 237.066 261.837C235.899 262.358 234.863 263.131 234.03 264.1C233.197 265.069 232.589 266.209 232.248 267.441C231.908 268.672 231.844 269.963 232.06 271.222C231.113 271.683 230.276 272.344 229.607 273.158C228.938 273.972 228.452 274.921 228.184 275.94C227.915 276.958 227.869 278.023 228.05 279.062C228.23 280.1 228.633 281.087 229.229 281.955C229.826 282.824 230.604 283.553 231.508 284.093C232.413 284.634 233.423 284.973 234.471 285.087C235.518 285.201 236.578 285.088 237.578 284.755C238.578 284.422 239.494 283.877 240.264 283.158C241.012 283.858 241.899 284.393 242.867 284.728C243.835 285.064 244.862 285.193 245.883 285.106C246.904 285.02 247.895 284.72 248.793 284.227C249.691 283.734 250.475 283.057 251.095 282.242C251.715 281.426 252.157 280.49 252.393 279.493C252.628 278.496 252.652 277.461 252.462 276.454C252.273 275.447 251.874 274.492 251.292 273.649C250.71 272.806 249.957 272.094 249.083 271.56V271.56Z" fill="#80C33F"/>
<path fill-rule="evenodd" clip-rule="evenodd" d="M236.408 276.336C236.478 276.231 236.62 276.203 236.725 276.273L240.722 278.936C240.827 279.006 240.856 279.148 240.786 279.253C240.716 279.358 240.574 279.386 240.469 279.316L236.472 276.653C236.367 276.583 236.339 276.441 236.408 276.336Z" fill="#2A3A51"/>
<path fill-rule="evenodd" clip-rule="evenodd" d="M245.433 278.311C245.515 278.407 245.504 278.551 245.408 278.633L240.74 282.63C240.644 282.712 240.5 282.701 240.418 282.605C240.336 282.509 240.347 282.365 240.443 282.283L245.111 278.286C245.207 278.204 245.351 278.215 245.433 278.311Z" fill="#2A3A51"/>
<path fill-rule="evenodd" clip-rule="evenodd" d="M240.596 270.904C240.722 270.904 240.824 271.007 240.824 271.133V295.12C240.824 295.246 240.722 295.348 240.596 295.348C240.469 295.348 240.367 295.246 240.367 295.12V271.133C240.367 271.007 240.469 270.904 240.596 270.904Z" fill="#2A3A51"/>
<path fill-rule="evenodd" clip-rule="evenodd" d="M117.949 238.492H38.8038V220.906H117.949V238.492ZM117.036 237.579V221.82H39.7172V237.579H117.036Z" fill="#959DA8"/>
<path d="M298.208 286.771V303.443H294.121L294.125 286.771H298.208Z" fill="#F4F5F6"/>
<path fill-rule="evenodd" clip-rule="evenodd" d="M293.901 286.542H298.44V303.672H293.896L293.901 286.542ZM294.357 286.999L294.353 303.215H297.983V286.999H294.357Z" fill="#959DA8"/>
<path d="M293.936 286.771V303.443H289.849L289.853 286.771H293.936Z" fill="#F4F5F6"/>
<path fill-rule="evenodd" clip-rule="evenodd" d="M289.622 286.542H294.161V303.672H289.617L289.622 286.542ZM290.078 286.999L290.074 303.215H293.704V286.999H290.078Z" fill="#959DA8"/>
<path d="M302.483 286.771H298.307V303.443H302.483V286.771Z" fill="#F4F5F6"/>
<path fill-rule="evenodd" clip-rule="evenodd" d="M298.082 286.542H302.715V303.672H298.082V286.542ZM298.539 286.999V303.215H302.259V286.999H298.539Z" fill="#959DA8"/>
<path d="M306.763 286.771H302.586V303.443H306.763V286.771Z" fill="#F4F5F6"/>
<path fill-rule="evenodd" clip-rule="evenodd" d="M302.353 286.542H306.986V303.672H302.353V286.542ZM302.809 286.999V303.215H306.529V286.999H302.809Z" fill="#959DA8"/>
<path d="M311.031 286.771H306.854V303.443H311.031V286.771Z" fill="#F4F5F6"/>
<path fill-rule="evenodd" clip-rule="evenodd" d="M306.627 286.542H311.26V303.672H306.627V286.542ZM307.084 286.999V303.215H310.804V286.999H307.084Z" fill="#959DA8"/>
<path d="M255.46 286.771V303.443H251.373L251.377 286.771H255.46Z" fill="#F4F5F6"/>
<path fill-rule="evenodd" clip-rule="evenodd" d="M251.148 286.542H255.687V303.672H251.144L251.148 286.542ZM251.604 286.999L251.6 303.215H255.23V286.999H251.604Z" fill="#959DA8"/>
<path d="M259.737 286.771H255.561V303.443H259.737V286.771Z" fill="#F4F5F6"/>
<path fill-rule="evenodd" clip-rule="evenodd" d="M255.329 286.542H259.962V303.672H255.329V286.542ZM255.786 286.999V303.215H259.506V286.999H255.786Z" fill="#959DA8"/>
<path d="M264.01 286.771H259.833V303.443H264.01V286.771Z" fill="#F4F5F6"/>
<path fill-rule="evenodd" clip-rule="evenodd" d="M259.601 286.542H264.234V303.672H259.601V286.542ZM260.057 286.999V303.215H263.777V286.999H260.057Z" fill="#959DA8"/>
<path d="M268.279 286.771H264.103V303.443H268.279V286.771Z" fill="#F4F5F6"/>
<path fill-rule="evenodd" clip-rule="evenodd" d="M263.879 286.542H268.512V303.672H263.879V286.542ZM264.336 286.999V303.215H268.056V286.999H264.336Z" fill="#959DA8"/>
<path d="M272.556 286.771H268.379V303.443H272.556V286.771Z" fill="#F4F5F6"/>
<path fill-rule="evenodd" clip-rule="evenodd" d="M268.155 286.542H272.789V303.672H268.155V286.542ZM268.612 286.999V303.215H272.332V286.999H268.612Z" fill="#959DA8"/>
<path d="M276.837 286.771H272.66V303.443H276.837V286.771Z" fill="#F4F5F6"/>
<path fill-rule="evenodd" clip-rule="evenodd" d="M272.425 286.542H277.058V303.672H272.425V286.542ZM272.881 286.999V303.215H276.601V286.999H272.881Z" fill="#959DA8"/>
<path d="M281.109 286.771H276.933V303.443H281.109V286.771Z" fill="#F4F5F6"/>
<path fill-rule="evenodd" clip-rule="evenodd" d="M276.703 286.542H281.336V303.672H276.703V286.542ZM277.16 286.999V303.215H280.88V286.999H277.16Z" fill="#959DA8"/>
<path d="M285.381 286.771H281.204V303.443H285.381V286.771Z" fill="#F4F5F6"/>
<path fill-rule="evenodd" clip-rule="evenodd" d="M280.979 286.542H285.612V303.672H280.979V286.542ZM281.435 286.999V303.215H285.155V286.999H281.435Z" fill="#959DA8"/>
<path d="M289.659 286.771H285.482V303.443H289.659V286.771Z" fill="#F4F5F6"/>
<path fill-rule="evenodd" clip-rule="evenodd" d="M285.253 286.542H289.886V303.672H285.253V286.542ZM285.71 286.999V303.215H289.43V286.999H285.71Z" fill="#959DA8"/>
<path d="M213.137 286.771V303.443H209.05L209.054 286.771H213.137Z" fill="#F4F5F6"/>
<path fill-rule="evenodd" clip-rule="evenodd" d="M208.822 286.542H213.361V303.672H208.817L208.822 286.542ZM209.278 286.999L209.274 303.215H212.904V286.999H209.278Z" fill="#959DA8"/>
<path d="M217.414 286.771H213.237V303.443H217.414V286.771Z" fill="#F4F5F6"/>
<path fill-rule="evenodd" clip-rule="evenodd" d="M213.005 286.542H217.638V303.672H213.005V286.542ZM213.462 286.999V303.215H217.182V286.999H213.462Z" fill="#959DA8"/>
<path d="M221.683 286.771H217.507V303.443H221.683V286.771Z" fill="#F4F5F6"/>
<path fill-rule="evenodd" clip-rule="evenodd" d="M217.283 286.542H221.917V303.672H217.283V286.542ZM217.74 286.999V303.215H221.46V286.999H217.74Z" fill="#959DA8"/>
<path d="M225.958 286.771H221.781V303.443H225.958V286.771Z" fill="#F4F5F6"/>
<path fill-rule="evenodd" clip-rule="evenodd" d="M221.558 286.542H226.191V303.672H221.558V286.542ZM222.014 286.999V303.215H225.734V286.999H222.014Z" fill="#959DA8"/>
<path d="M230.239 286.771H226.062V303.443H230.239V286.771Z" fill="#F4F5F6"/>
<path fill-rule="evenodd" clip-rule="evenodd" d="M225.829 286.542H230.462V303.672H225.829V286.542ZM226.286 286.999V303.215H230.006V286.999H226.286Z" fill="#959DA8"/>
<path d="M234.51 286.771H230.333V303.443H234.51V286.771Z" fill="#F4F5F6"/>
<path fill-rule="evenodd" clip-rule="evenodd" d="M230.105 286.542H234.739V303.672H230.105V286.542ZM230.562 286.999V303.215H234.282V286.999H230.562Z" fill="#959DA8"/>
<path d="M238.785 286.771H234.608V303.443H238.785V286.771Z" fill="#F4F5F6"/>
<path fill-rule="evenodd" clip-rule="evenodd" d="M234.385 286.542H239.018V303.672H234.385V286.542ZM234.841 286.999V303.215H238.561V286.999H234.841Z" fill="#959DA8"/>
<path d="M243.063 286.771H238.887V303.443H243.063V286.771Z" fill="#F4F5F6"/>
<path fill-rule="evenodd" clip-rule="evenodd" d="M238.657 286.542H243.291V303.672H238.657V286.542ZM239.114 286.999V303.215H242.834V286.999H239.114Z" fill="#959DA8"/>
<path d="M247.338 286.771H243.161V303.443H247.338V286.771Z" fill="#F4F5F6"/>
<path fill-rule="evenodd" clip-rule="evenodd" d="M242.929 286.542H247.562V303.672H242.929V286.542ZM243.385 286.999V303.215H247.105V286.999H243.385Z" fill="#959DA8"/>
<path d="M251.607 286.771H247.431V303.443H251.607V286.771Z" fill="#F4F5F6"/>
<path fill-rule="evenodd" clip-rule="evenodd" d="M247.207 286.542H251.84V303.672H247.207V286.542ZM247.664 286.999V303.215H251.384V286.999H247.664Z" fill="#959DA8"/>
<path d="M170.385 286.771V303.443H166.298L166.302 286.771H170.385Z" fill="#F4F5F6"/>
<path fill-rule="evenodd" clip-rule="evenodd" d="M166.075 286.542H170.614V303.672H166.07L166.075 286.542ZM166.531 286.999L166.527 303.215H170.157V286.999H166.531Z" fill="#959DA8"/>
<path d="M174.658 286.771H170.481V303.443H174.658V286.771Z" fill="#F4F5F6"/>
<path fill-rule="evenodd" clip-rule="evenodd" d="M170.254 286.542H174.887V303.672H170.254V286.542ZM170.711 286.999V303.215H174.431V286.999H170.711Z" fill="#959DA8"/>
<path d="M178.934 286.771H174.758V303.443H178.934V286.771Z" fill="#F4F5F6"/>
<path fill-rule="evenodd" clip-rule="evenodd" d="M174.535 286.542H179.168V303.672H174.535V286.542ZM174.992 286.999V303.215H178.712V286.999H174.992Z" fill="#959DA8"/>
<path d="M183.212 286.771H179.035V303.443H183.212V286.771Z" fill="#F4F5F6"/>
<path fill-rule="evenodd" clip-rule="evenodd" d="M178.806 286.542H183.439V303.672H178.806V286.542ZM179.262 286.999V303.215H182.982V286.999H179.262Z" fill="#959DA8"/>
<path d="M187.49 286.771H183.313V303.443H187.49V286.771Z" fill="#F4F5F6"/>
<path fill-rule="evenodd" clip-rule="evenodd" d="M183.08 286.542H187.713V303.672H183.08V286.542ZM183.537 286.999V303.215H187.257V286.999H183.537Z" fill="#959DA8"/>
<path d="M191.76 286.771H187.583V303.443H191.76V286.771Z" fill="#F4F5F6"/>
<path fill-rule="evenodd" clip-rule="evenodd" d="M187.359 286.542H191.993V303.672H187.359V286.542ZM187.816 286.999V303.215H191.536V286.999H187.816Z" fill="#959DA8"/>
<path d="M196.034 286.771H191.857V303.443H196.034V286.771Z" fill="#F4F5F6"/>
<path fill-rule="evenodd" clip-rule="evenodd" d="M191.634 286.542H196.267V303.672H191.634V286.542ZM192.09 286.999V303.215H195.81V286.999H192.09Z" fill="#959DA8"/>
<path d="M200.315 286.771H196.139V303.443H200.315V286.771Z" fill="#F4F5F6"/>
<path fill-rule="evenodd" clip-rule="evenodd" d="M195.905 286.542H200.539V303.672H195.905V286.542ZM196.362 286.999V303.215H200.082V286.999H196.362Z" fill="#959DA8"/>
<path d="M204.584 286.771H200.407V303.443H204.584V286.771Z" fill="#F4F5F6"/>
<path fill-rule="evenodd" clip-rule="evenodd" d="M200.18 286.542H204.813V303.672H200.18V286.542ZM200.636 286.999V303.215H204.356V286.999H200.636Z" fill="#959DA8"/>
<path d="M208.86 286.771H204.684V303.443H208.86V286.771Z" fill="#F4F5F6"/>
<path fill-rule="evenodd" clip-rule="evenodd" d="M204.461 286.542H209.094V303.672H204.461V286.542ZM204.918 286.999V303.215H208.638V286.999H204.918Z" fill="#959DA8"/>
<path d="M127.637 286.771V303.443H123.55L123.554 286.771H127.637Z" fill="#F4F5F6"/>
<path fill-rule="evenodd" clip-rule="evenodd" d="M123.329 286.542H127.868V303.672H123.324L123.329 286.542ZM123.785 286.999L123.781 303.215H127.411V286.999H123.785Z" fill="#959DA8"/>
<path d="M131.91 286.771H127.733V303.443H131.91V286.771Z" fill="#F4F5F6"/>
<path fill-rule="evenodd" clip-rule="evenodd" d="M127.508 286.542H132.141V303.672H127.508V286.542ZM127.964 286.999V303.215H131.684V286.999H127.964Z" fill="#959DA8"/>
<path d="M136.186 286.771H132.01V303.443H136.186V286.771Z" fill="#F4F5F6"/>
<path fill-rule="evenodd" clip-rule="evenodd" d="M131.786 286.542H136.419V303.672H131.786V286.542ZM132.243 286.999V303.215H135.963V286.999H132.243Z" fill="#959DA8"/>
<path d="M140.465 286.771H136.288V303.443H140.465V286.771Z" fill="#F4F5F6"/>
<path fill-rule="evenodd" clip-rule="evenodd" d="M136.056 286.542H140.689V303.672H136.056V286.542ZM136.512 286.999V303.215H140.232V286.999H136.512Z" fill="#959DA8"/>
<path d="M144.734 286.771H140.558V303.443H144.734V286.771Z" fill="#F4F5F6"/>
<path fill-rule="evenodd" clip-rule="evenodd" d="M140.332 286.542H144.965V303.672H140.332V286.542ZM140.789 286.999V303.215H144.509V286.999H140.789Z" fill="#959DA8"/>
<path d="M149.013 286.771H144.836V303.443H149.013V286.771Z" fill="#F4F5F6"/>
<path fill-rule="evenodd" clip-rule="evenodd" d="M144.609 286.542H149.243V303.672H144.609V286.542ZM145.066 286.999V303.215H148.786V286.999H145.066Z" fill="#959DA8"/>
<path d="M153.286 286.771H149.109V303.443H153.286V286.771Z" fill="#F4F5F6"/>
<path fill-rule="evenodd" clip-rule="evenodd" d="M148.88 286.542H153.513V303.672H148.88V286.542ZM149.337 286.999V303.215H153.057V286.999H149.337Z" fill="#959DA8"/>
<path d="M157.564 286.771H153.388V303.443H157.564V286.771Z" fill="#F4F5F6"/>
<path fill-rule="evenodd" clip-rule="evenodd" d="M153.154 286.542H157.788V303.672H153.154V286.542ZM153.611 286.999V303.215H157.331V286.999H153.611Z" fill="#959DA8"/>
<path d="M161.834 286.771H157.657V303.443H161.834V286.771Z" fill="#F4F5F6"/>
<path fill-rule="evenodd" clip-rule="evenodd" d="M157.434 286.542H162.067V303.672H157.434V286.542ZM157.89 286.999V303.215H161.61V286.999H157.89Z" fill="#959DA8"/>
<path d="M166.112 286.771H161.936V303.443H166.112V286.771Z" fill="#F4F5F6"/>
<path fill-rule="evenodd" clip-rule="evenodd" d="M161.71 286.542H166.343V303.672H161.71V286.542ZM162.167 286.999V303.215H165.887V286.999H162.167Z" fill="#959DA8"/>
<path d="M84.8896 286.771V303.443H80.8027L80.807 286.771H84.8896Z" fill="#F4F5F6"/>
<path fill-rule="evenodd" clip-rule="evenodd" d="M80.5786 286.542H85.1178V303.672H80.5742L80.5786 286.542ZM81.0352 286.999L81.031 303.215H84.6612V286.999H81.0352Z" fill="#959DA8"/>
<path d="M89.163 286.771H84.9863V303.443H89.163V286.771Z" fill="#F4F5F6"/>
<path fill-rule="evenodd" clip-rule="evenodd" d="M84.7607 286.542H89.3941V303.672H84.7607V286.542ZM85.2174 286.999V303.215H88.9374V286.999H85.2174Z" fill="#959DA8"/>
<path d="M93.4403 286.771H89.2637V303.443H93.4403V286.771Z" fill="#F4F5F6"/>
<path fill-rule="evenodd" clip-rule="evenodd" d="M89.0303 286.542H93.6636V303.672H89.0303V286.542ZM89.4869 286.999V303.215H93.2069V286.999H89.4869Z" fill="#959DA8"/>
<path d="M97.7147 286.771H93.5381V303.443H97.7147V286.771Z" fill="#F4F5F6"/>
<path fill-rule="evenodd" clip-rule="evenodd" d="M93.3086 286.542H97.9419V303.672H93.3086V286.542ZM93.7653 286.999V303.215H97.4852V286.999H93.7653Z" fill="#959DA8"/>
<path d="M101.986 286.771H97.8096V303.443H101.986V286.771Z" fill="#F4F5F6"/>
<path fill-rule="evenodd" clip-rule="evenodd" d="M97.582 286.542H102.215V303.672H97.582V286.542ZM98.0387 286.999V303.215H101.759V286.999H98.0387Z" fill="#959DA8"/>
<path d="M106.259 286.771H102.082V303.443H106.259V286.771Z" fill="#F4F5F6"/>
<path fill-rule="evenodd" clip-rule="evenodd" d="M101.858 286.542H106.492V303.672H101.858V286.542ZM102.315 286.999V303.215H106.035V286.999H102.315Z" fill="#959DA8"/>
<path d="M110.541 286.771H106.364V303.443H110.541V286.771Z" fill="#F4F5F6"/>
<path fill-rule="evenodd" clip-rule="evenodd" d="M106.13 286.542H110.763V303.672H106.13V286.542ZM106.587 286.999V303.215H110.307V286.999H106.587Z" fill="#959DA8"/>
<path d="M114.808 286.771H110.632V303.443H114.808V286.771Z" fill="#F4F5F6"/>
<path fill-rule="evenodd" clip-rule="evenodd" d="M110.408 286.542H115.042V303.672H110.408V286.542ZM110.865 286.999V303.215H114.585V286.999H110.865Z" fill="#959DA8"/>
<path d="M119.087 286.771H114.91V303.443H119.087V286.771Z" fill="#F4F5F6"/>
<path fill-rule="evenodd" clip-rule="evenodd" d="M114.687 286.542H119.32V303.672H114.687V286.542ZM115.143 286.999V303.215H118.863V286.999H115.143Z" fill="#959DA8"/>
<path d="M123.366 286.771H119.189V303.443H123.366V286.771Z" fill="#F4F5F6"/>
<path fill-rule="evenodd" clip-rule="evenodd" d="M118.954 286.542H123.587V303.672H118.954V286.542ZM119.411 286.999V303.215H123.131V286.999H119.411Z" fill="#959DA8"/>
<path d="M46.4149 286.771H42.2383V303.443H46.4149V286.771Z" fill="#F4F5F6"/>
<path fill-rule="evenodd" clip-rule="evenodd" d="M42.0107 286.542H46.6441V303.672H42.0107V286.542ZM42.4674 286.999V303.215H46.1874V286.999H42.4674Z" fill="#959DA8"/>
<path d="M42.1337 286.771H37.957V303.443H42.1337V286.771Z" fill="#F4F5F6"/>
<path fill-rule="evenodd" clip-rule="evenodd" d="M37.7344 286.542H42.3677V303.672H37.7344V286.542ZM38.191 286.999V303.215H41.911V286.999H38.191Z" fill="#959DA8"/>
<path d="M50.6913 286.771H46.5146V303.443H50.6913V286.771Z" fill="#F4F5F6"/>
<path fill-rule="evenodd" clip-rule="evenodd" d="M46.2822 286.542H50.9155V303.672H46.2822V286.542ZM46.7389 286.999V303.215H50.4589V286.999H46.7389Z" fill="#959DA8"/>
<path d="M54.9569 286.771H50.7803V303.443H54.9569V286.771Z" fill="#F4F5F6"/>
<path fill-rule="evenodd" clip-rule="evenodd" d="M50.5566 286.542H55.19V303.672H50.5566V286.542ZM51.0133 286.999V303.215H54.7333V286.999H51.0133Z" fill="#959DA8"/>
<path d="M59.2372 286.771H55.0605V303.443H59.2372V286.771Z" fill="#F4F5F6"/>
<path fill-rule="evenodd" clip-rule="evenodd" d="M54.8369 286.542H59.4702V303.672H54.8369V286.542ZM55.2936 286.999V303.215H59.0136V286.999H55.2936Z" fill="#959DA8"/>
<path d="M63.5126 286.771H59.3359V303.443H63.5126V286.771Z" fill="#F4F5F6"/>
<path fill-rule="evenodd" clip-rule="evenodd" d="M59.1025 286.542H63.7359V303.672H59.1025V286.542ZM59.5592 286.999V303.215H63.2792V286.999H59.5592Z" fill="#959DA8"/>
<path d="M67.789 286.771H63.6123V303.443H67.789V286.771Z" fill="#F4F5F6"/>
<path fill-rule="evenodd" clip-rule="evenodd" d="M63.3828 286.542H68.0161V303.672H63.3828V286.542ZM63.8395 286.999V303.215H67.5595V286.999H63.8395Z" fill="#959DA8"/>
<path d="M72.0614 286.771H67.8848V303.443H72.0614V286.771Z" fill="#F4F5F6"/>
<path fill-rule="evenodd" clip-rule="evenodd" d="M67.6621 286.542H72.2954V303.672H67.6621V286.542ZM68.1188 286.999V303.215H71.8388V286.999H68.1188Z" fill="#959DA8"/>
<path d="M76.3407 286.771H72.1641V303.443H76.3407V286.771Z" fill="#F4F5F6"/>
<path fill-rule="evenodd" clip-rule="evenodd" d="M71.9365 286.542H76.5698V303.672H71.9365V286.542ZM72.3932 286.999V303.215H76.1132V286.999H72.3932Z" fill="#959DA8"/>
<path d="M80.6151 286.771H76.4385V303.443H80.6151V286.771Z" fill="#F4F5F6"/>
<path fill-rule="evenodd" clip-rule="evenodd" d="M76.2041 286.542H80.8374V303.672H76.2041V286.542ZM76.6608 286.999V303.215H80.3808V286.999H76.6608Z" fill="#959DA8"/>
<path fill-rule="evenodd" clip-rule="evenodd" d="M37.2324 286.313H342.096V303.899H37.2324V286.313ZM38.1457 287.227V302.986H341.183V287.227H38.1457Z" fill="#959DA8"/>
<path d="M296.755 302.027C296.751 301.076 296.976 300.137 297.412 299.291C297.847 298.445 298.48 297.717 299.257 297.167C300.033 296.617 300.931 296.263 301.873 296.133C302.816 296.004 303.776 296.103 304.672 296.423C305.019 295.028 305.72 293.747 306.708 292.704C307.697 291.661 308.938 290.892 310.312 290.471C311.686 290.05 313.145 289.992 314.548 290.302C315.951 290.612 317.25 291.281 318.318 292.242C319.072 290.132 320.547 288.356 322.482 287.227C324.417 286.098 326.689 285.688 328.897 286.069C331.105 286.45 333.107 287.598 334.552 289.31C335.997 291.023 336.791 293.191 336.794 295.431C336.796 295.762 336.778 296.093 336.743 296.423C337.387 296.188 338.067 296.068 338.752 296.068C342.044 296.068 344.908 298.74 344.699 302.015C344.669 302.554 344.578 303.089 344.429 303.609H296.977C296.834 303.09 296.762 302.553 296.763 302.015L296.755 302.027Z" fill="#80C33F"/>
<path d="M33.9345 277.117C34.2531 275.695 34.2516 274.22 33.9302 272.798C33.6088 271.377 32.9754 270.045 32.076 268.898C31.1765 267.752 30.0334 266.82 28.7295 266.169C27.4255 265.518 25.9932 265.166 24.5362 265.137C23.0792 265.108 21.634 265.403 20.3051 266.001C18.9762 266.599 17.7968 267.485 16.8523 268.594C15.9078 269.704 15.2218 271.01 14.8439 272.417C14.4659 273.825 14.4056 275.299 14.6672 276.732C13.5939 277.254 12.6458 278.001 11.8877 278.922C11.1296 279.844 10.5795 280.918 10.2748 282.072C9.97009 283.225 9.91808 284.431 10.1223 285.607C10.3265 286.782 10.7821 287.9 11.458 288.883C12.1339 289.867 13.0142 290.693 14.0386 291.305C15.063 291.916 16.2075 292.3 17.3938 292.429C18.58 292.558 19.7801 292.429 20.9121 292.051C22.044 291.674 23.0811 291.056 23.9524 290.241C24.7987 291.036 25.8025 291.644 26.8988 292.027C27.9952 292.409 29.1596 292.556 30.3166 292.46C31.4737 292.363 32.5975 292.025 33.6154 291.466C34.6333 290.908 35.5225 290.142 36.2254 289.218C36.9283 288.293 37.4292 287.232 37.6956 286.102C37.9621 284.972 37.9882 283.798 37.7722 282.657C37.5562 281.517 37.103 280.434 36.4419 279.48C35.7808 278.525 34.9265 277.72 33.9345 277.117V277.117Z" fill="#80C33F"/>
<path fill-rule="evenodd" clip-rule="evenodd" d="M19.6121 282.549C19.6816 282.444 19.8233 282.415 19.9285 282.484L24.4557 285.477C24.5609 285.546 24.5898 285.688 24.5203 285.793C24.4507 285.898 24.3091 285.927 24.2039 285.858L19.6767 282.865C19.5715 282.796 19.5426 282.654 19.6121 282.549Z" fill="#2A3A51"/>
<path fill-rule="evenodd" clip-rule="evenodd" d="M29.7809 284.771C29.863 284.866 29.8519 285.011 29.7561 285.093L24.4765 289.616C24.3807 289.698 24.2366 289.687 24.1545 289.591C24.0725 289.495 24.0836 289.351 24.1794 289.269L29.459 284.746C29.5548 284.664 29.6989 284.675 29.7809 284.771Z" fill="#2A3A51"/>
<path fill-rule="evenodd" clip-rule="evenodd" d="M24.3279 276.397C24.454 276.397 24.5563 276.5 24.5563 276.626V303.772C24.5563 303.898 24.454 304 24.3279 304C24.2018 304 24.0996 303.898 24.0996 303.772V276.626C24.0996 276.5 24.2018 276.397 24.3279 276.397Z" fill="#2A3A51"/>
<line x1="8.74228e-08" y1="304" x2="310" y2="304" stroke="#959DA8" stroke-width="2" stroke-miterlimit="10"/>
</g>
</svg>
