<svg width="310" height="305" viewBox="0 0 310 305" fill="none" xmlns="http://www.w3.org/2000/svg">
<mask id="mask0" mask-type="alpha" maskUnits="userSpaceOnUse" x="0" y="0" width="310" height="305">
<rect width="310" height="305" fill="white"/>
</mask>
<g mask="url(#mask0)">
<path d="M396.879 102.362H285.244V171.964H396.879V102.362Z" fill="#F4F5F6"/>
<path fill-rule="evenodd" clip-rule="evenodd" d="M284.795 101.91H397.333V172.416H284.795V101.91ZM285.699 102.814V171.512H396.429V102.814H285.699Z" fill="#959DA8"/>
<path d="M548.285 93.3228H248.183V103.266H548.285V93.3228Z" fill="#D3DCE5"/>
<path d="M300.04 36.4119L14.8389 -37.1674L14.9609 -46.8213L300.157 26.758L300.04 36.4119Z" fill="#D3DCE5"/>
<path d="M653.146 171.512H29.168V303.484H653.146V171.512Z" fill="#F4F5F6"/>
<path fill-rule="evenodd" clip-rule="evenodd" d="M28.7119 171.06H653.594V303.937H28.7119V171.06ZM29.6158 171.964V303.033H652.69V171.964H29.6158Z" fill="#959DA8"/>
<path d="M653.142 171.512H28.0801V241.114H653.142V171.512Z" fill="#F4F5F6"/>
<path fill-rule="evenodd" clip-rule="evenodd" d="M27.6289 171.06H653.595V241.566H27.6289V171.06ZM28.5328 171.964V240.662H652.691V171.964H28.5328Z" fill="#959DA8"/>
<path d="M285.245 98.0688H28.0342V171.287H285.245V98.0688Z" fill="#F4F5F6"/>
<path fill-rule="evenodd" clip-rule="evenodd" d="M27.5859 97.6162H285.701V171.738H27.5859V97.6162ZM28.4899 98.5201V170.834H284.797V98.5201H28.4899Z" fill="#959DA8"/>
<path d="M285.357 99.1978H28.2588V-33.9048L285.357 32.5335V99.1978Z" fill="#F4F5F6"/>
<path fill-rule="evenodd" clip-rule="evenodd" d="M27.8008 -34.4883L285.803 32.1836V99.6499H27.8008V-34.4883ZM28.7047 -33.3211V98.7459H284.899V32.8836L28.7047 -33.3211Z" fill="#959DA8"/>
<path d="M182.435 113.127H143.539V158.111H182.435V113.127Z" fill="white"/>
<path fill-rule="evenodd" clip-rule="evenodd" d="M143.313 112.902H182.661V158.338H143.313V112.902ZM143.765 113.354V157.886H182.209V113.354H143.765Z" fill="#959DA8"/>
<path fill-rule="evenodd" clip-rule="evenodd" d="M162.766 158.175V113.119H163.218V158.175H162.766Z" fill="#959DA8"/>
<path d="M235.767 113.127H196.871V158.111H235.767V113.127Z" fill="white"/>
<path fill-rule="evenodd" clip-rule="evenodd" d="M196.645 112.902H235.992V158.338H196.645V112.902ZM197.096 113.354V157.886H235.54V113.354H197.096Z" fill="#959DA8"/>
<path fill-rule="evenodd" clip-rule="evenodd" d="M216.098 158.175V113.119H216.55V158.175H216.098Z" fill="#959DA8"/>
<path d="M182.435 183.511H143.539V228.495H182.435V183.511Z" fill="white"/>
<path fill-rule="evenodd" clip-rule="evenodd" d="M143.313 183.286H182.661V228.721H143.313V183.286ZM143.765 183.738V228.269H182.209V183.738H143.765Z" fill="#959DA8"/>
<path fill-rule="evenodd" clip-rule="evenodd" d="M162.766 228.563V183.507H163.218V228.563H162.766Z" fill="#959DA8"/>
<path d="M235.767 183.511H196.871V228.495H235.767V183.511Z" fill="white"/>
<path fill-rule="evenodd" clip-rule="evenodd" d="M196.645 183.286H235.992V228.721H196.645V183.286ZM197.096 183.738V228.269H235.54V183.738H197.096Z" fill="#959DA8"/>
<path fill-rule="evenodd" clip-rule="evenodd" d="M216.098 228.563V183.507H216.55V228.563H216.098Z" fill="#959DA8"/>
<path d="M182.435 252.558H143.539V297.542H182.435V252.558Z" fill="white"/>
<path fill-rule="evenodd" clip-rule="evenodd" d="M143.313 252.332H182.661V297.768H143.313V252.332ZM143.765 252.784V297.316H182.209V252.784H143.765Z" fill="#959DA8"/>
<path fill-rule="evenodd" clip-rule="evenodd" d="M162.766 297.608V252.552H163.218V297.608H162.766Z" fill="#959DA8"/>
<path d="M235.767 252.558H196.871V297.542H235.767V252.558Z" fill="white"/>
<path fill-rule="evenodd" clip-rule="evenodd" d="M196.645 252.332H235.992V297.768H196.645V252.332ZM197.096 252.784V297.316H235.54V252.784H197.096Z" fill="#959DA8"/>
<path fill-rule="evenodd" clip-rule="evenodd" d="M216.098 297.608V252.552H216.55V297.608H216.098Z" fill="#959DA8"/>
<path d="M333.843 252.558H294.947V297.542H333.843V252.558Z" fill="white"/>
<path fill-rule="evenodd" clip-rule="evenodd" d="M294.721 252.332H334.068V297.768H294.721V252.332ZM295.173 252.784V297.316H333.617V252.784H295.173Z" fill="#959DA8"/>
<path d="M125.701 183.263H106.267V207.217H125.701V183.263Z" fill="white"/>
<path fill-rule="evenodd" clip-rule="evenodd" d="M106.042 183.036H125.928V207.442H106.042V183.036ZM106.494 183.488V206.99H125.476V183.488H106.494Z" fill="#959DA8"/>
<path fill-rule="evenodd" clip-rule="evenodd" d="M125.7 193.581H106.271V193.129H125.7V193.581Z" fill="#959DA8"/>
<path d="M125.701 113.208H106.267V137.162H125.701V113.208Z" fill="white"/>
<path fill-rule="evenodd" clip-rule="evenodd" d="M106.042 112.983H125.928V137.389H106.042V112.983ZM106.494 113.435V136.937H125.476V113.435H106.494Z" fill="#959DA8"/>
<path fill-rule="evenodd" clip-rule="evenodd" d="M125.7 123.528H106.271V123.076H125.7V123.528Z" fill="#959DA8"/>
<path d="M273.044 183.263H253.609V207.217H273.044V183.263Z" fill="white"/>
<path fill-rule="evenodd" clip-rule="evenodd" d="M253.38 183.036H273.266V207.442H253.38V183.036ZM253.832 183.488V206.99H272.814V183.488H253.832Z" fill="#959DA8"/>
<path fill-rule="evenodd" clip-rule="evenodd" d="M273.039 193.581H253.609V193.129H273.039V193.581Z" fill="#959DA8"/>
<path d="M126.157 252.864H106.723V276.818H126.157V252.864Z" fill="white"/>
<path fill-rule="evenodd" clip-rule="evenodd" d="M106.495 252.639H126.381V277.045H106.495V252.639ZM106.947 253.091V276.593H125.929V253.091H106.947Z" fill="#959DA8"/>
<path fill-rule="evenodd" clip-rule="evenodd" d="M126.157 263.183H106.728V262.731H126.157V263.183Z" fill="#959DA8"/>
<path d="M273.044 253.317H253.609V277.271H273.044V253.317Z" fill="white"/>
<path fill-rule="evenodd" clip-rule="evenodd" d="M253.38 253.091H273.266V277.497H253.38V253.091ZM253.832 253.543V277.045H272.814V253.543H253.832Z" fill="#959DA8"/>
<path fill-rule="evenodd" clip-rule="evenodd" d="M273.039 263.635H253.609V263.183H273.039V263.635Z" fill="#959DA8"/>
<path d="M273.044 113.208H253.609V137.162H273.044V113.208Z" fill="white"/>
<path fill-rule="evenodd" clip-rule="evenodd" d="M253.38 112.983H273.266V137.389H253.38V112.983ZM253.832 113.435V136.937H272.814V113.435H253.832Z" fill="#959DA8"/>
<path fill-rule="evenodd" clip-rule="evenodd" d="M273.039 123.528H253.609V123.076H273.039V123.528Z" fill="#959DA8"/>
<path d="M87.2767 113.218H33.9453V164.692H87.2767V113.218Z" fill="white"/>
<path fill-rule="evenodd" clip-rule="evenodd" d="M33.7119 112.992H87.4953V164.917H33.7119V112.992ZM34.1639 113.444V164.466H87.0433V113.444H34.1639Z" fill="#959DA8"/>
<path fill-rule="evenodd" clip-rule="evenodd" d="M50.2275 163.829V113.101H50.6795V163.829H50.2275Z" fill="#959DA8"/>
<path fill-rule="evenodd" clip-rule="evenodd" d="M71.0195 163.829V113.101H71.4715V163.829H71.0195Z" fill="#959DA8"/>
<path d="M228.286 47.6831H174.954V99.157H228.286V47.6831Z" fill="#F4F5F6"/>
<path fill-rule="evenodd" clip-rule="evenodd" d="M174.729 47.457H228.512V99.3828H174.729V47.457ZM175.18 47.909V98.9309H228.06V47.909H175.18Z" fill="#959DA8"/>
<path fill-rule="evenodd" clip-rule="evenodd" d="M191.688 98.294V47.5659H192.139V98.294H191.688Z" fill="#959DA8"/>
<path fill-rule="evenodd" clip-rule="evenodd" d="M212.028 98.294V47.5659H212.48V98.294H212.028Z" fill="#959DA8"/>
<path d="M87.2767 183.272H33.9453V234.746H87.2767V183.272Z" fill="white"/>
<path fill-rule="evenodd" clip-rule="evenodd" d="M33.7119 183.045H87.4953V234.971H33.7119V183.045ZM34.1639 183.497V234.519H87.0433V183.497H34.1639Z" fill="#959DA8"/>
<path fill-rule="evenodd" clip-rule="evenodd" d="M50.6768 233.883V183.155H51.1287V233.883H50.6768Z" fill="#959DA8"/>
<path fill-rule="evenodd" clip-rule="evenodd" d="M71.0195 233.883V183.155H71.4715V233.883H71.0195Z" fill="#959DA8"/>
<path d="M85.4747 36.3295V36.334H76.666L67.8573 36.3295L32.1659 36.3205L32.1523 -26.814L49.0964 -22.439L67.8663 -17.5985L68.0787 -17.5442L85.2533 -13.1105L85.4657 -13.0563L85.4747 36.3295Z" fill="white"/>
<path fill-rule="evenodd" clip-rule="evenodd" d="M31.9248 -27.105L49.1513 -22.6571L67.9213 -17.8166L68.1337 -17.7623L85.3082 -13.3286L85.6901 -13.2311L85.6992 36.5608L31.9385 36.5471L31.9248 -27.105ZM32.3769 -26.5215L32.3904 36.0953L85.2472 36.1088L85.2382 -12.88L85.1958 -12.8908L68.0207 -17.3247L67.8089 -17.3788L49.0384 -22.2194L32.3769 -26.5215Z" fill="#959DA8"/>
<path fill-rule="evenodd" clip-rule="evenodd" d="M49.3172 -22.4375V36.2587H48.8652V-22.4375H49.3172Z" fill="#959DA8"/>
<path fill-rule="evenodd" clip-rule="evenodd" d="M68.3006 -17.543V35.8065H67.8486V-17.543H68.3006Z" fill="#959DA8"/>
<path d="M121.173 -3.84399L121.164 36.3218H112.595L85.4729 36.3309L76.6642 36.3354H67.8555V36.3309L67.8645 -17.5972L68.0769 -17.5429L85.2514 -13.1092L85.4639 -13.055L104.012 -8.26869L104.234 -8.21446L120.956 -3.89822L121.173 -3.84399Z" fill="white"/>
<path fill-rule="evenodd" clip-rule="evenodd" d="M67.639 -17.8887L68.1338 -17.7623L85.3078 -13.3287L85.3083 -13.3286L85.5207 -13.2744L104.067 -8.48877L104.069 -8.48809L104.291 -8.43387L121.012 -4.11805L121.013 -4.11762L121.4 -4.02101L121.391 36.5472L67.6299 36.5607L67.639 -17.8887ZM68.0908 -17.3066L85.1954 -12.891L85.1959 -12.8908L85.4078 -12.8367L103.956 -8.05047L103.959 -8.04978L104.178 -7.99624L104.18 -7.99555L120.9 -3.68001L120.902 -3.67958L120.948 -3.66815L120.939 36.0952L68.0819 36.1088L68.0908 -17.3066Z" fill="#959DA8"/>
<path fill-rule="evenodd" clip-rule="evenodd" d="M104.459 -8.21436V35.8067H104.007V-8.21436H104.459Z" fill="#959DA8"/>
<path fill-rule="evenodd" clip-rule="evenodd" d="M85.4764 -13.1104V36.2574H85.0244V-13.1104H85.4764Z" fill="#959DA8"/>
<path d="M192.823 14.6413L193.035 14.6956L193.03 36.3219H184.461L157.339 36.331L148.53 36.3355H139.722V36.331L139.731 0.942383L139.943 0.996623L157.118 5.43035L157.33 5.4846L175.883 10.2709L176.1 10.3251L192.823 14.6413Z" fill="white"/>
<path fill-rule="evenodd" clip-rule="evenodd" d="M139.497 0.650879L139.992 0.77723L157.166 5.21082L157.379 5.2652L175.93 10.0511L175.932 10.0515L176.149 10.1057L192.872 14.4219L193.254 14.5195L193.249 36.5473L139.488 36.5609L139.497 0.650879ZM139.949 1.23291L157.054 5.64858L157.267 5.70297L175.819 10.4891L175.821 10.4895L176.036 10.5433L176.038 10.5438L192.759 14.8597L192.802 14.8705L192.797 36.0953L139.94 36.1089L139.949 1.23291Z" fill="#959DA8"/>
<path fill-rule="evenodd" clip-rule="evenodd" d="M176.325 10.3252V35.9243H175.873V10.3252H176.325Z" fill="#959DA8"/>
<path fill-rule="evenodd" clip-rule="evenodd" d="M157.343 5.4292V35.923H156.891V5.4292H157.343Z" fill="#959DA8"/>
<path d="M157.334 36.33V36.3345H148.525L139.717 36.33L112.594 36.3209H104.025L104.012 -8.26953L104.233 -8.2153L120.956 -3.89907L121.173 -3.84483L139.726 0.941432L139.938 0.995672L157.113 5.4294L157.325 5.48365L157.334 36.33Z" fill="white"/>
<path fill-rule="evenodd" clip-rule="evenodd" d="M103.788 -8.55713L104.292 -8.4337L121.013 -4.11788L121.015 -4.11745L121.232 -4.06323L139.785 0.723039L139.997 0.777288L157.172 5.21102L157.553 5.30854L157.562 36.5609L103.802 36.5474L103.788 -8.55713ZM104.24 -7.9803L120.902 -3.67983L120.903 -3.67941L121.119 -3.62559L121.12 -3.62518L139.672 1.16081L139.884 1.2149L157.059 5.64878L157.102 5.65961L157.11 36.109L104.254 36.0954L104.24 -7.9803Z" fill="#959DA8"/>
<path fill-rule="evenodd" clip-rule="evenodd" d="M121.184 -3.89844V36.3758H120.732V-3.89844H121.184Z" fill="#959DA8"/>
<path fill-rule="evenodd" clip-rule="evenodd" d="M140.167 0.995605V36.3751H139.715V0.995605H140.167Z" fill="#959DA8"/>
<path d="M229.196 36.3301V36.3346H220.387L211.578 36.3301L184.456 36.321H175.887L175.878 10.27L176.095 10.3243L192.817 14.6405L193.03 14.6947L211.583 19.481L211.8 19.5352L228.974 23.969L229.191 24.0232L229.196 36.3301Z" fill="white"/>
<path fill-rule="evenodd" clip-rule="evenodd" d="M175.651 9.98145L176.151 10.1063L192.873 14.4224L192.873 14.4225L193.086 14.4768L211.637 19.2626L211.639 19.2631L211.856 19.3173L229.029 23.7506L229.03 23.751L229.417 23.8476L229.421 36.5615L175.661 36.5479L175.651 9.98145ZM176.104 10.5609L192.76 14.8602L192.761 14.8603L192.973 14.9145L211.526 19.7007L211.528 19.7011L211.743 19.7549L211.744 19.7553L228.917 24.1886L228.919 24.1891L228.965 24.2005L228.969 36.1095L176.112 36.0959L176.104 10.5609Z" fill="#959DA8"/>
<path fill-rule="evenodd" clip-rule="evenodd" d="M193.044 14.6411V35.924H192.592V14.6411H193.044Z" fill="#959DA8"/>
<path fill-rule="evenodd" clip-rule="evenodd" d="M212.027 19.5352V35.9233H211.575V19.5352H212.027Z" fill="#959DA8"/>
<path d="M264.889 33.2346V36.3215L229.198 36.3306L220.389 36.3351H211.58V36.3306L211.585 19.4814L211.802 19.5357L228.976 23.9694L229.193 24.0236L247.958 28.8641L264.889 33.2346Z" fill="white"/>
<path fill-rule="evenodd" clip-rule="evenodd" d="M211.361 19.1919L211.86 19.3167L229.033 23.75L229.035 23.7505L229.252 23.8047L248.017 28.6452L265.117 33.0594V36.5473L211.356 36.5609L211.361 19.1919ZM211.813 19.7712L228.922 24.1881L228.924 24.1885L229.139 24.2423L229.141 24.2427L247.904 29.0828L264.665 33.4095V36.0954L211.808 36.1089L211.813 19.7712Z" fill="#959DA8"/>
<path fill-rule="evenodd" clip-rule="evenodd" d="M248.183 28.8643V36.3758H247.731V28.8643H248.183Z" fill="#959DA8"/>
<path fill-rule="evenodd" clip-rule="evenodd" d="M229.201 23.9688V36.3751H228.749V23.9688H229.201Z" fill="#959DA8"/>
<path d="M285.466 77.0527H23.2334V101.459H285.466V77.0527Z" fill="#F4F5F6"/>
<path fill-rule="evenodd" clip-rule="evenodd" d="M22.7871 76.6113H285.901V101.899H22.7871V76.6113ZM23.6684 77.4927V101.017H285.019V77.4927H23.6684Z" fill="#959DA8"/>
<path d="M293.108 216.03V241.114H288.787L288.792 216.03H293.108Z" fill="#F4F5F6"/>
<path fill-rule="evenodd" clip-rule="evenodd" d="M288.565 215.804H293.333V241.34H288.561L288.565 215.804ZM289.017 216.256L289.013 240.888H292.881V216.256H289.017Z" fill="#959DA8"/>
<path d="M288.587 216.03V241.114H284.267L284.271 216.03H288.587Z" fill="#F4F5F6"/>
<path fill-rule="evenodd" clip-rule="evenodd" d="M284.048 215.804H288.816V241.34H284.043L284.048 215.804ZM284.499 216.256L284.495 240.888H288.364V216.256H284.499Z" fill="#959DA8"/>
<path d="M297.629 216.03H293.213V241.114H297.629V216.03Z" fill="#F4F5F6"/>
<path fill-rule="evenodd" clip-rule="evenodd" d="M292.989 215.804H297.857V241.34H292.989V215.804ZM293.441 216.256V240.888H297.405V216.256H293.441Z" fill="#959DA8"/>
<path d="M302.148 216.03H297.732V241.114H302.148V216.03Z" fill="#F4F5F6"/>
<path fill-rule="evenodd" clip-rule="evenodd" d="M297.509 215.804H302.376V241.34H297.509V215.804ZM297.961 216.256V240.888H301.924V216.256H297.961Z" fill="#959DA8"/>
<path d="M306.667 216.03H302.251V241.114H306.667V216.03Z" fill="#F4F5F6"/>
<path fill-rule="evenodd" clip-rule="evenodd" d="M302.025 215.804H306.893V241.34H302.025V215.804ZM302.477 216.256V240.888H306.441V216.256H302.477Z" fill="#959DA8"/>
<path d="M311.191 216.03H306.775V241.114H311.191V216.03Z" fill="#F4F5F6"/>
<path fill-rule="evenodd" clip-rule="evenodd" d="M306.545 215.804H311.413V241.34H306.545V215.804ZM306.997 216.256V240.888H310.961V216.256H306.997Z" fill="#959DA8"/>
<path fill-rule="evenodd" clip-rule="evenodd" d="M284.014 215.804H397.334V241.565H284.014V215.804ZM284.918 216.708V240.662H396.43V216.708H284.918Z" fill="#959DA8"/>
<path d="M66.1967 254.013H46.8301V296.086H66.1967V254.013Z" fill="#D3DCE5"/>
<path d="M63.4503 256.684H49.5615V276.72H63.4503V256.684Z" fill="white"/>
<path fill-rule="evenodd" clip-rule="evenodd" d="M49.3359 256.458H63.6767V276.946H49.3359V256.458ZM49.7879 256.91V276.494H63.2247V256.91H49.7879Z" fill="#959DA8"/>
<path d="M29.5699 241.119H26.0039V303.037H29.5699V241.119Z" fill="#F4F5F6"/>
<path fill-rule="evenodd" clip-rule="evenodd" d="M25.5479 240.666H30.0178V303.488H25.5479V240.666ZM26.4518 241.569V302.584H29.1139V241.569H26.4518Z" fill="#959DA8"/>
<path d="M87.8668 241.119H84.3008V303.489H87.8668V241.119Z" fill="#F4F5F6"/>
<path fill-rule="evenodd" clip-rule="evenodd" d="M83.8525 240.666H88.3225V303.94H83.8525V240.666ZM84.7565 241.569V303.036H87.4186V241.569H84.7565Z" fill="#959DA8"/>
<path d="M87.7363 294.726H26.2695V299.141H87.7363V294.726Z" fill="#F4F5F6"/>
<path fill-rule="evenodd" clip-rule="evenodd" d="M25.8203 294.273H88.1909V299.593H25.8203V294.273ZM26.7242 295.177V298.689H87.287V295.177H26.7242Z" fill="#959DA8"/>
<path d="M87.7363 299.132H26.2695V303.547H87.7363V299.132Z" fill="#F4F5F6"/>
<path fill-rule="evenodd" clip-rule="evenodd" d="M25.8203 298.681H88.1909V304H25.8203V298.681ZM26.7242 299.585V303.096H87.287V299.585H26.7242Z" fill="#959DA8"/>
<path d="M50.4508 280.209C50.95 280.209 51.3547 279.804 51.3547 279.305C51.3547 278.806 50.95 278.401 50.4508 278.401C49.9516 278.401 49.5469 278.806 49.5469 279.305C49.5469 279.804 49.9516 280.209 50.4508 280.209Z" fill="#F4F5F6"/>
<path fill-rule="evenodd" clip-rule="evenodd" d="M50.4512 278.627C50.0768 278.627 49.7733 278.93 49.7733 279.305C49.7733 279.679 50.0768 279.983 50.4512 279.983C50.8256 279.983 51.1291 279.679 51.1291 279.305C51.1291 278.93 50.8256 278.627 50.4512 278.627ZM49.3213 279.305C49.3213 278.681 49.8272 278.175 50.4512 278.175C51.0752 278.175 51.5811 278.681 51.5811 279.305C51.5811 279.929 51.0752 280.435 50.4512 280.435C49.8272 280.435 49.3213 279.929 49.3213 279.305Z" fill="#959DA8"/>
<path d="M32.4907 276.692C32.7735 275.271 32.7596 273.806 32.45 272.39C32.1459 270.988 31.5483 269.666 30.6964 268.512C29.8679 267.385 28.7976 266.459 27.5642 265.8C26.3597 265.156 25.0202 264.805 23.6545 264.776C22.2888 264.747 20.9355 265.04 19.7047 265.633C18.4499 266.237 17.3471 267.116 16.4777 268.204C15.5845 269.321 14.9389 270.616 14.5839 272.001C14.2221 273.405 14.1545 274.868 14.3851 276.299C13.364 276.833 12.4723 277.584 11.7727 278.5C11.0547 279.439 10.5392 280.516 10.2587 281.664C9.97231 282.825 9.92309 284.031 10.1141 285.212C10.3028 286.383 10.7305 287.503 11.3705 288.502C11.9932 289.478 12.8195 290.307 13.793 290.934C14.7478 291.546 15.8299 291.933 16.9567 292.063C18.0725 292.192 19.2031 292.062 20.2606 291.684C21.3348 291.3 22.3104 290.683 23.117 289.876C23.8976 290.671 24.8412 291.288 25.883 291.684C26.9055 292.072 28.002 292.227 29.0919 292.136C30.185 292.036 31.2423 291.695 32.1878 291.137C33.1547 290.565 33.9896 289.795 34.6375 288.877C35.3019 287.938 35.7707 286.874 36.016 285.75C36.2658 284.614 36.2904 283.441 36.0883 282.297C35.8897 281.16 35.4656 280.075 34.8409 279.106C34.237 278.144 33.436 277.321 32.4907 276.692Z" fill="#80C33F"/>
<path fill-rule="evenodd" clip-rule="evenodd" d="M19.0273 282.148C19.0997 282.046 19.2408 282.022 19.3424 282.095L23.5954 285.123C23.6971 285.195 23.7208 285.336 23.6485 285.438C23.5761 285.54 23.435 285.563 23.3333 285.491L19.0803 282.463C18.9786 282.39 18.9549 282.249 19.0273 282.148Z" fill="#2A3A51"/>
<path fill-rule="evenodd" clip-rule="evenodd" d="M28.606 284.423C28.6899 284.515 28.6831 284.658 28.5908 284.742L23.6192 289.261C23.5269 289.345 23.3839 289.339 23.3 289.246C23.216 289.154 23.2228 289.011 23.3152 288.927L28.2868 284.407C28.3791 284.323 28.522 284.33 28.606 284.423Z" fill="#2A3A51"/>
<path fill-rule="evenodd" clip-rule="evenodd" d="M23.4672 275.996C23.592 275.996 23.6932 276.097 23.6932 276.222V303.484C23.6932 303.609 23.592 303.71 23.4672 303.71C23.3424 303.71 23.2412 303.609 23.2412 303.484V276.222C23.2412 276.097 23.3424 275.996 23.4672 275.996Z" fill="#2A3A51"/>
<path d="M135.2 286.654C135.404 286.655 135.607 286.634 135.806 286.59C145.062 284.484 145.067 273.271 145.067 273.271C145.067 257.99 135.205 250.33 135.205 250.33C135.205 250.33 125.348 257.972 125.348 273.271C125.348 273.271 125.348 284.498 134.604 286.59C134.803 286.634 135.006 286.655 135.209 286.654H135.2Z" fill="#80C33F"/>
<path fill-rule="evenodd" clip-rule="evenodd" d="M135.198 265.176C135.322 265.176 135.424 265.277 135.424 265.402V303.543C135.424 303.668 135.322 303.769 135.198 303.769C135.073 303.769 134.972 303.668 134.972 303.543V265.402C134.972 265.277 135.073 265.176 135.198 265.176Z" fill="#2A3A51"/>
<path d="M285.252 291.752C285.392 291.753 285.531 291.737 285.668 291.707C292.031 290.261 292.031 282.55 292.031 282.55C292.031 272.047 285.252 266.777 285.252 266.777C285.252 266.777 278.473 272.033 278.473 282.546C278.473 282.546 278.473 290.265 284.836 291.703C284.973 291.733 285.112 291.748 285.252 291.748V291.752Z" fill="#80C33F"/>
<path fill-rule="evenodd" clip-rule="evenodd" d="M285.251 276.918C285.376 276.918 285.477 277.019 285.477 277.144V303.358C285.477 303.482 285.376 303.584 285.251 303.584C285.127 303.584 285.025 303.482 285.025 303.358V277.144C285.025 277.019 285.127 276.918 285.251 276.918Z" fill="#2A3A51"/>
<path d="M288.863 154.926C288.859 153.92 289.097 152.927 289.558 152.033C290.018 151.139 290.687 150.368 291.508 149.787C292.329 149.206 293.278 148.831 294.275 148.694C295.271 148.557 296.286 148.662 297.234 149C297.6 147.526 298.341 146.172 299.386 145.069C300.431 143.966 301.744 143.153 303.196 142.708C304.648 142.263 306.191 142.201 307.675 142.529C309.158 142.857 310.531 143.564 311.66 144.58C312.458 142.35 314.017 140.472 316.063 139.278C318.109 138.085 320.51 137.651 322.845 138.054C325.179 138.457 327.296 139.67 328.823 141.481C330.351 143.292 331.19 145.583 331.194 147.952C331.195 148.302 331.177 148.652 331.14 149C331.82 148.752 332.539 148.625 333.264 148.625C336.744 148.625 339.772 151.45 339.551 154.912C339.519 155.483 339.423 156.048 339.266 156.598H289.098C288.947 156.049 288.871 155.482 288.872 154.912L288.863 154.926Z" fill="#80C33F"/>
<path d="M85.4662 43.6162H32.1348V95.0901H85.4662V43.6162Z" fill="white"/>
<path fill-rule="evenodd" clip-rule="evenodd" d="M31.9092 43.3901H85.6926V95.3159H31.9092V43.3901ZM32.3611 43.8421V94.864H85.2406V43.8421H32.3611Z" fill="#959DA8"/>
<path fill-rule="evenodd" clip-rule="evenodd" d="M48.8652 94.2266V43.4985H49.3172V94.2266H48.8652Z" fill="#959DA8"/>
<path fill-rule="evenodd" clip-rule="evenodd" d="M67.8555 94.2266V43.4985H68.3074V94.2266H67.8555Z" fill="#959DA8"/>
<path d="M67.8701 43.6162H121.202V95.0901H67.8701V43.6162Z" fill="white"/>
<path fill-rule="evenodd" clip-rule="evenodd" d="M67.6465 43.3901H121.43V95.3159H67.6465V43.3901ZM68.0984 43.8421V94.864H120.978V43.8421H68.0984Z" fill="#959DA8"/>
<path fill-rule="evenodd" clip-rule="evenodd" d="M104.007 94.2266V43.4985H104.459V94.2266H104.007Z" fill="#959DA8"/>
<path fill-rule="evenodd" clip-rule="evenodd" d="M85.0244 94.2266V43.4985H85.4764V94.2266H85.0244Z" fill="#959DA8"/>
<path d="M139.729 43.6162H193.061V95.0901H139.729V43.6162Z" fill="white"/>
<path fill-rule="evenodd" clip-rule="evenodd" d="M139.504 43.3901H193.287V95.3159H139.504V43.3901ZM139.956 43.8421V94.864H192.835V43.8421H139.956Z" fill="#959DA8"/>
<path fill-rule="evenodd" clip-rule="evenodd" d="M175.873 94.2266V43.4985H176.325V94.2266H175.873Z" fill="#959DA8"/>
<path fill-rule="evenodd" clip-rule="evenodd" d="M156.891 94.2266V43.4985H157.343V94.2266H156.891Z" fill="#959DA8"/>
<path d="M157.324 43.6162H103.992V95.0901H157.324V43.6162Z" fill="white"/>
<path fill-rule="evenodd" clip-rule="evenodd" d="M103.769 43.3901H157.552V95.3159H103.769V43.3901ZM104.221 43.8421V94.864H157.1V43.8421H104.221Z" fill="#959DA8"/>
<path fill-rule="evenodd" clip-rule="evenodd" d="M120.732 94.2266V43.4985H121.184V94.2266H120.732Z" fill="#959DA8"/>
<path fill-rule="evenodd" clip-rule="evenodd" d="M139.722 94.2266V43.4985H140.174V94.2266H139.722Z" fill="#959DA8"/>
<path d="M229.191 43.6162H175.859V95.0901H229.191V43.6162Z" fill="white"/>
<path fill-rule="evenodd" clip-rule="evenodd" d="M175.634 43.3901H229.417V95.3159H175.634V43.3901ZM176.086 43.8421V94.864H228.965V43.8421H176.086Z" fill="#959DA8"/>
<path fill-rule="evenodd" clip-rule="evenodd" d="M192.592 94.2266V43.4985H193.044V94.2266H192.592Z" fill="#959DA8"/>
<path fill-rule="evenodd" clip-rule="evenodd" d="M211.58 94.2266V43.4985H212.032V94.2266H211.58Z" fill="#959DA8"/>
<path d="M211.595 43.6162H264.926V95.0901H211.595V43.6162Z" fill="white"/>
<path fill-rule="evenodd" clip-rule="evenodd" d="M211.37 43.3901H265.154V95.3159H211.37V43.3901ZM211.822 43.8421V94.864H264.702V43.8421H211.822Z" fill="#959DA8"/>
<path fill-rule="evenodd" clip-rule="evenodd" d="M247.731 94.2266V43.4985H248.183V94.2266H247.731Z" fill="#959DA8"/>
<path fill-rule="evenodd" clip-rule="evenodd" d="M228.749 94.2266V43.4985H229.201V94.2266H228.749Z" fill="#959DA8"/>
<path d="M280.5 43.6064V102.135H264.682V43.611L280.5 43.6064Z" fill="white"/>
<path fill-rule="evenodd" clip-rule="evenodd" d="M280.727 43.3809V102.362H264.456V43.3855L280.727 43.3809ZM264.908 43.8373V101.91H280.275V43.8329L264.908 43.8373Z" fill="#959DA8"/>
<path d="M293.108 146.428V171.512H288.787L288.792 146.428H293.108Z" fill="#F4F5F6"/>
<path fill-rule="evenodd" clip-rule="evenodd" d="M288.565 146.202H293.333V171.737H288.561L288.565 146.202ZM289.017 146.654L289.013 171.285H292.881V146.654H289.017Z" fill="#959DA8"/>
<path d="M288.59 146.428V171.512H285.173L285.177 146.428H288.59Z" fill="#F4F5F6"/>
<path fill-rule="evenodd" clip-rule="evenodd" d="M284.952 146.202H288.816V171.737H284.947L284.952 146.202ZM285.404 146.654L285.399 171.285H288.364V146.654H285.404Z" fill="#959DA8"/>
<path d="M297.629 146.428H293.213V171.512H297.629V146.428Z" fill="#F4F5F6"/>
<path fill-rule="evenodd" clip-rule="evenodd" d="M292.989 146.202H297.857V171.737H292.989V146.202ZM293.441 146.654V171.285H297.405V146.654H293.441Z" fill="#959DA8"/>
<path d="M302.148 146.428H297.732V171.512H302.148V146.428Z" fill="#F4F5F6"/>
<path fill-rule="evenodd" clip-rule="evenodd" d="M297.509 146.202H302.376V171.737H297.509V146.202ZM297.961 146.654V171.285H301.924V146.654H297.961Z" fill="#959DA8"/>
<path d="M306.667 146.428H302.251V171.512H306.667V146.428Z" fill="#F4F5F6"/>
<path fill-rule="evenodd" clip-rule="evenodd" d="M302.025 146.202H306.893V171.737H302.025V146.202ZM302.477 146.654V171.285H306.441V146.654H302.477Z" fill="#959DA8"/>
<path d="M311.191 146.428H306.775V171.512H311.191V146.428Z" fill="#F4F5F6"/>
<path fill-rule="evenodd" clip-rule="evenodd" d="M306.545 146.202H311.413V171.737H306.545V146.202ZM306.997 146.654V171.285H310.961V146.654H306.997Z" fill="#959DA8"/>
<path fill-rule="evenodd" clip-rule="evenodd" d="M284.918 146.202H397.334V171.963H284.918V146.202ZM285.822 147.106V171.06H396.43V147.106H285.822Z" fill="#959DA8"/>
<path d="M184.36 161.813H141.175L140.619 157.804H184.911L184.36 161.813Z" fill="#D3DCE5"/>
<path d="M238.142 161.813H194.957L194.401 157.804H238.694L238.142 161.813Z" fill="#D3DCE5"/>
<path d="M184.36 231.867H141.175L140.619 227.858H184.911L184.36 231.867Z" fill="#D3DCE5"/>
<path d="M238.142 231.867H194.957L194.401 227.858H238.694L238.142 231.867Z" fill="#D3DCE5"/>
<path d="M184.36 301.017H141.175L140.619 297.008H184.911L184.36 301.017Z" fill="#D3DCE5"/>
<path d="M238.142 301.017H194.957L194.401 297.008H238.694L238.142 301.017Z" fill="#D3DCE5"/>
<path d="M335.767 299.661H292.582L292.026 295.652H336.319L335.767 299.661Z" fill="#D3DCE5"/>
<path d="M80.15 154.021C80.1541 153.015 79.916 152.023 79.4556 151.128C78.9953 150.234 78.3262 149.463 77.5051 148.882C76.6841 148.301 75.7352 147.926 74.7386 147.789C73.742 147.652 72.7271 147.757 71.7797 148.096C71.4135 146.621 70.672 145.267 69.6271 144.164C68.5823 143.061 67.2697 142.248 65.8172 141.803C64.3648 141.358 62.8218 141.296 61.3386 141.625C59.8553 141.953 58.4823 142.659 57.3531 143.675C56.5555 141.445 54.9964 139.568 52.9505 138.374C50.9045 137.18 48.503 136.746 46.1687 137.149C43.8345 137.552 41.7173 138.766 40.19 140.576C38.6626 142.387 37.8232 144.678 37.8194 147.047C37.8181 147.397 37.8361 147.747 37.8735 148.096C37.1929 147.847 36.4739 147.72 35.7493 147.72C32.2692 147.72 29.2411 150.545 29.4626 154.007C29.4945 154.578 29.59 155.143 29.7473 155.693H79.915C80.0665 155.144 80.1425 154.577 80.141 154.007L80.15 154.021Z" fill="#80C33F"/>
<path d="M278.304 36.3218L264.682 36.3263V33.1807L278.304 36.3218Z" fill="white"/>
<path fill-rule="evenodd" clip-rule="evenodd" d="M264.456 32.8965L280.287 36.5469L264.456 36.5522V32.8965ZM264.908 33.4645V36.1001L276.321 36.0963L264.908 33.4645Z" fill="#959DA8"/>
<path d="M47.5162 77.6211C47.6939 77.6223 47.8712 77.6041 48.045 77.5669C56.1803 75.7184 56.1803 65.9018 56.1803 65.9018C56.2505 59.9178 54.3512 54.0768 50.7749 49.2786C50.3956 48.7769 49.9052 48.3699 49.3422 48.0897C48.7791 47.8094 48.1588 47.6636 47.5298 47.6636C46.9009 47.6636 46.2805 47.8094 45.7174 48.0897C45.1544 48.3699 44.6639 48.7769 44.2846 49.2786C40.7109 54.0761 38.8132 59.9154 38.8837 65.8972C38.8837 65.8972 38.8837 75.7364 46.9919 77.5669C47.1657 77.6041 47.343 77.6223 47.5208 77.6211H47.5162Z" fill="#80C33F"/>
<path fill-rule="evenodd" clip-rule="evenodd" d="M47.5189 58.7749C47.6438 58.7749 47.7449 58.8761 47.7449 59.0009V92.4189C47.7449 92.5437 47.6438 92.6449 47.5189 92.6449C47.3941 92.6449 47.293 92.5437 47.293 92.4189V59.0009C47.293 58.8761 47.3941 58.7749 47.5189 58.7749Z" fill="#2A3A51"/>
<path d="M77.0737 76.8262V101.91H72.7529L72.7575 76.8262H77.0737Z" fill="#F4F5F6"/>
<path fill-rule="evenodd" clip-rule="evenodd" d="M72.5329 76.5996H77.3011V102.135H72.5283L72.5329 76.5996ZM72.9848 77.0516L72.9804 101.683H76.8491V77.0516H72.9848Z" fill="#959DA8"/>
<path d="M81.5905 76.8262H77.1748V101.91H81.5905V76.8262Z" fill="#F4F5F6"/>
<path fill-rule="evenodd" clip-rule="evenodd" d="M76.9492 76.5996H81.8168V102.135H76.9492V76.5996ZM77.4012 77.0516V101.683H81.3649V77.0516H77.4012Z" fill="#959DA8"/>
<path d="M86.1081 76.8262H81.6924V101.91H86.1081V76.8262Z" fill="#F4F5F6"/>
<path fill-rule="evenodd" clip-rule="evenodd" d="M81.4678 76.5996H86.3354V102.135H81.4678V76.5996ZM81.9197 77.0516V101.683H85.8834V77.0516H81.9197Z" fill="#959DA8"/>
<path d="M90.6334 76.8262H86.2178V101.91H90.6334V76.8262Z" fill="#F4F5F6"/>
<path fill-rule="evenodd" clip-rule="evenodd" d="M85.9883 76.5996H90.8559V102.135H85.9883V76.5996ZM86.4402 77.0516V101.683H90.404V77.0516H86.4402Z" fill="#959DA8"/>
<path d="M31.8725 76.8262V101.91H27.5518L27.5563 76.8262H31.8725Z" fill="#F4F5F6"/>
<path fill-rule="evenodd" clip-rule="evenodd" d="M27.3327 76.5996H32.1009V102.135H27.3281L27.3327 76.5996ZM27.7846 77.0516L27.7802 101.683H31.6489V77.0516H27.7846Z" fill="#959DA8"/>
<path d="M27.354 76.8262V101.91H23.0332L23.0377 76.8262H27.354Z" fill="#F4F5F6"/>
<path fill-rule="evenodd" clip-rule="evenodd" d="M22.8142 76.5996H27.5823V102.135H22.8096L22.8142 76.5996ZM23.2661 77.0516L23.2616 101.683H27.1304V77.0516H23.2661Z" fill="#959DA8"/>
<path d="M36.3981 76.8262H31.9824V101.91H36.3981V76.8262Z" fill="#F4F5F6"/>
<path fill-rule="evenodd" clip-rule="evenodd" d="M31.7568 76.5996H36.6245V102.135H31.7568V76.5996ZM32.2088 77.0516V101.683H36.1725V77.0516H32.2088Z" fill="#959DA8"/>
<path d="M40.9137 76.8262H36.498V101.91H40.9137V76.8262Z" fill="#F4F5F6"/>
<path fill-rule="evenodd" clip-rule="evenodd" d="M36.2744 76.5996H41.142V102.135H36.2744V76.5996ZM36.7264 77.0516V101.683H40.6901V77.0516H36.7264Z" fill="#959DA8"/>
<path d="M45.4332 76.8262H41.0176V101.91H45.4332V76.8262Z" fill="#F4F5F6"/>
<path fill-rule="evenodd" clip-rule="evenodd" d="M40.793 76.5996H45.6606V102.135H40.793V76.5996ZM41.2449 77.0516V101.683H45.2086V77.0516H41.2449Z" fill="#959DA8"/>
<path d="M49.9577 76.8262H45.542V101.91H49.9577V76.8262Z" fill="#F4F5F6"/>
<path fill-rule="evenodd" clip-rule="evenodd" d="M45.3105 76.5996H50.1782V102.135H45.3105V76.5996ZM45.7625 77.0516V101.683H49.7262V77.0516H45.7625Z" fill="#959DA8"/>
<path d="M54.4762 76.8262H50.0605V101.91H54.4762V76.8262Z" fill="#F4F5F6"/>
<path fill-rule="evenodd" clip-rule="evenodd" d="M49.8369 76.5996H54.7045V102.135H49.8369V76.5996ZM50.2889 77.0516V101.683H54.2526V77.0516H50.2889Z" fill="#959DA8"/>
<path d="M58.9938 76.8262H54.5781V101.91H58.9938V76.8262Z" fill="#F4F5F6"/>
<path fill-rule="evenodd" clip-rule="evenodd" d="M54.3535 76.5996H59.2211V102.135H54.3535V76.5996ZM54.8055 77.0516V101.683H58.7692V77.0516H54.8055Z" fill="#959DA8"/>
<path d="M63.5104 76.8262H59.0947V101.91H63.5104V76.8262Z" fill="#F4F5F6"/>
<path fill-rule="evenodd" clip-rule="evenodd" d="M58.8711 76.5996H63.7387V102.135H58.8711V76.5996ZM59.3231 77.0516V101.683H63.2868V77.0516H59.3231Z" fill="#959DA8"/>
<path d="M68.0329 76.8262H63.6172V101.91H68.0329V76.8262Z" fill="#F4F5F6"/>
<path fill-rule="evenodd" clip-rule="evenodd" d="M63.3906 76.5996H68.2583V102.135H63.3906V76.5996ZM63.8426 77.0516V101.683H67.8063V77.0516H63.8426Z" fill="#959DA8"/>
<path d="M72.5543 76.8262H68.1387V101.91H72.5543V76.8262Z" fill="#F4F5F6"/>
<path fill-rule="evenodd" clip-rule="evenodd" d="M67.9131 76.5996H72.7807V102.135H67.9131V76.5996ZM68.365 77.0516V101.683H72.3288V77.0516H68.365Z" fill="#959DA8"/>
<path d="M144.863 76.8262V101.91H140.542L140.547 76.8262H144.863Z" fill="#F4F5F6"/>
<path fill-rule="evenodd" clip-rule="evenodd" d="M140.323 76.5996H145.091V102.135H140.318L140.323 76.5996ZM140.775 77.0516L140.77 101.683H144.639V77.0516H140.775Z" fill="#959DA8"/>
<path d="M149.388 76.8262H144.973V101.91H149.388V76.8262Z" fill="#F4F5F6"/>
<path fill-rule="evenodd" clip-rule="evenodd" d="M144.747 76.5996H149.615V102.135H144.747V76.5996ZM145.199 77.0516V101.683H149.163V77.0516H145.199Z" fill="#959DA8"/>
<path d="M153.904 76.8262H149.488V101.91H153.904V76.8262Z" fill="#F4F5F6"/>
<path fill-rule="evenodd" clip-rule="evenodd" d="M149.265 76.5996H154.132V102.135H149.265V76.5996ZM149.717 77.0516V101.683H153.68V77.0516H149.717Z" fill="#959DA8"/>
<path d="M158.423 76.8262H154.008V101.91H158.423V76.8262Z" fill="#F4F5F6"/>
<path fill-rule="evenodd" clip-rule="evenodd" d="M153.783 76.5996H158.651V102.135H153.783V76.5996ZM154.235 77.0516V101.683H158.199V77.0516H154.235Z" fill="#959DA8"/>
<path d="M99.6694 76.8262V101.91H95.3486L95.3532 76.8262H99.6694Z" fill="#F4F5F6"/>
<path fill-rule="evenodd" clip-rule="evenodd" d="M95.1296 76.5996H99.8978V102.135H95.125L95.1296 76.5996ZM95.5815 77.0516L95.577 101.683H99.4458V77.0516H95.5815Z" fill="#959DA8"/>
<path d="M95.1518 76.8262V101.91H90.8311L90.8356 76.8262H95.1518Z" fill="#F4F5F6"/>
<path fill-rule="evenodd" clip-rule="evenodd" d="M90.612 76.5996H95.3802V102.135H90.6074L90.612 76.5996ZM91.0639 77.0516L91.0595 101.683H94.9282V77.0516H91.0639Z" fill="#959DA8"/>
<path d="M104.187 76.8262H99.7715V101.91H104.187V76.8262Z" fill="#F4F5F6"/>
<path fill-rule="evenodd" clip-rule="evenodd" d="M99.5459 76.5996H104.414V102.135H99.5459V76.5996ZM99.9979 77.0516V101.683H103.962V77.0516H99.9979Z" fill="#959DA8"/>
<path d="M108.712 76.8262H104.296V101.91H108.712V76.8262Z" fill="#F4F5F6"/>
<path fill-rule="evenodd" clip-rule="evenodd" d="M104.065 76.5996H108.933V102.135H104.065V76.5996ZM104.517 77.0516V101.683H108.481V77.0516H104.517Z" fill="#959DA8"/>
<path d="M113.229 76.8262H108.813V101.91H113.229V76.8262Z" fill="#F4F5F6"/>
<path fill-rule="evenodd" clip-rule="evenodd" d="M108.59 76.5996H113.457V102.135H108.59V76.5996ZM109.042 77.0516V101.683H113.006V77.0516H109.042Z" fill="#959DA8"/>
<path d="M117.748 76.8262H113.332V101.91H117.748V76.8262Z" fill="#F4F5F6"/>
<path fill-rule="evenodd" clip-rule="evenodd" d="M113.108 76.5996H117.976V102.135H113.108V76.5996ZM113.56 77.0516V101.683H117.524V77.0516H113.56Z" fill="#959DA8"/>
<path d="M122.265 76.8262H117.85V101.91H122.265V76.8262Z" fill="#F4F5F6"/>
<path fill-rule="evenodd" clip-rule="evenodd" d="M117.626 76.5996H122.494V102.135H117.626V76.5996ZM118.078 77.0516V101.683H122.042V77.0516H118.078Z" fill="#959DA8"/>
<path d="M126.792 76.8262H122.376V101.91H126.792V76.8262Z" fill="#F4F5F6"/>
<path fill-rule="evenodd" clip-rule="evenodd" d="M122.143 76.5996H127.01V102.135H122.143V76.5996ZM122.595 77.0516V101.683H126.558V77.0516H122.595Z" fill="#959DA8"/>
<path d="M131.308 76.8262H126.893V101.91H131.308V76.8262Z" fill="#F4F5F6"/>
<path fill-rule="evenodd" clip-rule="evenodd" d="M126.668 76.5996H131.536V102.135H126.668V76.5996ZM127.12 77.0516V101.683H131.084V77.0516H127.12Z" fill="#959DA8"/>
<path d="M135.828 76.8262H131.412V101.91H135.828V76.8262Z" fill="#F4F5F6"/>
<path fill-rule="evenodd" clip-rule="evenodd" d="M131.187 76.5996H136.054V102.135H131.187V76.5996ZM131.638 77.0516V101.683H135.602V77.0516H131.638Z" fill="#959DA8"/>
<path d="M140.343 76.8262H135.928V101.91H140.343V76.8262Z" fill="#F4F5F6"/>
<path fill-rule="evenodd" clip-rule="evenodd" d="M135.704 76.5996H140.572V102.135H135.704V76.5996ZM136.156 77.0516V101.683H140.12V77.0516H136.156Z" fill="#959DA8"/>
<path d="M212.66 76.8262V101.91H208.339L208.343 76.8262H212.66Z" fill="#F4F5F6"/>
<path fill-rule="evenodd" clip-rule="evenodd" d="M208.12 76.5996H212.888V102.135H208.115L208.12 76.5996ZM208.572 77.0516L208.567 101.683H212.436V77.0516H208.572Z" fill="#959DA8"/>
<path d="M217.178 76.8262H212.763V101.91H217.178V76.8262Z" fill="#F4F5F6"/>
<path fill-rule="evenodd" clip-rule="evenodd" d="M212.536 76.5996H217.404V102.135H212.536V76.5996ZM212.988 77.0516V101.683H216.952V77.0516H212.988Z" fill="#959DA8"/>
<path d="M221.702 76.8262H217.286V101.91H221.702V76.8262Z" fill="#F4F5F6"/>
<path fill-rule="evenodd" clip-rule="evenodd" d="M217.056 76.5996H221.923V102.135H217.056V76.5996ZM217.508 77.0516V101.683H221.471V77.0516H217.508Z" fill="#959DA8"/>
<path d="M226.219 76.8262H221.804V101.91H226.219V76.8262Z" fill="#F4F5F6"/>
<path fill-rule="evenodd" clip-rule="evenodd" d="M221.58 76.5996H226.448V102.135H221.58V76.5996ZM222.032 77.0516V101.683H225.996V77.0516H222.032Z" fill="#959DA8"/>
<path d="M167.467 76.8262V101.91H163.146L163.151 76.8262H167.467Z" fill="#F4F5F6"/>
<path fill-rule="evenodd" clip-rule="evenodd" d="M162.919 76.5996H167.687V102.135H162.914L162.919 76.5996ZM163.371 77.0516L163.366 101.683H167.235V77.0516H163.371Z" fill="#959DA8"/>
<path d="M162.941 76.8262V101.91H158.62L158.625 76.8262H162.941Z" fill="#F4F5F6"/>
<path fill-rule="evenodd" clip-rule="evenodd" d="M158.401 76.5996H163.169V102.135H158.396L158.401 76.5996ZM158.853 77.0516L158.849 101.683H162.717V77.0516H158.853Z" fill="#959DA8"/>
<path d="M171.984 76.8262H167.568V101.91H171.984V76.8262Z" fill="#F4F5F6"/>
<path fill-rule="evenodd" clip-rule="evenodd" d="M167.344 76.5996H172.211V102.135H167.344V76.5996ZM167.796 77.0516V101.683H171.759V77.0516H167.796Z" fill="#959DA8"/>
<path d="M176.501 76.8262H172.085V101.91H176.501V76.8262Z" fill="#F4F5F6"/>
<path fill-rule="evenodd" clip-rule="evenodd" d="M171.861 76.5996H176.729V102.135H171.861V76.5996ZM172.313 77.0516V101.683H176.277V77.0516H172.313Z" fill="#959DA8"/>
<path d="M181.023 76.8262H176.607V101.91H181.023V76.8262Z" fill="#F4F5F6"/>
<path fill-rule="evenodd" clip-rule="evenodd" d="M176.381 76.5996H181.248V102.135H176.381V76.5996ZM176.833 77.0516V101.683H180.797V77.0516H176.833Z" fill="#959DA8"/>
<path d="M185.547 76.8262H181.131V101.91H185.547V76.8262Z" fill="#F4F5F6"/>
<path fill-rule="evenodd" clip-rule="evenodd" d="M180.903 76.5996H185.771V102.135H180.903V76.5996ZM181.355 77.0516V101.683H185.319V77.0516H181.355Z" fill="#959DA8"/>
<path d="M190.063 76.8262H185.647V101.91H190.063V76.8262Z" fill="#F4F5F6"/>
<path fill-rule="evenodd" clip-rule="evenodd" d="M185.424 76.5996H190.291V102.135H185.424V76.5996ZM185.876 77.0516V101.683H189.839V77.0516H185.876Z" fill="#959DA8"/>
<path d="M194.581 76.8262H190.165V101.91H194.581V76.8262Z" fill="#F4F5F6"/>
<path fill-rule="evenodd" clip-rule="evenodd" d="M189.939 76.5996H194.807V102.135H189.939V76.5996ZM190.391 77.0516V101.683H194.355V77.0516H190.391Z" fill="#959DA8"/>
<path d="M199.098 76.8262H194.683V101.91H199.098V76.8262Z" fill="#F4F5F6"/>
<path fill-rule="evenodd" clip-rule="evenodd" d="M194.458 76.5996H199.326V102.135H194.458V76.5996ZM194.91 77.0516V101.683H198.874V77.0516H194.91Z" fill="#959DA8"/>
<path d="M203.623 76.8262H199.207V101.91H203.623V76.8262Z" fill="#F4F5F6"/>
<path fill-rule="evenodd" clip-rule="evenodd" d="M198.979 76.5996H203.846V102.135H198.979V76.5996ZM199.43 77.0516V101.683H203.394V77.0516H199.43Z" fill="#959DA8"/>
<path d="M208.143 76.8262H203.728V101.91H208.143V76.8262Z" fill="#F4F5F6"/>
<path fill-rule="evenodd" clip-rule="evenodd" d="M203.502 76.5996H208.37V102.135H203.502V76.5996ZM203.954 77.0516V101.683H207.918V77.0516H203.954Z" fill="#959DA8"/>
<path d="M280.457 76.8262V101.91H276.137L276.141 76.8262H280.457Z" fill="#F4F5F6"/>
<path fill-rule="evenodd" clip-rule="evenodd" d="M275.909 76.5996H280.677V102.135H275.904L275.909 76.5996ZM276.361 77.0516L276.356 101.683H280.225V77.0516H276.361Z" fill="#959DA8"/>
<path d="M284.974 76.8262H280.559V101.91H284.974V76.8262Z" fill="#F4F5F6"/>
<path fill-rule="evenodd" clip-rule="evenodd" d="M280.333 76.5996H285.201V102.135H280.333V76.5996ZM280.785 77.0516V101.683H284.749V77.0516H280.785Z" fill="#959DA8"/>
<path d="M289.491 76.8262H285.075V101.91H289.491V76.8262Z" fill="#F4F5F6"/>
<path fill-rule="evenodd" clip-rule="evenodd" d="M284.852 76.5996H289.719V102.135H284.852V76.5996ZM285.304 77.0516V101.683H289.267V77.0516H285.304Z" fill="#959DA8"/>
<path d="M235.256 76.8262V101.91H230.936L230.94 76.8262H235.256Z" fill="#F4F5F6"/>
<path fill-rule="evenodd" clip-rule="evenodd" d="M230.717 76.5996H235.485V102.135H230.712L230.717 76.5996ZM231.168 77.0516L231.164 101.683H235.033V77.0516H231.168Z" fill="#959DA8"/>
<path d="M230.739 76.8262V101.91H226.418L226.422 76.8262H230.739Z" fill="#F4F5F6"/>
<path fill-rule="evenodd" clip-rule="evenodd" d="M226.198 76.5996H230.966V102.135H226.193L226.198 76.5996ZM226.65 77.0516L226.645 101.683H230.514V77.0516H226.65Z" fill="#959DA8"/>
<path d="M239.782 76.8262H235.366V101.91H239.782V76.8262Z" fill="#F4F5F6"/>
<path fill-rule="evenodd" clip-rule="evenodd" d="M235.134 76.5996H240.001V102.135H235.134V76.5996ZM235.586 77.0516V101.683H239.549V77.0516H235.586Z" fill="#959DA8"/>
<path d="M244.298 76.8262H239.883V101.91H244.298V76.8262Z" fill="#F4F5F6"/>
<path fill-rule="evenodd" clip-rule="evenodd" d="M239.658 76.5996H244.526V102.135H239.658V76.5996ZM240.11 77.0516V101.683H244.074V77.0516H240.11Z" fill="#959DA8"/>
<path d="M248.818 76.8262H244.402V101.91H248.818V76.8262Z" fill="#F4F5F6"/>
<path fill-rule="evenodd" clip-rule="evenodd" d="M244.177 76.5996H249.044V102.135H244.177V76.5996ZM244.629 77.0516V101.683H248.592V77.0516H244.629Z" fill="#959DA8"/>
<path d="M253.336 76.8262H248.92V101.91H253.336V76.8262Z" fill="#F4F5F6"/>
<path fill-rule="evenodd" clip-rule="evenodd" d="M248.694 76.5996H253.562V102.135H248.694V76.5996ZM249.146 77.0516V101.683H253.11V77.0516H249.146Z" fill="#959DA8"/>
<path d="M257.86 76.8262H253.444V101.91H257.86V76.8262Z" fill="#F4F5F6"/>
<path fill-rule="evenodd" clip-rule="evenodd" d="M253.213 76.5996H258.081V102.135H253.213V76.5996ZM253.665 77.0516V101.683H257.629V77.0516H253.665Z" fill="#959DA8"/>
<path d="M262.378 76.8262H257.962V101.91H262.378V76.8262Z" fill="#F4F5F6"/>
<path fill-rule="evenodd" clip-rule="evenodd" d="M257.737 76.5996H262.605V102.135H257.737V76.5996ZM258.189 77.0516V101.683H262.153V77.0516H258.189Z" fill="#959DA8"/>
<path d="M266.894 76.8262H262.479V101.91H266.894V76.8262Z" fill="#F4F5F6"/>
<path fill-rule="evenodd" clip-rule="evenodd" d="M262.255 76.5996H267.123V102.135H262.255V76.5996ZM262.707 77.0516V101.683H266.671V77.0516H262.707Z" fill="#959DA8"/>
<path d="M271.414 76.8262H266.998V101.91H271.414V76.8262Z" fill="#F4F5F6"/>
<path fill-rule="evenodd" clip-rule="evenodd" d="M266.773 76.5996H271.641V102.135H266.773V76.5996ZM267.225 77.0516V101.683H271.189V77.0516H267.225Z" fill="#959DA8"/>
<path d="M275.938 76.8262H271.522V101.91H275.938V76.8262Z" fill="#F4F5F6"/>
<path fill-rule="evenodd" clip-rule="evenodd" d="M271.291 76.5996H276.159V102.135H271.291V76.5996ZM271.743 77.0516V101.683H275.707V77.0516H271.743Z" fill="#959DA8"/>
<path fill-rule="evenodd" clip-rule="evenodd" d="M22.7822 76.6025H289.765V102.36H22.7822V76.6025ZM23.6816 77.5019V101.46H288.865V77.5019H23.6816Z" fill="#959DA8"/>
<path d="M77.0737 146.428V171.512H72.7529L72.7575 146.428H77.0737Z" fill="#F4F5F6"/>
<path fill-rule="evenodd" clip-rule="evenodd" d="M72.5329 146.202H77.3011V171.737H72.5283L72.5329 146.202ZM72.9848 146.654L72.9804 171.285H76.8491V146.654H72.9848Z" fill="#959DA8"/>
<path d="M81.5905 146.428H77.1748V171.512H81.5905V146.428Z" fill="#F4F5F6"/>
<path fill-rule="evenodd" clip-rule="evenodd" d="M76.9492 146.202H81.8168V171.737H76.9492V146.202ZM77.4012 146.654V171.285H81.3649V146.654H77.4012Z" fill="#959DA8"/>
<path d="M86.1081 146.428H81.6924V171.512H86.1081V146.428Z" fill="#F4F5F6"/>
<path fill-rule="evenodd" clip-rule="evenodd" d="M81.4678 146.202H86.3354V171.737H81.4678V146.202ZM81.9197 146.654V171.285H85.8834V146.654H81.9197Z" fill="#959DA8"/>
<path d="M90.6334 146.428H86.2178V171.512H90.6334V146.428Z" fill="#F4F5F6"/>
<path fill-rule="evenodd" clip-rule="evenodd" d="M85.9883 146.202H90.8559V171.737H85.9883V146.202ZM86.4402 146.654V171.285H90.404V146.654H86.4402Z" fill="#959DA8"/>
<path d="M31.8725 146.428V171.512H27.5518L27.5563 146.428H31.8725Z" fill="#F4F5F6"/>
<path fill-rule="evenodd" clip-rule="evenodd" d="M27.3327 146.202H32.1009V171.737H27.3281L27.3327 146.202ZM27.7846 146.654L27.7802 171.285H31.6489V146.654H27.7846Z" fill="#959DA8"/>
<path d="M27.354 146.428V171.512H23.0332L23.0377 146.428H27.354Z" fill="#F4F5F6"/>
<path fill-rule="evenodd" clip-rule="evenodd" d="M22.8142 146.202H27.5823V171.737H22.8096L22.8142 146.202ZM23.2661 146.654L23.2616 171.285H27.1304V146.654H23.2661Z" fill="#959DA8"/>
<path d="M36.3981 146.428H31.9824V171.512H36.3981V146.428Z" fill="#F4F5F6"/>
<path fill-rule="evenodd" clip-rule="evenodd" d="M31.7568 146.202H36.6245V171.737H31.7568V146.202ZM32.2088 146.654V171.285H36.1725V146.654H32.2088Z" fill="#959DA8"/>
<path d="M40.9137 146.428H36.498V171.512H40.9137V146.428Z" fill="#F4F5F6"/>
<path fill-rule="evenodd" clip-rule="evenodd" d="M36.2744 146.202H41.142V171.737H36.2744V146.202ZM36.7264 146.654V171.285H40.6901V146.654H36.7264Z" fill="#959DA8"/>
<path d="M45.4332 146.428H41.0176V171.512H45.4332V146.428Z" fill="#F4F5F6"/>
<path fill-rule="evenodd" clip-rule="evenodd" d="M40.793 146.202H45.6606V171.737H40.793V146.202ZM41.2449 146.654V171.285H45.2086V146.654H41.2449Z" fill="#959DA8"/>
<path d="M49.9577 146.428H45.542V171.512H49.9577V146.428Z" fill="#F4F5F6"/>
<path fill-rule="evenodd" clip-rule="evenodd" d="M45.3105 146.202H50.1782V171.737H45.3105V146.202ZM45.7625 146.654V171.285H49.7262V146.654H45.7625Z" fill="#959DA8"/>
<path d="M54.4762 146.428H50.0605V171.512H54.4762V146.428Z" fill="#F4F5F6"/>
<path fill-rule="evenodd" clip-rule="evenodd" d="M49.8369 146.202H54.7045V171.737H49.8369V146.202ZM50.2889 146.654V171.285H54.2526V146.654H50.2889Z" fill="#959DA8"/>
<path d="M58.9938 146.428H54.5781V171.512H58.9938V146.428Z" fill="#F4F5F6"/>
<path fill-rule="evenodd" clip-rule="evenodd" d="M54.3535 146.202H59.2211V171.737H54.3535V146.202ZM54.8055 146.654V171.285H58.7692V146.654H54.8055Z" fill="#959DA8"/>
<path d="M63.5104 146.428H59.0947V171.512H63.5104V146.428Z" fill="#F4F5F6"/>
<path fill-rule="evenodd" clip-rule="evenodd" d="M58.8711 146.202H63.7387V171.737H58.8711V146.202ZM59.3231 146.654V171.285H63.2868V146.654H59.3231Z" fill="#959DA8"/>
<path d="M68.0329 146.428H63.6172V171.512H68.0329V146.428Z" fill="#F4F5F6"/>
<path fill-rule="evenodd" clip-rule="evenodd" d="M63.3906 146.202H68.2583V171.737H63.3906V146.202ZM63.8426 146.654V171.285H67.8063V146.654H63.8426Z" fill="#959DA8"/>
<path d="M72.5543 146.428H68.1387V171.512H72.5543V146.428Z" fill="#F4F5F6"/>
<path fill-rule="evenodd" clip-rule="evenodd" d="M67.9131 146.202H72.7807V171.737H67.9131V146.202ZM68.365 146.654V171.285H72.3288V146.654H68.365Z" fill="#959DA8"/>
<path fill-rule="evenodd" clip-rule="evenodd" d="M22.7803 146.202H90.9044V171.963H22.7803V146.202ZM23.6842 147.106V171.06H90.0004V147.106H23.6842Z" fill="#959DA8"/>
<path d="M77.0737 216.03V241.114H72.7529L72.7575 216.03H77.0737Z" fill="#F4F5F6"/>
<path fill-rule="evenodd" clip-rule="evenodd" d="M72.5329 215.804H77.3011V241.34H72.5283L72.5329 215.804ZM72.9848 216.256L72.9804 240.888H76.8491V216.256H72.9848Z" fill="#959DA8"/>
<path d="M81.5905 216.03H77.1748V241.114H81.5905V216.03Z" fill="#F4F5F6"/>
<path fill-rule="evenodd" clip-rule="evenodd" d="M76.9492 215.804H81.8168V241.34H76.9492V215.804ZM77.4012 216.256V240.888H81.3649V216.256H77.4012Z" fill="#959DA8"/>
<path d="M86.1081 216.03H81.6924V241.114H86.1081V216.03Z" fill="#F4F5F6"/>
<path fill-rule="evenodd" clip-rule="evenodd" d="M81.4678 215.804H86.3354V241.34H81.4678V215.804ZM81.9197 216.256V240.888H85.8834V216.256H81.9197Z" fill="#959DA8"/>
<path d="M90.6334 216.03H86.2178V241.114H90.6334V216.03Z" fill="#F4F5F6"/>
<path fill-rule="evenodd" clip-rule="evenodd" d="M85.9883 215.804H90.8559V241.34H85.9883V215.804ZM86.4402 216.256V240.888H90.404V216.256H86.4402Z" fill="#959DA8"/>
<path d="M31.8725 216.03V241.114H27.5518L27.5563 216.03H31.8725Z" fill="#F4F5F6"/>
<path fill-rule="evenodd" clip-rule="evenodd" d="M27.3327 215.804H32.1009V241.34H27.3281L27.3327 215.804ZM27.7846 216.256L27.7802 240.888H31.6489V216.256H27.7846Z" fill="#959DA8"/>
<path d="M27.354 216.03V241.114H23.0332L23.0377 216.03H27.354Z" fill="#F4F5F6"/>
<path fill-rule="evenodd" clip-rule="evenodd" d="M22.8142 215.804H27.5823V241.34H22.8096L22.8142 215.804ZM23.2661 216.256L23.2616 240.888H27.1304V216.256H23.2661Z" fill="#959DA8"/>
<path d="M36.3981 216.03H31.9824V241.114H36.3981V216.03Z" fill="#F4F5F6"/>
<path fill-rule="evenodd" clip-rule="evenodd" d="M31.7568 215.804H36.6245V241.34H31.7568V215.804ZM32.2088 216.256V240.888H36.1725V216.256H32.2088Z" fill="#959DA8"/>
<path d="M40.9137 216.03H36.498V241.114H40.9137V216.03Z" fill="#F4F5F6"/>
<path fill-rule="evenodd" clip-rule="evenodd" d="M36.2744 215.804H41.142V241.34H36.2744V215.804ZM36.7264 216.256V240.888H40.6901V216.256H36.7264Z" fill="#959DA8"/>
<path d="M45.4332 216.03H41.0176V241.114H45.4332V216.03Z" fill="#F4F5F6"/>
<path fill-rule="evenodd" clip-rule="evenodd" d="M40.793 215.804H45.6606V241.34H40.793V215.804ZM41.2449 216.256V240.888H45.2086V216.256H41.2449Z" fill="#959DA8"/>
<path d="M49.9577 216.03H45.542V241.114H49.9577V216.03Z" fill="#F4F5F6"/>
<path fill-rule="evenodd" clip-rule="evenodd" d="M45.3105 215.804H50.1782V241.34H45.3105V215.804ZM45.7625 216.256V240.888H49.7262V216.256H45.7625Z" fill="#959DA8"/>
<path d="M54.4762 216.03H50.0605V241.114H54.4762V216.03Z" fill="#F4F5F6"/>
<path fill-rule="evenodd" clip-rule="evenodd" d="M49.8369 215.804H54.7045V241.34H49.8369V215.804ZM50.2889 216.256V240.888H54.2526V216.256H50.2889Z" fill="#959DA8"/>
<path d="M58.9938 216.03H54.5781V241.114H58.9938V216.03Z" fill="#F4F5F6"/>
<path fill-rule="evenodd" clip-rule="evenodd" d="M54.3535 215.804H59.2211V241.34H54.3535V215.804ZM54.8055 216.256V240.888H58.7692V216.256H54.8055Z" fill="#959DA8"/>
<path d="M63.5104 216.03H59.0947V241.114H63.5104V216.03Z" fill="#F4F5F6"/>
<path fill-rule="evenodd" clip-rule="evenodd" d="M58.8711 215.804H63.7387V241.34H58.8711V215.804ZM59.3231 216.256V240.888H63.2868V216.256H59.3231Z" fill="#959DA8"/>
<path d="M68.0329 216.03H63.6172V241.114H68.0329V216.03Z" fill="#F4F5F6"/>
<path fill-rule="evenodd" clip-rule="evenodd" d="M63.3906 215.804H68.2583V241.34H63.3906V215.804ZM63.8426 216.256V240.888H67.8063V216.256H63.8426Z" fill="#959DA8"/>
<path d="M72.5543 216.03H68.1387V241.114H72.5543V216.03Z" fill="#F4F5F6"/>
<path fill-rule="evenodd" clip-rule="evenodd" d="M67.9131 215.804H72.7807V241.34H67.9131V215.804ZM68.365 216.256V240.888H72.3288V216.256H68.365Z" fill="#959DA8"/>
<path fill-rule="evenodd" clip-rule="evenodd" d="M22.7803 215.804H90.9044V241.565H22.7803V215.804ZM23.6842 216.708V240.662H90.0004V216.708H23.6842Z" fill="#959DA8"/>
<line x1="8.74228e-08" y1="304" x2="310" y2="304" stroke="#959DA8" stroke-width="2" stroke-miterlimit="10"/>
</g>
</svg>
