<svg width="1300" height="499" viewBox="0 0 1300 499" fill="none" xmlns="http://www.w3.org/2000/svg">
<mask id="mask0" mask-type="alpha" maskUnits="userSpaceOnUse" x="0" y="0" width="1300" height="499">
<rect width="1300" height="499" rx="16" fill="#2A3A51"/>
</mask>
<g mask="url(#mask0)">
<path d="M908.803 74H322.367V93.4301H908.803V74Z" fill="#D3DCE5"/>
<path fill-rule="evenodd" clip-rule="evenodd" d="M766.645 227.663H903.658V350.449H766.645V227.663ZM767.55 228.569V349.543H902.752V228.569H767.55Z" fill="#959DA8"/>
<path fill-rule="evenodd" clip-rule="evenodd" d="M730.387 105.783H885.85V214.438H730.387V105.783ZM731.292 106.689V213.532H884.944V106.689H731.292Z" fill="#959DA8"/>
<path fill-rule="evenodd" clip-rule="evenodd" d="M696.66 213.367H765.901V352.38H696.66V213.367ZM697.896 214.603V351.144H764.665V214.603H697.896Z" fill="#959DA8"/>
<path fill-rule="evenodd" clip-rule="evenodd" d="M696.699 351.182H765.865V473.842H696.699V351.182ZM697.86 352.342V472.682H764.705V352.342H697.86Z" fill="#959DA8"/>
<path fill-rule="evenodd" clip-rule="evenodd" d="M765.332 351.271H927.088V474.132H765.332V351.271ZM766.313 352.252V473.151H926.107V352.252H766.313Z" fill="#959DA8"/>
<path d="M744.123 227.366H717.168V338.065H744.123V227.366Z" fill="white"/>
<path fill-rule="evenodd" clip-rule="evenodd" d="M716.695 226.895H744.594V338.537H716.695V226.895ZM717.639 227.838V337.593H743.65V227.838H717.639Z" fill="#959DA8"/>
<path d="M744.123 357.193H717.168V467.891H744.123V357.193Z" fill="white"/>
<path fill-rule="evenodd" clip-rule="evenodd" d="M716.695 356.721H744.594V468.363H716.695V356.721ZM717.639 357.665V467.42H743.65V357.665H717.639Z" fill="#959DA8"/>
<path d="M891.58 106.238V92.1067H730.84V213.103H744.971V106.238H891.58Z" fill="#F4F5F6"/>
<path fill-rule="evenodd" clip-rule="evenodd" d="M729.895 91.1633H892.521V107.181H745.912V214.047H729.895V91.1633ZM731.781 93.0502V212.16H744.026V105.294H890.634V93.0502H731.781Z" fill="#959DA8"/>
<path fill-rule="evenodd" clip-rule="evenodd" d="M467.035 213.367H536.276V352.38H467.035V213.367ZM468.271 214.603V351.144H535.041V214.603H468.271Z" fill="#959DA8"/>
<path fill-rule="evenodd" clip-rule="evenodd" d="M467.074 351.182H536.24V473.842H467.074V351.182ZM468.235 352.342V472.682H535.08V352.342H468.235Z" fill="#959DA8"/>
<path fill-rule="evenodd" clip-rule="evenodd" d="M535.703 351.271H697.46V474.132H535.703V351.271ZM536.684 352.252V473.151H696.478V352.252H536.684Z" fill="#959DA8"/>
<path d="M514.498 227.366H487.543V338.065H514.498V227.366Z" fill="white"/>
<path fill-rule="evenodd" clip-rule="evenodd" d="M487.07 226.895H514.969V338.537H487.07V226.895ZM488.014 227.838V337.593H514.025V227.838H488.014Z" fill="#959DA8"/>
<path d="M514.498 357.193H487.543V467.891H514.498V357.193Z" fill="white"/>
<path fill-rule="evenodd" clip-rule="evenodd" d="M487.07 356.721H514.969V468.363H487.07V356.721ZM488.014 357.665V467.42H514.025V357.665H488.014Z" fill="#959DA8"/>
<path d="M673.85 105.494H549.32V213.543H673.85" fill="#F4F5F6"/>
<path fill-rule="evenodd" clip-rule="evenodd" d="M548.648 104.824H673.848V106.164H549.988V212.874H673.848V214.213H548.648V104.824Z" fill="#959DA8"/>
<path d="M608.941 111.784H553.777V209.923H608.941V111.784Z" fill="white"/>
<path fill-rule="evenodd" clip-rule="evenodd" d="M553.305 111.312H609.412V210.395H553.305V111.312ZM554.248 112.255V209.452H608.469V112.255H554.248Z" fill="#959DA8"/>
<path fill-rule="evenodd" clip-rule="evenodd" d="M608.517 138.944H553.777V138H608.517V138.944Z" fill="#959DA8"/>
<path d="M673.432 106.236H612.934V197.204H673.432V106.236Z" fill="#D3DCE5"/>
<path d="M896.41 234.546H786.012V332.685H896.41V234.546Z" fill="white"/>
<path fill-rule="evenodd" clip-rule="evenodd" d="M785.539 234.074H896.881V333.157H785.539V234.074ZM786.483 235.017V332.213H895.937V235.017H786.483Z" fill="#959DA8"/>
<path fill-rule="evenodd" clip-rule="evenodd" d="M840.777 339.397V234.528H841.721V339.397H840.777Z" fill="#959DA8"/>
<path fill-rule="evenodd" clip-rule="evenodd" d="M895.994 261.708H786.055V260.764H895.994V261.708Z" fill="#959DA8"/>
<path d="M688.859 234.546H578.461V332.685H688.859V234.546Z" fill="white"/>
<path fill-rule="evenodd" clip-rule="evenodd" d="M577.988 234.074H689.33V333.157H577.988V234.074ZM578.932 235.017V332.213H688.387V235.017H578.932Z" fill="#959DA8"/>
<path fill-rule="evenodd" clip-rule="evenodd" d="M633.227 339.397V234.528H634.17V339.397H633.227Z" fill="#959DA8"/>
<path fill-rule="evenodd" clip-rule="evenodd" d="M688.447 261.708H578.508V260.764H688.447V261.708Z" fill="#959DA8"/>
<path d="M454.816 367.024H344.418V465.163H454.816V367.024Z" fill="white"/>
<path fill-rule="evenodd" clip-rule="evenodd" d="M343.945 366.552H455.287V465.635H343.945V366.552ZM344.889 367.495V464.691H454.344V367.495H344.889Z" fill="#959DA8"/>
<path fill-rule="evenodd" clip-rule="evenodd" d="M399.18 471.875V367.006H400.123V471.875H399.18Z" fill="#959DA8"/>
<path fill-rule="evenodd" clip-rule="evenodd" d="M454.404 394.186H344.465V393.242H454.404V394.186Z" fill="#959DA8"/>
<path d="M646.974 109.902H620.02V209.119H646.974V109.902Z" fill="white"/>
<path fill-rule="evenodd" clip-rule="evenodd" d="M619.547 109.43H647.445V209.591H619.547V109.43ZM620.49 110.373V208.647H646.502V110.373H620.49Z" fill="#959DA8"/>
<path d="M926.01 351.762H860.672V472.758H926.01V351.762Z" fill="#D3DCE5"/>
<path d="M882.279 111.993H748.918V212.579H882.279V111.993Z" fill="white"/>
<path fill-rule="evenodd" clip-rule="evenodd" d="M748.445 111.521H882.75V213.051H748.445V111.521ZM749.389 112.465V212.107H881.806V112.465H749.389Z" fill="#959DA8"/>
<path fill-rule="evenodd" clip-rule="evenodd" d="M778.07 211.777V112.648H779.014V211.777H778.07Z" fill="#959DA8"/>
<path fill-rule="evenodd" clip-rule="evenodd" d="M815.164 211.777V112.648H816.108V211.777H815.164Z" fill="#959DA8"/>
<path fill-rule="evenodd" clip-rule="evenodd" d="M852.258 211.777V112.648H853.201V211.777H852.258Z" fill="#959DA8"/>
<path d="M680.499 106.238V92.1067H535.656V211.778L549.787 212.22V106.238H680.499Z" fill="#F4F5F6"/>
<path fill-rule="evenodd" clip-rule="evenodd" d="M534.711 91.1633H681.44V107.181H550.729V213.194L534.711 212.693V91.1633ZM536.598 93.0502V210.864L548.842 211.247V105.294H679.554V93.0502H536.598Z" fill="#959DA8"/>
<path d="M889.373 184.628C889.72 184.63 890.066 184.594 890.406 184.522C906.303 180.909 906.303 161.726 906.303 161.726C906.44 150.033 902.729 138.619 895.74 129.243C894.999 128.262 894.041 127.467 892.941 126.919C891.84 126.372 890.628 126.087 889.399 126.087C888.17 126.087 886.958 126.372 885.857 126.919C884.757 127.467 883.799 128.262 883.058 129.243C876.074 138.618 872.366 150.028 872.504 161.718C872.504 161.718 872.504 180.945 888.348 184.522C888.688 184.594 889.034 184.63 889.381 184.628H889.373Z" fill="#80C33F"/>
<path fill-rule="evenodd" clip-rule="evenodd" d="M889.382 147.768C889.642 147.768 889.854 147.979 889.854 148.24V213.543C889.854 213.803 889.642 214.014 889.382 214.014C889.121 214.014 888.91 213.803 888.91 213.543V148.24C888.91 147.979 889.121 147.768 889.382 147.768Z" fill="#2A3A51"/>
<path fill-rule="evenodd" clip-rule="evenodd" d="M468.219 473.213H331.205V351.31H468.219V473.213ZM467.313 472.307V352.216H332.111V472.307H467.313Z" fill="#959DA8"/>
<path fill-rule="evenodd" clip-rule="evenodd" d="M466.453 350.449H329.44V227.664H466.453V350.449ZM465.547 349.543V228.569H330.345V349.543H465.547Z" fill="#959DA8"/>
<path fill-rule="evenodd" clip-rule="evenodd" d="M502.703 214.438L347.24 214.437V105.783L502.703 105.783V214.438ZM501.797 213.532V106.689L348.145 106.689V213.532L501.797 213.532Z" fill="#959DA8"/>
<path d="M391.253 228.558H329.43V320.409H391.253V228.558Z" fill="#D3DCE5"/>
<path d="M601.631 352.204H536.293V473.2H601.631V352.204Z" fill="#D3DCE5"/>
<path fill-rule="evenodd" clip-rule="evenodd" d="M467.762 474.132H306.005V351.271H467.762V474.132ZM466.781 473.151V352.253H306.986V473.151H466.781Z" fill="#959DA8"/>
<path d="M341.52 106.238V92.1067H502.251V213.103H488.12V106.238H341.52Z" fill="#F4F5F6"/>
<path fill-rule="evenodd" clip-rule="evenodd" d="M340.574 91.1633H503.192V214.047H487.174V107.181H340.574V91.1633ZM342.461 93.0502V105.294H489.061V212.16H501.305V93.0502H342.461Z" fill="#959DA8"/>
<path d="M313.693 228.116V213.985H467.809V351.762H447.496H300.004V338.514H453.678V228.116H313.693Z" fill="#F4F5F6"/>
<path fill-rule="evenodd" clip-rule="evenodd" d="M312.748 213.041H468.751V352.705H299.059V337.571H452.733V229.059H312.748V213.041ZM314.635 214.928V227.172H454.62V339.457H300.945V350.818H466.864V214.928H314.635Z" fill="#959DA8"/>
<path d="M396.129 233.662H447.919V331.801H396.129V233.662Z" fill="white"/>
<path fill-rule="evenodd" clip-rule="evenodd" d="M395.656 233.19H448.39V332.273H395.656V233.19ZM396.6 234.133V331.33H447.446V234.133H396.6Z" fill="#959DA8"/>
<path fill-rule="evenodd" clip-rule="evenodd" d="M396.113 259.881H447.921V260.824H396.113V259.881Z" fill="#959DA8"/>
<path d="M621.344 356.426H673.134V454.565H621.344V356.426Z" fill="white"/>
<path fill-rule="evenodd" clip-rule="evenodd" d="M620.875 355.954H673.609V455.037H620.875V355.954ZM621.818 356.897V454.094H672.665V356.897H621.818Z" fill="#959DA8"/>
<path fill-rule="evenodd" clip-rule="evenodd" d="M621.324 382.642H673.132V383.586H621.324V382.642Z" fill="#959DA8"/>
<path d="M787.383 356.426H839.173V454.565H787.383V356.426Z" fill="white"/>
<path fill-rule="evenodd" clip-rule="evenodd" d="M786.91 355.954H839.644V455.037H786.91V355.954ZM787.854 356.897V454.094H838.7V356.897H787.854Z" fill="#959DA8"/>
<path fill-rule="evenodd" clip-rule="evenodd" d="M787.363 382.642H839.171V383.586H787.363V382.642Z" fill="#959DA8"/>
<path d="M350.816 111.993H484.178V212.579H350.816V111.993Z" fill="white"/>
<path fill-rule="evenodd" clip-rule="evenodd" d="M350.348 111.521H484.652V213.051H350.348V111.521ZM351.291 112.465V212.107H483.709V112.465H351.291Z" fill="#959DA8"/>
<path fill-rule="evenodd" clip-rule="evenodd" d="M454.082 211.777V112.648H455.025V211.777H454.082Z" fill="#959DA8"/>
<path fill-rule="evenodd" clip-rule="evenodd" d="M416.988 211.777V112.648H417.932V211.777H416.988Z" fill="#959DA8"/>
<path fill-rule="evenodd" clip-rule="evenodd" d="M379.895 211.777V112.648H380.838V211.777H379.895Z" fill="#959DA8"/>
<path d="M697.279 228.116V213.985H535.656V351.762H549.787H697.279V337.631H549.787V228.116H697.279Z" fill="#F4F5F6"/>
<path fill-rule="evenodd" clip-rule="evenodd" d="M534.711 213.041H698.221V229.059H550.729V336.687H698.221V352.705H534.711V213.041ZM536.598 214.928V350.818H696.334V338.574H548.842V227.172H696.334V214.928H536.598Z" fill="#959DA8"/>
<path d="M919.401 228.999V213.985H765.285V351.762H933.091V338.514H779.416V228.999H919.401Z" fill="#F4F5F6"/>
<path fill-rule="evenodd" clip-rule="evenodd" d="M764.344 213.041H920.347V229.942H780.362V337.571H934.036V352.705H764.344V213.041ZM766.231 214.928V350.818H932.149V339.457H778.475V228.055H918.46V214.928H766.231Z" fill="#959DA8"/>
<path d="M559.248 312.019C558.951 312.018 558.655 311.986 558.365 311.921C544.835 308.839 544.835 292.491 544.835 292.491C544.732 283.168 547.485 274.037 552.722 266.322C553.454 265.271 554.429 264.413 555.565 263.82C556.701 263.227 557.963 262.917 559.244 262.917C560.525 262.917 561.787 263.227 562.923 263.82C564.059 264.413 565.034 265.271 565.766 266.322C571.007 274.035 573.762 283.167 573.662 292.491C573.662 292.491 573.662 308.901 560.132 311.921C559.842 311.986 559.545 312.018 559.248 312.019Z" fill="#80C33F"/>
<path fill-rule="evenodd" clip-rule="evenodd" d="M559.249 280.495C559.51 280.495 559.721 280.706 559.721 280.966V336.695C559.721 336.956 559.51 337.167 559.249 337.167C558.989 337.167 558.777 336.956 558.777 336.695V280.966C558.777 280.706 558.989 280.495 559.249 280.495Z" fill="#2A3A51"/>
<path d="M846.098 318.908C846.09 316.942 846.555 315.003 847.455 313.255C848.354 311.508 849.662 310.002 851.266 308.866C852.871 307.731 854.725 306.998 856.672 306.73C858.62 306.463 860.603 306.668 862.454 307.329C863.17 304.448 864.619 301.801 866.661 299.647C868.702 297.492 871.267 295.902 874.106 295.032C876.944 294.163 879.959 294.043 882.858 294.684C885.756 295.325 888.439 296.706 890.646 298.692C892.204 294.333 895.251 290.664 899.249 288.331C903.247 285.998 907.94 285.151 912.501 285.938C917.063 286.726 921.2 289.097 924.185 292.635C927.169 296.174 928.81 300.651 928.817 305.28C928.82 305.965 928.784 306.649 928.711 307.329C930.036 306.843 929.426 321.098 929.117 322.176H846.539C846.243 321.103 846.095 319.994 846.098 318.881V318.908Z" fill="#80C33F"/>
<path d="M410.685 196.146C410.693 194.18 410.228 192.242 409.328 190.494C408.429 188.746 407.121 187.24 405.517 186.105C403.913 184.969 402.058 184.236 400.111 183.969C398.163 183.701 396.18 183.907 394.329 184.567C393.613 181.686 392.164 179.04 390.122 176.885C388.081 174.73 385.516 173.14 382.677 172.271C379.839 171.401 376.824 171.281 373.926 171.922C371.027 172.563 368.344 173.944 366.137 175.93C364.579 171.571 361.532 167.903 357.534 165.57C353.536 163.237 348.843 162.389 344.282 163.177C339.72 163.964 335.583 166.336 332.599 169.874C329.614 173.412 327.973 177.89 327.966 182.518C327.964 183.203 327.999 183.887 328.072 184.567C326.747 184.082 327.357 198.336 327.666 199.414H410.244C410.54 198.341 410.688 197.233 410.685 196.119V196.146Z" fill="#80C33F"/>
<path d="M876.478 304.07V338.515H868.035L868.044 304.07H876.478Z" fill="#F4F5F6"/>
<path fill-rule="evenodd" clip-rule="evenodd" d="M867.572 303.599H876.949V338.986H867.562L867.572 303.599ZM868.515 304.542L868.506 338.043H876.006V304.542H868.515Z" fill="#959DA8"/>
<path d="M885.308 304.07H876.68V338.515H885.308V304.07Z" fill="#F4F5F6"/>
<path fill-rule="evenodd" clip-rule="evenodd" d="M876.211 303.599H885.783V338.986H876.211V303.599ZM877.154 304.542V338.043H884.84V304.542H877.154Z" fill="#959DA8"/>
<path d="M894.14 304.07H885.512V338.515H894.14V304.07Z" fill="#F4F5F6"/>
<path fill-rule="evenodd" clip-rule="evenodd" d="M885.039 303.599H894.611V338.986H885.039V303.599ZM885.983 304.542V338.043H893.668V304.542H885.983Z" fill="#959DA8"/>
<path d="M902.972 304.07H894.344V338.515H902.972V304.07Z" fill="#F4F5F6"/>
<path fill-rule="evenodd" clip-rule="evenodd" d="M893.871 303.599H903.443V338.986H893.871V303.599ZM894.815 304.542V338.043H902.5V304.542H894.815Z" fill="#959DA8"/>
<path d="M911.805 304.07H903.176V338.515H911.805V304.07Z" fill="#F4F5F6"/>
<path fill-rule="evenodd" clip-rule="evenodd" d="M902.703 303.599H912.275V338.986H902.703V303.599ZM903.647 304.542V338.043H911.332V304.542H903.647Z" fill="#959DA8"/>
<path d="M920.637 304.07H912.008V338.515H920.637V304.07Z" fill="#F4F5F6"/>
<path fill-rule="evenodd" clip-rule="evenodd" d="M911.539 303.599H921.111V338.986H911.539V303.599ZM912.483 304.542V338.043H920.168V304.542H912.483Z" fill="#959DA8"/>
<path d="M929.469 304.07H920.84V338.515H929.469V304.07Z" fill="#F4F5F6"/>
<path fill-rule="evenodd" clip-rule="evenodd" d="M920.367 303.599H929.939V338.986H920.367V303.599ZM921.311 304.542V338.043H928.996V304.542H921.311Z" fill="#959DA8"/>
<path d="M788.158 304.07V338.515H779.715L779.724 304.07H788.158Z" fill="#F4F5F6"/>
<path fill-rule="evenodd" clip-rule="evenodd" d="M779.251 303.599H788.629V338.986H779.242L779.251 303.599ZM780.194 304.542L780.186 338.043H787.686V304.542H780.194Z" fill="#959DA8"/>
<path d="M779.326 304.07V338.515H770.883L770.892 304.07H779.326Z" fill="#F4F5F6"/>
<path fill-rule="evenodd" clip-rule="evenodd" d="M770.423 303.599H779.801V338.986H770.414L770.423 303.599ZM771.366 304.542L771.358 338.043H778.857V304.542H771.366Z" fill="#959DA8"/>
<path d="M770.497 304.07V338.515H764.703L764.712 304.07H770.497Z" fill="#F4F5F6"/>
<path fill-rule="evenodd" clip-rule="evenodd" d="M764.24 303.599H770.968V338.986H764.23L764.24 303.599ZM765.183 304.542L765.174 338.043H770.024V304.542H765.183Z" fill="#959DA8"/>
<path d="M796.992 304.07H788.363V338.515H796.992V304.07Z" fill="#F4F5F6"/>
<path fill-rule="evenodd" clip-rule="evenodd" d="M787.891 303.599H797.463V338.986H787.891V303.599ZM788.834 304.542V338.043H796.519V304.542H788.834Z" fill="#959DA8"/>
<path d="M805.824 304.07H797.195V338.515H805.824V304.07Z" fill="#F4F5F6"/>
<path fill-rule="evenodd" clip-rule="evenodd" d="M796.723 303.599H806.295V338.986H796.723V303.599ZM797.666 304.542V338.043H805.351V304.542H797.666Z" fill="#959DA8"/>
<path d="M814.652 304.07H806.023V338.515H814.652V304.07Z" fill="#F4F5F6"/>
<path fill-rule="evenodd" clip-rule="evenodd" d="M805.551 303.599H815.123V338.986H805.551V303.599ZM806.494 304.542V338.043H814.18V304.542H806.494Z" fill="#959DA8"/>
<path d="M823.488 304.07H814.859V338.515H823.488V304.07Z" fill="#F4F5F6"/>
<path fill-rule="evenodd" clip-rule="evenodd" d="M814.387 303.599H823.959V338.986H814.387V303.599ZM815.33 304.542V338.043H823.015V304.542H815.33Z" fill="#959DA8"/>
<path d="M832.316 304.07H823.688V338.515H832.316V304.07Z" fill="#F4F5F6"/>
<path fill-rule="evenodd" clip-rule="evenodd" d="M823.219 303.599H832.791V338.986H823.219V303.599ZM824.162 304.542V338.043H831.847V304.542H824.162Z" fill="#959DA8"/>
<path d="M841.148 304.07H832.52V338.515H841.148V304.07Z" fill="#F4F5F6"/>
<path fill-rule="evenodd" clip-rule="evenodd" d="M832.047 303.599H841.619V338.986H832.047V303.599ZM832.99 304.542V338.043H840.676V304.542H832.99Z" fill="#959DA8"/>
<path d="M849.984 304.07H841.355V338.515H849.984V304.07Z" fill="#F4F5F6"/>
<path fill-rule="evenodd" clip-rule="evenodd" d="M840.883 303.599H850.455V338.986H840.883V303.599ZM841.826 304.542V338.043H849.512V304.542H841.826Z" fill="#959DA8"/>
<path d="M858.812 304.07H850.184V338.515H858.812V304.07Z" fill="#F4F5F6"/>
<path fill-rule="evenodd" clip-rule="evenodd" d="M849.711 303.599H859.283V338.986H849.711V303.599ZM850.654 304.542V338.043H858.34V304.542H850.654Z" fill="#959DA8"/>
<path d="M867.644 304.07H859.016V338.515H867.644V304.07Z" fill="#F4F5F6"/>
<path fill-rule="evenodd" clip-rule="evenodd" d="M858.547 303.599H868.119V338.986H858.547V303.599ZM859.49 304.542V338.043H867.176V304.542H859.49Z" fill="#959DA8"/>
<path d="M634.482 304.07V338.515H626.039L626.048 304.07H634.482Z" fill="#F4F5F6"/>
<path fill-rule="evenodd" clip-rule="evenodd" d="M625.579 303.599H634.957V338.986H625.57L625.579 303.599ZM626.523 304.542L626.514 338.043H634.014V304.542H626.523Z" fill="#959DA8"/>
<path d="M643.316 304.07H634.688V338.515H643.316V304.07Z" fill="#F4F5F6"/>
<path fill-rule="evenodd" clip-rule="evenodd" d="M634.215 303.599H643.787V338.986H634.215V303.599ZM635.158 304.542V338.043H642.844V304.542H635.158Z" fill="#959DA8"/>
<path d="M652.152 304.07H643.523V338.515H652.152V304.07Z" fill="#F4F5F6"/>
<path fill-rule="evenodd" clip-rule="evenodd" d="M643.051 303.599H652.623V338.986H643.051V303.599ZM643.994 304.542V338.043H651.68V304.542H643.994Z" fill="#959DA8"/>
<path d="M660.976 304.07H652.348V338.515H660.976V304.07Z" fill="#F4F5F6"/>
<path fill-rule="evenodd" clip-rule="evenodd" d="M651.875 303.599H661.447V338.986H651.875V303.599ZM652.818 304.542V338.043H660.504V304.542H652.818Z" fill="#959DA8"/>
<path d="M669.812 304.07H661.184V338.515H669.812V304.07Z" fill="#F4F5F6"/>
<path fill-rule="evenodd" clip-rule="evenodd" d="M660.711 303.599H670.283V338.986H660.711V303.599ZM661.654 304.542V338.043H669.34V304.542H661.654Z" fill="#959DA8"/>
<path d="M678.644 304.07H670.016V338.515H678.644V304.07Z" fill="#F4F5F6"/>
<path fill-rule="evenodd" clip-rule="evenodd" d="M669.543 303.599H679.115V338.986H669.543V303.599ZM670.486 304.542V338.043H678.172V304.542H670.486Z" fill="#959DA8"/>
<path d="M687.472 304.07H678.844V338.515H687.472V304.07Z" fill="#F4F5F6"/>
<path fill-rule="evenodd" clip-rule="evenodd" d="M678.375 303.599H687.947V338.986H678.375V303.599ZM679.318 304.542V338.043H687.004V304.542H679.318Z" fill="#959DA8"/>
<path d="M696.308 338.515H687.68V304.07H696.308" fill="#F4F5F6"/>
<path fill-rule="evenodd" clip-rule="evenodd" d="M687.207 303.599H696.307V304.542H688.15V338.043H696.307V338.986H687.207V303.599Z" fill="#959DA8"/>
<path d="M555 304.07H546.371V338.515H555V304.07Z" fill="#F4F5F6"/>
<path fill-rule="evenodd" clip-rule="evenodd" d="M545.898 303.599H555.471V338.986H545.898V303.599ZM546.842 304.542V338.043H554.527V304.542H546.842Z" fill="#959DA8"/>
<path d="M546.164 304.07H537.535V338.515H546.164V304.07Z" fill="#F4F5F6"/>
<path fill-rule="evenodd" clip-rule="evenodd" d="M537.066 303.599H546.639V338.986H537.066V303.599ZM538.01 304.542V338.043H545.695V304.542H538.01Z" fill="#959DA8"/>
<path d="M563.832 304.07H555.203V338.515H563.832V304.07Z" fill="#F4F5F6"/>
<path fill-rule="evenodd" clip-rule="evenodd" d="M554.73 303.599H564.303V338.986H554.73V303.599ZM555.674 304.542V338.043H563.359V304.542H555.674Z" fill="#959DA8"/>
<path d="M572.66 304.07H564.031V338.515H572.66V304.07Z" fill="#F4F5F6"/>
<path fill-rule="evenodd" clip-rule="evenodd" d="M563.559 303.599H573.131V338.986H563.559V303.599ZM564.502 304.542V338.043H572.187V304.542H564.502Z" fill="#959DA8"/>
<path d="M581.496 304.07H572.867V338.515H581.496V304.07Z" fill="#F4F5F6"/>
<path fill-rule="evenodd" clip-rule="evenodd" d="M572.395 303.599H581.967V338.986H572.395V303.599ZM573.338 304.542V338.043H581.023V304.542H573.338Z" fill="#959DA8"/>
<path d="M590.324 304.07H581.695V338.515H590.324V304.07Z" fill="#F4F5F6"/>
<path fill-rule="evenodd" clip-rule="evenodd" d="M581.227 303.599H590.799V338.986H581.227V303.599ZM582.17 304.542V338.043H589.855V304.542H582.17Z" fill="#959DA8"/>
<path d="M599.156 304.07H590.527V338.515H599.156V304.07Z" fill="#F4F5F6"/>
<path fill-rule="evenodd" clip-rule="evenodd" d="M590.055 303.599H599.627V338.986H590.055V303.599ZM590.998 304.542V338.043H598.683V304.542H590.998Z" fill="#959DA8"/>
<path d="M607.992 304.07H599.363V338.515H607.992V304.07Z" fill="#F4F5F6"/>
<path fill-rule="evenodd" clip-rule="evenodd" d="M598.891 303.599H608.463V338.986H598.891V303.599ZM599.834 304.542V338.043H607.519V304.542H599.834Z" fill="#959DA8"/>
<path d="M616.82 304.07H608.191V338.515H616.82V304.07Z" fill="#F4F5F6"/>
<path fill-rule="evenodd" clip-rule="evenodd" d="M607.719 303.599H617.291V338.986H607.719V303.599ZM608.662 304.542V338.043H616.347V304.542H608.662Z" fill="#959DA8"/>
<path d="M625.652 304.07H617.023V338.515H625.652V304.07Z" fill="#F4F5F6"/>
<path fill-rule="evenodd" clip-rule="evenodd" d="M616.555 303.599H626.127V338.986H616.555V303.599ZM617.498 304.542V338.043H625.183V304.542H617.498Z" fill="#959DA8"/>
<path d="M403.975 304.07V338.515H395.531L395.54 304.07H403.975Z" fill="#F4F5F6"/>
<path fill-rule="evenodd" clip-rule="evenodd" d="M395.068 303.599H404.445V338.986H395.059L395.068 303.599ZM396.011 304.542L396.002 338.043H403.502V304.542H396.011Z" fill="#959DA8"/>
<path d="M412.805 304.07H404.176V338.515H412.805V304.07Z" fill="#F4F5F6"/>
<path fill-rule="evenodd" clip-rule="evenodd" d="M403.707 303.599H413.279V338.986H403.707V303.599ZM404.65 304.542V338.043H412.336V304.542H404.65Z" fill="#959DA8"/>
<path d="M421.633 304.07H413.004V338.515H421.633V304.07Z" fill="#F4F5F6"/>
<path fill-rule="evenodd" clip-rule="evenodd" d="M412.535 303.599H422.107V338.986H412.535V303.599ZM413.479 304.542V338.043H421.164V304.542H413.479Z" fill="#959DA8"/>
<path d="M430.469 304.07H421.84V338.515H430.469V304.07Z" fill="#F4F5F6"/>
<path fill-rule="evenodd" clip-rule="evenodd" d="M421.367 303.599H430.939V338.986H421.367V303.599ZM422.311 304.542V338.043H429.996V304.542H422.311Z" fill="#959DA8"/>
<path d="M439.301 304.07H430.672V338.515H439.301V304.07Z" fill="#F4F5F6"/>
<path fill-rule="evenodd" clip-rule="evenodd" d="M430.199 303.599H439.771V338.986H430.199V303.599ZM431.143 304.542V338.043H438.828V304.542H431.143Z" fill="#959DA8"/>
<path d="M448.133 304.07H439.504V338.515H448.133V304.07Z" fill="#F4F5F6"/>
<path fill-rule="evenodd" clip-rule="evenodd" d="M439.031 303.599H448.603V338.986H439.031V303.599ZM439.975 304.542V338.043H447.66V304.542H439.975Z" fill="#959DA8"/>
<path d="M456.965 304.07H448.336V338.515H456.965V304.07Z" fill="#F4F5F6"/>
<path fill-rule="evenodd" clip-rule="evenodd" d="M447.863 303.599H457.435V338.986H447.863V303.599ZM448.807 304.542V338.043H456.492V304.542H448.807Z" fill="#959DA8"/>
<path d="M465.44 304.07H457.164V338.515H465.44V304.07Z" fill="#F4F5F6"/>
<path fill-rule="evenodd" clip-rule="evenodd" d="M456.746 303.65H465.861V338.934H456.746V303.65ZM457.586 304.49V338.095H465.022V304.49H457.586Z" fill="#959DA8"/>
<path d="M324.488 304.07H315.859V338.515H324.488V304.07Z" fill="#F4F5F6"/>
<path fill-rule="evenodd" clip-rule="evenodd" d="M315.387 303.599H324.959V338.986H315.387V303.599ZM316.33 304.542V338.043H324.015V304.542H316.33Z" fill="#959DA8"/>
<path d="M315.652 304.07H307.023V338.515H315.652V304.07Z" fill="#F4F5F6"/>
<path fill-rule="evenodd" clip-rule="evenodd" d="M306.555 303.599H316.127V338.986H306.555V303.599ZM307.498 304.542V338.043H315.183V304.542H307.498Z" fill="#959DA8"/>
<path d="M333.312 304.07H324.684V338.515H333.312V304.07Z" fill="#F4F5F6"/>
<path fill-rule="evenodd" clip-rule="evenodd" d="M324.215 303.599H333.787V338.986H324.215V303.599ZM325.158 304.542V338.043H332.844V304.542H325.158Z" fill="#959DA8"/>
<path d="M342.152 304.07H333.523V338.515H342.152V304.07Z" fill="#F4F5F6"/>
<path fill-rule="evenodd" clip-rule="evenodd" d="M333.051 303.599H342.623V338.986H333.051V303.599ZM333.994 304.542V338.043H341.68V304.542H333.994Z" fill="#959DA8"/>
<path d="M350.984 304.07H342.355V338.515H350.984V304.07Z" fill="#F4F5F6"/>
<path fill-rule="evenodd" clip-rule="evenodd" d="M341.883 303.599H351.455V338.986H341.883V303.599ZM342.826 304.542V338.043H350.512V304.542H342.826Z" fill="#959DA8"/>
<path d="M359.812 304.07H351.184V338.515H359.812V304.07Z" fill="#F4F5F6"/>
<path fill-rule="evenodd" clip-rule="evenodd" d="M350.711 303.599H360.283V338.986H350.711V303.599ZM351.654 304.542V338.043H359.34V304.542H351.654Z" fill="#959DA8"/>
<path d="M368.648 304.07H360.02V338.515H368.648V304.07Z" fill="#F4F5F6"/>
<path fill-rule="evenodd" clip-rule="evenodd" d="M359.547 303.599H369.119V338.986H359.547V303.599ZM360.49 304.542V338.043H368.176V304.542H360.49Z" fill="#959DA8"/>
<path d="M377.472 304.07H368.844V338.515H377.472V304.07Z" fill="#F4F5F6"/>
<path fill-rule="evenodd" clip-rule="evenodd" d="M368.375 303.599H377.947V338.986H368.375V303.599ZM369.318 304.542V338.043H377.004V304.542H369.318Z" fill="#959DA8"/>
<path d="M386.312 304.07H377.684V338.515H386.312V304.07Z" fill="#F4F5F6"/>
<path fill-rule="evenodd" clip-rule="evenodd" d="M377.211 303.599H386.783V338.986H377.211V303.599ZM378.154 304.542V338.043H385.84V304.542H378.154Z" fill="#959DA8"/>
<path d="M395.14 304.07H386.512V338.515H395.14V304.07Z" fill="#F4F5F6"/>
<path fill-rule="evenodd" clip-rule="evenodd" d="M386.039 303.599H395.611V338.986H386.039V303.599ZM386.983 304.542V338.043H394.668V304.542H386.983Z" fill="#959DA8"/>
<path d="M841.15 179.539V213.983H832.707L832.716 179.539H841.15Z" fill="#F4F5F6"/>
<path fill-rule="evenodd" clip-rule="evenodd" d="M832.243 179.067H841.621V214.455H832.234L832.243 179.067ZM833.187 180.011L833.178 213.511H840.678V180.011H833.187Z" fill="#959DA8"/>
<path d="M849.984 179.539H841.355V213.983H849.984V179.539Z" fill="#F4F5F6"/>
<path fill-rule="evenodd" clip-rule="evenodd" d="M840.883 179.067H850.455V214.455H840.883V179.067ZM841.826 180.011V213.511H849.512V180.011H841.826Z" fill="#959DA8"/>
<path d="M858.812 179.539H850.184V213.983H858.812V179.539Z" fill="#F4F5F6"/>
<path fill-rule="evenodd" clip-rule="evenodd" d="M849.711 179.067H859.283V214.455H849.711V179.067ZM850.654 180.011V213.511H858.34V180.011H850.654Z" fill="#959DA8"/>
<path d="M867.644 179.539H859.016V213.983H867.644V179.539Z" fill="#F4F5F6"/>
<path fill-rule="evenodd" clip-rule="evenodd" d="M858.547 179.067H868.119V214.455H858.547V179.067ZM859.49 180.011V213.511H867.176V180.011H859.49Z" fill="#959DA8"/>
<path d="M876.476 179.539H867.848V213.983H876.476V179.539Z" fill="#F4F5F6"/>
<path fill-rule="evenodd" clip-rule="evenodd" d="M867.379 179.067H876.951V214.455H867.379V179.067ZM868.322 180.011V213.511H876.008V180.011H868.322Z" fill="#959DA8"/>
<path d="M885.308 179.539H876.68V213.983H885.308V179.539Z" fill="#F4F5F6"/>
<path fill-rule="evenodd" clip-rule="evenodd" d="M876.211 179.067H885.783V214.455H876.211V179.067ZM877.154 180.011V213.511H884.84V180.011H877.154Z" fill="#959DA8"/>
<path d="M894.14 179.539H885.512V213.983H894.14V179.539Z" fill="#F4F5F6"/>
<path fill-rule="evenodd" clip-rule="evenodd" d="M885.039 179.067H894.611V214.455H885.039V179.067ZM885.983 180.011V213.511H893.668V180.011H885.983Z" fill="#959DA8"/>
<path d="M902.972 179.539H894.344V213.983H902.972V179.539Z" fill="#F4F5F6"/>
<path fill-rule="evenodd" clip-rule="evenodd" d="M893.871 179.067H903.443V214.455H893.871V179.067ZM894.815 180.011V213.511H902.5V180.011H894.815Z" fill="#959DA8"/>
<path d="M911.805 179.539H903.176V213.983H911.805V179.539Z" fill="#F4F5F6"/>
<path fill-rule="evenodd" clip-rule="evenodd" d="M902.703 179.067H912.275V214.455H902.703V179.067ZM903.647 180.011V213.511H911.332V180.011H903.647Z" fill="#959DA8"/>
<path d="M752.834 179.539V213.983H744.391L744.399 179.539H752.834Z" fill="#F4F5F6"/>
<path fill-rule="evenodd" clip-rule="evenodd" d="M743.927 179.067H753.305V214.455H743.918L743.927 179.067ZM744.87 180.011L744.862 213.511H752.361V180.011H744.87Z" fill="#959DA8"/>
<path d="M761.664 179.539H753.035V213.983H761.664V179.539Z" fill="#F4F5F6"/>
<path fill-rule="evenodd" clip-rule="evenodd" d="M752.562 179.067H762.135V214.455H752.562V179.067ZM753.506 180.011V213.511H761.191V180.011H753.506Z" fill="#959DA8"/>
<path d="M770.492 179.539H761.863V213.983H770.492V179.539Z" fill="#F4F5F6"/>
<path fill-rule="evenodd" clip-rule="evenodd" d="M761.391 179.067H770.963V214.455H761.391V179.067ZM762.334 180.011V213.511H770.019V180.011H762.334Z" fill="#959DA8"/>
<path d="M779.328 179.539H770.699V213.983H779.328V179.539Z" fill="#F4F5F6"/>
<path fill-rule="evenodd" clip-rule="evenodd" d="M770.227 179.067H779.799V214.455H770.227V179.067ZM771.17 180.011V213.511H778.855V180.011H771.17Z" fill="#959DA8"/>
<path d="M788.156 179.539H779.527V213.983H788.156V179.539Z" fill="#F4F5F6"/>
<path fill-rule="evenodd" clip-rule="evenodd" d="M779.059 179.067H788.631V214.455H779.059V179.067ZM780.002 180.011V213.511H787.687V180.011H780.002Z" fill="#959DA8"/>
<path d="M796.992 179.539H788.363V213.983H796.992V179.539Z" fill="#F4F5F6"/>
<path fill-rule="evenodd" clip-rule="evenodd" d="M787.891 179.067H797.463V214.455H787.891V179.067ZM788.834 180.011V213.511H796.519V180.011H788.834Z" fill="#959DA8"/>
<path d="M805.824 179.539H797.195V213.983H805.824V179.539Z" fill="#F4F5F6"/>
<path fill-rule="evenodd" clip-rule="evenodd" d="M796.723 179.067H806.295V214.455H796.723V179.067ZM797.666 180.011V213.511H805.351V180.011H797.666Z" fill="#959DA8"/>
<path d="M814.652 179.539H806.023V213.983H814.652V179.539Z" fill="#F4F5F6"/>
<path fill-rule="evenodd" clip-rule="evenodd" d="M805.551 179.067H815.123V214.455H805.551V179.067ZM806.494 180.011V213.511H814.18V180.011H806.494Z" fill="#959DA8"/>
<path d="M823.488 179.539H814.859V213.983H823.488V179.539Z" fill="#F4F5F6"/>
<path fill-rule="evenodd" clip-rule="evenodd" d="M814.387 179.067H823.959V214.455H814.387V179.067ZM815.33 180.011V213.511H823.015V180.011H815.33Z" fill="#959DA8"/>
<path d="M832.316 179.539H823.688V213.983H832.316V179.539Z" fill="#F4F5F6"/>
<path fill-rule="evenodd" clip-rule="evenodd" d="M823.219 179.067H832.791V214.455H823.219V179.067ZM824.162 180.011V213.511H831.847V180.011H824.162Z" fill="#959DA8"/>
<path d="M665.396 179.539V213.983H656.953L656.962 179.539H665.396Z" fill="#F4F5F6"/>
<path fill-rule="evenodd" clip-rule="evenodd" d="M656.49 179.067H665.867V214.455H656.48L656.49 179.067ZM657.433 180.011L657.424 213.511H664.924V180.011H657.433Z" fill="#959DA8"/>
<path d="M674.226 179.539H665.598V213.983H674.226V179.539Z" fill="#F4F5F6"/>
<path fill-rule="evenodd" clip-rule="evenodd" d="M665.125 179.067H674.697V214.455H665.125V179.067ZM666.068 180.011V213.511H673.754V180.011H666.068Z" fill="#959DA8"/>
<path d="M683.062 179.539H674.434V213.983H683.062V179.539Z" fill="#F4F5F6"/>
<path fill-rule="evenodd" clip-rule="evenodd" d="M673.961 179.067H683.533V214.455H673.961V179.067ZM674.904 180.011V213.511H682.59V180.011H674.904Z" fill="#959DA8"/>
<path d="M691.89 179.539H683.262V213.983H691.89V179.539Z" fill="#F4F5F6"/>
<path fill-rule="evenodd" clip-rule="evenodd" d="M682.789 179.067H692.361V214.455H682.789V179.067ZM683.733 180.011V213.511H691.418V180.011H683.733Z" fill="#959DA8"/>
<path d="M700.722 179.539H692.094V213.983H700.722V179.539Z" fill="#F4F5F6"/>
<path fill-rule="evenodd" clip-rule="evenodd" d="M691.625 179.067H701.197V214.455H691.625V179.067ZM692.568 180.011V213.511H700.254V180.011H692.568Z" fill="#959DA8"/>
<path d="M709.555 179.539H700.926V213.983H709.555V179.539Z" fill="#F4F5F6"/>
<path fill-rule="evenodd" clip-rule="evenodd" d="M700.457 179.067H710.029V214.455H700.457V179.067ZM701.4 180.011V213.511H709.086V180.011H701.4Z" fill="#959DA8"/>
<path d="M718.387 179.539H709.758V213.983H718.387V179.539Z" fill="#F4F5F6"/>
<path fill-rule="evenodd" clip-rule="evenodd" d="M709.285 179.067H718.857V214.455H709.285V179.067ZM710.229 180.011V213.511H717.914V180.011H710.229Z" fill="#959DA8"/>
<path d="M727.219 179.539H718.59V213.983H727.219V179.539Z" fill="#F4F5F6"/>
<path fill-rule="evenodd" clip-rule="evenodd" d="M718.117 179.067H727.689V214.455H718.117V179.067ZM719.061 180.011V213.511H726.746V180.011H719.061Z" fill="#959DA8"/>
<path d="M736.051 179.539H727.422V213.983H736.051V179.539Z" fill="#F4F5F6"/>
<path fill-rule="evenodd" clip-rule="evenodd" d="M726.949 179.067H736.521V214.455H726.949V179.067ZM727.893 180.011V213.511H735.578V180.011H727.893Z" fill="#959DA8"/>
<path d="M744.883 179.539H736.254V213.983H744.883V179.539Z" fill="#F4F5F6"/>
<path fill-rule="evenodd" clip-rule="evenodd" d="M735.781 179.067H745.353V214.455H735.781V179.067ZM736.725 180.011V213.511H744.41V180.011H736.725Z" fill="#959DA8"/>
<path d="M577.076 179.539V213.983H568.633L568.642 179.539H577.076Z" fill="#F4F5F6"/>
<path fill-rule="evenodd" clip-rule="evenodd" d="M568.169 179.067H577.547V214.455H568.16L568.169 179.067ZM569.112 180.011L569.104 213.511H576.604V180.011H569.112Z" fill="#959DA8"/>
<path d="M585.91 179.539H577.281V213.983H585.91V179.539Z" fill="#F4F5F6"/>
<path fill-rule="evenodd" clip-rule="evenodd" d="M576.809 179.067H586.381V214.455H576.809V179.067ZM577.752 180.011V213.511H585.437V180.011H577.752Z" fill="#959DA8"/>
<path d="M594.742 179.539H586.113V213.983H594.742V179.539Z" fill="#F4F5F6"/>
<path fill-rule="evenodd" clip-rule="evenodd" d="M585.641 179.067H595.213V214.455H585.641V179.067ZM586.584 180.011V213.511H594.269V180.011H586.584Z" fill="#959DA8"/>
<path d="M603.57 179.539H594.941V213.983H603.57V179.539Z" fill="#F4F5F6"/>
<path fill-rule="evenodd" clip-rule="evenodd" d="M594.473 179.067H604.045V214.455H594.473V179.067ZM595.416 180.011V213.511H603.101V180.011H595.416Z" fill="#959DA8"/>
<path d="M612.406 179.539H603.777V213.983H612.406V179.539Z" fill="#F4F5F6"/>
<path fill-rule="evenodd" clip-rule="evenodd" d="M603.305 179.067H612.877V214.455H603.305V179.067ZM604.248 180.011V213.511H611.933V180.011H604.248Z" fill="#959DA8"/>
<path d="M621.238 179.539H612.609V213.983H621.238V179.539Z" fill="#F4F5F6"/>
<path fill-rule="evenodd" clip-rule="evenodd" d="M612.137 179.067H621.709V214.455H612.137V179.067ZM613.08 180.011V213.511H620.765V180.011H613.08Z" fill="#959DA8"/>
<path d="M630.066 179.539H621.438V213.983H630.066V179.539Z" fill="#F4F5F6"/>
<path fill-rule="evenodd" clip-rule="evenodd" d="M620.965 179.067H630.537V214.455H620.965V179.067ZM621.908 180.011V213.511H629.594V180.011H621.908Z" fill="#959DA8"/>
<path d="M638.902 179.539H630.273V213.983H638.902V179.539Z" fill="#F4F5F6"/>
<path fill-rule="evenodd" clip-rule="evenodd" d="M629.801 179.067H639.373V214.455H629.801V179.067ZM630.744 180.011V213.511H638.43V180.011H630.744Z" fill="#959DA8"/>
<path d="M647.734 179.539H639.105V213.983H647.734V179.539Z" fill="#F4F5F6"/>
<path fill-rule="evenodd" clip-rule="evenodd" d="M638.633 179.067H648.205V214.455H638.633V179.067ZM639.576 180.011V213.511H647.262V180.011H639.576Z" fill="#959DA8"/>
<path d="M656.562 179.539H647.934V213.983H656.562V179.539Z" fill="#F4F5F6"/>
<path fill-rule="evenodd" clip-rule="evenodd" d="M647.465 179.067H657.037V214.455H647.465V179.067ZM648.408 180.011V213.511H656.094V180.011H648.408Z" fill="#959DA8"/>
<path d="M488.76 179.539V213.983H480.316L480.325 179.539H488.76Z" fill="#F4F5F6"/>
<path fill-rule="evenodd" clip-rule="evenodd" d="M479.853 179.067H489.231V214.455H479.844L479.853 179.067ZM480.796 180.011L480.787 213.511H488.287V180.011H480.796Z" fill="#959DA8"/>
<path d="M497.59 179.539H488.961V213.983H497.59V179.539Z" fill="#F4F5F6"/>
<path fill-rule="evenodd" clip-rule="evenodd" d="M488.488 179.067H498.06V214.455H488.488V179.067ZM489.432 180.011V213.511H497.117V180.011H489.432Z" fill="#959DA8"/>
<path d="M506.422 179.539H497.793V213.983H506.422V179.539Z" fill="#F4F5F6"/>
<path fill-rule="evenodd" clip-rule="evenodd" d="M497.324 179.067H506.896V214.455H497.324V179.067ZM498.268 180.011V213.511H505.953V180.011H498.268Z" fill="#959DA8"/>
<path d="M515.254 179.539H506.625V213.983H515.254V179.539Z" fill="#F4F5F6"/>
<path fill-rule="evenodd" clip-rule="evenodd" d="M506.152 179.067H515.725V214.455H506.152V179.067ZM507.096 180.011V213.511H514.781V180.011H507.096Z" fill="#959DA8"/>
<path d="M524.086 179.539H515.457V213.983H524.086V179.539Z" fill="#F4F5F6"/>
<path fill-rule="evenodd" clip-rule="evenodd" d="M514.988 179.067H524.56V214.455H514.988V179.067ZM515.932 180.011V213.511H523.617V180.011H515.932Z" fill="#959DA8"/>
<path d="M532.918 179.539H524.289V213.983H532.918V179.539Z" fill="#F4F5F6"/>
<path fill-rule="evenodd" clip-rule="evenodd" d="M523.816 179.067H533.389V214.455H523.816V179.067ZM524.76 180.011V213.511H532.445V180.011H524.76Z" fill="#959DA8"/>
<path d="M541.75 179.539H533.121V213.983H541.75V179.539Z" fill="#F4F5F6"/>
<path fill-rule="evenodd" clip-rule="evenodd" d="M532.648 179.067H542.221V214.455H532.648V179.067ZM533.592 180.011V213.511H541.277V180.011H533.592Z" fill="#959DA8"/>
<path d="M550.582 179.539H541.953V213.983H550.582V179.539Z" fill="#F4F5F6"/>
<path fill-rule="evenodd" clip-rule="evenodd" d="M541.48 179.067H551.053V214.455H541.48V179.067ZM542.424 180.011V213.511H550.109V180.011H542.424Z" fill="#959DA8"/>
<path d="M559.414 179.539H550.785V213.983H559.414V179.539Z" fill="#F4F5F6"/>
<path fill-rule="evenodd" clip-rule="evenodd" d="M550.312 179.067H559.885V214.455H550.312V179.067ZM551.256 180.011V213.511H558.941V180.011H551.256Z" fill="#959DA8"/>
<path d="M568.246 179.539H559.617V213.983H568.246V179.539Z" fill="#F4F5F6"/>
<path fill-rule="evenodd" clip-rule="evenodd" d="M559.145 179.067H568.717V214.455H559.145V179.067ZM560.088 180.011V213.511H567.773V180.011H560.088Z" fill="#959DA8"/>
<path d="M400.443 179.539V213.983H392L392.009 179.539H400.443Z" fill="#F4F5F6"/>
<path fill-rule="evenodd" clip-rule="evenodd" d="M391.536 179.067H400.914V214.455H391.527L391.536 179.067ZM392.48 180.011L392.471 213.511H399.971V180.011H392.48Z" fill="#959DA8"/>
<path d="M409.273 179.539H400.645V213.983H409.273V179.539Z" fill="#F4F5F6"/>
<path fill-rule="evenodd" clip-rule="evenodd" d="M400.172 179.067H409.744V214.455H400.172V179.067ZM401.115 180.011V213.511H408.801V180.011H401.115Z" fill="#959DA8"/>
<path d="M418.105 179.539H409.477V213.983H418.105V179.539Z" fill="#F4F5F6"/>
<path fill-rule="evenodd" clip-rule="evenodd" d="M409.004 179.067H418.576V214.455H409.004V179.067ZM409.947 180.011V213.511H417.633V180.011H409.947Z" fill="#959DA8"/>
<path d="M426.933 179.539H418.305V213.983H426.933V179.539Z" fill="#F4F5F6"/>
<path fill-rule="evenodd" clip-rule="evenodd" d="M417.836 179.067H427.408V214.455H417.836V179.067ZM418.779 180.011V213.511H426.465V180.011H418.779Z" fill="#959DA8"/>
<path d="M435.769 179.539H427.141V213.983H435.769V179.539Z" fill="#F4F5F6"/>
<path fill-rule="evenodd" clip-rule="evenodd" d="M426.668 179.067H436.24V214.455H426.668V179.067ZM427.611 180.011V213.511H435.297V180.011H427.611Z" fill="#959DA8"/>
<path d="M444.597 179.539H435.969V213.983H444.597V179.539Z" fill="#F4F5F6"/>
<path fill-rule="evenodd" clip-rule="evenodd" d="M435.496 179.067H445.068V214.455H435.496V179.067ZM436.44 180.011V213.511H444.125V180.011H436.44Z" fill="#959DA8"/>
<path d="M453.433 179.539H444.805V213.983H453.433V179.539Z" fill="#F4F5F6"/>
<path fill-rule="evenodd" clip-rule="evenodd" d="M444.332 179.067H453.904V214.455H444.332V179.067ZM445.275 180.011V213.511H452.961V180.011H445.275Z" fill="#959DA8"/>
<path d="M462.265 179.539H453.637V213.983H462.265V179.539Z" fill="#F4F5F6"/>
<path fill-rule="evenodd" clip-rule="evenodd" d="M453.164 179.067H462.736V214.455H453.164V179.067ZM454.108 180.011V213.511H461.793V180.011H454.108Z" fill="#959DA8"/>
<path d="M471.094 179.539H462.465V213.983H471.094V179.539Z" fill="#F4F5F6"/>
<path fill-rule="evenodd" clip-rule="evenodd" d="M461.992 179.067H471.564V214.455H461.992V179.067ZM462.936 180.011V213.511H470.621V180.011H462.936Z" fill="#959DA8"/>
<path d="M479.926 179.539H471.297V213.983H479.926V179.539Z" fill="#F4F5F6"/>
<path fill-rule="evenodd" clip-rule="evenodd" d="M470.828 179.067H480.4V214.455H470.828V179.067ZM471.772 180.011V213.511H479.457V180.011H471.772Z" fill="#959DA8"/>
<path d="M320.956 179.539H314.094V213.983H320.956V179.539Z" fill="#F4F5F6"/>
<path fill-rule="evenodd" clip-rule="evenodd" d="M313.621 179.067H321.427V214.455H313.621V179.067ZM314.565 180.011V213.511H320.483V180.011H314.565Z" fill="#959DA8"/>
<path d="M329.785 179.539H321.156V213.983H329.785V179.539Z" fill="#F4F5F6"/>
<path fill-rule="evenodd" clip-rule="evenodd" d="M320.684 179.067H330.256V214.455H320.684V179.067ZM321.627 180.011V213.511H329.312V180.011H321.627Z" fill="#959DA8"/>
<path d="M338.617 179.539H329.988V213.983H338.617V179.539Z" fill="#F4F5F6"/>
<path fill-rule="evenodd" clip-rule="evenodd" d="M329.516 179.067H339.088V214.455H329.516V179.067ZM330.459 180.011V213.511H338.144V180.011H330.459Z" fill="#959DA8"/>
<path d="M347.453 179.539H338.824V213.983H347.453V179.539Z" fill="#F4F5F6"/>
<path fill-rule="evenodd" clip-rule="evenodd" d="M338.352 179.067H347.924V214.455H338.352V179.067ZM339.295 180.011V213.511H346.98V180.011H339.295Z" fill="#959DA8"/>
<path d="M356.277 179.539H347.648V213.983H356.277V179.539Z" fill="#F4F5F6"/>
<path fill-rule="evenodd" clip-rule="evenodd" d="M347.176 179.067H356.748V214.455H347.176V179.067ZM348.119 180.011V213.511H355.805V180.011H348.119Z" fill="#959DA8"/>
<path d="M365.113 179.539H356.484V213.983H365.113V179.539Z" fill="#F4F5F6"/>
<path fill-rule="evenodd" clip-rule="evenodd" d="M356.016 179.067H365.588V214.455H356.016V179.067ZM356.959 180.011V213.511H364.644V180.011H356.959Z" fill="#959DA8"/>
<path d="M373.945 179.539H365.316V213.983H373.945V179.539Z" fill="#F4F5F6"/>
<path fill-rule="evenodd" clip-rule="evenodd" d="M364.844 179.067H374.416V214.455H364.844V179.067ZM365.787 180.011V213.511H373.472V180.011H365.787Z" fill="#959DA8"/>
<path d="M382.773 179.539H374.145V213.983H382.773V179.539Z" fill="#F4F5F6"/>
<path fill-rule="evenodd" clip-rule="evenodd" d="M373.676 179.067H383.248V214.455H373.676V179.067ZM374.619 180.011V213.511H382.305V180.011H374.619Z" fill="#959DA8"/>
<path d="M391.609 179.539H382.98V213.983H391.609V179.539Z" fill="#F4F5F6"/>
<path fill-rule="evenodd" clip-rule="evenodd" d="M382.508 179.067H392.08V214.455H382.508V179.067ZM383.451 180.011V213.511H391.137V180.011H383.451Z" fill="#959DA8"/>
<path fill-rule="evenodd" clip-rule="evenodd" d="M313.039 178.595H912.843V214.927H313.039V178.595ZM314.926 180.482V213.04H910.956V180.482H314.926Z" fill="#959DA8"/>
<path fill-rule="evenodd" clip-rule="evenodd" d="M534.711 303.127H698.221V339.458H534.711V303.127ZM536.598 305.014V337.571H696.334V305.014H536.598Z" fill="#959DA8"/>
<path fill-rule="evenodd" clip-rule="evenodd" d="M764.336 303.122H930.063V339.463H764.336V303.122ZM766.232 305.018V337.566H928.167V305.018H766.232Z" fill="#959DA8"/>
<path d="M739.654 407.774C740.205 405.192 740.178 402.521 739.576 399.952C738.974 397.382 737.811 394.977 736.172 392.909C734.532 390.841 732.455 389.161 730.091 387.989C727.726 386.817 725.131 386.182 722.492 386.13C719.854 386.078 717.236 386.609 714.827 387.686C712.417 388.764 710.276 390.36 708.555 392.361C706.835 394.363 705.578 396.719 704.874 399.263C704.171 401.807 704.038 404.475 704.486 407.076C702.528 408.028 700.799 409.392 699.417 411.074C698.035 412.756 697.032 414.716 696.477 416.821C695.922 418.926 695.827 421.126 696.2 423.271C696.573 425.416 697.404 427.455 698.638 429.249C699.871 431.043 701.476 432.55 703.345 433.667C705.214 434.783 707.302 435.484 709.466 435.72C711.63 435.955 713.82 435.722 715.885 435.034C717.951 434.346 719.843 433.221 721.434 431.734C722.98 433.18 724.812 434.285 726.811 434.978C728.811 435.672 730.934 435.938 733.043 435.759C735.152 435.581 737.2 434.962 739.054 433.943C740.909 432.923 742.529 431.526 743.81 429.842C745.091 428.157 746.005 426.222 746.491 424.163C746.978 422.103 747.027 419.964 746.635 417.884C746.244 415.804 745.42 413.83 744.217 412.088C743.015 410.347 741.46 408.877 739.654 407.774Z" fill="#80C33F"/>
<path fill-rule="evenodd" clip-rule="evenodd" d="M713.474 417.642C713.618 417.425 713.911 417.366 714.128 417.511L722.386 423.013C722.602 423.157 722.661 423.45 722.517 423.667C722.372 423.884 722.079 423.942 721.863 423.798L713.605 418.296C713.388 418.151 713.329 417.858 713.474 417.642Z" fill="#2A3A51"/>
<path fill-rule="evenodd" clip-rule="evenodd" d="M732.119 421.722C732.288 421.919 732.265 422.217 732.067 422.387L722.423 430.644C722.225 430.814 721.927 430.791 721.758 430.593C721.588 430.395 721.612 430.097 721.809 429.928L731.454 421.67C731.652 421.501 731.95 421.524 732.119 421.722Z" fill="#2A3A51"/>
<path fill-rule="evenodd" clip-rule="evenodd" d="M722.124 406.419C722.385 406.419 722.596 406.63 722.596 406.891V456.446C722.596 456.707 722.385 456.918 722.124 456.918C721.864 456.918 721.652 456.707 721.652 456.446V406.891C721.652 406.63 721.864 406.419 722.124 406.419Z" fill="#2A3A51"/>
<path fill-rule="evenodd" clip-rule="evenodd" d="M468.746 339.458H305.236V303.126H468.746V339.458ZM466.859 337.571V305.013H307.123V337.571H466.859Z" fill="#959DA8"/>
<path d="M841.15 439.198V473.642H832.707L832.716 439.198H841.15Z" fill="#F4F5F6"/>
<path fill-rule="evenodd" clip-rule="evenodd" d="M832.243 438.726H841.621V474.114H832.234L832.243 438.726ZM833.187 439.67L833.178 473.17H840.678V439.67H833.187Z" fill="#959DA8"/>
<path d="M832.318 439.198V473.642H823.875L823.884 439.198H832.318Z" fill="#F4F5F6"/>
<path fill-rule="evenodd" clip-rule="evenodd" d="M823.411 438.726H832.789V474.114H823.402L823.411 438.726ZM824.355 439.67L824.346 473.17H831.846V439.67H824.355Z" fill="#959DA8"/>
<path d="M849.984 439.198H841.355V473.642H849.984V439.198Z" fill="#F4F5F6"/>
<path fill-rule="evenodd" clip-rule="evenodd" d="M840.883 438.726H850.455V474.114H840.883V438.726ZM841.826 439.67V473.17H849.512V439.67H841.826Z" fill="#959DA8"/>
<path d="M858.812 439.198H850.184V473.642H858.812V439.198Z" fill="#F4F5F6"/>
<path fill-rule="evenodd" clip-rule="evenodd" d="M849.711 438.726H859.283V474.114H849.711V438.726ZM850.654 439.67V473.17H858.34V439.67H850.654Z" fill="#959DA8"/>
<path d="M867.644 439.198H859.016V473.642H867.644V439.198Z" fill="#F4F5F6"/>
<path fill-rule="evenodd" clip-rule="evenodd" d="M858.547 438.726H868.119V474.114H858.547V438.726ZM859.49 439.67V473.17H867.176V439.67H859.49Z" fill="#959DA8"/>
<path d="M876.476 439.198H867.848V473.642H876.476V439.198Z" fill="#F4F5F6"/>
<path fill-rule="evenodd" clip-rule="evenodd" d="M867.379 438.726H876.951V474.114H867.379V438.726ZM868.322 439.67V473.17H876.008V439.67H868.322Z" fill="#959DA8"/>
<path d="M885.308 439.198H876.68V473.642H885.308V439.198Z" fill="#F4F5F6"/>
<path fill-rule="evenodd" clip-rule="evenodd" d="M876.211 438.726H885.783V474.114H876.211V438.726ZM877.154 439.67V473.17H884.84V439.67H877.154Z" fill="#959DA8"/>
<path d="M894.14 439.198H885.512V473.642H894.14V439.198Z" fill="#F4F5F6"/>
<path fill-rule="evenodd" clip-rule="evenodd" d="M885.039 438.726H894.611V474.114H885.039V438.726ZM885.983 439.67V473.17H893.668V439.67H885.983Z" fill="#959DA8"/>
<path d="M902.972 439.198H894.344V473.642H902.972V439.198Z" fill="#F4F5F6"/>
<path fill-rule="evenodd" clip-rule="evenodd" d="M893.871 438.726H903.443V474.114H893.871V438.726ZM894.815 439.67V473.17H902.5V439.67H894.815Z" fill="#959DA8"/>
<path d="M911.805 439.198H903.176V473.642H911.805V439.198Z" fill="#F4F5F6"/>
<path fill-rule="evenodd" clip-rule="evenodd" d="M902.703 438.726H912.275V474.114H902.703V438.726ZM903.647 439.67V473.17H911.332V439.67H903.647Z" fill="#959DA8"/>
<path d="M920.637 439.198H912.008V473.642H920.637V439.198Z" fill="#F4F5F6"/>
<path fill-rule="evenodd" clip-rule="evenodd" d="M911.539 438.726H921.111V474.114H911.539V438.726ZM912.483 439.67V473.17H920.168V439.67H912.483Z" fill="#959DA8"/>
<path d="M930.882 439.198H920.84V473.642H930.882V439.198Z" fill="#F4F5F6"/>
<path fill-rule="evenodd" clip-rule="evenodd" d="M920.328 438.688H931.389V474.152H920.328V438.688ZM921.347 439.707V473.133H930.37V439.707H921.347Z" fill="#959DA8"/>
<path d="M752.834 439.198V473.642H744.391L744.399 439.198H752.834Z" fill="#F4F5F6"/>
<path fill-rule="evenodd" clip-rule="evenodd" d="M743.927 438.726H753.305V474.114H743.918L743.927 438.726ZM744.87 439.67L744.862 473.17H752.361V439.67H744.87Z" fill="#959DA8"/>
<path d="M761.664 439.198H753.035V473.642H761.664V439.198Z" fill="#F4F5F6"/>
<path fill-rule="evenodd" clip-rule="evenodd" d="M752.562 438.726H762.135V474.114H752.562V438.726ZM753.506 439.67V473.17H761.191V439.67H753.506Z" fill="#959DA8"/>
<path d="M770.492 439.198H761.863V473.642H770.492V439.198Z" fill="#F4F5F6"/>
<path fill-rule="evenodd" clip-rule="evenodd" d="M761.391 438.726H770.963V474.114H761.391V438.726ZM762.334 439.67V473.17H770.019V439.67H762.334Z" fill="#959DA8"/>
<path d="M779.328 439.198H770.699V473.642H779.328V439.198Z" fill="#F4F5F6"/>
<path fill-rule="evenodd" clip-rule="evenodd" d="M770.227 438.726H779.799V474.114H770.227V438.726ZM771.17 439.67V473.17H778.855V439.67H771.17Z" fill="#959DA8"/>
<path d="M788.156 439.198H779.527V473.642H788.156V439.198Z" fill="#F4F5F6"/>
<path fill-rule="evenodd" clip-rule="evenodd" d="M779.059 438.726H788.631V474.114H779.059V438.726ZM780.002 439.67V473.17H787.687V439.67H780.002Z" fill="#959DA8"/>
<path d="M796.992 439.198H788.363V473.642H796.992V439.198Z" fill="#F4F5F6"/>
<path fill-rule="evenodd" clip-rule="evenodd" d="M787.891 438.726H797.463V474.114H787.891V438.726ZM788.834 439.67V473.17H796.519V439.67H788.834Z" fill="#959DA8"/>
<path d="M805.824 439.198H797.195V473.642H805.824V439.198Z" fill="#F4F5F6"/>
<path fill-rule="evenodd" clip-rule="evenodd" d="M796.723 438.726H806.295V474.114H796.723V438.726ZM797.666 439.67V473.17H805.351V439.67H797.666Z" fill="#959DA8"/>
<path d="M814.652 439.198H806.023V473.642H814.652V439.198Z" fill="#F4F5F6"/>
<path fill-rule="evenodd" clip-rule="evenodd" d="M805.551 438.726H815.123V474.114H805.551V438.726ZM806.494 439.67V473.17H814.18V439.67H806.494Z" fill="#959DA8"/>
<path d="M823.488 439.198H814.859V473.642H823.488V439.198Z" fill="#F4F5F6"/>
<path fill-rule="evenodd" clip-rule="evenodd" d="M814.387 438.726H823.959V474.114H814.387V438.726ZM815.33 439.67V473.17H823.015V439.67H815.33Z" fill="#959DA8"/>
<path d="M665.396 439.198V473.642H656.953L656.962 439.198H665.396Z" fill="#F4F5F6"/>
<path fill-rule="evenodd" clip-rule="evenodd" d="M656.49 438.726H665.867V474.114H656.48L656.49 438.726ZM657.433 439.67L657.424 473.17H664.924V439.67H657.433Z" fill="#959DA8"/>
<path d="M674.226 439.198H665.598V473.642H674.226V439.198Z" fill="#F4F5F6"/>
<path fill-rule="evenodd" clip-rule="evenodd" d="M665.125 438.726H674.697V474.114H665.125V438.726ZM666.068 439.67V473.17H673.754V439.67H666.068Z" fill="#959DA8"/>
<path d="M683.062 439.198H674.434V473.642H683.062V439.198Z" fill="#F4F5F6"/>
<path fill-rule="evenodd" clip-rule="evenodd" d="M673.961 438.726H683.533V474.114H673.961V438.726ZM674.904 439.67V473.17H682.59V439.67H674.904Z" fill="#959DA8"/>
<path d="M691.89 439.198H683.262V473.642H691.89V439.198Z" fill="#F4F5F6"/>
<path fill-rule="evenodd" clip-rule="evenodd" d="M682.789 438.726H692.361V474.114H682.789V438.726ZM683.733 439.67V473.17H691.418V439.67H683.733Z" fill="#959DA8"/>
<path d="M700.722 439.198H692.094V473.642H700.722V439.198Z" fill="#F4F5F6"/>
<path fill-rule="evenodd" clip-rule="evenodd" d="M691.625 438.726H701.197V474.114H691.625V438.726ZM692.568 439.67V473.17H700.254V439.67H692.568Z" fill="#959DA8"/>
<path d="M709.555 439.198H700.926V473.642H709.555V439.198Z" fill="#F4F5F6"/>
<path fill-rule="evenodd" clip-rule="evenodd" d="M700.457 438.726H710.029V474.114H700.457V438.726ZM701.4 439.67V473.17H709.086V439.67H701.4Z" fill="#959DA8"/>
<path d="M718.387 439.198H709.758V473.642H718.387V439.198Z" fill="#F4F5F6"/>
<path fill-rule="evenodd" clip-rule="evenodd" d="M709.285 438.726H718.857V474.114H709.285V438.726ZM710.229 439.67V473.17H717.914V439.67H710.229Z" fill="#959DA8"/>
<path d="M727.219 439.198H718.59V473.642H727.219V439.198Z" fill="#F4F5F6"/>
<path fill-rule="evenodd" clip-rule="evenodd" d="M718.117 438.726H727.689V474.114H718.117V438.726ZM719.061 439.67V473.17H726.746V439.67H719.061Z" fill="#959DA8"/>
<path d="M736.051 439.198H727.422V473.642H736.051V439.198Z" fill="#F4F5F6"/>
<path fill-rule="evenodd" clip-rule="evenodd" d="M726.949 438.726H736.521V474.114H726.949V438.726ZM727.893 439.67V473.17H735.578V439.67H727.893Z" fill="#959DA8"/>
<path d="M744.883 439.198H736.254V473.642H744.883V439.198Z" fill="#F4F5F6"/>
<path fill-rule="evenodd" clip-rule="evenodd" d="M735.781 438.726H745.353V474.114H735.781V438.726ZM736.725 439.67V473.17H744.41V439.67H736.725Z" fill="#959DA8"/>
<path d="M577.076 439.198V473.642H568.633L568.642 439.198H577.076Z" fill="#F4F5F6"/>
<path fill-rule="evenodd" clip-rule="evenodd" d="M568.169 438.726H577.547V474.114H568.16L568.169 438.726ZM569.112 439.67L569.104 473.17H576.604V439.67H569.112Z" fill="#959DA8"/>
<path d="M585.91 439.198H577.281V473.642H585.91V439.198Z" fill="#F4F5F6"/>
<path fill-rule="evenodd" clip-rule="evenodd" d="M576.809 438.726H586.381V474.114H576.809V438.726ZM577.752 439.67V473.17H585.437V439.67H577.752Z" fill="#959DA8"/>
<path d="M594.742 439.198H586.113V473.642H594.742V439.198Z" fill="#F4F5F6"/>
<path fill-rule="evenodd" clip-rule="evenodd" d="M585.641 438.726H595.213V474.114H585.641V438.726ZM586.584 439.67V473.17H594.269V439.67H586.584Z" fill="#959DA8"/>
<path d="M603.57 439.198H594.941V473.642H603.57V439.198Z" fill="#F4F5F6"/>
<path fill-rule="evenodd" clip-rule="evenodd" d="M594.473 438.726H604.045V474.114H594.473V438.726ZM595.416 439.67V473.17H603.101V439.67H595.416Z" fill="#959DA8"/>
<path d="M612.406 439.198H603.777V473.642H612.406V439.198Z" fill="#F4F5F6"/>
<path fill-rule="evenodd" clip-rule="evenodd" d="M603.305 438.726H612.877V474.114H603.305V438.726ZM604.248 439.67V473.17H611.933V439.67H604.248Z" fill="#959DA8"/>
<path d="M621.238 439.198H612.609V473.642H621.238V439.198Z" fill="#F4F5F6"/>
<path fill-rule="evenodd" clip-rule="evenodd" d="M612.137 438.726H621.709V474.114H612.137V438.726ZM613.08 439.67V473.17H620.765V439.67H613.08Z" fill="#959DA8"/>
<path d="M630.066 439.198H621.438V473.642H630.066V439.198Z" fill="#F4F5F6"/>
<path fill-rule="evenodd" clip-rule="evenodd" d="M620.965 438.726H630.537V474.114H620.965V438.726ZM621.908 439.67V473.17H629.594V439.67H621.908Z" fill="#959DA8"/>
<path d="M638.902 439.198H630.273V473.642H638.902V439.198Z" fill="#F4F5F6"/>
<path fill-rule="evenodd" clip-rule="evenodd" d="M629.801 438.726H639.373V474.114H629.801V438.726ZM630.744 439.67V473.17H638.43V439.67H630.744Z" fill="#959DA8"/>
<path d="M647.734 439.198H639.105V473.642H647.734V439.198Z" fill="#F4F5F6"/>
<path fill-rule="evenodd" clip-rule="evenodd" d="M638.633 438.726H648.205V474.114H638.633V438.726ZM639.576 439.67V473.17H647.262V439.67H639.576Z" fill="#959DA8"/>
<path d="M656.562 439.198H647.934V473.642H656.562V439.198Z" fill="#F4F5F6"/>
<path fill-rule="evenodd" clip-rule="evenodd" d="M647.465 438.726H657.037V474.114H647.465V438.726ZM648.408 439.67V473.17H656.094V439.67H648.408Z" fill="#959DA8"/>
<path d="M488.76 439.198V473.642H480.316L480.325 439.198H488.76Z" fill="#F4F5F6"/>
<path fill-rule="evenodd" clip-rule="evenodd" d="M479.853 438.726H489.231V474.114H479.844L479.853 438.726ZM480.796 439.67L480.787 473.17H488.287V439.67H480.796Z" fill="#959DA8"/>
<path d="M497.59 439.198H488.961V473.642H497.59V439.198Z" fill="#F4F5F6"/>
<path fill-rule="evenodd" clip-rule="evenodd" d="M488.488 438.726H498.06V474.114H488.488V438.726ZM489.432 439.67V473.17H497.117V439.67H489.432Z" fill="#959DA8"/>
<path d="M506.422 439.198H497.793V473.642H506.422V439.198Z" fill="#F4F5F6"/>
<path fill-rule="evenodd" clip-rule="evenodd" d="M497.324 438.726H506.896V474.114H497.324V438.726ZM498.268 439.67V473.17H505.953V439.67H498.268Z" fill="#959DA8"/>
<path d="M515.254 439.198H506.625V473.642H515.254V439.198Z" fill="#F4F5F6"/>
<path fill-rule="evenodd" clip-rule="evenodd" d="M506.152 438.726H515.725V474.114H506.152V438.726ZM507.096 439.67V473.17H514.781V439.67H507.096Z" fill="#959DA8"/>
<path d="M524.086 439.198H515.457V473.642H524.086V439.198Z" fill="#F4F5F6"/>
<path fill-rule="evenodd" clip-rule="evenodd" d="M514.988 438.726H524.56V474.114H514.988V438.726ZM515.932 439.67V473.17H523.617V439.67H515.932Z" fill="#959DA8"/>
<path d="M532.918 439.198H524.289V473.642H532.918V439.198Z" fill="#F4F5F6"/>
<path fill-rule="evenodd" clip-rule="evenodd" d="M523.816 438.726H533.389V474.114H523.816V438.726ZM524.76 439.67V473.17H532.445V439.67H524.76Z" fill="#959DA8"/>
<path d="M541.75 439.198H533.121V473.642H541.75V439.198Z" fill="#F4F5F6"/>
<path fill-rule="evenodd" clip-rule="evenodd" d="M532.648 438.726H542.221V474.114H532.648V438.726ZM533.592 439.67V473.17H541.277V439.67H533.592Z" fill="#959DA8"/>
<path d="M550.582 439.198H541.953V473.642H550.582V439.198Z" fill="#F4F5F6"/>
<path fill-rule="evenodd" clip-rule="evenodd" d="M541.48 438.726H551.053V474.114H541.48V438.726ZM542.424 439.67V473.17H550.109V439.67H542.424Z" fill="#959DA8"/>
<path d="M559.414 439.198H550.785V473.642H559.414V439.198Z" fill="#F4F5F6"/>
<path fill-rule="evenodd" clip-rule="evenodd" d="M550.312 438.726H559.885V474.114H550.312V438.726ZM551.256 439.67V473.17H558.941V439.67H551.256Z" fill="#959DA8"/>
<path d="M568.246 439.198H559.617V473.642H568.246V439.198Z" fill="#F4F5F6"/>
<path fill-rule="evenodd" clip-rule="evenodd" d="M559.145 438.726H568.717V474.114H559.145V438.726ZM560.088 439.67V473.17H567.773V439.67H560.088Z" fill="#959DA8"/>
<path d="M400.443 439.198V473.642H392L392.009 439.198H400.443Z" fill="#F4F5F6"/>
<path fill-rule="evenodd" clip-rule="evenodd" d="M391.536 438.726H400.914V474.114H391.527L391.536 438.726ZM392.48 439.67L392.471 473.17H399.971V439.67H392.48Z" fill="#959DA8"/>
<path d="M409.273 439.198H400.645V473.642H409.273V439.198Z" fill="#F4F5F6"/>
<path fill-rule="evenodd" clip-rule="evenodd" d="M400.172 438.726H409.744V474.114H400.172V438.726ZM401.115 439.67V473.17H408.801V439.67H401.115Z" fill="#959DA8"/>
<path d="M418.105 439.198H409.477V473.642H418.105V439.198Z" fill="#F4F5F6"/>
<path fill-rule="evenodd" clip-rule="evenodd" d="M409.004 438.726H418.576V474.114H409.004V438.726ZM409.947 439.67V473.17H417.633V439.67H409.947Z" fill="#959DA8"/>
<path d="M426.933 439.198H418.305V473.642H426.933V439.198Z" fill="#F4F5F6"/>
<path fill-rule="evenodd" clip-rule="evenodd" d="M417.836 438.726H427.408V474.114H417.836V438.726ZM418.779 439.67V473.17H426.465V439.67H418.779Z" fill="#959DA8"/>
<path d="M435.769 439.198H427.141V473.642H435.769V439.198Z" fill="#F4F5F6"/>
<path fill-rule="evenodd" clip-rule="evenodd" d="M426.668 438.726H436.24V474.114H426.668V438.726ZM427.611 439.67V473.17H435.297V439.67H427.611Z" fill="#959DA8"/>
<path d="M444.597 439.198H435.969V473.642H444.597V439.198Z" fill="#F4F5F6"/>
<path fill-rule="evenodd" clip-rule="evenodd" d="M435.496 438.726H445.068V474.114H435.496V438.726ZM436.44 439.67V473.17H444.125V439.67H436.44Z" fill="#959DA8"/>
<path d="M453.433 439.198H444.805V473.642H453.433V439.198Z" fill="#F4F5F6"/>
<path fill-rule="evenodd" clip-rule="evenodd" d="M444.332 438.726H453.904V474.114H444.332V438.726ZM445.275 439.67V473.17H452.961V439.67H445.275Z" fill="#959DA8"/>
<path d="M462.265 439.198H453.637V473.642H462.265V439.198Z" fill="#F4F5F6"/>
<path fill-rule="evenodd" clip-rule="evenodd" d="M453.164 438.726H462.736V474.114H453.164V438.726ZM454.108 439.67V473.17H461.793V439.67H454.108Z" fill="#959DA8"/>
<path d="M471.094 439.198H462.465V473.642H471.094V439.198Z" fill="#F4F5F6"/>
<path fill-rule="evenodd" clip-rule="evenodd" d="M461.992 438.726H471.564V474.114H461.992V438.726ZM462.936 439.67V473.17H470.621V439.67H462.936Z" fill="#959DA8"/>
<path d="M479.926 439.198H471.297V473.642H479.926V439.198Z" fill="#F4F5F6"/>
<path fill-rule="evenodd" clip-rule="evenodd" d="M470.828 438.726H480.4V474.114H470.828V438.726ZM471.772 439.67V473.17H479.457V439.67H471.772Z" fill="#959DA8"/>
<path d="M320.953 439.198H312.324V473.642H320.953V439.198Z" fill="#F4F5F6"/>
<path fill-rule="evenodd" clip-rule="evenodd" d="M311.855 438.726H321.428V474.114H311.855V438.726ZM312.799 439.67V473.17H320.484V439.67H312.799Z" fill="#959DA8"/>
<path d="M312.117 439.198H303.488V473.642H312.117V439.198Z" fill="#F4F5F6"/>
<path fill-rule="evenodd" clip-rule="evenodd" d="M303.016 438.726H312.588V474.114H303.016V438.726ZM303.959 439.67V473.17H311.644V439.67H303.959Z" fill="#959DA8"/>
<path d="M329.785 439.198H321.156V473.642H329.785V439.198Z" fill="#F4F5F6"/>
<path fill-rule="evenodd" clip-rule="evenodd" d="M320.684 438.726H330.256V474.114H320.684V438.726ZM321.627 439.67V473.17H329.312V439.67H321.627Z" fill="#959DA8"/>
<path d="M338.617 439.198H329.988V473.642H338.617V439.198Z" fill="#F4F5F6"/>
<path fill-rule="evenodd" clip-rule="evenodd" d="M329.516 438.726H339.088V474.114H329.516V438.726ZM330.459 439.67V473.17H338.144V439.67H330.459Z" fill="#959DA8"/>
<path d="M347.453 439.198H338.824V473.642H347.453V439.198Z" fill="#F4F5F6"/>
<path fill-rule="evenodd" clip-rule="evenodd" d="M338.352 438.726H347.924V474.114H338.352V438.726ZM339.295 439.67V473.17H346.98V439.67H339.295Z" fill="#959DA8"/>
<path d="M356.277 439.198H347.648V473.642H356.277V439.198Z" fill="#F4F5F6"/>
<path fill-rule="evenodd" clip-rule="evenodd" d="M347.176 438.726H356.748V474.114H347.176V438.726ZM348.119 439.67V473.17H355.805V439.67H348.119Z" fill="#959DA8"/>
<path d="M365.113 439.198H356.484V473.642H365.113V439.198Z" fill="#F4F5F6"/>
<path fill-rule="evenodd" clip-rule="evenodd" d="M356.016 438.726H365.588V474.114H356.016V438.726ZM356.959 439.67V473.17H364.644V439.67H356.959Z" fill="#959DA8"/>
<path d="M373.945 439.198H365.316V473.642H373.945V439.198Z" fill="#F4F5F6"/>
<path fill-rule="evenodd" clip-rule="evenodd" d="M364.844 438.726H374.416V474.114H364.844V438.726ZM365.787 439.67V473.17H373.472V439.67H365.787Z" fill="#959DA8"/>
<path d="M382.773 439.198H374.145V473.642H382.773V439.198Z" fill="#F4F5F6"/>
<path fill-rule="evenodd" clip-rule="evenodd" d="M373.676 438.726H383.248V474.114H373.676V438.726ZM374.619 439.67V473.17H382.305V439.67H374.619Z" fill="#959DA8"/>
<path d="M391.609 439.198H382.98V473.642H391.609V439.198Z" fill="#F4F5F6"/>
<path fill-rule="evenodd" clip-rule="evenodd" d="M382.508 438.726H392.08V474.114H382.508V438.726ZM383.451 439.67V473.17H391.137V439.67H383.451Z" fill="#959DA8"/>
<path fill-rule="evenodd" clip-rule="evenodd" d="M301.988 438.254H931.821V474.586H301.988V438.254ZM303.875 440.141V472.699H929.934V440.141H303.875Z" fill="#959DA8"/>
<path d="M838.149 471.718C838.14 469.752 838.606 467.813 839.506 466.065C840.405 464.317 841.713 462.812 843.317 461.676C844.921 460.54 846.776 459.808 848.723 459.54C850.671 459.273 852.654 459.478 854.505 460.139C855.221 457.258 856.67 454.611 858.712 452.456C860.753 450.301 863.318 448.712 866.156 447.842C868.995 446.973 872.01 446.853 874.908 447.494C877.807 448.135 880.49 449.516 882.696 451.501C884.255 447.143 887.302 443.474 891.3 441.141C895.298 438.808 899.991 437.961 904.552 438.748C909.113 439.535 913.251 441.907 916.235 445.445C919.22 448.983 920.86 453.461 920.868 458.09C920.87 458.774 920.835 459.458 920.762 460.139C922.092 459.653 923.497 459.405 924.913 459.406C931.713 459.406 937.631 464.926 937.198 471.691C937.136 472.806 936.949 473.911 936.642 474.985H838.608C838.312 473.912 838.163 472.804 838.166 471.691L838.149 471.718Z" fill="#80C33F"/>
<path d="M295.174 419.254C295.832 416.316 295.829 413.269 295.165 410.332C294.501 407.396 293.193 404.643 291.334 402.275C289.476 399.906 287.115 397.98 284.421 396.636C281.727 395.292 278.768 394.563 275.758 394.503C272.748 394.443 269.762 395.053 267.016 396.288C264.271 397.524 261.834 399.354 259.883 401.647C257.932 403.939 256.514 406.637 255.734 409.545C254.953 412.452 254.828 415.497 255.369 418.459C253.151 419.536 251.193 421.079 249.626 422.983C248.06 424.887 246.924 427.106 246.294 429.49C245.665 431.873 245.557 434.364 245.979 436.793C246.401 439.222 247.342 441.531 248.739 443.563C250.135 445.594 251.954 447.3 254.07 448.565C256.187 449.829 258.551 450.621 261.002 450.887C263.452 451.154 265.932 450.888 268.27 450.108C270.609 449.327 272.751 448.052 274.551 446.368C276.3 448.01 278.374 449.266 280.639 450.056C282.904 450.846 285.309 451.151 287.7 450.952C290.09 450.752 292.412 450.053 294.515 448.899C296.618 447.745 298.455 446.162 299.907 444.253C301.359 442.344 302.394 440.151 302.944 437.816C303.495 435.481 303.549 433.057 303.102 430.7C302.656 428.343 301.72 426.107 300.354 424.135C298.988 422.163 297.223 420.5 295.174 419.254Z" fill="#80C33F"/>
<path fill-rule="evenodd" clip-rule="evenodd" d="M265.57 430.476C265.714 430.259 266.007 430.199 266.224 430.343L275.577 436.525C275.794 436.669 275.854 436.962 275.71 437.179C275.567 437.396 275.274 437.456 275.057 437.312L265.704 431.13C265.487 430.986 265.427 430.694 265.57 430.476Z" fill="#2A3A51"/>
<path fill-rule="evenodd" clip-rule="evenodd" d="M286.585 435.066C286.754 435.264 286.731 435.561 286.534 435.731L275.626 445.075C275.428 445.244 275.131 445.221 274.961 445.024C274.792 444.826 274.815 444.528 275.012 444.358L285.92 435.014C286.118 434.845 286.415 434.868 286.585 435.066Z" fill="#2A3A51"/>
<path fill-rule="evenodd" clip-rule="evenodd" d="M275.319 417.767C275.58 417.767 275.791 417.978 275.791 418.238V474.321C275.791 474.581 275.58 474.792 275.319 474.792C275.059 474.792 274.848 474.581 274.848 474.321V418.238C274.848 417.978 275.059 417.767 275.319 417.767Z" fill="#2A3A51"/>
<path d="M995.885 306.813L941.008 292.109L933.301 320.871L988.178 335.575L995.885 306.813Z" fill="white"/>
<path d="M995.866 306.693L941.035 292.001L940.426 294.276L995.257 308.968L995.866 306.693Z" fill="#B22234"/>
<path d="M994.675 311.143L939.844 296.451L939.234 298.727L994.065 313.419L994.675 311.143Z" fill="#B22234"/>
<path d="M993.484 315.594L938.652 300.902L938.043 303.177L992.874 317.869L993.484 315.594Z" fill="#B22234"/>
<path d="M992.292 320.044L937.461 305.352L936.851 307.627L991.683 322.319L992.292 320.044Z" fill="#B22234"/>
<path d="M991.097 324.494L936.266 309.802L935.656 312.077L990.487 326.769L991.097 324.494Z" fill="#B22234"/>
<path d="M989.906 328.945L935.074 314.253L934.465 316.528L989.296 331.22L989.906 328.945Z" fill="#B22234"/>
<path d="M988.714 333.395L933.883 318.703L933.273 320.978L988.105 335.67L988.714 333.395Z" fill="#B22234"/>
<path d="M962.934 297.868L941.035 292L936.848 307.627L958.747 313.495L962.934 297.868Z" fill="#2A3A51"/>
<path d="M942.735 293.097L942.769 293.79L943.432 293.968L942.79 294.218L942.824 294.911L942.393 294.373L941.751 294.624L942.127 294.041L941.696 293.503L942.359 293.68L942.735 293.097Z" fill="white"/>
<path d="M944.114 295.185L944.148 295.877L944.811 296.055L944.169 296.306L944.203 296.999L943.772 296.461L943.13 296.711L943.506 296.128L943.075 295.59L943.738 295.768L944.114 295.185Z" fill="white"/>
<path d="M943.274 298.318L943.308 299.01L943.972 299.188L943.33 299.439L943.364 300.131L942.933 299.593L942.291 299.844L942.666 299.261L942.235 298.723L942.899 298.9L943.274 298.318Z" fill="white"/>
<path d="M942.435 301.451L942.469 302.143L943.132 302.321L942.49 302.572L942.524 303.264L942.093 302.726L941.451 302.977L941.826 302.394L941.396 301.856L942.059 302.033L942.435 301.451Z" fill="white"/>
<path d="M941.595 304.584L941.629 305.276L942.292 305.454L941.65 305.705L941.684 306.397L941.253 305.859L940.611 306.11L940.987 305.527L940.556 304.989L941.219 305.166L941.595 304.584Z" fill="white"/>
<path d="M947.77 296.165L947.804 296.858L948.468 297.035L947.826 297.286L947.86 297.979L947.429 297.441L946.787 297.691L947.162 297.108L946.731 296.57L947.395 296.748L947.77 296.165Z" fill="white"/>
<path d="M946.931 299.298L946.965 299.99L947.628 300.168L946.986 300.419L947.02 301.111L946.589 300.573L945.947 300.824L946.323 300.241L945.892 299.703L946.555 299.881L946.931 299.298Z" fill="white"/>
<path d="M946.091 302.431L946.125 303.123L946.788 303.301L946.146 303.552L946.18 304.244L945.749 303.706L945.107 303.957L945.483 303.374L945.052 302.836L945.715 303.013L946.091 302.431Z" fill="white"/>
<path d="M945.251 305.564L945.285 306.256L945.948 306.434L945.306 306.685L945.34 307.377L944.909 306.839L944.267 307.09L944.643 306.507L944.212 305.969L944.875 306.146L945.251 305.564Z" fill="white"/>
<path d="M951.431 297.145L951.465 297.838L952.128 298.016L951.486 298.267L951.52 298.959L951.089 298.421L950.447 298.672L950.823 298.089L950.392 297.551L951.055 297.728L951.431 297.145Z" fill="white"/>
<path d="M950.591 300.278L950.625 300.971L951.288 301.149L950.646 301.399L950.68 302.092L950.249 301.554L949.607 301.804L949.983 301.222L949.552 300.683L950.215 300.861L950.591 300.278Z" fill="white"/>
<path d="M949.751 303.411L949.785 304.104L950.448 304.282L949.806 304.532L949.84 305.225L949.409 304.687L948.767 304.937L949.143 304.355L948.712 303.816L949.375 303.994L949.751 303.411Z" fill="white"/>
<path d="M948.911 306.544L948.945 307.237L949.608 307.415L948.966 307.665L949 308.358L948.569 307.82L947.927 308.07L948.303 307.488L947.872 306.949L948.535 307.127L948.911 306.544Z" fill="white"/>
<path d="M955.087 298.125L955.121 298.818L955.784 298.996L955.142 299.247L955.176 299.939L954.745 299.402L954.103 299.652L954.479 299.069L954.048 298.531L954.711 298.709L955.087 298.125Z" fill="white"/>
<path d="M954.247 301.258L954.281 301.951L954.945 302.129L954.302 302.379L954.336 303.072L953.905 302.534L953.263 302.785L953.639 302.202L953.208 301.664L953.871 301.841L954.247 301.258Z" fill="white"/>
<path d="M953.411 304.391L953.445 305.084L954.109 305.262L953.466 305.512L953.5 306.205L953.069 305.667L952.427 305.918L952.803 305.335L952.372 304.797L953.035 304.974L953.411 304.391Z" fill="white"/>
<path d="M952.571 307.524L952.606 308.217L953.269 308.395L952.626 308.646L952.66 309.338L952.229 308.8L951.587 309.051L951.963 308.468L951.532 307.93L952.195 308.107L952.571 307.524Z" fill="white"/>
<path d="M958.747 299.106L958.781 299.799L959.444 299.977L958.802 300.227L958.836 300.92L958.405 300.382L957.763 300.632L958.139 300.05L957.708 299.511L958.371 299.689L958.747 299.106Z" fill="white"/>
<path d="M957.907 302.239L957.941 302.932L958.604 303.109L957.962 303.36L957.996 304.053L957.565 303.515L956.923 303.765L957.299 303.182L956.868 302.644L957.531 302.822L957.907 302.239Z" fill="white"/>
<path d="M957.067 305.372L957.101 306.065L957.764 306.242L957.122 306.493L957.156 307.186L956.725 306.648L956.083 306.898L956.459 306.315L956.028 305.777L956.692 305.955L957.067 305.372Z" fill="white"/>
<path d="M956.231 308.505L956.265 309.198L956.928 309.375L956.286 309.626L956.32 310.319L955.889 309.781L955.247 310.031L955.623 309.448L955.192 308.91L955.856 309.088L956.231 308.505Z" fill="white"/>
<path d="M941.899 296.23L941.933 296.923L942.597 297.101L941.954 297.351L941.989 298.044L941.558 297.506L940.916 297.757L941.291 297.173L940.86 296.635L941.524 296.813L941.899 296.23Z" fill="white"/>
<path d="M941.06 299.363L941.094 300.056L941.757 300.234L941.114 300.484L941.149 301.177L940.718 300.639L940.076 300.89L940.451 300.307L940.021 299.768L940.684 299.946L941.06 299.363Z" fill="white"/>
<path d="M940.22 302.496L940.254 303.189L940.917 303.367L940.275 303.617L940.309 304.31L939.878 303.772L939.236 304.023L939.612 303.44L939.181 302.902L939.844 303.079L940.22 302.496Z" fill="white"/>
<path d="M939.38 305.629L939.414 306.322L940.077 306.5L939.435 306.75L939.469 307.443L939.038 306.905L938.396 307.156L938.772 306.573L938.341 306.035L939.004 306.212L939.38 305.629Z" fill="white"/>
<path d="M946.349 294.065L946.383 294.758L947.046 294.935L946.404 295.186L946.438 295.879L946.007 295.34L945.365 295.591L945.741 295.008L945.31 294.47L945.973 294.648L946.349 294.065Z" fill="white"/>
<path d="M945.509 297.198L945.543 297.89L946.206 298.068L945.564 298.318L945.598 299.011L945.167 298.473L944.525 298.724L944.901 298.141L944.47 297.603L945.133 297.781L945.509 297.198Z" fill="white"/>
<path d="M944.669 300.331L944.703 301.023L945.366 301.201L944.724 301.452L944.758 302.144L944.327 301.606L943.685 301.857L944.061 301.274L943.63 300.736L944.293 300.914L944.669 300.331Z" fill="white"/>
<path d="M943.829 303.464L943.863 304.156L944.526 304.334L943.884 304.585L943.918 305.277L943.487 304.74L942.845 304.99L943.221 304.407L942.79 303.869L943.453 304.047L943.829 303.464Z" fill="white"/>
<path d="M942.989 306.597L943.023 307.289L943.686 307.467L943.044 307.718L943.078 308.41L942.647 307.873L942.005 308.123L942.381 307.54L941.95 307.002L942.613 307.18L942.989 306.597Z" fill="white"/>
<path d="M950.056 295.058L950.09 295.751L950.753 295.929L950.111 296.179L950.145 296.872L949.714 296.334L949.072 296.585L949.448 296.002L949.017 295.464L949.68 295.641L950.056 295.058Z" fill="white"/>
<path d="M949.216 298.191L949.25 298.884L949.913 299.062L949.271 299.312L949.305 300.005L948.874 299.467L948.232 299.717L948.608 299.134L948.177 298.596L948.84 298.774L949.216 298.191Z" fill="white"/>
<path d="M948.376 301.324L948.41 302.017L949.073 302.195L948.431 302.445L948.465 303.138L948.034 302.6L947.392 302.85L947.768 302.267L947.337 301.729L948 301.907L948.376 301.324Z" fill="white"/>
<path d="M947.536 304.457L947.57 305.15L948.233 305.328L947.591 305.578L947.625 306.271L947.194 305.733L946.552 305.983L946.928 305.401L946.497 304.862L947.16 305.04L947.536 304.457Z" fill="white"/>
<path d="M946.696 307.59L946.73 308.283L947.393 308.461L946.751 308.711L946.785 309.404L946.354 308.866L945.712 309.116L946.088 308.534L945.657 307.995L946.32 308.173L946.696 307.59Z" fill="white"/>
<path d="M953.688 296.032L953.722 296.725L954.386 296.903L953.743 297.153L953.777 297.846L953.347 297.308L952.704 297.558L953.08 296.975L952.649 296.437L953.313 296.615L953.688 296.032Z" fill="white"/>
<path d="M952.849 299.165L952.883 299.858L953.546 300.035L952.904 300.286L952.938 300.979L952.507 300.44L951.864 300.691L952.24 300.108L951.81 299.57L952.473 299.748L952.849 299.165Z" fill="white"/>
<path d="M952.009 302.298L952.043 302.991L952.706 303.168L952.064 303.419L952.098 304.112L951.667 303.574L951.025 303.824L951.4 303.241L950.97 302.703L951.633 302.881L952.009 302.298Z" fill="white"/>
<path d="M951.169 305.431L951.203 306.124L951.866 306.301L951.224 306.552L951.258 307.245L950.827 306.707L950.185 306.957L950.561 306.374L950.13 305.836L950.793 306.014L951.169 305.431Z" fill="white"/>
<path d="M950.333 308.564L950.367 309.257L951.03 309.434L950.388 309.685L950.422 310.378L949.991 309.84L949.349 310.09L949.725 309.507L949.294 308.969L949.957 309.147L950.333 308.564Z" fill="white"/>
<path d="M957.325 297.006L957.359 297.699L958.022 297.876L957.38 298.127L957.414 298.82L956.983 298.282L956.341 298.532L956.717 297.949L956.286 297.411L956.949 297.589L957.325 297.006Z" fill="white"/>
<path d="M956.485 300.139L956.519 300.831L957.183 301.009L956.54 301.259L956.574 301.952L956.144 301.414L955.501 301.665L955.877 301.082L955.446 300.544L956.109 300.722L956.485 300.139Z" fill="white"/>
<path d="M955.645 303.272L955.679 303.964L956.343 304.142L955.7 304.393L955.734 305.085L955.304 304.547L954.661 304.798L955.037 304.215L954.606 303.677L955.269 303.855L955.645 303.272Z" fill="white"/>
<path d="M954.806 306.405L954.84 307.097L955.503 307.275L954.861 307.526L954.895 308.218L954.464 307.681L953.822 307.931L954.197 307.348L953.767 306.81L954.43 306.988L954.806 306.405Z" fill="white"/>
<path d="M953.966 309.538L954 310.23L954.663 310.408L954.021 310.659L954.055 311.351L953.624 310.814L952.982 311.064L953.357 310.481L952.927 309.943L953.59 310.121L953.966 309.538Z" fill="white"/>
<path d="M961.032 297.999L961.066 298.692L961.73 298.87L961.087 299.12L961.121 299.813L960.69 299.275L960.048 299.526L960.424 298.943L959.993 298.405L960.656 298.582L961.032 297.999Z" fill="white"/>
<path d="M960.192 301.132L960.227 301.825L960.89 302.003L960.248 302.253L960.282 302.946L959.851 302.408L959.209 302.658L959.584 302.075L959.153 301.537L959.817 301.715L960.192 301.132Z" fill="white"/>
<path d="M959.353 304.265L959.387 304.958L960.05 305.136L959.408 305.386L959.442 306.079L959.011 305.541L958.369 305.791L958.744 305.209L958.313 304.67L958.977 304.848L959.353 304.265Z" fill="white"/>
<path d="M958.513 307.398L958.547 308.091L959.21 308.269L958.568 308.519L958.602 309.212L958.171 308.674L957.529 308.924L957.905 308.342L957.474 307.803L958.137 307.981L958.513 307.398Z" fill="white"/>
<path d="M957.673 310.531L957.707 311.224L958.37 311.402L957.728 311.652L957.762 312.345L957.331 311.807L956.689 312.058L957.065 311.475L956.634 310.936L957.297 311.114L957.673 310.531Z" fill="white"/>
<path d="M929 336.916L933.4 320.495M933.4 320.495L941.035 292L995.412 306.57L987.777 335.065L933.4 320.495Z" stroke="#959DA8" stroke-miterlimit="10"/>
<line y1="474" x2="1300" y2="474" stroke="#D9DDE2" stroke-width="2" stroke-miterlimit="10"/>
</g>
</svg>
