<svg width="1300" height="499" viewBox="0 0 1300 499" fill="none" xmlns="http://www.w3.org/2000/svg">
<mask id="mask0" mask-type="alpha" maskUnits="userSpaceOnUse" x="0" y="0" width="1300" height="499">
<rect width="1300" height="499" rx="16" fill="#2A3A51"/>
</mask>
<g mask="url(#mask0)">
<path d="M858.859 177.496C858.573 177.496 858.288 177.465 858.01 177.403C845.007 174.441 845.007 158.73 845.007 158.73C844.908 149.77 847.553 140.994 852.586 133.58C853.29 132.57 854.227 131.745 855.319 131.175C856.41 130.605 857.623 130.308 858.854 130.308C860.086 130.308 861.299 130.605 862.39 131.175C863.481 131.745 864.419 132.57 865.123 133.58C870.159 140.993 872.807 149.769 872.711 158.73C872.711 158.73 872.711 174.5 859.707 177.403C859.429 177.465 859.144 177.496 858.859 177.496Z" fill="#80C33F"/>
<path fill-rule="evenodd" clip-rule="evenodd" d="M858.86 147.25C859.083 147.25 859.264 147.431 859.264 147.653V201.211C859.264 201.434 859.083 201.614 858.86 201.614C858.638 201.614 858.457 201.434 858.457 201.211V147.653C858.457 147.431 858.638 147.25 858.86 147.25Z" fill="#2A3A51"/>
<path d="M235.711 177.328C235.703 175.439 236.151 173.576 237.015 171.896C237.88 170.216 239.136 168.769 240.678 167.678C242.22 166.586 244.002 165.882 245.874 165.625C247.745 165.368 249.651 165.565 251.43 166.2C252.118 163.432 253.511 160.888 255.473 158.817C257.435 156.746 259.9 155.218 262.628 154.383C265.355 153.547 268.253 153.432 271.039 154.048C273.824 154.664 276.403 155.991 278.523 157.899C280.021 153.711 282.949 150.185 286.791 147.943C290.634 145.701 295.144 144.886 299.527 145.643C303.911 146.4 307.887 148.679 310.755 152.079C313.624 155.479 315.2 159.783 315.208 164.231C315.21 164.889 315.176 165.546 315.106 166.2C316.379 165.734 315.793 179.433 315.496 180.468H236.135C235.851 179.437 235.708 178.372 235.711 177.302V177.328Z" fill="#80C33F"/>
<path d="M300.56 163.07V210.177H292.445L292.454 163.07H300.56Z" fill="#F4F5F6"/>
<path fill-rule="evenodd" clip-rule="evenodd" d="M292.048 162.667H300.96V210.581H292.039L292.048 162.667ZM292.854 163.473L292.846 209.774H300.153V163.473H292.854Z" fill="#959DA8"/>
<path d="M292.071 163.07V210.177H283.957L283.966 163.07H292.071Z" fill="#F4F5F6"/>
<path fill-rule="evenodd" clip-rule="evenodd" d="M283.559 162.667H292.472V210.581H283.551L283.559 162.667ZM284.366 163.473L284.357 209.774H291.665V163.473H284.366Z" fill="#959DA8"/>
<path d="M309.046 163.07H300.754V210.177H309.046V163.07Z" fill="#F4F5F6"/>
<path fill-rule="evenodd" clip-rule="evenodd" d="M300.352 162.667H309.451V210.581H300.352V162.667ZM301.158 163.473V209.774H308.644V163.473H301.158Z" fill="#959DA8"/>
<path d="M317.535 163.07H309.242V210.177H317.535V163.07Z" fill="#F4F5F6"/>
<path fill-rule="evenodd" clip-rule="evenodd" d="M308.84 162.667H317.939V210.581H308.84V162.667ZM309.646 163.473V209.774H317.132V163.473H309.646Z" fill="#959DA8"/>
<path d="M326.023 163.07H317.73V210.177H326.023V163.07Z" fill="#F4F5F6"/>
<path fill-rule="evenodd" clip-rule="evenodd" d="M317.328 162.667H326.427V210.581H317.328V162.667ZM318.135 163.473V209.774H325.621V163.473H318.135Z" fill="#959DA8"/>
<path d="M258.97 163.07V210.177H250.855L250.864 163.07H258.97Z" fill="#F4F5F6"/>
<path fill-rule="evenodd" clip-rule="evenodd" d="M250.458 162.667H259.37V210.581H250.449L250.458 162.667ZM251.264 163.473L251.256 209.774H258.564V163.473H251.264Z" fill="#959DA8"/>
<path d="M250.482 163.07V210.177H242.367L242.376 163.07H250.482Z" fill="#F4F5F6"/>
<path fill-rule="evenodd" clip-rule="evenodd" d="M241.973 162.667H250.886V210.581H241.965L241.973 162.667ZM242.78 163.473L242.771 209.774H250.079V163.473H242.78Z" fill="#959DA8"/>
<path d="M241.993 163.07V210.177H233.879L233.887 163.07H241.993Z" fill="#F4F5F6"/>
<path fill-rule="evenodd" clip-rule="evenodd" d="M233.485 162.667H242.397V210.581H233.477L233.485 162.667ZM234.292 163.473L234.283 209.774H241.591V163.473H234.292Z" fill="#959DA8"/>
<path d="M233.505 163.07V210.177H225.391L225.399 163.07H233.505Z" fill="#F4F5F6"/>
<path fill-rule="evenodd" clip-rule="evenodd" d="M224.997 162.667H233.909V210.581H224.988L224.997 162.667ZM225.803 163.473L225.795 209.774H233.103V163.473H225.803Z" fill="#959DA8"/>
<path d="M267.457 163.07H259.164V210.177H267.457V163.07Z" fill="#F4F5F6"/>
<path fill-rule="evenodd" clip-rule="evenodd" d="M258.758 162.667H267.857V210.581H258.758V162.667ZM259.564 163.473V209.774H267.05V163.473H259.564Z" fill="#959DA8"/>
<path d="M275.945 163.07H267.652V210.177H275.945V163.07Z" fill="#F4F5F6"/>
<path fill-rule="evenodd" clip-rule="evenodd" d="M267.25 162.667H276.349V210.581H267.25V162.667ZM268.056 163.473V209.774H275.543V163.473H268.056Z" fill="#959DA8"/>
<path d="M284.429 163.07H276.137V210.177H284.429V163.07Z" fill="#F4F5F6"/>
<path fill-rule="evenodd" clip-rule="evenodd" d="M275.734 162.667H284.833V210.581H275.734V162.667ZM276.541 163.473V209.774H284.027V163.473H276.541Z" fill="#959DA8"/>
<path d="M334.511 163.07H326.219V210.177H334.511V163.07Z" fill="#F4F5F6"/>
<path fill-rule="evenodd" clip-rule="evenodd" d="M325.812 162.667H334.912V210.581H325.812V162.667ZM326.619 163.473V209.774H334.105V163.473H326.619Z" fill="#959DA8"/>
<path d="M343 163.07H334.707V210.177H343V163.07Z" fill="#F4F5F6"/>
<path fill-rule="evenodd" clip-rule="evenodd" d="M334.305 162.667H343.404V210.581H334.305V162.667ZM335.111 163.473V209.774H342.597V163.473H335.111Z" fill="#959DA8"/>
<path d="M351.484 163.07H343.191V210.177H351.484V163.07Z" fill="#F4F5F6"/>
<path fill-rule="evenodd" clip-rule="evenodd" d="M342.789 162.667H351.888V210.581H342.789V162.667ZM343.596 163.473V209.774H351.082V163.473H343.596Z" fill="#959DA8"/>
<path d="M359.972 163.07H351.68V210.177H359.972V163.07Z" fill="#F4F5F6"/>
<path fill-rule="evenodd" clip-rule="evenodd" d="M351.277 162.667H360.376V210.581H351.277V162.667ZM352.084 163.473V209.774H359.57V163.473H352.084Z" fill="#959DA8"/>
<path d="M368.461 163.07H360.168V210.177H368.461V163.07Z" fill="#F4F5F6"/>
<path fill-rule="evenodd" clip-rule="evenodd" d="M359.766 162.667H368.865V210.581H359.766V162.667ZM360.572 163.473V209.774H368.058V163.473H360.572Z" fill="#959DA8"/>
<path d="M376.949 163.07H368.656V210.177H376.949V163.07Z" fill="#F4F5F6"/>
<path fill-rule="evenodd" clip-rule="evenodd" d="M368.254 162.667H377.353V210.581H368.254V162.667ZM369.06 163.473V209.774H376.546V163.473H369.06Z" fill="#959DA8"/>
<path fill-rule="evenodd" clip-rule="evenodd" d="M224.723 162.687H377.418V210.982H224.723V162.687ZM226.336 164.299V209.369H375.805V164.299H226.336Z" fill="#959DA8"/>
<path d="M133.859 470.155C133.852 468.266 134.299 466.403 135.164 464.723C136.028 463.044 137.285 461.597 138.826 460.505C140.368 459.414 142.151 458.71 144.022 458.453C145.894 458.195 147.8 458.393 149.579 459.028C150.266 456.259 151.659 453.716 153.621 451.645C155.584 449.574 158.048 448.046 160.776 447.21C163.504 446.375 166.401 446.259 169.187 446.875C171.973 447.492 174.551 448.819 176.672 450.727C178.17 446.538 181.098 443.012 184.94 440.77C188.782 438.528 193.292 437.714 197.676 438.471C202.06 439.227 206.036 441.506 208.904 444.907C211.772 448.307 213.349 452.61 213.356 457.059C213.358 457.717 213.324 458.374 213.254 459.028C214.532 458.561 215.883 458.323 217.243 458.324C223.779 458.324 229.466 463.628 229.05 470.13C228.99 471.202 228.811 472.264 228.515 473.296H134.301C134.016 472.265 133.874 471.2 133.876 470.13L133.859 470.155Z" fill="#80C33F"/>
<path d="M963.963 341.734H231.469V473.294H963.963V341.734Z" fill="#F4F5F6"/>
<path fill-rule="evenodd" clip-rule="evenodd" d="M230.664 340.927H964.772V474.101H230.664V340.927ZM232.277 342.54V472.488H963.159V342.54H232.277Z" fill="#959DA8"/>
<path d="M963.963 210.178H231.469V341.738H963.963V210.178Z" fill="#F4F5F6"/>
<path fill-rule="evenodd" clip-rule="evenodd" d="M230.664 209.371H964.772V342.544H230.664V209.371ZM232.277 210.984V340.932H963.159V210.984H232.277Z" fill="#959DA8"/>
<path d="M817.973 78.6152H376.609V210.176H817.973V78.6152Z" fill="#F4F5F6"/>
<path fill-rule="evenodd" clip-rule="evenodd" d="M375.887 77.8936H818.694V210.898H375.887V77.8936ZM377.33 79.3371V209.454H817.251V79.3371H377.33Z" fill="#959DA8"/>
<path d="M524.297 54H376.609V473.296H524.297V54Z" fill="#F4F5F6"/>
<path fill-rule="evenodd" clip-rule="evenodd" d="M375.805 53.1934H525.105V474.102H375.805V53.1934ZM377.418 54.8063V472.489H523.492V54.8063H377.418Z" fill="#959DA8"/>
<path d="M817.972 54H670.285V473.296H817.972V54Z" fill="#F4F5F6"/>
<path fill-rule="evenodd" clip-rule="evenodd" d="M669.48 53.1934H818.781V474.102H669.48V53.1934ZM671.093 54.8063V472.489H817.168V54.8063H671.093Z" fill="#959DA8"/>
<path d="M360.482 233.939H246.746V340.885H360.482V233.939Z" fill="#F4F5F6"/>
<path fill-rule="evenodd" clip-rule="evenodd" d="M245.879 233.073H361.349V341.753H245.879V233.073ZM247.613 234.807V340.019H359.615V234.807H247.613Z" fill="#959DA8"/>
<path d="M947.838 233.939H834.102V340.885H947.838V233.939Z" fill="#F4F5F6"/>
<path fill-rule="evenodd" clip-rule="evenodd" d="M833.234 233.073H948.704V341.753H833.234V233.073ZM834.968 234.807V340.019H946.97V234.807H834.968Z" fill="#959DA8"/>
<path d="M414.406 98.9854H486.552V195.653H414.406V98.9854Z" fill="white"/>
<path fill-rule="evenodd" clip-rule="evenodd" d="M414.004 98.582H486.956V196.056H414.004V98.582ZM414.81 99.3885V195.249H486.15V99.3885H414.81Z" fill="#959DA8"/>
<path fill-rule="evenodd" clip-rule="evenodd" d="M449.77 195.745V98.7808H450.576V195.745H449.77Z" fill="#959DA8"/>
<path d="M708.082 98.9854H780.228V195.653H708.082V98.9854Z" fill="white"/>
<path fill-rule="evenodd" clip-rule="evenodd" d="M707.68 98.582H780.632V196.056H707.68V98.582ZM708.486 99.3885V195.249H779.826V99.3885H708.486Z" fill="#959DA8"/>
<path fill-rule="evenodd" clip-rule="evenodd" d="M743.449 195.745V98.7808H744.256V195.745H743.449Z" fill="#959DA8"/>
<path d="M414.406 233.939H486.552V330.607H414.406V233.939Z" fill="white"/>
<path fill-rule="evenodd" clip-rule="evenodd" d="M414.004 233.537H486.956V331.01H414.004V233.537ZM414.81 234.343V330.204H486.15V234.343H414.81Z" fill="#959DA8"/>
<path fill-rule="evenodd" clip-rule="evenodd" d="M449.77 330.701V233.737H450.576V330.701H449.77Z" fill="#959DA8"/>
<path d="M265.867 239.246H338.013V331.474H265.867V239.246Z" fill="white"/>
<path fill-rule="evenodd" clip-rule="evenodd" d="M265.465 238.842H338.417V331.877H265.465V238.842ZM266.271 239.649V331.07H337.611V239.649H266.271Z" fill="#959DA8"/>
<path fill-rule="evenodd" clip-rule="evenodd" d="M301.234 331.552V239.035H302.041V331.552H301.234Z" fill="#959DA8"/>
<path d="M857.469 239.246H929.615V331.474H857.469V239.246Z" fill="white"/>
<path fill-rule="evenodd" clip-rule="evenodd" d="M857.062 238.842H930.015V331.877H857.062V238.842ZM857.869 239.649V331.07H929.209V239.649H857.869Z" fill="#959DA8"/>
<path fill-rule="evenodd" clip-rule="evenodd" d="M892.832 331.552V239.035H893.639V331.552H892.832Z" fill="#959DA8"/>
<path d="M708.082 233.939H780.228V330.607H708.082V233.939Z" fill="white"/>
<path fill-rule="evenodd" clip-rule="evenodd" d="M707.68 233.537H780.632V331.01H707.68V233.537ZM708.486 234.343V330.204H779.826V234.343H708.486Z" fill="#959DA8"/>
<path fill-rule="evenodd" clip-rule="evenodd" d="M743.449 330.701V233.737H744.256V330.701H743.449Z" fill="#959DA8"/>
<path d="M414.406 364.654H486.552V461.322H414.406V364.654Z" fill="white"/>
<path fill-rule="evenodd" clip-rule="evenodd" d="M414.004 364.251H486.956V461.725H414.004V364.251ZM414.81 365.057V460.918H486.15V365.057H414.81Z" fill="#959DA8"/>
<path fill-rule="evenodd" clip-rule="evenodd" d="M449.77 461.41V364.446H450.576V461.41H449.77Z" fill="#959DA8"/>
<path d="M708.082 364.654H780.228V461.322H708.082V364.654Z" fill="white"/>
<path fill-rule="evenodd" clip-rule="evenodd" d="M707.68 364.251H780.632V461.725H707.68V364.251ZM708.486 365.057V460.918H779.826V365.057H708.486Z" fill="#959DA8"/>
<path fill-rule="evenodd" clip-rule="evenodd" d="M743.449 461.41V364.446H744.256V461.41H743.449Z" fill="#959DA8"/>
<path d="M857.469 364.654H929.615V461.322H857.469V364.654Z" fill="white"/>
<path fill-rule="evenodd" clip-rule="evenodd" d="M857.062 364.251H930.015V461.725H857.062V364.251ZM857.869 365.057V460.918H929.209V365.057H857.869Z" fill="#959DA8"/>
<path fill-rule="evenodd" clip-rule="evenodd" d="M892.832 461.41V364.446H893.639V461.41H892.832Z" fill="#959DA8"/>
<path d="M583.32 98.9854H612.425V195.653H583.32V98.9854Z" fill="white"/>
<path fill-rule="evenodd" clip-rule="evenodd" d="M582.918 98.582H612.829V196.056H582.918V98.582ZM583.724 99.3885V195.249H612.022V99.3885H583.724Z" fill="#959DA8"/>
<path d="M583.32 233.939H612.425V330.607H583.32V233.939Z" fill="white"/>
<path fill-rule="evenodd" clip-rule="evenodd" d="M582.918 233.537H612.829V331.01H582.918V233.537ZM583.724 234.343V330.204H612.022V234.343H583.724Z" fill="#959DA8"/>
<path d="M583.32 364.654H612.425V461.322H583.32V364.654Z" fill="white"/>
<path fill-rule="evenodd" clip-rule="evenodd" d="M582.918 364.251H612.829V461.725H582.918V364.251ZM583.724 365.057V460.918H612.022V365.057H583.724Z" fill="#959DA8"/>
<path d="M276.597 317.546C276.311 317.546 276.027 317.514 275.748 317.453C262.745 314.49 262.745 298.779 262.745 298.779C262.646 289.819 265.291 281.044 270.324 273.63C271.028 272.62 271.966 271.795 273.057 271.225C274.148 270.655 275.361 270.357 276.593 270.357C277.824 270.357 279.037 270.655 280.128 271.225C281.22 271.795 282.157 272.62 282.861 273.63C287.897 281.043 290.545 289.819 290.449 298.779C290.449 298.779 290.449 314.55 277.446 317.453C277.167 317.514 276.882 317.546 276.597 317.546Z" fill="#80C33F"/>
<path fill-rule="evenodd" clip-rule="evenodd" d="M276.599 287.296C276.821 287.296 277.002 287.476 277.002 287.699V341.257C277.002 341.48 276.821 341.66 276.599 341.66C276.376 341.66 276.195 341.48 276.195 341.257V287.699C276.195 287.476 276.376 287.296 276.599 287.296Z" fill="#2A3A51"/>
<path d="M567.73 170.708C567.444 170.707 567.16 170.676 566.881 170.614C553.878 167.652 553.878 151.941 553.878 151.941C553.779 142.981 556.424 134.205 561.457 126.792C562.161 125.782 563.098 124.956 564.19 124.386C565.281 123.817 566.494 123.519 567.725 123.519C568.957 123.519 570.17 123.817 571.261 124.386C572.353 124.956 573.29 125.782 573.994 126.792C579.03 134.204 581.678 142.98 581.582 151.941C581.582 151.941 581.582 167.711 568.579 170.614C568.3 170.676 568.015 170.707 567.73 170.708Z" fill="#80C33F"/>
<path fill-rule="evenodd" clip-rule="evenodd" d="M567.727 140.461C567.95 140.461 568.131 140.642 568.131 140.865V194.423C568.131 194.645 567.95 194.826 567.727 194.826C567.505 194.826 567.324 194.645 567.324 194.423V140.865C567.324 140.642 567.505 140.461 567.727 140.461Z" fill="#2A3A51"/>
<path d="M284.431 293.781V340.888H276.316L276.325 293.781H284.431Z" fill="#F4F5F6"/>
<path fill-rule="evenodd" clip-rule="evenodd" d="M275.923 293.377H284.835V341.291H275.914L275.923 293.377ZM276.729 294.184L276.721 340.485H284.028V294.184H276.729Z" fill="#959DA8"/>
<path d="M275.946 293.781V340.888H267.832L267.841 293.781H275.946Z" fill="#F4F5F6"/>
<path fill-rule="evenodd" clip-rule="evenodd" d="M267.438 293.377H276.351V341.291H267.43L267.438 293.377ZM268.245 294.184L268.236 340.485H275.544V294.184H268.245Z" fill="#959DA8"/>
<path d="M292.921 293.781H284.629V340.888H292.921V293.781Z" fill="#F4F5F6"/>
<path fill-rule="evenodd" clip-rule="evenodd" d="M284.227 293.377H293.326V341.291H284.227V293.377ZM285.033 294.184V340.485H292.519V294.184H285.033Z" fill="#959DA8"/>
<path d="M301.41 293.781H293.117V340.888H301.41V293.781Z" fill="#F4F5F6"/>
<path fill-rule="evenodd" clip-rule="evenodd" d="M292.711 293.377H301.81V341.291H292.711V293.377ZM293.517 294.184V340.485H301.004V294.184H293.517Z" fill="#959DA8"/>
<path d="M309.894 293.781H301.602V340.888H309.894V293.781Z" fill="#F4F5F6"/>
<path fill-rule="evenodd" clip-rule="evenodd" d="M301.199 293.377H310.298V341.291H301.199V293.377ZM302.006 294.184V340.485H309.492V294.184H302.006Z" fill="#959DA8"/>
<path d="M318.386 293.781H310.094V340.888H318.386V293.781Z" fill="#F4F5F6"/>
<path fill-rule="evenodd" clip-rule="evenodd" d="M309.691 293.377H318.79V341.291H309.691V293.377ZM310.498 294.184V340.485H317.984V294.184H310.498Z" fill="#959DA8"/>
<path d="M326.871 293.781H318.578V340.888H326.871V293.781Z" fill="#F4F5F6"/>
<path fill-rule="evenodd" clip-rule="evenodd" d="M318.176 293.377H327.275V341.291H318.176V293.377ZM318.982 294.184V340.485H326.468V294.184H318.982Z" fill="#959DA8"/>
<path d="M335.363 293.781H327.07V340.888H335.363V293.781Z" fill="#F4F5F6"/>
<path fill-rule="evenodd" clip-rule="evenodd" d="M326.664 293.377H335.763V341.291H326.664V293.377ZM327.471 294.184V340.485H334.957V294.184H327.471Z" fill="#959DA8"/>
<path d="M343.847 293.781H335.555V340.888H343.847V293.781Z" fill="#F4F5F6"/>
<path fill-rule="evenodd" clip-rule="evenodd" d="M335.152 293.377H344.251V341.291H335.152V293.377ZM335.959 294.184V340.485H343.445V294.184H335.959Z" fill="#959DA8"/>
<path d="M352.336 293.781H344.043V340.888H352.336V293.781Z" fill="#F4F5F6"/>
<path fill-rule="evenodd" clip-rule="evenodd" d="M343.641 293.377H352.74V341.291H343.641V293.377ZM344.447 294.184V340.485H351.933V294.184H344.447Z" fill="#959DA8"/>
<path d="M360.824 293.781H352.531V340.888H360.824V293.781Z" fill="#F4F5F6"/>
<path fill-rule="evenodd" clip-rule="evenodd" d="M352.125 293.377H361.224V341.291H352.125V293.377ZM352.931 294.184V340.485H360.418V294.184H352.931Z" fill="#959DA8"/>
<path d="M258.968 293.781H250.676V340.888H258.968V293.781Z" fill="#F4F5F6"/>
<path fill-rule="evenodd" clip-rule="evenodd" d="M250.273 293.377H259.372V341.291H250.273V293.377ZM251.08 294.184V340.485H258.566V294.184H251.08Z" fill="#959DA8"/>
<path d="M267.457 293.781H259.164V340.888H267.457V293.781Z" fill="#F4F5F6"/>
<path fill-rule="evenodd" clip-rule="evenodd" d="M258.758 293.377H267.857V341.291H258.758V293.377ZM259.564 294.184V340.485H267.05V294.184H259.564Z" fill="#959DA8"/>
<path fill-rule="evenodd" clip-rule="evenodd" d="M245.941 293.399H361.29V341.695H245.941V293.399ZM247.554 295.012V340.082H359.678V295.012H247.554Z" fill="#959DA8"/>
<path d="M490.999 199.598H409.907L408.863 192.07H492.043L490.999 199.598Z" fill="#D3DCE5"/>
<path d="M785.527 200.448H704.435L703.391 192.919H786.571L785.527 200.448Z" fill="#D3DCE5"/>
<path d="M490.999 334.555H409.907L408.863 327.026H492.043L490.999 334.555Z" fill="#D3DCE5"/>
<path d="M785.527 332.008H704.435L703.391 324.479H786.571L785.527 332.008Z" fill="#D3DCE5"/>
<path d="M490.999 465.267H409.907L408.863 457.739H492.043L490.999 465.267Z" fill="#D3DCE5"/>
<path d="M785.527 461.871H704.435L703.391 454.342H786.571L785.527 461.871Z" fill="#D3DCE5"/>
<path d="M934.062 461.871H852.97L851.926 454.342H935.106L934.062 461.871Z" fill="#D3DCE5"/>
<path d="M596.782 163.07V210.177H588.668L588.676 163.07H596.782Z" fill="#F4F5F6"/>
<path fill-rule="evenodd" clip-rule="evenodd" d="M588.274 162.667H597.187V210.581H588.266L588.274 162.667ZM589.081 163.473L589.072 209.774H596.38V163.473H589.081Z" fill="#959DA8"/>
<path d="M588.294 163.07V210.177H580.18L580.188 163.07H588.294Z" fill="#F4F5F6"/>
<path fill-rule="evenodd" clip-rule="evenodd" d="M579.786 162.667H588.698V210.581H579.777L579.786 162.667ZM580.592 163.473L580.584 209.774H587.892V163.473H580.592Z" fill="#959DA8"/>
<path d="M605.273 163.07H596.98V210.177H605.273V163.07Z" fill="#F4F5F6"/>
<path fill-rule="evenodd" clip-rule="evenodd" d="M596.574 162.667H605.673V210.581H596.574V162.667ZM597.381 163.473V209.774H604.867V163.473H597.381Z" fill="#959DA8"/>
<path d="M613.757 163.07H605.465V210.177H613.757V163.07Z" fill="#F4F5F6"/>
<path fill-rule="evenodd" clip-rule="evenodd" d="M605.062 162.667H614.162V210.581H605.062V162.667ZM605.869 163.473V209.774H613.355V163.473H605.869Z" fill="#959DA8"/>
<path d="M622.246 163.07H613.953V210.177H622.246V163.07Z" fill="#F4F5F6"/>
<path fill-rule="evenodd" clip-rule="evenodd" d="M613.551 162.667H622.65V210.581H613.551V162.667ZM614.357 163.473V209.774H621.843V163.473H614.357Z" fill="#959DA8"/>
<path d="M555.192 163.07V210.177H547.078L547.087 163.07H555.192Z" fill="#F4F5F6"/>
<path fill-rule="evenodd" clip-rule="evenodd" d="M546.684 162.667H555.597V210.581H546.676L546.684 162.667ZM547.491 163.473L547.482 209.774H554.79V163.473H547.491Z" fill="#959DA8"/>
<path d="M546.704 163.07V210.177H538.59L538.598 163.07H546.704Z" fill="#F4F5F6"/>
<path fill-rule="evenodd" clip-rule="evenodd" d="M538.196 162.667H547.108V210.581H538.188L538.196 162.667ZM539.002 163.473L538.994 209.774H546.302V163.473H539.002Z" fill="#959DA8"/>
<path d="M538.216 163.07V210.177H530.102L530.11 163.07H538.216Z" fill="#F4F5F6"/>
<path fill-rule="evenodd" clip-rule="evenodd" d="M529.708 162.667H538.62V210.581H529.699L529.708 162.667ZM530.514 163.473L530.506 209.774H537.814V163.473H530.514Z" fill="#959DA8"/>
<path d="M529.728 163.07V210.177H521.613L521.622 163.07H529.728Z" fill="#F4F5F6"/>
<path fill-rule="evenodd" clip-rule="evenodd" d="M521.22 162.667H530.132V210.581H521.211L521.22 162.667ZM522.026 163.473L522.018 209.774H529.325V163.473H522.026Z" fill="#959DA8"/>
<path d="M563.683 163.07H555.391V210.177H563.683V163.07Z" fill="#F4F5F6"/>
<path fill-rule="evenodd" clip-rule="evenodd" d="M554.988 162.667H564.087V210.581H554.988V162.667ZM555.795 163.473V209.774H563.281V163.473H555.795Z" fill="#959DA8"/>
<path d="M572.171 163.07H563.879V210.177H572.171V163.07Z" fill="#F4F5F6"/>
<path fill-rule="evenodd" clip-rule="evenodd" d="M563.477 162.667H572.576V210.581H563.477V162.667ZM564.283 163.473V209.774H571.769V163.473H564.283Z" fill="#959DA8"/>
<path d="M580.66 163.07H572.367V210.177H580.66V163.07Z" fill="#F4F5F6"/>
<path fill-rule="evenodd" clip-rule="evenodd" d="M571.961 162.667H581.06V210.581H571.961V162.667ZM572.767 163.473V209.774H580.254V163.473H572.767Z" fill="#959DA8"/>
<path d="M630.738 163.07H622.445V210.177H630.738V163.07Z" fill="#F4F5F6"/>
<path fill-rule="evenodd" clip-rule="evenodd" d="M622.043 162.667H631.142V210.581H622.043V162.667ZM622.849 163.473V209.774H630.336V163.473H622.849Z" fill="#959DA8"/>
<path d="M639.222 163.07H630.93V210.177H639.222V163.07Z" fill="#F4F5F6"/>
<path fill-rule="evenodd" clip-rule="evenodd" d="M630.527 162.667H639.626V210.581H630.527V162.667ZM631.334 163.473V209.774H638.82V163.473H631.334Z" fill="#959DA8"/>
<path d="M647.711 163.07H639.418V210.177H647.711V163.07Z" fill="#F4F5F6"/>
<path fill-rule="evenodd" clip-rule="evenodd" d="M639.016 162.667H648.115V210.581H639.016V162.667ZM639.822 163.473V209.774H647.308V163.473H639.822Z" fill="#959DA8"/>
<path d="M656.195 163.07H647.902V210.177H656.195V163.07Z" fill="#F4F5F6"/>
<path fill-rule="evenodd" clip-rule="evenodd" d="M647.5 162.667H656.599V210.581H647.5V162.667ZM648.306 163.473V209.774H655.793V163.473H648.306Z" fill="#959DA8"/>
<path d="M664.683 163.07H656.391V210.177H664.683V163.07Z" fill="#F4F5F6"/>
<path fill-rule="evenodd" clip-rule="evenodd" d="M655.988 162.667H665.087V210.581H655.988V162.667ZM656.795 163.473V209.774H664.281V163.473H656.795Z" fill="#959DA8"/>
<path d="M673.171 163.07H664.879V210.177H673.171V163.07Z" fill="#F4F5F6"/>
<path fill-rule="evenodd" clip-rule="evenodd" d="M664.477 162.667H673.576V210.581H664.477V162.667ZM665.283 163.473V209.774H672.769V163.473H665.283Z" fill="#959DA8"/>
<path fill-rule="evenodd" clip-rule="evenodd" d="M520.941 162.687H673.637V210.982H520.941V162.687ZM522.554 164.299V209.369H672.024V164.299H522.554Z" fill="#959DA8"/>
<path d="M527.692 313.982C527.684 312.093 528.131 310.229 528.996 308.55C529.86 306.87 531.117 305.423 532.658 304.332C534.2 303.24 535.983 302.536 537.854 302.279C539.726 302.022 541.632 302.219 543.411 302.854C544.098 300.085 545.491 297.542 547.453 295.471C549.416 293.4 551.88 291.872 554.608 291.037C557.336 290.201 560.234 290.085 563.019 290.702C565.805 291.318 568.383 292.645 570.504 294.553C572.002 290.364 574.93 286.839 578.772 284.597C582.614 282.355 587.124 281.54 591.508 282.297C595.892 283.053 599.868 285.333 602.736 288.733C605.604 292.133 607.181 296.437 607.188 300.885C607.19 301.543 607.156 302.2 607.086 302.854C608.359 302.387 607.774 316.087 607.477 317.122H528.116C527.831 316.091 527.689 315.026 527.692 313.956V313.982Z" fill="#80C33F"/>
<path d="M596.782 294.628V341.736H588.668L588.676 294.628H596.782Z" fill="#F4F5F6"/>
<path fill-rule="evenodd" clip-rule="evenodd" d="M588.274 294.225H597.187V342.139H588.266L588.274 294.225ZM589.081 295.032L589.072 341.332H596.38V295.032H589.081Z" fill="#959DA8"/>
<path d="M588.294 294.628V341.736H580.18L580.188 294.628H588.294Z" fill="#F4F5F6"/>
<path fill-rule="evenodd" clip-rule="evenodd" d="M579.786 294.225H588.698V342.139H579.777L579.786 294.225ZM580.592 295.032L580.584 341.332H587.892V295.032H580.592Z" fill="#959DA8"/>
<path d="M605.273 294.628H596.98V341.736H605.273V294.628Z" fill="#F4F5F6"/>
<path fill-rule="evenodd" clip-rule="evenodd" d="M596.574 294.225H605.673V342.139H596.574V294.225ZM597.381 295.032V341.332H604.867V295.032H597.381Z" fill="#959DA8"/>
<path d="M613.757 294.628H605.465V341.736H613.757V294.628Z" fill="#F4F5F6"/>
<path fill-rule="evenodd" clip-rule="evenodd" d="M605.062 294.225H614.162V342.139H605.062V294.225ZM605.869 295.032V341.332H613.355V295.032H605.869Z" fill="#959DA8"/>
<path d="M622.246 294.628H613.953V341.736H622.246V294.628Z" fill="#F4F5F6"/>
<path fill-rule="evenodd" clip-rule="evenodd" d="M613.551 294.225H622.65V342.139H613.551V294.225ZM614.357 295.032V341.332H621.843V295.032H614.357Z" fill="#959DA8"/>
<path d="M555.192 294.628V341.736H547.078L547.087 294.628H555.192Z" fill="#F4F5F6"/>
<path fill-rule="evenodd" clip-rule="evenodd" d="M546.684 294.225H555.597V342.139H546.676L546.684 294.225ZM547.491 295.032L547.482 341.332H554.79V295.032H547.491Z" fill="#959DA8"/>
<path d="M546.704 294.628V341.736H538.59L538.598 294.628H546.704Z" fill="#F4F5F6"/>
<path fill-rule="evenodd" clip-rule="evenodd" d="M538.196 294.225H547.108V342.139H538.188L538.196 294.225ZM539.002 295.032L538.994 341.332H546.302V295.032H539.002Z" fill="#959DA8"/>
<path d="M538.216 294.628V341.736H530.102L530.11 294.628H538.216Z" fill="#F4F5F6"/>
<path fill-rule="evenodd" clip-rule="evenodd" d="M529.708 294.225H538.62V342.139H529.699L529.708 294.225ZM530.514 295.032L530.506 341.332H537.814V295.032H530.514Z" fill="#959DA8"/>
<path d="M529.728 294.628V341.736H521.613L521.622 294.628H529.728Z" fill="#F4F5F6"/>
<path fill-rule="evenodd" clip-rule="evenodd" d="M521.22 294.225H530.132V342.139H521.211L521.22 294.225ZM522.026 295.032L522.018 341.332H529.325V295.032H522.026Z" fill="#959DA8"/>
<path d="M563.683 294.628H555.391V341.736H563.683V294.628Z" fill="#F4F5F6"/>
<path fill-rule="evenodd" clip-rule="evenodd" d="M554.988 294.225H564.087V342.139H554.988V294.225ZM555.795 295.032V341.332H563.281V295.032H555.795Z" fill="#959DA8"/>
<path d="M572.171 294.628H563.879V341.736H572.171V294.628Z" fill="#F4F5F6"/>
<path fill-rule="evenodd" clip-rule="evenodd" d="M563.477 294.225H572.576V342.139H563.477V294.225ZM564.283 295.032V341.332H571.769V295.032H564.283Z" fill="#959DA8"/>
<path d="M580.66 294.628H572.367V341.736H580.66V294.628Z" fill="#F4F5F6"/>
<path fill-rule="evenodd" clip-rule="evenodd" d="M571.961 294.225H581.06V342.139H571.961V294.225ZM572.767 295.032V341.332H580.254V295.032H572.767Z" fill="#959DA8"/>
<path d="M630.738 294.628H622.445V341.736H630.738V294.628Z" fill="#F4F5F6"/>
<path fill-rule="evenodd" clip-rule="evenodd" d="M622.043 294.225H631.142V342.139H622.043V294.225ZM622.849 295.032V341.332H630.336V295.032H622.849Z" fill="#959DA8"/>
<path d="M639.222 294.628H630.93V341.736H639.222V294.628Z" fill="#F4F5F6"/>
<path fill-rule="evenodd" clip-rule="evenodd" d="M630.527 294.225H639.626V342.139H630.527V294.225ZM631.334 295.032V341.332H638.82V295.032H631.334Z" fill="#959DA8"/>
<path d="M647.711 294.628H639.418V341.736H647.711V294.628Z" fill="#F4F5F6"/>
<path fill-rule="evenodd" clip-rule="evenodd" d="M639.016 294.225H648.115V342.139H639.016V294.225ZM639.822 295.032V341.332H647.308V295.032H639.822Z" fill="#959DA8"/>
<path d="M656.195 294.628H647.902V341.736H656.195V294.628Z" fill="#F4F5F6"/>
<path fill-rule="evenodd" clip-rule="evenodd" d="M647.5 294.225H656.599V342.139H647.5V294.225ZM648.306 295.032V341.332H655.793V295.032H648.306Z" fill="#959DA8"/>
<path d="M664.683 294.628H656.391V341.736H664.683V294.628Z" fill="#F4F5F6"/>
<path fill-rule="evenodd" clip-rule="evenodd" d="M655.988 294.225H665.087V342.139H655.988V294.225ZM656.795 295.032V341.332H664.281V295.032H656.795Z" fill="#959DA8"/>
<path d="M673.171 294.628H664.879V341.736H673.171V294.628Z" fill="#F4F5F6"/>
<path fill-rule="evenodd" clip-rule="evenodd" d="M664.477 294.225H673.576V342.139H664.477V294.225ZM665.283 295.032V341.332H672.769V295.032H665.283Z" fill="#959DA8"/>
<path fill-rule="evenodd" clip-rule="evenodd" d="M520.941 294.245H673.637V342.54H520.941V294.245ZM522.554 295.858V340.927H672.024V295.858H522.554Z" fill="#959DA8"/>
<path d="M717.982 421.411C718.614 418.588 718.611 415.659 717.973 412.837C717.335 410.015 716.078 407.37 714.292 405.094C712.506 402.817 710.236 400.966 707.647 399.674C705.058 398.383 702.215 397.683 699.322 397.625C696.429 397.567 693.56 398.153 690.921 399.34C688.283 400.528 685.941 402.287 684.066 404.49C682.191 406.693 680.829 409.286 680.078 412.08C679.328 414.875 679.208 417.801 679.727 420.647C677.596 421.682 675.714 423.165 674.209 424.995C672.704 426.825 671.611 428.958 671.007 431.248C670.402 433.539 670.298 435.933 670.704 438.267C671.109 440.601 672.014 442.821 673.356 444.773C674.698 446.725 676.445 448.365 678.479 449.58C680.513 450.795 682.786 451.556 685.141 451.812C687.496 452.068 689.879 451.812 692.126 451.063C694.374 450.313 696.433 449.087 698.163 447.469C699.843 449.047 701.836 450.255 704.013 451.013C706.189 451.772 708.501 452.066 710.799 451.874C713.096 451.682 715.327 451.01 717.348 449.901C719.369 448.792 721.135 447.271 722.53 445.436C723.926 443.601 724.92 441.494 725.449 439.25C725.978 437.007 726.03 434.677 725.601 432.412C725.173 430.147 724.273 427.997 722.96 426.102C721.648 424.207 719.951 422.609 717.982 421.411Z" fill="#80C33F"/>
<path fill-rule="evenodd" clip-rule="evenodd" d="M689.591 432.229C689.715 432.044 689.965 431.994 690.15 432.117L699.139 438.109C699.324 438.233 699.374 438.483 699.251 438.669C699.127 438.854 698.877 438.904 698.692 438.78L689.703 432.788C689.518 432.665 689.468 432.414 689.591 432.229Z" fill="#2A3A51"/>
<path fill-rule="evenodd" clip-rule="evenodd" d="M709.696 436.688C709.841 436.857 709.821 437.111 709.652 437.256L699.169 446.236C699 446.381 698.746 446.362 698.601 446.193C698.456 446.023 698.476 445.769 698.645 445.624L709.127 436.644C709.296 436.499 709.551 436.519 709.696 436.688Z" fill="#2A3A51"/>
<path fill-rule="evenodd" clip-rule="evenodd" d="M698.919 420.072C699.142 420.072 699.322 420.253 699.322 420.476V474.373C699.322 474.596 699.142 474.776 698.919 474.776C698.696 474.776 698.516 474.596 698.516 474.373V420.476C698.516 420.253 698.696 420.072 698.919 420.072Z" fill="#2A3A51"/>
<path fill-rule="evenodd" clip-rule="evenodd" d="M616.782 472.766L576.66 441.76L577.153 441.122L617.275 472.128L616.782 472.766Z" fill="#959DA8"/>
<path fill-rule="evenodd" clip-rule="evenodd" d="M576.66 472.128L616.782 441.122L617.275 441.76L577.153 472.766L576.66 472.128Z" fill="#959DA8"/>
<path d="M624.452 435.525H569.281V442.29H624.452V435.525Z" fill="#D3DCE5"/>
<path d="M534.981 452.626H558.458L548.672 429.158H525.203L534.981 452.626Z" fill="#D3DCE5"/>
<path fill-rule="evenodd" clip-rule="evenodd" d="M557.324 441.69C557.324 441.69 557.324 441.69 557.324 441.69L553.81 441.835L553.777 441.029L557.291 440.884C560.213 440.766 563.104 441.524 565.592 443.061C568.08 444.597 570.053 446.842 571.256 449.507L582.29 473.978L581.555 474.309L570.521 449.839C569.384 447.32 567.52 445.199 565.168 443.747C562.817 442.295 560.085 441.579 557.324 441.69Z" fill="#959DA8"/>
<path fill-rule="evenodd" clip-rule="evenodd" d="M530.031 474.057L534.937 451.989L535.724 452.164L530.819 474.232L530.031 474.057Z" fill="#959DA8"/>
<path fill-rule="evenodd" clip-rule="evenodd" d="M549.586 474.057L554.458 451.989L555.245 452.163L550.373 474.231L549.586 474.057Z" fill="#959DA8"/>
<path d="M534.329 452.627H571.488V449.368H534.329V452.627Z" fill="#D3DCE5"/>
<path fill-rule="evenodd" clip-rule="evenodd" d="M535.026 441.65C535.026 441.65 535.026 441.65 535.026 441.65L530.341 441.837L530.309 441.031L534.994 440.844C537.766 440.735 540.508 441.456 542.867 442.915C545.226 444.375 547.096 446.505 548.237 449.035L559.466 473.98L558.731 474.311L547.501 449.366C546.427 446.983 544.666 444.976 542.443 443.601C540.22 442.227 537.637 441.547 535.026 441.65Z" fill="#959DA8"/>
<path fill-rule="evenodd" clip-rule="evenodd" d="M637.29 440.884C637.29 440.884 637.291 440.884 637.291 440.884L641.651 441.028L641.624 441.834L637.262 441.69L637.259 441.69C634.498 441.578 631.766 442.294 629.414 443.746C627.063 445.198 625.199 447.32 624.062 449.839L613.028 474.309L612.293 473.977L623.327 449.507C624.53 446.842 626.503 444.597 628.991 443.06C631.478 441.524 634.368 440.766 637.29 440.884Z" fill="#959DA8"/>
<path d="M659.602 452.626H636.125L645.911 429.158H669.38L659.602 452.626Z" fill="#D3DCE5"/>
<path fill-rule="evenodd" clip-rule="evenodd" d="M663.765 474.226L658.859 451.309L659.648 451.14L664.554 474.057L663.765 474.226Z" fill="#959DA8"/>
<path fill-rule="evenodd" clip-rule="evenodd" d="M644.208 474.231L639.336 452.163L640.123 451.989L644.995 474.057L644.208 474.231Z" fill="#959DA8"/>
<path d="M660.245 449.368H623.086V452.627H660.245V449.368Z" fill="#D3DCE5"/>
<path fill-rule="evenodd" clip-rule="evenodd" d="M651.72 442.915C654.079 441.456 656.821 440.735 659.593 440.844L664.278 441.031L664.246 441.837L659.561 441.65C659.561 441.65 659.561 441.65 659.561 441.65C656.95 441.547 654.367 442.227 652.144 443.601C649.921 444.976 648.16 446.983 647.086 449.366L635.856 474.311L635.121 473.98L646.35 449.035C647.491 446.506 649.361 444.375 651.72 442.915Z" fill="#959DA8"/>
<path d="M871.786 293.781V340.888H863.672L863.68 293.781H871.786Z" fill="#F4F5F6"/>
<path fill-rule="evenodd" clip-rule="evenodd" d="M863.278 293.377H872.19V341.291H863.27L863.278 293.377ZM864.085 294.184L864.076 340.485H871.384V294.184H864.085Z" fill="#959DA8"/>
<path d="M863.298 293.781V340.888H855.184L855.192 293.781H863.298Z" fill="#F4F5F6"/>
<path fill-rule="evenodd" clip-rule="evenodd" d="M854.79 293.377H863.702V341.291H854.781L854.79 293.377ZM855.596 294.184L855.588 340.485H862.896V294.184H855.596Z" fill="#959DA8"/>
<path d="M880.273 293.781H871.98V340.888H880.273V293.781Z" fill="#F4F5F6"/>
<path fill-rule="evenodd" clip-rule="evenodd" d="M871.578 293.377H880.677V341.291H871.578V293.377ZM872.385 294.184V340.485H879.871V294.184H872.385Z" fill="#959DA8"/>
<path d="M888.761 293.781H880.469V340.888H888.761V293.781Z" fill="#F4F5F6"/>
<path fill-rule="evenodd" clip-rule="evenodd" d="M880.066 293.377H889.165V341.291H880.066V293.377ZM880.873 294.184V340.485H888.359V294.184H880.873Z" fill="#959DA8"/>
<path d="M897.25 293.781H888.957V340.888H897.25V293.781Z" fill="#F4F5F6"/>
<path fill-rule="evenodd" clip-rule="evenodd" d="M888.555 293.377H897.654V341.291H888.555V293.377ZM889.361 294.184V340.485H896.847V294.184H889.361Z" fill="#959DA8"/>
<path d="M905.738 293.781H897.445V340.888H905.738V293.781Z" fill="#F4F5F6"/>
<path fill-rule="evenodd" clip-rule="evenodd" d="M897.043 293.377H906.142V341.291H897.043V293.377ZM897.849 294.184V340.485H905.336V294.184H897.849Z" fill="#959DA8"/>
<path d="M914.222 293.781H905.93V340.888H914.222V293.781Z" fill="#F4F5F6"/>
<path fill-rule="evenodd" clip-rule="evenodd" d="M905.527 293.377H914.626V341.291H905.527V293.377ZM906.334 294.184V340.485H913.82V294.184H906.334Z" fill="#959DA8"/>
<path d="M922.714 293.781H914.422V340.888H922.714V293.781Z" fill="#F4F5F6"/>
<path fill-rule="evenodd" clip-rule="evenodd" d="M914.02 293.377H923.119V341.291H914.02V293.377ZM914.826 294.184V340.485H922.312V294.184H914.826Z" fill="#959DA8"/>
<path d="M931.203 293.781H922.91V340.888H931.203V293.781Z" fill="#F4F5F6"/>
<path fill-rule="evenodd" clip-rule="evenodd" d="M922.508 293.377H931.607V341.291H922.508V293.377ZM923.314 294.184V340.485H930.8V294.184H923.314Z" fill="#959DA8"/>
<path d="M939.691 293.781H931.398V340.888H939.691V293.781Z" fill="#F4F5F6"/>
<path fill-rule="evenodd" clip-rule="evenodd" d="M930.996 293.377H940.095V341.291H930.996V293.377ZM931.803 294.184V340.485H939.289V294.184H931.803Z" fill="#959DA8"/>
<path d="M948.179 293.781H939.887V340.888H948.179V293.781Z" fill="#F4F5F6"/>
<path fill-rule="evenodd" clip-rule="evenodd" d="M939.48 293.377H948.58V341.291H939.48V293.377ZM940.287 294.184V340.485H947.773V294.184H940.287Z" fill="#959DA8"/>
<path d="M846.324 293.781H838.031V340.888H846.324V293.781Z" fill="#F4F5F6"/>
<path fill-rule="evenodd" clip-rule="evenodd" d="M837.629 293.377H846.728V341.291H837.629V293.377ZM838.435 294.184V340.485H845.921V294.184H838.435Z" fill="#959DA8"/>
<path d="M854.812 293.781H846.52V340.888H854.812V293.781Z" fill="#F4F5F6"/>
<path fill-rule="evenodd" clip-rule="evenodd" d="M846.117 293.377H855.216V341.291H846.117V293.377ZM846.924 294.184V340.485H854.41V294.184H846.924Z" fill="#959DA8"/>
<path fill-rule="evenodd" clip-rule="evenodd" d="M833.293 293.399H948.642V341.695H833.293V293.399ZM834.906 295.012V340.082H947.029V295.012H834.906Z" fill="#959DA8"/>
<path fill-rule="evenodd" clip-rule="evenodd" d="M947.823 110.355C948.265 110.41 948.579 110.813 948.524 111.255L936.751 206.03C936.697 206.472 936.294 206.785 935.852 206.73C935.41 206.676 935.096 206.273 935.151 205.831L946.923 111.056C946.978 110.614 947.381 110.3 947.823 110.355Z" fill="#959DA8"/>
<path d="M987.652 141.172C980.689 142.04 973.677 142.442 966.661 142.378L964.667 139.449L963.283 142.276C955.787 142.065 948.311 141.379 940.901 140.222C938.858 139.905 936.838 139.557 934.841 139.178L932.88 138.787C930.713 138.351 928.571 137.879 926.455 137.37L925.36 137.098L923.985 136.75L923.391 136.597L922.865 132.905L919.469 135.536L919.894 135.655L919.469 135.536L919.037 135.409L918.604 135.29C917.251 134.9 915.91 134.492 914.581 134.068L912.034 133.219C911.151 132.925 910.271 132.622 909.394 132.311L908.121 131.853L907.587 131.657L906.254 131.165L905.609 130.919L904.361 130.435L901.993 129.485H901.9L900.686 128.975C899.914 128.653 899.141 128.313 898.377 127.982C898.09 127.85 897.841 127.644 897.657 127.387C897.473 127.129 897.359 126.828 897.326 126.512C897.294 126.197 897.344 125.879 897.471 125.589C897.599 125.299 897.8 125.047 898.055 124.859C900.179 123.311 902.395 121.893 904.692 120.615L905.278 120.292C906.41 119.67 907.567 119.081 908.749 118.527L910.175 117.882C912.565 116.828 915.017 115.921 917.517 115.166L918.273 114.945C920.818 114.22 923.406 113.653 926.022 113.247L927.524 113.027C928.314 112.916 929.111 112.823 929.909 112.747C930.444 112.696 930.979 112.645 931.514 112.611L932.32 112.56H932.888C933.783 112.509 934.682 112.481 935.588 112.475H937.175C937.828 112.475 938.482 112.475 939.136 112.535L940.086 112.585H940.477L941.945 112.696C943.382 112.826 944.825 113.001 946.274 113.222C954.674 114.506 962.74 117.432 970.009 121.835C977.278 126.238 983.607 132.03 988.636 138.881C988.784 139.084 988.876 139.322 988.904 139.572C988.932 139.822 988.895 140.075 988.795 140.306C988.696 140.537 988.538 140.739 988.338 140.89C988.137 141.042 987.901 141.139 987.652 141.172Z" fill="#D3DCE5"/>
<path fill-rule="evenodd" clip-rule="evenodd" d="M922.873 139.834L923.306 139.885L923.241 140.43L922.809 140.379L922.873 139.834Z" fill="#959DA8"/>
<path fill-rule="evenodd" clip-rule="evenodd" d="M923.214 133.031C923.214 133.031 923.214 133.031 922.867 132.826C922.519 132.622 922.519 132.622 922.52 132.621L922.522 132.618L922.528 132.608L922.551 132.568C922.572 132.534 922.603 132.483 922.643 132.417C922.724 132.285 922.844 132.091 923 131.845C923.314 131.353 923.775 130.649 924.369 129.799C925.557 128.098 927.278 125.81 929.409 123.459C933.655 118.774 939.595 113.768 946.241 112.77L946.361 113.568C940.005 114.522 934.227 119.344 930.007 124C927.904 126.32 926.205 128.58 925.03 130.26C924.443 131.1 923.988 131.795 923.681 132.278C923.527 132.52 923.409 132.709 923.331 132.837C923.292 132.902 923.262 132.95 923.243 132.983L923.221 133.02L923.216 133.029L923.214 133.031Z" fill="#959DA8"/>
<path fill-rule="evenodd" clip-rule="evenodd" d="M965.139 139.237C965.139 139.237 965.139 139.237 964.746 139.327L964.519 139.378C964.353 139.416 964.353 139.416 964.353 139.416L964.352 139.413L964.35 139.403L964.34 139.362C964.331 139.325 964.318 139.269 964.3 139.196C964.264 139.05 964.21 138.835 964.137 138.557C963.99 138.003 963.767 137.203 963.463 136.225C962.854 134.267 961.92 131.598 960.62 128.75C958.011 123.033 953.967 116.686 948.195 113.852L948.551 113.128C954.586 116.091 958.728 122.663 961.354 128.415C962.671 131.301 963.617 134.004 964.233 135.985C964.541 136.976 964.767 137.787 964.917 138.351C964.991 138.633 965.047 138.854 965.083 139.004C965.102 139.079 965.116 139.137 965.125 139.176L965.135 139.221L965.138 139.233L965.139 139.237Z" fill="#959DA8"/>
<path d="M892.157 163.07V210.177H884.043L884.051 163.07H892.157Z" fill="#F4F5F6"/>
<path fill-rule="evenodd" clip-rule="evenodd" d="M883.649 162.667H892.561V210.581H883.641L883.649 162.667ZM884.456 163.473L884.447 209.774H891.755V163.473H884.456Z" fill="#959DA8"/>
<path d="M883.669 163.07V210.177H875.555L875.563 163.07H883.669Z" fill="#F4F5F6"/>
<path fill-rule="evenodd" clip-rule="evenodd" d="M875.161 162.667H884.073V210.581H875.152L875.161 162.667ZM875.967 163.473L875.959 209.774H883.267V163.473H875.967Z" fill="#959DA8"/>
<path d="M900.644 163.07H892.352V210.177H900.644V163.07Z" fill="#F4F5F6"/>
<path fill-rule="evenodd" clip-rule="evenodd" d="M891.949 162.667H901.048V210.581H891.949V162.667ZM892.756 163.473V209.774H900.242V163.473H892.756Z" fill="#959DA8"/>
<path d="M909.132 163.07H900.84V210.177H909.132V163.07Z" fill="#F4F5F6"/>
<path fill-rule="evenodd" clip-rule="evenodd" d="M900.438 162.667H909.537V210.581H900.438V162.667ZM901.244 163.473V209.774H908.73V163.473H901.244Z" fill="#959DA8"/>
<path d="M917.621 163.07H909.328V210.177H917.621V163.07Z" fill="#F4F5F6"/>
<path fill-rule="evenodd" clip-rule="evenodd" d="M908.926 162.667H918.025V210.581H908.926V162.667ZM909.732 163.473V209.774H917.218V163.473H909.732Z" fill="#959DA8"/>
<path d="M850.567 163.07V210.177H842.453L842.462 163.07H850.567Z" fill="#F4F5F6"/>
<path fill-rule="evenodd" clip-rule="evenodd" d="M842.059 162.667H850.972V210.581H842.051L842.059 162.667ZM842.866 163.473L842.857 209.774H850.165V163.473H842.866Z" fill="#959DA8"/>
<path d="M842.079 163.07V210.177H833.965L833.973 163.07H842.079Z" fill="#F4F5F6"/>
<path fill-rule="evenodd" clip-rule="evenodd" d="M833.571 162.667H842.483V210.581H833.562L833.571 162.667ZM834.377 163.473L834.369 209.774H841.677V163.473H834.377Z" fill="#959DA8"/>
<path d="M833.591 163.07V210.177H825.477L825.485 163.07H833.591Z" fill="#F4F5F6"/>
<path fill-rule="evenodd" clip-rule="evenodd" d="M825.083 162.667H833.995V210.581H825.074L825.083 162.667ZM825.889 163.473L825.881 209.774H833.189V163.473H825.889Z" fill="#959DA8"/>
<path d="M825.107 163.07V210.177H816.992L817.001 163.07H825.107Z" fill="#F4F5F6"/>
<path fill-rule="evenodd" clip-rule="evenodd" d="M816.595 162.667H825.507V210.581H816.586L816.595 162.667ZM817.401 163.473L817.393 209.774H824.7V163.473H817.401Z" fill="#959DA8"/>
<path d="M859.054 163.07H850.762V210.177H859.054V163.07Z" fill="#F4F5F6"/>
<path fill-rule="evenodd" clip-rule="evenodd" d="M850.355 162.667H859.454V210.581H850.355V162.667ZM851.162 163.473V209.774H858.648V163.473H851.162Z" fill="#959DA8"/>
<path d="M867.543 163.07H859.25V210.177H867.543V163.07Z" fill="#F4F5F6"/>
<path fill-rule="evenodd" clip-rule="evenodd" d="M858.848 162.667H867.947V210.581H858.848V162.667ZM859.654 163.473V209.774H867.14V163.473H859.654Z" fill="#959DA8"/>
<path d="M876.031 163.07H867.738V210.177H876.031V163.07Z" fill="#F4F5F6"/>
<path fill-rule="evenodd" clip-rule="evenodd" d="M867.336 162.667H876.435V210.581H867.336V162.667ZM868.142 163.473V209.774H875.629V163.473H868.142Z" fill="#959DA8"/>
<path d="M926.109 163.07H917.816V210.177H926.109V163.07Z" fill="#F4F5F6"/>
<path fill-rule="evenodd" clip-rule="evenodd" d="M917.41 162.667H926.509V210.581H917.41V162.667ZM918.217 163.473V209.774H925.703V163.473H918.217Z" fill="#959DA8"/>
<path d="M934.597 163.07H926.305V210.177H934.597V163.07Z" fill="#F4F5F6"/>
<path fill-rule="evenodd" clip-rule="evenodd" d="M925.902 162.667H935.001V210.581H925.902V162.667ZM926.709 163.473V209.774H934.195V163.473H926.709Z" fill="#959DA8"/>
<path d="M943.086 163.07H934.793V210.177H943.086V163.07Z" fill="#F4F5F6"/>
<path fill-rule="evenodd" clip-rule="evenodd" d="M934.391 162.667H943.49V210.581H934.391V162.667ZM935.197 163.473V209.774H942.683V163.473H935.197Z" fill="#959DA8"/>
<path d="M951.574 163.07H943.281V210.177H951.574V163.07Z" fill="#F4F5F6"/>
<path fill-rule="evenodd" clip-rule="evenodd" d="M942.875 162.667H951.974V210.581H942.875V162.667ZM943.681 163.473V209.774H951.168V163.473H943.681Z" fill="#959DA8"/>
<path d="M960.058 163.07H951.766V210.177H960.058V163.07Z" fill="#F4F5F6"/>
<path fill-rule="evenodd" clip-rule="evenodd" d="M951.363 162.667H960.462V210.581H951.363V162.667ZM952.17 163.473V209.774H959.656V163.473H952.17Z" fill="#959DA8"/>
<path d="M968.546 163.07H960.254V210.177H968.546V163.07Z" fill="#F4F5F6"/>
<path fill-rule="evenodd" clip-rule="evenodd" d="M959.852 162.667H968.951V210.581H959.852V162.667ZM960.658 163.473V209.774H968.144V163.473H960.658Z" fill="#959DA8"/>
<path fill-rule="evenodd" clip-rule="evenodd" d="M816.32 162.687H969.016V210.982H816.32V162.687ZM817.933 164.299V209.369H967.403V164.299H817.933Z" fill="#959DA8"/>
<path d="M338.686 375.687H302.316V459.401H338.686V375.687Z" fill="#D3DCE5"/>
<path d="M333.532 381.629H307.449V423.033H333.532V381.629Z" fill="white"/>
<path fill-rule="evenodd" clip-rule="evenodd" d="M307.027 381.206H333.957V423.456H307.027V381.206ZM307.874 382.053V422.609H333.11V382.053H307.874Z" fill="#959DA8"/>
<path d="M309.135 429.584C310.073 429.584 310.833 428.824 310.833 427.886C310.833 426.948 310.073 426.188 309.135 426.188C308.198 426.188 307.438 426.948 307.438 427.886C307.438 428.824 308.198 429.584 309.135 429.584Z" fill="white"/>
<path fill-rule="evenodd" clip-rule="evenodd" d="M309.136 426.592C308.421 426.592 307.842 427.171 307.842 427.886C307.842 428.601 308.421 429.18 309.136 429.18C309.851 429.18 310.43 428.601 310.43 427.886C310.43 427.171 309.851 426.592 309.136 426.592ZM307.035 427.886C307.035 426.726 307.976 425.785 309.136 425.785C310.296 425.785 311.237 426.726 311.237 427.886C311.237 429.046 310.296 429.987 309.136 429.987C307.976 429.987 307.035 429.046 307.035 427.886Z" fill="#959DA8"/>
<path d="M266.66 375.687H303.03V459.401H266.66V375.687Z" fill="#D3DCE5"/>
<path d="M271.812 423.03H297.895V381.626H271.812V423.03Z" fill="white"/>
<path fill-rule="evenodd" clip-rule="evenodd" d="M298.316 423.453H271.387V381.203H298.316V423.453ZM297.47 422.606V382.05H272.234V422.606H297.47Z" fill="#959DA8"/>
<path d="M296.213 429.584C297.151 429.584 297.911 428.824 297.911 427.886C297.911 426.948 297.151 426.188 296.213 426.188C295.276 426.188 294.516 426.948 294.516 427.886C294.516 428.824 295.276 429.584 296.213 429.584Z" fill="white"/>
<path fill-rule="evenodd" clip-rule="evenodd" d="M296.214 426.592C295.499 426.592 294.92 427.171 294.92 427.886C294.92 428.601 295.499 429.18 296.214 429.18C296.929 429.18 297.508 428.601 297.508 427.886C297.508 427.171 296.929 426.592 296.214 426.592ZM294.113 427.886C294.113 426.726 295.054 425.785 296.214 425.785C297.374 425.785 298.315 426.726 298.315 427.886C298.315 429.046 297.374 429.987 296.214 429.987C295.054 429.987 294.113 429.046 294.113 427.886Z" fill="#959DA8"/>
<path d="M353.694 465.122H253.793V473.414H353.694V465.122Z" fill="#D3DCE5"/>
<path fill-rule="evenodd" clip-rule="evenodd" d="M253.203 464.533H354.282V474.003H253.203V464.533ZM254.381 465.711V472.826H353.104V465.711H254.381Z" fill="#959DA8"/>
<path d="M353.694 456.846H253.793V465.139H353.694V456.846Z" fill="#D3DCE5"/>
<path fill-rule="evenodd" clip-rule="evenodd" d="M253.203 456.258H354.282V465.728H253.203V456.258ZM254.381 457.435V464.55H353.104V457.435H254.381Z" fill="#959DA8"/>
<path fill-rule="evenodd" clip-rule="evenodd" d="M1021.42 458.005V389.282H1023.15V458.005H1021.42Z" fill="#959DA8"/>
<path d="M1036.38 410.427H1008.18L1016.99 389.282H1027.56L1036.38 410.427Z" fill="#D3DCE5"/>
<path fill-rule="evenodd" clip-rule="evenodd" d="M1015.03 410.328L1019.99 389.183L1020.83 389.38L1015.87 410.525L1015.03 410.328Z" fill="#959DA8"/>
<path fill-rule="evenodd" clip-rule="evenodd" d="M1028.8 410.525L1023.84 389.38L1024.69 389.183L1029.65 410.328L1028.8 410.525Z" fill="#959DA8"/>
<path d="M986.068 419.864L984.616 419.596C983.499 421.157 983.023 423.086 983.285 424.988C983.343 425.379 983.548 425.733 983.858 425.978C984.168 426.222 984.561 426.339 984.954 426.304C985.348 426.268 985.713 426.084 985.975 425.787C986.236 425.491 986.375 425.106 986.362 424.711C986.411 423.09 986.312 421.467 986.068 419.864Z" fill="white"/>
<path fill-rule="evenodd" clip-rule="evenodd" d="M984.427 419.121L986.149 419.439L986.07 419.864L986.497 419.798C986.745 421.424 986.845 423.068 986.796 424.711C986.809 425.212 986.632 425.698 986.301 426.074C985.966 426.452 985.499 426.689 984.995 426.734C984.492 426.779 983.99 426.63 983.593 426.317C983.196 426.004 982.934 425.551 982.86 425.051L983.288 424.988L982.86 425.047C982.582 423.036 983.086 420.995 984.267 419.344L984.427 419.121ZM983.716 424.927C983.757 425.208 983.905 425.462 984.128 425.638C984.352 425.815 984.634 425.899 984.918 425.873C985.202 425.848 985.465 425.715 985.653 425.501C985.842 425.288 985.942 425.01 985.932 424.726L985.932 424.712L985.932 424.698C985.977 423.205 985.896 421.711 985.688 420.232L984.816 420.071C983.874 421.5 983.481 423.225 983.716 424.927Z" fill="#959DA8"/>
<path d="M990.344 417.185L990.733 415.76C992.624 415.43 994.569 415.838 996.168 416.9C996.495 417.122 996.725 417.459 996.811 417.845C996.896 418.23 996.831 418.634 996.629 418.973C996.427 419.312 996.103 419.561 995.723 419.669C995.343 419.777 994.937 419.735 994.587 419.553C993.104 418.894 991.683 418.101 990.344 417.185Z" fill="white"/>
<path fill-rule="evenodd" clip-rule="evenodd" d="M991.073 416.144L990.84 417C992.083 417.829 993.394 418.551 994.76 419.158L994.772 419.164L994.784 419.17C995.036 419.301 995.329 419.331 995.603 419.253C995.877 419.175 996.11 418.996 996.256 418.752C996.402 418.507 996.448 418.216 996.387 417.939C996.325 417.662 996.16 417.419 995.925 417.259C994.494 416.31 992.769 415.915 991.073 416.144ZM996.166 416.9L996.405 416.54C994.713 415.417 992.656 414.986 990.656 415.334L990.386 415.381L989.844 417.368L990.098 417.542C991.455 418.47 992.895 419.274 994.397 419.943C994.843 420.17 995.358 420.221 995.839 420.084C996.325 419.946 996.74 419.628 996.998 419.194C997.257 418.76 997.34 418.244 997.23 417.751C997.12 417.258 996.826 416.826 996.408 416.542L996.166 416.9Z" fill="#959DA8"/>
<path d="M994.697 420.27C995.263 421.277 995.42 422.463 995.135 423.583C994.85 424.703 994.146 425.67 993.168 426.285C992.19 426.9 991.013 427.116 989.881 426.887C988.749 426.658 987.747 426.003 987.084 425.057C985.84 423.07 985.296 418.429 987.396 417.107C989.495 415.785 993.453 418.282 994.697 420.27Z" fill="white"/>
<path fill-rule="evenodd" clip-rule="evenodd" d="M989.196 417.193C988.575 417.122 988.042 417.21 987.624 417.473C987.207 417.736 986.897 418.178 986.693 418.769C986.489 419.359 986.402 420.072 986.416 420.825C986.444 422.335 986.875 423.905 987.443 424.818C988.042 425.669 988.945 426.258 989.965 426.463C990.989 426.67 992.053 426.475 992.937 425.919C993.821 425.363 994.457 424.489 994.715 423.477C994.971 422.468 994.831 421.399 994.324 420.49C993.751 419.581 992.523 418.513 991.172 417.833C990.499 417.495 989.818 417.265 989.196 417.193ZM991.56 417.061C993.019 417.795 994.388 418.964 995.062 420.041L995.067 420.049L995.072 420.058C995.692 421.162 995.864 422.462 995.552 423.69C995.24 424.917 994.468 425.977 993.397 426.651C992.325 427.325 991.035 427.561 989.794 427.31C988.553 427.06 987.455 426.342 986.729 425.305L986.723 425.296L986.717 425.286C986.043 424.211 985.583 422.473 985.552 420.841C985.537 420.02 985.63 419.2 985.876 418.487C986.122 417.773 986.531 417.14 987.164 416.742C987.796 416.343 988.545 416.248 989.295 416.335C990.045 416.422 990.825 416.692 991.56 417.061Z" fill="#959DA8"/>
<path d="M982.76 416.447C983.588 415.926 983.838 414.833 983.317 414.004C982.797 413.176 981.703 412.927 980.875 413.447C980.046 413.968 979.797 415.061 980.318 415.89C980.838 416.718 981.932 416.968 982.76 416.447Z" fill="white"/>
<path fill-rule="evenodd" clip-rule="evenodd" d="M981.107 413.813C980.48 414.207 980.292 415.034 980.685 415.66C981.079 416.286 981.906 416.475 982.532 416.081C983.158 415.688 983.347 414.861 982.953 414.234C982.56 413.608 981.733 413.42 981.107 413.813ZM979.954 416.12C979.306 415.089 979.616 413.729 980.647 413.082C981.677 412.434 983.037 412.744 983.685 413.775C984.333 414.805 984.022 416.165 982.992 416.813C981.962 417.46 980.601 417.15 979.954 416.12Z" fill="#959DA8"/>
<path d="M991.024 416.468C991.856 415.949 992.109 414.855 991.591 414.023C991.072 413.191 989.978 412.938 989.146 413.456C988.315 413.975 988.061 415.069 988.579 415.901C989.098 416.732 990.193 416.986 991.024 416.468Z" fill="white"/>
<path fill-rule="evenodd" clip-rule="evenodd" d="M989.378 413.823C988.749 414.215 988.557 415.043 988.949 415.672C989.341 416.301 990.169 416.492 990.798 416.1C991.426 415.708 991.618 414.881 991.226 414.252C990.834 413.623 990.007 413.431 989.378 413.823ZM988.215 416.13C987.57 415.095 987.885 413.734 988.92 413.089C989.954 412.444 991.316 412.76 991.961 413.794C992.606 414.828 992.29 416.19 991.256 416.835C990.221 417.48 988.86 417.164 988.215 416.13Z" fill="#959DA8"/>
<path d="M988.761 419.266C990.862 417.945 991.555 415.266 990.308 413.283C989.061 411.299 986.347 410.761 984.246 412.081C982.145 413.402 981.452 416.081 982.699 418.065C983.946 420.049 986.66 420.586 988.761 419.266Z" fill="white"/>
<path fill-rule="evenodd" clip-rule="evenodd" d="M984.478 412.447C982.559 413.653 981.959 416.072 983.067 417.835C984.175 419.597 986.614 420.106 988.533 418.9C990.453 417.694 991.052 415.275 989.944 413.512C988.836 411.75 986.397 411.241 984.478 412.447ZM982.335 418.295C980.949 416.089 981.735 413.151 984.018 411.716C986.301 410.281 989.29 410.847 990.676 413.053C992.062 415.258 991.276 418.197 988.993 419.632C986.71 421.067 983.722 420.5 982.335 418.295Z" fill="#959DA8"/>
<path d="M991.458 428.496C991.767 427.437 991.022 426.289 989.794 425.931C988.566 425.573 987.321 426.14 987.012 427.199C986.703 428.257 987.448 429.405 988.676 429.763C989.904 430.121 991.15 429.554 991.458 428.496Z" fill="white"/>
<path fill-rule="evenodd" clip-rule="evenodd" d="M987.439 427.322C987.215 428.09 987.748 429.032 988.803 429.34C989.859 429.648 990.815 429.14 991.039 428.372C991.263 427.604 990.73 426.662 989.674 426.354C988.619 426.046 987.663 426.554 987.439 427.322ZM988.556 430.186C987.156 429.778 986.199 428.424 986.592 427.075C986.986 425.727 988.521 425.099 989.921 425.508C991.321 425.916 992.278 427.27 991.885 428.619C991.492 429.968 989.957 430.595 988.556 430.186Z" fill="#959DA8"/>
<path d="M997.803 423.985C998.013 422.723 997.301 421.554 996.214 421.373C995.126 421.192 994.075 422.068 993.865 423.329C993.655 424.591 994.366 425.761 995.453 425.942C996.541 426.123 997.593 425.247 997.803 423.985Z" fill="white"/>
<path fill-rule="evenodd" clip-rule="evenodd" d="M994.292 423.4C994.111 424.488 994.731 425.383 995.525 425.515C996.32 425.648 997.196 425.002 997.378 423.914C997.559 422.826 996.939 421.931 996.144 421.799C995.349 421.667 994.473 422.312 994.292 423.4ZM995.383 426.368C994.003 426.138 993.201 424.694 993.439 423.258C993.678 421.823 994.906 420.717 996.286 420.947C997.666 421.176 998.469 422.62 998.23 424.056C997.991 425.491 996.764 426.598 995.383 426.368Z" fill="#959DA8"/>
<path fill-rule="evenodd" clip-rule="evenodd" d="M986.2 417.979C986.016 418.396 986.013 418.801 986.207 419.109C986.401 419.418 986.767 419.591 987.223 419.607C987.678 419.622 988.21 419.478 988.707 419.166C989.205 418.853 989.565 418.436 989.748 418.019C989.932 417.602 989.934 417.197 989.741 416.888C989.547 416.58 989.181 416.407 988.725 416.391C988.27 416.376 987.738 416.519 987.241 416.832C986.743 417.145 986.383 417.562 986.2 417.979ZM986.002 417.892C986.205 417.43 986.597 416.982 987.126 416.649C987.655 416.317 988.229 416.158 988.732 416.175C989.235 416.192 989.681 416.387 989.924 416.774C990.167 417.16 990.149 417.646 989.946 418.106C989.743 418.568 989.351 419.016 988.822 419.349C988.293 419.681 987.719 419.84 987.215 419.823C986.713 419.805 986.267 419.611 986.024 419.224C985.781 418.838 985.799 418.352 986.002 417.892Z" fill="#959DA8"/>
<path d="M985.111 416.637C985.163 416.409 985.021 416.182 984.793 416.13C984.565 416.078 984.338 416.221 984.286 416.449C984.234 416.677 984.376 416.904 984.604 416.956C984.832 417.008 985.059 416.865 985.111 416.637Z" fill="#959DA8"/>
<path d="M988.1 414.834C988.27 414.727 988.321 414.503 988.214 414.334C988.107 414.164 987.883 414.113 987.714 414.219C987.544 414.326 987.493 414.55 987.599 414.72C987.706 414.89 987.93 414.941 988.1 414.834Z" fill="#959DA8"/>
<path d="M988.035 418.091C988.278 417.939 988.378 417.661 988.258 417.471C988.139 417.282 987.846 417.251 987.603 417.403C987.361 417.556 987.261 417.833 987.38 418.023C987.5 418.213 987.793 418.244 988.035 418.091Z" fill="#959DA8"/>
<path fill-rule="evenodd" clip-rule="evenodd" d="M988.237 418.589L987.969 418.166L988.151 418.05L988.419 418.474L988.237 418.589Z" fill="#959DA8"/>
<path fill-rule="evenodd" clip-rule="evenodd" d="M988.945 418.097C988.634 418.501 988.189 418.782 987.689 418.888L987.645 418.677C988.094 418.581 988.494 418.329 988.774 417.965L988.945 418.097Z" fill="#959DA8"/>
<path d="M1010.66 424.046H981.578V448.12H1010.66V424.046Z" fill="#F4F5F6"/>
<path fill-rule="evenodd" clip-rule="evenodd" d="M980.715 423.182H1011.52V448.985H980.715V423.182ZM982.443 424.91V447.256H1009.79V424.91H982.443Z" fill="#959DA8"/>
<path fill-rule="evenodd" clip-rule="evenodd" d="M1000.63 424.046V448.12H999.766V424.046H1000.63Z" fill="#959DA8"/>
<path d="M980.721 423.286L973.895 429.197H994.374L1000.22 423.286H980.721Z" fill="#D3DCE5"/>
<path d="M1016.76 428.29H1005.34L1000.23 423.286H1011.63L1016.76 428.29Z" fill="#D3DCE5"/>
<path d="M1002.02 448.121H972.945V472.195H1002.02V448.121Z" fill="#F4F5F6"/>
<path fill-rule="evenodd" clip-rule="evenodd" d="M972.082 447.257H1002.89V473.059H972.082V447.257ZM973.81 448.985V471.331H1001.16V448.985H973.81Z" fill="#959DA8"/>
<path fill-rule="evenodd" clip-rule="evenodd" d="M991.997 448.751V472.204H991.133V448.751H991.997Z" fill="#959DA8"/>
<path d="M1031.1 448.121H1002.02V472.195H1031.1V448.121Z" fill="#F4F5F6"/>
<path fill-rule="evenodd" clip-rule="evenodd" d="M1001.16 447.257H1031.97V473.059H1001.16V447.257ZM1002.89 448.985V471.331H1030.24V448.985H1002.89Z" fill="#959DA8"/>
<path fill-rule="evenodd" clip-rule="evenodd" d="M1026.07 448.121V472.204H1025.21V448.121H1026.07Z" fill="#959DA8"/>
<path d="M966.38 472.616H947.43L961.074 446.84H980.024L966.38 472.616Z" fill="#F4F5F6"/>
<path fill-rule="evenodd" clip-rule="evenodd" d="M960.551 445.976H981.457L966.898 473.481H945.992L960.551 445.976ZM961.592 447.704L948.862 471.752H965.857L978.587 447.704H961.592Z" fill="#959DA8"/>
<path d="M963.346 452.491C964.408 450.859 964.783 449.219 964.183 448.829C963.583 448.438 962.236 449.445 961.173 451.077C960.111 452.708 959.736 454.348 960.336 454.738C960.936 455.129 962.284 454.123 963.346 452.491Z" fill="#D3DCE5"/>
<path d="M966.669 464.957C969.262 460.973 970.181 456.974 968.721 456.023C967.261 455.073 963.976 457.532 961.383 461.516C958.79 465.5 957.871 469.499 959.331 470.45C960.791 471.4 964.076 468.941 966.669 464.957Z" fill="#D3DCE5"/>
<path fill-rule="evenodd" clip-rule="evenodd" d="M966.801 449.287V461.489H956.633L966.801 449.287ZM958.478 460.625H965.937V451.674L958.478 460.625Z" fill="#959DA8"/>
<line x1="1.53125" y1="474.002" x2="1298.47" y2="474.002" stroke="#D9DDE2" stroke-width="1.99528" stroke-miterlimit="10"/>
</g>
</svg>
