<svg width="756" height="467" viewBox="0 0 756 467" fill="none" xmlns="http://www.w3.org/2000/svg">
<path d="M669.402 0H188.361V15.9381H669.402V0Z" fill="#D3DCE5"/>
<path d="M143.567 308.981C143.323 308.98 143.08 308.954 142.842 308.901C131.743 306.373 131.743 292.963 131.743 292.963C131.66 285.315 133.917 277.825 138.213 271.497C138.814 270.635 139.614 269.93 140.545 269.444C141.477 268.958 142.512 268.704 143.563 268.704C144.614 268.704 145.649 268.958 146.581 269.444C147.512 269.93 148.313 270.635 148.913 271.497C153.212 277.824 155.472 285.314 155.39 292.963C155.39 292.963 155.39 306.423 144.291 308.901C144.053 308.954 143.81 308.98 143.567 308.981Z" fill="#80C33F"/>
<path fill-rule="evenodd" clip-rule="evenodd" d="M143.564 283.147C143.764 283.147 143.926 283.31 143.926 283.51V329.223C143.926 329.423 143.764 329.585 143.564 329.585C143.364 329.585 143.202 329.423 143.202 329.223V283.51C143.202 283.31 143.364 283.147 143.564 283.147Z" fill="#2A3A51"/>
<path d="M701.4 99.6134C701.156 99.6133 700.914 99.5866 700.676 99.5337C689.577 97.0054 689.577 83.5956 689.577 83.5956C689.493 75.9479 691.751 68.4575 696.046 62.1299C696.647 61.2676 697.447 60.5632 698.379 60.0768C699.31 59.5904 700.346 59.3364 701.397 59.3364C702.447 59.3364 703.483 59.5904 704.414 60.0768C705.346 60.5632 706.146 61.2676 706.747 62.1299C711.045 68.4567 713.305 75.9471 713.223 83.5956C713.223 83.5956 713.223 97.0561 702.125 99.5337C701.887 99.5866 701.644 99.6133 701.4 99.6134Z" fill="#80C33F"/>
<path fill-rule="evenodd" clip-rule="evenodd" d="M701.399 73.7783C701.599 73.7783 701.762 73.9405 701.762 74.1406V119.854C701.762 120.054 701.599 120.216 701.399 120.216C701.199 120.216 701.037 120.054 701.037 119.854V74.1406C701.037 73.9405 701.199 73.7783 701.399 73.7783Z" fill="#2A3A51"/>
<path d="M669.401 311.011C669.394 309.398 669.776 307.808 670.514 306.374C671.252 304.94 672.324 303.705 673.64 302.774C674.957 301.842 676.478 301.241 678.075 301.022C679.673 300.802 681.299 300.971 682.818 301.513C683.405 299.15 684.594 296.979 686.268 295.211C687.943 293.443 690.047 292.139 692.375 291.426C694.703 290.713 697.177 290.614 699.554 291.14C701.932 291.666 704.133 292.799 705.943 294.428C707.221 290.852 709.72 287.843 713 285.929C716.279 284.016 720.129 283.321 723.87 283.966C727.612 284.612 731.006 286.558 733.454 289.46C735.902 292.362 737.248 296.035 737.254 299.832C737.256 300.394 737.227 300.955 737.167 301.513C738.254 301.114 737.754 312.807 737.5 313.691H669.763C669.52 312.811 669.398 311.902 669.401 310.989V311.011Z" fill="#80C33F"/>
<path d="M233.278 105.263C233.285 103.651 232.903 102.06 232.165 100.627C231.427 99.1928 230.355 97.9579 229.039 97.0263C227.723 96.0947 226.202 95.4937 224.604 95.2742C223.007 95.0547 221.38 95.2232 219.861 95.7653C219.274 93.4021 218.086 91.231 216.411 89.4634C214.736 87.6958 212.632 86.3919 210.304 85.6785C207.976 84.9652 205.503 84.8667 203.125 85.3927C200.748 85.9187 198.547 87.0512 196.737 88.6801C195.458 85.1049 192.959 82.0955 189.68 80.1818C186.4 78.2682 182.551 77.5731 178.809 78.2189C175.067 78.8647 171.674 80.8101 169.225 83.7123C166.777 86.6146 165.432 90.2876 165.425 94.0846C165.423 94.646 165.452 95.2071 165.512 95.7653C164.426 95.3669 164.926 107.06 165.179 107.943H232.916C233.159 107.063 233.281 106.154 233.278 105.241V105.263Z" fill="#80C33F"/>
<path d="M636.279 20.7579L223.404 21.9829L223.727 130.999L636.602 129.774L636.279 20.7579Z" fill="white"/>
<path fill-rule="evenodd" clip-rule="evenodd" d="M222.986 21.5674L636.694 20.3399L637.02 130.189L223.312 131.417L222.986 21.5674ZM223.821 22.398L224.142 130.581L636.184 129.359L635.863 21.1755L223.821 22.398Z" fill="#959DA8"/>
<path d="M505.505 15.5062L637.523 15.5134V27.2714H222.408V15.4917L505.505 15.5062Z" fill="#F4F5F6"/>
<path fill-rule="evenodd" clip-rule="evenodd" d="M222.045 15.1294L637.885 15.1512V27.6336H222.045V15.1294ZM222.77 15.8539V26.9091H637.161V15.8756L222.77 15.8539Z" fill="#959DA8"/>
<path d="M637.523 27.2756V39.0336H222.408V27.2539L505.505 27.2684L637.523 27.2756Z" fill="#F4F5F6"/>
<path fill-rule="evenodd" clip-rule="evenodd" d="M222.045 26.8916L637.885 26.9134V39.3958H222.045V26.8916ZM222.77 27.6161V38.6713H637.161V27.6378L222.77 27.6161Z" fill="#959DA8"/>
<path d="M562.107 39.0321H637.523V50.7973H222.408V39.0176H224.4L562.107 39.0321Z" fill="#F4F5F6"/>
<path fill-rule="evenodd" clip-rule="evenodd" d="M222.045 38.6558L637.885 38.6703V51.1599H222.045V38.6558ZM222.77 39.3802V50.4355H637.161V39.3947L222.77 39.3802Z" fill="#959DA8"/>
<path d="M224.4 50.4717L637.523 50.4934V62.2514H222.408V50.4717H224.4Z" fill="#F4F5F6"/>
<path fill-rule="evenodd" clip-rule="evenodd" d="M222.045 50.1094L637.885 50.1311V62.6135H222.045V50.1094ZM222.77 50.8338V61.8891H637.161V50.8555L222.77 50.8338Z" fill="#959DA8"/>
<path d="M637.523 62.2503V74.0155H222.408V62.2358L562.107 62.2503H637.523Z" fill="#F4F5F6"/>
<path fill-rule="evenodd" clip-rule="evenodd" d="M222.045 61.8735L637.885 61.888V74.3777H222.045V61.8735ZM222.77 62.598V73.6533H637.161V62.6125L222.77 62.598Z" fill="#959DA8"/>
<path d="M637.523 74.0189V85.7769H222.408V74.0044L562.107 74.0189H637.523Z" fill="#F4F5F6"/>
<path fill-rule="evenodd" clip-rule="evenodd" d="M222.045 73.6421L637.885 73.6566V86.139H222.045V73.6421ZM222.77 74.3666V85.4146H637.161V74.3811L222.77 74.3666Z" fill="#959DA8"/>
<path d="M637.523 85.7859V97.5439H222.408V85.7642L505.505 85.7787L637.523 85.7859Z" fill="#F4F5F6"/>
<path fill-rule="evenodd" clip-rule="evenodd" d="M222.045 85.4023L637.885 85.4241V97.9065H222.045V85.4023ZM222.77 86.1268V97.1821H637.161V86.1485L222.77 86.1268Z" fill="#959DA8"/>
<path d="M637.523 97.5505V109.309H222.408V97.5288L505.505 97.5433L637.523 97.5505Z" fill="#F4F5F6"/>
<path fill-rule="evenodd" clip-rule="evenodd" d="M222.045 97.166L637.885 97.1878V109.67H222.045V97.166ZM222.77 97.8905V108.946H637.161V97.9122L222.77 97.8905Z" fill="#959DA8"/>
<path d="M562.107 109.307H637.523V121.072H222.408V109.292H224.4L562.107 109.307Z" fill="#F4F5F6"/>
<path fill-rule="evenodd" clip-rule="evenodd" d="M222.045 108.931L637.885 108.945V121.435H222.045V108.931ZM222.77 109.655V120.71H637.161V109.67L222.77 109.655Z" fill="#959DA8"/>
<path d="M224.4 120.747L637.523 120.768V132.526H222.408V120.747H224.4Z" fill="#F4F5F6"/>
<path fill-rule="evenodd" clip-rule="evenodd" d="M222.045 120.384L637.885 120.406V132.888H222.045V120.384ZM222.77 121.109V132.164H637.161V121.13L222.77 121.109Z" fill="#959DA8"/>
<path d="M637.043 240.975L222.654 242.205L222.987 354.495L637.376 353.266L637.043 240.975Z" fill="white"/>
<path fill-rule="evenodd" clip-rule="evenodd" d="M222.229 241.782L637.465 240.55L637.801 353.688L222.564 354.92L222.229 241.782ZM223.079 242.627L223.409 354.07L636.951 352.843L636.62 241.4L223.079 242.627Z" fill="#959DA8"/>
<path d="M222.561 48.542H331.954V131.051H222.561V48.542Z" fill="white"/>
<path fill-rule="evenodd" clip-rule="evenodd" d="M222.199 48.1802H332.317V131.413H222.199V48.1802ZM222.923 48.9046V130.689H331.592V48.9046H222.923Z" fill="#959DA8"/>
<path fill-rule="evenodd" clip-rule="evenodd" d="M276.868 130.403V49.0898H277.592V130.403H276.868Z" fill="#959DA8"/>
<path d="M222.561 254.288H332.679V343.396H222.561V254.288Z" fill="white"/>
<path fill-rule="evenodd" clip-rule="evenodd" d="M222.199 253.926H333.041V343.759H222.199V253.926ZM222.923 254.65V343.034H332.317V254.65H222.923Z" fill="#959DA8"/>
<path fill-rule="evenodd" clip-rule="evenodd" d="M277.592 342.683V254.878H278.316V342.683H277.592Z" fill="#959DA8"/>
<path d="M528.284 254.288H637.678V343.396H528.284V254.288Z" fill="white"/>
<path fill-rule="evenodd" clip-rule="evenodd" d="M527.922 253.926H638.04V343.759H527.922V253.926ZM528.646 254.65V343.034H637.315V254.65H528.646Z" fill="#959DA8"/>
<path fill-rule="evenodd" clip-rule="evenodd" d="M582.574 342.683V254.878H583.328V342.683H582.574Z" fill="#959DA8"/>
<path d="M222.561 365.124H331.954V466.548H222.561V365.124Z" fill="white"/>
<path fill-rule="evenodd" clip-rule="evenodd" d="M222.199 364.762H332.317V466.911H222.199V364.762ZM222.923 365.486V466.186H331.592V365.486H222.923Z" fill="#959DA8"/>
<path fill-rule="evenodd" clip-rule="evenodd" d="M276.868 465.74V365.801H277.592V465.74H276.868Z" fill="#959DA8"/>
<path d="M205.174 145.616H314.568V228.124H205.174V145.616Z" fill="white"/>
<path fill-rule="evenodd" clip-rule="evenodd" d="M204.812 145.254H314.93V228.487H204.812V145.254ZM205.536 145.978V227.763H314.205V145.978H205.536Z" fill="#959DA8"/>
<path fill-rule="evenodd" clip-rule="evenodd" d="M289.906 227.481V146.168H290.631V227.481H289.906Z" fill="#959DA8"/>
<path fill-rule="evenodd" clip-rule="evenodd" d="M259.481 227.481V146.168H260.205V227.481H259.481Z" fill="#959DA8"/>
<path fill-rule="evenodd" clip-rule="evenodd" d="M229.052 227.481V146.168H229.777V227.481H229.052Z" fill="#959DA8"/>
<path d="M528.284 48.542H637.678V131.051H528.284V48.542Z" fill="white"/>
<path fill-rule="evenodd" clip-rule="evenodd" d="M527.922 48.1802H638.04V131.413H527.922V48.1802ZM528.646 48.9046V130.689H637.315V48.9046H528.646Z" fill="#959DA8"/>
<path fill-rule="evenodd" clip-rule="evenodd" d="M582.588 130.403V49.0898H583.313V130.403H582.588Z" fill="#959DA8"/>
<path d="M157.934 131.127V242.694H350.64V466.552H510.021V242.694H702.003V131.127H157.934Z" fill="#F4F5F6"/>
<path fill-rule="evenodd" clip-rule="evenodd" d="M157.21 130.402H702.728V243.418H510.746V467.276H349.916V243.418H157.21V130.402ZM158.659 131.851V241.969H351.365V465.827H509.297V241.969H701.279V131.851H158.659Z" fill="#959DA8"/>
<path d="M187.062 147.789H296.455V230.298H187.062V147.789Z" fill="white"/>
<path fill-rule="evenodd" clip-rule="evenodd" d="M186.699 147.427H296.817V230.66H186.699V147.427ZM187.423 148.151V229.935H296.092V148.151H187.423Z" fill="#959DA8"/>
<path fill-rule="evenodd" clip-rule="evenodd" d="M270.346 229.654V148.341H271.071V229.654H270.346Z" fill="#959DA8"/>
<path fill-rule="evenodd" clip-rule="evenodd" d="M241.368 229.654V148.341H242.093V229.654H241.368Z" fill="#959DA8"/>
<path fill-rule="evenodd" clip-rule="evenodd" d="M212.392 229.654V148.341H213.117V229.654H212.392Z" fill="#959DA8"/>
<path d="M375.422 147.789H484.816V230.298H375.422V147.789Z" fill="white"/>
<path fill-rule="evenodd" clip-rule="evenodd" d="M375.06 147.427H485.178V230.66H375.06V147.427ZM375.785 148.151V229.935H484.453V148.151H375.785Z" fill="#959DA8"/>
<path fill-rule="evenodd" clip-rule="evenodd" d="M458.705 230.379V147.617H459.43V230.379H458.705Z" fill="#959DA8"/>
<path fill-rule="evenodd" clip-rule="evenodd" d="M429.729 230.379V147.617H430.453V230.379H429.729Z" fill="#959DA8"/>
<path fill-rule="evenodd" clip-rule="evenodd" d="M400.749 230.379V147.617H401.473V230.379H400.749Z" fill="#959DA8"/>
<path d="M323.502 147.789H348.344V230.298H323.502V147.789Z" fill="white"/>
<path fill-rule="evenodd" clip-rule="evenodd" d="M323.14 147.427H348.706V230.66H323.14V147.427ZM323.865 148.151V229.935H347.982V148.151H323.865Z" fill="#959DA8"/>
<path d="M511.859 147.789H536.701V230.298H511.859V147.789Z" fill="white"/>
<path fill-rule="evenodd" clip-rule="evenodd" d="M511.497 147.427H537.063V230.66H511.497V147.427ZM512.221 148.151V229.935H536.338V148.151H512.221Z" fill="#959DA8"/>
<path d="M418.402 254.288H443.244V336.152H418.402V254.288Z" fill="white"/>
<path fill-rule="evenodd" clip-rule="evenodd" d="M418.041 253.926H443.607V336.514H418.041V253.926ZM418.765 254.65V335.79H442.882V254.65H418.765Z" fill="#959DA8"/>
<path d="M418.402 367.299H443.244V449.163H418.402V367.299Z" fill="white"/>
<path fill-rule="evenodd" clip-rule="evenodd" d="M418.041 366.937H443.607V449.525H418.041V366.937ZM418.765 367.661V448.801H442.882V367.661H418.765Z" fill="#959DA8"/>
<path d="M532.869 367.299H557.711V449.163H532.869V367.299Z" fill="white"/>
<path fill-rule="evenodd" clip-rule="evenodd" d="M532.507 366.937H558.074V449.525H532.507V366.937ZM533.232 367.661V448.801H557.349V367.661H533.232Z" fill="#959DA8"/>
<path d="M659.65 367.299H684.492V449.163H659.65V367.299Z" fill="white"/>
<path fill-rule="evenodd" clip-rule="evenodd" d="M659.288 366.937H684.854V449.525H659.288V366.937ZM660.012 367.661V448.801H684.129V367.661H660.012Z" fill="#959DA8"/>
<path d="M563.784 147.789H673.177V230.298H563.784V147.789Z" fill="white"/>
<path fill-rule="evenodd" clip-rule="evenodd" d="M563.421 147.427H673.539V230.66H563.421V147.427ZM564.146 148.151V229.935H672.815V148.151H564.146Z" fill="#959DA8"/>
<path fill-rule="evenodd" clip-rule="evenodd" d="M647.066 230.379V147.617H647.791V230.379H647.066Z" fill="#959DA8"/>
<path fill-rule="evenodd" clip-rule="evenodd" d="M618.086 230.379V147.617H618.81V230.379H618.086Z" fill="#959DA8"/>
<path fill-rule="evenodd" clip-rule="evenodd" d="M589.108 230.379V147.617H589.832V230.379H589.108Z" fill="#959DA8"/>
<path d="M651.58 90.9189V131.126H644.654L644.662 90.9189H651.58Z" fill="#F4F5F6"/>
<path fill-rule="evenodd" clip-rule="evenodd" d="M644.299 90.5566H651.942V131.489H644.292L644.299 90.5566ZM645.024 91.2811L645.017 130.764H651.218V91.2811H645.024Z" fill="#959DA8"/>
<path d="M644.335 90.9189V131.126H637.409L637.416 90.9189H644.335Z" fill="#F4F5F6"/>
<path fill-rule="evenodd" clip-rule="evenodd" d="M637.054 90.5566H644.697V131.489H637.046L637.054 90.5566ZM637.778 91.2811L637.771 130.764H643.972V91.2811H637.778Z" fill="#959DA8"/>
<path d="M658.825 90.9189H651.747V131.126H658.825V90.9189Z" fill="#F4F5F6"/>
<path fill-rule="evenodd" clip-rule="evenodd" d="M651.384 90.5566H659.187V131.489H651.384V90.5566ZM652.109 91.2811V130.764H658.462V91.2811H652.109Z" fill="#959DA8"/>
<path d="M666.068 90.9189H658.99V131.126H666.068V90.9189Z" fill="#F4F5F6"/>
<path fill-rule="evenodd" clip-rule="evenodd" d="M658.628 90.5566H666.43V131.489H658.628V90.5566ZM659.352 91.2811V130.764H665.706V91.2811H659.352Z" fill="#959DA8"/>
<path d="M673.314 90.9189H666.236V131.126H673.314V90.9189Z" fill="#F4F5F6"/>
<path fill-rule="evenodd" clip-rule="evenodd" d="M665.874 90.5566H673.676V131.489H665.874V90.5566ZM666.598 91.2811V130.764H672.952V91.2811H666.598Z" fill="#959DA8"/>
<path d="M680.557 90.9189H673.479V131.126H680.557V90.9189Z" fill="#F4F5F6"/>
<path fill-rule="evenodd" clip-rule="evenodd" d="M673.117 90.5566H680.92V131.489H673.117V90.5566ZM673.842 91.2811V130.764H680.195V91.2811H673.842Z" fill="#959DA8"/>
<path d="M687.803 90.9189H680.725V131.126H687.803V90.9189Z" fill="#F4F5F6"/>
<path fill-rule="evenodd" clip-rule="evenodd" d="M680.363 90.5566H688.165V131.489H680.363V90.5566ZM681.087 91.2811V130.764H687.441V91.2811H681.087Z" fill="#959DA8"/>
<path d="M695.047 90.9189H687.969V131.126H695.047V90.9189Z" fill="#F4F5F6"/>
<path fill-rule="evenodd" clip-rule="evenodd" d="M687.606 90.5566H695.409V131.489H687.606V90.5566ZM688.331 91.2811V130.764H694.684V91.2811H688.331Z" fill="#959DA8"/>
<path d="M702.29 90.9189H695.212V131.126H702.29V90.9189Z" fill="#F4F5F6"/>
<path fill-rule="evenodd" clip-rule="evenodd" d="M694.85 90.5566H702.653V131.489H694.85V90.5566ZM695.575 91.2811V130.764H701.928V91.2811H695.575Z" fill="#959DA8"/>
<path d="M709.536 90.9189H702.458V131.126H709.536V90.9189Z" fill="#F4F5F6"/>
<path fill-rule="evenodd" clip-rule="evenodd" d="M702.096 90.5566H709.898V131.489H702.096V90.5566ZM702.82 91.2811V130.764H709.174V91.2811H702.82Z" fill="#959DA8"/>
<path d="M716.779 90.9189H709.701V131.126H716.779V90.9189Z" fill="#F4F5F6"/>
<path fill-rule="evenodd" clip-rule="evenodd" d="M709.339 90.5566H717.141V131.489H709.339V90.5566ZM710.063 91.2811V130.764H716.417V91.2811H710.063Z" fill="#959DA8"/>
<path fill-rule="evenodd" clip-rule="evenodd" d="M636.999 90.5586H717.218V131.853H636.999V90.5586ZM638.448 92.0075V130.404H715.77V92.0075H638.448Z" fill="#959DA8"/>
<path d="M106.495 242.694V254.285H332.526V343.394H106.495V354.985H350.637V242.694H106.495Z" fill="#D3DCE5"/>
<path fill-rule="evenodd" clip-rule="evenodd" d="M114.952 343.393V254.835H116.401V343.393H114.952Z" fill="#959DA8"/>
<path d="M754.163 242.694V254.285H528.132V343.394H754.163V354.985H510.02V242.694H754.163Z" fill="#D3DCE5"/>
<path fill-rule="evenodd" clip-rule="evenodd" d="M744.259 343.393V254.835H745.708V343.393H744.259Z" fill="#959DA8"/>
<path d="M285.727 303.188V343.395H278.801L278.809 303.188H285.727Z" fill="#F4F5F6"/>
<path fill-rule="evenodd" clip-rule="evenodd" d="M278.447 302.826H286.09V343.758H278.439L278.447 302.826ZM279.171 303.55L279.164 343.033H285.365V303.55H279.171Z" fill="#959DA8"/>
<path d="M278.483 303.188V343.395H271.558L271.565 303.188H278.483Z" fill="#F4F5F6"/>
<path fill-rule="evenodd" clip-rule="evenodd" d="M271.203 302.826H278.846V343.758H271.196L271.203 302.826ZM271.928 303.55L271.92 343.033H278.122V303.55H271.928Z" fill="#959DA8"/>
<path d="M292.97 303.188H285.892V343.395H292.97V303.188Z" fill="#F4F5F6"/>
<path fill-rule="evenodd" clip-rule="evenodd" d="M285.53 302.826H293.332V343.758H285.53V302.826ZM286.254 303.55V343.033H292.608V303.55H286.254Z" fill="#959DA8"/>
<path d="M300.215 303.188H293.137V343.395H300.215V303.188Z" fill="#F4F5F6"/>
<path fill-rule="evenodd" clip-rule="evenodd" d="M292.775 302.826H300.578V343.758H292.775V302.826ZM293.5 303.55V343.033H299.853V303.55H293.5Z" fill="#959DA8"/>
<path d="M307.459 303.188H300.381V343.395H307.459V303.188Z" fill="#F4F5F6"/>
<path fill-rule="evenodd" clip-rule="evenodd" d="M300.019 302.826H307.821V343.758H300.019V302.826ZM300.743 303.55V343.033H307.097V303.55H300.743Z" fill="#959DA8"/>
<path d="M314.702 303.188H307.625V343.395H314.702V303.188Z" fill="#F4F5F6"/>
<path fill-rule="evenodd" clip-rule="evenodd" d="M307.262 302.826H315.065V343.758H307.262V302.826ZM307.987 303.55V343.033H314.34V303.55H307.987Z" fill="#959DA8"/>
<path d="M321.948 303.188H314.87V343.395H321.948V303.188Z" fill="#F4F5F6"/>
<path fill-rule="evenodd" clip-rule="evenodd" d="M314.508 302.826H322.31V343.758H314.508V302.826ZM315.232 303.55V343.033H321.586V303.55H315.232Z" fill="#959DA8"/>
<path d="M329.194 303.188H322.116V343.395H329.194V303.188Z" fill="#F4F5F6"/>
<path fill-rule="evenodd" clip-rule="evenodd" d="M321.754 302.826H329.556V343.758H321.754V302.826ZM322.478 303.55V343.033H328.832V303.55H322.478Z" fill="#959DA8"/>
<path d="M336.439 303.188H329.361V343.395H336.439V303.188Z" fill="#F4F5F6"/>
<path fill-rule="evenodd" clip-rule="evenodd" d="M328.999 302.826H336.801V343.758H328.999V302.826ZM329.723 303.55V343.033H336.077V303.55H329.723Z" fill="#959DA8"/>
<path d="M343.683 303.188H336.605V343.395H343.683V303.188Z" fill="#F4F5F6"/>
<path fill-rule="evenodd" clip-rule="evenodd" d="M336.243 302.826H344.045V343.758H336.243V302.826ZM336.967 303.55V343.033H343.321V303.55H336.967Z" fill="#959DA8"/>
<path d="M350.927 303.188H343.849V343.395H350.927V303.188Z" fill="#F4F5F6"/>
<path fill-rule="evenodd" clip-rule="evenodd" d="M343.486 302.826H351.289V343.758H343.486V302.826ZM344.211 303.55V343.033H350.564V303.55H344.211Z" fill="#959DA8"/>
<path d="M206.036 303.188V343.395H199.11L199.117 303.188H206.036Z" fill="#F4F5F6"/>
<path fill-rule="evenodd" clip-rule="evenodd" d="M198.755 302.826H206.398V343.758H198.748L198.755 302.826ZM199.479 303.55L199.472 343.033H205.673V303.55H199.479Z" fill="#959DA8"/>
<path d="M198.792 303.188V343.395H191.866L191.873 303.188H198.792Z" fill="#F4F5F6"/>
<path fill-rule="evenodd" clip-rule="evenodd" d="M191.511 302.826H199.154V343.758H191.504L191.511 302.826ZM192.236 303.55L192.228 343.033H198.43V303.55H192.236Z" fill="#959DA8"/>
<path d="M213.279 303.188H206.201V343.395H213.279V303.188Z" fill="#F4F5F6"/>
<path fill-rule="evenodd" clip-rule="evenodd" d="M205.838 302.826H213.641V343.758H205.838V302.826ZM206.563 303.55V343.033H212.916V303.55H206.563Z" fill="#959DA8"/>
<path d="M220.524 303.188H213.446V343.395H220.524V303.188Z" fill="#F4F5F6"/>
<path fill-rule="evenodd" clip-rule="evenodd" d="M213.084 302.826H220.886V343.758H213.084V302.826ZM213.808 303.55V343.033H220.162V303.55H213.808Z" fill="#959DA8"/>
<path d="M227.767 303.188H220.689V343.395H227.767V303.188Z" fill="#F4F5F6"/>
<path fill-rule="evenodd" clip-rule="evenodd" d="M220.327 302.826H228.13V343.758H220.327V302.826ZM221.052 303.55V343.033H227.405V303.55H221.052Z" fill="#959DA8"/>
<path d="M235.011 303.188H227.933V343.395H235.011V303.188Z" fill="#F4F5F6"/>
<path fill-rule="evenodd" clip-rule="evenodd" d="M227.571 302.826H235.373V343.758H227.571V302.826ZM228.295 303.55V343.033H234.649V303.55H228.295Z" fill="#959DA8"/>
<path d="M242.257 303.188H235.179V343.395H242.257V303.188Z" fill="#F4F5F6"/>
<path fill-rule="evenodd" clip-rule="evenodd" d="M234.816 302.826H242.619V343.758H234.816V302.826ZM235.541 303.55V343.033H241.894V303.55H235.541Z" fill="#959DA8"/>
<path d="M249.502 303.188H242.424V343.395H249.502V303.188Z" fill="#F4F5F6"/>
<path fill-rule="evenodd" clip-rule="evenodd" d="M242.062 302.826H249.865V343.758H242.062V302.826ZM242.787 303.55V343.033H249.14V303.55H242.787Z" fill="#959DA8"/>
<path d="M256.748 303.188H249.67V343.395H256.748V303.188Z" fill="#F4F5F6"/>
<path fill-rule="evenodd" clip-rule="evenodd" d="M249.308 302.826H257.11V343.758H249.308V302.826ZM250.032 303.55V343.033H256.386V303.55H250.032Z" fill="#959DA8"/>
<path d="M263.994 303.188H256.916V343.395H263.994V303.188Z" fill="#F4F5F6"/>
<path fill-rule="evenodd" clip-rule="evenodd" d="M256.554 302.826H264.356V343.758H256.554V302.826ZM257.278 303.55V343.033H263.632V303.55H257.278Z" fill="#959DA8"/>
<path d="M271.237 303.188H264.159V343.395H271.237V303.188Z" fill="#F4F5F6"/>
<path fill-rule="evenodd" clip-rule="evenodd" d="M263.797 302.826H271.599V343.758H263.797V302.826ZM264.521 303.55V343.033H270.875V303.55H264.521Z" fill="#959DA8"/>
<path d="M126.347 303.188V343.395H119.421L119.428 303.188H126.347Z" fill="#F4F5F6"/>
<path fill-rule="evenodd" clip-rule="evenodd" d="M119.066 302.826H126.709V343.758H119.059L119.066 302.826ZM119.79 303.55L119.783 343.033H125.984V303.55H119.79Z" fill="#959DA8"/>
<path d="M119.101 303.188V343.395H112.175L112.182 303.188H119.101Z" fill="#F4F5F6"/>
<path fill-rule="evenodd" clip-rule="evenodd" d="M111.82 302.826H119.463V343.758H111.812L111.82 302.826ZM112.544 303.55L112.537 343.033H118.738V303.55H112.544Z" fill="#959DA8"/>
<path d="M112.582 303.188V343.395H105.656L105.664 303.188H112.582Z" fill="#F4F5F6"/>
<path fill-rule="evenodd" clip-rule="evenodd" d="M105.301 302.826H112.944V343.758H105.293L105.301 302.826ZM106.025 303.55L106.018 343.033H112.219V303.55H106.025Z" fill="#959DA8"/>
<path d="M133.589 303.188H126.511V343.395H133.589V303.188Z" fill="#F4F5F6"/>
<path fill-rule="evenodd" clip-rule="evenodd" d="M126.149 302.826H133.951V343.758H126.149V302.826ZM126.873 303.55V343.033H133.227V303.55H126.873Z" fill="#959DA8"/>
<path d="M140.837 303.188H133.759V343.395H140.837V303.188Z" fill="#F4F5F6"/>
<path fill-rule="evenodd" clip-rule="evenodd" d="M133.396 302.826H141.199V343.758H133.396V302.826ZM134.121 303.55V343.033H140.474V303.55H134.121Z" fill="#959DA8"/>
<path d="M148.08 303.188H141.002V343.395H148.08V303.188Z" fill="#F4F5F6"/>
<path fill-rule="evenodd" clip-rule="evenodd" d="M140.64 302.826H148.443V343.758H140.64V302.826ZM141.365 303.55V343.033H147.718V303.55H141.365Z" fill="#959DA8"/>
<path d="M155.324 303.188H148.246V343.395H155.324V303.188Z" fill="#F4F5F6"/>
<path fill-rule="evenodd" clip-rule="evenodd" d="M147.884 302.826H155.686V343.758H147.884V302.826ZM148.608 303.55V343.033H154.962V303.55H148.608Z" fill="#959DA8"/>
<path d="M162.57 303.188H155.492V343.395H162.57V303.188Z" fill="#F4F5F6"/>
<path fill-rule="evenodd" clip-rule="evenodd" d="M155.129 302.826H162.932V343.758H155.129V302.826ZM155.854 303.55V343.033H162.207V303.55H155.854Z" fill="#959DA8"/>
<path d="M169.811 303.188H162.733V343.395H169.811V303.188Z" fill="#F4F5F6"/>
<path fill-rule="evenodd" clip-rule="evenodd" d="M162.371 302.826H170.174V343.758H162.371V302.826ZM163.096 303.55V343.033H169.449V303.55H163.096Z" fill="#959DA8"/>
<path d="M177.056 303.188H169.979V343.395H177.056V303.188Z" fill="#F4F5F6"/>
<path fill-rule="evenodd" clip-rule="evenodd" d="M169.616 302.826H177.419V343.758H169.616V302.826ZM170.341 303.55V343.033H176.694V303.55H170.341Z" fill="#959DA8"/>
<path d="M184.303 303.188H177.225V343.395H184.303V303.188Z" fill="#F4F5F6"/>
<path fill-rule="evenodd" clip-rule="evenodd" d="M176.862 302.826H184.665V343.758H176.862V302.826ZM177.587 303.55V343.033H183.94V303.55H177.587Z" fill="#959DA8"/>
<path d="M191.546 303.188H184.468V343.395H191.546V303.188Z" fill="#F4F5F6"/>
<path fill-rule="evenodd" clip-rule="evenodd" d="M184.105 302.826H191.908V343.758H184.105V302.826ZM184.83 303.55V343.033H191.183V303.55H184.83Z" fill="#959DA8"/>
<path fill-rule="evenodd" clip-rule="evenodd" d="M105.783 302.821H351.362V344.115H105.032L105.783 302.821ZM107.206 304.27L106.508 342.667H349.913V304.27H107.206Z" fill="#959DA8"/>
<path d="M689.975 303.188V343.395H683.049L683.056 303.188H689.975Z" fill="#F4F5F6"/>
<path fill-rule="evenodd" clip-rule="evenodd" d="M682.694 302.826H690.337V343.758H682.687L682.694 302.826ZM683.418 303.55L683.411 343.033H689.612V303.55H683.418Z" fill="#959DA8"/>
<path d="M682.73 303.188V343.395H675.804L675.811 303.188H682.73Z" fill="#F4F5F6"/>
<path fill-rule="evenodd" clip-rule="evenodd" d="M675.449 302.826H683.092V343.758H675.441L675.449 302.826ZM676.173 303.55L676.166 343.033H682.367V303.55H676.173Z" fill="#959DA8"/>
<path d="M697.22 303.188H690.142V343.395H697.22V303.188Z" fill="#F4F5F6"/>
<path fill-rule="evenodd" clip-rule="evenodd" d="M689.779 302.826H697.582V343.758H689.779V302.826ZM690.504 303.55V343.033H696.857V303.55H690.504Z" fill="#959DA8"/>
<path d="M704.463 303.188H697.385V343.395H704.463V303.188Z" fill="#F4F5F6"/>
<path fill-rule="evenodd" clip-rule="evenodd" d="M697.023 302.826H704.825V343.758H697.023V302.826ZM697.747 303.55V343.033H704.101V303.55H697.747Z" fill="#959DA8"/>
<path d="M711.709 303.188H704.631V343.395H711.709V303.188Z" fill="#F4F5F6"/>
<path fill-rule="evenodd" clip-rule="evenodd" d="M704.269 302.826H712.071V343.758H704.269V302.826ZM704.993 303.55V343.033H711.347V303.55H704.993Z" fill="#959DA8"/>
<path d="M718.952 303.188H711.875V343.395H718.952V303.188Z" fill="#F4F5F6"/>
<path fill-rule="evenodd" clip-rule="evenodd" d="M711.512 302.826H719.315V343.758H711.512V302.826ZM712.237 303.55V343.033H718.59V303.55H712.237Z" fill="#959DA8"/>
<path d="M726.198 303.188H719.12V343.395H726.198V303.188Z" fill="#F4F5F6"/>
<path fill-rule="evenodd" clip-rule="evenodd" d="M718.758 302.826H726.56V343.758H718.758V302.826ZM719.482 303.55V343.033H725.836V303.55H719.482Z" fill="#959DA8"/>
<path d="M733.444 303.188H726.366V343.395H733.444V303.188Z" fill="#F4F5F6"/>
<path fill-rule="evenodd" clip-rule="evenodd" d="M726.003 302.826H733.806V343.758H726.003V302.826ZM726.728 303.55V343.033H733.081V303.55H726.728Z" fill="#959DA8"/>
<path d="M740.687 303.188H733.609V343.395H740.687V303.188Z" fill="#F4F5F6"/>
<path fill-rule="evenodd" clip-rule="evenodd" d="M733.247 302.826H741.049V343.758H733.247V302.826ZM733.971 303.55V343.033H740.325V303.55H733.971Z" fill="#959DA8"/>
<path d="M747.933 303.188H740.855V343.395H747.933V303.188Z" fill="#F4F5F6"/>
<path fill-rule="evenodd" clip-rule="evenodd" d="M740.493 302.826H748.295V343.758H740.493V302.826ZM741.217 303.55V343.033H747.571V303.55H741.217Z" fill="#959DA8"/>
<path d="M755.177 303.188H748.099V343.395H755.177V303.188Z" fill="#F4F5F6"/>
<path fill-rule="evenodd" clip-rule="evenodd" d="M747.736 302.826H755.538V343.758H747.736V302.826ZM748.46 303.55V343.033H754.814V303.55H748.46Z" fill="#959DA8"/>
<path d="M610.286 303.188V343.395H603.36L603.367 303.188H610.286Z" fill="#F4F5F6"/>
<path fill-rule="evenodd" clip-rule="evenodd" d="M603.005 302.826H610.648V343.758H602.998L603.005 302.826ZM603.729 303.55L603.722 343.033H609.923V303.55H603.729Z" fill="#959DA8"/>
<path d="M603.04 303.188V343.395H596.114L596.121 303.188H603.04Z" fill="#F4F5F6"/>
<path fill-rule="evenodd" clip-rule="evenodd" d="M595.759 302.826H603.402V343.758H595.752L595.759 302.826ZM596.484 303.55L596.477 343.033H602.678V303.55H596.484Z" fill="#959DA8"/>
<path d="M617.528 303.188H610.45V343.395H617.528V303.188Z" fill="#F4F5F6"/>
<path fill-rule="evenodd" clip-rule="evenodd" d="M610.088 302.826H617.89V343.758H610.088V302.826ZM610.812 303.55V343.033H617.166V303.55H610.812Z" fill="#959DA8"/>
<path d="M624.772 303.188H617.694V343.395H624.772V303.188Z" fill="#F4F5F6"/>
<path fill-rule="evenodd" clip-rule="evenodd" d="M617.332 302.826H625.134V343.758H617.332V302.826ZM618.056 303.55V343.033H624.41V303.55H618.056Z" fill="#959DA8"/>
<path d="M632.017 303.188H624.939V343.395H632.017V303.188Z" fill="#F4F5F6"/>
<path fill-rule="evenodd" clip-rule="evenodd" d="M624.577 302.826H632.38V343.758H624.577V302.826ZM625.302 303.55V343.033H631.655V303.55H625.302Z" fill="#959DA8"/>
<path d="M639.261 303.188H632.183V343.395H639.261V303.188Z" fill="#F4F5F6"/>
<path fill-rule="evenodd" clip-rule="evenodd" d="M631.821 302.826H639.623V343.758H631.821V302.826ZM632.545 303.55V343.033H638.899V303.55H632.545Z" fill="#959DA8"/>
<path d="M646.504 303.188H639.426V343.395H646.504V303.188Z" fill="#F4F5F6"/>
<path fill-rule="evenodd" clip-rule="evenodd" d="M639.064 302.826H646.866V343.758H639.064V302.826ZM639.788 303.55V343.033H646.142V303.55H639.788Z" fill="#959DA8"/>
<path d="M653.752 303.188H646.674V343.395H653.752V303.188Z" fill="#F4F5F6"/>
<path fill-rule="evenodd" clip-rule="evenodd" d="M646.312 302.826H654.114V343.758H646.312V302.826ZM647.036 303.55V343.033H653.39V303.55H647.036Z" fill="#959DA8"/>
<path d="M660.998 303.188H653.92V343.395H660.998V303.188Z" fill="#F4F5F6"/>
<path fill-rule="evenodd" clip-rule="evenodd" d="M653.558 302.826H661.36V343.758H653.558V302.826ZM654.282 303.55V343.033H660.636V303.55H654.282Z" fill="#959DA8"/>
<path d="M668.244 303.188H661.166V343.395H668.244V303.188Z" fill="#F4F5F6"/>
<path fill-rule="evenodd" clip-rule="evenodd" d="M660.803 302.826H668.606V343.758H660.803V302.826ZM661.528 303.55V343.033H667.881V303.55H661.528Z" fill="#959DA8"/>
<path d="M675.487 303.188H668.409V343.395H675.487V303.188Z" fill="#F4F5F6"/>
<path fill-rule="evenodd" clip-rule="evenodd" d="M668.047 302.826H675.849V343.758H668.047V302.826ZM668.771 303.55V343.033H675.125V303.55H668.771Z" fill="#959DA8"/>
<path d="M530.596 303.188V343.395H523.67L523.678 303.188H530.596Z" fill="#F4F5F6"/>
<path fill-rule="evenodd" clip-rule="evenodd" d="M523.315 302.826H530.958V343.758H523.308L523.315 302.826ZM524.04 303.55L524.033 343.033H530.234V303.55H524.04Z" fill="#959DA8"/>
<path d="M523.351 303.188V343.395H516.425L516.432 303.188H523.351Z" fill="#F4F5F6"/>
<path fill-rule="evenodd" clip-rule="evenodd" d="M516.07 302.826H523.713V343.758H516.062L516.07 302.826ZM516.794 303.55L516.787 343.033H522.988V303.55H516.794Z" fill="#959DA8"/>
<path d="M516.83 303.188V343.395H509.904L509.911 303.188H516.83Z" fill="#F4F5F6"/>
<path fill-rule="evenodd" clip-rule="evenodd" d="M509.548 302.826H517.191V343.758H509.541L509.548 302.826ZM510.273 303.55L510.266 343.033H516.467V303.55H510.273Z" fill="#959DA8"/>
<path d="M537.839 303.188H530.761V343.395H537.839V303.188Z" fill="#F4F5F6"/>
<path fill-rule="evenodd" clip-rule="evenodd" d="M530.398 302.826H538.201V343.758H530.398V302.826ZM531.123 303.55V343.033H537.476V303.55H531.123Z" fill="#959DA8"/>
<path d="M545.082 303.188H538.004V343.395H545.082V303.188Z" fill="#F4F5F6"/>
<path fill-rule="evenodd" clip-rule="evenodd" d="M537.643 302.826H545.445V343.758H537.643V302.826ZM538.367 303.55V343.033H544.721V303.55H538.367Z" fill="#959DA8"/>
<path d="M552.328 303.188H545.25V343.395H552.328V303.188Z" fill="#F4F5F6"/>
<path fill-rule="evenodd" clip-rule="evenodd" d="M544.888 302.826H552.69V343.758H544.888V302.826ZM545.612 303.55V343.033H551.966V303.55H545.612Z" fill="#959DA8"/>
<path d="M559.572 303.188H552.494V343.395H559.572V303.188Z" fill="#F4F5F6"/>
<path fill-rule="evenodd" clip-rule="evenodd" d="M552.131 302.826H559.934V343.758H552.131V302.826ZM552.856 303.55V343.033H559.209V303.55H552.856Z" fill="#959DA8"/>
<path d="M566.815 303.188H559.737V343.395H566.815V303.188Z" fill="#F4F5F6"/>
<path fill-rule="evenodd" clip-rule="evenodd" d="M559.375 302.826H567.177V343.758H559.375V302.826ZM560.099 303.55V343.033H566.453V303.55H560.099Z" fill="#959DA8"/>
<path d="M574.061 303.188H566.983V343.395H574.061V303.188Z" fill="#F4F5F6"/>
<path fill-rule="evenodd" clip-rule="evenodd" d="M566.621 302.826H574.423V343.758H566.621V302.826ZM567.345 303.55V343.033H573.699V303.55H567.345Z" fill="#959DA8"/>
<path d="M581.306 303.188H574.229V343.395H581.306V303.188Z" fill="#F4F5F6"/>
<path fill-rule="evenodd" clip-rule="evenodd" d="M573.866 302.826H581.669V343.758H573.866V302.826ZM574.591 303.55V343.033H580.944V303.55H574.591Z" fill="#959DA8"/>
<path d="M588.55 303.188H581.472V343.395H588.55V303.188Z" fill="#F4F5F6"/>
<path fill-rule="evenodd" clip-rule="evenodd" d="M581.11 302.826H588.912V343.758H581.11V302.826ZM581.834 303.55V343.033H588.188V303.55H581.834Z" fill="#959DA8"/>
<path d="M595.796 303.188H588.718V343.395H595.796V303.188Z" fill="#F4F5F6"/>
<path fill-rule="evenodd" clip-rule="evenodd" d="M588.355 302.826H596.158V343.758H588.355V302.826ZM589.08 303.55V343.033H595.433V303.55H589.08Z" fill="#959DA8"/>
<path fill-rule="evenodd" clip-rule="evenodd" d="M510.033 302.821H755.612V344.115H509.282L510.033 302.821ZM511.456 304.27L510.758 342.667H754.163V304.27H511.456Z" fill="#959DA8"/>
<path fill-rule="evenodd" clip-rule="evenodd" d="M157.932 466.552V354.985H156.483V468.001H703.45V354.985H702.001V466.552H157.932Z" fill="#959DA8"/>
<path d="M396.417 422.266C396.957 419.856 396.955 417.356 396.41 414.948C395.865 412.539 394.792 410.281 393.267 408.338C391.743 406.395 389.806 404.816 387.596 403.713C385.387 402.611 382.959 402.013 380.49 401.964C378.021 401.914 375.572 402.415 373.32 403.428C371.068 404.441 369.069 405.943 367.469 407.823C365.868 409.704 364.706 411.917 364.065 414.302C363.425 416.687 363.322 419.185 363.766 421.614C361.947 422.498 360.34 423.763 359.055 425.325C357.771 426.887 356.838 428.707 356.322 430.662C355.806 432.617 355.718 434.661 356.064 436.653C356.41 438.646 357.182 440.54 358.327 442.206C359.473 443.873 360.964 445.272 362.7 446.309C364.437 447.346 366.376 447.996 368.386 448.214C370.397 448.433 372.43 448.215 374.349 447.575C376.267 446.935 378.024 445.888 379.501 444.507C380.935 445.854 382.636 446.885 384.494 447.533C386.352 448.18 388.325 448.431 390.286 448.267C392.247 448.104 394.151 447.53 395.876 446.583C397.601 445.637 399.108 444.338 400.299 442.772C401.49 441.206 402.339 439.407 402.791 437.492C403.242 435.577 403.287 433.589 402.921 431.655C402.555 429.722 401.787 427.887 400.666 426.27C399.546 424.652 398.098 423.288 396.417 422.266Z" fill="#80C33F"/>
<path fill-rule="evenodd" clip-rule="evenodd" d="M372.174 431.49C372.285 431.323 372.51 431.279 372.676 431.389L380.348 436.504C380.515 436.615 380.56 436.84 380.449 437.006C380.338 437.173 380.113 437.218 379.947 437.107L372.275 431.992C372.108 431.881 372.063 431.656 372.174 431.49Z" fill="#2A3A51"/>
<path fill-rule="evenodd" clip-rule="evenodd" d="M389.361 435.297C389.491 435.449 389.474 435.678 389.322 435.808L380.375 443.473C380.223 443.603 379.994 443.585 379.864 443.433C379.734 443.281 379.752 443.053 379.903 442.922L388.851 435.258C389.002 435.127 389.231 435.145 389.361 435.297Z" fill="#2A3A51"/>
<path fill-rule="evenodd" clip-rule="evenodd" d="M380.145 421.106C380.345 421.106 380.508 421.268 380.508 421.468V467.471C380.508 467.671 380.345 467.834 380.145 467.834C379.945 467.834 379.783 467.671 379.783 467.471V421.468C379.783 421.268 379.945 421.106 380.145 421.106Z" fill="#2A3A51"/>
<path d="M639.93 383.961H608.887V455.415H639.93V383.961Z" fill="#D3DCE5"/>
<path d="M635.533 389.036H613.27V424.375H635.533V389.036Z" fill="white"/>
<path fill-rule="evenodd" clip-rule="evenodd" d="M612.89 388.656H635.913V424.756H612.89V388.656ZM613.65 389.416V423.995H635.152V389.416H613.65Z" fill="#959DA8"/>
<path d="M614.706 429.967C615.506 429.967 616.155 429.318 616.155 428.518C616.155 427.718 615.506 427.069 614.706 427.069C613.906 427.069 613.257 427.718 613.257 428.518C613.257 429.318 613.906 429.967 614.706 429.967Z" fill="white"/>
<path fill-rule="evenodd" clip-rule="evenodd" d="M614.706 427.431C614.106 427.431 613.619 427.918 613.619 428.518C613.619 429.118 614.106 429.604 614.706 429.604C615.306 429.604 615.793 429.118 615.793 428.518C615.793 427.918 615.306 427.431 614.706 427.431ZM612.895 428.518C612.895 427.517 613.706 426.707 614.706 426.707C615.706 426.707 616.517 427.517 616.517 428.518C616.517 429.518 615.706 430.329 614.706 430.329C613.706 430.329 612.895 429.518 612.895 428.518Z" fill="#959DA8"/>
<path d="M578.452 383.961H609.495V455.415H578.459L578.452 383.961Z" fill="#D3DCE5"/>
<path d="M582.85 424.372H605.112V389.032H582.85V424.372Z" fill="white"/>
<path fill-rule="evenodd" clip-rule="evenodd" d="M605.493 424.752H582.469V388.653H605.493V424.752ZM604.732 423.992V389.413H583.23V423.992H604.732Z" fill="#959DA8"/>
<path d="M603.679 429.967C604.479 429.967 605.128 429.318 605.128 428.518C605.128 427.718 604.479 427.069 603.679 427.069C602.879 427.069 602.23 427.718 602.23 428.518C602.23 429.318 602.879 429.967 603.679 429.967Z" fill="white"/>
<path fill-rule="evenodd" clip-rule="evenodd" d="M603.679 427.431C603.079 427.431 602.592 427.918 602.592 428.518C602.592 429.118 603.079 429.604 603.679 429.604C604.279 429.604 604.766 429.118 604.766 428.518C604.766 427.918 604.279 427.431 603.679 427.431ZM601.868 428.518C601.868 427.517 602.679 426.707 603.679 426.707C604.679 426.707 605.49 427.517 605.49 428.518C605.49 429.518 604.679 430.329 603.679 430.329C602.679 430.329 601.868 429.518 601.868 428.518Z" fill="#959DA8"/>
<path d="M652.737 460.298H567.468V467.376H652.737V460.298Z" fill="#D3DCE5"/>
<path fill-rule="evenodd" clip-rule="evenodd" d="M566.939 459.77H653.266V467.905H566.939V459.77ZM567.997 460.827V466.848H652.208V460.827H567.997Z" fill="#959DA8"/>
<path d="M652.737 453.236H567.468V460.314H652.737V453.236Z" fill="#D3DCE5"/>
<path fill-rule="evenodd" clip-rule="evenodd" d="M566.939 452.707H653.266V460.843H566.939V452.707ZM567.997 453.765V459.785H652.208V453.765H567.997Z" fill="#959DA8"/>
<path fill-rule="evenodd" clip-rule="evenodd" d="M222.048 14.8516H638.612V48.9012H529.219V131.787H331.18V48.9012H222.048V14.8516ZM223.497 16.3005V47.4522H332.629V130.338H527.77V47.4522H637.163V16.3005H223.497Z" fill="#959DA8"/>
<path d="M8.46894e-05 465.594C-0.00653727 463.982 0.375267 462.392 1.1132 460.958C1.85114 459.524 2.9235 458.289 4.23959 457.358C5.55567 456.426 7.07677 455.825 8.67422 455.606C10.2717 455.386 11.8985 455.555 13.4171 456.097C14.004 453.734 15.1927 451.563 16.8675 449.795C18.5423 448.027 20.6462 446.723 22.9744 446.01C25.3026 445.297 27.7758 445.198 30.1534 445.724C32.5309 446.25 34.7318 447.383 36.5418 449.012C37.8204 445.436 40.3194 442.427 43.5989 440.513C46.8783 438.6 50.7279 437.905 54.4695 438.55C58.2111 439.196 61.6048 441.142 64.0531 444.044C66.5013 446.946 67.8469 450.619 67.853 454.416C67.855 454.978 67.826 455.539 67.766 456.097C68.857 455.698 70.0095 455.495 71.171 455.496C76.7493 455.496 81.6032 460.023 81.2482 465.573C81.1971 466.488 81.044 467.394 80.7918 468.275H0.362314C0.119453 467.395 -0.00241026 466.486 8.46894e-05 465.573V465.594Z" fill="#80C33F"/>
<path fill-rule="evenodd" clip-rule="evenodd" d="M152.888 468.835L136.907 413.522L138.299 413.12L154.28 468.433L152.888 468.835Z" fill="#959DA8"/>
<path fill-rule="evenodd" clip-rule="evenodd" d="M120.315 468.433L136.297 413.12L137.689 413.522L121.707 468.835L120.315 468.433Z" fill="#959DA8"/>
<path d="M78.6309 432.682L80.8549 439.579L84.7743 451.728H137.015L133.088 439.579L130.864 432.682H78.6309Z" fill="#F4F5F6"/>
<path fill-rule="evenodd" clip-rule="evenodd" d="M78.1333 432.32H131.128L133.433 439.468L137.513 452.091H84.5104L80.5101 439.691L78.1333 432.32ZM79.1281 433.045L81.1995 439.468L85.0379 451.366H136.517L132.744 439.691L130.6 433.045H79.1281Z" fill="#959DA8"/>
<path d="M84.7834 456.648H149.311V451.729H84.7834V456.648Z" fill="#F4F5F6"/>
<path fill-rule="evenodd" clip-rule="evenodd" d="M149.673 457.011H84.4213V451.367H149.673V457.011ZM148.949 456.286V452.092H85.1457V456.286H148.949Z" fill="#959DA8"/>
<path d="M78.6309 432.682L80.8549 439.579H133.088L130.864 432.682H78.6309Z" fill="#F4F5F6"/>
<path fill-rule="evenodd" clip-rule="evenodd" d="M78.1333 432.32H131.128L133.586 439.942H80.591L78.1333 432.32ZM79.1281 433.045L81.1186 439.217H132.591L130.6 433.045H79.1281Z" fill="#959DA8"/>
<path fill-rule="evenodd" clip-rule="evenodd" d="M99.9743 468.835L83.9927 413.522L85.3847 413.12L101.366 468.433L99.9743 468.835Z" fill="#959DA8"/>
<path fill-rule="evenodd" clip-rule="evenodd" d="M67.4014 468.433L83.3829 413.12L84.7749 413.522L68.7933 468.835L67.4014 468.433Z" fill="#959DA8"/>
<path d="M144.695 414.55H73.8939C73.8939 413.662 74.0687 412.783 74.4084 411.963C74.7481 411.143 75.246 410.398 75.8736 409.77C76.5013 409.143 77.2464 408.645 78.0665 408.305C78.8865 407.965 79.7655 407.791 80.6531 407.791H137.936C138.824 407.791 139.703 407.965 140.523 408.305C141.343 408.645 142.088 409.143 142.716 409.77C143.343 410.398 143.841 411.143 144.181 411.963C144.52 412.783 144.695 413.662 144.695 414.55Z" fill="#D3DCE5"/>
<path fill-rule="evenodd" clip-rule="evenodd" d="M193.978 467.509L163.688 444.102L164.131 443.529L194.421 466.936L193.978 467.509Z" fill="#959DA8"/>
<path fill-rule="evenodd" clip-rule="evenodd" d="M163.688 466.936L193.978 443.529L194.421 444.102L164.131 467.509L163.688 466.936Z" fill="#959DA8"/>
<path d="M199.224 439.435H159.378V444.542H199.224V439.435Z" fill="#D3DCE5"/>
<path fill-rule="evenodd" clip-rule="evenodd" d="M156.14 42.0851C156.539 42.0548 156.887 42.3537 156.917 42.7527L163.372 127.782C163.402 128.181 163.103 128.529 162.704 128.56C162.306 128.59 161.958 128.291 161.927 127.892L155.472 42.8623C155.442 42.4634 155.741 42.1154 156.14 42.0851Z" fill="#959DA8"/>
<path d="M119.498 64.475C125.322 65.8664 131.233 66.8684 137.19 67.4743L139.153 65.1994L140.059 67.764C146.439 68.2926 152.846 68.4161 159.242 68.1335C161.005 68.0562 162.753 67.95 164.487 67.8147L166.19 67.6699C168.069 67.5056 169.928 67.3076 171.768 67.0758L172.724 66.9526L173.92 66.786L174.441 66.7136L175.238 63.6346L177.839 66.1847L177.47 66.2499L177.839 66.192L178.216 66.1268L178.593 66.0616C179.776 65.8539 180.952 65.6341 182.121 65.4023L184.352 64.9386L186.677 64.417L187.8 64.149L188.271 64.0331L189.445 63.736L190.017 63.5911L191.118 63.3014L193.219 62.7218H193.299L194.379 62.403C195.067 62.2002 195.748 61.9901 196.429 61.78C196.685 61.6948 196.914 61.5444 197.095 61.3437C197.276 61.143 197.401 60.8988 197.458 60.6351C197.516 60.3714 197.504 60.0972 197.424 59.8394C197.344 59.5816 197.198 59.3491 197.001 59.1647C195.345 57.6494 193.598 56.2365 191.77 54.9339L191.307 54.6006C190.399 53.9631 189.472 53.3545 188.525 52.775C188.148 52.5431 187.8 52.3113 187.38 52.094C185.453 50.9739 183.46 49.9722 181.411 49.0947L180.795 48.8339C178.705 47.9776 176.563 47.2518 174.383 46.6605L173.145 46.2621C172.485 46.0954 171.812 45.9433 171.145 45.7984C170.696 45.7042 170.247 45.6173 169.798 45.5304L169.117 45.4072L168.638 45.3275C167.885 45.2019 167.127 45.0933 166.364 45.0015L165.016 44.8566C164.458 44.8059 163.908 44.7624 163.35 44.7262L162.538 44.6755H162.205L160.952 44.632C159.72 44.6031 158.482 44.6151 157.235 44.6683C149.987 44.9681 142.869 46.6939 136.288 49.7469C129.707 52.8 123.792 57.1203 118.883 62.461C118.744 62.6197 118.647 62.8112 118.603 63.0174C118.559 63.2236 118.568 63.4377 118.63 63.6394C118.691 63.8411 118.804 64.0237 118.956 64.1699C119.108 64.3162 119.294 64.4212 119.498 64.475Z" fill="#D3DCE5"/>
<path fill-rule="evenodd" clip-rule="evenodd" d="M175.577 63.3863C175.577 63.3865 175.578 63.3866 175.247 63.5348C174.916 63.6829 174.916 63.6829 174.916 63.6829L174.915 63.6806L174.912 63.6726L174.897 63.6395C174.883 63.6101 174.863 63.5659 174.836 63.5079C174.781 63.3918 174.7 63.2205 174.592 63.001C174.377 62.5619 174.057 61.9302 173.638 61.1627C172.802 59.627 171.573 57.5504 170.009 55.3858C166.868 51.0397 162.421 46.4098 157.115 45.0055L157.301 44.3052C162.862 45.777 167.434 50.5868 170.596 54.9614C172.183 57.1571 173.427 59.2611 174.275 60.816C174.698 61.5937 175.023 62.2347 175.243 62.682C175.352 62.9057 175.436 63.081 175.492 63.2008C175.52 63.2607 175.541 63.3067 175.555 63.338L175.572 63.3737L175.576 63.3831L175.577 63.3863Z" fill="#959DA8"/>
<path fill-rule="evenodd" clip-rule="evenodd" d="M139.332 65.1881L139.097 65.1059C138.755 64.9863 138.755 64.9862 138.755 64.986L138.756 64.9826L138.759 64.973L138.773 64.936C138.784 64.9036 138.802 64.8559 138.824 64.7938C138.87 64.6696 138.938 64.4877 139.029 64.2553C139.209 63.7906 139.479 63.1236 139.835 62.312C140.548 60.6892 141.608 58.4848 143.001 56.1593C145.777 51.5261 149.916 46.3363 155.31 44.3862L155.556 45.0675C150.41 46.9281 146.381 51.9279 143.623 56.5315C142.249 58.8244 141.202 61.0003 140.499 62.6032C140.147 63.4043 139.881 64.0616 139.704 64.5178C139.615 64.7459 139.549 64.9237 139.504 65.0441C139.482 65.1043 139.466 65.1501 139.455 65.1806L139.442 65.2149L139.439 65.2232L139.439 65.2251C139.439 65.2251 139.439 65.2255 139.332 65.1881Z" fill="#959DA8"/>
<path d="M157.498 90.9189V131.126H150.572L150.58 90.9189H157.498Z" fill="#F4F5F6"/>
<path fill-rule="evenodd" clip-rule="evenodd" d="M150.217 90.5566H157.86V131.489H150.21L150.217 90.5566ZM150.942 91.2811L150.935 130.764H157.136V91.2811H150.942Z" fill="#959DA8"/>
<path d="M150.252 90.9189V131.126H143.327L143.334 90.9189H150.252Z" fill="#F4F5F6"/>
<path fill-rule="evenodd" clip-rule="evenodd" d="M142.971 90.5566H150.614V131.489H142.964L142.971 90.5566ZM143.696 91.2811L143.688 130.764H149.89V91.2811H143.696Z" fill="#959DA8"/>
<path d="M164.743 90.9189H157.665V131.126H164.743V90.9189Z" fill="#F4F5F6"/>
<path fill-rule="evenodd" clip-rule="evenodd" d="M157.302 90.5566H165.105V131.489H157.302V90.5566ZM158.027 91.2811V130.764H164.38V91.2811H158.027Z" fill="#959DA8"/>
<path d="M171.986 90.9189H164.908V131.126H171.986V90.9189Z" fill="#F4F5F6"/>
<path fill-rule="evenodd" clip-rule="evenodd" d="M164.546 90.5566H172.348V131.489H164.546V90.5566ZM165.27 91.2811V130.764H171.624V91.2811H165.27Z" fill="#959DA8"/>
<path d="M179.232 90.9189H172.154V131.126H179.232V90.9189Z" fill="#F4F5F6"/>
<path fill-rule="evenodd" clip-rule="evenodd" d="M171.792 90.5566H179.594V131.489H171.792V90.5566ZM172.516 91.2811V130.764H178.869V91.2811H172.516Z" fill="#959DA8"/>
<path d="M186.475 90.9189H179.397V131.126H186.475V90.9189Z" fill="#F4F5F6"/>
<path fill-rule="evenodd" clip-rule="evenodd" d="M179.035 90.5566H186.838V131.489H179.035V90.5566ZM179.76 91.2811V130.764H186.113V91.2811H179.76Z" fill="#959DA8"/>
<path d="M193.719 90.9189H186.641V131.126H193.719V90.9189Z" fill="#F4F5F6"/>
<path fill-rule="evenodd" clip-rule="evenodd" d="M186.278 90.5566H194.081V131.489H186.278V90.5566ZM187.003 91.2811V130.764H193.356V91.2811H187.003Z" fill="#959DA8"/>
<path d="M200.967 90.9189H193.889V131.126H200.967V90.9189Z" fill="#F4F5F6"/>
<path fill-rule="evenodd" clip-rule="evenodd" d="M193.526 90.5566H201.329V131.489H193.526V90.5566ZM194.251 91.2811V130.764H200.604V91.2811H194.251Z" fill="#959DA8"/>
<path d="M208.21 90.9189H201.132V131.126H208.21V90.9189Z" fill="#F4F5F6"/>
<path fill-rule="evenodd" clip-rule="evenodd" d="M200.77 90.5566H208.572V131.489H200.77V90.5566ZM201.494 91.2811V130.764H207.848V91.2811H201.494Z" fill="#959DA8"/>
<path d="M215.456 90.9189H208.378V131.126H215.456V90.9189Z" fill="#F4F5F6"/>
<path fill-rule="evenodd" clip-rule="evenodd" d="M208.016 90.5566H215.818V131.489H208.016V90.5566ZM208.74 91.2811V130.764H215.094V91.2811H208.74Z" fill="#959DA8"/>
<path d="M222.697 90.9189H215.619V131.126H222.697V90.9189Z" fill="#F4F5F6"/>
<path fill-rule="evenodd" clip-rule="evenodd" d="M215.257 90.5566H223.059V131.489H215.257V90.5566ZM215.981 91.2811V130.764H222.335V91.2811H215.981Z" fill="#959DA8"/>
<path fill-rule="evenodd" clip-rule="evenodd" d="M142.913 90.5586H223.132V131.853H142.913V90.5586ZM144.362 92.0075V130.404H221.683V92.0075H144.362Z" fill="#959DA8"/>
</svg>
