<svg width="1300" height="499" viewBox="0 0 1300 499" fill="none" xmlns="http://www.w3.org/2000/svg">
<mask id="mask0" mask-type="alpha" maskUnits="userSpaceOnUse" x="0" y="0" width="1300" height="499">
<rect width="1300" height="499" rx="16" fill="#2A3A51"/>
</mask>
<g mask="url(#mask0)">
<path d="M832.089 51.0005H396.273V65.4402H832.089V51.0005Z" fill="#D3DCE5"/>
<path d="M355.69 330.932C355.469 330.932 355.249 330.907 355.034 330.86C344.979 328.569 344.979 316.42 344.979 316.42C344.903 309.491 346.948 302.705 350.84 296.972C351.384 296.191 352.109 295.553 352.953 295.112C353.797 294.672 354.735 294.441 355.687 294.441C356.639 294.441 357.577 294.672 358.421 295.112C359.265 295.553 359.99 296.191 360.534 296.972C364.428 302.704 366.476 309.49 366.402 316.42C366.402 316.42 366.402 328.615 356.347 330.86C356.131 330.907 355.911 330.932 355.69 330.932Z" fill="#80C33F"/>
<path fill-rule="evenodd" clip-rule="evenodd" d="M355.688 307.527C355.869 307.527 356.016 307.674 356.016 307.856V349.271C356.016 349.452 355.869 349.599 355.688 349.599C355.506 349.599 355.359 349.452 355.359 349.271V307.856C355.359 307.674 355.506 307.527 355.688 307.527Z" fill="#2A3A51"/>
<path d="M861.081 141.249C860.86 141.249 860.64 141.225 860.425 141.177C850.369 138.886 850.369 126.737 850.369 126.737C850.293 119.808 852.338 113.022 856.23 107.29C856.775 106.508 857.5 105.87 858.344 105.429C859.188 104.989 860.125 104.759 861.078 104.759C862.03 104.759 862.968 104.989 863.812 105.429C864.656 105.87 865.381 106.508 865.925 107.29C869.819 113.022 871.867 119.808 871.792 126.737C871.792 126.737 871.792 138.932 861.737 141.177C861.522 141.225 861.302 141.249 861.081 141.249Z" fill="#80C33F"/>
<path fill-rule="evenodd" clip-rule="evenodd" d="M861.078 117.843C861.259 117.843 861.406 117.99 861.406 118.171V159.586C861.406 159.768 861.259 159.915 861.078 159.915C860.897 159.915 860.75 159.768 860.75 159.586V118.171C860.75 117.99 860.897 117.843 861.078 117.843Z" fill="#2A3A51"/>
<path d="M832.086 332.771C832.08 331.31 832.426 329.869 833.094 328.57C833.763 327.271 834.735 326.153 835.927 325.309C837.119 324.464 838.497 323.92 839.945 323.721C841.392 323.522 842.866 323.675 844.242 324.166C844.773 322.025 845.85 320.058 847.368 318.457C848.885 316.855 850.791 315.674 852.9 315.028C855.01 314.381 857.25 314.292 859.404 314.769C861.558 315.245 863.552 316.271 865.192 317.747C866.351 314.508 868.615 311.781 871.586 310.048C874.557 308.314 878.045 307.684 881.434 308.269C884.824 308.854 887.899 310.617 890.117 313.246C892.335 315.876 893.554 319.203 893.56 322.643C893.562 323.152 893.535 323.66 893.481 324.166C894.465 323.805 894.013 334.399 893.783 335.199H832.414C832.194 334.402 832.084 333.578 832.086 332.751V332.771Z" fill="#80C33F"/>
<path d="M436.968 146.368C436.974 144.907 436.628 143.466 435.959 142.167C435.291 140.868 434.319 139.749 433.127 138.905C431.934 138.061 430.556 137.517 429.109 137.318C427.662 137.119 426.188 137.272 424.812 137.763C424.28 135.622 423.204 133.655 421.686 132.053C420.169 130.452 418.263 129.271 416.153 128.624C414.044 127.978 411.803 127.889 409.649 128.366C407.495 128.842 405.501 129.868 403.862 131.344C402.703 128.105 400.439 125.378 397.468 123.645C394.497 121.911 391.009 121.281 387.619 121.866C384.229 122.451 381.155 124.214 378.937 126.843C376.719 129.473 375.5 132.8 375.494 136.24C375.492 136.749 375.519 137.257 375.573 137.763C374.588 137.402 375.041 147.995 375.271 148.796H436.64C436.86 147.999 436.97 147.175 436.968 146.348V146.368Z" fill="#80C33F"/>
<path d="M802.082 69.8059L428.023 70.9158L428.316 169.683L802.375 168.573L802.082 69.8059Z" fill="white"/>
<path fill-rule="evenodd" clip-rule="evenodd" d="M427.645 70.5395L802.458 69.4274L802.753 168.949L427.94 170.061L427.645 70.5395ZM428.402 71.292L428.692 169.304L801.996 168.197L801.705 70.1844L428.402 71.292Z" fill="#959DA8"/>
<path d="M683.603 65.0489L803.209 65.0555V75.708H427.121V65.0358L683.603 65.0489Z" fill="#F4F5F6"/>
<path fill-rule="evenodd" clip-rule="evenodd" d="M426.793 64.7076L803.537 64.7273V76.0362H426.793V64.7076ZM427.449 65.364V75.3799H802.881V65.3837L427.449 65.364Z" fill="#959DA8"/>
<path d="M803.209 75.7119V86.3644H427.121V75.6922L683.603 75.7053L803.209 75.7119Z" fill="#F4F5F6"/>
<path fill-rule="evenodd" clip-rule="evenodd" d="M426.793 75.364L803.537 75.3837V86.6926H426.793V75.364ZM427.449 76.0204V86.0363H802.881V76.0401L427.449 76.0204Z" fill="#959DA8"/>
<path d="M734.883 86.3638H803.209V97.0229H427.121V86.3507H428.926L734.883 86.3638Z" fill="#F4F5F6"/>
<path fill-rule="evenodd" clip-rule="evenodd" d="M426.793 86.0225L803.537 86.0356V97.3511H426.793V86.0225ZM427.449 86.6788V96.6947H802.881V86.692L427.449 86.6788Z" fill="#959DA8"/>
<path d="M428.926 96.7276L803.209 96.7473V107.4H427.121V96.7276H428.926Z" fill="#F4F5F6"/>
<path fill-rule="evenodd" clip-rule="evenodd" d="M426.793 96.3994L803.537 96.4191V107.728H426.793V96.3994ZM427.449 97.0557V107.072H802.881V97.0754L427.449 97.0557Z" fill="#959DA8"/>
<path d="M803.209 107.399V118.058H427.121V107.386L734.883 107.399H803.209Z" fill="#F4F5F6"/>
<path fill-rule="evenodd" clip-rule="evenodd" d="M426.793 107.058L803.537 107.071V118.386H426.793V107.058ZM427.449 107.714V117.73H802.881V107.727L427.449 107.714Z" fill="#959DA8"/>
<path d="M803.209 118.06V128.712H427.121V118.047L734.883 118.06H803.209Z" fill="#F4F5F6"/>
<path fill-rule="evenodd" clip-rule="evenodd" d="M426.793 117.718L803.537 117.732V129.04H426.793V117.718ZM427.449 118.375V128.384H802.881V118.388L427.449 118.375Z" fill="#959DA8"/>
<path d="M803.209 128.721V139.373H427.121V128.701L683.603 128.714L803.209 128.721Z" fill="#F4F5F6"/>
<path fill-rule="evenodd" clip-rule="evenodd" d="M426.793 128.373L803.537 128.392V139.701H426.793V128.373ZM427.449 129.029V139.045H802.881V129.049L427.449 129.029Z" fill="#959DA8"/>
<path d="M803.209 139.379V150.032H427.121V139.359L683.603 139.373L803.209 139.379Z" fill="#F4F5F6"/>
<path fill-rule="evenodd" clip-rule="evenodd" d="M426.793 139.031L803.537 139.051V150.36H426.793V139.031ZM427.449 139.688V149.703H802.881V139.707L427.449 139.688Z" fill="#959DA8"/>
<path d="M734.883 150.031H803.209V160.69H427.121V150.018H428.926L734.883 150.031Z" fill="#F4F5F6"/>
<path fill-rule="evenodd" clip-rule="evenodd" d="M426.793 149.69L803.537 149.703V161.018H426.793V149.69ZM427.449 150.346V160.362H802.881V150.359L427.449 150.346Z" fill="#959DA8"/>
<path d="M428.926 160.395L803.209 160.414V171.067H427.121V160.395H428.926Z" fill="#F4F5F6"/>
<path fill-rule="evenodd" clip-rule="evenodd" d="M426.793 160.067L803.537 160.086V171.395H426.793V160.067ZM427.449 160.723V170.739H802.881V160.743L427.449 160.723Z" fill="#959DA8"/>
<path d="M802.77 269.321L427.34 270.435L427.642 372.169L803.072 371.055L802.77 269.321Z" fill="white"/>
<path fill-rule="evenodd" clip-rule="evenodd" d="M426.957 270.052L803.155 268.936L803.459 371.438L427.261 372.554L426.957 270.052ZM427.727 270.818L428.027 371.784L802.689 370.672L802.39 269.706L427.727 270.818Z" fill="#959DA8"/>
<path d="M427.258 94.9781H526.367V169.73H427.258V94.9781Z" fill="white"/>
<path fill-rule="evenodd" clip-rule="evenodd" d="M426.93 94.6499H526.695V170.058H426.93V94.6499ZM427.586 95.3063V169.402H526.038V95.3063H427.586Z" fill="#959DA8"/>
<path fill-rule="evenodd" clip-rule="evenodd" d="M476.457 169.144V95.475H477.113V169.144H476.457Z" fill="#959DA8"/>
<path d="M427.258 281.381H527.023V362.112H427.258V281.381Z" fill="white"/>
<path fill-rule="evenodd" clip-rule="evenodd" d="M426.93 281.053H527.351V362.44H426.93V281.053ZM427.586 281.709V361.784H526.695V281.709H427.586Z" fill="#959DA8"/>
<path fill-rule="evenodd" clip-rule="evenodd" d="M477.113 361.467V281.917H477.77V361.467H477.113Z" fill="#959DA8"/>
<path d="M704.238 281.381H803.347V362.112H704.238V281.381Z" fill="white"/>
<path fill-rule="evenodd" clip-rule="evenodd" d="M703.91 281.053H803.675V362.44H703.91V281.053ZM704.567 281.709V361.784H803.019V281.709H704.567Z" fill="#959DA8"/>
<path fill-rule="evenodd" clip-rule="evenodd" d="M753.426 361.467V281.917H754.108V361.467H753.426Z" fill="#959DA8"/>
<path d="M427.258 381.798H526.367V473.687H427.258V381.798Z" fill="white"/>
<path fill-rule="evenodd" clip-rule="evenodd" d="M426.93 381.47H526.695V474.015H426.93V381.47ZM427.586 382.126V473.359H526.038V382.126H427.586Z" fill="#959DA8"/>
<path fill-rule="evenodd" clip-rule="evenodd" d="M476.457 472.954V382.411H477.113V472.954H476.457Z" fill="#959DA8"/>
<path d="M411.508 182.927H510.617V257.679H411.508V182.927Z" fill="white"/>
<path fill-rule="evenodd" clip-rule="evenodd" d="M411.18 182.599H510.945V258.007H411.18V182.599ZM411.836 183.255V257.35H510.288V183.255H411.836Z" fill="#959DA8"/>
<path fill-rule="evenodd" clip-rule="evenodd" d="M488.273 257.095V183.426H488.93V257.095H488.273Z" fill="#959DA8"/>
<path fill-rule="evenodd" clip-rule="evenodd" d="M460.707 257.095V183.426H461.363V257.095H460.707Z" fill="#959DA8"/>
<path fill-rule="evenodd" clip-rule="evenodd" d="M433.141 257.095V183.426H433.797V257.095H433.141Z" fill="#959DA8"/>
<path d="M704.238 94.9781H803.347V169.73H704.238V94.9781Z" fill="white"/>
<path fill-rule="evenodd" clip-rule="evenodd" d="M703.91 94.6499H803.675V170.058H703.91V94.6499ZM704.567 95.3063V169.402H803.019V95.3063H704.567Z" fill="#959DA8"/>
<path fill-rule="evenodd" clip-rule="evenodd" d="M753.438 169.144V95.475H754.094V169.144H753.438Z" fill="#959DA8"/>
<path d="M368.707 169.799V270.876H543.296V473.688H687.693V270.876H861.625V169.799H368.707Z" fill="#F4F5F6"/>
<path fill-rule="evenodd" clip-rule="evenodd" d="M368.051 169.142H862.282V271.533H688.349V474.345H542.64V271.533H368.051V169.142ZM369.363 170.455V270.22H543.952V473.032H687.037V270.22H860.969V170.455H369.363Z" fill="#959DA8"/>
<path d="M395.098 184.896H494.206V259.648H395.098V184.896Z" fill="white"/>
<path fill-rule="evenodd" clip-rule="evenodd" d="M394.77 184.568H494.535V259.976H394.77V184.568ZM395.426 185.224V259.319H493.878V185.224H395.426Z" fill="#959DA8"/>
<path fill-rule="evenodd" clip-rule="evenodd" d="M470.551 259.064V185.395H471.207V259.064H470.551Z" fill="#959DA8"/>
<path fill-rule="evenodd" clip-rule="evenodd" d="M444.297 259.064V185.395H444.953V259.064H444.297Z" fill="#959DA8"/>
<path fill-rule="evenodd" clip-rule="evenodd" d="M418.043 259.064V185.395H418.699V259.064H418.043Z" fill="#959DA8"/>
<path d="M565.75 184.896H664.859V259.648H565.75V184.896Z" fill="white"/>
<path fill-rule="evenodd" clip-rule="evenodd" d="M565.418 184.568H665.183V259.976H565.418V184.568ZM566.074 185.224V259.319H664.527V185.224H566.074Z" fill="#959DA8"/>
<path fill-rule="evenodd" clip-rule="evenodd" d="M641.199 259.72V184.739H641.856V259.72H641.199Z" fill="#959DA8"/>
<path fill-rule="evenodd" clip-rule="evenodd" d="M614.949 259.72V184.739H615.606V259.72H614.949Z" fill="#959DA8"/>
<path fill-rule="evenodd" clip-rule="evenodd" d="M588.695 259.72V184.739H589.352V259.72H588.695Z" fill="#959DA8"/>
<path d="M518.707 184.896H541.213V259.648H518.707V184.896Z" fill="white"/>
<path fill-rule="evenodd" clip-rule="evenodd" d="M518.379 184.568H541.541V259.976H518.379V184.568ZM519.035 185.224V259.319H540.885V185.224H519.035Z" fill="#959DA8"/>
<path d="M689.359 184.896H711.866V259.648H689.359V184.896Z" fill="white"/>
<path fill-rule="evenodd" clip-rule="evenodd" d="M689.031 184.568H712.194V259.976H689.031V184.568ZM689.688 185.224V259.319H711.537V185.224H689.688Z" fill="#959DA8"/>
<path d="M604.688 281.381H627.194V355.549H604.688V281.381Z" fill="white"/>
<path fill-rule="evenodd" clip-rule="evenodd" d="M604.359 281.053H627.522V355.877H604.359V281.053ZM605.016 281.709V355.221H626.866V281.709H605.016Z" fill="#959DA8"/>
<path d="M604.688 383.767H627.194V457.935H604.688V383.767Z" fill="white"/>
<path fill-rule="evenodd" clip-rule="evenodd" d="M604.359 383.439H627.522V458.263H604.359V383.439ZM605.016 384.095V457.606H626.866V384.095H605.016Z" fill="#959DA8"/>
<path d="M708.395 383.767H730.901V457.935H708.395V383.767Z" fill="white"/>
<path fill-rule="evenodd" clip-rule="evenodd" d="M708.066 383.439H731.229V458.263H708.066V383.439ZM708.723 384.095V457.606H730.573V384.095H708.723Z" fill="#959DA8"/>
<path d="M823.254 383.767H845.76V457.935H823.254V383.767Z" fill="white"/>
<path fill-rule="evenodd" clip-rule="evenodd" d="M822.926 383.439H846.088V458.263H822.926V383.439ZM823.582 384.095V457.606H845.432V384.095H823.582Z" fill="#959DA8"/>
<path d="M736.398 184.896H835.507V259.648H736.398V184.896Z" fill="white"/>
<path fill-rule="evenodd" clip-rule="evenodd" d="M736.07 184.568H835.835V259.976H736.07V184.568ZM736.727 185.224V259.319H835.179V185.224H736.727Z" fill="#959DA8"/>
<path fill-rule="evenodd" clip-rule="evenodd" d="M811.852 259.72V184.739H812.508V259.72H811.852Z" fill="#959DA8"/>
<path fill-rule="evenodd" clip-rule="evenodd" d="M785.598 259.72V184.739H786.254V259.72H785.598Z" fill="#959DA8"/>
<path fill-rule="evenodd" clip-rule="evenodd" d="M759.344 259.72V184.739H760V259.72H759.344Z" fill="#959DA8"/>
<path d="M815.943 133.372V169.799H809.668L809.674 133.372H815.943Z" fill="#F4F5F6"/>
<path fill-rule="evenodd" clip-rule="evenodd" d="M809.346 133.044H816.271V170.127H809.34L809.346 133.044ZM810.003 133.7L809.996 169.471H815.615V133.7H810.003Z" fill="#959DA8"/>
<path d="M809.38 133.372V169.799H803.105L803.112 133.372H809.38Z" fill="#F4F5F6"/>
<path fill-rule="evenodd" clip-rule="evenodd" d="M802.784 133.044H809.708V170.127H802.777L802.784 133.044ZM803.44 133.7L803.434 169.471H809.052V133.7H803.44Z" fill="#959DA8"/>
<path d="M822.506 133.372H816.094V169.799H822.506V133.372Z" fill="#F4F5F6"/>
<path fill-rule="evenodd" clip-rule="evenodd" d="M815.766 133.044H822.835V170.127H815.766V133.044ZM816.422 133.7V169.471H822.178V133.7H816.422Z" fill="#959DA8"/>
<path d="M829.069 133.372H822.656V169.799H829.069V133.372Z" fill="#F4F5F6"/>
<path fill-rule="evenodd" clip-rule="evenodd" d="M822.328 133.044H829.397V170.127H822.328V133.044ZM822.984 133.7V169.471H828.741V133.7H822.984Z" fill="#959DA8"/>
<path d="M835.631 133.372H829.219V169.799H835.631V133.372Z" fill="#F4F5F6"/>
<path fill-rule="evenodd" clip-rule="evenodd" d="M828.891 133.044H835.96V170.127H828.891V133.044ZM829.547 133.7V169.471H835.303V133.7H829.547Z" fill="#959DA8"/>
<path d="M842.198 133.372H835.785V169.799H842.198V133.372Z" fill="#F4F5F6"/>
<path fill-rule="evenodd" clip-rule="evenodd" d="M835.457 133.044H842.526V170.127H835.457V133.044ZM836.113 133.7V169.471H841.87V133.7H836.113Z" fill="#959DA8"/>
<path d="M848.76 133.372H842.348V169.799H848.76V133.372Z" fill="#F4F5F6"/>
<path fill-rule="evenodd" clip-rule="evenodd" d="M842.02 133.044H849.088V170.127H842.02V133.044ZM842.676 133.7V169.471H848.432V133.7H842.676Z" fill="#959DA8"/>
<path d="M855.323 133.372H848.91V169.799H855.323V133.372Z" fill="#F4F5F6"/>
<path fill-rule="evenodd" clip-rule="evenodd" d="M848.582 133.044H855.651V170.127H848.582V133.044ZM849.238 133.7V169.471H854.995V133.7H849.238Z" fill="#959DA8"/>
<path d="M861.885 133.372H855.473V169.799H861.885V133.372Z" fill="#F4F5F6"/>
<path fill-rule="evenodd" clip-rule="evenodd" d="M855.145 133.044H862.213V170.127H855.145V133.044ZM855.801 133.7V169.471H861.557V133.7H855.801Z" fill="#959DA8"/>
<path d="M868.448 133.372H862.035V169.799H868.448V133.372Z" fill="#F4F5F6"/>
<path fill-rule="evenodd" clip-rule="evenodd" d="M861.707 133.044H868.776V170.127H861.707V133.044ZM862.363 133.7V169.471H868.12V133.7H862.363Z" fill="#959DA8"/>
<path d="M875.01 133.372H868.598V169.799H875.01V133.372Z" fill="#F4F5F6"/>
<path fill-rule="evenodd" clip-rule="evenodd" d="M868.27 133.044H875.338V170.127H868.27V133.044ZM868.926 133.7V169.471H874.682V133.7H868.926Z" fill="#959DA8"/>
<path fill-rule="evenodd" clip-rule="evenodd" d="M802.73 133.045H875.408V170.457H802.73V133.045ZM804.043 134.357V169.144H874.095V134.357H804.043Z" fill="#959DA8"/>
<path d="M322.105 270.878V281.38H526.886V362.111H322.105V372.612H543.295V270.878H322.105Z" fill="#D3DCE5"/>
<path fill-rule="evenodd" clip-rule="evenodd" d="M329.766 362.11V281.878H331.078V362.11H329.766Z" fill="#959DA8"/>
<path d="M908.881 270.878V281.38H704.1V362.111H908.881V372.612H687.691V270.878H908.881Z" fill="#D3DCE5"/>
<path fill-rule="evenodd" clip-rule="evenodd" d="M899.906 362.11V281.878H901.219V362.11H899.906Z" fill="#959DA8"/>
<path d="M484.486 325.684V362.111H478.211L478.218 325.684H484.486Z" fill="#F4F5F6"/>
<path fill-rule="evenodd" clip-rule="evenodd" d="M477.89 325.356H484.814V362.439H477.883L477.89 325.356ZM478.546 326.012L478.539 361.783H484.158V326.012H478.546Z" fill="#959DA8"/>
<path d="M477.923 325.684V362.111H471.648L471.655 325.684H477.923Z" fill="#F4F5F6"/>
<path fill-rule="evenodd" clip-rule="evenodd" d="M471.327 325.356H478.251V362.439H471.32L471.327 325.356ZM471.983 326.012L471.977 361.783H477.595V326.012H471.983Z" fill="#959DA8"/>
<path d="M491.049 325.684H484.637V362.111H491.049V325.684Z" fill="#F4F5F6"/>
<path fill-rule="evenodd" clip-rule="evenodd" d="M484.309 325.356H491.377V362.439H484.309V325.356ZM484.965 326.012V361.783H490.721V326.012H484.965Z" fill="#959DA8"/>
<path d="M497.612 325.684H491.199V362.111H497.612V325.684Z" fill="#F4F5F6"/>
<path fill-rule="evenodd" clip-rule="evenodd" d="M490.871 325.356H497.94V362.439H490.871V325.356ZM491.527 326.012V361.783H497.284V326.012H491.527Z" fill="#959DA8"/>
<path d="M504.174 325.684H497.762V362.111H504.174V325.684Z" fill="#F4F5F6"/>
<path fill-rule="evenodd" clip-rule="evenodd" d="M497.434 325.356H504.502V362.439H497.434V325.356ZM498.09 326.012V361.783H503.846V326.012H498.09Z" fill="#959DA8"/>
<path d="M510.737 325.684H504.324V362.111H510.737V325.684Z" fill="#F4F5F6"/>
<path fill-rule="evenodd" clip-rule="evenodd" d="M503.996 325.356H511.065V362.439H503.996V325.356ZM504.652 326.012V361.783H510.409V326.012H504.652Z" fill="#959DA8"/>
<path d="M517.299 325.684H510.887V362.111H517.299V325.684Z" fill="#F4F5F6"/>
<path fill-rule="evenodd" clip-rule="evenodd" d="M510.559 325.356H517.627V362.439H510.559V325.356ZM511.215 326.012V361.783H516.971V326.012H511.215Z" fill="#959DA8"/>
<path d="M523.866 325.684H517.453V362.111H523.866V325.684Z" fill="#F4F5F6"/>
<path fill-rule="evenodd" clip-rule="evenodd" d="M517.125 325.356H524.194V362.439H517.125V325.356ZM517.781 326.012V361.783H523.538V326.012H517.781Z" fill="#959DA8"/>
<path d="M530.428 325.684H524.016V362.111H530.428V325.684Z" fill="#F4F5F6"/>
<path fill-rule="evenodd" clip-rule="evenodd" d="M523.688 325.356H530.756V362.439H523.688V325.356ZM524.344 326.012V361.783H530.1V326.012H524.344Z" fill="#959DA8"/>
<path d="M536.991 325.684H530.578V362.111H536.991V325.684Z" fill="#F4F5F6"/>
<path fill-rule="evenodd" clip-rule="evenodd" d="M530.25 325.356H537.319V362.439H530.25V325.356ZM530.906 326.012V361.783H536.663V326.012H530.906Z" fill="#959DA8"/>
<path d="M543.557 325.684H537.145V362.111H543.557V325.684Z" fill="#F4F5F6"/>
<path fill-rule="evenodd" clip-rule="evenodd" d="M536.816 325.356H543.885V362.439H536.816V325.356ZM537.473 326.012V361.783H543.229V326.012H537.473Z" fill="#959DA8"/>
<path d="M412.286 325.684V362.111H406.012L406.018 325.684H412.286Z" fill="#F4F5F6"/>
<path fill-rule="evenodd" clip-rule="evenodd" d="M405.69 325.356H412.615V362.439H405.684L405.69 325.356ZM406.347 326.012L406.34 361.783H411.958V326.012H406.347Z" fill="#959DA8"/>
<path d="M405.724 325.684V362.111H399.449L399.456 325.684H405.724Z" fill="#F4F5F6"/>
<path fill-rule="evenodd" clip-rule="evenodd" d="M399.128 325.356H406.052V362.439H399.121L399.128 325.356ZM399.784 326.012L399.778 361.783H405.396V326.012H399.784Z" fill="#959DA8"/>
<path d="M418.85 325.684H412.438V362.111H418.85V325.684Z" fill="#F4F5F6"/>
<path fill-rule="evenodd" clip-rule="evenodd" d="M412.109 325.356H419.178V362.439H412.109V325.356ZM412.766 326.012V361.783H418.522V326.012H412.766Z" fill="#959DA8"/>
<path d="M425.413 325.684H419V362.111H425.413V325.684Z" fill="#F4F5F6"/>
<path fill-rule="evenodd" clip-rule="evenodd" d="M418.672 325.356H425.741V362.439H418.672V325.356ZM419.328 326.012V361.783H425.084V326.012H419.328Z" fill="#959DA8"/>
<path d="M431.975 325.684H425.562V362.111H431.975V325.684Z" fill="#F4F5F6"/>
<path fill-rule="evenodd" clip-rule="evenodd" d="M425.234 325.356H432.303V362.439H425.234V325.356ZM425.891 326.012V361.783H431.647V326.012H425.891Z" fill="#959DA8"/>
<path d="M438.538 325.684H432.125V362.111H438.538V325.684Z" fill="#F4F5F6"/>
<path fill-rule="evenodd" clip-rule="evenodd" d="M431.797 325.356H438.866V362.439H431.797V325.356ZM432.453 326.012V361.783H438.209V326.012H432.453Z" fill="#959DA8"/>
<path d="M445.1 325.684H438.688V362.111H445.1V325.684Z" fill="#F4F5F6"/>
<path fill-rule="evenodd" clip-rule="evenodd" d="M438.359 325.356H445.428V362.439H438.359V325.356ZM439.016 326.012V361.783H444.772V326.012H439.016Z" fill="#959DA8"/>
<path d="M451.666 325.684H445.254V362.111H451.666V325.684Z" fill="#F4F5F6"/>
<path fill-rule="evenodd" clip-rule="evenodd" d="M444.926 325.356H451.995V362.439H444.926V325.356ZM445.582 326.012V361.783H451.338V326.012H445.582Z" fill="#959DA8"/>
<path d="M458.229 325.684H451.816V362.111H458.229V325.684Z" fill="#F4F5F6"/>
<path fill-rule="evenodd" clip-rule="evenodd" d="M451.488 325.356H458.557V362.439H451.488V325.356ZM452.145 326.012V361.783H457.901V326.012H452.145Z" fill="#959DA8"/>
<path d="M464.795 325.684H458.383V362.111H464.795V325.684Z" fill="#F4F5F6"/>
<path fill-rule="evenodd" clip-rule="evenodd" d="M458.055 325.356H465.124V362.439H458.055V325.356ZM458.711 326.012V361.783H464.467V326.012H458.711Z" fill="#959DA8"/>
<path d="M471.358 325.684H464.945V362.111H471.358V325.684Z" fill="#F4F5F6"/>
<path fill-rule="evenodd" clip-rule="evenodd" d="M464.617 325.356H471.686V362.439H464.617V325.356ZM465.274 326.012V361.783H471.03V326.012H465.274Z" fill="#959DA8"/>
<path d="M340.091 325.684V362.111H333.816L333.823 325.684H340.091Z" fill="#F4F5F6"/>
<path fill-rule="evenodd" clip-rule="evenodd" d="M333.491 325.356H340.415V362.439H333.484L333.491 325.356ZM334.147 326.012L334.141 361.783H339.759V326.012H334.147Z" fill="#959DA8"/>
<path d="M333.525 325.684V362.111H327.25L327.257 325.684H333.525Z" fill="#F4F5F6"/>
<path fill-rule="evenodd" clip-rule="evenodd" d="M326.929 325.356H333.853V362.439H326.922L326.929 325.356ZM327.585 326.012L327.578 361.783H333.197V326.012H327.585Z" fill="#959DA8"/>
<path d="M327.618 325.684V362.111H321.344L321.35 325.684H327.618Z" fill="#F4F5F6"/>
<path fill-rule="evenodd" clip-rule="evenodd" d="M321.022 325.356H327.947V362.439H321.016L321.022 325.356ZM321.679 326.012L321.672 361.783H327.29V326.012H321.679Z" fill="#959DA8"/>
<path d="M346.651 325.684H340.238V362.111H346.651V325.684Z" fill="#F4F5F6"/>
<path fill-rule="evenodd" clip-rule="evenodd" d="M339.91 325.356H346.979V362.439H339.91V325.356ZM340.567 326.012V361.783H346.323V326.012H340.567Z" fill="#959DA8"/>
<path d="M353.217 325.684H346.805V362.111H353.217V325.684Z" fill="#F4F5F6"/>
<path fill-rule="evenodd" clip-rule="evenodd" d="M346.477 325.356H353.545V362.439H346.477V325.356ZM347.133 326.012V361.783H352.889V326.012H347.133Z" fill="#959DA8"/>
<path d="M359.78 325.684H353.367V362.111H359.78V325.684Z" fill="#F4F5F6"/>
<path fill-rule="evenodd" clip-rule="evenodd" d="M353.039 325.356H360.108V362.439H353.039V325.356ZM353.695 326.012V361.783H359.452V326.012H353.695Z" fill="#959DA8"/>
<path d="M366.342 325.684H359.93V362.111H366.342V325.684Z" fill="#F4F5F6"/>
<path fill-rule="evenodd" clip-rule="evenodd" d="M359.602 325.356H366.67V362.439H359.602V325.356ZM360.258 326.012V361.783H366.014V326.012H360.258Z" fill="#959DA8"/>
<path d="M372.905 325.684H366.492V362.111H372.905V325.684Z" fill="#F4F5F6"/>
<path fill-rule="evenodd" clip-rule="evenodd" d="M366.164 325.356H373.233V362.439H366.164V325.356ZM366.82 326.012V361.783H372.577V326.012H366.82Z" fill="#959DA8"/>
<path d="M379.467 325.684H373.055V362.111H379.467V325.684Z" fill="#F4F5F6"/>
<path fill-rule="evenodd" clip-rule="evenodd" d="M372.727 325.356H379.795V362.439H372.727V325.356ZM373.383 326.012V361.783H379.139V326.012H373.383Z" fill="#959DA8"/>
<path d="M386.03 325.684H379.617V362.111H386.03V325.684Z" fill="#F4F5F6"/>
<path fill-rule="evenodd" clip-rule="evenodd" d="M379.289 325.356H386.358V362.439H379.289V325.356ZM379.945 326.012V361.783H385.702V326.012H379.945Z" fill="#959DA8"/>
<path d="M392.596 325.684H386.184V362.111H392.596V325.684Z" fill="#F4F5F6"/>
<path fill-rule="evenodd" clip-rule="evenodd" d="M385.855 325.356H392.924V362.439H385.855V325.356ZM386.512 326.012V361.783H392.268V326.012H386.512Z" fill="#959DA8"/>
<path d="M399.159 325.684H392.746V362.111H399.159V325.684Z" fill="#F4F5F6"/>
<path fill-rule="evenodd" clip-rule="evenodd" d="M392.418 325.356H399.487V362.439H392.418V325.356ZM393.074 326.012V361.783H398.83V326.012H393.074Z" fill="#959DA8"/>
<path fill-rule="evenodd" clip-rule="evenodd" d="M321.461 325.353H543.952V362.764H320.781L321.461 325.353ZM322.751 326.665L322.118 361.452H542.639V326.665H322.751Z" fill="#959DA8"/>
<path d="M850.728 325.684V362.111H844.453L844.46 325.684H850.728Z" fill="#F4F5F6"/>
<path fill-rule="evenodd" clip-rule="evenodd" d="M844.132 325.356H851.056V362.439H844.125L844.132 325.356ZM844.788 326.012L844.781 361.783H850.4V326.012H844.788Z" fill="#959DA8"/>
<path d="M844.165 325.684V362.111H837.891L837.897 325.684H844.165Z" fill="#F4F5F6"/>
<path fill-rule="evenodd" clip-rule="evenodd" d="M837.569 325.356H844.494V362.439H837.562L837.569 325.356ZM838.225 326.012L838.219 361.783H843.837V326.012H838.225Z" fill="#959DA8"/>
<path d="M857.291 325.684H850.879V362.111H857.291V325.684Z" fill="#F4F5F6"/>
<path fill-rule="evenodd" clip-rule="evenodd" d="M850.551 325.356H857.62V362.439H850.551V325.356ZM851.207 326.012V361.783H856.963V326.012H851.207Z" fill="#959DA8"/>
<path d="M863.854 325.684H857.441V362.111H863.854V325.684Z" fill="#F4F5F6"/>
<path fill-rule="evenodd" clip-rule="evenodd" d="M857.113 325.356H864.182V362.439H857.113V325.356ZM857.77 326.012V361.783H863.526V326.012H857.77Z" fill="#959DA8"/>
<path d="M870.416 325.684H864.004V362.111H870.416V325.684Z" fill="#F4F5F6"/>
<path fill-rule="evenodd" clip-rule="evenodd" d="M863.676 325.356H870.745V362.439H863.676V325.356ZM864.332 326.012V361.783H870.088V326.012H864.332Z" fill="#959DA8"/>
<path d="M876.983 325.684H870.57V362.111H876.983V325.684Z" fill="#F4F5F6"/>
<path fill-rule="evenodd" clip-rule="evenodd" d="M870.242 325.356H877.311V362.439H870.242V325.356ZM870.899 326.012V361.783H876.655V326.012H870.899Z" fill="#959DA8"/>
<path d="M883.545 325.684H877.133V362.111H883.545V325.684Z" fill="#F4F5F6"/>
<path fill-rule="evenodd" clip-rule="evenodd" d="M876.805 325.356H883.874V362.439H876.805V325.356ZM877.461 326.012V361.783H883.217V326.012H877.461Z" fill="#959DA8"/>
<path d="M890.108 325.684H883.695V362.111H890.108V325.684Z" fill="#F4F5F6"/>
<path fill-rule="evenodd" clip-rule="evenodd" d="M883.367 325.356H890.436V362.439H883.367V325.356ZM884.024 326.012V361.783H889.78V326.012H884.024Z" fill="#959DA8"/>
<path d="M896.674 325.684H890.262V362.111H896.674V325.684Z" fill="#F4F5F6"/>
<path fill-rule="evenodd" clip-rule="evenodd" d="M889.934 325.356H897.002V362.439H889.934V325.356ZM890.59 326.012V361.783H896.346V326.012H890.59Z" fill="#959DA8"/>
<path d="M903.237 325.684H896.824V362.111H903.237V325.684Z" fill="#F4F5F6"/>
<path fill-rule="evenodd" clip-rule="evenodd" d="M896.496 325.356H903.565V362.439H896.496V325.356ZM897.152 326.012V361.783H902.909V326.012H897.152Z" fill="#959DA8"/>
<path d="M909.799 325.684H903.387V362.111H909.799V325.684Z" fill="#F4F5F6"/>
<path fill-rule="evenodd" clip-rule="evenodd" d="M903.059 325.356H910.127V362.439H903.059V325.356ZM903.715 326.012V361.783H909.471V326.012H903.715Z" fill="#959DA8"/>
<path d="M778.529 325.684V362.111H772.254L772.26 325.684H778.529Z" fill="#F4F5F6"/>
<path fill-rule="evenodd" clip-rule="evenodd" d="M771.932 325.356H778.857V362.439H771.926L771.932 325.356ZM772.589 326.012L772.582 361.783H778.201V326.012H772.589Z" fill="#959DA8"/>
<path d="M771.966 325.684V362.111H765.691L765.698 325.684H771.966Z" fill="#F4F5F6"/>
<path fill-rule="evenodd" clip-rule="evenodd" d="M765.37 325.356H772.294V362.439H765.363L765.37 325.356ZM766.026 326.012L766.02 361.783H771.638V326.012H766.026Z" fill="#959DA8"/>
<path d="M785.092 325.684H778.68V362.111H785.092V325.684Z" fill="#F4F5F6"/>
<path fill-rule="evenodd" clip-rule="evenodd" d="M778.352 325.356H785.42V362.439H778.352V325.356ZM779.008 326.012V361.783H784.764V326.012H779.008Z" fill="#959DA8"/>
<path d="M791.655 325.684H785.242V362.111H791.655V325.684Z" fill="#F4F5F6"/>
<path fill-rule="evenodd" clip-rule="evenodd" d="M784.914 325.356H791.983V362.439H784.914V325.356ZM785.57 326.012V361.783H791.327V326.012H785.57Z" fill="#959DA8"/>
<path d="M798.217 325.684H791.805V362.111H798.217V325.684Z" fill="#F4F5F6"/>
<path fill-rule="evenodd" clip-rule="evenodd" d="M791.477 325.356H798.545V362.439H791.477V325.356ZM792.133 326.012V361.783H797.889V326.012H792.133Z" fill="#959DA8"/>
<path d="M804.78 325.684H798.367V362.111H804.78V325.684Z" fill="#F4F5F6"/>
<path fill-rule="evenodd" clip-rule="evenodd" d="M798.039 325.356H805.108V362.439H798.039V325.356ZM798.695 326.012V361.783H804.452V326.012H798.695Z" fill="#959DA8"/>
<path d="M811.346 325.684H804.934V362.111H811.346V325.684Z" fill="#F4F5F6"/>
<path fill-rule="evenodd" clip-rule="evenodd" d="M804.605 325.356H811.674V362.439H804.605V325.356ZM805.262 326.012V361.783H811.018V326.012H805.262Z" fill="#959DA8"/>
<path d="M817.909 325.684H811.496V362.111H817.909V325.684Z" fill="#F4F5F6"/>
<path fill-rule="evenodd" clip-rule="evenodd" d="M811.168 325.356H818.237V362.439H811.168V325.356ZM811.824 326.012V361.783H817.581V326.012H811.824Z" fill="#959DA8"/>
<path d="M824.475 325.684H818.062V362.111H824.475V325.684Z" fill="#F4F5F6"/>
<path fill-rule="evenodd" clip-rule="evenodd" d="M817.734 325.356H824.803V362.439H817.734V325.356ZM818.391 326.012V361.783H824.147V326.012H818.391Z" fill="#959DA8"/>
<path d="M831.038 325.684H824.625V362.111H831.038V325.684Z" fill="#F4F5F6"/>
<path fill-rule="evenodd" clip-rule="evenodd" d="M824.297 325.356H831.366V362.439H824.297V325.356ZM824.953 326.012V361.783H830.709V326.012H824.953Z" fill="#959DA8"/>
<path d="M837.6 325.684H831.188V362.111H837.6V325.684Z" fill="#F4F5F6"/>
<path fill-rule="evenodd" clip-rule="evenodd" d="M830.859 325.356H837.928V362.439H830.859V325.356ZM831.516 326.012V361.783H837.272V326.012H831.516Z" fill="#959DA8"/>
<path d="M706.333 325.684V362.111H700.059L700.065 325.684H706.333Z" fill="#F4F5F6"/>
<path fill-rule="evenodd" clip-rule="evenodd" d="M699.737 325.356H706.662V362.439H699.73L699.737 325.356ZM700.393 326.012L700.387 361.783H706.005V326.012H700.393Z" fill="#959DA8"/>
<path d="M699.771 325.684V362.111H693.496L693.503 325.684H699.771Z" fill="#F4F5F6"/>
<path fill-rule="evenodd" clip-rule="evenodd" d="M693.175 325.356H700.099V362.439H693.168L693.175 325.356ZM693.831 326.012L693.824 361.783H699.443V326.012H693.831Z" fill="#959DA8"/>
<path d="M693.861 325.684V362.111H687.586L687.592 325.684H693.861Z" fill="#F4F5F6"/>
<path fill-rule="evenodd" clip-rule="evenodd" d="M687.264 325.356H694.189V362.439H687.258L687.264 325.356ZM687.921 326.012L687.914 361.783H693.533V326.012H687.921Z" fill="#959DA8"/>
<path d="M712.893 325.684H706.48V362.111H712.893V325.684Z" fill="#F4F5F6"/>
<path fill-rule="evenodd" clip-rule="evenodd" d="M706.152 325.356H713.221V362.439H706.152V325.356ZM706.809 326.012V361.783H712.565V326.012H706.809Z" fill="#959DA8"/>
<path d="M719.459 325.684H713.047V362.111H719.459V325.684Z" fill="#F4F5F6"/>
<path fill-rule="evenodd" clip-rule="evenodd" d="M712.719 325.356H719.788V362.439H712.719V325.356ZM713.375 326.012V361.783H719.131V326.012H713.375Z" fill="#959DA8"/>
<path d="M726.022 325.684H719.609V362.111H726.022V325.684Z" fill="#F4F5F6"/>
<path fill-rule="evenodd" clip-rule="evenodd" d="M719.281 325.356H726.35V362.439H719.281V325.356ZM719.938 326.012V361.783H725.694V326.012H719.938Z" fill="#959DA8"/>
<path d="M732.584 325.684H726.172V362.111H732.584V325.684Z" fill="#F4F5F6"/>
<path fill-rule="evenodd" clip-rule="evenodd" d="M725.844 325.356H732.913V362.439H725.844V325.356ZM726.5 326.012V361.783H732.256V326.012H726.5Z" fill="#959DA8"/>
<path d="M739.147 325.684H732.734V362.111H739.147V325.684Z" fill="#F4F5F6"/>
<path fill-rule="evenodd" clip-rule="evenodd" d="M732.406 325.356H739.475V362.439H732.406V325.356ZM733.063 326.012V361.783H738.819V326.012H733.063Z" fill="#959DA8"/>
<path d="M745.709 325.684H739.297V362.111H745.709V325.684Z" fill="#F4F5F6"/>
<path fill-rule="evenodd" clip-rule="evenodd" d="M738.969 325.356H746.038V362.439H738.969V325.356ZM739.625 326.012V361.783H745.381V326.012H739.625Z" fill="#959DA8"/>
<path d="M752.276 325.684H745.863V362.111H752.276V325.684Z" fill="#F4F5F6"/>
<path fill-rule="evenodd" clip-rule="evenodd" d="M745.535 325.356H752.604V362.439H745.535V325.356ZM746.192 326.012V361.783H751.948V326.012H746.192Z" fill="#959DA8"/>
<path d="M758.838 325.684H752.426V362.111H758.838V325.684Z" fill="#F4F5F6"/>
<path fill-rule="evenodd" clip-rule="evenodd" d="M752.098 325.356H759.167V362.439H752.098V325.356ZM752.754 326.012V361.783H758.51V326.012H752.754Z" fill="#959DA8"/>
<path d="M765.401 325.684H758.988V362.111H765.401V325.684Z" fill="#F4F5F6"/>
<path fill-rule="evenodd" clip-rule="evenodd" d="M758.66 325.356H765.729V362.439H758.66V325.356ZM759.317 326.012V361.783H765.073V326.012H759.317Z" fill="#959DA8"/>
<path fill-rule="evenodd" clip-rule="evenodd" d="M687.704 325.353H910.194V362.764H687.023L687.704 325.353ZM688.993 326.665L688.36 361.452H908.882V326.665H688.993Z" fill="#959DA8"/>
<path fill-rule="evenodd" clip-rule="evenodd" d="M368.703 473.69V372.612H367.391V475.002H862.934V372.612H861.622V473.69H368.703Z" fill="#959DA8"/>
<path d="M584.767 433.568C585.256 431.384 585.254 429.12 584.76 426.937C584.267 424.755 583.294 422.71 581.913 420.95C580.532 419.189 578.777 417.758 576.775 416.759C574.773 415.76 572.574 415.219 570.337 415.174C568.1 415.129 565.882 415.583 563.841 416.501C561.801 417.419 559.99 418.779 558.54 420.483C557.09 422.187 556.037 424.191 555.456 426.352C554.876 428.513 554.784 430.776 555.185 432.977C553.537 433.777 552.082 434.924 550.918 436.339C549.754 437.754 548.909 439.403 548.441 441.175C547.974 442.946 547.894 444.797 548.207 446.602C548.521 448.407 549.22 450.123 550.258 451.633C551.296 453.143 552.647 454.411 554.22 455.35C555.793 456.29 557.55 456.879 559.371 457.076C561.193 457.274 563.035 457.077 564.773 456.497C566.511 455.917 568.103 454.969 569.441 453.718C570.74 454.938 572.282 455.872 573.965 456.459C575.648 457.046 577.436 457.272 579.212 457.124C580.989 456.976 582.714 456.456 584.277 455.599C585.84 454.741 587.205 453.565 588.284 452.146C589.363 450.727 590.132 449.097 590.541 447.362C590.951 445.627 590.991 443.826 590.659 442.074C590.327 440.323 589.632 438.66 588.617 437.195C587.601 435.73 586.29 434.494 584.767 433.568Z" fill="#80C33F"/>
<path fill-rule="evenodd" clip-rule="evenodd" d="M562.805 441.923C562.906 441.772 563.109 441.731 563.26 441.832L570.211 446.466C570.362 446.566 570.403 446.77 570.302 446.921C570.201 447.072 569.998 447.112 569.847 447.012L562.896 442.378C562.745 442.278 562.705 442.074 562.805 441.923Z" fill="#2A3A51"/>
<path fill-rule="evenodd" clip-rule="evenodd" d="M578.375 445.372C578.493 445.51 578.477 445.717 578.339 445.835L570.233 452.779C570.095 452.897 569.888 452.881 569.77 452.743C569.652 452.605 569.668 452.398 569.806 452.28L577.912 445.336C578.05 445.218 578.257 445.234 578.375 445.372Z" fill="#2A3A51"/>
<path fill-rule="evenodd" clip-rule="evenodd" d="M570.027 432.516C570.209 432.516 570.356 432.663 570.356 432.844V474.522C570.356 474.704 570.209 474.85 570.027 474.85C569.846 474.85 569.699 474.704 569.699 474.522V432.844C569.699 432.663 569.846 432.516 570.027 432.516Z" fill="#2A3A51"/>
<path d="M805.386 398.865H777.262V463.6H805.386V398.865Z" fill="#D3DCE5"/>
<path d="M801.404 403.461H781.234V435.478H801.404V403.461Z" fill="white"/>
<path fill-rule="evenodd" clip-rule="evenodd" d="M780.891 403.116H801.749V435.822H780.891V403.116ZM781.58 403.805V435.133H801.06V403.805H781.58Z" fill="#959DA8"/>
<path d="M782.535 440.544C783.26 440.544 783.848 439.956 783.848 439.231C783.848 438.506 783.26 437.919 782.535 437.919C781.81 437.919 781.223 438.506 781.223 439.231C781.223 439.956 781.81 440.544 782.535 440.544Z" fill="white"/>
<path fill-rule="evenodd" clip-rule="evenodd" d="M782.535 438.247C781.992 438.247 781.551 438.688 781.551 439.231C781.551 439.775 781.992 440.216 782.535 440.216C783.079 440.216 783.52 439.775 783.52 439.231C783.52 438.688 783.079 438.247 782.535 438.247ZM780.895 439.231C780.895 438.325 781.629 437.591 782.535 437.591C783.442 437.591 784.176 438.325 784.176 439.231C784.176 440.138 783.442 440.872 782.535 440.872C781.629 440.872 780.895 440.138 780.895 439.231Z" fill="#959DA8"/>
<path d="M749.691 398.865H777.816V463.6H749.698L749.691 398.865Z" fill="#D3DCE5"/>
<path d="M753.674 435.476H773.844V403.459H753.674V435.476Z" fill="white"/>
<path fill-rule="evenodd" clip-rule="evenodd" d="M774.188 435.82H753.329V403.114H774.188V435.82ZM773.498 435.131V403.803H754.018V435.131H773.498Z" fill="#959DA8"/>
<path d="M772.543 440.544C773.268 440.544 773.856 439.956 773.856 439.231C773.856 438.506 773.268 437.919 772.543 437.919C771.818 437.919 771.23 438.506 771.23 439.231C771.23 439.956 771.818 440.544 772.543 440.544Z" fill="white"/>
<path fill-rule="evenodd" clip-rule="evenodd" d="M772.543 438.247C771.999 438.247 771.559 438.688 771.559 439.231C771.559 439.775 771.999 440.216 772.543 440.216C773.087 440.216 773.528 439.775 773.528 439.231C773.528 438.688 773.087 438.247 772.543 438.247ZM770.902 439.231C770.902 438.325 771.637 437.591 772.543 437.591C773.449 437.591 774.184 438.325 774.184 439.231C774.184 440.138 773.449 440.872 772.543 440.872C771.637 440.872 770.902 440.138 770.902 439.231Z" fill="#959DA8"/>
<path d="M816.991 468.025H739.738V474.437H816.991V468.025Z" fill="#D3DCE5"/>
<path fill-rule="evenodd" clip-rule="evenodd" d="M739.262 467.545H817.472V474.916H739.262V467.545ZM740.22 468.504V473.958H816.514V468.504H740.22Z" fill="#959DA8"/>
<path d="M816.991 461.625H739.738V468.037H816.991V461.625Z" fill="#D3DCE5"/>
<path fill-rule="evenodd" clip-rule="evenodd" d="M739.262 461.146H817.472V468.517H739.262V461.146ZM740.22 462.104V467.558H816.514V462.104H740.22Z" fill="#959DA8"/>
<path fill-rule="evenodd" clip-rule="evenodd" d="M426.793 64.4561H804.194V95.3045H705.085V170.397H525.665V95.3045H426.793V64.4561ZM428.106 65.7688V93.9918H526.978V169.085H703.772V93.9918H802.881V65.7688H428.106Z" fill="#959DA8"/>
<path d="M225.621 471.917C225.615 470.456 225.961 469.015 226.63 467.716C227.298 466.417 228.27 465.299 229.462 464.455C230.654 463.611 232.033 463.066 233.48 462.867C234.927 462.668 236.401 462.821 237.777 463.312C238.308 461.171 239.385 459.204 240.903 457.603C242.42 456.001 244.326 454.82 246.436 454.174C248.545 453.527 250.786 453.438 252.94 453.915C255.094 454.391 257.088 455.417 258.727 456.893C259.886 453.654 262.15 450.927 265.121 449.194C268.092 447.46 271.58 446.83 274.97 447.415C278.359 448 281.434 449.763 283.652 452.392C285.87 455.022 287.089 458.349 287.095 461.789C287.097 462.298 287.07 462.806 287.016 463.312C288.004 462.951 289.049 462.767 290.101 462.767C295.155 462.767 299.552 466.87 299.231 471.897C299.184 472.726 299.046 473.547 298.817 474.345H225.949C225.729 473.548 225.619 472.724 225.621 471.897V471.917Z" fill="#80C33F"/>
<path fill-rule="evenodd" clip-rule="evenodd" d="M364.135 474.851L349.656 424.738L350.917 424.374L365.396 474.486L364.135 474.851Z" fill="#959DA8"/>
<path fill-rule="evenodd" clip-rule="evenodd" d="M334.625 474.486L349.104 424.374L350.365 424.738L335.886 474.851L334.625 474.486Z" fill="#959DA8"/>
<path d="M296.859 442.099L298.874 448.347L302.425 459.354H349.755L346.197 448.347L344.182 442.099H296.859Z" fill="#F4F5F6"/>
<path fill-rule="evenodd" clip-rule="evenodd" d="M296.41 441.771H344.423L346.511 448.246L350.207 459.682H302.188L298.563 448.448L296.41 441.771ZM297.311 442.427L299.188 448.247L302.666 459.026H349.305L345.886 448.448L343.945 442.427H297.311Z" fill="#959DA8"/>
<path d="M302.433 463.811H360.895V459.355H302.433V463.811Z" fill="#F4F5F6"/>
<path fill-rule="evenodd" clip-rule="evenodd" d="M361.223 464.139H302.105V459.026H361.223V464.139ZM360.566 463.483V459.683H302.762V463.483H360.566Z" fill="#959DA8"/>
<path d="M296.859 442.099L298.874 448.347H346.197L344.182 442.099H296.859Z" fill="#F4F5F6"/>
<path fill-rule="evenodd" clip-rule="evenodd" d="M296.41 441.771H344.423L346.649 448.675H298.637L296.41 441.771ZM297.311 442.427L299.115 448.019H345.748L343.945 442.427H297.311Z" fill="#959DA8"/>
<path fill-rule="evenodd" clip-rule="evenodd" d="M316.198 474.851L301.719 424.738L302.98 424.374L317.459 474.486L316.198 474.851Z" fill="#959DA8"/>
<path fill-rule="evenodd" clip-rule="evenodd" d="M286.688 474.486L301.167 424.374L302.428 424.738L287.949 474.851L286.688 474.486Z" fill="#959DA8"/>
<path d="M356.715 425.67H292.57C292.57 424.866 292.728 424.07 293.036 423.327C293.344 422.584 293.795 421.909 294.363 421.34C294.932 420.771 295.607 420.32 296.35 420.013C297.093 419.705 297.889 419.546 298.694 419.546H350.591C351.395 419.546 352.192 419.705 352.935 420.013C353.678 420.32 354.353 420.771 354.921 421.34C355.49 421.909 355.941 422.584 356.249 423.327C356.556 424.07 356.715 424.866 356.715 425.67Z" fill="#D3DCE5"/>
<path fill-rule="evenodd" clip-rule="evenodd" d="M401.364 474.557L373.922 453.35L374.323 452.831L401.765 474.038L401.364 474.557Z" fill="#959DA8"/>
<path fill-rule="evenodd" clip-rule="evenodd" d="M373.922 474.038L401.364 452.831L401.765 453.35L374.323 474.557L373.922 474.038Z" fill="#959DA8"/>
<path d="M406.115 449.122H370.016V453.749H406.115V449.122Z" fill="#D3DCE5"/>
<path fill-rule="evenodd" clip-rule="evenodd" d="M367.083 89.1289C367.445 89.1015 367.76 89.3723 367.787 89.7337L373.635 166.769C373.663 167.131 373.392 167.446 373.031 167.474C372.669 167.501 372.354 167.23 372.327 166.869L366.478 89.8331C366.451 89.4716 366.722 89.1564 367.083 89.1289Z" fill="#959DA8"/>
<path d="M333.883 109.414C339.159 110.675 344.514 111.583 349.911 112.132L351.69 110.071L352.51 112.394C358.29 112.873 364.096 112.985 369.89 112.729C371.487 112.659 373.071 112.563 374.642 112.44L376.185 112.309C377.887 112.16 379.571 111.981 381.238 111.771L382.105 111.659L383.188 111.508L383.66 111.443L384.382 108.653L386.739 110.963L386.404 111.023L386.739 110.97L387.08 110.911L387.421 110.852C388.493 110.664 389.559 110.465 390.618 110.255L392.639 109.835L394.746 109.362L395.763 109.119L396.19 109.014L397.253 108.745L397.772 108.614L398.77 108.351L400.673 107.826H400.745L401.723 107.537C402.347 107.354 402.964 107.163 403.581 106.973C403.813 106.896 404.021 106.759 404.184 106.578C404.348 106.396 404.461 106.174 404.513 105.936C404.566 105.697 404.555 105.448 404.482 105.215C404.41 104.981 404.278 104.771 404.099 104.603C402.599 103.231 401.016 101.95 399.36 100.77L398.94 100.468C398.118 99.8908 397.277 99.3395 396.42 98.8144C396.078 98.6044 395.763 98.3944 395.383 98.1975C393.637 97.1826 391.831 96.2752 389.974 95.4802L389.417 95.2439C387.523 94.4681 385.583 93.8105 383.608 93.2748L382.485 92.9138C381.888 92.7629 381.278 92.625 380.674 92.4938C380.267 92.4085 379.86 92.3297 379.453 92.2509L378.836 92.1393L378.403 92.0672C377.72 91.9534 377.033 91.8549 376.342 91.7718L375.121 91.6405C374.616 91.5946 374.117 91.5552 373.612 91.5224L372.877 91.4764H372.575L371.439 91.4371C370.323 91.4108 369.201 91.4217 368.072 91.4699C361.505 91.7415 355.056 93.3051 349.094 96.0711C343.132 98.8371 337.773 102.751 333.325 107.59C333.199 107.734 333.112 107.907 333.072 108.094C333.032 108.281 333.04 108.475 333.096 108.657C333.152 108.84 333.253 109.006 333.391 109.138C333.529 109.271 333.698 109.366 333.883 109.414Z" fill="#D3DCE5"/>
<path fill-rule="evenodd" clip-rule="evenodd" d="M384.691 108.428C384.691 108.428 384.691 108.429 384.392 108.563L384.092 108.697L384.092 108.695L384.088 108.688L384.075 108.658C384.062 108.631 384.044 108.591 384.019 108.538C383.97 108.433 383.896 108.278 383.799 108.079C383.604 107.681 383.314 107.109 382.935 106.414C382.176 105.022 381.064 103.141 379.646 101.18C376.801 97.2425 372.772 93.0479 367.965 91.7756L368.133 91.1411C373.171 92.4745 377.314 96.8322 380.178 100.796C381.616 102.785 382.743 104.691 383.511 106.1C383.895 106.804 384.189 107.385 384.388 107.79C384.487 107.993 384.563 108.152 384.614 108.26C384.639 108.315 384.658 108.356 384.671 108.385L384.686 108.417L384.691 108.428Z" fill="#959DA8"/>
<path fill-rule="evenodd" clip-rule="evenodd" d="M351.951 110.094L351.642 109.986C351.332 109.877 351.332 109.877 351.332 109.877L351.333 109.874L351.336 109.865L351.348 109.832C351.359 109.802 351.374 109.759 351.395 109.703C351.436 109.59 351.498 109.426 351.58 109.215C351.744 108.794 351.988 108.19 352.311 107.454C352.956 105.984 353.917 103.987 355.179 101.88C357.694 97.6825 361.444 92.9807 366.331 91.2139L366.554 91.8312C361.891 93.5168 358.241 98.0466 355.742 102.217C354.498 104.295 353.549 106.266 352.912 107.718C352.593 108.444 352.353 109.04 352.192 109.453C352.111 109.66 352.051 109.821 352.011 109.93C351.991 109.984 351.976 110.026 351.966 110.053L351.955 110.084L351.952 110.092L351.951 110.094Z" fill="#959DA8"/>
<path d="M368.31 133.372V169.799H362.035L362.042 133.372H368.31Z" fill="#F4F5F6"/>
<path fill-rule="evenodd" clip-rule="evenodd" d="M361.714 133.044H368.638V170.127H361.707L361.714 133.044ZM362.37 133.7L362.363 169.471H367.982V133.7H362.37Z" fill="#959DA8"/>
<path d="M361.747 133.372V169.799H355.473L355.479 133.372H361.747Z" fill="#F4F5F6"/>
<path fill-rule="evenodd" clip-rule="evenodd" d="M355.151 133.044H362.076V170.127H355.145L355.151 133.044ZM355.807 133.7L355.801 169.471H361.419V133.7H355.807Z" fill="#959DA8"/>
<path d="M374.873 133.372H368.461V169.799H374.873V133.372Z" fill="#F4F5F6"/>
<path fill-rule="evenodd" clip-rule="evenodd" d="M368.133 133.044H375.202V170.127H368.133V133.044ZM368.789 133.7V169.471H374.545V133.7H368.789Z" fill="#959DA8"/>
<path d="M381.44 133.372H375.027V169.799H381.44V133.372Z" fill="#F4F5F6"/>
<path fill-rule="evenodd" clip-rule="evenodd" d="M374.699 133.044H381.768V170.127H374.699V133.044ZM375.356 133.7V169.471H381.112V133.7H375.356Z" fill="#959DA8"/>
<path d="M388.002 133.372H381.59V169.799H388.002V133.372Z" fill="#F4F5F6"/>
<path fill-rule="evenodd" clip-rule="evenodd" d="M381.262 133.044H388.331V170.127H381.262V133.044ZM381.918 133.7V169.471H387.674V133.7H381.918Z" fill="#959DA8"/>
<path d="M394.565 133.372H388.152V169.799H394.565V133.372Z" fill="#F4F5F6"/>
<path fill-rule="evenodd" clip-rule="evenodd" d="M387.824 133.044H394.893V170.127H387.824V133.044ZM388.481 133.7V169.471H394.237V133.7H388.481Z" fill="#959DA8"/>
<path d="M401.127 133.372H394.715V169.799H401.127V133.372Z" fill="#F4F5F6"/>
<path fill-rule="evenodd" clip-rule="evenodd" d="M394.387 133.044H401.456V170.127H394.387V133.044ZM395.043 133.7V169.471H400.799V133.7H395.043Z" fill="#959DA8"/>
<path d="M407.694 133.372H401.281V169.799H407.694V133.372Z" fill="#F4F5F6"/>
<path fill-rule="evenodd" clip-rule="evenodd" d="M400.953 133.044H408.022V170.127H400.953V133.044ZM401.609 133.7V169.471H407.366V133.7H401.609Z" fill="#959DA8"/>
<path d="M414.256 133.372H407.844V169.799H414.256V133.372Z" fill="#F4F5F6"/>
<path fill-rule="evenodd" clip-rule="evenodd" d="M407.516 133.044H414.585V170.127H407.516V133.044ZM408.172 133.7V169.471H413.928V133.7H408.172Z" fill="#959DA8"/>
<path d="M420.819 133.372H414.406V169.799H420.819V133.372Z" fill="#F4F5F6"/>
<path fill-rule="evenodd" clip-rule="evenodd" d="M414.078 133.044H421.147V170.127H414.078V133.044ZM414.734 133.7V169.471H420.491V133.7H414.734Z" fill="#959DA8"/>
<path d="M427.381 133.372H420.969V169.799H427.381V133.372Z" fill="#F4F5F6"/>
<path fill-rule="evenodd" clip-rule="evenodd" d="M420.641 133.044H427.71V170.127H420.641V133.044ZM421.297 133.7V169.471H427.053V133.7H421.297Z" fill="#959DA8"/>
<path fill-rule="evenodd" clip-rule="evenodd" d="M355.098 133.045H427.775V170.457H355.098V133.045ZM356.41 134.357V169.144H426.463V134.357H356.41Z" fill="#959DA8"/>
<path d="M933.707 408.376V461.565" stroke="#959DA8" stroke-width="1.33759" stroke-miterlimit="10"/>
<path d="M944.616 424.741H922.793L929.615 408.376H937.794L944.616 424.741Z" fill="#D3DCE5"/>
<path d="M932.257 408.376L928.418 424.741" stroke="#959DA8" stroke-width="0.668793" stroke-miterlimit="10"/>
<path d="M935.242 408.376L939.081 424.741" stroke="#959DA8" stroke-width="0.668793" stroke-miterlimit="10"/>
<path d="M905.677 432.044L904.553 431.837C903.689 433.045 903.32 434.539 903.523 436.01C903.568 436.313 903.726 436.587 903.967 436.776C904.207 436.966 904.51 437.056 904.815 437.029C905.12 437.001 905.402 436.858 905.605 436.629C905.807 436.4 905.914 436.102 905.904 435.796C905.942 434.541 905.866 433.285 905.677 432.044Z" fill="white" stroke="#959DA8" stroke-width="0.668793" stroke-miterlimit="10"/>
<path d="M908.984 429.972L909.285 428.868C910.749 428.613 912.254 428.929 913.492 429.751C913.745 429.922 913.923 430.184 913.989 430.482C914.056 430.78 914.006 431.093 913.849 431.355C913.693 431.618 913.442 431.81 913.148 431.894C912.854 431.977 912.539 431.945 912.268 431.804C911.12 431.294 910.021 430.681 908.984 429.972Z" fill="white" stroke="#959DA8" stroke-width="0.668793" stroke-miterlimit="10"/>
<path d="M912.353 432.359C912.791 433.138 912.912 434.056 912.692 434.923C912.471 435.79 911.926 436.538 911.169 437.014C910.412 437.49 909.502 437.657 908.625 437.48C907.749 437.303 906.974 436.796 906.461 436.064C905.498 434.526 905.076 430.934 906.702 429.911C908.327 428.888 911.39 430.821 912.353 432.359Z" fill="white" stroke="#959DA8" stroke-width="0.668793" stroke-miterlimit="10"/>
<path d="M903.12 429.4C903.761 428.997 903.954 428.151 903.551 427.51C903.148 426.869 902.302 426.676 901.661 427.078C901.02 427.481 900.827 428.328 901.23 428.969C901.633 429.61 902.479 429.803 903.12 429.4Z" fill="white" stroke="#959DA8" stroke-width="0.668793" stroke-miterlimit="10"/>
<path d="M909.517 429.416C910.161 429.015 910.357 428.168 909.956 427.524C909.554 426.88 908.707 426.684 908.064 427.085C907.42 427.486 907.224 428.334 907.625 428.977C908.026 429.621 908.873 429.817 909.517 429.416Z" fill="white" stroke="#959DA8" stroke-width="0.669928" stroke-miterlimit="10"/>
<path d="M907.764 431.582C909.39 430.56 909.926 428.487 908.961 426.951C907.995 425.416 905.895 424.999 904.269 426.021C902.643 427.044 902.107 429.117 903.072 430.652C904.037 432.188 906.137 432.604 907.764 431.582Z" fill="white" stroke="#959DA8" stroke-width="0.668793" stroke-miterlimit="10"/>
<path d="M909.85 438.725C910.089 437.906 909.513 437.018 908.562 436.74C907.612 436.463 906.648 436.903 906.409 437.722C906.17 438.541 906.747 439.429 907.697 439.707C908.648 439.984 909.612 439.545 909.85 438.725Z" fill="white" stroke="#959DA8" stroke-width="0.682168" stroke-miterlimit="10"/>
<path d="M914.76 435.234C914.923 434.258 914.372 433.353 913.53 433.213C912.689 433.073 911.875 433.751 911.712 434.727C911.55 435.703 912.1 436.609 912.942 436.749C913.784 436.889 914.598 436.211 914.76 435.234Z" fill="white" stroke="#959DA8" stroke-width="0.668793" stroke-miterlimit="10"/>
<path d="M907.768 431.575C908.562 431.076 908.932 430.235 908.594 429.697C908.256 429.159 907.338 429.128 906.544 429.627C905.749 430.126 905.38 430.967 905.718 431.505C906.056 432.043 906.974 432.074 907.768 431.575Z" stroke="#959DA8" stroke-width="0.167198" stroke-miterlimit="10"/>
<path d="M904.938 429.547C904.979 429.371 904.868 429.195 904.692 429.155C904.515 429.115 904.34 429.225 904.299 429.402C904.259 429.578 904.37 429.754 904.546 429.794C904.723 429.834 904.898 429.724 904.938 429.547Z" fill="#959DA8"/>
<path d="M907.248 428.152C907.379 428.069 907.419 427.896 907.336 427.765C907.253 427.633 907.08 427.594 906.949 427.676C906.817 427.759 906.778 427.932 906.86 428.064C906.943 428.195 907.116 428.235 907.248 428.152Z" fill="#959DA8"/>
<path d="M907.198 430.672C907.385 430.555 907.463 430.34 907.37 430.193C907.278 430.046 907.051 430.022 906.863 430.14C906.676 430.258 906.598 430.473 906.691 430.62C906.783 430.767 907.01 430.79 907.198 430.672Z" fill="#959DA8"/>
<path d="M907.219 430.686L907.426 431.014" stroke="#959DA8" stroke-width="0.167198" stroke-miterlimit="10"/>
<path d="M906.918 431.208C907.285 431.13 907.612 430.923 907.841 430.626" stroke="#959DA8" stroke-width="0.167198" stroke-miterlimit="10"/>
<path d="M924.708 435.281H902.203V453.914H924.708V435.281Z" fill="#F4F5F6" stroke="#959DA8" stroke-width="1.33759" stroke-miterlimit="10"/>
<path d="M916.613 453.914V435.281" stroke="#959DA8" stroke-width="0.668793" stroke-miterlimit="10"/>
<path d="M901.537 434.694L896.254 439.268H912.104L916.632 434.694H901.537Z" fill="#D3DCE5"/>
<path d="M929.427 438.566H920.592L916.633 434.694H925.461L929.427 438.566Z" fill="#D3DCE5"/>
<path d="M918.028 453.914H895.523V472.547H918.028V453.914Z" fill="#F4F5F6" stroke="#959DA8" stroke-width="1.33759" stroke-miterlimit="10"/>
<path d="M909.93 472.553V454.402" stroke="#959DA8" stroke-width="0.668793" stroke-miterlimit="10"/>
<path d="M940.532 453.914H918.027V472.547H940.532V453.914Z" fill="#F4F5F6" stroke="#959DA8" stroke-width="1.33759" stroke-miterlimit="10"/>
<path d="M936.305 472.554V453.914" stroke="#959DA8" stroke-width="0.668793" stroke-miterlimit="10"/>
<path d="M890.44 472.873H875.773L886.334 452.923H901L890.44 472.873Z" fill="#F4F5F6" stroke="#959DA8" stroke-width="1.33759" stroke-miterlimit="10"/>
<path d="M888.092 457.297C888.914 456.034 889.204 454.765 888.74 454.463C888.275 454.16 887.233 454.939 886.41 456.202C885.588 457.465 885.298 458.734 885.763 459.036C886.227 459.339 887.27 458.56 888.092 457.297Z" fill="#D3DCE5"/>
<path d="M890.663 466.945C892.67 463.862 893.381 460.766 892.251 460.03C891.121 459.295 888.578 461.198 886.571 464.282C884.564 467.365 883.853 470.46 884.983 471.196C886.113 471.931 888.656 470.028 890.663 466.945Z" fill="#D3DCE5"/>
<path d="M883.609 463.927L890.431 455.741V463.927H883.609Z" stroke="#959DA8" stroke-width="0.668793" stroke-miterlimit="10"/>
<line y1="474" x2="1300" y2="474" stroke="#D9DDE2" stroke-width="2" stroke-miterlimit="10"/>
</g>
</svg>
