<svg width="1300" height="499" viewBox="0 0 1300 499" fill="none" xmlns="http://www.w3.org/2000/svg">
<mask id="mask0" mask-type="alpha" maskUnits="userSpaceOnUse" x="0" y="0" width="1300" height="499">
<rect width="1300" height="499" rx="16" fill="#2A3A51"/>
</mask>
<g mask="url(#mask0)">
<path d="M854.147 177.455C853.862 177.455 853.577 177.424 853.299 177.362C840.299 174.401 840.3 158.695 840.3 158.695C840.201 149.738 842.845 140.965 847.877 133.554C848.58 132.544 849.517 131.719 850.608 131.149C851.699 130.58 852.912 130.282 854.143 130.282C855.374 130.282 856.586 130.58 857.677 131.149C858.768 131.719 859.706 132.544 860.409 133.554C865.444 140.964 868.09 149.737 867.995 158.695C867.995 158.695 867.995 174.46 854.996 177.362C854.717 177.424 854.432 177.455 854.147 177.455Z" fill="#80C33F"/>
<path fill-rule="evenodd" clip-rule="evenodd" d="M854.147 147.2C854.381 147.2 854.571 147.39 854.571 147.624V201.165C854.571 201.399 854.381 201.589 854.147 201.589C853.913 201.589 853.723 201.399 853.723 201.165V147.624C853.723 147.39 853.913 147.2 854.147 147.2Z" fill="#2A3A51"/>
<path d="M231.203 177.289C231.195 175.4 231.643 173.538 232.507 171.858C233.371 170.179 234.627 168.733 236.169 167.642C237.71 166.551 239.492 165.847 241.363 165.59C243.234 165.333 245.139 165.53 246.917 166.165C247.605 163.397 248.997 160.854 250.959 158.784C252.92 156.714 255.384 155.186 258.111 154.351C260.838 153.516 263.735 153.4 266.519 154.016C269.304 154.632 271.882 155.959 274.002 157.866C275.499 153.679 278.426 150.154 282.267 147.913C286.108 145.672 290.617 144.858 294.999 145.614C299.381 146.371 303.356 148.649 306.223 152.048C309.091 155.447 310.667 159.749 310.674 164.196C310.676 164.854 310.642 165.511 310.572 166.165C311.845 165.698 311.259 179.393 310.962 180.428H231.627C231.343 179.397 231.2 178.333 231.203 177.263V177.289Z" fill="#80C33F"/>
<path d="M296.03 163.033V210.125H287.918L287.926 163.033H296.03Z" fill="#F4F5F6"/>
<path fill-rule="evenodd" clip-rule="evenodd" d="M287.501 162.609H296.452V210.549H287.492L287.501 162.609ZM288.349 163.457L288.341 209.701H295.604V163.457H288.349Z" fill="#959DA8"/>
<path d="M287.541 163.033V210.125H279.43L279.438 163.033H287.541Z" fill="#F4F5F6"/>
<path fill-rule="evenodd" clip-rule="evenodd" d="M279.016 162.609H287.968V210.549H279.008L279.016 162.609ZM279.865 163.457L279.856 209.701H287.12V163.457H279.865Z" fill="#959DA8"/>
<path d="M304.516 163.033H296.227V210.125H304.516V163.033Z" fill="#F4F5F6"/>
<path fill-rule="evenodd" clip-rule="evenodd" d="M295.801 162.609H304.939V210.549H295.801V162.609ZM296.649 163.457V209.701H304.091V163.457H296.649Z" fill="#959DA8"/>
<path d="M312.997 163.033H304.707V210.125H312.997V163.033Z" fill="#F4F5F6"/>
<path fill-rule="evenodd" clip-rule="evenodd" d="M304.281 162.609H313.42V210.549H304.281V162.609ZM305.13 163.457V209.701H312.571V163.457H305.13Z" fill="#959DA8"/>
<path d="M321.485 163.033H313.195V210.125H321.485V163.033Z" fill="#F4F5F6"/>
<path fill-rule="evenodd" clip-rule="evenodd" d="M312.77 162.609H321.908V210.549H312.77V162.609ZM313.618 163.457V209.701H321.059V163.457H313.618Z" fill="#959DA8"/>
<path d="M254.452 163.033V210.125H246.34L246.348 163.033H254.452Z" fill="#F4F5F6"/>
<path fill-rule="evenodd" clip-rule="evenodd" d="M245.927 162.609H254.878V210.549H245.918L245.927 162.609ZM246.775 163.457L246.767 209.701H254.03V163.457H246.775Z" fill="#959DA8"/>
<path d="M245.967 163.033V210.125H237.855L237.864 163.033H245.967Z" fill="#F4F5F6"/>
<path fill-rule="evenodd" clip-rule="evenodd" d="M237.438 162.609H246.39V210.549H237.43L237.438 162.609ZM238.287 163.457L238.278 209.701H245.541V163.457H238.287Z" fill="#959DA8"/>
<path d="M237.483 163.033V210.125H229.371L229.38 163.033H237.483Z" fill="#F4F5F6"/>
<path fill-rule="evenodd" clip-rule="evenodd" d="M228.954 162.609H237.906V210.549H228.945L228.954 162.609ZM229.802 163.457L229.794 209.701H237.057V163.457H229.802Z" fill="#959DA8"/>
<path d="M228.998 163.033V210.125H220.887L220.895 163.033H228.998Z" fill="#F4F5F6"/>
<path fill-rule="evenodd" clip-rule="evenodd" d="M220.47 162.609H229.421V210.549H220.461L220.47 162.609ZM221.318 163.457L221.31 209.701H228.573V163.457H221.318Z" fill="#959DA8"/>
<path d="M262.934 163.033H254.645V210.125H262.934V163.033Z" fill="#F4F5F6"/>
<path fill-rule="evenodd" clip-rule="evenodd" d="M254.223 162.609H263.361V210.549H254.223V162.609ZM255.071 163.457V209.701H262.513V163.457H255.071Z" fill="#959DA8"/>
<path d="M271.423 163.033H263.133V210.125H271.423V163.033Z" fill="#F4F5F6"/>
<path fill-rule="evenodd" clip-rule="evenodd" d="M262.707 162.609H271.845V210.549H262.707V162.609ZM263.556 163.457V209.701H270.997V163.457H263.556Z" fill="#959DA8"/>
<path d="M279.903 163.033H271.613V210.125H279.903V163.033Z" fill="#F4F5F6"/>
<path fill-rule="evenodd" clip-rule="evenodd" d="M271.191 162.609H280.33V210.549H271.191V162.609ZM272.04 163.457V209.701H279.481V163.457H272.04Z" fill="#959DA8"/>
<path d="M329.97 163.033H321.68V210.125H329.97V163.033Z" fill="#F4F5F6"/>
<path fill-rule="evenodd" clip-rule="evenodd" d="M321.254 162.609H330.392V210.549H321.254V162.609ZM322.102 163.457V209.701H329.544V163.457H322.102Z" fill="#959DA8"/>
<path d="M338.454 163.033H330.164V210.125H338.454V163.033Z" fill="#F4F5F6"/>
<path fill-rule="evenodd" clip-rule="evenodd" d="M329.742 162.609H338.881V210.549H329.742V162.609ZM330.591 163.457V209.701H338.032V163.457H330.591Z" fill="#959DA8"/>
<path d="M346.938 163.033H338.648V210.125H346.938V163.033Z" fill="#F4F5F6"/>
<path fill-rule="evenodd" clip-rule="evenodd" d="M338.223 162.609H347.361V210.549H338.223V162.609ZM339.071 163.457V209.701H346.513V163.457H339.071Z" fill="#959DA8"/>
<path d="M355.423 163.033H347.133V210.125H355.423V163.033Z" fill="#F4F5F6"/>
<path fill-rule="evenodd" clip-rule="evenodd" d="M346.711 162.609H355.849V210.549H346.711V162.609ZM347.559 163.457V209.701H355.001V163.457H347.559Z" fill="#959DA8"/>
<path d="M363.911 163.033H355.621V210.125H363.911V163.033Z" fill="#F4F5F6"/>
<path fill-rule="evenodd" clip-rule="evenodd" d="M355.195 162.609H364.334V210.549H355.195V162.609ZM356.044 163.457V209.701H363.485V163.457H356.044Z" fill="#959DA8"/>
<path d="M372.391 163.033H364.102V210.125H372.391V163.033Z" fill="#F4F5F6"/>
<path fill-rule="evenodd" clip-rule="evenodd" d="M363.68 162.609H372.818V210.549H363.68V162.609ZM364.528 163.457V209.701H371.97V163.457H364.528Z" fill="#959DA8"/>
<path fill-rule="evenodd" clip-rule="evenodd" d="M220.172 162.607H372.902V210.972H220.172V162.607ZM221.869 164.304V209.275H371.205V164.304H221.869Z" fill="#959DA8"/>
<path d="M129.383 470.018C129.375 468.13 129.822 466.267 130.687 464.588C131.551 462.909 132.807 461.462 134.348 460.371C135.89 459.28 137.671 458.576 139.542 458.319C141.413 458.062 143.319 458.259 145.097 458.894C145.785 456.126 147.177 453.584 149.138 451.513C151.1 449.443 153.564 447.916 156.291 447.08C159.018 446.245 161.914 446.13 164.699 446.746C167.484 447.362 170.061 448.688 172.181 450.596C173.679 446.409 176.606 442.884 180.447 440.643C184.288 438.401 188.796 437.587 193.179 438.344C197.561 439.1 201.536 441.378 204.403 444.778C207.27 448.177 208.846 452.479 208.854 456.926C208.856 457.583 208.822 458.24 208.752 458.894C210.029 458.427 211.379 458.189 212.74 458.19C219.273 458.19 224.958 463.493 224.542 469.993C224.482 471.064 224.303 472.126 224.008 473.158H129.824C129.54 472.127 129.397 471.062 129.4 469.993L129.383 470.018Z" fill="#80C33F"/>
<path d="M959.217 341.64H226.961V473.158H959.217V341.64Z" fill="#F4F5F6"/>
<path fill-rule="evenodd" clip-rule="evenodd" d="M226.113 340.792H960.067V474.006H226.113V340.792ZM227.81 342.489V472.309H958.37V342.489H227.81Z" fill="#959DA8"/>
<path d="M959.217 210.125H226.961V341.643H959.217V210.125Z" fill="#F4F5F6"/>
<path fill-rule="evenodd" clip-rule="evenodd" d="M226.113 209.276H960.067V342.491H226.113V209.276ZM227.81 210.973V340.794H958.37V210.973H227.81Z" fill="#959DA8"/>
<path d="M813.275 78.606H372.055V210.124H813.275V78.606Z" fill="#F4F5F6"/>
<path fill-rule="evenodd" clip-rule="evenodd" d="M371.293 77.8462H814.032V210.883H371.293V77.8462ZM372.812 79.365V209.364H812.513V79.365H372.812Z" fill="#959DA8"/>
<path d="M519.694 54H372.055V473.159H519.694V54Z" fill="#F4F5F6"/>
<path fill-rule="evenodd" clip-rule="evenodd" d="M371.203 53.1514H520.539V474.008H371.203V53.1514ZM372.9 54.8484V472.311H518.842V54.8484H372.9Z" fill="#959DA8"/>
<path d="M813.276 54H665.637V473.159H813.276V54Z" fill="#F4F5F6"/>
<path fill-rule="evenodd" clip-rule="evenodd" d="M664.789 53.1514H814.125V474.008H664.789V53.1514ZM666.486 54.8484V472.311H812.428V54.8484H666.486Z" fill="#959DA8"/>
<path d="M355.933 233.881H242.234V340.792H355.933V233.881Z" fill="#F4F5F6"/>
<path fill-rule="evenodd" clip-rule="evenodd" d="M241.324 232.969H356.848V341.705H241.324V232.969ZM243.148 234.794V339.88H355.023V234.794H243.148Z" fill="#959DA8"/>
<path d="M943.094 233.881H829.395V340.792H943.094V233.881Z" fill="#F4F5F6"/>
<path fill-rule="evenodd" clip-rule="evenodd" d="M828.484 232.969H944.008V341.705H828.484V232.969ZM830.309 234.794V339.88H942.183V234.794H830.309Z" fill="#959DA8"/>
<path d="M409.84 98.9697H481.962V195.605H409.84V98.9697Z" fill="white"/>
<path fill-rule="evenodd" clip-rule="evenodd" d="M409.414 98.5454H482.385V196.03H409.414V98.5454ZM410.263 99.3939V195.181H481.537V99.3939H410.263Z" fill="#959DA8"/>
<path fill-rule="evenodd" clip-rule="evenodd" d="M445.172 195.7V98.7671H446.02V195.7H445.172Z" fill="#959DA8"/>
<path d="M703.422 98.9697H775.544V195.605H703.422V98.9697Z" fill="white"/>
<path fill-rule="evenodd" clip-rule="evenodd" d="M702.996 98.5454H775.967V196.03H702.996V98.5454ZM703.845 99.3939V195.181H775.119V99.3939H703.845Z" fill="#959DA8"/>
<path fill-rule="evenodd" clip-rule="evenodd" d="M738.75 195.7V98.7671H739.599V195.7H738.75Z" fill="#959DA8"/>
<path d="M409.84 233.881H481.962V330.517H409.84V233.881Z" fill="white"/>
<path fill-rule="evenodd" clip-rule="evenodd" d="M409.414 233.457H482.385V330.941H409.414V233.457ZM410.263 234.306V330.093H481.537V234.306H410.263Z" fill="#959DA8"/>
<path fill-rule="evenodd" clip-rule="evenodd" d="M445.172 330.611V233.679H446.02V330.611H445.172Z" fill="#959DA8"/>
<path d="M261.348 239.185H333.47V331.383H261.348V239.185Z" fill="white"/>
<path fill-rule="evenodd" clip-rule="evenodd" d="M260.926 238.761H333.897V331.807H260.926V238.761ZM261.774 239.609V330.959H333.048V239.609H261.774Z" fill="#959DA8"/>
<path fill-rule="evenodd" clip-rule="evenodd" d="M296.68 331.461V238.975H297.528V331.461H296.68Z" fill="#959DA8"/>
<path d="M852.754 239.185H924.876V331.383H852.754V239.185Z" fill="white"/>
<path fill-rule="evenodd" clip-rule="evenodd" d="M852.332 238.761H925.303V331.807H852.332V238.761ZM853.181 239.609V330.959H924.455V239.609H853.181Z" fill="#959DA8"/>
<path fill-rule="evenodd" clip-rule="evenodd" d="M888.086 331.461V238.975H888.934V331.461H888.086Z" fill="#959DA8"/>
<path d="M703.422 233.881H775.544V330.517H703.422V233.881Z" fill="white"/>
<path fill-rule="evenodd" clip-rule="evenodd" d="M702.996 233.457H775.967V330.941H702.996V233.457ZM703.845 234.306V330.093H775.119V234.306H703.845Z" fill="#959DA8"/>
<path fill-rule="evenodd" clip-rule="evenodd" d="M738.75 330.611V233.679H739.599V330.611H738.75Z" fill="#959DA8"/>
<path d="M409.84 364.553H481.962V461.188H409.84V364.553Z" fill="white"/>
<path fill-rule="evenodd" clip-rule="evenodd" d="M409.414 364.128H482.385V461.613H409.414V364.128ZM410.263 364.977V460.764H481.537V364.977H410.263Z" fill="#959DA8"/>
<path fill-rule="evenodd" clip-rule="evenodd" d="M445.172 461.279V364.346H446.02V461.279H445.172Z" fill="#959DA8"/>
<path d="M703.422 364.553H775.544V461.188H703.422V364.553Z" fill="white"/>
<path fill-rule="evenodd" clip-rule="evenodd" d="M702.996 364.128H775.967V461.613H702.996V364.128ZM703.845 364.977V460.764H775.119V364.977H703.845Z" fill="#959DA8"/>
<path fill-rule="evenodd" clip-rule="evenodd" d="M738.75 461.279V364.346H739.599V461.279H738.75Z" fill="#959DA8"/>
<path d="M852.754 364.553H924.876V461.188H852.754V364.553Z" fill="white"/>
<path fill-rule="evenodd" clip-rule="evenodd" d="M852.332 364.128H925.303V461.613H852.332V364.128ZM853.181 364.977V460.764H924.455V364.977H853.181Z" fill="#959DA8"/>
<path fill-rule="evenodd" clip-rule="evenodd" d="M888.086 461.279V364.346H888.934V461.279H888.086Z" fill="#959DA8"/>
<path d="M578.699 98.9697H607.794V195.605H578.699V98.9697Z" fill="white"/>
<path fill-rule="evenodd" clip-rule="evenodd" d="M578.273 98.5454H608.217V196.03H578.273V98.5454ZM579.122 99.3939V195.181H607.368V99.3939H579.122Z" fill="#959DA8"/>
<path d="M578.699 233.881H607.794V330.517H578.699V233.881Z" fill="white"/>
<path fill-rule="evenodd" clip-rule="evenodd" d="M578.273 233.457H608.217V330.941H578.273V233.457ZM579.122 234.306V330.093H607.368V234.306H579.122Z" fill="#959DA8"/>
<path d="M578.699 364.553H607.794V461.188H578.699V364.553Z" fill="white"/>
<path fill-rule="evenodd" clip-rule="evenodd" d="M578.273 364.128H608.217V461.613H578.273V364.128ZM579.122 364.977V460.764H607.368V364.977H579.122Z" fill="#959DA8"/>
<path d="M272.077 317.461C271.791 317.461 271.507 317.429 271.228 317.367C258.229 314.406 258.229 298.7 258.229 298.7C258.131 289.743 260.775 280.97 265.806 273.559C266.51 272.549 267.447 271.724 268.538 271.155C269.629 270.585 270.842 270.288 272.073 270.288C273.303 270.288 274.516 270.585 275.607 271.155C276.698 271.724 277.635 272.549 278.339 273.559C283.373 280.969 286.02 289.742 285.924 298.7C285.924 298.7 285.924 314.466 272.925 317.367C272.647 317.429 272.362 317.461 272.077 317.461Z" fill="#80C33F"/>
<path fill-rule="evenodd" clip-rule="evenodd" d="M272.077 287.199C272.311 287.199 272.501 287.389 272.501 287.623V341.164C272.501 341.398 272.311 341.588 272.077 341.588C271.842 341.588 271.652 341.398 271.652 341.164V287.623C271.652 287.389 271.842 287.199 272.077 287.199Z" fill="#2A3A51"/>
<path d="M563.112 170.671C562.827 170.671 562.542 170.639 562.263 170.577C549.264 167.616 549.264 151.91 549.264 151.91C549.166 142.953 551.81 134.18 556.842 126.769C557.545 125.759 558.482 124.934 559.573 124.365C560.664 123.795 561.877 123.498 563.108 123.498C564.339 123.498 565.551 123.795 566.642 124.365C567.733 124.934 568.67 125.759 569.374 126.769C574.408 134.179 577.055 142.952 576.959 151.91C576.959 151.91 576.959 167.676 563.96 170.577C563.682 170.639 563.397 170.671 563.112 170.671Z" fill="#80C33F"/>
<path fill-rule="evenodd" clip-rule="evenodd" d="M563.112 140.411C563.346 140.411 563.536 140.601 563.536 140.835V194.376C563.536 194.61 563.346 194.8 563.112 194.8C562.877 194.8 562.688 194.61 562.688 194.376V140.835C562.688 140.601 562.877 140.411 563.112 140.411Z" fill="#2A3A51"/>
<path d="M279.905 293.703V340.794H271.793L271.801 293.703H279.905Z" fill="#F4F5F6"/>
<path fill-rule="evenodd" clip-rule="evenodd" d="M271.38 293.278H280.331V341.219H271.371L271.38 293.278ZM272.228 294.127L272.22 340.37H279.483V294.127H272.228Z" fill="#959DA8"/>
<path d="M271.42 293.703V340.794H263.309L263.317 293.703H271.42Z" fill="#F4F5F6"/>
<path fill-rule="evenodd" clip-rule="evenodd" d="M262.895 293.278H271.847V341.219H262.887L262.895 293.278ZM263.744 294.127L263.735 340.37H270.999V294.127H263.744Z" fill="#959DA8"/>
<path d="M288.391 293.703H280.102V340.794H288.391V293.703Z" fill="#F4F5F6"/>
<path fill-rule="evenodd" clip-rule="evenodd" d="M279.68 293.278H288.818V341.219H279.68V293.278ZM280.528 294.127V340.37H287.97V294.127H280.528Z" fill="#959DA8"/>
<path d="M296.88 293.703H288.59V340.794H296.88V293.703Z" fill="#F4F5F6"/>
<path fill-rule="evenodd" clip-rule="evenodd" d="M288.164 293.278H297.302V341.219H288.164V293.278ZM289.013 294.127V340.37H296.454V294.127H289.013Z" fill="#959DA8"/>
<path d="M305.364 293.703H297.074V340.794H305.364V293.703Z" fill="#F4F5F6"/>
<path fill-rule="evenodd" clip-rule="evenodd" d="M296.648 293.278H305.787V341.219H296.648V293.278ZM297.497 294.127V340.37H304.938V294.127H297.497Z" fill="#959DA8"/>
<path d="M313.848 293.703H305.559V340.794H313.848V293.703Z" fill="#F4F5F6"/>
<path fill-rule="evenodd" clip-rule="evenodd" d="M305.133 293.278H314.271V341.219H305.133V293.278ZM305.981 294.127V340.37H313.423V294.127H305.981Z" fill="#959DA8"/>
<path d="M322.333 293.703H314.043V340.794H322.333V293.703Z" fill="#F4F5F6"/>
<path fill-rule="evenodd" clip-rule="evenodd" d="M313.617 293.278H322.756V341.219H313.617V293.278ZM314.466 294.127V340.37H321.907V294.127H314.466Z" fill="#959DA8"/>
<path d="M330.817 293.703H322.527V340.794H330.817V293.703Z" fill="#F4F5F6"/>
<path fill-rule="evenodd" clip-rule="evenodd" d="M322.102 293.278H331.24V341.219H322.102V293.278ZM322.95 294.127V340.37H330.391V294.127H322.95Z" fill="#959DA8"/>
<path d="M339.302 293.703H331.012V340.794H339.302V293.703Z" fill="#F4F5F6"/>
<path fill-rule="evenodd" clip-rule="evenodd" d="M330.586 293.278H339.724V341.219H330.586V293.278ZM331.434 294.127V340.37H338.876V294.127H331.434Z" fill="#959DA8"/>
<path d="M347.79 293.703H339.5V340.794H347.79V293.703Z" fill="#F4F5F6"/>
<path fill-rule="evenodd" clip-rule="evenodd" d="M339.074 293.278H348.213V341.219H339.074V293.278ZM339.923 294.127V340.37H347.364V294.127H339.923Z" fill="#959DA8"/>
<path d="M356.27 293.703H347.98V340.794H356.27V293.703Z" fill="#F4F5F6"/>
<path fill-rule="evenodd" clip-rule="evenodd" d="M347.559 293.278H356.697V341.219H347.559V293.278ZM348.407 294.127V340.37H355.848V294.127H348.407Z" fill="#959DA8"/>
<path d="M254.45 293.703H246.16V340.794H254.45V293.703Z" fill="#F4F5F6"/>
<path fill-rule="evenodd" clip-rule="evenodd" d="M245.738 293.278H254.877V341.219H245.738V293.278ZM246.587 294.127V340.37H254.028V294.127H246.587Z" fill="#959DA8"/>
<path d="M262.934 293.703H254.645V340.794H262.934V293.703Z" fill="#F4F5F6"/>
<path fill-rule="evenodd" clip-rule="evenodd" d="M254.223 293.278H263.361V341.219H254.223V293.278ZM255.071 294.127V340.37H262.513V294.127H255.071Z" fill="#959DA8"/>
<path fill-rule="evenodd" clip-rule="evenodd" d="M241.387 293.279H356.783V341.643H241.387V293.279ZM243.084 294.976V339.946H355.086V294.976H243.084Z" fill="#959DA8"/>
<path d="M486.406 199.551H405.341L404.297 192.025H487.45L486.406 199.551Z" fill="#D3DCE5"/>
<path d="M780.836 200.401H699.77L698.727 192.875H781.88L780.836 200.401Z" fill="#D3DCE5"/>
<path d="M486.406 334.465H405.341L404.297 326.938H487.45L486.406 334.465Z" fill="#D3DCE5"/>
<path d="M780.836 331.918H699.77L698.727 324.392H781.88L780.836 331.918Z" fill="#D3DCE5"/>
<path d="M486.406 465.133H405.341L404.297 457.606H487.45L486.406 465.133Z" fill="#D3DCE5"/>
<path d="M780.836 461.738H699.77L698.727 454.212H781.88L780.836 461.738Z" fill="#D3DCE5"/>
<path d="M929.324 461.738H848.258L847.215 454.212H930.368L929.324 461.738Z" fill="#D3DCE5"/>
<path d="M592.155 163.033V210.125H584.043L584.051 163.033H592.155Z" fill="#F4F5F6"/>
<path fill-rule="evenodd" clip-rule="evenodd" d="M583.626 162.609H592.577V210.549H583.617L583.626 162.609ZM584.474 163.457L584.466 209.701H591.729V163.457H584.474Z" fill="#959DA8"/>
<path d="M583.67 163.033V210.125H575.559L575.567 163.033H583.67Z" fill="#F4F5F6"/>
<path fill-rule="evenodd" clip-rule="evenodd" d="M575.141 162.609H584.093V210.549H575.133L575.141 162.609ZM575.99 163.457L575.981 209.701H583.245V163.457H575.99Z" fill="#959DA8"/>
<path d="M600.641 163.033H592.352V210.125H600.641V163.033Z" fill="#F4F5F6"/>
<path fill-rule="evenodd" clip-rule="evenodd" d="M591.93 162.609H601.068V210.549H591.93V162.609ZM592.778 163.457V209.701H600.22V163.457H592.778Z" fill="#959DA8"/>
<path d="M609.126 163.033H600.836V210.125H609.126V163.033Z" fill="#F4F5F6"/>
<path fill-rule="evenodd" clip-rule="evenodd" d="M600.414 162.609H609.552V210.549H600.414V162.609ZM601.263 163.457V209.701H608.704V163.457H601.263Z" fill="#959DA8"/>
<path d="M617.61 163.033H609.32V210.125H617.61V163.033Z" fill="#F4F5F6"/>
<path fill-rule="evenodd" clip-rule="evenodd" d="M608.895 162.609H618.033V210.549H608.895V162.609ZM609.743 163.457V209.701H617.184V163.457H609.743Z" fill="#959DA8"/>
<path d="M550.58 163.033V210.125H542.469L542.477 163.033H550.58Z" fill="#F4F5F6"/>
<path fill-rule="evenodd" clip-rule="evenodd" d="M542.052 162.609H551.003V210.549H542.043L542.052 162.609ZM542.9 163.457L542.892 209.701H550.155V163.457H542.9Z" fill="#959DA8"/>
<path d="M542.092 163.033V210.125H533.98L533.989 163.033H542.092Z" fill="#F4F5F6"/>
<path fill-rule="evenodd" clip-rule="evenodd" d="M533.567 162.609H542.519V210.549H533.559L533.567 162.609ZM534.416 163.457L534.407 209.701H541.67V163.457H534.416Z" fill="#959DA8"/>
<path d="M533.608 163.033V210.125H525.496L525.505 163.033H533.608Z" fill="#F4F5F6"/>
<path fill-rule="evenodd" clip-rule="evenodd" d="M525.083 162.609H534.035V210.549H525.074L525.083 162.609ZM525.931 163.457L525.923 209.701H533.186V163.457H525.931Z" fill="#959DA8"/>
<path d="M525.12 163.033V210.125H517.008L517.016 163.033H525.12Z" fill="#F4F5F6"/>
<path fill-rule="evenodd" clip-rule="evenodd" d="M516.595 162.609H525.546V210.549H516.586L516.595 162.609ZM517.443 163.457L517.435 209.701H524.698V163.457H517.443Z" fill="#959DA8"/>
<path d="M559.063 163.033H550.773V210.125H559.063V163.033Z" fill="#F4F5F6"/>
<path fill-rule="evenodd" clip-rule="evenodd" d="M550.352 162.609H559.49V210.549H550.352V162.609ZM551.2 163.457V209.701H558.641V163.457H551.2Z" fill="#959DA8"/>
<path d="M567.552 163.033H559.262V210.125H567.552V163.033Z" fill="#F4F5F6"/>
<path fill-rule="evenodd" clip-rule="evenodd" d="M558.836 162.609H567.974V210.549H558.836V162.609ZM559.684 163.457V209.701H567.126V163.457H559.684Z" fill="#959DA8"/>
<path d="M576.036 163.033H567.746V210.125H576.036V163.033Z" fill="#F4F5F6"/>
<path fill-rule="evenodd" clip-rule="evenodd" d="M567.324 162.609H576.463V210.549H567.324V162.609ZM568.173 163.457V209.701H575.614V163.457H568.173Z" fill="#959DA8"/>
<path d="M626.098 163.033H617.809V210.125H626.098V163.033Z" fill="#F4F5F6"/>
<path fill-rule="evenodd" clip-rule="evenodd" d="M617.383 162.609H626.521V210.549H617.383V162.609ZM618.231 163.457V209.701H625.673V163.457H618.231Z" fill="#959DA8"/>
<path d="M634.583 163.033H626.293V210.125H634.583V163.033Z" fill="#F4F5F6"/>
<path fill-rule="evenodd" clip-rule="evenodd" d="M625.867 162.609H635.006V210.549H625.867V162.609ZM626.716 163.457V209.701H634.157V163.457H626.716Z" fill="#959DA8"/>
<path d="M643.067 163.033H634.777V210.125H643.067V163.033Z" fill="#F4F5F6"/>
<path fill-rule="evenodd" clip-rule="evenodd" d="M634.352 162.609H643.49V210.549H634.352V162.609ZM635.2 163.457V209.701H642.641V163.457H635.2Z" fill="#959DA8"/>
<path d="M651.548 163.033H643.258V210.125H651.548V163.033Z" fill="#F4F5F6"/>
<path fill-rule="evenodd" clip-rule="evenodd" d="M642.836 162.609H651.974V210.549H642.836V162.609ZM643.684 163.457V209.701H651.126V163.457H643.684Z" fill="#959DA8"/>
<path d="M660.036 163.033H651.746V210.125H660.036V163.033Z" fill="#F4F5F6"/>
<path fill-rule="evenodd" clip-rule="evenodd" d="M651.32 162.609H660.459V210.549H651.32V162.609ZM652.169 163.457V209.701H659.61V163.457H652.169Z" fill="#959DA8"/>
<path d="M668.52 163.033H660.23V210.125H668.52V163.033Z" fill="#F4F5F6"/>
<path fill-rule="evenodd" clip-rule="evenodd" d="M659.805 162.609H668.943V210.549H659.805V162.609ZM660.653 163.457V209.701H668.095V163.457H660.653Z" fill="#959DA8"/>
<path fill-rule="evenodd" clip-rule="evenodd" d="M516.297 162.607H669.027V210.972H516.297V162.607ZM517.994 164.304V209.275H667.33V164.304H517.994Z" fill="#959DA8"/>
<path d="M523.086 313.897C523.078 312.009 523.525 310.146 524.39 308.467C525.254 306.788 526.51 305.341 528.051 304.25C529.593 303.159 531.374 302.455 533.245 302.198C535.116 301.941 537.022 302.138 538.8 302.773C539.488 300.005 540.88 297.463 542.841 295.392C544.803 293.322 547.267 291.795 549.994 290.959C552.721 290.124 555.617 290.009 558.402 290.625C561.187 291.241 563.764 292.567 565.884 294.475C567.382 290.288 570.309 286.763 574.15 284.522C577.991 282.28 582.499 281.466 586.882 282.223C591.264 282.979 595.239 285.257 598.106 288.657C600.973 292.056 602.55 296.358 602.557 300.805C602.559 301.462 602.525 302.119 602.455 302.773C603.728 302.307 603.142 316.001 602.845 317.037H523.51C523.226 316.006 523.083 314.941 523.086 313.872V313.897Z" fill="#80C33F"/>
<path d="M592.155 294.548V341.64H584.043L584.051 294.548H592.155Z" fill="#F4F5F6"/>
<path fill-rule="evenodd" clip-rule="evenodd" d="M583.626 294.124H592.577V342.064H583.617L583.626 294.124ZM584.474 294.973L584.466 341.216H591.729V294.973H584.474Z" fill="#959DA8"/>
<path d="M583.67 294.548V341.64H575.559L575.567 294.548H583.67Z" fill="#F4F5F6"/>
<path fill-rule="evenodd" clip-rule="evenodd" d="M575.141 294.124H584.093V342.064H575.133L575.141 294.124ZM575.99 294.973L575.981 341.216H583.245V294.973H575.99Z" fill="#959DA8"/>
<path d="M600.641 294.548H592.352V341.64H600.641V294.548Z" fill="#F4F5F6"/>
<path fill-rule="evenodd" clip-rule="evenodd" d="M591.93 294.124H601.068V342.064H591.93V294.124ZM592.778 294.973V341.216H600.22V294.973H592.778Z" fill="#959DA8"/>
<path d="M609.126 294.548H600.836V341.64H609.126V294.548Z" fill="#F4F5F6"/>
<path fill-rule="evenodd" clip-rule="evenodd" d="M600.414 294.124H609.552V342.064H600.414V294.124ZM601.263 294.973V341.216H608.704V294.973H601.263Z" fill="#959DA8"/>
<path d="M617.61 294.548H609.32V341.64H617.61V294.548Z" fill="#F4F5F6"/>
<path fill-rule="evenodd" clip-rule="evenodd" d="M608.895 294.124H618.033V342.064H608.895V294.124ZM609.743 294.973V341.216H617.184V294.973H609.743Z" fill="#959DA8"/>
<path d="M550.58 294.548V341.64H542.469L542.477 294.548H550.58Z" fill="#F4F5F6"/>
<path fill-rule="evenodd" clip-rule="evenodd" d="M542.052 294.124H551.003V342.064H542.043L542.052 294.124ZM542.9 294.973L542.892 341.216H550.155V294.973H542.9Z" fill="#959DA8"/>
<path d="M542.092 294.548V341.64H533.98L533.989 294.548H542.092Z" fill="#F4F5F6"/>
<path fill-rule="evenodd" clip-rule="evenodd" d="M533.567 294.124H542.519V342.064H533.559L533.567 294.124ZM534.416 294.973L534.407 341.216H541.67V294.973H534.416Z" fill="#959DA8"/>
<path d="M533.608 294.548V341.64H525.496L525.505 294.548H533.608Z" fill="#F4F5F6"/>
<path fill-rule="evenodd" clip-rule="evenodd" d="M525.083 294.124H534.035V342.064H525.074L525.083 294.124ZM525.931 294.973L525.923 341.216H533.186V294.973H525.931Z" fill="#959DA8"/>
<path d="M525.12 294.548V341.64H517.008L517.016 294.548H525.12Z" fill="#F4F5F6"/>
<path fill-rule="evenodd" clip-rule="evenodd" d="M516.595 294.124H525.546V342.064H516.586L516.595 294.124ZM517.443 294.973L517.435 341.216H524.698V294.973H517.443Z" fill="#959DA8"/>
<path d="M559.063 294.548H550.773V341.64H559.063V294.548Z" fill="#F4F5F6"/>
<path fill-rule="evenodd" clip-rule="evenodd" d="M550.352 294.124H559.49V342.064H550.352V294.124ZM551.2 294.973V341.216H558.641V294.973H551.2Z" fill="#959DA8"/>
<path d="M567.552 294.548H559.262V341.64H567.552V294.548Z" fill="#F4F5F6"/>
<path fill-rule="evenodd" clip-rule="evenodd" d="M558.836 294.124H567.974V342.064H558.836V294.124ZM559.684 294.973V341.216H567.126V294.973H559.684Z" fill="#959DA8"/>
<path d="M576.036 294.548H567.746V341.64H576.036V294.548Z" fill="#F4F5F6"/>
<path fill-rule="evenodd" clip-rule="evenodd" d="M567.324 294.124H576.463V342.064H567.324V294.124ZM568.173 294.973V341.216H575.614V294.973H568.173Z" fill="#959DA8"/>
<path d="M626.098 294.548H617.809V341.64H626.098V294.548Z" fill="#F4F5F6"/>
<path fill-rule="evenodd" clip-rule="evenodd" d="M617.383 294.124H626.521V342.064H617.383V294.124ZM618.231 294.973V341.216H625.673V294.973H618.231Z" fill="#959DA8"/>
<path d="M634.583 294.548H626.293V341.64H634.583V294.548Z" fill="#F4F5F6"/>
<path fill-rule="evenodd" clip-rule="evenodd" d="M625.867 294.124H635.006V342.064H625.867V294.124ZM626.716 294.973V341.216H634.157V294.973H626.716Z" fill="#959DA8"/>
<path d="M643.067 294.548H634.777V341.64H643.067V294.548Z" fill="#F4F5F6"/>
<path fill-rule="evenodd" clip-rule="evenodd" d="M634.352 294.124H643.49V342.064H634.352V294.124ZM635.2 294.973V341.216H642.641V294.973H635.2Z" fill="#959DA8"/>
<path d="M651.548 294.548H643.258V341.64H651.548V294.548Z" fill="#F4F5F6"/>
<path fill-rule="evenodd" clip-rule="evenodd" d="M642.836 294.124H651.974V342.064H642.836V294.124ZM643.684 294.973V341.216H651.126V294.973H643.684Z" fill="#959DA8"/>
<path d="M660.036 294.548H651.746V341.64H660.036V294.548Z" fill="#F4F5F6"/>
<path fill-rule="evenodd" clip-rule="evenodd" d="M651.32 294.124H660.459V342.064H651.32V294.124ZM652.169 294.973V341.216H659.61V294.973H652.169Z" fill="#959DA8"/>
<path d="M668.52 294.548H660.23V341.64H668.52V294.548Z" fill="#F4F5F6"/>
<path fill-rule="evenodd" clip-rule="evenodd" d="M659.805 294.124H668.943V342.064H659.805V294.124ZM660.653 294.973V341.216H668.095V294.973H660.653Z" fill="#959DA8"/>
<path fill-rule="evenodd" clip-rule="evenodd" d="M516.297 294.125H669.027V342.489H516.297V294.125ZM517.994 295.822V340.792H667.33V295.822H517.994Z" fill="#959DA8"/>
<path d="M713.314 421.291C713.946 418.468 713.943 415.54 713.305 412.719C712.667 409.898 711.41 407.254 709.625 404.978C707.84 402.703 705.571 400.852 702.983 399.561C700.395 398.27 697.552 397.57 694.66 397.512C691.768 397.454 688.9 398.04 686.262 399.227C683.625 400.414 681.284 402.172 679.409 404.375C677.534 406.578 676.173 409.169 675.423 411.963C674.673 414.756 674.553 417.681 675.072 420.527C672.942 421.562 671.06 423.044 669.555 424.873C668.051 426.702 666.959 428.835 666.354 431.125C665.749 433.414 665.646 435.808 666.051 438.141C666.457 440.475 667.361 442.693 668.703 444.645C670.044 446.597 671.791 448.236 673.824 449.45C675.858 450.665 678.129 451.426 680.484 451.682C682.838 451.938 685.22 451.682 687.467 450.933C689.714 450.183 691.772 448.958 693.501 447.34C695.181 448.917 697.173 450.125 699.349 450.883C701.526 451.642 703.837 451.935 706.133 451.743C708.43 451.552 710.66 450.88 712.681 449.771C714.701 448.663 716.466 447.142 717.861 445.308C719.256 443.474 720.25 441.367 720.779 439.124C721.308 436.881 721.36 434.552 720.931 432.288C720.502 430.023 719.603 427.874 718.291 425.98C716.979 424.085 715.283 422.488 713.314 421.291Z" fill="#80C33F"/>
<path fill-rule="evenodd" clip-rule="evenodd" d="M684.915 432.095C685.045 431.9 685.308 431.847 685.503 431.977L694.489 437.967C694.684 438.097 694.737 438.361 694.607 438.556C694.477 438.751 694.213 438.803 694.018 438.673L685.033 432.683C684.838 432.553 684.785 432.29 684.915 432.095Z" fill="#2A3A51"/>
<path fill-rule="evenodd" clip-rule="evenodd" d="M705.05 436.549C705.202 436.727 705.181 436.995 705.003 437.147L694.524 446.124C694.347 446.277 694.079 446.256 693.926 446.078C693.774 445.9 693.795 445.633 693.972 445.48L704.451 436.503C704.629 436.351 704.897 436.371 705.05 436.549Z" fill="#2A3A51"/>
<path fill-rule="evenodd" clip-rule="evenodd" d="M694.256 419.932C694.491 419.932 694.681 420.122 694.681 420.356V474.236C694.681 474.47 694.491 474.66 694.256 474.66C694.022 474.66 693.832 474.47 693.832 474.236V420.356C693.832 420.122 694.022 419.932 694.256 419.932Z" fill="#2A3A51"/>
<path fill-rule="evenodd" clip-rule="evenodd" d="M612.136 472.648L572.027 441.652L572.546 440.981L612.655 471.977L612.136 472.648Z" fill="#959DA8"/>
<path fill-rule="evenodd" clip-rule="evenodd" d="M572.027 471.977L612.136 440.981L612.655 441.652L572.546 472.648L572.027 471.977Z" fill="#959DA8"/>
<path d="M619.817 435.403H564.664V442.165H619.817V435.403Z" fill="#D3DCE5"/>
<path d="M530.376 452.498H553.846L544.063 429.037H520.602L530.376 452.498Z" fill="#D3DCE5"/>
<path fill-rule="evenodd" clip-rule="evenodd" d="M552.711 441.587L549.199 441.731L549.164 440.883L552.677 440.739C555.602 440.621 558.496 441.38 560.987 442.918C563.478 444.456 565.452 446.703 566.657 449.372L577.688 473.834L576.914 474.183L565.884 449.721C565.884 449.721 565.884 449.721 565.884 449.721C564.749 447.207 562.888 445.089 560.541 443.64C558.194 442.19 555.468 441.476 552.711 441.587Z" fill="#959DA8"/>
<path fill-rule="evenodd" clip-rule="evenodd" d="M525.402 473.917L530.307 451.856L531.135 452.04L526.231 474.101L525.402 473.917Z" fill="#959DA8"/>
<path fill-rule="evenodd" clip-rule="evenodd" d="M544.953 473.917L549.824 451.856L550.652 452.039L545.782 474.1L544.953 473.917Z" fill="#959DA8"/>
<path d="M529.724 452.499H566.871V449.241H529.724V452.499Z" fill="#D3DCE5"/>
<path fill-rule="evenodd" clip-rule="evenodd" d="M530.42 441.547C530.42 441.547 530.421 441.547 530.42 441.547L525.737 441.733L525.703 440.886L530.387 440.699C533.162 440.589 535.907 441.311 538.269 442.772C540.632 444.233 542.504 446.367 543.645 448.899L554.871 473.836L554.097 474.185L542.872 449.248" fill="#959DA8"/>
<path fill-rule="evenodd" clip-rule="evenodd" d="M632.653 440.738C632.654 440.739 632.654 440.739 632.655 440.739L637.013 440.883L636.985 441.731L632.624 441.586L632.621 441.586C629.864 441.475 627.138 442.19 624.791 443.639C622.444 445.088 620.583 447.206 619.449 449.72C619.449 449.72 619.448 449.72 619.448 449.72L608.418 474.182L607.645 473.834L618.675 449.371L618.675 449.371C619.88 446.703 621.854 444.455 624.345 442.917C626.836 441.379 629.729 440.621 632.653 440.738Z" fill="#959DA8"/>
<path d="M654.954 452.498H631.484L641.268 429.037H664.729L654.954 452.498Z" fill="#D3DCE5"/>
<path fill-rule="evenodd" clip-rule="evenodd" d="M659.096 474.096L654.191 451.187L655.021 451.009L659.925 473.919L659.096 474.096Z" fill="#959DA8"/>
<path fill-rule="evenodd" clip-rule="evenodd" d="M639.546 474.1L634.676 452.039L635.504 451.856L640.375 473.917L639.546 474.1Z" fill="#959DA8"/>
<path d="M655.601 449.241H618.453V452.499H655.601V449.241Z" fill="#D3DCE5"/>
<path fill-rule="evenodd" clip-rule="evenodd" d="M647.063 442.772C649.425 441.311 652.17 440.589 654.945 440.699L659.629 440.886L659.595 441.733L654.912 441.547C654.911 441.547 654.912 441.547 654.912 441.547C652.305 441.444 649.727 442.122 647.509 443.494C645.29 444.866 643.532 446.87 642.46 449.248L631.235 474.185L630.461 473.836L641.687 448.899C642.828 446.367 644.7 444.233 647.063 442.772Z" fill="#959DA8"/>
<path d="M867.069 293.703V340.794H858.957L858.966 293.703H867.069Z" fill="#F4F5F6"/>
<path fill-rule="evenodd" clip-rule="evenodd" d="M858.544 293.278H867.495V341.219H858.535L858.544 293.278ZM859.392 294.127L859.384 340.37H866.647V294.127H859.392Z" fill="#959DA8"/>
<path d="M858.584 293.703V340.794H850.473L850.481 293.703H858.584Z" fill="#F4F5F6"/>
<path fill-rule="evenodd" clip-rule="evenodd" d="M850.056 293.278H859.007V341.219H850.047L850.056 293.278ZM850.904 294.127L850.896 340.37H858.159V294.127H850.904Z" fill="#959DA8"/>
<path d="M875.555 293.703H867.266V340.794H875.555V293.703Z" fill="#F4F5F6"/>
<path fill-rule="evenodd" clip-rule="evenodd" d="M866.84 293.278H875.978V341.219H866.84V293.278ZM867.688 294.127V340.37H875.13V294.127H867.688Z" fill="#959DA8"/>
<path d="M884.04 293.703H875.75V340.794H884.04V293.703Z" fill="#F4F5F6"/>
<path fill-rule="evenodd" clip-rule="evenodd" d="M875.328 293.278H884.466V341.219H875.328V293.278ZM876.177 294.127V340.37H883.618V294.127H876.177Z" fill="#959DA8"/>
<path d="M892.524 293.703H884.234V340.794H892.524V293.703Z" fill="#F4F5F6"/>
<path fill-rule="evenodd" clip-rule="evenodd" d="M883.812 293.278H892.951V341.219H883.812V293.278ZM884.661 294.127V340.37H892.102V294.127H884.661Z" fill="#959DA8"/>
<path d="M901.013 293.703H892.723V340.794H901.013V293.703Z" fill="#F4F5F6"/>
<path fill-rule="evenodd" clip-rule="evenodd" d="M892.297 293.278H901.435V341.219H892.297V293.278ZM893.145 294.127V340.37H900.587V294.127H893.145Z" fill="#959DA8"/>
<path d="M909.493 293.703H901.203V340.794H909.493V293.703Z" fill="#F4F5F6"/>
<path fill-rule="evenodd" clip-rule="evenodd" d="M900.781 293.278H909.92V341.219H900.781V293.278ZM901.63 294.127V340.37H909.071V294.127H901.63Z" fill="#959DA8"/>
<path d="M917.981 293.703H909.691V340.794H917.981V293.703Z" fill="#F4F5F6"/>
<path fill-rule="evenodd" clip-rule="evenodd" d="M909.266 293.278H918.404V341.219H909.266V293.278ZM910.114 294.127V340.37H917.555V294.127H910.114Z" fill="#959DA8"/>
<path d="M926.466 293.703H918.176V340.794H926.466V293.703Z" fill="#F4F5F6"/>
<path fill-rule="evenodd" clip-rule="evenodd" d="M917.754 293.278H926.892V341.219H917.754V293.278ZM918.602 294.127V340.37H926.044V294.127H918.602Z" fill="#959DA8"/>
<path d="M934.95 293.703H926.66V340.794H934.95V293.703Z" fill="#F4F5F6"/>
<path fill-rule="evenodd" clip-rule="evenodd" d="M926.238 293.278H935.377V341.219H926.238V293.278ZM927.087 294.127V340.37H934.528V294.127H927.087Z" fill="#959DA8"/>
<path d="M943.434 293.703H935.145V340.794H943.434V293.703Z" fill="#F4F5F6"/>
<path fill-rule="evenodd" clip-rule="evenodd" d="M934.723 293.278H943.861V341.219H934.723V293.278ZM935.571 294.127V340.37H943.013V294.127H935.571Z" fill="#959DA8"/>
<path d="M841.614 293.703H833.324V340.794H841.614V293.703Z" fill="#F4F5F6"/>
<path fill-rule="evenodd" clip-rule="evenodd" d="M832.898 293.278H842.037V341.219H832.898V293.278ZM833.747 294.127V340.37H841.188V294.127H833.747Z" fill="#959DA8"/>
<path d="M850.102 293.703H841.812V340.794H850.102V293.703Z" fill="#F4F5F6"/>
<path fill-rule="evenodd" clip-rule="evenodd" d="M841.387 293.278H850.525V341.219H841.387V293.278ZM842.235 294.127V340.37H849.677V294.127H842.235Z" fill="#959DA8"/>
<path fill-rule="evenodd" clip-rule="evenodd" d="M828.547 293.279H943.943V341.643H828.547V293.279ZM830.244 294.976V339.946H942.246V294.976H830.244Z" fill="#959DA8"/>
<path fill-rule="evenodd" clip-rule="evenodd" d="M943.089 110.294C943.554 110.352 943.884 110.776 943.827 111.241L932.058 205.984C932 206.449 931.576 206.78 931.111 206.722C930.646 206.664 930.316 206.24 930.374 205.775L942.143 111.032C942.2 110.567 942.624 110.236 943.089 110.294Z" fill="#959DA8"/>
<path d="M982.9 141.143C975.94 142.01 968.93 142.413 961.916 142.348L959.922 139.421L958.539 142.246C951.045 142.036 943.572 141.35 936.164 140.193C934.122 139.876 932.103 139.528 930.106 139.149L928.146 138.759C925.979 138.324 923.838 137.851 921.723 137.342L920.628 137.071L919.253 136.723L918.66 136.57L918.134 132.879L914.74 135.509L915.164 135.628L914.74 135.509L914.307 135.382L913.874 135.263C912.522 134.873 911.182 134.466 909.852 134.041L907.307 133.193C906.424 132.899 905.545 132.596 904.668 132.285L903.395 131.827L902.861 131.632L901.528 131.14L900.884 130.893L899.636 130.41L897.269 129.46H897.175L895.962 128.95C895.19 128.628 894.418 128.289 893.654 127.958C893.367 127.825 893.119 127.62 892.934 127.362C892.75 127.105 892.636 126.803 892.603 126.488C892.571 126.173 892.621 125.855 892.749 125.565C892.876 125.275 893.077 125.024 893.332 124.835C895.455 123.287 897.671 121.871 899.967 120.593L900.553 120.27C901.684 119.648 902.841 119.06 904.023 118.505L905.448 117.861C907.837 116.807 910.289 115.9 912.788 115.145L913.543 114.925C916.088 114.199 918.675 113.633 921.29 113.228L922.792 113.007C923.581 112.897 924.378 112.803 925.176 112.727C925.711 112.676 926.245 112.625 926.78 112.591L927.586 112.54H928.154C929.048 112.49 929.948 112.461 930.853 112.456H932.439C933.093 112.456 933.746 112.456 934.399 112.515L935.35 112.566H935.74L937.208 112.676C938.645 112.806 940.087 112.982 941.535 113.202C949.933 114.485 957.996 117.411 965.263 121.813C972.529 126.214 978.857 132.004 983.884 138.852C984.032 139.056 984.124 139.294 984.152 139.544C984.18 139.794 984.142 140.047 984.043 140.278C983.944 140.509 983.786 140.71 983.586 140.862C983.385 141.013 983.149 141.11 982.9 141.143Z" fill="#D3DCE5"/>
<path fill-rule="evenodd" clip-rule="evenodd" d="M918.142 139.793L918.574 139.844L918.507 140.417L918.074 140.366L918.142 139.793Z" fill="#959DA8"/>
<path fill-rule="evenodd" clip-rule="evenodd" d="M918.496 133.018C918.496 133.018 918.496 133.018 918.131 132.802C917.765 132.587 917.765 132.587 917.766 132.587L917.768 132.583L917.774 132.573L917.797 132.533C917.818 132.499 917.849 132.448 917.889 132.382C917.97 132.25 918.09 132.056 918.247 131.81C918.56 131.318 919.021 130.614 919.616 129.763C920.804 128.063 922.524 125.775 924.655 123.424C928.901 118.74 934.843 113.73 941.495 112.731L941.621 113.571C935.274 114.523 929.502 119.34 925.284 123.993C923.183 126.311 921.485 128.57 920.311 130.249C919.725 131.089 919.27 131.782 918.962 132.266C918.808 132.507 918.691 132.696 918.613 132.824C918.574 132.888 918.545 132.937 918.525 132.97L918.503 133.006L918.498 133.015L918.496 133.018Z" fill="#959DA8"/>
<path fill-rule="evenodd" clip-rule="evenodd" d="M960.41 139.204C960.41 139.205 960.41 139.205 959.996 139.299C959.582 139.393 959.582 139.393 959.582 139.393L959.582 139.39L959.579 139.38L959.57 139.339C959.561 139.302 959.548 139.247 959.53 139.174C959.494 139.028 959.44 138.812 959.367 138.535C959.22 137.981 958.997 137.182 958.693 136.204C958.085 134.248 957.151 131.58 955.852 128.734C953.244 123.02 949.204 116.681 943.441 113.851L943.815 113.09C949.855 116.056 953.999 122.631 956.624 128.382C957.942 131.269 958.887 133.971 959.503 135.952C959.812 136.943 960.038 137.754 960.187 138.318C960.262 138.601 960.317 138.821 960.354 138.972C960.372 139.047 960.386 139.105 960.395 139.144L960.406 139.189L960.409 139.2L960.41 139.204Z" fill="#959DA8"/>
<path d="M887.432 163.033V210.125H879.32L879.329 163.033H887.432Z" fill="#F4F5F6"/>
<path fill-rule="evenodd" clip-rule="evenodd" d="M878.907 162.609H887.859V210.549H878.898L878.907 162.609ZM879.755 163.457L879.747 209.701H887.01V163.457H879.755Z" fill="#959DA8"/>
<path d="M878.947 163.033V210.125H870.836L870.844 163.033H878.947Z" fill="#F4F5F6"/>
<path fill-rule="evenodd" clip-rule="evenodd" d="M870.423 162.609H879.374V210.549H870.414L870.423 162.609ZM871.271 163.457L871.263 209.701H878.526V163.457H871.271Z" fill="#959DA8"/>
<path d="M895.923 163.033H887.633V210.125H895.923V163.033Z" fill="#F4F5F6"/>
<path fill-rule="evenodd" clip-rule="evenodd" d="M887.207 162.609H896.345V210.549H887.207V162.609ZM888.056 163.457V209.701H895.497V163.457H888.056Z" fill="#959DA8"/>
<path d="M904.403 163.033H896.113V210.125H904.403V163.033Z" fill="#F4F5F6"/>
<path fill-rule="evenodd" clip-rule="evenodd" d="M895.688 162.609H904.826V210.549H895.688V162.609ZM896.536 163.457V209.701H903.977V163.457H896.536Z" fill="#959DA8"/>
<path d="M912.891 163.033H904.602V210.125H912.891V163.033Z" fill="#F4F5F6"/>
<path fill-rule="evenodd" clip-rule="evenodd" d="M904.176 162.609H913.314V210.549H904.176V162.609ZM905.024 163.457V209.701H912.466V163.457H905.024Z" fill="#959DA8"/>
<path d="M845.858 163.033V210.125H837.746L837.755 163.033H845.858Z" fill="#F4F5F6"/>
<path fill-rule="evenodd" clip-rule="evenodd" d="M837.333 162.609H846.285V210.549H837.324L837.333 162.609ZM838.181 163.457L838.173 209.701H845.436V163.457H838.181Z" fill="#959DA8"/>
<path d="M837.37 163.033V210.125H829.258L829.266 163.033H837.37Z" fill="#F4F5F6"/>
<path fill-rule="evenodd" clip-rule="evenodd" d="M828.845 162.609H837.796V210.549H828.836L828.845 162.609ZM829.693 163.457L829.685 209.701H836.948V163.457H829.693Z" fill="#959DA8"/>
<path d="M828.889 163.033V210.125H820.777L820.786 163.033H828.889Z" fill="#F4F5F6"/>
<path fill-rule="evenodd" clip-rule="evenodd" d="M820.36 162.609H829.312V210.549H820.352L820.36 162.609ZM821.209 163.457L821.2 209.701H828.463V163.457H821.209Z" fill="#959DA8"/>
<path d="M820.401 163.033V210.125H812.289L812.298 163.033H820.401Z" fill="#F4F5F6"/>
<path fill-rule="evenodd" clip-rule="evenodd" d="M811.876 162.609H820.827V210.549H811.867L811.876 162.609ZM812.724 163.457L812.716 209.701H819.979V163.457H812.724Z" fill="#959DA8"/>
<path d="M854.341 163.033H846.051V210.125H854.341V163.033Z" fill="#F4F5F6"/>
<path fill-rule="evenodd" clip-rule="evenodd" d="M845.629 162.609H854.767V210.549H845.629V162.609ZM846.477 163.457V209.701H853.919V163.457H846.477Z" fill="#959DA8"/>
<path d="M862.829 163.033H854.539V210.125H862.829V163.033Z" fill="#F4F5F6"/>
<path fill-rule="evenodd" clip-rule="evenodd" d="M854.113 162.609H863.252V210.549H854.113V162.609ZM854.962 163.457V209.701H862.403V163.457H854.962Z" fill="#959DA8"/>
<path d="M871.313 163.033H863.023V210.125H871.313V163.033Z" fill="#F4F5F6"/>
<path fill-rule="evenodd" clip-rule="evenodd" d="M862.598 162.609H871.736V210.549H862.598V162.609ZM863.446 163.457V209.701H870.888V163.457H863.446Z" fill="#959DA8"/>
<path d="M921.372 163.033H913.082V210.125H921.372V163.033Z" fill="#F4F5F6"/>
<path fill-rule="evenodd" clip-rule="evenodd" d="M912.66 162.609H921.799V210.549H912.66V162.609ZM913.509 163.457V209.701H920.95V163.457H913.509Z" fill="#959DA8"/>
<path d="M929.86 163.033H921.57V210.125H929.86V163.033Z" fill="#F4F5F6"/>
<path fill-rule="evenodd" clip-rule="evenodd" d="M921.145 162.609H930.283V210.549H921.145V162.609ZM921.993 163.457V209.701H929.434V163.457H921.993Z" fill="#959DA8"/>
<path d="M938.345 163.033H930.055V210.125H938.345V163.033Z" fill="#F4F5F6"/>
<path fill-rule="evenodd" clip-rule="evenodd" d="M929.629 162.609H938.767V210.549H929.629V162.609ZM930.477 163.457V209.701H937.919V163.457H930.477Z" fill="#959DA8"/>
<path d="M946.829 163.033H938.539V210.125H946.829V163.033Z" fill="#F4F5F6"/>
<path fill-rule="evenodd" clip-rule="evenodd" d="M938.117 162.609H947.256V210.549H938.117V162.609ZM938.966 163.457V209.701H946.407V163.457H938.966Z" fill="#959DA8"/>
<path d="M955.313 163.033H947.023V210.125H955.313V163.033Z" fill="#F4F5F6"/>
<path fill-rule="evenodd" clip-rule="evenodd" d="M946.602 162.609H955.74V210.549H946.602V162.609ZM947.45 163.457V209.701H954.891V163.457H947.45Z" fill="#959DA8"/>
<path d="M963.802 163.033H955.512V210.125H963.802V163.033Z" fill="#F4F5F6"/>
<path fill-rule="evenodd" clip-rule="evenodd" d="M955.086 162.609H964.224V210.549H955.086V162.609ZM955.934 163.457V209.701H963.376V163.457H955.934Z" fill="#959DA8"/>
<path fill-rule="evenodd" clip-rule="evenodd" d="M811.578 162.607H964.308V210.972H811.578V162.607ZM813.275 164.304V209.275H962.611V164.304H813.275Z" fill="#959DA8"/>
<path d="M334.143 375.582H297.785V459.269H334.143V375.582Z" fill="#D3DCE5"/>
<path d="M328.992 381.522H302.918V422.912H328.992V381.522Z" fill="white"/>
<path fill-rule="evenodd" clip-rule="evenodd" d="M302.473 381.077H329.438V423.358H302.473V381.077ZM303.364 381.968V422.467H328.547V381.968H303.364Z" fill="#959DA8"/>
<path d="M304.599 429.459C305.537 429.459 306.296 428.7 306.296 427.762C306.296 426.825 305.537 426.065 304.599 426.065C303.662 426.065 302.902 426.825 302.902 427.762C302.902 428.7 303.662 429.459 304.599 429.459Z" fill="white"/>
<path fill-rule="evenodd" clip-rule="evenodd" d="M304.602 426.49C303.899 426.49 303.329 427.06 303.329 427.763C303.329 428.466 303.899 429.036 304.602 429.036C305.305 429.036 305.874 428.466 305.874 427.763C305.874 427.06 305.305 426.49 304.602 426.49ZM302.48 427.763C302.48 426.591 303.43 425.642 304.602 425.642C305.773 425.642 306.723 426.591 306.723 427.763C306.723 428.934 305.773 429.884 304.602 429.884C303.43 429.884 302.48 428.934 302.48 427.763Z" fill="#959DA8"/>
<path d="M262.141 375.582H298.499V459.269H262.141V375.582Z" fill="#D3DCE5"/>
<path d="M267.289 422.909H293.363V381.519H267.289V422.909Z" fill="white"/>
<path fill-rule="evenodd" clip-rule="evenodd" d="M293.809 423.354H266.843V381.074H293.809V423.354ZM292.918 422.464V381.965H267.734V422.464H292.918Z" fill="#959DA8"/>
<path d="M291.681 429.459C292.619 429.459 293.378 428.7 293.378 427.762C293.378 426.825 292.619 426.065 291.681 426.065C290.744 426.065 289.984 426.825 289.984 427.762C289.984 428.7 290.744 429.459 291.681 429.459Z" fill="white"/>
<path fill-rule="evenodd" clip-rule="evenodd" d="M291.684 426.49C290.981 426.49 290.411 427.06 290.411 427.763C290.411 428.466 290.981 429.036 291.684 429.036C292.387 429.036 292.957 428.466 292.957 427.763C292.957 427.06 292.387 426.49 291.684 426.49ZM289.562 427.763C289.562 426.591 290.512 425.642 291.684 425.642C292.855 425.642 293.805 426.591 293.805 427.763C293.805 428.934 292.855 429.884 291.684 429.884C290.512 429.884 289.562 428.934 289.562 427.763Z" fill="#959DA8"/>
<path d="M349.146 464.989H249.277V473.279H349.146V464.989Z" fill="#D3DCE5"/>
<path fill-rule="evenodd" clip-rule="evenodd" d="M248.656 464.37H349.764V473.898H248.656V464.37ZM249.895 465.608V472.659H348.525V465.608H249.895Z" fill="#959DA8"/>
<path d="M349.146 456.714H249.277V465.004H349.146V456.714Z" fill="#D3DCE5"/>
<path fill-rule="evenodd" clip-rule="evenodd" d="M248.656 456.094H349.764V465.623H248.656V456.094ZM249.895 457.333V464.384H348.525V457.333H249.895Z" fill="#959DA8"/>
<line x1="-32.2578" y1="473.95" x2="1332.26" y2="473.95" stroke="#D9DDE2" stroke-width="2.09926" stroke-miterlimit="10"/>
</g>
</svg>
