<svg width="1300" height="499" viewBox="0 0 1300 499" fill="none" xmlns="http://www.w3.org/2000/svg">
<mask id="mask0" mask-type="alpha" maskUnits="userSpaceOnUse" x="0" y="0" width="1300" height="499">
<rect width="1300" height="499" rx="16" fill="#2A3A51"/>
</mask>
<g mask="url(#mask0)">
<path d="M858.216 176.788C857.929 176.787 857.644 176.756 857.365 176.694C844.331 173.725 844.331 157.977 844.331 157.977C844.232 148.996 846.883 140.199 851.928 132.768C852.634 131.755 853.573 130.928 854.667 130.357C855.761 129.786 856.977 129.488 858.211 129.488C859.445 129.488 860.661 129.786 861.755 130.357C862.849 130.928 863.789 131.755 864.494 132.768C869.542 140.198 872.196 148.995 872.1 157.977C872.1 157.977 872.1 173.784 859.066 176.694C858.787 176.756 858.502 176.787 858.216 176.788Z" fill="#80C33F"/>
<path fill-rule="evenodd" clip-rule="evenodd" d="M858.213 146.471C858.436 146.471 858.617 146.652 858.617 146.876V200.56C858.617 200.783 858.436 200.964 858.213 200.964C857.99 200.964 857.809 200.783 857.809 200.56V146.876C857.809 146.652 857.99 146.471 858.213 146.471Z" fill="#2A3A51"/>
<path d="M233.594 176.619C233.586 174.726 234.034 172.858 234.901 171.175C235.768 169.491 237.027 168.041 238.573 166.947C240.118 165.852 241.905 165.147 243.781 164.889C245.657 164.631 247.567 164.829 249.35 165.466C250.04 162.69 251.436 160.141 253.402 158.065C255.369 155.989 257.84 154.458 260.574 153.62C263.308 152.782 266.213 152.667 269.005 153.284C271.797 153.902 274.382 155.232 276.507 157.145C278.009 152.946 280.944 149.412 284.795 147.165C288.646 144.918 293.167 144.101 297.561 144.86C301.955 145.618 305.941 147.903 308.816 151.311C311.691 154.719 313.271 159.033 313.278 163.492C313.281 164.151 313.247 164.81 313.176 165.466C314.452 164.998 313.865 178.729 313.568 179.767H234.019C233.734 178.734 233.591 177.666 233.594 176.594V176.619Z" fill="#80C33F"/>
<path d="M298.594 162.327V209.546H290.461L290.469 162.327H298.594Z" fill="#F4F5F6"/>
<path fill-rule="evenodd" clip-rule="evenodd" d="M290.063 161.923H298.997V209.95H290.055L290.063 161.923ZM290.872 162.732L290.863 209.142H298.188V162.732H290.872Z" fill="#959DA8"/>
<path d="M290.087 162.327V209.546H281.953L281.962 162.327H290.087Z" fill="#F4F5F6"/>
<path fill-rule="evenodd" clip-rule="evenodd" d="M281.556 161.923H290.489V209.95H281.547L281.556 161.923ZM282.364 162.732L282.355 209.142H289.68V162.732H282.364Z" fill="#959DA8"/>
<path d="M307.101 162.327H298.789V209.546H307.101V162.327Z" fill="#F4F5F6"/>
<path fill-rule="evenodd" clip-rule="evenodd" d="M298.387 161.923H307.507V209.95H298.387V161.923ZM299.195 162.732V209.142H306.699V162.732H299.195Z" fill="#959DA8"/>
<path d="M315.609 162.327H307.297V209.546H315.609V162.327Z" fill="#F4F5F6"/>
<path fill-rule="evenodd" clip-rule="evenodd" d="M306.891 161.923H316.011V209.95H306.891V161.923ZM307.699 162.732V209.142H315.203V162.732H307.699Z" fill="#959DA8"/>
<path d="M324.117 162.327H315.805V209.546H324.117V162.327Z" fill="#F4F5F6"/>
<path fill-rule="evenodd" clip-rule="evenodd" d="M315.402 161.923H324.523V209.95H315.402V161.923ZM316.211 162.732V209.142H323.715V162.732H316.211Z" fill="#959DA8"/>
<path d="M256.907 162.327V209.546H248.773L248.782 162.327H256.907Z" fill="#F4F5F6"/>
<path fill-rule="evenodd" clip-rule="evenodd" d="M248.376 161.923H257.309V209.95H248.367L248.376 161.923ZM249.184 162.732L249.176 209.142H256.501V162.732H249.184Z" fill="#959DA8"/>
<path d="M248.399 162.327V209.546H240.266L240.274 162.327H248.399Z" fill="#F4F5F6"/>
<path fill-rule="evenodd" clip-rule="evenodd" d="M239.868 161.923H248.801V209.95H239.859L239.868 161.923ZM240.676 162.732L240.668 209.142H247.993V162.732H240.676Z" fill="#959DA8"/>
<path d="M239.891 162.327V209.546H231.758L231.766 162.327H239.891Z" fill="#F4F5F6"/>
<path fill-rule="evenodd" clip-rule="evenodd" d="M231.36 161.923H240.294V209.95H231.352L231.36 161.923ZM232.168 162.732L232.16 209.142H239.485V162.732H232.168Z" fill="#959DA8"/>
<path d="M231.384 162.327V209.546H223.25L223.259 162.327H231.384Z" fill="#F4F5F6"/>
<path fill-rule="evenodd" clip-rule="evenodd" d="M222.852 161.923H231.786V209.95H222.844L222.852 161.923ZM223.661 162.732L223.652 209.142H230.977V162.732H223.661Z" fill="#959DA8"/>
<path d="M265.41 162.327H257.098V209.546H265.41V162.327Z" fill="#F4F5F6"/>
<path fill-rule="evenodd" clip-rule="evenodd" d="M256.695 161.923H265.816V209.95H256.695V161.923ZM257.504 162.732V209.142H265.007V162.732H257.504Z" fill="#959DA8"/>
<path d="M273.922 162.327H265.609V209.546H273.922V162.327Z" fill="#F4F5F6"/>
<path fill-rule="evenodd" clip-rule="evenodd" d="M265.207 161.923H274.328V209.95H265.207V161.923ZM266.015 162.732V209.142H273.519V162.732H266.015Z" fill="#959DA8"/>
<path d="M282.429 162.327H274.117V209.546H282.429V162.327Z" fill="#F4F5F6"/>
<path fill-rule="evenodd" clip-rule="evenodd" d="M273.711 161.923H282.831V209.95H273.711V161.923ZM274.519 162.732V209.142H282.023V162.732H274.519Z" fill="#959DA8"/>
<path d="M332.625 162.327H324.312V209.546H332.625V162.327Z" fill="#F4F5F6"/>
<path fill-rule="evenodd" clip-rule="evenodd" d="M323.91 161.923H333.031V209.95H323.91V161.923ZM324.719 162.732V209.142H332.222V162.732H324.719Z" fill="#959DA8"/>
<path d="M341.136 162.327H332.824V209.546H341.136V162.327Z" fill="#F4F5F6"/>
<path fill-rule="evenodd" clip-rule="evenodd" d="M332.418 161.923H341.539V209.95H332.418V161.923ZM333.226 162.732V209.142H340.73V162.732H333.226Z" fill="#959DA8"/>
<path d="M349.64 162.327H341.328V209.546H349.64V162.327Z" fill="#F4F5F6"/>
<path fill-rule="evenodd" clip-rule="evenodd" d="M340.926 161.923H350.046V209.95H340.926V161.923ZM341.734 162.732V209.142H349.238V162.732H341.734Z" fill="#959DA8"/>
<path d="M358.148 162.327H349.836V209.546H358.148V162.327Z" fill="#F4F5F6"/>
<path fill-rule="evenodd" clip-rule="evenodd" d="M349.434 161.923H358.554V209.95H349.434V161.923ZM350.242 162.732V209.142H357.746V162.732H350.242Z" fill="#959DA8"/>
<path d="M366.656 162.327H358.344V209.546H366.656V162.327Z" fill="#F4F5F6"/>
<path fill-rule="evenodd" clip-rule="evenodd" d="M357.941 161.923H367.062V209.95H357.941V161.923ZM358.75 162.732V209.142H366.254V162.732H358.75Z" fill="#959DA8"/>
<path d="M375.164 162.327H366.852V209.546H375.164V162.327Z" fill="#F4F5F6"/>
<path fill-rule="evenodd" clip-rule="evenodd" d="M366.449 161.923H375.57V209.95H366.449V161.923ZM367.258 162.732V209.142H374.761V162.732H367.258Z" fill="#959DA8"/>
<path fill-rule="evenodd" clip-rule="evenodd" d="M222.574 161.942H375.63V210.352H222.574V161.942ZM224.191 163.559V208.735H374.014V163.559H224.191Z" fill="#959DA8"/>
<path d="M131.5 470.138C131.492 468.245 131.941 466.377 132.807 464.693C133.674 463.01 134.933 461.56 136.479 460.465C138.024 459.371 139.811 458.666 141.687 458.408C143.563 458.15 145.473 458.348 147.257 458.985C147.946 456.209 149.342 453.66 151.309 451.584C153.276 449.508 155.746 447.977 158.48 447.139C161.215 446.301 164.119 446.186 166.911 446.803C169.703 447.421 172.288 448.751 174.414 450.664C175.915 446.465 178.85 442.931 182.701 440.684C186.553 438.436 191.073 437.62 195.467 438.379C199.861 439.137 203.847 441.422 206.722 444.83C209.597 448.238 211.177 452.552 211.185 457.011C211.187 457.67 211.153 458.329 211.082 458.985C212.364 458.517 213.717 458.277 215.081 458.278C221.632 458.278 227.332 463.596 226.915 470.113C226.855 471.187 226.676 472.252 226.38 473.286H131.943C131.657 472.253 131.514 471.185 131.517 470.113L131.5 470.138Z" fill="#80C33F"/>
<path d="M963.566 341.415H229.34V473.286H963.566V341.415Z" fill="#F4F5F6"/>
<path fill-rule="evenodd" clip-rule="evenodd" d="M228.531 340.606H964.374V474.095H228.531V340.606ZM230.148 342.223V472.478H962.758V342.223H230.148Z" fill="#959DA8"/>
<path d="M963.566 209.546H229.34V341.417H963.566V209.546Z" fill="#F4F5F6"/>
<path fill-rule="evenodd" clip-rule="evenodd" d="M228.531 208.737H964.374V342.226H228.531V208.737ZM230.148 210.354V340.609H962.758V210.354H230.148Z" fill="#959DA8"/>
<path d="M817.232 77.6729H374.824V209.544H817.232V77.6729Z" fill="#F4F5F6"/>
<path fill-rule="evenodd" clip-rule="evenodd" d="M374.102 76.9493H817.956V210.268H374.102V76.9493ZM375.549 78.3963V208.821H816.509V78.3963H375.549Z" fill="#959DA8"/>
<path d="M522.861 52.9998H374.824V473.287H522.861V52.9998Z" fill="#F4F5F6"/>
<path fill-rule="evenodd" clip-rule="evenodd" d="M374.016 52.1914H523.669V474.095H374.016V52.1914ZM375.632 53.8082V472.478H522.052V53.8082H375.632Z" fill="#959DA8"/>
<path d="M817.232 52.9998H669.195V473.287H817.232V52.9998Z" fill="#F4F5F6"/>
<path fill-rule="evenodd" clip-rule="evenodd" d="M668.387 52.1914H818.04V474.095H668.387V52.1914ZM670.003 53.8082V472.478H816.423V53.8082H670.003Z" fill="#959DA8"/>
<path d="M358.661 233.366H244.656V340.565H358.661V233.366Z" fill="#F4F5F6"/>
<path fill-rule="evenodd" clip-rule="evenodd" d="M243.785 232.497H359.528V341.434H243.785V232.497ZM245.523 234.235V339.696H357.79V234.235H245.523Z" fill="#959DA8"/>
<path d="M947.403 233.366H833.398V340.565H947.403V233.366Z" fill="#F4F5F6"/>
<path fill-rule="evenodd" clip-rule="evenodd" d="M832.527 232.497H948.27V341.434H832.527V232.497ZM834.265 234.235V339.696H946.532V234.235H834.265Z" fill="#959DA8"/>
<path d="M412.711 98.0908H485.028V194.987H412.711V98.0908Z" fill="white"/>
<path fill-rule="evenodd" clip-rule="evenodd" d="M412.305 97.6866H485.43V195.391H412.305V97.6866ZM413.113 98.495V194.582H484.621V98.495H413.113Z" fill="#959DA8"/>
<path fill-rule="evenodd" clip-rule="evenodd" d="M448.156 195.081V97.8873H448.965V195.081H448.156Z" fill="#959DA8"/>
<path d="M707.082 98.0908H779.399V194.987H707.082V98.0908Z" fill="white"/>
<path fill-rule="evenodd" clip-rule="evenodd" d="M706.68 97.6866H779.805V195.391H706.68V97.6866ZM707.488 98.495V194.582H778.996V98.495H707.488Z" fill="#959DA8"/>
<path fill-rule="evenodd" clip-rule="evenodd" d="M742.527 195.081V97.8873H743.336V195.081H742.527Z" fill="#959DA8"/>
<path d="M412.711 233.366H485.028V330.262H412.711V233.366Z" fill="white"/>
<path fill-rule="evenodd" clip-rule="evenodd" d="M412.305 232.962H485.43V330.666H412.305V232.962ZM413.113 233.77V329.857H484.621V233.77H413.113Z" fill="#959DA8"/>
<path fill-rule="evenodd" clip-rule="evenodd" d="M448.156 330.356V233.162H448.965V330.356H448.156Z" fill="#959DA8"/>
<path d="M263.82 238.684H336.137V331.13H263.82V238.684Z" fill="white"/>
<path fill-rule="evenodd" clip-rule="evenodd" d="M263.418 238.279H336.543V331.534H263.418V238.279ZM264.226 239.088V330.726H335.735V239.088H264.226Z" fill="#959DA8"/>
<path fill-rule="evenodd" clip-rule="evenodd" d="M299.27 331.207V238.472H300.078V331.207H299.27Z" fill="#959DA8"/>
<path d="M856.816 238.684H929.133V331.13H856.816V238.684Z" fill="white"/>
<path fill-rule="evenodd" clip-rule="evenodd" d="M856.414 238.279H929.539V331.534H856.414V238.279ZM857.222 239.088V330.726H928.731V239.088H857.222Z" fill="#959DA8"/>
<path fill-rule="evenodd" clip-rule="evenodd" d="M892.266 331.207V238.472H893.074V331.207H892.266Z" fill="#959DA8"/>
<path d="M707.082 233.366H779.399V330.262H707.082V233.366Z" fill="white"/>
<path fill-rule="evenodd" clip-rule="evenodd" d="M706.68 232.962H779.805V330.666H706.68V232.962ZM707.488 233.77V329.857H778.996V233.77H707.488Z" fill="#959DA8"/>
<path fill-rule="evenodd" clip-rule="evenodd" d="M742.527 330.356V233.162H743.336V330.356H742.527Z" fill="#959DA8"/>
<path d="M412.711 364.388H485.028V461.284H412.711V364.388Z" fill="white"/>
<path fill-rule="evenodd" clip-rule="evenodd" d="M412.305 363.984H485.43V461.688H412.305V363.984ZM413.113 364.792V460.879H484.621V364.792H413.113Z" fill="#959DA8"/>
<path fill-rule="evenodd" clip-rule="evenodd" d="M448.156 461.374V364.18H448.965V461.374H448.156Z" fill="#959DA8"/>
<path d="M707.082 364.388H779.399V461.284H707.082V364.388Z" fill="white"/>
<path fill-rule="evenodd" clip-rule="evenodd" d="M706.68 363.984H779.805V461.688H706.68V363.984ZM707.488 364.792V460.879H778.996V364.792H707.488Z" fill="#959DA8"/>
<path fill-rule="evenodd" clip-rule="evenodd" d="M742.527 461.374V364.18H743.336V461.374H742.527Z" fill="#959DA8"/>
<path d="M856.816 364.388H929.133V461.284H856.816V364.388Z" fill="white"/>
<path fill-rule="evenodd" clip-rule="evenodd" d="M856.414 363.984H929.539V461.688H856.414V363.984ZM857.222 364.792V460.879H928.731V364.792H857.222Z" fill="#959DA8"/>
<path fill-rule="evenodd" clip-rule="evenodd" d="M892.266 461.374V364.18H893.074V461.374H892.266Z" fill="#959DA8"/>
<path d="M582.027 98.0908H611.201V194.987H582.027V98.0908Z" fill="white"/>
<path fill-rule="evenodd" clip-rule="evenodd" d="M581.621 97.6866H611.603V195.391H581.621V97.6866ZM582.429 98.495V194.582H610.794V98.495H582.429Z" fill="#959DA8"/>
<path d="M582.027 233.366H611.201V330.262H582.027V233.366Z" fill="white"/>
<path fill-rule="evenodd" clip-rule="evenodd" d="M581.621 232.962H611.603V330.666H581.621V232.962ZM582.429 233.77V329.857H610.794V233.77H582.429Z" fill="#959DA8"/>
<path d="M582.027 364.388H611.201V461.284H582.027V364.388Z" fill="white"/>
<path fill-rule="evenodd" clip-rule="evenodd" d="M581.621 363.984H611.603V461.688H581.621V363.984ZM582.429 364.792V460.879H610.794V364.792H582.429Z" fill="#959DA8"/>
<path d="M274.575 317.169C274.289 317.169 274.004 317.137 273.724 317.075C260.69 314.106 260.69 298.358 260.69 298.358C260.592 289.377 263.243 280.58 268.288 273.149C268.993 272.136 269.933 271.309 271.027 270.738C272.121 270.167 273.337 269.869 274.571 269.869C275.805 269.869 277.021 270.167 278.115 270.738C279.209 271.309 280.148 272.136 280.854 273.149C285.902 280.579 288.556 289.376 288.46 298.358C288.46 298.358 288.46 314.165 275.426 317.075C275.146 317.137 274.861 317.169 274.575 317.169Z" fill="#80C33F"/>
<path fill-rule="evenodd" clip-rule="evenodd" d="M274.576 286.848C274.799 286.848 274.98 287.029 274.98 287.253V340.937C274.98 341.16 274.799 341.341 274.576 341.341C274.353 341.341 274.172 341.16 274.172 340.937V287.253C274.172 287.029 274.353 286.848 274.576 286.848Z" fill="#2A3A51"/>
<path d="M566.395 169.984C566.109 169.984 565.824 169.952 565.545 169.89C552.511 166.921 552.51 151.173 552.51 151.173C552.412 142.192 555.063 133.395 560.108 125.964C560.813 124.951 561.753 124.124 562.847 123.553C563.941 122.982 565.157 122.684 566.391 122.684C567.625 122.684 568.841 122.982 569.935 123.553C571.029 124.124 571.969 124.951 572.674 125.964C577.722 133.394 580.376 142.191 580.28 151.173C580.28 151.173 580.28 166.98 567.246 169.89C566.967 169.952 566.681 169.984 566.395 169.984Z" fill="#80C33F"/>
<path fill-rule="evenodd" clip-rule="evenodd" d="M566.396 139.665C566.62 139.665 566.801 139.846 566.801 140.07V193.754C566.801 193.977 566.62 194.158 566.396 194.158C566.173 194.158 565.992 193.977 565.992 193.754V140.07C565.992 139.846 566.173 139.665 566.396 139.665Z" fill="#2A3A51"/>
<path d="M282.427 293.347V340.566H274.293L274.301 293.347H282.427Z" fill="#F4F5F6"/>
<path fill-rule="evenodd" clip-rule="evenodd" d="M273.899 292.943H282.833V340.97H273.891L273.899 292.943ZM274.708 293.751L274.699 340.162H282.024V293.751H274.708Z" fill="#959DA8"/>
<path d="M273.923 293.347V340.566H265.789L265.798 293.347H273.923Z" fill="#F4F5F6"/>
<path fill-rule="evenodd" clip-rule="evenodd" d="M265.391 292.943H274.325V340.97H265.383L265.391 292.943ZM266.2 293.751L266.191 340.162H273.516V293.751H266.2Z" fill="#959DA8"/>
<path d="M290.937 293.347H282.625V340.566H290.937V293.347Z" fill="#F4F5F6"/>
<path fill-rule="evenodd" clip-rule="evenodd" d="M282.223 292.943H291.343V340.97H282.223V292.943ZM283.031 293.751V340.162H290.535V293.751H283.031Z" fill="#959DA8"/>
<path d="M299.445 293.347H291.133V340.566H299.445V293.347Z" fill="#F4F5F6"/>
<path fill-rule="evenodd" clip-rule="evenodd" d="M290.73 292.943H299.851V340.97H290.73V292.943ZM291.539 293.751V340.162H299.043V293.751H291.539Z" fill="#959DA8"/>
<path d="M307.953 293.347H299.641V340.566H307.953V293.347Z" fill="#F4F5F6"/>
<path fill-rule="evenodd" clip-rule="evenodd" d="M299.238 292.943H308.359V340.97H299.238V292.943ZM300.047 293.751V340.162H307.55V293.751H300.047Z" fill="#959DA8"/>
<path d="M316.461 293.347H308.148V340.566H316.461V293.347Z" fill="#F4F5F6"/>
<path fill-rule="evenodd" clip-rule="evenodd" d="M307.746 292.943H316.867V340.97H307.746V292.943ZM308.554 293.751V340.162H316.058V293.751H308.554Z" fill="#959DA8"/>
<path d="M324.968 293.347H316.656V340.566H324.968V293.347Z" fill="#F4F5F6"/>
<path fill-rule="evenodd" clip-rule="evenodd" d="M316.25 292.943H325.371V340.97H316.25V292.943ZM317.058 293.751V340.162H324.562V293.751H317.058Z" fill="#959DA8"/>
<path d="M333.476 293.347H325.164V340.566H333.476V293.347Z" fill="#F4F5F6"/>
<path fill-rule="evenodd" clip-rule="evenodd" d="M324.762 292.943H333.882V340.97H324.762V292.943ZM325.57 293.751V340.162H333.074V293.751H325.57Z" fill="#959DA8"/>
<path d="M341.984 293.347H333.672V340.566H341.984V293.347Z" fill="#F4F5F6"/>
<path fill-rule="evenodd" clip-rule="evenodd" d="M333.266 292.943H342.386V340.97H333.266V292.943ZM334.074 293.751V340.162H341.578V293.751H334.074Z" fill="#959DA8"/>
<path d="M350.492 293.347H342.18V340.566H350.492V293.347Z" fill="#F4F5F6"/>
<path fill-rule="evenodd" clip-rule="evenodd" d="M341.777 292.943H350.898V340.97H341.777V292.943ZM342.586 293.751V340.162H350.09V293.751H342.586Z" fill="#959DA8"/>
<path d="M359 293.347H350.688V340.566H359V293.347Z" fill="#F4F5F6"/>
<path fill-rule="evenodd" clip-rule="evenodd" d="M350.285 292.943H359.406V340.97H350.285V292.943ZM351.094 293.751V340.162H358.597V293.751H351.094Z" fill="#959DA8"/>
<path d="M256.906 293.347H248.594V340.566H256.906V293.347Z" fill="#F4F5F6"/>
<path fill-rule="evenodd" clip-rule="evenodd" d="M248.188 292.943H257.308V340.97H248.188V292.943ZM248.996 293.751V340.162H256.5V293.751H248.996Z" fill="#959DA8"/>
<path d="M265.41 293.347H257.098V340.566H265.41V293.347Z" fill="#F4F5F6"/>
<path fill-rule="evenodd" clip-rule="evenodd" d="M256.695 292.943H265.816V340.97H256.695V292.943ZM257.504 293.751V340.162H265.007V293.751H257.504Z" fill="#959DA8"/>
<path fill-rule="evenodd" clip-rule="evenodd" d="M243.848 292.964H359.469V341.374H243.848V292.964ZM245.464 294.581V339.758H357.853V294.581H245.464Z" fill="#959DA8"/>
<path d="M489.483 198.944H408.199L407.152 191.397H490.529L489.483 198.944Z" fill="#D3DCE5"/>
<path d="M784.709 199.795H703.425L702.379 192.248H785.756L784.709 199.795Z" fill="#D3DCE5"/>
<path d="M489.483 334.219H408.199L407.152 326.672H490.529L489.483 334.219Z" fill="#D3DCE5"/>
<path d="M784.709 331.666H703.425L702.379 324.119H785.756L784.709 331.666Z" fill="#D3DCE5"/>
<path d="M489.483 465.239H408.199L407.152 457.692H490.529L489.483 465.239Z" fill="#D3DCE5"/>
<path d="M784.709 461.835H703.425L702.379 454.288H785.756L784.709 461.835Z" fill="#D3DCE5"/>
<path d="M933.596 461.835H852.312L851.266 454.288H934.642L933.596 461.835Z" fill="#D3DCE5"/>
<path d="M595.516 162.327V209.546H587.383L587.391 162.327H595.516Z" fill="#F4F5F6"/>
<path fill-rule="evenodd" clip-rule="evenodd" d="M586.985 161.923H595.919V209.95H586.977L586.985 161.923ZM587.793 162.732L587.785 209.142H595.11V162.732H587.793Z" fill="#959DA8"/>
<path d="M587.009 162.327V209.546H578.875L578.884 162.327H587.009Z" fill="#F4F5F6"/>
<path fill-rule="evenodd" clip-rule="evenodd" d="M578.481 161.923H587.415V209.95H578.473L578.481 161.923ZM579.29 162.732L579.281 209.142H586.606V162.732H579.29Z" fill="#959DA8"/>
<path d="M604.027 162.327H595.715V209.546H604.027V162.327Z" fill="#F4F5F6"/>
<path fill-rule="evenodd" clip-rule="evenodd" d="M595.312 161.923H604.433V209.95H595.312V161.923ZM596.121 162.732V209.142H603.625V162.732H596.121Z" fill="#959DA8"/>
<path d="M612.535 162.327H604.223V209.546H612.535V162.327Z" fill="#F4F5F6"/>
<path fill-rule="evenodd" clip-rule="evenodd" d="M603.816 161.923H612.937V209.95H603.816V161.923ZM604.625 162.732V209.142H612.129V162.732H604.625Z" fill="#959DA8"/>
<path d="M621.043 162.327H612.73V209.546H621.043V162.327Z" fill="#F4F5F6"/>
<path fill-rule="evenodd" clip-rule="evenodd" d="M612.324 161.923H621.445V209.95H612.324V161.923ZM613.133 162.732V209.142H620.636V162.732H613.133Z" fill="#959DA8"/>
<path d="M553.829 162.327V209.546H545.695L545.704 162.327H553.829Z" fill="#F4F5F6"/>
<path fill-rule="evenodd" clip-rule="evenodd" d="M545.298 161.923H554.231V209.95H545.289L545.298 161.923ZM546.106 162.732L546.098 209.142H553.423V162.732H546.106Z" fill="#959DA8"/>
<path d="M545.321 162.327V209.546H537.188L537.196 162.327H545.321Z" fill="#F4F5F6"/>
<path fill-rule="evenodd" clip-rule="evenodd" d="M536.79 161.923H545.723V209.95H536.781L536.79 161.923ZM537.598 162.732L537.59 209.142H544.915V162.732H537.598Z" fill="#959DA8"/>
<path d="M536.813 162.327V209.546H528.68L528.688 162.327H536.813Z" fill="#F4F5F6"/>
<path fill-rule="evenodd" clip-rule="evenodd" d="M528.282 161.923H537.215V209.95H528.273L528.282 161.923ZM529.09 162.732L529.082 209.142H536.407V162.732H529.09Z" fill="#959DA8"/>
<path d="M528.302 162.327V209.546H520.168L520.176 162.327H528.302Z" fill="#F4F5F6"/>
<path fill-rule="evenodd" clip-rule="evenodd" d="M519.774 161.923H528.708V209.95H519.766L519.774 161.923ZM520.583 162.732L520.574 209.142H527.899V162.732H520.583Z" fill="#959DA8"/>
<path d="M562.34 162.327H554.027V209.546H562.34V162.327Z" fill="#F4F5F6"/>
<path fill-rule="evenodd" clip-rule="evenodd" d="M553.621 161.923H562.742V209.95H553.621V161.923ZM554.429 162.732V209.142H561.933V162.732H554.429Z" fill="#959DA8"/>
<path d="M570.847 162.327H562.535V209.546H570.847V162.327Z" fill="#F4F5F6"/>
<path fill-rule="evenodd" clip-rule="evenodd" d="M562.129 161.923H571.249V209.95H562.129V161.923ZM562.937 162.732V209.142H570.441V162.732H562.937Z" fill="#959DA8"/>
<path d="M579.355 162.327H571.043V209.546H579.355V162.327Z" fill="#F4F5F6"/>
<path fill-rule="evenodd" clip-rule="evenodd" d="M570.637 161.923H579.757V209.95H570.637V161.923ZM571.445 162.732V209.142H578.949V162.732H571.445Z" fill="#959DA8"/>
<path d="M629.55 162.327H621.238V209.546H629.55V162.327Z" fill="#F4F5F6"/>
<path fill-rule="evenodd" clip-rule="evenodd" d="M620.836 161.923H629.956V209.95H620.836V161.923ZM621.644 162.732V209.142H629.148V162.732H621.644Z" fill="#959DA8"/>
<path d="M638.058 162.327H629.746V209.546H638.058V162.327Z" fill="#F4F5F6"/>
<path fill-rule="evenodd" clip-rule="evenodd" d="M629.34 161.923H638.46V209.95H629.34V161.923ZM630.148 162.732V209.142H637.652V162.732H630.148Z" fill="#959DA8"/>
<path d="M646.566 162.327H638.254V209.546H646.566V162.327Z" fill="#F4F5F6"/>
<path fill-rule="evenodd" clip-rule="evenodd" d="M637.848 161.923H646.968V209.95H637.848V161.923ZM638.656 162.732V209.142H646.16V162.732H638.656Z" fill="#959DA8"/>
<path d="M655.07 162.327H646.758V209.546H655.07V162.327Z" fill="#F4F5F6"/>
<path fill-rule="evenodd" clip-rule="evenodd" d="M646.355 161.923H655.476V209.95H646.355V161.923ZM647.164 162.732V209.142H654.668V162.732H647.164Z" fill="#959DA8"/>
<path d="M663.578 162.327H655.266V209.546H663.578V162.327Z" fill="#F4F5F6"/>
<path fill-rule="evenodd" clip-rule="evenodd" d="M654.863 161.923H663.984V209.95H654.863V161.923ZM655.672 162.732V209.142H663.175V162.732H655.672Z" fill="#959DA8"/>
<path d="M672.09 162.327H663.777V209.546H672.09V162.327Z" fill="#F4F5F6"/>
<path fill-rule="evenodd" clip-rule="evenodd" d="M663.371 161.923H672.492V209.95H663.371V161.923ZM664.179 162.732V209.142H671.683V162.732H664.179Z" fill="#959DA8"/>
<path fill-rule="evenodd" clip-rule="evenodd" d="M519.5 161.942H672.556V210.352H519.5V161.942ZM521.117 163.559V208.735H670.939V163.559H521.117Z" fill="#959DA8"/>
<path d="M526.266 313.596C526.258 311.703 526.706 309.835 527.573 308.152C528.44 306.468 529.699 305.018 531.244 303.923C532.79 302.829 534.576 302.124 536.452 301.866C538.328 301.608 540.239 301.806 542.022 302.443C542.711 299.667 544.107 297.118 546.074 295.042C548.041 292.966 550.512 291.435 553.246 290.597C555.98 289.759 558.885 289.644 561.677 290.261C564.469 290.879 567.054 292.209 569.179 294.122C570.681 289.923 573.616 286.389 577.467 284.142C581.318 281.895 585.839 281.078 590.233 281.837C594.627 282.595 598.612 284.88 601.488 288.288C604.363 291.696 605.943 296.01 605.95 300.469C605.953 301.128 605.918 301.787 605.848 302.443C607.124 301.975 606.537 315.706 606.239 316.744H526.691C526.406 315.711 526.263 314.643 526.266 313.571V313.596Z" fill="#80C33F"/>
<path d="M595.516 294.196V341.415H587.383L587.391 294.196H595.516Z" fill="#F4F5F6"/>
<path fill-rule="evenodd" clip-rule="evenodd" d="M586.985 293.792H595.919V341.819H586.977L586.985 293.792ZM587.793 294.6L587.785 341.011H595.11V294.6H587.793Z" fill="#959DA8"/>
<path d="M587.009 294.196V341.415H578.875L578.884 294.196H587.009Z" fill="#F4F5F6"/>
<path fill-rule="evenodd" clip-rule="evenodd" d="M578.481 293.792H587.415V341.819H578.473L578.481 293.792ZM579.29 294.6L579.281 341.011H586.606V294.6H579.29Z" fill="#959DA8"/>
<path d="M604.027 294.196H595.715V341.415H604.027V294.196Z" fill="#F4F5F6"/>
<path fill-rule="evenodd" clip-rule="evenodd" d="M595.312 293.792H604.433V341.819H595.312V293.792ZM596.121 294.6V341.011H603.625V294.6H596.121Z" fill="#959DA8"/>
<path d="M612.535 294.196H604.223V341.415H612.535V294.196Z" fill="#F4F5F6"/>
<path fill-rule="evenodd" clip-rule="evenodd" d="M603.816 293.792H612.937V341.819H603.816V293.792ZM604.625 294.6V341.011H612.129V294.6H604.625Z" fill="#959DA8"/>
<path d="M621.043 294.196H612.73V341.415H621.043V294.196Z" fill="#F4F5F6"/>
<path fill-rule="evenodd" clip-rule="evenodd" d="M612.324 293.792H621.445V341.819H612.324V293.792ZM613.133 294.6V341.011H620.636V294.6H613.133Z" fill="#959DA8"/>
<path d="M553.829 294.196V341.415H545.695L545.704 294.196H553.829Z" fill="#F4F5F6"/>
<path fill-rule="evenodd" clip-rule="evenodd" d="M545.298 293.792H554.231V341.819H545.289L545.298 293.792ZM546.106 294.6L546.098 341.011H553.423V294.6H546.106Z" fill="#959DA8"/>
<path d="M545.321 294.196V341.415H537.188L537.196 294.196H545.321Z" fill="#F4F5F6"/>
<path fill-rule="evenodd" clip-rule="evenodd" d="M536.79 293.792H545.723V341.819H536.781L536.79 293.792ZM537.598 294.6L537.59 341.011H544.915V294.6H537.598Z" fill="#959DA8"/>
<path d="M536.813 294.196V341.415H528.68L528.688 294.196H536.813Z" fill="#F4F5F6"/>
<path fill-rule="evenodd" clip-rule="evenodd" d="M528.282 293.792H537.215V341.819H528.273L528.282 293.792ZM529.09 294.6L529.082 341.011H536.407V294.6H529.09Z" fill="#959DA8"/>
<path d="M528.302 294.196V341.415H520.168L520.176 294.196H528.302Z" fill="#F4F5F6"/>
<path fill-rule="evenodd" clip-rule="evenodd" d="M519.774 293.792H528.708V341.819H519.766L519.774 293.792ZM520.583 294.6L520.574 341.011H527.899V294.6H520.583Z" fill="#959DA8"/>
<path d="M562.34 294.196H554.027V341.415H562.34V294.196Z" fill="#F4F5F6"/>
<path fill-rule="evenodd" clip-rule="evenodd" d="M553.621 293.792H562.742V341.819H553.621V293.792ZM554.429 294.6V341.011H561.933V294.6H554.429Z" fill="#959DA8"/>
<path d="M570.847 294.196H562.535V341.415H570.847V294.196Z" fill="#F4F5F6"/>
<path fill-rule="evenodd" clip-rule="evenodd" d="M562.129 293.792H571.249V341.819H562.129V293.792ZM562.937 294.6V341.011H570.441V294.6H562.937Z" fill="#959DA8"/>
<path d="M579.355 294.196H571.043V341.415H579.355V294.196Z" fill="#F4F5F6"/>
<path fill-rule="evenodd" clip-rule="evenodd" d="M570.637 293.792H579.757V341.819H570.637V293.792ZM571.445 294.6V341.011H578.949V294.6H571.445Z" fill="#959DA8"/>
<path d="M629.55 294.196H621.238V341.415H629.55V294.196Z" fill="#F4F5F6"/>
<path fill-rule="evenodd" clip-rule="evenodd" d="M620.836 293.792H629.956V341.819H620.836V293.792ZM621.644 294.6V341.011H629.148V294.6H621.644Z" fill="#959DA8"/>
<path d="M638.058 294.196H629.746V341.415H638.058V294.196Z" fill="#F4F5F6"/>
<path fill-rule="evenodd" clip-rule="evenodd" d="M629.34 293.792H638.46V341.819H629.34V293.792ZM630.148 294.6V341.011H637.652V294.6H630.148Z" fill="#959DA8"/>
<path d="M646.566 294.196H638.254V341.415H646.566V294.196Z" fill="#F4F5F6"/>
<path fill-rule="evenodd" clip-rule="evenodd" d="M637.848 293.792H646.968V341.819H637.848V293.792ZM638.656 294.6V341.011H646.16V294.6H638.656Z" fill="#959DA8"/>
<path d="M655.07 294.196H646.758V341.415H655.07V294.196Z" fill="#F4F5F6"/>
<path fill-rule="evenodd" clip-rule="evenodd" d="M646.355 293.792H655.476V341.819H646.355V293.792ZM647.164 294.6V341.011H654.668V294.6H647.164Z" fill="#959DA8"/>
<path d="M663.578 294.196H655.266V341.415H663.578V294.196Z" fill="#F4F5F6"/>
<path fill-rule="evenodd" clip-rule="evenodd" d="M654.863 293.792H663.984V341.819H654.863V293.792ZM655.672 294.6V341.011H663.175V294.6H655.672Z" fill="#959DA8"/>
<path d="M672.09 294.196H663.777V341.415H672.09V294.196Z" fill="#F4F5F6"/>
<path fill-rule="evenodd" clip-rule="evenodd" d="M663.371 293.792H672.492V341.819H663.371V293.792ZM664.179 294.6V341.011H671.683V294.6H664.179Z" fill="#959DA8"/>
<path fill-rule="evenodd" clip-rule="evenodd" d="M519.5 293.813H672.556V342.223H519.5V293.813ZM521.117 295.43V340.606H670.939V295.43H521.117Z" fill="#959DA8"/>
<path d="M717 421.279C717.634 418.449 717.632 415.514 716.992 412.685C716.352 409.856 715.092 407.205 713.302 404.923C711.512 402.642 709.237 400.786 706.642 399.491C704.046 398.197 701.196 397.495 698.296 397.437C695.397 397.379 692.521 397.967 689.876 399.157C687.231 400.347 684.884 402.11 683.004 404.318C681.125 406.527 679.759 409.126 679.007 411.927C678.255 414.728 678.135 417.661 678.656 420.514C676.52 421.551 674.633 423.038 673.124 424.872C671.615 426.706 670.52 428.844 669.914 431.14C669.308 433.436 669.204 435.836 669.611 438.175C670.017 440.515 670.924 442.739 672.269 444.697C673.614 446.654 675.366 448.297 677.405 449.515C679.443 450.733 681.721 451.496 684.082 451.752C686.443 452.009 688.831 451.753 691.084 451.001C693.337 450.25 695.4 449.021 697.135 447.398C698.819 448.98 700.816 450.191 702.998 450.952C705.18 451.712 707.498 452.006 709.8 451.814C712.103 451.622 714.34 450.949 716.365 449.837C718.391 448.725 720.161 447.201 721.56 445.361C722.958 443.522 723.955 441.41 724.486 439.161C725.016 436.912 725.068 434.576 724.638 432.306C724.208 430.036 723.306 427.881 721.99 425.981C720.675 424.082 718.975 422.48 717 421.279Z" fill="#80C33F"/>
<path fill-rule="evenodd" clip-rule="evenodd" d="M688.544 432.123C688.668 431.937 688.919 431.887 689.105 432.011L698.115 438.017C698.301 438.141 698.351 438.392 698.227 438.578C698.103 438.763 697.852 438.814 697.666 438.69L688.657 432.683C688.471 432.559 688.421 432.309 688.544 432.123Z" fill="#2A3A51"/>
<path fill-rule="evenodd" clip-rule="evenodd" d="M708.699 436.592C708.844 436.761 708.824 437.017 708.655 437.162L698.148 446.163C697.978 446.308 697.723 446.289 697.578 446.119C697.432 445.95 697.452 445.694 697.622 445.549L708.129 436.548C708.298 436.403 708.554 436.422 708.699 436.592Z" fill="#2A3A51"/>
<path fill-rule="evenodd" clip-rule="evenodd" d="M697.892 419.938C698.116 419.938 698.297 420.119 698.297 420.342V474.367C698.297 474.59 698.116 474.771 697.892 474.771C697.669 474.771 697.488 474.59 697.488 474.367V420.342C697.488 420.119 697.669 419.938 697.892 419.938Z" fill="#2A3A51"/>
<path fill-rule="evenodd" clip-rule="evenodd" d="M615.564 472.758L575.348 441.678L575.842 441.039L616.059 472.118L615.564 472.758Z" fill="#959DA8"/>
<path fill-rule="evenodd" clip-rule="evenodd" d="M575.348 472.118L615.564 441.039L616.059 441.678L575.842 472.758L575.348 472.118Z" fill="#959DA8"/>
<path d="M623.25 435.428H567.949V442.209H623.25V435.428Z" fill="#D3DCE5"/>
<path d="M533.571 452.57H557.103L547.294 429.046H523.77L533.571 452.57Z" fill="#D3DCE5"/>
<path fill-rule="evenodd" clip-rule="evenodd" d="M563.828 443.669C561.471 442.214 558.733 441.496 555.965 441.608L552.443 441.752L552.41 440.945L555.932 440.8C558.861 440.682 561.759 441.441 564.253 442.981C566.747 444.521 568.724 446.772 569.93 449.443L580.99 473.972L580.253 474.304L569.193 449.776C568.053 447.251 566.185 445.125 563.828 443.669Z" fill="#959DA8"/>
<path fill-rule="evenodd" clip-rule="evenodd" d="M528.605 474.051L533.523 451.931L534.312 452.107L529.395 474.227L528.605 474.051Z" fill="#959DA8"/>
<path fill-rule="evenodd" clip-rule="evenodd" d="M548.211 474.052L553.094 451.932L553.884 452.106L549 474.226L548.211 474.052Z" fill="#959DA8"/>
<path d="M532.917 452.572H570.164V449.305H532.917V452.572Z" fill="#D3DCE5"/>
<path fill-rule="evenodd" clip-rule="evenodd" d="M533.615 441.567C533.615 441.567 533.615 441.567 533.615 441.567L528.919 441.755L528.887 440.947L533.583 440.76C536.362 440.65 539.11 441.373 541.475 442.836C543.84 444.299 545.714 446.434 546.857 448.969L558.113 473.974L557.376 474.306L546.12 449.302C545.043 446.913 543.278 444.901 541.05 443.523C538.822 442.145 536.233 441.464 533.615 441.567Z" fill="#959DA8"/>
<path fill-rule="evenodd" clip-rule="evenodd" d="M636.122 440.8C636.123 440.8 636.123 440.8 636.124 440.8L640.494 440.945L640.467 441.752L636.094 441.608L636.091 441.608C633.323 441.496 630.585 442.214 628.228 443.669C625.871 445.125 624.003 447.251 622.864 449.776C622.863 449.776 622.864 449.776 622.864 449.776L611.803 474.304L611.066 473.972L622.127 449.443C623.333 446.772 625.31 444.521 627.804 442.981C630.297 441.442 633.194 440.682 636.122 440.8Z" fill="#959DA8"/>
<path d="M658.486 452.57H634.953L644.763 429.046H668.287L658.486 452.57Z" fill="#D3DCE5"/>
<path fill-rule="evenodd" clip-rule="evenodd" d="M662.66 474.222L657.742 451.25L658.533 451.081L663.45 474.052L662.66 474.222Z" fill="#959DA8"/>
<path fill-rule="evenodd" clip-rule="evenodd" d="M643.055 474.226L638.172 452.106L638.961 451.932L643.845 474.052L643.055 474.226Z" fill="#959DA8"/>
<path d="M659.13 449.303H621.883V452.57H659.13V449.303Z" fill="#D3DCE5"/>
<path fill-rule="evenodd" clip-rule="evenodd" d="M650.583 442.836C652.948 441.373 655.696 440.65 658.475 440.76L663.172 440.947L663.139 441.755L658.443 441.568C658.443 441.568 658.443 441.568 658.443 441.568C655.826 441.464 653.237 442.145 651.009 443.523C648.781 444.901 647.015 446.913 645.938 449.302L634.682 474.306L633.945 473.974L645.201 448.97C646.344 446.435 648.218 444.299 650.583 442.836Z" fill="#959DA8"/>
<path d="M871.172 293.347V340.566H863.039L863.048 293.347H871.172Z" fill="#F4F5F6"/>
<path fill-rule="evenodd" clip-rule="evenodd" d="M862.641 292.943H871.575V340.97H862.633L862.641 292.943ZM863.45 293.751L863.441 340.162H870.766V293.751H863.45Z" fill="#959DA8"/>
<path d="M862.665 293.347V340.566H854.531L854.54 293.347H862.665Z" fill="#F4F5F6"/>
<path fill-rule="evenodd" clip-rule="evenodd" d="M854.134 292.943H863.067V340.97H854.125L854.134 292.943ZM854.942 293.751L854.934 340.162H862.259V293.751H854.942Z" fill="#959DA8"/>
<path d="M879.679 293.347H871.367V340.566H879.679V293.347Z" fill="#F4F5F6"/>
<path fill-rule="evenodd" clip-rule="evenodd" d="M870.965 292.943H880.085V340.97H870.965V292.943ZM871.773 293.751V340.162H879.277V293.751H871.773Z" fill="#959DA8"/>
<path d="M888.187 293.347H879.875V340.566H888.187V293.347Z" fill="#F4F5F6"/>
<path fill-rule="evenodd" clip-rule="evenodd" d="M879.473 292.943H888.593V340.97H879.473V292.943ZM880.281 293.751V340.162H887.785V293.751H880.281Z" fill="#959DA8"/>
<path d="M896.695 293.347H888.383V340.566H896.695V293.347Z" fill="#F4F5F6"/>
<path fill-rule="evenodd" clip-rule="evenodd" d="M887.98 292.943H897.101V340.97H887.98V292.943ZM888.789 293.751V340.162H896.293V293.751H888.789Z" fill="#959DA8"/>
<path d="M905.203 293.347H896.891V340.566H905.203V293.347Z" fill="#F4F5F6"/>
<path fill-rule="evenodd" clip-rule="evenodd" d="M896.488 292.943H905.609V340.97H896.488V292.943ZM897.297 293.751V340.162H904.8V293.751H897.297Z" fill="#959DA8"/>
<path d="M913.711 293.347H905.398V340.566H913.711V293.347Z" fill="#F4F5F6"/>
<path fill-rule="evenodd" clip-rule="evenodd" d="M904.992 292.943H914.113V340.97H904.992V292.943ZM905.801 293.751V340.162H913.304V293.751H905.801Z" fill="#959DA8"/>
<path d="M922.218 293.347H913.906V340.566H922.218V293.347Z" fill="#F4F5F6"/>
<path fill-rule="evenodd" clip-rule="evenodd" d="M913.504 292.943H922.624V340.97H913.504V292.943ZM914.312 293.751V340.162H921.816V293.751H914.312Z" fill="#959DA8"/>
<path d="M930.726 293.347H922.414V340.566H930.726V293.347Z" fill="#F4F5F6"/>
<path fill-rule="evenodd" clip-rule="evenodd" d="M922.012 292.943H931.132V340.97H922.012V292.943ZM922.82 293.751V340.162H930.324V293.751H922.82Z" fill="#959DA8"/>
<path d="M939.234 293.347H930.922V340.566H939.234V293.347Z" fill="#F4F5F6"/>
<path fill-rule="evenodd" clip-rule="evenodd" d="M930.52 292.943H939.64V340.97H930.52V292.943ZM931.328 293.751V340.162H938.832V293.751H931.328Z" fill="#959DA8"/>
<path d="M947.742 293.347H939.43V340.566H947.742V293.347Z" fill="#F4F5F6"/>
<path fill-rule="evenodd" clip-rule="evenodd" d="M939.027 292.943H948.148V340.97H939.027V292.943ZM939.836 293.751V340.162H947.34V293.751H939.836Z" fill="#959DA8"/>
<path d="M845.648 293.347H837.336V340.566H845.648V293.347Z" fill="#F4F5F6"/>
<path fill-rule="evenodd" clip-rule="evenodd" d="M836.93 292.943H846.05V340.97H836.93V292.943ZM837.738 293.751V340.162H845.242V293.751H837.738Z" fill="#959DA8"/>
<path d="M854.156 293.347H845.844V340.566H854.156V293.347Z" fill="#F4F5F6"/>
<path fill-rule="evenodd" clip-rule="evenodd" d="M845.441 292.943H854.562V340.97H845.441V292.943ZM846.25 293.751V340.162H853.754V293.751H846.25Z" fill="#959DA8"/>
<path fill-rule="evenodd" clip-rule="evenodd" d="M832.59 292.964H948.212V341.374H832.59V292.964ZM834.207 294.581V339.758H946.595V294.581H834.207Z" fill="#959DA8"/>
<path d="M1022.21 313.946L973.961 301.019L967.185 326.306L1015.43 339.234L1022.21 313.946Z" fill="white"/>
<path d="M1022.19 313.84L973.98 300.923L973.444 302.924L1021.65 315.84L1022.19 313.84Z" fill="#B22234"/>
<path d="M1021.15 317.753L972.941 304.836L972.405 306.836L1020.61 319.753L1021.15 317.753Z" fill="#B22234"/>
<path d="M1020.1 321.666L971.895 308.749L971.359 310.75L1019.57 323.667L1020.1 321.666Z" fill="#B22234"/>
<path d="M1019.05 325.578L970.844 312.661L970.308 314.661L1018.51 327.578L1019.05 325.578Z" fill="#B22234"/>
<path d="M1018 329.491L969.793 316.574L969.257 318.575L1017.46 331.492L1018 329.491Z" fill="#B22234"/>
<path d="M1016.95 333.402L968.742 320.486L968.206 322.486L1016.41 335.403L1016.95 333.402Z" fill="#B22234"/>
<path d="M1015.9 337.316L967.691 324.4L967.155 326.4L1015.36 339.317L1015.9 337.316Z" fill="#B22234"/>
<path d="M993.238 306.082L973.984 300.923L970.303 314.662L989.556 319.821L993.238 306.082Z" fill="#2A3A51"/>
<path d="M975.486 301.888L975.516 302.497L976.099 302.653L975.534 302.873L975.564 303.483L975.185 303.009L974.621 303.23L974.951 302.717L974.572 302.244L975.155 302.4L975.486 301.888Z" fill="white"/>
<path d="M976.689 303.721L976.719 304.331L977.302 304.487L976.737 304.707L976.767 305.316L976.388 304.843L975.824 305.063L976.154 304.551L975.775 304.078L976.359 304.234L976.689 303.721Z" fill="white"/>
<path d="M975.951 306.476L975.981 307.085L976.564 307.241L975.999 307.461L976.029 308.07L975.65 307.597L975.086 307.818L975.416 307.305L975.037 306.832L975.62 306.988L975.951 306.476Z" fill="white"/>
<path d="M975.212 309.232L975.242 309.841L975.825 309.997L975.261 310.218L975.291 310.827L974.912 310.354L974.347 310.574L974.678 310.061L974.299 309.588L974.882 309.744L975.212 309.232Z" fill="white"/>
<path d="M974.478 311.986L974.508 312.595L975.091 312.751L974.527 312.972L974.556 313.581L974.178 313.108L973.613 313.328L973.944 312.815L973.565 312.342L974.148 312.498L974.478 311.986Z" fill="white"/>
<path d="M979.908 304.584L979.938 305.193L980.521 305.349L979.956 305.569L979.986 306.178L979.607 305.706L979.043 305.926L979.373 305.413L978.994 304.94L979.577 305.096L979.908 304.584Z" fill="white"/>
<path d="M979.173 307.338L979.203 307.947L979.786 308.103L979.222 308.324L979.252 308.933L978.873 308.46L978.308 308.68L978.639 308.167L978.26 307.694L978.843 307.85L979.173 307.338Z" fill="white"/>
<path d="M978.427 310.093L978.457 310.702L979.04 310.858L978.476 311.078L978.506 311.687L978.127 311.214L977.562 311.434L977.893 310.922L977.514 310.449L978.097 310.605L978.427 310.093Z" fill="white"/>
<path d="M977.693 312.846L977.723 313.455L978.306 313.612L977.741 313.832L977.771 314.441L977.392 313.968L976.828 314.188L977.158 313.676L976.779 313.203L977.363 313.359L977.693 312.846Z" fill="white"/>
<path d="M983.123 305.445L983.152 306.055L983.736 306.211L983.171 306.431L983.201 307.04L982.822 306.567L982.258 306.787L982.588 306.275L982.209 305.802L982.792 305.958L983.123 305.445Z" fill="white"/>
<path d="M982.384 308.2L982.414 308.809L982.997 308.965L982.433 309.185L982.463 309.794L982.084 309.322L981.519 309.542L981.85 309.029L981.471 308.556L982.054 308.712L982.384 308.2Z" fill="white"/>
<path d="M981.646 310.955L981.676 311.564L982.259 311.72L981.695 311.94L981.724 312.549L981.345 312.076L980.781 312.297L981.111 311.784L980.733 311.311L981.316 311.467L981.646 310.955Z" fill="white"/>
<path d="M980.908 313.71L980.938 314.319L981.521 314.475L980.956 314.696L980.986 315.305L980.607 314.832L980.043 315.052L980.373 314.539L979.994 314.066L980.577 314.223L980.908 313.71Z" fill="white"/>
<path d="M986.337 306.308L986.368 306.917L986.951 307.073L986.386 307.294L986.416 307.903L986.037 307.43L985.472 307.65L985.803 307.137L985.424 306.664L986.007 306.82L986.337 306.308Z" fill="white"/>
<path d="M985.607 309.062L985.637 309.671L986.22 309.828L985.656 310.048L985.685 310.657L985.306 310.184L984.742 310.404L985.072 309.892L984.694 309.419L985.277 309.575L985.607 309.062Z" fill="white"/>
<path d="M984.865 311.817L984.895 312.426L985.478 312.582L984.913 312.802L984.943 313.411L984.564 312.938L984 313.158L984.33 312.646L983.951 312.173L984.534 312.329L984.865 311.817Z" fill="white"/>
<path d="M984.127 314.57L984.157 315.179L984.74 315.336L984.175 315.556L984.205 316.165L983.826 315.692L983.262 315.912L983.592 315.4L983.213 314.927L983.796 315.083L984.127 314.57Z" fill="white"/>
<path d="M989.56 307.169L989.59 307.779L990.173 307.935L989.608 308.155L989.638 308.764L989.259 308.291L988.695 308.512L989.025 307.999L988.647 307.526L989.23 307.682L989.56 307.169Z" fill="white"/>
<path d="M988.822 309.924L988.852 310.533L989.435 310.69L988.87 310.91L988.9 311.519L988.521 311.046L987.957 311.266L988.287 310.754L987.908 310.281L988.491 310.437L988.822 309.924Z" fill="white"/>
<path d="M988.079 312.679L988.11 313.288L988.692 313.444L988.128 313.664L988.158 314.273L987.779 313.8L987.214 314.021L987.545 313.508L987.166 313.035L987.749 313.191L988.079 312.679Z" fill="white"/>
<path d="M987.341 315.434L987.371 316.043L987.954 316.199L987.39 316.42L987.42 317.029L987.041 316.556L986.476 316.776L986.807 316.263L986.428 315.79L987.011 315.947L987.341 315.434Z" fill="white"/>
<path d="M974.748 304.642L974.778 305.251L975.361 305.407L974.796 305.627L974.826 306.236L974.447 305.763L973.883 305.983L974.213 305.471L973.834 304.998L974.417 305.154L974.748 304.642Z" fill="white"/>
<path d="M974.005 307.396L974.035 308.005L974.618 308.161L974.054 308.382L974.084 308.991L973.705 308.518L973.14 308.738L973.471 308.225L973.092 307.752L973.675 307.909L974.005 307.396Z" fill="white"/>
<path d="M973.267 310.15L973.297 310.759L973.88 310.916L973.315 311.136L973.346 311.745L972.967 311.272L972.402 311.492L972.733 310.98L972.354 310.507L972.937 310.663L973.267 310.15Z" fill="white"/>
<path d="M972.533 312.904L972.563 313.513L973.146 313.67L972.581 313.89L972.611 314.499L972.232 314.026L971.668 314.246L971.998 313.734L971.619 313.261L972.202 313.417L972.533 312.904Z" fill="white"/>
<path d="M978.65 302.737L978.68 303.347L979.263 303.503L978.698 303.723L978.728 304.332L978.349 303.859L977.785 304.079L978.115 303.567L977.736 303.094L978.32 303.25L978.65 302.737Z" fill="white"/>
<path d="M977.916 305.492L977.945 306.101L978.529 306.258L977.964 306.478L977.994 307.087L977.615 306.614L977.051 306.834L977.381 306.321L977.002 305.849L977.585 306.005L977.916 305.492Z" fill="white"/>
<path d="M977.177 308.247L977.207 308.856L977.79 309.012L977.226 309.232L977.256 309.841L976.877 309.368L976.312 309.588L976.643 309.076L976.264 308.603L976.847 308.759L977.177 308.247Z" fill="white"/>
<path d="M976.435 311.001L976.465 311.61L977.048 311.766L976.484 311.986L976.514 312.595L976.135 312.122L975.57 312.342L975.901 311.83L975.522 311.357L976.105 311.513L976.435 311.001Z" fill="white"/>
<path d="M975.709 313.755L975.738 314.364L976.322 314.52L975.757 314.741L975.787 315.35L975.408 314.877L974.844 315.097L975.174 314.585L974.795 314.111L975.378 314.268L975.709 313.755Z" fill="white"/>
<path d="M981.916 303.612L981.945 304.221L982.529 304.377L981.964 304.598L981.994 305.207L981.615 304.734L981.051 304.954L981.381 304.441L981.002 303.968L981.585 304.125L981.916 303.612Z" fill="white"/>
<path d="M981.177 306.366L981.207 306.975L981.79 307.131L981.226 307.351L981.256 307.96L980.877 307.487L980.312 307.708L980.643 307.195L980.264 306.722L980.847 306.878L981.177 306.366Z" fill="white"/>
<path d="M980.443 309.12L980.473 309.729L981.056 309.885L980.491 310.106L980.521 310.715L980.142 310.242L979.578 310.462L979.908 309.95L979.529 309.476L980.113 309.633L980.443 309.12Z" fill="white"/>
<path d="M979.705 311.875L979.735 312.484L980.318 312.64L979.753 312.861L979.783 313.47L979.404 312.997L978.84 313.217L979.17 312.704L978.791 312.231L979.374 312.388L979.705 311.875Z" fill="white"/>
<path d="M978.962 314.629L978.992 315.238L979.575 315.394L979.011 315.615L979.041 316.224L978.662 315.751L978.097 315.971L978.428 315.458L978.049 314.985L978.632 315.141L978.962 314.629Z" fill="white"/>
<path d="M985.107 304.467L985.137 305.076L985.72 305.232L985.155 305.452L985.185 306.062L984.806 305.589L984.242 305.809L984.572 305.296L984.193 304.823L984.777 304.98L985.107 304.467Z" fill="white"/>
<path d="M984.373 307.221L984.403 307.83L984.986 307.987L984.421 308.207L984.451 308.816L984.072 308.343L983.507 308.563L983.838 308.05L983.459 307.578L984.042 307.734L984.373 307.221Z" fill="white"/>
<path d="M983.638 309.975L983.668 310.584L984.251 310.74L983.687 310.961L983.716 311.57L983.338 311.097L982.773 311.317L983.103 310.804L982.725 310.331L983.308 310.488L983.638 309.975Z" fill="white"/>
<path d="M982.9 312.732L982.93 313.341L983.513 313.497L982.948 313.717L982.978 314.326L982.599 313.853L982.035 314.073L982.365 313.561L981.986 313.088L982.57 313.244L982.9 312.732Z" fill="white"/>
<path d="M982.154 315.486L982.184 316.095L982.767 316.251L982.202 316.471L982.232 317.08L981.853 316.608L981.289 316.828L981.619 316.315L981.24 315.842L981.823 315.998L982.154 315.486Z" fill="white"/>
<path d="M988.306 305.323L988.336 305.933L988.919 306.089L988.354 306.309L988.384 306.918L988.006 306.445L987.441 306.665L987.771 306.153L987.393 305.68L987.976 305.836L988.306 305.323Z" fill="white"/>
<path d="M987.568 308.078L987.598 308.687L988.181 308.843L987.616 309.063L987.646 309.673L987.267 309.2L986.703 309.42L987.033 308.907L986.654 308.434L987.237 308.591L987.568 308.078Z" fill="white"/>
<path d="M986.83 310.832L986.86 311.441L987.443 311.597L986.878 311.817L986.908 312.426L986.529 311.953L985.964 312.173L986.295 311.661L985.916 311.188L986.499 311.344L986.83 310.832Z" fill="white"/>
<path d="M986.084 313.587L986.113 314.196L986.697 314.352L986.132 314.573L986.162 315.182L985.783 314.709L985.218 314.929L985.549 314.416L985.17 313.943L985.753 314.099L986.084 313.587Z" fill="white"/>
<path d="M985.353 316.34L985.383 316.949L985.966 317.106L985.401 317.326L985.431 317.935L985.053 317.462L984.488 317.682L984.818 317.17L984.44 316.697L985.022 316.853L985.353 316.34Z" fill="white"/>
<path d="M991.572 306.198L991.602 306.808L992.185 306.964L991.62 307.184L991.65 307.793L991.271 307.32L990.707 307.54L991.037 307.028L990.658 306.555L991.241 306.711L991.572 306.198Z" fill="white"/>
<path d="M990.834 308.952L990.864 309.561L991.447 309.718L990.882 309.938L990.912 310.547L990.533 310.074L989.969 310.294L990.299 309.781L989.92 309.308L990.503 309.465L990.834 308.952Z" fill="white"/>
<path d="M990.087 311.707L990.118 312.316L990.701 312.472L990.136 312.692L990.166 313.301L989.787 312.828L989.222 313.048L989.553 312.536L989.174 312.063L989.757 312.219L990.087 311.707Z" fill="white"/>
<path d="M989.353 314.461L989.383 315.07L989.966 315.226L989.402 315.447L989.431 316.056L989.053 315.583L988.488 315.803L988.819 315.29L988.44 314.817L989.023 314.973L989.353 314.461Z" fill="white"/>
<path d="M988.619 317.214L988.649 317.824L989.232 317.98L988.667 318.2L988.697 318.809L988.318 318.336L987.754 318.556L988.084 318.044L987.705 317.571L988.288 317.727L988.619 317.214Z" fill="white"/>
<path fill-rule="evenodd" clip-rule="evenodd" d="M973.688 300.412L1022.3 313.438L1015.37 339.297L967.566 326.487L963.805 340.521L962.998 340.305L973.688 300.412ZM967.782 325.681L1014.78 338.274L1021.28 314.029L974.278 301.435L967.782 325.681Z" fill="#959DA8"/>
<path fill-rule="evenodd" clip-rule="evenodd" d="M947.388 109.488C947.831 109.543 948.146 109.947 948.091 110.39L936.29 205.389C936.235 205.832 935.832 206.146 935.389 206.091C934.945 206.036 934.631 205.632 934.686 205.189L946.486 110.191C946.541 109.748 946.945 109.433 947.388 109.488Z" fill="#959DA8"/>
<path d="M987.314 140.377C980.336 141.247 973.307 141.65 966.275 141.585L964.275 138.65L962.888 141.483C955.374 141.272 947.881 140.584 940.453 139.424C938.406 139.107 936.381 138.758 934.379 138.378L932.413 137.987C930.241 137.55 928.094 137.076 925.973 136.566L924.875 136.294L923.497 135.945L922.902 135.792L922.374 132.091L918.971 134.728L919.396 134.847L918.971 134.728L918.537 134.6L918.103 134.481C916.748 134.09 915.403 133.682 914.071 133.256L911.518 132.405C910.633 132.111 909.751 131.807 908.872 131.495L907.596 131.036L907.06 130.84L905.724 130.347L905.078 130.1L903.827 129.615L901.453 128.662H901.36L900.143 128.152C899.369 127.828 898.595 127.488 897.829 127.156C897.541 127.023 897.292 126.817 897.107 126.559C896.922 126.301 896.808 125.999 896.775 125.683C896.743 125.367 896.793 125.048 896.921 124.757C897.049 124.467 897.251 124.214 897.506 124.025C899.635 122.473 901.857 121.053 904.159 119.771L904.746 119.448C905.88 118.824 907.04 118.234 908.226 117.678L909.655 117.032C912.05 115.976 914.508 115.066 917.014 114.309L917.771 114.088C920.323 113.361 922.917 112.793 925.539 112.387L927.045 112.165C927.836 112.055 928.636 111.961 929.436 111.885C929.972 111.834 930.508 111.782 931.044 111.748L931.852 111.697H932.422C933.318 111.646 934.22 111.618 935.127 111.612H936.718C937.373 111.612 938.029 111.612 938.684 111.672L939.637 111.723H940.028L941.5 111.834C942.94 111.964 944.387 112.14 945.839 112.361C954.259 113.648 962.344 116.581 969.63 120.994C976.916 125.408 983.261 131.213 988.301 138.08C988.45 138.284 988.542 138.523 988.57 138.774C988.598 139.024 988.56 139.278 988.461 139.509C988.361 139.741 988.203 139.943 988.002 140.095C987.801 140.247 987.564 140.344 987.314 140.377Z" fill="#D3DCE5"/>
<path fill-rule="evenodd" clip-rule="evenodd" d="M922.377 139.038L922.811 139.089L922.746 139.635L922.312 139.584L922.377 139.038Z" fill="#959DA8"/>
<path fill-rule="evenodd" clip-rule="evenodd" d="M922.72 132.218L922.371 132.013C922.023 131.808 922.023 131.808 922.023 131.808L922.024 131.807L922.026 131.804L922.032 131.794L922.055 131.754C922.076 131.72 922.107 131.669 922.147 131.603C922.228 131.47 922.348 131.277 922.505 131.03C922.819 130.536 923.282 129.831 923.878 128.978C925.068 127.274 926.793 124.98 928.929 122.624C933.186 117.928 939.139 112.91 945.801 111.909L945.921 112.709C939.55 113.665 933.758 118.499 929.528 123.166C927.421 125.491 925.717 127.757 924.54 129.441C923.952 130.283 923.496 130.979 923.187 131.464C923.033 131.706 922.915 131.896 922.837 132.024C922.798 132.089 922.768 132.138 922.748 132.17L922.727 132.207L922.721 132.216L922.72 132.218L922.72 132.218Z" fill="#959DA8"/>
<path fill-rule="evenodd" clip-rule="evenodd" d="M964.742 138.437C964.742 138.438 964.742 138.438 964.348 138.528L963.954 138.617L963.953 138.615L963.951 138.604L963.941 138.563C963.932 138.526 963.919 138.47 963.901 138.397C963.865 138.251 963.811 138.034 963.737 137.757C963.59 137.201 963.367 136.399 963.062 135.418C962.451 133.456 961.515 130.78 960.212 127.926C957.596 122.195 953.543 115.833 947.758 112.993L948.114 112.267C954.163 115.237 958.316 121.824 960.947 127.59C962.268 130.483 963.216 133.193 963.833 135.178C964.142 136.171 964.369 136.984 964.519 137.55C964.593 137.833 964.649 138.054 964.686 138.204C964.704 138.28 964.718 138.338 964.727 138.377L964.738 138.422L964.741 138.433L964.742 138.437Z" fill="#959DA8"/>
<path d="M891.59 162.327V209.546H883.457L883.466 162.327H891.59Z" fill="#F4F5F6"/>
<path fill-rule="evenodd" clip-rule="evenodd" d="M883.059 161.923H891.993V209.95H883.051L883.059 161.923ZM883.868 162.732L883.859 209.142H891.184V162.732H883.868Z" fill="#959DA8"/>
<path d="M883.083 162.327V209.546H874.949L874.958 162.327H883.083Z" fill="#F4F5F6"/>
<path fill-rule="evenodd" clip-rule="evenodd" d="M874.552 161.923H883.485V209.95H874.543L874.552 161.923ZM875.36 162.732L875.351 209.142H882.676V162.732H875.36Z" fill="#959DA8"/>
<path d="M900.101 162.327H891.789V209.546H900.101V162.327Z" fill="#F4F5F6"/>
<path fill-rule="evenodd" clip-rule="evenodd" d="M891.383 161.923H900.503V209.95H891.383V161.923ZM892.191 162.732V209.142H899.695V162.732H892.191Z" fill="#959DA8"/>
<path d="M908.605 162.327H900.293V209.546H908.605V162.327Z" fill="#F4F5F6"/>
<path fill-rule="evenodd" clip-rule="evenodd" d="M899.891 161.923H909.011V209.95H899.891V161.923ZM900.699 162.732V209.142H908.203V162.732H900.699Z" fill="#959DA8"/>
<path d="M917.117 162.327H908.805V209.546H917.117V162.327Z" fill="#F4F5F6"/>
<path fill-rule="evenodd" clip-rule="evenodd" d="M908.398 161.923H917.519V209.95H908.398V161.923ZM909.207 162.732V209.142H916.711V162.732H909.207Z" fill="#959DA8"/>
<path d="M849.903 162.327V209.546H841.77L841.778 162.327H849.903Z" fill="#F4F5F6"/>
<path fill-rule="evenodd" clip-rule="evenodd" d="M841.372 161.923H850.305V209.95H841.363L841.372 161.923ZM842.18 162.732L842.172 209.142H849.497V162.732H842.18Z" fill="#959DA8"/>
<path d="M841.391 162.327V209.546H833.258L833.266 162.327H841.391Z" fill="#F4F5F6"/>
<path fill-rule="evenodd" clip-rule="evenodd" d="M832.864 161.923H841.797V209.95H832.855L832.864 161.923ZM833.672 162.732L833.664 209.142H840.989V162.732H833.672Z" fill="#959DA8"/>
<path d="M832.887 162.327V209.546H824.754L824.762 162.327H832.887Z" fill="#F4F5F6"/>
<path fill-rule="evenodd" clip-rule="evenodd" d="M824.356 161.923H833.29V209.95H824.348L824.356 161.923ZM825.165 162.732L825.156 209.142H832.481V162.732H825.165Z" fill="#959DA8"/>
<path d="M824.38 162.327V209.546H816.246L816.255 162.327H824.38Z" fill="#F4F5F6"/>
<path fill-rule="evenodd" clip-rule="evenodd" d="M815.849 161.923H824.782V209.95H815.84L815.849 161.923ZM816.657 162.732L816.648 209.142H823.973V162.732H816.657Z" fill="#959DA8"/>
<path d="M858.41 162.327H850.098V209.546H858.41V162.327Z" fill="#F4F5F6"/>
<path fill-rule="evenodd" clip-rule="evenodd" d="M849.691 161.923H858.812V209.95H849.691V161.923ZM850.5 162.732V209.142H858.003V162.732H850.5Z" fill="#959DA8"/>
<path d="M866.918 162.327H858.605V209.546H866.918V162.327Z" fill="#F4F5F6"/>
<path fill-rule="evenodd" clip-rule="evenodd" d="M858.203 161.923H867.324V209.95H858.203V161.923ZM859.012 162.732V209.142H866.515V162.732H859.012Z" fill="#959DA8"/>
<path d="M875.425 162.327H867.113V209.546H875.425V162.327Z" fill="#F4F5F6"/>
<path fill-rule="evenodd" clip-rule="evenodd" d="M866.711 161.923H875.831V209.95H866.711V161.923ZM867.519 162.732V209.142H875.023V162.732H867.519Z" fill="#959DA8"/>
<path d="M925.621 162.327H917.309V209.546H925.621V162.327Z" fill="#F4F5F6"/>
<path fill-rule="evenodd" clip-rule="evenodd" d="M916.906 161.923H926.027V209.95H916.906V161.923ZM917.715 162.732V209.142H925.218V162.732H917.715Z" fill="#959DA8"/>
<path d="M934.129 162.327H925.816V209.546H934.129V162.327Z" fill="#F4F5F6"/>
<path fill-rule="evenodd" clip-rule="evenodd" d="M925.414 161.923H934.535V209.95H925.414V161.923ZM926.222 162.732V209.142H933.726V162.732H926.222Z" fill="#959DA8"/>
<path d="M942.636 162.327H934.324V209.546H942.636V162.327Z" fill="#F4F5F6"/>
<path fill-rule="evenodd" clip-rule="evenodd" d="M933.922 161.923H943.042V209.95H933.922V161.923ZM934.73 162.732V209.142H942.234V162.732H934.73Z" fill="#959DA8"/>
<path d="M951.144 162.327H942.832V209.546H951.144V162.327Z" fill="#F4F5F6"/>
<path fill-rule="evenodd" clip-rule="evenodd" d="M942.43 161.923H951.55V209.95H942.43V161.923ZM943.238 162.732V209.142H950.742V162.732H943.238Z" fill="#959DA8"/>
<path d="M959.652 162.327H951.34V209.546H959.652V162.327Z" fill="#F4F5F6"/>
<path fill-rule="evenodd" clip-rule="evenodd" d="M950.938 161.923H960.058V209.95H950.938V161.923ZM951.746 162.732V209.142H959.25V162.732H951.746Z" fill="#959DA8"/>
<path d="M968.16 162.327H959.848V209.546H968.16V162.327Z" fill="#F4F5F6"/>
<path fill-rule="evenodd" clip-rule="evenodd" d="M959.445 161.923H968.566V209.95H959.445V161.923ZM960.254 162.732V209.142H967.757V162.732H960.254Z" fill="#959DA8"/>
<path fill-rule="evenodd" clip-rule="evenodd" d="M815.574 161.942H968.63V210.352H815.574V161.942ZM817.191 163.559V208.735H967.014V163.559H817.191Z" fill="#959DA8"/>
<path d="M336.812 375.447H300.355V459.36H336.812V375.447Z" fill="#D3DCE5"/>
<path d="M331.645 381.404H305.5V422.905H331.645V381.404Z" fill="white"/>
<path fill-rule="evenodd" clip-rule="evenodd" d="M305.078 380.979H332.071V423.329H305.078V380.979ZM305.927 381.828V422.481H331.223V381.828H305.927Z" fill="#959DA8"/>
<path d="M307.19 429.47C308.13 429.47 308.891 428.709 308.891 427.769C308.891 426.829 308.13 426.067 307.19 426.067C306.25 426.067 305.488 426.829 305.488 427.769C305.488 428.709 306.25 429.47 307.19 429.47Z" fill="white"/>
<path fill-rule="evenodd" clip-rule="evenodd" d="M307.188 426.471C306.471 426.471 305.89 427.052 305.89 427.769C305.89 428.485 306.471 429.066 307.188 429.066C307.904 429.066 308.485 428.485 308.485 427.769C308.485 427.052 307.904 426.471 307.188 426.471ZM305.082 427.769C305.082 426.606 306.025 425.663 307.188 425.663C308.351 425.663 309.294 426.606 309.294 427.769C309.294 428.932 308.351 429.875 307.188 429.875C306.025 429.875 305.082 428.932 305.082 427.769Z" fill="#959DA8"/>
<path d="M264.613 375.447H301.069V459.36H264.613V375.447Z" fill="#D3DCE5"/>
<path d="M269.777 422.902H295.922V381.4H269.777V422.902Z" fill="white"/>
<path fill-rule="evenodd" clip-rule="evenodd" d="M296.344 423.326H269.35V380.976H296.344V423.326ZM295.495 422.477V381.825H270.199V422.477H295.495Z" fill="#959DA8"/>
<path d="M294.237 429.47C295.176 429.47 295.938 428.709 295.938 427.769C295.938 426.829 295.176 426.067 294.237 426.067C293.297 426.067 292.535 426.829 292.535 427.769C292.535 428.709 293.297 429.47 294.237 429.47Z" fill="white"/>
<path fill-rule="evenodd" clip-rule="evenodd" d="M294.239 426.471C293.522 426.471 292.941 427.052 292.941 427.769C292.941 428.485 293.522 429.066 294.239 429.066C294.955 429.066 295.536 428.485 295.536 427.769C295.536 427.052 294.955 426.471 294.239 426.471ZM292.133 427.769C292.133 426.606 293.076 425.663 294.239 425.663C295.402 425.663 296.344 426.606 296.344 427.769C296.344 428.932 295.402 429.875 294.239 429.875C293.076 429.875 292.133 428.932 292.133 427.769Z" fill="#959DA8"/>
<path d="M351.852 465.094H251.715V473.406H351.852V465.094Z" fill="#D3DCE5"/>
<path fill-rule="evenodd" clip-rule="evenodd" d="M251.125 464.504H352.442V473.997H251.125V464.504ZM252.305 465.684V472.816H351.262V465.684H252.305Z" fill="#959DA8"/>
<path d="M351.852 456.798H251.715V465.11H351.852V456.798Z" fill="#D3DCE5"/>
<path fill-rule="evenodd" clip-rule="evenodd" d="M251.125 456.208H352.442V465.7H251.125V456.208ZM252.305 457.388V464.52H351.262V457.388H252.305Z" fill="#959DA8"/>
<line y1="473.999" x2="1300" y2="473.999" stroke="#D9DDE2" stroke-width="2" stroke-miterlimit="10"/>
</g>
</svg>
