<svg width="1300" height="499" viewBox="0 0 1300 499" fill="none" xmlns="http://www.w3.org/2000/svg">
<mask id="mask0" mask-type="alpha" maskUnits="userSpaceOnUse" x="0" y="0" width="1300" height="499">
<rect width="1300" height="499" rx="16" fill="#2A3A51"/>
</mask>
<g mask="url(#mask0)">
<path d="M830.037 52.0005H395.25V66.4061H830.037V52.0005Z" fill="#D3DCE5"/>
<path d="M354.763 331.272C354.542 331.271 354.323 331.247 354.108 331.199C344.076 328.914 344.076 316.794 344.076 316.794C344 309.882 346.041 303.111 349.924 297.392C350.467 296.613 351.19 295.976 352.032 295.537C352.874 295.097 353.809 294.867 354.759 294.867C355.709 294.867 356.645 295.097 357.487 295.537C358.329 295.976 359.052 296.613 359.595 297.392C363.48 303.111 365.523 309.881 365.449 316.794C365.449 316.794 365.449 328.96 355.417 331.199C355.202 331.247 354.983 331.271 354.763 331.272Z" fill="#80C33F"/>
<path fill-rule="evenodd" clip-rule="evenodd" d="M354.761 307.922C354.942 307.922 355.088 308.069 355.088 308.25V349.568C355.088 349.748 354.942 349.895 354.761 349.895C354.58 349.895 354.434 349.748 354.434 349.568V308.25C354.434 308.069 354.58 307.922 354.761 307.922Z" fill="#2A3A51"/>
<path d="M858.958 142.036C858.738 142.036 858.518 142.011 858.303 141.964C848.272 139.678 848.272 127.558 848.272 127.558C848.196 120.646 850.236 113.876 854.119 108.156C854.662 107.377 855.385 106.74 856.227 106.301C857.069 105.861 858.005 105.631 858.955 105.631C859.904 105.631 860.84 105.861 861.682 106.301C862.524 106.74 863.247 107.377 863.79 108.156C867.676 113.875 869.718 120.645 869.644 127.558C869.644 127.558 869.644 139.724 859.613 141.964C859.398 142.011 859.178 142.036 858.958 142.036Z" fill="#80C33F"/>
<path fill-rule="evenodd" clip-rule="evenodd" d="M858.956 118.684C859.137 118.684 859.284 118.831 859.284 119.012V160.33C859.284 160.511 859.137 160.657 858.956 160.657C858.775 160.657 858.629 160.511 858.629 160.33V119.012C858.629 118.831 858.775 118.684 858.956 118.684Z" fill="#2A3A51"/>
<path d="M830.035 333.107C830.029 331.649 830.374 330.212 831.041 328.916C831.708 327.62 832.678 326.504 833.867 325.662C835.057 324.82 836.431 324.277 837.875 324.078C839.319 323.88 840.79 324.032 842.162 324.522C842.693 322.386 843.767 320.424 845.281 318.826C846.795 317.229 848.696 316.05 850.8 315.405C852.905 314.76 855.14 314.671 857.289 315.147C859.438 315.622 861.427 316.646 863.063 318.118C864.219 314.887 866.478 312.167 869.442 310.437C872.406 308.707 875.885 308.079 879.267 308.663C882.649 309.247 885.716 311.005 887.929 313.628C890.142 316.251 891.358 319.571 891.364 323.003C891.366 323.51 891.339 324.018 891.285 324.522C892.267 324.162 891.816 334.73 891.586 335.529H830.363C830.143 334.734 830.033 333.912 830.035 333.087V333.107Z" fill="#80C33F"/>
<path d="M435.849 147.142C435.855 145.685 435.51 144.247 434.843 142.952C434.176 141.656 433.206 140.54 432.017 139.697C430.827 138.855 429.453 138.312 428.009 138.114C426.565 137.915 425.094 138.068 423.722 138.558C423.191 136.422 422.117 134.459 420.603 132.862C419.089 131.264 417.188 130.086 415.084 129.441C412.979 128.796 410.744 128.707 408.595 129.183C406.446 129.658 404.457 130.682 402.821 132.154C401.665 128.922 399.406 126.202 396.442 124.473C393.478 122.743 389.999 122.115 386.617 122.699C383.235 123.282 380.168 125.041 377.955 127.664C375.742 130.287 374.526 133.607 374.52 137.039C374.518 137.546 374.545 138.053 374.599 138.558C373.617 138.198 374.068 148.766 374.298 149.565H435.521C435.741 148.769 435.851 147.948 435.849 147.123V147.142Z" fill="#80C33F"/>
<path d="M800.097 70.7623L426.922 71.8695L427.214 170.403L800.39 169.296L800.097 70.7623Z" fill="white"/>
<path fill-rule="evenodd" clip-rule="evenodd" d="M426.547 71.4941L800.475 70.3847L800.77 169.672L426.841 170.781L426.547 71.4941ZM427.302 72.2449L427.592 170.026L800.015 168.921L799.725 71.1399L427.302 72.2449Z" fill="#959DA8"/>
<path d="M681.9 66.0157L801.224 66.0222V76.6496H426.023V66.0026L681.9 66.0157Z" fill="#F4F5F6"/>
<path fill-rule="evenodd" clip-rule="evenodd" d="M425.695 65.675L801.551 65.6947V76.9769H425.695V65.675ZM426.35 66.3299V76.3221H800.896V66.3495L426.35 66.3299Z" fill="#959DA8"/>
<path d="M801.224 76.6533V87.2807H426.023V76.6337L681.9 76.6468L801.224 76.6533Z" fill="#F4F5F6"/>
<path fill-rule="evenodd" clip-rule="evenodd" d="M425.695 76.3062L801.551 76.3258V87.608H425.695V76.3062ZM426.35 76.961V86.9532H800.896V76.9806L426.35 76.961Z" fill="#959DA8"/>
<path d="M733.059 87.2797H801.224V97.9137H426.023V87.2666H427.824L733.059 87.2797Z" fill="#F4F5F6"/>
<path fill-rule="evenodd" clip-rule="evenodd" d="M425.695 86.9392L801.551 86.9523V98.2411H425.695V86.9392ZM426.35 87.594V97.5863H800.896V87.6071L426.35 87.594Z" fill="#959DA8"/>
<path d="M427.824 97.6191L801.224 97.6388V108.266H426.023V97.6191H427.824Z" fill="#F4F5F6"/>
<path fill-rule="evenodd" clip-rule="evenodd" d="M425.695 97.2917L801.551 97.3114V108.594H425.695V97.2917ZM426.35 97.9465V107.939H800.896V97.9662L426.35 97.9465Z" fill="#959DA8"/>
<path d="M801.224 108.265V118.899H426.023V108.252L733.059 108.265H801.224Z" fill="#F4F5F6"/>
<path fill-rule="evenodd" clip-rule="evenodd" d="M425.695 107.925L801.551 107.938V119.227H425.695V107.925ZM426.35 108.58V118.572H800.896V108.593L426.35 108.58Z" fill="#959DA8"/>
<path d="M801.224 118.902V129.53H426.023V118.889L733.059 118.902H801.224Z" fill="#F4F5F6"/>
<path fill-rule="evenodd" clip-rule="evenodd" d="M425.695 118.562L801.551 118.575V129.857H425.695V118.562ZM426.35 119.216V129.202H800.896V119.23L426.35 119.216Z" fill="#959DA8"/>
<path d="M801.224 129.538V140.165H426.023V129.518L681.9 129.531L801.224 129.538Z" fill="#F4F5F6"/>
<path fill-rule="evenodd" clip-rule="evenodd" d="M425.695 129.191L801.551 129.21V140.493H425.695V129.191ZM426.35 129.846V139.838H800.896V129.865L426.35 129.846Z" fill="#959DA8"/>
<path d="M801.224 140.171V150.798H426.023V140.151L681.9 140.164L801.224 140.171Z" fill="#F4F5F6"/>
<path fill-rule="evenodd" clip-rule="evenodd" d="M425.695 139.824L801.551 139.844V151.126H425.695V139.824ZM426.35 140.479V150.471H800.896V140.498L426.35 140.479Z" fill="#959DA8"/>
<path d="M733.059 150.797H801.224V161.431H426.023V150.784H427.824L733.059 150.797Z" fill="#F4F5F6"/>
<path fill-rule="evenodd" clip-rule="evenodd" d="M425.695 150.457L801.551 150.47V161.759H425.695V150.457ZM426.35 151.112V161.104H800.896V151.125L426.35 151.112Z" fill="#959DA8"/>
<path d="M427.824 161.137L801.224 161.156V171.784H426.023V161.137H427.824Z" fill="#F4F5F6"/>
<path fill-rule="evenodd" clip-rule="evenodd" d="M425.695 160.809L801.551 160.829V172.111H425.695V160.809ZM426.35 161.464V171.456H800.896V161.484L426.35 161.464Z" fill="#959DA8"/>
<path d="M800.79 269.805L426.246 270.916L426.547 372.41L801.091 371.298L800.79 269.805Z" fill="white"/>
<path fill-rule="evenodd" clip-rule="evenodd" d="M425.859 270.534L801.17 269.421L801.473 371.68L426.163 372.794L425.859 270.534ZM426.628 271.298L426.927 372.025L800.705 370.916L800.406 270.189L426.628 271.298Z" fill="#959DA8"/>
<path d="M426.16 95.8752H525.035V170.45H426.16V95.8752Z" fill="white"/>
<path fill-rule="evenodd" clip-rule="evenodd" d="M425.832 95.5479H525.362V170.778H425.832V95.5479ZM426.487 96.2027V170.123H524.707V96.2027H426.487Z" fill="#959DA8"/>
<path fill-rule="evenodd" clip-rule="evenodd" d="M475.246 169.865V96.3701H475.901V169.865H475.246Z" fill="#959DA8"/>
<path d="M426.16 281.838H525.69V362.378H426.16V281.838Z" fill="white"/>
<path fill-rule="evenodd" clip-rule="evenodd" d="M425.832 281.51H526.016V362.705H425.832V281.51ZM426.487 282.165V362.051H525.362V282.165H426.487Z" fill="#959DA8"/>
<path fill-rule="evenodd" clip-rule="evenodd" d="M475.902 361.733V282.371H476.557V361.733H475.902Z" fill="#959DA8"/>
<path d="M702.488 281.838H801.363V362.378H702.488V281.838Z" fill="white"/>
<path fill-rule="evenodd" clip-rule="evenodd" d="M702.16 281.51H801.69V362.705H702.16V281.51ZM702.815 282.165V362.051H801.035V282.165H702.815Z" fill="#959DA8"/>
<path fill-rule="evenodd" clip-rule="evenodd" d="M751.559 361.733V282.371H752.24V361.733H751.559Z" fill="#959DA8"/>
<path d="M426.16 382.017H525.035V473.689H426.16V382.017Z" fill="white"/>
<path fill-rule="evenodd" clip-rule="evenodd" d="M425.832 381.689H525.362V474.016H425.832V381.689ZM426.487 382.344V473.361H524.707V382.344H426.487Z" fill="#959DA8"/>
<path fill-rule="evenodd" clip-rule="evenodd" d="M475.246 472.958V382.628H475.901V472.958H475.246Z" fill="#959DA8"/>
<path d="M410.445 183.615H509.32V258.19H410.445V183.615Z" fill="white"/>
<path fill-rule="evenodd" clip-rule="evenodd" d="M410.117 183.287H509.647V258.517H410.117V183.287ZM410.772 183.942V257.863H508.992V183.942H410.772Z" fill="#959DA8"/>
<path fill-rule="evenodd" clip-rule="evenodd" d="M487.031 257.608V184.114H487.686V257.608H487.031Z" fill="#959DA8"/>
<path fill-rule="evenodd" clip-rule="evenodd" d="M459.531 257.608V184.114H460.186V257.608H459.531Z" fill="#959DA8"/>
<path fill-rule="evenodd" clip-rule="evenodd" d="M432.027 257.608V184.114H432.682V257.608H432.027Z" fill="#959DA8"/>
<path d="M702.488 95.8752H801.363V170.45H702.488V95.8752Z" fill="white"/>
<path fill-rule="evenodd" clip-rule="evenodd" d="M702.16 95.5479H801.69V170.778H702.16V95.5479ZM702.815 96.2027V170.123H801.035V96.2027H702.815Z" fill="#959DA8"/>
<path fill-rule="evenodd" clip-rule="evenodd" d="M751.57 169.865V96.3701H752.225V169.865H751.57Z" fill="#959DA8"/>
<path d="M367.75 170.519V271.358H541.927V473.691H685.983V271.358H859.505V170.519H367.75Z" fill="#F4F5F6"/>
<path fill-rule="evenodd" clip-rule="evenodd" d="M367.094 169.864H860.158V272.013H686.636V474.346H541.271V272.013H367.094V169.864ZM368.403 171.174V270.703H542.58V473.037H685.327V270.703H858.849V171.174H368.403Z" fill="#959DA8"/>
<path d="M394.074 185.579H492.949V260.154H394.074V185.579Z" fill="white"/>
<path fill-rule="evenodd" clip-rule="evenodd" d="M393.746 185.252H493.276V260.482H393.746V185.252ZM394.401 185.906V259.827H492.621V185.906H394.401Z" fill="#959DA8"/>
<path fill-rule="evenodd" clip-rule="evenodd" d="M469.352 259.573V186.078H470.006V259.573H469.352Z" fill="#959DA8"/>
<path fill-rule="evenodd" clip-rule="evenodd" d="M443.16 259.573V186.078H443.815V259.573H443.16Z" fill="#959DA8"/>
<path fill-rule="evenodd" clip-rule="evenodd" d="M416.969 259.573V186.078H417.624V259.573H416.969Z" fill="#959DA8"/>
<path d="M564.324 185.579H663.199V260.154H564.324V185.579Z" fill="white"/>
<path fill-rule="evenodd" clip-rule="evenodd" d="M563.996 185.252H663.526V260.482H563.996V185.252ZM564.651 185.906V259.827H662.871V185.906H564.651Z" fill="#959DA8"/>
<path fill-rule="evenodd" clip-rule="evenodd" d="M639.598 260.227V185.423H640.252V260.227H639.598Z" fill="#959DA8"/>
<path fill-rule="evenodd" clip-rule="evenodd" d="M613.41 260.227V185.423H614.065V260.227H613.41Z" fill="#959DA8"/>
<path fill-rule="evenodd" clip-rule="evenodd" d="M587.215 260.227V185.423H587.87V260.227H587.215Z" fill="#959DA8"/>
<path d="M517.395 185.579H539.848V260.154H517.395V185.579Z" fill="white"/>
<path fill-rule="evenodd" clip-rule="evenodd" d="M517.07 185.252H540.178V260.482H517.07V185.252ZM517.725 185.906V259.827H539.523V185.906H517.725Z" fill="#959DA8"/>
<path d="M687.641 185.579H710.094V260.154H687.641V185.579Z" fill="white"/>
<path fill-rule="evenodd" clip-rule="evenodd" d="M687.312 185.252H710.42V260.482H687.312V185.252ZM687.967 185.906V259.827H709.766V185.906H687.967Z" fill="#959DA8"/>
<path d="M603.172 281.838H625.625V355.83H603.172V281.838Z" fill="white"/>
<path fill-rule="evenodd" clip-rule="evenodd" d="M602.844 281.51H625.952V356.157H602.844V281.51ZM603.499 282.165V355.503H625.297V282.165H603.499Z" fill="#959DA8"/>
<path d="M603.172 383.983H625.625V457.975H603.172V383.983Z" fill="white"/>
<path fill-rule="evenodd" clip-rule="evenodd" d="M602.844 383.655H625.952V458.302H602.844V383.655ZM603.499 384.31V457.648H625.297V384.31H603.499Z" fill="#959DA8"/>
<path d="M706.633 383.983H729.086V457.975H706.633V383.983Z" fill="white"/>
<path fill-rule="evenodd" clip-rule="evenodd" d="M706.305 383.655H729.413V458.302H706.305V383.655ZM706.959 384.31V457.648H728.758V384.31H706.959Z" fill="#959DA8"/>
<path d="M821.223 383.983H843.676V457.975H821.223V383.983Z" fill="white"/>
<path fill-rule="evenodd" clip-rule="evenodd" d="M820.895 383.655H844.002V458.302H820.895V383.655ZM821.549 384.31V457.648H843.348V384.31H821.549Z" fill="#959DA8"/>
<path d="M734.574 185.579H833.449V260.154H734.574V185.579Z" fill="white"/>
<path fill-rule="evenodd" clip-rule="evenodd" d="M734.246 185.252H833.776V260.482H734.246V185.252ZM734.901 185.906V259.827H833.121V185.906H734.901Z" fill="#959DA8"/>
<path fill-rule="evenodd" clip-rule="evenodd" d="M809.848 260.227V185.423H810.502V260.227H809.848Z" fill="#959DA8"/>
<path fill-rule="evenodd" clip-rule="evenodd" d="M783.656 260.227V185.423H784.311V260.227H783.656Z" fill="#959DA8"/>
<path fill-rule="evenodd" clip-rule="evenodd" d="M757.461 260.227V185.423H758.116V260.227H757.461Z" fill="#959DA8"/>
<path d="M813.928 134.177V170.519H807.668L807.674 134.177H813.928Z" fill="#F4F5F6"/>
<path fill-rule="evenodd" clip-rule="evenodd" d="M807.346 133.85H814.255V170.846H807.34L807.346 133.85ZM808.001 134.505L807.995 170.191H813.6V134.505H808.001Z" fill="#959DA8"/>
<path d="M807.381 134.177V170.519H801.121L801.128 134.177H807.381Z" fill="#F4F5F6"/>
<path fill-rule="evenodd" clip-rule="evenodd" d="M800.8 133.85H807.708V170.846H800.793L800.8 133.85ZM801.454 134.505L801.448 170.191H807.053V134.505H801.454Z" fill="#959DA8"/>
<path d="M820.476 134.177H814.078V170.519H820.476V134.177Z" fill="#F4F5F6"/>
<path fill-rule="evenodd" clip-rule="evenodd" d="M813.75 133.85H820.802V170.846H813.75V133.85ZM814.405 134.505V170.191H820.147V134.505H814.405Z" fill="#959DA8"/>
<path d="M827.022 134.177H820.625V170.519H827.022V134.177Z" fill="#F4F5F6"/>
<path fill-rule="evenodd" clip-rule="evenodd" d="M820.297 133.85H827.349V170.846H820.297V133.85ZM820.952 134.505V170.191H826.694V134.505H820.952Z" fill="#959DA8"/>
<path d="M833.573 134.177H827.176V170.519H833.573V134.177Z" fill="#F4F5F6"/>
<path fill-rule="evenodd" clip-rule="evenodd" d="M826.848 133.85H833.9V170.846H826.848V133.85ZM827.502 134.505V170.191H833.245V134.505H827.502Z" fill="#959DA8"/>
<path d="M840.12 134.177H833.723V170.519H840.12V134.177Z" fill="#F4F5F6"/>
<path fill-rule="evenodd" clip-rule="evenodd" d="M833.395 133.85H840.447V170.846H833.395V133.85ZM834.049 134.505V170.191H839.792V134.505H834.049Z" fill="#959DA8"/>
<path d="M846.667 134.177H840.27V170.519H846.667V134.177Z" fill="#F4F5F6"/>
<path fill-rule="evenodd" clip-rule="evenodd" d="M839.945 133.85H846.998V170.846H839.945V133.85ZM840.6 134.505V170.191H846.343V134.505H840.6Z" fill="#959DA8"/>
<path d="M853.214 134.177H846.816V170.519H853.214V134.177Z" fill="#F4F5F6"/>
<path fill-rule="evenodd" clip-rule="evenodd" d="M846.492 133.85H853.544V170.846H846.492V133.85ZM847.147 134.505V170.191H852.89V134.505H847.147Z" fill="#959DA8"/>
<path d="M859.761 134.177H853.363V170.519H859.761V134.177Z" fill="#F4F5F6"/>
<path fill-rule="evenodd" clip-rule="evenodd" d="M853.039 133.85H860.091V170.846H853.039V133.85ZM853.694 134.505V170.191H859.436V134.505H853.694Z" fill="#959DA8"/>
<path d="M866.311 134.177H859.914V170.519H866.311V134.177Z" fill="#F4F5F6"/>
<path fill-rule="evenodd" clip-rule="evenodd" d="M859.586 133.85H866.638V170.846H859.586V133.85ZM860.241 134.505V170.191H865.983V134.505H860.241Z" fill="#959DA8"/>
<path d="M872.858 134.177H866.461V170.519H872.858V134.177Z" fill="#F4F5F6"/>
<path fill-rule="evenodd" clip-rule="evenodd" d="M866.133 133.85H873.185V170.846H866.133V133.85ZM866.788 134.505V170.191H872.53V134.505H866.788Z" fill="#959DA8"/>
<path fill-rule="evenodd" clip-rule="evenodd" d="M800.75 133.852H873.256V171.175H800.75V133.852ZM802.06 135.161V169.866H871.946V135.161H802.06Z" fill="#959DA8"/>
<path d="M321.254 271.358V281.835H525.552V362.376H321.254V372.852H541.922V271.358H321.254Z" fill="#D3DCE5"/>
<path fill-rule="evenodd" clip-rule="evenodd" d="M328.898 362.375V282.333H330.208V362.375H328.898Z" fill="#959DA8"/>
<path d="M906.648 271.358V281.835H702.35V362.376H906.648V372.852H685.98V271.358H906.648Z" fill="#D3DCE5"/>
<path fill-rule="evenodd" clip-rule="evenodd" d="M897.695 362.375V282.333H899.005V362.375H897.695Z" fill="#959DA8"/>
<path d="M483.252 326.036V362.377H476.992L476.999 326.036H483.252Z" fill="#F4F5F6"/>
<path fill-rule="evenodd" clip-rule="evenodd" d="M476.675 325.708H483.583V362.705H476.668L476.675 325.708ZM477.329 326.363L477.323 362.05H482.928V326.363H477.329Z" fill="#959DA8"/>
<path d="M476.705 326.036V362.377H470.445L470.452 326.036H476.705Z" fill="#F4F5F6"/>
<path fill-rule="evenodd" clip-rule="evenodd" d="M470.128 325.708H477.036V362.705H470.121L470.128 325.708ZM470.782 326.363L470.776 362.05H476.381V326.363H470.782Z" fill="#959DA8"/>
<path d="M489.8 326.036H483.402V362.377H489.8V326.036Z" fill="#F4F5F6"/>
<path fill-rule="evenodd" clip-rule="evenodd" d="M483.074 325.708H490.126V362.705H483.074V325.708ZM483.729 326.363V362.05H489.472V326.363H483.729Z" fill="#959DA8"/>
<path d="M496.351 326.036H489.953V362.377H496.351V326.036Z" fill="#F4F5F6"/>
<path fill-rule="evenodd" clip-rule="evenodd" d="M489.625 325.708H496.677V362.705H489.625V325.708ZM490.28 326.363V362.05H496.022V326.363H490.28Z" fill="#959DA8"/>
<path d="M502.897 326.036H496.5V362.377H502.897V326.036Z" fill="#F4F5F6"/>
<path fill-rule="evenodd" clip-rule="evenodd" d="M496.172 325.708H503.224V362.705H496.172V325.708ZM496.827 326.363V362.05H502.569V326.363H496.827Z" fill="#959DA8"/>
<path d="M509.444 326.036H503.047V362.377H509.444V326.036Z" fill="#F4F5F6"/>
<path fill-rule="evenodd" clip-rule="evenodd" d="M502.719 325.708H509.771V362.705H502.719V325.708ZM503.374 326.363V362.05H509.116V326.363H503.374Z" fill="#959DA8"/>
<path d="M515.991 326.036H509.594V362.377H515.991V326.036Z" fill="#F4F5F6"/>
<path fill-rule="evenodd" clip-rule="evenodd" d="M509.266 325.708H516.318V362.705H509.266V325.708ZM509.92 326.363V362.05H515.663V326.363H509.92Z" fill="#959DA8"/>
<path d="M522.542 326.036H516.145V362.377H522.542V326.036Z" fill="#F4F5F6"/>
<path fill-rule="evenodd" clip-rule="evenodd" d="M515.816 325.708H522.869V362.705H515.816V325.708ZM516.471 326.363V362.05H522.214V326.363H516.471Z" fill="#959DA8"/>
<path d="M529.089 326.036H522.691V362.377H529.089V326.036Z" fill="#F4F5F6"/>
<path fill-rule="evenodd" clip-rule="evenodd" d="M522.363 325.708H529.415V362.705H522.363V325.708ZM523.018 326.363V362.05H528.761V326.363H523.018Z" fill="#959DA8"/>
<path d="M535.636 326.036H529.238V362.377H535.636V326.036Z" fill="#F4F5F6"/>
<path fill-rule="evenodd" clip-rule="evenodd" d="M528.91 325.708H535.962V362.705H528.91V325.708ZM529.565 326.363V362.05H535.308V326.363H529.565Z" fill="#959DA8"/>
<path d="M542.183 326.036H535.785V362.377H542.183V326.036Z" fill="#F4F5F6"/>
<path fill-rule="evenodd" clip-rule="evenodd" d="M535.457 325.708H542.509V362.705H535.457V325.708ZM536.112 326.363V362.05H541.854V326.363H536.112Z" fill="#959DA8"/>
<path d="M411.225 326.036V362.377H404.965L404.971 326.036H411.225Z" fill="#F4F5F6"/>
<path fill-rule="evenodd" clip-rule="evenodd" d="M404.643 325.708H411.551V362.705H404.637L404.643 325.708ZM405.298 326.363L405.292 362.05H410.897V326.363H405.298Z" fill="#959DA8"/>
<path d="M404.678 326.036V362.377H398.418L398.425 326.036H404.678Z" fill="#F4F5F6"/>
<path fill-rule="evenodd" clip-rule="evenodd" d="M398.097 325.708H405.005V362.705H398.09L398.097 325.708ZM398.751 326.363L398.745 362.05H404.35V326.363H398.751Z" fill="#959DA8"/>
<path d="M417.772 326.036H411.375V362.377H417.772V326.036Z" fill="#F4F5F6"/>
<path fill-rule="evenodd" clip-rule="evenodd" d="M411.047 325.708H418.099V362.705H411.047V325.708ZM411.702 326.363V362.05H417.444V326.363H411.702Z" fill="#959DA8"/>
<path d="M424.319 326.036H417.922V362.377H424.319V326.036Z" fill="#F4F5F6"/>
<path fill-rule="evenodd" clip-rule="evenodd" d="M417.594 325.708H424.646V362.705H417.594V325.708ZM418.249 326.363V362.05H423.991V326.363H418.249Z" fill="#959DA8"/>
<path d="M430.866 326.036H424.469V362.377H430.866V326.036Z" fill="#F4F5F6"/>
<path fill-rule="evenodd" clip-rule="evenodd" d="M424.141 325.708H431.193V362.705H424.141V325.708ZM424.795 326.363V362.05H430.538V326.363H424.795Z" fill="#959DA8"/>
<path d="M437.413 326.036H431.016V362.377H437.413V326.036Z" fill="#F4F5F6"/>
<path fill-rule="evenodd" clip-rule="evenodd" d="M430.688 325.708H437.74V362.705H430.688V325.708ZM431.342 326.363V362.05H437.085V326.363H431.342Z" fill="#959DA8"/>
<path d="M443.964 326.036H437.566V362.377H443.964V326.036Z" fill="#F4F5F6"/>
<path fill-rule="evenodd" clip-rule="evenodd" d="M437.238 325.708H444.29V362.705H437.238V325.708ZM437.893 326.363V362.05H443.636V326.363H437.893Z" fill="#959DA8"/>
<path d="M450.511 326.036H444.113V362.377H450.511V326.036Z" fill="#F4F5F6"/>
<path fill-rule="evenodd" clip-rule="evenodd" d="M443.785 325.708H450.837V362.705H443.785V325.708ZM444.44 326.363V362.05H450.183V326.363H444.44Z" fill="#959DA8"/>
<path d="M457.061 326.036H450.664V362.377H457.061V326.036Z" fill="#F4F5F6"/>
<path fill-rule="evenodd" clip-rule="evenodd" d="M450.336 325.708H457.388V362.705H450.336V325.708ZM450.991 326.363V362.05H456.733V326.363H450.991Z" fill="#959DA8"/>
<path d="M463.608 326.036H457.211V362.377H463.608V326.036Z" fill="#F4F5F6"/>
<path fill-rule="evenodd" clip-rule="evenodd" d="M456.887 325.708H463.939V362.705H456.887V325.708ZM457.542 326.363V362.05H463.284V326.363H457.542Z" fill="#959DA8"/>
<path d="M470.155 326.036H463.758V362.377H470.155V326.036Z" fill="#F4F5F6"/>
<path fill-rule="evenodd" clip-rule="evenodd" d="M463.434 325.708H470.486V362.705H463.434V325.708ZM464.088 326.363V362.05H469.831V326.363H464.088Z" fill="#959DA8"/>
<path d="M339.197 326.036V362.377H332.938L332.944 326.036H339.197Z" fill="#F4F5F6"/>
<path fill-rule="evenodd" clip-rule="evenodd" d="M332.616 325.708H339.524V362.705H332.609L332.616 325.708ZM333.271 326.363L333.264 362.05H338.869V326.363H333.271Z" fill="#959DA8"/>
<path d="M332.651 326.036V362.377H326.391L326.397 326.036H332.651Z" fill="#F4F5F6"/>
<path fill-rule="evenodd" clip-rule="evenodd" d="M326.069 325.708H332.977V362.705H326.062L326.069 325.708ZM326.724 326.363L326.717 362.05H332.322V326.363H326.724Z" fill="#959DA8"/>
<path d="M326.756 326.036V362.377H320.496L320.503 326.036H326.756Z" fill="#F4F5F6"/>
<path fill-rule="evenodd" clip-rule="evenodd" d="M320.175 325.708H327.083V362.705H320.168L320.175 325.708ZM320.829 326.363L320.823 362.05H326.428V326.363H320.829Z" fill="#959DA8"/>
<path d="M345.745 326.036H339.348V362.377H345.745V326.036Z" fill="#F4F5F6"/>
<path fill-rule="evenodd" clip-rule="evenodd" d="M339.02 325.708H346.072V362.705H339.02V325.708ZM339.674 326.363V362.05H345.417V326.363H339.674Z" fill="#959DA8"/>
<path d="M352.296 326.036H345.898V362.377H352.296V326.036Z" fill="#F4F5F6"/>
<path fill-rule="evenodd" clip-rule="evenodd" d="M345.57 325.708H352.623V362.705H345.57V325.708ZM346.225 326.363V362.05H351.968V326.363H346.225Z" fill="#959DA8"/>
<path d="M358.843 326.036H352.445V362.377H358.843V326.036Z" fill="#F4F5F6"/>
<path fill-rule="evenodd" clip-rule="evenodd" d="M352.117 325.708H359.169V362.705H352.117V325.708ZM352.772 326.363V362.05H358.515V326.363H352.772Z" fill="#959DA8"/>
<path d="M365.39 326.036H358.992V362.377H365.39V326.036Z" fill="#F4F5F6"/>
<path fill-rule="evenodd" clip-rule="evenodd" d="M358.664 325.708H365.716V362.705H358.664V325.708ZM359.319 326.363V362.05H365.061V326.363H359.319Z" fill="#959DA8"/>
<path d="M371.936 326.036H365.539V362.377H371.936V326.036Z" fill="#F4F5F6"/>
<path fill-rule="evenodd" clip-rule="evenodd" d="M365.215 325.708H372.267V362.705H365.215V325.708ZM365.87 326.363V362.05H371.612V326.363H365.87Z" fill="#959DA8"/>
<path d="M378.483 326.036H372.086V362.377H378.483V326.036Z" fill="#F4F5F6"/>
<path fill-rule="evenodd" clip-rule="evenodd" d="M371.758 325.708H378.81V362.705H371.758V325.708ZM372.413 326.363V362.05H378.155V326.363H372.413Z" fill="#959DA8"/>
<path d="M385.03 326.036H378.633V362.377H385.03V326.036Z" fill="#F4F5F6"/>
<path fill-rule="evenodd" clip-rule="evenodd" d="M378.309 325.708H385.361V362.705H378.309V325.708ZM378.963 326.363V362.05H384.706V326.363H378.963Z" fill="#959DA8"/>
<path d="M391.581 326.036H385.184V362.377H391.581V326.036Z" fill="#F4F5F6"/>
<path fill-rule="evenodd" clip-rule="evenodd" d="M384.855 325.708H391.908V362.705H384.855V325.708ZM385.51 326.363V362.05H391.253V326.363H385.51Z" fill="#959DA8"/>
<path d="M398.128 326.036H391.73V362.377H398.128V326.036Z" fill="#F4F5F6"/>
<path fill-rule="evenodd" clip-rule="evenodd" d="M391.402 325.708H398.455V362.705H391.402V325.708ZM392.057 326.363V362.05H397.8V326.363H392.057Z" fill="#959DA8"/>
<path fill-rule="evenodd" clip-rule="evenodd" d="M320.612 325.704H542.578V363.028H319.934L320.612 325.704ZM321.898 327.014L321.267 361.718H541.268V327.014H321.898Z" fill="#959DA8"/>
<path d="M848.631 326.036V362.377H842.371L842.378 326.036H848.631Z" fill="#F4F5F6"/>
<path fill-rule="evenodd" clip-rule="evenodd" d="M842.05 325.708H848.958V362.705H842.043L842.05 325.708ZM842.704 326.363L842.698 362.05H848.303V326.363H842.704Z" fill="#959DA8"/>
<path d="M842.084 326.036V362.377H835.824L835.831 326.036H842.084Z" fill="#F4F5F6"/>
<path fill-rule="evenodd" clip-rule="evenodd" d="M835.503 325.708H842.411V362.705H835.496L835.503 325.708ZM836.157 326.363L836.151 362.05H841.756V326.363H836.157Z" fill="#959DA8"/>
<path d="M855.179 326.036H848.781V362.377H855.179V326.036Z" fill="#F4F5F6"/>
<path fill-rule="evenodd" clip-rule="evenodd" d="M848.453 325.708H855.505V362.705H848.453V325.708ZM849.108 326.363V362.05H854.851V326.363H849.108Z" fill="#959DA8"/>
<path d="M861.726 326.036H855.328V362.377H861.726V326.036Z" fill="#F4F5F6"/>
<path fill-rule="evenodd" clip-rule="evenodd" d="M855 325.708H862.052V362.705H855V325.708ZM855.655 326.363V362.05H861.397V326.363H855.655Z" fill="#959DA8"/>
<path d="M868.276 326.036H861.879V362.377H868.276V326.036Z" fill="#F4F5F6"/>
<path fill-rule="evenodd" clip-rule="evenodd" d="M861.551 325.708H868.603V362.705H861.551V325.708ZM862.206 326.363V362.05H867.948V326.363H862.206Z" fill="#959DA8"/>
<path d="M874.823 326.036H868.426V362.377H874.823V326.036Z" fill="#F4F5F6"/>
<path fill-rule="evenodd" clip-rule="evenodd" d="M868.098 325.708H875.15V362.705H868.098V325.708ZM868.752 326.363V362.05H874.495V326.363H868.752Z" fill="#959DA8"/>
<path d="M881.37 326.036H874.973V362.377H881.37V326.036Z" fill="#F4F5F6"/>
<path fill-rule="evenodd" clip-rule="evenodd" d="M874.648 325.708H881.701V362.705H874.648V325.708ZM875.303 326.363V362.05H881.046V326.363H875.303Z" fill="#959DA8"/>
<path d="M887.921 326.036H881.523V362.377H887.921V326.036Z" fill="#F4F5F6"/>
<path fill-rule="evenodd" clip-rule="evenodd" d="M881.195 325.708H888.248V362.705H881.195V325.708ZM881.85 326.363V362.05H887.593V326.363H881.85Z" fill="#959DA8"/>
<path d="M894.468 326.036H888.07V362.377H894.468V326.036Z" fill="#F4F5F6"/>
<path fill-rule="evenodd" clip-rule="evenodd" d="M887.742 325.708H894.794V362.705H887.742V325.708ZM888.397 326.363V362.05H894.14V326.363H888.397Z" fill="#959DA8"/>
<path d="M901.015 326.036H894.617V362.377H901.015V326.036Z" fill="#F4F5F6"/>
<path fill-rule="evenodd" clip-rule="evenodd" d="M894.293 325.708H901.345V362.705H894.293V325.708ZM894.948 326.363V362.05H900.69V326.363H894.948Z" fill="#959DA8"/>
<path d="M907.561 326.036H901.164V362.377H907.561V326.036Z" fill="#F4F5F6"/>
<path fill-rule="evenodd" clip-rule="evenodd" d="M900.84 325.708H907.892V362.705H900.84V325.708ZM901.495 326.363V362.05H907.237V326.363H901.495Z" fill="#959DA8"/>
<path d="M776.604 326.036V362.377H770.344L770.35 326.036H776.604Z" fill="#F4F5F6"/>
<path fill-rule="evenodd" clip-rule="evenodd" d="M770.022 325.708H776.93V362.705H770.016L770.022 325.708ZM770.677 326.363L770.671 362.05H776.276V326.363H770.677Z" fill="#959DA8"/>
<path d="M770.057 326.036V362.377H763.797L763.803 326.036H770.057Z" fill="#F4F5F6"/>
<path fill-rule="evenodd" clip-rule="evenodd" d="M763.475 325.708H770.383V362.705H763.469L763.475 325.708ZM764.13 326.363L764.124 362.05H769.729V326.363H764.13Z" fill="#959DA8"/>
<path d="M783.151 326.036H776.754V362.377H783.151V326.036Z" fill="#F4F5F6"/>
<path fill-rule="evenodd" clip-rule="evenodd" d="M776.426 325.708H783.478V362.705H776.426V325.708ZM777.081 326.363V362.05H782.823V326.363H777.081Z" fill="#959DA8"/>
<path d="M789.698 326.036H783.301V362.377H789.698V326.036Z" fill="#F4F5F6"/>
<path fill-rule="evenodd" clip-rule="evenodd" d="M782.973 325.708H790.025V362.705H782.973V325.708ZM783.627 326.363V362.05H789.37V326.363H783.627Z" fill="#959DA8"/>
<path d="M796.245 326.036H789.848V362.377H796.245V326.036Z" fill="#F4F5F6"/>
<path fill-rule="evenodd" clip-rule="evenodd" d="M789.523 325.708H796.576V362.705H789.523V325.708ZM790.178 326.363V362.05H795.921V326.363H790.178Z" fill="#959DA8"/>
<path d="M802.792 326.036H796.395V362.377H802.792V326.036Z" fill="#F4F5F6"/>
<path fill-rule="evenodd" clip-rule="evenodd" d="M796.07 325.708H803.123V362.705H796.07V325.708ZM796.725 326.363V362.05H802.468V326.363H796.725Z" fill="#959DA8"/>
<path d="M809.339 326.036H802.941V362.377H809.339V326.036Z" fill="#F4F5F6"/>
<path fill-rule="evenodd" clip-rule="evenodd" d="M802.617 325.708H809.669V362.705H802.617V325.708ZM803.272 326.363V362.05H809.015V326.363H803.272Z" fill="#959DA8"/>
<path d="M815.89 326.036H809.492V362.377H815.89V326.036Z" fill="#F4F5F6"/>
<path fill-rule="evenodd" clip-rule="evenodd" d="M809.168 325.708H816.22V362.705H809.168V325.708ZM809.823 326.363V362.05H815.565V326.363H809.823Z" fill="#959DA8"/>
<path d="M822.44 326.036H816.043V362.377H822.44V326.036Z" fill="#F4F5F6"/>
<path fill-rule="evenodd" clip-rule="evenodd" d="M815.715 325.708H822.767V362.705H815.715V325.708ZM816.37 326.363V362.05H822.112V326.363H816.37Z" fill="#959DA8"/>
<path d="M828.991 326.036H822.594V362.377H828.991V326.036Z" fill="#F4F5F6"/>
<path fill-rule="evenodd" clip-rule="evenodd" d="M822.266 325.708H829.318V362.705H822.266V325.708ZM822.92 326.363V362.05H828.663V326.363H822.92Z" fill="#959DA8"/>
<path d="M835.538 326.036H829.141V362.377H835.538V326.036Z" fill="#F4F5F6"/>
<path fill-rule="evenodd" clip-rule="evenodd" d="M828.812 325.708H835.865V362.705H828.812V325.708ZM829.467 326.363V362.05H835.21V326.363H829.467Z" fill="#959DA8"/>
<path d="M704.576 326.036V362.377H698.316L698.323 326.036H704.576Z" fill="#F4F5F6"/>
<path fill-rule="evenodd" clip-rule="evenodd" d="M697.999 325.708H704.907V362.705H697.992L697.999 325.708ZM698.654 326.363L698.647 362.05H704.252V326.363H698.654Z" fill="#959DA8"/>
<path d="M698.029 326.036V362.377H691.77L691.776 326.036H698.029Z" fill="#F4F5F6"/>
<path fill-rule="evenodd" clip-rule="evenodd" d="M691.448 325.708H698.356V362.705H691.441L691.448 325.708ZM692.103 326.363L692.096 362.05H697.701V326.363H692.103Z" fill="#959DA8"/>
<path d="M692.135 326.036V362.377H685.875L685.882 326.036H692.135Z" fill="#F4F5F6"/>
<path fill-rule="evenodd" clip-rule="evenodd" d="M685.554 325.708H692.462V362.705H685.547L685.554 325.708ZM686.208 326.363L686.202 362.05H691.807V326.363H686.208Z" fill="#959DA8"/>
<path d="M711.124 326.036H704.727V362.377H711.124V326.036Z" fill="#F4F5F6"/>
<path fill-rule="evenodd" clip-rule="evenodd" d="M704.398 325.708H711.451V362.705H704.398V325.708ZM705.053 326.363V362.05H710.796V326.363H705.053Z" fill="#959DA8"/>
<path d="M717.671 326.036H711.273V362.377H717.671V326.036Z" fill="#F4F5F6"/>
<path fill-rule="evenodd" clip-rule="evenodd" d="M710.945 325.708H717.998V362.705H710.945V325.708ZM711.6 326.363V362.05H717.343V326.363H711.6Z" fill="#959DA8"/>
<path d="M724.222 326.036H717.824V362.377H724.222V326.036Z" fill="#F4F5F6"/>
<path fill-rule="evenodd" clip-rule="evenodd" d="M717.496 325.708H724.548V362.705H717.496V325.708ZM718.151 326.363V362.05H723.894V326.363H718.151Z" fill="#959DA8"/>
<path d="M730.769 326.036H724.371V362.377H730.769V326.036Z" fill="#F4F5F6"/>
<path fill-rule="evenodd" clip-rule="evenodd" d="M724.043 325.708H731.095V362.705H724.043V325.708ZM724.698 326.363V362.05H730.44V326.363H724.698Z" fill="#959DA8"/>
<path d="M737.315 326.036H730.918V362.377H737.315V326.036Z" fill="#F4F5F6"/>
<path fill-rule="evenodd" clip-rule="evenodd" d="M730.59 325.708H737.642V362.705H730.59V325.708ZM731.245 326.363V362.05H736.987V326.363H731.245Z" fill="#959DA8"/>
<path d="M743.862 326.036H737.465V362.377H743.862V326.036Z" fill="#F4F5F6"/>
<path fill-rule="evenodd" clip-rule="evenodd" d="M737.137 325.708H744.189V362.705H737.137V325.708ZM737.792 326.363V362.05H743.534V326.363H737.792Z" fill="#959DA8"/>
<path d="M750.413 326.036H744.016V362.377H750.413V326.036Z" fill="#F4F5F6"/>
<path fill-rule="evenodd" clip-rule="evenodd" d="M743.688 325.708H750.74V362.705H743.688V325.708ZM744.342 326.363V362.05H750.085V326.363H744.342Z" fill="#959DA8"/>
<path d="M756.96 326.036H750.562V362.377H756.96V326.036Z" fill="#F4F5F6"/>
<path fill-rule="evenodd" clip-rule="evenodd" d="M750.234 325.708H757.287V362.705H750.234V325.708ZM750.889 326.363V362.05H756.632V326.363H750.889Z" fill="#959DA8"/>
<path d="M763.507 326.036H757.109V362.377H763.507V326.036Z" fill="#F4F5F6"/>
<path fill-rule="evenodd" clip-rule="evenodd" d="M756.781 325.708H763.833V362.705H756.781V325.708ZM757.436 326.363V362.05H763.179V326.363H757.436Z" fill="#959DA8"/>
<path fill-rule="evenodd" clip-rule="evenodd" d="M685.991 325.704H907.957V363.028H685.312L685.991 325.704ZM687.277 327.014L686.646 361.718H906.647V327.014H687.277Z" fill="#959DA8"/>
<path fill-rule="evenodd" clip-rule="evenodd" d="M367.747 473.692V372.853H366.438V475.001H860.812V372.853H859.502V473.692H367.747Z" fill="#959DA8"/>
<path d="M583.301 433.664C583.789 431.486 583.787 429.226 583.295 427.049C582.802 424.872 581.832 422.832 580.454 421.076C579.077 419.319 577.326 417.891 575.329 416.895C573.331 415.898 571.137 415.358 568.906 415.314C566.674 415.269 564.46 415.721 562.425 416.637C560.389 417.553 558.583 418.91 557.136 420.61C555.69 422.31 554.639 424.31 554.06 426.466C553.481 428.621 553.389 430.879 553.789 433.075C552.145 433.873 550.693 435.017 549.532 436.429C548.371 437.84 547.528 439.486 547.062 441.253C546.595 443.02 546.515 444.867 546.828 446.668C547.141 448.469 547.839 450.181 548.874 451.687C549.909 453.193 551.257 454.458 552.827 455.395C554.396 456.332 556.149 456.92 557.966 457.117C559.783 457.315 561.621 457.117 563.355 456.539C565.088 455.961 566.677 455.015 568.012 453.766C569.308 454.984 570.845 455.916 572.525 456.501C574.204 457.086 575.987 457.313 577.76 457.165C579.532 457.017 581.253 456.499 582.812 455.643C584.372 454.787 585.734 453.614 586.81 452.198C587.887 450.783 588.654 449.157 589.062 447.426C589.47 445.695 589.51 443.898 589.179 442.15C588.849 440.403 588.154 438.745 587.142 437.283C586.129 435.821 584.821 434.588 583.301 433.664Z" fill="#80C33F"/>
<path fill-rule="evenodd" clip-rule="evenodd" d="M561.387 442.001C561.487 441.851 561.691 441.81 561.841 441.91L568.775 446.533C568.926 446.634 568.966 446.837 568.866 446.987C568.766 447.138 568.563 447.179 568.412 447.078L561.478 442.455C561.327 442.355 561.287 442.152 561.387 442.001Z" fill="#2A3A51"/>
<path fill-rule="evenodd" clip-rule="evenodd" d="M576.925 445.442C577.042 445.579 577.026 445.786 576.889 445.904L568.802 452.831C568.665 452.949 568.458 452.933 568.34 452.796C568.223 452.659 568.239 452.452 568.376 452.334L576.463 445.406C576.6 445.289 576.807 445.305 576.925 445.442Z" fill="#2A3A51"/>
<path fill-rule="evenodd" clip-rule="evenodd" d="M568.593 432.616C568.774 432.616 568.92 432.762 568.92 432.943V474.523C568.92 474.704 568.774 474.85 568.593 474.85C568.412 474.85 568.266 474.704 568.266 474.523V432.943C568.266 432.762 568.412 432.616 568.593 432.616Z" fill="#2A3A51"/>
<path d="M803.398 399.043H775.34V463.626H803.398V399.043Z" fill="#D3DCE5"/>
<path d="M799.423 403.63H779.301V435.571H799.423V403.63Z" fill="white"/>
<path fill-rule="evenodd" clip-rule="evenodd" d="M778.957 403.286H799.767V435.914H778.957V403.286ZM779.645 403.973V435.227H799.079V403.973H779.645Z" fill="#959DA8"/>
<path d="M780.599 440.624C781.322 440.624 781.908 440.038 781.908 439.315C781.908 438.591 781.322 438.005 780.599 438.005C779.875 438.005 779.289 438.591 779.289 439.315C779.289 440.038 779.875 440.624 780.599 440.624Z" fill="white"/>
<path fill-rule="evenodd" clip-rule="evenodd" d="M780.598 438.333C780.055 438.333 779.616 438.772 779.616 439.315C779.616 439.857 780.055 440.297 780.598 440.297C781.14 440.297 781.58 439.857 781.58 439.315C781.58 438.772 781.14 438.333 780.598 438.333ZM778.961 439.315C778.961 438.411 779.694 437.678 780.598 437.678C781.502 437.678 782.235 438.411 782.235 439.315C782.235 440.219 781.502 440.952 780.598 440.952C779.694 440.952 778.961 440.219 778.961 439.315Z" fill="#959DA8"/>
<path d="M747.832 399.043H775.89V463.626H747.839L747.832 399.043Z" fill="#D3DCE5"/>
<path d="M751.808 435.568H771.93V403.626H751.808V435.568Z" fill="white"/>
<path fill-rule="evenodd" clip-rule="evenodd" d="M772.273 435.911H751.464V403.283H772.273V435.911ZM771.586 435.224V403.97H752.151V435.224H771.586Z" fill="#959DA8"/>
<path d="M770.634 440.624C771.357 440.624 771.943 440.038 771.943 439.315C771.943 438.591 771.357 438.005 770.634 438.005C769.911 438.005 769.324 438.591 769.324 439.315C769.324 440.038 769.911 440.624 770.634 440.624Z" fill="white"/>
<path fill-rule="evenodd" clip-rule="evenodd" d="M770.633 438.333C770.091 438.333 769.651 438.772 769.651 439.315C769.651 439.857 770.091 440.297 770.633 440.297C771.176 440.297 771.615 439.857 771.615 439.315C771.615 438.772 771.176 438.333 770.633 438.333ZM768.996 439.315C768.996 438.411 769.729 437.678 770.633 437.678C771.537 437.678 772.27 438.411 772.27 439.315C772.27 440.219 771.537 440.952 770.633 440.952C769.729 440.952 768.996 440.219 768.996 439.315Z" fill="#959DA8"/>
<path d="M814.972 468.04H737.902V474.437H814.972V468.04Z" fill="#D3DCE5"/>
<path fill-rule="evenodd" clip-rule="evenodd" d="M737.426 467.562H815.452V474.915H737.426V467.562ZM738.382 468.518V473.959H814.496V468.518H738.382Z" fill="#959DA8"/>
<path d="M814.972 461.656H737.902V468.054H814.972V461.656Z" fill="#D3DCE5"/>
<path fill-rule="evenodd" clip-rule="evenodd" d="M737.426 461.178H815.452V468.532H737.426V461.178ZM738.382 462.134V467.576H814.496V462.134H738.382Z" fill="#959DA8"/>
<path fill-rule="evenodd" clip-rule="evenodd" d="M425.695 65.4237H802.205V96.1993H703.331V171.115H524.334V96.1993H425.695V65.4237ZM427.005 66.7333V94.8897H525.644V169.805H702.021V94.8897H800.896V66.7333H427.005Z" fill="#959DA8"/>
<path d="M225 471.923C224.994 470.465 225.339 469.028 226.006 467.732C226.673 466.436 227.642 465.32 228.832 464.478C230.021 463.636 231.396 463.093 232.84 462.894C234.284 462.696 235.754 462.848 237.127 463.338C237.657 461.202 238.732 459.24 240.246 457.642C241.759 456.045 243.661 454.866 245.765 454.221C247.87 453.577 250.105 453.488 252.254 453.963C254.403 454.438 256.392 455.462 258.028 456.934C259.184 453.703 261.443 450.983 264.407 449.253C267.371 447.523 270.85 446.895 274.232 447.479C277.614 448.063 280.681 449.821 282.894 452.444C285.107 455.067 286.323 458.387 286.329 461.819C286.331 462.326 286.304 462.834 286.25 463.338C287.236 462.978 288.278 462.794 289.328 462.795C294.37 462.795 298.757 466.887 298.436 471.903C298.39 472.73 298.251 473.549 298.023 474.345H225.327C225.108 473.55 224.998 472.728 225 471.903V471.923Z" fill="#80C33F"/>
<path fill-rule="evenodd" clip-rule="evenodd" d="M363.187 474.851L348.742 424.857L350 424.494L364.445 474.488L363.187 474.851Z" fill="#959DA8"/>
<path fill-rule="evenodd" clip-rule="evenodd" d="M333.746 474.488L348.191 424.494L349.449 424.857L335.004 474.851L333.746 474.488Z" fill="#959DA8"/>
<path d="M296.07 442.175L298.081 448.409L301.623 459.39H348.841L345.292 448.409L343.281 442.175H296.07Z" fill="#F4F5F6"/>
<path fill-rule="evenodd" clip-rule="evenodd" d="M295.621 441.848H343.52L345.604 448.308L349.291 459.717H301.385L297.769 448.509L295.621 441.848ZM296.52 442.502L298.392 448.308L301.862 459.062H348.391L344.98 448.509L343.043 442.502H296.52Z" fill="#959DA8"/>
<path d="M301.63 463.837H359.953V459.391H301.63V463.837Z" fill="#F4F5F6"/>
<path fill-rule="evenodd" clip-rule="evenodd" d="M360.281 464.164H301.303V459.063H360.281V464.164ZM359.626 463.509V459.718H301.958V463.509H359.626Z" fill="#959DA8"/>
<path d="M296.07 442.175L298.081 448.409H345.292L343.281 442.175H296.07Z" fill="#F4F5F6"/>
<path fill-rule="evenodd" clip-rule="evenodd" d="M295.621 441.848H343.52L345.742 448.736H297.842L295.621 441.848ZM296.52 442.502L298.319 448.081H344.842L343.043 442.502H296.52Z" fill="#959DA8"/>
<path fill-rule="evenodd" clip-rule="evenodd" d="M315.363 474.851L300.918 424.857L302.176 424.494L316.621 474.488L315.363 474.851Z" fill="#959DA8"/>
<path fill-rule="evenodd" clip-rule="evenodd" d="M285.922 474.488L300.367 424.494L301.625 424.857L287.18 474.851L285.922 474.488Z" fill="#959DA8"/>
<path d="M355.781 425.786H291.788C291.788 424.984 291.946 424.189 292.253 423.448C292.56 422.707 293.01 422.034 293.577 421.466C294.144 420.899 294.818 420.449 295.559 420.142C296.3 419.835 297.095 419.677 297.897 419.677H349.672C350.474 419.677 351.269 419.835 352.01 420.142C352.751 420.449 353.425 420.899 353.992 421.466C354.559 422.034 355.009 422.707 355.316 423.448C355.623 424.189 355.781 424.984 355.781 425.786Z" fill="#D3DCE5"/>
<path fill-rule="evenodd" clip-rule="evenodd" d="M400.326 474.557L372.949 453.4L373.35 452.882L400.727 474.039L400.326 474.557Z" fill="#959DA8"/>
<path fill-rule="evenodd" clip-rule="evenodd" d="M372.949 474.039L400.326 452.882L400.727 453.4L373.35 474.557L372.949 474.039Z" fill="#959DA8"/>
<path d="M405.069 449.182H369.055V453.798H405.069V449.182Z" fill="#D3DCE5"/>
<path fill-rule="evenodd" clip-rule="evenodd" d="M366.125 90.0393C366.485 90.0119 366.8 90.282 366.827 90.6426L372.662 167.497C372.689 167.857 372.419 168.172 372.058 168.199C371.698 168.226 371.383 167.956 371.356 167.596L365.521 90.7418C365.494 90.3812 365.764 90.0666 366.125 90.0393Z" fill="#959DA8"/>
<path d="M333.01 110.276C338.274 111.533 343.616 112.439 349 112.987L350.774 110.931L351.593 113.249C357.36 113.726 363.151 113.838 368.932 113.582C370.525 113.513 372.106 113.417 373.673 113.294L375.212 113.163C376.91 113.015 378.59 112.836 380.254 112.626L381.118 112.515L382.198 112.365L382.67 112.299L383.39 109.516L385.741 111.821L385.407 111.88L385.741 111.828L386.081 111.769L386.422 111.71C387.491 111.522 388.554 111.323 389.611 111.114L391.627 110.695L393.729 110.223L394.744 109.981L395.17 109.876L396.231 109.608L396.748 109.477L397.743 109.215L399.642 108.691H399.714L400.69 108.403C401.312 108.22 401.927 108.03 402.543 107.84C402.774 107.763 402.982 107.627 403.145 107.446C403.308 107.264 403.422 107.043 403.474 106.805C403.526 106.567 403.515 106.319 403.443 106.086C403.37 105.853 403.238 105.643 403.06 105.476C401.564 104.106 399.985 102.829 398.333 101.652L397.914 101.351C397.093 100.775 396.255 100.225 395.399 99.7007C395.059 99.4912 394.744 99.2817 394.365 99.0852C392.623 98.0728 390.821 97.1675 388.969 96.3743L388.412 96.1386C386.523 95.3647 384.588 94.7086 382.617 94.1742L381.498 93.8141C380.902 93.6635 380.293 93.526 379.69 93.395C379.284 93.3099 378.878 93.2313 378.473 93.1527L377.857 93.0414L377.425 92.9694C376.744 92.8559 376.058 92.7577 375.369 92.6747L374.151 92.5438C373.647 92.4979 373.149 92.4586 372.645 92.4259L371.911 92.3801H371.61L370.477 92.3408C369.364 92.3146 368.245 92.3255 367.118 92.3735C360.567 92.6445 354.133 94.2044 348.185 96.9638C342.237 99.7233 336.891 103.628 332.453 108.455C332.328 108.599 332.241 108.772 332.201 108.958C332.161 109.145 332.169 109.338 332.225 109.521C332.28 109.703 332.382 109.868 332.519 110C332.657 110.132 332.825 110.227 333.01 110.276Z" fill="#D3DCE5"/>
<path fill-rule="evenodd" clip-rule="evenodd" d="M383.695 109.292C383.695 109.292 383.695 109.292 383.396 109.426C383.097 109.56 383.097 109.56 383.097 109.56L383.096 109.558L383.093 109.551L383.08 109.521C383.067 109.494 383.049 109.454 383.024 109.402C382.975 109.297 382.902 109.142 382.804 108.944C382.61 108.547 382.32 107.976 381.942 107.282C381.186 105.894 380.076 104.017 378.662 102.061C375.823 98.1325 371.804 93.9478 367.008 92.6785L367.175 92.0455C372.202 93.3758 376.335 97.7231 379.192 101.677C380.627 103.662 381.751 105.563 382.517 106.969C382.9 107.672 383.194 108.251 383.392 108.655C383.491 108.858 383.567 109.016 383.617 109.124C383.643 109.178 383.662 109.22 383.675 109.248L383.69 109.281L383.693 109.289L383.695 109.292Z" fill="#959DA8"/>
<path fill-rule="evenodd" clip-rule="evenodd" d="M350.935 110.92L350.723 110.846C350.414 110.738 350.414 110.738 350.414 110.737L350.415 110.734L350.418 110.726L350.43 110.692C350.441 110.663 350.456 110.62 350.477 110.564C350.518 110.451 350.58 110.287 350.662 110.077C350.825 109.657 351.069 109.054 351.391 108.321C352.034 106.854 352.993 104.861 354.252 102.759C356.761 98.5717 360.502 93.881 365.377 92.1184L365.6 92.7342C360.948 94.4159 357.306 98.9349 354.814 103.096C353.573 105.168 352.626 107.135 351.99 108.584C351.672 109.308 351.432 109.902 351.272 110.314C351.192 110.52 351.131 110.681 351.091 110.79C351.071 110.844 351.056 110.886 351.046 110.913L351.035 110.944L351.033 110.952L351.032 110.954C351.032 110.954 351.032 110.954 350.935 110.92Z" fill="#959DA8"/>
<path d="M367.354 134.177V170.519H361.094L361.1 134.177H367.354Z" fill="#F4F5F6"/>
<path fill-rule="evenodd" clip-rule="evenodd" d="M360.772 133.85H367.68V170.846H360.766L360.772 133.85ZM361.427 134.505L361.421 170.191H367.026V134.505H361.427Z" fill="#959DA8"/>
<path d="M360.807 134.177V170.519H354.547L354.553 134.177H360.807Z" fill="#F4F5F6"/>
<path fill-rule="evenodd" clip-rule="evenodd" d="M354.225 133.85H361.133V170.846H354.219L354.225 133.85ZM354.88 134.505L354.874 170.191H360.479V134.505H354.88Z" fill="#959DA8"/>
<path d="M373.901 134.177H367.504V170.519H373.901V134.177Z" fill="#F4F5F6"/>
<path fill-rule="evenodd" clip-rule="evenodd" d="M367.176 133.85H374.228V170.846H367.176V133.85ZM367.831 134.505V170.191H373.573V134.505H367.831Z" fill="#959DA8"/>
<path d="M380.448 134.177H374.051V170.519H380.448V134.177Z" fill="#F4F5F6"/>
<path fill-rule="evenodd" clip-rule="evenodd" d="M373.723 133.85H380.775V170.846H373.723V133.85ZM374.377 134.505V170.191H380.12V134.505H374.377Z" fill="#959DA8"/>
<path d="M386.999 134.177H380.602V170.519H386.999V134.177Z" fill="#F4F5F6"/>
<path fill-rule="evenodd" clip-rule="evenodd" d="M380.273 133.85H387.326V170.846H380.273V133.85ZM380.928 134.505V170.191H386.671V134.505H380.928Z" fill="#959DA8"/>
<path d="M393.546 134.177H387.148V170.519H393.546V134.177Z" fill="#F4F5F6"/>
<path fill-rule="evenodd" clip-rule="evenodd" d="M386.82 133.85H393.873V170.846H386.82V133.85ZM387.475 134.505V170.191H393.218V134.505H387.475Z" fill="#959DA8"/>
<path d="M400.093 134.177H393.695V170.519H400.093V134.177Z" fill="#F4F5F6"/>
<path fill-rule="evenodd" clip-rule="evenodd" d="M393.367 133.85H400.419V170.846H393.367V133.85ZM394.022 134.505V170.191H399.765V134.505H394.022Z" fill="#959DA8"/>
<path d="M406.643 134.177H400.246V170.519H406.643V134.177Z" fill="#F4F5F6"/>
<path fill-rule="evenodd" clip-rule="evenodd" d="M399.918 133.85H406.97V170.846H399.918V133.85ZM400.573 134.505V170.191H406.315V134.505H400.573Z" fill="#959DA8"/>
<path d="M413.19 134.177H406.793V170.519H413.19V134.177Z" fill="#F4F5F6"/>
<path fill-rule="evenodd" clip-rule="evenodd" d="M406.465 133.85H413.517V170.846H406.465V133.85ZM407.12 134.505V170.191H412.862V134.505H407.12Z" fill="#959DA8"/>
<path d="M419.737 134.177H413.34V170.519H419.737V134.177Z" fill="#F4F5F6"/>
<path fill-rule="evenodd" clip-rule="evenodd" d="M413.016 133.85H420.068V170.846H413.016V133.85ZM413.67 134.505V170.191H419.413V134.505H413.67Z" fill="#959DA8"/>
<path d="M426.284 134.177H419.887V170.519H426.284V134.177Z" fill="#F4F5F6"/>
<path fill-rule="evenodd" clip-rule="evenodd" d="M419.559 133.85H426.611V170.846H419.559V133.85ZM420.213 134.505V170.191H425.956V134.505H420.213Z" fill="#959DA8"/>
<path fill-rule="evenodd" clip-rule="evenodd" d="M354.172 133.852H426.678V171.175H354.172V133.852ZM355.481 135.161V169.866H425.368V135.161H355.481Z" fill="#959DA8"/>
<line y1="474" x2="1300" y2="474" stroke="#D9DDE2" stroke-width="2" stroke-miterlimit="10"/>
</g>
</svg>
