<svg width="42" height="40" viewBox="0 0 42 40" fill="none" xmlns="http://www.w3.org/2000/svg">
<path fill-rule="evenodd" clip-rule="evenodd" d="M4.8045 32.6897H3.16694V33.3379H4.67094V33.8853H3.16694V34.6818H4.87717V35.2296H2.53535V32.1437H4.8045V32.6897V32.6897ZM6.87527 34.3904L7.18484 34.682C7.07716 34.7372 6.95773 34.7654 6.83675 34.7644C6.48843 34.7644 5.99825 34.5498 5.99825 33.6862C5.99825 32.8225 6.48843 32.608 6.83675 32.608C7.18484 32.608 7.67456 32.8225 7.67456 33.6862C7.67456 33.9755 7.61874 34.1891 7.53293 34.3489L7.20629 34.044L6.87527 34.3904ZM8.33245 35.1032L7.99636 34.787C8.18551 34.5459 8.3193 34.1937 8.3193 33.6864C8.3193 32.2385 7.24482 32.0627 6.83652 32.0627C6.42846 32.0627 5.35443 32.2385 5.35443 33.6864C5.35443 35.1353 6.42846 35.3106 6.83652 35.3106C7.01645 35.3106 7.33478 35.2769 7.62704 35.1035L7.99289 35.4527L8.33245 35.1032V35.1032ZM11.3534 34.1508C11.3534 34.9618 10.8627 35.3104 10.0849 35.3104C9.80162 35.3104 9.38041 35.2419 9.10544 34.9369C8.93797 34.7491 8.87338 34.4977 8.86508 34.1891V32.1437H9.5225V34.1455C9.5225 34.5766 9.77163 34.7646 10.072 34.7646C10.5151 34.7646 10.695 34.5501 10.695 34.1761V32.1437H11.3536V34.1508H11.3534V34.1508ZM13.08 32.8401H13.0894L13.4712 34.0606H12.6837L13.08 32.8401ZM12.5116 34.5918H13.6509L13.8488 35.2299H14.5494L13.4629 32.1437H12.719L11.6189 35.2299H12.2978L12.5116 34.5918V34.5918ZM15.6968 34.6712H17.2307V35.2296H15.0513V32.1437H15.6968V34.6712V34.6712ZM19.675 33.8447V35.2296H19.0314V32.1437H19.675V33.3123H20.8786V32.1437H21.5225V35.2296H20.8786V33.8447H19.675V33.8447ZM22.751 33.6862C22.751 32.8225 23.2417 32.608 23.5886 32.608C23.9374 32.608 24.4276 32.8225 24.4276 33.6862C24.4276 34.5498 23.9374 34.7644 23.5886 34.7644C23.2417 34.7644 22.751 34.5498 22.751 33.6862ZM22.1072 33.6862C22.1072 35.1351 23.1822 35.3104 23.5886 35.3104C23.9985 35.3104 25.0723 35.1351 25.0723 33.6862C25.0723 32.2382 23.9988 32.0625 23.5886 32.0625C23.1824 32.0625 22.1072 32.2382 22.1072 33.6862ZM28.1495 34.1508C28.1495 34.9618 27.6589 35.3104 26.8808 35.3104C26.5971 35.3104 26.177 35.2419 25.9009 34.9369C25.7337 34.7491 25.6688 34.4977 25.6612 34.1891V32.1437H26.3177V34.1455C26.3177 34.5766 26.5678 34.7646 26.8693 34.7646C27.3117 34.7646 27.4919 34.5501 27.4919 34.1761V32.1437H28.1498V34.1508H28.1495ZM29.329 34.279C29.3347 34.4507 29.4212 34.7777 29.9836 34.7777C30.2881 34.7777 30.6284 34.7049 30.6284 34.3773C30.6284 34.1376 30.3963 34.0723 30.0701 33.9953L29.7389 33.9178C29.2388 33.802 28.758 33.6917 28.758 33.0126C28.758 32.6685 28.9442 32.0625 29.9449 32.0625C30.8911 32.0625 31.1441 32.6807 31.1488 33.059H30.5292C30.5126 32.9224 30.4607 32.5949 29.8976 32.5949C29.6533 32.5949 29.361 32.6851 29.361 32.9644C29.361 33.2064 29.5587 33.256 29.6863 33.2862L30.4392 33.471C30.8604 33.5745 31.2466 33.7466 31.2466 34.3005C31.2466 35.2299 30.3017 35.3106 30.0307 35.3106C28.9057 35.3106 28.7124 34.6615 28.7124 34.2793H29.329V34.279V34.279ZM32.4193 35.2296H31.7767V32.1437H32.4193V35.2296V35.2296ZM34.9946 32.1437H35.5955V35.2296H34.9517L33.6933 33.0283H33.6825V35.2296H33.0816V32.1437H33.7605L34.9837 34.2926H34.9946V32.1437ZM37.7528 33.5662H39.0409V35.2296H38.612L38.5477 34.843C38.3846 35.0303 38.1481 35.3101 37.5848 35.3101C36.8418 35.3101 36.1678 34.7775 36.1678 33.695C36.1678 32.8535 36.6363 32.0576 37.6748 32.0622C38.6217 32.0622 38.9959 32.6758 39.0282 33.103H38.3844C38.3844 32.9824 38.1645 32.5949 37.7099 32.5949C37.249 32.5949 36.8241 32.9125 36.8241 33.7028C36.8241 34.5457 37.284 34.7644 37.7221 34.7644C37.8639 34.7644 38.338 34.7095 38.4699 34.0855H37.7528V33.5662V33.5662ZM3.04284 38.374C3.04284 37.5103 3.53256 37.2949 3.88019 37.2949C4.22828 37.2949 4.71777 37.5103 4.71777 38.374C4.71777 39.2372 4.22828 39.4535 3.88019 39.4535C3.53256 39.4535 3.04284 39.2372 3.04284 38.374ZM2.39833 38.374C2.39833 39.8215 3.47235 40 3.88042 40C4.28871 40 5.36274 39.8217 5.36274 38.374C5.36274 36.9263 4.28848 36.7503 3.88042 36.7503C3.47235 36.7503 2.39833 36.9265 2.39833 38.374ZM7.12879 38.2704V37.3629H7.64019C8.03949 37.3629 8.20742 37.4886 8.20742 37.7897C8.20742 37.9272 8.20742 38.2704 7.72577 38.2704H7.12879ZM7.12879 38.8042H7.86741C8.69715 38.8042 8.85124 38.0985 8.85124 37.8197C8.85124 37.2141 8.49115 36.8312 7.89324 36.8312H6.48451V39.9174H7.12879V38.8042ZM10.6004 38.2704V37.3629H11.1109C11.5107 37.3629 11.6784 37.4886 11.6784 37.7897C11.6784 37.9272 11.6784 38.2704 11.1979 38.2704H10.6004V38.2704ZM10.6004 38.8042H11.3395C12.1686 38.8042 12.3238 38.0985 12.3238 37.8197C12.3238 37.2141 11.9633 36.8312 11.3658 36.8312H9.95571V39.9174H10.6004V38.8042V38.8042ZM13.9355 38.374C13.9355 37.5103 14.4241 37.2949 14.7736 37.2949C15.1201 37.2949 15.6109 37.5103 15.6109 38.374C15.6109 39.2372 15.1203 39.4535 14.7736 39.4535C14.4241 39.4535 13.9355 39.2372 13.9355 38.374ZM13.2908 38.374C13.2908 39.8215 14.3646 40 14.7736 40C15.1807 40 16.2548 39.8217 16.2548 38.374C16.2548 36.9263 15.1807 36.7503 14.7736 36.7503C14.3646 36.7503 13.2908 36.9265 13.2908 38.374ZM18.0093 38.1892V37.3629H18.8118C19.1901 37.3629 19.2625 37.6049 19.2625 37.768C19.2625 38.0734 19.0999 38.1892 18.7645 38.1892H18.0093V38.1892ZM17.3758 39.9177H18.0093V38.7098H18.6741C19.1516 38.7098 19.1779 38.8725 19.1779 39.2937C19.1779 39.6109 19.2021 39.7698 19.2452 39.9177H19.9592V39.8344C19.8217 39.7834 19.8217 39.6713 19.8217 39.2217C19.8217 38.6441 19.6842 38.5504 19.4309 38.4383C19.7359 38.3361 19.907 38.0432 19.907 37.7043C19.907 37.4372 19.7576 36.8317 18.9366 36.8317H17.3756V39.9177H17.3758V39.9177ZM22.3086 39.9177H21.6643V37.3775H20.7324V36.8314H23.2417V37.3775H22.3086V39.9177ZM26.7007 38.8376C26.7007 39.6496 26.2109 40 25.4324 40C25.1503 40 24.7291 39.9283 24.4534 39.6238C24.2857 39.4355 24.2214 39.1859 24.2137 38.8768V36.8314H24.8702V38.8332C24.8702 39.263 25.1198 39.4535 25.4204 39.4535C25.8628 39.4535 26.043 39.2372 26.043 38.8637V36.8312H26.7009V38.8376H26.7007ZM29.8196 36.8314H30.4224V39.9177H29.7765L28.5172 37.7163H28.5103V39.9177H27.9075V36.8314H28.5864L29.812 38.9795H29.8196V36.8314V36.8314ZM32.2408 39.9177H31.5942V36.8314H32.2408V39.9177V39.9177ZM34.757 39.9177H34.1127V37.3775H33.1819V36.8314H35.6901V37.3775H34.757V39.9177ZM38.1267 39.9177H37.481V38.7525L36.4165 36.8314H37.1765L37.8167 38.1726L38.4284 36.8314H39.1578L38.1267 38.7601V39.9177V39.9177ZM20.7748 0L0 10.2321V15.0384H2.32521V29.4561H39.0681V15.0384H41.8602V10.2321L20.7748 0ZM34.5727 25.1138H6.8213V11.9374L20.7748 4.80635L34.5729 11.9374V25.1138H34.5727V25.1138Z" fill="white"/>
<path fill-rule="evenodd" clip-rule="evenodd" d="M27.13 16.5875H14.2637V11.9375H27.13V16.5875ZM27.13 23.2567H14.2637V18.6038H27.13V23.2567Z" fill="white"/>
</svg>
