<svg width="400" height="417" viewBox="0 0 400 417" fill="none" xmlns="http://www.w3.org/2000/svg">
<mask id="mask0" mask-type="alpha" maskUnits="userSpaceOnUse" x="0" y="0" width="400" height="417">
<path d="M60.8063 146.924L189.822 64.4995C192.835 62.542 196.346 61.5007 199.934 61.5007C203.521 61.5007 207.033 62.542 210.046 64.4995L339.326 146.924C342.011 148.69 344.224 151.093 345.768 153.922C347.313 156.75 348.142 159.917 348.182 163.144V183.75C135.36 158.49 51.9498 294.359 51.9498 294.359V163.409C51.9491 160.123 52.7723 156.89 54.3435 154.008C55.9147 151.127 58.1829 148.69 60.9385 146.924H60.8063ZM400 203.957V134.694C399.977 131.415 399.128 128.196 397.533 125.337C395.938 122.477 393.649 120.071 390.879 118.342L210.443 3.07965C207.303 1.06837 203.657 0 199.934 0C196.211 0 192.565 1.06837 189.425 3.07965L8.85658 118.342C6.17109 120.107 3.95865 122.51 2.41418 125.339C0.869718 128.167 0.0406401 131.334 0 134.561V397.523C0 402.6 2.00547 407.469 5.57523 411.059C9.14499 414.65 13.9866 416.667 19.035 416.667H49.5704C65.4329 372.263 153.47 165.935 399.868 203.957" fill="#C4C4C4"/>
</mask>
<g mask="url(#mask0)">
<path opacity="0.1" d="M60.8063 146.924L189.822 64.4995C192.835 62.542 196.346 61.5007 199.934 61.5007C203.521 61.5007 207.033 62.542 210.046 64.4995L339.326 146.924C342.011 148.69 344.224 151.093 345.768 153.922C347.313 156.75 348.142 159.917 348.182 163.144V183.75C135.36 158.49 51.9498 294.359 51.9498 294.359V163.409C51.9491 160.123 52.7723 156.89 54.3435 154.008C55.9147 151.127 58.1829 148.69 60.9385 146.924H60.8063ZM400 203.957V134.694C399.977 131.415 399.128 128.196 397.533 125.337C395.938 122.477 393.649 120.071 390.879 118.342L210.443 3.07965C207.303 1.06837 203.657 0 199.934 0C196.211 0 192.565 1.06837 189.425 3.07965L8.85658 118.342C6.17109 120.107 3.95865 122.51 2.41418 125.339C0.869718 128.167 0.0406401 131.334 0 134.561V397.523C0 402.6 2.00547 407.469 5.57523 411.059C9.14499 414.65 13.9866 416.667 19.035 416.667H49.5704C65.4329 372.263 153.47 165.935 399.868 203.957" fill="url(#paint0_linear)"/>
<rect width="400" height="417" fill="#80C33F"/>
</g>
<defs>
<linearGradient id="paint0_linear" x1="0" y1="0" x2="399.202" y2="418.939" gradientUnits="userSpaceOnUse">
<stop stop-color="white"/>
<stop offset="1" stop-color="white" stop-opacity="0.2"/>
</linearGradient>
</defs>
</svg>
