<svg width="360" height="400" viewBox="0 0 360 400" fill="none" xmlns="http://www.w3.org/2000/svg">
<mask id="mask0" mask-type="alpha" maskUnits="userSpaceOnUse" x="0" y="0" width="360" height="400">
<rect width="360" height="400" fill="#C4C4C4"/>
</mask>
<g mask="url(#mask0)">
<mask id="path-2-outside-1" maskUnits="userSpaceOnUse" x="33" y="10.834" width="294" height="1005" fill="black">
<rect fill="white" x="33" y="10.834" width="294" height="1005"/>
<path d="M321.367 347.096C322.275 343.823 322.567 340.411 322.228 337.031C321.876 334.29 311.654 225.498 305.545 198.124C299.436 170.749 295.128 177.642 295.128 177.642C295.128 177.642 236.385 159.823 231.803 155.476C227.221 151.129 220.054 144.315 219.193 145.921C218.942 144.789 218.575 143.687 218.096 142.631C218.096 142.631 218.096 142.631 217.822 143.297C217.586 140.528 217.678 137.741 218.096 134.994C220.606 130.398 222.83 125.65 224.754 120.779C230.276 119.604 230.276 112.946 236.072 105.701C241.868 98.4563 239 92.5002 239 92.5002C244 88.5002 239 81.5 240.5 55C234.072 12.9998 194.5 14.0001 194.5 14.0001C169.475 11.5329 147.252 37.2069 143.493 47.6631C139.733 58.1194 141.182 84.8671 141.182 84.8671C135.66 86.2378 142.044 98.9654 143.414 102.059C144.459 104.05 144.985 106.273 144.942 108.521C145.333 112.437 150.933 115.178 150.933 115.178C151.246 119.664 152.101 124.096 153.479 128.376C153.774 132.914 153.774 137.466 153.479 142.004C152.617 141.613 151.834 143.649 151.208 145.921H150.659C149.22 147.172 147.967 148.622 146.939 150.228C144.703 153.759 141.771 156.797 138.323 159.157C135.778 160.332 122.149 165.384 114.826 168.125C107.503 170.867 73.471 182.028 72.4528 181.793C71.9346 181.631 71.3886 181.579 70.8493 181.64C70.3099 181.701 69.7891 181.873 69.3198 182.145C68.1058 182.89 65.0511 184.26 59.8426 200.826C54.6341 217.391 40.8882 343.924 39.5958 347.096C37.7995 350.502 36.7577 354.256 36.5412 358.1C36.972 361.155 35.1314 363.74 36.5412 366.364C37.951 368.988 36.5412 372.434 38.3426 378.543C40.1441 384.652 50.0913 481.148 57.0229 506.368L61.7615 505.232C62.7014 509.148 64.8945 517.96 66.2652 517.842C68.4977 517.506 70.7078 517.035 72.8836 516.432C73.743 521.057 75.2458 525.539 77.348 529.748C80.208 535.361 83.7175 540.618 87.8043 545.412C86.277 563.544 84.9455 579.405 84.358 585.749C82.5957 604.43 83.1832 721.759 84.358 729.944C85.5329 738.129 96.1066 820.996 97.2032 829.768C98.2997 838.54 113.534 922.582 115.883 925.519C118.233 928.456 118.821 929.435 115.883 932.529C114.008 935.215 112.769 938.294 112.26 941.53C111.751 944.767 111.986 948.077 112.946 951.209C114.983 959.394 111.811 965.308 113.573 964.72C115.514 963.523 117.543 962.476 119.643 961.587C119.147 963.358 118.395 965.047 117.411 966.6C114.591 971.221 103.9 979.954 96.185 985.907C88.47 991.86 77.0347 994.953 73.1577 997.656C69.2806 1000.36 70.6513 1005.49 69.9072 1006.43C69.1632 1007.37 66.9309 1009.09 72.2961 1009.68C77.6613 1010.27 106.759 1012.34 120.7 1012.07C125.178 1012.2 129.638 1011.44 133.82 1009.83C138.001 1008.23 141.822 1005.8 145.059 1002.71C148.466 999.457 153.675 1003.02 159.158 1003.88C164.64 1004.74 185.435 997.656 185.435 997.656C185.435 997.656 184.691 988.727 184.691 986.651C184.691 984.575 183.36 984.575 183.36 984.575C183.962 978.902 183.511 973.166 182.028 967.657C180.102 963.416 177.598 959.463 174.587 955.909L172.473 956.261L173.804 955.321C174.209 955.027 174.543 954.646 174.78 954.205C175.018 953.764 175.152 953.276 175.175 952.776C175.781 944.851 175.781 936.891 175.175 928.965C174 923.13 167.577 911.734 168.478 906.8C169.379 901.865 165.228 800.318 163.152 780.737C161.076 761.156 153.479 745.844 154.654 741.575C155.829 737.306 159.627 715.023 162.486 706.329C165.345 697.635 164.249 687.923 166.402 675.391C168.556 662.859 187.432 592.25 188.568 590.762C189.704 589.274 197.889 628.984 200.317 661.959C202.745 694.933 201.766 770.555 202.353 788.334C202.941 806.114 200.904 879.974 202.353 888.746C202.353 891.683 194.168 917.922 191.27 932.216C188.372 946.51 187.354 949.447 188.059 953.246C188.764 957.044 189.821 964.642 190.996 964.329C191.544 964.329 193.385 962.958 196.322 961.822C195.343 968.206 193.659 982.5 197.889 987.63C197.564 987.713 197.266 987.879 197.026 988.113C196.785 988.347 196.61 988.639 196.518 988.962C196.018 992.949 195.783 996.966 195.813 1000.98C195.813 1001.73 196.557 1002.47 197.145 1004.12C197.732 1005.76 194.912 1009.76 197.889 1011.4C200.865 1013.05 242.886 1013.63 250.17 1012.15C257.454 1010.66 258.355 1009.01 258.472 1008.23C258.59 1007.45 258.042 1003.76 256.24 1003.33C256.308 999.36 254.915 995.5 252.324 992.486C247.859 986.69 240.889 975.177 240.889 968.01C240.889 967.07 240.889 966.326 240.889 965.738C242.377 963.976 244.531 961.156 247.546 956.81C253.381 948.351 253.107 940.753 255.731 934.918C258.355 929.083 260.979 928.495 260.979 920.31C260.979 912.126 263.328 908.914 263.916 903.079C264.503 897.244 269.164 851.111 269.751 832.588C270.338 814.064 270.613 763.114 271.2 748.507C271.787 733.899 283.732 621.739 285.768 600.435C287.805 579.131 290.272 565.933 291.838 547.84C292.018 545.573 292.018 543.294 291.838 541.026C296.405 533.2 299.087 524.418 299.671 515.375L301.942 515.767C304.057 516.08 305.467 516.158 305.858 515.767C306.984 511.154 307.795 506.47 308.286 501.747H308.6C316.706 500.572 318.038 498.575 318.038 498.575C318.038 498.575 320.857 372.904 321.954 365.424C323.051 357.944 324.578 356.299 324.147 353.675C323.716 351.051 320.466 350.425 321.367 347.096ZM93.7569 372.747C94.031 370.711 93.1695 370.006 93.7569 367.969C94.6662 366.033 95.6861 364.15 96.8116 362.33C97.8298 360.019 96.3808 355.79 96.8116 351.913C97.2423 348.036 98.8871 330.139 98.848 330.609C98.5738 334.251 103.038 351.208 102.333 354.967C101.32 359.104 100.69 363.325 100.454 367.578C99.8662 375.41 99.8662 384.535 98.848 389.469C97.8298 394.404 95.3626 412.653 95.3626 412.653C94.9318 407.562 92.1904 380.345 93.5611 377.995C94.9318 375.645 93.4436 374.784 93.7569 372.747ZM151.051 146.312L150.855 147.135C150.821 146.992 150.821 146.843 150.855 146.7C150.889 146.557 150.956 146.424 151.051 146.312Z"/>
</mask>
<path d="M321.367 347.096C322.275 343.823 322.567 340.411 322.228 337.031C321.876 334.29 311.654 225.498 305.545 198.124C299.436 170.749 295.128 177.642 295.128 177.642C295.128 177.642 236.385 159.823 231.803 155.476C227.221 151.129 220.054 144.315 219.193 145.921C218.942 144.789 218.575 143.687 218.096 142.631C218.096 142.631 218.096 142.631 217.822 143.297C217.586 140.528 217.678 137.741 218.096 134.994C220.606 130.398 222.83 125.65 224.754 120.779C230.276 119.604 230.276 112.946 236.072 105.701C241.868 98.4563 239 92.5002 239 92.5002C244 88.5002 239 81.5 240.5 55C234.072 12.9998 194.5 14.0001 194.5 14.0001C169.475 11.5329 147.252 37.2069 143.493 47.6631C139.733 58.1194 141.182 84.8671 141.182 84.8671C135.66 86.2378 142.044 98.9654 143.414 102.059C144.459 104.05 144.985 106.273 144.942 108.521C145.333 112.437 150.933 115.178 150.933 115.178C151.246 119.664 152.101 124.096 153.479 128.376C153.774 132.914 153.774 137.466 153.479 142.004C152.617 141.613 151.834 143.649 151.208 145.921H150.659C149.22 147.172 147.967 148.622 146.939 150.228C144.703 153.759 141.771 156.797 138.323 159.157C135.778 160.332 122.149 165.384 114.826 168.125C107.503 170.867 73.471 182.028 72.4528 181.793C71.9346 181.631 71.3886 181.579 70.8493 181.64C70.3099 181.701 69.7891 181.873 69.3198 182.145C68.1058 182.89 65.0511 184.26 59.8426 200.826C54.6341 217.391 40.8882 343.924 39.5958 347.096C37.7995 350.502 36.7577 354.256 36.5412 358.1C36.972 361.155 35.1314 363.74 36.5412 366.364C37.951 368.988 36.5412 372.434 38.3426 378.543C40.1441 384.652 50.0913 481.148 57.0229 506.368L61.7615 505.232C62.7014 509.148 64.8945 517.96 66.2652 517.842C68.4977 517.506 70.7078 517.035 72.8836 516.432C73.743 521.057 75.2458 525.539 77.348 529.748C80.208 535.361 83.7175 540.618 87.8043 545.412C86.277 563.544 84.9455 579.405 84.358 585.749C82.5957 604.43 83.1832 721.759 84.358 729.944C85.5329 738.129 96.1066 820.996 97.2032 829.768C98.2997 838.54 113.534 922.582 115.883 925.519C118.233 928.456 118.821 929.435 115.883 932.529C114.008 935.215 112.769 938.294 112.26 941.53C111.751 944.767 111.986 948.077 112.946 951.209C114.983 959.394 111.811 965.308 113.573 964.72C115.514 963.523 117.543 962.476 119.643 961.587C119.147 963.358 118.395 965.047 117.411 966.6C114.591 971.221 103.9 979.954 96.185 985.907C88.47 991.86 77.0347 994.953 73.1577 997.656C69.2806 1000.36 70.6513 1005.49 69.9072 1006.43C69.1632 1007.37 66.9309 1009.09 72.2961 1009.68C77.6613 1010.27 106.759 1012.34 120.7 1012.07C125.178 1012.2 129.638 1011.44 133.82 1009.83C138.001 1008.23 141.822 1005.8 145.059 1002.71C148.466 999.457 153.675 1003.02 159.158 1003.88C164.64 1004.74 185.435 997.656 185.435 997.656C185.435 997.656 184.691 988.727 184.691 986.651C184.691 984.575 183.36 984.575 183.36 984.575C183.962 978.902 183.511 973.166 182.028 967.657C180.102 963.416 177.598 959.463 174.587 955.909L172.473 956.261L173.804 955.321C174.209 955.027 174.543 954.646 174.78 954.205C175.018 953.764 175.152 953.276 175.175 952.776C175.781 944.851 175.781 936.891 175.175 928.965C174 923.13 167.577 911.734 168.478 906.8C169.379 901.865 165.228 800.318 163.152 780.737C161.076 761.156 153.479 745.844 154.654 741.575C155.829 737.306 159.627 715.023 162.486 706.329C165.345 697.635 164.249 687.923 166.402 675.391C168.556 662.859 187.432 592.25 188.568 590.762C189.704 589.274 197.889 628.984 200.317 661.959C202.745 694.933 201.766 770.555 202.353 788.334C202.941 806.114 200.904 879.974 202.353 888.746C202.353 891.683 194.168 917.922 191.27 932.216C188.372 946.51 187.354 949.447 188.059 953.246C188.764 957.044 189.821 964.642 190.996 964.329C191.544 964.329 193.385 962.958 196.322 961.822C195.343 968.206 193.659 982.5 197.889 987.63C197.564 987.713 197.266 987.879 197.026 988.113C196.785 988.347 196.61 988.639 196.518 988.962C196.018 992.949 195.783 996.966 195.813 1000.98C195.813 1001.73 196.557 1002.47 197.145 1004.12C197.732 1005.76 194.912 1009.76 197.889 1011.4C200.865 1013.05 242.886 1013.63 250.17 1012.15C257.454 1010.66 258.355 1009.01 258.472 1008.23C258.59 1007.45 258.042 1003.76 256.24 1003.33C256.308 999.36 254.915 995.5 252.324 992.486C247.859 986.69 240.889 975.177 240.889 968.01C240.889 967.07 240.889 966.326 240.889 965.738C242.377 963.976 244.531 961.156 247.546 956.81C253.381 948.351 253.107 940.753 255.731 934.918C258.355 929.083 260.979 928.495 260.979 920.31C260.979 912.126 263.328 908.914 263.916 903.079C264.503 897.244 269.164 851.111 269.751 832.588C270.338 814.064 270.613 763.114 271.2 748.507C271.787 733.899 283.732 621.739 285.768 600.435C287.805 579.131 290.272 565.933 291.838 547.84C292.018 545.573 292.018 543.294 291.838 541.026C296.405 533.2 299.087 524.418 299.671 515.375L301.942 515.767C304.057 516.08 305.467 516.158 305.858 515.767C306.984 511.154 307.795 506.47 308.286 501.747H308.6C316.706 500.572 318.038 498.575 318.038 498.575C318.038 498.575 320.857 372.904 321.954 365.424C323.051 357.944 324.578 356.299 324.147 353.675C323.716 351.051 320.466 350.425 321.367 347.096ZM93.7569 372.747C94.031 370.711 93.1695 370.006 93.7569 367.969C94.6662 366.033 95.6861 364.15 96.8116 362.33C97.8298 360.019 96.3808 355.79 96.8116 351.913C97.2423 348.036 98.8871 330.139 98.848 330.609C98.5738 334.251 103.038 351.208 102.333 354.967C101.32 359.104 100.69 363.325 100.454 367.578C99.8662 375.41 99.8662 384.535 98.848 389.469C97.8298 394.404 95.3626 412.653 95.3626 412.653C94.9318 407.562 92.1904 380.345 93.5611 377.995C94.9318 375.645 93.4436 374.784 93.7569 372.747ZM151.051 146.312L150.855 147.135C150.821 146.992 150.821 146.843 150.855 146.7C150.889 146.557 150.956 146.424 151.051 146.312Z" fill="#2A3A51"/>
<path d="M321.367 347.096C322.275 343.823 322.567 340.411 322.228 337.031C321.876 334.29 311.654 225.498 305.545 198.124C299.436 170.749 295.128 177.642 295.128 177.642C295.128 177.642 236.385 159.823 231.803 155.476C227.221 151.129 220.054 144.315 219.193 145.921C218.942 144.789 218.575 143.687 218.096 142.631C218.096 142.631 218.096 142.631 217.822 143.297C217.586 140.528 217.678 137.741 218.096 134.994C220.606 130.398 222.83 125.65 224.754 120.779C230.276 119.604 230.276 112.946 236.072 105.701C241.868 98.4563 239 92.5002 239 92.5002C244 88.5002 239 81.5 240.5 55C234.072 12.9998 194.5 14.0001 194.5 14.0001C169.475 11.5329 147.252 37.2069 143.493 47.6631C139.733 58.1194 141.182 84.8671 141.182 84.8671C135.66 86.2378 142.044 98.9654 143.414 102.059C144.459 104.05 144.985 106.273 144.942 108.521C145.333 112.437 150.933 115.178 150.933 115.178C151.246 119.664 152.101 124.096 153.479 128.376C153.774 132.914 153.774 137.466 153.479 142.004C152.617 141.613 151.834 143.649 151.208 145.921H150.659C149.22 147.172 147.967 148.622 146.939 150.228C144.703 153.759 141.771 156.797 138.323 159.157C135.778 160.332 122.149 165.384 114.826 168.125C107.503 170.867 73.471 182.028 72.4528 181.793C71.9346 181.631 71.3886 181.579 70.8493 181.64C70.3099 181.701 69.7891 181.873 69.3198 182.145C68.1058 182.89 65.0511 184.26 59.8426 200.826C54.6341 217.391 40.8882 343.924 39.5958 347.096C37.7995 350.502 36.7577 354.256 36.5412 358.1C36.972 361.155 35.1314 363.74 36.5412 366.364C37.951 368.988 36.5412 372.434 38.3426 378.543C40.1441 384.652 50.0913 481.148 57.0229 506.368L61.7615 505.232C62.7014 509.148 64.8945 517.96 66.2652 517.842C68.4977 517.506 70.7078 517.035 72.8836 516.432C73.743 521.057 75.2458 525.539 77.348 529.748C80.208 535.361 83.7175 540.618 87.8043 545.412C86.277 563.544 84.9455 579.405 84.358 585.749C82.5957 604.43 83.1832 721.759 84.358 729.944C85.5329 738.129 96.1066 820.996 97.2032 829.768C98.2997 838.54 113.534 922.582 115.883 925.519C118.233 928.456 118.821 929.435 115.883 932.529C114.008 935.215 112.769 938.294 112.26 941.53C111.751 944.767 111.986 948.077 112.946 951.209C114.983 959.394 111.811 965.308 113.573 964.72C115.514 963.523 117.543 962.476 119.643 961.587C119.147 963.358 118.395 965.047 117.411 966.6C114.591 971.221 103.9 979.954 96.185 985.907C88.47 991.86 77.0347 994.953 73.1577 997.656C69.2806 1000.36 70.6513 1005.49 69.9072 1006.43C69.1632 1007.37 66.9309 1009.09 72.2961 1009.68C77.6613 1010.27 106.759 1012.34 120.7 1012.07C125.178 1012.2 129.638 1011.44 133.82 1009.83C138.001 1008.23 141.822 1005.8 145.059 1002.71C148.466 999.457 153.675 1003.02 159.158 1003.88C164.64 1004.74 185.435 997.656 185.435 997.656C185.435 997.656 184.691 988.727 184.691 986.651C184.691 984.575 183.36 984.575 183.36 984.575C183.962 978.902 183.511 973.166 182.028 967.657C180.102 963.416 177.598 959.463 174.587 955.909L172.473 956.261L173.804 955.321C174.209 955.027 174.543 954.646 174.78 954.205C175.018 953.764 175.152 953.276 175.175 952.776C175.781 944.851 175.781 936.891 175.175 928.965C174 923.13 167.577 911.734 168.478 906.8C169.379 901.865 165.228 800.318 163.152 780.737C161.076 761.156 153.479 745.844 154.654 741.575C155.829 737.306 159.627 715.023 162.486 706.329C165.345 697.635 164.249 687.923 166.402 675.391C168.556 662.859 187.432 592.25 188.568 590.762C189.704 589.274 197.889 628.984 200.317 661.959C202.745 694.933 201.766 770.555 202.353 788.334C202.941 806.114 200.904 879.974 202.353 888.746C202.353 891.683 194.168 917.922 191.27 932.216C188.372 946.51 187.354 949.447 188.059 953.246C188.764 957.044 189.821 964.642 190.996 964.329C191.544 964.329 193.385 962.958 196.322 961.822C195.343 968.206 193.659 982.5 197.889 987.63C197.564 987.713 197.266 987.879 197.026 988.113C196.785 988.347 196.61 988.639 196.518 988.962C196.018 992.949 195.783 996.966 195.813 1000.98C195.813 1001.73 196.557 1002.47 197.145 1004.12C197.732 1005.76 194.912 1009.76 197.889 1011.4C200.865 1013.05 242.886 1013.63 250.17 1012.15C257.454 1010.66 258.355 1009.01 258.472 1008.23C258.59 1007.45 258.042 1003.76 256.24 1003.33C256.308 999.36 254.915 995.5 252.324 992.486C247.859 986.69 240.889 975.177 240.889 968.01C240.889 967.07 240.889 966.326 240.889 965.738C242.377 963.976 244.531 961.156 247.546 956.81C253.381 948.351 253.107 940.753 255.731 934.918C258.355 929.083 260.979 928.495 260.979 920.31C260.979 912.126 263.328 908.914 263.916 903.079C264.503 897.244 269.164 851.111 269.751 832.588C270.338 814.064 270.613 763.114 271.2 748.507C271.787 733.899 283.732 621.739 285.768 600.435C287.805 579.131 290.272 565.933 291.838 547.84C292.018 545.573 292.018 543.294 291.838 541.026C296.405 533.2 299.087 524.418 299.671 515.375L301.942 515.767C304.057 516.08 305.467 516.158 305.858 515.767C306.984 511.154 307.795 506.47 308.286 501.747H308.6C316.706 500.572 318.038 498.575 318.038 498.575C318.038 498.575 320.857 372.904 321.954 365.424C323.051 357.944 324.578 356.299 324.147 353.675C323.716 351.051 320.466 350.425 321.367 347.096ZM93.7569 372.747C94.031 370.711 93.1695 370.006 93.7569 367.969C94.6662 366.033 95.6861 364.15 96.8116 362.33C97.8298 360.019 96.3808 355.79 96.8116 351.913C97.2423 348.036 98.8871 330.139 98.848 330.609C98.5738 334.251 103.038 351.208 102.333 354.967C101.32 359.104 100.69 363.325 100.454 367.578C99.8662 375.41 99.8662 384.535 98.848 389.469C97.8298 394.404 95.3626 412.653 95.3626 412.653C94.9318 407.562 92.1904 380.345 93.5611 377.995C94.9318 375.645 93.4436 374.784 93.7569 372.747ZM151.051 146.312L150.855 147.135C150.821 146.992 150.821 146.843 150.855 146.7C150.889 146.557 150.956 146.424 151.051 146.312Z" stroke="#2A3A51" stroke-width="4" mask="url(#path-2-outside-1)"/>
<path opacity="0.1" d="M321.367 347.096C322.275 343.823 322.567 340.411 322.228 337.031C321.876 334.29 311.654 225.498 305.545 198.124C299.436 170.749 295.128 177.642 295.128 177.642C295.128 177.642 236.385 159.823 231.803 155.476C227.221 151.129 220.054 144.315 219.193 145.921C218.942 144.789 218.575 143.687 218.096 142.631C218.096 142.631 218.096 142.631 217.822 143.297C217.586 140.528 217.678 137.741 218.096 134.994C220.606 130.398 222.83 125.65 224.754 120.779C230.276 119.604 230.276 112.946 236.072 105.701C241.868 98.4563 239 92.5002 239 92.5002C244 88.5002 239 81.5 240.5 55C234.072 12.9998 194.5 14.0001 194.5 14.0001C169.475 11.5329 147.252 37.2069 143.493 47.6631C139.733 58.1194 141.182 84.8671 141.182 84.8671C135.66 86.2378 142.044 98.9654 143.414 102.059C144.459 104.05 144.985 106.273 144.942 108.521C145.333 112.437 150.933 115.178 150.933 115.178C151.246 119.664 152.101 124.096 153.479 128.376C153.774 132.914 153.774 137.466 153.479 142.004C152.617 141.613 151.834 143.649 151.208 145.921H150.659C149.22 147.172 147.967 148.622 146.939 150.228C144.703 153.759 141.771 156.797 138.323 159.157C135.778 160.332 122.149 165.384 114.826 168.125C107.503 170.867 73.471 182.028 72.4528 181.793C71.9346 181.631 71.3886 181.579 70.8493 181.64C70.3099 181.701 69.7891 181.873 69.3198 182.145C68.1058 182.89 65.0511 184.26 59.8426 200.826C54.6341 217.391 40.8882 343.924 39.5958 347.096C37.7995 350.502 36.7577 354.256 36.5412 358.1C36.972 361.155 35.1314 363.74 36.5412 366.364C37.951 368.988 36.5412 372.434 38.3426 378.543C40.1441 384.652 50.0913 481.148 57.0229 506.368L61.7615 505.232C62.7014 509.148 64.8945 517.96 66.2652 517.842C68.4977 517.506 70.7078 517.035 72.8836 516.432C73.743 521.057 75.2458 525.539 77.348 529.748C80.208 535.361 83.7175 540.618 87.8043 545.412C86.277 563.544 84.9455 579.405 84.358 585.749C82.5957 604.43 83.1832 721.759 84.358 729.944C85.5329 738.129 96.1066 820.996 97.2032 829.768C98.2997 838.54 113.534 922.582 115.883 925.519C118.233 928.456 118.821 929.435 115.883 932.529C114.008 935.215 112.769 938.294 112.26 941.53C111.751 944.767 111.986 948.077 112.946 951.209C114.983 959.394 111.811 965.308 113.573 964.72C115.514 963.523 117.543 962.476 119.643 961.587C119.147 963.358 118.395 965.047 117.411 966.6C114.591 971.221 103.9 979.954 96.185 985.907C88.47 991.86 77.0347 994.953 73.1577 997.656C69.2806 1000.36 70.6513 1005.49 69.9072 1006.43C69.1632 1007.37 66.9309 1009.09 72.2961 1009.68C77.6613 1010.27 106.759 1012.34 120.7 1012.07C125.178 1012.2 129.638 1011.44 133.82 1009.83C138.001 1008.23 141.822 1005.8 145.059 1002.71C148.466 999.457 153.675 1003.02 159.158 1003.88C164.64 1004.74 185.435 997.656 185.435 997.656C185.435 997.656 184.691 988.727 184.691 986.651C184.691 984.575 183.36 984.575 183.36 984.575C183.962 978.902 183.511 973.166 182.028 967.657C180.102 963.416 177.598 959.463 174.587 955.909L172.473 956.261L173.804 955.321C174.209 955.027 174.543 954.646 174.78 954.205C175.018 953.764 175.152 953.276 175.175 952.776C175.781 944.851 175.781 936.891 175.175 928.965C174 923.13 167.577 911.734 168.478 906.8C169.379 901.865 165.228 800.318 163.152 780.737C161.076 761.156 153.479 745.844 154.654 741.575C155.829 737.306 159.627 715.023 162.486 706.329C165.345 697.635 164.249 687.923 166.402 675.391C168.556 662.859 187.432 592.25 188.568 590.762C189.704 589.274 197.889 628.984 200.317 661.959C202.745 694.933 201.766 770.555 202.353 788.334C202.941 806.114 200.904 879.974 202.353 888.746C202.353 891.683 194.168 917.922 191.27 932.216C188.372 946.51 187.354 949.447 188.059 953.246C188.764 957.044 189.821 964.642 190.996 964.329C191.544 964.329 193.385 962.958 196.322 961.822C195.343 968.206 193.659 982.5 197.889 987.63C197.564 987.713 197.266 987.879 197.026 988.113C196.785 988.347 196.61 988.639 196.518 988.962C196.018 992.949 195.783 996.966 195.813 1000.98C195.813 1001.73 196.557 1002.47 197.145 1004.12C197.732 1005.76 194.912 1009.76 197.889 1011.4C200.865 1013.05 242.886 1013.63 250.17 1012.15C257.454 1010.66 258.355 1009.01 258.472 1008.23C258.59 1007.45 258.042 1003.76 256.24 1003.33C256.308 999.36 254.915 995.5 252.324 992.486C247.859 986.69 240.889 975.177 240.889 968.01C240.889 967.07 240.889 966.326 240.889 965.738C242.377 963.976 244.531 961.156 247.546 956.81C253.381 948.351 253.107 940.753 255.731 934.918C258.355 929.083 260.979 928.495 260.979 920.31C260.979 912.126 263.328 908.914 263.916 903.079C264.503 897.244 269.164 851.111 269.751 832.588C270.338 814.064 270.613 763.114 271.2 748.507C271.787 733.899 283.732 621.739 285.768 600.435C287.805 579.131 290.272 565.933 291.838 547.84C292.018 545.573 292.018 543.294 291.838 541.026C296.405 533.2 299.087 524.418 299.671 515.375L301.942 515.767C304.057 516.08 305.467 516.158 305.858 515.767C306.984 511.154 307.795 506.47 308.286 501.747H308.6C316.706 500.572 318.038 498.575 318.038 498.575C318.038 498.575 320.857 372.904 321.954 365.424C323.051 357.944 324.578 356.299 324.147 353.675C323.716 351.051 320.466 350.425 321.367 347.096ZM93.7569 372.747C94.031 370.711 93.1695 370.006 93.7569 367.969C94.6662 366.033 95.6861 364.15 96.8116 362.33C97.8298 360.019 96.3808 355.79 96.8116 351.913C97.2423 348.036 98.8871 330.139 98.848 330.609C98.5738 334.251 103.038 351.208 102.333 354.967C101.32 359.104 100.69 363.325 100.454 367.578C99.8662 375.41 99.8662 384.535 98.848 389.469C97.8298 394.404 95.3626 412.653 95.3626 412.653C94.9318 407.562 92.1904 380.345 93.5611 377.995C94.9318 375.645 93.4436 374.784 93.7569 372.747ZM151.051 146.312L150.855 147.135C150.821 146.992 150.821 146.843 150.855 146.7C150.889 146.557 150.956 146.424 151.051 146.312Z" fill="url(#paint0_linear)"/>
</g>
<defs>
<linearGradient id="paint0_linear" x1="36" y1="13.834" x2="585.772" y2="187.198" gradientUnits="userSpaceOnUse">
<stop stop-color="white"/>
<stop offset="1" stop-color="white" stop-opacity="0.2"/>
</linearGradient>
</defs>
</svg>
