<svg width="64" height="64" viewBox="0 0 64 64" fill="none" xmlns="http://www.w3.org/2000/svg">
<path d="M32 0C14.3226 0 0 14.3226 0 32C0 49.6774 14.3226 64 32 64C49.6774 64 64 49.6774 64 32C64 14.3226 49.6774 0 32 0ZM35.0968 48.5161V50.5806C35.0968 51.7419 34.0645 52.6452 33.0323 52.6452H30.9677C29.8065 52.6452 28.9032 51.7419 28.9032 50.5806V48.5161C26.7097 48.5161 24.6452 47.7419 22.8387 46.5806C21.6774 45.8064 21.5484 44.2581 22.5806 43.3548L24.129 41.9355C24.7742 41.2903 25.8065 41.1613 26.7097 41.6774C27.4839 42.1936 28.2581 42.3226 29.1613 42.3226H34.9677C36.5161 42.3226 37.6774 41.0323 37.6774 39.3548C37.6774 37.9355 36.9032 36.7742 35.7419 36.3871L26.4516 33.5484C22.7097 32.5161 20 28.7742 20 24.7742C20 19.7419 24 15.6129 28.9032 15.4839V13.4194C28.9032 12.3871 29.8065 11.3548 30.9677 11.3548H33.0323C34.0645 11.3548 35.0968 12.3871 35.0968 13.4194V15.6129C37.1613 15.6129 39.2258 16.2581 41.0323 17.5484C42.1936 18.3226 42.3226 19.871 41.2903 20.7742L39.7419 22.1935C39.0968 22.8387 38.0645 22.9677 37.2903 22.4516C36.3871 21.9355 35.6129 21.6774 34.7097 21.6774H28.9032C27.3548 21.6774 26.1935 23.0968 26.1935 24.7742C26.1935 26.0645 26.9677 27.3548 28.129 27.7419L37.4194 30.4516C41.1613 31.6129 43.871 35.2258 43.871 39.3548C43.871 44.3871 39.871 48.5161 35.0968 48.5161Z" fill="#D3DCE5"/>
</svg>
