<svg width="1300" height="499" viewBox="0 0 1300 499" fill="none" xmlns="http://www.w3.org/2000/svg">
<mask id="mask0" mask-type="alpha" maskUnits="userSpaceOnUse" x="0" y="0" width="1300" height="499">
<rect width="1300" height="499" rx="16" fill="#2A3A51"/>
</mask>
<g mask="url(#mask0)">
<path d="M886.149 74H347.191V86.3769H886.149V74Z" fill="#D3DCE5"/>
<path d="M865.719 395.799H371.492V473.436H865.719V395.799Z" fill="#F4F5F6" stroke="#959DA8" stroke-width="1.09175" stroke-miterlimit="10"/>
<path d="M865.719 318.163H371.492V395.8H865.719V318.163Z" fill="#F4F5F6" stroke="#959DA8" stroke-width="1.09175" stroke-miterlimit="10"/>
<path d="M865.719 241.088H371.492V318.725H865.719V241.088Z" fill="#F4F5F6" stroke="#959DA8" stroke-width="1.09175" stroke-miterlimit="10"/>
<path d="M865.719 163.45H371.492V241.087H865.719V163.45Z" fill="#F4F5F6" stroke="#959DA8" stroke-width="1.09175" stroke-miterlimit="10"/>
<path d="M865.719 85.814H371.492V163.451H865.719V85.814Z" fill="#F4F5F6" stroke="#959DA8" stroke-width="1.09175" stroke-miterlimit="10"/>
<path d="M428.947 411.854H404.84V464.225H428.947V411.854Z" fill="#D3DCE5"/>
<path d="M425.534 415.181H408.246V440.121H425.534V415.181Z" fill="white" stroke="#959DA8" stroke-width="0.545875" stroke-miterlimit="10"/>
<path d="M396.865 395.235H392.426V462.746H396.865V395.235Z" fill="#F4F5F6" stroke="#959DA8" stroke-width="1.09175" stroke-miterlimit="10"/>
<path d="M440.744 395.235H436.305V472.872H440.744V395.235Z" fill="#F4F5F6" stroke="#959DA8" stroke-width="1.09175" stroke-miterlimit="10"/>
<path d="M452.959 462.531H381.117V468.028H452.959V462.531Z" fill="#F4F5F6" stroke="#959DA8" stroke-width="1.09175" stroke-miterlimit="10"/>
<path d="M452.959 468.016H381.117V473.513H452.959V468.016Z" fill="#F4F5F6" stroke="#959DA8" stroke-width="1.09175" stroke-miterlimit="10"/>
<path d="M409.36 444.461C409.981 444.461 410.485 443.958 410.485 443.336C410.485 442.715 409.981 442.211 409.36 442.211C408.738 442.211 408.234 442.715 408.234 443.336C408.234 443.958 408.738 444.461 409.36 444.461Z" fill="white" stroke="#959DA8" stroke-width="0.545875" stroke-miterlimit="10"/>
<path d="M715.238 175.827H732.408V218.584H715.238V175.827Z" fill="white" stroke="#959DA8" stroke-width="0.545875" stroke-miterlimit="10"/>
<path d="M732.412 188.39H715.242" stroke="#959DA8" stroke-width="0.545875" stroke-miterlimit="10"/>
<path d="M715.238 98.1912H732.408V140.948H715.238V98.1912Z" fill="white" stroke="#959DA8" stroke-width="0.545875" stroke-miterlimit="10"/>
<path d="M732.412 110.754H715.242" stroke="#959DA8" stroke-width="0.545875" stroke-miterlimit="10"/>
<path d="M715.238 253.466H732.408V296.222H715.238V253.466Z" fill="white" stroke="#959DA8" stroke-width="0.545875" stroke-miterlimit="10"/>
<path d="M732.412 266.028H715.242" stroke="#959DA8" stroke-width="0.545875" stroke-miterlimit="10"/>
<path d="M715.238 330.54H732.408V373.297H715.238V330.54Z" fill="white" stroke="#959DA8" stroke-width="0.545875" stroke-miterlimit="10"/>
<path d="M732.412 343.101H715.242" stroke="#959DA8" stroke-width="0.545875" stroke-miterlimit="10"/>
<path d="M715.238 411.55H732.408V454.307H715.238V411.55Z" fill="white" stroke="#959DA8" stroke-width="0.545875" stroke-miterlimit="10"/>
<path d="M732.412 424.115H715.242" stroke="#959DA8" stroke-width="0.545875" stroke-miterlimit="10"/>
<path d="M506.516 332.791H523.686V375.547H506.516V332.791Z" fill="white" stroke="#959DA8" stroke-width="0.545875" stroke-miterlimit="10"/>
<path d="M523.697 345.351H506.527" stroke="#959DA8" stroke-width="0.545875" stroke-miterlimit="10"/>
<path d="M506.516 253.466H523.686V296.222H506.516V253.466Z" fill="white" stroke="#959DA8" stroke-width="0.545875" stroke-miterlimit="10"/>
<path d="M523.697 266.028H506.527" stroke="#959DA8" stroke-width="0.545875" stroke-miterlimit="10"/>
<path d="M506.516 175.827H523.686V218.584H506.516V175.827Z" fill="white" stroke="#959DA8" stroke-width="0.545875" stroke-miterlimit="10"/>
<path d="M523.697 188.39H506.527" stroke="#959DA8" stroke-width="0.545875" stroke-miterlimit="10"/>
<path d="M506.516 98.1912H523.686V140.948H506.516V98.1912Z" fill="white" stroke="#959DA8" stroke-width="0.545875" stroke-miterlimit="10"/>
<path d="M523.697 110.754H506.527" stroke="#959DA8" stroke-width="0.545875" stroke-miterlimit="10"/>
<path d="M506.516 413.241H523.686V455.997H506.516V413.241Z" fill="white" stroke="#959DA8" stroke-width="0.545875" stroke-miterlimit="10"/>
<path d="M523.697 425.801H506.527" stroke="#959DA8" stroke-width="0.545875" stroke-miterlimit="10"/>
<path d="M525.035 458.552H504.974L504.715 453.562H525.294L525.035 458.552Z" fill="#D3DCE5"/>
<path d="M525.035 375.851H504.974L504.715 370.861H525.294L525.035 375.851Z" fill="#D3DCE5"/>
<path d="M525.035 298.774H504.974L504.715 293.784H525.294L525.035 298.774Z" fill="#D3DCE5"/>
<path d="M525.035 221.138H504.974L504.715 216.148H525.294L525.035 221.138Z" fill="#D3DCE5"/>
<path d="M525.035 143.502H504.974L504.715 138.512H525.294L525.035 143.502Z" fill="#D3DCE5"/>
<path d="M733.992 458.552H713.931L713.672 453.562H734.251L733.992 458.552Z" fill="#D3DCE5"/>
<path d="M733.992 375.851H713.931L713.672 370.861H734.251L733.992 375.851Z" fill="#D3DCE5"/>
<path d="M733.992 298.774H713.931L713.672 293.784H734.251L733.992 298.774Z" fill="#D3DCE5"/>
<path d="M733.992 221.138H713.931L713.672 216.148H734.251L733.992 221.138Z" fill="#D3DCE5"/>
<path d="M733.992 143.502H713.931L713.672 138.512H734.251L733.992 143.502Z" fill="#D3DCE5"/>
<path d="M382.072 141.655C382.294 141.657 382.514 141.634 382.731 141.588C392.857 139.287 392.857 127.068 392.857 127.068C392.947 119.622 390.586 112.354 386.14 106.381C385.668 105.757 385.057 105.25 384.357 104.901C383.656 104.552 382.883 104.371 382.101 104.371C381.318 104.371 380.545 104.552 379.845 104.901C379.144 105.25 378.533 105.757 378.061 106.381C373.613 112.353 371.251 119.622 371.338 127.068C371.338 127.068 371.338 139.315 381.431 141.594C381.647 141.64 381.868 141.663 382.089 141.661L382.072 141.655Z" fill="#80C33F"/>
<path d="M382.074 118.479V160.077" stroke="#2A3A51" stroke-width="0.545875" stroke-linecap="round" stroke-linejoin="round"/>
<path d="M777.006 139.407C777.227 139.408 777.448 139.386 777.664 139.339C787.791 137.039 787.791 124.819 787.791 124.819C787.88 117.374 785.52 110.105 781.074 104.133C780.601 103.508 779.991 103.002 779.29 102.653C778.589 102.304 777.817 102.122 777.034 102.122C776.251 102.122 775.479 102.304 774.778 102.653C774.077 103.002 773.467 103.508 772.995 104.133C768.546 110.105 766.184 117.373 766.272 124.819C766.272 124.819 766.272 137.067 776.365 139.345C776.581 139.391 776.802 139.414 777.023 139.413L777.006 139.407Z" fill="#80C33F"/>
<path d="M777.008 116.227V157.825" stroke="#2A3A51" stroke-width="0.545875" stroke-linecap="round" stroke-linejoin="round"/>
<path d="M419.766 376.841C419.761 375.589 420.057 374.354 420.63 373.241C421.203 372.127 422.036 371.168 423.058 370.445C424.08 369.721 425.261 369.255 426.502 369.084C427.742 368.914 429.006 369.045 430.185 369.466C430.641 367.63 431.564 365.944 432.864 364.572C434.165 363.199 435.799 362.187 437.607 361.633C439.415 361.079 441.335 361.002 443.181 361.411C445.028 361.819 446.737 362.699 448.143 363.963C449.135 361.187 451.076 358.85 453.623 357.364C456.169 355.878 459.159 355.338 462.064 355.84C464.97 356.341 467.605 357.852 469.507 360.106C471.408 362.359 472.453 365.212 472.458 368.16C472.459 368.596 472.437 369.032 472.39 369.466C473.237 369.156 474.132 368.998 475.034 368.999C479.366 368.999 483.135 372.515 482.86 376.824C482.82 377.535 482.701 378.239 482.505 378.923H420.058C419.87 378.239 419.775 377.533 419.777 376.824L419.766 376.841Z" fill="#80C33F"/>
<path d="M314 471.919C313.995 470.667 314.291 469.432 314.864 468.319C315.438 467.205 316.27 466.246 317.292 465.523C318.314 464.8 319.496 464.333 320.736 464.162C321.977 463.992 323.24 464.123 324.419 464.544C324.875 462.709 325.798 461.023 327.099 459.65C328.399 458.277 330.033 457.265 331.841 456.711C333.649 456.157 335.57 456.08 337.416 456.489C339.262 456.897 340.971 457.777 342.377 459.042C343.37 456.265 345.31 453.928 347.857 452.442C350.404 450.956 353.393 450.416 356.299 450.918C359.204 451.419 361.84 452.93 363.741 455.184C365.642 457.438 366.687 460.29 366.692 463.239C366.694 463.675 366.671 464.11 366.624 464.544C367.472 464.234 368.367 464.076 369.269 464.077C373.6 464.077 377.37 467.593 377.094 471.902C377.054 472.613 376.936 473.317 376.74 474.001H314.293C314.104 473.317 314.009 472.611 314.011 471.902L314 471.919Z" fill="#80C33F"/>
<path d="M447.065 98.3706H398.648V143.693H447.065V98.3706Z" fill="white" stroke="#959DA8" stroke-width="0.545875" stroke-miterlimit="10"/>
<path d="M422.859 98.3643V143.759" stroke="#959DA8" stroke-width="0.545875" stroke-miterlimit="10"/>
<path d="M447.065 176.009H398.648V221.331H447.065V176.009Z" fill="white" stroke="#959DA8" stroke-width="0.545875" stroke-miterlimit="10"/>
<path d="M422.859 176.002V221.398" stroke="#959DA8" stroke-width="0.545875" stroke-miterlimit="10"/>
<path d="M447.065 253.083H398.648V298.405H447.065V253.083Z" fill="white" stroke="#959DA8" stroke-width="0.545875" stroke-miterlimit="10"/>
<path d="M422.859 253.077V298.472" stroke="#959DA8" stroke-width="0.545875" stroke-miterlimit="10"/>
<path d="M447.065 332.406H398.648V377.728H447.065V332.406Z" fill="white" stroke="#959DA8" stroke-width="0.545875" stroke-miterlimit="10"/>
<path d="M422.859 332.402V377.797" stroke="#959DA8" stroke-width="0.545875" stroke-miterlimit="10"/>
<path d="M611.338 98.3704H562.922V143.692H611.338V98.3704Z" fill="white" stroke="#959DA8" stroke-width="0.545875" stroke-miterlimit="10"/>
<path d="M587.137 98.3643V143.759" stroke="#959DA8" stroke-width="0.545875" stroke-miterlimit="10"/>
<path d="M611.338 176.009H562.922V221.33H611.338V176.009Z" fill="white" stroke="#959DA8" stroke-width="0.545875" stroke-miterlimit="10"/>
<path d="M587.137 176.003V221.398" stroke="#959DA8" stroke-width="0.545875" stroke-miterlimit="10"/>
<path d="M611.338 253.083H562.922V298.405H611.338V253.083Z" fill="white" stroke="#959DA8" stroke-width="0.545875" stroke-miterlimit="10"/>
<path d="M587.137 253.077V298.472" stroke="#959DA8" stroke-width="0.545875" stroke-miterlimit="10"/>
<path d="M611.338 332.406H562.922V377.728H611.338V332.406Z" fill="white" stroke="#959DA8" stroke-width="0.545875" stroke-miterlimit="10"/>
<path d="M587.137 332.402V377.797" stroke="#959DA8" stroke-width="0.545875" stroke-miterlimit="10"/>
<path d="M611.338 413.42H562.922V458.742H611.338V413.42Z" fill="white" stroke="#959DA8" stroke-width="0.545875" stroke-miterlimit="10"/>
<path d="M587.137 413.414V458.809" stroke="#959DA8" stroke-width="0.545875" stroke-miterlimit="10"/>
<path d="M678.85 98.3704H630.434V143.692H678.85V98.3704Z" fill="white" stroke="#959DA8" stroke-width="0.545875" stroke-miterlimit="10"/>
<path d="M654.645 98.3643V143.759" stroke="#959DA8" stroke-width="0.545875" stroke-miterlimit="10"/>
<path d="M678.85 176.009H630.434V221.33H678.85V176.009Z" fill="white" stroke="#959DA8" stroke-width="0.545875" stroke-miterlimit="10"/>
<path d="M654.645 176.002V221.398" stroke="#959DA8" stroke-width="0.545875" stroke-miterlimit="10"/>
<path d="M678.85 253.083H630.434V298.405H678.85V253.083Z" fill="white" stroke="#959DA8" stroke-width="0.545875" stroke-miterlimit="10"/>
<path d="M654.645 253.077V298.472" stroke="#959DA8" stroke-width="0.545875" stroke-miterlimit="10"/>
<path d="M678.85 332.406H630.434V377.728H678.85V332.406Z" fill="white" stroke="#959DA8" stroke-width="0.545875" stroke-miterlimit="10"/>
<path d="M654.645 332.402V377.797" stroke="#959DA8" stroke-width="0.545875" stroke-miterlimit="10"/>
<path d="M678.85 413.42H630.434V458.742H678.85V413.42Z" fill="white" stroke="#959DA8" stroke-width="0.545875" stroke-miterlimit="10"/>
<path d="M654.645 413.414V458.809" stroke="#959DA8" stroke-width="0.545875" stroke-miterlimit="10"/>
<path d="M836.373 98.3704H787.957V143.692H836.373V98.3704Z" fill="white" stroke="#959DA8" stroke-width="0.545875" stroke-miterlimit="10"/>
<path d="M812.172 98.3643V143.759" stroke="#959DA8" stroke-width="0.545875" stroke-miterlimit="10"/>
<path d="M836.373 176.009H787.957V221.33H836.373V176.009Z" fill="white" stroke="#959DA8" stroke-width="0.545875" stroke-miterlimit="10"/>
<path d="M812.172 176.003V221.398" stroke="#959DA8" stroke-width="0.545875" stroke-miterlimit="10"/>
<path d="M836.373 253.083H787.957V298.405H836.373V253.083Z" fill="white" stroke="#959DA8" stroke-width="0.545875" stroke-miterlimit="10"/>
<path d="M812.172 253.077V298.472" stroke="#959DA8" stroke-width="0.545875" stroke-miterlimit="10"/>
<path d="M836.373 332.406H787.957V377.728H836.373V332.406Z" fill="white" stroke="#959DA8" stroke-width="0.545875" stroke-miterlimit="10"/>
<path d="M812.172 332.402V377.797" stroke="#959DA8" stroke-width="0.545875" stroke-miterlimit="10"/>
<path d="M836.373 413.42H787.957V458.742H836.373V413.42Z" fill="white" stroke="#959DA8" stroke-width="0.545875" stroke-miterlimit="10"/>
<path d="M812.172 413.414V458.809" stroke="#959DA8" stroke-width="0.545875" stroke-miterlimit="10"/>
<path d="M485.586 210.989H359.848V241.931H485.586V210.989Z" fill="#D3DCE5"/>
<path d="M485.586 133.353H359.848V164.295H485.586V133.353Z" fill="#D3DCE5"/>
<path d="M485.586 365.702H359.848V396.644H485.586V365.702Z" fill="#D3DCE5"/>
<path d="M879.398 288.627H753.66V319.569H879.398V288.627Z" fill="#D3DCE5"/>
<path d="M879.398 133.353H753.66V164.295H879.398V133.353Z" fill="#D3DCE5"/>
<path d="M879.398 365.702H753.66V396.644H879.398V365.702Z" fill="#D3DCE5"/>
<path d="M879.398 442.774H753.66V473.717H879.398V442.774Z" fill="#D3DCE5"/>
<path d="M644.664 440.091C645.016 438.322 644.998 436.498 644.613 434.736C644.234 432.991 643.491 431.345 642.43 429.909C641.399 428.507 640.067 427.353 638.531 426.533C637.032 425.731 635.365 425.294 633.665 425.258C631.965 425.222 630.28 425.588 628.748 426.325C627.186 427.077 625.813 428.171 624.731 429.526C623.619 430.916 622.816 432.527 622.374 434.252C621.924 435.999 621.839 437.821 622.126 439.602C620.855 440.267 619.745 441.202 618.875 442.342C617.981 443.51 617.339 444.851 616.99 446.28C616.634 447.725 616.572 449.227 616.81 450.696C617.045 452.154 617.577 453.548 618.374 454.792C619.149 456.006 620.178 457.039 621.389 457.819C622.578 458.581 623.925 459.062 625.328 459.225C626.716 459.385 628.124 459.224 629.44 458.752C630.777 458.275 631.992 457.506 632.996 456.502C633.967 457.492 635.142 458.26 636.439 458.752C637.711 459.236 639.076 459.428 640.433 459.315C641.794 459.191 643.11 458.766 644.287 458.072C645.49 457.36 646.529 456.401 647.336 455.259C648.163 454.089 648.747 452.765 649.052 451.366C649.363 449.953 649.393 448.492 649.142 447.068C648.908 445.642 648.39 444.277 647.617 443.056C646.853 441.871 645.846 440.86 644.664 440.091Z" fill="#80C33F"/>
<path d="M633.431 450.815L628.137 447.046" stroke="#2A3A51" stroke-width="0.545875" stroke-linecap="round" stroke-linejoin="round"/>
<path d="M633.43 455.524L639.618 449.898" stroke="#2A3A51" stroke-width="0.545875" stroke-linecap="round" stroke-linejoin="round"/>
<path d="M633.43 439.501V473.437" stroke="#2A3A51" stroke-width="0.545875" stroke-linecap="round" stroke-linejoin="round"/>
<path d="M407.951 299.182C408.173 299.184 408.393 299.161 408.61 299.115C418.736 296.814 418.736 284.594 418.736 284.594C418.826 277.149 416.465 269.881 412.019 263.908C411.547 263.283 410.936 262.777 410.235 262.428C409.535 262.079 408.762 261.898 407.979 261.898C407.197 261.898 406.424 262.079 405.723 262.428C405.023 262.777 404.412 263.283 403.94 263.908C399.492 269.88 397.129 277.148 397.217 284.594C397.217 284.594 397.217 296.842 407.31 299.12C407.526 299.167 407.747 299.189 407.968 299.188L407.951 299.182Z" fill="#80C33F"/>
<path d="M407.949 276.002V317.6" stroke="#2A3A51" stroke-width="0.545875" stroke-linecap="round" stroke-linejoin="round"/>
<path d="M485.586 288.627H359.848V319.569H485.586V288.627Z" fill="#D3DCE5"/>
<path d="M812.449 219.316C812.444 218.064 812.741 216.829 813.314 215.716C813.887 214.602 814.72 213.643 815.742 212.92C816.764 212.196 817.945 211.73 819.185 211.559C820.426 211.389 821.689 211.52 822.868 211.941C823.324 210.105 824.247 208.419 825.548 207.047C826.848 205.674 828.482 204.662 830.29 204.108C832.098 203.554 834.019 203.477 835.865 203.886C837.711 204.294 839.421 205.174 840.826 206.439C841.819 203.662 843.76 201.325 846.306 199.839C848.853 198.353 851.842 197.813 854.748 198.315C857.654 198.816 860.289 200.327 862.19 202.581C864.091 204.835 865.136 207.687 865.141 210.635C865.143 211.071 865.12 211.507 865.074 211.941C865.921 211.631 866.816 211.473 867.718 211.474C872.05 211.474 875.819 214.99 875.543 219.299C875.504 220.01 875.385 220.714 875.189 221.398H812.742C812.553 220.714 812.459 220.008 812.461 219.299L812.449 219.316Z" fill="#80C33F"/>
<path d="M879.398 210.989H753.66V241.932H879.398V210.989Z" fill="#D3DCE5"/>
<path d="M886.147 452.486C886.4 452.487 886.653 452.461 886.901 452.407C898.422 449.785 898.428 435.827 898.428 435.827C898.428 416.806 886.152 407.271 886.152 407.271C886.152 407.271 873.871 416.784 873.871 435.827C873.871 435.827 873.871 449.802 885.393 452.407C885.64 452.461 885.893 452.487 886.147 452.486Z" fill="#80C33F"/>
<path d="M886.148 426.039V473.516" stroke="#2A3A51" stroke-width="0.545875" stroke-linecap="round" stroke-linejoin="round"/>
<path fill-rule="evenodd" clip-rule="evenodd" d="M944.875 464.036V421.657H945.941V464.036H944.875Z" fill="#959DA8"/>
<path d="M954.099 434.696H936.711L942.146 421.657H948.663L954.099 434.696Z" fill="#D3DCE5"/>
<path fill-rule="evenodd" clip-rule="evenodd" d="M940.934 434.635L943.992 421.596L944.511 421.718L941.452 434.757L940.934 434.635Z" fill="#959DA8"/>
<path fill-rule="evenodd" clip-rule="evenodd" d="M949.43 434.757L946.371 421.717L946.89 421.596L949.949 434.635L949.43 434.757Z" fill="#959DA8"/>
<path d="M923.076 440.516L922.181 440.351C921.492 441.313 921.198 442.503 921.36 443.676C921.395 443.917 921.522 444.135 921.713 444.286C921.904 444.437 922.146 444.509 922.389 444.487C922.632 444.465 922.857 444.351 923.018 444.169C923.18 443.986 923.265 443.749 923.257 443.505C923.287 442.505 923.227 441.505 923.076 440.516Z" fill="white"/>
<path fill-rule="evenodd" clip-rule="evenodd" d="M922.059 440.058L923.121 440.254L923.073 440.516L923.336 440.475C923.489 441.478 923.551 442.492 923.52 443.505C923.528 443.813 923.419 444.114 923.215 444.345C923.008 444.579 922.72 444.724 922.41 444.752C922.099 444.78 921.79 444.688 921.545 444.495C921.3 444.302 921.139 444.023 921.093 443.714L921.357 443.675L921.093 443.712C920.922 442.472 921.232 441.213 921.961 440.195L922.059 440.058ZM921.621 443.638C921.646 443.811 921.737 443.968 921.875 444.077C922.013 444.185 922.187 444.237 922.362 444.221C922.537 444.206 922.699 444.124 922.816 443.992C922.932 443.861 922.993 443.689 922.988 443.514L922.987 443.505L922.988 443.497C923.015 442.576 922.965 441.655 922.837 440.743L922.299 440.644C921.718 441.525 921.476 442.589 921.621 443.638Z" fill="#959DA8"/>
<path d="M925.711 438.864L925.951 437.985C927.117 437.782 928.316 438.034 929.302 438.688C929.504 438.825 929.646 439.033 929.699 439.271C929.752 439.509 929.712 439.758 929.587 439.967C929.462 440.176 929.262 440.329 929.028 440.396C928.794 440.462 928.543 440.437 928.327 440.324C927.413 439.918 926.537 439.429 925.711 438.864Z" fill="white"/>
<path fill-rule="evenodd" clip-rule="evenodd" d="M926.165 438.222L926.02 438.75C926.787 439.261 927.596 439.707 928.438 440.081L928.445 440.084L928.453 440.088C928.608 440.169 928.789 440.187 928.958 440.139C929.127 440.091 929.271 439.981 929.36 439.83C929.45 439.679 929.479 439.5 929.441 439.329C929.403 439.158 929.301 439.008 929.156 438.91C928.274 438.324 927.21 438.081 926.165 438.222ZM929.305 438.688L929.452 438.466C928.409 437.774 927.141 437.508 925.907 437.723L925.741 437.752L925.406 438.977L925.563 439.084C926.4 439.657 927.288 440.152 928.214 440.565C928.489 440.705 928.806 440.736 929.103 440.652C929.403 440.567 929.659 440.371 929.818 440.103C929.978 439.835 930.029 439.517 929.961 439.213C929.893 438.909 929.712 438.642 929.454 438.468L929.305 438.688Z" fill="#959DA8"/>
<path d="M928.396 440.766C928.745 441.387 928.842 442.119 928.666 442.809C928.491 443.5 928.057 444.096 927.453 444.476C926.85 444.855 926.125 444.988 925.426 444.847C924.728 444.706 924.111 444.302 923.702 443.718C922.934 442.493 922.599 439.631 923.894 438.816C925.189 438.001 927.629 439.541 928.396 440.766Z" fill="white"/>
<path fill-rule="evenodd" clip-rule="evenodd" d="M925.006 438.869C924.623 438.825 924.294 438.879 924.036 439.041C923.779 439.203 923.588 439.476 923.462 439.84C923.337 440.204 923.283 440.644 923.292 441.108C923.309 442.04 923.574 443.008 923.925 443.571C924.294 444.095 924.851 444.458 925.48 444.585C926.111 444.713 926.767 444.593 927.312 444.25C927.858 443.907 928.25 443.368 928.409 442.744C928.567 442.121 928.481 441.462 928.168 440.902C927.815 440.341 927.057 439.682 926.224 439.264C925.809 439.055 925.389 438.913 925.006 438.869ZM926.463 438.788C927.363 439.24 928.207 439.961 928.623 440.625L928.63 440.635L928.63 440.636C929.012 441.316 929.118 442.118 928.925 442.875C928.733 443.632 928.257 444.285 927.596 444.701C926.935 445.117 926.14 445.262 925.374 445.108C924.609 444.953 923.932 444.51 923.484 443.871L923.476 443.86L923.477 443.86C923.062 443.196 922.777 442.124 922.759 441.118C922.749 440.612 922.807 440.106 922.958 439.667C923.11 439.226 923.362 438.836 923.752 438.59C924.143 438.345 924.604 438.286 925.067 438.34C925.53 438.393 926.01 438.56 926.463 438.788Z" fill="#959DA8"/>
<path d="M921.037 438.409C921.547 438.088 921.701 437.414 921.38 436.903C921.059 436.392 920.385 436.238 919.874 436.559C919.363 436.88 919.209 437.555 919.531 438.065C919.852 438.576 920.526 438.73 921.037 438.409Z" fill="white"/>
<path fill-rule="evenodd" clip-rule="evenodd" d="M920.012 436.785C919.626 437.027 919.51 437.537 919.752 437.924C919.995 438.31 920.505 438.426 920.891 438.183C921.277 437.941 921.394 437.431 921.151 437.044C920.908 436.658 920.398 436.542 920.012 436.785ZM919.301 438.207C918.902 437.572 919.093 436.733 919.729 436.334C920.364 435.934 921.203 436.126 921.602 436.761C922.001 437.396 921.81 438.235 921.175 438.634C920.539 439.034 919.701 438.842 919.301 438.207Z" fill="#959DA8"/>
<path d="M926.137 438.422C926.65 438.102 926.807 437.427 926.487 436.914C926.167 436.401 925.492 436.245 924.979 436.565C924.467 436.884 924.31 437.559 924.63 438.072C924.949 438.585 925.624 438.741 926.137 438.422Z" fill="white"/>
<path fill-rule="evenodd" clip-rule="evenodd" d="M924.117 434.791C923.729 435.033 923.611 435.543 923.853 435.931C924.095 436.318 924.605 436.437 924.993 436.195C925.38 435.953 925.499 435.443 925.257 435.055C925.015 434.667 924.505 434.549 924.117 434.791ZM923.4 436.213C923.002 435.575 923.197 434.736 923.835 434.338C924.473 433.94 925.312 434.135 925.71 434.773C926.108 435.411 925.913 436.25 925.275 436.648C924.637 437.046 923.798 436.851 923.4 436.213Z" fill="#959DA8"/>
<path d="M924.74 440.147C926.036 439.332 926.463 437.681 925.694 436.457C924.925 435.234 923.251 434.902 921.955 435.716C920.66 436.531 920.233 438.183 921.002 439.406C921.771 440.63 923.444 440.961 924.74 440.147Z" fill="white"/>
<path fill-rule="evenodd" clip-rule="evenodd" d="M922.093 435.942C920.91 436.686 920.54 438.178 921.224 439.264C921.907 440.351 923.411 440.665 924.594 439.921C925.778 439.177 926.147 437.686 925.464 436.599C924.781 435.512 923.277 435.198 922.093 435.942ZM920.772 439.548C919.918 438.188 920.402 436.376 921.81 435.491C923.218 434.606 925.061 434.955 925.916 436.315C926.77 437.675 926.286 439.488 924.878 440.372C923.47 441.257 921.627 440.908 920.772 439.548Z" fill="#959DA8"/>
<path d="M926.403 445.839C926.593 445.186 926.134 444.478 925.377 444.257C924.62 444.036 923.851 444.386 923.661 445.039C923.471 445.692 923.93 446.4 924.687 446.621C925.445 446.841 926.213 446.491 926.403 445.839Z" fill="white"/>
<path fill-rule="evenodd" clip-rule="evenodd" d="M923.919 445.115C923.781 445.589 924.11 446.17 924.761 446.36C925.411 446.55 926.001 446.236 926.139 445.763C926.277 445.289 925.949 444.708 925.298 444.518C924.647 444.328 924.057 444.642 923.919 445.115ZM924.608 446.882C923.745 446.63 923.155 445.795 923.397 444.963C923.64 444.131 924.586 443.745 925.45 443.996C926.313 444.248 926.904 445.083 926.661 445.915C926.418 446.747 925.472 447.133 924.608 446.882Z" fill="#959DA8"/>
<path d="M930.311 443.057C930.441 442.279 930.002 441.558 929.332 441.446C928.661 441.335 928.012 441.875 927.883 442.653C927.753 443.431 928.192 444.152 928.863 444.264C929.533 444.376 930.182 443.835 930.311 443.057Z" fill="white"/>
<path fill-rule="evenodd" clip-rule="evenodd" d="M928.148 442.697C928.036 443.367 928.418 443.919 928.908 444.001C929.398 444.082 929.939 443.684 930.05 443.013C930.162 442.342 929.78 441.791 929.29 441.709C928.8 441.627 928.259 442.026 928.148 442.697ZM928.821 444.526C927.97 444.385 927.475 443.494 927.622 442.609C927.769 441.724 928.526 441.042 929.377 441.183C930.228 441.325 930.723 442.216 930.576 443.101C930.429 443.986 929.672 444.668 928.821 444.526Z" fill="#959DA8"/>
<path fill-rule="evenodd" clip-rule="evenodd" d="M923.155 439.353C923.041 439.611 923.04 439.861 923.159 440.051C923.279 440.241 923.505 440.348 923.786 440.357C924.066 440.367 924.395 440.278 924.701 440.085C925.008 439.893 925.23 439.635 925.343 439.378C925.456 439.121 925.458 438.871 925.339 438.681C925.219 438.491 924.993 438.384 924.712 438.374C924.431 438.365 924.103 438.453 923.797 438.646C923.49 438.839 923.268 439.096 923.155 439.353ZM923.033 439.3C923.158 439.015 923.4 438.738 923.726 438.533C924.052 438.328 924.406 438.231 924.717 438.241C925.027 438.252 925.301 438.371 925.451 438.61C925.601 438.849 925.59 439.148 925.465 439.432C925.34 439.716 925.098 439.993 924.772 440.198C924.446 440.403 924.092 440.501 923.781 440.49C923.471 440.48 923.197 440.36 923.047 440.121C922.897 439.883 922.908 439.584 923.033 439.3Z" fill="#959DA8"/>
<path d="M922.485 438.526C922.517 438.386 922.429 438.246 922.289 438.214C922.148 438.182 922.008 438.269 921.976 438.41C921.944 438.551 922.032 438.691 922.173 438.723C922.313 438.755 922.453 438.667 922.485 438.526Z" fill="#959DA8"/>
<path d="M924.33 437.414C924.435 437.348 924.466 437.21 924.4 437.106C924.335 437.001 924.197 436.969 924.092 437.035C923.987 437.101 923.956 437.239 924.021 437.344C924.087 437.448 924.225 437.48 924.33 437.414Z" fill="#959DA8"/>
<path d="M924.287 439.423C924.437 439.329 924.498 439.158 924.425 439.041C924.351 438.924 924.17 438.905 924.021 438.999C923.871 439.093 923.81 439.264 923.883 439.381C923.957 439.498 924.138 439.517 924.287 439.423Z" fill="#959DA8"/>
<path fill-rule="evenodd" clip-rule="evenodd" d="M924.411 439.73L924.246 439.469L924.359 439.397L924.524 439.659L924.411 439.73Z" fill="#959DA8"/>
<path fill-rule="evenodd" clip-rule="evenodd" d="M924.853 439.426C924.661 439.676 924.386 439.849 924.078 439.914L924.051 439.784C924.328 439.725 924.575 439.569 924.747 439.345L924.853 439.426Z" fill="#959DA8"/>
<path d="M938.24 443.095H920.309V457.941H938.24V443.095Z" fill="#F4F5F6"/>
<path fill-rule="evenodd" clip-rule="evenodd" d="M919.773 442.562H938.77V458.474H919.773V442.562ZM920.839 443.628V457.408H937.705V443.628H920.839Z" fill="#959DA8"/>
<path fill-rule="evenodd" clip-rule="evenodd" d="M932.056 443.095V457.941H931.523V443.095H932.056Z" fill="#959DA8"/>
<path d="M919.78 442.626L915.57 446.271H928.199L931.807 442.626H919.78Z" fill="#D3DCE5"/>
<path d="M941.999 445.712H934.959L931.805 442.626H938.839L941.999 445.712Z" fill="#D3DCE5"/>
<path d="M932.915 457.941H914.984V472.787H932.915V457.941Z" fill="#F4F5F6"/>
<path fill-rule="evenodd" clip-rule="evenodd" d="M914.453 457.408H933.45V473.319H914.453V457.408ZM915.519 458.473V472.254H932.384V458.473H915.519Z" fill="#959DA8"/>
<path fill-rule="evenodd" clip-rule="evenodd" d="M926.728 458.33V472.792H926.195V458.33H926.728Z" fill="#959DA8"/>
<path d="M950.849 457.941H932.918V472.787H950.849V457.941Z" fill="#F4F5F6"/>
<path fill-rule="evenodd" clip-rule="evenodd" d="M932.379 457.408H951.376V473.319H932.379V457.408ZM933.445 458.473V472.254H950.31V458.473H933.445Z" fill="#959DA8"/>
<path fill-rule="evenodd" clip-rule="evenodd" d="M947.748 457.941V472.792H947.215V457.941H947.748Z" fill="#959DA8"/>
<path d="M910.936 473.047H899.25L907.664 457.151H919.35L910.936 473.047Z" fill="#F4F5F6"/>
<path fill-rule="evenodd" clip-rule="evenodd" d="M907.341 456.618H920.233L911.255 473.58H898.363L907.341 456.618ZM907.983 457.684L900.133 472.514H910.613L918.463 457.684H907.983Z" fill="#959DA8"/>
<path d="M909.061 460.636C909.716 459.63 909.947 458.619 909.577 458.378C909.207 458.137 908.376 458.757 907.721 459.764C907.066 460.77 906.835 461.781 907.205 462.022C907.575 462.263 908.406 461.642 909.061 460.636Z" fill="#D3DCE5"/>
<path d="M911.112 468.323C912.711 465.867 913.278 463.4 912.378 462.814C911.477 462.228 909.451 463.745 907.852 466.201C906.253 468.658 905.687 471.124 906.587 471.71C907.487 472.296 909.513 470.78 911.112 468.323Z" fill="#D3DCE5"/>
<path fill-rule="evenodd" clip-rule="evenodd" d="M911.196 458.66V466.185H904.926L911.196 458.66ZM906.063 465.652H910.663V460.132L906.063 465.652Z" fill="#959DA8"/>
<line y1="474" x2="1300" y2="474" stroke="#D9DDE2" stroke-width="2" stroke-miterlimit="10"/>
</g>
</svg>
