<svg width="1300" height="499" viewBox="0 0 1300 499" fill="none" xmlns="http://www.w3.org/2000/svg">
<mask id="mask0" mask-type="alpha" maskUnits="userSpaceOnUse" x="0" y="0" width="1300" height="499">
<rect width="1300" height="499" rx="16" fill="#2A3A51"/>
</mask>
<g mask="url(#mask0)">
<path d="M889.149 74H350.191V86.3769H889.149V74Z" fill="#D3DCE5"/>
<path d="M868.719 395.799H374.492V473.436H868.719V395.799Z" fill="#F4F5F6" stroke="#959DA8" stroke-width="1.09175" stroke-miterlimit="10"/>
<path d="M868.719 318.163H374.492V395.8H868.719V318.163Z" fill="#F4F5F6" stroke="#959DA8" stroke-width="1.09175" stroke-miterlimit="10"/>
<path d="M868.719 241.088H374.492V318.725H868.719V241.088Z" fill="#F4F5F6" stroke="#959DA8" stroke-width="1.09175" stroke-miterlimit="10"/>
<path d="M868.719 163.45H374.492V241.087H868.719V163.45Z" fill="#F4F5F6" stroke="#959DA8" stroke-width="1.09175" stroke-miterlimit="10"/>
<path d="M868.719 85.814H374.492V163.451H868.719V85.814Z" fill="#F4F5F6" stroke="#959DA8" stroke-width="1.09175" stroke-miterlimit="10"/>
<path d="M431.947 411.854H407.84V464.225H431.947V411.854Z" fill="#D3DCE5"/>
<path d="M428.534 415.181H411.246V440.121H428.534V415.181Z" fill="white" stroke="#959DA8" stroke-width="0.545875" stroke-miterlimit="10"/>
<path d="M399.865 395.235H395.426V462.746H399.865V395.235Z" fill="#F4F5F6" stroke="#959DA8" stroke-width="1.09175" stroke-miterlimit="10"/>
<path d="M443.744 395.235H439.305V472.872H443.744V395.235Z" fill="#F4F5F6" stroke="#959DA8" stroke-width="1.09175" stroke-miterlimit="10"/>
<path d="M455.959 462.531H384.117V468.028H455.959V462.531Z" fill="#F4F5F6" stroke="#959DA8" stroke-width="1.09175" stroke-miterlimit="10"/>
<path d="M455.959 468.016H384.117V473.513H455.959V468.016Z" fill="#F4F5F6" stroke="#959DA8" stroke-width="1.09175" stroke-miterlimit="10"/>
<path d="M412.36 444.461C412.981 444.461 413.485 443.958 413.485 443.336C413.485 442.715 412.981 442.211 412.36 442.211C411.738 442.211 411.234 442.715 411.234 443.336C411.234 443.958 411.738 444.461 412.36 444.461Z" fill="white" stroke="#959DA8" stroke-width="0.545875" stroke-miterlimit="10"/>
<path d="M718.238 175.827H735.408V218.584H718.238V175.827Z" fill="white" stroke="#959DA8" stroke-width="0.545875" stroke-miterlimit="10"/>
<path d="M735.412 188.39H718.242" stroke="#959DA8" stroke-width="0.545875" stroke-miterlimit="10"/>
<path d="M718.238 98.1913H735.408V140.948H718.238V98.1913Z" fill="white" stroke="#959DA8" stroke-width="0.545875" stroke-miterlimit="10"/>
<path d="M735.412 110.754H718.242" stroke="#959DA8" stroke-width="0.545875" stroke-miterlimit="10"/>
<path d="M718.238 253.466H735.408V296.222H718.238V253.466Z" fill="white" stroke="#959DA8" stroke-width="0.545875" stroke-miterlimit="10"/>
<path d="M735.412 266.028H718.242" stroke="#959DA8" stroke-width="0.545875" stroke-miterlimit="10"/>
<path d="M718.238 330.54H735.408V373.297H718.238V330.54Z" fill="white" stroke="#959DA8" stroke-width="0.545875" stroke-miterlimit="10"/>
<path d="M735.412 343.101H718.242" stroke="#959DA8" stroke-width="0.545875" stroke-miterlimit="10"/>
<path d="M718.238 411.55H735.408V454.306H718.238V411.55Z" fill="white" stroke="#959DA8" stroke-width="0.545875" stroke-miterlimit="10"/>
<path d="M735.412 424.115H718.242" stroke="#959DA8" stroke-width="0.545875" stroke-miterlimit="10"/>
<path d="M509.516 332.791H526.686V375.547H509.516V332.791Z" fill="white" stroke="#959DA8" stroke-width="0.545875" stroke-miterlimit="10"/>
<path d="M526.697 345.351H509.527" stroke="#959DA8" stroke-width="0.545875" stroke-miterlimit="10"/>
<path d="M509.516 253.466H526.686V296.222H509.516V253.466Z" fill="white" stroke="#959DA8" stroke-width="0.545875" stroke-miterlimit="10"/>
<path d="M526.697 266.028H509.527" stroke="#959DA8" stroke-width="0.545875" stroke-miterlimit="10"/>
<path d="M509.516 175.827H526.686V218.584H509.516V175.827Z" fill="white" stroke="#959DA8" stroke-width="0.545875" stroke-miterlimit="10"/>
<path d="M526.697 188.39H509.527" stroke="#959DA8" stroke-width="0.545875" stroke-miterlimit="10"/>
<path d="M509.516 98.1913H526.686V140.948H509.516V98.1913Z" fill="white" stroke="#959DA8" stroke-width="0.545875" stroke-miterlimit="10"/>
<path d="M526.697 110.754H509.527" stroke="#959DA8" stroke-width="0.545875" stroke-miterlimit="10"/>
<path d="M509.516 413.241H526.686V455.997H509.516V413.241Z" fill="white" stroke="#959DA8" stroke-width="0.545875" stroke-miterlimit="10"/>
<path d="M526.697 425.801H509.527" stroke="#959DA8" stroke-width="0.545875" stroke-miterlimit="10"/>
<path d="M528.035 458.552H507.974L507.715 453.562H528.294L528.035 458.552Z" fill="#D3DCE5"/>
<path d="M528.035 375.851H507.974L507.715 370.861H528.294L528.035 375.851Z" fill="#D3DCE5"/>
<path d="M528.035 298.774H507.974L507.715 293.784H528.294L528.035 298.774Z" fill="#D3DCE5"/>
<path d="M528.035 221.138H507.974L507.715 216.148H528.294L528.035 221.138Z" fill="#D3DCE5"/>
<path d="M528.035 143.502H507.974L507.715 138.512H528.294L528.035 143.502Z" fill="#D3DCE5"/>
<path d="M736.992 458.552H716.931L716.672 453.562H737.251L736.992 458.552Z" fill="#D3DCE5"/>
<path d="M736.992 375.851H716.931L716.672 370.861H737.251L736.992 375.851Z" fill="#D3DCE5"/>
<path d="M736.992 298.774H716.931L716.672 293.784H737.251L736.992 298.774Z" fill="#D3DCE5"/>
<path d="M736.992 221.138H716.931L716.672 216.148H737.251L736.992 221.138Z" fill="#D3DCE5"/>
<path d="M736.992 143.502H716.931L716.672 138.512H737.251L736.992 143.502Z" fill="#D3DCE5"/>
<path d="M385.072 141.655C385.294 141.657 385.514 141.634 385.731 141.588C395.857 139.287 395.857 127.068 395.857 127.068C395.947 119.622 393.586 112.354 389.14 106.381C388.668 105.757 388.057 105.25 387.357 104.901C386.656 104.552 385.883 104.371 385.101 104.371C384.318 104.371 383.545 104.552 382.845 104.901C382.144 105.25 381.533 105.757 381.061 106.381C376.613 112.353 374.251 119.621 374.338 127.068C374.338 127.068 374.338 139.315 384.431 141.593C384.647 141.64 384.868 141.662 385.089 141.661L385.072 141.655Z" fill="#80C33F"/>
<path d="M385.074 118.479V160.077" stroke="#2A3A51" stroke-width="0.545875" stroke-linecap="round" stroke-linejoin="round"/>
<path d="M780.006 139.407C780.227 139.408 780.448 139.386 780.664 139.339C790.791 137.038 790.791 124.819 790.791 124.819C790.88 117.374 788.52 110.105 784.074 104.133C783.601 103.508 782.991 103.002 782.29 102.653C781.589 102.304 780.817 102.122 780.034 102.122C779.251 102.122 778.479 102.304 777.778 102.653C777.077 103.002 776.467 103.508 775.995 104.133C771.546 110.105 769.184 117.373 769.272 124.819C769.272 124.819 769.272 137.067 779.365 139.345C779.581 139.391 779.802 139.414 780.023 139.413L780.006 139.407Z" fill="#80C33F"/>
<path d="M780.008 116.227V157.825" stroke="#2A3A51" stroke-width="0.545875" stroke-linecap="round" stroke-linejoin="round"/>
<path d="M422.766 376.841C422.761 375.589 423.057 374.354 423.63 373.241C424.203 372.127 425.036 371.168 426.058 370.445C427.08 369.721 428.261 369.255 429.502 369.084C430.742 368.914 432.006 369.045 433.185 369.466C433.641 367.63 434.564 365.944 435.864 364.572C437.165 363.199 438.799 362.187 440.607 361.633C442.415 361.079 444.335 361.002 446.181 361.411C448.028 361.819 449.737 362.699 451.143 363.963C452.135 361.187 454.076 358.85 456.623 357.364C459.169 355.878 462.159 355.338 465.064 355.84C467.97 356.341 470.605 357.852 472.507 360.106C474.408 362.359 475.453 365.212 475.458 368.16C475.459 368.596 475.437 369.032 475.39 369.466C476.237 369.156 477.132 368.998 478.034 368.999C482.366 368.999 486.135 372.515 485.86 376.824C485.82 377.535 485.701 378.239 485.505 378.923H423.058C422.87 378.239 422.775 377.533 422.777 376.824L422.766 376.841Z" fill="#80C33F"/>
<path d="M317 471.919C316.995 470.667 317.291 469.432 317.864 468.319C318.438 467.205 319.27 466.246 320.292 465.523C321.314 464.799 322.496 464.333 323.736 464.162C324.977 463.992 326.24 464.123 327.419 464.544C327.875 462.708 328.798 461.023 330.099 459.65C331.399 458.277 333.033 457.265 334.841 456.711C336.649 456.157 338.57 456.08 340.416 456.489C342.262 456.897 343.971 457.777 345.377 459.042C346.37 456.265 348.31 453.928 350.857 452.442C353.404 450.956 356.393 450.416 359.299 450.918C362.204 451.419 364.84 452.93 366.741 455.184C368.642 457.438 369.687 460.29 369.692 463.238C369.694 463.674 369.671 464.11 369.624 464.544C370.472 464.234 371.367 464.076 372.269 464.077C376.6 464.077 380.37 467.593 380.094 471.902C380.054 472.613 379.936 473.317 379.74 474.001H317.293C317.104 473.317 317.009 472.611 317.011 471.902L317 471.919Z" fill="#80C33F"/>
<path d="M450.065 98.3706H401.648V143.693H450.065V98.3706Z" fill="white" stroke="#959DA8" stroke-width="0.545875" stroke-miterlimit="10"/>
<path d="M425.859 98.3643V143.759" stroke="#959DA8" stroke-width="0.545875" stroke-miterlimit="10"/>
<path d="M450.065 176.009H401.648V221.331H450.065V176.009Z" fill="white" stroke="#959DA8" stroke-width="0.545875" stroke-miterlimit="10"/>
<path d="M425.859 176.002V221.398" stroke="#959DA8" stroke-width="0.545875" stroke-miterlimit="10"/>
<path d="M450.065 253.083H401.648V298.405H450.065V253.083Z" fill="white" stroke="#959DA8" stroke-width="0.545875" stroke-miterlimit="10"/>
<path d="M425.859 253.077V298.472" stroke="#959DA8" stroke-width="0.545875" stroke-miterlimit="10"/>
<path d="M450.065 332.406H401.648V377.728H450.065V332.406Z" fill="white" stroke="#959DA8" stroke-width="0.545875" stroke-miterlimit="10"/>
<path d="M425.859 332.402V377.797" stroke="#959DA8" stroke-width="0.545875" stroke-miterlimit="10"/>
<path d="M614.338 98.3704H565.922V143.692H614.338V98.3704Z" fill="white" stroke="#959DA8" stroke-width="0.545875" stroke-miterlimit="10"/>
<path d="M590.137 98.3644V143.759" stroke="#959DA8" stroke-width="0.545875" stroke-miterlimit="10"/>
<path d="M614.338 176.009H565.922V221.33H614.338V176.009Z" fill="white" stroke="#959DA8" stroke-width="0.545875" stroke-miterlimit="10"/>
<path d="M590.137 176.003V221.398" stroke="#959DA8" stroke-width="0.545875" stroke-miterlimit="10"/>
<path d="M614.338 253.083H565.922V298.405H614.338V253.083Z" fill="white" stroke="#959DA8" stroke-width="0.545875" stroke-miterlimit="10"/>
<path d="M590.137 253.077V298.472" stroke="#959DA8" stroke-width="0.545875" stroke-miterlimit="10"/>
<path d="M614.338 332.406H565.922V377.728H614.338V332.406Z" fill="white" stroke="#959DA8" stroke-width="0.545875" stroke-miterlimit="10"/>
<path d="M590.137 332.402V377.797" stroke="#959DA8" stroke-width="0.545875" stroke-miterlimit="10"/>
<path d="M614.338 413.42H565.922V458.742H614.338V413.42Z" fill="white" stroke="#959DA8" stroke-width="0.545875" stroke-miterlimit="10"/>
<path d="M590.137 413.414V458.809" stroke="#959DA8" stroke-width="0.545875" stroke-miterlimit="10"/>
<path d="M681.85 98.3704H633.434V143.692H681.85V98.3704Z" fill="white" stroke="#959DA8" stroke-width="0.545875" stroke-miterlimit="10"/>
<path d="M657.645 98.3643V143.759" stroke="#959DA8" stroke-width="0.545875" stroke-miterlimit="10"/>
<path d="M681.85 176.009H633.434V221.33H681.85V176.009Z" fill="white" stroke="#959DA8" stroke-width="0.545875" stroke-miterlimit="10"/>
<path d="M657.645 176.002V221.398" stroke="#959DA8" stroke-width="0.545875" stroke-miterlimit="10"/>
<path d="M681.85 253.083H633.434V298.405H681.85V253.083Z" fill="white" stroke="#959DA8" stroke-width="0.545875" stroke-miterlimit="10"/>
<path d="M657.645 253.077V298.472" stroke="#959DA8" stroke-width="0.545875" stroke-miterlimit="10"/>
<path d="M681.85 332.406H633.434V377.728H681.85V332.406Z" fill="white" stroke="#959DA8" stroke-width="0.545875" stroke-miterlimit="10"/>
<path d="M657.645 332.402V377.797" stroke="#959DA8" stroke-width="0.545875" stroke-miterlimit="10"/>
<path d="M681.85 413.42H633.434V458.742H681.85V413.42Z" fill="white" stroke="#959DA8" stroke-width="0.545875" stroke-miterlimit="10"/>
<path d="M657.645 413.414V458.809" stroke="#959DA8" stroke-width="0.545875" stroke-miterlimit="10"/>
<path d="M839.373 98.3704H790.957V143.692H839.373V98.3704Z" fill="white" stroke="#959DA8" stroke-width="0.545875" stroke-miterlimit="10"/>
<path d="M815.172 98.3644V143.759" stroke="#959DA8" stroke-width="0.545875" stroke-miterlimit="10"/>
<path d="M839.373 176.009H790.957V221.33H839.373V176.009Z" fill="white" stroke="#959DA8" stroke-width="0.545875" stroke-miterlimit="10"/>
<path d="M815.172 176.003V221.398" stroke="#959DA8" stroke-width="0.545875" stroke-miterlimit="10"/>
<path d="M839.373 253.083H790.957V298.405H839.373V253.083Z" fill="white" stroke="#959DA8" stroke-width="0.545875" stroke-miterlimit="10"/>
<path d="M815.172 253.077V298.472" stroke="#959DA8" stroke-width="0.545875" stroke-miterlimit="10"/>
<path d="M839.373 332.406H790.957V377.728H839.373V332.406Z" fill="white" stroke="#959DA8" stroke-width="0.545875" stroke-miterlimit="10"/>
<path d="M815.172 332.402V377.797" stroke="#959DA8" stroke-width="0.545875" stroke-miterlimit="10"/>
<path d="M839.373 413.42H790.957V458.742H839.373V413.42Z" fill="white" stroke="#959DA8" stroke-width="0.545875" stroke-miterlimit="10"/>
<path d="M815.172 413.414V458.809" stroke="#959DA8" stroke-width="0.545875" stroke-miterlimit="10"/>
<path d="M488.586 210.989H362.848V241.931H488.586V210.989Z" fill="#D3DCE5"/>
<path d="M488.586 133.353H362.848V164.295H488.586V133.353Z" fill="#D3DCE5"/>
<path d="M488.586 365.702H362.848V396.644H488.586V365.702Z" fill="#D3DCE5"/>
<path d="M882.398 288.627H756.66V319.569H882.398V288.627Z" fill="#D3DCE5"/>
<path d="M882.398 133.353H756.66V164.295H882.398V133.353Z" fill="#D3DCE5"/>
<path d="M882.398 365.702H756.66V396.644H882.398V365.702Z" fill="#D3DCE5"/>
<path d="M882.398 442.774H756.66V473.717H882.398V442.774Z" fill="#D3DCE5"/>
<path d="M647.664 440.091C648.016 438.322 647.998 436.498 647.613 434.736C647.234 432.991 646.491 431.345 645.43 429.909C644.399 428.507 643.067 427.353 641.531 426.533C640.032 425.731 638.365 425.294 636.665 425.258C634.965 425.222 633.28 425.588 631.748 426.325C630.186 427.077 628.813 428.171 627.731 429.526C626.619 430.916 625.816 432.527 625.374 434.252C624.924 435.999 624.839 437.821 625.126 439.602C623.855 440.267 622.745 441.202 621.875 442.342C620.981 443.51 620.339 444.851 619.99 446.28C619.634 447.725 619.572 449.227 619.81 450.696C620.045 452.154 620.577 453.548 621.374 454.792C622.149 456.006 623.178 457.039 624.389 457.819C625.578 458.581 626.925 459.062 628.328 459.225C629.716 459.385 631.124 459.224 632.44 458.752C633.777 458.275 634.992 457.506 635.996 456.502C636.967 457.492 638.142 458.26 639.439 458.752C640.711 459.236 642.076 459.428 643.433 459.315C644.794 459.191 646.11 458.766 647.287 458.072C648.49 457.36 649.529 456.401 650.336 455.259C651.163 454.089 651.747 452.765 652.052 451.366C652.363 449.953 652.393 448.492 652.142 447.068C651.908 445.642 651.39 444.277 650.617 443.056C649.853 441.871 648.846 440.86 647.664 440.091Z" fill="#80C33F"/>
<path d="M636.431 450.815L631.137 447.046" stroke="#2A3A51" stroke-width="0.545875" stroke-linecap="round" stroke-linejoin="round"/>
<path d="M636.43 455.524L642.618 449.898" stroke="#2A3A51" stroke-width="0.545875" stroke-linecap="round" stroke-linejoin="round"/>
<path d="M636.43 439.501V473.437" stroke="#2A3A51" stroke-width="0.545875" stroke-linecap="round" stroke-linejoin="round"/>
<path d="M410.951 299.182C411.173 299.184 411.393 299.161 411.61 299.115C421.736 296.814 421.736 284.594 421.736 284.594C421.826 277.149 419.465 269.881 415.019 263.908C414.547 263.283 413.936 262.777 413.235 262.428C412.535 262.079 411.762 261.898 410.979 261.898C410.197 261.898 409.424 262.079 408.723 262.428C408.023 262.777 407.412 263.283 406.94 263.908C402.492 269.88 400.129 277.148 400.217 284.594C400.217 284.594 400.217 296.842 410.31 299.12C410.526 299.167 410.747 299.189 410.968 299.188L410.951 299.182Z" fill="#80C33F"/>
<path d="M410.949 276.002V317.6" stroke="#2A3A51" stroke-width="0.545875" stroke-linecap="round" stroke-linejoin="round"/>
<path d="M488.586 288.627H362.848V319.569H488.586V288.627Z" fill="#D3DCE5"/>
<path d="M815.449 219.316C815.444 218.064 815.741 216.829 816.314 215.716C816.887 214.602 817.72 213.643 818.742 212.92C819.764 212.196 820.945 211.73 822.185 211.559C823.426 211.389 824.689 211.52 825.868 211.941C826.324 210.105 827.247 208.419 828.548 207.047C829.848 205.674 831.482 204.662 833.29 204.108C835.098 203.554 837.019 203.477 838.865 203.886C840.711 204.294 842.421 205.174 843.826 206.439C844.819 203.662 846.76 201.325 849.306 199.839C851.853 198.353 854.842 197.813 857.748 198.315C860.654 198.816 863.289 200.327 865.19 202.581C867.091 204.835 868.136 207.687 868.141 210.635C868.143 211.071 868.12 211.507 868.074 211.941C868.921 211.631 869.816 211.473 870.718 211.474C875.05 211.474 878.819 214.99 878.543 219.299C878.504 220.01 878.385 220.714 878.189 221.398H815.742C815.553 220.714 815.459 220.008 815.461 219.299L815.449 219.316Z" fill="#80C33F"/>
<path d="M882.398 210.989H756.66V241.932H882.398V210.989Z" fill="#D3DCE5"/>
<path d="M889.147 452.486C889.4 452.487 889.653 452.461 889.901 452.407C901.422 449.785 901.428 435.827 901.428 435.827C901.428 416.806 889.152 407.271 889.152 407.271C889.152 407.271 876.871 416.784 876.871 435.827C876.871 435.827 876.871 449.802 888.393 452.407C888.64 452.461 888.893 452.487 889.147 452.486Z" fill="#80C33F"/>
<path d="M889.148 426.039V473.516" stroke="#2A3A51" stroke-width="0.545875" stroke-linecap="round" stroke-linejoin="round"/>
<line y1="474" x2="1300" y2="474" stroke="#D9DDE2" stroke-width="2" stroke-miterlimit="10"/>
</g>
</svg>
