<svg width="798" height="650" viewBox="0 0 798 650" fill="none" xmlns="http://www.w3.org/2000/svg">
<path d="M780.458 0H45.2749V16.8831H780.458V0Z" fill="#D3DCE5"/>
<path d="M752.593 543.332H78.4268V649.235H752.593V543.332Z" fill="#F4F5F6" stroke="#959DA8" stroke-width="1.53483" stroke-miterlimit="10"/>
<path d="M752.593 437.425H78.4268V543.328H752.593V437.425Z" fill="#F4F5F6" stroke="#959DA8" stroke-width="1.53483" stroke-miterlimit="10"/>
<path d="M752.593 332.291H78.4268V438.194H752.593V332.291Z" fill="#F4F5F6" stroke="#959DA8" stroke-width="1.53483" stroke-miterlimit="10"/>
<path d="M752.593 226.391H78.4268V332.294H752.593V226.391Z" fill="#F4F5F6" stroke="#959DA8" stroke-width="1.53483" stroke-miterlimit="10"/>
<path d="M752.593 120.487H78.4268V226.39H752.593V120.487Z" fill="#F4F5F6" stroke="#959DA8" stroke-width="1.53483" stroke-miterlimit="10"/>
<path d="M162.695 455.078H100.535V542.478H162.695V455.078Z" fill="white" stroke="#959DA8" stroke-width="0.767415" stroke-miterlimit="10"/>
<path d="M135.44 454.897V541.032" stroke="#959DA8" stroke-width="0.767415" stroke-miterlimit="10"/>
<path d="M162.695 349.171H100.535V436.572H162.695V349.171Z" fill="white" stroke="#959DA8" stroke-width="0.767415" stroke-miterlimit="10"/>
<path d="M135.44 348.991V435.126" stroke="#959DA8" stroke-width="0.767415" stroke-miterlimit="10"/>
<path d="M162.695 243.269H100.535V330.669H162.695V243.269Z" fill="white" stroke="#959DA8" stroke-width="0.767415" stroke-miterlimit="10"/>
<path d="M135.44 243.086V329.221" stroke="#959DA8" stroke-width="0.767415" stroke-miterlimit="10"/>
<path d="M162.695 137.365H100.535V224.766H162.695V137.365Z" fill="white" stroke="#959DA8" stroke-width="0.767415" stroke-miterlimit="10"/>
<path d="M135.44 137.183V223.317" stroke="#959DA8" stroke-width="0.767415" stroke-miterlimit="10"/>
<path d="M728.273 455.846H666.112V543.247H728.273V455.846Z" fill="white" stroke="#959DA8" stroke-width="0.767415" stroke-miterlimit="10"/>
<path d="M701.04 455.661V541.795" stroke="#959DA8" stroke-width="0.767415" stroke-miterlimit="10"/>
<path d="M728.273 349.94H666.112V437.341H728.273V349.94Z" fill="white" stroke="#959DA8" stroke-width="0.767415" stroke-miterlimit="10"/>
<path d="M701.04 349.754V435.889" stroke="#959DA8" stroke-width="0.767415" stroke-miterlimit="10"/>
<path d="M728.273 244.034H666.112V331.435H728.273V244.034Z" fill="white" stroke="#959DA8" stroke-width="0.767415" stroke-miterlimit="10"/>
<path d="M701.04 243.854V329.989" stroke="#959DA8" stroke-width="0.767415" stroke-miterlimit="10"/>
<path d="M728.273 138.131H666.112V225.532H728.273V138.131Z" fill="white" stroke="#959DA8" stroke-width="0.767415" stroke-miterlimit="10"/>
<path d="M701.04 137.951V224.085" stroke="#959DA8" stroke-width="0.767415" stroke-miterlimit="10"/>
<path d="M752.593 15.3472H78.4268V121.25H752.593V15.3472Z" fill="#F4F5F6" stroke="#959DA8" stroke-width="1.53483" stroke-miterlimit="10"/>
<path d="M162.695 32.231H100.535V119.632H162.695V32.231Z" fill="white" stroke="#959DA8" stroke-width="0.767415" stroke-miterlimit="10"/>
<path d="M135.44 32.0503V118.185" stroke="#959DA8" stroke-width="0.767415" stroke-miterlimit="10"/>
<path d="M728.273 32.999H666.112V120.4H728.273V32.999Z" fill="white" stroke="#959DA8" stroke-width="0.767415" stroke-miterlimit="10"/>
<path d="M701.04 32.8135V118.948" stroke="#959DA8" stroke-width="0.767415" stroke-miterlimit="10"/>
<path d="M490.958 603.749C491.438 601.335 491.415 598.847 490.889 596.443C490.373 594.062 489.358 591.818 487.911 589.858C486.505 587.946 484.687 586.373 482.593 585.254C480.548 584.16 478.273 583.564 475.954 583.515C473.636 583.466 471.338 583.964 469.248 584.97C467.117 585.997 465.245 587.489 463.768 589.337C462.252 591.233 461.156 593.431 460.553 595.783C459.939 598.166 459.824 600.651 460.215 603.081C458.482 603.988 456.967 605.263 455.78 606.818C454.56 608.412 453.685 610.241 453.209 612.19C452.722 614.161 452.639 616.21 452.963 618.214C453.284 620.203 454.01 622.105 455.097 623.801C456.154 625.458 457.557 626.867 459.21 627.93C460.831 628.97 462.669 629.626 464.582 629.848C466.477 630.067 468.396 629.847 470.192 629.204C472.016 628.552 473.672 627.504 475.042 626.134C476.367 627.485 477.97 628.532 479.738 629.204C481.475 629.863 483.336 630.125 485.187 629.971C487.043 629.801 488.838 629.222 490.444 628.275C492.086 627.304 493.503 625.996 494.603 624.438C495.731 622.843 496.527 621.037 496.944 619.128C497.368 617.2 497.41 615.208 497.067 613.265C496.748 611.32 496.041 609.459 494.987 607.793C493.944 606.176 492.571 604.797 490.958 603.749Z" fill="#80C33F"/>
<path d="M475.636 618.373L468.415 613.231" stroke="#2A3A51" stroke-width="0.767415" stroke-linecap="round" stroke-linejoin="round"/>
<path d="M475.632 624.796L484.073 617.122" stroke="#2A3A51" stroke-width="0.767415" stroke-linecap="round" stroke-linejoin="round"/>
<path d="M475.632 602.943V649.233" stroke="#2A3A51" stroke-width="0.767415" stroke-linecap="round" stroke-linejoin="round"/>
<path d="M780.462 622.656C780.808 622.659 781.153 622.623 781.491 622.549C797.207 618.973 797.215 599.933 797.215 599.933C797.215 573.987 780.47 560.979 780.47 560.979C780.47 560.979 763.717 573.956 763.717 599.933C763.717 599.933 763.717 618.996 779.434 622.549C779.772 622.622 780.117 622.658 780.462 622.656Z" fill="#80C33F"/>
<path d="M780.46 586.581V651.343" stroke="#2A3A51" stroke-width="0.767415" stroke-linecap="round" stroke-linejoin="round"/>
<path d="M8.97108e-05 647.161C-0.00692488 645.453 0.397517 643.768 1.17921 642.25C1.9609 640.731 3.09684 639.423 4.49096 638.436C5.88508 637.449 7.49637 636.813 9.18854 636.58C10.8807 636.348 12.604 636.526 14.2126 637.1C14.8343 634.597 16.0935 632.297 17.8676 630.425C19.6417 628.552 21.8703 627.171 24.3366 626.416C26.8028 625.66 29.4227 625.556 31.9412 626.113C34.4597 626.67 36.7911 627.87 38.7085 629.595C40.0628 625.808 42.7101 622.62 46.184 620.593C49.6579 618.566 53.7356 617.829 57.6991 618.514C61.6626 619.198 65.2575 621.258 67.8509 624.333C70.4443 627.407 71.8697 631.298 71.8761 635.32C71.8783 635.915 71.8476 636.509 71.784 637.1C72.9397 636.678 74.1605 636.463 75.3909 636.463C81.3 636.463 86.4416 641.26 86.0656 647.138C86.0114 648.107 85.8493 649.067 85.5821 650.001H0.383797C0.126535 649.068 -0.00255317 648.105 8.97108e-05 647.138V647.161Z" fill="#80C33F"/>
<path d="M567.437 15.0117H258.199V650H567.437V15.0117Z" fill="#F4F5F6" stroke="#959DA8" stroke-width="1.66529" stroke-miterlimit="10"/>
<path d="M431.533 565.229H398.649V636.667H431.533V565.229Z" fill="#D3DCE5"/>
<path d="M426.882 569.766H403.3V603.785H426.882V569.766Z" fill="white" stroke="#959DA8" stroke-width="0.767415" stroke-miterlimit="10"/>
<path d="M372.417 542.562H366.362V634.652H372.417V542.562Z" fill="#F4F5F6" stroke="#959DA8" stroke-width="1.53483" stroke-miterlimit="10"/>
<path d="M464.499 542.562H458.444V648.466H464.499V542.562Z" fill="#F4F5F6" stroke="#959DA8" stroke-width="1.53483" stroke-miterlimit="10"/>
<path d="M464.288 634.357H366.289V641.855H464.288V634.357Z" fill="#F4F5F6" stroke="#959DA8" stroke-width="1.53483" stroke-miterlimit="10"/>
<path d="M464.288 641.845H366.289V649.342H464.288V641.845Z" fill="#F4F5F6" stroke="#959DA8" stroke-width="1.53483" stroke-miterlimit="10"/>
<path d="M404.807 609.711C405.654 609.711 406.342 609.024 406.342 608.176C406.342 607.329 405.654 606.642 404.807 606.642C403.959 606.642 403.272 607.329 403.272 608.176C403.272 609.024 403.959 609.711 404.807 609.711Z" fill="white" stroke="#959DA8" stroke-width="0.767415" stroke-miterlimit="10"/>
<path d="M504.96 527.21H324.617V544.093H504.96V527.21Z" fill="#D3DCE5"/>
<path d="M155.323 289.698V332.289H147.986L147.994 289.698H155.323Z" fill="#F4F5F6" stroke="#959DA8" stroke-width="0.767415" stroke-miterlimit="10"/>
<path d="M163.003 289.698H155.505V332.289H163.003V289.698Z" fill="#F4F5F6" stroke="#959DA8" stroke-width="0.767415" stroke-miterlimit="10"/>
<path d="M170.673 289.698H163.176V332.289H170.673V289.698Z" fill="#F4F5F6" stroke="#959DA8" stroke-width="0.767415" stroke-miterlimit="10"/>
<path d="M178.346 289.698H170.849V332.289H178.346V289.698Z" fill="#F4F5F6" stroke="#959DA8" stroke-width="0.767415" stroke-miterlimit="10"/>
<path d="M78.585 289.698V332.289H71.2485L71.2562 289.698H78.585Z" fill="#F4F5F6" stroke="#959DA8" stroke-width="0.767415" stroke-miterlimit="10"/>
<path d="M70.9092 289.698V332.289H63.5728L63.5804 289.698H70.9092Z" fill="#F4F5F6" stroke="#959DA8" stroke-width="0.767415" stroke-miterlimit="10"/>
<path d="M86.2564 289.698H78.7588V332.289H86.2564V289.698Z" fill="#F4F5F6" stroke="#959DA8" stroke-width="0.767415" stroke-miterlimit="10"/>
<path d="M93.9268 289.698H86.4292V332.289H93.9268V289.698Z" fill="#F4F5F6" stroke="#959DA8" stroke-width="0.767415" stroke-miterlimit="10"/>
<path d="M101.607 289.698H94.1089V332.289H101.607V289.698Z" fill="#F4F5F6" stroke="#959DA8" stroke-width="0.767415" stroke-miterlimit="10"/>
<path d="M109.28 289.698H101.782V332.289H109.28V289.698Z" fill="#F4F5F6" stroke="#959DA8" stroke-width="0.767415" stroke-miterlimit="10"/>
<path d="M116.951 289.698H109.453V332.289H116.951V289.698Z" fill="#F4F5F6" stroke="#959DA8" stroke-width="0.767415" stroke-miterlimit="10"/>
<path d="M124.629 289.698H117.132V332.289H124.629V289.698Z" fill="#F4F5F6" stroke="#959DA8" stroke-width="0.767415" stroke-miterlimit="10"/>
<path d="M132.303 289.698H124.806V332.289H132.303V289.698Z" fill="#F4F5F6" stroke="#959DA8" stroke-width="0.767415" stroke-miterlimit="10"/>
<path d="M139.974 289.698H132.476V332.289H139.974V289.698Z" fill="#F4F5F6" stroke="#959DA8" stroke-width="0.767415" stroke-miterlimit="10"/>
<path d="M147.645 289.698H140.147V332.289H147.645V289.698Z" fill="#F4F5F6" stroke="#959DA8" stroke-width="0.767415" stroke-miterlimit="10"/>
<path d="M178.042 290.081H63.9048V332.288H178.042V290.081Z" stroke="#959DA8" stroke-width="1.53483" stroke-miterlimit="10"/>
<path d="M155.323 183.797V226.389H147.986L147.994 183.797H155.323Z" fill="#F4F5F6" stroke="#959DA8" stroke-width="0.767415" stroke-miterlimit="10"/>
<path d="M163.003 183.797H155.505V226.389H163.003V183.797Z" fill="#F4F5F6" stroke="#959DA8" stroke-width="0.767415" stroke-miterlimit="10"/>
<path d="M170.673 183.797H163.176V226.389H170.673V183.797Z" fill="#F4F5F6" stroke="#959DA8" stroke-width="0.767415" stroke-miterlimit="10"/>
<path d="M178.346 183.797H170.849V226.389H178.346V183.797Z" fill="#F4F5F6" stroke="#959DA8" stroke-width="0.767415" stroke-miterlimit="10"/>
<path d="M78.585 183.797V226.389H71.2485L71.2562 183.797H78.585Z" fill="#F4F5F6" stroke="#959DA8" stroke-width="0.767415" stroke-miterlimit="10"/>
<path d="M70.9092 183.797V226.389H63.5728L63.5804 183.797H70.9092Z" fill="#F4F5F6" stroke="#959DA8" stroke-width="0.767415" stroke-miterlimit="10"/>
<path d="M86.2564 183.797H78.7588V226.389H86.2564V183.797Z" fill="#F4F5F6" stroke="#959DA8" stroke-width="0.767415" stroke-miterlimit="10"/>
<path d="M93.9268 183.797H86.4292V226.389H93.9268V183.797Z" fill="#F4F5F6" stroke="#959DA8" stroke-width="0.767415" stroke-miterlimit="10"/>
<path d="M101.607 183.797H94.1089V226.389H101.607V183.797Z" fill="#F4F5F6" stroke="#959DA8" stroke-width="0.767415" stroke-miterlimit="10"/>
<path d="M109.28 183.797H101.782V226.389H109.28V183.797Z" fill="#F4F5F6" stroke="#959DA8" stroke-width="0.767415" stroke-miterlimit="10"/>
<path d="M116.951 183.797H109.453V226.389H116.951V183.797Z" fill="#F4F5F6" stroke="#959DA8" stroke-width="0.767415" stroke-miterlimit="10"/>
<path d="M124.629 183.797H117.132V226.389H124.629V183.797Z" fill="#F4F5F6" stroke="#959DA8" stroke-width="0.767415" stroke-miterlimit="10"/>
<path d="M132.303 183.797H124.806V226.389H132.303V183.797Z" fill="#F4F5F6" stroke="#959DA8" stroke-width="0.767415" stroke-miterlimit="10"/>
<path d="M139.974 183.797H132.476V226.389H139.974V183.797Z" fill="#F4F5F6" stroke="#959DA8" stroke-width="0.767415" stroke-miterlimit="10"/>
<path d="M147.645 183.797H140.147V226.389H147.645V183.797Z" fill="#F4F5F6" stroke="#959DA8" stroke-width="0.767415" stroke-miterlimit="10"/>
<path d="M178.042 184.18H63.9048V226.388H178.042V184.18Z" stroke="#959DA8" stroke-width="1.53483" stroke-miterlimit="10"/>
<path d="M155.323 395.601V438.193H147.986L147.994 395.601H155.323Z" fill="#F4F5F6" stroke="#959DA8" stroke-width="0.767415" stroke-miterlimit="10"/>
<path d="M163.003 395.601H155.505V438.193H163.003V395.601Z" fill="#F4F5F6" stroke="#959DA8" stroke-width="0.767415" stroke-miterlimit="10"/>
<path d="M170.673 395.601H163.176V438.193H170.673V395.601Z" fill="#F4F5F6" stroke="#959DA8" stroke-width="0.767415" stroke-miterlimit="10"/>
<path d="M178.346 395.601H170.849V438.193H178.346V395.601Z" fill="#F4F5F6" stroke="#959DA8" stroke-width="0.767415" stroke-miterlimit="10"/>
<path d="M78.585 395.601V438.193H71.2485L71.2562 395.601H78.585Z" fill="#F4F5F6" stroke="#959DA8" stroke-width="0.767415" stroke-miterlimit="10"/>
<path d="M70.9092 395.601V438.193H63.5728L63.5804 395.601H70.9092Z" fill="#F4F5F6" stroke="#959DA8" stroke-width="0.767415" stroke-miterlimit="10"/>
<path d="M86.2564 395.601H78.7588V438.193H86.2564V395.601Z" fill="#F4F5F6" stroke="#959DA8" stroke-width="0.767415" stroke-miterlimit="10"/>
<path d="M93.9268 395.601H86.4292V438.193H93.9268V395.601Z" fill="#F4F5F6" stroke="#959DA8" stroke-width="0.767415" stroke-miterlimit="10"/>
<path d="M101.607 395.601H94.1089V438.193H101.607V395.601Z" fill="#F4F5F6" stroke="#959DA8" stroke-width="0.767415" stroke-miterlimit="10"/>
<path d="M109.28 395.601H101.782V438.193H109.28V395.601Z" fill="#F4F5F6" stroke="#959DA8" stroke-width="0.767415" stroke-miterlimit="10"/>
<path d="M116.951 395.601H109.453V438.193H116.951V395.601Z" fill="#F4F5F6" stroke="#959DA8" stroke-width="0.767415" stroke-miterlimit="10"/>
<path d="M124.629 395.601H117.132V438.193H124.629V395.601Z" fill="#F4F5F6" stroke="#959DA8" stroke-width="0.767415" stroke-miterlimit="10"/>
<path d="M132.303 395.601H124.806V438.193H132.303V395.601Z" fill="#F4F5F6" stroke="#959DA8" stroke-width="0.767415" stroke-miterlimit="10"/>
<path d="M139.974 395.601H132.476V438.193H139.974V395.601Z" fill="#F4F5F6" stroke="#959DA8" stroke-width="0.767415" stroke-miterlimit="10"/>
<path d="M147.645 395.601H140.147V438.193H147.645V395.601Z" fill="#F4F5F6" stroke="#959DA8" stroke-width="0.767415" stroke-miterlimit="10"/>
<path d="M178.042 395.987H63.9048V438.195H178.042V395.987Z" stroke="#959DA8" stroke-width="1.53483" stroke-miterlimit="10"/>
<path d="M740.855 183.797V226.389H733.519L733.526 183.797H740.855Z" fill="#F4F5F6" stroke="#959DA8" stroke-width="0.767415" stroke-miterlimit="10"/>
<path d="M748.543 183.797H741.045V226.389H748.543V183.797Z" fill="#F4F5F6" stroke="#959DA8" stroke-width="0.767415" stroke-miterlimit="10"/>
<path d="M756.206 183.797H748.708V226.389H756.206V183.797Z" fill="#F4F5F6" stroke="#959DA8" stroke-width="0.767415" stroke-miterlimit="10"/>
<path d="M763.879 183.797H756.382V226.389H763.879V183.797Z" fill="#F4F5F6" stroke="#959DA8" stroke-width="0.767415" stroke-miterlimit="10"/>
<path d="M664.12 183.797V226.389H656.784L656.791 183.797H664.12Z" fill="#F4F5F6" stroke="#959DA8" stroke-width="0.767415" stroke-miterlimit="10"/>
<path d="M656.446 183.797V226.389H649.11L649.117 183.797H656.446Z" fill="#F4F5F6" stroke="#959DA8" stroke-width="0.767415" stroke-miterlimit="10"/>
<path d="M671.792 183.797H664.294V226.389H671.792V183.797Z" fill="#F4F5F6" stroke="#959DA8" stroke-width="0.767415" stroke-miterlimit="10"/>
<path d="M679.465 183.797H671.967V226.389H679.465V183.797Z" fill="#F4F5F6" stroke="#959DA8" stroke-width="0.767415" stroke-miterlimit="10"/>
<path d="M687.139 183.797H679.641V226.389H687.139V183.797Z" fill="#F4F5F6" stroke="#959DA8" stroke-width="0.767415" stroke-miterlimit="10"/>
<path d="M694.817 183.797H687.32V226.389H694.817V183.797Z" fill="#F4F5F6" stroke="#959DA8" stroke-width="0.767415" stroke-miterlimit="10"/>
<path d="M702.491 183.797H694.993V226.389H702.491V183.797Z" fill="#F4F5F6" stroke="#959DA8" stroke-width="0.767415" stroke-miterlimit="10"/>
<path d="M710.159 183.797H702.661V226.389H710.159V183.797Z" fill="#F4F5F6" stroke="#959DA8" stroke-width="0.767415" stroke-miterlimit="10"/>
<path d="M717.838 183.797H710.341V226.389H717.838V183.797Z" fill="#F4F5F6" stroke="#959DA8" stroke-width="0.767415" stroke-miterlimit="10"/>
<path d="M725.517 183.797H718.02V226.389H725.517V183.797Z" fill="#F4F5F6" stroke="#959DA8" stroke-width="0.767415" stroke-miterlimit="10"/>
<path d="M733.18 183.797H725.682V226.389H733.18V183.797Z" fill="#F4F5F6" stroke="#959DA8" stroke-width="0.767415" stroke-miterlimit="10"/>
<path d="M763.585 184.18H649.448V226.388H763.585V184.18Z" stroke="#959DA8" stroke-width="1.53483" stroke-miterlimit="10"/>
<path d="M740.855 501.501V544.093H733.519L733.526 501.501H740.855Z" fill="#F4F5F6" stroke="#959DA8" stroke-width="0.767415" stroke-miterlimit="10"/>
<path d="M748.543 501.501H741.045V544.093H748.543V501.501Z" fill="#F4F5F6" stroke="#959DA8" stroke-width="0.767415" stroke-miterlimit="10"/>
<path d="M756.206 501.501H748.708V544.093H756.206V501.501Z" fill="#F4F5F6" stroke="#959DA8" stroke-width="0.767415" stroke-miterlimit="10"/>
<path d="M763.879 501.501H756.382V544.093H763.879V501.501Z" fill="#F4F5F6" stroke="#959DA8" stroke-width="0.767415" stroke-miterlimit="10"/>
<path d="M664.12 501.501V544.093H656.784L656.791 501.501H664.12Z" fill="#F4F5F6" stroke="#959DA8" stroke-width="0.767415" stroke-miterlimit="10"/>
<path d="M656.446 501.501V544.093H649.11L649.117 501.501H656.446Z" fill="#F4F5F6" stroke="#959DA8" stroke-width="0.767415" stroke-miterlimit="10"/>
<path d="M671.792 501.501H664.294V544.093H671.792V501.501Z" fill="#F4F5F6" stroke="#959DA8" stroke-width="0.767415" stroke-miterlimit="10"/>
<path d="M679.465 501.501H671.967V544.093H679.465V501.501Z" fill="#F4F5F6" stroke="#959DA8" stroke-width="0.767415" stroke-miterlimit="10"/>
<path d="M687.139 501.501H679.641V544.093H687.139V501.501Z" fill="#F4F5F6" stroke="#959DA8" stroke-width="0.767415" stroke-miterlimit="10"/>
<path d="M694.817 501.501H687.32V544.093H694.817V501.501Z" fill="#F4F5F6" stroke="#959DA8" stroke-width="0.767415" stroke-miterlimit="10"/>
<path d="M702.491 501.501H694.993V544.093H702.491V501.501Z" fill="#F4F5F6" stroke="#959DA8" stroke-width="0.767415" stroke-miterlimit="10"/>
<path d="M710.159 501.501H702.661V544.093H710.159V501.501Z" fill="#F4F5F6" stroke="#959DA8" stroke-width="0.767415" stroke-miterlimit="10"/>
<path d="M717.838 501.501H710.341V544.093H717.838V501.501Z" fill="#F4F5F6" stroke="#959DA8" stroke-width="0.767415" stroke-miterlimit="10"/>
<path d="M725.517 501.501H718.02V544.093H725.517V501.501Z" fill="#F4F5F6" stroke="#959DA8" stroke-width="0.767415" stroke-miterlimit="10"/>
<path d="M733.18 501.501H725.682V544.093H733.18V501.501Z" fill="#F4F5F6" stroke="#959DA8" stroke-width="0.767415" stroke-miterlimit="10"/>
<path d="M763.585 501.89H649.448V544.097H763.585V501.89Z" stroke="#959DA8" stroke-width="1.53483" stroke-miterlimit="10"/>
<path d="M740.855 395.601V438.193H733.519L733.526 395.601H740.855Z" fill="#F4F5F6" stroke="#959DA8" stroke-width="0.767415" stroke-miterlimit="10"/>
<path d="M748.543 395.601H741.045V438.193H748.543V395.601Z" fill="#F4F5F6" stroke="#959DA8" stroke-width="0.767415" stroke-miterlimit="10"/>
<path d="M756.206 395.601H748.708V438.193H756.206V395.601Z" fill="#F4F5F6" stroke="#959DA8" stroke-width="0.767415" stroke-miterlimit="10"/>
<path d="M763.879 395.601H756.382V438.193H763.879V395.601Z" fill="#F4F5F6" stroke="#959DA8" stroke-width="0.767415" stroke-miterlimit="10"/>
<path d="M664.12 395.601V438.193H656.784L656.791 395.601H664.12Z" fill="#F4F5F6" stroke="#959DA8" stroke-width="0.767415" stroke-miterlimit="10"/>
<path d="M656.446 395.601V438.193H649.11L649.117 395.601H656.446Z" fill="#F4F5F6" stroke="#959DA8" stroke-width="0.767415" stroke-miterlimit="10"/>
<path d="M671.792 395.601H664.294V438.193H671.792V395.601Z" fill="#F4F5F6" stroke="#959DA8" stroke-width="0.767415" stroke-miterlimit="10"/>
<path d="M679.465 395.601H671.967V438.193H679.465V395.601Z" fill="#F4F5F6" stroke="#959DA8" stroke-width="0.767415" stroke-miterlimit="10"/>
<path d="M687.139 395.601H679.641V438.193H687.139V395.601Z" fill="#F4F5F6" stroke="#959DA8" stroke-width="0.767415" stroke-miterlimit="10"/>
<path d="M694.817 395.601H687.32V438.193H694.817V395.601Z" fill="#F4F5F6" stroke="#959DA8" stroke-width="0.767415" stroke-miterlimit="10"/>
<path d="M702.491 395.601H694.993V438.193H702.491V395.601Z" fill="#F4F5F6" stroke="#959DA8" stroke-width="0.767415" stroke-miterlimit="10"/>
<path d="M710.159 395.601H702.661V438.193H710.159V395.601Z" fill="#F4F5F6" stroke="#959DA8" stroke-width="0.767415" stroke-miterlimit="10"/>
<path d="M717.838 395.601H710.341V438.193H717.838V395.601Z" fill="#F4F5F6" stroke="#959DA8" stroke-width="0.767415" stroke-miterlimit="10"/>
<path d="M725.517 395.601H718.02V438.193H725.517V395.601Z" fill="#F4F5F6" stroke="#959DA8" stroke-width="0.767415" stroke-miterlimit="10"/>
<path d="M733.18 395.601H725.682V438.193H733.18V395.601Z" fill="#F4F5F6" stroke="#959DA8" stroke-width="0.767415" stroke-miterlimit="10"/>
<path d="M763.585 395.987H649.448V438.195H763.585V395.987Z" stroke="#959DA8" stroke-width="1.53483" stroke-miterlimit="10"/>
<path d="M740.855 78.6602V121.252H733.519L733.526 78.6602H740.855Z" fill="#F4F5F6" stroke="#959DA8" stroke-width="0.767415" stroke-miterlimit="10"/>
<path d="M748.543 78.6602H741.045V121.252H748.543V78.6602Z" fill="#F4F5F6" stroke="#959DA8" stroke-width="0.767415" stroke-miterlimit="10"/>
<path d="M756.206 78.6602H748.708V121.252H756.206V78.6602Z" fill="#F4F5F6" stroke="#959DA8" stroke-width="0.767415" stroke-miterlimit="10"/>
<path d="M763.879 78.6602H756.382V121.252H763.879V78.6602Z" fill="#F4F5F6" stroke="#959DA8" stroke-width="0.767415" stroke-miterlimit="10"/>
<path d="M664.12 78.6602V121.252H656.784L656.791 78.6602H664.12Z" fill="#F4F5F6" stroke="#959DA8" stroke-width="0.767415" stroke-miterlimit="10"/>
<path d="M656.446 78.6602V121.252H649.11L649.117 78.6602H656.446Z" fill="#F4F5F6" stroke="#959DA8" stroke-width="0.767415" stroke-miterlimit="10"/>
<path d="M671.792 78.6602H664.294V121.252H671.792V78.6602Z" fill="#F4F5F6" stroke="#959DA8" stroke-width="0.767415" stroke-miterlimit="10"/>
<path d="M679.465 78.6602H671.967V121.252H679.465V78.6602Z" fill="#F4F5F6" stroke="#959DA8" stroke-width="0.767415" stroke-miterlimit="10"/>
<path d="M687.139 78.6602H679.641V121.252H687.139V78.6602Z" fill="#F4F5F6" stroke="#959DA8" stroke-width="0.767415" stroke-miterlimit="10"/>
<path d="M694.817 78.6602H687.32V121.252H694.817V78.6602Z" fill="#F4F5F6" stroke="#959DA8" stroke-width="0.767415" stroke-miterlimit="10"/>
<path d="M702.491 78.6602H694.993V121.252H702.491V78.6602Z" fill="#F4F5F6" stroke="#959DA8" stroke-width="0.767415" stroke-miterlimit="10"/>
<path d="M710.159 78.6602H702.661V121.252H710.159V78.6602Z" fill="#F4F5F6" stroke="#959DA8" stroke-width="0.767415" stroke-miterlimit="10"/>
<path d="M717.838 78.6602H710.341V121.252H717.838V78.6602Z" fill="#F4F5F6" stroke="#959DA8" stroke-width="0.767415" stroke-miterlimit="10"/>
<path d="M725.517 78.6602H718.02V121.252H725.517V78.6602Z" fill="#F4F5F6" stroke="#959DA8" stroke-width="0.767415" stroke-miterlimit="10"/>
<path d="M733.18 78.6602H725.682V121.252H733.18V78.6602Z" fill="#F4F5F6" stroke="#959DA8" stroke-width="0.767415" stroke-miterlimit="10"/>
<path d="M763.585 79.043H649.448V121.251H763.585V79.043Z" stroke="#959DA8" stroke-width="1.53483" stroke-miterlimit="10"/>
<path d="M536.826 455.584H513.397V504.959H536.818L536.826 455.584Z" fill="white" stroke="#959DA8" stroke-width="0.767415" stroke-miterlimit="10"/>
<path d="M525.118 455.578V475.5" stroke="#959DA8" stroke-width="0.767415" stroke-miterlimit="10"/>
<path d="M513.437 475.852H536.827" stroke="#959DA8" stroke-width="0.767415" stroke-miterlimit="10"/>
<path d="M536.826 350.447H513.397V399.822H536.818L536.826 350.447Z" fill="white" stroke="#959DA8" stroke-width="0.767415" stroke-miterlimit="10"/>
<path d="M525.118 350.438V370.36" stroke="#959DA8" stroke-width="0.767415" stroke-miterlimit="10"/>
<path d="M513.437 370.714H536.827" stroke="#959DA8" stroke-width="0.767415" stroke-miterlimit="10"/>
<path d="M536.826 243.778H513.397V293.153H536.818L536.826 243.778Z" fill="white" stroke="#959DA8" stroke-width="0.767415" stroke-miterlimit="10"/>
<path d="M525.118 243.767V263.689" stroke="#959DA8" stroke-width="0.767415" stroke-miterlimit="10"/>
<path d="M513.437 264.045H536.827" stroke="#959DA8" stroke-width="0.767415" stroke-miterlimit="10"/>
<path d="M536.826 137.106H513.397V186.482H536.818L536.826 137.106Z" fill="white" stroke="#959DA8" stroke-width="0.767415" stroke-miterlimit="10"/>
<path d="M525.118 137.101V157.023" stroke="#959DA8" stroke-width="0.767415" stroke-miterlimit="10"/>
<path d="M513.437 157.374H536.827" stroke="#959DA8" stroke-width="0.767415" stroke-miterlimit="10"/>
<path d="M307.371 455.584H283.942V504.959H307.363L307.371 455.584Z" fill="white" stroke="#959DA8" stroke-width="0.767415" stroke-miterlimit="10"/>
<path d="M295.663 455.578V475.5" stroke="#959DA8" stroke-width="0.767415" stroke-miterlimit="10"/>
<path d="M283.986 475.852H307.377" stroke="#959DA8" stroke-width="0.767415" stroke-miterlimit="10"/>
<path d="M536.826 565.327H513.397V614.702H536.818L536.826 565.327Z" fill="white" stroke="#959DA8" stroke-width="0.767415" stroke-miterlimit="10"/>
<path d="M525.118 565.316V585.238" stroke="#959DA8" stroke-width="0.767415" stroke-miterlimit="10"/>
<path d="M513.437 585.589H536.827" stroke="#959DA8" stroke-width="0.767415" stroke-miterlimit="10"/>
<path d="M307.371 564.556H283.942V613.931H307.363L307.371 564.556Z" fill="white" stroke="#959DA8" stroke-width="0.767415" stroke-miterlimit="10"/>
<path d="M295.663 564.547V584.469" stroke="#959DA8" stroke-width="0.767415" stroke-miterlimit="10"/>
<path d="M283.986 584.823H307.377" stroke="#959DA8" stroke-width="0.767415" stroke-miterlimit="10"/>
<path d="M307.371 350.447H283.942V399.822H307.363L307.371 350.447Z" fill="white" stroke="#959DA8" stroke-width="0.767415" stroke-miterlimit="10"/>
<path d="M295.663 350.438V370.36" stroke="#959DA8" stroke-width="0.767415" stroke-miterlimit="10"/>
<path d="M283.986 370.714H307.377" stroke="#959DA8" stroke-width="0.767415" stroke-miterlimit="10"/>
<path d="M306.611 243.01H283.182V292.385H306.603L306.611 243.01Z" fill="white" stroke="#959DA8" stroke-width="0.767415" stroke-miterlimit="10"/>
<path d="M294.892 243.004V262.926" stroke="#959DA8" stroke-width="0.767415" stroke-miterlimit="10"/>
<path d="M283.215 263.28H306.606" stroke="#959DA8" stroke-width="0.767415" stroke-miterlimit="10"/>
<path d="M307.371 137.106H283.942V186.482H307.363L307.371 137.106Z" fill="white" stroke="#959DA8" stroke-width="0.767415" stroke-miterlimit="10"/>
<path d="M295.663 137.101V157.023" stroke="#959DA8" stroke-width="0.767415" stroke-miterlimit="10"/>
<path d="M283.986 157.374H307.377" stroke="#959DA8" stroke-width="0.767415" stroke-miterlimit="10"/>
<path d="M307.371 31.9722H283.942V81.3476H307.363L307.371 31.9722Z" fill="white" stroke="#959DA8" stroke-width="0.767415" stroke-miterlimit="10"/>
<path d="M295.663 31.9634V51.8855" stroke="#959DA8" stroke-width="0.767415" stroke-miterlimit="10"/>
<path d="M283.986 52.2393H307.377" stroke="#959DA8" stroke-width="0.767415" stroke-miterlimit="10"/>
<path d="M536.826 31.9722H513.397V81.3476H536.818L536.826 31.9722Z" fill="white" stroke="#959DA8" stroke-width="0.767415" stroke-miterlimit="10"/>
<path d="M525.118 31.9634V51.8855" stroke="#959DA8" stroke-width="0.767415" stroke-miterlimit="10"/>
<path d="M513.437 52.2393H536.827" stroke="#959DA8" stroke-width="0.767415" stroke-miterlimit="10"/>
<path d="M94.3921 96.1263C94.6938 96.1283 94.9949 96.0974 95.2899 96.0342C109.103 92.8955 109.103 76.2272 109.103 76.2272C109.225 66.0711 106.006 56.1564 99.9405 48.0094C99.2966 47.1574 98.4639 46.4664 97.5078 45.9906C96.5517 45.5147 95.4984 45.2671 94.4304 45.2671C93.3625 45.2671 92.3091 45.5147 91.3531 45.9906C90.397 46.4664 89.5643 47.1574 88.9204 48.0094C82.8523 56.1554 79.63 66.0702 79.7498 76.2272C79.7498 76.2272 79.7498 92.9338 93.5172 96.0419C93.8123 96.1051 94.1133 96.136 94.4151 96.1339L94.3921 96.1263Z" fill="#80C33F"/>
<path d="M94.3872 64.5044V121.247" stroke="#2A3A51" stroke-width="0.767415" stroke-linecap="round" stroke-linejoin="round"/>
<path d="M733.65 298.725C733.952 298.727 734.253 298.696 734.548 298.633C748.361 295.494 748.361 278.826 748.361 278.826C748.483 268.67 745.264 258.755 739.198 250.608C738.554 249.756 737.722 249.065 736.766 248.589C735.81 248.113 734.756 247.866 733.688 247.866C732.62 247.866 731.567 248.113 730.611 248.589C729.655 249.065 728.822 249.756 728.178 250.608C722.11 258.754 718.888 268.669 719.008 278.826C719.008 278.826 719.008 295.532 732.775 298.64C733.07 298.704 733.371 298.735 733.673 298.733L733.65 298.725Z" fill="#80C33F"/>
<path d="M733.654 267.108V323.851" stroke="#2A3A51" stroke-width="0.767415" stroke-linecap="round" stroke-linejoin="round"/>
<path d="M102.066 514.367C102.368 514.37 102.669 514.339 102.964 514.275C116.777 511.137 116.777 494.468 116.777 494.468C116.899 484.312 113.68 474.398 107.614 466.251C106.97 465.399 106.138 464.708 105.182 464.232C104.226 463.756 103.172 463.508 102.104 463.508C101.036 463.508 99.983 463.756 99.0269 464.232C98.0708 464.708 97.2381 465.399 96.5942 466.251C90.5261 474.397 87.3039 484.311 87.4236 494.468C87.4236 494.468 87.4236 511.175 101.191 514.283C101.486 514.346 101.787 514.377 102.089 514.375L102.066 514.367Z" fill="#80C33F"/>
<path d="M102.064 482.749V539.491" stroke="#2A3A51" stroke-width="0.767415" stroke-linecap="round" stroke-linejoin="round"/>
<path d="M155.323 78.6602V121.252H147.986L147.994 78.6602H155.323Z" fill="#F4F5F6" stroke="#959DA8" stroke-width="0.767415" stroke-miterlimit="10"/>
<path d="M163.003 78.6602H155.505V121.252H163.003V78.6602Z" fill="#F4F5F6" stroke="#959DA8" stroke-width="0.767415" stroke-miterlimit="10"/>
<path d="M170.673 78.6602H163.176V121.252H170.673V78.6602Z" fill="#F4F5F6" stroke="#959DA8" stroke-width="0.767415" stroke-miterlimit="10"/>
<path d="M178.346 78.6602H170.849V121.252H178.346V78.6602Z" fill="#F4F5F6" stroke="#959DA8" stroke-width="0.767415" stroke-miterlimit="10"/>
<path d="M78.585 78.6602V121.252H71.2485L71.2562 78.6602H78.585Z" fill="#F4F5F6" stroke="#959DA8" stroke-width="0.767415" stroke-miterlimit="10"/>
<path d="M70.9092 78.6602V121.252H63.5728L63.5804 78.6602H70.9092Z" fill="#F4F5F6" stroke="#959DA8" stroke-width="0.767415" stroke-miterlimit="10"/>
<path d="M86.2564 78.6602H78.7588V121.252H86.2564V78.6602Z" fill="#F4F5F6" stroke="#959DA8" stroke-width="0.767415" stroke-miterlimit="10"/>
<path d="M93.9268 78.6602H86.4292V121.252H93.9268V78.6602Z" fill="#F4F5F6" stroke="#959DA8" stroke-width="0.767415" stroke-miterlimit="10"/>
<path d="M101.607 78.6602H94.1089V121.252H101.607V78.6602Z" fill="#F4F5F6" stroke="#959DA8" stroke-width="0.767415" stroke-miterlimit="10"/>
<path d="M109.28 78.6602H101.782V121.252H109.28V78.6602Z" fill="#F4F5F6" stroke="#959DA8" stroke-width="0.767415" stroke-miterlimit="10"/>
<path d="M116.951 78.6602H109.453V121.252H116.951V78.6602Z" fill="#F4F5F6" stroke="#959DA8" stroke-width="0.767415" stroke-miterlimit="10"/>
<path d="M124.629 78.6602H117.132V121.252H124.629V78.6602Z" fill="#F4F5F6" stroke="#959DA8" stroke-width="0.767415" stroke-miterlimit="10"/>
<path d="M132.303 78.6602H124.806V121.252H132.303V78.6602Z" fill="#F4F5F6" stroke="#959DA8" stroke-width="0.767415" stroke-miterlimit="10"/>
<path d="M139.974 78.6602H132.476V121.252H139.974V78.6602Z" fill="#F4F5F6" stroke="#959DA8" stroke-width="0.767415" stroke-miterlimit="10"/>
<path d="M147.645 78.6602H140.147V121.252H147.645V78.6602Z" fill="#F4F5F6" stroke="#959DA8" stroke-width="0.767415" stroke-miterlimit="10"/>
<path d="M178.042 79.043H63.9048V121.251H178.042V79.043Z" stroke="#959DA8" stroke-width="1.53483" stroke-miterlimit="10"/>
<path d="M740.855 289.698V332.289H733.519L733.526 289.698H740.855Z" fill="#F4F5F6" stroke="#959DA8" stroke-width="0.767415" stroke-miterlimit="10"/>
<path d="M748.543 289.698H741.045V332.289H748.543V289.698Z" fill="#F4F5F6" stroke="#959DA8" stroke-width="0.767415" stroke-miterlimit="10"/>
<path d="M756.206 289.698H748.708V332.289H756.206V289.698Z" fill="#F4F5F6" stroke="#959DA8" stroke-width="0.767415" stroke-miterlimit="10"/>
<path d="M763.879 289.698H756.382V332.289H763.879V289.698Z" fill="#F4F5F6" stroke="#959DA8" stroke-width="0.767415" stroke-miterlimit="10"/>
<path d="M664.12 289.698V332.289H656.784L656.791 289.698H664.12Z" fill="#F4F5F6" stroke="#959DA8" stroke-width="0.767415" stroke-miterlimit="10"/>
<path d="M656.446 289.698V332.289H649.11L649.117 289.698H656.446Z" fill="#F4F5F6" stroke="#959DA8" stroke-width="0.767415" stroke-miterlimit="10"/>
<path d="M671.792 289.698H664.294V332.289H671.792V289.698Z" fill="#F4F5F6" stroke="#959DA8" stroke-width="0.767415" stroke-miterlimit="10"/>
<path d="M679.465 289.698H671.967V332.289H679.465V289.698Z" fill="#F4F5F6" stroke="#959DA8" stroke-width="0.767415" stroke-miterlimit="10"/>
<path d="M687.139 289.698H679.641V332.289H687.139V289.698Z" fill="#F4F5F6" stroke="#959DA8" stroke-width="0.767415" stroke-miterlimit="10"/>
<path d="M694.817 289.698H687.32V332.289H694.817V289.698Z" fill="#F4F5F6" stroke="#959DA8" stroke-width="0.767415" stroke-miterlimit="10"/>
<path d="M702.491 289.698H694.993V332.289H702.491V289.698Z" fill="#F4F5F6" stroke="#959DA8" stroke-width="0.767415" stroke-miterlimit="10"/>
<path d="M710.159 289.698H702.661V332.289H710.159V289.698Z" fill="#F4F5F6" stroke="#959DA8" stroke-width="0.767415" stroke-miterlimit="10"/>
<path d="M717.838 289.698H710.341V332.289H717.838V289.698Z" fill="#F4F5F6" stroke="#959DA8" stroke-width="0.767415" stroke-miterlimit="10"/>
<path d="M725.517 289.698H718.02V332.289H725.517V289.698Z" fill="#F4F5F6" stroke="#959DA8" stroke-width="0.767415" stroke-miterlimit="10"/>
<path d="M733.18 289.698H725.682V332.289H733.18V289.698Z" fill="#F4F5F6" stroke="#959DA8" stroke-width="0.767415" stroke-miterlimit="10"/>
<path d="M763.585 290.081H649.448V332.288H763.585V290.081Z" stroke="#959DA8" stroke-width="1.53483" stroke-miterlimit="10"/>
<path d="M155.323 501.501V544.093H147.986L147.994 501.501H155.323Z" fill="#F4F5F6" stroke="#959DA8" stroke-width="0.767415" stroke-miterlimit="10"/>
<path d="M163.003 501.501H155.505V544.093H163.003V501.501Z" fill="#F4F5F6" stroke="#959DA8" stroke-width="0.767415" stroke-miterlimit="10"/>
<path d="M170.673 501.501H163.176V544.093H170.673V501.501Z" fill="#F4F5F6" stroke="#959DA8" stroke-width="0.767415" stroke-miterlimit="10"/>
<path d="M178.346 501.501H170.849V544.093H178.346V501.501Z" fill="#F4F5F6" stroke="#959DA8" stroke-width="0.767415" stroke-miterlimit="10"/>
<path d="M78.585 501.501V544.093H71.2485L71.2562 501.501H78.585Z" fill="#F4F5F6" stroke="#959DA8" stroke-width="0.767415" stroke-miterlimit="10"/>
<path d="M70.9092 501.501V544.093H63.5728L63.5804 501.501H70.9092Z" fill="#F4F5F6" stroke="#959DA8" stroke-width="0.767415" stroke-miterlimit="10"/>
<path d="M86.2564 501.501H78.7588V544.093H86.2564V501.501Z" fill="#F4F5F6" stroke="#959DA8" stroke-width="0.767415" stroke-miterlimit="10"/>
<path d="M93.9268 501.501H86.4292V544.093H93.9268V501.501Z" fill="#F4F5F6" stroke="#959DA8" stroke-width="0.767415" stroke-miterlimit="10"/>
<path d="M101.607 501.501H94.1089V544.093H101.607V501.501Z" fill="#F4F5F6" stroke="#959DA8" stroke-width="0.767415" stroke-miterlimit="10"/>
<path d="M109.28 501.501H101.782V544.093H109.28V501.501Z" fill="#F4F5F6" stroke="#959DA8" stroke-width="0.767415" stroke-miterlimit="10"/>
<path d="M116.951 501.501H109.453V544.093H116.951V501.501Z" fill="#F4F5F6" stroke="#959DA8" stroke-width="0.767415" stroke-miterlimit="10"/>
<path d="M124.629 501.501H117.132V544.093H124.629V501.501Z" fill="#F4F5F6" stroke="#959DA8" stroke-width="0.767415" stroke-miterlimit="10"/>
<path d="M132.303 501.501H124.806V544.093H132.303V501.501Z" fill="#F4F5F6" stroke="#959DA8" stroke-width="0.767415" stroke-miterlimit="10"/>
<path d="M139.974 501.501H132.476V544.093H139.974V501.501Z" fill="#F4F5F6" stroke="#959DA8" stroke-width="0.767415" stroke-miterlimit="10"/>
<path d="M147.645 501.501H140.147V544.093H147.645V501.501Z" fill="#F4F5F6" stroke="#959DA8" stroke-width="0.767415" stroke-miterlimit="10"/>
<path d="M178.042 501.89H63.9048V544.097H178.042V501.89Z" stroke="#959DA8" stroke-width="1.53483" stroke-miterlimit="10"/>
<path d="M421.469 32.0933H487.513V90.8235H421.461L421.469 32.0933Z" fill="white" stroke="#959DA8" stroke-width="0.767415" stroke-miterlimit="10"/>
<path d="M454.486 32.0762V90.9062" stroke="#959DA8" stroke-width="0.767415" stroke-miterlimit="10"/>
<path d="M487.512 59.7661H421.721" stroke="#959DA8" stroke-width="0.767415" stroke-miterlimit="10"/>
<path d="M331.679 32.0933H397.723V90.8235H331.671L331.679 32.0933Z" fill="white" stroke="#959DA8" stroke-width="0.767415" stroke-miterlimit="10"/>
<path d="M364.701 32.0762V90.9062" stroke="#959DA8" stroke-width="0.767415" stroke-miterlimit="10"/>
<path d="M397.726 59.7661H331.936" stroke="#959DA8" stroke-width="0.767415" stroke-miterlimit="10"/>
<path d="M421.469 137.228H487.513V195.958H421.461L421.469 137.228Z" fill="white" stroke="#959DA8" stroke-width="0.767415" stroke-miterlimit="10"/>
<path d="M454.486 137.213V196.043" stroke="#959DA8" stroke-width="0.767415" stroke-miterlimit="10"/>
<path d="M487.512 164.898H421.721" stroke="#959DA8" stroke-width="0.767415" stroke-miterlimit="10"/>
<path d="M331.679 137.228H397.723V195.958H331.671L331.679 137.228Z" fill="white" stroke="#959DA8" stroke-width="0.767415" stroke-miterlimit="10"/>
<path d="M364.701 137.213V196.043" stroke="#959DA8" stroke-width="0.767415" stroke-miterlimit="10"/>
<path d="M397.726 164.898H331.936" stroke="#959DA8" stroke-width="0.767415" stroke-miterlimit="10"/>
<path d="M421.469 243.13H487.513V301.861H421.461L421.469 243.13Z" fill="white" stroke="#959DA8" stroke-width="0.767415" stroke-miterlimit="10"/>
<path d="M454.486 243.12V301.95" stroke="#959DA8" stroke-width="0.767415" stroke-miterlimit="10"/>
<path d="M487.512 270.81H421.721" stroke="#959DA8" stroke-width="0.767415" stroke-miterlimit="10"/>
<path d="M331.679 243.13H397.723V301.861H331.671L331.679 243.13Z" fill="white" stroke="#959DA8" stroke-width="0.767415" stroke-miterlimit="10"/>
<path d="M364.701 243.12V301.95" stroke="#959DA8" stroke-width="0.767415" stroke-miterlimit="10"/>
<path d="M397.726 270.81H331.936" stroke="#959DA8" stroke-width="0.767415" stroke-miterlimit="10"/>
<path d="M421.469 350.571H487.513V409.301H421.461L421.469 350.571Z" fill="white" stroke="#959DA8" stroke-width="0.767415" stroke-miterlimit="10"/>
<path d="M454.486 350.557V409.387" stroke="#959DA8" stroke-width="0.767415" stroke-miterlimit="10"/>
<path d="M487.512 378.239H421.721" stroke="#959DA8" stroke-width="0.767415" stroke-miterlimit="10"/>
<path d="M331.679 350.571H397.723V409.301H331.671L331.679 350.571Z" fill="white" stroke="#959DA8" stroke-width="0.767415" stroke-miterlimit="10"/>
<path d="M364.701 350.557V409.387" stroke="#959DA8" stroke-width="0.767415" stroke-miterlimit="10"/>
<path d="M397.726 378.239H331.936" stroke="#959DA8" stroke-width="0.767415" stroke-miterlimit="10"/>
<path d="M421.469 455.702H487.513V514.432H421.461L421.469 455.702Z" fill="white" stroke="#959DA8" stroke-width="0.767415" stroke-miterlimit="10"/>
<path d="M454.486 455.691V514.521" stroke="#959DA8" stroke-width="0.767415" stroke-miterlimit="10"/>
<path d="M487.512 483.376H421.721" stroke="#959DA8" stroke-width="0.767415" stroke-miterlimit="10"/>
<path d="M331.679 455.702H397.723V514.432H331.671L331.679 455.702Z" fill="white" stroke="#959DA8" stroke-width="0.767415" stroke-miterlimit="10"/>
<path d="M364.701 455.691V514.521" stroke="#959DA8" stroke-width="0.767415" stroke-miterlimit="10"/>
<path d="M397.726 483.376H331.936" stroke="#959DA8" stroke-width="0.767415" stroke-miterlimit="10"/>
<path d="M96.0868 564.683H162.13V623.413H96.0791L96.0868 564.683Z" fill="white" stroke="#959DA8" stroke-width="0.767415" stroke-miterlimit="10"/>
<path d="M129.101 564.666V623.496" stroke="#959DA8" stroke-width="0.767415" stroke-miterlimit="10"/>
<path d="M162.128 592.351H96.3379" stroke="#959DA8" stroke-width="0.767415" stroke-miterlimit="10"/>
<path d="M663.964 564.683H730.007V623.413H663.956L663.964 564.683Z" fill="white" stroke="#959DA8" stroke-width="0.767415" stroke-miterlimit="10"/>
<path d="M696.992 564.666V623.496" stroke="#959DA8" stroke-width="0.767415" stroke-miterlimit="10"/>
<path d="M730.017 592.351H664.227" stroke="#959DA8" stroke-width="0.767415" stroke-miterlimit="10"/>
<path d="M206.587 349.171H230.009V407.495H206.595L206.587 349.171Z" fill="white" stroke="#959DA8" stroke-width="0.767415" stroke-miterlimit="10"/>
<path d="M230.014 366.309H206.593" stroke="#959DA8" stroke-width="0.767415" stroke-miterlimit="10"/>
<path d="M206.587 243.269H230.009V301.592H206.595L206.587 243.269Z" fill="white" stroke="#959DA8" stroke-width="0.767415" stroke-miterlimit="10"/>
<path d="M230.014 260.406H206.593" stroke="#959DA8" stroke-width="0.767415" stroke-miterlimit="10"/>
<path d="M206.587 137.365H230.009V195.689H206.595L206.587 137.365Z" fill="white" stroke="#959DA8" stroke-width="0.767415" stroke-miterlimit="10"/>
<path d="M230.014 154.503H206.593" stroke="#959DA8" stroke-width="0.767415" stroke-miterlimit="10"/>
<path d="M206.587 32.231H230.009V90.5544H206.595L206.587 32.231Z" fill="white" stroke="#959DA8" stroke-width="0.767415" stroke-miterlimit="10"/>
<path d="M230.014 49.3652H206.593" stroke="#959DA8" stroke-width="0.767415" stroke-miterlimit="10"/>
<path d="M206.587 455.846H230.009V514.169H206.595L206.587 455.846Z" fill="white" stroke="#959DA8" stroke-width="0.767415" stroke-miterlimit="10"/>
<path d="M230.014 472.983H206.593" stroke="#959DA8" stroke-width="0.767415" stroke-miterlimit="10"/>
<path d="M231.852 517.651H204.486L204.133 510.844H232.205L231.852 517.651Z" fill="#D3DCE5"/>
<path d="M206.587 564.82H230.009V623.144H206.595L206.587 564.82Z" fill="white" stroke="#959DA8" stroke-width="0.767415" stroke-miterlimit="10"/>
<path d="M230.014 581.958H206.593" stroke="#959DA8" stroke-width="0.767415" stroke-miterlimit="10"/>
<path d="M231.852 626.625H204.486L204.133 619.818H232.205L231.852 626.625Z" fill="#D3DCE5"/>
<path d="M592.598 564.82H616.02V623.144H592.606L592.598 564.82Z" fill="white" stroke="#959DA8" stroke-width="0.767415" stroke-miterlimit="10"/>
<path d="M616.025 581.958H592.604" stroke="#959DA8" stroke-width="0.767415" stroke-miterlimit="10"/>
<path d="M617.857 626.625H590.491L590.138 619.818H618.21L617.857 626.625Z" fill="#D3DCE5"/>
<path d="M231.852 407.914H204.486L204.133 401.107H232.205L231.852 407.914Z" fill="#D3DCE5"/>
<path d="M231.852 305.079H204.486L204.133 298.272H232.205L231.852 305.079Z" fill="#D3DCE5"/>
<path d="M231.852 199.176H204.486L204.133 192.369H232.205L231.852 199.176Z" fill="#D3DCE5"/>
<path d="M231.852 94.0418H204.486L204.133 87.2349H232.205L231.852 94.0418Z" fill="#D3DCE5"/>
<path d="M592.598 349.171H616.02V407.495H592.606L592.598 349.171Z" fill="white" stroke="#959DA8" stroke-width="0.767415" stroke-miterlimit="10"/>
<path d="M616.025 366.309H592.604" stroke="#959DA8" stroke-width="0.767415" stroke-miterlimit="10"/>
<path d="M592.598 243.269H616.02V301.592H592.606L592.598 243.269Z" fill="white" stroke="#959DA8" stroke-width="0.767415" stroke-miterlimit="10"/>
<path d="M616.025 260.406H592.604" stroke="#959DA8" stroke-width="0.767415" stroke-miterlimit="10"/>
<path d="M592.598 137.365H616.02V195.689H592.606L592.598 137.365Z" fill="white" stroke="#959DA8" stroke-width="0.767415" stroke-miterlimit="10"/>
<path d="M616.025 154.503H592.604" stroke="#959DA8" stroke-width="0.767415" stroke-miterlimit="10"/>
<path d="M592.598 32.231H616.02V90.5544H592.606L592.598 32.231Z" fill="white" stroke="#959DA8" stroke-width="0.767415" stroke-miterlimit="10"/>
<path d="M616.025 49.3652H592.604" stroke="#959DA8" stroke-width="0.767415" stroke-miterlimit="10"/>
<path d="M592.598 455.846H616.02V514.169H592.606L592.598 455.846Z" fill="white" stroke="#959DA8" stroke-width="0.767415" stroke-miterlimit="10"/>
<path d="M616.025 472.983H592.604" stroke="#959DA8" stroke-width="0.767415" stroke-miterlimit="10"/>
<path d="M617.857 517.651H590.491L590.138 510.844H618.21L617.857 517.651Z" fill="#D3DCE5"/>
<path d="M617.857 407.914H590.491L590.138 401.107H618.21L617.857 407.914Z" fill="#D3DCE5"/>
<path d="M617.857 305.079H590.491L590.138 298.272H618.21L617.857 305.079Z" fill="#D3DCE5"/>
<path d="M617.857 199.176H590.491L590.138 192.369H618.21L617.857 199.176Z" fill="#D3DCE5"/>
<path d="M617.857 94.0418H590.491L590.138 87.2349H618.21L617.857 94.0418Z" fill="#D3DCE5"/>
</svg>
