<svg width="1300" height="499" viewBox="0 0 1300 499" fill="none" xmlns="http://www.w3.org/2000/svg">
<mask id="mask0" mask-type="alpha" maskUnits="userSpaceOnUse" x="0" y="0" width="1300" height="499">
<rect width="1300" height="499" rx="16" fill="#2A3A51"/>
</mask>
<g mask="url(#mask0)">
<path d="M886.149 74H347.191V86.3769H886.149V74Z" fill="#D3DCE5"/>
<path d="M865.719 395.799H371.492V473.436H865.719V395.799Z" fill="#F4F5F6" stroke="#959DA8" stroke-width="1.09175" stroke-miterlimit="10"/>
<path d="M865.719 318.163H371.492V395.8H865.719V318.163Z" fill="#F4F5F6" stroke="#959DA8" stroke-width="1.09175" stroke-miterlimit="10"/>
<path d="M865.719 241.088H371.492V318.725H865.719V241.088Z" fill="#F4F5F6" stroke="#959DA8" stroke-width="1.09175" stroke-miterlimit="10"/>
<path d="M865.719 163.45H371.492V241.087H865.719V163.45Z" fill="#F4F5F6" stroke="#959DA8" stroke-width="1.09175" stroke-miterlimit="10"/>
<path d="M865.719 85.814H371.492V163.451H865.719V85.814Z" fill="#F4F5F6" stroke="#959DA8" stroke-width="1.09175" stroke-miterlimit="10"/>
<path d="M428.947 411.854H404.84V464.225H428.947V411.854Z" fill="#D3DCE5"/>
<path d="M425.534 415.181H408.246V440.121H425.534V415.181Z" fill="white" stroke="#959DA8" stroke-width="0.545875" stroke-miterlimit="10"/>
<path d="M396.865 395.235H392.426V462.746H396.865V395.235Z" fill="#F4F5F6" stroke="#959DA8" stroke-width="1.09175" stroke-miterlimit="10"/>
<path d="M440.744 395.235H436.305V472.872H440.744V395.235Z" fill="#F4F5F6" stroke="#959DA8" stroke-width="1.09175" stroke-miterlimit="10"/>
<path d="M452.959 462.531H381.117V468.028H452.959V462.531Z" fill="#F4F5F6" stroke="#959DA8" stroke-width="1.09175" stroke-miterlimit="10"/>
<path d="M452.959 468.016H381.117V473.513H452.959V468.016Z" fill="#F4F5F6" stroke="#959DA8" stroke-width="1.09175" stroke-miterlimit="10"/>
<path d="M409.36 444.461C409.981 444.461 410.485 443.958 410.485 443.336C410.485 442.715 409.981 442.211 409.36 442.211C408.738 442.211 408.234 442.715 408.234 443.336C408.234 443.958 408.738 444.461 409.36 444.461Z" fill="white" stroke="#959DA8" stroke-width="0.545875" stroke-miterlimit="10"/>
<path d="M715.238 175.827H732.408V218.584H715.238V175.827Z" fill="white" stroke="#959DA8" stroke-width="0.545875" stroke-miterlimit="10"/>
<path d="M732.412 188.39H715.242" stroke="#959DA8" stroke-width="0.545875" stroke-miterlimit="10"/>
<path d="M715.238 98.1912H732.408V140.948H715.238V98.1912Z" fill="white" stroke="#959DA8" stroke-width="0.545875" stroke-miterlimit="10"/>
<path d="M732.412 110.754H715.242" stroke="#959DA8" stroke-width="0.545875" stroke-miterlimit="10"/>
<path d="M715.238 253.466H732.408V296.222H715.238V253.466Z" fill="white" stroke="#959DA8" stroke-width="0.545875" stroke-miterlimit="10"/>
<path d="M732.412 266.028H715.242" stroke="#959DA8" stroke-width="0.545875" stroke-miterlimit="10"/>
<path d="M715.238 330.54H732.408V373.297H715.238V330.54Z" fill="white" stroke="#959DA8" stroke-width="0.545875" stroke-miterlimit="10"/>
<path d="M732.412 343.101H715.242" stroke="#959DA8" stroke-width="0.545875" stroke-miterlimit="10"/>
<path d="M715.238 411.55H732.408V454.306H715.238V411.55Z" fill="white" stroke="#959DA8" stroke-width="0.545875" stroke-miterlimit="10"/>
<path d="M732.412 424.115H715.242" stroke="#959DA8" stroke-width="0.545875" stroke-miterlimit="10"/>
<path d="M506.516 332.791H523.686V375.547H506.516V332.791Z" fill="white" stroke="#959DA8" stroke-width="0.545875" stroke-miterlimit="10"/>
<path d="M523.697 345.351H506.527" stroke="#959DA8" stroke-width="0.545875" stroke-miterlimit="10"/>
<path d="M506.516 253.466H523.686V296.222H506.516V253.466Z" fill="white" stroke="#959DA8" stroke-width="0.545875" stroke-miterlimit="10"/>
<path d="M523.697 266.028H506.527" stroke="#959DA8" stroke-width="0.545875" stroke-miterlimit="10"/>
<path d="M506.516 175.827H523.686V218.584H506.516V175.827Z" fill="white" stroke="#959DA8" stroke-width="0.545875" stroke-miterlimit="10"/>
<path d="M523.697 188.39H506.527" stroke="#959DA8" stroke-width="0.545875" stroke-miterlimit="10"/>
<path d="M506.516 98.1912H523.686V140.948H506.516V98.1912Z" fill="white" stroke="#959DA8" stroke-width="0.545875" stroke-miterlimit="10"/>
<path d="M523.697 110.754H506.527" stroke="#959DA8" stroke-width="0.545875" stroke-miterlimit="10"/>
<path d="M506.516 413.241H523.686V455.997H506.516V413.241Z" fill="white" stroke="#959DA8" stroke-width="0.545875" stroke-miterlimit="10"/>
<path d="M523.697 425.801H506.527" stroke="#959DA8" stroke-width="0.545875" stroke-miterlimit="10"/>
<path d="M525.035 458.552H504.974L504.715 453.562H525.294L525.035 458.552Z" fill="#D3DCE5"/>
<path d="M525.035 375.851H504.974L504.715 370.861H525.294L525.035 375.851Z" fill="#D3DCE5"/>
<path d="M525.035 298.774H504.974L504.715 293.784H525.294L525.035 298.774Z" fill="#D3DCE5"/>
<path d="M525.035 221.138H504.974L504.715 216.148H525.294L525.035 221.138Z" fill="#D3DCE5"/>
<path d="M525.035 143.502H504.974L504.715 138.512H525.294L525.035 143.502Z" fill="#D3DCE5"/>
<path d="M733.992 458.552H713.931L713.672 453.562H734.251L733.992 458.552Z" fill="#D3DCE5"/>
<path d="M733.992 375.851H713.931L713.672 370.861H734.251L733.992 375.851Z" fill="#D3DCE5"/>
<path d="M733.992 298.774H713.931L713.672 293.784H734.251L733.992 298.774Z" fill="#D3DCE5"/>
<path d="M733.992 221.138H713.931L713.672 216.148H734.251L733.992 221.138Z" fill="#D3DCE5"/>
<path d="M733.992 143.502H713.931L713.672 138.512H734.251L733.992 143.502Z" fill="#D3DCE5"/>
<path d="M382.072 141.655C382.294 141.657 382.514 141.634 382.731 141.588C392.857 139.287 392.857 127.068 392.857 127.068C392.947 119.622 390.586 112.354 386.14 106.381C385.668 105.757 385.057 105.25 384.357 104.901C383.656 104.552 382.883 104.371 382.101 104.371C381.318 104.371 380.545 104.552 379.845 104.901C379.144 105.25 378.533 105.757 378.061 106.381C373.613 112.353 371.251 119.622 371.338 127.068C371.338 127.068 371.338 139.315 381.431 141.594C381.647 141.64 381.868 141.663 382.089 141.661L382.072 141.655Z" fill="#80C33F"/>
<path d="M382.074 118.479V160.077" stroke="#2A3A51" stroke-width="0.545875" stroke-linecap="round" stroke-linejoin="round"/>
<path d="M777.006 139.407C777.227 139.408 777.448 139.386 777.664 139.339C787.791 137.038 787.791 124.819 787.791 124.819C787.88 117.374 785.52 110.105 781.074 104.133C780.601 103.508 779.991 103.002 779.29 102.653C778.589 102.304 777.817 102.122 777.034 102.122C776.251 102.122 775.479 102.304 774.778 102.653C774.077 103.002 773.467 103.508 772.995 104.133C768.546 110.105 766.184 117.373 766.272 124.819C766.272 124.819 766.272 137.067 776.365 139.345C776.581 139.391 776.802 139.414 777.023 139.413L777.006 139.407Z" fill="#80C33F"/>
<path d="M777.008 116.227V157.825" stroke="#2A3A51" stroke-width="0.545875" stroke-linecap="round" stroke-linejoin="round"/>
<path d="M419.766 376.841C419.761 375.589 420.057 374.354 420.63 373.241C421.203 372.127 422.036 371.168 423.058 370.445C424.08 369.721 425.261 369.255 426.502 369.084C427.742 368.914 429.006 369.045 430.185 369.466C430.641 367.63 431.564 365.944 432.864 364.572C434.165 363.199 435.799 362.187 437.607 361.633C439.415 361.079 441.335 361.002 443.181 361.411C445.028 361.819 446.737 362.699 448.143 363.963C449.135 361.187 451.076 358.85 453.623 357.364C456.169 355.878 459.159 355.338 462.064 355.84C464.97 356.341 467.605 357.852 469.507 360.106C471.408 362.359 472.453 365.212 472.458 368.16C472.459 368.596 472.437 369.032 472.39 369.466C473.237 369.156 474.132 368.998 475.034 368.999C479.366 368.999 483.135 372.515 482.86 376.824C482.82 377.535 482.701 378.239 482.505 378.923H420.058C419.87 378.239 419.775 377.533 419.777 376.824L419.766 376.841Z" fill="#80C33F"/>
<path d="M314 471.919C313.995 470.667 314.291 469.432 314.864 468.319C315.438 467.205 316.27 466.246 317.292 465.523C318.314 464.8 319.496 464.333 320.736 464.162C321.977 463.992 323.24 464.123 324.419 464.544C324.875 462.709 325.798 461.023 327.099 459.65C328.399 458.277 330.033 457.265 331.841 456.711C333.649 456.157 335.57 456.08 337.416 456.489C339.262 456.897 340.971 457.777 342.377 459.042C343.37 456.265 345.31 453.928 347.857 452.442C350.404 450.956 353.393 450.416 356.299 450.918C359.204 451.419 361.84 452.93 363.741 455.184C365.642 457.438 366.687 460.29 366.692 463.239C366.694 463.675 366.671 464.11 366.624 464.544C367.472 464.234 368.367 464.076 369.269 464.077C373.6 464.077 377.37 467.593 377.094 471.902C377.054 472.613 376.936 473.317 376.74 474.001H314.293C314.104 473.317 314.009 472.611 314.011 471.902L314 471.919Z" fill="#80C33F"/>
<path d="M447.065 98.3706H398.648V143.693H447.065V98.3706Z" fill="white" stroke="#959DA8" stroke-width="0.545875" stroke-miterlimit="10"/>
<path d="M422.859 98.3643V143.759" stroke="#959DA8" stroke-width="0.545875" stroke-miterlimit="10"/>
<path d="M447.065 176.009H398.648V221.331H447.065V176.009Z" fill="white" stroke="#959DA8" stroke-width="0.545875" stroke-miterlimit="10"/>
<path d="M422.859 176.002V221.398" stroke="#959DA8" stroke-width="0.545875" stroke-miterlimit="10"/>
<path d="M447.065 253.083H398.648V298.405H447.065V253.083Z" fill="white" stroke="#959DA8" stroke-width="0.545875" stroke-miterlimit="10"/>
<path d="M422.859 253.077V298.472" stroke="#959DA8" stroke-width="0.545875" stroke-miterlimit="10"/>
<path d="M447.065 332.406H398.648V377.728H447.065V332.406Z" fill="white" stroke="#959DA8" stroke-width="0.545875" stroke-miterlimit="10"/>
<path d="M422.859 332.402V377.797" stroke="#959DA8" stroke-width="0.545875" stroke-miterlimit="10"/>
<path d="M611.338 98.3704H562.922V143.692H611.338V98.3704Z" fill="white" stroke="#959DA8" stroke-width="0.545875" stroke-miterlimit="10"/>
<path d="M587.137 98.3643V143.759" stroke="#959DA8" stroke-width="0.545875" stroke-miterlimit="10"/>
<path d="M611.338 176.009H562.922V221.33H611.338V176.009Z" fill="white" stroke="#959DA8" stroke-width="0.545875" stroke-miterlimit="10"/>
<path d="M587.137 176.003V221.398" stroke="#959DA8" stroke-width="0.545875" stroke-miterlimit="10"/>
<path d="M611.338 253.083H562.922V298.405H611.338V253.083Z" fill="white" stroke="#959DA8" stroke-width="0.545875" stroke-miterlimit="10"/>
<path d="M587.137 253.077V298.472" stroke="#959DA8" stroke-width="0.545875" stroke-miterlimit="10"/>
<path d="M611.338 332.406H562.922V377.728H611.338V332.406Z" fill="white" stroke="#959DA8" stroke-width="0.545875" stroke-miterlimit="10"/>
<path d="M587.137 332.402V377.797" stroke="#959DA8" stroke-width="0.545875" stroke-miterlimit="10"/>
<path d="M611.338 413.42H562.922V458.742H611.338V413.42Z" fill="white" stroke="#959DA8" stroke-width="0.545875" stroke-miterlimit="10"/>
<path d="M587.137 413.414V458.809" stroke="#959DA8" stroke-width="0.545875" stroke-miterlimit="10"/>
<path d="M678.85 98.3704H630.434V143.692H678.85V98.3704Z" fill="white" stroke="#959DA8" stroke-width="0.545875" stroke-miterlimit="10"/>
<path d="M654.645 98.3643V143.759" stroke="#959DA8" stroke-width="0.545875" stroke-miterlimit="10"/>
<path d="M678.85 176.009H630.434V221.33H678.85V176.009Z" fill="white" stroke="#959DA8" stroke-width="0.545875" stroke-miterlimit="10"/>
<path d="M654.645 176.002V221.398" stroke="#959DA8" stroke-width="0.545875" stroke-miterlimit="10"/>
<path d="M678.85 253.083H630.434V298.405H678.85V253.083Z" fill="white" stroke="#959DA8" stroke-width="0.545875" stroke-miterlimit="10"/>
<path d="M654.645 253.077V298.472" stroke="#959DA8" stroke-width="0.545875" stroke-miterlimit="10"/>
<path d="M678.85 332.406H630.434V377.728H678.85V332.406Z" fill="white" stroke="#959DA8" stroke-width="0.545875" stroke-miterlimit="10"/>
<path d="M654.645 332.402V377.797" stroke="#959DA8" stroke-width="0.545875" stroke-miterlimit="10"/>
<path d="M678.85 413.42H630.434V458.742H678.85V413.42Z" fill="white" stroke="#959DA8" stroke-width="0.545875" stroke-miterlimit="10"/>
<path d="M654.645 413.414V458.809" stroke="#959DA8" stroke-width="0.545875" stroke-miterlimit="10"/>
<path d="M836.373 98.3704H787.957V143.692H836.373V98.3704Z" fill="white" stroke="#959DA8" stroke-width="0.545875" stroke-miterlimit="10"/>
<path d="M812.172 98.3643V143.759" stroke="#959DA8" stroke-width="0.545875" stroke-miterlimit="10"/>
<path d="M836.373 176.009H787.957V221.33H836.373V176.009Z" fill="white" stroke="#959DA8" stroke-width="0.545875" stroke-miterlimit="10"/>
<path d="M812.172 176.003V221.398" stroke="#959DA8" stroke-width="0.545875" stroke-miterlimit="10"/>
<path d="M836.373 253.083H787.957V298.405H836.373V253.083Z" fill="white" stroke="#959DA8" stroke-width="0.545875" stroke-miterlimit="10"/>
<path d="M812.172 253.077V298.472" stroke="#959DA8" stroke-width="0.545875" stroke-miterlimit="10"/>
<path d="M836.373 332.406H787.957V377.728H836.373V332.406Z" fill="white" stroke="#959DA8" stroke-width="0.545875" stroke-miterlimit="10"/>
<path d="M812.172 332.402V377.797" stroke="#959DA8" stroke-width="0.545875" stroke-miterlimit="10"/>
<path d="M836.373 413.42H787.957V458.742H836.373V413.42Z" fill="white" stroke="#959DA8" stroke-width="0.545875" stroke-miterlimit="10"/>
<path d="M812.172 413.414V458.809" stroke="#959DA8" stroke-width="0.545875" stroke-miterlimit="10"/>
<path d="M485.586 210.989H359.848V241.931H485.586V210.989Z" fill="#D3DCE5"/>
<path d="M485.586 133.353H359.848V164.295H485.586V133.353Z" fill="#D3DCE5"/>
<path d="M485.586 365.702H359.848V396.644H485.586V365.702Z" fill="#D3DCE5"/>
<path d="M879.398 288.627H753.66V319.569H879.398V288.627Z" fill="#D3DCE5"/>
<path d="M906.537 281.228L878.48 265.03L869.99 279.735L898.047 295.933L906.537 281.228Z" fill="white"/>
<path d="M906.545 281.162L878.512 264.977L877.84 266.14L905.873 282.325L906.545 281.162Z" fill="#B22234"/>
<path d="M905.229 283.436L877.195 267.251L876.524 268.415L904.557 284.6L905.229 283.436Z" fill="#B22234"/>
<path d="M903.916 285.712L875.883 269.527L875.211 270.69L903.244 286.875L903.916 285.712Z" fill="#B22234"/>
<path d="M902.604 287.987L874.57 271.802L873.899 272.965L901.932 289.15L902.604 287.987Z" fill="#B22234"/>
<path d="M901.287 290.262L873.254 274.077L872.582 275.24L900.616 291.425L901.287 290.262Z" fill="#B22234"/>
<path d="M899.975 292.538L871.941 276.353L871.27 277.516L899.303 293.701L899.975 292.538Z" fill="#B22234"/>
<path d="M898.658 294.813L870.625 278.628L869.953 279.791L897.987 295.976L898.658 294.813Z" fill="#B22234"/>
<path d="M889.704 271.44L878.508 264.976L873.895 272.966L885.091 279.43L889.704 271.44Z" fill="#2A3A51"/>
<path d="M879.284 265.83L879.2 266.217L879.539 266.413L879.148 266.456L879.065 266.843L878.907 266.483L878.516 266.526L878.81 266.26L878.652 265.9L878.991 266.096L879.284 265.83Z" fill="white"/>
<path d="M879.733 267.183L879.649 267.57L879.988 267.766L879.598 267.809L879.514 268.196L879.356 267.836L878.966 267.879L879.259 267.613L879.101 267.253L879.44 267.449L879.733 267.183Z" fill="white"/>
<path d="M878.811 268.785L878.728 269.172L879.067 269.367L878.676 269.411L878.592 269.797L878.434 269.437L878.044 269.481L878.337 269.215L878.179 268.855L878.518 269.051L878.811 268.785Z" fill="white"/>
<path d="M877.885 270.387L877.802 270.774L878.141 270.969L877.75 271.013L877.667 271.399L877.509 271.039L877.118 271.083L877.411 270.817L877.253 270.457L877.592 270.653L877.885 270.387Z" fill="white"/>
<path d="M876.959 271.988L876.876 272.375L877.215 272.571L876.824 272.614L876.741 273.001L876.583 272.641L876.192 272.684L876.485 272.418L876.327 272.058L876.666 272.254L876.959 271.988Z" fill="white"/>
<path d="M881.604 268.263L881.52 268.649L881.859 268.845L881.469 268.888L881.385 269.275L881.227 268.915L880.837 268.958L881.13 268.693L880.972 268.333L881.311 268.528L881.604 268.263Z" fill="white"/>
<path d="M880.678 269.865L880.595 270.251L880.934 270.447L880.543 270.49L880.46 270.877L880.302 270.517L879.911 270.56L880.204 270.295L880.046 269.935L880.385 270.13L880.678 269.865Z" fill="white"/>
<path d="M879.752 271.467L879.669 271.854L880.008 272.05L879.617 272.093L879.534 272.48L879.376 272.12L878.985 272.163L879.278 271.897L879.12 271.537L879.459 271.733L879.752 271.467Z" fill="white"/>
<path d="M878.831 273.068L878.747 273.455L879.086 273.651L878.696 273.694L878.612 274.08L878.454 273.721L878.063 273.764L878.356 273.498L878.198 273.138L878.538 273.334L878.831 273.068Z" fill="white"/>
<path d="M883.475 269.343L883.392 269.729L883.731 269.925L883.34 269.969L883.256 270.355L883.098 269.995L882.708 270.038L883.001 269.773L882.843 269.413L883.182 269.609L883.475 269.343Z" fill="white"/>
<path d="M882.545 270.946L882.462 271.332L882.801 271.528L882.41 271.571L882.327 271.958L882.169 271.598L881.778 271.641L882.071 271.376L881.913 271.016L882.252 271.211L882.545 270.946Z" fill="white"/>
<path d="M881.627 272.547L881.544 272.934L881.883 273.13L881.492 273.173L881.409 273.56L881.251 273.2L880.86 273.243L881.153 272.977L880.995 272.617L881.334 272.813L881.627 272.547Z" fill="white"/>
<path d="M880.698 274.149L880.614 274.535L880.953 274.731L880.563 274.774L880.479 275.161L880.321 274.801L879.931 274.844L880.224 274.579L880.066 274.219L880.405 274.414L880.698 274.149Z" fill="white"/>
<path d="M885.346 270.423L885.263 270.81L885.602 271.006L885.211 271.049L885.128 271.436L884.969 271.076L884.579 271.119L884.872 270.853L884.714 270.493L885.053 270.689L885.346 270.423Z" fill="white"/>
<path d="M884.416 272.025L884.333 272.412L884.672 272.608L884.281 272.651L884.198 273.037L884.04 272.678L883.649 272.721L883.942 272.455L883.784 272.095L884.123 272.291L884.416 272.025Z" fill="white"/>
<path d="M883.495 273.626L883.411 274.013L883.75 274.209L883.36 274.252L883.276 274.639L883.118 274.279L882.727 274.322L883.02 274.056L882.863 273.696L883.202 273.892L883.495 273.626Z" fill="white"/>
<path d="M882.569 275.229L882.485 275.616L882.825 275.812L882.434 275.855L882.35 276.242L882.192 275.882L881.802 275.925L882.095 275.659L881.937 275.299L882.276 275.495L882.569 275.229Z" fill="white"/>
<path d="M887.213 271.503L887.13 271.89L887.469 272.086L887.078 272.129L886.995 272.516L886.837 272.156L886.446 272.199L886.739 271.933L886.581 271.573L886.92 271.769L887.213 271.503Z" fill="white"/>
<path d="M886.291 273.106L886.208 273.492L886.547 273.688L886.156 273.731L886.073 274.118L885.915 273.758L885.524 273.801L885.817 273.536L885.659 273.176L885.998 273.371L886.291 273.106Z" fill="white"/>
<path d="M885.366 274.707L885.282 275.094L885.621 275.289L885.231 275.333L885.147 275.719L884.989 275.359L884.598 275.403L884.891 275.137L884.734 274.777L885.073 274.973L885.366 274.707Z" fill="white"/>
<path d="M884.436 276.309L884.353 276.696L884.691 276.892L884.301 276.935L884.217 277.322L884.059 276.962L883.669 277.005L883.962 276.739L883.804 276.379L884.143 276.575L884.436 276.309Z" fill="white"/>
<path d="M878.362 267.432L878.278 267.818L878.617 268.014L878.227 268.057L878.143 268.444L877.985 268.084L877.595 268.127L877.888 267.862L877.73 267.502L878.069 267.698L878.362 267.432Z" fill="white"/>
<path d="M877.432 269.035L877.349 269.421L877.688 269.617L877.297 269.66L877.214 270.047L877.056 269.687L876.665 269.73L876.958 269.464L876.8 269.104L877.139 269.3L877.432 269.035Z" fill="white"/>
<path d="M876.51 270.636L876.427 271.023L876.766 271.218L876.375 271.262L876.292 271.648L876.134 271.288L875.743 271.331L876.036 271.066L875.878 270.706L876.217 270.902L876.51 270.636Z" fill="white"/>
<path d="M875.584 272.238L875.501 272.625L875.84 272.821L875.449 272.864L875.366 273.251L875.208 272.891L874.817 272.934L875.11 272.668L874.952 272.308L875.291 272.504L875.584 272.238Z" fill="white"/>
<path d="M881.127 266.897L881.044 267.284L881.383 267.48L880.992 267.523L880.909 267.909L880.751 267.549L880.36 267.593L880.653 267.327L880.495 266.967L880.834 267.163L881.127 266.897Z" fill="white"/>
<path d="M880.206 268.497L880.122 268.884L880.461 269.08L880.071 269.123L879.987 269.51L879.829 269.15L879.438 269.193L879.731 268.927L879.573 268.567L879.913 268.763L880.206 268.497Z" fill="white"/>
<path d="M879.28 270.1L879.196 270.487L879.535 270.682L879.145 270.726L879.061 271.112L878.903 270.752L878.513 270.796L878.806 270.53L878.648 270.17L878.987 270.366L879.28 270.1Z" fill="white"/>
<path d="M878.354 271.702L878.27 272.089L878.61 272.284L878.219 272.328L878.135 272.714L877.977 272.354L877.587 272.398L877.88 272.132L877.722 271.772L878.061 271.968L878.354 271.702Z" fill="white"/>
<path d="M877.428 273.304L877.345 273.69L877.684 273.886L877.293 273.929L877.21 274.316L877.052 273.956L876.661 273.999L876.954 273.733L876.796 273.373L877.135 273.569L877.428 273.304Z" fill="white"/>
<path d="M883.026 267.991L882.942 268.378L883.281 268.573L882.891 268.616L882.807 269.003L882.649 268.643L882.259 268.686L882.552 268.421L882.394 268.061L882.733 268.257L883.026 267.991Z" fill="white"/>
<path d="M882.096 269.593L882.013 269.98L882.352 270.175L881.961 270.219L881.878 270.605L881.72 270.245L881.329 270.289L881.622 270.023L881.464 269.663L881.803 269.859L882.096 269.593Z" fill="white"/>
<path d="M881.178 271.194L881.095 271.581L881.434 271.777L881.043 271.82L880.96 272.206L880.802 271.846L880.411 271.89L880.704 271.624L880.546 271.264L880.885 271.46L881.178 271.194Z" fill="white"/>
<path d="M880.252 272.796L880.169 273.182L880.508 273.378L880.117 273.421L880.034 273.808L879.876 273.448L879.485 273.491L879.778 273.226L879.62 272.866L879.959 273.061L880.252 272.796Z" fill="white"/>
<path d="M879.323 274.398L879.239 274.785L879.578 274.981L879.188 275.024L879.104 275.411L878.946 275.051L878.556 275.094L878.849 274.828L878.691 274.468L879.03 274.664L879.323 274.398Z" fill="white"/>
<path d="M884.881 269.063L884.798 269.45L885.137 269.646L884.746 269.689L884.663 270.076L884.505 269.716L884.114 269.759L884.407 269.493L884.249 269.133L884.588 269.329L884.881 269.063Z" fill="white"/>
<path d="M883.959 270.666L883.876 271.052L884.215 271.248L883.824 271.291L883.741 271.678L883.583 271.318L883.192 271.361L883.485 271.095L883.327 270.735L883.666 270.931L883.959 270.666Z" fill="white"/>
<path d="M883.034 272.267L882.95 272.654L883.289 272.849L882.898 272.893L882.815 273.279L882.657 272.919L882.266 272.962L882.559 272.697L882.402 272.337L882.741 272.533L883.034 272.267Z" fill="white"/>
<path d="M882.108 273.869L882.024 274.255L882.363 274.451L881.973 274.494L881.889 274.881L881.731 274.521L881.341 274.564L881.634 274.298L881.476 273.938L881.815 274.134L882.108 273.869Z" fill="white"/>
<path d="M881.182 275.472L881.099 275.858L881.438 276.054L881.047 276.097L880.963 276.484L880.806 276.124L880.415 276.167L880.708 275.901L880.55 275.541L880.889 275.737L881.182 275.472Z" fill="white"/>
<path d="M886.741 270.136L886.657 270.523L886.996 270.719L886.606 270.762L886.522 271.149L886.364 270.789L885.973 270.832L886.266 270.566L886.109 270.206L886.447 270.402L886.741 270.136Z" fill="white"/>
<path d="M885.811 271.738L885.728 272.125L886.067 272.321L885.676 272.364L885.592 272.75L885.435 272.391L885.044 272.434L885.337 272.168L885.179 271.808L885.518 272.004L885.811 271.738Z" fill="white"/>
<path d="M884.893 273.34L884.81 273.726L885.149 273.922L884.758 273.965L884.674 274.352L884.517 273.992L884.126 274.035L884.419 273.77L884.261 273.41L884.6 273.605L884.893 273.34Z" fill="white"/>
<path d="M883.967 274.941L883.884 275.328L884.223 275.524L883.832 275.567L883.749 275.953L883.591 275.594L883.2 275.637L883.493 275.371L883.335 275.011L883.674 275.207L883.967 274.941Z" fill="white"/>
<path d="M883.041 276.543L882.958 276.93L883.297 277.126L882.906 277.169L882.823 277.555L882.665 277.196L882.274 277.239L882.567 276.973L882.409 276.613L882.748 276.809L883.041 276.543Z" fill="white"/>
<path d="M888.635 271.232L888.552 271.618L888.891 271.814L888.5 271.857L888.417 272.244L888.259 271.884L887.868 271.927L888.161 271.662L888.003 271.302L888.342 271.497L888.635 271.232Z" fill="white"/>
<path d="M887.713 272.833L887.63 273.219L887.969 273.415L887.578 273.458L887.495 273.845L887.337 273.485L886.946 273.528L887.239 273.262L887.081 272.902L887.42 273.098L887.713 272.833Z" fill="white"/>
<path d="M886.788 274.434L886.704 274.821L887.043 275.017L886.653 275.06L886.569 275.447L886.411 275.087L886.02 275.13L886.313 274.864L886.155 274.504L886.495 274.7L886.788 274.434Z" fill="white"/>
<path d="M885.862 276.037L885.778 276.423L886.118 276.619L885.727 276.662L885.643 277.049L885.485 276.689L885.095 276.732L885.388 276.467L885.23 276.106L885.569 276.302L885.862 276.037Z" fill="white"/>
<path d="M884.94 277.638L884.857 278.024L885.196 278.22L884.805 278.263L884.721 278.65L884.563 278.29L884.173 278.333L884.466 278.068L884.308 277.707L884.647 277.903L884.94 277.638Z" fill="white"/>
<path fill-rule="evenodd" clip-rule="evenodd" d="M878.402 264.585L906.697 280.921L898.001 295.984L870.2 279.933L865.496 288.081L865.002 287.796L878.402 264.585ZM870.485 279.439L897.792 295.205L905.918 281.13L878.611 265.364L870.485 279.439Z" fill="#959DA8"/>
<path d="M879.398 133.353H753.66V164.295H879.398V133.353Z" fill="#D3DCE5"/>
<path d="M879.398 365.702H753.66V396.644H879.398V365.702Z" fill="#D3DCE5"/>
<path d="M879.398 442.774H753.66V473.717H879.398V442.774Z" fill="#D3DCE5"/>
<path d="M644.664 440.091C645.016 438.322 644.998 436.498 644.613 434.736C644.234 432.991 643.491 431.345 642.43 429.909C641.399 428.507 640.067 427.353 638.531 426.533C637.032 425.731 635.365 425.294 633.665 425.258C631.965 425.222 630.28 425.588 628.748 426.325C627.186 427.077 625.813 428.171 624.731 429.526C623.619 430.916 622.816 432.527 622.374 434.252C621.924 435.999 621.839 437.821 622.126 439.602C620.855 440.267 619.745 441.202 618.875 442.342C617.981 443.51 617.339 444.851 616.99 446.28C616.634 447.725 616.572 449.227 616.81 450.696C617.045 452.154 617.577 453.548 618.374 454.792C619.149 456.006 620.178 457.039 621.389 457.819C622.578 458.581 623.925 459.062 625.328 459.225C626.716 459.385 628.124 459.224 629.44 458.752C630.777 458.275 631.992 457.506 632.996 456.502C633.967 457.492 635.142 458.26 636.439 458.752C637.711 459.236 639.076 459.428 640.433 459.315C641.794 459.191 643.11 458.766 644.287 458.072C645.49 457.36 646.529 456.401 647.336 455.259C648.163 454.089 648.747 452.765 649.052 451.366C649.363 449.953 649.393 448.492 649.142 447.068C648.908 445.642 648.39 444.277 647.617 443.056C646.853 441.871 645.846 440.86 644.664 440.091Z" fill="#80C33F"/>
<path d="M633.431 450.815L628.137 447.046" stroke="#2A3A51" stroke-width="0.545875" stroke-linecap="round" stroke-linejoin="round"/>
<path d="M633.43 455.524L639.618 449.898" stroke="#2A3A51" stroke-width="0.545875" stroke-linecap="round" stroke-linejoin="round"/>
<path d="M633.43 439.501V473.437" stroke="#2A3A51" stroke-width="0.545875" stroke-linecap="round" stroke-linejoin="round"/>
<path d="M407.951 299.182C408.173 299.184 408.393 299.161 408.61 299.115C418.736 296.814 418.736 284.594 418.736 284.594C418.826 277.149 416.465 269.881 412.019 263.908C411.547 263.283 410.936 262.777 410.235 262.428C409.535 262.079 408.762 261.898 407.979 261.898C407.197 261.898 406.424 262.079 405.723 262.428C405.023 262.777 404.412 263.283 403.94 263.908C399.492 269.88 397.129 277.148 397.217 284.594C397.217 284.594 397.217 296.842 407.31 299.12C407.526 299.167 407.747 299.189 407.968 299.188L407.951 299.182Z" fill="#80C33F"/>
<path d="M407.949 276.002V317.6" stroke="#2A3A51" stroke-width="0.545875" stroke-linecap="round" stroke-linejoin="round"/>
<path d="M485.586 288.627H359.848V319.569H485.586V288.627Z" fill="#D3DCE5"/>
<path d="M812.449 219.316C812.444 218.064 812.741 216.829 813.314 215.716C813.887 214.602 814.72 213.643 815.742 212.92C816.764 212.196 817.945 211.73 819.185 211.559C820.426 211.389 821.689 211.52 822.868 211.941C823.324 210.105 824.247 208.419 825.548 207.047C826.848 205.674 828.482 204.662 830.29 204.108C832.098 203.554 834.019 203.477 835.865 203.886C837.711 204.294 839.421 205.174 840.826 206.439C841.819 203.662 843.76 201.325 846.306 199.839C848.853 198.353 851.842 197.813 854.748 198.315C857.654 198.816 860.289 200.327 862.19 202.581C864.091 204.835 865.136 207.687 865.141 210.635C865.143 211.071 865.12 211.507 865.074 211.941C865.921 211.631 866.816 211.473 867.718 211.474C872.05 211.474 875.819 214.99 875.543 219.299C875.504 220.01 875.385 220.714 875.189 221.398H812.742C812.553 220.714 812.459 220.008 812.461 219.299L812.449 219.316Z" fill="#80C33F"/>
<path d="M879.398 210.989H753.66V241.932H879.398V210.989Z" fill="#D3DCE5"/>
<path d="M886.147 452.486C886.4 452.487 886.653 452.461 886.901 452.407C898.422 449.785 898.428 435.827 898.428 435.827C898.428 416.806 886.152 407.271 886.152 407.271C886.152 407.271 873.871 416.784 873.871 435.827C873.871 435.827 873.871 449.802 885.393 452.407C885.64 452.461 885.893 452.487 886.147 452.486Z" fill="#80C33F"/>
<path d="M886.148 426.039V473.516" stroke="#2A3A51" stroke-width="0.545875" stroke-linecap="round" stroke-linejoin="round"/>
<line y1="474" x2="1300" y2="474" stroke="#D9DDE2" stroke-width="2" stroke-miterlimit="10"/>
</g>
</svg>
