<svg width="23" height="19" viewBox="0 0 23 19" fill="none" xmlns="http://www.w3.org/2000/svg">
<path d="M8.39844 2.3125L4.92188 5.75H0.9375C0.390625 5.75 0 6.17969 0 6.6875V12.3125C0 12.8594 0.390625 13.25 0.9375 13.25H4.92188L8.39844 16.7266C8.98438 17.3125 10 16.9219 10 16.0625V2.97656C10 2.11719 8.98438 1.72656 8.39844 2.3125ZM17.5 0.28125C17.0703 0.0078125 16.4844 0.125 16.1719 0.554688C15.8984 1.02344 16.0156 1.60938 16.4453 1.88281C19.0625 3.5625 20.5859 6.45312 20.5859 9.53906C20.5859 12.5859 19.0625 15.4766 16.4453 17.1562C16.0156 17.4297 15.8984 18.0156 16.1719 18.4844C16.4453 18.875 17.0312 19.0312 17.5 18.7578C20.625 16.6875 22.5 13.25 22.5 9.5C22.5 5.78906 20.625 2.35156 17.5 0.28125ZM18.75 9.5C18.75 7.03906 17.4609 4.77344 15.3906 3.40625C14.9609 3.13281 14.375 3.25 14.1016 3.71875C13.8281 4.14844 13.9453 4.73438 14.375 5.00781C15.9375 5.98438 16.875 7.70312 16.875 9.5C16.875 11.3359 15.9375 13.0547 14.375 14.0312C13.9453 14.3047 13.8281 14.8906 14.1016 15.3203C14.3359 15.75 14.9219 15.9062 15.3906 15.6328C17.4609 14.2656 18.75 12 18.75 9.5ZM13.2031 6.53125C12.7344 6.25781 12.1875 6.41406 11.9141 6.88281C11.6797 7.35156 11.8359 7.89844 12.3047 8.17188C12.7734 8.44531 13.125 8.95312 13.125 9.5C13.125 10.0859 12.7734 10.5938 12.3047 10.8672C11.8359 11.1406 11.6797 11.6875 11.9141 12.1562C12.1875 12.625 12.7344 12.7812 13.2031 12.5078C14.2969 11.9219 15 10.75 15 9.5C15 8.28906 14.2969 7.11719 13.2031 6.53125Z" fill="#80C33F"/>
</svg>
