<svg width="11" height="15" viewBox="0 0 11 15" fill="none" xmlns="http://www.w3.org/2000/svg">
<path d="M5.44922 7.77734C5.61328 7.50391 5.64062 6.49219 5.39453 6.49219C5.33984 6.49219 5.3125 7.33984 5.44922 7.77734ZM5.42188 9.0625C5.20312 9.60938 4.92969 10.2383 4.62891 10.7578C5.14844 10.5664 5.69531 10.293 6.35156 10.1836C6.02344 9.91016 5.66797 9.52734 5.42188 9.0625ZM2.85156 12.4805C2.85156 12.4805 3.20703 12.3164 3.80859 11.3594C3.61719 11.5508 2.98828 12.043 2.85156 12.4805ZM7.28125 5.125C6.89844 5.125 6.625 4.85156 6.625 4.46875V0.75H1.15625C0.773438 0.75 0.5 1.05078 0.5 1.40625V14.0938C0.5 14.4766 0.773438 14.75 1.15625 14.75H10.3438C10.6992 14.75 11 14.4766 11 14.0938V5.125H7.28125ZM7.0625 9.82812C7.58203 9.77344 8.67578 9.66406 9.05859 10.0195C9.38672 10.3477 9.33203 11.2227 8.51172 11.2227C8.07422 11.2227 7.36328 11.0039 6.76172 10.6758C6.10547 10.7852 5.3125 11.0859 4.60156 11.332C3.91797 12.5078 3.42578 13 2.93359 13C2.79688 13 2.49609 12.918 2.35938 12.7266C1.83984 12.0977 3.09766 11.25 3.83594 10.8672C3.83594 10.8672 3.83594 10.8672 3.86328 10.8672C4.19141 10.293 4.65625 9.28125 4.95703 8.51562C4.73828 7.64062 4.60156 6.92969 4.73828 6.41016C4.90234 5.89062 5.91406 5.80859 6.05078 6.60156C6.1875 7.09375 5.99609 7.85938 5.88672 8.35156C6.13281 9.03516 6.51562 9.5 7.0625 9.82812ZM10.8086 3.62109L8.12891 0.941406C7.99219 0.832031 7.82812 0.75 7.66406 0.75H7.5V4.25H11V4.08594C11 3.92188 10.918 3.75781 10.8086 3.62109ZM8.75781 10.6211C8.89453 10.5391 8.70312 10.293 7.60938 10.375C8.62109 10.8125 8.75781 10.6211 8.75781 10.6211Z" fill="#80C33F"/>
</svg>
