<svg width="24" height="24" viewBox="0 0 24 24" fill="none" xmlns="http://www.w3.org/2000/svg">
<path d="M7.23295 0H3.42857C1.53502 0 0 1.53502 0 3.42857V6.85714C0 16.3249 7.67512 24 17.1429 24H20.5714C22.465 24 24 22.465 24 20.5714V18.2023C24 17.553 23.6331 16.9594 23.0524 16.669L18.9108 14.5982C17.9777 14.1317 16.8477 14.5997 16.5178 15.5894L16.0073 17.1208C15.6767 18.1128 14.6592 18.7033 13.6339 18.4982C9.53021 17.6775 6.32253 14.4698 5.5018 10.3661C5.29674 9.34084 5.88724 8.3233 6.87919 7.99265L8.7797 7.35915C9.62951 7.07588 10.118 6.18609 9.90069 5.31706L8.89606 1.29851C8.70527 0.535367 8.01958 0 7.23295 0Z" fill="#80C33F"/>
</svg>
