<svg width="12" height="12" viewBox="0 0 12 12" fill="none" xmlns="http://www.w3.org/2000/svg">
<path opacity="0.4" d="M3.61648 0H1.71429C0.767512 0 0 0.767512 0 1.71429V3.42857C0 8.16244 3.83756 12 8.57143 12H10.2857C11.2325 12 12 11.2325 12 10.2857V9.10117C12 8.77651 11.8166 8.47971 11.5262 8.33452L9.45539 7.29912C8.98884 7.06585 8.42385 7.29988 8.2589 7.79472L8.00367 8.56041C7.83835 9.05638 7.32958 9.35163 6.81693 9.2491C4.76511 8.83874 3.16126 7.23489 2.7509 5.18307C2.64837 4.67042 2.94362 4.16165 3.43959 3.99633L4.38985 3.67957C4.81475 3.53794 5.05898 3.09305 4.95035 2.65853L4.44803 0.649255C4.35264 0.267683 4.00979 0 3.61648 0Z" fill="#3F546F"/>
</svg>
