<svg width="24" height="19" viewBox="0 0 24 19" fill="none" xmlns="http://www.w3.org/2000/svg">
<path d="M13.7179 1.40288C13.1808 1.94004 13.1808 2.81088 13.7179 3.34713L14.8519 4.48104C14.9417 4.57088 14.9417 4.71571 14.8519 4.80554C14.762 4.89538 14.6172 4.89538 14.5274 4.80554L12.7444 3.02263C12.2073 2.48546 11.3364 2.48546 10.8002 3.02263C10.2639 3.55979 10.263 4.43062 10.8002 4.96688L12.5831 6.74979C12.6729 6.83963 12.6729 6.98446 12.5831 7.07429C12.4933 7.16412 12.3484 7.16412 12.2586 7.07429L9.82853 4.64329C9.29137 4.10613 8.42053 4.10613 7.88428 4.64329C7.34803 5.18046 7.34712 6.05129 7.88428 6.58754L10.3153 9.01854C10.4051 9.10837 10.4051 9.25321 10.3153 9.34304C10.2254 9.43287 10.0806 9.43287 9.99078 9.34304L3.34678 2.69904C2.80961 2.16187 1.93878 2.16187 1.40253 2.69904C0.866281 3.23621 0.865365 4.10704 1.40253 4.64329L8.98153 12.2223L5.61736 13.029L5.61553 13.0308C5.38178 13.083 5.15537 13.2059 4.96745 13.3938C4.42937 13.9319 4.42937 14.8 4.96745 15.338C5.15537 15.526 5.38912 15.6552 5.63478 15.7075L5.63112 15.7065L13.6409 17.7415C14.894 18.0596 16.2223 17.6948 17.1371 16.7809L21.4959 12.4221C22.9277 10.9903 22.9277 8.66838 21.4959 7.23654L15.6622 1.40288C15.125 0.865708 14.2551 0.865708 13.7179 1.40288Z" fill="white" stroke="#2A3A51"/>
</svg>
