<svg width="139" height="15" viewBox="0 0 139 15" fill="none" xmlns="http://www.w3.org/2000/svg">
<path d="M6.2485 5.216C6.2485 5.664 6.1405 6.084 5.9245 6.476C5.7165 6.868 5.3845 7.184 4.9285 7.424C4.4805 7.664 3.9125 7.784 3.2245 7.784H1.8205V11H0.1405V2.624H3.2245C3.8725 2.624 4.4245 2.736 4.8805 2.96C5.3365 3.184 5.6765 3.492 5.9005 3.884C6.1325 4.276 6.2485 4.72 6.2485 5.216ZM3.1525 6.428C3.6165 6.428 3.9605 6.324 4.1845 6.116C4.4085 5.9 4.5205 5.6 4.5205 5.216C4.5205 4.4 4.0645 3.992 3.1525 3.992H1.8205V6.428H3.1525ZM11.3293 11.084C10.5453 11.084 9.82528 10.9 9.16928 10.532C8.51328 10.164 7.99328 9.656 7.60928 9.008C7.22528 8.352 7.03328 7.612 7.03328 6.788C7.03328 5.972 7.22528 5.24 7.60928 4.592C7.99328 3.936 8.51328 3.424 9.16928 3.056C9.82528 2.688 10.5453 2.504 11.3293 2.504C12.1213 2.504 12.8413 2.688 13.4893 3.056C14.1453 3.424 14.6613 3.936 15.0373 4.592C15.4213 5.24 15.6133 5.972 15.6133 6.788C15.6133 7.612 15.4213 8.352 15.0373 9.008C14.6613 9.656 14.1453 10.164 13.4893 10.532C12.8333 10.9 12.1133 11.084 11.3293 11.084ZM11.3293 9.584C11.8333 9.584 12.2773 9.472 12.6613 9.248C13.0453 9.016 13.3453 8.688 13.5613 8.264C13.7773 7.84 13.8853 7.348 13.8853 6.788C13.8853 6.228 13.7773 5.74 13.5613 5.324C13.3453 4.9 13.0453 4.576 12.6613 4.352C12.2773 4.128 11.8333 4.016 11.3293 4.016C10.8253 4.016 10.3773 4.128 9.98528 4.352C9.60128 4.576 9.30128 4.9 9.08528 5.324C8.86928 5.74 8.76128 6.228 8.76128 6.788C8.76128 7.348 8.86928 7.84 9.08528 8.264C9.30128 8.688 9.60128 9.016 9.98528 9.248C10.3773 9.472 10.8253 9.584 11.3293 9.584ZM28.0592 2.624L25.7192 11H23.7392L22.1672 5.036L20.5232 11L18.5552 11.012L16.2992 2.624H18.0992L19.5752 9.128L21.2792 2.624H23.1512L24.7592 9.092L26.2472 2.624H28.0592ZM30.8361 3.98V6.08H33.6561V7.412H30.8361V9.632H34.0161V11H29.1561V2.612H34.0161V3.98H30.8361ZM39.8628 11L38.0148 7.736H37.2228V11H35.5428V2.624H38.6868C39.3348 2.624 39.8868 2.74 40.3428 2.972C40.7988 3.196 41.1388 3.504 41.3628 3.896C41.5948 4.28 41.7108 4.712 41.7108 5.192C41.7108 5.744 41.5508 6.244 41.2308 6.692C40.9108 7.132 40.4348 7.436 39.8028 7.604L41.8068 11H39.8628ZM37.2228 6.476H38.6268C39.0828 6.476 39.4228 6.368 39.6468 6.152C39.8708 5.928 39.9828 5.62 39.9828 5.228C39.9828 4.844 39.8708 4.548 39.6468 4.34C39.4228 4.124 39.0828 4.016 38.6268 4.016H37.2228V6.476ZM44.9103 3.98V6.08H47.7303V7.412H44.9103V9.632H48.0903V11H43.2303V2.612H48.0903V3.98H44.9103ZM52.5451 2.624C53.4251 2.624 54.1971 2.796 54.8611 3.14C55.5331 3.484 56.0491 3.976 56.4091 4.616C56.7771 5.248 56.9611 5.984 56.9611 6.824C56.9611 7.664 56.7771 8.4 56.4091 9.032C56.0491 9.656 55.5331 10.14 54.8611 10.484C54.1971 10.828 53.4251 11 52.5451 11H49.6171V2.624H52.5451ZM52.4851 9.572C53.3651 9.572 54.0451 9.332 54.5251 8.852C55.0051 8.372 55.2451 7.696 55.2451 6.824C55.2451 5.952 55.0051 5.272 54.5251 4.784C54.0451 4.288 53.3651 4.04 52.4851 4.04H51.2971V9.572H52.4851ZM65.83 6.704C66.302 6.792 66.69 7.028 66.994 7.412C67.298 7.796 67.45 8.236 67.45 8.732C67.45 9.18 67.338 9.576 67.114 9.92C66.898 10.256 66.582 10.52 66.166 10.712C65.75 10.904 65.258 11 64.69 11H61.078V2.624H64.534C65.102 2.624 65.59 2.716 65.998 2.9C66.414 3.084 66.726 3.34 66.934 3.668C67.15 3.996 67.258 4.368 67.258 4.784C67.258 5.272 67.126 5.68 66.862 6.008C66.606 6.336 66.262 6.568 65.83 6.704ZM62.758 6.08H64.294C64.694 6.08 65.002 5.992 65.218 5.816C65.434 5.632 65.542 5.372 65.542 5.036C65.542 4.7 65.434 4.44 65.218 4.256C65.002 4.072 64.694 3.98 64.294 3.98H62.758V6.08ZM64.45 9.632C64.858 9.632 65.174 9.536 65.398 9.344C65.63 9.152 65.746 8.88 65.746 8.528C65.746 8.168 65.626 7.888 65.386 7.688C65.146 7.48 64.822 7.376 64.414 7.376H62.758V9.632H64.45ZM75.4489 2.624L72.6169 8.084V11H70.9369V8.084L68.0929 2.624H69.9889L71.7889 6.452L73.5769 2.624H75.4489Z" fill="white" fill-opacity="0.5"/>
<path d="M92.7461 6.64062C92.7461 6.26562 92.6992 5.98438 92.6523 5.67969H87.1211V7.67188H90.4023C90.2852 8.53906 89.418 10.1797 87.1211 10.1797C85.1289 10.1797 83.5117 8.53906 83.5117 6.5C83.5117 3.24219 87.3555 1.74219 89.418 3.73438L91.0117 2.21094C90.0039 1.27344 88.668 0.6875 87.1211 0.6875C83.8867 0.6875 81.3086 3.28906 81.3086 6.5C81.3086 9.73438 83.8867 12.3125 87.1211 12.3125C90.4727 12.3125 92.7461 9.96875 92.7461 6.64062ZM102.265 5.144C102.073 4.792 101.809 4.524 101.473 4.34C101.137 4.156 100.745 4.064 100.297 4.064C99.8015 4.064 99.3615 4.176 98.9775 4.4C98.5935 4.624 98.2935 4.944 98.0775 5.36C97.8615 5.776 97.7535 6.256 97.7535 6.8C97.7535 7.36 97.8615 7.848 98.0775 8.264C98.3015 8.68 98.6095 9 99.0015 9.224C99.3935 9.448 99.8495 9.56 100.369 9.56C101.009 9.56 101.533 9.392 101.941 9.056C102.349 8.712 102.617 8.236 102.745 7.628H99.8655V6.344H104.401V7.808C104.289 8.392 104.049 8.932 103.681 9.428C103.313 9.924 102.837 10.324 102.253 10.628C101.677 10.924 101.029 11.072 100.309 11.072C99.5015 11.072 98.7695 10.892 98.1135 10.532C97.4655 10.164 96.9535 9.656 96.5775 9.008C96.2095 8.36 96.0255 7.624 96.0255 6.8C96.0255 5.976 96.2095 5.24 96.5775 4.592C96.9535 3.936 97.4655 3.428 98.1135 3.068C98.7695 2.7 99.4975 2.516 100.297 2.516C101.241 2.516 102.061 2.748 102.757 3.212C103.453 3.668 103.933 4.312 104.197 5.144H102.265ZM108.596 11.108C107.956 11.108 107.38 10.968 106.868 10.688C106.356 10.4 105.952 9.996 105.656 9.476C105.368 8.956 105.224 8.356 105.224 7.676C105.224 6.996 105.372 6.396 105.668 5.876C105.972 5.356 106.384 4.956 106.904 4.676C107.424 4.388 108.004 4.244 108.644 4.244C109.284 4.244 109.864 4.388 110.384 4.676C110.904 4.956 111.312 5.356 111.608 5.876C111.912 6.396 112.064 6.996 112.064 7.676C112.064 8.356 111.908 8.956 111.596 9.476C111.292 9.996 110.876 10.4 110.348 10.688C109.828 10.968 109.244 11.108 108.596 11.108ZM108.596 9.644C108.9 9.644 109.184 9.572 109.448 9.428C109.72 9.276 109.936 9.052 110.096 8.756C110.256 8.46 110.336 8.1 110.336 7.676C110.336 7.044 110.168 6.56 109.832 6.224C109.504 5.88 109.1 5.708 108.62 5.708C108.14 5.708 107.736 5.88 107.408 6.224C107.088 6.56 106.928 7.044 106.928 7.676C106.928 8.308 107.084 8.796 107.396 9.14C107.716 9.476 108.116 9.644 108.596 9.644ZM116.249 11.108C115.609 11.108 115.033 10.968 114.521 10.688C114.009 10.4 113.605 9.996 113.309 9.476C113.021 8.956 112.877 8.356 112.877 7.676C112.877 6.996 113.025 6.396 113.321 5.876C113.625 5.356 114.037 4.956 114.557 4.676C115.077 4.388 115.657 4.244 116.297 4.244C116.937 4.244 117.517 4.388 118.037 4.676C118.557 4.956 118.965 5.356 119.261 5.876C119.565 6.396 119.717 6.996 119.717 7.676C119.717 8.356 119.561 8.956 119.249 9.476C118.945 9.996 118.529 10.4 118.001 10.688C117.481 10.968 116.897 11.108 116.249 11.108ZM116.249 9.644C116.553 9.644 116.837 9.572 117.101 9.428C117.373 9.276 117.589 9.052 117.749 8.756C117.909 8.46 117.989 8.1 117.989 7.676C117.989 7.044 117.821 6.56 117.485 6.224C117.157 5.88 116.753 5.708 116.273 5.708C115.793 5.708 115.389 5.88 115.061 6.224C114.741 6.56 114.581 7.044 114.581 7.676C114.581 8.308 114.737 8.796 115.049 9.14C115.369 9.476 115.769 9.644 116.249 9.644ZM123.553 4.244C124.049 4.244 124.485 4.344 124.861 4.544C125.237 4.736 125.533 4.988 125.749 5.3V4.352H127.441V11.048C127.441 11.664 127.317 12.212 127.069 12.692C126.821 13.18 126.449 13.564 125.953 13.844C125.457 14.132 124.857 14.276 124.153 14.276C123.209 14.276 122.433 14.056 121.825 13.616C121.225 13.176 120.885 12.576 120.805 11.816H122.473C122.561 12.12 122.749 12.36 123.037 12.536C123.333 12.72 123.689 12.812 124.105 12.812C124.593 12.812 124.989 12.664 125.293 12.368C125.597 12.08 125.749 11.64 125.749 11.048V10.016C125.533 10.328 125.233 10.588 124.849 10.796C124.473 11.004 124.041 11.108 123.553 11.108C122.993 11.108 122.481 10.964 122.017 10.676C121.553 10.388 121.185 9.984 120.913 9.464C120.649 8.936 120.517 8.332 120.517 7.652C120.517 6.98 120.649 6.384 120.913 5.864C121.185 5.344 121.549 4.944 122.005 4.664C122.469 4.384 122.985 4.244 123.553 4.244ZM125.749 7.676C125.749 7.268 125.669 6.92 125.509 6.632C125.349 6.336 125.133 6.112 124.861 5.96C124.589 5.8 124.297 5.72 123.985 5.72C123.673 5.72 123.385 5.796 123.121 5.948C122.857 6.1 122.641 6.324 122.473 6.62C122.313 6.908 122.233 7.252 122.233 7.652C122.233 8.052 122.313 8.404 122.473 8.708C122.641 9.004 122.857 9.232 123.121 9.392C123.393 9.552 123.681 9.632 123.985 9.632C124.297 9.632 124.589 9.556 124.861 9.404C125.133 9.244 125.349 9.02 125.509 8.732C125.669 8.436 125.749 8.084 125.749 7.676ZM130.762 2.12V11H129.082V2.12H130.762ZM138.602 7.532C138.602 7.772 138.586 7.988 138.554 8.18H133.694C133.734 8.66 133.902 9.036 134.198 9.308C134.494 9.58 134.858 9.716 135.29 9.716C135.914 9.716 136.358 9.448 136.622 8.912H138.434C138.242 9.552 137.874 10.08 137.33 10.496C136.786 10.904 136.118 11.108 135.326 11.108C134.686 11.108 134.11 10.968 133.598 10.688C133.094 10.4 132.698 9.996 132.41 9.476C132.13 8.956 131.99 8.356 131.99 7.676C131.99 6.988 132.13 6.384 132.41 5.864C132.69 5.344 133.082 4.944 133.586 4.664C134.09 4.384 134.67 4.244 135.326 4.244C135.958 4.244 136.522 4.38 137.018 4.652C137.522 4.924 137.91 5.312 138.182 5.816C138.462 6.312 138.602 6.884 138.602 7.532ZM136.862 7.052C136.854 6.62 136.698 6.276 136.394 6.02C136.09 5.756 135.718 5.624 135.278 5.624C134.862 5.624 134.51 5.752 134.222 6.008C133.942 6.256 133.77 6.604 133.706 7.052H136.862Z" fill="white"/>
</svg>
