<svg width="20" height="20" viewBox="0 0 20 20" fill="none" xmlns="http://www.w3.org/2000/svg">
<path d="M6.02746 0H2.85714C1.27919 0 0 1.27919 0 2.85714V5.71429C0 13.6041 6.39593 20 14.2857 20H17.1429C18.7208 20 20 18.7208 20 17.1429V15.1686C20 14.6275 19.6943 14.1329 19.2103 13.8909L15.759 12.1652C14.9814 11.7764 14.0398 12.1665 13.7648 12.9912L13.3395 14.2673C13.0639 15.094 12.216 15.5861 11.3616 15.4152C7.94184 14.7312 5.26877 12.0582 4.58483 8.63845C4.41395 7.78403 4.90603 6.93608 5.73266 6.66054L7.31641 6.13262C8.02459 5.89657 8.43163 5.15508 8.25058 4.43088L7.41338 1.08209C7.25439 0.446139 6.68299 0 6.02746 0Z" fill="#FF523D"/>
</svg>
