<svg width="550" height="346" viewBox="0 0 550 346" fill="none" xmlns="http://www.w3.org/2000/svg">
<path d="M322.471 177.829H229.428V235.84H322.471V177.829Z" fill="white" stroke="#959DA8" stroke-width="2" stroke-miterlimit="10"/>
<path d="M448.663 170.295H198.539V178.582H448.663V170.295Z" fill="#D3DCE5"/>
<path d="M241.761 122.862L4.05688 61.5364L4.1586 53.4902L241.859 114.816L241.761 122.862Z" fill="#D3DCE5"/>
<path d="M536.055 235.463H15.9941V345.457H536.055V235.463Z" fill="white" stroke="#959DA8" stroke-width="2" stroke-miterlimit="10"/>
<path d="M536.055 235.463H15.0898V293.473H536.055V235.463Z" fill="white" stroke="#959DA8" stroke-width="2" stroke-miterlimit="10"/>
<path d="M229.432 174.25H15.0562V235.274H229.432V174.25Z" fill="white" stroke="#959DA8" stroke-width="2" stroke-miterlimit="10"/>
<path d="M229.518 175.192H15.2371V64.2559L229.518 119.63V175.192Z" fill="white" stroke="#959DA8" stroke-width="2" stroke-miterlimit="10"/>
<path d="M310.598 69.3716L548.11 8.04615L548.012 0L310.496 61.3255L310.598 69.3716Z" fill="#D3DCE5"/>
<path d="M322.117 121.701H536.225V10.7656L322.117 66.1394V121.701Z" fill="white" stroke="#959DA8" stroke-width="2.22" stroke-miterlimit="10"/>
<path d="M536.059 121.89H322.501V235.462H536.059V121.89Z" fill="white" stroke="#959DA8" stroke-width="1.97" stroke-miterlimit="10"/>
<path d="M143.742 186.802H111.323V224.294H143.742V186.802Z" fill="white" stroke="#959DA8" stroke-miterlimit="10"/>
<path d="M127.537 186.794V224.346" stroke="#959DA8" stroke-miterlimit="10"/>
<path d="M188.192 186.802H155.773V224.294H188.192V186.802Z" fill="white" stroke="#959DA8" stroke-miterlimit="10"/>
<path d="M171.986 186.794V224.346" stroke="#959DA8" stroke-miterlimit="10"/>
<path d="M143.742 245.464H111.323V282.956H143.742V245.464Z" fill="white" stroke="#959DA8" stroke-miterlimit="10"/>
<path d="M127.537 245.461V283.013" stroke="#959DA8" stroke-miterlimit="10"/>
<path d="M188.192 245.464H155.773V282.956H188.192V245.464Z" fill="white" stroke="#959DA8" stroke-miterlimit="10"/>
<path d="M171.986 245.461V283.013" stroke="#959DA8" stroke-miterlimit="10"/>
<path d="M143.742 303.012H111.323V340.504H143.742V303.012Z" fill="white" stroke="#959DA8" stroke-miterlimit="10"/>
<path d="M127.537 303.007V340.559" stroke="#959DA8" stroke-miterlimit="10"/>
<path d="M188.192 303.012H155.773V340.504H188.192V303.012Z" fill="white" stroke="#959DA8" stroke-miterlimit="10"/>
<path d="M171.986 303.007V340.559" stroke="#959DA8" stroke-miterlimit="10"/>
<path d="M269.934 303.012H237.516V340.504H269.934V303.012Z" fill="white" stroke="#959DA8" stroke-miterlimit="10"/>
<path d="M253.728 303.007V340.559" stroke="#959DA8" stroke-miterlimit="10"/>
<path d="M314.383 303.012H281.965V340.504H314.383V303.012Z" fill="white" stroke="#959DA8" stroke-miterlimit="10"/>
<path d="M298.178 303.007V340.559" stroke="#959DA8" stroke-miterlimit="10"/>
<path d="M96.4556 245.257H80.2578V265.222H96.4556V245.257Z" fill="white" stroke="#959DA8" stroke-miterlimit="10"/>
<path d="M80.2617 253.668H96.4557" stroke="#959DA8" stroke-miterlimit="10"/>
<path d="M96.4556 186.869H80.2578V206.834H96.4556V186.869Z" fill="white" stroke="#959DA8" stroke-miterlimit="10"/>
<path d="M80.2617 195.28H96.4557" stroke="#959DA8" stroke-miterlimit="10"/>
<path d="M219.257 245.257H203.059V265.222H219.257V245.257Z" fill="white" stroke="#959DA8" stroke-miterlimit="10"/>
<path d="M203.063 253.668H219.257" stroke="#959DA8" stroke-miterlimit="10"/>
<path d="M96.8323 303.268H80.6345V323.232H96.8323V303.268Z" fill="white" stroke="#959DA8" stroke-miterlimit="10"/>
<path d="M80.6384 311.679H96.8324" stroke="#959DA8" stroke-miterlimit="10"/>
<path d="M219.257 303.644H203.059V323.608H219.257V303.644Z" fill="white" stroke="#959DA8" stroke-miterlimit="10"/>
<path d="M203.063 312.056H219.257" stroke="#959DA8" stroke-miterlimit="10"/>
<path d="M219.257 186.869H203.059V206.834H219.257V186.869Z" fill="white" stroke="#959DA8" stroke-miterlimit="10"/>
<path d="M203.063 195.28H219.257" stroke="#959DA8" stroke-miterlimit="10"/>
<path d="M399.893 186.802H367.474V224.294H399.893V186.802Z" fill="white" stroke="#959DA8" stroke-miterlimit="10"/>
<path d="M383.687 186.794V224.346" stroke="#959DA8" stroke-miterlimit="10"/>
<path d="M444.342 186.802H411.924V224.294H444.342V186.802Z" fill="white" stroke="#959DA8" stroke-miterlimit="10"/>
<path d="M428.137 186.794V224.346" stroke="#959DA8" stroke-miterlimit="10"/>
<path d="M399.893 245.464H367.474V282.956H399.893V245.464Z" fill="white" stroke="#959DA8" stroke-miterlimit="10"/>
<path d="M383.687 245.461V283.013" stroke="#959DA8" stroke-miterlimit="10"/>
<path d="M444.342 245.464H411.924V282.956H444.342V245.464Z" fill="white" stroke="#959DA8" stroke-miterlimit="10"/>
<path d="M428.137 245.461V283.013" stroke="#959DA8" stroke-miterlimit="10"/>
<path d="M399.893 303.012H367.474V340.504H399.893V303.012Z" fill="white" stroke="#959DA8" stroke-miterlimit="10"/>
<path d="M383.687 303.007V340.559" stroke="#959DA8" stroke-miterlimit="10"/>
<path d="M444.342 303.012H411.924V340.504H444.342V303.012Z" fill="white" stroke="#959DA8" stroke-miterlimit="10"/>
<path d="M428.137 303.007V340.559" stroke="#959DA8" stroke-miterlimit="10"/>
<path d="M352.606 245.257H336.408V265.222H352.606V245.257Z" fill="white" stroke="#959DA8" stroke-miterlimit="10"/>
<path d="M336.413 253.668H352.607" stroke="#959DA8" stroke-miterlimit="10"/>
<path d="M352.606 186.869H336.408V206.834H352.606V186.869Z" fill="white" stroke="#959DA8" stroke-miterlimit="10"/>
<path d="M336.413 195.28H352.607" stroke="#959DA8" stroke-miterlimit="10"/>
<path d="M473.901 245.257H457.703V265.222H473.901V245.257Z" fill="white" stroke="#959DA8" stroke-miterlimit="10"/>
<path d="M457.707 253.668H473.901" stroke="#959DA8" stroke-miterlimit="10"/>
<path d="M347.709 303.268H331.511V323.232H347.709V303.268Z" fill="white" stroke="#959DA8" stroke-miterlimit="10"/>
<path d="M331.515 311.679H347.709" stroke="#959DA8" stroke-miterlimit="10"/>
<path d="M473.901 303.644H457.703V323.608H473.901V303.644Z" fill="white" stroke="#959DA8" stroke-miterlimit="10"/>
<path d="M457.707 312.056H473.901" stroke="#959DA8" stroke-miterlimit="10"/>
<path d="M473.901 186.869H457.703V206.834H473.901V186.869Z" fill="white" stroke="#959DA8" stroke-miterlimit="10"/>
<path d="M457.707 195.28H473.901" stroke="#959DA8" stroke-miterlimit="10"/>
<path d="M399.893 132.181H367.474V169.673H399.893V132.181Z" fill="white" stroke="#959DA8" stroke-miterlimit="10"/>
<path d="M383.687 132.174V169.726" stroke="#959DA8" stroke-miterlimit="10"/>
<path d="M444.342 132.181H411.924V169.673H444.342V132.181Z" fill="white" stroke="#959DA8" stroke-miterlimit="10"/>
<path d="M428.137 132.174V169.726" stroke="#959DA8" stroke-miterlimit="10"/>
<path d="M352.606 132.249H336.408V152.214H352.606V132.249Z" fill="white" stroke="#959DA8" stroke-miterlimit="10"/>
<path d="M336.413 140.661H352.607" stroke="#959DA8" stroke-miterlimit="10"/>
<path d="M473.901 132.249H457.703V152.214H473.901V132.249Z" fill="white" stroke="#959DA8" stroke-miterlimit="10"/>
<path d="M457.707 140.661H473.901" stroke="#959DA8" stroke-miterlimit="10"/>
<path d="M64.4258 186.877H19.9761V229.778H64.4258V186.877Z" fill="white" stroke="#959DA8" stroke-miterlimit="10"/>
<path d="M33.7363 186.779V229.059" stroke="#959DA8" stroke-miterlimit="10"/>
<path d="M51.0679 186.779V229.059" stroke="#959DA8" stroke-miterlimit="10"/>
<path d="M181.954 132.257H137.504V175.158H181.954V132.257Z" fill="white" stroke="#959DA8" stroke-miterlimit="10"/>
<path d="M151.641 132.159V174.439" stroke="#959DA8" stroke-miterlimit="10"/>
<path d="M168.596 132.159V174.439" stroke="#959DA8" stroke-miterlimit="10"/>
<path d="M64.4258 245.264H19.9761V288.165H64.4258V245.264Z" fill="white" stroke="#959DA8" stroke-miterlimit="10"/>
<path d="M34.113 245.167V287.447" stroke="#959DA8" stroke-miterlimit="10"/>
<path d="M51.0679 245.167V287.447" stroke="#959DA8" stroke-miterlimit="10"/>
<path d="M298.352 245.264H253.902V288.165H298.352V245.264Z" fill="white" stroke="#959DA8" stroke-miterlimit="10"/>
<path d="M268.039 245.167V287.447" stroke="#959DA8" stroke-miterlimit="10"/>
<path d="M284.994 245.167V287.447" stroke="#959DA8" stroke-miterlimit="10"/>
<path d="M298.352 186.877H253.902V229.778H298.352V186.877Z" fill="white" stroke="#959DA8" stroke-miterlimit="10"/>
<path d="M267.662 186.779V229.059" stroke="#959DA8" stroke-miterlimit="10"/>
<path d="M284.994 186.779V229.059" stroke="#959DA8" stroke-miterlimit="10"/>
<path d="M62.9265 122.794V122.797H55.5848L48.2431 122.794L18.4957 122.786L18.4844 70.166L32.6066 73.8124L48.2506 77.8468L48.4276 77.892L62.7419 81.5873L62.919 81.6325L62.9265 122.794Z" fill="white" stroke="#959DA8" stroke-miterlimit="10"/>
<path d="M32.606 122.734V73.8135" stroke="#959DA8" stroke-miterlimit="10"/>
<path d="M48.4272 122.357V77.8926" stroke="#959DA8" stroke-miterlimit="10"/>
<path d="M92.6813 89.3094L92.6737 122.786H85.5317L62.9264 122.794L55.5846 122.797H48.2429V122.794L48.2505 77.8467L48.4275 77.8919L62.7418 81.5872L62.9188 81.6324L78.3783 85.6216L78.5629 85.6668L92.5005 89.2642L92.6813 89.3094Z" fill="white" stroke="#959DA8" stroke-miterlimit="10"/>
<path d="M78.5625 122.358V85.668" stroke="#959DA8" stroke-miterlimit="10"/>
<path d="M62.7417 122.734V81.5879" stroke="#959DA8" stroke-miterlimit="10"/>
<path d="M152.395 104.716L152.572 104.762L152.568 122.786H145.426L122.82 122.794L115.479 122.798H108.137V122.794L108.145 93.2988L108.322 93.344L122.636 97.0394L122.813 97.0846L138.276 101.074L138.457 101.119L152.395 104.716Z" fill="white" stroke="#959DA8" stroke-miterlimit="10"/>
<path d="M138.457 122.455V101.119" stroke="#959DA8" stroke-miterlimit="10"/>
<path d="M122.636 122.454V97.0391" stroke="#959DA8" stroke-miterlimit="10"/>
<path d="M122.821 122.794V122.798H115.479L108.137 122.794L85.5318 122.787H78.3897L78.3784 85.6221L78.563 85.6673L92.5006 89.2647L92.6814 89.3099L108.145 93.2991L108.322 93.3443L122.636 97.0396L122.813 97.0848L122.821 122.794Z" fill="white" stroke="#959DA8" stroke-miterlimit="10"/>
<path d="M92.5002 122.832V89.2646" stroke="#959DA8" stroke-miterlimit="10"/>
<path d="M108.321 122.831V93.3438" stroke="#959DA8" stroke-miterlimit="10"/>
<path d="M182.714 122.794V122.798H175.373L168.031 122.794L145.425 122.787H138.283L138.276 101.074L138.457 101.119L152.394 104.717L152.571 104.762L168.035 108.751L168.215 108.796L182.53 112.492L182.71 112.537L182.714 122.794Z" fill="white" stroke="#959DA8" stroke-miterlimit="10"/>
<path d="M152.394 122.455V104.717" stroke="#959DA8" stroke-miterlimit="10"/>
<path d="M168.215 122.456V108.797" stroke="#959DA8" stroke-miterlimit="10"/>
<path d="M212.462 120.214V122.787L182.714 122.794L175.373 122.798H168.031V122.794L168.035 108.751L168.216 108.796L182.53 112.492L182.711 112.537L198.351 116.571L212.462 120.214Z" fill="white" stroke="#959DA8" stroke-miterlimit="10"/>
<path d="M198.351 122.832V116.571" stroke="#959DA8" stroke-miterlimit="10"/>
<path d="M182.53 122.831V112.491" stroke="#959DA8" stroke-miterlimit="10"/>
<path d="M533.031 186.877H488.581V229.778H533.031V186.877Z" fill="white" stroke="#959DA8" stroke-miterlimit="10"/>
<path d="M502.718 186.779V229.059" stroke="#959DA8" stroke-miterlimit="10"/>
<path d="M519.673 186.779V229.059" stroke="#959DA8" stroke-miterlimit="10"/>
<path d="M533.031 245.264H488.581V288.165H533.031V245.264Z" fill="white" stroke="#959DA8" stroke-miterlimit="10"/>
<path d="M502.718 245.167V287.447" stroke="#959DA8" stroke-miterlimit="10"/>
<path d="M519.673 245.167V287.447" stroke="#959DA8" stroke-miterlimit="10"/>
<path d="M533.031 132.257H488.581V175.158H533.031V132.257Z" fill="white" stroke="#959DA8" stroke-miterlimit="10"/>
<path d="M502.718 132.159V174.439" stroke="#959DA8" stroke-miterlimit="10"/>
<path d="M519.673 132.159V174.439" stroke="#959DA8" stroke-miterlimit="10"/>
<path d="M229.609 156.734H11.0481V177.076H229.609V156.734Z" fill="white" stroke="#959DA8" stroke-width="1.95" stroke-miterlimit="10"/>
<path d="M292.486 272.567V293.474H288.885L288.888 272.567H292.486Z" fill="white" stroke="#959DA8" stroke-miterlimit="10"/>
<path d="M288.719 272.567V293.474H285.118L285.121 272.567H288.719Z" fill="white" stroke="#959DA8" stroke-miterlimit="10"/>
<path d="M296.253 272.567H292.573V293.474H296.253V272.567Z" fill="white" stroke="#959DA8" stroke-miterlimit="10"/>
<path d="M300.02 272.567H296.34V293.474H300.02V272.567Z" fill="white" stroke="#959DA8" stroke-miterlimit="10"/>
<path d="M303.787 272.567H300.107V293.474H303.787V272.567Z" fill="white" stroke="#959DA8" stroke-miterlimit="10"/>
<path d="M307.554 272.567H303.874V293.474H307.554V272.567Z" fill="white" stroke="#959DA8" stroke-miterlimit="10"/>
<path d="M311.321 272.567H307.641V293.474H311.321V272.567Z" fill="white" stroke="#959DA8" stroke-miterlimit="10"/>
<path d="M315.088 272.567H311.407V293.474H315.088V272.567Z" fill="white" stroke="#959DA8" stroke-miterlimit="10"/>
<path d="M318.855 272.567H315.175V293.474H318.855V272.567Z" fill="white" stroke="#959DA8" stroke-miterlimit="10"/>
<path d="M322.622 272.567H318.942V293.474H322.622V272.567Z" fill="white" stroke="#959DA8" stroke-miterlimit="10"/>
<path d="M273.651 272.567V293.474H270.05L270.054 272.567H273.651Z" fill="white" stroke="#959DA8" stroke-miterlimit="10"/>
<path d="M277.419 272.567H273.738V293.474H277.419V272.567Z" fill="white" stroke="#959DA8" stroke-miterlimit="10"/>
<path d="M281.185 272.567H277.505V293.474H281.185V272.567Z" fill="white" stroke="#959DA8" stroke-miterlimit="10"/>
<path d="M284.952 272.567H281.272V293.474H284.952V272.567Z" fill="white" stroke="#959DA8" stroke-miterlimit="10"/>
<path d="M235.982 272.567V293.474H232.381L232.385 272.567H235.982Z" fill="white" stroke="#959DA8" stroke-miterlimit="10"/>
<path d="M232.215 272.567V293.474H228.614L228.618 272.567H232.215Z" fill="white" stroke="#959DA8" stroke-miterlimit="10"/>
<path d="M239.749 272.567H236.069V293.474H239.749V272.567Z" fill="white" stroke="#959DA8" stroke-miterlimit="10"/>
<path d="M243.516 272.567H239.836V293.474H243.516V272.567Z" fill="white" stroke="#959DA8" stroke-miterlimit="10"/>
<path d="M247.283 272.567H243.603V293.474H247.283V272.567Z" fill="white" stroke="#959DA8" stroke-miterlimit="10"/>
<path d="M251.05 272.567H247.37V293.474H251.05V272.567Z" fill="white" stroke="#959DA8" stroke-miterlimit="10"/>
<path d="M254.817 272.567H251.137V293.474H254.817V272.567Z" fill="white" stroke="#959DA8" stroke-miterlimit="10"/>
<path d="M258.584 272.567H254.904V293.474H258.584V272.567Z" fill="white" stroke="#959DA8" stroke-miterlimit="10"/>
<path d="M262.351 272.567H258.671V293.474H262.351V272.567Z" fill="white" stroke="#959DA8" stroke-miterlimit="10"/>
<path d="M266.118 272.567H262.438V293.474H266.118V272.567Z" fill="white" stroke="#959DA8" stroke-miterlimit="10"/>
<path d="M269.885 272.567H266.205V293.474H269.885V272.567Z" fill="white" stroke="#959DA8" stroke-miterlimit="10"/>
<path d="M322.474 272.756H228.78V293.474H322.474V272.756Z" stroke="#959DA8" stroke-width="2" stroke-miterlimit="10"/>
<path d="M528.672 272.567V293.474H525.071L525.075 272.567H528.672Z" fill="white" stroke="#959DA8" stroke-miterlimit="10"/>
<path d="M532.439 272.567H528.759V293.474H532.439V272.567Z" fill="white" stroke="#959DA8" stroke-miterlimit="10"/>
<path d="M536.206 272.567H532.526V293.474H536.206V272.567Z" fill="white" stroke="#959DA8" stroke-miterlimit="10"/>
<path d="M539.973 272.567H536.293V293.474H539.973V272.567Z" fill="white" stroke="#959DA8" stroke-miterlimit="10"/>
<path d="M491.003 272.567V293.474H487.401L487.405 272.567H491.003Z" fill="white" stroke="#959DA8" stroke-miterlimit="10"/>
<path d="M487.236 272.567V293.474H483.635L483.638 272.567H487.236Z" fill="white" stroke="#959DA8" stroke-miterlimit="10"/>
<path d="M494.77 272.567H491.09V293.474H494.77V272.567Z" fill="white" stroke="#959DA8" stroke-miterlimit="10"/>
<path d="M498.537 272.567H494.857V293.474H498.537V272.567Z" fill="white" stroke="#959DA8" stroke-miterlimit="10"/>
<path d="M502.304 272.567H498.624V293.474H502.304V272.567Z" fill="white" stroke="#959DA8" stroke-miterlimit="10"/>
<path d="M506.071 272.567H502.391V293.474H506.071V272.567Z" fill="white" stroke="#959DA8" stroke-miterlimit="10"/>
<path d="M509.838 272.567H506.157V293.474H509.838V272.567Z" fill="white" stroke="#959DA8" stroke-miterlimit="10"/>
<path d="M513.605 272.567H509.924V293.474H513.605V272.567Z" fill="white" stroke="#959DA8" stroke-miterlimit="10"/>
<path d="M517.371 272.567H513.691V293.474H517.371V272.567Z" fill="white" stroke="#959DA8" stroke-miterlimit="10"/>
<path d="M521.138 272.567H517.458V293.474H521.138V272.567Z" fill="white" stroke="#959DA8" stroke-miterlimit="10"/>
<path d="M524.906 272.567H521.225V293.474H524.906V272.567Z" fill="white" stroke="#959DA8" stroke-miterlimit="10"/>
<path d="M539.826 272.756H483.801V293.474H539.826V272.756Z" stroke="#959DA8" stroke-width="2" stroke-miterlimit="10"/>
<path d="M493.112 220.87C493.261 220.871 493.408 220.856 493.553 220.825C500.334 219.284 500.334 211.102 500.334 211.102C500.392 206.115 498.809 201.247 495.828 197.247C495.512 196.829 495.104 196.49 494.634 196.256C494.165 196.023 493.648 195.901 493.124 195.901C492.6 195.901 492.083 196.023 491.613 196.256C491.144 196.49 490.735 196.829 490.419 197.247C487.44 201.246 485.859 206.113 485.918 211.098C485.918 211.098 485.918 219.299 492.675 220.825C492.82 220.856 492.968 220.871 493.116 220.87H493.112Z" fill="#80C33F"/>
<path d="M493.116 205.35V233.202" stroke="#2A3A51" stroke-linecap="round" stroke-linejoin="round"/>
<path d="M383.495 107.862C383.643 107.863 383.791 107.848 383.936 107.817C390.716 106.276 390.716 98.0944 390.716 98.0944C390.775 93.107 389.192 88.2387 386.211 84.2396C385.895 83.8214 385.486 83.4822 385.017 83.2487C384.548 83.0151 384.031 82.8936 383.506 82.8936C382.982 82.8936 382.465 83.0151 381.996 83.2487C381.527 83.4822 381.118 83.8214 380.802 84.2396C377.823 88.2382 376.241 93.1049 376.3 98.0906C376.3 98.0906 376.3 106.291 383.058 107.817C383.203 107.848 383.351 107.863 383.499 107.862H383.495Z" fill="#80C33F"/>
<path d="M383.499 92.3418V120.194" stroke="#2A3A51" stroke-linecap="round" stroke-linejoin="round"/>
<path d="M46.8566 304.225H30.7153V339.291H46.8566V304.225Z" fill="#D3DCE5"/>
<path d="M44.5699 306.45H32.9941V323.149H44.5699V306.45Z" fill="white" stroke="#959DA8" stroke-miterlimit="10"/>
<path d="M16.3293 293.477H13.3572V345.083H16.3293V293.477Z" fill="white" stroke="#959DA8" stroke-width="2" stroke-miterlimit="10"/>
<path d="M64.9228 293.477H61.9507V345.46H64.9228V293.477Z" fill="white" stroke="#959DA8" stroke-width="2" stroke-miterlimit="10"/>
<path d="M64.8131 338.156H13.583V341.837H64.8131V338.156Z" fill="white" stroke="#959DA8" stroke-width="2" stroke-miterlimit="10"/>
<path d="M64.8131 341.829H13.583V345.509H64.8131V341.829Z" fill="white" stroke="#959DA8" stroke-width="2" stroke-miterlimit="10"/>
<path d="M33.7361 326.058C34.1521 326.058 34.4894 325.72 34.4894 325.304C34.4894 324.888 34.1521 324.551 33.7361 324.551C33.32 324.551 32.9827 324.888 32.9827 325.304C32.9827 325.72 33.32 326.058 33.7361 326.058Z" fill="white" stroke="#959DA8" stroke-miterlimit="10"/>
<path d="M518.475 304.225H502.334V339.291H518.475V304.225Z" fill="#D3DCE5"/>
<path d="M516.188 306.45H504.613V323.149H516.188V306.45Z" fill="white" stroke="#959DA8" stroke-miterlimit="10"/>
<path d="M487.948 293.477H484.976V345.083H487.948V293.477Z" fill="white" stroke="#959DA8" stroke-width="2" stroke-miterlimit="10"/>
<path d="M536.541 293.477H533.569V345.46H536.541V293.477Z" fill="white" stroke="#959DA8" stroke-width="2" stroke-miterlimit="10"/>
<path d="M536.432 338.156H485.202V341.837H536.432V338.156Z" fill="white" stroke="#959DA8" stroke-width="2" stroke-miterlimit="10"/>
<path d="M536.432 341.829H485.202V345.509H536.432V341.829Z" fill="white" stroke="#959DA8" stroke-width="2" stroke-miterlimit="10"/>
<path d="M505.355 326.058C505.771 326.058 506.108 325.72 506.108 325.304C506.108 324.888 505.771 324.551 505.355 324.551C504.939 324.551 504.602 324.888 504.602 325.304C504.602 325.72 504.939 326.058 505.355 326.058Z" fill="white" stroke="#959DA8" stroke-miterlimit="10"/>
<path d="M18.7666 323.127C19.0023 321.942 18.9908 320.721 18.7327 319.541C18.4792 318.372 17.9811 317.271 17.2711 316.309C16.5806 315.37 15.6886 314.598 14.6606 314.049C13.6567 313.512 12.5402 313.219 11.402 313.195C10.2637 313.171 9.13584 313.415 8.10996 313.909C7.06413 314.413 6.14498 315.146 5.42042 316.053C4.67596 316.984 4.13788 318.062 3.84201 319.217C3.54048 320.387 3.48407 321.606 3.67629 322.799C2.82522 323.244 2.08202 323.87 1.499 324.634C0.900495 325.416 0.470854 326.314 0.237133 327.27C-0.00159221 328.238 -0.042617 329.244 0.116566 330.228C0.273885 331.204 0.630351 332.137 1.16378 332.97C1.68272 333.783 2.37145 334.474 3.1828 334.996C3.97862 335.507 4.88048 335.829 5.81964 335.938C6.74964 336.046 7.6919 335.937 8.57329 335.622C9.46859 335.302 10.2817 334.787 10.954 334.115C11.6046 334.778 12.3911 335.292 13.2593 335.622C14.1115 335.945 15.0254 336.074 15.9339 335.998C16.8449 335.915 17.7261 335.631 18.5142 335.166C19.32 334.689 20.0159 334.047 20.5559 333.282C21.1097 332.499 21.5004 331.613 21.7048 330.676C21.913 329.73 21.9335 328.752 21.7651 327.798C21.5996 326.851 21.246 325.947 20.7254 325.138C20.2221 324.337 19.5545 323.651 18.7666 323.127Z" fill="#80C33F"/>
<path d="M11.2442 330.307L7.69946 327.783" stroke="#2A3A51" stroke-linecap="round" stroke-linejoin="round"/>
<path d="M11.2441 333.463L15.3878 329.696" stroke="#2A3A51" stroke-linecap="round" stroke-linejoin="round"/>
<path d="M11.2441 322.734V345.456" stroke="#2A3A51" stroke-linecap="round" stroke-linejoin="round"/>
<path d="M546.889 323.127C547.125 321.942 547.113 320.721 546.855 319.541C546.602 318.372 546.103 317.271 545.393 316.309C544.703 315.37 543.811 314.598 542.783 314.049C541.779 313.512 540.663 313.219 539.524 313.195C538.386 313.171 537.258 313.415 536.232 313.909C535.186 314.413 534.267 315.146 533.543 316.053C532.798 316.984 532.26 318.062 531.964 319.217C531.663 320.387 531.606 321.606 531.799 322.799C530.948 323.244 530.204 323.87 529.621 324.634C529.023 325.416 528.593 326.314 528.359 327.27C528.121 328.238 528.08 329.244 528.239 330.228C528.396 331.204 528.753 332.137 529.286 332.97C529.805 333.783 530.494 334.474 531.305 334.996C532.101 335.507 533.003 335.829 533.942 335.938C534.872 336.046 535.814 335.937 536.696 335.622C536.9 335.173 537.228 334.792 537.642 334.524C538.055 334.256 538.537 334.112 539.03 334.109C539.523 334.106 540.007 334.245 540.423 334.508C540.84 334.772 541.173 335.149 541.382 335.595C542.234 335.919 543.148 336.048 544.056 335.972C544.967 335.889 545.848 335.604 546.636 335.14C547.442 334.663 548.138 334.021 548.678 333.256C549.232 332.473 549.623 331.587 549.827 330.649C550.035 329.703 550.056 328.725 549.887 327.771C549.722 326.824 549.368 325.92 548.848 325.112C548.341 324.32 547.674 323.644 546.889 323.127Z" fill="#80C33F"/>
<path d="M539.367 330.307L535.822 327.783" stroke="#2A3A51" stroke-linecap="round" stroke-linejoin="round"/>
<path d="M539.367 333.463L543.511 329.696" stroke="#2A3A51" stroke-linecap="round" stroke-linejoin="round"/>
<path d="M539.367 322.734V345.456" stroke="#2A3A51" stroke-linecap="round" stroke-linejoin="round"/>
<path d="M104.37 331.429C104.54 331.43 104.709 331.413 104.875 331.376C112.589 329.621 112.593 320.275 112.593 320.275C112.593 307.539 104.374 301.154 104.374 301.154C104.374 301.154 96.1582 307.524 96.1582 320.275C96.1582 320.275 96.1582 329.632 103.873 331.376C104.039 331.413 104.208 331.43 104.378 331.429H104.37Z" fill="#80C33F"/>
<path d="M104.37 313.717V345.506" stroke="#2A3A51" stroke-linecap="round" stroke-linejoin="round"/>
<path d="M229.432 335.678C229.548 335.679 229.665 335.666 229.778 335.641C235.082 334.435 235.082 328.009 235.082 328.009C235.082 319.255 229.432 314.862 229.432 314.862C229.432 314.862 223.781 319.243 223.781 328.005C223.781 328.005 223.781 334.439 229.085 335.637C229.199 335.662 229.315 335.675 229.432 335.675V335.678Z" fill="#80C33F"/>
<path d="M229.432 323.503V345.351" stroke="#2A3A51" stroke-linecap="round" stroke-linejoin="round"/>
<path d="M232.441 221.638C232.438 220.8 232.636 219.973 233.02 219.227C233.404 218.482 233.961 217.84 234.646 217.355C235.33 216.871 236.121 216.559 236.952 216.444C237.782 216.33 238.628 216.418 239.418 216.7C239.723 215.471 240.341 214.342 241.212 213.423C242.083 212.504 243.177 211.826 244.387 211.455C245.598 211.084 246.884 211.033 248.12 211.306C249.356 211.58 250.501 212.169 251.442 213.016C252.107 211.157 253.406 209.592 255.111 208.597C256.816 207.602 258.818 207.24 260.764 207.576C262.709 207.912 264.474 208.924 265.747 210.433C267.02 211.942 267.719 213.852 267.722 215.826C267.723 216.118 267.708 216.41 267.677 216.7C268.244 216.493 268.844 216.387 269.448 216.387C272.348 216.387 274.872 218.741 274.687 221.627C274.661 222.103 274.581 222.574 274.45 223.032H232.637C232.511 222.574 232.448 222.102 232.449 221.627L232.441 221.638Z" fill="#80C33F"/>
<path d="M62.9189 128.866H18.4692V171.768H62.9189V128.866Z" fill="white" stroke="#959DA8" stroke-miterlimit="10"/>
<path d="M32.606 128.769V171.048" stroke="#959DA8" stroke-miterlimit="10"/>
<path d="M48.4312 128.769V171.048" stroke="#959DA8" stroke-miterlimit="10"/>
<path d="M48.2544 128.866H92.7041V171.768H48.2544V128.866Z" fill="white" stroke="#959DA8" stroke-miterlimit="10"/>
<path d="M78.5625 128.769V171.048" stroke="#959DA8" stroke-miterlimit="10"/>
<path d="M62.7417 128.769V171.048" stroke="#959DA8" stroke-miterlimit="10"/>
<path d="M108.148 128.866H152.598V171.768H108.148V128.866Z" fill="white" stroke="#959DA8" stroke-miterlimit="10"/>
<path d="M138.457 128.769V171.048" stroke="#959DA8" stroke-miterlimit="10"/>
<path d="M122.636 128.769V171.048" stroke="#959DA8" stroke-miterlimit="10"/>
<path d="M122.813 128.866H78.3633V171.768H122.813V128.866Z" fill="white" stroke="#959DA8" stroke-miterlimit="10"/>
<path d="M92.5002 128.769V171.048" stroke="#959DA8" stroke-miterlimit="10"/>
<path d="M108.325 128.769V171.048" stroke="#959DA8" stroke-miterlimit="10"/>
<path d="M182.707 128.866H138.257V171.768H182.707V128.866Z" fill="white" stroke="#959DA8" stroke-miterlimit="10"/>
<path d="M152.394 128.769V171.048" stroke="#959DA8" stroke-miterlimit="10"/>
<path d="M168.219 128.769V171.048" stroke="#959DA8" stroke-miterlimit="10"/>
<path d="M168.042 128.866H212.492V171.768H168.042V128.866Z" fill="white" stroke="#959DA8" stroke-miterlimit="10"/>
<path d="M198.351 128.769V171.048" stroke="#959DA8" stroke-miterlimit="10"/>
<path d="M182.53 128.769V171.048" stroke="#959DA8" stroke-miterlimit="10"/>
<path d="M225.473 128.858V177.64H212.288V128.862L225.473 128.858Z" fill="white" stroke="#959DA8" stroke-miterlimit="10"/>
<path d="M488.035 70.8103V70.8141H495.377L502.718 70.8103L532.466 70.8028L532.477 18.1826L518.355 21.829L502.711 25.8634L502.534 25.9086L488.219 29.6039L488.042 29.6491L488.035 70.8103Z" fill="white" stroke="#959DA8" stroke-miterlimit="10"/>
<path d="M518.355 21.8301V70.7511" stroke="#959DA8" stroke-miterlimit="10"/>
<path d="M502.533 25.9082V70.373" stroke="#959DA8" stroke-miterlimit="10"/>
<path d="M458.28 37.326L458.287 70.8027H465.429L488.035 70.8102L495.376 70.814H502.718V70.8102L502.711 25.8633L502.534 25.9085L488.219 29.6038L488.042 29.649L472.583 33.6382L472.398 33.6834L458.461 37.2808L458.28 37.326Z" fill="white" stroke="#959DA8" stroke-miterlimit="10"/>
<path d="M472.398 33.6836V70.3734" stroke="#959DA8" stroke-miterlimit="10"/>
<path d="M488.219 29.6045V70.7506" stroke="#959DA8" stroke-miterlimit="10"/>
<path d="M398.567 52.733L398.39 52.7782L398.393 70.8029H405.535L428.141 70.8104L435.483 70.8142H442.824V70.8104L442.817 41.3154L442.64 41.3606L428.325 45.056L428.148 45.1012L412.685 49.0904L412.504 49.1356L398.567 52.733Z" fill="white" stroke="#959DA8" stroke-miterlimit="10"/>
<path d="M412.504 49.1357V70.4716" stroke="#959DA8" stroke-miterlimit="10"/>
<path d="M428.325 45.0557V70.4711" stroke="#959DA8" stroke-miterlimit="10"/>
<path d="M428.141 70.8107V70.8144H435.483L442.824 70.8107L465.43 70.8031H472.572L472.583 33.6387L472.398 33.6839L458.461 37.2813L458.28 37.3265L442.817 41.3157L442.64 41.3609L428.325 45.0562L428.148 45.1014L428.141 70.8107Z" fill="white" stroke="#959DA8" stroke-miterlimit="10"/>
<path d="M458.461 37.2812V70.8483" stroke="#959DA8" stroke-miterlimit="10"/>
<path d="M442.639 41.3613V70.8488" stroke="#959DA8" stroke-miterlimit="10"/>
<path d="M368.246 70.8109V70.8147H375.588L382.93 70.8109L405.535 70.8034H412.677L412.685 49.0908L412.504 49.136L398.566 52.7334L398.389 52.7786L382.926 56.7678L382.745 56.813L368.431 60.5084L368.25 60.5536L368.246 70.8109Z" fill="white" stroke="#959DA8" stroke-miterlimit="10"/>
<path d="M398.567 52.7334V70.8485" stroke="#959DA8" stroke-miterlimit="10"/>
<path d="M382.745 56.8125V70.4714" stroke="#959DA8" stroke-miterlimit="10"/>
<path d="M338.499 68.2303V70.8031L368.247 70.8107L375.588 70.8144H382.93V70.8107L382.926 56.7676L382.746 56.8128L368.431 60.5081L368.25 60.5533L352.61 64.5877L338.499 68.2303Z" fill="white" stroke="#959DA8" stroke-miterlimit="10"/>
<path d="M352.61 64.5869V70.8475" stroke="#959DA8" stroke-miterlimit="10"/>
<path d="M368.431 60.5088V70.849" stroke="#959DA8" stroke-miterlimit="10"/>
<path d="M488.046 76.8828H532.496V119.784H488.046V76.8828Z" fill="white" stroke="#959DA8" stroke-miterlimit="10"/>
<path d="M518.355 76.7852V119.065" stroke="#959DA8" stroke-miterlimit="10"/>
<path d="M502.533 76.7852V119.065" stroke="#959DA8" stroke-miterlimit="10"/>
<path d="M502.707 76.8828H458.257V119.784H502.707V76.8828Z" fill="white" stroke="#959DA8" stroke-miterlimit="10"/>
<path d="M472.398 76.7852V119.065" stroke="#959DA8" stroke-miterlimit="10"/>
<path d="M488.219 76.7852V119.065" stroke="#959DA8" stroke-miterlimit="10"/>
<path d="M442.813 76.8828H398.363V119.784H442.813V76.8828Z" fill="white" stroke="#959DA8" stroke-miterlimit="10"/>
<path d="M412.504 76.7852V119.065" stroke="#959DA8" stroke-miterlimit="10"/>
<path d="M428.325 76.7852V119.065" stroke="#959DA8" stroke-miterlimit="10"/>
<path d="M428.152 76.8828H472.602V119.784H428.152V76.8828Z" fill="white" stroke="#959DA8" stroke-miterlimit="10"/>
<path d="M458.461 76.7852V119.065" stroke="#959DA8" stroke-miterlimit="10"/>
<path d="M442.639 76.7852V119.065" stroke="#959DA8" stroke-miterlimit="10"/>
<path d="M368.258 76.8828H412.707V119.784H368.258V76.8828Z" fill="white" stroke="#959DA8" stroke-miterlimit="10"/>
<path d="M398.567 76.7852V119.065" stroke="#959DA8" stroke-miterlimit="10"/>
<path d="M382.745 76.7852V119.065" stroke="#959DA8" stroke-miterlimit="10"/>
<path d="M382.919 76.8828H338.469V119.784H382.919V76.8828Z" fill="white" stroke="#959DA8" stroke-miterlimit="10"/>
<path d="M352.61 76.7852V119.065" stroke="#959DA8" stroke-miterlimit="10"/>
<path d="M368.431 76.7852V119.065" stroke="#959DA8" stroke-miterlimit="10"/>
<path d="M325.488 76.875V117.558H338.673V76.8788L325.488 76.875Z" fill="white" stroke="#959DA8" stroke-miterlimit="10"/>
<path d="M529.048 156.17V177.076H525.447L525.451 156.17H529.048Z" fill="white" stroke="#959DA8" stroke-miterlimit="10"/>
<path d="M532.816 156.17H529.136V177.076H532.816V156.17Z" fill="white" stroke="#959DA8" stroke-miterlimit="10"/>
<path d="M536.583 156.17H532.903V177.076H536.583V156.17Z" fill="white" stroke="#959DA8" stroke-miterlimit="10"/>
<path d="M540.35 156.17H536.669V177.076H540.35V156.17Z" fill="white" stroke="#959DA8" stroke-miterlimit="10"/>
<path d="M491.379 156.17V177.076H487.778L487.782 156.17H491.379Z" fill="white" stroke="#959DA8" stroke-miterlimit="10"/>
<path d="M487.612 156.17V177.076H484.011L484.015 156.17H487.612Z" fill="white" stroke="#959DA8" stroke-miterlimit="10"/>
<path d="M495.147 156.17H491.467V177.076H495.147V156.17Z" fill="white" stroke="#959DA8" stroke-miterlimit="10"/>
<path d="M498.914 156.17H495.233V177.076H498.914V156.17Z" fill="white" stroke="#959DA8" stroke-miterlimit="10"/>
<path d="M502.681 156.17H499V177.076H502.681V156.17Z" fill="white" stroke="#959DA8" stroke-miterlimit="10"/>
<path d="M506.447 156.17H502.767V177.076H506.447V156.17Z" fill="white" stroke="#959DA8" stroke-miterlimit="10"/>
<path d="M510.214 156.17H506.534V177.076H510.214V156.17Z" fill="white" stroke="#959DA8" stroke-miterlimit="10"/>
<path d="M513.981 156.17H510.301V177.076H513.981V156.17Z" fill="white" stroke="#959DA8" stroke-miterlimit="10"/>
<path d="M517.748 156.17H514.068V177.076H517.748V156.17Z" fill="white" stroke="#959DA8" stroke-miterlimit="10"/>
<path d="M521.515 156.17H517.835V177.076H521.515V156.17Z" fill="white" stroke="#959DA8" stroke-miterlimit="10"/>
<path d="M525.282 156.17H521.602V177.076H525.282V156.17Z" fill="white" stroke="#959DA8" stroke-miterlimit="10"/>
<path d="M540.203 156.357H484.177V177.075H540.203V156.357Z" stroke="#959DA8" stroke-width="2" stroke-miterlimit="10"/>
<path d="M292.486 214.557V235.463H288.885L288.888 214.557H292.486Z" fill="white" stroke="#959DA8" stroke-miterlimit="10"/>
<path d="M288.719 214.557V235.463H285.118L285.121 214.557H288.719Z" fill="white" stroke="#959DA8" stroke-miterlimit="10"/>
<path d="M296.253 214.557H292.573V235.463H296.253V214.557Z" fill="white" stroke="#959DA8" stroke-miterlimit="10"/>
<path d="M300.02 214.557H296.34V235.463H300.02V214.557Z" fill="white" stroke="#959DA8" stroke-miterlimit="10"/>
<path d="M303.787 214.557H300.107V235.463H303.787V214.557Z" fill="white" stroke="#959DA8" stroke-miterlimit="10"/>
<path d="M307.554 214.557H303.874V235.463H307.554V214.557Z" fill="white" stroke="#959DA8" stroke-miterlimit="10"/>
<path d="M311.321 214.557H307.641V235.463H311.321V214.557Z" fill="white" stroke="#959DA8" stroke-miterlimit="10"/>
<path d="M315.088 214.557H311.407V235.463H315.088V214.557Z" fill="white" stroke="#959DA8" stroke-miterlimit="10"/>
<path d="M318.855 214.557H315.175V235.463H318.855V214.557Z" fill="white" stroke="#959DA8" stroke-miterlimit="10"/>
<path d="M322.622 214.557H318.942V235.463H322.622V214.557Z" fill="white" stroke="#959DA8" stroke-miterlimit="10"/>
<path d="M273.651 214.557V235.463H270.05L270.054 214.557H273.651Z" fill="white" stroke="#959DA8" stroke-miterlimit="10"/>
<path d="M277.419 214.557H273.738V235.463H277.419V214.557Z" fill="white" stroke="#959DA8" stroke-miterlimit="10"/>
<path d="M281.185 214.557H277.505V235.463H281.185V214.557Z" fill="white" stroke="#959DA8" stroke-miterlimit="10"/>
<path d="M284.952 214.557H281.272V235.463H284.952V214.557Z" fill="white" stroke="#959DA8" stroke-miterlimit="10"/>
<path d="M235.982 214.557V235.463H232.381L232.385 214.557H235.982Z" fill="white" stroke="#959DA8" stroke-miterlimit="10"/>
<path d="M232.215 214.557V235.463H229.367L229.371 214.557H232.215Z" fill="white" stroke="#959DA8" stroke-miterlimit="10"/>
<path d="M239.749 214.557H236.069V235.463H239.749V214.557Z" fill="white" stroke="#959DA8" stroke-miterlimit="10"/>
<path d="M243.516 214.557H239.836V235.463H243.516V214.557Z" fill="white" stroke="#959DA8" stroke-miterlimit="10"/>
<path d="M247.283 214.557H243.603V235.463H247.283V214.557Z" fill="white" stroke="#959DA8" stroke-miterlimit="10"/>
<path d="M251.05 214.557H247.37V235.463H251.05V214.557Z" fill="white" stroke="#959DA8" stroke-miterlimit="10"/>
<path d="M254.817 214.557H251.137V235.463H254.817V214.557Z" fill="white" stroke="#959DA8" stroke-miterlimit="10"/>
<path d="M258.584 214.557H254.904V235.463H258.584V214.557Z" fill="white" stroke="#959DA8" stroke-miterlimit="10"/>
<path d="M262.351 214.557H258.671V235.463H262.351V214.557Z" fill="white" stroke="#959DA8" stroke-miterlimit="10"/>
<path d="M266.118 214.557H262.438V235.463H266.118V214.557Z" fill="white" stroke="#959DA8" stroke-miterlimit="10"/>
<path d="M269.885 214.557H266.205V235.463H269.885V214.557Z" fill="white" stroke="#959DA8" stroke-miterlimit="10"/>
<path d="M322.474 214.745H229.533V235.463H322.474V214.745Z" stroke="#959DA8" stroke-width="2" stroke-miterlimit="10"/>
<path d="M145.343 227.378H109.35L108.886 224.037H145.802L145.343 227.378Z" fill="#D3DCE5"/>
<path d="M190.169 227.378H154.176L153.713 224.037H190.628L190.169 227.378Z" fill="#D3DCE5"/>
<path d="M145.343 285.766H109.35L108.886 282.425H145.802L145.343 285.766Z" fill="#D3DCE5"/>
<path d="M190.169 285.766H154.176L153.713 282.425H190.628L190.169 285.766Z" fill="#D3DCE5"/>
<path d="M145.343 343.4H109.35L108.886 340.059H145.802L145.343 343.4Z" fill="#D3DCE5"/>
<path d="M190.169 343.4H154.176L153.713 340.059H190.628L190.169 343.4Z" fill="#D3DCE5"/>
<path d="M271.534 342.27H235.541L235.078 338.929H271.994L271.534 342.27Z" fill="#D3DCE5"/>
<path d="M316.361 342.27H280.368L279.904 338.929H316.82L316.361 342.27Z" fill="#D3DCE5"/>
<path d="M401.87 227.378H365.877L365.414 224.037H402.329L401.87 227.378Z" fill="#D3DCE5"/>
<path d="M446.696 227.378H410.703L410.24 224.037H447.156L446.696 227.378Z" fill="#D3DCE5"/>
<path d="M401.87 172.382H365.877L365.414 169.041H402.329L401.87 172.382Z" fill="#D3DCE5"/>
<path d="M446.696 172.382H410.703L410.24 169.041H447.156L446.696 172.382Z" fill="#D3DCE5"/>
<path d="M446.696 285.766H410.703L410.24 282.425H447.156L446.696 285.766Z" fill="#D3DCE5"/>
<path d="M402.246 285.766H366.253L365.79 282.425H402.706L402.246 285.766Z" fill="#D3DCE5"/>
<path d="M401.87 343.777H365.877L365.414 340.436H402.329L401.87 343.777Z" fill="#D3DCE5"/>
<path d="M446.696 343.777H410.703L410.24 340.436H447.156L446.696 343.777Z" fill="#D3DCE5"/>
<path d="M347.333 343.687C347.329 342.849 347.528 342.022 347.911 341.276C348.295 340.531 348.853 339.889 349.537 339.404C350.221 338.92 351.012 338.607 351.843 338.493C352.673 338.379 353.519 338.467 354.309 338.749C354.614 337.52 355.232 336.391 356.103 335.472C356.974 334.553 358.068 333.875 359.278 333.504C360.489 333.133 361.775 333.082 363.011 333.355C364.247 333.629 365.392 334.218 366.333 335.065C366.998 333.206 368.297 331.641 370.002 330.646C371.708 329.651 373.709 329.289 375.655 329.625C377.6 329.961 379.365 330.972 380.638 332.482C381.911 333.991 382.61 335.9 382.614 337.875C382.615 338.167 382.6 338.458 382.568 338.749C383.136 338.541 383.735 338.436 384.339 338.436C387.239 338.436 389.763 340.79 389.579 343.676C389.552 344.151 389.472 344.623 389.341 345.081H347.528C347.402 344.623 347.339 344.15 347.34 343.676L347.333 343.687Z" fill="#80C33F"/>
<path d="M58.4889 220.885C58.4924 220.047 58.2939 219.22 57.9102 218.475C57.5265 217.729 56.9688 217.087 56.2845 216.603C55.6002 216.118 54.8093 215.806 53.9787 215.692C53.1481 215.577 52.3022 215.665 51.5126 215.947C51.2074 214.718 50.5893 213.589 49.7185 212.67C48.8477 211.751 47.7537 211.073 46.5431 210.702C45.3325 210.331 44.0465 210.28 42.8103 210.553C41.5741 210.827 40.4297 211.416 39.4886 212.263C38.8238 210.404 37.5243 208.839 35.8191 207.844C34.114 206.849 32.1123 206.488 30.1668 206.823C28.2213 207.159 26.4567 208.171 25.1838 209.68C23.9108 211.189 23.2111 213.099 23.208 215.073C23.2069 215.365 23.2219 215.657 23.2531 215.947C22.6859 215.74 22.0866 215.634 21.4827 215.634C18.5822 215.634 16.0583 217.989 16.2429 220.874C16.2695 221.35 16.3491 221.821 16.4802 222.279H58.293C58.4193 221.821 58.4827 221.349 58.4814 220.874L58.4889 220.885Z" fill="#80C33F"/>
<path d="M463.731 104.864C463.727 104.025 463.926 103.198 464.309 102.453C464.693 101.708 465.251 101.065 465.935 100.581C466.619 100.097 467.41 99.7841 468.241 99.67C469.071 99.5559 469.917 99.6435 470.707 99.9254C471.012 98.6966 471.63 97.5677 472.501 96.6486C473.372 95.7295 474.466 95.0515 475.676 94.6806C476.887 94.3097 478.173 94.2585 479.409 94.532C480.645 94.8055 481.79 95.3944 482.731 96.2413C483.396 94.3823 484.695 92.8176 486.4 91.8225C488.105 90.8275 490.107 90.4661 492.053 90.8019C493.998 91.1377 495.763 92.1492 497.036 93.6583C498.309 95.1673 499.008 97.0772 499.011 99.0514C499.013 99.3434 498.997 99.6351 498.966 99.9254C499.534 99.7181 500.133 99.6123 500.737 99.6127C503.637 99.6127 506.161 101.967 505.976 104.853C505.95 105.328 505.87 105.799 505.739 106.258H463.926C463.8 105.8 463.737 105.327 463.738 104.853L463.731 104.864Z" fill="#80C33F"/>
<path d="M223.642 122.786L212.288 122.79V120.168L223.642 122.786Z" fill="white" stroke="#959DA8" stroke-miterlimit="10"/>
<path d="M338.48 68.1846V70.8064L327.123 70.8026L338.48 68.1846Z" fill="white" stroke="#959DA8" stroke-miterlimit="10"/>
<path d="M31.2877 157.209C31.4359 157.21 31.5836 157.195 31.7284 157.163C38.5089 155.623 38.5089 147.441 38.5089 147.441C38.5674 142.454 36.9844 137.585 34.0037 133.586C33.6876 133.168 33.2789 132.829 32.8096 132.595C32.3403 132.362 31.8233 132.24 31.2991 132.24C30.7749 132.24 30.2578 132.362 29.7885 132.595C29.3192 132.829 28.9104 133.168 28.5943 133.586C25.6158 137.585 24.0341 142.452 24.0929 147.437C24.0929 147.437 24.0929 155.638 30.8507 157.163C30.9956 157.195 31.1434 157.21 31.2915 157.209H31.2877Z" fill="#80C33F"/>
<path d="M31.2917 141.689V169.542" stroke="#2A3A51" stroke-linecap="round" stroke-linejoin="round"/>
<path d="M55.9232 156.546V177.452H52.322L52.3258 156.546H55.9232Z" fill="white" stroke="#959DA8" stroke-miterlimit="10"/>
<path d="M59.6908 156.546H56.0105V177.452H59.6908V156.546Z" fill="white" stroke="#959DA8" stroke-miterlimit="10"/>
<path d="M63.4576 156.546H59.7773V177.452H63.4576V156.546Z" fill="white" stroke="#959DA8" stroke-miterlimit="10"/>
<path d="M67.2245 156.546H63.5442V177.452H67.2245V156.546Z" fill="white" stroke="#959DA8" stroke-miterlimit="10"/>
<path d="M18.254 156.546V177.452H14.6528L14.6566 156.546H18.254Z" fill="white" stroke="#959DA8" stroke-miterlimit="10"/>
<path d="M14.4872 156.546V177.452H10.886L10.8898 156.546H14.4872Z" fill="white" stroke="#959DA8" stroke-miterlimit="10"/>
<path d="M22.0211 156.546H18.3408V177.452H22.0211V156.546Z" fill="white" stroke="#959DA8" stroke-miterlimit="10"/>
<path d="M25.7884 156.546H22.1082V177.452H25.7884V156.546Z" fill="white" stroke="#959DA8" stroke-miterlimit="10"/>
<path d="M29.5553 156.546H25.875V177.452H29.5553V156.546Z" fill="white" stroke="#959DA8" stroke-miterlimit="10"/>
<path d="M33.3221 156.546H29.6418V177.452H33.3221V156.546Z" fill="white" stroke="#959DA8" stroke-miterlimit="10"/>
<path d="M37.089 156.546H33.4087V177.452H37.089V156.546Z" fill="white" stroke="#959DA8" stroke-miterlimit="10"/>
<path d="M40.8561 156.546H37.1758V177.452H40.8561V156.546Z" fill="white" stroke="#959DA8" stroke-miterlimit="10"/>
<path d="M44.6229 156.546H40.9426V177.452H44.6229V156.546Z" fill="white" stroke="#959DA8" stroke-miterlimit="10"/>
<path d="M48.3898 156.546H44.7095V177.452H48.3898V156.546Z" fill="white" stroke="#959DA8" stroke-miterlimit="10"/>
<path d="M52.1566 156.546H48.4763V177.452H52.1566V156.546Z" fill="white" stroke="#959DA8" stroke-miterlimit="10"/>
<path d="M112.427 156.546V177.452H108.826L108.83 156.546H112.427Z" fill="white" stroke="#959DA8" stroke-miterlimit="10"/>
<path d="M116.194 156.546H112.514V177.452H116.194V156.546Z" fill="white" stroke="#959DA8" stroke-miterlimit="10"/>
<path d="M119.962 156.546H116.281V177.452H119.962V156.546Z" fill="white" stroke="#959DA8" stroke-miterlimit="10"/>
<path d="M123.728 156.546H120.048V177.452H123.728V156.546Z" fill="white" stroke="#959DA8" stroke-miterlimit="10"/>
<path d="M74.7579 156.546V177.452H71.1567L71.1605 156.546H74.7579Z" fill="white" stroke="#959DA8" stroke-miterlimit="10"/>
<path d="M70.9911 156.546V177.452H67.3899L67.3937 156.546H70.9911Z" fill="white" stroke="#959DA8" stroke-miterlimit="10"/>
<path d="M78.525 156.546H74.8447V177.452H78.525V156.546Z" fill="white" stroke="#959DA8" stroke-miterlimit="10"/>
<path d="M82.2919 156.546H78.6116V177.452H82.2919V156.546Z" fill="white" stroke="#959DA8" stroke-miterlimit="10"/>
<path d="M86.0592 156.546H82.3789V177.452H86.0592V156.546Z" fill="white" stroke="#959DA8" stroke-miterlimit="10"/>
<path d="M89.826 156.546H86.1458V177.452H89.826V156.546Z" fill="white" stroke="#959DA8" stroke-miterlimit="10"/>
<path d="M93.5929 156.546H89.9126V177.452H93.5929V156.546Z" fill="white" stroke="#959DA8" stroke-miterlimit="10"/>
<path d="M97.3597 156.546H93.6794V177.452H97.3597V156.546Z" fill="white" stroke="#959DA8" stroke-miterlimit="10"/>
<path d="M101.127 156.546H97.4463V177.452H101.127V156.546Z" fill="white" stroke="#959DA8" stroke-miterlimit="10"/>
<path d="M104.894 156.546H101.213V177.452H104.894V156.546Z" fill="white" stroke="#959DA8" stroke-miterlimit="10"/>
<path d="M108.661 156.546H104.98V177.452H108.661V156.546Z" fill="white" stroke="#959DA8" stroke-miterlimit="10"/>
<path d="M168.931 156.546V177.452H165.33L165.333 156.546H168.931Z" fill="white" stroke="#959DA8" stroke-miterlimit="10"/>
<path d="M172.698 156.546H169.018V177.452H172.698V156.546Z" fill="white" stroke="#959DA8" stroke-miterlimit="10"/>
<path d="M176.465 156.546H172.785V177.452H176.465V156.546Z" fill="white" stroke="#959DA8" stroke-miterlimit="10"/>
<path d="M180.232 156.546H176.552V177.452H180.232V156.546Z" fill="white" stroke="#959DA8" stroke-miterlimit="10"/>
<path d="M131.262 156.546V177.452H127.661L127.664 156.546H131.262Z" fill="white" stroke="#959DA8" stroke-miterlimit="10"/>
<path d="M127.495 156.546V177.452H123.894L123.898 156.546H127.495Z" fill="white" stroke="#959DA8" stroke-miterlimit="10"/>
<path d="M135.029 156.546H131.349V177.452H135.029V156.546Z" fill="white" stroke="#959DA8" stroke-miterlimit="10"/>
<path d="M138.796 156.546H135.115V177.452H138.796V156.546Z" fill="white" stroke="#959DA8" stroke-miterlimit="10"/>
<path d="M142.563 156.546H138.883V177.452H142.563V156.546Z" fill="white" stroke="#959DA8" stroke-miterlimit="10"/>
<path d="M146.33 156.546H142.65V177.452H146.33V156.546Z" fill="white" stroke="#959DA8" stroke-miterlimit="10"/>
<path d="M150.097 156.546H146.417V177.452H150.097V156.546Z" fill="white" stroke="#959DA8" stroke-miterlimit="10"/>
<path d="M153.864 156.546H150.183V177.452H153.864V156.546Z" fill="white" stroke="#959DA8" stroke-miterlimit="10"/>
<path d="M157.63 156.546H153.95V177.452H157.63V156.546Z" fill="white" stroke="#959DA8" stroke-miterlimit="10"/>
<path d="M161.397 156.546H157.717V177.452H161.397V156.546Z" fill="white" stroke="#959DA8" stroke-miterlimit="10"/>
<path d="M165.164 156.546H161.484V177.452H165.164V156.546Z" fill="white" stroke="#959DA8" stroke-miterlimit="10"/>
<path d="M225.435 156.546V177.452H221.833L221.837 156.546H225.435Z" fill="white" stroke="#959DA8" stroke-miterlimit="10"/>
<path d="M229.202 156.546H225.522V177.452H229.202V156.546Z" fill="white" stroke="#959DA8" stroke-miterlimit="10"/>
<path d="M232.969 156.546H229.289V177.452H232.969V156.546Z" fill="white" stroke="#959DA8" stroke-miterlimit="10"/>
<path d="M187.766 156.546V177.452H184.164L184.168 156.546H187.766Z" fill="white" stroke="#959DA8" stroke-miterlimit="10"/>
<path d="M183.999 156.546V177.452H180.397L180.401 156.546H183.999Z" fill="white" stroke="#959DA8" stroke-miterlimit="10"/>
<path d="M191.533 156.546H187.853V177.452H191.533V156.546Z" fill="white" stroke="#959DA8" stroke-miterlimit="10"/>
<path d="M195.3 156.546H191.619V177.452H195.3V156.546Z" fill="white" stroke="#959DA8" stroke-miterlimit="10"/>
<path d="M199.067 156.546H195.386V177.452H199.067V156.546Z" fill="white" stroke="#959DA8" stroke-miterlimit="10"/>
<path d="M202.834 156.546H199.154V177.452H202.834V156.546Z" fill="white" stroke="#959DA8" stroke-miterlimit="10"/>
<path d="M206.601 156.546H202.92V177.452H206.601V156.546Z" fill="white" stroke="#959DA8" stroke-miterlimit="10"/>
<path d="M210.368 156.546H206.687V177.452H210.368V156.546Z" fill="white" stroke="#959DA8" stroke-miterlimit="10"/>
<path d="M214.134 156.546H210.454V177.452H214.134V156.546Z" fill="white" stroke="#959DA8" stroke-miterlimit="10"/>
<path d="M217.901 156.546H214.221V177.452H217.901V156.546Z" fill="white" stroke="#959DA8" stroke-miterlimit="10"/>
<path d="M221.668 156.546H217.988V177.452H221.668V156.546Z" fill="white" stroke="#959DA8" stroke-miterlimit="10"/>
<path d="M232.822 156.734H11.052V177.452H232.822V156.734Z" stroke="#959DA8" stroke-width="1.99" stroke-miterlimit="10"/>
<path d="M365.188 101.172V122.078H361.586L361.59 101.172H365.188Z" fill="white" stroke="#959DA8" stroke-miterlimit="10"/>
<path d="M368.955 101.172H365.274V122.078H368.955V101.172Z" fill="white" stroke="#959DA8" stroke-miterlimit="10"/>
<path d="M372.722 101.172H369.041V122.078H372.722V101.172Z" fill="white" stroke="#959DA8" stroke-miterlimit="10"/>
<path d="M376.489 101.172H372.809V122.078H376.489V101.172Z" fill="white" stroke="#959DA8" stroke-miterlimit="10"/>
<path d="M327.518 101.172V122.078H323.917L323.921 101.172H327.518Z" fill="white" stroke="#959DA8" stroke-miterlimit="10"/>
<path d="M323.751 101.172V122.078H320.15L320.154 101.172H323.751Z" fill="white" stroke="#959DA8" stroke-miterlimit="10"/>
<path d="M331.286 101.172H327.605V122.078H331.286V101.172Z" fill="white" stroke="#959DA8" stroke-miterlimit="10"/>
<path d="M335.053 101.172H331.372V122.078H335.053V101.172Z" fill="white" stroke="#959DA8" stroke-miterlimit="10"/>
<path d="M338.819 101.172H335.139V122.078H338.819V101.172Z" fill="white" stroke="#959DA8" stroke-miterlimit="10"/>
<path d="M342.586 101.172H338.906V122.078H342.586V101.172Z" fill="white" stroke="#959DA8" stroke-miterlimit="10"/>
<path d="M346.354 101.172H342.673V122.078H346.354V101.172Z" fill="white" stroke="#959DA8" stroke-miterlimit="10"/>
<path d="M350.12 101.172H346.44V122.078H350.12V101.172Z" fill="white" stroke="#959DA8" stroke-miterlimit="10"/>
<path d="M353.887 101.172H350.207V122.078H353.887V101.172Z" fill="white" stroke="#959DA8" stroke-miterlimit="10"/>
<path d="M357.654 101.172H353.974V122.078H357.654V101.172Z" fill="white" stroke="#959DA8" stroke-miterlimit="10"/>
<path d="M361.421 101.172H357.741V122.078H361.421V101.172Z" fill="white" stroke="#959DA8" stroke-miterlimit="10"/>
<path d="M421.692 101.172V122.078H418.09L418.094 101.172H421.692Z" fill="white" stroke="#959DA8" stroke-miterlimit="10"/>
<path d="M425.459 101.172H421.778V122.078H425.459V101.172Z" fill="white" stroke="#959DA8" stroke-miterlimit="10"/>
<path d="M429.225 101.172H425.545V122.078H429.225V101.172Z" fill="white" stroke="#959DA8" stroke-miterlimit="10"/>
<path d="M432.993 101.172H429.312V122.078H432.993V101.172Z" fill="white" stroke="#959DA8" stroke-miterlimit="10"/>
<path d="M384.022 101.172V122.078H380.421L380.425 101.172H384.022Z" fill="white" stroke="#959DA8" stroke-miterlimit="10"/>
<path d="M380.255 101.172V122.078H376.654L376.658 101.172H380.255Z" fill="white" stroke="#959DA8" stroke-miterlimit="10"/>
<path d="M387.789 101.172H384.109V122.078H387.789V101.172Z" fill="white" stroke="#959DA8" stroke-miterlimit="10"/>
<path d="M391.556 101.172H387.876V122.078H391.556V101.172Z" fill="white" stroke="#959DA8" stroke-miterlimit="10"/>
<path d="M395.323 101.172H391.643V122.078H395.323V101.172Z" fill="white" stroke="#959DA8" stroke-miterlimit="10"/>
<path d="M399.09 101.172H395.41V122.078H399.09V101.172Z" fill="white" stroke="#959DA8" stroke-miterlimit="10"/>
<path d="M402.857 101.172H399.177V122.078H402.857V101.172Z" fill="white" stroke="#959DA8" stroke-miterlimit="10"/>
<path d="M406.624 101.172H402.944V122.078H406.624V101.172Z" fill="white" stroke="#959DA8" stroke-miterlimit="10"/>
<path d="M410.391 101.172H406.711V122.078H410.391V101.172Z" fill="white" stroke="#959DA8" stroke-miterlimit="10"/>
<path d="M414.158 101.172H410.478V122.078H414.158V101.172Z" fill="white" stroke="#959DA8" stroke-miterlimit="10"/>
<path d="M417.925 101.172H414.245V122.078H417.925V101.172Z" fill="white" stroke="#959DA8" stroke-miterlimit="10"/>
<path d="M478.195 101.172V122.078H474.594L474.598 101.172H478.195Z" fill="white" stroke="#959DA8" stroke-miterlimit="10"/>
<path d="M481.963 101.172H478.282V122.078H481.963V101.172Z" fill="white" stroke="#959DA8" stroke-miterlimit="10"/>
<path d="M485.729 101.172H482.049V122.078H485.729V101.172Z" fill="white" stroke="#959DA8" stroke-miterlimit="10"/>
<path d="M489.497 101.172H485.816V122.078H489.497V101.172Z" fill="white" stroke="#959DA8" stroke-miterlimit="10"/>
<path d="M440.526 101.172V122.078H436.925L436.928 101.172H440.526Z" fill="white" stroke="#959DA8" stroke-miterlimit="10"/>
<path d="M436.759 101.172V122.078H433.158L433.161 101.172H436.759Z" fill="white" stroke="#959DA8" stroke-miterlimit="10"/>
<path d="M444.293 101.172H440.613V122.078H444.293V101.172Z" fill="white" stroke="#959DA8" stroke-miterlimit="10"/>
<path d="M448.06 101.172H444.38V122.078H448.06V101.172Z" fill="white" stroke="#959DA8" stroke-miterlimit="10"/>
<path d="M451.827 101.172H448.147V122.078H451.827V101.172Z" fill="white" stroke="#959DA8" stroke-miterlimit="10"/>
<path d="M455.594 101.172H451.914V122.078H455.594V101.172Z" fill="white" stroke="#959DA8" stroke-miterlimit="10"/>
<path d="M459.361 101.172H455.681V122.078H459.361V101.172Z" fill="white" stroke="#959DA8" stroke-miterlimit="10"/>
<path d="M463.128 101.172H459.448V122.078H463.128V101.172Z" fill="white" stroke="#959DA8" stroke-miterlimit="10"/>
<path d="M466.895 101.172H463.215V122.078H466.895V101.172Z" fill="white" stroke="#959DA8" stroke-miterlimit="10"/>
<path d="M470.662 101.172H466.981V122.078H470.662V101.172Z" fill="white" stroke="#959DA8" stroke-miterlimit="10"/>
<path d="M474.429 101.172H470.749V122.078H474.429V101.172Z" fill="white" stroke="#959DA8" stroke-miterlimit="10"/>
<path d="M534.699 101.172V122.078H531.098L531.102 101.172H534.699Z" fill="white" stroke="#959DA8" stroke-miterlimit="10"/>
<path d="M539.22 101.172H534.786V122.078H539.22V101.172Z" fill="white" stroke="#959DA8" stroke-miterlimit="10"/>
<path d="M497.03 101.172V122.078H493.428L493.432 101.172H497.03Z" fill="white" stroke="#959DA8" stroke-miterlimit="10"/>
<path d="M493.263 101.172V122.078H489.662L489.665 101.172H493.263Z" fill="white" stroke="#959DA8" stroke-miterlimit="10"/>
<path d="M500.797 101.172H497.117V122.078H500.797V101.172Z" fill="white" stroke="#959DA8" stroke-miterlimit="10"/>
<path d="M504.564 101.172H500.884V122.078H504.564V101.172Z" fill="white" stroke="#959DA8" stroke-miterlimit="10"/>
<path d="M508.331 101.172H504.651V122.078H508.331V101.172Z" fill="white" stroke="#959DA8" stroke-miterlimit="10"/>
<path d="M512.098 101.172H508.417V122.078H512.098V101.172Z" fill="white" stroke="#959DA8" stroke-miterlimit="10"/>
<path d="M515.865 101.172H512.184V122.078H515.865V101.172Z" fill="white" stroke="#959DA8" stroke-miterlimit="10"/>
<path d="M519.631 101.172H515.951V122.078H519.631V101.172Z" fill="white" stroke="#959DA8" stroke-miterlimit="10"/>
<path d="M523.399 101.172H519.719V122.078H523.399V101.172Z" fill="white" stroke="#959DA8" stroke-miterlimit="10"/>
<path d="M527.166 101.172H523.485V122.078H527.166V101.172Z" fill="white" stroke="#959DA8" stroke-miterlimit="10"/>
<path d="M530.932 101.172H527.252V122.078H530.932V101.172Z" fill="white" stroke="#959DA8" stroke-miterlimit="10"/>
<path d="M539.072 101.36H320.316V122.078H539.072V101.36Z" stroke="#959DA8" stroke-width="2" stroke-miterlimit="10"/>
<path d="M536.582 177.075H322.471" stroke="#959DA8" stroke-width="1.97" stroke-miterlimit="10"/>
<path d="M55.9232 214.557V235.463H52.322L52.3258 214.557H55.9232Z" fill="white" stroke="#959DA8" stroke-miterlimit="10"/>
<path d="M59.6908 214.557H56.0105V235.463H59.6908V214.557Z" fill="white" stroke="#959DA8" stroke-miterlimit="10"/>
<path d="M63.4576 214.557H59.7773V235.463H63.4576V214.557Z" fill="white" stroke="#959DA8" stroke-miterlimit="10"/>
<path d="M67.2245 214.557H63.5442V235.463H67.2245V214.557Z" fill="white" stroke="#959DA8" stroke-miterlimit="10"/>
<path d="M18.254 214.557V235.463H14.6528L14.6566 214.557H18.254Z" fill="white" stroke="#959DA8" stroke-miterlimit="10"/>
<path d="M14.4872 214.557V235.463H10.886L10.8898 214.557H14.4872Z" fill="white" stroke="#959DA8" stroke-miterlimit="10"/>
<path d="M22.0211 214.557H18.3408V235.463H22.0211V214.557Z" fill="white" stroke="#959DA8" stroke-miterlimit="10"/>
<path d="M25.7884 214.557H22.1082V235.463H25.7884V214.557Z" fill="white" stroke="#959DA8" stroke-miterlimit="10"/>
<path d="M29.5553 214.557H25.875V235.463H29.5553V214.557Z" fill="white" stroke="#959DA8" stroke-miterlimit="10"/>
<path d="M33.3221 214.557H29.6418V235.463H33.3221V214.557Z" fill="white" stroke="#959DA8" stroke-miterlimit="10"/>
<path d="M37.089 214.557H33.4087V235.463H37.089V214.557Z" fill="white" stroke="#959DA8" stroke-miterlimit="10"/>
<path d="M40.8561 214.557H37.1758V235.463H40.8561V214.557Z" fill="white" stroke="#959DA8" stroke-miterlimit="10"/>
<path d="M44.6229 214.557H40.9426V235.463H44.6229V214.557Z" fill="white" stroke="#959DA8" stroke-miterlimit="10"/>
<path d="M48.3898 214.557H44.7095V235.463H48.3898V214.557Z" fill="white" stroke="#959DA8" stroke-miterlimit="10"/>
<path d="M52.1566 214.557H48.4763V235.463H52.1566V214.557Z" fill="white" stroke="#959DA8" stroke-miterlimit="10"/>
<path d="M67.0774 214.745H11.052V235.463H67.0774V214.745Z" stroke="#959DA8" stroke-width="2" stroke-miterlimit="10"/>
<path d="M55.9232 272.567V293.474H52.322L52.3258 272.567H55.9232Z" fill="white" stroke="#959DA8" stroke-miterlimit="10"/>
<path d="M59.6908 272.567H56.0105V293.474H59.6908V272.567Z" fill="white" stroke="#959DA8" stroke-miterlimit="10"/>
<path d="M63.4576 272.567H59.7773V293.474H63.4576V272.567Z" fill="white" stroke="#959DA8" stroke-miterlimit="10"/>
<path d="M67.2245 272.567H63.5442V293.474H67.2245V272.567Z" fill="white" stroke="#959DA8" stroke-miterlimit="10"/>
<path d="M18.254 272.567V293.474H14.6528L14.6566 272.567H18.254Z" fill="white" stroke="#959DA8" stroke-miterlimit="10"/>
<path d="M14.4872 272.567V293.474H10.886L10.8898 272.567H14.4872Z" fill="white" stroke="#959DA8" stroke-miterlimit="10"/>
<path d="M22.0211 272.567H18.3408V293.474H22.0211V272.567Z" fill="white" stroke="#959DA8" stroke-miterlimit="10"/>
<path d="M25.7884 272.567H22.1082V293.474H25.7884V272.567Z" fill="white" stroke="#959DA8" stroke-miterlimit="10"/>
<path d="M29.5553 272.567H25.875V293.474H29.5553V272.567Z" fill="white" stroke="#959DA8" stroke-miterlimit="10"/>
<path d="M33.3221 272.567H29.6418V293.474H33.3221V272.567Z" fill="white" stroke="#959DA8" stroke-miterlimit="10"/>
<path d="M37.089 272.567H33.4087V293.474H37.089V272.567Z" fill="white" stroke="#959DA8" stroke-miterlimit="10"/>
<path d="M40.8561 272.567H37.1758V293.474H40.8561V272.567Z" fill="white" stroke="#959DA8" stroke-miterlimit="10"/>
<path d="M44.6229 272.567H40.9426V293.474H44.6229V272.567Z" fill="white" stroke="#959DA8" stroke-miterlimit="10"/>
<path d="M48.3898 272.567H44.7095V293.474H48.3898V272.567Z" fill="white" stroke="#959DA8" stroke-miterlimit="10"/>
<path d="M52.1566 272.567H48.4763V293.474H52.1566V272.567Z" fill="white" stroke="#959DA8" stroke-miterlimit="10"/>
<path d="M67.0774 272.756H11.052V293.474H67.0774V272.756Z" stroke="#959DA8" stroke-width="2" stroke-miterlimit="10"/>
<path d="M529.048 214.557V235.463H525.447L525.451 214.557H529.048Z" fill="white" stroke="#959DA8" stroke-miterlimit="10"/>
<path d="M532.816 214.557H529.136V235.463H532.816V214.557Z" fill="white" stroke="#959DA8" stroke-miterlimit="10"/>
<path d="M536.583 214.557H532.903V235.463H536.583V214.557Z" fill="white" stroke="#959DA8" stroke-miterlimit="10"/>
<path d="M540.35 214.557H536.669V235.463H540.35V214.557Z" fill="white" stroke="#959DA8" stroke-miterlimit="10"/>
<path d="M491.379 214.557V235.463H487.778L487.782 214.557H491.379Z" fill="white" stroke="#959DA8" stroke-miterlimit="10"/>
<path d="M487.612 214.557V235.463H484.011L484.015 214.557H487.612Z" fill="white" stroke="#959DA8" stroke-miterlimit="10"/>
<path d="M495.147 214.557H491.467V235.463H495.147V214.557Z" fill="white" stroke="#959DA8" stroke-miterlimit="10"/>
<path d="M498.914 214.557H495.233V235.463H498.914V214.557Z" fill="white" stroke="#959DA8" stroke-miterlimit="10"/>
<path d="M502.681 214.557H499V235.463H502.681V214.557Z" fill="white" stroke="#959DA8" stroke-miterlimit="10"/>
<path d="M506.447 214.557H502.767V235.463H506.447V214.557Z" fill="white" stroke="#959DA8" stroke-miterlimit="10"/>
<path d="M510.214 214.557H506.534V235.463H510.214V214.557Z" fill="white" stroke="#959DA8" stroke-miterlimit="10"/>
<path d="M513.981 214.557H510.301V235.463H513.981V214.557Z" fill="white" stroke="#959DA8" stroke-miterlimit="10"/>
<path d="M517.748 214.557H514.068V235.463H517.748V214.557Z" fill="white" stroke="#959DA8" stroke-miterlimit="10"/>
<path d="M521.515 214.557H517.835V235.463H521.515V214.557Z" fill="white" stroke="#959DA8" stroke-miterlimit="10"/>
<path d="M525.282 214.557H521.602V235.463H525.282V214.557Z" fill="white" stroke="#959DA8" stroke-miterlimit="10"/>
<path d="M540.203 214.745H484.177V235.463H540.203V214.745Z" stroke="#959DA8" stroke-width="2" stroke-miterlimit="10"/>
</svg>
