<svg width="1039" height="712" viewBox="0 0 1039 712" fill="none" xmlns="http://www.w3.org/2000/svg">
<path d="M1017 0H59V22H1017V0Z" fill="#D3DCE5"/>
<path d="M980.679 572H102.189V710H980.679V572Z" fill="white" stroke="#959DA8" stroke-width="2" stroke-miterlimit="10"/>
<path d="M980.679 434H102.189V572H980.679V434Z" fill="white" stroke="#959DA8" stroke-width="2" stroke-miterlimit="10"/>
<path d="M980.679 297H102.189V435H980.679V297Z" fill="white" stroke="#959DA8" stroke-width="2" stroke-miterlimit="10"/>
<path d="M980.679 159H102.189V297H980.679V159Z" fill="white" stroke="#959DA8" stroke-width="2" stroke-miterlimit="10"/>
<path d="M980.679 21H102.189V159H980.679V21Z" fill="white" stroke="#959DA8" stroke-width="2" stroke-miterlimit="10"/>
<path d="M204.321 600.54H161.471V693.63H204.321V600.54Z" fill="#D3DCE5"/>
<path d="M198.25 606.45H167.52V650.78H198.25V606.45Z" fill="white" stroke="#959DA8" stroke-miterlimit="10"/>
<path d="M147.29 571H139.4V691H147.29V571Z" fill="white" stroke="#959DA8" stroke-width="2" stroke-miterlimit="10"/>
<path d="M225.29 571H217.4V709H225.29V571Z" fill="white" stroke="#959DA8" stroke-width="2" stroke-miterlimit="10"/>
<path d="M247.001 690.62H119.301V700.39H247.001V690.62Z" fill="white" stroke="#959DA8" stroke-width="2" stroke-miterlimit="10"/>
<path d="M247.001 700.37H119.301V710.14H247.001V700.37Z" fill="white" stroke="#959DA8" stroke-width="2" stroke-miterlimit="10"/>
<path d="M169.5 658.5C170.605 658.5 171.5 657.605 171.5 656.5C171.5 655.395 170.605 654.5 169.5 654.5C168.395 654.5 167.5 655.395 167.5 656.5C167.5 657.605 168.395 658.5 169.5 658.5Z" fill="white" stroke="#959DA8" stroke-miterlimit="10"/>
<path d="M713.199 181H743.719V257H713.199V181Z" fill="white" stroke="#959DA8" stroke-miterlimit="10"/>
<path d="M743.731 203.33H713.211" stroke="#959DA8" stroke-miterlimit="10"/>
<path d="M713.199 43H743.719V119H713.199V43Z" fill="white" stroke="#959DA8" stroke-miterlimit="10"/>
<path d="M743.731 65.3301H713.211" stroke="#959DA8" stroke-miterlimit="10"/>
<path d="M713.199 319H743.719V395H713.199V319Z" fill="white" stroke="#959DA8" stroke-miterlimit="10"/>
<path d="M743.731 341.33H713.211" stroke="#959DA8" stroke-miterlimit="10"/>
<path d="M713.199 456H743.719V532H713.199V456Z" fill="white" stroke="#959DA8" stroke-miterlimit="10"/>
<path d="M743.731 478.33H713.211" stroke="#959DA8" stroke-miterlimit="10"/>
<path d="M713.199 600H743.719V676H713.199V600Z" fill="white" stroke="#959DA8" stroke-miterlimit="10"/>
<path d="M743.731 622.33H713.211" stroke="#959DA8" stroke-miterlimit="10"/>
<path d="M342.199 460H372.719V536H342.199V460Z" fill="white" stroke="#959DA8" stroke-miterlimit="10"/>
<path d="M372.731 482.33H342.211" stroke="#959DA8" stroke-miterlimit="10"/>
<path d="M342.199 319H372.719V395H342.199V319Z" fill="white" stroke="#959DA8" stroke-miterlimit="10"/>
<path d="M372.731 341.33H342.211" stroke="#959DA8" stroke-miterlimit="10"/>
<path d="M342.199 181H372.719V257H342.199V181Z" fill="white" stroke="#959DA8" stroke-miterlimit="10"/>
<path d="M372.731 203.33H342.211" stroke="#959DA8" stroke-miterlimit="10"/>
<path d="M342.199 43H372.719V119H342.199V43Z" fill="white" stroke="#959DA8" stroke-miterlimit="10"/>
<path d="M372.731 65.3301H342.211" stroke="#959DA8" stroke-miterlimit="10"/>
<path d="M342.199 603H372.719V679H342.199V603Z" fill="white" stroke="#959DA8" stroke-miterlimit="10"/>
<path d="M372.731 625.33H342.211" stroke="#959DA8" stroke-miterlimit="10"/>
<path d="M375.12 683.54H339.46L339 674.67H375.58L375.12 683.54Z" fill="#D3DCE5"/>
<path d="M375.12 536.54H339.46L339 527.67H375.58L375.12 536.54Z" fill="#D3DCE5"/>
<path d="M375.12 399.54H339.46L339 390.67H375.58L375.12 399.54Z" fill="#D3DCE5"/>
<path d="M375.12 261.54H339.46L339 252.67H375.58L375.12 261.54Z" fill="#D3DCE5"/>
<path d="M375.12 123.54H339.46L339 114.67H375.58L375.12 123.54Z" fill="#D3DCE5"/>
<path d="M746.54 683.54H710.88L710.42 674.67H747L746.54 683.54Z" fill="#D3DCE5"/>
<path d="M746.54 536.54H710.88L710.42 527.67H747L746.54 536.54Z" fill="#D3DCE5"/>
<path d="M746.54 399.54H710.88L710.42 390.67H747L746.54 399.54Z" fill="#D3DCE5"/>
<path d="M746.54 261.54H710.88L710.42 252.67H747L746.54 261.54Z" fill="#D3DCE5"/>
<path d="M746.54 123.54H710.88L710.42 114.67H747L746.54 123.54Z" fill="#D3DCE5"/>
<path d="M121 120.26C121.393 120.263 121.786 120.222 122.17 120.14C140.17 116.05 140.17 94.33 140.17 94.33C140.329 81.0958 136.134 68.1762 128.23 57.56C127.391 56.4498 126.306 55.5493 125.06 54.9293C123.814 54.3093 122.442 53.9866 121.05 53.9866C119.659 53.9866 118.286 54.3093 117.04 54.9293C115.794 55.5493 114.709 56.4498 113.87 57.56C105.963 68.1749 101.764 81.0946 101.92 94.33C101.92 94.33 101.92 116.1 119.86 120.15C120.245 120.232 120.637 120.273 121.03 120.27L121 120.26Z" fill="#80C33F"/>
<path d="M121 79.0601V153" stroke="#2A3A51" stroke-linecap="round" stroke-linejoin="round"/>
<path d="M823 116.26C823.393 116.263 823.786 116.222 824.17 116.14C842.17 112.05 842.17 90.33 842.17 90.33C842.329 77.0958 838.134 64.1762 830.23 53.56C829.391 52.4498 828.306 51.5493 827.06 50.9293C825.814 50.3093 824.442 49.9866 823.05 49.9866C821.659 49.9866 820.286 50.3093 819.04 50.9293C817.794 51.5493 816.709 52.4498 815.87 53.56C807.963 64.1749 803.764 77.0946 803.92 90.33C803.92 90.33 803.92 112.1 821.86 116.15C822.245 116.232 822.637 116.273 823.03 116.27L823 116.26Z" fill="#80C33F"/>
<path d="M823 75.0601V149" stroke="#2A3A51" stroke-linecap="round" stroke-linejoin="round"/>
<path d="M188 538.3C187.991 536.074 188.518 533.879 189.537 531.9C190.555 529.921 192.035 528.216 193.852 526.93C195.669 525.645 197.768 524.815 199.973 524.512C202.178 524.209 204.424 524.442 206.52 525.19C207.33 521.928 208.971 518.931 211.283 516.491C213.595 514.051 216.499 512.251 219.712 511.267C222.926 510.282 226.34 510.146 229.622 510.872C232.904 511.598 235.942 513.161 238.44 515.41C240.205 510.475 243.655 506.321 248.181 503.679C252.708 501.038 258.022 500.078 263.186 500.97C268.351 501.861 273.036 504.547 276.415 508.553C279.794 512.559 281.652 517.629 281.66 522.87C281.663 523.645 281.623 524.419 281.54 525.19C283.046 524.64 284.637 524.359 286.24 524.36C293.94 524.36 300.64 530.61 300.15 538.27C300.08 539.533 299.868 540.784 299.52 542H188.52C188.185 540.785 188.017 539.53 188.02 538.27L188 538.3Z" fill="#80C33F"/>
<path d="M0.000116896 707.3C-0.00902366 705.074 0.518013 702.879 1.53662 700.9C2.55522 698.921 4.0354 697.216 5.85205 695.93C7.66869 694.645 9.76836 693.815 11.9734 693.512C14.1784 693.209 16.424 693.442 18.5201 694.19C19.3302 690.928 20.971 687.931 23.2828 685.491C25.5946 683.051 28.4987 681.251 31.7124 680.267C34.9261 679.282 38.34 679.146 41.6218 679.872C44.9036 680.598 47.9416 682.161 50.4401 684.41C52.2049 679.475 55.6545 675.321 60.1813 672.679C64.708 670.038 70.0217 669.078 75.1864 669.97C80.3511 670.861 85.0356 673.547 88.4149 677.553C91.7943 681.559 93.6518 686.629 93.6601 691.87C93.663 692.645 93.6229 693.419 93.5402 694.19C95.046 693.64 96.6369 693.359 98.2401 693.36C105.94 693.36 112.64 699.61 112.15 707.27C112.08 708.533 111.868 709.784 111.52 711H0.520136C0.184905 709.785 0.0166925 708.53 0.0201364 707.27L0.000116896 707.3Z" fill="#80C33F"/>
<path d="M236.521 43.3201H150.461V123.88H236.521V43.3201Z" fill="white" stroke="#959DA8" stroke-miterlimit="10"/>
<path d="M193.5 43.3101V124" stroke="#959DA8" stroke-miterlimit="10"/>
<path d="M236.521 181.32H150.461V261.88H236.521V181.32Z" fill="white" stroke="#959DA8" stroke-miterlimit="10"/>
<path d="M193.5 181.31V262" stroke="#959DA8" stroke-miterlimit="10"/>
<path d="M236.521 318.32H150.461V398.88H236.521V318.32Z" fill="white" stroke="#959DA8" stroke-miterlimit="10"/>
<path d="M193.5 318.31V399" stroke="#959DA8" stroke-miterlimit="10"/>
<path d="M236.521 459.32H150.461V539.88H236.521V459.32Z" fill="white" stroke="#959DA8" stroke-miterlimit="10"/>
<path d="M193.5 459.31V540" stroke="#959DA8" stroke-miterlimit="10"/>
<path d="M528.521 43.3201H442.461V123.88H528.521V43.3201Z" fill="white" stroke="#959DA8" stroke-miterlimit="10"/>
<path d="M485.5 43.3101V124" stroke="#959DA8" stroke-miterlimit="10"/>
<path d="M528.521 181.32H442.461V261.88H528.521V181.32Z" fill="white" stroke="#959DA8" stroke-miterlimit="10"/>
<path d="M485.5 181.31V262" stroke="#959DA8" stroke-miterlimit="10"/>
<path d="M528.521 318.32H442.461V398.88H528.521V318.32Z" fill="white" stroke="#959DA8" stroke-miterlimit="10"/>
<path d="M485.5 318.31V399" stroke="#959DA8" stroke-miterlimit="10"/>
<path d="M528.521 459.32H442.461V539.88H528.521V459.32Z" fill="white" stroke="#959DA8" stroke-miterlimit="10"/>
<path d="M485.5 459.31V540" stroke="#959DA8" stroke-miterlimit="10"/>
<path d="M528.521 603.32H442.461V683.88H528.521V603.32Z" fill="white" stroke="#959DA8" stroke-miterlimit="10"/>
<path d="M485.5 603.31V684" stroke="#959DA8" stroke-miterlimit="10"/>
<path d="M648.521 43.3201H562.461V123.88H648.521V43.3201Z" fill="white" stroke="#959DA8" stroke-miterlimit="10"/>
<path d="M605.5 43.3101V124" stroke="#959DA8" stroke-miterlimit="10"/>
<path d="M648.521 181.32H562.461V261.88H648.521V181.32Z" fill="white" stroke="#959DA8" stroke-miterlimit="10"/>
<path d="M605.5 181.31V262" stroke="#959DA8" stroke-miterlimit="10"/>
<path d="M648.521 318.32H562.461V398.88H648.521V318.32Z" fill="white" stroke="#959DA8" stroke-miterlimit="10"/>
<path d="M605.5 318.31V399" stroke="#959DA8" stroke-miterlimit="10"/>
<path d="M648.521 459.32H562.461V539.88H648.521V459.32Z" fill="white" stroke="#959DA8" stroke-miterlimit="10"/>
<path d="M605.5 459.31V540" stroke="#959DA8" stroke-miterlimit="10"/>
<path d="M648.521 603.32H562.461V683.88H648.521V603.32Z" fill="white" stroke="#959DA8" stroke-miterlimit="10"/>
<path d="M605.5 603.31V684" stroke="#959DA8" stroke-miterlimit="10"/>
<path d="M928.521 43.3201H842.461V123.88H928.521V43.3201Z" fill="white" stroke="#959DA8" stroke-miterlimit="10"/>
<path d="M885.5 43.3101V124" stroke="#959DA8" stroke-miterlimit="10"/>
<path d="M928.521 181.32H842.461V261.88H928.521V181.32Z" fill="white" stroke="#959DA8" stroke-miterlimit="10"/>
<path d="M885.5 181.31V262" stroke="#959DA8" stroke-miterlimit="10"/>
<path d="M928.521 318.32H842.461V398.88H928.521V318.32Z" fill="white" stroke="#959DA8" stroke-miterlimit="10"/>
<path d="M885.5 318.31V399" stroke="#959DA8" stroke-miterlimit="10"/>
<path d="M928.521 459.32H842.461V539.88H928.521V459.32Z" fill="white" stroke="#959DA8" stroke-miterlimit="10"/>
<path d="M885.5 459.31V540" stroke="#959DA8" stroke-miterlimit="10"/>
<path d="M928.521 603.32H842.461V683.88H928.521V603.32Z" fill="white" stroke="#959DA8" stroke-miterlimit="10"/>
<path d="M885.5 603.31V684" stroke="#959DA8" stroke-miterlimit="10"/>
<path d="M305 243.5H81.5V298.5H305V243.5Z" fill="#D3DCE5"/>
<path d="M305 105.5H81.5V160.5H305V105.5Z" fill="#D3DCE5"/>
<path d="M305 518.5H81.5V573.5H305V518.5Z" fill="#D3DCE5"/>
<path d="M1005 381.5H781.5V436.5H1005V381.5Z" fill="#D3DCE5"/>
<path d="M1005 105.5H781.5V160.5H1005V105.5Z" fill="#D3DCE5"/>
<path d="M1005 518.5H781.5V573.5H1005V518.5Z" fill="#D3DCE5"/>
<path d="M1005 655.5H781.5V710.5H1005V655.5Z" fill="#D3DCE5"/>
<path d="M587.751 650.73C588.377 647.584 588.346 644.343 587.661 641.21C586.988 638.108 585.666 635.184 583.781 632.63C581.948 630.138 579.58 628.087 576.851 626.63C574.186 625.205 571.222 624.428 568.2 624.364C565.178 624.3 562.184 624.949 559.461 626.26C556.684 627.598 554.244 629.542 552.321 631.95C550.344 634.421 548.916 637.285 548.131 640.35C547.33 643.456 547.18 646.693 547.691 649.86C545.431 651.042 543.458 652.704 541.911 654.73C540.322 656.806 539.181 659.19 538.561 661.73C537.927 664.298 537.818 666.968 538.241 669.58C538.658 672.172 539.605 674.65 541.021 676.86C542.398 679.019 544.227 680.854 546.381 682.24C548.493 683.595 550.888 684.45 553.381 684.74C555.85 685.025 558.351 684.738 560.691 683.9C563.067 683.051 565.226 681.685 567.011 679.9C568.738 681.66 570.826 683.024 573.131 683.9C575.393 684.759 577.819 685.101 580.231 684.9C582.649 684.679 584.989 683.924 587.081 682.69C589.22 681.424 591.067 679.72 592.501 677.69C593.971 675.611 595.008 673.258 595.551 670.77C596.104 668.258 596.158 665.663 595.711 663.13C595.296 660.595 594.374 658.17 593.001 656C591.642 653.892 589.853 652.096 587.751 650.73Z" fill="#80C33F"/>
<path d="M567.791 669.79L558.381 663.09" stroke="#2A3A51" stroke-linecap="round" stroke-linejoin="round"/>
<path d="M567.791 678.16L578.791 668.16" stroke="#2A3A51" stroke-linecap="round" stroke-linejoin="round"/>
<path d="M567.791 649.68V710" stroke="#2A3A51" stroke-linecap="round" stroke-linejoin="round"/>
<path d="M167 400.26C167.393 400.263 167.786 400.222 168.17 400.14C186.17 396.05 186.17 374.33 186.17 374.33C186.329 361.096 182.134 348.176 174.23 337.56C173.391 336.45 172.306 335.549 171.06 334.929C169.814 334.309 168.442 333.987 167.05 333.987C165.659 333.987 164.286 334.309 163.04 334.929C161.794 335.549 160.709 336.45 159.87 337.56C151.963 348.175 147.764 361.095 147.92 374.33C147.92 374.33 147.92 396.1 165.86 400.15C166.245 400.232 166.637 400.273 167.03 400.27L167 400.26Z" fill="#80C33F"/>
<path d="M167 359.06V433" stroke="#2A3A51" stroke-linecap="round" stroke-linejoin="round"/>
<path d="M305 381.5H81.5V436.5H305V381.5Z" fill="#D3DCE5"/>
<path d="M886 258.3C885.991 256.074 886.518 253.879 887.536 251.9C888.555 249.921 890.036 248.216 891.852 246.93C893.669 245.645 895.768 244.815 897.973 244.512C900.178 244.209 902.424 244.442 904.52 245.19C905.33 241.928 906.971 238.931 909.283 236.491C911.595 234.051 914.499 232.251 917.713 231.267C920.926 230.282 924.34 230.146 927.622 230.872C930.904 231.598 933.942 233.162 936.44 235.41C938.205 230.475 941.655 226.321 946.181 223.679C950.708 221.038 956.022 220.078 961.186 220.97C966.351 221.861 971.036 224.547 974.415 228.553C977.794 232.559 979.652 237.629 979.66 242.87C979.663 243.645 979.623 244.419 979.54 245.19C981.046 244.64 982.637 244.359 984.24 244.36C991.94 244.36 998.64 250.61 998.15 258.27C998.079 259.533 997.868 260.784 997.52 262H886.52C886.185 260.785 886.017 259.53 886.02 258.27L886 258.3Z" fill="#80C33F"/>
<path d="M1005 243.5H781.5V298.5H1005V243.5Z" fill="#D3DCE5"/>
<path d="M1017 672.76C1017.45 672.763 1017.9 672.716 1018.34 672.62C1038.82 667.96 1038.83 643.15 1038.83 643.15C1038.83 609.34 1017.01 592.39 1017.01 592.39C1017.01 592.39 995.18 609.3 995.18 643.15C995.18 643.15 995.18 667.99 1015.66 672.62C1016.1 672.716 1016.55 672.763 1017 672.76Z" fill="#80C33F"/>
<path d="M1017 625.75V710.14" stroke="#2A3A51" stroke-linecap="round" stroke-linejoin="round"/>
</svg>
