<svg width="783" height="454" viewBox="0 0 783 454" fill="none" xmlns="http://www.w3.org/2000/svg">
<path d="M750.777 0.220215H86.7773V22.2202H750.777V0.220215Z" fill="#D3DCE5"/>
<path d="M744.438 174.72H590.328V312.72H744.438V174.72Z" stroke="#959DA8" stroke-width="0.96" stroke-miterlimit="10"/>
<path d="M724.277 36.7202H549.277V158.72H724.277V36.7202Z" stroke="#959DA8" stroke-width="0.96" stroke-miterlimit="10"/>
<path d="M588.277 158.72H511.277V314.72H588.277V158.72Z" stroke="#959DA8" stroke-width="1.31" stroke-miterlimit="10"/>
<path d="M588.277 314.72H511.277V452.29H588.277V314.72Z" stroke="#959DA8" stroke-width="1.23" stroke-miterlimit="10"/>
<path d="M770.927 314.72H588.887V452.72H770.927V314.72Z" stroke="#959DA8" stroke-width="1.04" stroke-miterlimit="10"/>
<path d="M564.317 173.871H533.797V299.211H564.317V173.871Z" fill="white" stroke="#959DA8" stroke-miterlimit="10"/>
<path d="M564.317 320.871H533.797V446.211H564.317V320.871Z" fill="white" stroke="#959DA8" stroke-miterlimit="10"/>
<path d="M731.277 36.7202V20.7202H549.277V157.72H565.277V36.7202H731.277Z" fill="white" stroke="#959DA8" stroke-width="2" stroke-miterlimit="10"/>
<path d="M328.277 158.72H251.277V314.72H328.277V158.72Z" stroke="#959DA8" stroke-width="1.31" stroke-miterlimit="10"/>
<path d="M328.277 314.72H251.277V452.29H328.277V314.72Z" stroke="#959DA8" stroke-width="1.23" stroke-miterlimit="10"/>
<path d="M510.927 314.72H328.887V452.72H510.927V314.72Z" stroke="#959DA8" stroke-width="1.04" stroke-miterlimit="10"/>
<path d="M304.317 173.871H273.797V299.211H304.317V173.871Z" fill="white" stroke="#959DA8" stroke-miterlimit="10"/>
<path d="M304.317 320.871H273.797V446.211H304.317V320.871Z" fill="white" stroke="#959DA8" stroke-miterlimit="10"/>
<path d="M484.746 35.8804H343.746V158.22H484.746" fill="white"/>
<path d="M484.746 35.8804H343.746V158.22H484.746" stroke="#959DA8" stroke-width="1.42" stroke-miterlimit="10"/>
<path d="M411.257 43.0005H348.797V154.12H411.257V43.0005Z" fill="white" stroke="#959DA8" stroke-miterlimit="10"/>
<path d="M348.797 73.2202H410.777" stroke="#959DA8" stroke-miterlimit="10"/>
<path d="M484.277 36.7202H415.777V139.72H484.277V36.7202Z" fill="#D3DCE5"/>
<path d="M736.746 182H611.746V293.12H736.746V182Z" fill="white" stroke="#959DA8" stroke-miterlimit="10"/>
<path d="M674.287 181.98V300.72" stroke="#959DA8" stroke-miterlimit="10"/>
<path d="M611.797 212.22H736.277" stroke="#959DA8" stroke-miterlimit="10"/>
<path d="M501.746 182H376.746V293.12H501.746V182Z" fill="white" stroke="#959DA8" stroke-miterlimit="10"/>
<path d="M439.287 181.98V300.72" stroke="#959DA8" stroke-miterlimit="10"/>
<path d="M376.797 212.22H501.277" stroke="#959DA8" stroke-miterlimit="10"/>
<path d="M236.746 332H111.746V443.12H236.746V332Z" fill="white" stroke="#959DA8" stroke-miterlimit="10"/>
<path d="M174.287 331.98V450.72" stroke="#959DA8" stroke-miterlimit="10"/>
<path d="M111.797 362.22H236.277" stroke="#959DA8" stroke-miterlimit="10"/>
<path d="M454.317 40.8706H423.797V153.211H454.317V40.8706Z" fill="white" stroke="#959DA8" stroke-miterlimit="10"/>
<path d="M770.257 314.72H696.277V451.72H770.257V314.72Z" fill="#D3DCE5"/>
<path d="M720.746 43.2397H569.746V157.13H720.746V43.2397Z" fill="white" stroke="#959DA8" stroke-miterlimit="10"/>
<path d="M603.287 43.98V156.22" stroke="#959DA8" stroke-miterlimit="10"/>
<path d="M645.287 43.98V156.22" stroke="#959DA8" stroke-miterlimit="10"/>
<path d="M687.287 43.98V156.22" stroke="#959DA8" stroke-miterlimit="10"/>
<path d="M492.277 36.7202V20.7202H328.277V156.22L344.277 156.72V36.7202H492.277Z" fill="white" stroke="#959DA8" stroke-width="2" stroke-miterlimit="10"/>
<path d="M728.776 125.48C729.169 125.483 729.562 125.443 729.946 125.36C747.946 121.27 747.946 99.5502 747.946 99.5502C748.101 86.3102 743.899 73.3865 735.986 62.7702C735.147 61.66 734.062 60.7595 732.816 60.1395C731.57 59.5194 730.198 59.1968 728.806 59.1968C727.414 59.1968 726.042 59.5194 724.796 60.1395C723.55 60.7595 722.465 61.66 721.626 62.7702C713.719 73.3851 709.52 86.3048 709.676 99.5402C709.676 99.5402 709.676 121.31 727.616 125.36C728.001 125.443 728.393 125.483 728.786 125.48H728.776Z" fill="#80C33F"/>
<path d="M728.787 84.2798V158.22" stroke="#2A3A51" stroke-linecap="round" stroke-linejoin="round"/>
<path d="M97.2962 451.72H251.406L251.406 314.72H97.2962L97.2962 451.72Z" stroke="#959DA8" stroke-width="0.96" stroke-miterlimit="10"/>
<path d="M95.2962 312.72H249.406L249.406 174.72L95.2962 174.72L95.2962 312.72Z" stroke="#959DA8" stroke-width="0.96" stroke-miterlimit="10"/>
<path d="M115.447 158.72L290.447 158.72V36.7202L115.447 36.7202L115.447 158.72Z" stroke="#959DA8" stroke-width="0.96" stroke-miterlimit="10"/>
<path d="M164.777 175.22H94.7773V279.22H164.777V175.22Z" fill="#D3DCE5"/>
<path d="M402.976 315.22H328.996V452.22H402.976V315.22Z" fill="#D3DCE5"/>
<path d="M68.8076 452.72H250.848L250.848 314.72H68.8076L68.8076 452.72Z" stroke="#959DA8" stroke-width="1.04" stroke-miterlimit="10"/>
<path d="M108.457 36.7202V20.7202H290.447V157.72H274.447V36.7202H108.457Z" fill="white" stroke="#959DA8" stroke-width="2" stroke-miterlimit="10"/>
<path d="M76.957 174.72V158.72H251.457V314.72H228.457H61.457V299.72H235.457V174.72H76.957Z" fill="white" stroke="#959DA8" stroke-width="2" stroke-miterlimit="10"/>
<path d="M170.297 181H228.937V292.12H170.297V181Z" fill="white" stroke="#959DA8" stroke-miterlimit="10"/>
<path d="M228.937 211.22H170.277" stroke="#959DA8" stroke-miterlimit="10"/>
<path d="M425.297 320H483.937V431.12H425.297V320Z" fill="white" stroke="#959DA8" stroke-miterlimit="10"/>
<path d="M483.937 350.22H425.277" stroke="#959DA8" stroke-miterlimit="10"/>
<path d="M613.297 320H671.937V431.12H613.297V320Z" fill="white" stroke="#959DA8" stroke-miterlimit="10"/>
<path d="M671.937 350.22H613.277" stroke="#959DA8" stroke-miterlimit="10"/>
<path d="M118.988 43.2397H269.988V157.13H118.988V43.2397Z" fill="white" stroke="#959DA8" stroke-miterlimit="10"/>
<path d="M236.447 43.98V156.22" stroke="#959DA8" stroke-miterlimit="10"/>
<path d="M194.447 43.98V156.22" stroke="#959DA8" stroke-miterlimit="10"/>
<path d="M152.447 43.98V156.22" stroke="#959DA8" stroke-miterlimit="10"/>
<path d="M511.277 174.72V158.72H328.277V314.72H344.277H511.277V298.72H344.277V174.72H511.277Z" fill="white" stroke="#959DA8" stroke-width="2" stroke-miterlimit="10"/>
<path d="M762.777 175.72V158.72H588.277V314.72H778.277V299.72H604.277V175.72H762.777Z" fill="white" stroke="#959DA8" stroke-width="2" stroke-miterlimit="10"/>
<path d="M354.987 269.72C354.651 269.72 354.316 269.683 353.987 269.61C338.667 266.12 338.667 247.61 338.667 247.61C338.551 237.054 341.667 226.715 347.597 217.98C348.426 216.79 349.531 215.818 350.817 215.146C352.103 214.475 353.532 214.125 354.982 214.125C356.433 214.125 357.862 214.475 359.148 215.146C360.434 215.818 361.538 216.79 362.367 217.98C368.301 226.714 371.42 237.053 371.307 247.61C371.307 247.61 371.307 266.19 355.987 269.61C355.659 269.683 355.324 269.72 354.987 269.72Z" fill="#80C33F"/>
<path d="M354.988 234.56V297.66" stroke="#2A3A51" stroke-linecap="round" stroke-linejoin="round"/>
<path d="M679.777 277.52C679.768 275.294 680.295 273.099 681.314 271.12C682.333 269.141 683.813 267.437 685.629 266.151C687.446 264.865 689.546 264.035 691.751 263.732C693.956 263.429 696.201 263.662 698.297 264.41C699.108 261.148 700.748 258.151 703.06 255.711C705.372 253.271 708.276 251.472 711.49 250.487C714.704 249.502 718.117 249.366 721.399 250.092C724.681 250.818 727.719 252.382 730.217 254.63C731.982 249.695 735.432 245.541 739.959 242.9C744.485 240.258 749.799 239.299 754.964 240.19C760.128 241.082 764.813 243.767 768.192 247.773C771.572 251.779 773.429 256.849 773.437 262.09C773.44 262.865 773.4 263.64 773.317 264.41C774.817 263.86 774.127 280 773.777 281.22H680.277C679.942 280.005 679.774 278.75 679.777 277.49V277.52Z" fill="#80C33F"/>
<path d="M186.779 138.52C186.788 136.294 186.261 134.099 185.242 132.12C184.224 130.141 182.744 128.437 180.927 127.151C179.11 125.865 177.011 125.035 174.806 124.732C172.601 124.429 170.355 124.662 168.259 125.41C167.449 122.148 165.808 119.151 163.496 116.711C161.184 114.271 158.28 112.472 155.067 111.487C151.853 110.502 148.439 110.366 145.157 111.092C141.875 111.818 138.837 113.382 136.339 115.63C134.574 110.695 131.124 106.541 126.598 103.9C122.071 101.258 116.757 100.299 111.593 101.19C106.428 102.082 101.743 104.767 98.364 108.773C94.9847 112.779 93.1273 117.849 93.1189 123.09C93.116 123.865 93.1561 124.64 93.2389 125.41C91.7389 124.86 92.4289 141 92.7789 142.22H186.279C186.614 141.005 186.782 139.75 186.779 138.49V138.52Z" fill="#80C33F"/>
<path d="M714.177 260.72V299.72H704.617L704.627 260.72H714.177Z" fill="white" stroke="#959DA8" stroke-miterlimit="10"/>
<path d="M724.176 260.72H714.406V299.72H724.176V260.72Z" fill="white" stroke="#959DA8" stroke-miterlimit="10"/>
<path d="M734.176 260.72H724.406V299.72H734.176V260.72Z" fill="white" stroke="#959DA8" stroke-miterlimit="10"/>
<path d="M744.176 260.72H734.406V299.72H744.176V260.72Z" fill="white" stroke="#959DA8" stroke-miterlimit="10"/>
<path d="M754.176 260.72H744.406V299.72H754.176V260.72Z" fill="white" stroke="#959DA8" stroke-miterlimit="10"/>
<path d="M764.176 260.72H754.406V299.72H764.176V260.72Z" fill="white" stroke="#959DA8" stroke-miterlimit="10"/>
<path d="M774.176 260.72H764.406V299.72H774.176V260.72Z" fill="white" stroke="#959DA8" stroke-miterlimit="10"/>
<path d="M614.177 260.72V299.72H604.617L604.627 260.72H614.177Z" fill="white" stroke="#959DA8" stroke-miterlimit="10"/>
<path d="M604.177 260.72V299.72H594.617L594.627 260.72H604.177Z" fill="white" stroke="#959DA8" stroke-miterlimit="10"/>
<path d="M594.177 260.72V299.72H587.617L587.627 260.72H594.177Z" fill="white" stroke="#959DA8" stroke-miterlimit="10"/>
<path d="M624.176 260.72H614.406V299.72H624.176V260.72Z" fill="white" stroke="#959DA8" stroke-miterlimit="10"/>
<path d="M634.176 260.72H624.406V299.72H634.176V260.72Z" fill="white" stroke="#959DA8" stroke-miterlimit="10"/>
<path d="M644.176 260.72H634.406V299.72H644.176V260.72Z" fill="white" stroke="#959DA8" stroke-miterlimit="10"/>
<path d="M654.176 260.72H644.406V299.72H654.176V260.72Z" fill="white" stroke="#959DA8" stroke-miterlimit="10"/>
<path d="M664.176 260.72H654.406V299.72H664.176V260.72Z" fill="white" stroke="#959DA8" stroke-miterlimit="10"/>
<path d="M674.176 260.72H664.406V299.72H674.176V260.72Z" fill="white" stroke="#959DA8" stroke-miterlimit="10"/>
<path d="M684.176 260.72H674.406V299.72H684.176V260.72Z" fill="white" stroke="#959DA8" stroke-miterlimit="10"/>
<path d="M694.176 260.72H684.406V299.72H694.176V260.72Z" fill="white" stroke="#959DA8" stroke-miterlimit="10"/>
<path d="M704.176 260.72H694.406V299.72H704.176V260.72Z" fill="white" stroke="#959DA8" stroke-miterlimit="10"/>
<path d="M440.177 260.72V299.72H430.617L430.627 260.72H440.177Z" fill="white" stroke="#959DA8" stroke-miterlimit="10"/>
<path d="M450.176 260.72H440.406V299.72H450.176V260.72Z" fill="white" stroke="#959DA8" stroke-miterlimit="10"/>
<path d="M460.176 260.72H450.406V299.72H460.176V260.72Z" fill="white" stroke="#959DA8" stroke-miterlimit="10"/>
<path d="M470.176 260.72H460.406V299.72H470.176V260.72Z" fill="white" stroke="#959DA8" stroke-miterlimit="10"/>
<path d="M480.176 260.72H470.406V299.72H480.176V260.72Z" fill="white" stroke="#959DA8" stroke-miterlimit="10"/>
<path d="M490.176 260.72H480.406V299.72H490.176V260.72Z" fill="white" stroke="#959DA8" stroke-miterlimit="10"/>
<path d="M500.176 260.72H490.406V299.72H500.176V260.72Z" fill="white" stroke="#959DA8" stroke-miterlimit="10"/>
<path d="M510.176 299.72H500.406V260.72H510.176" fill="white"/>
<path d="M510.176 299.72H500.406V260.72H510.176" stroke="#959DA8" stroke-miterlimit="10"/>
<path d="M350.176 260.72H340.406V299.72H350.176V260.72Z" fill="white" stroke="#959DA8" stroke-miterlimit="10"/>
<path d="M340.176 260.72H330.406V299.72H340.176V260.72Z" fill="white" stroke="#959DA8" stroke-miterlimit="10"/>
<path d="M360.176 260.72H350.406V299.72H360.176V260.72Z" fill="white" stroke="#959DA8" stroke-miterlimit="10"/>
<path d="M370.176 260.72H360.406V299.72H370.176V260.72Z" fill="white" stroke="#959DA8" stroke-miterlimit="10"/>
<path d="M380.176 260.72H370.406V299.72H380.176V260.72Z" fill="white" stroke="#959DA8" stroke-miterlimit="10"/>
<path d="M390.176 260.72H380.406V299.72H390.176V260.72Z" fill="white" stroke="#959DA8" stroke-miterlimit="10"/>
<path d="M400.176 260.72H390.406V299.72H400.176V260.72Z" fill="white" stroke="#959DA8" stroke-miterlimit="10"/>
<path d="M410.176 260.72H400.406V299.72H410.176V260.72Z" fill="white" stroke="#959DA8" stroke-miterlimit="10"/>
<path d="M420.176 260.72H410.406V299.72H420.176V260.72Z" fill="white" stroke="#959DA8" stroke-miterlimit="10"/>
<path d="M430.176 260.72H420.406V299.72H430.176V260.72Z" fill="white" stroke="#959DA8" stroke-miterlimit="10"/>
<path d="M179.177 260.72V299.72H169.617L169.627 260.72H179.177Z" fill="white" stroke="#959DA8" stroke-miterlimit="10"/>
<path d="M189.176 260.72H179.406V299.72H189.176V260.72Z" fill="white" stroke="#959DA8" stroke-miterlimit="10"/>
<path d="M199.176 260.72H189.406V299.72H199.176V260.72Z" fill="white" stroke="#959DA8" stroke-miterlimit="10"/>
<path d="M209.176 260.72H199.406V299.72H209.176V260.72Z" fill="white" stroke="#959DA8" stroke-miterlimit="10"/>
<path d="M219.176 260.72H209.406V299.72H219.176V260.72Z" fill="white" stroke="#959DA8" stroke-miterlimit="10"/>
<path d="M229.176 260.72H219.406V299.72H229.176V260.72Z" fill="white" stroke="#959DA8" stroke-miterlimit="10"/>
<path d="M239.176 260.72H229.406V299.72H239.176V260.72Z" fill="white" stroke="#959DA8" stroke-miterlimit="10"/>
<path d="M248.776 260.72H239.406V299.72H248.776V260.72Z" fill="white" stroke="#959DA8" stroke-width="0.89" stroke-miterlimit="10"/>
<path d="M89.1763 260.72H79.4062V299.72H89.1763V260.72Z" fill="white" stroke="#959DA8" stroke-miterlimit="10"/>
<path d="M79.1763 260.72H69.4062V299.72H79.1763V260.72Z" fill="white" stroke="#959DA8" stroke-miterlimit="10"/>
<path d="M99.1763 260.72H89.4062V299.72H99.1763V260.72Z" fill="white" stroke="#959DA8" stroke-miterlimit="10"/>
<path d="M109.176 260.72H99.4062V299.72H109.176V260.72Z" fill="white" stroke="#959DA8" stroke-miterlimit="10"/>
<path d="M119.176 260.72H109.406V299.72H119.176V260.72Z" fill="white" stroke="#959DA8" stroke-miterlimit="10"/>
<path d="M129.176 260.72H119.406V299.72H129.176V260.72Z" fill="white" stroke="#959DA8" stroke-miterlimit="10"/>
<path d="M139.176 260.72H129.406V299.72H139.176V260.72Z" fill="white" stroke="#959DA8" stroke-miterlimit="10"/>
<path d="M149.176 260.72H139.406V299.72H149.176V260.72Z" fill="white" stroke="#959DA8" stroke-miterlimit="10"/>
<path d="M159.176 260.72H149.406V299.72H159.176V260.72Z" fill="white" stroke="#959DA8" stroke-miterlimit="10"/>
<path d="M169.176 260.72H159.406V299.72H169.176V260.72Z" fill="white" stroke="#959DA8" stroke-miterlimit="10"/>
<path d="M674.177 119.72V158.72H664.617L664.627 119.72H674.177Z" fill="white" stroke="#959DA8" stroke-miterlimit="10"/>
<path d="M684.176 119.72H674.406V158.72H684.176V119.72Z" fill="white" stroke="#959DA8" stroke-miterlimit="10"/>
<path d="M694.176 119.72H684.406V158.72H694.176V119.72Z" fill="white" stroke="#959DA8" stroke-miterlimit="10"/>
<path d="M704.176 119.72H694.406V158.72H704.176V119.72Z" fill="white" stroke="#959DA8" stroke-miterlimit="10"/>
<path d="M714.176 119.72H704.406V158.72H714.176V119.72Z" fill="white" stroke="#959DA8" stroke-miterlimit="10"/>
<path d="M724.176 119.72H714.406V158.72H724.176V119.72Z" fill="white" stroke="#959DA8" stroke-miterlimit="10"/>
<path d="M734.176 119.72H724.406V158.72H734.176V119.72Z" fill="white" stroke="#959DA8" stroke-miterlimit="10"/>
<path d="M744.176 119.72H734.406V158.72H744.176V119.72Z" fill="white" stroke="#959DA8" stroke-miterlimit="10"/>
<path d="M754.176 119.72H744.406V158.72H754.176V119.72Z" fill="white" stroke="#959DA8" stroke-miterlimit="10"/>
<path d="M574.177 119.72V158.72H564.617L564.627 119.72H574.177Z" fill="white" stroke="#959DA8" stroke-miterlimit="10"/>
<path d="M584.176 119.72H574.406V158.72H584.176V119.72Z" fill="white" stroke="#959DA8" stroke-miterlimit="10"/>
<path d="M594.176 119.72H584.406V158.72H594.176V119.72Z" fill="white" stroke="#959DA8" stroke-miterlimit="10"/>
<path d="M604.176 119.72H594.406V158.72H604.176V119.72Z" fill="white" stroke="#959DA8" stroke-miterlimit="10"/>
<path d="M614.176 119.72H604.406V158.72H614.176V119.72Z" fill="white" stroke="#959DA8" stroke-miterlimit="10"/>
<path d="M624.176 119.72H614.406V158.72H624.176V119.72Z" fill="white" stroke="#959DA8" stroke-miterlimit="10"/>
<path d="M634.176 119.72H624.406V158.72H634.176V119.72Z" fill="white" stroke="#959DA8" stroke-miterlimit="10"/>
<path d="M644.176 119.72H634.406V158.72H644.176V119.72Z" fill="white" stroke="#959DA8" stroke-miterlimit="10"/>
<path d="M654.176 119.72H644.406V158.72H654.176V119.72Z" fill="white" stroke="#959DA8" stroke-miterlimit="10"/>
<path d="M664.176 119.72H654.406V158.72H664.176V119.72Z" fill="white" stroke="#959DA8" stroke-miterlimit="10"/>
<path d="M475.177 119.72V158.72H465.617L465.627 119.72H475.177Z" fill="white" stroke="#959DA8" stroke-miterlimit="10"/>
<path d="M485.176 119.72H475.406V158.72H485.176V119.72Z" fill="white" stroke="#959DA8" stroke-miterlimit="10"/>
<path d="M495.176 119.72H485.406V158.72H495.176V119.72Z" fill="white" stroke="#959DA8" stroke-miterlimit="10"/>
<path d="M505.176 119.72H495.406V158.72H505.176V119.72Z" fill="white" stroke="#959DA8" stroke-miterlimit="10"/>
<path d="M515.176 119.72H505.406V158.72H515.176V119.72Z" fill="white" stroke="#959DA8" stroke-miterlimit="10"/>
<path d="M525.176 119.72H515.406V158.72H525.176V119.72Z" fill="white" stroke="#959DA8" stroke-miterlimit="10"/>
<path d="M535.176 119.72H525.406V158.72H535.176V119.72Z" fill="white" stroke="#959DA8" stroke-miterlimit="10"/>
<path d="M545.176 119.72H535.406V158.72H545.176V119.72Z" fill="white" stroke="#959DA8" stroke-miterlimit="10"/>
<path d="M555.176 119.72H545.406V158.72H555.176V119.72Z" fill="white" stroke="#959DA8" stroke-miterlimit="10"/>
<path d="M565.176 119.72H555.406V158.72H565.176V119.72Z" fill="white" stroke="#959DA8" stroke-miterlimit="10"/>
<path d="M375.177 119.72V158.72H365.617L365.627 119.72H375.177Z" fill="white" stroke="#959DA8" stroke-miterlimit="10"/>
<path d="M385.176 119.72H375.406V158.72H385.176V119.72Z" fill="white" stroke="#959DA8" stroke-miterlimit="10"/>
<path d="M395.176 119.72H385.406V158.72H395.176V119.72Z" fill="white" stroke="#959DA8" stroke-miterlimit="10"/>
<path d="M405.176 119.72H395.406V158.72H405.176V119.72Z" fill="white" stroke="#959DA8" stroke-miterlimit="10"/>
<path d="M415.176 119.72H405.406V158.72H415.176V119.72Z" fill="white" stroke="#959DA8" stroke-miterlimit="10"/>
<path d="M425.176 119.72H415.406V158.72H425.176V119.72Z" fill="white" stroke="#959DA8" stroke-miterlimit="10"/>
<path d="M435.176 119.72H425.406V158.72H435.176V119.72Z" fill="white" stroke="#959DA8" stroke-miterlimit="10"/>
<path d="M445.176 119.72H435.406V158.72H445.176V119.72Z" fill="white" stroke="#959DA8" stroke-miterlimit="10"/>
<path d="M455.176 119.72H445.406V158.72H455.176V119.72Z" fill="white" stroke="#959DA8" stroke-miterlimit="10"/>
<path d="M465.176 119.72H455.406V158.72H465.176V119.72Z" fill="white" stroke="#959DA8" stroke-miterlimit="10"/>
<path d="M275.177 119.72V158.72H265.617L265.627 119.72H275.177Z" fill="white" stroke="#959DA8" stroke-miterlimit="10"/>
<path d="M285.176 119.72H275.406V158.72H285.176V119.72Z" fill="white" stroke="#959DA8" stroke-miterlimit="10"/>
<path d="M295.176 119.72H285.406V158.72H295.176V119.72Z" fill="white" stroke="#959DA8" stroke-miterlimit="10"/>
<path d="M305.176 119.72H295.406V158.72H305.176V119.72Z" fill="white" stroke="#959DA8" stroke-miterlimit="10"/>
<path d="M315.176 119.72H305.406V158.72H315.176V119.72Z" fill="white" stroke="#959DA8" stroke-miterlimit="10"/>
<path d="M325.176 119.72H315.406V158.72H325.176V119.72Z" fill="white" stroke="#959DA8" stroke-miterlimit="10"/>
<path d="M335.176 119.72H325.406V158.72H335.176V119.72Z" fill="white" stroke="#959DA8" stroke-miterlimit="10"/>
<path d="M345.176 119.72H335.406V158.72H345.176V119.72Z" fill="white" stroke="#959DA8" stroke-miterlimit="10"/>
<path d="M355.176 119.72H345.406V158.72H355.176V119.72Z" fill="white" stroke="#959DA8" stroke-miterlimit="10"/>
<path d="M365.176 119.72H355.406V158.72H365.176V119.72Z" fill="white" stroke="#959DA8" stroke-miterlimit="10"/>
<path d="M175.177 119.72V158.72H165.617L165.627 119.72H175.177Z" fill="white" stroke="#959DA8" stroke-miterlimit="10"/>
<path d="M185.176 119.72H175.406V158.72H185.176V119.72Z" fill="white" stroke="#959DA8" stroke-miterlimit="10"/>
<path d="M195.176 119.72H185.406V158.72H195.176V119.72Z" fill="white" stroke="#959DA8" stroke-miterlimit="10"/>
<path d="M205.176 119.72H195.406V158.72H205.176V119.72Z" fill="white" stroke="#959DA8" stroke-miterlimit="10"/>
<path d="M215.176 119.72H205.406V158.72H215.176V119.72Z" fill="white" stroke="#959DA8" stroke-miterlimit="10"/>
<path d="M225.176 119.72H215.406V158.72H225.176V119.72Z" fill="white" stroke="#959DA8" stroke-miterlimit="10"/>
<path d="M235.176 119.72H225.406V158.72H235.176V119.72Z" fill="white" stroke="#959DA8" stroke-miterlimit="10"/>
<path d="M245.176 119.72H235.406V158.72H245.176V119.72Z" fill="white" stroke="#959DA8" stroke-miterlimit="10"/>
<path d="M255.176 119.72H245.406V158.72H255.176V119.72Z" fill="white" stroke="#959DA8" stroke-miterlimit="10"/>
<path d="M265.176 119.72H255.406V158.72H265.176V119.72Z" fill="white" stroke="#959DA8" stroke-miterlimit="10"/>
<path d="M85.1763 119.72H77.4062V158.72H85.1763V119.72Z" fill="white" stroke="#959DA8" stroke-miterlimit="10"/>
<path d="M95.1763 119.72H85.4062V158.72H95.1763V119.72Z" fill="white" stroke="#959DA8" stroke-miterlimit="10"/>
<path d="M105.176 119.72H95.4062V158.72H105.176V119.72Z" fill="white" stroke="#959DA8" stroke-miterlimit="10"/>
<path d="M115.176 119.72H105.406V158.72H115.176V119.72Z" fill="white" stroke="#959DA8" stroke-miterlimit="10"/>
<path d="M125.176 119.72H115.406V158.72H125.176V119.72Z" fill="white" stroke="#959DA8" stroke-miterlimit="10"/>
<path d="M135.176 119.72H125.406V158.72H135.176V119.72Z" fill="white" stroke="#959DA8" stroke-miterlimit="10"/>
<path d="M145.176 119.72H135.406V158.72H145.176V119.72Z" fill="white" stroke="#959DA8" stroke-miterlimit="10"/>
<path d="M155.176 119.72H145.406V158.72H155.176V119.72Z" fill="white" stroke="#959DA8" stroke-miterlimit="10"/>
<path d="M165.176 119.72H155.406V158.72H165.176V119.72Z" fill="white" stroke="#959DA8" stroke-miterlimit="10"/>
<path d="M754.277 119.72H77.2773V158.72H754.277V119.72Z" stroke="#959DA8" stroke-width="2" stroke-miterlimit="10"/>
<path d="M511.277 260.72H328.277V299.72H511.277V260.72Z" stroke="#959DA8" stroke-width="2" stroke-miterlimit="10"/>
<path d="M773.777 260.72H588.277V299.72H773.777V260.72Z" stroke="#959DA8" stroke-width="2.01" stroke-miterlimit="10"/>
<path d="M559.257 378.141C559.881 375.218 559.85 372.194 559.169 369.284C558.487 366.375 557.171 363.652 555.314 361.31C553.458 358.969 551.106 357.066 548.429 355.739C545.751 354.412 542.813 353.694 539.826 353.634C536.838 353.575 533.874 354.177 531.146 355.397C528.418 356.616 525.993 358.424 524.045 360.69C522.097 362.956 520.674 365.624 519.877 368.505C519.081 371.385 518.931 374.406 519.437 377.351C517.221 378.429 515.263 379.973 513.698 381.878C512.133 383.782 510.998 386.002 510.369 388.385C509.741 390.768 509.634 393.259 510.056 395.688C510.478 398.116 511.42 400.425 512.816 402.457C514.212 404.488 516.03 406.194 518.146 407.458C520.262 408.723 522.626 409.516 525.076 409.783C527.527 410.05 530.006 409.785 532.345 409.006C534.683 408.228 536.826 406.953 538.627 405.271C540.378 406.907 542.452 408.159 544.716 408.944C546.98 409.729 549.384 410.03 551.771 409.828C554.159 409.626 556.478 408.925 558.578 407.771C560.678 406.617 562.513 405.035 563.963 403.128C565.414 401.22 566.448 399.029 566.999 396.697C567.55 394.365 567.605 391.943 567.162 389.589C566.718 387.234 565.786 384.998 564.424 383.026C563.063 381.054 561.302 379.39 559.257 378.141Z" fill="#80C33F"/>
<path d="M539.409 395.84L530.059 389.61" stroke="#2A3A51" stroke-linecap="round" stroke-linejoin="round"/>
<path d="M539.398 403.63L550.318 394.28" stroke="#2A3A51" stroke-linecap="round" stroke-linejoin="round"/>
<path d="M539.406 377.14V433.25" stroke="#2A3A51" stroke-linecap="round" stroke-linejoin="round"/>
<path d="M68.4473 299.72H251.447V260.72H68.4473V299.72Z" stroke="#959DA8" stroke-width="2" stroke-miterlimit="10"/>
<path d="M674.177 413.72V452.72H664.617L664.627 413.72H674.177Z" fill="white" stroke="#959DA8" stroke-miterlimit="10"/>
<path d="M664.177 413.72V452.72H654.617L654.627 413.72H664.177Z" fill="white" stroke="#959DA8" stroke-miterlimit="10"/>
<path d="M684.176 413.72H674.406V452.72H684.176V413.72Z" fill="white" stroke="#959DA8" stroke-miterlimit="10"/>
<path d="M694.176 413.72H684.406V452.72H694.176V413.72Z" fill="white" stroke="#959DA8" stroke-miterlimit="10"/>
<path d="M704.176 413.72H694.406V452.72H704.176V413.72Z" fill="white" stroke="#959DA8" stroke-miterlimit="10"/>
<path d="M714.176 413.72H704.406V452.72H714.176V413.72Z" fill="white" stroke="#959DA8" stroke-miterlimit="10"/>
<path d="M724.176 413.72H714.406V452.72H724.176V413.72Z" fill="white" stroke="#959DA8" stroke-miterlimit="10"/>
<path d="M734.176 413.72H724.406V452.72H734.176V413.72Z" fill="white" stroke="#959DA8" stroke-miterlimit="10"/>
<path d="M744.176 413.72H734.406V452.72H744.176V413.72Z" fill="white" stroke="#959DA8" stroke-miterlimit="10"/>
<path d="M754.176 413.72H744.406V452.72H754.176V413.72Z" fill="white" stroke="#959DA8" stroke-miterlimit="10"/>
<path d="M764.176 413.72H754.406V452.72H764.176V413.72Z" fill="white" stroke="#959DA8" stroke-miterlimit="10"/>
<path d="M775.776 413.72H764.406V452.72H775.776V413.72Z" fill="white" stroke="#959DA8" stroke-width="1.08" stroke-miterlimit="10"/>
<path d="M574.177 413.72V452.72H564.617L564.627 413.72H574.177Z" fill="white" stroke="#959DA8" stroke-miterlimit="10"/>
<path d="M584.176 413.72H574.406V452.72H584.176V413.72Z" fill="white" stroke="#959DA8" stroke-miterlimit="10"/>
<path d="M594.176 413.72H584.406V452.72H594.176V413.72Z" fill="white" stroke="#959DA8" stroke-miterlimit="10"/>
<path d="M604.176 413.72H594.406V452.72H604.176V413.72Z" fill="white" stroke="#959DA8" stroke-miterlimit="10"/>
<path d="M614.176 413.72H604.406V452.72H614.176V413.72Z" fill="white" stroke="#959DA8" stroke-miterlimit="10"/>
<path d="M624.176 413.72H614.406V452.72H624.176V413.72Z" fill="white" stroke="#959DA8" stroke-miterlimit="10"/>
<path d="M634.176 413.72H624.406V452.72H634.176V413.72Z" fill="white" stroke="#959DA8" stroke-miterlimit="10"/>
<path d="M644.176 413.72H634.406V452.72H644.176V413.72Z" fill="white" stroke="#959DA8" stroke-miterlimit="10"/>
<path d="M654.176 413.72H644.406V452.72H654.176V413.72Z" fill="white" stroke="#959DA8" stroke-miterlimit="10"/>
<path d="M475.177 413.72V452.72H465.617L465.627 413.72H475.177Z" fill="white" stroke="#959DA8" stroke-miterlimit="10"/>
<path d="M485.176 413.72H475.406V452.72H485.176V413.72Z" fill="white" stroke="#959DA8" stroke-miterlimit="10"/>
<path d="M495.176 413.72H485.406V452.72H495.176V413.72Z" fill="white" stroke="#959DA8" stroke-miterlimit="10"/>
<path d="M505.176 413.72H495.406V452.72H505.176V413.72Z" fill="white" stroke="#959DA8" stroke-miterlimit="10"/>
<path d="M515.176 413.72H505.406V452.72H515.176V413.72Z" fill="white" stroke="#959DA8" stroke-miterlimit="10"/>
<path d="M525.176 413.72H515.406V452.72H525.176V413.72Z" fill="white" stroke="#959DA8" stroke-miterlimit="10"/>
<path d="M535.176 413.72H525.406V452.72H535.176V413.72Z" fill="white" stroke="#959DA8" stroke-miterlimit="10"/>
<path d="M545.176 413.72H535.406V452.72H545.176V413.72Z" fill="white" stroke="#959DA8" stroke-miterlimit="10"/>
<path d="M555.176 413.72H545.406V452.72H555.176V413.72Z" fill="white" stroke="#959DA8" stroke-miterlimit="10"/>
<path d="M565.176 413.72H555.406V452.72H565.176V413.72Z" fill="white" stroke="#959DA8" stroke-miterlimit="10"/>
<path d="M375.177 413.72V452.72H365.617L365.627 413.72H375.177Z" fill="white" stroke="#959DA8" stroke-miterlimit="10"/>
<path d="M385.176 413.72H375.406V452.72H385.176V413.72Z" fill="white" stroke="#959DA8" stroke-miterlimit="10"/>
<path d="M395.176 413.72H385.406V452.72H395.176V413.72Z" fill="white" stroke="#959DA8" stroke-miterlimit="10"/>
<path d="M405.176 413.72H395.406V452.72H405.176V413.72Z" fill="white" stroke="#959DA8" stroke-miterlimit="10"/>
<path d="M415.176 413.72H405.406V452.72H415.176V413.72Z" fill="white" stroke="#959DA8" stroke-miterlimit="10"/>
<path d="M425.176 413.72H415.406V452.72H425.176V413.72Z" fill="white" stroke="#959DA8" stroke-miterlimit="10"/>
<path d="M435.176 413.72H425.406V452.72H435.176V413.72Z" fill="white" stroke="#959DA8" stroke-miterlimit="10"/>
<path d="M445.176 413.72H435.406V452.72H445.176V413.72Z" fill="white" stroke="#959DA8" stroke-miterlimit="10"/>
<path d="M455.176 413.72H445.406V452.72H455.176V413.72Z" fill="white" stroke="#959DA8" stroke-miterlimit="10"/>
<path d="M465.176 413.72H455.406V452.72H465.176V413.72Z" fill="white" stroke="#959DA8" stroke-miterlimit="10"/>
<path d="M275.177 413.72V452.72H265.617L265.627 413.72H275.177Z" fill="white" stroke="#959DA8" stroke-miterlimit="10"/>
<path d="M285.176 413.72H275.406V452.72H285.176V413.72Z" fill="white" stroke="#959DA8" stroke-miterlimit="10"/>
<path d="M295.176 413.72H285.406V452.72H295.176V413.72Z" fill="white" stroke="#959DA8" stroke-miterlimit="10"/>
<path d="M305.176 413.72H295.406V452.72H305.176V413.72Z" fill="white" stroke="#959DA8" stroke-miterlimit="10"/>
<path d="M315.176 413.72H305.406V452.72H315.176V413.72Z" fill="white" stroke="#959DA8" stroke-miterlimit="10"/>
<path d="M325.176 413.72H315.406V452.72H325.176V413.72Z" fill="white" stroke="#959DA8" stroke-miterlimit="10"/>
<path d="M335.176 413.72H325.406V452.72H335.176V413.72Z" fill="white" stroke="#959DA8" stroke-miterlimit="10"/>
<path d="M345.176 413.72H335.406V452.72H345.176V413.72Z" fill="white" stroke="#959DA8" stroke-miterlimit="10"/>
<path d="M355.176 413.72H345.406V452.72H355.176V413.72Z" fill="white" stroke="#959DA8" stroke-miterlimit="10"/>
<path d="M365.176 413.72H355.406V452.72H365.176V413.72Z" fill="white" stroke="#959DA8" stroke-miterlimit="10"/>
<path d="M175.177 413.72V452.72H165.617L165.627 413.72H175.177Z" fill="white" stroke="#959DA8" stroke-miterlimit="10"/>
<path d="M185.176 413.72H175.406V452.72H185.176V413.72Z" fill="white" stroke="#959DA8" stroke-miterlimit="10"/>
<path d="M195.176 413.72H185.406V452.72H195.176V413.72Z" fill="white" stroke="#959DA8" stroke-miterlimit="10"/>
<path d="M205.176 413.72H195.406V452.72H205.176V413.72Z" fill="white" stroke="#959DA8" stroke-miterlimit="10"/>
<path d="M215.176 413.72H205.406V452.72H215.176V413.72Z" fill="white" stroke="#959DA8" stroke-miterlimit="10"/>
<path d="M225.176 413.72H215.406V452.72H225.176V413.72Z" fill="white" stroke="#959DA8" stroke-miterlimit="10"/>
<path d="M235.176 413.72H225.406V452.72H235.176V413.72Z" fill="white" stroke="#959DA8" stroke-miterlimit="10"/>
<path d="M245.176 413.72H235.406V452.72H245.176V413.72Z" fill="white" stroke="#959DA8" stroke-miterlimit="10"/>
<path d="M255.176 413.72H245.406V452.72H255.176V413.72Z" fill="white" stroke="#959DA8" stroke-miterlimit="10"/>
<path d="M265.176 413.72H255.406V452.72H265.176V413.72Z" fill="white" stroke="#959DA8" stroke-miterlimit="10"/>
<path d="M85.1763 413.72H75.4062V452.72H85.1763V413.72Z" fill="white" stroke="#959DA8" stroke-miterlimit="10"/>
<path d="M75.1763 413.72H65.4062V452.72H75.1763V413.72Z" fill="white" stroke="#959DA8" stroke-miterlimit="10"/>
<path d="M95.1763 413.72H85.4062V452.72H95.1763V413.72Z" fill="white" stroke="#959DA8" stroke-miterlimit="10"/>
<path d="M105.176 413.72H95.4062V452.72H105.176V413.72Z" fill="white" stroke="#959DA8" stroke-miterlimit="10"/>
<path d="M115.176 413.72H105.406V452.72H115.176V413.72Z" fill="white" stroke="#959DA8" stroke-miterlimit="10"/>
<path d="M125.176 413.72H115.406V452.72H125.176V413.72Z" fill="white" stroke="#959DA8" stroke-miterlimit="10"/>
<path d="M135.176 413.72H125.406V452.72H135.176V413.72Z" fill="white" stroke="#959DA8" stroke-miterlimit="10"/>
<path d="M145.176 413.72H135.406V452.72H145.176V413.72Z" fill="white" stroke="#959DA8" stroke-miterlimit="10"/>
<path d="M155.176 413.72H145.406V452.72H155.176V413.72Z" fill="white" stroke="#959DA8" stroke-miterlimit="10"/>
<path d="M165.176 413.72H155.406V452.72H165.176V413.72Z" fill="white" stroke="#959DA8" stroke-miterlimit="10"/>
<path d="M775.777 413.72H64.7773V452.72H775.777V413.72Z" stroke="#959DA8" stroke-width="2" stroke-miterlimit="10"/>
<path d="M670.777 449.41C670.768 447.184 671.295 444.989 672.314 443.01C673.333 441.031 674.813 439.326 676.629 438.04C678.446 436.754 680.546 435.925 682.751 435.622C684.956 435.319 687.201 435.551 689.297 436.3C690.108 433.038 691.748 430.041 694.06 427.601C696.372 425.161 699.276 423.361 702.49 422.377C705.704 421.392 709.117 421.256 712.399 421.982C715.681 422.708 718.719 424.271 721.217 426.52C722.982 421.585 726.432 417.431 730.959 414.789C735.485 412.148 740.799 411.188 745.964 412.08C751.128 412.971 755.813 415.656 759.192 419.663C762.572 423.669 764.429 428.739 764.437 433.98C764.44 434.755 764.4 435.529 764.317 436.3C765.823 435.75 767.414 435.469 769.018 435.47C776.718 435.47 783.417 441.72 782.927 449.38C782.857 450.643 782.646 451.894 782.297 453.11H671.297C670.962 451.895 670.794 450.64 670.797 449.38L670.777 449.41Z" fill="#80C33F"/>
<path d="M55.9874 391.14C56.7327 387.814 56.7293 384.364 55.9774 381.039C55.2255 377.714 53.744 374.598 51.64 371.916C49.536 369.234 46.8621 367.053 43.8118 365.531C40.7616 364.009 37.4112 363.184 34.003 363.116C30.5949 363.048 27.2142 363.739 24.1057 365.138C20.9971 366.536 18.2383 368.609 16.0289 371.205C13.8195 373.8 12.2147 376.855 11.3307 380.147C10.4467 383.439 10.3055 386.887 10.9174 390.24C8.40674 391.46 6.18899 393.207 4.41572 395.363C2.64246 397.518 1.35549 400.032 0.642766 402.73C-0.0699552 405.429 -0.191624 408.25 0.286074 411C0.763773 413.75 1.82958 416.364 3.41065 418.665C4.99172 420.965 7.05078 422.897 9.4471 424.328C11.8434 425.759 14.5205 426.656 17.2954 426.958C20.0703 427.259 22.8776 426.958 25.5254 426.075C28.1733 425.192 30.5992 423.747 32.6374 421.84C34.617 423.7 36.9651 425.123 39.5296 426.017C42.0942 426.911 44.818 427.256 47.5245 427.031C50.2311 426.805 52.86 426.013 55.2411 424.707C57.6221 423.4 59.7021 421.608 61.3462 419.446C62.9904 417.284 64.1621 414.801 64.7854 412.158C65.4088 409.514 65.4698 406.769 64.9646 404.101C64.4594 401.432 63.3992 398.9 61.8527 396.667C60.3063 394.434 58.308 392.551 55.9874 391.14Z" fill="#80C33F"/>
<path d="M33.508 411.14L22.918 404.14" stroke="#2A3A51" stroke-linecap="round" stroke-linejoin="round"/>
<path d="M33.5078 419.97L45.8578 409.39" stroke="#2A3A51" stroke-linecap="round" stroke-linejoin="round"/>
<path d="M33.5078 389.99V453.49" stroke="#2A3A51" stroke-linecap="round" stroke-linejoin="round"/>
</svg>
