<svg width="502" height="278" viewBox="0 0 502 278" fill="none" xmlns="http://www.w3.org/2000/svg">
<path d="M416.771 82.039C416.584 82.0389 416.398 82.0184 416.215 81.9778C407.694 80.0366 407.694 69.7409 407.694 69.7409C407.629 63.8692 409.363 58.1182 412.661 53.26C413.122 52.5979 413.737 52.0571 414.452 51.6837C415.167 51.3103 415.962 51.1152 416.769 51.1152C417.576 51.1152 418.37 51.3103 419.086 51.6837C419.801 52.0571 420.415 52.5979 420.876 53.26C424.177 58.1176 425.912 63.8686 425.849 69.7409C425.849 69.7409 425.849 80.0755 417.328 81.9778C417.145 82.0184 416.959 82.0389 416.771 82.039Z" fill="#80C33F"/>
<path d="M416.771 62.4824V97.5802" stroke="#2A3A51" stroke-linecap="round" stroke-linejoin="round"/>
<path d="M8.40876 81.9287C8.40367 80.6907 8.69682 79.4697 9.26339 78.3689C9.82997 77.2681 10.6533 76.32 11.6637 75.6047C12.6742 74.8894 13.8421 74.428 15.0686 74.2595C16.2951 74.091 17.5441 74.2203 18.71 74.6366C19.1606 72.8221 20.0733 71.1552 21.3592 69.7981C22.645 68.441 24.2603 67.4398 26.0479 66.8922C27.8354 66.3445 29.7343 66.2689 31.5598 66.6727C33.3852 67.0766 35.075 67.9461 36.4647 69.1967C37.4463 66.4517 39.3651 64.1412 41.883 62.6719C44.4009 61.2027 47.3564 60.669 50.2292 61.1648C53.1019 61.6607 55.7075 63.1543 57.5872 65.3826C59.4669 67.6108 60.5001 70.4309 60.5047 73.3461C60.5063 73.7772 60.484 74.208 60.438 74.6366C61.2723 74.3306 60.8885 83.3081 60.6938 83.9867H8.68687C8.5004 83.311 8.40684 82.613 8.40876 81.912V81.9287Z" fill="#80C33F"/>
<path d="M50.904 72.583V103.453H45.5864L45.592 72.583H50.904Z" fill="white" stroke="#959DA8" stroke-miterlimit="10"/>
<path d="M45.3419 72.583V103.453H40.0244L40.03 72.583H45.3419Z" fill="white" stroke="#959DA8" stroke-miterlimit="10"/>
<path d="M56.4665 72.583H51.0322V103.453H56.4665V72.583Z" fill="white" stroke="#959DA8" stroke-miterlimit="10"/>
<path d="M62.029 72.583H56.5947V103.453H62.029V72.583Z" fill="white" stroke="#959DA8" stroke-miterlimit="10"/>
<path d="M67.5911 72.583H62.1567V103.453H67.5911V72.583Z" fill="white" stroke="#959DA8" stroke-miterlimit="10"/>
<path d="M23.6496 72.583V103.453H18.332L18.3376 72.583H23.6496Z" fill="white" stroke="#959DA8" stroke-miterlimit="10"/>
<path d="M18.0871 72.583V103.453H12.7695L12.7751 72.583H18.0871Z" fill="white" stroke="#959DA8" stroke-miterlimit="10"/>
<path d="M12.5251 72.583V103.453H7.20752L7.21309 72.583H12.5251Z" fill="white" stroke="#959DA8" stroke-miterlimit="10"/>
<path d="M6.96255 72.583V103.453H1.64502L1.65059 72.583H6.96255Z" fill="white" stroke="#959DA8" stroke-miterlimit="10"/>
<path d="M29.2117 72.583H23.7773V103.453H29.2117V72.583Z" fill="white" stroke="#959DA8" stroke-miterlimit="10"/>
<path d="M34.7737 72.583H29.3394V103.453H34.7737V72.583Z" fill="white" stroke="#959DA8" stroke-miterlimit="10"/>
<path d="M40.3362 72.583H34.9019V103.453H40.3362V72.583Z" fill="white" stroke="#959DA8" stroke-miterlimit="10"/>
<path d="M73.1536 72.583H67.7192V103.453H73.1536V72.583Z" fill="white" stroke="#959DA8" stroke-miterlimit="10"/>
<path d="M78.7156 72.583H73.2812V103.453H78.7156V72.583Z" fill="white" stroke="#959DA8" stroke-miterlimit="10"/>
<path d="M84.2776 72.583H78.8433V103.453H84.2776V72.583Z" fill="white" stroke="#959DA8" stroke-miterlimit="10"/>
<path d="M89.8396 72.583H84.4053V103.453H89.8396V72.583Z" fill="white" stroke="#959DA8" stroke-miterlimit="10"/>
<path d="M95.4021 72.583H89.9678V103.453H95.4021V72.583Z" fill="white" stroke="#959DA8" stroke-miterlimit="10"/>
<path d="M100.964 72.583H95.5298V103.453H100.964V72.583Z" fill="white" stroke="#959DA8" stroke-miterlimit="10"/>
<path d="M100.742 72.8613H1.73389V103.454H100.742V72.8613Z" stroke="#959DA8" stroke-width="2" stroke-miterlimit="10"/>
<path d="M485.649 189.668H5.62744V275.883H485.649V189.668Z" fill="white" stroke="#959DA8" stroke-width="2" stroke-miterlimit="10"/>
<path d="M485.649 103.453H5.62744V189.668H485.649V103.453Z" fill="white" stroke="#959DA8" stroke-width="2" stroke-miterlimit="10"/>
<path d="M389.979 17.2393H100.742V103.454H389.979V17.2393Z" fill="white" stroke="#959DA8" stroke-width="1.79" stroke-miterlimit="10"/>
<path d="M197.525 1.1084H100.742V275.883H197.525V1.1084Z" fill="white" stroke="#959DA8" stroke-width="2" stroke-miterlimit="10"/>
<path d="M389.979 1.1084H293.196V275.883H389.979V1.1084Z" fill="white" stroke="#959DA8" stroke-width="2" stroke-miterlimit="10"/>
<path d="M90.1737 119.027H15.6396V189.112H90.1737V119.027Z" fill="white" stroke="#959DA8" stroke-width="2.15" stroke-miterlimit="10"/>
<path d="M475.081 119.027H400.547V189.112H475.081V119.027Z" fill="white" stroke="#959DA8" stroke-width="2.15" stroke-miterlimit="10"/>
<path d="M125.511 30.5889H172.79V93.9372H125.511V30.5889Z" fill="white" stroke="#959DA8" stroke-miterlimit="10"/>
<path d="M148.95 30.4541V93.9971" stroke="#959DA8" stroke-miterlimit="10"/>
<path d="M317.964 30.5889H365.243V93.9372H317.964V30.5889Z" fill="white" stroke="#959DA8" stroke-miterlimit="10"/>
<path d="M341.403 30.4541V93.9971" stroke="#959DA8" stroke-miterlimit="10"/>
<path d="M125.511 119.027H172.79V182.376H125.511V119.027Z" fill="white" stroke="#959DA8" stroke-miterlimit="10"/>
<path d="M148.95 118.894V182.437" stroke="#959DA8" stroke-miterlimit="10"/>
<path d="M28.1714 122.504H75.4504V182.943H28.1714V122.504Z" fill="white" stroke="#959DA8" stroke-miterlimit="10"/>
<path d="M51.6108 122.365V182.994" stroke="#959DA8" stroke-miterlimit="10"/>
<path d="M415.859 122.504H463.138V182.943H415.859V122.504Z" fill="white" stroke="#959DA8" stroke-miterlimit="10"/>
<path d="M439.299 122.365V182.994" stroke="#959DA8" stroke-miterlimit="10"/>
<path d="M317.964 119.027H365.243V182.376H317.964V119.027Z" fill="white" stroke="#959DA8" stroke-miterlimit="10"/>
<path d="M341.403 118.894V182.437" stroke="#959DA8" stroke-miterlimit="10"/>
<path d="M125.511 204.687H172.79V268.035H125.511V204.687Z" fill="white" stroke="#959DA8" stroke-miterlimit="10"/>
<path d="M148.95 204.553V268.096" stroke="#959DA8" stroke-miterlimit="10"/>
<path d="M317.964 204.687H365.243V268.035H317.964V204.687Z" fill="white" stroke="#959DA8" stroke-miterlimit="10"/>
<path d="M341.403 204.553V268.096" stroke="#959DA8" stroke-miterlimit="10"/>
<path d="M415.859 204.687H463.138V268.035H415.859V204.687Z" fill="white" stroke="#959DA8" stroke-miterlimit="10"/>
<path d="M439.299 204.553V268.096" stroke="#959DA8" stroke-miterlimit="10"/>
<path d="M236.205 30.5889H255.277V93.9372H236.205V30.5889Z" fill="white" stroke="#959DA8" stroke-miterlimit="10"/>
<path d="M236.205 119.027H255.277V182.376H236.205V119.027Z" fill="white" stroke="#959DA8" stroke-miterlimit="10"/>
<path d="M236.205 204.687H255.277V268.035H236.205V204.687Z" fill="white" stroke="#959DA8" stroke-miterlimit="10"/>
<path d="M35.2019 173.815C35.0148 173.815 34.8283 173.795 34.6457 173.754C26.1243 171.813 26.1243 161.517 26.1243 161.517C26.0598 155.646 27.7931 149.895 31.0914 145.036C31.5526 144.374 32.1669 143.834 32.8822 143.46C33.5974 143.087 34.3923 142.892 35.1991 142.892C36.006 142.892 36.8009 143.087 37.5161 143.46C38.2313 143.834 38.8457 144.374 39.3068 145.036C42.6071 149.894 44.3423 155.645 44.2795 161.517C44.2795 161.517 44.2795 171.852 35.7581 173.754C35.5755 173.795 35.389 173.815 35.2019 173.815Z" fill="#80C33F"/>
<path d="M35.2021 154.259V189.357" stroke="#2A3A51" stroke-linecap="round" stroke-linejoin="round"/>
<path d="M225.987 77.5888C225.799 77.5887 225.613 77.5682 225.43 77.5276C216.909 75.5864 216.909 65.2907 216.909 65.2907C216.844 59.419 218.578 53.668 221.876 48.8098C222.337 48.1477 222.952 47.6069 223.667 47.2335C224.382 46.8601 225.177 46.665 225.984 46.665C226.791 46.665 227.586 46.8601 228.301 47.2335C229.016 47.6069 229.63 48.1477 230.092 48.8098C233.392 53.6674 235.127 59.4184 235.064 65.2907C235.064 65.2907 235.064 75.6254 226.543 77.5276C226.36 77.5682 226.174 77.5887 225.987 77.5888Z" fill="#80C33F"/>
<path d="M225.987 58.0322V93.13" stroke="#2A3A51" stroke-linecap="round" stroke-linejoin="round"/>
<path d="M40.3361 158.242V189.113H35.0186L35.0241 158.242H40.3361Z" fill="white" stroke="#959DA8" stroke-miterlimit="10"/>
<path d="M34.7741 158.242V189.113H29.4565L29.4621 158.242H34.7741Z" fill="white" stroke="#959DA8" stroke-miterlimit="10"/>
<path d="M45.8982 158.242H40.4639V189.113H45.8982V158.242Z" fill="white" stroke="#959DA8" stroke-miterlimit="10"/>
<path d="M51.4607 158.242H46.0264V189.113H51.4607V158.242Z" fill="white" stroke="#959DA8" stroke-miterlimit="10"/>
<path d="M57.0227 158.242H51.5884V189.113H57.0227V158.242Z" fill="white" stroke="#959DA8" stroke-miterlimit="10"/>
<path d="M62.5852 158.242H57.1509V189.113H62.5852V158.242Z" fill="white" stroke="#959DA8" stroke-miterlimit="10"/>
<path d="M68.1472 158.242H62.7129V189.113H68.1472V158.242Z" fill="white" stroke="#959DA8" stroke-miterlimit="10"/>
<path d="M73.7097 158.242H68.2754V189.113H73.7097V158.242Z" fill="white" stroke="#959DA8" stroke-miterlimit="10"/>
<path d="M79.2717 158.242H73.8374V189.113H79.2717V158.242Z" fill="white" stroke="#959DA8" stroke-miterlimit="10"/>
<path d="M84.8342 158.242H79.3999V189.113H84.8342V158.242Z" fill="white" stroke="#959DA8" stroke-miterlimit="10"/>
<path d="M90.3962 158.242H84.9619V189.113H90.3962V158.242Z" fill="white" stroke="#959DA8" stroke-miterlimit="10"/>
<path d="M23.6492 158.242H18.2148V189.113H23.6492V158.242Z" fill="white" stroke="#959DA8" stroke-miterlimit="10"/>
<path d="M29.2117 158.242H23.7773V189.113H29.2117V158.242Z" fill="white" stroke="#959DA8" stroke-miterlimit="10"/>
<path d="M90.1737 158.52H15.6396V189.112H90.1737V158.52Z" stroke="#959DA8" stroke-width="2" stroke-miterlimit="10"/>
<path d="M175.704 96.5235H122.563L121.878 91.5898H176.388L175.704 96.5235Z" fill="#D3DCE5"/>
<path d="M368.714 97.0782H315.573L314.888 92.1445H369.398L368.714 97.0782Z" fill="#D3DCE5"/>
<path d="M175.704 184.962H122.563L121.878 180.028H176.388L175.704 184.962Z" fill="#D3DCE5"/>
<path d="M368.714 183.293H315.573L314.888 178.359H369.398L368.714 183.293Z" fill="#D3DCE5"/>
<path d="M175.704 270.621H122.563L121.878 265.688H176.388L175.704 270.621Z" fill="#D3DCE5"/>
<path d="M368.714 268.397H315.573L314.888 263.463H369.398L368.714 268.397Z" fill="#D3DCE5"/>
<path d="M466.053 268.397H412.912L412.228 263.463H466.738L466.053 268.397Z" fill="#D3DCE5"/>
<path d="M245.027 72.583V103.453H239.709L239.715 72.583H245.027Z" fill="white" stroke="#959DA8" stroke-miterlimit="10"/>
<path d="M239.465 72.583V103.453H234.147L234.153 72.583H239.465Z" fill="white" stroke="#959DA8" stroke-miterlimit="10"/>
<path d="M250.589 72.583H245.154V103.453H250.589V72.583Z" fill="white" stroke="#959DA8" stroke-miterlimit="10"/>
<path d="M256.151 72.583H250.717V103.453H256.151V72.583Z" fill="white" stroke="#959DA8" stroke-miterlimit="10"/>
<path d="M261.713 72.583H256.279V103.453H261.713V72.583Z" fill="white" stroke="#959DA8" stroke-miterlimit="10"/>
<path d="M217.772 72.583V103.453H212.454L212.46 72.583H217.772Z" fill="white" stroke="#959DA8" stroke-miterlimit="10"/>
<path d="M212.209 72.583V103.453H206.892L206.897 72.583H212.209Z" fill="white" stroke="#959DA8" stroke-miterlimit="10"/>
<path d="M206.647 72.583V103.453H201.33L201.335 72.583H206.647Z" fill="white" stroke="#959DA8" stroke-miterlimit="10"/>
<path d="M201.085 72.583V103.453H195.767L195.773 72.583H201.085Z" fill="white" stroke="#959DA8" stroke-miterlimit="10"/>
<path d="M223.334 72.583H217.899V103.453H223.334V72.583Z" fill="white" stroke="#959DA8" stroke-miterlimit="10"/>
<path d="M228.896 72.583H223.461V103.453H228.896V72.583Z" fill="white" stroke="#959DA8" stroke-miterlimit="10"/>
<path d="M234.458 72.583H229.024V103.453H234.458V72.583Z" fill="white" stroke="#959DA8" stroke-miterlimit="10"/>
<path d="M267.276 72.583H261.841V103.453H267.276V72.583Z" fill="white" stroke="#959DA8" stroke-miterlimit="10"/>
<path d="M272.838 72.583H267.403V103.453H272.838V72.583Z" fill="white" stroke="#959DA8" stroke-miterlimit="10"/>
<path d="M278.4 72.583H272.966V103.453H278.4V72.583Z" fill="white" stroke="#959DA8" stroke-miterlimit="10"/>
<path d="M283.962 72.583H278.528V103.453H283.962V72.583Z" fill="white" stroke="#959DA8" stroke-miterlimit="10"/>
<path d="M289.524 72.583H284.09V103.453H289.524V72.583Z" fill="white" stroke="#959DA8" stroke-miterlimit="10"/>
<path d="M295.086 72.583H289.652V103.453H295.086V72.583Z" fill="white" stroke="#959DA8" stroke-miterlimit="10"/>
<path d="M294.864 72.8613H195.856V103.454H294.864V72.8613Z" stroke="#959DA8" stroke-width="2" stroke-miterlimit="10"/>
<path d="M199.75 171.479C199.744 170.241 200.038 169.02 200.604 167.92C201.171 166.819 201.994 165.871 203.005 165.155C204.015 164.44 205.183 163.979 206.409 163.81C207.636 163.642 208.885 163.771 210.051 164.187C210.501 162.373 211.414 160.706 212.7 159.349C213.986 157.992 215.601 156.991 217.389 156.443C219.176 155.895 221.075 155.82 222.901 156.223C224.726 156.627 226.416 157.497 227.805 158.747C228.787 156.003 230.706 153.692 233.224 152.223C235.742 150.753 238.697 150.22 241.57 150.716C244.443 151.211 247.048 152.705 248.928 154.933C250.808 157.162 251.841 159.982 251.846 162.897C251.847 163.328 251.825 163.759 251.779 164.187C252.613 163.881 252.229 172.859 252.035 173.537H200.028C199.841 172.862 199.748 172.164 199.75 171.463V171.479Z" fill="#80C33F"/>
<path d="M245.027 158.798V189.668H239.709L239.715 158.798H245.027Z" fill="white" stroke="#959DA8" stroke-miterlimit="10"/>
<path d="M239.465 158.798V189.668H234.147L234.153 158.798H239.465Z" fill="white" stroke="#959DA8" stroke-miterlimit="10"/>
<path d="M250.589 158.798H245.154V189.668H250.589V158.798Z" fill="white" stroke="#959DA8" stroke-miterlimit="10"/>
<path d="M256.151 158.798H250.717V189.668H256.151V158.798Z" fill="white" stroke="#959DA8" stroke-miterlimit="10"/>
<path d="M261.713 158.798H256.279V189.668H261.713V158.798Z" fill="white" stroke="#959DA8" stroke-miterlimit="10"/>
<path d="M217.772 158.798V189.668H212.454L212.46 158.798H217.772Z" fill="white" stroke="#959DA8" stroke-miterlimit="10"/>
<path d="M212.209 158.798V189.668H206.892L206.897 158.798H212.209Z" fill="white" stroke="#959DA8" stroke-miterlimit="10"/>
<path d="M206.647 158.798V189.668H201.33L201.335 158.798H206.647Z" fill="white" stroke="#959DA8" stroke-miterlimit="10"/>
<path d="M201.085 158.798V189.668H195.767L195.773 158.798H201.085Z" fill="white" stroke="#959DA8" stroke-miterlimit="10"/>
<path d="M223.334 158.798H217.899V189.668H223.334V158.798Z" fill="white" stroke="#959DA8" stroke-miterlimit="10"/>
<path d="M228.896 158.798H223.461V189.668H228.896V158.798Z" fill="white" stroke="#959DA8" stroke-miterlimit="10"/>
<path d="M234.458 158.798H229.024V189.668H234.458V158.798Z" fill="white" stroke="#959DA8" stroke-miterlimit="10"/>
<path d="M267.276 158.798H261.841V189.668H267.276V158.798Z" fill="white" stroke="#959DA8" stroke-miterlimit="10"/>
<path d="M272.838 158.798H267.403V189.668H272.838V158.798Z" fill="white" stroke="#959DA8" stroke-miterlimit="10"/>
<path d="M278.4 158.798H272.966V189.668H278.4V158.798Z" fill="white" stroke="#959DA8" stroke-miterlimit="10"/>
<path d="M283.962 158.798H278.528V189.668H283.962V158.798Z" fill="white" stroke="#959DA8" stroke-miterlimit="10"/>
<path d="M289.524 158.798H284.09V189.668H289.524V158.798Z" fill="white" stroke="#959DA8" stroke-miterlimit="10"/>
<path d="M295.086 158.798H289.652V189.668H295.086V158.798Z" fill="white" stroke="#959DA8" stroke-miterlimit="10"/>
<path d="M294.864 159.076H195.856V189.668H294.864V159.076Z" stroke="#959DA8" stroke-width="2" stroke-miterlimit="10"/>
<path d="M324.449 241.881C324.864 240.031 324.862 238.112 324.444 236.262C324.026 234.413 323.202 232.68 322.031 231.188C320.861 229.696 319.374 228.483 317.677 227.637C315.98 226.79 314.117 226.331 312.221 226.294C310.325 226.256 308.445 226.64 306.716 227.418C304.987 228.196 303.452 229.348 302.224 230.792C300.995 232.236 300.102 233.935 299.61 235.766C299.119 237.598 299.04 239.515 299.38 241.381C297.984 242.059 296.75 243.031 295.764 244.23C294.778 245.429 294.062 246.827 293.665 248.328C293.269 249.829 293.201 251.398 293.467 252.927C293.733 254.457 294.326 255.911 295.205 257.191C296.084 258.47 297.23 259.545 298.563 260.341C299.895 261.137 301.385 261.636 302.928 261.804C304.471 261.971 306.033 261.804 307.506 261.313C308.979 260.821 310.328 260.018 311.462 258.957C312.563 259.992 313.869 260.783 315.295 261.28C316.722 261.778 318.237 261.97 319.742 261.844C321.248 261.719 322.71 261.278 324.034 260.551C325.359 259.825 326.516 258.828 327.43 257.625C328.345 256.423 328.996 255.042 329.343 253.572C329.69 252.101 329.724 250.574 329.443 249.09C329.162 247.606 328.572 246.197 327.712 244.955C326.852 243.713 325.74 242.666 324.449 241.881Z" fill="#80C33F"/>
<path d="M311.957 253.044L306.066 249.117" stroke="#2A3A51" stroke-linecap="round" stroke-linejoin="round"/>
<path d="M311.951 257.95L318.821 252.065" stroke="#2A3A51" stroke-linecap="round" stroke-linejoin="round"/>
<path d="M311.957 241.27V276.59" stroke="#2A3A51" stroke-linecap="round" stroke-linejoin="round"/>
<path d="M232 255.008L258.292 275.327" stroke="#959DA8" stroke-miterlimit="10"/>
<path d="M258.292 255.008L232 275.327" stroke="#959DA8" stroke-miterlimit="10"/>
<path d="M263.159 251.132H227.004V255.565H263.159V251.132Z" fill="#D3DCE5"/>
<path d="M204.528 262.34H219.913L213.5 246.96H198.12L204.528 262.34Z" fill="#D3DCE5"/>
<path d="M216.854 255.002L219.156 254.907C221.018 254.832 222.861 255.315 224.446 256.294C226.032 257.273 227.289 258.704 228.056 260.403L235.287 276.438" stroke="#959DA8" stroke-miterlimit="10"/>
<path d="M204.756 261.977L201.541 276.438" stroke="#959DA8" stroke-miterlimit="10"/>
<path d="M217.548 261.977L214.355 276.438" stroke="#959DA8" stroke-miterlimit="10"/>
<path d="M204.1 262.34H228.451V260.204H204.1V262.34Z" fill="#D3DCE5"/>
<path d="M201.474 255.002L204.544 254.88C206.308 254.81 208.053 255.269 209.554 256.198C211.055 257.127 212.245 258.482 212.971 260.092L220.33 276.439" stroke="#959DA8" stroke-miterlimit="10"/>
<path d="M274.423 255.002L271.564 254.907C269.701 254.832 267.859 255.315 266.273 256.294C264.688 257.273 263.431 258.704 262.664 260.403L255.433 276.438" stroke="#959DA8" stroke-miterlimit="10"/>
<path d="M286.192 262.339H270.807L277.22 246.959H292.6L286.192 262.339Z" fill="#D3DCE5"/>
<path d="M285.964 261.422L289.179 276.44" stroke="#959DA8" stroke-miterlimit="10"/>
<path d="M273.171 261.977L276.364 276.438" stroke="#959DA8" stroke-miterlimit="10"/>
<path d="M286.615 260.203H262.264V262.339H286.615V260.203Z" fill="#D3DCE5"/>
<path d="M289.246 255.002L286.176 254.88C284.412 254.81 282.667 255.269 281.166 256.198C279.664 257.127 278.475 258.482 277.749 260.092L270.39 276.439" stroke="#959DA8" stroke-miterlimit="10"/>
<path d="M425.243 158.242V189.113H419.926L419.931 158.242H425.243Z" fill="white" stroke="#959DA8" stroke-miterlimit="10"/>
<path d="M419.681 158.242V189.113H414.364L414.369 158.242H419.681Z" fill="white" stroke="#959DA8" stroke-miterlimit="10"/>
<path d="M430.805 158.242H425.371V189.113H430.805V158.242Z" fill="white" stroke="#959DA8" stroke-miterlimit="10"/>
<path d="M436.368 158.242H430.933V189.113H436.368V158.242Z" fill="white" stroke="#959DA8" stroke-miterlimit="10"/>
<path d="M441.93 158.242H436.495V189.113H441.93V158.242Z" fill="white" stroke="#959DA8" stroke-miterlimit="10"/>
<path d="M447.492 158.242H442.058V189.113H447.492V158.242Z" fill="white" stroke="#959DA8" stroke-miterlimit="10"/>
<path d="M453.054 158.242H447.62V189.113H453.054V158.242Z" fill="white" stroke="#959DA8" stroke-miterlimit="10"/>
<path d="M458.616 158.242H453.182V189.113H458.616V158.242Z" fill="white" stroke="#959DA8" stroke-miterlimit="10"/>
<path d="M464.179 158.242H458.744V189.113H464.179V158.242Z" fill="white" stroke="#959DA8" stroke-miterlimit="10"/>
<path d="M469.741 158.242H464.307V189.113H469.741V158.242Z" fill="white" stroke="#959DA8" stroke-miterlimit="10"/>
<path d="M475.303 158.242H469.869V189.113H475.303V158.242Z" fill="white" stroke="#959DA8" stroke-miterlimit="10"/>
<path d="M408.556 158.242H403.122V189.113H408.556V158.242Z" fill="white" stroke="#959DA8" stroke-miterlimit="10"/>
<path d="M414.119 158.242H408.685V189.113H414.119V158.242Z" fill="white" stroke="#959DA8" stroke-miterlimit="10"/>
<path d="M475.081 158.52H400.547V189.112H475.081V158.52Z" stroke="#959DA8" stroke-width="2" stroke-miterlimit="10"/>
<path d="M475.009 38.5645L467.294 100.672" stroke="#959DA8" stroke-width="2" stroke-linecap="round" stroke-linejoin="round"/>
<path d="M501.173 58.2327C496.611 58.8011 492.015 59.065 487.418 59.0225L486.111 57.1036L485.204 58.9558C480.291 58.8176 475.392 58.368 470.536 57.6097C469.198 57.4021 467.874 57.174 466.565 56.9256L465.28 56.6697C463.86 56.3842 462.456 56.0745 461.07 55.7408L460.352 55.5628L459.451 55.3348L459.062 55.2346L458.717 52.8151L456.492 54.5394L456.77 54.6172L456.492 54.5394L456.208 54.4559L455.924 54.3781C455.038 54.1222 454.159 53.8552 453.288 53.5771L451.619 53.0209C451.041 52.8281 450.464 52.6297 449.889 52.4257L449.055 52.1254L448.705 51.9974L447.831 51.6748L447.409 51.5135L446.591 51.1965L445.039 50.5735H444.978L444.183 50.2398C443.676 50.0284 443.17 49.8059 442.67 49.589C442.481 49.5021 442.318 49.3675 442.198 49.1986C442.077 49.0297 442.002 48.8323 441.981 48.6258C441.959 48.4192 441.992 48.2107 442.076 48.0206C442.16 47.8306 442.291 47.6657 442.458 47.5421C443.85 46.5275 445.303 45.5987 446.808 44.7609L447.192 44.5496C447.933 44.1417 448.692 43.756 449.467 43.3926L450.401 42.9699C451.967 42.2794 453.574 41.685 455.212 41.19L455.707 41.0454C457.376 40.5699 459.072 40.1984 460.786 39.9329L461.77 39.7883C462.288 39.716 462.81 39.6548 463.333 39.6048C463.684 39.5714 464.034 39.538 464.385 39.5158L464.913 39.4824H465.286C465.872 39.449 466.461 39.4305 467.055 39.4268H468.095C468.523 39.4268 468.951 39.4268 469.379 39.4657L470.003 39.4991H470.258L471.221 39.5714C472.162 39.6567 473.108 39.7716 474.057 39.9162C479.562 40.7574 484.848 42.6754 489.611 45.5606C494.375 48.4458 498.523 52.2415 501.819 56.7309C501.915 56.8642 501.976 57.0205 501.994 57.1843C502.012 57.348 501.988 57.5138 501.923 57.6652C501.858 57.8166 501.754 57.9485 501.623 58.048C501.492 58.1475 501.337 58.2111 501.173 58.2327Z" fill="#D3DCE5"/>
<path d="M458.985 57.5706L458.7 57.5371L458.985 57.5706Z" stroke="#959DA8" stroke-width="0.68" stroke-miterlimit="10"/>
<path d="M458.717 52.764C458.717 52.764 465.552 41.1612 474.074 39.8818" stroke="#959DA8" stroke-miterlimit="10"/>
<path d="M486.161 57.0252C486.161 57.0252 483.168 43.8928 475.431 40.0938" stroke="#959DA8" stroke-miterlimit="10"/>
<path d="M438.593 72.583V103.453H433.275L433.281 72.583H438.593Z" fill="white" stroke="#959DA8" stroke-miterlimit="10"/>
<path d="M433.03 72.583V103.453H427.713L427.718 72.583H433.03Z" fill="white" stroke="#959DA8" stroke-miterlimit="10"/>
<path d="M444.155 72.583H438.72V103.453H444.155V72.583Z" fill="white" stroke="#959DA8" stroke-miterlimit="10"/>
<path d="M449.717 72.583H444.283V103.453H449.717V72.583Z" fill="white" stroke="#959DA8" stroke-miterlimit="10"/>
<path d="M455.279 72.583H449.845V103.453H455.279V72.583Z" fill="white" stroke="#959DA8" stroke-miterlimit="10"/>
<path d="M411.338 72.583V103.453H406.02L406.026 72.583H411.338Z" fill="white" stroke="#959DA8" stroke-miterlimit="10"/>
<path d="M405.775 72.583V103.453H400.458L400.463 72.583H405.775Z" fill="white" stroke="#959DA8" stroke-miterlimit="10"/>
<path d="M400.213 72.583V103.453H394.896L394.901 72.583H400.213Z" fill="white" stroke="#959DA8" stroke-miterlimit="10"/>
<path d="M394.651 72.583V103.453H389.333L389.339 72.583H394.651Z" fill="white" stroke="#959DA8" stroke-miterlimit="10"/>
<path d="M416.9 72.583H411.466V103.453H416.9V72.583Z" fill="white" stroke="#959DA8" stroke-miterlimit="10"/>
<path d="M422.462 72.583H417.027V103.453H422.462V72.583Z" fill="white" stroke="#959DA8" stroke-miterlimit="10"/>
<path d="M428.024 72.583H422.59V103.453H428.024V72.583Z" fill="white" stroke="#959DA8" stroke-miterlimit="10"/>
<path d="M460.841 72.583H455.407V103.453H460.841V72.583Z" fill="white" stroke="#959DA8" stroke-miterlimit="10"/>
<path d="M466.403 72.583H460.969V103.453H466.403V72.583Z" fill="white" stroke="#959DA8" stroke-miterlimit="10"/>
<path d="M471.966 72.583H466.531V103.453H471.966V72.583Z" fill="white" stroke="#959DA8" stroke-miterlimit="10"/>
<path d="M477.528 72.583H472.094V103.453H477.528V72.583Z" fill="white" stroke="#959DA8" stroke-miterlimit="10"/>
<path d="M483.09 72.583H477.656V103.453H483.09V72.583Z" fill="white" stroke="#959DA8" stroke-miterlimit="10"/>
<path d="M488.652 72.583H483.218V103.453H488.652V72.583Z" fill="white" stroke="#959DA8" stroke-miterlimit="10"/>
<path d="M488.43 72.8613H389.422V103.454H488.43V72.8613Z" stroke="#959DA8" stroke-width="2" stroke-miterlimit="10"/>
<path d="M75.8894 211.918H52.0552V266.778H75.8894V211.918Z" fill="#D3DCE5"/>
<path d="M72.5137 215.811H55.4209V242.943H72.5137V215.811Z" fill="white" stroke="#959DA8" stroke-width="1.05" stroke-miterlimit="10"/>
<path d="M56.5221 247.237C57.1365 247.237 57.6346 246.739 57.6346 246.124C57.6346 245.51 57.1365 245.012 56.5221 245.012C55.9077 245.012 55.4097 245.51 55.4097 246.124C55.4097 246.739 55.9077 247.237 56.5221 247.237Z" fill="white" stroke="#959DA8" stroke-miterlimit="10"/>
<path d="M28.6885 211.918H52.5227V266.778H28.6885V211.918Z" fill="#D3DCE5"/>
<path d="M32.065 242.944H49.1577V215.812H32.065V242.944Z" fill="white" stroke="#959DA8" stroke-width="1.05" stroke-miterlimit="10"/>
<path d="M48.0568 247.237C48.6712 247.237 49.1692 246.739 49.1692 246.124C49.1692 245.51 48.6712 245.012 48.0568 245.012C47.4424 245.012 46.9443 245.51 46.9443 246.124C46.9443 246.739 47.4424 247.237 48.0568 247.237Z" fill="white" stroke="#959DA8" stroke-miterlimit="10"/>
<path d="M85.7239 270.527H20.2563V275.962H85.7239V270.527Z" fill="white" stroke="#959DA8" stroke-width="1.46" stroke-miterlimit="10"/>
<path d="M85.7239 265.104H20.2563V270.538H85.7239V265.104Z" fill="white" stroke="#959DA8" stroke-width="1.46" stroke-miterlimit="10"/>
</svg>
