<svg width="697" height="291" viewBox="0 0 697 291" fill="none" xmlns="http://www.w3.org/2000/svg">
<path d="M558.62 175.861C559.614 171.205 559.566 166.387 558.48 161.751C557.395 157.115 555.298 152.777 552.34 149.046C549.382 145.315 545.636 142.284 541.37 140.169C537.104 138.055 532.424 136.91 527.663 136.815C522.903 136.72 518.181 137.679 513.834 139.622C509.488 141.566 505.624 144.446 502.52 148.056C499.417 151.667 497.149 155.919 495.88 160.508C494.611 165.096 494.372 169.909 495.18 174.601C491.649 176.319 488.53 178.779 486.036 181.813C483.542 184.847 481.733 188.383 480.731 192.18C479.729 195.977 479.559 199.946 480.231 203.815C480.904 207.684 482.403 211.362 484.628 214.599C486.852 217.835 489.749 220.554 493.12 222.568C496.491 224.582 500.257 225.846 504.161 226.271C508.065 226.697 512.015 226.275 515.741 225.034C519.467 223.793 522.881 221.763 525.75 219.081C528.539 221.688 531.843 223.68 535.449 224.93C539.056 226.18 542.884 226.66 546.688 226.338C550.491 226.016 554.185 224.899 557.53 223.061C560.875 221.223 563.797 218.703 566.108 215.665C568.418 212.627 570.066 209.138 570.944 205.423C571.822 201.709 571.911 197.851 571.205 194.1C570.5 190.349 569.015 186.787 566.847 183.646C564.68 180.504 561.877 177.852 558.62 175.861Z" fill="#80C33F"/>
<path d="M527 204.111L512.1 194.181" stroke="#2A3A51" stroke-width="1.42" stroke-linecap="round" stroke-linejoin="round"/>
<path d="M527 216.521L544.39 201.631" stroke="#2A3A51" stroke-width="1.42" stroke-linecap="round" stroke-linejoin="round"/>
<path d="M527 174.311V263.701" stroke="#2A3A51" stroke-width="1.42" stroke-linecap="round" stroke-linejoin="round"/>
<path d="M600.06 213.001L578 289.351" stroke="#959DA8" stroke-width="1.7" stroke-miterlimit="10"/>
<path d="M600.91 213.001L622.96 289.351" stroke="#959DA8" stroke-width="1.7" stroke-miterlimit="10"/>
<path d="M681.461 239.731L678.391 249.251L672.981 266.021H600.871L606.291 249.251L609.361 239.731H681.461Z" fill="white" stroke="#959DA8" stroke-width="0.85" stroke-miterlimit="10"/>
<path d="M672.98 266.021H583.91V272.811H672.98V266.021Z" fill="white" stroke="#959DA8" stroke-width="0.86" stroke-miterlimit="10"/>
<path d="M681.459 239.731L678.389 249.251H606.289L609.359 239.731H681.459Z" fill="white" stroke="#959DA8" stroke-width="0.87" stroke-miterlimit="10"/>
<path d="M673.101 213.001L651.051 289.351" stroke="#959DA8" stroke-width="1.7" stroke-miterlimit="10"/>
<path d="M673.949 213.001L695.999 289.351" stroke="#959DA8" stroke-width="1.7" stroke-miterlimit="10"/>
<path d="M688 205.371H590.27V214.701H688V205.371Z" fill="#D3DCE5"/>
<path d="M611.59 249.251L606.34 265.981" stroke="#959DA8" stroke-width="0.87" stroke-miterlimit="10"/>
<path d="M618.25 249.251L613 265.981" stroke="#959DA8" stroke-width="0.87" stroke-miterlimit="10"/>
<path d="M624.92 249.251L619.67 265.981" stroke="#959DA8" stroke-width="0.87" stroke-miterlimit="10"/>
<path d="M631.59 249.251L626.34 265.981" stroke="#959DA8" stroke-width="0.87" stroke-miterlimit="10"/>
<path d="M638.25 249.251L633 265.981" stroke="#959DA8" stroke-width="0.87" stroke-miterlimit="10"/>
<path d="M644.92 249.251L639.67 265.981" stroke="#959DA8" stroke-width="0.87" stroke-miterlimit="10"/>
<path d="M651.59 249.251L646.34 265.981" stroke="#959DA8" stroke-width="0.87" stroke-miterlimit="10"/>
<path d="M658.25 249.251L653 265.981" stroke="#959DA8" stroke-width="0.87" stroke-miterlimit="10"/>
<path d="M664.92 249.251L659.67 265.981" stroke="#959DA8" stroke-width="0.87" stroke-miterlimit="10"/>
<path d="M671.59 249.251L666.34 265.981" stroke="#959DA8" stroke-width="0.87" stroke-miterlimit="10"/>
<path d="M470.25 248.471L462.15 240.371L454.05 248.471L454 289.571H470.25V248.471Z" fill="white" stroke="#959DA8" stroke-width="2" stroke-miterlimit="10"/>
<path d="M486.489 248.471L478.389 240.371L470.288 248.471L470.229 289.571H486.489V248.471Z" fill="white" stroke="#959DA8" stroke-width="2" stroke-miterlimit="10"/>
<path d="M502.729 248.471L494.629 240.371L486.529 248.471L486.469 289.571H502.729V248.471Z" fill="white" stroke="#959DA8" stroke-width="2" stroke-miterlimit="10"/>
<path d="M518.959 248.471L510.859 240.371L502.759 248.471L502.709 289.571H518.959V248.471Z" fill="white" stroke="#959DA8" stroke-width="2" stroke-miterlimit="10"/>
<path d="M535.198 248.471L527.098 240.371L518.998 248.471L518.938 289.571H535.198V248.471Z" fill="white" stroke="#959DA8" stroke-width="2" stroke-miterlimit="10"/>
<path d="M551.44 248.471L543.34 240.371L535.24 248.471L535.18 289.571H551.44V248.471Z" fill="white" stroke="#959DA8" stroke-width="2" stroke-miterlimit="10"/>
<path d="M74 142.371V289.371H250" stroke="#959DA8" stroke-width="2" stroke-miterlimit="10"/>
<path d="M132.101 177.621H112.301V240.331H132.101V177.621Z" fill="white" stroke="#959DA8" stroke-miterlimit="10"/>
<path d="M277.791 94.4612V52.9312H204.211V98.4412H272.791" stroke="#959DA8" stroke-miterlimit="10"/>
<path d="M238.1 58.9312H210.5V92.2812H238.1V58.9312Z" fill="white" stroke="#959DA8" stroke-miterlimit="10"/>
<path d="M271.73 58.9312H244.17V92.2812H271.72L271.73 58.9312Z" fill="white" stroke="#959DA8" stroke-miterlimit="10"/>
<path d="M407.1 229.181H453.51V132.011" stroke="#959DA8" stroke-miterlimit="10"/>
<path d="M293.9 287.931V158.591H407.1V288.931" stroke="#959DA8" stroke-width="2" stroke-miterlimit="10"/>
<path d="M247.52 131.813V289.371H453.52V131.371" stroke="#959DA8" stroke-width="2" stroke-miterlimit="10"/>
<path d="M444.16 195.071L430.51 187.371L417 195.341L417.38 195.331L420.53 218.521L440.86 218.261L443.71 195.071H444.16Z" fill="#D3DCE5"/>
<path d="M440.189 198.901H421.189V202.901H440.189V198.901Z" fill="white" stroke="#959DA8" stroke-miterlimit="10"/>
<path d="M309.599 65.4314L242.169 13.7114L71.3594 145.001" stroke="#959DA8" stroke-miterlimit="10"/>
<path d="M317.1 58.9311L250.18 7.54109L242.17 1.37109L234.15 7.54109L56 145.001H71.36L74.1 143.931" stroke="#959DA8" stroke-width="2" stroke-miterlimit="10"/>
<path d="M318.871 176.471H303.801V226.711H318.871V176.471Z" fill="white" stroke="#959DA8" stroke-miterlimit="10"/>
<path d="M371.481 176.471H328.631V269.561H371.481V176.471Z" fill="#D3DCE5"/>
<path d="M365.41 182.381H334.68V226.711H365.41V182.381Z" fill="white" stroke="#959DA8" stroke-miterlimit="10"/>
<circle cx="363.68" cy="234.371" r="2" fill="white" stroke="#959DA8" stroke-miterlimit="10"/>
<path d="M453.179 131.701H248.789L259.729 121.951H441.069L453.179 131.701Z" stroke="#959DA8" stroke-miterlimit="10"/>
<path d="M199.63 177.561H141.75V240.411H199.63V177.561Z" fill="white" stroke="#959DA8" stroke-miterlimit="10"/>
<path d="M141.74 202.871H199.63" stroke="#959DA8" stroke-miterlimit="10"/>
<path d="M170.68 177.561V202.871" stroke="#959DA8" stroke-miterlimit="10"/>
<path d="M112.41 202.921H132.26" stroke="#959DA8" stroke-miterlimit="10"/>
<path d="M229.1 177.631H209.23V240.331H229.1V177.631Z" fill="white" stroke="#959DA8" stroke-miterlimit="10"/>
<path d="M209.23 202.941H229.07" stroke="#959DA8" stroke-miterlimit="10"/>
<path d="M303.801 194.791H318.871" stroke="#959DA8" stroke-miterlimit="10"/>
<path d="M396 176.471H380.93V226.711H396V176.471Z" fill="white" stroke="#959DA8" stroke-miterlimit="10"/>
<path d="M380.93 194.791H396" stroke="#959DA8" stroke-miterlimit="10"/>
<path d="M452.051 131.551L350.471 43.4312L248.891 131.551" stroke="#959DA8" stroke-miterlimit="10"/>
<path d="M248.89 131.551H234.77L350.49 30.1509L466.169 131.551H452.049" stroke="#959DA8" stroke-width="2" stroke-miterlimit="10"/>
<path d="M294.1 228.931H247.1" stroke="#959DA8" stroke-miterlimit="10"/>
<path d="M407.229 269.551H294.039V279.321H407.229V269.551Z" stroke="#959DA8" stroke-miterlimit="10"/>
<path d="M407.229 279.551H294.039V289.321H407.229V279.551Z" stroke="#959DA8" stroke-miterlimit="10"/>
<path d="M78.7921 201.424C79.7858 196.767 79.738 191.949 78.6523 187.313C77.5666 182.678 75.4698 178.339 72.5118 174.608C69.5538 170.877 65.8079 167.846 61.5419 165.732C57.2759 163.617 52.5954 162.472 47.8352 162.377C43.0749 162.283 38.3526 163.242 34.006 165.185C29.6595 167.128 25.7961 170.008 22.6923 173.619C19.5886 177.229 17.3211 181.481 16.0521 186.07C14.7832 190.659 14.5442 195.472 15.3521 200.164C11.8207 201.882 8.70165 204.342 6.20797 207.375C3.71429 210.409 1.90473 213.945 0.902919 217.743C-0.0988962 221.54 -0.269386 225.508 0.403102 229.377C1.07559 233.247 2.5752 236.925 4.79953 240.161C7.02385 243.398 9.92049 246.116 13.2916 248.131C16.6627 250.145 20.4289 251.408 24.3328 251.834C28.2368 252.259 32.1867 251.837 35.9126 250.596C39.6386 249.355 43.0528 247.325 45.9221 244.644C48.7106 247.25 52.0148 249.243 55.6212 250.493C59.2277 251.743 63.0563 252.222 66.8596 251.9C70.663 251.578 74.3565 250.462 77.7015 248.624C81.0465 246.785 83.9688 244.266 86.2794 241.227C88.59 238.189 90.2375 234.7 91.1156 230.986C91.9937 227.271 92.0829 223.414 91.3773 219.662C90.6717 215.911 89.187 212.35 87.0192 209.208C84.8514 206.067 82.0487 203.415 78.7921 201.424Z" fill="#80C33F"/>
<path d="M47.1715 229.674L32.2715 219.744" stroke="#2A3A51" stroke-width="1.42" stroke-linecap="round" stroke-linejoin="round"/>
<path d="M47.1719 242.084L64.5619 227.194" stroke="#2A3A51" stroke-width="1.42" stroke-linecap="round" stroke-linejoin="round"/>
<path d="M47.1719 199.874V289.264" stroke="#2A3A51" stroke-width="1.42" stroke-linecap="round" stroke-linejoin="round"/>
<path d="M304.111 285.384C304.116 286.529 303.964 287.67 303.661 288.774H202.831C202.515 287.669 202.324 286.532 202.261 285.384C201.821 278.384 207.901 272.744 214.901 272.744C216.354 272.746 217.796 273.003 219.161 273.504C219.085 272.803 219.048 272.099 219.051 271.394C219.066 266.638 220.757 262.04 223.826 258.407C226.896 254.775 231.147 252.34 235.834 251.532C240.52 250.724 245.342 251.593 249.451 253.988C253.56 256.382 256.693 260.148 258.301 264.624C260.569 262.579 263.329 261.156 266.311 260.494C269.293 259.833 272.395 259.955 275.316 260.85C278.237 261.744 280.876 263.38 282.976 265.597C285.076 267.815 286.566 270.539 287.301 273.504C289.204 272.825 291.243 272.614 293.245 272.889C295.246 273.164 297.153 273.917 298.802 275.084C300.452 276.251 301.796 277.798 302.722 279.594C303.648 281.391 304.127 283.383 304.121 285.404L304.111 285.384Z" fill="#80C33F"/>
</svg>
