<svg width="706" height="289" viewBox="0 0 706 289" fill="none" xmlns="http://www.w3.org/2000/svg">
<path d="M651.338 248.861C651.788 248.864 652.238 248.817 652.678 248.721C673.178 244.061 673.178 219.231 673.178 219.231C673.178 185.401 651.348 168.441 651.348 168.441C651.348 168.441 629.508 185.361 629.508 219.181C629.508 219.181 629.508 244.041 649.998 248.671C650.436 248.784 650.885 248.848 651.338 248.861Z" fill="#80C33F"/>
<path d="M651.348 201.811V286.261" stroke="#2A3A51" stroke-width="1.42" stroke-linecap="round" stroke-linejoin="round"/>
<path d="M607.498 246.081L599.388 237.981L591.288 246.081L591.238 287.181H607.498V246.081Z" fill="white" stroke="#959DA8" stroke-width="2" stroke-miterlimit="10"/>
<path d="M623.729 246.081L615.629 237.981L607.529 246.081L607.469 287.181H623.729V246.081Z" fill="white" stroke="#959DA8" stroke-width="2" stroke-miterlimit="10"/>
<path d="M639.967 246.081L631.867 237.981L623.767 246.081L623.707 287.181H639.967V246.081Z" fill="white" stroke="#959DA8" stroke-width="2" stroke-miterlimit="10"/>
<path d="M656.207 246.081L648.097 237.981L639.997 246.081L639.947 287.181H656.207V246.081Z" fill="white" stroke="#959DA8" stroke-width="2" stroke-miterlimit="10"/>
<path d="M672.438 246.081L664.338 237.981L656.238 246.081L656.178 287.181H672.438V246.081Z" fill="white" stroke="#959DA8" stroke-width="2" stroke-miterlimit="10"/>
<path d="M688.678 246.081L680.578 237.981L672.478 246.081L672.418 287.181H688.678V246.081Z" fill="white" stroke="#959DA8" stroke-width="2" stroke-miterlimit="10"/>
<path d="M704.918 246.081L696.818 237.981L688.708 246.081L688.658 287.181H704.918V246.081Z" fill="white" stroke="#959DA8" stroke-width="2" stroke-miterlimit="10"/>
<path d="M60.7678 246.081L52.6678 237.981L44.5678 246.081L44.5078 287.181H60.7678V246.081Z" fill="white" stroke="#959DA8" stroke-width="2" stroke-miterlimit="10"/>
<path d="M77.008 246.081L68.908 237.981L60.808 246.081L60.748 287.181H77.008V246.081Z" fill="white" stroke="#959DA8" stroke-width="2" stroke-miterlimit="10"/>
<path d="M93.2483 246.081L85.1483 237.981L77.0383 246.081L76.9883 287.181H93.2483V246.081Z" fill="white" stroke="#959DA8" stroke-width="2" stroke-miterlimit="10"/>
<path d="M109.479 246.081L101.379 237.981L93.2788 246.081L93.2188 287.181H109.479V246.081Z" fill="white" stroke="#959DA8" stroke-width="2" stroke-miterlimit="10"/>
<path d="M125.717 246.081L117.617 237.981L109.517 246.081L109.457 287.181H125.717V246.081Z" fill="white" stroke="#959DA8" stroke-width="2" stroke-miterlimit="10"/>
<path d="M292.467 174.721H249.617V267.811H292.467V174.721Z" fill="#D3DCE5"/>
<path d="M286.398 180.631H255.668V224.961H286.398V180.631Z" fill="white" stroke="#959DA8" stroke-miterlimit="10"/>
<circle cx="284.918" cy="232.181" r="2" fill="white" stroke="#959DA8" stroke-miterlimit="10"/>
<path d="M118.357 134.641L176.167 64.9312L393.827 65.0811L327.777 137.041L118.357 134.641Z" stroke="#959DA8" stroke-width="2" stroke-miterlimit="10"/>
<path d="M343.488 267.801H230.488V277.571H343.488V267.801Z" stroke="#959DA8" stroke-miterlimit="10"/>
<path d="M343.488 277.551H230.488V287.321H343.488V277.551Z" stroke="#959DA8" stroke-miterlimit="10"/>
<path d="M334.098 134.861H113.688V144.391H334.098V134.861Z" fill="white" stroke="#959DA8" stroke-width="2" stroke-miterlimit="10"/>
<path d="M337.338 112.091H262.438V162.031H337.338V112.091Z" fill="white" stroke="#959DA8" stroke-miterlimit="10"/>
<path d="M174.399 112.181L231.039 159.971V286.971H117.719V159.971L174.399 112.181Z" fill="white" stroke="#959DA8" stroke-width="2" stroke-miterlimit="10"/>
<path d="M52.0982 229.101C52.7537 226.035 52.7234 222.863 52.0094 219.81C51.2955 216.757 49.9155 213.9 47.9683 211.443C46.0212 208.986 43.5549 206.99 40.7461 205.597C37.9373 204.205 34.8554 203.45 31.721 203.388C28.5865 203.326 25.4771 203.957 22.6152 205.237C19.7532 206.517 17.2096 208.413 15.1664 210.791C13.1231 213.169 11.6307 215.969 10.796 218.991C9.96134 222.013 9.80499 225.182 10.3382 228.271C7.97645 229.382 5.88458 230.993 4.20756 232.993C2.53054 234.993 1.30848 237.334 0.626103 239.853C-0.0562761 242.372 -0.182655 245.01 0.255727 247.582C0.694108 250.155 1.68676 252.602 3.16488 254.753C4.643 256.904 6.57122 258.708 8.81589 260.04C11.0606 261.371 13.568 262.199 16.1643 262.465C18.7607 262.731 21.3839 262.43 23.852 261.581C26.3202 260.733 28.5743 259.358 30.4582 257.551C32.2858 259.321 34.468 260.684 36.8608 261.549C39.2536 262.414 41.8026 262.762 44.3397 262.57C46.8768 262.378 49.3444 261.65 51.5797 260.435C53.8149 259.219 55.7671 257.544 57.3075 255.519C58.8479 253.493 59.9414 251.165 60.516 248.686C61.0905 246.208 61.1331 243.635 60.6409 241.139C60.1486 238.643 59.1327 236.279 57.6602 234.204C56.1877 232.129 54.292 230.39 52.0982 229.101Z" fill="#80C33F"/>
<path d="M31.2961 247.801L21.4961 241.271" stroke="#2A3A51" stroke-width="1.46" stroke-linecap="round" stroke-linejoin="round"/>
<path d="M31.2969 255.971L42.7369 246.181" stroke="#2A3A51" stroke-width="1.46" stroke-linecap="round" stroke-linejoin="round"/>
<path d="M31.2773 228.071V286.921" stroke="#2A3A51" stroke-width="1.46" stroke-linecap="round" stroke-linejoin="round"/>
<path d="M256.499 112.221H252.219V125.371H256.499V112.221Z" fill="white" stroke="#959DA8" stroke-width="2" stroke-miterlimit="10"/>
<path d="M373.618 90.6411H258.778L248.258 117.561H384.128L373.618 90.6411Z" fill="white" stroke="#959DA8" stroke-width="2" stroke-miterlimit="10"/>
<path d="M284.298 122.811H270.918V151.021H284.308L284.298 122.811Z" fill="white" stroke="#959DA8" stroke-miterlimit="10"/>
<path d="M277.598 122.811V134.201" stroke="#959DA8" stroke-miterlimit="10"/>
<path d="M270.928 134.401H284.298" stroke="#959DA8" stroke-miterlimit="10"/>
<path d="M307.268 122.811H293.918V151.021H307.308L307.268 122.811Z" fill="white" stroke="#959DA8" stroke-miterlimit="10"/>
<path d="M300.568 122.811V134.201" stroke="#959DA8" stroke-miterlimit="10"/>
<path d="M293.889 134.401H307.269" stroke="#959DA8" stroke-miterlimit="10"/>
<path d="M330.238 122.811H316.848V151.021H330.238V122.811Z" fill="white" stroke="#959DA8" stroke-miterlimit="10"/>
<path d="M323.537 122.811V134.201" stroke="#959DA8" stroke-miterlimit="10"/>
<path d="M316.857 134.401H330.237" stroke="#959DA8" stroke-miterlimit="10"/>
<path d="M455.068 14.9609L594.068 153.601V287.081H316.068V152.881L455.068 14.9609Z" fill="white" stroke="#959DA8" stroke-width="2" stroke-miterlimit="10"/>
<path d="M401.458 284.308C401.459 285.372 401.318 286.431 401.038 287.458H306.188C305.893 286.431 305.711 285.375 305.648 284.308C305.238 277.768 310.968 272.418 317.538 272.418C318.902 272.419 320.256 272.659 321.538 273.128C321.462 272.464 321.426 271.796 321.428 271.128C321.398 266.633 322.962 262.274 325.843 258.823C328.724 255.373 332.734 253.056 337.162 252.284C341.59 251.512 346.149 252.334 350.027 254.605C353.906 256.876 356.854 260.449 358.348 264.688C360.482 262.768 363.077 261.434 365.88 260.815C368.683 260.196 371.599 260.313 374.343 261.154C377.088 261.996 379.567 263.534 381.541 265.618C383.515 267.702 384.916 270.262 385.608 273.048C387.399 272.407 389.318 272.207 391.203 272.465C393.088 272.723 394.883 273.431 396.436 274.53C397.989 275.629 399.255 277.086 400.125 278.777C400.996 280.469 401.446 282.345 401.438 284.248L401.458 284.308Z" fill="#80C33F"/>
<path d="M318.758 150.701H591.238" stroke="#959DA8" stroke-miterlimit="10"/>
<path d="M316.297 160.271H594.337" stroke="#959DA8" stroke-miterlimit="10"/>
<path d="M508.678 142.661H393.838L383.318 169.571H519.188L508.678 142.661Z" fill="white" stroke="#959DA8" stroke-width="2" stroke-miterlimit="10"/>
<path d="M469.788 62.8811H439.268V127.181H469.788V62.8811Z" fill="white" stroke="#959DA8" stroke-miterlimit="10"/>
<path d="M454.518 62.8811V88.8411" stroke="#959DA8" stroke-miterlimit="10"/>
<path d="M439.297 89.291H469.787" stroke="#959DA8" stroke-miterlimit="10"/>
<path d="M426.918 174.831H396.398V239.181H426.918V174.831Z" fill="white" stroke="#959DA8" stroke-miterlimit="10"/>
<path d="M411.648 174.831V200.781" stroke="#959DA8" stroke-miterlimit="10"/>
<path d="M396.428 201.241H426.918" stroke="#959DA8" stroke-miterlimit="10"/>
<path d="M467.028 174.831H436.498V239.181H467.018L467.028 174.831Z" fill="white" stroke="#959DA8" stroke-miterlimit="10"/>
<path d="M451.758 174.831V200.781" stroke="#959DA8" stroke-miterlimit="10"/>
<path d="M436.537 201.241H467.027" stroke="#959DA8" stroke-miterlimit="10"/>
<path d="M507.127 174.831H476.607V239.181H507.127V174.831Z" fill="white" stroke="#959DA8" stroke-miterlimit="10"/>
<path d="M491.867 174.831V200.781" stroke="#959DA8" stroke-miterlimit="10"/>
<path d="M476.648 201.241H507.128" stroke="#959DA8" stroke-miterlimit="10"/>
<path d="M168.918 174.681H138.398V238.991H168.918V174.681Z" fill="white" stroke="#959DA8" stroke-miterlimit="10"/>
<path d="M153.658 174.681V200.641" stroke="#959DA8" stroke-miterlimit="10"/>
<path d="M138.438 201.101H168.918" stroke="#959DA8" stroke-miterlimit="10"/>
<path d="M209.018 174.681H178.498V238.991H209.018V174.681Z" fill="white" stroke="#959DA8" stroke-miterlimit="10"/>
<path d="M193.758 174.681V200.641" stroke="#959DA8" stroke-miterlimit="10"/>
<path d="M178.527 201.101H209.017" stroke="#959DA8" stroke-miterlimit="10"/>
<path d="M213.728 247.721H135.578L134.568 238.861H214.738L213.728 247.721Z" fill="white" stroke="#959DA8" stroke-miterlimit="10"/>
<path d="M391.208 169.541H386.928V182.691H391.208V169.541Z" fill="white" stroke="#959DA8" stroke-width="2" stroke-miterlimit="10"/>
<path d="M515.897 169.691H511.617V182.841H515.897V169.691Z" fill="white" stroke="#959DA8" stroke-width="2" stroke-miterlimit="10"/>
<path d="M246.359 170.551H231.409L174.549 113.681L117.679 170.551H102.729L174.549 98.741L246.359 170.551Z" fill="white"/>
<path d="M462.337 8.49104L455.427 1.57104L448.527 8.49104L299.107 158.321L312.727 158.401L455.427 15.411L598.127 158.401L611.777 158.321L462.337 8.49104Z" fill="white"/>
<path d="M231.408 170.551L174.548 113.681L117.678 170.551" stroke="#959DA8" stroke-miterlimit="10"/>
<path d="M117.679 170.551H102.729L174.549 98.741L246.359 170.551H231.409" stroke="#959DA8" stroke-width="2" stroke-miterlimit="10"/>
<path d="M316.027 156.871L313.917 158.401H311.917L299.107 158.321L448.527 8.49104L455.427 1.57104L462.337 8.49104L611.777 158.321L598.917 158.401H596.917L593.917 156.181" stroke="#959DA8" stroke-width="2" stroke-miterlimit="10"/>
<path d="M598.129 158.401L455.429 15.4111L312.729 158.401" stroke="#959DA8" stroke-miterlimit="10"/>
</svg>
