<svg width="924" height="384" viewBox="0 0 924 384" fill="none" xmlns="http://www.w3.org/2000/svg">
<path d="M208.97 380.108L137.97 380.178L137.66 72.1784L208.66 72.1084" fill="white"/>
<path d="M208.97 380.108L137.97 380.178L137.66 72.1784L208.66 72.1084" stroke="#959DA8" stroke-width="2" stroke-miterlimit="10"/>
<path d="M52.0902 323.188C52.7381 320.122 52.7009 316.952 51.9812 313.902C51.2615 310.853 49.877 308 47.9268 305.548C45.9765 303.096 43.5087 301.105 40.6996 299.718C37.8905 298.331 34.8096 297.581 31.6771 297.522C28.5447 297.464 25.4379 298.098 22.579 299.38C19.7201 300.661 17.1796 302.559 15.1392 304.936C13.0988 307.314 11.6088 310.113 10.7757 313.133C9.94265 316.153 9.7871 319.32 10.3202 322.408C7.95981 323.521 5.86981 325.134 4.19505 327.136C2.52028 329.138 1.3008 331.479 0.621124 333.999C-0.0585491 336.519 -0.182154 339.156 0.258873 341.729C0.699899 344.301 1.69501 346.747 3.17523 348.896C4.65546 351.046 6.58538 352.847 8.83125 354.177C11.0771 355.506 13.5852 356.331 16.1817 356.595C18.7782 356.859 21.4009 356.554 23.8682 355.704C26.3354 354.853 28.5881 353.476 30.4702 351.668C32.2993 353.437 34.4829 354.799 36.877 355.663C39.271 356.527 41.8211 356.873 44.3588 356.679C46.8966 356.485 49.3643 355.755 51.5992 354.537C53.8341 353.32 55.7853 351.642 57.3242 349.614C58.863 347.587 59.9543 345.257 60.5263 342.776C61.0982 340.296 61.1377 337.723 60.6421 335.227C60.1466 332.73 59.1272 330.367 57.6514 328.294C56.1755 326.22 54.2766 324.483 52.0802 323.197L52.0902 323.188Z" fill="#80C33F"/>
<path d="M31.31 341.907L21.5 335.407" stroke="#2A3A51" stroke-width="1.46" stroke-linecap="round" stroke-linejoin="round"/>
<path d="M31.3203 350.089L42.7503 340.269" stroke="#2A3A51" stroke-width="1.46" stroke-linecap="round" stroke-linejoin="round"/>
<path d="M31.2598 322.179L31.3098 381.029" stroke="#2A3A51" stroke-width="1.46" stroke-linecap="round" stroke-linejoin="round"/>
<path d="M882.586 344.407C883.04 344.41 883.492 344.363 883.936 344.266C904.581 339.552 904.561 314.543 904.561 314.543C904.561 280.469 882.515 263.407 882.515 263.407C882.515 263.407 860.53 280.479 860.561 314.584C860.561 314.584 860.561 339.623 881.236 344.266C881.679 344.363 882.132 344.41 882.586 344.407Z" fill="#80C33F"/>
<path d="M882.561 297.407V381.407" stroke="#2A3A51" stroke-width="1.42" stroke-linecap="round" stroke-linejoin="round"/>
<path d="M211.811 226.107L824.811 225.487L824.971 381.487L211.971 382.107" fill="white"/>
<path d="M211.811 226.107L824.811 225.487L824.971 381.487L211.971 382.107" stroke="#959DA8" stroke-width="2" stroke-miterlimit="10"/>
<path d="M211.16 72.1072L656.26 71.6572L656.35 160.657L576.62 225.737L211.31 226.107" fill="white"/>
<path d="M211.16 72.1072L656.26 71.6572L656.35 160.657L576.62 225.737L211.31 226.107" stroke="#959DA8" stroke-width="2" stroke-miterlimit="10"/>
<path d="M656.879 260.634L545.379 260.75L545.506 380.002L657.006 379.886L656.879 260.634Z" fill="#D3DCE5"/>
<path d="M656.859 277.228L544.859 277.338" stroke="white" stroke-width="0.99" stroke-miterlimit="10"/>
<path d="M544.852 261.087L636.502 261.017L656.852 260.997" stroke="white" stroke-width="0.99" stroke-miterlimit="10"/>
<path d="M656.879 293.468L544.879 293.578" stroke="white" stroke-width="0.99" stroke-miterlimit="10"/>
<path d="M544.859 277.317L621.239 277.267L656.859 277.237" stroke="white" stroke-width="0.99" stroke-miterlimit="10"/>
<path d="M656.9 309.708L544.9 309.818" stroke="white" stroke-width="0.99" stroke-miterlimit="10"/>
<path d="M544.879 293.558L621.259 293.508L656.879 293.478" stroke="white" stroke-width="0.99" stroke-miterlimit="10"/>
<path d="M656.91 325.938L544.91 326.058" stroke="white" stroke-width="0.99" stroke-miterlimit="10"/>
<path d="M544.9 309.798L636.55 309.728L656.9 309.708" stroke="white" stroke-width="0.99" stroke-miterlimit="10"/>
<path d="M656.93 341.759L544.93 341.869" stroke="white" stroke-width="0.99" stroke-miterlimit="10"/>
<path d="M544.91 325.608L656.91 325.528" stroke="white" stroke-width="0.99" stroke-miterlimit="10"/>
<path d="M656.941 357.997L544.941 358.107" stroke="white" stroke-width="0.99" stroke-miterlimit="10"/>
<path d="M544.93 341.849L636.58 341.779L656.93 341.759" stroke="white" stroke-width="0.99" stroke-miterlimit="10"/>
<path d="M656.961 369.157L544.961 369.267" stroke="white" stroke-width="0.99" stroke-miterlimit="10"/>
<path d="M767.877 260.509L656.377 260.624L656.504 379.876L768.004 379.761L767.877 260.509Z" fill="#D3DCE5"/>
<path d="M767.859 277.118L655.859 277.228" stroke="white" stroke-width="0.99" stroke-miterlimit="10"/>
<path d="M655.852 260.978L747.502 260.908L767.852 260.888" stroke="white" stroke-width="0.99" stroke-miterlimit="10"/>
<path d="M767.879 293.358L655.879 293.468" stroke="white" stroke-width="0.99" stroke-miterlimit="10"/>
<path d="M655.859 277.208L732.239 277.148L767.859 277.128" stroke="white" stroke-width="0.99" stroke-miterlimit="10"/>
<path d="M767.9 309.599L655.9 309.709" stroke="white" stroke-width="0.99" stroke-miterlimit="10"/>
<path d="M655.879 293.448L732.259 293.388L767.879 293.368" stroke="white" stroke-width="0.99" stroke-miterlimit="10"/>
<path d="M767.91 325.827L655.91 325.947" stroke="white" stroke-width="0.99" stroke-miterlimit="10"/>
<path d="M655.9 309.689L747.55 309.619L767.9 309.599" stroke="white" stroke-width="0.99" stroke-miterlimit="10"/>
<path d="M767.93 341.647L655.93 341.757" stroke="white" stroke-width="0.99" stroke-miterlimit="10"/>
<path d="M655.91 325.499L767.91 325.419" stroke="white" stroke-width="0.99" stroke-miterlimit="10"/>
<path d="M767.941 357.888L655.941 357.998" stroke="white" stroke-width="0.99" stroke-miterlimit="10"/>
<path d="M655.93 341.737L747.58 341.667L767.93 341.647" stroke="white" stroke-width="0.99" stroke-miterlimit="10"/>
<path d="M767.961 369.048L655.961 369.158" stroke="white" stroke-width="0.99" stroke-miterlimit="10"/>
<path d="M125.629 72.4339L669.629 71.8643L669.619 62.3343L125.619 62.904L125.629 72.4339Z" fill="white" stroke="#959DA8" stroke-width="2" stroke-miterlimit="10"/>
<path d="M579.859 16.7373L215.34 17.1073L127.02 63.6573L665.169 63.1173L668.27 63.1073L579.859 16.7373Z" fill="white" stroke="#959DA8" stroke-width="2" stroke-linecap="round" stroke-linejoin="round"/>
<path d="M669.67 62.2926L125.67 62.8623L125.68 72.3923L669.68 71.8226L669.67 62.2926Z" fill="white" stroke="#959DA8" stroke-width="2" stroke-miterlimit="10"/>
<path d="M417.83 14.8779L486.96 62.598L487.06 177.828L348.86 177.958L348.76 62.728L417.83 14.8779Z" fill="white" stroke="#959DA8" stroke-width="2.21" stroke-miterlimit="10"/>
<path d="M505.659 73.178L487.429 73.198L418.009 16.398L348.699 73.338L330.469 73.358L417.989 1.45801L505.659 73.178Z" fill="white"/>
<path d="M487.429 73.1974L418.009 16.3975L348.699 73.3375" stroke="#959DA8" stroke-miterlimit="10"/>
<path d="M348.699 73.338L330.469 73.358L417.989 1.45801L505.659 73.178L487.429 73.198" stroke="#959DA8" stroke-width="2" stroke-miterlimit="10"/>
<path d="M827.838 232.657L827.828 223.127L77.0596 224.407L71.0326 224.407C70.3695 224.407 69.8322 224.945 69.8326 225.608L69.8381 233.451L827.838 232.657Z" fill="white" stroke="#959DA8" stroke-width="2" stroke-miterlimit="10"/>
<path d="M595.91 224.187L569.76 177.747L156.37 178.157L70.0703 224.717L595.91 224.187Z" fill="white" stroke="#959DA8" stroke-width="2" stroke-miterlimit="10"/>
<path d="M823.771 223.488L487.051 223.828L655.711 123.198L823.771 223.488Z" fill="white" stroke="#959DA8" stroke-width="2" stroke-miterlimit="10"/>
<path d="M486.82 232.827L486.97 379.327" stroke="#959DA8" stroke-width="2" stroke-miterlimit="10"/>
<path d="M309.401 267.558H266.551L266.641 367.648H309.491L309.401 267.558Z" fill="#D3DCE5"/>
<path d="M303.371 273.445L272.641 273.478L272.687 317.808L303.417 317.775L303.371 273.445Z" fill="white" stroke="#959DA8" stroke-miterlimit="10"/>
<path d="M82.5605 382.407L82.4093 233.407H72.5605L72.7118 382.407H82.5605Z" fill="white" stroke="#959DA8" stroke-width="2.29" stroke-miterlimit="10"/>
<path d="M240.92 381.847L240.77 233.077H231L231.15 381.847H240.92Z" fill="white" stroke="#959DA8" stroke-width="2" stroke-miterlimit="10"/>
<path d="M344.92 381.738L344.77 232.968H335L335.15 381.738H344.92Z" fill="white" stroke="#959DA8" stroke-width="2" stroke-miterlimit="10"/>
<path d="M521.817 347.118L514.117 347.126L514.149 377.536L521.849 377.528L521.817 347.118Z" fill="white" stroke="#959DA8" stroke-width="2" stroke-miterlimit="10"/>
<path d="M517.926 305.552C521.904 305.548 525.721 307.124 528.537 309.934C531.353 312.744 532.937 316.558 532.941 320.536L532.97 348.106L502.97 348.137L502.941 320.567C502.937 316.589 504.514 312.772 507.324 309.956C510.134 307.14 513.948 305.556 517.926 305.552Z" fill="#D3DCE5"/>
<path d="M528.276 315.95L507.596 315.972L507.6 320.322L528.28 320.3L528.276 315.95Z" fill="white" stroke="#959DA8" stroke-miterlimit="10"/>
<path d="M512.73 377.537L523.27 377.526C524.452 377.525 525.587 377.994 526.425 378.829C527.262 379.665 527.733 380.799 527.734 381.982L508.274 382.002C508.273 380.819 508.742 379.684 509.577 378.847C510.413 378.01 511.547 377.539 512.73 377.537Z" fill="white" stroke="#959DA8" stroke-width="2" stroke-miterlimit="10"/>
<path d="M507.469 223.487L655.719 136.657L805.309 223.977" stroke="#959DA8" stroke-miterlimit="10"/>
<path d="M274.451 331.536C275.556 331.535 276.451 330.638 276.449 329.534C276.448 328.429 275.552 327.535 274.447 327.536C273.343 327.537 272.448 328.434 272.449 329.538C272.451 330.643 273.347 331.537 274.451 331.536Z" fill="white" stroke="#959DA8" stroke-miterlimit="10"/>
<path d="M392.67 92.5771H362.15L362.21 156.887H392.73L392.67 92.5771Z" fill="white" stroke="#959DA8" stroke-miterlimit="10"/>
<path d="M377.41 92.5889L377.44 118.549" stroke="#959DA8" stroke-miterlimit="10"/>
<path d="M362.211 119.017L392.701 118.987" stroke="#959DA8" stroke-miterlimit="10"/>
<path d="M432.78 92.5381H402.26L402.32 156.848H432.84L432.78 92.5381Z" fill="white" stroke="#959DA8" stroke-miterlimit="10"/>
<path d="M417.52 92.5479L417.54 118.508" stroke="#959DA8" stroke-miterlimit="10"/>
<path d="M402.32 118.978L432.81 118.948" stroke="#959DA8" stroke-miterlimit="10"/>
<path d="M472.891 92.4873H442.371L442.431 156.797H472.951L472.891 92.4873Z" fill="white" stroke="#959DA8" stroke-miterlimit="10"/>
<path d="M457.629 92.5088L457.649 118.469" stroke="#959DA8" stroke-miterlimit="10"/>
<path d="M442.43 118.937L472.92 118.907" stroke="#959DA8" stroke-miterlimit="10"/>
<path d="M203.67 92.7686H173.15L173.21 157.079H203.73L203.67 92.7686Z" fill="white" stroke="#959DA8" stroke-miterlimit="10"/>
<path d="M188.41 92.7783L188.44 118.738" stroke="#959DA8" stroke-miterlimit="10"/>
<path d="M173.211 119.209L203.701 119.179" stroke="#959DA8" stroke-miterlimit="10"/>
<path d="M558.67 92.4072H528.15L528.21 156.717H558.73L558.67 92.4072Z" fill="white" stroke="#959DA8" stroke-miterlimit="10"/>
<path d="M543.41 92.4189L543.44 118.379" stroke="#959DA8" stroke-miterlimit="10"/>
<path d="M528.211 118.847L558.701 118.817" stroke="#959DA8" stroke-miterlimit="10"/>
<path d="M203.85 268.769H173.33L173.39 333.079H203.91L203.85 268.769Z" fill="white" stroke="#959DA8" stroke-miterlimit="10"/>
<path d="M188.59 268.778L188.61 294.738" stroke="#959DA8" stroke-miterlimit="10"/>
<path d="M173.391 295.209L203.881 295.179" stroke="#959DA8" stroke-miterlimit="10"/>
<path d="M307.891 92.6572H277.371L277.431 156.967H307.951L307.891 92.6572Z" fill="white" stroke="#959DA8" stroke-miterlimit="10"/>
<path d="M292.629 92.6689L292.649 118.629" stroke="#959DA8" stroke-miterlimit="10"/>
<path d="M277.43 119.107L307.92 119.077" stroke="#959DA8" stroke-miterlimit="10"/>
<path d="M277.891 92.6885H247.371L247.431 156.998H277.951L277.891 92.6885Z" fill="white" stroke="#959DA8" stroke-miterlimit="10"/>
<path d="M262.629 92.6982L262.649 118.658" stroke="#959DA8" stroke-miterlimit="10"/>
<path d="M247.43 119.138L277.92 119.108" stroke="#959DA8" stroke-miterlimit="10"/>
<path d="M390.85 268.577H360.33L360.39 332.887H390.91L390.85 268.577Z" fill="white" stroke="#959DA8" stroke-miterlimit="10"/>
<path d="M375.59 268.589L375.61 294.549" stroke="#959DA8" stroke-miterlimit="10"/>
<path d="M360.391 295.017L390.881 294.987" stroke="#959DA8" stroke-miterlimit="10"/>
<path d="M430.961 268.538H400.441L400.501 332.848H431.021L430.961 268.538Z" fill="white" stroke="#959DA8" stroke-miterlimit="10"/>
<path d="M415.699 268.548L415.719 294.508" stroke="#959DA8" stroke-miterlimit="10"/>
<path d="M400.5 294.978L430.99 294.948" stroke="#959DA8" stroke-miterlimit="10"/>
<path d="M471.071 268.497H440.551L440.611 332.807H471.131L471.071 268.497Z" fill="white" stroke="#959DA8" stroke-miterlimit="10"/>
<path d="M455.801 268.509L455.831 294.469" stroke="#959DA8" stroke-miterlimit="10"/>
<path d="M440.609 294.937L471.089 294.907" stroke="#959DA8" stroke-miterlimit="10"/>
<path d="M137.891 326.647L185.201 363.137" stroke="#959DA8" stroke-miterlimit="10"/>
<path d="M185.16 326.608L137.93 363.178" stroke="#959DA8" stroke-miterlimit="10"/>
<path d="M189.949 319.615L132.929 319.675C130.726 319.677 128.941 321.463 128.944 323.664C128.946 325.865 130.734 327.647 132.938 327.644L189.958 327.585C192.161 327.582 193.946 325.796 193.944 323.596C193.941 321.395 192.153 319.613 189.949 319.615Z" fill="#D3DCE5"/>
<path d="M91.559 339.877H119.209L110.939 320.087C109.967 317.762 108.329 315.777 106.231 314.382C104.133 312.987 101.669 312.244 99.149 312.247C97.0484 312.249 94.9807 312.77 93.1297 313.763C91.2786 314.756 89.7014 316.191 88.538 317.94C87.3746 319.689 86.661 321.698 86.4606 323.79C86.2601 325.881 86.5791 327.989 87.389 329.927L91.559 339.877Z" fill="#D3DCE5"/>
<path d="M113.66 326.667L117.8 326.497C121.147 326.361 124.458 327.228 127.309 328.987C130.16 330.745 132.42 333.315 133.8 336.367L146.8 365.177" stroke="#959DA8" stroke-miterlimit="10"/>
<path d="M91.9199 339.228L86.1699 365.238" stroke="#959DA8" stroke-miterlimit="10"/>
<path d="M114.921 339.208L109.211 365.208" stroke="#959DA8" stroke-miterlimit="10"/>
<path d="M132.584 339.849L90.6939 339.893L90.6899 336.053L132.58 336.009C133.089 336.008 133.578 336.21 133.938 336.57C134.299 336.929 134.501 337.417 134.502 337.927C134.502 338.179 134.453 338.429 134.357 338.662C134.26 338.895 134.119 339.106 133.941 339.285C133.763 339.463 133.551 339.605 133.319 339.702C133.086 339.798 132.836 339.848 132.584 339.849Z" fill="#D3DCE5"/>
<path d="M86.0098 326.699L91.5298 326.479C94.7006 326.35 97.8376 327.171 100.539 328.837C103.24 330.503 105.382 332.938 106.69 335.829L119.97 365.199" stroke="#959DA8" stroke-miterlimit="10"/>
<path d="M486.984 361.814L82.9844 362.237L83.0053 382.237L487.005 381.814L486.984 361.814Z" fill="white" stroke="#959DA8" stroke-width="2" stroke-miterlimit="10"/>
<path d="M344.561 372.237L231.561 372.337V381.237L344.561 381.137V372.237Z" fill="white" stroke="#959DA8" stroke-width="2" stroke-miterlimit="10"/>
<path d="M344.561 362.237L231.561 362.349V372.237L344.561 372.126V362.237Z" fill="white" stroke="#959DA8" stroke-width="2" stroke-miterlimit="10"/>
<path d="M434.97 379.728C434.972 380.792 434.83 381.851 434.55 382.878L339.7 382.978C339.405 381.951 339.224 380.894 339.16 379.828C338.74 373.288 344.47 367.938 351.03 367.928C352.395 367.928 353.749 368.169 355.03 368.638C354.955 367.974 354.918 367.306 354.92 366.638C354.888 362.145 356.448 357.785 359.325 354.334C362.202 350.882 366.209 348.562 370.634 347.785C375.06 347.008 379.618 347.825 383.498 350.09C387.379 352.355 390.331 355.922 391.83 360.158C393.963 358.236 396.558 356.899 399.361 356.277C402.164 355.655 405.08 355.77 407.826 356.609C410.572 357.449 413.053 358.985 415.029 361.069C417.005 363.152 418.407 365.711 419.1 368.498C420.891 367.855 422.809 367.653 424.694 367.909C426.579 368.165 428.374 368.871 429.928 369.968C431.482 371.065 432.749 372.52 433.621 374.21C434.494 375.9 434.946 377.776 434.94 379.678L434.97 379.728Z" fill="#80C33F"/>
<path d="M841.521 340.473L833.536 332.407L825.57 340.483L825.561 381.407L841.561 381.387L841.521 340.473Z" fill="white" stroke="#959DA8" stroke-width="2" stroke-miterlimit="10"/>
<path d="M857.521 340.464L849.541 332.407L841.58 340.484L841.561 381.407L857.561 381.387L857.521 340.464Z" fill="white" stroke="#959DA8" stroke-width="2" stroke-miterlimit="10"/>
<path d="M873.511 340.464L865.531 332.407L857.57 340.484L857.561 381.407L873.561 381.397L873.511 340.464Z" fill="white" stroke="#959DA8" stroke-width="2" stroke-miterlimit="10"/>
<path d="M890.519 340.473L882.034 332.407L873.571 340.483L873.561 381.407L890.561 381.387L890.519 340.473Z" fill="white" stroke="#959DA8" stroke-width="2" stroke-miterlimit="10"/>
<path d="M906.521 340.464L898.541 332.407L890.58 340.484L890.561 381.407L906.561 381.387L906.521 340.464Z" fill="white" stroke="#959DA8" stroke-width="2" stroke-miterlimit="10"/>
<path d="M922.521 340.464L914.541 332.407L906.57 340.484L906.561 381.407L922.561 381.397L922.521 340.464Z" fill="white" stroke="#959DA8" stroke-width="2" stroke-miterlimit="10"/>
</svg>
