<svg width="1319" height="508" viewBox="0 0 1319 508" fill="none" xmlns="http://www.w3.org/2000/svg">
<path d="M1233 66.561V89.311L1223 86.661L1108 56.191L994 25.981L983 23.061V0.311035L1233 66.561Z" fill="#D3DCE5"/>
<path d="M1223 85.0513V380.801H994V25.3013L995.3 25.6413L1057.6 41.8913L1057.62 41.9013L1119.86 58.1413L1119.89 58.1513L1182.07 74.3713L1182.18 74.4013L1223 85.0513Z" fill="white" stroke="#959DA8" stroke-width="2" stroke-miterlimit="10"/>
<path d="M1223 380.801H994V506.801H1223V380.801Z" fill="white" stroke="#959DA8" stroke-width="1.46" stroke-miterlimit="10"/>
<path d="M1057.62 41.9011H993.449V25.6411H994.299L1056.6 41.8911H1057.6L1057.62 41.9011Z" fill="white" stroke="#959DA8" stroke-miterlimit="10"/>
<path d="M1108 55.3113V58.1413H993.449V41.8813H993.999L1056.6 41.8913H1057.6L1057.62 41.9013H1056.62L1108 55.3113Z" fill="white" stroke="#959DA8" stroke-miterlimit="10"/>
<path d="M1108 58.1506V74.3706H993.449V58.1206L1087.19 58.1406L1108 58.1506Z" fill="white" stroke="#959DA8" stroke-miterlimit="10"/>
<path d="M1071.57 74.3711L1108 74.3811V90.6111H993.449V74.3511L1071.57 74.3711Z" fill="white" stroke="#959DA8" stroke-miterlimit="10"/>
<path d="M1108 90.6203V106.85H993.449V90.5903L1071.57 90.6103L1108 90.6203Z" fill="white" stroke="#959DA8" stroke-miterlimit="10"/>
<path d="M1087.19 106.851H1108V123.091H993.449V106.831H993.999L1087.19 106.851Z" fill="white" stroke="#959DA8" stroke-miterlimit="10"/>
<path d="M993.999 122.641L1108 122.671V138.901H993.449V122.641H993.999Z" fill="white" stroke="#959DA8" stroke-miterlimit="10"/>
<path d="M1108 138.901V155.141H993.449V138.881L1087.19 138.901H1108Z" fill="white" stroke="#959DA8" stroke-miterlimit="10"/>
<path d="M1108 155.142V171.372H993.449V155.122L1087.19 155.142H1108Z" fill="white" stroke="#959DA8" stroke-miterlimit="10"/>
<path d="M1108 171.38V187.61H993.449V171.35L1071.57 171.37L1108 171.38Z" fill="white" stroke="#959DA8" stroke-miterlimit="10"/>
<path d="M1108 187.62V203.85H993.449V187.59L1071.57 187.61L1108 187.62Z" fill="white" stroke="#959DA8" stroke-miterlimit="10"/>
<path d="M1087.19 203.851H1108V220.091H993.449V203.831H993.999L1087.19 203.851Z" fill="white" stroke="#959DA8" stroke-miterlimit="10"/>
<path d="M993.999 219.641L1108 219.671V235.901H993.449V219.641H993.999Z" fill="white" stroke="#959DA8" stroke-miterlimit="10"/>
<path d="M1108 235.901V252.141H993.449V235.881L1087.19 235.901H1108Z" fill="white" stroke="#959DA8" stroke-miterlimit="10"/>
<path d="M1108 252.142V268.372H993.449V252.122L1087.19 252.142H1108Z" fill="white" stroke="#959DA8" stroke-miterlimit="10"/>
<path d="M1108 268.38V284.61H993.449V268.35L1071.57 268.37L1108 268.38Z" fill="white" stroke="#959DA8" stroke-miterlimit="10"/>
<path d="M1108 284.62V300.85H993.449V284.59L1071.57 284.61L1108 284.62Z" fill="white" stroke="#959DA8" stroke-miterlimit="10"/>
<path d="M1108 300.851V317.081L993.449 317.091V300.831L1087.19 300.851H1108Z" fill="white" stroke="#959DA8" stroke-miterlimit="10"/>
<path d="M1108 316.671V332.901H993.449V316.641L1108 316.671Z" fill="white" stroke="#959DA8" stroke-miterlimit="10"/>
<path d="M1108 332.901V349.141H993.449V332.881L1087.19 332.901H1108Z" fill="white" stroke="#959DA8" stroke-miterlimit="10"/>
<path d="M1108 349.142V365.372H993.449V349.122L1087.19 349.142H1108Z" fill="white" stroke="#959DA8" stroke-miterlimit="10"/>
<path d="M1108 365.38V380.8H993.449V365.35L1071.57 365.37L1108 365.38Z" fill="white" stroke="#959DA8" stroke-miterlimit="10"/>
<path d="M1208.46 268.311H1124V379.751H1208.45L1208.46 268.311Z" fill="white" stroke="#959DA8" stroke-width="1.48" stroke-miterlimit="10"/>
<path d="M1179 268.311H1124.49V379.751H1179V268.311Z" fill="white" stroke="#959DA8" stroke-width="1.19" stroke-miterlimit="10"/>
<path d="M1108 54.8013V380.801" stroke="#959DA8" stroke-miterlimit="10"/>
<path d="M1070.49 268.311H1027.49V367.841H1070.49V268.311Z" fill="white" stroke="#959DA8" stroke-miterlimit="10"/>
<path d="M1053.25 267.85V367.38" stroke="#959DA8" stroke-miterlimit="10"/>
<path d="M1070.49 113.311H1027.49V212.841H1070.49V113.311Z" fill="white" stroke="#959DA8" stroke-miterlimit="10"/>
<path d="M1053.25 112.85V212.38" stroke="#959DA8" stroke-miterlimit="10"/>
<path d="M1185 112.801H1142V165.801H1185V112.801Z" fill="white" stroke="#959DA8" stroke-miterlimit="10"/>
<path d="M1168.25 112.85V165.3" stroke="#959DA8" stroke-miterlimit="10"/>
<path d="M1219 397.801H1107.5V506.301H1219V397.801Z" fill="#D3DCE5"/>
<path d="M990 506.801H1223" stroke="#959DA8" stroke-width="1.46" stroke-miterlimit="10"/>
<path d="M1223 85.0513V380.801H994V25.3013L995.3 25.6413L1057.6 41.8913L1057.62 41.9013L1119.86 58.1413L1119.89 58.1513L1182.07 74.3713L1182.18 74.4013L1223 85.0513Z" stroke="#959DA8" stroke-width="2" stroke-miterlimit="10"/>
<path d="M1220.4 325.301V380.801H1210.84L1210.85 325.301H1220.4Z" fill="white" stroke="#959DA8" stroke-miterlimit="10"/>
<path d="M1230.4 325.301H1220.63V380.801H1230.4V325.301Z" fill="white" stroke="#959DA8" stroke-miterlimit="10"/>
<path d="M1120.4 325.301V380.801H1110.84L1110.85 325.301H1120.4Z" fill="white" stroke="#959DA8" stroke-miterlimit="10"/>
<path d="M1110.4 325.301V380.801H1100.84L1100.85 325.301H1110.4Z" fill="white" stroke="#959DA8" stroke-miterlimit="10"/>
<path d="M1130.4 325.301H1120.63V380.801H1130.4V325.301Z" fill="white" stroke="#959DA8" stroke-miterlimit="10"/>
<path d="M1140.4 325.301H1130.63V380.801H1140.4V325.301Z" fill="white" stroke="#959DA8" stroke-miterlimit="10"/>
<path d="M1150.4 325.301H1140.63V380.801H1150.4V325.301Z" fill="white" stroke="#959DA8" stroke-miterlimit="10"/>
<path d="M1160.4 325.301H1150.63V380.801H1160.4V325.301Z" fill="white" stroke="#959DA8" stroke-miterlimit="10"/>
<path d="M1170.4 325.301H1160.63V380.801H1170.4V325.301Z" fill="white" stroke="#959DA8" stroke-miterlimit="10"/>
<path d="M1180.4 325.301H1170.63V380.801H1180.4V325.301Z" fill="white" stroke="#959DA8" stroke-miterlimit="10"/>
<path d="M1190.4 325.301H1180.63V380.801H1190.4V325.301Z" fill="white" stroke="#959DA8" stroke-miterlimit="10"/>
<path d="M1200.4 325.301H1190.63V380.801H1200.4V325.301Z" fill="white" stroke="#959DA8" stroke-miterlimit="10"/>
<path d="M1210.4 325.301H1200.63V380.801H1210.4V325.301Z" fill="white" stroke="#959DA8" stroke-miterlimit="10"/>
<path d="M1230 325.801H1101.27V380.801H1230V325.801Z" stroke="#959DA8" stroke-width="2" stroke-miterlimit="10"/>
<path d="M1219 398.142V414.372H1107V398.122L1198.65 398.142H1219Z" stroke="white" stroke-width="0.99" stroke-miterlimit="10"/>
<path d="M1219 414.38V430.61H1107V414.35L1183.38 414.37L1219 414.38Z" stroke="white" stroke-width="0.99" stroke-miterlimit="10"/>
<path d="M1219 430.62V446.85H1107V430.59L1183.38 430.61L1219 430.62Z" stroke="white" stroke-width="0.99" stroke-miterlimit="10"/>
<path d="M1219 446.851V463.081L1107 463.091V446.831L1198.65 446.851H1219Z" stroke="white" stroke-width="0.99" stroke-miterlimit="10"/>
<path d="M1219 462.671V478.901H1107V462.641L1219 462.671Z" stroke="white" stroke-width="0.99" stroke-miterlimit="10"/>
<path d="M1219 478.901V495.141H1107V478.881L1198.65 478.901H1219Z" stroke="white" stroke-width="0.99" stroke-miterlimit="10"/>
<path d="M1107 507.372V495.122L1198.65 495.142H1219V507.372" stroke="white" stroke-width="0.99" stroke-miterlimit="10"/>
<path d="M1071.32 397.311H1028.47V490.401H1071.32V397.311Z" fill="#D3DCE5"/>
<path d="M1065.25 403.25H1034.52V447.58H1065.25V403.25Z" fill="white" stroke="#959DA8" stroke-miterlimit="10"/>
<path d="M1108 497.17H990.301V506.94H1108V497.17Z" fill="white" stroke="#959DA8" stroke-width="1.46" stroke-miterlimit="10"/>
<path d="M1036.5 455.301C1037.6 455.301 1038.5 454.406 1038.5 453.301C1038.5 452.197 1037.6 451.301 1036.5 451.301C1035.4 451.301 1034.5 452.197 1034.5 453.301C1034.5 454.406 1035.4 455.301 1036.5 455.301Z" fill="white" stroke="#959DA8" stroke-miterlimit="10"/>
<path d="M1108 487.42H990.301V497.19H1108V487.42Z" fill="white" stroke="#959DA8" stroke-width="1.46" stroke-miterlimit="10"/>
<path d="M1004 66.561V89.311L994 86.661L879 56.191L765 25.981L754 23.061V0.311035L1004 66.561Z" fill="#D3DCE5"/>
<path d="M994 85.0513V380.801H765V25.3013L766.3 25.6413L828.6 41.8913L828.62 41.9013L890.86 58.1413L890.89 58.1513L953.07 74.3713L953.18 74.4013L994 85.0513Z" fill="white" stroke="#959DA8" stroke-width="2" stroke-miterlimit="10"/>
<path d="M994 380.801H765V506.801H994V380.801Z" fill="white" stroke="#959DA8" stroke-width="1.46" stroke-miterlimit="10"/>
<path d="M828.619 41.9011H764.449V25.6411H765.299L827.599 41.8911H828.599L828.619 41.9011Z" fill="white" stroke="#959DA8" stroke-miterlimit="10"/>
<path d="M878.999 55.3113V58.1413H764.449V41.8813H764.999L827.599 41.8913H828.599L828.619 41.9013H827.619L878.999 55.3113Z" fill="white" stroke="#959DA8" stroke-miterlimit="10"/>
<path d="M878.999 58.1506V74.3706H764.449V58.1206L858.189 58.1406L878.999 58.1506Z" fill="white" stroke="#959DA8" stroke-miterlimit="10"/>
<path d="M842.569 74.3711L878.999 74.3811V90.6111H764.449V74.3511L842.569 74.3711Z" fill="white" stroke="#959DA8" stroke-miterlimit="10"/>
<path d="M878.999 90.6203V106.85H764.449V90.5903L842.569 90.6103L878.999 90.6203Z" fill="white" stroke="#959DA8" stroke-miterlimit="10"/>
<path d="M858.189 106.851H878.999V123.091H764.449V106.831H764.999L858.189 106.851Z" fill="white" stroke="#959DA8" stroke-miterlimit="10"/>
<path d="M764.999 122.641L878.999 122.671V138.901H764.449V122.641H764.999Z" fill="white" stroke="#959DA8" stroke-miterlimit="10"/>
<path d="M878.999 138.901V155.141H764.449V138.881L858.189 138.901H878.999Z" fill="white" stroke="#959DA8" stroke-miterlimit="10"/>
<path d="M878.999 155.142V171.372H764.449V155.122L858.189 155.142H878.999Z" fill="white" stroke="#959DA8" stroke-miterlimit="10"/>
<path d="M878.999 171.38V187.61H764.449V171.35L842.569 171.37L878.999 171.38Z" fill="white" stroke="#959DA8" stroke-miterlimit="10"/>
<path d="M878.999 187.62V203.85H764.449V187.59L842.569 187.61L878.999 187.62Z" fill="white" stroke="#959DA8" stroke-miterlimit="10"/>
<path d="M858.189 203.851H878.999V220.091H764.449V203.831H764.999L858.189 203.851Z" fill="white" stroke="#959DA8" stroke-miterlimit="10"/>
<path d="M764.999 219.641L878.999 219.671V235.901H764.449V219.641H764.999Z" fill="white" stroke="#959DA8" stroke-miterlimit="10"/>
<path d="M878.999 235.901V252.141H764.449V235.881L858.189 235.901H878.999Z" fill="white" stroke="#959DA8" stroke-miterlimit="10"/>
<path d="M878.999 252.142V268.372H764.449V252.122L858.189 252.142H878.999Z" fill="white" stroke="#959DA8" stroke-miterlimit="10"/>
<path d="M878.999 268.38V284.61H764.449V268.35L842.569 268.37L878.999 268.38Z" fill="white" stroke="#959DA8" stroke-miterlimit="10"/>
<path d="M878.999 284.62V300.85H764.449V284.59L842.569 284.61L878.999 284.62Z" fill="white" stroke="#959DA8" stroke-miterlimit="10"/>
<path d="M878.999 300.851V317.081L764.449 317.091V300.831L858.189 300.851H878.999Z" fill="white" stroke="#959DA8" stroke-miterlimit="10"/>
<path d="M878.999 316.671V332.901H764.449V316.641L878.999 316.671Z" fill="white" stroke="#959DA8" stroke-miterlimit="10"/>
<path d="M878.999 332.901V349.141H764.449V332.881L858.189 332.901H878.999Z" fill="white" stroke="#959DA8" stroke-miterlimit="10"/>
<path d="M878.999 349.142V365.372H764.449V349.122L858.189 349.142H878.999Z" fill="white" stroke="#959DA8" stroke-miterlimit="10"/>
<path d="M878.999 365.38V380.8H764.449V365.35L842.569 365.37L878.999 365.38Z" fill="white" stroke="#959DA8" stroke-miterlimit="10"/>
<path d="M979.46 268.311H895V379.751H979.45L979.46 268.311Z" fill="white" stroke="#959DA8" stroke-width="1.48" stroke-miterlimit="10"/>
<path d="M950 268.311H895.49V379.751H950V268.311Z" fill="white" stroke="#959DA8" stroke-width="1.19" stroke-miterlimit="10"/>
<path d="M879 54.8013V380.801" stroke="#959DA8" stroke-miterlimit="10"/>
<path d="M841.49 268.311H798.49V367.841H841.49V268.311Z" fill="white" stroke="#959DA8" stroke-miterlimit="10"/>
<path d="M824.25 267.85V367.38" stroke="#959DA8" stroke-miterlimit="10"/>
<path d="M841.49 113.311H798.49V212.841H841.49V113.311Z" fill="white" stroke="#959DA8" stroke-miterlimit="10"/>
<path d="M824.25 112.85V212.38" stroke="#959DA8" stroke-miterlimit="10"/>
<path d="M956 112.801H913V165.801H956V112.801Z" fill="white" stroke="#959DA8" stroke-miterlimit="10"/>
<path d="M939.25 112.85V165.3" stroke="#959DA8" stroke-miterlimit="10"/>
<path d="M990 397.801H878.5V506.301H990V397.801Z" fill="#D3DCE5"/>
<path d="M761 506.801H994" stroke="#959DA8" stroke-width="1.46" stroke-miterlimit="10"/>
<path d="M994 85.0513V380.801H765V25.3013L766.3 25.6413L828.6 41.8913L828.62 41.9013L890.86 58.1413L890.89 58.1513L953.07 74.3713L953.18 74.4013L994 85.0513Z" stroke="#959DA8" stroke-width="2" stroke-miterlimit="10"/>
<path d="M990 398.142V414.372H878V398.122L969.65 398.142H990Z" stroke="white" stroke-width="0.99" stroke-miterlimit="10"/>
<path d="M990 414.38V430.61H878V414.35L954.38 414.37L990 414.38Z" stroke="white" stroke-width="0.99" stroke-miterlimit="10"/>
<path d="M990 430.62V446.85H878V430.59L954.38 430.61L990 430.62Z" stroke="white" stroke-width="0.99" stroke-miterlimit="10"/>
<path d="M990 446.851V463.081L878 463.091V446.831L969.65 446.851H990Z" stroke="white" stroke-width="0.99" stroke-miterlimit="10"/>
<path d="M990 462.671V478.901H878V462.641L990 462.671Z" stroke="white" stroke-width="0.99" stroke-miterlimit="10"/>
<path d="M990 478.901V495.141H878V478.881L969.65 478.901H990Z" stroke="white" stroke-width="0.99" stroke-miterlimit="10"/>
<path d="M878 507.372V495.122L969.65 495.142H990V507.372" stroke="white" stroke-width="0.99" stroke-miterlimit="10"/>
<path d="M842.319 397.311H799.469V490.401H842.319V397.311Z" fill="#D3DCE5"/>
<path d="M836.25 403.25H805.52V447.58H836.25V403.25Z" fill="white" stroke="#959DA8" stroke-miterlimit="10"/>
<path d="M879.001 497.17H761.301V506.94H879.001V497.17Z" fill="white" stroke="#959DA8" stroke-width="1.46" stroke-miterlimit="10"/>
<path d="M807.5 455.301C808.605 455.301 809.5 454.406 809.5 453.301C809.5 452.197 808.605 451.301 807.5 451.301C806.395 451.301 805.5 452.197 805.5 453.301C805.5 454.406 806.395 455.301 807.5 455.301Z" fill="white" stroke="#959DA8" stroke-miterlimit="10"/>
<path d="M879.001 487.42H761.301V497.19H879.001V487.42Z" fill="white" stroke="#959DA8" stroke-width="1.46" stroke-miterlimit="10"/>
<path d="M775 66.561V89.311L765 86.661L650 56.191L536 25.981L525 23.061V0.311035L775 66.561Z" fill="#D3DCE5"/>
<path d="M765 85.0513V380.801H536V25.3013L537.3 25.6413L599.6 41.8913L599.62 41.9013L661.86 58.1413L661.89 58.1513L724.07 74.3713L724.18 74.4013L765 85.0513Z" fill="white" stroke="#959DA8" stroke-width="2" stroke-miterlimit="10"/>
<path d="M765 380.801H536V506.801H765V380.801Z" fill="white" stroke="#959DA8" stroke-width="1.46" stroke-miterlimit="10"/>
<path d="M599.619 41.9011H535.449V25.6411H536.299L598.599 41.8911H599.599L599.619 41.9011Z" fill="white" stroke="#959DA8" stroke-miterlimit="10"/>
<path d="M649.999 55.3113V58.1413H535.449V41.8813H535.999L598.599 41.8913H599.599L599.619 41.9013H598.619L649.999 55.3113Z" fill="white" stroke="#959DA8" stroke-miterlimit="10"/>
<path d="M649.999 58.1506V74.3706H535.449V58.1206L629.189 58.1406L649.999 58.1506Z" fill="white" stroke="#959DA8" stroke-miterlimit="10"/>
<path d="M613.569 74.3711L649.999 74.3811V90.6111H535.449V74.3511L613.569 74.3711Z" fill="white" stroke="#959DA8" stroke-miterlimit="10"/>
<path d="M649.999 90.6203V106.85H535.449V90.5903L613.569 90.6103L649.999 90.6203Z" fill="white" stroke="#959DA8" stroke-miterlimit="10"/>
<path d="M629.189 106.851H649.999V123.091H535.449V106.831H535.999L629.189 106.851Z" fill="white" stroke="#959DA8" stroke-miterlimit="10"/>
<path d="M535.999 122.641L649.999 122.671V138.901H535.449V122.641H535.999Z" fill="white" stroke="#959DA8" stroke-miterlimit="10"/>
<path d="M649.999 138.901V155.141H535.449V138.881L629.189 138.901H649.999Z" fill="white" stroke="#959DA8" stroke-miterlimit="10"/>
<path d="M649.999 155.142V171.372H535.449V155.122L629.189 155.142H649.999Z" fill="white" stroke="#959DA8" stroke-miterlimit="10"/>
<path d="M649.999 171.38V187.61H535.449V171.35L613.569 171.37L649.999 171.38Z" fill="white" stroke="#959DA8" stroke-miterlimit="10"/>
<path d="M649.999 187.62V203.85H535.449V187.59L613.569 187.61L649.999 187.62Z" fill="white" stroke="#959DA8" stroke-miterlimit="10"/>
<path d="M629.189 203.851H649.999V220.091H535.449V203.831H535.999L629.189 203.851Z" fill="white" stroke="#959DA8" stroke-miterlimit="10"/>
<path d="M535.999 219.641L649.999 219.671V235.901H535.449V219.641H535.999Z" fill="white" stroke="#959DA8" stroke-miterlimit="10"/>
<path d="M649.999 235.901V252.141H535.449V235.881L629.189 235.901H649.999Z" fill="white" stroke="#959DA8" stroke-miterlimit="10"/>
<path d="M649.999 252.142V268.372H535.449V252.122L629.189 252.142H649.999Z" fill="white" stroke="#959DA8" stroke-miterlimit="10"/>
<path d="M649.999 268.38V284.61H535.449V268.35L613.569 268.37L649.999 268.38Z" fill="white" stroke="#959DA8" stroke-miterlimit="10"/>
<path d="M649.999 284.62V300.85H535.449V284.59L613.569 284.61L649.999 284.62Z" fill="white" stroke="#959DA8" stroke-miterlimit="10"/>
<path d="M649.999 300.851V317.081L535.449 317.091V300.831L629.189 300.851H649.999Z" fill="white" stroke="#959DA8" stroke-miterlimit="10"/>
<path d="M649.999 316.671V332.901H535.449V316.641L649.999 316.671Z" fill="white" stroke="#959DA8" stroke-miterlimit="10"/>
<path d="M649.999 332.901V349.141H535.449V332.881L629.189 332.901H649.999Z" fill="white" stroke="#959DA8" stroke-miterlimit="10"/>
<path d="M649.999 349.142V365.372H535.449V349.122L629.189 349.142H649.999Z" fill="white" stroke="#959DA8" stroke-miterlimit="10"/>
<path d="M649.999 365.38V380.8H535.449V365.35L613.569 365.37L649.999 365.38Z" fill="white" stroke="#959DA8" stroke-miterlimit="10"/>
<path d="M750.46 268.311H666V379.751H750.45L750.46 268.311Z" fill="white" stroke="#959DA8" stroke-width="1.48" stroke-miterlimit="10"/>
<path d="M721 268.311H666.49V379.751H721V268.311Z" fill="white" stroke="#959DA8" stroke-width="1.19" stroke-miterlimit="10"/>
<path d="M650 54.8013V380.801" stroke="#959DA8" stroke-miterlimit="10"/>
<path d="M612.49 268.311H569.49V367.841H612.49V268.311Z" fill="white" stroke="#959DA8" stroke-miterlimit="10"/>
<path d="M595.25 267.85V367.38" stroke="#959DA8" stroke-miterlimit="10"/>
<path d="M612.49 113.311H569.49V212.841H612.49V113.311Z" fill="white" stroke="#959DA8" stroke-miterlimit="10"/>
<path d="M595.25 112.85V212.38" stroke="#959DA8" stroke-miterlimit="10"/>
<path d="M727 112.801H684V165.801H727V112.801Z" fill="white" stroke="#959DA8" stroke-miterlimit="10"/>
<path d="M710.25 112.85V165.3" stroke="#959DA8" stroke-miterlimit="10"/>
<path d="M761 397.801H649.5V506.301H761V397.801Z" fill="#D3DCE5"/>
<path d="M532 506.801H765" stroke="#959DA8" stroke-width="1.46" stroke-miterlimit="10"/>
<path d="M765 85.0513V380.801H536V25.3013L537.3 25.6413L599.6 41.8913L599.62 41.9013L661.86 58.1413L661.89 58.1513L724.07 74.3713L724.18 74.4013L765 85.0513Z" stroke="#959DA8" stroke-width="2" stroke-miterlimit="10"/>
<path d="M761 398.142V414.372H649V398.122L740.65 398.142H761Z" stroke="white" stroke-width="0.99" stroke-miterlimit="10"/>
<path d="M761 414.38V430.61H649V414.35L725.38 414.37L761 414.38Z" stroke="white" stroke-width="0.99" stroke-miterlimit="10"/>
<path d="M761 430.62V446.85H649V430.59L725.38 430.61L761 430.62Z" stroke="white" stroke-width="0.99" stroke-miterlimit="10"/>
<path d="M761 446.851V463.081L649 463.091V446.831L740.65 446.851H761Z" stroke="white" stroke-width="0.99" stroke-miterlimit="10"/>
<path d="M761 462.671V478.901H649V462.641L761 462.671Z" stroke="white" stroke-width="0.99" stroke-miterlimit="10"/>
<path d="M761 478.901V495.141H649V478.881L740.65 478.901H761Z" stroke="white" stroke-width="0.99" stroke-miterlimit="10"/>
<path d="M649 507.372V495.122L740.65 495.142H761V507.372" stroke="white" stroke-width="0.99" stroke-miterlimit="10"/>
<path d="M613.319 397.311H570.469V490.401H613.319V397.311Z" fill="#D3DCE5"/>
<path d="M607.25 403.25H576.52V447.58H607.25V403.25Z" fill="white" stroke="#959DA8" stroke-miterlimit="10"/>
<path d="M650.001 497.17H532.301V506.94H650.001V497.17Z" fill="white" stroke="#959DA8" stroke-width="1.46" stroke-miterlimit="10"/>
<path d="M578.5 455.301C579.605 455.301 580.5 454.406 580.5 453.301C580.5 452.197 579.605 451.301 578.5 451.301C577.395 451.301 576.5 452.197 576.5 453.301C576.5 454.406 577.395 455.301 578.5 455.301Z" fill="white" stroke="#959DA8" stroke-miterlimit="10"/>
<path d="M650.001 487.42H532.301V497.19H650.001V487.42Z" fill="white" stroke="#959DA8" stroke-width="1.46" stroke-miterlimit="10"/>
<path d="M547 66.561V89.311L537 86.661L422 56.191L308 25.981L297 23.061V0.311035L547 66.561Z" fill="#D3DCE5"/>
<path d="M537 85.0513V380.801H308V25.3013L309.3 25.6413L371.6 41.8913L371.62 41.9013L433.86 58.1413L433.89 58.1513L496.07 74.3713L496.18 74.4013L537 85.0513Z" fill="white" stroke="#959DA8" stroke-width="2" stroke-miterlimit="10"/>
<path d="M537 380.801H308V506.801H537V380.801Z" fill="white" stroke="#959DA8" stroke-width="1.46" stroke-miterlimit="10"/>
<path d="M371.619 41.9011H307.449V25.6411H308.299L370.599 41.8911H371.599L371.619 41.9011Z" fill="white" stroke="#959DA8" stroke-miterlimit="10"/>
<path d="M421.999 55.3113V58.1413H307.449V41.8813H307.999L370.599 41.8913H371.599L371.619 41.9013H370.619L421.999 55.3113Z" fill="white" stroke="#959DA8" stroke-miterlimit="10"/>
<path d="M421.999 58.1506V74.3706H307.449V58.1206L401.189 58.1406L421.999 58.1506Z" fill="white" stroke="#959DA8" stroke-miterlimit="10"/>
<path d="M385.569 74.3711L421.999 74.3811V90.6111H307.449V74.3511L385.569 74.3711Z" fill="white" stroke="#959DA8" stroke-miterlimit="10"/>
<path d="M421.999 90.6203V106.85H307.449V90.5903L385.569 90.6103L421.999 90.6203Z" fill="white" stroke="#959DA8" stroke-miterlimit="10"/>
<path d="M401.189 106.851H421.999V123.091H307.449V106.831H307.999L401.189 106.851Z" fill="white" stroke="#959DA8" stroke-miterlimit="10"/>
<path d="M307.999 122.641L421.999 122.671V138.901H307.449V122.641H307.999Z" fill="white" stroke="#959DA8" stroke-miterlimit="10"/>
<path d="M421.999 138.901V155.141H307.449V138.881L401.189 138.901H421.999Z" fill="white" stroke="#959DA8" stroke-miterlimit="10"/>
<path d="M421.999 155.142V171.372H307.449V155.122L401.189 155.142H421.999Z" fill="white" stroke="#959DA8" stroke-miterlimit="10"/>
<path d="M421.999 171.38V187.61H307.449V171.35L385.569 171.37L421.999 171.38Z" fill="white" stroke="#959DA8" stroke-miterlimit="10"/>
<path d="M421.999 187.62V203.85H307.449V187.59L385.569 187.61L421.999 187.62Z" fill="white" stroke="#959DA8" stroke-miterlimit="10"/>
<path d="M401.189 203.851H421.999V220.091H307.449V203.831H307.999L401.189 203.851Z" fill="white" stroke="#959DA8" stroke-miterlimit="10"/>
<path d="M307.999 219.641L421.999 219.671V235.901H307.449V219.641H307.999Z" fill="white" stroke="#959DA8" stroke-miterlimit="10"/>
<path d="M421.999 235.901V252.141H307.449V235.881L401.189 235.901H421.999Z" fill="white" stroke="#959DA8" stroke-miterlimit="10"/>
<path d="M421.999 252.142V268.372H307.449V252.122L401.189 252.142H421.999Z" fill="white" stroke="#959DA8" stroke-miterlimit="10"/>
<path d="M421.999 268.38V284.61H307.449V268.35L385.569 268.37L421.999 268.38Z" fill="white" stroke="#959DA8" stroke-miterlimit="10"/>
<path d="M421.999 284.62V300.85H307.449V284.59L385.569 284.61L421.999 284.62Z" fill="white" stroke="#959DA8" stroke-miterlimit="10"/>
<path d="M421.999 300.851V317.081L307.449 317.091V300.831L401.189 300.851H421.999Z" fill="white" stroke="#959DA8" stroke-miterlimit="10"/>
<path d="M421.999 316.671V332.901H307.449V316.641L421.999 316.671Z" fill="white" stroke="#959DA8" stroke-miterlimit="10"/>
<path d="M421.999 332.901V349.141H307.449V332.881L401.189 332.901H421.999Z" fill="white" stroke="#959DA8" stroke-miterlimit="10"/>
<path d="M421.999 349.142V365.372H307.449V349.122L401.189 349.142H421.999Z" fill="white" stroke="#959DA8" stroke-miterlimit="10"/>
<path d="M421.999 365.38V380.8H307.449V365.35L385.569 365.37L421.999 365.38Z" fill="white" stroke="#959DA8" stroke-miterlimit="10"/>
<path d="M522.46 268.311H438V379.751H522.45L522.46 268.311Z" fill="white" stroke="#959DA8" stroke-width="1.48" stroke-miterlimit="10"/>
<path d="M493 268.311H438.49V379.751H493V268.311Z" fill="white" stroke="#959DA8" stroke-width="1.19" stroke-miterlimit="10"/>
<path d="M422 54.8013V380.801" stroke="#959DA8" stroke-miterlimit="10"/>
<path d="M384.49 268.311H341.49V367.841H384.49V268.311Z" fill="white" stroke="#959DA8" stroke-miterlimit="10"/>
<path d="M367.25 267.85V367.38" stroke="#959DA8" stroke-miterlimit="10"/>
<path d="M384.49 113.311H341.49V212.841H384.49V113.311Z" fill="white" stroke="#959DA8" stroke-miterlimit="10"/>
<path d="M367.25 112.85V212.38" stroke="#959DA8" stroke-miterlimit="10"/>
<path d="M499 112.801H456V165.801H499V112.801Z" fill="white" stroke="#959DA8" stroke-miterlimit="10"/>
<path d="M482.25 112.85V165.3" stroke="#959DA8" stroke-miterlimit="10"/>
<path d="M533 397.801H421.5V506.301H533V397.801Z" fill="#D3DCE5"/>
<path d="M304 506.801H537" stroke="#959DA8" stroke-width="1.46" stroke-miterlimit="10"/>
<path d="M537 85.0513V380.801H308V25.3013L309.3 25.6413L371.6 41.8913L371.62 41.9013L433.86 58.1413L433.89 58.1513L496.07 74.3713L496.18 74.4013L537 85.0513Z" stroke="#959DA8" stroke-width="2" stroke-miterlimit="10"/>
<path d="M534.4 325.301V380.801H524.84L524.85 325.301H534.4Z" fill="white" stroke="#959DA8" stroke-miterlimit="10"/>
<path d="M544.399 325.301H534.629V380.801H544.399V325.301Z" fill="white" stroke="#959DA8" stroke-miterlimit="10"/>
<path d="M434.4 325.301V380.801H424.84L424.85 325.301H434.4Z" fill="white" stroke="#959DA8" stroke-miterlimit="10"/>
<path d="M424.4 325.301V380.801H414.84L414.85 325.301H424.4Z" fill="white" stroke="#959DA8" stroke-miterlimit="10"/>
<path d="M444.399 325.301H434.629V380.801H444.399V325.301Z" fill="white" stroke="#959DA8" stroke-miterlimit="10"/>
<path d="M454.399 325.301H444.629V380.801H454.399V325.301Z" fill="white" stroke="#959DA8" stroke-miterlimit="10"/>
<path d="M464.399 325.301H454.629V380.801H464.399V325.301Z" fill="white" stroke="#959DA8" stroke-miterlimit="10"/>
<path d="M474.399 325.301H464.629V380.801H474.399V325.301Z" fill="white" stroke="#959DA8" stroke-miterlimit="10"/>
<path d="M484.399 325.301H474.629V380.801H484.399V325.301Z" fill="white" stroke="#959DA8" stroke-miterlimit="10"/>
<path d="M494.399 325.301H484.629V380.801H494.399V325.301Z" fill="white" stroke="#959DA8" stroke-miterlimit="10"/>
<path d="M504.399 325.301H494.629V380.801H504.399V325.301Z" fill="white" stroke="#959DA8" stroke-miterlimit="10"/>
<path d="M514.399 325.301H504.629V380.801H514.399V325.301Z" fill="white" stroke="#959DA8" stroke-miterlimit="10"/>
<path d="M524.399 325.301H514.629V380.801H524.399V325.301Z" fill="white" stroke="#959DA8" stroke-miterlimit="10"/>
<path d="M544 325.801H415.27V380.801H544V325.801Z" stroke="#959DA8" stroke-width="2" stroke-miterlimit="10"/>
<path d="M533 398.142V414.372H421V398.122L512.65 398.142H533Z" stroke="white" stroke-width="0.99" stroke-miterlimit="10"/>
<path d="M533 414.38V430.61H421V414.35L497.38 414.37L533 414.38Z" stroke="white" stroke-width="0.99" stroke-miterlimit="10"/>
<path d="M533 430.62V446.85H421V430.59L497.38 430.61L533 430.62Z" stroke="white" stroke-width="0.99" stroke-miterlimit="10"/>
<path d="M533 446.851V463.081L421 463.091V446.831L512.65 446.851H533Z" stroke="white" stroke-width="0.99" stroke-miterlimit="10"/>
<path d="M533 462.671V478.901H421V462.641L533 462.671Z" stroke="white" stroke-width="0.99" stroke-miterlimit="10"/>
<path d="M533 478.901V495.141H421V478.881L512.65 478.901H533Z" stroke="white" stroke-width="0.99" stroke-miterlimit="10"/>
<path d="M421 507.372V495.122L512.65 495.142H533V507.372" stroke="white" stroke-width="0.99" stroke-miterlimit="10"/>
<path d="M385.319 397.311H342.469V490.401H385.319V397.311Z" fill="#D3DCE5"/>
<path d="M379.25 403.25H348.52V447.58H379.25V403.25Z" fill="white" stroke="#959DA8" stroke-miterlimit="10"/>
<path d="M422.001 497.17H304.301V506.94H422.001V497.17Z" fill="white" stroke="#959DA8" stroke-width="1.46" stroke-miterlimit="10"/>
<path d="M350.5 455.301C351.605 455.301 352.5 454.406 352.5 453.301C352.5 452.197 351.605 451.301 350.5 451.301C349.395 451.301 348.5 452.197 348.5 453.301C348.5 454.406 349.395 455.301 350.5 455.301Z" fill="white" stroke="#959DA8" stroke-miterlimit="10"/>
<path d="M422.001 487.42H304.301V497.19H422.001V487.42Z" fill="white" stroke="#959DA8" stroke-width="1.46" stroke-miterlimit="10"/>
<path d="M1206 503.1C1205.99 500.874 1206.52 498.679 1207.54 496.7C1208.56 494.721 1210.04 493.017 1211.85 491.731C1213.67 490.445 1215.77 489.615 1217.97 489.312C1220.18 489.009 1222.42 489.242 1224.52 489.99C1225.33 486.728 1226.97 483.731 1229.28 481.291C1231.59 478.852 1234.5 477.052 1237.71 476.067C1240.93 475.082 1244.34 474.946 1247.62 475.672C1250.9 476.399 1253.94 477.962 1256.44 480.21C1258.2 475.275 1261.65 471.121 1266.18 468.48C1270.71 465.838 1276.02 464.879 1281.19 465.77C1286.35 466.662 1291.04 469.347 1294.41 473.353C1297.79 477.359 1299.65 482.429 1299.66 487.67C1299.66 488.445 1299.62 489.22 1299.54 489.99C1301.05 489.44 1302.64 489.159 1304.24 489.16C1311.94 489.16 1318.64 495.41 1318.15 503.07C1318.08 504.333 1317.87 505.584 1317.52 506.8H1206.52C1206.18 505.585 1206.02 504.33 1206.02 503.07L1206 503.1Z" fill="#80C33F"/>
<path d="M986 341.1C986.009 338.874 985.482 336.679 984.463 334.7C983.444 332.721 981.964 331.017 980.148 329.731C978.331 328.445 976.231 327.615 974.026 327.312C971.821 327.009 969.576 327.242 967.48 327.99C966.669 324.728 965.029 321.731 962.717 319.291C960.405 316.852 957.501 315.052 954.287 314.067C951.073 313.082 947.66 312.946 944.378 313.672C941.096 314.399 938.058 315.962 935.56 318.21C933.795 313.275 930.345 309.121 925.818 306.48C921.292 303.838 915.978 302.879 910.813 303.77C905.649 304.662 900.964 307.347 897.585 311.353C894.205 315.359 892.348 320.429 892.34 325.67C892.337 326.445 892.377 327.22 892.46 327.99C890.954 327.44 889.363 327.159 887.76 327.16C880.06 327.16 873.36 333.41 873.85 341.07C873.92 342.333 874.131 343.584 874.48 344.8H985.48C985.815 343.585 985.983 342.33 985.98 341.07L986 341.1Z" fill="#80C33F"/>
<path d="M635 468.562C635.45 468.565 635.9 468.518 636.34 468.422C656.82 463.762 656.83 438.952 656.83 438.952C656.83 405.142 635.01 388.192 635.01 388.192C635.01 388.192 613.18 405.102 613.18 438.952C613.18 438.952 613.18 463.792 633.66 468.422C634.1 468.518 634.549 468.565 635 468.562Z" fill="#80C33F"/>
<path d="M635 421.551V505.941" stroke="#2A3A51" stroke-linecap="round" stroke-linejoin="round"/>
<path d="M1021.75 447.531C1022.38 444.385 1022.35 441.144 1021.66 438.011C1020.99 434.909 1019.67 431.985 1017.78 429.431C1015.95 426.939 1013.58 424.889 1010.85 423.431C1008.19 422.006 1005.22 421.229 1002.2 421.165C999.178 421.101 996.184 421.75 993.461 423.061C990.684 424.399 988.244 426.343 986.321 428.751C984.344 431.222 982.916 434.086 982.131 437.151C981.33 440.257 981.18 443.495 981.691 446.661C979.431 447.843 977.458 449.505 975.911 451.531C974.322 453.607 973.181 455.991 972.561 458.531C971.927 461.099 971.818 463.769 972.241 466.381C972.658 468.973 973.605 471.451 975.021 473.661C976.398 475.82 978.227 477.655 980.381 479.041C982.493 480.396 984.888 481.251 987.381 481.541C989.85 481.826 992.351 481.539 994.691 480.701C997.067 479.852 999.226 478.486 1001.01 476.701C1002.74 478.461 1004.83 479.825 1007.13 480.701C1009.39 481.56 1011.82 481.902 1014.23 481.701C1016.65 481.48 1018.99 480.725 1021.08 479.491C1023.22 478.225 1025.07 476.521 1026.5 474.491C1027.97 472.412 1029.01 470.059 1029.55 467.571C1030.1 465.059 1030.16 462.464 1029.71 459.931C1029.27 457.417 1028.33 455.016 1026.95 452.871C1025.61 450.743 1023.84 448.923 1021.75 447.531Z" fill="#80C33F"/>
<path d="M1001.79 466.591L992.379 459.891" stroke="#2A3A51" stroke-linecap="round" stroke-linejoin="round"/>
<path d="M1001.79 474.961L1012.79 464.961" stroke="#2A3A51" stroke-linecap="round" stroke-linejoin="round"/>
<path d="M1001.79 446.481V506.801" stroke="#2A3A51" stroke-linecap="round" stroke-linejoin="round"/>
<path d="M677.999 343.06C678.392 343.063 678.785 343.023 679.169 342.94C697.169 338.85 697.169 317.13 697.169 317.13C697.328 303.874 693.118 290.935 685.189 280.31C684.35 279.2 683.265 278.3 682.019 277.68C680.773 277.059 679.401 276.737 678.009 276.737C676.618 276.737 675.245 277.059 673.999 277.68C672.753 278.3 671.668 279.2 670.829 280.31C662.922 290.925 658.723 303.845 658.879 317.08C658.879 317.08 658.879 338.85 676.819 342.9C677.204 342.983 677.596 343.023 677.989 343.02L677.999 343.06Z" fill="#80C33F"/>
<path d="M678 301.862V375.802" stroke="#2A3A51" stroke-linecap="round" stroke-linejoin="round"/>
<path d="M762.4 325.301V380.801H752.84L752.85 325.301H762.4Z" fill="white" stroke="#959DA8" stroke-miterlimit="10"/>
<path d="M772.399 325.301H762.629V380.801H772.399V325.301Z" fill="white" stroke="#959DA8" stroke-miterlimit="10"/>
<path d="M662.4 325.301V380.801H652.84L652.85 325.301H662.4Z" fill="white" stroke="#959DA8" stroke-miterlimit="10"/>
<path d="M652.4 325.301V380.801H642.84L642.85 325.301H652.4Z" fill="white" stroke="#959DA8" stroke-miterlimit="10"/>
<path d="M672.399 325.301H662.629V380.801H672.399V325.301Z" fill="white" stroke="#959DA8" stroke-miterlimit="10"/>
<path d="M682.399 325.301H672.629V380.801H682.399V325.301Z" fill="white" stroke="#959DA8" stroke-miterlimit="10"/>
<path d="M692.399 325.301H682.629V380.801H692.399V325.301Z" fill="white" stroke="#959DA8" stroke-miterlimit="10"/>
<path d="M702.399 325.301H692.629V380.801H702.399V325.301Z" fill="white" stroke="#959DA8" stroke-miterlimit="10"/>
<path d="M712.399 325.301H702.629V380.801H712.399V325.301Z" fill="white" stroke="#959DA8" stroke-miterlimit="10"/>
<path d="M722.399 325.301H712.629V380.801H722.399V325.301Z" fill="white" stroke="#959DA8" stroke-miterlimit="10"/>
<path d="M732.399 325.301H722.629V380.801H732.399V325.301Z" fill="white" stroke="#959DA8" stroke-miterlimit="10"/>
<path d="M742.399 325.301H732.629V380.801H742.399V325.301Z" fill="white" stroke="#959DA8" stroke-miterlimit="10"/>
<path d="M752.399 325.301H742.629V380.801H752.399V325.301Z" fill="white" stroke="#959DA8" stroke-miterlimit="10"/>
<path d="M772 325.801H643.27V380.801H772V325.801Z" stroke="#959DA8" stroke-width="2" stroke-miterlimit="10"/>
<path d="M318 66.561V89.311L308 86.661L193 56.191L79 25.981L68 23.061V0.311035L318 66.561Z" fill="#D3DCE5"/>
<path d="M308 85.0513V380.801H79V25.3013L80.3 25.6413L142.6 41.8913L142.62 41.9013L204.86 58.1413L204.89 58.1513L267.07 74.3713L267.18 74.4013L308 85.0513Z" fill="white" stroke="#959DA8" stroke-width="2" stroke-miterlimit="10"/>
<path d="M308 380.801H79V506.801H308V380.801Z" fill="white" stroke="#959DA8" stroke-width="1.46" stroke-miterlimit="10"/>
<path d="M142.619 41.9011H78.4492V25.6411H79.2992L141.599 41.8911H142.599L142.619 41.9011Z" fill="white" stroke="#959DA8" stroke-miterlimit="10"/>
<path d="M192.999 55.3113V58.1413H78.4492V41.8813H78.9992L141.599 41.8913H142.599L142.619 41.9013H141.619L192.999 55.3113Z" fill="white" stroke="#959DA8" stroke-miterlimit="10"/>
<path d="M192.999 58.1506V74.3706H78.4492V58.1206L172.189 58.1406L192.999 58.1506Z" fill="white" stroke="#959DA8" stroke-miterlimit="10"/>
<path d="M156.569 74.3711L192.999 74.3811V90.6111H78.4492V74.3511L156.569 74.3711Z" fill="white" stroke="#959DA8" stroke-miterlimit="10"/>
<path d="M192.999 90.6203V106.85H78.4492V90.5903L156.569 90.6103L192.999 90.6203Z" fill="white" stroke="#959DA8" stroke-miterlimit="10"/>
<path d="M172.189 106.851H192.999V123.091H78.4492V106.831H78.9992L172.189 106.851Z" fill="white" stroke="#959DA8" stroke-miterlimit="10"/>
<path d="M78.9992 122.641L192.999 122.671V138.901H78.4492V122.641H78.9992Z" fill="white" stroke="#959DA8" stroke-miterlimit="10"/>
<path d="M192.999 138.901V155.141H78.4492V138.881L172.189 138.901H192.999Z" fill="white" stroke="#959DA8" stroke-miterlimit="10"/>
<path d="M192.999 155.142V171.372H78.4492V155.122L172.189 155.142H192.999Z" fill="white" stroke="#959DA8" stroke-miterlimit="10"/>
<path d="M192.999 171.38V187.61H78.4492V171.35L156.569 171.37L192.999 171.38Z" fill="white" stroke="#959DA8" stroke-miterlimit="10"/>
<path d="M192.999 187.62V203.85H78.4492V187.59L156.569 187.61L192.999 187.62Z" fill="white" stroke="#959DA8" stroke-miterlimit="10"/>
<path d="M172.189 203.851H192.999V220.091H78.4492V203.831H78.9992L172.189 203.851Z" fill="white" stroke="#959DA8" stroke-miterlimit="10"/>
<path d="M78.9992 219.641L192.999 219.671V235.901H78.4492V219.641H78.9992Z" fill="white" stroke="#959DA8" stroke-miterlimit="10"/>
<path d="M192.999 235.901V252.141H78.4492V235.881L172.189 235.901H192.999Z" fill="white" stroke="#959DA8" stroke-miterlimit="10"/>
<path d="M192.999 252.142V268.372H78.4492V252.122L172.189 252.142H192.999Z" fill="white" stroke="#959DA8" stroke-miterlimit="10"/>
<path d="M192.999 268.38V284.61H78.4492V268.35L156.569 268.37L192.999 268.38Z" fill="white" stroke="#959DA8" stroke-miterlimit="10"/>
<path d="M192.999 284.62V300.85H78.4492V284.59L156.569 284.61L192.999 284.62Z" fill="white" stroke="#959DA8" stroke-miterlimit="10"/>
<path d="M192.999 300.851V317.081L78.4492 317.091V300.831L172.189 300.851H192.999Z" fill="white" stroke="#959DA8" stroke-miterlimit="10"/>
<path d="M192.999 316.671V332.901H78.4492V316.641L192.999 316.671Z" fill="white" stroke="#959DA8" stroke-miterlimit="10"/>
<path d="M192.999 332.901V349.141H78.4492V332.881L172.189 332.901H192.999Z" fill="white" stroke="#959DA8" stroke-miterlimit="10"/>
<path d="M192.999 349.142V365.372H78.4492V349.122L172.189 349.142H192.999Z" fill="white" stroke="#959DA8" stroke-miterlimit="10"/>
<path d="M192.999 365.38V380.8H78.4492V365.35L156.569 365.37L192.999 365.38Z" fill="white" stroke="#959DA8" stroke-miterlimit="10"/>
<path d="M293.46 268.311H209V379.751H293.45L293.46 268.311Z" fill="white" stroke="#959DA8" stroke-width="1.48" stroke-miterlimit="10"/>
<path d="M264 268.311H209.49V379.751H264V268.311Z" fill="white" stroke="#959DA8" stroke-width="1.19" stroke-miterlimit="10"/>
<path d="M193 54.8013V380.801" stroke="#959DA8" stroke-miterlimit="10"/>
<path d="M155.49 268.311H112.49V367.841H155.49V268.311Z" fill="white" stroke="#959DA8" stroke-miterlimit="10"/>
<path d="M138.25 267.85V367.38" stroke="#959DA8" stroke-miterlimit="10"/>
<path d="M155.49 113.311H112.49V212.841H155.49V113.311Z" fill="white" stroke="#959DA8" stroke-miterlimit="10"/>
<path d="M138.25 112.85V212.38" stroke="#959DA8" stroke-miterlimit="10"/>
<path d="M270 112.801H227V165.801H270V112.801Z" fill="white" stroke="#959DA8" stroke-miterlimit="10"/>
<path d="M253.25 112.85V165.3" stroke="#959DA8" stroke-miterlimit="10"/>
<path d="M304 397.801H192.5V506.301H304V397.801Z" fill="#D3DCE5"/>
<path d="M75 506.801H308" stroke="#959DA8" stroke-width="1.46" stroke-miterlimit="10"/>
<path d="M308 85.0513V380.801H79V25.3013L80.3 25.6413L142.6 41.8913L142.62 41.9013L204.86 58.1413L204.89 58.1513L267.07 74.3713L267.18 74.4013L308 85.0513Z" stroke="#959DA8" stroke-width="2" stroke-miterlimit="10"/>
<path d="M304 398.142V414.372H192V398.122L283.65 398.142H304Z" stroke="white" stroke-width="0.99" stroke-miterlimit="10"/>
<path d="M304 414.38V430.61H192V414.35L268.38 414.37L304 414.38Z" stroke="white" stroke-width="0.99" stroke-miterlimit="10"/>
<path d="M304 430.62V446.85H192V430.59L268.38 430.61L304 430.62Z" stroke="white" stroke-width="0.99" stroke-miterlimit="10"/>
<path d="M304 446.851V463.081L192 463.091V446.831L283.65 446.851H304Z" stroke="white" stroke-width="0.99" stroke-miterlimit="10"/>
<path d="M304 462.671V478.901H192V462.641L304 462.671Z" stroke="white" stroke-width="0.99" stroke-miterlimit="10"/>
<path d="M304 478.901V495.141H192V478.881L283.65 478.901H304Z" stroke="white" stroke-width="0.99" stroke-miterlimit="10"/>
<path d="M192 507.372V495.122L283.65 495.142H304V507.372" stroke="white" stroke-width="0.99" stroke-miterlimit="10"/>
<path d="M156.319 397.311H113.469V490.401H156.319V397.311Z" fill="#D3DCE5"/>
<path d="M150.25 403.25H119.52V447.58H150.25V403.25Z" fill="white" stroke="#959DA8" stroke-miterlimit="10"/>
<path d="M193.001 497.17H75.3008V506.94H193.001V497.17Z" fill="white" stroke="#959DA8" stroke-width="1.46" stroke-miterlimit="10"/>
<path d="M121.5 455.301C122.605 455.301 123.5 454.406 123.5 453.301C123.5 452.197 122.605 451.301 121.5 451.301C120.395 451.301 119.5 452.197 119.5 453.301C119.5 454.406 120.395 455.301 121.5 455.301Z" fill="white" stroke="#959DA8" stroke-miterlimit="10"/>
<path d="M193.001 487.42H75.3008V497.19H193.001V487.42Z" fill="white" stroke="#959DA8" stroke-width="1.46" stroke-miterlimit="10"/>
<path d="M0.0001169 503.1C-0.00902366 500.874 0.517995 498.679 1.5366 496.7C2.5552 494.721 4.03542 493.017 5.85207 491.731C7.66871 490.445 9.76835 489.615 11.9734 489.312C14.1784 489.009 16.424 489.242 18.5201 489.99C19.3302 486.728 20.971 483.731 23.2828 481.291C25.5946 478.852 28.4987 477.052 31.7124 476.067C34.9261 475.082 38.34 474.946 41.6219 475.672C44.9037 476.399 47.9417 477.962 50.4401 480.21C52.205 475.275 55.6545 471.121 60.1813 468.48C64.708 465.838 70.0216 464.879 75.1863 465.77C80.3511 466.662 85.0356 469.347 88.4149 473.353C91.7943 477.359 93.6517 482.429 93.6601 487.67C93.663 488.445 93.6229 489.22 93.5401 489.99C95.046 489.44 96.6369 489.159 98.2401 489.16C105.94 489.16 112.64 495.41 112.15 503.07C112.08 504.333 111.868 505.584 111.52 506.8H0.500117C0.164885 505.585 -0.00332698 504.33 0.0001169 503.07V503.1Z" fill="#80C33F"/>
<path d="M204 344.1C203.991 341.874 204.518 339.679 205.537 337.7C206.555 335.721 208.035 334.017 209.852 332.731C211.669 331.445 213.768 330.615 215.973 330.312C218.178 330.009 220.424 330.242 222.52 330.99C223.33 327.728 224.971 324.731 227.283 322.291C229.595 319.852 232.499 318.052 235.712 317.067C238.926 316.082 242.34 315.946 245.622 316.672C248.904 317.399 251.942 318.962 254.44 321.21C256.205 316.275 259.655 312.121 264.181 309.48C268.708 306.838 274.022 305.879 279.186 306.77C284.351 307.662 289.036 310.347 292.415 314.353C295.794 318.359 297.652 323.429 297.66 328.67C297.663 329.445 297.623 330.22 297.54 330.99C299.046 330.44 300.637 330.159 302.24 330.16C309.94 330.16 316.64 336.41 316.15 344.07C316.08 345.333 315.868 346.584 315.52 347.8H204.52C204.185 346.585 204.017 345.33 204.02 344.07L204 344.1Z" fill="#80C33F"/>
<path d="M305.4 325.301V380.801H295.84L295.85 325.301H305.4Z" fill="white" stroke="#959DA8" stroke-miterlimit="10"/>
<path d="M315.399 325.301H305.629V380.801H315.399V325.301Z" fill="white" stroke="#959DA8" stroke-miterlimit="10"/>
<path d="M205.4 325.301V380.801H195.84L195.85 325.301H205.4Z" fill="white" stroke="#959DA8" stroke-miterlimit="10"/>
<path d="M195.4 325.301V380.801H185.84L185.85 325.301H195.4Z" fill="white" stroke="#959DA8" stroke-miterlimit="10"/>
<path d="M215.399 325.301H205.629V380.801H215.399V325.301Z" fill="white" stroke="#959DA8" stroke-miterlimit="10"/>
<path d="M225.399 325.301H215.629V380.801H225.399V325.301Z" fill="white" stroke="#959DA8" stroke-miterlimit="10"/>
<path d="M235.399 325.301H225.629V380.801H235.399V325.301Z" fill="white" stroke="#959DA8" stroke-miterlimit="10"/>
<path d="M245.399 325.301H235.629V380.801H245.399V325.301Z" fill="white" stroke="#959DA8" stroke-miterlimit="10"/>
<path d="M255.399 325.301H245.629V380.801H255.399V325.301Z" fill="white" stroke="#959DA8" stroke-miterlimit="10"/>
<path d="M265.399 325.301H255.629V380.801H265.399V325.301Z" fill="white" stroke="#959DA8" stroke-miterlimit="10"/>
<path d="M275.399 325.301H265.629V380.801H275.399V325.301Z" fill="white" stroke="#959DA8" stroke-miterlimit="10"/>
<path d="M285.399 325.301H275.629V380.801H285.399V325.301Z" fill="white" stroke="#959DA8" stroke-miterlimit="10"/>
<path d="M295.399 325.301H285.629V380.801H295.399V325.301Z" fill="white" stroke="#959DA8" stroke-miterlimit="10"/>
<path d="M315 325.801H186.27V380.801H315V325.801Z" stroke="#959DA8" stroke-width="2" stroke-miterlimit="10"/>
<path d="M991.4 325.301V380.801H981.84L981.85 325.301H991.4Z" fill="white" stroke="#959DA8" stroke-miterlimit="10"/>
<path d="M1001.4 325.301H991.629V380.801H1001.4V325.301Z" fill="white" stroke="#959DA8" stroke-miterlimit="10"/>
<path d="M891.4 325.301V380.801H881.84L881.85 325.301H891.4Z" fill="white" stroke="#959DA8" stroke-miterlimit="10"/>
<path d="M881.4 325.301V380.801H871.84L871.85 325.301H881.4Z" fill="white" stroke="#959DA8" stroke-miterlimit="10"/>
<path d="M901.399 325.301H891.629V380.801H901.399V325.301Z" fill="white" stroke="#959DA8" stroke-miterlimit="10"/>
<path d="M911.399 325.301H901.629V380.801H911.399V325.301Z" fill="white" stroke="#959DA8" stroke-miterlimit="10"/>
<path d="M921.399 325.301H911.629V380.801H921.399V325.301Z" fill="white" stroke="#959DA8" stroke-miterlimit="10"/>
<path d="M931.399 325.301H921.629V380.801H931.399V325.301Z" fill="white" stroke="#959DA8" stroke-miterlimit="10"/>
<path d="M941.399 325.301H931.629V380.801H941.399V325.301Z" fill="white" stroke="#959DA8" stroke-miterlimit="10"/>
<path d="M951.399 325.301H941.629V380.801H951.399V325.301Z" fill="white" stroke="#959DA8" stroke-miterlimit="10"/>
<path d="M961.399 325.301H951.629V380.801H961.399V325.301Z" fill="white" stroke="#959DA8" stroke-miterlimit="10"/>
<path d="M971.399 325.301H961.629V380.801H971.399V325.301Z" fill="white" stroke="#959DA8" stroke-miterlimit="10"/>
<path d="M981.399 325.301H971.629V380.801H981.399V325.301Z" fill="white" stroke="#959DA8" stroke-miterlimit="10"/>
<path d="M1001 325.801H872.27V380.801H1001V325.801Z" stroke="#959DA8" stroke-width="2" stroke-miterlimit="10"/>
</svg>
