<svg width="1014" height="420" viewBox="0 0 1014 420" fill="none" xmlns="http://www.w3.org/2000/svg">
<path d="M492.82 280.171L939.58 280.171V121.671L492.82 121.671V280.171Z" fill="white" stroke="#959DA8" stroke-width="2" stroke-miterlimit="10"/>
<path d="M1005.57 358.902C1006.2 355.756 1006.17 352.515 1005.48 349.382C1004.81 346.28 1003.49 343.356 1001.6 340.802C999.768 338.309 997.4 336.259 994.671 334.802C992.006 333.376 989.042 332.6 986.02 332.536C982.999 332.471 980.004 333.121 977.281 334.432C974.505 335.769 972.065 337.714 970.141 340.122C968.165 342.593 966.736 345.456 965.951 348.522C965.15 351.628 965.001 354.865 965.511 358.032C963.252 359.213 961.279 360.876 959.731 362.902C958.142 364.978 957.002 367.362 956.381 369.902C955.747 372.47 955.638 375.14 956.061 377.752C956.479 380.343 957.425 382.821 958.841 385.032C960.219 387.191 962.047 389.026 964.201 390.412C966.314 391.767 968.708 392.622 971.201 392.912C973.67 393.197 976.171 392.909 978.511 392.072C980.888 391.223 983.046 389.856 984.831 388.072C986.558 389.831 988.646 391.196 990.951 392.072C993.213 392.931 995.639 393.273 998.051 393.072C1000.47 392.85 1002.81 392.096 1004.9 390.862C1007.04 389.596 1008.89 387.892 1010.32 385.862C1011.79 383.783 1012.83 381.429 1013.37 378.942C1013.92 376.43 1013.98 373.834 1013.53 371.302C1013.09 368.788 1012.15 366.387 1010.77 364.242C1009.43 362.114 1007.66 360.294 1005.57 358.902Z" fill="#80C33F"/>
<path d="M985.611 377.96L976.201 371.26" stroke="#2A3A51" stroke-linecap="round" stroke-linejoin="round"/>
<path d="M985.611 386.33L996.611 376.33" stroke="#2A3A51" stroke-linecap="round" stroke-linejoin="round"/>
<path d="M985.611 357.852V418.172" stroke="#2A3A51" stroke-linecap="round" stroke-linejoin="round"/>
<path d="M492.82 418.171L939.58 418.171V280.171L492.82 280.171V418.171Z" fill="white" stroke="#959DA8" stroke-width="2" stroke-miterlimit="10"/>
<path d="M744.5 308.681H787.35V401.771H744.5V308.681Z" fill="#D3DCE5"/>
<path d="M750.571 358.951H781.301V314.621H750.571V358.951Z" fill="white" stroke="#959DA8" stroke-miterlimit="10"/>
<path d="M802.529 279.171H810.419V399.171H802.529V279.171Z" fill="white" stroke="#959DA8" stroke-width="2" stroke-miterlimit="10"/>
<path d="M692.529 279.171H700.419V418.171H692.529V279.171Z" fill="white" stroke="#959DA8" stroke-width="2" stroke-miterlimit="10"/>
<path d="M722.529 279.171H730.419V417.171H722.529V279.171Z" fill="white" stroke="#959DA8" stroke-width="2" stroke-miterlimit="10"/>
<path d="M604.82 408.541H825.52V418.311H604.82V408.541Z" fill="white" stroke="#959DA8" stroke-width="2" stroke-miterlimit="10"/>
<path d="M779.32 366.671C780.425 366.671 781.32 365.775 781.32 364.671C781.32 363.566 780.425 362.671 779.32 362.671C778.216 362.671 777.32 363.566 777.32 364.671C777.32 365.775 778.216 366.671 779.32 366.671Z" fill="white" stroke="#959DA8" stroke-miterlimit="10"/>
<path d="M677.36 308.681H634.51V401.771H677.36V308.681Z" fill="#D3DCE5"/>
<path d="M671.291 314.621H640.561V358.951H671.291V314.621Z" fill="white" stroke="#959DA8" stroke-miterlimit="10"/>
<path d="M642.539 366.671C643.644 366.671 644.539 365.775 644.539 364.671C644.539 363.566 643.644 362.671 642.539 362.671C641.434 362.671 640.539 363.566 640.539 364.671C640.539 365.775 641.434 366.671 642.539 366.671Z" fill="white" stroke="#959DA8" stroke-miterlimit="10"/>
<path d="M604.82 398.791H825.52V408.561H604.82V398.791Z" fill="white" stroke="#959DA8" stroke-width="2" stroke-miterlimit="10"/>
<path d="M492.82 121.171H939.58L927.58 22.1708H492.82V121.171Z" fill="#D3DCE5"/>
<path d="M826.079 20.7708L710.359 122.171H939.079" fill="white"/>
<path d="M928.169 121.941H723.779L734.709 112.191H916.049L928.169 121.941Z" fill="white" stroke="#959DA8" stroke-miterlimit="10"/>
<path d="M723.87 121.791H710.75L825.47 21.3907L940.15 121.791H927.03" stroke="#959DA8" stroke-width="2" stroke-miterlimit="10"/>
<path d="M927.029 121.791L916.209 112.401L909.579 106.651L905.929 103.491L904.989 102.671L899.579 97.9808L894.609 93.6708L893.029 92.2908L884.579 84.9608L883.089 83.6708L880.009 81.0008L871.559 73.6708L871.459 73.5908L865.579 68.4808L860.029 63.6708L859.189 62.9408L851.579 56.3408L848.499 53.6708L845.809 51.3308L836.979 43.6708L836.919 43.6208L832.759 40.0108L832.459 39.7508L825.449 33.6708L822.579 36.1608L814.849 42.8608L813.919 43.6708L806.739 49.9008L802.399 53.6708L801.579 54.3808L792.829 61.9708L790.869 63.6708L785.579 68.2608L779.339 73.6708L771.079 80.8408L767.809 83.6708L764.579 86.4708L756.289 93.6708L749.649 99.4308L745.909 102.671L739.609 108.141L739.549 108.181V108.191L734.399 112.661L723.869 121.791" stroke="#959DA8" stroke-miterlimit="10"/>
<path d="M937.821 265.061L903.881 237.171H765.381L720.881 264.671L937.821 265.061Z" fill="#D3DCE5"/>
<path d="M806.22 94.2507H843.01V61.7407L806.22 61.7407V94.2507Z" fill="white" stroke="#959DA8" stroke-miterlimit="10"/>
<path d="M812.64 67.8607H836.82V88.3007H812.6L812.64 67.8607Z" fill="white" stroke="#959DA8" stroke-miterlimit="10"/>
<path d="M711.76 280.061L665.82 252.171H537.32L492.82 279.671L711.76 280.061Z" fill="#D3DCE5"/>
<path d="M720.82 266.171V254.681L766.82 237.171L813.54 255.681L813.82 266.171H767.82H720.82Z" fill="white"/>
<path d="M819.32 384.671H862.32V308.671H819.32V384.671Z" fill="white" stroke="#959DA8" stroke-miterlimit="10"/>
<path d="M862.32 384.671H905.32V308.671H862.32V384.671Z" fill="white" stroke="#959DA8" stroke-miterlimit="10"/>
<path d="M905.32 333.171H819.82" stroke="#959DA8" stroke-miterlimit="10"/>
<path d="M848.82 308.671V333.171" stroke="#959DA8" stroke-miterlimit="10"/>
<path d="M834.82 308.671V333.171" stroke="#959DA8" stroke-miterlimit="10"/>
<path d="M890.82 308.671V333.171" stroke="#959DA8" stroke-miterlimit="10"/>
<path d="M876.82 308.671V333.171" stroke="#959DA8" stroke-miterlimit="10"/>
<path d="M518.32 384.671H561.32V308.671H518.32V384.671Z" fill="white" stroke="#959DA8" stroke-miterlimit="10"/>
<path d="M561.32 384.671H604.32V308.671H561.32V384.671Z" fill="white" stroke="#959DA8" stroke-miterlimit="10"/>
<path d="M604.32 333.171H518.82" stroke="#959DA8" stroke-miterlimit="10"/>
<path d="M547.82 308.671V333.171" stroke="#959DA8" stroke-miterlimit="10"/>
<path d="M533.82 308.671V333.171" stroke="#959DA8" stroke-miterlimit="10"/>
<path d="M589.82 308.671V333.171" stroke="#959DA8" stroke-miterlimit="10"/>
<path d="M575.82 308.671V333.171" stroke="#959DA8" stroke-miterlimit="10"/>
<path d="M711.32 123.171V400.171" stroke="#959DA8" stroke-width="2" stroke-miterlimit="10"/>
<path d="M597.079 1.77075L521.359 58.1708H672.079" fill="white"/>
<path d="M537.87 57.7907H520.75L596.47 1.39075L672.15 57.7907H656.03" stroke="#959DA8" stroke-width="2" stroke-miterlimit="10"/>
<path d="M549.711 48.1908H643.321" stroke="#959DA8" stroke-miterlimit="10"/>
<path d="M657.32 57.6708L596.32 15.6708L536.32 57.6708" stroke="#959DA8" stroke-miterlimit="10"/>
<path d="M537.32 106.671L656.32 106.671V57.6708L537.32 57.6708V106.671Z" fill="white" stroke="#959DA8" stroke-width="2" stroke-miterlimit="10"/>
<path d="M607.22 98.2507H644.01V65.7407H607.22V98.2507Z" fill="white" stroke="#959DA8" stroke-miterlimit="10"/>
<path d="M613.64 71.8607H637.82V92.3007H613.6L613.64 71.8607Z" fill="white" stroke="#959DA8" stroke-miterlimit="10"/>
<path d="M549.22 98.2507H586.01V65.7407H549.22V98.2507Z" fill="white" stroke="#959DA8" stroke-miterlimit="10"/>
<path d="M555.64 71.8607H579.82V92.3007H555.6L555.64 71.8607Z" fill="white" stroke="#959DA8" stroke-miterlimit="10"/>
<path d="M518.32 58.6708L674.32 58.6708V48.6708L518.32 48.6708V58.6708Z" fill="white" stroke="#959DA8" stroke-width="1.19" stroke-miterlimit="10"/>
<path d="M708.32 122.671L942.32 122.671V112.671L708.32 112.671V122.671Z" fill="white" stroke="#959DA8" stroke-width="1.46" stroke-miterlimit="10"/>
<path d="M813.54 266.171V256.681L766.82 238.171L720.82 255.681V266.171" stroke="#959DA8" stroke-width="2" stroke-miterlimit="10"/>
<path d="M813.32 265.671L766.82 248.171L721.32 264.671" stroke="#959DA8" stroke-miterlimit="10"/>
<path d="M492.821 280.171H46.0605V418.171H492.821V280.171Z" fill="white" stroke="#959DA8" stroke-width="1.43" stroke-miterlimit="10"/>
<path d="M492.821 121.671H46.0605V280.171H492.821V121.671Z" fill="white" stroke="#959DA8" stroke-width="2" stroke-miterlimit="10"/>
<path d="M492.821 121.171H46.0605L58.0605 22.1708H500.821L492.821 121.171Z" fill="#D3DCE5"/>
<path d="M241.139 308.681H198.289V401.771H241.139V308.681Z" fill="#D3DCE5"/>
<path d="M235.07 314.621H204.34V358.951H235.07V314.621Z" fill="white" stroke="#959DA8" stroke-miterlimit="10"/>
<path d="M183.111 279.171H175.221V399.171H183.111V279.171Z" fill="white" stroke="#959DA8" stroke-width="2" stroke-miterlimit="10"/>
<path d="M263.111 279.171H255.221V417.171H263.111V279.171Z" fill="white" stroke="#959DA8" stroke-width="2" stroke-miterlimit="10"/>
<path d="M292.111 279.171H284.221V417.171H292.111V279.171Z" fill="white" stroke="#959DA8" stroke-width="2" stroke-miterlimit="10"/>
<path d="M380.819 408.541H160.119V418.311H380.819V408.541Z" fill="white" stroke="#959DA8" stroke-width="2" stroke-miterlimit="10"/>
<path d="M206.32 366.671C207.425 366.671 208.32 365.775 208.32 364.671C208.32 363.566 207.425 362.671 206.32 362.671C205.216 362.671 204.32 363.566 204.32 364.671C204.32 365.775 205.216 366.671 206.32 366.671Z" fill="white" stroke="#959DA8" stroke-miterlimit="10"/>
<path d="M308.279 308.681H351.129V401.771H308.279V308.681Z" fill="#D3DCE5"/>
<path d="M314.35 358.951H345.08V314.621H314.35V358.951Z" fill="white" stroke="#959DA8" stroke-miterlimit="10"/>
<path d="M343.1 366.671C344.204 366.671 345.1 365.775 345.1 364.671C345.1 363.566 344.204 362.671 343.1 362.671C341.995 362.671 341.1 363.566 341.1 364.671C341.1 365.775 341.995 366.671 343.1 366.671Z" fill="white" stroke="#959DA8" stroke-miterlimit="10"/>
<path d="M380.819 398.791H160.119V408.561H380.819V398.791Z" fill="white" stroke="#959DA8" stroke-width="2" stroke-miterlimit="10"/>
<path d="M159.561 20.7708L275.281 122.171H46.5605" fill="white"/>
<path d="M57.4707 121.941H261.861L250.931 112.191H69.5907L57.4707 121.941Z" fill="white" stroke="#959DA8" stroke-miterlimit="10"/>
<path d="M261.77 121.791H274.89L160.17 21.3907L45.4902 121.791H58.6102" stroke="#959DA8" stroke-width="2" stroke-miterlimit="10"/>
<path d="M58.6094 121.791L69.4293 112.401L76.0593 106.651L79.7094 103.491L80.6493 102.671L86.0593 97.9808L91.0293 93.6708L92.6094 92.2908L101.059 84.9608L102.549 83.6708L105.629 81.0008L114.079 73.6708L114.179 73.5908L120.059 68.4808L125.609 63.6708L126.449 62.9408L134.059 56.3408L137.139 53.6708L139.829 51.3308L148.659 43.6708L148.719 43.6208L152.879 40.0108L153.179 39.7508L160.189 33.6708L163.059 36.1608L170.789 42.8608L171.719 43.6708L178.899 49.9008L183.239 53.6708L184.059 54.3808L192.809 61.9708L194.769 63.6708L200.059 68.2608L206.299 73.6708L214.559 80.8408L217.829 83.6708L221.059 86.4708L229.349 93.6708L235.989 99.4308L239.729 102.671L246.029 108.141L246.089 108.181V108.191L251.239 112.661L261.769 121.791" stroke="#959DA8" stroke-miterlimit="10"/>
<path d="M179.431 61.7307H142.641V94.2407H179.431V61.7307Z" fill="white" stroke="#959DA8" stroke-miterlimit="10"/>
<path d="M173 67.8607H148.82V88.3007H173.04L173 67.8607Z" fill="white" stroke="#959DA8" stroke-miterlimit="10"/>
<path d="M45.8809 265.061L79.8208 237.171H218.321L262.821 264.671L45.8809 265.061Z" fill="#D3DCE5"/>
<path d="M271.881 266.061L319.821 238.171H448.321L490.821 265.671L271.881 266.061Z" fill="#D3DCE5"/>
<path d="M264.82 266.171V254.681L218.82 237.171L172.1 255.681L171.82 266.171H217.82H264.82Z" fill="white"/>
<path d="M633.32 229.671H676.32V153.671H633.32V229.671Z" fill="white" stroke="#959DA8" stroke-miterlimit="10"/>
<path d="M676.32 178.171H632.82" stroke="#959DA8" stroke-miterlimit="10"/>
<path d="M661.82 153.671V178.171" stroke="#959DA8" stroke-miterlimit="10"/>
<path d="M647.82 153.671V178.171" stroke="#959DA8" stroke-miterlimit="10"/>
<path d="M518.32 229.671H561.32V153.671H518.32V229.671Z" fill="white" stroke="#959DA8" stroke-miterlimit="10"/>
<path d="M561.32 178.171H518.82" stroke="#959DA8" stroke-miterlimit="10"/>
<path d="M546.82 153.671V178.171" stroke="#959DA8" stroke-miterlimit="10"/>
<path d="M532.82 153.671V178.171" stroke="#959DA8" stroke-miterlimit="10"/>
<path d="M860.32 229.671H903.32V153.671H860.32V229.671Z" fill="white" stroke="#959DA8" stroke-miterlimit="10"/>
<path d="M903.32 178.171H859.82" stroke="#959DA8" stroke-miterlimit="10"/>
<path d="M888.82 153.671V178.171" stroke="#959DA8" stroke-miterlimit="10"/>
<path d="M874.82 153.671V178.171" stroke="#959DA8" stroke-miterlimit="10"/>
<path d="M745.32 229.671H788.32V153.671H745.32V229.671Z" fill="white" stroke="#959DA8" stroke-miterlimit="10"/>
<path d="M788.32 178.171H745.82" stroke="#959DA8" stroke-miterlimit="10"/>
<path d="M773.82 153.671V178.171" stroke="#959DA8" stroke-miterlimit="10"/>
<path d="M759.82 153.671V178.171" stroke="#959DA8" stroke-miterlimit="10"/>
<path d="M352.32 153.671H309.32V229.671H352.32V153.671Z" fill="white" stroke="#959DA8" stroke-miterlimit="10"/>
<path d="M309.32 178.171H352.82" stroke="#959DA8" stroke-miterlimit="10"/>
<path d="M323.82 153.671V178.171" stroke="#959DA8" stroke-miterlimit="10"/>
<path d="M337.82 153.671V178.171" stroke="#959DA8" stroke-miterlimit="10"/>
<path d="M467.32 153.671H424.32V229.671H467.32V153.671Z" fill="white" stroke="#959DA8" stroke-miterlimit="10"/>
<path d="M424.32 178.171H466.82" stroke="#959DA8" stroke-miterlimit="10"/>
<path d="M438.82 153.671V178.171" stroke="#959DA8" stroke-miterlimit="10"/>
<path d="M452.82 153.671V178.171" stroke="#959DA8" stroke-miterlimit="10"/>
<path d="M125.32 153.671H82.3203V229.671H125.32V153.671Z" fill="white" stroke="#959DA8" stroke-miterlimit="10"/>
<path d="M82.3203 178.171H125.82" stroke="#959DA8" stroke-miterlimit="10"/>
<path d="M96.8203 153.671V178.171" stroke="#959DA8" stroke-miterlimit="10"/>
<path d="M110.82 153.671V178.171" stroke="#959DA8" stroke-miterlimit="10"/>
<path d="M240.32 153.671H197.32V229.671H240.32V153.671Z" fill="white" stroke="#959DA8" stroke-miterlimit="10"/>
<path d="M197.32 178.171H239.82" stroke="#959DA8" stroke-miterlimit="10"/>
<path d="M211.82 153.671V178.171" stroke="#959DA8" stroke-miterlimit="10"/>
<path d="M225.82 153.671V178.171" stroke="#959DA8" stroke-miterlimit="10"/>
<path d="M166.32 308.671H123.32V384.671H166.32V308.671Z" fill="white" stroke="#959DA8" stroke-miterlimit="10"/>
<path d="M123.32 308.671H80.3203V384.671H123.32V308.671Z" fill="white" stroke="#959DA8" stroke-miterlimit="10"/>
<path d="M80.3203 333.171H165.82" stroke="#959DA8" stroke-miterlimit="10"/>
<path d="M136.82 308.671V333.171" stroke="#959DA8" stroke-miterlimit="10"/>
<path d="M150.82 308.671V333.171" stroke="#959DA8" stroke-miterlimit="10"/>
<path d="M94.8203 308.671V333.171" stroke="#959DA8" stroke-miterlimit="10"/>
<path d="M108.82 308.671V333.171" stroke="#959DA8" stroke-miterlimit="10"/>
<path d="M467.32 308.671H424.32V384.671H467.32V308.671Z" fill="white" stroke="#959DA8" stroke-miterlimit="10"/>
<path d="M424.32 308.671H381.32V384.671H424.32V308.671Z" fill="white" stroke="#959DA8" stroke-miterlimit="10"/>
<path d="M381.32 333.171H466.82" stroke="#959DA8" stroke-miterlimit="10"/>
<path d="M437.82 308.671V333.171" stroke="#959DA8" stroke-miterlimit="10"/>
<path d="M451.82 308.671V333.171" stroke="#959DA8" stroke-miterlimit="10"/>
<path d="M395.82 308.671V333.171" stroke="#959DA8" stroke-miterlimit="10"/>
<path d="M409.82 308.671V333.171" stroke="#959DA8" stroke-miterlimit="10"/>
<path d="M274.32 123.171V400.171" stroke="#959DA8" stroke-width="2" stroke-miterlimit="10"/>
<path d="M388.561 1.77075L464.281 58.1708H313.561" fill="white"/>
<path d="M447.77 57.7907H464.89L389.17 1.39075L313.49 57.7907H329.61" stroke="#959DA8" stroke-width="2" stroke-miterlimit="10"/>
<path d="M435.93 48.1908H342.32" stroke="#959DA8" stroke-miterlimit="10"/>
<path d="M328.32 57.6708L389.32 15.6708L449.32 57.6708" stroke="#959DA8" stroke-miterlimit="10"/>
<path d="M448.32 57.6708H329.32V106.671H448.32V57.6708Z" fill="white" stroke="#959DA8" stroke-width="2" stroke-miterlimit="10"/>
<path d="M378.431 65.7307H341.641V98.2407H378.431V65.7307Z" fill="white" stroke="#959DA8" stroke-miterlimit="10"/>
<path d="M372 71.8607H347.82V92.3007H372.04L372 71.8607Z" fill="white" stroke="#959DA8" stroke-miterlimit="10"/>
<path d="M436.431 65.7307H399.641V98.2407H436.431V65.7307Z" fill="white" stroke="#959DA8" stroke-miterlimit="10"/>
<path d="M430 71.8607H405.82V92.3007H430.04L430 71.8607Z" fill="white" stroke="#959DA8" stroke-miterlimit="10"/>
<path d="M405.881 266.061L439.821 238.171H662.321L706.821 265.671L405.881 266.061Z" fill="#D3DCE5"/>
<path d="M939.82 265.171H44.8203V280.171H939.82V265.171Z" fill="white" stroke="#959DA8" stroke-width="2" stroke-miterlimit="10"/>
<path d="M21.8199 379.931C22.2704 379.934 22.7198 379.887 23.1599 379.791C43.6399 375.131 43.6499 350.321 43.6499 350.321C43.6499 316.511 21.83 299.561 21.83 299.561C21.83 299.561 0 316.471 0 350.321C0 350.321 -1.90735e-05 375.161 20.48 379.791C20.9201 379.887 21.3695 379.934 21.8199 379.931Z" fill="#80C33F"/>
<path d="M21.8203 332.921V417.311" stroke="#2A3A51" stroke-linecap="round" stroke-linejoin="round"/>
<path d="M498.82 387.171C499.193 387.172 499.566 387.132 499.93 387.051C516.83 383.201 516.83 362.741 516.83 362.741C516.83 334.851 498.83 320.871 498.83 320.871C498.83 320.871 480.83 334.871 480.83 362.741C480.83 362.741 480.83 383.231 497.72 387.051C498.084 387.132 498.457 387.172 498.83 387.171H498.82Z" fill="#80C33F"/>
<path d="M498.82 348.381V417.991" stroke="#2A3A51" stroke-linecap="round" stroke-linejoin="round"/>
<path d="M277.32 112.671H43.3203V122.671H277.32V112.671Z" fill="white" stroke="#959DA8" stroke-width="1.46" stroke-miterlimit="10"/>
<path d="M467.32 48.6708H311.32V58.6708H467.32V48.6708Z" fill="white" stroke="#959DA8" stroke-width="1.19" stroke-miterlimit="10"/>
<path d="M172.1 266.171V256.681L218.82 238.171L264.82 255.681V266.171" stroke="#959DA8" stroke-width="2" stroke-miterlimit="10"/>
<path d="M172.32 265.671L218.82 248.171L264.82 265.681" stroke="#959DA8" stroke-miterlimit="10"/>
<path d="M356.82 414.471C356.811 412.245 357.338 410.05 358.357 408.071C359.376 406.092 360.856 404.387 362.672 403.101C364.489 401.815 366.589 400.986 368.794 400.683C370.999 400.38 373.244 400.612 375.34 401.361C376.151 398.099 377.791 395.102 380.103 392.662C382.415 390.222 385.319 388.422 388.533 387.438C391.746 386.453 395.16 386.317 398.442 387.043C401.724 387.769 404.762 389.332 407.26 391.581C409.025 386.646 412.475 382.492 417.002 379.85C421.528 377.209 426.842 376.249 432.007 377.141C437.171 378.032 441.856 380.717 445.235 384.724C448.615 388.73 450.472 393.8 450.48 399.041C450.483 399.816 450.443 400.59 450.36 401.361C451.866 400.811 453.457 400.53 455.06 400.531C462.76 400.531 469.46 406.781 468.97 414.441C468.9 415.704 468.689 416.955 468.34 418.171H357.34C357.005 416.956 356.837 415.701 356.84 414.441L356.82 414.471Z" fill="#80C33F"/>
</svg>
