<svg width="1235" height="401" viewBox="0 0 1235 401" fill="none" xmlns="http://www.w3.org/2000/svg">
<path d="M492.002 103.031H58.002L65.302 4.03076H492.002V103.031Z" fill="#D3DCE5"/>
<path d="M49.7624 338.751C50.3883 335.605 50.3577 332.364 49.6725 329.231C48.9997 326.129 47.6773 323.205 45.7925 320.651C43.9594 318.158 41.5915 316.108 38.8625 314.651C36.1973 313.225 33.2334 312.449 30.2117 312.385C27.19 312.32 24.1958 312.97 21.4725 314.281C18.6961 315.618 16.2559 317.563 14.3324 319.971C12.3561 322.442 10.9279 325.305 10.1424 328.371C9.34197 331.476 9.19216 334.714 9.70245 337.881C7.44314 339.062 5.47023 340.725 3.92248 342.751C2.33364 344.827 1.1929 347.211 0.57244 349.751C-0.0613008 352.319 -0.170148 354.989 0.252433 357.601C0.670066 360.192 1.61637 362.67 3.03246 364.881C4.41007 367.04 6.23857 368.875 8.39245 370.261C10.5051 371.616 12.8993 372.471 15.3924 372.761C17.8613 373.046 20.3626 372.758 22.7024 371.921C25.0792 371.072 27.2378 369.705 29.0225 367.921C30.7496 369.68 32.8375 371.045 35.1424 371.921C37.4048 372.78 39.8308 373.121 42.2425 372.921C44.6611 372.699 47.0005 371.945 49.0925 370.711C51.2317 369.445 53.0789 367.741 54.5124 365.711C55.9825 363.632 57.0197 361.278 57.5624 358.791C58.1152 356.279 58.1696 353.683 57.7225 351.151C57.2831 348.637 56.3447 346.236 54.9625 344.091C53.6264 341.963 51.854 340.143 49.7624 338.751Z" fill="#80C33F"/>
<path d="M29.7928 357.811L20.3828 351.111" stroke="#2A3A51" stroke-linecap="round" stroke-linejoin="round"/>
<path d="M29.793 366.191L40.793 356.191" stroke="#2A3A51" stroke-linecap="round" stroke-linejoin="round"/>
<path d="M29.793 337.71V398.03" stroke="#2A3A51" stroke-linecap="round" stroke-linejoin="round"/>
<path d="M280.502 102.531H66.502V257.531H280.502V102.531Z" fill="white" stroke="#959DA8" stroke-width="2" stroke-miterlimit="10"/>
<path d="M173.392 2.25049L57.6719 103.651L288.002 104.031" fill="white"/>
<path d="M276.093 103.8H71.7031L82.6331 94.0503H263.973L276.093 103.8Z" fill="white" stroke="#959DA8" stroke-miterlimit="10"/>
<path d="M71.7919 103.651H57.6719L173.392 2.25049L289.072 103.651H274.952" stroke="#959DA8" stroke-width="2" stroke-miterlimit="10"/>
<path d="M274.953 103.651L264.133 94.2607L257.503 88.5107L253.853 85.3508L252.913 84.5308L247.503 79.8408L242.533 75.5308L240.953 74.1508L232.503 66.8207L231.013 65.5308L227.933 62.8607L219.483 55.5308L219.383 55.4507L213.503 50.3408L207.953 45.5308L207.113 44.8007L199.503 38.2007L196.423 35.5308L193.733 33.1907L184.903 25.5308L184.843 25.4808L180.683 21.8707L180.383 21.6107L173.373 15.5308L170.503 18.0208L162.773 24.7208L161.843 25.5308L154.663 31.7607L150.323 35.5308L149.503 36.2407L140.753 43.8307L138.793 45.5308L133.503 50.1207L127.263 55.5308L119.003 62.7007L115.733 65.5308L112.503 68.3307L104.213 75.5308L97.5729 81.2908L93.8329 84.5308L87.533 90.0007L87.473 90.0408V90.0507L82.3229 94.5208L71.793 103.651" stroke="#959DA8" stroke-miterlimit="10"/>
<path d="M216.533 289.84H130.473V366.37H216.533V289.84Z" fill="white" stroke="#959DA8" stroke-miterlimit="10"/>
<path d="M173.512 289.831V366.481" stroke="#959DA8" stroke-miterlimit="10"/>
<path d="M130.473 325.911H216.203" stroke="#959DA8" stroke-miterlimit="10"/>
<path d="M342.332 289.571H299.482V382.661H342.332V289.571Z" fill="#D3DCE5"/>
<path d="M336.261 295.481H305.531V339.811H336.261V295.481Z" fill="white" stroke="#959DA8" stroke-miterlimit="10"/>
<path d="M285.292 260.031H277.402V380.031H285.292V260.031Z" fill="white" stroke="#959DA8" stroke-width="2" stroke-miterlimit="10"/>
<path d="M73.2921 260.031H65.4121V398.031H73.3021L73.2921 260.031Z" fill="white" stroke="#959DA8" stroke-width="2" stroke-miterlimit="10"/>
<path d="M363.003 379.651H277.303V389.421H363.003V379.651Z" fill="white" stroke="#959DA8" stroke-width="2" stroke-miterlimit="10"/>
<path d="M363.003 389.401H277.303V399.171H363.003V389.401Z" fill="white" stroke="#959DA8" stroke-width="2" stroke-miterlimit="10"/>
<path d="M307.504 347.531C308.608 347.531 309.504 346.635 309.504 345.531C309.504 344.426 308.608 343.531 307.504 343.531C306.399 343.531 305.504 344.426 305.504 345.531C305.504 346.635 306.399 347.531 307.504 347.531Z" fill="white" stroke="#959DA8" stroke-miterlimit="10"/>
<path d="M333.542 134.031H303.012V187.031H333.532L333.542 134.031Z" fill="white" stroke="#959DA8" stroke-miterlimit="10"/>
<path d="M303.012 156.361H333.542" stroke="#959DA8" stroke-miterlimit="10"/>
<path d="M269.973 319.201L256.323 311.5L242.812 319.471L243.193 319.461L246.343 342.651L266.672 342.391L269.523 319.201H269.973Z" fill="#D3DCE5"/>
<path d="M266.004 323.031H247.004V327.031H266.004V323.031Z" fill="white" stroke="#959DA8" stroke-miterlimit="10"/>
<path d="M130.481 197.75H111.621V207.3H130.481V197.75Z" fill="white" stroke="#959DA8" stroke-miterlimit="10"/>
<path d="M130.481 187.75H111.621V197.521H130.481V187.75Z" fill="white" stroke="#959DA8" stroke-miterlimit="10"/>
<path d="M130.481 177.75H111.621V187.521H130.481V177.75Z" fill="white" stroke="#959DA8" stroke-miterlimit="10"/>
<path d="M130.481 177.521H111.621V167.75H130.471V169.911L130.481 177.521Z" fill="white" stroke="#959DA8" stroke-miterlimit="10"/>
<path d="M130.471 157.75H111.621V167.521H130.471V157.75Z" fill="white" stroke="#959DA8" stroke-miterlimit="10"/>
<path d="M130.471 147.75H111.621V157.521H130.471V147.75Z" fill="white" stroke="#959DA8" stroke-miterlimit="10"/>
<path d="M130.471 137.75H111.621V147.521H130.471V137.75Z" fill="white" stroke="#959DA8" stroke-miterlimit="10"/>
<path d="M235.481 197.75H216.621V207.3H235.481V197.75Z" fill="white" stroke="#959DA8" stroke-miterlimit="10"/>
<path d="M235.481 187.75H216.621V197.521H235.481V187.75Z" fill="white" stroke="#959DA8" stroke-miterlimit="10"/>
<path d="M235.481 177.75H216.621V187.521H235.481V177.75Z" fill="white" stroke="#959DA8" stroke-miterlimit="10"/>
<path d="M235.481 177.521H216.621V167.75H235.471V169.911L235.481 177.521Z" fill="white" stroke="#959DA8" stroke-miterlimit="10"/>
<path d="M235.471 157.75H216.621V167.521H235.471V157.75Z" fill="white" stroke="#959DA8" stroke-miterlimit="10"/>
<path d="M235.471 147.75H216.621V157.521H235.471V147.75Z" fill="white" stroke="#959DA8" stroke-miterlimit="10"/>
<path d="M235.471 137.75H216.621V147.521H235.471V137.75Z" fill="white" stroke="#959DA8" stroke-miterlimit="10"/>
<path d="M130.792 137.88H112.002V207.49H130.792V137.88Z" stroke="#959DA8" stroke-width="0.85" stroke-miterlimit="10"/>
<path d="M235.481 354.75H216.621V364.3H235.481V354.75Z" fill="white" stroke="#959DA8" stroke-miterlimit="10"/>
<path d="M235.481 344.75H216.621V354.521H235.481V344.75Z" fill="white" stroke="#959DA8" stroke-miterlimit="10"/>
<path d="M235.481 334.75H216.621V344.521H235.481V334.75Z" fill="white" stroke="#959DA8" stroke-miterlimit="10"/>
<path d="M235.481 334.521H216.621V324.75H235.471V326.911L235.481 334.521Z" fill="white" stroke="#959DA8" stroke-miterlimit="10"/>
<path d="M235.471 314.75H216.621V324.521H235.471V314.75Z" fill="white" stroke="#959DA8" stroke-miterlimit="10"/>
<path d="M235.471 304.75H216.621V314.521H235.471V304.75Z" fill="white" stroke="#959DA8" stroke-miterlimit="10"/>
<path d="M235.471 294.75H216.621V304.521H235.471V294.75Z" fill="white" stroke="#959DA8" stroke-miterlimit="10"/>
<path d="M130.792 294.88H112.002V364.49H130.792V294.88Z" stroke="#959DA8" stroke-width="0.85" stroke-miterlimit="10"/>
<path d="M216.533 133.84H130.473V210.37H216.533V133.84Z" fill="white" stroke="#959DA8" stroke-miterlimit="10"/>
<path d="M173.512 133.831V210.481" stroke="#959DA8" stroke-miterlimit="10"/>
<path d="M130.473 169.911H216.203" stroke="#959DA8" stroke-miterlimit="10"/>
<path d="M152.002 394.331C151.993 392.105 152.52 389.91 153.539 387.931C154.557 385.952 156.037 384.247 157.854 382.961C159.671 381.675 161.77 380.846 163.975 380.543C166.18 380.24 168.426 380.472 170.522 381.221C171.332 377.959 172.973 374.962 175.285 372.522C177.597 370.082 180.501 368.282 183.714 367.297C186.928 366.313 190.342 366.177 193.624 366.903C196.906 367.629 199.944 369.192 202.442 371.441C204.207 366.506 207.657 362.352 212.183 359.71C216.71 357.069 222.024 356.109 227.188 357.001C232.353 357.892 237.038 360.577 240.417 364.583C243.796 368.59 245.654 373.66 245.662 378.901C245.665 379.676 245.625 380.45 245.542 381.221C247.048 380.671 248.639 380.39 250.242 380.391C257.942 380.391 264.642 386.641 264.152 394.301C264.081 395.564 263.87 396.815 263.522 398.031H152.522C152.187 396.816 152.019 395.561 152.022 394.301L152.002 394.331Z" fill="#80C33F"/>
<path d="M184.753 25.3105H162.203L173.493 15.5405H173.513L184.753 25.3105Z" fill="white" stroke="#959DA8" stroke-miterlimit="10"/>
<path d="M196.263 35.3105H150.643L161.933 25.5405H185.023L196.263 35.3105Z" fill="white" stroke="#959DA8" stroke-miterlimit="10"/>
<path d="M207.764 45.3105H139.094L150.384 35.5405H196.524L207.764 45.3105Z" fill="white" stroke="#959DA8" stroke-miterlimit="10"/>
<path d="M359.742 103.031H1192.74L1178.74 4.03076H359.742V103.031Z" fill="#D3DCE5"/>
<path d="M358.742 398.031L1182.74 398.031V103.031L358.742 103.031V398.031Z" fill="white" stroke="#959DA8" stroke-width="2" stroke-miterlimit="10"/>
<path d="M970.242 257.531H1184.24V102.531L970.242 102.531V257.531Z" fill="white" stroke="#959DA8" stroke-width="2" stroke-miterlimit="10"/>
<path d="M1077.35 2.25049L1193.07 103.651L962.742 104.031" fill="white"/>
<path d="M678.742 258.031H892.742V103.031L678.742 103.031V258.031Z" fill="white" stroke="#959DA8" stroke-width="2" stroke-miterlimit="10"/>
<path d="M974.662 103.8H1179.05L1168.11 94.0503H986.772L974.662 103.8Z" fill="white" stroke="#959DA8" stroke-miterlimit="10"/>
<path d="M1178.95 103.651H1193.07L1077.35 2.25049L961.672 103.651H975.792" stroke="#959DA8" stroke-width="2" stroke-miterlimit="10"/>
<path d="M975.793 103.651L986.613 94.2607L993.243 88.5107L996.893 85.3508L997.833 84.5308L1003.24 79.8408L1008.21 75.5308L1009.79 74.1508L1018.24 66.8207L1019.73 65.5308L1022.81 62.8607L1031.26 55.5308L1031.36 55.4507L1037.24 50.3408L1042.79 45.5308L1043.63 44.8007L1051.24 38.2007L1054.32 35.5308L1057.01 33.1907L1065.84 25.5308L1065.9 25.4808L1070.06 21.8707L1070.36 21.6107L1077.37 15.5308L1080.24 18.0208L1087.97 24.7208L1088.9 25.5308L1096.08 31.7607L1100.42 35.5308L1101.24 36.2407L1109.99 43.8307L1111.95 45.5308L1117.24 50.1207L1123.48 55.5308L1131.74 62.7007L1135.01 65.5308L1138.24 68.3307L1146.53 75.5308L1153.17 81.2908L1156.91 84.5308L1163.21 90.0007L1163.27 90.0408V90.0507L1168.42 94.5208L1178.95 103.651" stroke="#959DA8" stroke-miterlimit="10"/>
<path d="M784.742 2.63037L900.462 104.03H669.742" fill="white"/>
<path d="M682.662 103.8H887.052L876.112 94.0503H694.772L682.662 103.8Z" fill="white" stroke="#959DA8" stroke-miterlimit="10"/>
<path d="M886.952 103.651H901.072L785.352 2.25049L669.672 103.651H683.792" stroke="#959DA8" stroke-width="2" stroke-miterlimit="10"/>
<path d="M683.793 103.651L694.613 94.2607L701.243 88.5107L704.893 85.3508L705.833 84.5308L711.243 79.8408L716.213 75.5308L717.793 74.1508L726.243 66.8207L727.733 65.5308L730.813 62.8607L739.263 55.5308L739.363 55.4507L745.243 50.3408L750.793 45.5308L751.633 44.8007L759.243 38.2007L762.323 35.5308L765.013 33.1907L773.843 25.5308L773.903 25.4808L778.063 21.8707L778.363 21.6107L785.373 15.5308L788.243 18.0208L795.973 24.7208L796.903 25.5308L804.083 31.7607L808.423 35.5308L809.243 36.2407L817.993 43.8307L819.953 45.5308L825.243 50.1207L831.483 55.5308L839.743 62.7007L843.013 65.5308L846.243 68.3307L854.533 75.5308L861.173 81.2908L864.913 84.5308L871.213 90.0007L871.273 90.0408V90.0507L876.423 94.5208L886.953 103.651" stroke="#959DA8" stroke-miterlimit="10"/>
<path d="M1034.21 289.84H1120.27V366.37H1034.21V289.84Z" fill="white" stroke="#959DA8" stroke-miterlimit="10"/>
<path d="M1077.24 289.831V366.481" stroke="#959DA8" stroke-miterlimit="10"/>
<path d="M1120.27 325.911H1034.54" stroke="#959DA8" stroke-miterlimit="10"/>
<path d="M742.213 133.84H828.273V210.37H742.213V133.84Z" fill="white" stroke="#959DA8" stroke-miterlimit="10"/>
<path d="M785.242 133.831V210.481" stroke="#959DA8" stroke-miterlimit="10"/>
<path d="M828.273 169.911H742.543" stroke="#959DA8" stroke-miterlimit="10"/>
<path d="M358.742 258.031H572.742V103.031L358.742 103.031V258.031Z" fill="white" stroke="#959DA8" stroke-width="2" stroke-miterlimit="10"/>
<path d="M464.742 2.63037L580.462 104.03H351.742" fill="white"/>
<path d="M362.662 103.8H567.052L556.112 94.0503H374.772L362.662 103.8Z" fill="white" stroke="#959DA8" stroke-miterlimit="10"/>
<path d="M566.952 103.651H581.072L465.352 2.25049L349.672 103.651H363.792" stroke="#959DA8" stroke-width="2" stroke-miterlimit="10"/>
<path d="M363.793 103.651L374.613 94.2607L381.243 88.5107L384.893 85.3508L385.833 84.5308L391.243 79.8408L396.213 75.5308L397.793 74.1508L406.243 66.8207L407.733 65.5308L410.813 62.8607L419.263 55.5308L419.363 55.4507L425.243 50.3408L430.793 45.5308L431.633 44.8007L439.243 38.2007L442.323 35.5308L445.013 33.1907L453.843 25.5308L453.903 25.4808L458.063 21.8707L458.363 21.6107L465.373 15.5308L468.243 18.0208L475.973 24.7208L476.903 25.5308L484.083 31.7607L488.423 35.5308L489.243 36.2407L497.993 43.8307L499.953 45.5308L505.243 50.1207L511.483 55.5308L519.743 62.7007L523.013 65.5308L526.243 68.3307L534.533 75.5308L541.173 81.2908L544.913 84.5308L551.213 90.0007L551.273 90.0408V90.0507L556.423 94.5208L566.953 103.651" stroke="#959DA8" stroke-miterlimit="10"/>
<path d="M422.213 133.84H508.273V210.37H422.213V133.84Z" fill="white" stroke="#959DA8" stroke-miterlimit="10"/>
<path d="M465.242 133.831V210.481" stroke="#959DA8" stroke-miterlimit="10"/>
<path d="M508.273 169.911H422.543" stroke="#959DA8" stroke-miterlimit="10"/>
<path d="M908.422 289.571H951.272V382.661H908.422V289.571Z" fill="#D3DCE5"/>
<path d="M914.493 339.811H945.223V295.481H914.493V339.811Z" fill="white" stroke="#959DA8" stroke-miterlimit="10"/>
<path d="M965.453 260.031H973.343V380.031H965.453V260.031Z" fill="white" stroke="#959DA8" stroke-width="2" stroke-miterlimit="10"/>
<path d="M1177.45 260.031H1185.34V398.031H1177.45V260.031Z" fill="white" stroke="#959DA8" stroke-width="2" stroke-miterlimit="10"/>
<path d="M887.742 379.651H973.442V389.421H887.742V379.651Z" fill="white" stroke="#959DA8" stroke-width="2" stroke-miterlimit="10"/>
<path d="M997.482 338.031V399.391H991.012V338.031H997.482Z" fill="white" stroke="#959DA8" stroke-miterlimit="10"/>
<path d="M887.742 389.401H973.442V399.171H887.742V389.401Z" fill="white" stroke="#959DA8" stroke-width="2" stroke-miterlimit="10"/>
<path d="M943.242 347.531C944.347 347.531 945.242 346.635 945.242 345.531C945.242 344.426 944.347 343.531 943.242 343.531C942.138 343.531 941.242 344.426 941.242 345.531C941.242 346.635 942.138 347.531 943.242 347.531Z" fill="white" stroke="#959DA8" stroke-miterlimit="10"/>
<path d="M358.002 399.031L892.742 399.031V260.031L358.002 260.031V399.031Z" fill="white" stroke="#959DA8" stroke-width="2" stroke-miterlimit="10"/>
<path d="M885.742 244.031V230.531L931.742 198.031L978.472 231.531L978.742 245.031L932.002 244.031H885.742Z" fill="white"/>
<path d="M978.472 246.031V231.531L931.742 198.031L885.742 230.531V245.031" stroke="#959DA8" stroke-width="2" stroke-miterlimit="10"/>
<path d="M978.472 245.531L931.742 212.031L885.742 244.531" stroke="#959DA8" stroke-miterlimit="10"/>
<path d="M633.742 399.031L876.742 399.031V290.031H633.742V399.031Z" fill="white" stroke="#959DA8" stroke-miterlimit="10"/>
<path d="M761.422 308.401C761.422 308.401 775.952 294.531 814.352 295.041C852.752 295.551 867.282 308.391 867.282 308.391V398.651H761.432L761.422 308.401Z" fill="#D3DCE5"/>
<path d="M644.422 308.401C644.422 308.401 658.952 294.531 697.352 295.041C735.752 295.551 750.282 308.391 750.282 308.391V398.651H644.432L644.422 308.401Z" fill="#D3DCE5"/>
<path d="M814.742 293.031V399.171" stroke="white" stroke-width="2" stroke-miterlimit="10"/>
<path d="M760.672 346.101H867.812" stroke="white" stroke-width="2" stroke-miterlimit="10"/>
<path d="M697.742 293.031V399.171" stroke="white" stroke-width="2" stroke-miterlimit="10"/>
<path d="M643.672 346.101H750.812" stroke="white" stroke-width="2" stroke-miterlimit="10"/>
<path d="M818.242 369.531H822.242V348.531H818.242V369.531Z" fill="white" stroke="#959DA8" stroke-miterlimit="10"/>
<path d="M807.242 369.531H811.242V348.531H807.242V369.531Z" fill="white" stroke="#959DA8" stroke-miterlimit="10"/>
<path d="M701.242 369.531H705.242V348.531H701.242V369.531Z" fill="white" stroke="#959DA8" stroke-miterlimit="10"/>
<path d="M690.242 369.531H694.242V348.531H690.242V369.531Z" fill="white" stroke="#959DA8" stroke-miterlimit="10"/>
<path d="M369.742 399.031L612.742 399.031V290.031H369.742V399.031Z" fill="white" stroke="#959DA8" stroke-miterlimit="10"/>
<path d="M497.422 308.401C497.422 308.401 511.952 294.531 550.352 295.041C588.752 295.551 603.282 308.391 603.282 308.391V398.651H497.432L497.422 308.401Z" fill="#D3DCE5"/>
<path d="M380.422 308.401C380.422 308.401 394.952 294.531 433.352 295.041C471.752 295.551 486.282 308.391 486.282 308.391V398.651H380.432L380.422 308.401Z" fill="#D3DCE5"/>
<path d="M550.742 293.031V399.171" stroke="white" stroke-width="2" stroke-miterlimit="10"/>
<path d="M496.672 346.101H603.812" stroke="white" stroke-width="2" stroke-miterlimit="10"/>
<path d="M433.742 293.031V399.171" stroke="white" stroke-width="2" stroke-miterlimit="10"/>
<path d="M379.672 346.101H486.812" stroke="white" stroke-width="2" stroke-miterlimit="10"/>
<path d="M554.242 369.531H558.242V348.531H554.242V369.531Z" fill="white" stroke="#959DA8" stroke-miterlimit="10"/>
<path d="M543.242 369.531H547.242V348.531H543.242V369.531Z" fill="white" stroke="#959DA8" stroke-miterlimit="10"/>
<path d="M437.242 369.531H441.242V348.531H437.242V369.531Z" fill="white" stroke="#959DA8" stroke-miterlimit="10"/>
<path d="M426.242 369.531H430.242V348.531H426.242V369.531Z" fill="white" stroke="#959DA8" stroke-miterlimit="10"/>
<path d="M611.213 134.031H641.733V210.031H611.213V134.031Z" fill="white" stroke="#959DA8" stroke-miterlimit="10"/>
<path d="M641.733 156.361H611.213" stroke="#959DA8" stroke-miterlimit="10"/>
<path d="M917.213 134.031H947.733V187.031H917.213V134.031Z" fill="white" stroke="#959DA8" stroke-miterlimit="10"/>
<path d="M947.733 156.361H917.213" stroke="#959DA8" stroke-miterlimit="10"/>
<path d="M978.004 317.601L994.444 308.321L1010.7 317.921H1010.25L1009.91 334.061C1009.85 337.192 1008.55 340.171 1006.31 342.353C1004.06 344.535 1001.05 345.745 997.914 345.721L990.504 345.651C987.383 345.619 984.4 344.364 982.195 342.156C979.99 339.947 978.74 336.962 978.714 333.841L978.584 317.621L978.004 317.601Z" fill="#D3DCE5"/>
<path d="M982.792 327.021H1005.66V322.201H982.792V327.021Z" fill="white" stroke="#959DA8" stroke-miterlimit="10"/>
<path d="M622.732 370.04C622.396 370.039 622.061 370.002 621.732 369.93C605.732 366.3 605.732 346.93 605.732 346.93C605.732 320.59 622.732 307.38 622.732 307.38C622.732 307.38 639.732 320.56 639.732 346.92C639.732 346.92 639.732 366.27 623.732 369.92C623.404 369.992 623.069 370.029 622.732 370.03V370.04Z" fill="#80C33F"/>
<path d="M622.732 333.411V399.161" stroke="#2A3A51" stroke-linecap="round" stroke-linejoin="round"/>
<path d="M1139.12 197.75H1120.26V207.3H1139.12V197.75Z" fill="white" stroke="#959DA8" stroke-miterlimit="10"/>
<path d="M1139.12 187.75H1120.26V197.521H1139.12V187.75Z" fill="white" stroke="#959DA8" stroke-miterlimit="10"/>
<path d="M1139.12 177.75H1120.26V187.521H1139.12V177.75Z" fill="white" stroke="#959DA8" stroke-miterlimit="10"/>
<path d="M1120.26 177.521H1139.12V167.75H1120.27V169.911L1120.26 177.521Z" fill="white" stroke="#959DA8" stroke-miterlimit="10"/>
<path d="M1139.12 157.75H1120.27V167.521H1139.12V157.75Z" fill="white" stroke="#959DA8" stroke-miterlimit="10"/>
<path d="M1139.12 147.75H1120.27V157.521H1139.12V147.75Z" fill="white" stroke="#959DA8" stroke-miterlimit="10"/>
<path d="M1139.12 137.75H1120.27V147.521H1139.12V137.75Z" fill="white" stroke="#959DA8" stroke-miterlimit="10"/>
<path d="M1034.12 197.75H1015.26V207.3H1034.12V197.75Z" fill="white" stroke="#959DA8" stroke-miterlimit="10"/>
<path d="M1034.12 187.75H1015.26V197.521H1034.12V187.75Z" fill="white" stroke="#959DA8" stroke-miterlimit="10"/>
<path d="M1034.12 177.75H1015.26V187.521H1034.12V177.75Z" fill="white" stroke="#959DA8" stroke-miterlimit="10"/>
<path d="M1015.26 177.521H1034.12V167.75H1015.27V169.911L1015.26 177.521Z" fill="white" stroke="#959DA8" stroke-miterlimit="10"/>
<path d="M1034.12 157.75H1015.27V167.521H1034.12V157.75Z" fill="white" stroke="#959DA8" stroke-miterlimit="10"/>
<path d="M1034.12 147.75H1015.27V157.521H1034.12V147.75Z" fill="white" stroke="#959DA8" stroke-miterlimit="10"/>
<path d="M1034.12 137.75H1015.27V147.521H1034.12V137.75Z" fill="white" stroke="#959DA8" stroke-miterlimit="10"/>
<path d="M1139.12 354.75H1120.26V364.3H1139.12V354.75Z" fill="white" stroke="#959DA8" stroke-miterlimit="10"/>
<path d="M1139.12 344.75H1120.26V354.521H1139.12V344.75Z" fill="white" stroke="#959DA8" stroke-miterlimit="10"/>
<path d="M1139.12 334.75H1120.26V344.521H1139.12V334.75Z" fill="white" stroke="#959DA8" stroke-miterlimit="10"/>
<path d="M1120.26 334.521H1139.12V324.75H1120.27V326.911L1120.26 334.521Z" fill="white" stroke="#959DA8" stroke-miterlimit="10"/>
<path d="M1139.12 314.75H1120.27V324.521H1139.12V314.75Z" fill="white" stroke="#959DA8" stroke-miterlimit="10"/>
<path d="M1139.12 304.75H1120.27V314.521H1139.12V304.75Z" fill="white" stroke="#959DA8" stroke-miterlimit="10"/>
<path d="M1139.12 294.75H1120.27V304.521H1139.12V294.75Z" fill="white" stroke="#959DA8" stroke-miterlimit="10"/>
<path d="M1034.12 354.75H1015.26V364.3H1034.12V354.75Z" fill="white" stroke="#959DA8" stroke-miterlimit="10"/>
<path d="M1034.12 344.75H1015.26V354.521H1034.12V344.75Z" fill="white" stroke="#959DA8" stroke-miterlimit="10"/>
<path d="M1034.12 334.75H1015.26V344.521H1034.12V334.75Z" fill="white" stroke="#959DA8" stroke-miterlimit="10"/>
<path d="M1015.26 334.521H1034.12V324.75H1015.27V326.911L1015.26 334.521Z" fill="white" stroke="#959DA8" stroke-miterlimit="10"/>
<path d="M1034.12 314.75H1015.27V324.521H1034.12V314.75Z" fill="white" stroke="#959DA8" stroke-miterlimit="10"/>
<path d="M1034.12 304.75H1015.27V314.521H1034.12V304.75Z" fill="white" stroke="#959DA8" stroke-miterlimit="10"/>
<path d="M1034.12 294.75H1015.27V304.521H1034.12V294.75Z" fill="white" stroke="#959DA8" stroke-miterlimit="10"/>
<path d="M847.122 197.75H828.262V207.3H847.122V197.75Z" fill="white" stroke="#959DA8" stroke-miterlimit="10"/>
<path d="M847.122 187.75H828.262V197.521H847.122V187.75Z" fill="white" stroke="#959DA8" stroke-miterlimit="10"/>
<path d="M847.122 177.75H828.262V187.521H847.122V177.75Z" fill="white" stroke="#959DA8" stroke-miterlimit="10"/>
<path d="M828.262 177.521H847.122V167.75H828.272V169.911L828.262 177.521Z" fill="white" stroke="#959DA8" stroke-miterlimit="10"/>
<path d="M847.123 157.75H828.273V167.521H847.123V157.75Z" fill="white" stroke="#959DA8" stroke-miterlimit="10"/>
<path d="M847.123 147.75H828.273V157.521H847.123V147.75Z" fill="white" stroke="#959DA8" stroke-miterlimit="10"/>
<path d="M847.123 137.75H828.273V147.521H847.123V137.75Z" fill="white" stroke="#959DA8" stroke-miterlimit="10"/>
<path d="M742.122 197.75H723.262V207.3H742.122V197.75Z" fill="white" stroke="#959DA8" stroke-miterlimit="10"/>
<path d="M742.122 187.75H723.262V197.521H742.122V187.75Z" fill="white" stroke="#959DA8" stroke-miterlimit="10"/>
<path d="M742.122 177.75H723.262V187.521H742.122V177.75Z" fill="white" stroke="#959DA8" stroke-miterlimit="10"/>
<path d="M723.262 177.521H742.122V167.75H723.272V169.911L723.262 177.521Z" fill="white" stroke="#959DA8" stroke-miterlimit="10"/>
<path d="M742.123 157.75H723.273V167.521H742.123V157.75Z" fill="white" stroke="#959DA8" stroke-miterlimit="10"/>
<path d="M742.123 147.75H723.273V157.521H742.123V147.75Z" fill="white" stroke="#959DA8" stroke-miterlimit="10"/>
<path d="M742.123 137.75H723.273V147.521H742.123V137.75Z" fill="white" stroke="#959DA8" stroke-miterlimit="10"/>
<path d="M527.122 197.75H508.262V207.3H527.122V197.75Z" fill="white" stroke="#959DA8" stroke-miterlimit="10"/>
<path d="M527.122 187.75H508.262V197.521H527.122V187.75Z" fill="white" stroke="#959DA8" stroke-miterlimit="10"/>
<path d="M527.122 177.75H508.262V187.521H527.122V177.75Z" fill="white" stroke="#959DA8" stroke-miterlimit="10"/>
<path d="M508.262 177.521H527.122V167.75H508.272V169.911L508.262 177.521Z" fill="white" stroke="#959DA8" stroke-miterlimit="10"/>
<path d="M527.123 157.75H508.273V167.521H527.123V157.75Z" fill="white" stroke="#959DA8" stroke-miterlimit="10"/>
<path d="M527.123 147.75H508.273V157.521H527.123V147.75Z" fill="white" stroke="#959DA8" stroke-miterlimit="10"/>
<path d="M527.123 137.75H508.273V147.521H527.123V137.75Z" fill="white" stroke="#959DA8" stroke-miterlimit="10"/>
<path d="M422.122 197.75H403.262V207.3H422.122V197.75Z" fill="white" stroke="#959DA8" stroke-miterlimit="10"/>
<path d="M422.122 187.75H403.262V197.521H422.122V187.75Z" fill="white" stroke="#959DA8" stroke-miterlimit="10"/>
<path d="M422.122 177.75H403.262V187.521H422.122V177.75Z" fill="white" stroke="#959DA8" stroke-miterlimit="10"/>
<path d="M403.262 177.521H422.122V167.75H403.272V169.911L403.262 177.521Z" fill="white" stroke="#959DA8" stroke-miterlimit="10"/>
<path d="M422.123 157.75H403.273V167.521H422.123V157.75Z" fill="white" stroke="#959DA8" stroke-miterlimit="10"/>
<path d="M422.123 147.75H403.273V157.521H422.123V147.75Z" fill="white" stroke="#959DA8" stroke-miterlimit="10"/>
<path d="M422.123 137.75H403.273V147.521H422.123V137.75Z" fill="white" stroke="#959DA8" stroke-miterlimit="10"/>
<path d="M1119.95 207.5H1138.74V137.891H1119.95V207.5Z" stroke="#959DA8" stroke-width="0.85" stroke-miterlimit="10"/>
<path d="M1034.21 133.84H1120.27V210.37H1034.21V133.84Z" fill="white" stroke="#959DA8" stroke-miterlimit="10"/>
<path d="M1077.24 133.831V210.481" stroke="#959DA8" stroke-miterlimit="10"/>
<path d="M1120.27 169.911H1034.54" stroke="#959DA8" stroke-miterlimit="10"/>
<path d="M476.753 25.3105H454.203L465.493 15.5405H465.513L476.753 25.3105Z" fill="white" stroke="#959DA8" stroke-miterlimit="10"/>
<path d="M488.263 35.3105H442.643L453.932 25.5405H477.023L488.263 35.3105Z" fill="white" stroke="#959DA8" stroke-miterlimit="10"/>
<path d="M499.764 45.3105H431.094L442.384 35.5405H488.524L499.764 45.3105Z" fill="white" stroke="#959DA8" stroke-miterlimit="10"/>
<path d="M796.753 25.3105H774.203L785.493 15.5405H785.513L796.753 25.3105Z" fill="white" stroke="#959DA8" stroke-miterlimit="10"/>
<path d="M808.263 35.3105H762.643L773.932 25.5405H797.023L808.263 35.3105Z" fill="white" stroke="#959DA8" stroke-miterlimit="10"/>
<path d="M819.764 45.3105H751.094L762.384 35.5405H808.524L819.764 45.3105Z" fill="white" stroke="#959DA8" stroke-miterlimit="10"/>
<path d="M1088.75 25.3105H1066.2L1077.49 15.5405H1077.51L1088.75 25.3105Z" fill="white" stroke="#959DA8" stroke-miterlimit="10"/>
<path d="M1100.26 35.3105H1054.64L1065.93 25.5405H1089.02L1100.26 35.3105Z" fill="white" stroke="#959DA8" stroke-miterlimit="10"/>
<path d="M1111.76 45.3105H1043.09L1054.38 35.5405H1100.52L1111.76 45.3105Z" fill="white" stroke="#959DA8" stroke-miterlimit="10"/>
<path d="M365.004 244.031V230.531L319.004 198.031L272.284 231.531L272.004 245.031L318.004 244.031H365.004Z" fill="white"/>
<path d="M272.281 246.031V231.531L319.001 198.031L365.001 230.531V245.031" stroke="#959DA8" stroke-width="2" stroke-miterlimit="10"/>
<path d="M272.281 245.531L319.001 212.031L365.001 244.531" stroke="#959DA8" stroke-miterlimit="10"/>
<path d="M1193 245.031H58.002V260.031H1193V245.031Z" fill="white" stroke="#959DA8" stroke-width="2" stroke-miterlimit="10"/>
<path d="M1122 394.331C1121.99 392.105 1122.52 389.91 1123.54 387.931C1124.56 385.952 1126.04 384.247 1127.85 382.961C1129.67 381.675 1131.77 380.846 1133.98 380.543C1136.18 380.24 1138.43 380.472 1140.52 381.221C1141.33 377.959 1142.97 374.962 1145.28 372.522C1147.6 370.082 1150.5 368.282 1153.71 367.297C1156.93 366.313 1160.34 366.177 1163.62 366.903C1166.91 367.629 1169.94 369.192 1172.44 371.441C1174.21 366.506 1177.66 362.352 1182.18 359.71C1186.71 357.069 1192.02 356.109 1197.19 357.001C1202.35 357.892 1207.04 360.577 1210.42 364.583C1213.8 368.59 1215.65 373.66 1215.66 378.901C1215.66 379.676 1215.62 380.45 1215.54 381.221C1217.05 380.671 1218.64 380.39 1220.24 380.391C1227.94 380.391 1234.64 386.641 1234.15 394.301C1234.08 395.564 1233.87 396.815 1233.52 398.031H1122.52C1122.19 396.816 1122.02 395.561 1122.02 394.301L1122 394.331Z" fill="#80C33F"/>
</svg>
