<svg width="1179" height="647" viewBox="0 0 1179 647" fill="none" xmlns="http://www.w3.org/2000/svg">
<path d="M924 0.759766H260V22.7598H924V0.759766Z" fill="#D3DCE5"/>
<path d="M198.171 427.26C197.834 427.26 197.499 427.223 197.171 427.15C181.851 423.66 181.851 405.15 181.851 405.15C181.735 394.594 184.851 384.254 190.781 375.52C191.61 374.33 192.714 373.357 194 372.686C195.286 372.015 196.715 371.664 198.166 371.664C199.616 371.664 201.045 372.015 202.331 372.686C203.617 373.357 204.722 374.33 205.551 375.52C211.484 384.253 214.604 394.592 214.491 405.15C214.491 405.15 214.491 423.73 199.171 427.15C198.842 427.223 198.507 427.26 198.171 427.26Z" fill="#80C33F"/>
<path d="M198.17 392.1V455.2" stroke="#2A3A51" stroke-linecap="round" stroke-linejoin="round"/>
<path d="M968.171 138.26C967.834 138.26 967.499 138.223 967.171 138.15C951.851 134.66 951.851 116.15 951.851 116.15C951.735 105.594 954.851 95.2543 960.781 86.52C961.61 85.3297 962.714 84.3574 964 83.6861C965.286 83.0147 966.715 82.6641 968.166 82.6641C969.616 82.6641 971.045 83.0147 972.331 83.6861C973.617 84.3574 974.722 85.3297 975.551 86.52C981.484 95.2531 984.604 105.592 984.491 116.15C984.491 116.15 984.491 134.73 969.171 138.15C968.842 138.223 968.507 138.26 968.171 138.26Z" fill="#80C33F"/>
<path d="M968.17 103.1V166.2" stroke="#2A3A51" stroke-linecap="round" stroke-linejoin="round"/>
<path d="M924 430.061C923.991 427.835 924.518 425.64 925.537 423.661C926.555 421.682 928.035 419.977 929.852 418.691C931.669 417.405 933.768 416.576 935.973 416.273C938.178 415.97 940.424 416.202 942.52 416.951C943.33 413.689 944.971 410.692 947.283 408.252C949.595 405.812 952.499 404.012 955.712 403.027C958.926 402.043 962.34 401.907 965.622 402.633C968.904 403.359 971.942 404.922 974.44 407.171C976.205 402.236 979.655 398.082 984.181 395.44C988.708 392.799 994.022 391.839 999.186 392.731C1004.35 393.622 1009.04 396.307 1012.41 400.313C1015.79 404.32 1017.65 409.39 1017.66 414.631C1017.66 415.406 1017.62 416.18 1017.54 416.951C1019.04 416.401 1018.35 432.541 1018 433.761H924.5C924.165 432.546 923.997 431.291 924 430.031V430.061Z" fill="#80C33F"/>
<path d="M322.002 146.061C322.011 143.835 321.484 141.64 320.465 139.661C319.446 137.682 317.966 135.977 316.15 134.691C314.333 133.405 312.233 132.576 310.028 132.273C307.823 131.97 305.578 132.202 303.482 132.951C302.671 129.689 301.031 126.692 298.719 124.252C296.407 121.812 293.503 120.012 290.289 119.027C287.075 118.043 283.662 117.907 280.38 118.633C277.098 119.359 274.06 120.922 271.562 123.171C269.797 118.236 266.347 114.082 261.82 111.44C257.294 108.799 251.98 107.839 246.815 108.731C241.651 109.622 236.966 112.307 233.587 116.313C230.207 120.32 228.35 125.39 228.342 130.631C228.339 131.406 228.379 132.18 228.462 132.951C226.962 132.401 227.652 148.541 228.002 149.761H321.502C321.837 148.546 322.005 147.291 322.002 146.031V146.061Z" fill="#80C33F"/>
<path d="M878.283 29.4126L308.375 31.1035L308.821 181.583L878.729 179.892L878.283 29.4126Z" fill="white" stroke="#959DA8" stroke-width="1.15" stroke-miterlimit="10"/>
<path d="M697.77 22.1606L880 22.1706V38.4006H307V22.1406L697.77 22.1606Z" fill="white" stroke="#959DA8" stroke-miterlimit="10"/>
<path d="M880 38.4089V54.6389H307V38.3789L697.77 38.3989L880 38.4089Z" fill="white" stroke="#959DA8" stroke-miterlimit="10"/>
<path d="M775.9 54.6391H880V70.8791H307V54.6191H309.75L775.9 54.6391Z" fill="white" stroke="#959DA8" stroke-miterlimit="10"/>
<path d="M309.75 70.4297L880 70.4597V86.6897H307V70.4297H309.75Z" fill="white" stroke="#959DA8" stroke-miterlimit="10"/>
<path d="M880 86.6899V102.93H307V86.6699L775.9 86.6899H880Z" fill="white" stroke="#959DA8" stroke-miterlimit="10"/>
<path d="M880 102.93V119.16H307V102.91L775.9 102.93H880Z" fill="white" stroke="#959DA8" stroke-miterlimit="10"/>
<path d="M880 119.171V135.401H307V119.141L697.77 119.161L880 119.171Z" fill="white" stroke="#959DA8" stroke-miterlimit="10"/>
<path d="M880 135.409V151.639H307V135.379L697.77 135.399L880 135.409Z" fill="white" stroke="#959DA8" stroke-miterlimit="10"/>
<path d="M775.9 151.639H880V167.879H307V151.619H309.75L775.9 151.639Z" fill="white" stroke="#959DA8" stroke-miterlimit="10"/>
<path d="M309.75 167.43L880 167.46V183.69H307V167.43H309.75Z" fill="white" stroke="#959DA8" stroke-miterlimit="10"/>
<path d="M879.335 333.389L307.338 335.086L307.798 490.085L879.795 488.388L879.335 333.389Z" fill="white" stroke="#959DA8" stroke-width="1.17" stroke-miterlimit="10"/>
<path d="M307.211 67.7598H458.211V181.65H307.211V67.7598Z" fill="white" stroke="#959DA8" stroke-miterlimit="10"/>
<path d="M382.67 68.5195V180.76" stroke="#959DA8" stroke-miterlimit="10"/>
<path d="M307.211 351.76H459.211V474.76H307.211V351.76Z" fill="white" stroke="#959DA8" stroke-miterlimit="10"/>
<path d="M383.67 352.58V473.78" stroke="#959DA8" stroke-miterlimit="10"/>
<path d="M729.211 351.76H880.211V474.76H729.211V351.76Z" fill="white" stroke="#959DA8" stroke-miterlimit="10"/>
<path d="M804.67 352.58V473.78" stroke="#959DA8" stroke-width="1.04" stroke-miterlimit="10"/>
<path d="M307.211 504.76H458.211V644.76H307.211V504.76Z" fill="white" stroke="#959DA8" stroke-miterlimit="10"/>
<path d="M382.67 505.689V643.639" stroke="#959DA8" stroke-miterlimit="10"/>
<path d="M283.211 201.76H434.211V315.65H283.211V201.76Z" fill="white" stroke="#959DA8" stroke-miterlimit="10"/>
<path d="M400.67 202.52V314.76" stroke="#959DA8" stroke-miterlimit="10"/>
<path d="M358.67 202.52V314.76" stroke="#959DA8" stroke-miterlimit="10"/>
<path d="M316.67 202.52V314.76" stroke="#959DA8" stroke-miterlimit="10"/>
<path d="M729.211 67.7598H880.211V181.65H729.211V67.7598Z" fill="white" stroke="#959DA8" stroke-miterlimit="10"/>
<path d="M804.67 68.5195V180.76" stroke="#959DA8" stroke-miterlimit="10"/>
<path d="M218 181.76V335.76H484V644.76H704V335.76H969V181.76H218Z" fill="white" stroke="#959DA8" stroke-width="2" stroke-miterlimit="10"/>
<path d="M258.211 204.76H409.211V318.65H258.211V204.76Z" fill="white" stroke="#959DA8" stroke-miterlimit="10"/>
<path d="M373.67 205.52V317.76" stroke="#959DA8" stroke-miterlimit="10"/>
<path d="M333.67 205.52V317.76" stroke="#959DA8" stroke-miterlimit="10"/>
<path d="M293.67 205.52V317.76" stroke="#959DA8" stroke-miterlimit="10"/>
<path d="M518.211 204.76H669.211V318.65H518.211V204.76Z" fill="white" stroke="#959DA8" stroke-miterlimit="10"/>
<path d="M633.67 204.52V318.76" stroke="#959DA8" stroke-miterlimit="10"/>
<path d="M593.67 204.52V318.76" stroke="#959DA8" stroke-miterlimit="10"/>
<path d="M553.67 204.52V318.76" stroke="#959DA8" stroke-miterlimit="10"/>
<path d="M446.539 204.76H480.829V318.65H446.539V204.76Z" fill="white" stroke="#959DA8" stroke-miterlimit="10"/>
<path d="M706.539 204.76H740.829V318.65H706.539V204.76Z" fill="white" stroke="#959DA8" stroke-miterlimit="10"/>
<path d="M577.539 351.76H611.829V464.76H577.539V351.76Z" fill="white" stroke="#959DA8" stroke-miterlimit="10"/>
<path d="M577.539 507.76H611.829V620.76H577.539V507.76Z" fill="white" stroke="#959DA8" stroke-miterlimit="10"/>
<path d="M735.539 507.76H769.829V620.76H735.539V507.76Z" fill="white" stroke="#959DA8" stroke-miterlimit="10"/>
<path d="M910.539 507.76H944.829V620.76H910.539V507.76Z" fill="white" stroke="#959DA8" stroke-miterlimit="10"/>
<path d="M778.211 204.76H929.211V318.65H778.211V204.76Z" fill="white" stroke="#959DA8" stroke-miterlimit="10"/>
<path d="M893.67 204.52V318.76" stroke="#959DA8" stroke-miterlimit="10"/>
<path d="M853.67 204.52V318.76" stroke="#959DA8" stroke-miterlimit="10"/>
<path d="M813.67 204.52V318.76" stroke="#959DA8" stroke-miterlimit="10"/>
<path d="M899.4 126.26V181.76H889.84L889.85 126.26H899.4Z" fill="white" stroke="#959DA8" stroke-miterlimit="10"/>
<path d="M889.4 126.26V181.76H879.84L879.85 126.26H889.4Z" fill="white" stroke="#959DA8" stroke-miterlimit="10"/>
<path d="M909.399 126.26H899.629V181.76H909.399V126.26Z" fill="white" stroke="#959DA8" stroke-miterlimit="10"/>
<path d="M919.399 126.26H909.629V181.76H919.399V126.26Z" fill="white" stroke="#959DA8" stroke-miterlimit="10"/>
<path d="M929.399 126.26H919.629V181.76H929.399V126.26Z" fill="white" stroke="#959DA8" stroke-miterlimit="10"/>
<path d="M939.399 126.26H929.629V181.76H939.399V126.26Z" fill="white" stroke="#959DA8" stroke-miterlimit="10"/>
<path d="M949.399 126.26H939.629V181.76H949.399V126.26Z" fill="white" stroke="#959DA8" stroke-miterlimit="10"/>
<path d="M959.399 126.26H949.629V181.76H959.399V126.26Z" fill="white" stroke="#959DA8" stroke-miterlimit="10"/>
<path d="M969.399 126.26H959.629V181.76H969.399V126.26Z" fill="white" stroke="#959DA8" stroke-miterlimit="10"/>
<path d="M979.399 126.26H969.629V181.76H979.399V126.26Z" fill="white" stroke="#959DA8" stroke-miterlimit="10"/>
<path d="M989.399 126.26H979.629V181.76H989.399V126.26Z" fill="white" stroke="#959DA8" stroke-miterlimit="10"/>
<path d="M989 126.76H880.27V181.76H989V126.76Z" stroke="#959DA8" stroke-width="2" stroke-miterlimit="10"/>
<path d="M147 335.76V351.76H459V474.76H147V490.76H484V335.76H147Z" fill="#D3DCE5"/>
<path d="M159.67 352.52V474.76" stroke="#959DA8" stroke-width="2" stroke-miterlimit="10"/>
<path d="M1041 335.76V351.76H729V474.76H1041V490.76H704V335.76H1041Z" fill="#D3DCE5"/>
<path d="M1028.33 352.52V474.76" stroke="#959DA8" stroke-width="2" stroke-miterlimit="10"/>
<path d="M394.4 419.26V474.76H384.84L384.85 419.26H394.4Z" fill="white" stroke="#959DA8" stroke-miterlimit="10"/>
<path d="M384.4 419.26V474.76H374.84L374.85 419.26H384.4Z" fill="white" stroke="#959DA8" stroke-miterlimit="10"/>
<path d="M404.399 419.26H394.629V474.76H404.399V419.26Z" fill="white" stroke="#959DA8" stroke-miterlimit="10"/>
<path d="M414.399 419.26H404.629V474.76H414.399V419.26Z" fill="white" stroke="#959DA8" stroke-miterlimit="10"/>
<path d="M424.399 419.26H414.629V474.76H424.399V419.26Z" fill="white" stroke="#959DA8" stroke-miterlimit="10"/>
<path d="M434.399 419.26H424.629V474.76H434.399V419.26Z" fill="white" stroke="#959DA8" stroke-miterlimit="10"/>
<path d="M444.399 419.26H434.629V474.76H444.399V419.26Z" fill="white" stroke="#959DA8" stroke-miterlimit="10"/>
<path d="M454.399 419.26H444.629V474.76H454.399V419.26Z" fill="white" stroke="#959DA8" stroke-miterlimit="10"/>
<path d="M464.399 419.26H454.629V474.76H464.399V419.26Z" fill="white" stroke="#959DA8" stroke-miterlimit="10"/>
<path d="M474.399 419.26H464.629V474.76H474.399V419.26Z" fill="white" stroke="#959DA8" stroke-miterlimit="10"/>
<path d="M484.399 419.26H474.629V474.76H484.399V419.26Z" fill="white" stroke="#959DA8" stroke-miterlimit="10"/>
<path d="M284.4 419.26V474.76H274.84L274.85 419.26H284.4Z" fill="white" stroke="#959DA8" stroke-miterlimit="10"/>
<path d="M274.4 419.26V474.76H264.84L264.85 419.26H274.4Z" fill="white" stroke="#959DA8" stroke-miterlimit="10"/>
<path d="M294.399 419.26H284.629V474.76H294.399V419.26Z" fill="white" stroke="#959DA8" stroke-miterlimit="10"/>
<path d="M304.399 419.26H294.629V474.76H304.399V419.26Z" fill="white" stroke="#959DA8" stroke-miterlimit="10"/>
<path d="M314.399 419.26H304.629V474.76H314.399V419.26Z" fill="white" stroke="#959DA8" stroke-miterlimit="10"/>
<path d="M324.399 419.26H314.629V474.76H324.399V419.26Z" fill="white" stroke="#959DA8" stroke-miterlimit="10"/>
<path d="M334.399 419.26H324.629V474.76H334.399V419.26Z" fill="white" stroke="#959DA8" stroke-miterlimit="10"/>
<path d="M344.399 419.26H334.629V474.76H344.399V419.26Z" fill="white" stroke="#959DA8" stroke-miterlimit="10"/>
<path d="M354.399 419.26H344.629V474.76H354.399V419.26Z" fill="white" stroke="#959DA8" stroke-miterlimit="10"/>
<path d="M364.399 419.26H354.629V474.76H364.399V419.26Z" fill="white" stroke="#959DA8" stroke-miterlimit="10"/>
<path d="M374.399 419.26H364.629V474.76H374.399V419.26Z" fill="white" stroke="#959DA8" stroke-miterlimit="10"/>
<path d="M174.4 419.26V474.76H164.84L164.85 419.26H174.4Z" fill="white" stroke="#959DA8" stroke-miterlimit="10"/>
<path d="M164.4 419.26V474.76H154.84L154.85 419.26H164.4Z" fill="white" stroke="#959DA8" stroke-miterlimit="10"/>
<path d="M155.4 419.26V474.76H145.84L145.85 419.26H155.4Z" fill="white" stroke="#959DA8" stroke-miterlimit="10"/>
<path d="M184.399 419.26H174.629V474.76H184.399V419.26Z" fill="white" stroke="#959DA8" stroke-miterlimit="10"/>
<path d="M194.399 419.26H184.629V474.76H194.399V419.26Z" fill="white" stroke="#959DA8" stroke-miterlimit="10"/>
<path d="M204.399 419.26H194.629V474.76H204.399V419.26Z" fill="white" stroke="#959DA8" stroke-miterlimit="10"/>
<path d="M214.399 419.26H204.629V474.76H214.399V419.26Z" fill="white" stroke="#959DA8" stroke-miterlimit="10"/>
<path d="M224.399 419.26H214.629V474.76H224.399V419.26Z" fill="white" stroke="#959DA8" stroke-miterlimit="10"/>
<path d="M234.399 419.26H224.629V474.76H234.399V419.26Z" fill="white" stroke="#959DA8" stroke-miterlimit="10"/>
<path d="M244.399 419.26H234.629V474.76H244.399V419.26Z" fill="white" stroke="#959DA8" stroke-miterlimit="10"/>
<path d="M254.399 419.26H244.629V474.76H254.399V419.26Z" fill="white" stroke="#959DA8" stroke-miterlimit="10"/>
<path d="M264.399 419.26H254.629V474.76H264.399V419.26Z" fill="white" stroke="#959DA8" stroke-miterlimit="10"/>
<path d="M484 474.76H146L147 419.76H484V474.76Z" stroke="#959DA8" stroke-width="2" stroke-miterlimit="10"/>
<path d="M952.4 419.26V474.76H942.84L942.85 419.26H952.4Z" fill="white" stroke="#959DA8" stroke-miterlimit="10"/>
<path d="M942.4 419.26V474.76H932.84L932.85 419.26H942.4Z" fill="white" stroke="#959DA8" stroke-miterlimit="10"/>
<path d="M962.399 419.26H952.629V474.76H962.399V419.26Z" fill="white" stroke="#959DA8" stroke-miterlimit="10"/>
<path d="M972.399 419.26H962.629V474.76H972.399V419.26Z" fill="white" stroke="#959DA8" stroke-miterlimit="10"/>
<path d="M982.399 419.26H972.629V474.76H982.399V419.26Z" fill="white" stroke="#959DA8" stroke-miterlimit="10"/>
<path d="M992.399 419.26H982.629V474.76H992.399V419.26Z" fill="white" stroke="#959DA8" stroke-miterlimit="10"/>
<path d="M1002.4 419.26H992.629V474.76H1002.4V419.26Z" fill="white" stroke="#959DA8" stroke-miterlimit="10"/>
<path d="M1012.4 419.26H1002.63V474.76H1012.4V419.26Z" fill="white" stroke="#959DA8" stroke-miterlimit="10"/>
<path d="M1022.4 419.26H1012.63V474.76H1022.4V419.26Z" fill="white" stroke="#959DA8" stroke-miterlimit="10"/>
<path d="M1032.4 419.26H1022.63V474.76H1032.4V419.26Z" fill="white" stroke="#959DA8" stroke-miterlimit="10"/>
<path d="M1042.4 419.26H1032.63V474.76H1042.4V419.26Z" fill="white" stroke="#959DA8" stroke-miterlimit="10"/>
<path d="M842.4 419.26V474.76H832.84L832.85 419.26H842.4Z" fill="white" stroke="#959DA8" stroke-miterlimit="10"/>
<path d="M832.4 419.26V474.76H822.84L822.85 419.26H832.4Z" fill="white" stroke="#959DA8" stroke-miterlimit="10"/>
<path d="M852.399 419.26H842.629V474.76H852.399V419.26Z" fill="white" stroke="#959DA8" stroke-miterlimit="10"/>
<path d="M862.399 419.26H852.629V474.76H862.399V419.26Z" fill="white" stroke="#959DA8" stroke-miterlimit="10"/>
<path d="M872.399 419.26H862.629V474.76H872.399V419.26Z" fill="white" stroke="#959DA8" stroke-miterlimit="10"/>
<path d="M882.399 419.26H872.629V474.76H882.399V419.26Z" fill="white" stroke="#959DA8" stroke-miterlimit="10"/>
<path d="M892.399 419.26H882.629V474.76H892.399V419.26Z" fill="white" stroke="#959DA8" stroke-miterlimit="10"/>
<path d="M902.399 419.26H892.629V474.76H902.399V419.26Z" fill="white" stroke="#959DA8" stroke-miterlimit="10"/>
<path d="M912.399 419.26H902.629V474.76H912.399V419.26Z" fill="white" stroke="#959DA8" stroke-miterlimit="10"/>
<path d="M922.399 419.26H912.629V474.76H922.399V419.26Z" fill="white" stroke="#959DA8" stroke-miterlimit="10"/>
<path d="M932.399 419.26H922.629V474.76H932.399V419.26Z" fill="white" stroke="#959DA8" stroke-miterlimit="10"/>
<path d="M732.4 419.26V474.76H722.84L722.85 419.26H732.4Z" fill="white" stroke="#959DA8" stroke-miterlimit="10"/>
<path d="M722.4 419.26V474.76H712.84L712.85 419.26H722.4Z" fill="white" stroke="#959DA8" stroke-miterlimit="10"/>
<path d="M713.4 419.26V474.76H703.84L703.85 419.26H713.4Z" fill="white" stroke="#959DA8" stroke-miterlimit="10"/>
<path d="M742.399 419.26H732.629V474.76H742.399V419.26Z" fill="white" stroke="#959DA8" stroke-miterlimit="10"/>
<path d="M752.399 419.26H742.629V474.76H752.399V419.26Z" fill="white" stroke="#959DA8" stroke-miterlimit="10"/>
<path d="M762.399 419.26H752.629V474.76H762.399V419.26Z" fill="white" stroke="#959DA8" stroke-miterlimit="10"/>
<path d="M772.399 419.26H762.629V474.76H772.399V419.26Z" fill="white" stroke="#959DA8" stroke-miterlimit="10"/>
<path d="M782.399 419.26H772.629V474.76H782.399V419.26Z" fill="white" stroke="#959DA8" stroke-miterlimit="10"/>
<path d="M792.399 419.26H782.629V474.76H792.399V419.26Z" fill="white" stroke="#959DA8" stroke-miterlimit="10"/>
<path d="M802.399 419.26H792.629V474.76H802.399V419.26Z" fill="white" stroke="#959DA8" stroke-miterlimit="10"/>
<path d="M812.399 419.26H802.629V474.76H812.399V419.26Z" fill="white" stroke="#959DA8" stroke-miterlimit="10"/>
<path d="M822.399 419.26H812.629V474.76H822.399V419.26Z" fill="white" stroke="#959DA8" stroke-miterlimit="10"/>
<path d="M1042 474.76H704L705 419.76H1042V474.76Z" stroke="#959DA8" stroke-width="2" stroke-miterlimit="10"/>
<path d="M970 490.76V645.76H217V490.76" stroke="#959DA8" stroke-width="2" stroke-miterlimit="10"/>
<path d="M547.191 583.63C547.936 580.304 547.932 576.853 547.181 573.528C546.429 570.204 544.947 567.087 542.843 564.405C540.739 561.723 538.065 559.543 535.015 558.021C531.965 556.499 528.614 555.674 525.206 555.606C521.798 555.538 518.417 556.228 515.309 557.627C512.2 559.026 509.441 561.098 507.232 563.694C505.023 566.29 503.418 569.345 502.534 572.637C501.65 575.929 501.509 579.377 502.121 582.73C499.61 583.95 497.392 585.697 495.619 587.853C493.846 590.008 492.559 592.521 491.846 595.22C491.133 597.919 491.012 600.739 491.489 603.49C491.967 606.24 493.033 608.854 494.614 611.154C496.195 613.455 498.254 615.386 500.65 616.818C503.047 618.249 505.724 619.146 508.499 619.448C511.273 619.749 514.081 619.448 516.729 618.565C519.376 617.682 521.802 616.237 523.841 614.33C525.82 616.19 528.168 617.612 530.733 618.507C533.297 619.401 536.021 619.746 538.728 619.52C541.434 619.295 544.063 618.503 546.444 617.196C548.825 615.89 550.905 614.098 552.549 611.936C554.194 609.774 555.365 607.291 555.989 604.648C556.612 602.004 556.673 599.259 556.168 596.591C555.662 593.922 554.602 591.389 553.056 589.157C551.509 586.924 549.511 585.041 547.191 583.63Z" fill="#80C33F"/>
<path d="M524.731 603.701L514.141 596.641" stroke="#2A3A51" stroke-linecap="round" stroke-linejoin="round"/>
<path d="M524.719 612.519L537.069 601.939" stroke="#2A3A51" stroke-linecap="round" stroke-linejoin="round"/>
<path d="M524.73 582.529V646.029" stroke="#2A3A51" stroke-linecap="round" stroke-linejoin="round"/>
<path d="M883.319 530.76H840.469V629.39H883.319V530.76Z" fill="#D3DCE5"/>
<path d="M877.25 537.76H846.52V586.54H877.25V537.76Z" fill="white" stroke="#959DA8" stroke-width="1.05" stroke-miterlimit="10"/>
<path d="M848.5 594.26C849.605 594.26 850.5 593.364 850.5 592.26C850.5 591.155 849.605 590.26 848.5 590.26C847.395 590.26 846.5 591.155 846.5 592.26C846.5 593.364 847.395 594.26 848.5 594.26Z" fill="white" stroke="#959DA8" stroke-miterlimit="10"/>
<path d="M798.461 530.76H841.311V629.39H798.471L798.461 530.76Z" fill="#D3DCE5"/>
<path d="M804.53 586.539H835.26V537.759H804.53V586.539Z" fill="white" stroke="#959DA8" stroke-width="1.05" stroke-miterlimit="10"/>
<path d="M833.281 594.26C834.386 594.26 835.281 593.364 835.281 592.26C835.281 591.155 834.386 590.26 833.281 590.26C832.177 590.26 831.281 591.155 831.281 592.26C831.281 593.364 832.177 594.26 833.281 594.26Z" fill="white" stroke="#959DA8" stroke-miterlimit="10"/>
<path d="M901.001 636.129H783.301V645.899H901.001V636.129Z" fill="white" stroke="#959DA8" stroke-width="1.46" stroke-miterlimit="10"/>
<path d="M901.001 626.379H783.301V636.149H901.001V626.379Z" fill="white" stroke="#959DA8" stroke-width="1.46" stroke-miterlimit="10"/>
<path d="M307.5 67.2598V22.2598H880.5V67.2598H729.5V181.67H458.14V67.2598H307.5Z" stroke="#959DA8" stroke-width="2" stroke-miterlimit="10"/>
<path d="M0.0001169 642.061C-0.00902366 639.835 0.517995 637.64 1.5366 635.661C2.5552 633.682 4.03542 631.977 5.85207 630.691C7.66871 629.405 9.76835 628.576 11.9734 628.273C14.1784 627.97 16.424 628.202 18.5201 628.951C19.3302 625.689 20.971 622.692 23.2828 620.252C25.5946 617.812 28.4987 616.012 31.7124 615.027C34.9261 614.043 38.34 613.907 41.6219 614.633C44.9037 615.359 47.9417 616.922 50.4401 619.171C52.205 614.236 55.6545 610.082 60.1813 607.44C64.708 604.799 70.0216 603.839 75.1863 604.731C80.3511 605.622 85.0356 608.307 88.4149 612.313C91.7943 616.32 93.6517 621.39 93.6601 626.631C93.663 627.406 93.6229 628.18 93.5401 628.951C95.046 628.4 96.6369 628.12 98.2401 628.121C105.94 628.121 112.64 634.371 112.15 642.031C112.08 643.294 111.868 644.545 111.52 645.761H0.500117C0.164885 644.546 -0.00332698 643.291 0.0001169 642.031V642.061Z" fill="#80C33F"/>
<path d="M189.941 569.9L212.001 646.25" stroke="#959DA8" stroke-width="2" stroke-miterlimit="10"/>
<path d="M189.099 569.9L167.039 646.25" stroke="#959DA8" stroke-width="2" stroke-miterlimit="10"/>
<path d="M108.539 596.629L111.609 606.149L117.019 622.919H189.129L183.709 606.149L180.639 596.629H108.539Z" fill="white" stroke="#959DA8" stroke-miterlimit="10"/>
<path d="M117.032 629.709H206.102V622.919H117.032V629.709Z" fill="white" stroke="#959DA8" stroke-miterlimit="10"/>
<path d="M108.539 596.629L111.609 606.149H183.709L180.639 596.629H108.539Z" fill="white" stroke="#959DA8" stroke-miterlimit="10"/>
<path d="M116.9 569.9L138.96 646.25" stroke="#959DA8" stroke-width="2" stroke-miterlimit="10"/>
<path d="M116.06 569.9L94 646.25" stroke="#959DA8" stroke-width="2" stroke-miterlimit="10"/>
<path d="M199.73 571.6H102C102 570.374 102.242 569.161 102.711 568.029C103.18 566.897 103.867 565.869 104.733 565.002C105.6 564.136 106.628 563.449 107.76 562.98C108.892 562.511 110.105 562.27 111.33 562.27H190.4C191.626 562.27 192.839 562.511 193.971 562.98C195.103 563.449 196.131 564.136 196.998 565.002C197.864 565.869 198.551 566.897 199.02 568.029C199.489 569.161 199.73 570.374 199.73 571.6Z" fill="#D3DCE5"/>
<path d="M226.25 613.379L268.06 645.689" stroke="#959DA8" stroke-miterlimit="10"/>
<path d="M268.06 613.379L226.25 645.689" stroke="#959DA8" stroke-miterlimit="10"/>
<path d="M275 607.33H220V614.38H275V607.33Z" fill="#D3DCE5"/>
<path d="M215.602 59.8496L224.512 177.22" stroke="#959DA8" stroke-width="2" stroke-linecap="round" stroke-linejoin="round"/>
<path d="M164.949 89.7588C172.988 91.6794 181.146 93.0625 189.369 93.8988L192.079 90.7588L193.329 94.2988C202.136 95.0285 210.981 95.1988 219.809 94.8088C222.243 94.7022 224.656 94.5555 227.049 94.3688L229.399 94.1688C231.993 93.9422 234.559 93.6688 237.099 93.3488L238.419 93.1788L240.069 92.9488L240.789 92.8488L241.889 88.5988L245.479 92.1188L244.969 92.2088L245.479 92.1288L245.999 92.0388L246.519 91.9488C248.153 91.6622 249.776 91.3588 251.389 91.0388L254.469 90.3988L257.679 89.6788L259.229 89.3088L259.879 89.1488L261.499 88.7388L262.289 88.5388L263.809 88.1388L266.709 87.3388H266.819L268.309 86.8988C269.259 86.6188 270.199 86.3288 271.139 86.0388C271.493 85.9212 271.81 85.7136 272.059 85.4366C272.308 85.1595 272.481 84.8225 272.561 84.4584C272.64 84.0944 272.624 83.716 272.513 83.3602C272.403 83.0043 272.201 82.6834 271.929 82.4288C269.644 80.3372 267.233 78.3869 264.709 76.5888L264.069 76.1288C262.816 75.2488 261.536 74.4088 260.229 73.6088C259.709 73.2888 259.229 72.9688 258.649 72.6688C255.989 71.1227 253.238 69.7401 250.409 68.5288L249.559 68.1688C246.674 66.9869 243.719 65.9849 240.709 65.1688L238.999 64.6188C238.089 64.3888 237.159 64.1788 236.239 63.9788C235.619 63.8488 234.999 63.7288 234.379 63.6088L233.439 63.4388L232.779 63.3288C231.739 63.1555 230.693 63.0055 229.639 62.8788L227.779 62.6788C227.009 62.6088 226.249 62.5488 225.479 62.4988L224.359 62.4288H223.899L222.169 62.3688C220.469 62.3288 218.759 62.3455 217.039 62.4188C207.034 62.8327 197.209 65.2149 188.125 69.4291C179.041 73.6433 170.877 79.6069 164.099 86.9788C163.908 87.1978 163.775 87.4622 163.714 87.7469C163.653 88.0315 163.665 88.327 163.751 88.6055C163.836 88.8839 163.99 89.1359 164.2 89.3378C164.41 89.5396 164.668 89.6845 164.949 89.7588Z" fill="#D3DCE5"/>
<path d="M241.9 88.4604C241.9 88.4604 232 66.3704 217 62.4004" stroke="#959DA8" stroke-miterlimit="10"/>
<path d="M192 90.63C192 90.63 200 67.76 214.55 62.5" stroke="#959DA8" stroke-miterlimit="10"/>
<path d="M217.4 126.26V181.76H207.84L207.85 126.26H217.4Z" fill="white" stroke="#959DA8" stroke-miterlimit="10"/>
<path d="M207.4 126.26V181.76H197.84L197.85 126.26H207.4Z" fill="white" stroke="#959DA8" stroke-miterlimit="10"/>
<path d="M227.399 126.26H217.629V181.76H227.399V126.26Z" fill="white" stroke="#959DA8" stroke-miterlimit="10"/>
<path d="M237.399 126.26H227.629V181.76H237.399V126.26Z" fill="white" stroke="#959DA8" stroke-miterlimit="10"/>
<path d="M247.399 126.26H237.629V181.76H247.399V126.26Z" fill="white" stroke="#959DA8" stroke-miterlimit="10"/>
<path d="M257.399 126.26H247.629V181.76H257.399V126.26Z" fill="white" stroke="#959DA8" stroke-miterlimit="10"/>
<path d="M267.399 126.26H257.629V181.76H267.399V126.26Z" fill="white" stroke="#959DA8" stroke-miterlimit="10"/>
<path d="M277.399 126.26H267.629V181.76H277.399V126.26Z" fill="white" stroke="#959DA8" stroke-miterlimit="10"/>
<path d="M287.399 126.26H277.629V181.76H287.399V126.26Z" fill="white" stroke="#959DA8" stroke-miterlimit="10"/>
<path d="M297.399 126.26H287.629V181.76H297.399V126.26Z" fill="white" stroke="#959DA8" stroke-miterlimit="10"/>
<path d="M307.399 126.26H297.629V181.76H307.399V126.26Z" fill="white" stroke="#959DA8" stroke-miterlimit="10"/>
<path d="M307 126.76H198.27V181.76H307V126.76Z" stroke="#959DA8" stroke-width="2" stroke-miterlimit="10"/>
<path d="M1060 607.52C1060.45 607.524 1060.9 607.477 1061.34 607.38C1081.82 602.72 1081.83 577.91 1081.83 577.91C1081.83 544.1 1060.01 527.15 1060.01 527.15C1060.01 527.15 1038.18 544.06 1038.18 577.91C1038.18 577.91 1038.18 602.75 1058.66 607.38C1059.1 607.477 1059.55 607.524 1060 607.52Z" fill="#80C33F"/>
<path d="M1060 560.51V644.9" stroke="#2A3A51" stroke-linecap="round" stroke-linejoin="round"/>
<path d="M1162.69 547.83V627.36" stroke="#959DA8" stroke-width="2" stroke-miterlimit="10"/>
<path d="M1179 572.3H1146.37L1156.57 547.83H1168.8L1179 572.3Z" fill="#D3DCE5"/>
<path d="M1160.52 547.83L1154.78 572.3" stroke="#959DA8" stroke-miterlimit="10"/>
<path d="M1164.98 547.83L1170.72 572.3" stroke="#959DA8" stroke-miterlimit="10"/>
<path d="M1120.78 583.22L1119.1 582.91C1117.81 584.716 1117.26 586.95 1117.56 589.15C1117.63 589.603 1117.86 590.012 1118.22 590.296C1118.58 590.579 1119.04 590.714 1119.49 590.673C1119.95 590.632 1120.37 590.418 1120.67 590.076C1120.98 589.733 1121.14 589.287 1121.12 588.83C1121.18 586.954 1121.06 585.076 1120.78 583.22Z" fill="white" stroke="#959DA8" stroke-miterlimit="10"/>
<path d="M1125.72 580.12L1126.17 578.47C1128.36 578.089 1130.61 578.562 1132.46 579.79C1132.84 580.047 1133.1 580.438 1133.2 580.884C1133.3 581.33 1133.23 581.797 1132.99 582.189C1132.76 582.582 1132.38 582.87 1131.94 582.995C1131.5 583.119 1131.03 583.071 1130.63 582.86C1128.91 582.098 1127.27 581.181 1125.72 580.12Z" fill="white" stroke="#959DA8" stroke-miterlimit="10"/>
<path d="M1130.76 583.69C1131.41 584.855 1131.59 586.228 1131.27 587.524C1130.94 588.819 1130.12 589.939 1128.99 590.651C1127.86 591.362 1126.5 591.612 1125.19 591.347C1123.87 591.083 1122.72 590.324 1121.95 589.23C1120.51 586.93 1119.88 581.56 1122.31 580.03C1124.74 578.5 1129.32 581.39 1130.76 583.69Z" fill="white" stroke="#959DA8" stroke-miterlimit="10"/>
<path d="M1116.95 579.267C1117.91 578.665 1118.2 577.399 1117.59 576.441C1116.99 575.482 1115.73 575.193 1114.77 575.796C1113.81 576.398 1113.52 577.664 1114.12 578.622C1114.72 579.581 1115.99 579.87 1116.95 579.267Z" fill="white" stroke="#959DA8" stroke-miterlimit="10"/>
<path d="M1126.52 579.291C1127.48 578.691 1127.77 577.424 1127.17 576.462C1126.57 575.5 1125.31 575.206 1124.34 575.806C1123.38 576.406 1123.09 577.673 1123.69 578.635C1124.29 579.597 1125.55 579.891 1126.52 579.291Z" fill="white" stroke="#959DA8" stroke-width="1.0017" stroke-miterlimit="10"/>
<path d="M1123.9 582.529C1126.33 581.001 1127.13 577.901 1125.69 575.605C1124.24 573.309 1121.1 572.687 1118.67 574.215C1116.24 575.744 1115.44 578.844 1116.88 581.14C1118.32 583.435 1121.46 584.058 1123.9 582.529Z" fill="white" stroke="#959DA8" stroke-miterlimit="10"/>
<path d="M1127.02 593.209C1127.38 591.984 1126.51 590.655 1125.09 590.241C1123.67 589.827 1122.23 590.483 1121.87 591.708C1121.52 592.933 1122.38 594.262 1123.8 594.676C1125.22 595.091 1126.66 594.434 1127.02 593.209Z" fill="white" stroke="#959DA8" stroke-width="1.02" stroke-miterlimit="10"/>
<path d="M1134.36 587.99C1134.6 586.53 1133.78 585.176 1132.52 584.967C1131.26 584.758 1130.05 585.771 1129.8 587.231C1129.56 588.691 1130.38 590.045 1131.64 590.254C1132.9 590.464 1134.12 589.45 1134.36 587.99Z" fill="white" stroke="#959DA8" stroke-miterlimit="10"/>
<path d="M1123.9 582.518C1125.09 581.771 1125.64 580.514 1125.14 579.71C1124.63 578.906 1123.26 578.859 1122.07 579.605C1120.88 580.352 1120.33 581.609 1120.84 582.413C1121.34 583.218 1122.71 583.264 1123.9 582.518Z" stroke="#959DA8" stroke-width="0.25" stroke-miterlimit="10"/>
<path d="M1119.67 579.486C1119.73 579.222 1119.56 578.96 1119.3 578.9C1119.04 578.839 1118.77 579.005 1118.71 579.268C1118.65 579.532 1118.82 579.795 1119.08 579.855C1119.35 579.915 1119.61 579.75 1119.67 579.486Z" fill="#959DA8"/>
<path d="M1123.13 577.4C1123.33 577.276 1123.39 577.017 1123.26 576.821C1123.14 576.624 1122.88 576.565 1122.68 576.689C1122.49 576.812 1122.43 577.071 1122.55 577.268C1122.68 577.464 1122.93 577.523 1123.13 577.4Z" fill="#959DA8"/>
<path d="M1123.05 581.17C1123.33 580.994 1123.44 580.672 1123.31 580.453C1123.17 580.233 1122.83 580.198 1122.55 580.374C1122.27 580.55 1122.15 580.871 1122.29 581.091C1122.43 581.311 1122.77 581.346 1123.05 581.17Z" fill="#959DA8"/>
<path d="M1123.08 581.189L1123.39 581.679" stroke="#959DA8" stroke-width="0.25" stroke-miterlimit="10"/>
<path d="M1122.63 581.97C1123.18 581.853 1123.67 581.544 1124.01 581.1" stroke="#959DA8" stroke-width="0.25" stroke-miterlimit="10"/>
<path d="M1149.23 588.061H1115.58V615.921H1149.23V588.061Z" fill="white" stroke="#959DA8" stroke-width="2" stroke-miterlimit="10"/>
<path d="M1137.13 615.921V588.061" stroke="#959DA8" stroke-miterlimit="10"/>
<path d="M1114.59 587.18L1106.69 594.02H1130.39L1137.16 587.18H1114.59Z" fill="#D3DCE5"/>
<path d="M1156.29 592.97H1143.08L1137.16 587.18H1150.36L1156.29 592.97Z" fill="#D3DCE5"/>
<path d="M1139.24 615.92H1105.59V643.78H1139.24V615.92Z" fill="white" stroke="#959DA8" stroke-width="2" stroke-miterlimit="10"/>
<path d="M1127.14 643.79V616.65" stroke="#959DA8" stroke-miterlimit="10"/>
<path d="M1172.89 615.92H1139.24V643.78H1172.89V615.92Z" fill="white" stroke="#959DA8" stroke-width="2" stroke-miterlimit="10"/>
<path d="M1166.57 643.79V615.92" stroke="#959DA8" stroke-miterlimit="10"/>
<path d="M1097.99 644.269H1076.06L1091.85 614.439H1113.78L1097.99 644.269Z" fill="white" stroke="#959DA8" stroke-width="2" stroke-miterlimit="10"/>
<path d="M1094.48 620.979C1095.71 619.09 1096.14 617.193 1095.45 616.741C1094.75 616.289 1093.19 617.454 1091.96 619.342C1090.73 621.231 1090.3 623.128 1091 623.58C1091.69 624.032 1093.25 622.867 1094.48 620.979Z" fill="#D3DCE5"/>
<path d="M1098.33 635.404C1101.33 630.794 1102.39 626.165 1100.7 625.066C1099.01 623.966 1095.21 626.812 1092.21 631.422C1089.21 636.032 1088.15 640.661 1089.83 641.761C1091.52 642.86 1095.33 640.015 1098.33 635.404Z" fill="#D3DCE5"/>
<path d="M1087.78 630.89L1097.98 618.65V630.89H1087.78Z" stroke="#959DA8" stroke-miterlimit="10"/>
</svg>
