<svg width="1300" height="499" viewBox="0 0 1300 499" fill="none" xmlns="http://www.w3.org/2000/svg">
<mask id="mask0" mask-type="alpha" maskUnits="userSpaceOnUse" x="0" y="0" width="1300" height="499">
<rect width="1300" height="499" rx="16" fill="#2A3A51"/>
</mask>
<g mask="url(#mask0)">
<path d="M791.042 359.496C792.047 354.786 791.998 349.912 790.9 345.223C789.802 340.534 787.681 336.146 784.689 332.372C781.697 328.598 777.908 325.533 773.593 323.394C769.278 321.255 764.544 320.097 759.729 320.001C754.914 319.905 750.137 320.875 745.741 322.841C741.344 324.806 737.436 327.719 734.297 331.371C731.157 335.023 728.864 339.324 727.58 343.966C726.297 348.608 726.055 353.476 726.872 358.222C723.3 359.959 720.145 362.447 717.623 365.516C715.101 368.585 713.27 372.162 712.257 376.002C711.244 379.843 711.071 383.857 711.751 387.771C712.432 391.685 713.949 395.405 716.198 398.679C718.448 401.953 721.378 404.702 724.788 406.74C728.198 408.777 732.007 410.055 735.956 410.485C739.905 410.916 743.9 410.489 747.669 409.234C751.438 407.979 754.891 405.925 757.794 403.213C760.614 405.849 763.956 407.865 767.604 409.129C771.252 410.393 775.125 410.878 778.972 410.553C782.819 410.227 786.555 409.098 789.938 407.238C793.322 405.379 796.278 402.83 798.615 399.757C800.952 396.684 802.618 393.155 803.507 389.398C804.395 385.64 804.485 381.739 803.771 377.944C803.058 374.15 801.556 370.548 799.363 367.37C797.17 364.192 794.336 361.51 791.042 359.496Z" fill="#80C33F"/>
<path fill-rule="evenodd" clip-rule="evenodd" d="M743.397 377.633C743.614 377.307 744.055 377.219 744.381 377.436L759.452 387.48C759.779 387.698 759.867 388.139 759.65 388.465C759.432 388.791 758.991 388.879 758.665 388.662L743.594 378.618C743.267 378.4 743.179 377.96 743.397 377.633Z" fill="#2A3A51"/>
<path fill-rule="evenodd" clip-rule="evenodd" d="M777.187 385.1C777.442 385.398 777.407 385.846 777.109 386.101L759.519 401.162C759.222 401.417 758.773 401.383 758.518 401.085C758.263 400.787 758.298 400.339 758.596 400.084L776.186 385.023C776.484 384.768 776.932 384.802 777.187 385.1Z" fill="#2A3A51"/>
<path fill-rule="evenodd" clip-rule="evenodd" d="M759.058 357.218C759.45 357.218 759.768 357.535 759.768 357.928V448.345C759.768 448.737 759.45 449.055 759.058 449.055C758.666 449.055 758.348 448.737 758.348 448.345V357.928C758.348 357.535 758.666 357.218 759.058 357.218Z" fill="#2A3A51"/>
<path fill-rule="evenodd" clip-rule="evenodd" d="M809.824 474.052L832.138 396.825L833.771 397.297L811.457 474.524L809.824 474.052Z" fill="#959DA8"/>
<path fill-rule="evenodd" clip-rule="evenodd" d="M855.3 474.524L832.996 397.297L834.629 396.825L856.933 474.052L855.3 474.524Z" fill="#959DA8"/>
<path d="M915.29 424.098L912.184 433.728L906.712 450.691H833.773L839.256 433.728L842.361 424.098H915.29Z" fill="#F4F5F6"/>
<path fill-rule="evenodd" clip-rule="evenodd" d="M842.053 423.673H915.875L907.024 451.116H833.191L838.853 433.597L842.053 423.673ZM842.672 424.523L834.359 450.266H906.405L914.708 424.523H842.672Z" fill="#959DA8"/>
<path d="M906.711 450.692H816.617V457.56H906.711V450.692Z" fill="#F4F5F6"/>
<path fill-rule="evenodd" clip-rule="evenodd" d="M816.188 450.262H907.141V457.99H816.188V450.262ZM817.048 451.122V457.13H906.281V451.122H817.048Z" fill="#959DA8"/>
<path d="M915.288 424.098L912.183 433.728H839.254L842.359 424.098H915.288Z" fill="#F4F5F6"/>
<path fill-rule="evenodd" clip-rule="evenodd" d="M842.042 423.663H915.885L912.499 434.163H838.656L842.042 423.663ZM842.676 424.533L839.851 433.293H911.866L914.69 424.533H842.676Z" fill="#959DA8"/>
<path fill-rule="evenodd" clip-rule="evenodd" d="M883.715 474.052L906.018 396.825L907.652 397.297L885.348 474.524L883.715 474.052Z" fill="#959DA8"/>
<path fill-rule="evenodd" clip-rule="evenodd" d="M929.178 474.524L906.875 397.297L908.508 396.825L930.812 474.052L929.178 474.524Z" fill="#959DA8"/>
<path d="M921.904 389.344H823.051V398.781H921.904V389.344Z" fill="#D3DCE5"/>
<path fill-rule="evenodd" clip-rule="evenodd" d="M838.891 450.519L844.201 433.597L845.031 433.858L839.721 450.78L838.891 450.519Z" fill="#959DA8"/>
<path fill-rule="evenodd" clip-rule="evenodd" d="M845.629 450.519L850.939 433.597L851.769 433.858L846.459 450.78L845.629 450.519Z" fill="#959DA8"/>
<path fill-rule="evenodd" clip-rule="evenodd" d="M852.375 450.519L857.685 433.597L858.515 433.858L853.205 450.78L852.375 450.519Z" fill="#959DA8"/>
<path fill-rule="evenodd" clip-rule="evenodd" d="M859.121 450.519L864.431 433.597L865.262 433.858L859.951 450.78L859.121 450.519Z" fill="#959DA8"/>
<path fill-rule="evenodd" clip-rule="evenodd" d="M865.859 450.519L871.17 433.597L872 433.858L866.689 450.78L865.859 450.519Z" fill="#959DA8"/>
<path fill-rule="evenodd" clip-rule="evenodd" d="M872.605 450.519L877.916 433.597L878.746 433.858L873.436 450.78L872.605 450.519Z" fill="#959DA8"/>
<path fill-rule="evenodd" clip-rule="evenodd" d="M879.352 450.519L884.662 433.597L885.492 433.858L880.182 450.78L879.352 450.519Z" fill="#959DA8"/>
<path fill-rule="evenodd" clip-rule="evenodd" d="M886.086 450.519L891.396 433.597L892.226 433.858L886.916 450.78L886.086 450.519Z" fill="#959DA8"/>
<path fill-rule="evenodd" clip-rule="evenodd" d="M892.836 450.519L898.146 433.597L898.976 433.858L893.666 450.78L892.836 450.519Z" fill="#959DA8"/>
<path fill-rule="evenodd" clip-rule="evenodd" d="M899.582 450.519L904.892 433.597L905.722 433.858L900.412 450.78L899.582 450.519Z" fill="#959DA8"/>
<path d="M701.656 431.94L693.462 423.747L685.269 431.94L685.219 473.513H701.656V431.94Z" fill="#F4F5F6"/>
<path fill-rule="evenodd" clip-rule="evenodd" d="M693.464 422.333L702.657 431.526V474.513H684.219L684.271 431.526L693.464 422.333ZM686.27 432.355L686.221 472.513H700.657V432.355L693.464 425.162L686.27 432.355Z" fill="#959DA8"/>
<path d="M718.08 431.941L709.887 423.748L701.693 431.941L701.633 473.514H718.08V431.941Z" fill="#F4F5F6"/>
<path fill-rule="evenodd" clip-rule="evenodd" d="M709.888 422.334L719.081 431.527V474.514H700.633L700.696 431.527L709.888 422.334ZM702.694 432.356L702.636 472.514H717.081V432.356L709.888 425.163L702.694 432.356Z" fill="#959DA8"/>
<path d="M734.509 431.941L726.316 423.748L718.123 431.941L718.062 473.514H734.509V431.941Z" fill="#F4F5F6"/>
<path fill-rule="evenodd" clip-rule="evenodd" d="M726.314 422.334L735.507 431.527V474.514H717.059L717.121 431.527L726.314 422.334ZM719.12 432.356L719.062 472.514H733.507V432.356L726.314 425.163L719.12 432.356Z" fill="#959DA8"/>
<path d="M750.925 431.941L742.732 423.748L734.539 431.941L734.488 473.514H750.925V431.941Z" fill="#F4F5F6"/>
<path fill-rule="evenodd" clip-rule="evenodd" d="M742.733 422.334L751.926 431.527V474.514H733.488L733.541 431.527L742.733 422.334ZM735.54 432.356L735.491 472.514H749.926V432.356L742.733 425.163L735.54 432.356Z" fill="#959DA8"/>
<path d="M767.349 431.941L759.156 423.748L750.963 431.941L750.902 473.514H767.349V431.941Z" fill="#F4F5F6"/>
<path fill-rule="evenodd" clip-rule="evenodd" d="M759.158 422.334L768.351 431.527V474.514H749.902L749.965 431.527L759.158 422.334ZM751.964 432.356L751.905 472.514H766.351V432.356L759.158 425.163L751.964 432.356Z" fill="#959DA8"/>
<path d="M783.779 431.941L775.586 423.748L767.393 431.941L767.332 473.514H783.779V431.941Z" fill="#F4F5F6"/>
<path fill-rule="evenodd" clip-rule="evenodd" d="M775.587 422.334L784.78 431.527V474.514H766.332L766.395 431.527L775.587 422.334ZM768.394 432.356L768.335 472.514H782.78V432.356L775.587 425.163L768.394 432.356Z" fill="#959DA8"/>
<path fill-rule="evenodd" clip-rule="evenodd" d="M299.852 324.621H301.852V472.311H478.875V474.311H299.852V324.621Z" fill="#959DA8"/>
<path d="M359.617 360.276H339.59V423.707H359.617V360.276Z" fill="white"/>
<path fill-rule="evenodd" clip-rule="evenodd" d="M339.09 359.776H360.117V424.207H339.09V359.776ZM340.09 360.776V423.207H359.117V360.776H340.09Z" fill="#959DA8"/>
<path fill-rule="evenodd" clip-rule="evenodd" d="M432.059 233.653H507.484V276.161H506.484V234.653H433.059V279.687H501.927V280.687H432.059V233.653Z" fill="#959DA8"/>
<path d="M466.835 240.222H438.918V273.956H466.835V240.222Z" fill="white"/>
<path fill-rule="evenodd" clip-rule="evenodd" d="M438.418 239.722H467.335V274.456H438.418V239.722ZM439.418 240.722V273.456H466.335V240.722H439.418Z" fill="#959DA8"/>
<path d="M500.853 240.222H472.977V273.956H500.843L500.853 240.222Z" fill="white"/>
<path fill-rule="evenodd" clip-rule="evenodd" d="M472.477 239.722H501.353L501.343 274.456H472.477V239.722ZM473.477 240.722V273.456H500.343L500.353 240.722H473.477Z" fill="#959DA8"/>
<path fill-rule="evenodd" clip-rule="evenodd" d="M685.221 314.142V412.929H637.777V411.929H684.221V314.142H685.221Z" fill="#959DA8"/>
<path fill-rule="evenodd" clip-rule="evenodd" d="M522.277 340.028H638.778V472.866H636.778V342.028H524.277V471.855H522.277V340.028Z" fill="#959DA8"/>
<path fill-rule="evenodd" clip-rule="evenodd" d="M685.731 313.495V474.311H475.363V313.941H477.363V472.311H683.731V313.495H685.731Z" fill="#959DA8"/>
<path d="M675.265 377.927L661.458 370.138L647.793 378.2L648.177 378.19L651.364 401.646L671.927 401.383L674.81 377.927H675.265Z" fill="#D3DCE5"/>
<path d="M671.25 381.799H652.031V385.845H671.25V381.799Z" fill="white"/>
<path fill-rule="evenodd" clip-rule="evenodd" d="M651.531 381.299H671.75V386.345H651.531V381.299ZM652.531 382.299V385.345H670.75V382.299H652.531Z" fill="#959DA8"/>
<path fill-rule="evenodd" clip-rule="evenodd" d="M470.953 193.852L539.462 246.4L538.854 247.193L470.953 195.112L298.484 327.677L297.875 326.885L470.953 193.852Z" fill="#959DA8"/>
<path fill-rule="evenodd" clip-rule="evenodd" d="M470.954 180.738L479.665 187.448L547.354 239.429L546.136 241.015L478.446 189.033L470.953 183.262L285.577 326.281H297.992L300.588 325.267L301.316 327.13L298.369 328.281H279.711L470.954 180.738Z" fill="#959DA8"/>
<path d="M548.536 359.112H533.293V409.93H548.536V359.112Z" fill="white"/>
<path fill-rule="evenodd" clip-rule="evenodd" d="M532.793 358.612H549.036V410.43H532.793V358.612ZM533.793 359.612V409.43H548.036V359.612H533.793Z" fill="#959DA8"/>
<path d="M601.749 359.112H558.406V453.272H601.749V359.112Z" fill="#D3DCE5"/>
<path d="M595.611 365.091H564.527V409.93H595.611V365.091Z" fill="white"/>
<path fill-rule="evenodd" clip-rule="evenodd" d="M564.027 364.591H596.111V410.43H564.027V364.591ZM565.027 365.591V409.43H595.111V365.591H565.027Z" fill="#959DA8"/>
<path d="M595.882 417.678C595.882 418.796 594.976 419.701 593.859 419.701C592.742 419.701 591.836 418.796 591.836 417.678C591.836 416.561 592.742 415.655 593.859 415.655C594.976 415.655 595.882 416.561 595.882 417.678Z" fill="white"/>
<path fill-rule="evenodd" clip-rule="evenodd" d="M593.859 416.155C593.018 416.155 592.336 416.837 592.336 417.678C592.336 418.52 593.018 419.201 593.859 419.201C594.7 419.201 595.382 418.52 595.382 417.678C595.382 416.837 594.7 416.155 593.859 416.155ZM591.336 417.678C591.336 416.285 592.466 415.155 593.859 415.155C595.252 415.155 596.382 416.285 596.382 417.678C596.382 419.072 595.252 420.201 593.859 420.201C592.466 420.201 591.336 419.072 591.336 417.678Z" fill="#959DA8"/>
<path fill-rule="evenodd" clip-rule="evenodd" d="M488.524 303.466H672.315L685.806 314.328H476.336L488.524 303.466ZM488.905 304.466L478.961 313.328H682.969L671.962 304.466H488.905Z" fill="#959DA8"/>
<path d="M427.924 360.215H369.379V423.787H427.924V360.215Z" fill="white"/>
<path fill-rule="evenodd" clip-rule="evenodd" d="M368.879 359.715H428.424V424.287H368.879V359.715ZM369.879 360.715V423.287H427.424V360.715H369.879Z" fill="#959DA8"/>
<path fill-rule="evenodd" clip-rule="evenodd" d="M427.923 386.316H369.367V385.316H427.923V386.316Z" fill="#959DA8"/>
<path fill-rule="evenodd" clip-rule="evenodd" d="M398.141 385.816V360.215H399.141V385.816H398.141Z" fill="#959DA8"/>
<path fill-rule="evenodd" clip-rule="evenodd" d="M359.781 386.368H339.703V385.368H359.781V386.368Z" fill="#959DA8"/>
<path d="M457.731 360.286H437.633V423.707H457.731V360.286Z" fill="white"/>
<path fill-rule="evenodd" clip-rule="evenodd" d="M437.133 359.786H458.231V424.207H437.133V359.786ZM438.133 360.786V423.207H457.231V360.786H438.133Z" fill="#959DA8"/>
<path fill-rule="evenodd" clip-rule="evenodd" d="M457.701 386.387H437.633V385.387H457.701V386.387Z" fill="#959DA8"/>
<path fill-rule="evenodd" clip-rule="evenodd" d="M548.536 378.143H533.293V377.143H548.536V378.143Z" fill="#959DA8"/>
<path d="M626.552 359.112H611.309V409.93H626.552V359.112Z" fill="white"/>
<path fill-rule="evenodd" clip-rule="evenodd" d="M610.809 358.612H627.052V410.43H610.809V358.612ZM611.809 359.612V409.43H626.052V359.612H611.809Z" fill="#959DA8"/>
<path fill-rule="evenodd" clip-rule="evenodd" d="M626.552 378.143H611.309V377.143H626.552V378.143Z" fill="#959DA8"/>
<path fill-rule="evenodd" clip-rule="evenodd" d="M580.497 223.882L683.572 313.299L682.917 314.055L580.497 225.206L478.077 314.055L477.422 313.299L580.497 223.882Z" fill="#959DA8"/>
<path fill-rule="evenodd" clip-rule="evenodd" d="M580.517 209.781L700.185 314.676H683.245V312.676H694.869L580.517 212.44L466.126 312.676H477.749V314.676H460.809L580.517 209.781Z" fill="#959DA8"/>
<path fill-rule="evenodd" clip-rule="evenodd" d="M475.938 411.676H523.478V412.676H475.938V411.676Z" fill="#959DA8"/>
<path fill-rule="evenodd" clip-rule="evenodd" d="M522.918 452.762H638.409V463.645H522.918V452.762ZM523.918 453.762V462.645H637.409V453.762H523.918Z" fill="#959DA8"/>
<path fill-rule="evenodd" clip-rule="evenodd" d="M522.918 462.877H638.409V473.76H522.918V462.877ZM523.918 463.877V472.76H637.409V463.877H523.918Z" fill="#959DA8"/>
<path d="M305.698 384.352C306.703 379.643 306.655 374.769 305.556 370.08C304.458 365.391 302.337 361.002 299.345 357.228C296.353 353.455 292.564 350.389 288.249 348.25C283.934 346.111 279.2 344.953 274.385 344.857C269.57 344.762 264.793 345.731 260.397 347.697C256 349.663 252.093 352.576 248.953 356.228C245.814 359.88 243.52 364.18 242.237 368.822C240.953 373.464 240.711 378.332 241.529 383.078C237.957 384.816 234.802 387.304 232.279 390.372C229.757 393.441 227.927 397.018 226.913 400.859C225.9 404.699 225.728 408.714 226.408 412.627C227.088 416.541 228.605 420.262 230.855 423.535C233.105 426.809 236.035 429.558 239.444 431.596C242.854 433.633 246.664 434.911 250.613 435.342C254.561 435.772 258.557 435.345 262.325 434.09C266.094 432.835 269.548 430.781 272.45 428.069C275.27 430.706 278.613 432.721 282.261 433.985C285.908 435.25 289.781 435.735 293.628 435.409C297.475 435.083 301.211 433.954 304.595 432.095C307.978 430.235 310.934 427.686 313.271 424.613C315.608 421.54 317.275 418.011 318.163 414.254C319.051 410.497 319.141 406.595 318.428 402.801C317.714 399.006 316.212 395.404 314.019 392.226C311.827 389.049 308.992 386.366 305.698 384.352Z" fill="#80C33F"/>
<path fill-rule="evenodd" clip-rule="evenodd" d="M258.053 402.49C258.27 402.164 258.711 402.076 259.037 402.293L274.109 412.338C274.435 412.555 274.523 412.996 274.306 413.322C274.088 413.648 273.648 413.737 273.321 413.519L258.25 403.475C257.924 403.258 257.835 402.817 258.053 402.49Z" fill="#2A3A51"/>
<path fill-rule="evenodd" clip-rule="evenodd" d="M291.843 409.957C292.098 410.255 292.063 410.703 291.766 410.958L274.176 426.019C273.878 426.274 273.43 426.24 273.175 425.942C272.92 425.644 272.954 425.196 273.252 424.941L290.842 409.88C291.14 409.625 291.588 409.659 291.843 409.957Z" fill="#2A3A51"/>
<path fill-rule="evenodd" clip-rule="evenodd" d="M273.714 382.075C274.106 382.075 274.424 382.393 274.424 382.785V473.202C274.424 473.594 274.106 473.912 273.714 473.912C273.322 473.912 273.004 473.594 273.004 473.202V382.785C273.004 382.393 273.322 382.075 273.714 382.075Z" fill="#2A3A51"/>
<path d="M533.606 469.278C533.611 470.436 533.458 471.59 533.151 472.707H431.162C430.843 471.589 430.649 470.439 430.585 469.278C430.14 462.197 436.29 456.493 443.37 456.493C444.841 456.495 446.299 456.755 447.679 457.261C447.603 456.553 447.566 455.84 447.568 455.127C447.583 450.317 449.294 445.666 452.398 441.991C455.503 438.317 459.804 435.855 464.544 435.037C469.285 434.219 474.161 435.099 478.318 437.521C482.474 439.943 485.644 443.752 487.269 448.279C489.564 446.21 492.355 444.771 495.372 444.102C498.388 443.433 501.526 443.557 504.48 444.462C507.434 445.366 510.104 447.021 512.228 449.264C514.353 451.507 515.86 454.262 516.603 457.261C518.528 456.575 520.59 456.361 522.615 456.64C524.64 456.918 526.568 457.679 528.236 458.86C529.905 460.04 531.265 461.605 532.201 463.422C533.138 465.239 533.623 467.254 533.616 469.298L533.606 469.278Z" fill="#80C33F"/>
<path d="M717.813 236.112H661V265.889H717.813V236.112Z" fill="white"/>
<path d="M717.766 236H661V238.356H717.766V236Z" fill="#B22234"/>
<path d="M717.769 240.608H661.004V242.963H717.769V240.608Z" fill="#B22234"/>
<path d="M717.769 245.215H661.004V247.571H717.769V245.215Z" fill="#B22234"/>
<path d="M717.769 249.823H661.004V252.178H717.769V249.823Z" fill="#B22234"/>
<path d="M717.769 254.43H661.004V256.785H717.769V254.43Z" fill="#B22234"/>
<path d="M717.769 259.037H661.004V261.392H717.769V259.037Z" fill="#B22234"/>
<path d="M717.769 263.645H661.004V266H717.769V263.645Z" fill="#B22234"/>
<path d="M683.672 236H661V252.179H683.672V236Z" fill="#2A3A51"/>
<path d="M662.926 236.619L663.138 237.28H663.825L663.269 237.688L663.482 238.349L662.926 237.94L662.371 238.349L662.583 237.688L662.027 237.28H662.714L662.926 236.619Z" fill="white"/>
<path d="M664.797 238.279L665.009 238.94H665.696L665.141 239.348L665.353 240.009L664.797 239.601L664.242 240.009L664.454 239.348L663.898 238.94H664.585L664.797 238.279Z" fill="white"/>
<path d="M664.797 241.523L665.009 242.183H665.696L665.141 242.592L665.353 243.252L664.797 242.844L664.242 243.252L664.454 242.592L663.898 242.183H664.585L664.797 241.523Z" fill="white"/>
<path d="M664.797 244.767L665.009 245.427H665.696L665.141 245.835L665.353 246.495L664.797 246.087L664.242 246.495L664.454 245.835L663.898 245.427H664.585L664.797 244.767Z" fill="white"/>
<path d="M664.797 248.01L665.009 248.67H665.696L665.141 249.079L665.353 249.739L664.797 249.331L664.242 249.739L664.454 249.079L663.898 248.67H664.585L664.797 248.01Z" fill="white"/>
<path d="M668.582 238.279L668.794 238.94H669.481L668.926 239.348L669.138 240.009L668.582 239.601L668.027 240.009L668.239 239.348L667.684 238.94H668.37L668.582 238.279Z" fill="white"/>
<path d="M668.582 241.523L668.794 242.183H669.481L668.926 242.592L669.138 243.252L668.582 242.844L668.027 243.252L668.239 242.592L667.684 242.183H668.37L668.582 241.523Z" fill="white"/>
<path d="M668.582 244.767L668.794 245.427H669.481L668.926 245.835L669.138 246.495L668.582 246.087L668.027 246.495L668.239 245.835L667.684 245.427H668.37L668.582 244.767Z" fill="white"/>
<path d="M668.582 248.01L668.794 248.67H669.481L668.926 249.079L669.138 249.739L668.582 249.331L668.027 249.739L668.239 249.079L667.684 248.67H668.37L668.582 248.01Z" fill="white"/>
<path d="M672.371 238.279L672.584 238.94H673.27L672.715 239.348L672.927 240.009L672.371 239.601L671.816 240.009L672.028 239.348L671.473 238.94H672.159L672.371 238.279Z" fill="white"/>
<path d="M672.371 241.523L672.584 242.183H673.27L672.715 242.592L672.927 243.252L672.371 242.844L671.816 243.252L672.028 242.592L671.473 242.183H672.159L672.371 241.523Z" fill="white"/>
<path d="M672.371 244.767L672.584 245.427H673.27L672.715 245.835L672.927 246.495L672.371 246.087L671.816 246.495L672.028 245.835L671.473 245.427H672.159L672.371 244.767Z" fill="white"/>
<path d="M672.371 248.01L672.584 248.67H673.27L672.715 249.079L672.927 249.739L672.371 249.331L671.816 249.739L672.028 249.079L671.473 248.67H672.159L672.371 248.01Z" fill="white"/>
<path d="M676.16 238.279L676.373 238.94H677.059L676.504 239.348L676.716 240.009L676.16 239.601L675.605 240.009L675.817 239.348L675.262 238.94H675.948L676.16 238.279Z" fill="white"/>
<path d="M676.16 241.523L676.373 242.183H677.059L676.504 242.592L676.716 243.252L676.16 242.844L675.605 243.252L675.817 242.592L675.262 242.183H675.948L676.16 241.523Z" fill="white"/>
<path d="M676.16 244.767L676.373 245.427H677.059L676.504 245.835L676.716 246.495L676.16 246.087L675.605 246.495L675.817 245.835L675.262 245.427H675.948L676.16 244.767Z" fill="white"/>
<path d="M676.16 248.01L676.373 248.67H677.059L676.504 249.079L676.716 249.739L676.16 249.331L675.605 249.739L675.817 249.079L675.262 248.67H675.948L676.16 248.01Z" fill="white"/>
<path d="M679.949 238.279L680.162 238.94H680.848L680.293 239.348L680.505 240.009L679.949 239.601L679.394 240.009L679.606 239.348L679.051 238.94H679.737L679.949 238.279Z" fill="white"/>
<path d="M679.949 241.523L680.162 242.183H680.848L680.293 242.592L680.505 243.252L679.949 242.844L679.394 243.252L679.606 242.592L679.051 242.183H679.737L679.949 241.523Z" fill="white"/>
<path d="M679.949 244.767L680.162 245.427H680.848L680.293 245.835L680.505 246.495L679.949 246.087L679.394 246.495L679.606 245.835L679.051 245.427H679.737L679.949 244.767Z" fill="white"/>
<path d="M679.949 248.01L680.162 248.67H680.848L680.293 249.079L680.505 249.739L679.949 249.331L679.394 249.739L679.606 249.079L679.051 248.67H679.737L679.949 248.01Z" fill="white"/>
<path d="M662.926 239.863L663.138 240.523H663.825L663.269 240.931L663.482 241.592L662.926 241.184L662.371 241.592L662.583 240.931L662.027 240.523H662.714L662.926 239.863Z" fill="white"/>
<path d="M662.926 243.107L663.138 243.767H663.825L663.269 244.175L663.482 244.835L662.926 244.427L662.371 244.835L662.583 244.175L662.027 243.767H662.714L662.926 243.107Z" fill="white"/>
<path d="M662.926 246.35L663.138 247.01H663.825L663.269 247.419L663.482 248.079L662.926 247.671L662.371 248.079L662.583 247.419L662.027 247.01H662.714L662.926 246.35Z" fill="white"/>
<path d="M662.926 249.594L663.138 250.254H663.825L663.269 250.662L663.482 251.322L662.926 250.914L662.371 251.322L662.583 250.662L662.027 250.254H662.714L662.926 249.594Z" fill="white"/>
<path d="M666.664 236.619L666.876 237.28H667.563L667.008 237.688L667.22 238.349L666.664 237.94L666.109 238.349L666.321 237.688L665.766 237.28H666.452L666.664 236.619Z" fill="white"/>
<path d="M666.664 239.863L666.876 240.523H667.563L667.008 240.931L667.22 241.592L666.664 241.184L666.109 241.592L666.321 240.931L665.766 240.523H666.452L666.664 239.863Z" fill="white"/>
<path d="M666.664 243.107L666.876 243.767H667.563L667.008 244.175L667.22 244.835L666.664 244.427L666.109 244.835L666.321 244.175L665.766 243.767H666.452L666.664 243.107Z" fill="white"/>
<path d="M666.664 246.35L666.876 247.01H667.563L667.008 247.419L667.22 248.079L666.664 247.671L666.109 248.079L666.321 247.419L665.766 247.01H666.452L666.664 246.35Z" fill="white"/>
<path d="M666.664 249.594L666.876 250.254H667.563L667.008 250.662L667.22 251.322L666.664 250.914L666.109 251.322L666.321 250.662L665.766 250.254H666.452L666.664 249.594Z" fill="white"/>
<path d="M670.504 236.619L670.716 237.28H671.403L670.848 237.688L671.06 238.349L670.504 237.94L669.949 238.349L670.161 237.688L669.605 237.28H670.292L670.504 236.619Z" fill="white"/>
<path d="M670.504 239.863L670.716 240.523H671.403L670.848 240.931L671.06 241.592L670.504 241.184L669.949 241.592L670.161 240.931L669.605 240.523H670.292L670.504 239.863Z" fill="white"/>
<path d="M670.504 243.107L670.716 243.767H671.403L670.848 244.175L671.06 244.835L670.504 244.427L669.949 244.835L670.161 244.175L669.605 243.767H670.292L670.504 243.107Z" fill="white"/>
<path d="M670.504 246.35L670.716 247.01H671.403L670.848 247.419L671.06 248.079L670.504 247.671L669.949 248.079L670.161 247.419L669.605 247.01H670.292L670.504 246.35Z" fill="white"/>
<path d="M670.504 249.594L670.716 250.254H671.403L670.848 250.662L671.06 251.322L670.504 250.914L669.949 251.322L670.161 250.662L669.605 250.254H670.292L670.504 249.594Z" fill="white"/>
<path d="M674.266 236.619L674.478 237.28H675.165L674.609 237.688L674.821 238.349L674.266 237.94L673.71 238.349L673.922 237.688L673.367 237.28H674.054L674.266 236.619Z" fill="white"/>
<path d="M674.266 239.863L674.478 240.523H675.165L674.609 240.931L674.821 241.592L674.266 241.184L673.71 241.592L673.922 240.931L673.367 240.523H674.054L674.266 239.863Z" fill="white"/>
<path d="M674.266 243.107L674.478 243.767H675.165L674.609 244.175L674.821 244.835L674.266 244.427L673.71 244.835L673.922 244.175L673.367 243.767H674.054L674.266 243.107Z" fill="white"/>
<path d="M674.266 246.35L674.478 247.01H675.165L674.609 247.419L674.821 248.079L674.266 247.671L673.71 248.079L673.922 247.419L673.367 247.01H674.054L674.266 246.35Z" fill="white"/>
<path d="M674.266 249.594L674.478 250.254H675.165L674.609 250.662L674.821 251.322L674.266 250.914L673.71 251.322L673.922 250.662L673.367 250.254H674.054L674.266 249.594Z" fill="white"/>
<path d="M678.028 236.619L678.24 237.28H678.926L678.371 237.688L678.583 238.349L678.028 237.94L677.472 238.349L677.684 237.688L677.129 237.28H677.815L678.028 236.619Z" fill="white"/>
<path d="M678.028 239.863L678.24 240.523H678.926L678.371 240.931L678.583 241.592L678.028 241.184L677.472 241.592L677.684 240.931L677.129 240.523H677.815L678.028 239.863Z" fill="white"/>
<path d="M678.028 243.107L678.24 243.767H678.926L678.371 244.175L678.583 244.835L678.028 244.427L677.472 244.835L677.684 244.175L677.129 243.767H677.815L678.028 243.107Z" fill="white"/>
<path d="M678.028 246.35L678.24 247.01H678.926L678.371 247.419L678.583 248.079L678.028 247.671L677.472 248.079L677.684 247.419L677.129 247.01H677.815L678.028 246.35Z" fill="white"/>
<path d="M678.028 249.594L678.24 250.254H678.926L678.371 250.662L678.583 251.322L678.028 250.914L677.472 251.322L677.684 250.662L677.129 250.254H677.815L678.028 249.594Z" fill="white"/>
<path d="M681.868 236.619L682.08 237.28H682.767L682.211 237.688L682.423 238.349L681.868 237.94L681.312 238.349L681.524 237.688L680.969 237.28H681.655L681.868 236.619Z" fill="white"/>
<path d="M681.868 239.863L682.08 240.523H682.767L682.211 240.931L682.423 241.592L681.868 241.184L681.312 241.592L681.524 240.931L680.969 240.523H681.655L681.868 239.863Z" fill="white"/>
<path d="M681.868 243.107L682.08 243.767H682.767L682.211 244.175L682.423 244.835L681.868 244.427L681.312 244.835L681.524 244.175L680.969 243.767H681.655L681.868 243.107Z" fill="white"/>
<path d="M681.868 246.35L682.08 247.01H682.767L682.211 247.419L682.423 248.079L681.868 247.671L681.312 248.079L681.524 247.419L680.969 247.01H681.655L681.868 246.35Z" fill="white"/>
<path d="M681.868 249.594L682.08 250.254H682.767L682.211 250.662L682.423 251.322L681.868 250.914L681.312 251.322L681.524 250.662L680.969 250.254H681.655L681.868 249.594Z" fill="white"/>
<path d="M661 282.5V265.5M661 265.5V236H717.295V265.5H661Z" stroke="#959DA8" stroke-miterlimit="10"/>
<line y1="474" x2="1300" y2="474" stroke="#D9DDE2" stroke-width="2" stroke-miterlimit="10"/>
</g>
</svg>
