<svg width="1300" height="499" viewBox="0 0 1300 499" fill="none" xmlns="http://www.w3.org/2000/svg">
<mask id="mask0" mask-type="alpha" maskUnits="userSpaceOnUse" x="0" y="0" width="1300" height="499">
<rect width="1300" height="499" rx="16" fill="#2A3A51"/>
</mask>
<g mask="url(#mask0)">
<path d="M356.967 470.957L285.966 471.027L285.656 163.024L356.657 162.954" fill="#F4F5F6"/>
<path fill-rule="evenodd" clip-rule="evenodd" d="M286.678 164.024L356.678 163.955L356.676 161.955L284.676 162.026L284.988 472.029L356.988 471.958L356.986 469.958L286.986 470.027L286.678 164.024Z" fill="#959DA8"/>
<path d="M200.091 416.036C200.739 412.971 200.701 409.8 199.982 406.751C199.262 403.702 197.877 400.849 195.927 398.397C193.977 395.945 191.509 393.954 188.7 392.567C185.891 391.179 182.81 390.429 179.677 390.371C176.545 390.312 173.438 390.947 170.579 392.228C167.72 393.51 165.18 395.407 163.139 397.785C161.099 400.162 159.609 402.961 158.776 405.982C157.943 409.002 157.787 412.169 158.32 415.256C155.96 416.37 153.87 417.983 152.195 419.985C150.52 421.987 149.301 424.328 148.621 426.848C147.941 429.368 147.818 432.005 148.259 434.578C148.7 437.15 149.695 439.596 151.175 441.745C152.655 443.895 154.585 445.697 156.831 447.026C159.077 448.355 161.585 449.18 164.182 449.444C166.778 449.708 169.401 449.404 171.868 448.553C174.336 447.702 176.588 446.325 178.47 444.517C180.3 446.286 182.483 447.648 184.877 448.512C187.271 449.376 189.821 449.722 192.359 449.528C194.897 449.334 197.365 448.604 199.6 447.387C201.835 446.169 203.786 444.491 205.325 442.464C206.864 440.436 207.955 438.106 208.527 435.626C209.099 433.145 209.138 430.572 208.643 428.076C208.147 425.579 207.128 423.216 205.652 421.143C204.176 419.069 202.277 417.332 200.081 416.046L200.091 416.036Z" fill="#80C33F"/>
<path fill-rule="evenodd" clip-rule="evenodd" d="M168.903 427.853C169.125 427.517 169.578 427.425 169.915 427.648L179.725 434.148C180.061 434.37 180.153 434.823 179.93 435.159C179.707 435.495 179.254 435.587 178.918 435.365L169.108 428.865C168.772 428.642 168.68 428.189 168.903 427.853Z" fill="#2A3A51"/>
<path fill-rule="evenodd" clip-rule="evenodd" d="M191.296 432.642C191.559 432.948 191.524 433.408 191.218 433.671L179.788 443.491C179.482 443.754 179.021 443.719 178.758 443.413C178.496 443.107 178.531 442.647 178.836 442.384L190.266 432.564C190.572 432.301 191.033 432.336 191.296 432.642Z" fill="#2A3A51"/>
<path fill-rule="evenodd" clip-rule="evenodd" d="M179.265 414.297C179.668 414.296 179.995 414.623 179.995 415.026L180.045 473.877C180.046 474.28 179.719 474.607 179.316 474.607C178.913 474.608 178.586 474.281 178.585 473.878L178.535 415.027C178.535 414.624 178.861 414.297 179.265 414.297Z" fill="#2A3A51"/>
<path d="M1030.59 435.257C1031.04 435.26 1031.49 435.213 1031.94 435.116C1052.58 430.403 1052.56 405.393 1052.56 405.393C1052.56 371.319 1030.52 354.257 1030.52 354.257C1030.52 354.257 1008.53 371.329 1008.56 405.434C1008.56 405.434 1008.56 430.473 1029.24 435.116C1029.68 435.213 1030.13 435.261 1030.59 435.257Z" fill="#80C33F"/>
<path fill-rule="evenodd" clip-rule="evenodd" d="M1030.56 387.546C1030.95 387.546 1031.27 387.864 1031.27 388.256V472.257C1031.27 472.649 1030.95 472.967 1030.56 472.967C1030.17 472.967 1029.85 472.649 1029.85 472.257V388.256C1029.85 387.864 1030.17 387.546 1030.56 387.546Z" fill="#2A3A51"/>
<path d="M359.801 316.955L972.806 316.335L972.966 472.336L359.961 472.956" fill="#F4F5F6"/>
<path fill-rule="evenodd" clip-rule="evenodd" d="M973.806 315.334L973.968 473.335L359.963 473.956L359.961 471.956L971.966 471.337L971.808 317.336L359.803 317.955L359.801 315.955L973.806 315.334Z" fill="#959DA8"/>
<path d="M359.164 162.954L804.268 162.504L804.358 251.504L724.627 316.585L359.314 316.955" fill="#F4F5F6"/>
<path fill-rule="evenodd" clip-rule="evenodd" d="M805.264 161.503L805.356 251.979L724.981 317.585L359.312 317.955L359.31 315.955L724.268 315.585L803.355 251.03L803.266 163.505L359.162 163.954L359.16 161.954L805.264 161.503Z" fill="#959DA8"/>
<path d="M804.895 351.481L693.395 351.596L693.521 470.85L805.022 470.734L804.895 351.481Z" fill="#D3DCE5"/>
<path fill-rule="evenodd" clip-rule="evenodd" d="M692.859 367.692L804.86 367.582L804.861 368.572L692.86 368.682L692.859 367.692Z" fill="#F4F5F6"/>
<path fill-rule="evenodd" clip-rule="evenodd" d="M804.853 352.34L692.852 352.43L692.852 351.44L804.853 351.35L804.853 352.34Z" fill="#F4F5F6"/>
<path fill-rule="evenodd" clip-rule="evenodd" d="M692.875 383.931L804.876 383.821L804.877 384.811L692.876 384.921L692.875 383.931Z" fill="#F4F5F6"/>
<path fill-rule="evenodd" clip-rule="evenodd" d="M804.861 368.581L692.86 368.661L692.859 367.671L804.86 367.591L804.861 368.581Z" fill="#F4F5F6"/>
<path fill-rule="evenodd" clip-rule="evenodd" d="M692.891 400.172L804.892 400.062L804.893 401.052L692.892 401.162L692.891 400.172Z" fill="#F4F5F6"/>
<path fill-rule="evenodd" clip-rule="evenodd" d="M804.877 384.822L692.876 384.902L692.875 383.912L804.876 383.832L804.877 384.822Z" fill="#F4F5F6"/>
<path fill-rule="evenodd" clip-rule="evenodd" d="M692.93 416.412L804.931 416.292L804.932 417.282L692.931 417.402L692.93 416.412Z" fill="#F4F5F6"/>
<path fill-rule="evenodd" clip-rule="evenodd" d="M804.893 401.052L692.891 401.143L692.891 400.152L804.892 400.062L804.893 401.052Z" fill="#F4F5F6"/>
<path fill-rule="evenodd" clip-rule="evenodd" d="M692.941 432.223L804.942 432.113L804.943 433.103L692.942 433.213L692.941 432.223Z" fill="#F4F5F6"/>
<path fill-rule="evenodd" clip-rule="evenodd" d="M804.931 416.873L692.93 416.953L692.93 415.963L804.931 415.883L804.931 416.873Z" fill="#F4F5F6"/>
<path fill-rule="evenodd" clip-rule="evenodd" d="M692.953 448.462L804.954 448.352L804.955 449.342L692.954 449.452L692.953 448.462Z" fill="#F4F5F6"/>
<path fill-rule="evenodd" clip-rule="evenodd" d="M804.947 433.103L692.946 433.193L692.945 432.203L804.946 432.113L804.947 433.103Z" fill="#F4F5F6"/>
<path fill-rule="evenodd" clip-rule="evenodd" d="M692.973 459.621L804.974 459.511L804.975 460.501L692.974 460.611L692.973 459.621Z" fill="#F4F5F6"/>
<path d="M915.888 351.358L804.387 351.473L804.513 470.726L916.014 470.611L915.888 351.358Z" fill="#D3DCE5"/>
<path fill-rule="evenodd" clip-rule="evenodd" d="M803.852 367.581L915.853 367.471L915.854 368.461L803.853 368.571L803.852 367.581Z" fill="#F4F5F6"/>
<path fill-rule="evenodd" clip-rule="evenodd" d="M915.85 352.231L803.848 352.321L803.848 351.331L915.849 351.241L915.85 352.231Z" fill="#F4F5F6"/>
<path fill-rule="evenodd" clip-rule="evenodd" d="M803.891 383.823L915.892 383.713L915.893 384.703L803.892 384.813L803.891 383.823Z" fill="#F4F5F6"/>
<path fill-rule="evenodd" clip-rule="evenodd" d="M915.853 368.472L803.852 368.552L803.852 367.562L915.853 367.482L915.853 368.472Z" fill="#F4F5F6"/>
<path fill-rule="evenodd" clip-rule="evenodd" d="M803.914 400.061L915.915 399.951L915.916 400.941L803.915 401.051L803.914 400.061Z" fill="#F4F5F6"/>
<path fill-rule="evenodd" clip-rule="evenodd" d="M915.892 384.711L803.891 384.791L803.891 383.801L915.892 383.721L915.892 384.711Z" fill="#F4F5F6"/>
<path fill-rule="evenodd" clip-rule="evenodd" d="M803.922 416.302L915.923 416.182L915.924 417.172L803.923 417.292L803.922 416.302Z" fill="#F4F5F6"/>
<path fill-rule="evenodd" clip-rule="evenodd" d="M915.916 400.941L803.915 401.032L803.914 400.042L915.915 399.951L915.916 400.941Z" fill="#F4F5F6"/>
<path fill-rule="evenodd" clip-rule="evenodd" d="M803.938 432.112L915.939 432.002L915.94 432.992L803.938 433.102L803.938 432.112Z" fill="#F4F5F6"/>
<path fill-rule="evenodd" clip-rule="evenodd" d="M864.112 416.874H854.965V415.884H864.112V416.874Z" fill="#F4F5F6"/>
<path fill-rule="evenodd" clip-rule="evenodd" d="M803.945 448.352L915.946 448.242L915.947 449.232L803.946 449.342L803.945 448.352Z" fill="#F4F5F6"/>
<path fill-rule="evenodd" clip-rule="evenodd" d="M915.939 432.992L803.938 433.082L803.938 432.092L915.938 432.002L915.939 432.992Z" fill="#F4F5F6"/>
<path fill-rule="evenodd" clip-rule="evenodd" d="M803.965 459.512L915.966 459.402L915.967 460.392L803.966 460.502L803.965 459.512Z" fill="#F4F5F6"/>
<path d="M273.62 163.28L817.625 162.71L817.615 153.18L273.61 153.75L273.62 163.28Z" fill="white"/>
<path fill-rule="evenodd" clip-rule="evenodd" d="M818.637 163.71L272.632 164.282L272.62 152.752L818.625 152.18L818.637 163.71ZM816.635 161.712L816.627 154.182L274.622 154.75L274.63 162.28L816.635 161.712Z" fill="#959DA8"/>
<path d="M727.86 107.584L363.336 107.954L275.016 154.504L813.171 153.964L816.271 153.954L727.86 107.584Z" fill="#F4F5F6"/>
<path fill-rule="evenodd" clip-rule="evenodd" d="M727.847 106.584C728.009 106.584 728.169 106.623 728.313 106.699L816.723 153.069C817.13 153.283 817.34 153.746 817.23 154.192C817.121 154.639 816.722 154.953 816.262 154.955L813.16 154.965L275.005 155.505C274.545 155.505 274.144 155.192 274.033 154.745C273.923 154.299 274.131 153.835 274.538 153.62L362.859 107.07C363.002 106.994 363.162 106.955 363.324 106.954L727.847 106.584ZM363.573 108.954L279.054 153.501L812.22 152.966L727.602 108.585L363.573 108.954Z" fill="#959DA8"/>
<path d="M817.673 153.139L273.668 153.709L273.678 163.239L817.683 162.669L817.673 153.139Z" fill="#F4F5F6"/>
<path fill-rule="evenodd" clip-rule="evenodd" d="M272.656 152.709L818.661 152.138L818.673 163.668L272.668 164.239L272.656 152.709ZM274.658 154.707L274.666 162.237L816.671 161.67L816.663 154.14L274.658 154.707Z" fill="#959DA8"/>
<path d="M565.844 105.724L634.975 153.444L635.075 268.675L496.873 268.805L496.773 153.574L565.844 105.724Z" fill="#F4F5F6"/>
<path fill-rule="evenodd" clip-rule="evenodd" d="M565.82 104.38L636.056 152.864L636.157 269.779L495.746 269.911L495.645 152.996L565.82 104.38ZM565.822 107.067L497.856 154.153L497.954 267.699L633.945 267.571L633.847 154.025L565.822 107.067Z" fill="#959DA8"/>
<path d="M653.672 164.024L635.442 164.044L566.021 107.244L496.711 164.184L478.48 164.204L566.001 92.3034L653.672 164.024Z" fill="#F4F5F6"/>
<path fill-rule="evenodd" clip-rule="evenodd" d="M566.002 106.597L635.74 163.657L635.107 164.431L566.004 107.89L497.01 164.57L496.375 163.798L566.002 106.597Z" fill="#959DA8"/>
<path fill-rule="evenodd" clip-rule="evenodd" d="M565.992 91.0107L656.462 165.021L635.435 165.045L635.433 163.044L650.866 163.028L565.994 93.5969L481.268 163.201L496.701 163.185L496.703 165.185L475.676 165.208L565.992 91.0107Z" fill="#959DA8"/>
<path d="M975.837 323.505L975.827 313.975L225.052 315.255L219.025 315.255C218.362 315.255 217.824 315.793 217.825 316.456L217.83 324.298L975.837 323.505Z" fill="#F4F5F6"/>
<path fill-rule="evenodd" clip-rule="evenodd" d="M976.851 312.973L976.863 324.503L216.856 325.299L216.85 316.456C216.849 315.24 217.834 314.255 219.05 314.255L225.075 314.255L976.851 312.973ZM974.853 314.976L219.05 316.255C218.939 316.255 218.85 316.344 218.85 316.455L218.854 323.297L974.861 322.506L974.853 314.976Z" fill="#959DA8"/>
<path d="M743.919 315.035L717.769 268.594L304.375 269.004L218.074 315.565L743.919 315.035Z" fill="#F4F5F6"/>
<path fill-rule="evenodd" clip-rule="evenodd" d="M718.336 267.593L745.612 316.033L214.09 316.568L304.105 268.004L718.336 267.593ZM304.611 270.004L222.024 314.56L742.192 314.036L717.167 269.594L304.611 270.004Z" fill="#959DA8"/>
<path d="M971.774 314.336L635.051 314.676L803.712 214.045L971.774 314.336Z" fill="#F4F5F6"/>
<path fill-rule="evenodd" clip-rule="evenodd" d="M803.721 212.88L975.404 315.332L631.426 315.679L803.721 212.88ZM638.694 313.672L968.162 313.339L803.721 215.209L638.694 313.672Z" fill="#959DA8"/>
<path fill-rule="evenodd" clip-rule="evenodd" d="M633.978 470.177L633.828 323.675L635.828 323.673L635.978 470.175L633.978 470.177Z" fill="#959DA8"/>
<path d="M457.409 358.407H414.559L414.649 458.498H457.499L457.409 358.407Z" fill="#D3DCE5"/>
<path d="M451.355 364.293L420.625 364.325L420.671 408.656L451.402 408.623L451.355 364.293Z" fill="white"/>
<path fill-rule="evenodd" clip-rule="evenodd" d="M420.137 363.825L451.867 363.792L451.914 409.123L420.184 409.156L420.137 363.825ZM421.138 364.824L421.183 408.155L450.913 408.124L450.868 364.793L421.138 364.824Z" fill="#959DA8"/>
<path d="M230.543 473.256L230.392 324.255H220.543L220.694 473.256H230.543Z" fill="#F4F5F6"/>
<path fill-rule="evenodd" clip-rule="evenodd" d="M219.422 323.109H231.561L231.714 474.401H219.575L219.422 323.109ZM221.714 325.399L221.863 472.111H229.422L229.273 325.399H221.714Z" fill="#959DA8"/>
<path d="M388.904 472.696L388.754 323.924H378.984L379.134 472.696H388.904Z" fill="#F4F5F6"/>
<path fill-rule="evenodd" clip-rule="evenodd" d="M378.008 322.925H389.778L389.93 473.696H378.16L378.008 322.925ZM380.01 324.925L380.158 471.696H387.928L387.78 324.925H380.01Z" fill="#959DA8"/>
<path d="M492.928 472.587L492.778 323.816H483.008L483.158 472.587H492.928Z" fill="#F4F5F6"/>
<path fill-rule="evenodd" clip-rule="evenodd" d="M481.996 322.816H493.766L493.918 473.587H482.148L481.996 322.816ZM483.998 324.816L484.146 471.587H491.916L491.768 324.816H483.998Z" fill="#959DA8"/>
<path d="M669.825 437.966L662.125 437.974L662.157 468.385L669.857 468.377L669.825 437.966Z" fill="#F4F5F6"/>
<path fill-rule="evenodd" clip-rule="evenodd" d="M661.113 436.975L670.813 436.965L670.847 469.376L661.147 469.386L661.113 436.975ZM663.115 438.973L663.145 467.384L668.845 467.378L668.815 438.967L663.115 438.973Z" fill="#959DA8"/>
<path d="M665.926 396.4C669.904 396.396 673.721 397.972 676.537 400.782C679.353 403.592 680.938 407.406 680.942 411.384L680.971 438.955L650.97 438.986L650.941 411.416C650.937 407.438 652.514 403.621 655.324 400.805C658.134 397.989 661.948 396.404 665.926 396.4Z" fill="#D3DCE5"/>
<path d="M676.266 406.799L655.586 406.821L655.59 411.171L676.271 411.149L676.266 406.799Z" fill="#F4F5F6"/>
<path fill-rule="evenodd" clip-rule="evenodd" d="M655.098 406.321L676.778 406.298L676.783 411.648L655.103 411.671L655.098 406.321ZM656.099 407.32L656.102 410.67L675.782 410.649L675.779 407.299L656.099 407.32Z" fill="#959DA8"/>
<path d="M660.741 468.386L671.281 468.375C672.464 468.374 673.599 468.843 674.436 469.678C675.274 470.514 675.745 471.648 675.746 472.83L656.286 472.851C656.285 471.668 656.753 470.533 657.589 469.696C658.425 468.858 659.558 468.387 660.741 468.386Z" fill="#F4F5F6"/>
<path fill-rule="evenodd" clip-rule="evenodd" d="M660.732 469.386C659.814 469.387 658.934 469.753 658.286 470.402C657.879 470.81 657.585 471.308 657.422 471.85L674.587 471.832C674.423 471.291 674.127 470.793 673.719 470.386C673.07 469.738 672.189 469.374 671.272 469.375L660.732 469.386ZM675.735 472.831L676.735 472.83C676.734 471.381 676.157 469.993 675.132 468.97C674.107 467.947 672.718 467.374 671.27 467.375L660.73 467.386C659.282 467.388 657.893 467.964 656.87 468.99C655.848 470.015 655.274 471.404 655.275 472.852L655.276 473.852L675.736 473.831L675.735 472.831Z" fill="#959DA8"/>
<path fill-rule="evenodd" clip-rule="evenodd" d="M803.73 226.925L953.574 314.393L953.07 315.257L803.731 228.083L655.732 314.766L655.227 313.903L803.73 226.925Z" fill="#959DA8"/>
<path d="M422.446 422.384C423.55 422.383 424.445 421.487 424.444 420.382C424.442 419.278 423.546 418.383 422.441 418.384C421.337 418.385 420.442 419.282 420.444 420.386C420.445 421.491 421.341 422.385 422.446 422.384Z" fill="white"/>
<path fill-rule="evenodd" clip-rule="evenodd" d="M422.454 418.885C421.626 418.886 420.955 419.558 420.956 420.386C420.957 421.215 421.629 421.886 422.457 421.885C423.286 421.884 423.957 421.212 423.956 420.383C423.955 419.555 423.283 418.884 422.454 418.885ZM419.956 420.387C419.954 419.007 421.072 417.886 422.453 417.885C423.834 417.883 424.954 419.001 424.956 420.382C424.957 421.763 423.839 422.883 422.458 422.885C421.078 422.886 419.957 421.768 419.956 420.387Z" fill="#959DA8"/>
<path d="M540.669 183.424H510.148L510.208 247.734H540.729L540.669 183.424Z" fill="white"/>
<path fill-rule="evenodd" clip-rule="evenodd" d="M509.66 182.923H541.18L541.241 248.234H509.721L509.66 182.923ZM510.661 183.923L510.72 247.234H540.24L540.181 183.923H510.661Z" fill="#959DA8"/>
<path fill-rule="evenodd" clip-rule="evenodd" d="M524.956 209.397L524.926 183.437L525.926 183.436L525.956 209.396L524.956 209.397Z" fill="#959DA8"/>
<path fill-rule="evenodd" clip-rule="evenodd" d="M540.718 210.335L510.228 210.365L510.227 209.365L540.717 209.335L540.718 210.335Z" fill="#959DA8"/>
<path d="M580.782 183.385H550.262L550.322 247.696H580.842L580.782 183.385Z" fill="white"/>
<path fill-rule="evenodd" clip-rule="evenodd" d="M549.77 182.885H581.29L581.351 248.196H549.83L549.77 182.885ZM550.77 183.885L550.83 247.196H580.35L580.291 183.885H550.77Z" fill="#959DA8"/>
<path fill-rule="evenodd" clip-rule="evenodd" d="M565.055 209.356L565.035 183.396L566.035 183.395L566.055 209.355L565.055 209.356Z" fill="#959DA8"/>
<path fill-rule="evenodd" clip-rule="evenodd" d="M580.8 210.296L550.31 210.326L550.309 209.326L580.799 209.296L580.8 210.296Z" fill="#959DA8"/>
<path d="M620.903 183.334H590.383L590.443 247.645H620.963L620.903 183.334Z" fill="white"/>
<path fill-rule="evenodd" clip-rule="evenodd" d="M589.891 182.834H621.411L621.472 248.145H589.952L589.891 182.834ZM590.892 183.834L590.951 247.145H620.471L620.412 183.834H590.892Z" fill="#959DA8"/>
<path fill-rule="evenodd" clip-rule="evenodd" d="M605.141 209.315L605.121 183.355L606.121 183.354L606.141 209.315L605.141 209.315Z" fill="#959DA8"/>
<path fill-rule="evenodd" clip-rule="evenodd" d="M620.917 210.253L590.427 210.283L590.426 209.283L620.916 209.253L620.917 210.253Z" fill="#959DA8"/>
<path d="M351.665 183.615H321.145L321.205 247.926H351.725L351.665 183.615Z" fill="white"/>
<path fill-rule="evenodd" clip-rule="evenodd" d="M320.656 183.115H352.177L352.237 248.426H320.717L320.656 183.115ZM321.657 184.115L321.716 247.426H351.237L351.177 184.115H321.657Z" fill="#959DA8"/>
<path fill-rule="evenodd" clip-rule="evenodd" d="M335.952 209.586L335.922 183.626L336.922 183.625L336.952 209.585L335.952 209.586Z" fill="#959DA8"/>
<path fill-rule="evenodd" clip-rule="evenodd" d="M351.714 210.526L321.224 210.556L321.223 209.556L351.713 209.526L351.714 210.526Z" fill="#959DA8"/>
<path d="M706.684 183.254H676.164L676.224 247.565H706.744L706.684 183.254Z" fill="white"/>
<path fill-rule="evenodd" clip-rule="evenodd" d="M675.645 182.754H707.165L707.226 248.065H675.705L675.645 182.754ZM676.645 183.754L676.705 247.065H706.225L706.166 183.754H676.645Z" fill="#959DA8"/>
<path fill-rule="evenodd" clip-rule="evenodd" d="M690.94 209.226L690.91 183.266L691.91 183.265L691.94 209.225L690.94 209.226Z" fill="#959DA8"/>
<path fill-rule="evenodd" clip-rule="evenodd" d="M706.706 210.164L676.216 210.194L676.215 209.194L706.705 209.164L706.706 210.164Z" fill="#959DA8"/>
<path d="M351.841 359.616H321.32L321.38 423.927H351.901L351.841 359.616Z" fill="white"/>
<path fill-rule="evenodd" clip-rule="evenodd" d="M320.832 359.116H352.352L352.413 424.427H320.893L320.832 359.116ZM321.833 360.116L321.892 423.427H351.412L351.353 360.116H321.833Z" fill="#959DA8"/>
<path fill-rule="evenodd" clip-rule="evenodd" d="M336.114 385.588L336.094 359.628L337.094 359.627L337.114 385.587L336.114 385.588Z" fill="#959DA8"/>
<path fill-rule="evenodd" clip-rule="evenodd" d="M351.89 386.528L321.399 386.558L321.398 385.558L351.889 385.528L351.89 386.528Z" fill="#959DA8"/>
<path d="M455.891 183.503H425.371L425.431 247.814H455.951L455.891 183.503Z" fill="white"/>
<path fill-rule="evenodd" clip-rule="evenodd" d="M424.883 183.003H456.403L456.464 248.314H424.944L424.883 183.003ZM425.884 184.003L425.943 247.314H455.463L455.404 184.003H425.884Z" fill="#959DA8"/>
<path fill-rule="evenodd" clip-rule="evenodd" d="M440.161 209.477L440.141 183.516L441.141 183.516L441.161 209.476L440.161 209.477Z" fill="#959DA8"/>
<path fill-rule="evenodd" clip-rule="evenodd" d="M455.905 210.424L425.415 210.454L425.414 209.454L455.904 209.424L455.905 210.424Z" fill="#959DA8"/>
<path d="M425.903 183.536H395.383L395.443 247.846H425.963L425.903 183.536Z" fill="white"/>
<path fill-rule="evenodd" clip-rule="evenodd" d="M394.859 183.035H426.38L426.441 248.346H394.92L394.859 183.035ZM395.86 184.035L395.919 247.346H425.44L425.381 184.035H395.86Z" fill="#959DA8"/>
<path fill-rule="evenodd" clip-rule="evenodd" d="M410.141 209.505L410.121 183.545L411.121 183.544L411.141 209.505L410.141 209.505Z" fill="#959DA8"/>
<path fill-rule="evenodd" clip-rule="evenodd" d="M425.917 210.455L395.427 210.485L395.426 209.485L425.916 209.455L425.917 210.455Z" fill="#959DA8"/>
<path d="M538.852 359.426H508.332L508.392 423.736H538.912L538.852 359.426Z" fill="white"/>
<path fill-rule="evenodd" clip-rule="evenodd" d="M507.84 358.926H539.36L539.421 424.236H507.901L507.84 358.926ZM508.841 359.926L508.9 423.236H538.42L538.361 359.926H508.841Z" fill="#959DA8"/>
<path fill-rule="evenodd" clip-rule="evenodd" d="M523.125 385.397L523.105 359.437L524.105 359.436L524.125 385.397L523.125 385.397Z" fill="#959DA8"/>
<path fill-rule="evenodd" clip-rule="evenodd" d="M538.87 386.335L508.38 386.365L508.379 385.365L538.869 385.335L538.87 386.335Z" fill="#959DA8"/>
<path d="M578.969 359.386H548.449L548.509 423.697H579.029L578.969 359.386Z" fill="white"/>
<path fill-rule="evenodd" clip-rule="evenodd" d="M547.957 358.886H579.477L579.538 424.197H548.018L547.957 358.886ZM548.958 359.886L549.017 423.197H578.537L578.478 359.886H548.958Z" fill="#959DA8"/>
<path fill-rule="evenodd" clip-rule="evenodd" d="M563.207 385.358L563.188 359.398L564.188 359.397L564.207 385.357L563.207 385.358Z" fill="#959DA8"/>
<path fill-rule="evenodd" clip-rule="evenodd" d="M578.987 386.298L548.497 386.328L548.496 385.328L578.986 385.298L578.987 386.298Z" fill="#959DA8"/>
<path d="M619.083 359.346H588.562L588.622 423.657H619.143L619.083 359.346Z" fill="white"/>
<path fill-rule="evenodd" clip-rule="evenodd" d="M588.043 358.846H619.563L619.624 424.157H588.104L588.043 358.846ZM589.044 359.846L589.103 423.157H618.623L618.564 359.846H589.044Z" fill="#959DA8"/>
<path fill-rule="evenodd" clip-rule="evenodd" d="M603.327 385.318L603.297 359.358L604.297 359.356L604.327 385.317L603.327 385.318Z" fill="#959DA8"/>
<path fill-rule="evenodd" clip-rule="evenodd" d="M619.091 386.256L588.61 386.286L588.609 385.286L619.09 385.256L619.091 386.256Z" fill="#959DA8"/>
<path fill-rule="evenodd" clip-rule="evenodd" d="M332.908 454.383L285.598 417.892L286.208 417.1L333.519 453.591L332.908 454.383Z" fill="#959DA8"/>
<path fill-rule="evenodd" clip-rule="evenodd" d="M285.625 453.631L332.855 417.061L333.468 417.852L286.237 454.422L285.625 453.631Z" fill="#959DA8"/>
<path d="M337.952 410.464L280.931 410.524C278.728 410.526 276.943 412.312 276.946 414.513C276.948 416.714 278.736 418.496 280.94 418.494L337.96 418.434C340.164 418.432 341.948 416.646 341.946 414.445C341.944 412.244 340.156 410.462 337.952 410.464Z" fill="#D3DCE5"/>
<path d="M239.563 430.726H267.213L258.943 410.935C257.972 408.611 256.333 406.625 254.235 405.23C252.137 403.835 249.673 403.092 247.153 403.095C245.052 403.098 242.985 403.618 241.134 404.612C239.283 405.605 237.705 407.04 236.542 408.789C235.379 410.538 234.665 412.547 234.464 414.638C234.264 416.729 234.583 418.837 235.393 420.776L239.563 430.726Z" fill="#D3DCE5"/>
<path fill-rule="evenodd" clip-rule="evenodd" d="M265.829 417.846C265.829 417.846 265.829 417.846 265.829 417.846L261.689 418.016L261.648 417.016L265.788 416.846C269.235 416.706 272.645 417.599 275.58 419.41C278.516 421.221 280.844 423.867 282.265 427.01L295.265 455.821L294.354 456.232L281.354 427.422" fill="#959DA8"/>
<path fill-rule="evenodd" clip-rule="evenodd" d="M233.676 455.979L239.426 429.968L240.402 430.184L234.652 456.195L233.676 455.979Z" fill="#959DA8"/>
<path fill-rule="evenodd" clip-rule="evenodd" d="M256.727 455.949L262.437 429.949L263.413 430.164L257.703 456.164L256.727 455.949Z" fill="#959DA8"/>
<path d="M280.58 430.699L238.69 430.743L238.686 426.903L280.576 426.859C281.085 426.858 281.574 427.06 281.934 427.42C282.295 427.779 282.497 428.267 282.498 428.777C282.498 429.029 282.449 429.279 282.353 429.512C282.256 429.745 282.115 429.957 281.937 430.135C281.759 430.313 281.547 430.455 281.315 430.552C281.082 430.649 280.832 430.699 280.58 430.699Z" fill="#D3DCE5"/>
<path fill-rule="evenodd" clip-rule="evenodd" d="M248.271 420.112C245.655 418.498 242.616 417.703 239.545 417.828L234.024 418.048L233.984 417.048L239.504 416.829C239.504 416.829 239.504 416.829 239.504 416.829C242.774 416.696 246.01 417.543 248.796 419.261C251.582 420.979 253.791 423.49 255.14 426.472L268.42 455.842L267.509 456.254L254.229 426.884C254.229 426.884 254.229 426.884 254.229 426.884C252.962 424.084 250.887 421.726 248.271 420.112Z" fill="#959DA8"/>
<path d="M634.984 452.663L230.98 453.086L231.001 473.086L635.005 472.663L634.984 452.663Z" fill="#F4F5F6"/>
<path fill-rule="evenodd" clip-rule="evenodd" d="M229.969 452.087L635.972 451.662L635.995 473.662L229.992 474.087L229.969 452.087ZM231.971 454.085L231.99 472.085L633.993 471.664L633.974 453.664L231.971 454.085Z" fill="#959DA8"/>
<path d="M492.556 463.086L379.555 463.187V472.086L492.556 471.986V463.086Z" fill="#F4F5F6"/>
<path fill-rule="evenodd" clip-rule="evenodd" d="M493.544 462.086V472.985L378.543 473.087V462.188L493.544 462.086ZM380.543 464.186V471.086L491.544 470.987V464.087L380.543 464.186Z" fill="#959DA8"/>
<path d="M492.556 453.086L379.555 453.198V463.086L492.556 462.975V453.086Z" fill="#F4F5F6"/>
<path fill-rule="evenodd" clip-rule="evenodd" d="M493.544 452.085V463.974L378.543 464.087V452.198L493.544 452.085ZM380.543 454.197V462.085L491.544 461.976V454.087L380.543 454.197Z" fill="#959DA8"/>
<path d="M582.989 470.578C582.99 471.642 582.849 472.701 582.569 473.728L487.718 473.828C487.423 472.801 487.242 471.744 487.178 470.678C486.758 464.138 492.488 458.788 499.048 458.778C500.413 458.778 501.767 459.019 503.048 459.488C502.973 458.824 502.936 458.156 502.938 457.488C502.905 452.994 504.466 448.635 507.343 445.184C510.22 441.732 514.227 439.412 518.652 438.635C523.078 437.858 527.636 438.675 531.516 440.94C535.397 443.205 538.349 446.772 539.848 451.007C541.982 449.086 544.576 447.749 547.379 447.127C550.182 446.505 553.098 446.62 555.844 447.459C558.59 448.299 561.071 449.835 563.047 451.919C565.023 454.002 566.426 456.561 567.119 459.348C568.909 458.705 570.828 458.503 572.712 458.759C574.597 459.015 576.392 459.721 577.946 460.818C579.5 461.915 580.767 463.37 581.64 465.06C582.512 466.75 582.965 468.626 582.959 470.528L582.989 470.578Z" fill="#80C33F"/>
<path d="M989.543 431.323L981.558 423.257L973.592 431.333L973.582 472.257L989.582 472.238L989.543 431.323Z" fill="#F4F5F6"/>
<path fill-rule="evenodd" clip-rule="evenodd" d="M981.545 421.834L990.531 430.911L990.572 473.236L972.57 473.259L972.581 430.922L981.545 421.834ZM981.547 424.68L974.58 431.743L974.571 471.256L988.57 471.239L988.532 431.734L981.547 424.68Z" fill="#959DA8"/>
<path d="M1005.52 431.314L997.539 423.257L989.578 431.334L989.559 472.257L1005.56 472.238L1005.52 431.314Z" fill="#F4F5F6"/>
<path fill-rule="evenodd" clip-rule="evenodd" d="M997.557 421.834L1006.54 430.902L1006.58 473.236L988.578 473.259L988.598 430.924L997.557 421.834ZM997.561 424.68L990.598 431.744L990.579 471.256L1004.58 471.239L1004.54 431.726L997.561 424.68Z" fill="#959DA8"/>
<path d="M1021.51 431.314L1013.53 423.257L1005.57 431.334L1005.56 472.257L1021.56 472.248L1021.51 431.314Z" fill="#F4F5F6"/>
<path fill-rule="evenodd" clip-rule="evenodd" d="M1013.55 421.834L1022.53 430.902L1022.58 473.247L1004.58 473.258L1004.59 430.924L1013.55 421.834ZM1013.55 424.68L1006.59 431.744L1006.58 471.257L1020.58 471.248L1020.53 431.726L1013.55 424.68Z" fill="#959DA8"/>
<path d="M1038.52 431.323L1030.04 423.257L1021.57 431.333L1021.56 472.257L1038.56 472.238L1038.52 431.323Z" fill="#F4F5F6"/>
<path fill-rule="evenodd" clip-rule="evenodd" d="M1030.03 421.876L1039.52 430.893L1039.56 473.237L1020.56 473.259L1020.57 430.905L1030.03 421.876ZM1030.03 424.638L1022.57 431.761L1022.56 471.256L1037.56 471.239L1037.52 431.752L1030.03 424.638Z" fill="#959DA8"/>
<path d="M1054.54 431.314L1046.56 423.257L1038.6 431.334L1038.58 472.257L1054.58 472.238L1054.54 431.314Z" fill="#F4F5F6"/>
<path fill-rule="evenodd" clip-rule="evenodd" d="M1046.55 421.834L1055.53 430.902L1055.57 473.236L1037.57 473.259L1037.59 430.924L1046.55 421.834ZM1046.55 424.68L1039.59 431.744L1039.57 471.256L1053.57 471.239L1053.53 431.726L1046.55 424.68Z" fill="#959DA8"/>
<path d="M1070.52 431.314L1062.54 423.257L1054.57 431.334L1054.56 472.257L1070.56 472.248L1070.52 431.314Z" fill="#F4F5F6"/>
<path fill-rule="evenodd" clip-rule="evenodd" d="M1062.56 421.835L1071.54 430.902L1071.58 473.247L1053.58 473.258L1053.59 430.924L1062.56 421.835ZM1062.56 424.68L1055.59 431.745L1055.58 471.257L1069.58 471.248L1069.54 431.726L1062.56 424.68Z" fill="#959DA8"/>
<path d="M924.473 382V456.802" stroke="#959DA8" stroke-width="1.88111" stroke-miterlimit="10"/>
<path d="M939.819 405.015H909.129L918.723 382H930.226L939.819 405.015Z" fill="#D3DCE5"/>
<path d="M922.434 382L917.035 405.015" stroke="#959DA8" stroke-width="0.940556" stroke-miterlimit="10"/>
<path d="M926.633 382L932.032 405.015" stroke="#959DA8" stroke-width="0.940556" stroke-miterlimit="10"/>
<path d="M885.055 415.287L883.474 414.995C882.258 416.694 881.74 418.795 882.026 420.864C882.089 421.29 882.312 421.675 882.649 421.942C882.987 422.208 883.414 422.335 883.842 422.296C884.271 422.258 884.668 422.057 884.953 421.735C885.238 421.412 885.389 420.993 885.374 420.563C885.428 418.798 885.321 417.032 885.055 415.287Z" fill="white" stroke="#959DA8" stroke-width="0.940556" stroke-miterlimit="10"/>
<path d="M889.707 412.371L890.13 410.819C892.189 410.461 894.306 410.905 896.046 412.061C896.402 412.302 896.652 412.67 896.746 413.089C896.839 413.508 896.769 413.948 896.549 414.317C896.329 414.686 895.976 414.957 895.562 415.074C895.149 415.192 894.706 415.147 894.325 414.948C892.711 414.231 891.165 413.368 889.707 412.371Z" fill="white" stroke="#959DA8" stroke-width="0.940556" stroke-miterlimit="10"/>
<path d="M894.445 415.73C895.06 416.826 895.231 418.117 894.921 419.336C894.611 420.555 893.845 421.608 892.78 422.277C891.716 422.946 890.435 423.181 889.202 422.932C887.97 422.683 886.88 421.97 886.158 420.94C884.804 418.777 884.211 413.726 886.497 412.287C888.782 410.848 893.09 413.566 894.445 415.73Z" fill="white" stroke="#959DA8" stroke-width="0.940556" stroke-miterlimit="10"/>
<path d="M881.458 411.568C882.36 411.001 882.631 409.811 882.064 408.91C881.498 408.008 880.307 407.736 879.406 408.303C878.504 408.87 878.233 410.06 878.799 410.962C879.366 411.863 880.556 412.135 881.458 411.568Z" fill="white" stroke="#959DA8" stroke-width="0.940556" stroke-miterlimit="10"/>
<path d="M889.452 408.591C890.357 408.026 890.634 406.835 890.069 405.93C889.505 405.025 888.314 404.749 887.408 405.313C886.503 405.877 886.227 407.069 886.791 407.974C887.356 408.879 888.547 409.155 889.452 408.591Z" fill="white" stroke="#959DA8" stroke-width="0.942154" stroke-miterlimit="10"/>
<path d="M887.99 414.636C890.276 413.199 891.03 410.283 889.673 408.124C888.316 405.964 885.362 405.379 883.075 406.816C880.788 408.254 880.034 411.17 881.391 413.329C882.748 415.488 885.703 416.074 887.99 414.636Z" fill="white" stroke="#959DA8" stroke-width="0.940556" stroke-miterlimit="10"/>
<path d="M890.925 424.682C891.261 423.53 890.45 422.28 889.113 421.891C887.777 421.501 886.421 422.119 886.085 423.271C885.749 424.423 886.56 425.672 887.896 426.062C889.233 426.452 890.589 425.834 890.925 424.682Z" fill="white" stroke="#959DA8" stroke-width="0.959368" stroke-miterlimit="10"/>
<path d="M897.833 419.774C898.062 418.401 897.287 417.128 896.104 416.931C894.92 416.734 893.775 417.687 893.547 419.06C893.318 420.434 894.092 421.707 895.276 421.904C896.46 422.101 897.605 421.147 897.833 419.774Z" fill="white" stroke="#959DA8" stroke-width="0.940556" stroke-miterlimit="10"/>
<path d="M887.994 414.627C889.112 413.925 889.632 412.743 889.156 411.986C888.681 411.23 887.39 411.186 886.273 411.888C885.156 412.59 884.635 413.772 885.111 414.529C885.586 415.285 886.877 415.329 887.994 414.627Z" stroke="#959DA8" stroke-width="0.235139" stroke-miterlimit="10"/>
<path d="M884.013 411.775C884.069 411.527 883.914 411.28 883.666 411.223C883.418 411.167 883.171 411.322 883.114 411.57C883.058 411.818 883.213 412.065 883.461 412.122C883.709 412.179 883.956 412.023 884.013 411.775Z" fill="#959DA8"/>
<path d="M887.267 409.812C887.451 409.696 887.507 409.452 887.391 409.268C887.275 409.083 887.031 409.027 886.846 409.143C886.661 409.259 886.606 409.503 886.722 409.688C886.838 409.873 887.082 409.928 887.267 409.812Z" fill="#959DA8"/>
<path d="M887.194 413.358C887.458 413.193 887.567 412.89 887.437 412.684C887.307 412.477 886.988 412.444 886.724 412.61C886.46 412.776 886.351 413.078 886.481 413.284C886.611 413.491 886.931 413.524 887.194 413.358Z" fill="#959DA8"/>
<path d="M887.223 413.377L887.514 413.838" stroke="#959DA8" stroke-width="0.235139" stroke-miterlimit="10"/>
<path d="M886.801 414.11C887.317 414 887.777 413.71 888.099 413.292" stroke="#959DA8" stroke-width="0.235139" stroke-miterlimit="10"/>
<path d="M911.818 419.839H880.168V446.043H911.818V419.839Z" fill="#F4F5F6" stroke="#959DA8" stroke-width="1.88111" stroke-miterlimit="10"/>
<path d="M900.438 446.043V419.839" stroke="#959DA8" stroke-width="0.940556" stroke-miterlimit="10"/>
<path d="M879.235 419.014L871.805 425.447H894.096L900.464 419.014H879.235Z" fill="#D3DCE5"/>
<path d="M918.458 424.46H906.033L900.465 419.014H912.88L918.458 424.46Z" fill="#D3DCE5"/>
<path d="M902.423 446.044H870.773V472.248H902.423V446.044Z" fill="#F4F5F6" stroke="#959DA8" stroke-width="1.88111" stroke-miterlimit="10"/>
<path d="M891.035 472.255V446.729" stroke="#959DA8" stroke-width="0.940556" stroke-miterlimit="10"/>
<path d="M934.072 446.044H902.422V472.248H934.072V446.044Z" fill="#F4F5F6" stroke="#959DA8" stroke-width="1.88111" stroke-miterlimit="10"/>
<path d="M928.129 472.257V446.044" stroke="#959DA8" stroke-width="0.940556" stroke-miterlimit="10"/>
<path d="M863.626 472.707H843L857.851 444.65H878.478L863.626 472.707Z" fill="#F4F5F6" stroke="#959DA8" stroke-width="1.88111" stroke-miterlimit="10"/>
<path d="M860.325 450.801C861.482 449.024 861.889 447.24 861.236 446.815C860.583 446.39 859.117 447.485 857.961 449.261C856.804 451.038 856.397 452.822 857.05 453.247C857.703 453.672 859.169 452.577 860.325 450.801Z" fill="#D3DCE5"/>
<path d="M863.939 464.369C866.761 460.033 867.761 455.679 866.172 454.645C864.583 453.611 861.007 456.287 858.185 460.623C855.362 464.96 854.362 469.313 855.951 470.347C857.541 471.382 861.117 468.705 863.939 464.369Z" fill="#D3DCE5"/>
<path d="M854.016 460.124L863.609 448.611V460.124H854.016Z" stroke="#959DA8" stroke-width="0.940556" stroke-miterlimit="10"/>
<line y1="474" x2="1300" y2="474" stroke="#D9DDE2" stroke-width="2" stroke-miterlimit="10"/>
</g>
</svg>
