<svg width="1300" height="499" viewBox="0 0 1300 499" fill="none" xmlns="http://www.w3.org/2000/svg">
<mask id="mask0" mask-type="alpha" maskUnits="userSpaceOnUse" x="0" y="0" width="1300" height="499">
<rect width="1300" height="499" rx="16" fill="#2A3A51"/>
</mask>
<g mask="url(#mask0)">
<mask id="mask1" mask-type="alpha" maskUnits="userSpaceOnUse" x="0" y="136" width="1300" height="363">
<rect y="136" width="1300" height="363" rx="16" fill="#2A3A51"/>
</mask>
<g mask="url(#mask1)">
<path d="M834.338 435.29C834.788 435.293 835.238 435.247 835.678 435.15C856.178 430.49 856.178 405.66 856.178 405.66C856.178 371.83 834.348 354.87 834.348 354.87C834.348 354.87 812.508 371.79 812.508 405.61C812.508 405.61 812.508 430.47 832.998 435.1C833.436 435.213 833.885 435.277 834.338 435.29Z" fill="#80C33F"/>
<path fill-rule="evenodd" clip-rule="evenodd" d="M834.347 387.53C834.739 387.53 835.057 387.848 835.057 388.24V472.69C835.057 473.082 834.739 473.4 834.347 473.4C833.955 473.4 833.637 473.082 833.637 472.69V388.24C833.637 387.848 833.955 387.53 834.347 387.53Z" fill="#2A3A51"/>
<path d="M790.498 432.51L782.388 424.41L774.288 432.51L774.238 473.61H790.498V432.51Z" fill="#F4F5F6"/>
<path fill-rule="evenodd" clip-rule="evenodd" d="M782.389 422.996L791.5 432.096V474.61H773.238L773.29 432.095L782.389 422.996ZM782.39 425.824L775.289 432.925L775.241 472.61H789.5V432.925L782.39 425.824Z" fill="#959DA8"/>
<path d="M806.729 432.51L798.629 424.41L790.529 432.51L790.469 473.61H806.729V432.51Z" fill="#F4F5F6"/>
<path fill-rule="evenodd" clip-rule="evenodd" d="M798.63 422.996L807.73 432.096V474.61H789.469L789.531 432.095L798.63 422.996ZM791.53 432.925L791.472 472.61H805.73V432.924L798.63 425.824L791.53 432.925Z" fill="#959DA8"/>
<path d="M822.967 432.51L814.867 424.41L806.767 432.51L806.707 473.61H822.967V432.51Z" fill="#F4F5F6"/>
<path fill-rule="evenodd" clip-rule="evenodd" d="M814.869 422.996L823.969 432.096V474.61H805.707L805.769 432.095L814.869 422.996ZM807.768 432.925L807.71 472.61H821.969V432.924L814.869 425.824L807.768 432.925Z" fill="#959DA8"/>
<path d="M839.205 432.51L831.095 424.41L822.995 432.51L822.945 473.61H839.205V432.51Z" fill="#F4F5F6"/>
<path fill-rule="evenodd" clip-rule="evenodd" d="M831.096 422.996L840.206 432.096V474.61H821.945L821.997 432.095L831.096 422.996ZM831.097 425.824L823.996 432.925L823.948 472.61H838.206V432.925L831.097 425.824Z" fill="#959DA8"/>
<path d="M855.44 432.51L847.34 424.41L839.24 432.51L839.18 473.61H855.44V432.51Z" fill="#F4F5F6"/>
<path fill-rule="evenodd" clip-rule="evenodd" d="M847.337 422.996L856.437 432.096V474.61H838.176L838.238 432.095L847.337 422.996ZM847.337 425.824L840.237 432.925L840.179 472.61H854.437V432.924L847.337 425.824Z" fill="#959DA8"/>
<path d="M871.678 432.51L863.578 424.41L855.478 432.51L855.418 473.61H871.678V432.51Z" fill="#F4F5F6"/>
<path fill-rule="evenodd" clip-rule="evenodd" d="M863.579 422.996L872.679 432.096V474.61H854.418L854.48 432.095L863.579 422.996ZM863.579 425.824L856.479 432.925L856.421 472.61H870.679V432.924L863.579 425.824Z" fill="#959DA8"/>
<path d="M887.916 432.51L879.816 424.41L871.706 432.51L871.656 473.61H887.916V432.51Z" fill="#F4F5F6"/>
<path fill-rule="evenodd" clip-rule="evenodd" d="M879.818 422.996L888.917 432.096V474.61H870.656L870.708 432.095L879.818 422.996ZM872.707 432.925L872.659 472.61H886.917V432.924L879.817 425.824L872.707 432.925Z" fill="#959DA8"/>
<path d="M243.768 432.51L235.668 424.41L227.568 432.51L227.508 473.61H243.768V432.51Z" fill="#F4F5F6"/>
<path fill-rule="evenodd" clip-rule="evenodd" d="M235.669 422.996L244.769 432.096V474.61H226.508L226.57 432.095L235.669 422.996ZM228.569 432.925L228.511 472.61H242.769V432.924L235.669 425.824L228.569 432.925Z" fill="#959DA8"/>
<path d="M260.01 432.51L251.91 424.41L243.81 432.51L243.75 473.61H260.01V432.51Z" fill="#F4F5F6"/>
<path fill-rule="evenodd" clip-rule="evenodd" d="M251.908 422.996L261.008 432.096V474.61H242.746L242.808 432.095L251.908 422.996ZM244.807 432.925L244.749 472.61H259.008V432.924L251.908 425.824L244.807 432.925Z" fill="#959DA8"/>
<path d="M276.248 432.51L268.148 424.41L260.038 432.51L259.988 473.61H276.248V432.51Z" fill="#F4F5F6"/>
<path fill-rule="evenodd" clip-rule="evenodd" d="M268.15 422.996L277.25 432.096V474.61H258.988L259.04 432.095L268.15 422.996ZM261.039 432.925L260.991 472.61H275.25V432.924L268.149 425.824L261.039 432.925Z" fill="#959DA8"/>
<path d="M292.479 432.51L284.379 424.41L276.279 432.51L276.219 473.61H292.479V432.51Z" fill="#F4F5F6"/>
<path fill-rule="evenodd" clip-rule="evenodd" d="M284.38 422.996L293.48 432.096V474.61H275.219L275.281 432.095L284.38 422.996ZM277.28 432.925L277.222 472.61H291.48V432.924L284.38 425.824L277.28 432.925Z" fill="#959DA8"/>
<path d="M308.717 432.51L300.617 424.41L292.517 432.51L292.457 473.61H308.717V432.51Z" fill="#F4F5F6"/>
<path fill-rule="evenodd" clip-rule="evenodd" d="M300.618 422.996L309.718 432.096V474.61H291.457L291.519 432.095L300.618 422.996ZM300.618 425.824L293.518 432.925L293.46 472.61H307.718V432.924L300.618 425.824Z" fill="#959DA8"/>
<path d="M475.467 361.15H432.617V454.24H475.467V361.15Z" fill="#D3DCE5"/>
<path d="M469.398 367.06H438.668V411.39H469.398V367.06Z" fill="white"/>
<path fill-rule="evenodd" clip-rule="evenodd" d="M438.168 366.56H469.898V411.89H438.168V366.56ZM439.168 367.56V410.89H468.898V367.56H439.168Z" fill="#959DA8"/>
<path d="M469.918 418.61C469.918 419.715 469.023 420.61 467.918 420.61C466.813 420.61 465.918 419.715 465.918 418.61C465.918 417.506 466.813 416.61 467.918 416.61C469.023 416.61 469.918 417.506 469.918 418.61Z" fill="white"/>
<path fill-rule="evenodd" clip-rule="evenodd" d="M467.918 417.11C467.09 417.11 466.418 417.782 466.418 418.61C466.418 419.439 467.09 420.11 467.918 420.11C468.746 420.11 469.418 419.439 469.418 418.61C469.418 417.782 468.746 417.11 467.918 417.11ZM465.418 418.61C465.418 417.229 466.537 416.11 467.918 416.11C469.299 416.11 470.418 417.229 470.418 418.61C470.418 419.991 469.299 421.11 467.918 421.11C466.537 421.11 465.418 419.991 465.418 418.61Z" fill="#959DA8"/>
<path fill-rule="evenodd" clip-rule="evenodd" d="M358.699 250.36L579.102 250.512L511.213 324.475L299.25 322.046L358.699 250.36ZM359.638 252.361L303.467 320.094L510.344 322.465L574.555 252.509L359.638 252.361Z" fill="#959DA8"/>
<path fill-rule="evenodd" clip-rule="evenodd" d="M412.988 453.73H526.988V464.5H412.988V453.73ZM413.988 454.73V463.5H525.988V454.73H413.988Z" fill="#959DA8"/>
<path fill-rule="evenodd" clip-rule="evenodd" d="M412.988 463.48H526.988V474.25H412.988V463.48ZM413.988 464.48V473.25H525.988V464.48H413.988Z" fill="#959DA8"/>
<path d="M517.098 321.29H296.688V330.82H517.098V321.29Z" fill="#F4F5F6"/>
<path fill-rule="evenodd" clip-rule="evenodd" d="M295.688 320.29H518.098V331.82H295.688V320.29ZM297.688 322.29V329.82H516.098V322.29H297.688Z" fill="#959DA8"/>
<path d="M520.338 298.52H445.438V348.46H520.338V298.52Z" fill="#F4F5F6"/>
<path fill-rule="evenodd" clip-rule="evenodd" d="M444.938 298.02H520.838V348.96H444.938V298.02ZM445.938 299.02V347.96H519.838V299.02H445.938Z" fill="#959DA8"/>
<path d="M357.399 298.61L414.039 346.4V473.4H300.719V346.4L357.399 298.61Z" fill="#F4F5F6"/>
<path fill-rule="evenodd" clip-rule="evenodd" d="M357.399 297.302L415.039 345.936V474.4H299.719V345.935L357.399 297.302ZM301.719 346.865V472.4H413.039V346.865L357.399 299.919L301.719 346.865Z" fill="#959DA8"/>
<path d="M235.098 415.53C235.754 412.465 235.723 409.292 235.009 406.239C234.295 403.186 232.916 400.329 230.968 397.872C229.021 395.415 226.555 393.419 223.746 392.026C220.937 390.634 217.855 389.879 214.721 389.817C211.587 389.755 208.477 390.386 205.615 391.666C202.753 392.946 200.21 394.843 198.166 397.22C196.123 399.598 194.631 402.398 193.796 405.42C192.961 408.442 192.805 411.611 193.338 414.7C190.976 415.811 188.885 417.423 187.208 419.422C185.531 421.422 184.308 423.763 183.626 426.282C182.944 428.801 182.817 431.439 183.256 434.012C183.694 436.584 184.687 439.031 186.165 441.182C187.643 443.333 189.571 445.137 191.816 446.469C194.061 447.801 196.568 448.628 199.164 448.894C201.761 449.161 204.384 448.859 206.852 448.01C209.32 447.162 211.574 445.787 213.458 443.98C215.286 445.75 217.468 447.113 219.861 447.978C222.254 448.843 224.803 449.191 227.34 448.999C229.877 448.807 232.344 448.079 234.58 446.864C236.815 445.648 238.767 443.973 240.307 441.948C241.848 439.923 242.941 437.594 243.516 435.115C244.091 432.637 244.133 430.064 243.641 427.568C243.149 425.072 242.133 422.708 240.66 420.633C239.188 418.558 237.292 416.819 235.098 415.53Z" fill="#80C33F"/>
<path fill-rule="evenodd" clip-rule="evenodd" d="M203.888 427.295C204.112 426.96 204.565 426.869 204.9 427.093L214.7 433.623C215.036 433.846 215.127 434.299 214.903 434.635C214.68 434.97 214.226 435.061 213.891 434.838L204.091 428.308C203.755 428.084 203.665 427.631 203.888 427.295Z" fill="#2A3A51"/>
<path fill-rule="evenodd" clip-rule="evenodd" d="M226.291 432.136C226.553 432.442 226.517 432.903 226.211 433.165L214.771 442.955C214.465 443.217 214.004 443.181 213.742 442.875C213.48 442.569 213.515 442.108 213.822 441.846L225.262 432.056C225.568 431.794 226.029 431.829 226.291 432.136Z" fill="#2A3A51"/>
<path fill-rule="evenodd" clip-rule="evenodd" d="M214.277 413.77C214.68 413.77 215.007 414.097 215.007 414.5V473.35C215.007 473.753 214.68 474.08 214.277 474.08C213.874 474.08 213.547 473.753 213.547 473.35V414.5C213.547 414.097 213.874 413.77 214.277 413.77Z" fill="#2A3A51"/>
<path d="M439.499 298.65H435.219V311.8H439.499V298.65Z" fill="#F4F5F6"/>
<path fill-rule="evenodd" clip-rule="evenodd" d="M434.219 297.65H440.499V312.8H434.219V297.65ZM436.219 299.65V310.8H438.499V299.65H436.219Z" fill="#959DA8"/>
<path d="M556.618 277.07H441.778L431.258 303.99H567.128L556.618 277.07Z" fill="#F4F5F6"/>
<path fill-rule="evenodd" clip-rule="evenodd" d="M441.095 276.07H557.301L568.591 304.99H429.793L441.095 276.07ZM442.46 278.07L432.722 302.99H565.663L555.934 278.07H442.46Z" fill="#959DA8"/>
<path d="M467.298 309.24H453.918V337.45H467.308L467.298 309.24Z" fill="white"/>
<path fill-rule="evenodd" clip-rule="evenodd" d="M453.418 308.74H467.798L467.808 337.95H453.418V308.74ZM454.418 309.74V336.95H466.808L466.798 309.74H454.418Z" fill="#959DA8"/>
<path fill-rule="evenodd" clip-rule="evenodd" d="M460.098 320.63V309.24H461.098V320.63H460.098Z" fill="#959DA8"/>
<path fill-rule="evenodd" clip-rule="evenodd" d="M467.3 321.33H453.93V320.33H467.3V321.33Z" fill="#959DA8"/>
<path d="M490.268 309.24H476.918V337.45H490.308L490.268 309.24Z" fill="white"/>
<path fill-rule="evenodd" clip-rule="evenodd" d="M476.418 308.74H490.767L490.809 337.95H476.418V308.74ZM477.418 309.74V336.95H489.807L489.769 309.74H477.418Z" fill="#959DA8"/>
<path fill-rule="evenodd" clip-rule="evenodd" d="M483.066 320.63V309.24H484.066V320.63H483.066Z" fill="#959DA8"/>
<path fill-rule="evenodd" clip-rule="evenodd" d="M490.267 321.33H476.887V320.33H490.267V321.33Z" fill="#959DA8"/>
<path d="M513.238 309.24H499.848V337.45H513.238V309.24Z" fill="white"/>
<path fill-rule="evenodd" clip-rule="evenodd" d="M499.348 308.74H513.738V337.95H499.348V308.74ZM500.348 309.74V336.95H512.738V309.74H500.348Z" fill="#959DA8"/>
<path fill-rule="evenodd" clip-rule="evenodd" d="M506.039 320.63V309.24H507.039V320.63H506.039Z" fill="#959DA8"/>
<path fill-rule="evenodd" clip-rule="evenodd" d="M513.239 321.33H499.859V320.33H513.239V321.33Z" fill="#959DA8"/>
<path d="M638.066 201.39L777.066 340.03V473.51H499.066V339.31L638.066 201.39Z" fill="#F4F5F6"/>
<path fill-rule="evenodd" clip-rule="evenodd" d="M638.068 199.98L778.066 339.615V474.51H498.066V338.894L638.068 199.98ZM500.066 339.727V472.51H776.066V340.445L638.065 202.801L500.066 339.727Z" fill="#959DA8"/>
<path d="M584.456 470.737C584.457 471.801 584.316 472.861 584.036 473.887H489.186C488.891 472.86 488.71 471.804 488.646 470.737C488.236 464.197 493.966 458.847 500.536 458.847C501.9 458.848 503.254 459.088 504.536 459.557C504.46 458.893 504.424 458.225 504.426 457.557C504.396 453.062 505.96 448.703 508.841 445.253C511.722 441.803 515.733 439.485 520.16 438.713C524.588 437.941 529.147 438.763 533.025 441.034C536.904 443.305 539.852 446.878 541.346 451.117C543.48 449.198 546.075 447.863 548.878 447.244C551.681 446.625 554.597 446.742 557.341 447.584C560.086 448.425 562.566 449.963 564.539 452.047C566.513 454.131 567.914 456.691 568.606 459.477C570.397 458.836 572.316 458.636 574.201 458.894C576.086 459.152 577.881 459.86 579.434 460.959C580.987 462.058 582.253 463.515 583.123 465.206C583.994 466.898 584.444 468.775 584.436 470.677L584.456 470.737Z" fill="#80C33F"/>
<path fill-rule="evenodd" clip-rule="evenodd" d="M774.238 337.63H501.758V336.63H774.238V337.63Z" fill="#959DA8"/>
<path fill-rule="evenodd" clip-rule="evenodd" d="M777.337 347.2H499.297V346.2H777.337V347.2Z" fill="#959DA8"/>
<path d="M691.676 329.09H576.836L566.316 356H702.186L691.676 329.09Z" fill="#F4F5F6"/>
<path fill-rule="evenodd" clip-rule="evenodd" d="M576.153 328.09H692.359L703.65 357H564.852L576.153 328.09ZM577.519 330.09L567.781 355H700.722L690.993 330.09H577.519Z" fill="#959DA8"/>
<path d="M652.79 249.31H622.27V313.61H652.79V249.31Z" fill="white"/>
<path fill-rule="evenodd" clip-rule="evenodd" d="M621.77 248.81H653.29V314.11H621.77V248.81ZM622.77 249.81V313.11H652.29V249.81H622.77Z" fill="#959DA8"/>
<path fill-rule="evenodd" clip-rule="evenodd" d="M637.02 275.27V249.31H638.02V275.27H637.02Z" fill="#959DA8"/>
<path fill-rule="evenodd" clip-rule="evenodd" d="M652.787 276.22H622.297V275.22H652.787V276.22Z" fill="#959DA8"/>
<path d="M609.918 361.26H579.398V425.61H609.918V361.26Z" fill="white"/>
<path fill-rule="evenodd" clip-rule="evenodd" d="M578.898 360.76H610.418V426.11H578.898V360.76ZM579.898 361.76V425.11H609.418V361.76H579.898Z" fill="#959DA8"/>
<path fill-rule="evenodd" clip-rule="evenodd" d="M594.148 387.21V361.26H595.148V387.21H594.148Z" fill="#959DA8"/>
<path fill-rule="evenodd" clip-rule="evenodd" d="M609.92 388.17H579.43V387.17H609.92V388.17Z" fill="#959DA8"/>
<path d="M650.026 361.26H619.496V425.61H650.016L650.026 361.26Z" fill="white"/>
<path fill-rule="evenodd" clip-rule="evenodd" d="M618.996 360.76H650.526L650.516 426.11H618.996V360.76ZM619.996 361.76V425.11H649.516L649.526 361.76H619.996Z" fill="#959DA8"/>
<path fill-rule="evenodd" clip-rule="evenodd" d="M634.258 387.21V361.26H635.258V387.21H634.258Z" fill="#959DA8"/>
<path fill-rule="evenodd" clip-rule="evenodd" d="M650.029 388.17H619.539V387.17H650.029V388.17Z" fill="#959DA8"/>
<path d="M690.129 361.26H659.609V425.61H690.129V361.26Z" fill="white"/>
<path fill-rule="evenodd" clip-rule="evenodd" d="M659.109 360.76H690.629V426.11H659.109V360.76ZM660.109 361.76V425.11H689.629V361.76H660.109Z" fill="#959DA8"/>
<path fill-rule="evenodd" clip-rule="evenodd" d="M674.367 387.21V361.26H675.367V387.21H674.367Z" fill="#959DA8"/>
<path fill-rule="evenodd" clip-rule="evenodd" d="M690.128 388.17H659.648V387.17H690.128V388.17Z" fill="#959DA8"/>
<path d="M351.918 361.11H321.398V425.42H351.918V361.11Z" fill="white"/>
<path fill-rule="evenodd" clip-rule="evenodd" d="M320.898 360.61H352.418V425.92H320.898V360.61ZM321.898 361.61V424.92H351.418V361.61H321.898Z" fill="#959DA8"/>
<path fill-rule="evenodd" clip-rule="evenodd" d="M336.156 387.07V361.11H337.156V387.07H336.156Z" fill="#959DA8"/>
<path fill-rule="evenodd" clip-rule="evenodd" d="M351.918 388.03H321.438V387.03H351.918V388.03Z" fill="#959DA8"/>
<path d="M392.016 361.11H361.496V425.42H392.016V361.11Z" fill="white"/>
<path fill-rule="evenodd" clip-rule="evenodd" d="M360.996 360.61H392.516V425.92H360.996V360.61ZM361.996 361.61V424.92H391.516V361.61H361.996Z" fill="#959DA8"/>
<path fill-rule="evenodd" clip-rule="evenodd" d="M376.258 387.07V361.11H377.258V387.07H376.258Z" fill="#959DA8"/>
<path fill-rule="evenodd" clip-rule="evenodd" d="M392.017 388.03H361.527V387.03H392.017V388.03Z" fill="#959DA8"/>
<path d="M396.726 434.15H318.576L317.566 425.29H397.736L396.726 434.15Z" fill="#F4F5F6"/>
<path fill-rule="evenodd" clip-rule="evenodd" d="M317.008 424.79H398.298L397.174 434.65H318.132L317.008 424.79ZM318.128 425.79L319.024 433.65H396.282L397.178 425.79H318.128Z" fill="#959DA8"/>
<path d="M574.21 355.97H569.93V369.12H574.21V355.97Z" fill="#F4F5F6"/>
<path fill-rule="evenodd" clip-rule="evenodd" d="M568.93 354.97H575.21V370.12H568.93V354.97ZM570.93 356.97V368.12H573.21V356.97H570.93Z" fill="#959DA8"/>
<path d="M698.897 356.12H694.617V369.27H698.897V356.12Z" fill="#F4F5F6"/>
<path fill-rule="evenodd" clip-rule="evenodd" d="M693.617 355.12H699.897V370.27H693.617V355.12ZM695.617 357.12V368.27H697.897V357.12H695.617Z" fill="#959DA8"/>
<path d="M429.357 356.98H414.407L357.547 300.11L300.677 356.98H285.727L357.547 285.17L429.357 356.98Z" fill="#F4F5F6"/>
<path d="M645.339 194.92L638.429 188L631.529 194.92L482.109 344.75L495.729 344.83L638.429 201.84L781.129 344.83L794.779 344.75L645.339 194.92Z" fill="#F4F5F6"/>
<path fill-rule="evenodd" clip-rule="evenodd" d="M357.548 299.403L414.761 356.627L414.054 357.334L357.548 300.817L301.031 357.334L300.324 356.627L357.548 299.403Z" fill="#959DA8"/>
<path fill-rule="evenodd" clip-rule="evenodd" d="M357.547 283.756L431.771 357.98H414.407V355.98H426.943L357.547 286.584L288.141 355.98H300.677V357.98H283.312L357.547 283.756Z" fill="#959DA8"/>
<path fill-rule="evenodd" clip-rule="evenodd" d="M638.429 186.584L646.047 194.214L797.174 345.735L781.926 345.83L781.919 345.83H779.59L776.325 343.414L777.514 341.806L780.249 343.83L781.913 343.83L781.919 343.83L792.385 343.765L644.632 195.627L638.43 189.416L632.238 195.626L484.504 343.765L494.919 343.83L494.926 343.83L496.595 343.83L498.442 342.491L499.617 344.11L497.244 345.83H494.919L494.913 345.83L479.715 345.735L638.429 186.584Z" fill="#959DA8"/>
<path d="M812.813 259.112H756V288.889H812.813V259.112Z" fill="white"/>
<path d="M812.766 259.001H756V261.356H812.766V259.001Z" fill="#B22234"/>
<path d="M812.769 263.608H756.004V265.964H812.769V263.608Z" fill="#B22234"/>
<path d="M812.769 268.215H756.004V270.571H812.769V268.215Z" fill="#B22234"/>
<path d="M812.769 272.823H756.004V275.178H812.769V272.823Z" fill="#B22234"/>
<path d="M812.769 277.43H756.004V279.785H812.769V277.43Z" fill="#B22234"/>
<path d="M812.769 282.037H756.004V284.393H812.769V282.037Z" fill="#B22234"/>
<path d="M812.769 286.645H756.004V289H812.769V286.645Z" fill="#B22234"/>
<path d="M778.672 259H756V275.179H778.672V259Z" fill="#2A3A51"/>
<path d="M757.926 259.62L758.138 260.28H758.825L758.269 260.688L758.482 261.349L757.926 260.941L757.371 261.349L757.583 260.688L757.027 260.28H757.714L757.926 259.62Z" fill="white"/>
<path d="M759.797 261.28L760.009 261.94H760.696L760.141 262.349L760.353 263.009L759.797 262.601L759.242 263.009L759.454 262.349L758.898 261.94H759.585L759.797 261.28Z" fill="white"/>
<path d="M759.797 264.523L760.009 265.184H760.696L760.141 265.592L760.353 266.252L759.797 265.844L759.242 266.252L759.454 265.592L758.898 265.184H759.585L759.797 264.523Z" fill="white"/>
<path d="M759.797 267.767L760.009 268.427H760.696L760.141 268.835L760.353 269.496L759.797 269.088L759.242 269.496L759.454 268.835L758.898 268.427H759.585L759.797 267.767Z" fill="white"/>
<path d="M759.797 271.01L760.009 271.671H760.696L760.141 272.079L760.353 272.739L759.797 272.331L759.242 272.739L759.454 272.079L758.898 271.671H759.585L759.797 271.01Z" fill="white"/>
<path d="M763.582 261.28L763.794 261.94H764.481L763.926 262.349L764.138 263.009L763.582 262.601L763.027 263.009L763.239 262.349L762.684 261.94H763.37L763.582 261.28Z" fill="white"/>
<path d="M763.582 264.523L763.794 265.184H764.481L763.926 265.592L764.138 266.252L763.582 265.844L763.027 266.252L763.239 265.592L762.684 265.184H763.37L763.582 264.523Z" fill="white"/>
<path d="M763.582 267.767L763.794 268.427H764.481L763.926 268.835L764.138 269.496L763.582 269.088L763.027 269.496L763.239 268.835L762.684 268.427H763.37L763.582 267.767Z" fill="white"/>
<path d="M763.582 271.01L763.794 271.671H764.481L763.926 272.079L764.138 272.739L763.582 272.331L763.027 272.739L763.239 272.079L762.684 271.671H763.37L763.582 271.01Z" fill="white"/>
<path d="M767.371 261.28L767.584 261.94H768.27L767.715 262.349L767.927 263.009L767.371 262.601L766.816 263.009L767.028 262.349L766.473 261.94H767.159L767.371 261.28Z" fill="white"/>
<path d="M767.371 264.523L767.584 265.184H768.27L767.715 265.592L767.927 266.252L767.371 265.844L766.816 266.252L767.028 265.592L766.473 265.184H767.159L767.371 264.523Z" fill="white"/>
<path d="M767.371 267.767L767.584 268.427H768.27L767.715 268.835L767.927 269.496L767.371 269.088L766.816 269.496L767.028 268.835L766.473 268.427H767.159L767.371 267.767Z" fill="white"/>
<path d="M767.371 271.01L767.584 271.671H768.27L767.715 272.079L767.927 272.739L767.371 272.331L766.816 272.739L767.028 272.079L766.473 271.671H767.159L767.371 271.01Z" fill="white"/>
<path d="M771.16 261.28L771.373 261.94H772.059L771.504 262.349L771.716 263.009L771.16 262.601L770.605 263.009L770.817 262.349L770.262 261.94H770.948L771.16 261.28Z" fill="white"/>
<path d="M771.16 264.523L771.373 265.184H772.059L771.504 265.592L771.716 266.252L771.16 265.844L770.605 266.252L770.817 265.592L770.262 265.184H770.948L771.16 264.523Z" fill="white"/>
<path d="M771.16 267.767L771.373 268.427H772.059L771.504 268.835L771.716 269.496L771.16 269.088L770.605 269.496L770.817 268.835L770.262 268.427H770.948L771.16 267.767Z" fill="white"/>
<path d="M771.16 271.01L771.373 271.671H772.059L771.504 272.079L771.716 272.739L771.16 272.331L770.605 272.739L770.817 272.079L770.262 271.671H770.948L771.16 271.01Z" fill="white"/>
<path d="M774.949 261.28L775.162 261.94H775.848L775.293 262.349L775.505 263.009L774.949 262.601L774.394 263.009L774.606 262.349L774.051 261.94H774.737L774.949 261.28Z" fill="white"/>
<path d="M774.949 264.523L775.162 265.184H775.848L775.293 265.592L775.505 266.252L774.949 265.844L774.394 266.252L774.606 265.592L774.051 265.184H774.737L774.949 264.523Z" fill="white"/>
<path d="M774.949 267.767L775.162 268.427H775.848L775.293 268.835L775.505 269.496L774.949 269.088L774.394 269.496L774.606 268.835L774.051 268.427H774.737L774.949 267.767Z" fill="white"/>
<path d="M774.949 271.01L775.162 271.671H775.848L775.293 272.079L775.505 272.739L774.949 272.331L774.394 272.739L774.606 272.079L774.051 271.671H774.737L774.949 271.01Z" fill="white"/>
<path d="M757.926 262.863L758.138 263.524H758.825L758.269 263.932L758.482 264.592L757.926 264.184L757.371 264.592L757.583 263.932L757.027 263.524H757.714L757.926 262.863Z" fill="white"/>
<path d="M757.926 266.107L758.138 266.767H758.825L758.269 267.175L758.482 267.836L757.926 267.427L757.371 267.836L757.583 267.175L757.027 266.767H757.714L757.926 266.107Z" fill="white"/>
<path d="M757.926 269.35L758.138 270.011H758.825L758.269 270.419L758.482 271.079L757.926 270.671L757.371 271.079L757.583 270.419L757.027 270.011H757.714L757.926 269.35Z" fill="white"/>
<path d="M757.926 272.594L758.138 273.254H758.825L758.269 273.662L758.482 274.323L757.926 273.915L757.371 274.323L757.583 273.662L757.027 273.254H757.714L757.926 272.594Z" fill="white"/>
<path d="M761.664 259.62L761.876 260.28H762.563L762.008 260.688L762.22 261.349L761.664 260.941L761.109 261.349L761.321 260.688L760.766 260.28H761.452L761.664 259.62Z" fill="white"/>
<path d="M761.664 262.863L761.876 263.524H762.563L762.008 263.932L762.22 264.592L761.664 264.184L761.109 264.592L761.321 263.932L760.766 263.524H761.452L761.664 262.863Z" fill="white"/>
<path d="M761.664 266.107L761.876 266.767H762.563L762.008 267.175L762.22 267.836L761.664 267.427L761.109 267.836L761.321 267.175L760.766 266.767H761.452L761.664 266.107Z" fill="white"/>
<path d="M761.664 269.35L761.876 270.011H762.563L762.008 270.419L762.22 271.079L761.664 270.671L761.109 271.079L761.321 270.419L760.766 270.011H761.452L761.664 269.35Z" fill="white"/>
<path d="M761.664 272.594L761.876 273.254H762.563L762.008 273.662L762.22 274.323L761.664 273.915L761.109 274.323L761.321 273.662L760.766 273.254H761.452L761.664 272.594Z" fill="white"/>
<path d="M765.504 259.62L765.716 260.28H766.403L765.848 260.688L766.06 261.349L765.504 260.941L764.949 261.349L765.161 260.688L764.605 260.28H765.292L765.504 259.62Z" fill="white"/>
<path d="M765.504 262.863L765.716 263.524H766.403L765.848 263.932L766.06 264.592L765.504 264.184L764.949 264.592L765.161 263.932L764.605 263.524H765.292L765.504 262.863Z" fill="white"/>
<path d="M765.504 266.107L765.716 266.767H766.403L765.848 267.175L766.06 267.836L765.504 267.427L764.949 267.836L765.161 267.175L764.605 266.767H765.292L765.504 266.107Z" fill="white"/>
<path d="M765.504 269.35L765.716 270.011H766.403L765.848 270.419L766.06 271.079L765.504 270.671L764.949 271.079L765.161 270.419L764.605 270.011H765.292L765.504 269.35Z" fill="white"/>
<path d="M765.504 272.594L765.716 273.254H766.403L765.848 273.662L766.06 274.323L765.504 273.915L764.949 274.323L765.161 273.662L764.605 273.254H765.292L765.504 272.594Z" fill="white"/>
<path d="M769.266 259.62L769.478 260.28H770.165L769.609 260.688L769.821 261.349L769.266 260.941L768.71 261.349L768.922 260.688L768.367 260.28H769.054L769.266 259.62Z" fill="white"/>
<path d="M769.266 262.863L769.478 263.524H770.165L769.609 263.932L769.821 264.592L769.266 264.184L768.71 264.592L768.922 263.932L768.367 263.524H769.054L769.266 262.863Z" fill="white"/>
<path d="M769.266 266.107L769.478 266.767H770.165L769.609 267.175L769.821 267.836L769.266 267.427L768.71 267.836L768.922 267.175L768.367 266.767H769.054L769.266 266.107Z" fill="white"/>
<path d="M769.266 269.35L769.478 270.011H770.165L769.609 270.419L769.821 271.079L769.266 270.671L768.71 271.079L768.922 270.419L768.367 270.011H769.054L769.266 269.35Z" fill="white"/>
<path d="M769.266 272.594L769.478 273.254H770.165L769.609 273.662L769.821 274.323L769.266 273.915L768.71 274.323L768.922 273.662L768.367 273.254H769.054L769.266 272.594Z" fill="white"/>
<path d="M773.028 259.62L773.24 260.28H773.926L773.371 260.688L773.583 261.349L773.028 260.941L772.472 261.349L772.684 260.688L772.129 260.28H772.815L773.028 259.62Z" fill="white"/>
<path d="M773.028 262.863L773.24 263.524H773.926L773.371 263.932L773.583 264.592L773.028 264.184L772.472 264.592L772.684 263.932L772.129 263.524H772.815L773.028 262.863Z" fill="white"/>
<path d="M773.028 266.107L773.24 266.767H773.926L773.371 267.175L773.583 267.836L773.028 267.427L772.472 267.836L772.684 267.175L772.129 266.767H772.815L773.028 266.107Z" fill="white"/>
<path d="M773.028 269.35L773.24 270.011H773.926L773.371 270.419L773.583 271.079L773.028 270.671L772.472 271.079L772.684 270.419L772.129 270.011H772.815L773.028 269.35Z" fill="white"/>
<path d="M773.028 272.594L773.24 273.254H773.926L773.371 273.662L773.583 274.323L773.028 273.915L772.472 274.323L772.684 273.662L772.129 273.254H772.815L773.028 272.594Z" fill="white"/>
<path d="M776.868 259.62L777.08 260.28H777.767L777.211 260.688L777.423 261.349L776.868 260.941L776.312 261.349L776.524 260.688L775.969 260.28H776.655L776.868 259.62Z" fill="white"/>
<path d="M776.868 262.863L777.08 263.524H777.767L777.211 263.932L777.423 264.592L776.868 264.184L776.312 264.592L776.524 263.932L775.969 263.524H776.655L776.868 262.863Z" fill="white"/>
<path d="M776.868 266.107L777.08 266.767H777.767L777.211 267.175L777.423 267.836L776.868 267.427L776.312 267.836L776.524 267.175L775.969 266.767H776.655L776.868 266.107Z" fill="white"/>
<path d="M776.868 269.35L777.08 270.011H777.767L777.211 270.419L777.423 271.079L776.868 270.671L776.312 271.079L776.524 270.419L775.969 270.011H776.655L776.868 269.35Z" fill="white"/>
<path d="M776.868 272.594L777.08 273.254H777.767L777.211 273.662L777.423 274.323L776.868 273.915L776.312 274.323L776.524 273.662L775.969 273.254H776.655L776.868 272.594Z" fill="white"/>
<path fill-rule="evenodd" clip-rule="evenodd" d="M755.5 258.5H812.795V289H756.5V305.5H755.5V258.5ZM756.5 288H811.795V259.5H756.5V288Z" fill="#959DA8"/>
<path fill-rule="evenodd" clip-rule="evenodd" d="M638.429 201.133L781.483 344.477L780.775 345.184L638.429 202.548L496.083 345.184L495.375 344.477L638.429 201.133Z" fill="#959DA8"/>
<line y1="474" x2="1300" y2="474" stroke="#D9DDE2" stroke-width="2" stroke-miterlimit="10"/>
</g>
</g>
</svg>
