<svg width="1300" height="499" viewBox="0 0 1300 499" fill="none" xmlns="http://www.w3.org/2000/svg">
<mask id="mask0" mask-type="alpha" maskUnits="userSpaceOnUse" x="0" y="0" width="1300" height="499">
<rect width="1300" height="499" rx="16" fill="#2A3A51"/>
</mask>
<g mask="url(#mask0)">
<path d="M834.338 436.29C834.788 436.293 835.238 436.247 835.678 436.15C856.178 431.49 856.178 406.66 856.178 406.66C856.178 372.83 834.348 355.87 834.348 355.87C834.348 355.87 812.508 372.79 812.508 406.61C812.508 406.61 812.508 431.47 832.998 436.1C833.436 436.213 833.885 436.277 834.338 436.29Z" fill="#80C33F"/>
<path fill-rule="evenodd" clip-rule="evenodd" d="M834.347 388.53C834.739 388.53 835.057 388.848 835.057 389.24V473.69C835.057 474.082 834.739 474.4 834.347 474.4C833.955 474.4 833.637 474.082 833.637 473.69V389.24C833.637 388.848 833.955 388.53 834.347 388.53Z" fill="#2A3A51"/>
<path d="M790.498 433.51L782.388 425.41L774.288 433.51L774.238 474.61H790.498V433.51Z" fill="#F4F5F6"/>
<path fill-rule="evenodd" clip-rule="evenodd" d="M782.389 423.996L791.5 433.096V475.61H773.238L773.29 433.095L782.389 423.996ZM782.39 426.824L775.289 433.925L775.241 473.61H789.5V433.925L782.39 426.824Z" fill="#959DA8"/>
<path d="M806.729 433.51L798.629 425.41L790.529 433.51L790.469 474.61H806.729V433.51Z" fill="#F4F5F6"/>
<path fill-rule="evenodd" clip-rule="evenodd" d="M798.63 423.996L807.73 433.096V475.61H789.469L789.531 433.095L798.63 423.996ZM791.53 433.925L791.472 473.61H805.73V433.924L798.63 426.824L791.53 433.925Z" fill="#959DA8"/>
<path d="M822.967 433.51L814.867 425.41L806.767 433.51L806.707 474.61H822.967V433.51Z" fill="#F4F5F6"/>
<path fill-rule="evenodd" clip-rule="evenodd" d="M814.869 423.996L823.969 433.096V475.61H805.707L805.769 433.095L814.869 423.996ZM807.768 433.925L807.71 473.61H821.969V433.924L814.869 426.824L807.768 433.925Z" fill="#959DA8"/>
<path d="M839.205 433.51L831.095 425.41L822.995 433.51L822.945 474.61H839.205V433.51Z" fill="#F4F5F6"/>
<path fill-rule="evenodd" clip-rule="evenodd" d="M831.096 423.996L840.206 433.096V475.61H821.945L821.997 433.095L831.096 423.996ZM831.097 426.824L823.996 433.925L823.948 473.61H838.206V433.925L831.097 426.824Z" fill="#959DA8"/>
<path d="M855.44 433.51L847.34 425.41L839.24 433.51L839.18 474.61H855.44V433.51Z" fill="#F4F5F6"/>
<path fill-rule="evenodd" clip-rule="evenodd" d="M847.337 423.996L856.437 433.096V475.61H838.176L838.238 433.095L847.337 423.996ZM847.337 426.824L840.237 433.925L840.179 473.61H854.437V433.924L847.337 426.824Z" fill="#959DA8"/>
<path d="M871.678 433.51L863.578 425.41L855.478 433.51L855.418 474.61H871.678V433.51Z" fill="#F4F5F6"/>
<path fill-rule="evenodd" clip-rule="evenodd" d="M863.579 423.996L872.679 433.096V475.61H854.418L854.48 433.095L863.579 423.996ZM863.579 426.824L856.479 433.925L856.421 473.61H870.679V433.924L863.579 426.824Z" fill="#959DA8"/>
<path d="M887.916 433.51L879.816 425.41L871.706 433.51L871.656 474.61H887.916V433.51Z" fill="#F4F5F6"/>
<path fill-rule="evenodd" clip-rule="evenodd" d="M879.818 423.996L888.917 433.096V475.61H870.656L870.708 433.095L879.818 423.996ZM872.707 433.925L872.659 473.61H886.917V433.924L879.817 426.824L872.707 433.925Z" fill="#959DA8"/>
<path d="M243.768 433.51L235.668 425.41L227.568 433.51L227.508 474.61H243.768V433.51Z" fill="#F4F5F6"/>
<path fill-rule="evenodd" clip-rule="evenodd" d="M235.669 423.996L244.769 433.096V475.61H226.508L226.57 433.095L235.669 423.996ZM228.569 433.925L228.511 473.61H242.769V433.924L235.669 426.824L228.569 433.925Z" fill="#959DA8"/>
<path d="M260.01 433.51L251.91 425.41L243.81 433.51L243.75 474.61H260.01V433.51Z" fill="#F4F5F6"/>
<path fill-rule="evenodd" clip-rule="evenodd" d="M251.908 423.996L261.008 433.096V475.61H242.746L242.808 433.095L251.908 423.996ZM244.807 433.925L244.749 473.61H259.008V433.924L251.908 426.824L244.807 433.925Z" fill="#959DA8"/>
<path d="M276.248 433.51L268.148 425.41L260.038 433.51L259.988 474.61H276.248V433.51Z" fill="#F4F5F6"/>
<path fill-rule="evenodd" clip-rule="evenodd" d="M268.15 423.996L277.25 433.096V475.61H258.988L259.04 433.095L268.15 423.996ZM261.039 433.925L260.991 473.61H275.25V433.924L268.149 426.824L261.039 433.925Z" fill="#959DA8"/>
<path d="M292.479 433.51L284.379 425.41L276.279 433.51L276.219 474.61H292.479V433.51Z" fill="#F4F5F6"/>
<path fill-rule="evenodd" clip-rule="evenodd" d="M284.38 423.996L293.48 433.096V475.61H275.219L275.281 433.095L284.38 423.996ZM277.28 433.925L277.222 473.61H291.48V433.924L284.38 426.824L277.28 433.925Z" fill="#959DA8"/>
<path d="M308.717 433.51L300.617 425.41L292.517 433.51L292.457 474.61H308.717V433.51Z" fill="#F4F5F6"/>
<path fill-rule="evenodd" clip-rule="evenodd" d="M300.618 423.996L309.718 433.096V475.61H291.457L291.519 433.095L300.618 423.996ZM300.618 426.824L293.518 433.925L293.46 473.61H307.718V433.924L300.618 426.824Z" fill="#959DA8"/>
<path d="M475.467 362.15H432.617V455.24H475.467V362.15Z" fill="#D3DCE5"/>
<path d="M469.398 368.06H438.668V412.39H469.398V368.06Z" fill="white"/>
<path fill-rule="evenodd" clip-rule="evenodd" d="M438.168 367.56H469.898V412.89H438.168V367.56ZM439.168 368.56V411.89H468.898V368.56H439.168Z" fill="#959DA8"/>
<path d="M469.918 419.61C469.918 420.715 469.023 421.61 467.918 421.61C466.813 421.61 465.918 420.715 465.918 419.61C465.918 418.506 466.813 417.61 467.918 417.61C469.023 417.61 469.918 418.506 469.918 419.61Z" fill="white"/>
<path fill-rule="evenodd" clip-rule="evenodd" d="M467.918 418.11C467.09 418.11 466.418 418.782 466.418 419.61C466.418 420.439 467.09 421.11 467.918 421.11C468.746 421.11 469.418 420.439 469.418 419.61C469.418 418.782 468.746 418.11 467.918 418.11ZM465.418 419.61C465.418 418.229 466.537 417.11 467.918 417.11C469.299 417.11 470.418 418.229 470.418 419.61C470.418 420.991 469.299 422.11 467.918 422.11C466.537 422.11 465.418 420.991 465.418 419.61Z" fill="#959DA8"/>
<path fill-rule="evenodd" clip-rule="evenodd" d="M358.699 251.36L579.102 251.512L511.213 325.475L299.25 323.046L358.699 251.36ZM359.638 253.361L303.467 321.094L510.344 323.465L574.555 253.509L359.638 253.361Z" fill="#959DA8"/>
<path fill-rule="evenodd" clip-rule="evenodd" d="M412.988 454.73H526.988V465.5H412.988V454.73ZM413.988 455.73V464.5H525.988V455.73H413.988Z" fill="#959DA8"/>
<path fill-rule="evenodd" clip-rule="evenodd" d="M412.988 464.48H526.988V475.25H412.988V464.48ZM413.988 465.48V474.25H525.988V465.48H413.988Z" fill="#959DA8"/>
<path d="M517.098 322.29H296.688V331.82H517.098V322.29Z" fill="#F4F5F6"/>
<path fill-rule="evenodd" clip-rule="evenodd" d="M295.688 321.29H518.098V332.82H295.688V321.29ZM297.688 323.29V330.82H516.098V323.29H297.688Z" fill="#959DA8"/>
<path d="M520.338 299.52H445.438V349.46H520.338V299.52Z" fill="#F4F5F6"/>
<path fill-rule="evenodd" clip-rule="evenodd" d="M444.938 299.02H520.838V349.96H444.938V299.02ZM445.938 300.02V348.96H519.838V300.02H445.938Z" fill="#959DA8"/>
<path d="M357.399 299.61L414.039 347.4V474.4H300.719V347.4L357.399 299.61Z" fill="#F4F5F6"/>
<path fill-rule="evenodd" clip-rule="evenodd" d="M357.399 298.302L415.039 346.936V475.4H299.719V346.935L357.399 298.302ZM301.719 347.865V473.4H413.039V347.865L357.399 300.919L301.719 347.865Z" fill="#959DA8"/>
<path d="M235.098 416.53C235.754 413.465 235.723 410.292 235.009 407.239C234.295 404.186 232.916 401.329 230.968 398.872C229.021 396.415 226.555 394.419 223.746 393.026C220.937 391.634 217.855 390.879 214.721 390.817C211.587 390.755 208.477 391.386 205.615 392.666C202.753 393.946 200.21 395.843 198.166 398.22C196.123 400.598 194.631 403.398 193.796 406.42C192.961 409.442 192.805 412.611 193.338 415.7C190.976 416.811 188.885 418.423 187.208 420.422C185.531 422.422 184.308 424.763 183.626 427.282C182.944 429.801 182.817 432.439 183.256 435.012C183.694 437.584 184.687 440.031 186.165 442.182C187.643 444.333 189.571 446.137 191.816 447.469C194.061 448.801 196.568 449.628 199.164 449.894C201.761 450.161 204.384 449.859 206.852 449.01C209.32 448.162 211.574 446.787 213.458 444.98C215.286 446.75 217.468 448.113 219.861 448.978C222.254 449.843 224.803 450.191 227.34 449.999C229.877 449.807 232.344 449.079 234.58 447.864C236.815 446.648 238.767 444.973 240.307 442.948C241.848 440.923 242.941 438.594 243.516 436.115C244.091 433.637 244.133 431.064 243.641 428.568C243.149 426.072 242.133 423.708 240.66 421.633C239.188 419.558 237.292 417.819 235.098 416.53Z" fill="#80C33F"/>
<path fill-rule="evenodd" clip-rule="evenodd" d="M203.888 428.295C204.112 427.96 204.565 427.869 204.9 428.093L214.7 434.623C215.036 434.846 215.127 435.299 214.903 435.635C214.68 435.97 214.226 436.061 213.891 435.838L204.091 429.308C203.755 429.084 203.665 428.631 203.888 428.295Z" fill="#2A3A51"/>
<path fill-rule="evenodd" clip-rule="evenodd" d="M226.291 433.136C226.553 433.442 226.517 433.903 226.211 434.165L214.771 443.955C214.465 444.217 214.004 444.181 213.742 443.875C213.48 443.569 213.515 443.108 213.822 442.846L225.262 433.056C225.568 432.794 226.029 432.829 226.291 433.136Z" fill="#2A3A51"/>
<path fill-rule="evenodd" clip-rule="evenodd" d="M214.277 414.77C214.68 414.77 215.007 415.097 215.007 415.5V474.35C215.007 474.753 214.68 475.08 214.277 475.08C213.874 475.08 213.547 474.753 213.547 474.35V415.5C213.547 415.097 213.874 414.77 214.277 414.77Z" fill="#2A3A51"/>
<path d="M439.499 299.65H435.219V312.8H439.499V299.65Z" fill="#F4F5F6"/>
<path fill-rule="evenodd" clip-rule="evenodd" d="M434.219 298.65H440.499V313.8H434.219V298.65ZM436.219 300.65V311.8H438.499V300.65H436.219Z" fill="#959DA8"/>
<path d="M556.618 278.07H441.778L431.258 304.99H567.128L556.618 278.07Z" fill="#F4F5F6"/>
<path fill-rule="evenodd" clip-rule="evenodd" d="M441.095 277.07H557.301L568.591 305.99H429.793L441.095 277.07ZM442.46 279.07L432.722 303.99H565.663L555.934 279.07H442.46Z" fill="#959DA8"/>
<path d="M467.298 310.24H453.918V338.45H467.308L467.298 310.24Z" fill="white"/>
<path fill-rule="evenodd" clip-rule="evenodd" d="M453.418 309.74H467.798L467.808 338.95H453.418V309.74ZM454.418 310.74V337.95H466.808L466.798 310.74H454.418Z" fill="#959DA8"/>
<path fill-rule="evenodd" clip-rule="evenodd" d="M460.098 321.63V310.24H461.098V321.63H460.098Z" fill="#959DA8"/>
<path fill-rule="evenodd" clip-rule="evenodd" d="M467.3 322.33H453.93V321.33H467.3V322.33Z" fill="#959DA8"/>
<path d="M490.268 310.24H476.918V338.45H490.308L490.268 310.24Z" fill="white"/>
<path fill-rule="evenodd" clip-rule="evenodd" d="M476.418 309.74H490.767L490.809 338.95H476.418V309.74ZM477.418 310.74V337.95H489.807L489.769 310.74H477.418Z" fill="#959DA8"/>
<path fill-rule="evenodd" clip-rule="evenodd" d="M483.066 321.63V310.24H484.066V321.63H483.066Z" fill="#959DA8"/>
<path fill-rule="evenodd" clip-rule="evenodd" d="M490.267 322.33H476.887V321.33H490.267V322.33Z" fill="#959DA8"/>
<path d="M513.238 310.24H499.848V338.45H513.238V310.24Z" fill="white"/>
<path fill-rule="evenodd" clip-rule="evenodd" d="M499.348 309.74H513.738V338.95H499.348V309.74ZM500.348 310.74V337.95H512.738V310.74H500.348Z" fill="#959DA8"/>
<path fill-rule="evenodd" clip-rule="evenodd" d="M506.039 321.63V310.24H507.039V321.63H506.039Z" fill="#959DA8"/>
<path fill-rule="evenodd" clip-rule="evenodd" d="M513.239 322.33H499.859V321.33H513.239V322.33Z" fill="#959DA8"/>
<path d="M638.066 202.39L777.066 341.03V474.51H499.066V340.31L638.066 202.39Z" fill="#F4F5F6"/>
<path fill-rule="evenodd" clip-rule="evenodd" d="M638.068 200.98L778.066 340.615V475.51H498.066V339.894L638.068 200.98ZM500.066 340.727V473.51H776.066V341.445L638.065 203.801L500.066 340.727Z" fill="#959DA8"/>
<path d="M584.456 471.737C584.457 472.801 584.316 473.861 584.036 474.887H489.186C488.891 473.86 488.71 472.804 488.646 471.737C488.236 465.197 493.966 459.847 500.536 459.847C501.9 459.848 503.254 460.088 504.536 460.557C504.46 459.893 504.424 459.225 504.426 458.557C504.396 454.062 505.96 449.703 508.841 446.253C511.722 442.803 515.733 440.485 520.16 439.713C524.588 438.941 529.147 439.763 533.025 442.034C536.904 444.305 539.852 447.878 541.346 452.117C543.48 450.198 546.075 448.863 548.878 448.244C551.681 447.625 554.597 447.742 557.341 448.584C560.086 449.425 562.566 450.963 564.539 453.047C566.513 455.131 567.914 457.691 568.606 460.477C570.397 459.836 572.316 459.636 574.201 459.894C576.086 460.152 577.881 460.86 579.434 461.959C580.987 463.058 582.253 464.515 583.123 466.206C583.994 467.898 584.444 469.775 584.436 471.677L584.456 471.737Z" fill="#80C33F"/>
<path fill-rule="evenodd" clip-rule="evenodd" d="M774.238 338.63H501.758V337.63H774.238V338.63Z" fill="#959DA8"/>
<path fill-rule="evenodd" clip-rule="evenodd" d="M777.337 348.2H499.297V347.2H777.337V348.2Z" fill="#959DA8"/>
<path d="M691.676 330.09H576.836L566.316 357H702.186L691.676 330.09Z" fill="#F4F5F6"/>
<path fill-rule="evenodd" clip-rule="evenodd" d="M576.153 329.09H692.359L703.65 358H564.852L576.153 329.09ZM577.519 331.09L567.781 356H700.722L690.993 331.09H577.519Z" fill="#959DA8"/>
<path d="M652.79 250.31H622.27V314.61H652.79V250.31Z" fill="white"/>
<path fill-rule="evenodd" clip-rule="evenodd" d="M621.77 249.81H653.29V315.11H621.77V249.81ZM622.77 250.81V314.11H652.29V250.81H622.77Z" fill="#959DA8"/>
<path fill-rule="evenodd" clip-rule="evenodd" d="M637.02 276.27V250.31H638.02V276.27H637.02Z" fill="#959DA8"/>
<path fill-rule="evenodd" clip-rule="evenodd" d="M652.787 277.22H622.297V276.22H652.787V277.22Z" fill="#959DA8"/>
<path d="M609.918 362.26H579.398V426.61H609.918V362.26Z" fill="white"/>
<path fill-rule="evenodd" clip-rule="evenodd" d="M578.898 361.76H610.418V427.11H578.898V361.76ZM579.898 362.76V426.11H609.418V362.76H579.898Z" fill="#959DA8"/>
<path fill-rule="evenodd" clip-rule="evenodd" d="M594.148 388.21V362.26H595.148V388.21H594.148Z" fill="#959DA8"/>
<path fill-rule="evenodd" clip-rule="evenodd" d="M609.92 389.17H579.43V388.17H609.92V389.17Z" fill="#959DA8"/>
<path d="M650.026 362.26H619.496V426.61H650.016L650.026 362.26Z" fill="white"/>
<path fill-rule="evenodd" clip-rule="evenodd" d="M618.996 361.76H650.526L650.516 427.11H618.996V361.76ZM619.996 362.76V426.11H649.516L649.526 362.76H619.996Z" fill="#959DA8"/>
<path fill-rule="evenodd" clip-rule="evenodd" d="M634.258 388.21V362.26H635.258V388.21H634.258Z" fill="#959DA8"/>
<path fill-rule="evenodd" clip-rule="evenodd" d="M650.029 389.17H619.539V388.17H650.029V389.17Z" fill="#959DA8"/>
<path d="M690.129 362.26H659.609V426.61H690.129V362.26Z" fill="white"/>
<path fill-rule="evenodd" clip-rule="evenodd" d="M659.109 361.76H690.629V427.11H659.109V361.76ZM660.109 362.76V426.11H689.629V362.76H660.109Z" fill="#959DA8"/>
<path fill-rule="evenodd" clip-rule="evenodd" d="M674.367 388.21V362.26H675.367V388.21H674.367Z" fill="#959DA8"/>
<path fill-rule="evenodd" clip-rule="evenodd" d="M690.128 389.17H659.648V388.17H690.128V389.17Z" fill="#959DA8"/>
<path d="M351.918 362.11H321.398V426.42H351.918V362.11Z" fill="white"/>
<path fill-rule="evenodd" clip-rule="evenodd" d="M320.898 361.61H352.418V426.92H320.898V361.61ZM321.898 362.61V425.92H351.418V362.61H321.898Z" fill="#959DA8"/>
<path fill-rule="evenodd" clip-rule="evenodd" d="M336.156 388.07V362.11H337.156V388.07H336.156Z" fill="#959DA8"/>
<path fill-rule="evenodd" clip-rule="evenodd" d="M351.918 389.03H321.438V388.03H351.918V389.03Z" fill="#959DA8"/>
<path d="M392.016 362.11H361.496V426.42H392.016V362.11Z" fill="white"/>
<path fill-rule="evenodd" clip-rule="evenodd" d="M360.996 361.61H392.516V426.92H360.996V361.61ZM361.996 362.61V425.92H391.516V362.61H361.996Z" fill="#959DA8"/>
<path fill-rule="evenodd" clip-rule="evenodd" d="M376.258 388.07V362.11H377.258V388.07H376.258Z" fill="#959DA8"/>
<path fill-rule="evenodd" clip-rule="evenodd" d="M392.017 389.03H361.527V388.03H392.017V389.03Z" fill="#959DA8"/>
<path d="M396.726 435.15H318.576L317.566 426.29H397.736L396.726 435.15Z" fill="#F4F5F6"/>
<path fill-rule="evenodd" clip-rule="evenodd" d="M317.008 425.79H398.298L397.174 435.65H318.132L317.008 425.79ZM318.128 426.79L319.024 434.65H396.282L397.178 426.79H318.128Z" fill="#959DA8"/>
<path d="M574.21 356.97H569.93V370.12H574.21V356.97Z" fill="#F4F5F6"/>
<path fill-rule="evenodd" clip-rule="evenodd" d="M568.93 355.97H575.21V371.12H568.93V355.97ZM570.93 357.97V369.12H573.21V357.97H570.93Z" fill="#959DA8"/>
<path d="M698.897 357.12H694.617V370.27H698.897V357.12Z" fill="#F4F5F6"/>
<path fill-rule="evenodd" clip-rule="evenodd" d="M693.617 356.12H699.897V371.27H693.617V356.12ZM695.617 358.12V369.27H697.897V358.12H695.617Z" fill="#959DA8"/>
<path d="M429.357 357.98H414.407L357.547 301.11L300.677 357.98H285.727L357.547 286.17L429.357 357.98Z" fill="#F4F5F6"/>
<path d="M645.339 195.92L638.429 189L631.529 195.92L482.109 345.75L495.729 345.83L638.429 202.84L781.129 345.83L794.779 345.75L645.339 195.92Z" fill="#F4F5F6"/>
<path fill-rule="evenodd" clip-rule="evenodd" d="M357.548 300.403L414.761 357.627L414.054 358.334L357.548 301.817L301.031 358.334L300.324 357.627L357.548 300.403Z" fill="#959DA8"/>
<path fill-rule="evenodd" clip-rule="evenodd" d="M357.547 284.756L431.771 358.98H414.407V356.98H426.943L357.547 287.584L288.141 356.98H300.677V358.98H283.312L357.547 284.756Z" fill="#959DA8"/>
<path fill-rule="evenodd" clip-rule="evenodd" d="M638.429 187.584L646.047 195.214L797.174 346.735L781.926 346.83L781.919 346.83H779.59L776.325 344.414L777.514 342.806L780.249 344.83L781.913 344.83L781.919 344.83L792.385 344.765L644.632 196.627L638.43 190.416L632.238 196.626L484.504 344.765L494.919 344.83L494.926 344.83L496.595 344.83L498.442 343.491L499.617 345.11L497.244 346.83H494.919L494.913 346.83L479.715 346.735L638.429 187.584Z" fill="#959DA8"/>
<path fill-rule="evenodd" clip-rule="evenodd" d="M638.429 202.132L781.483 345.477L780.775 346.184L638.429 203.548L496.083 346.184L495.375 345.477L638.429 202.132Z" fill="#959DA8"/>
<path d="M958.98 382.15V458.304" stroke="#959DA8" stroke-width="1.91508" stroke-miterlimit="10"/>
<path d="M974.608 405.581H943.363L953.13 382.15H964.841L974.608 405.581Z" fill="#D3DCE5"/>
<path d="M956.906 382.15L951.41 405.581" stroke="#959DA8" stroke-width="0.957542" stroke-miterlimit="10"/>
<path d="M961.18 382.15L966.676 405.581" stroke="#959DA8" stroke-width="0.957542" stroke-miterlimit="10"/>
<path d="M918.857 416.038L917.248 415.741C916.01 417.471 915.482 419.609 915.774 421.716C915.837 422.15 916.064 422.542 916.408 422.813C916.752 423.084 917.187 423.214 917.623 423.174C918.059 423.135 918.464 422.93 918.754 422.602C919.044 422.274 919.197 421.848 919.182 421.41C919.237 419.613 919.128 417.815 918.857 416.038Z" fill="white" stroke="#959DA8" stroke-width="0.957542" stroke-miterlimit="10"/>
<path d="M923.594 413.07L924.025 411.49C926.12 411.125 928.276 411.578 930.048 412.754C930.41 412.999 930.665 413.374 930.76 413.801C930.855 414.228 930.783 414.675 930.559 415.051C930.335 415.427 929.976 415.703 929.555 415.822C929.134 415.942 928.683 415.896 928.295 415.694C926.652 414.963 925.078 414.085 923.594 413.07Z" fill="white" stroke="#959DA8" stroke-width="0.957542" stroke-miterlimit="10"/>
<path d="M928.417 416.489C929.043 417.605 929.217 418.92 928.902 420.16C928.586 421.401 927.806 422.473 926.722 423.154C925.639 423.836 924.334 424.075 923.08 423.821C921.825 423.568 920.715 422.842 919.981 421.794C918.602 419.591 917.999 414.449 920.325 412.984C922.652 411.519 927.038 414.286 928.417 416.489Z" fill="white" stroke="#959DA8" stroke-width="0.957542" stroke-miterlimit="10"/>
<path d="M915.189 412.252C916.106 411.675 916.383 410.463 915.806 409.546C915.229 408.628 914.017 408.351 913.099 408.928C912.182 409.505 911.905 410.717 912.482 411.635C913.059 412.553 914.271 412.829 915.189 412.252Z" fill="white" stroke="#959DA8" stroke-width="0.957542" stroke-miterlimit="10"/>
<path d="M923.351 408.275C924.272 407.701 924.554 406.488 923.979 405.566C923.404 404.645 922.192 404.364 921.27 404.938C920.349 405.513 920.067 406.726 920.642 407.647C921.217 408.569 922.429 408.85 923.351 408.275Z" fill="white" stroke="#959DA8" stroke-width="0.959168" stroke-miterlimit="10"/>
<path d="M921.844 415.376C924.173 413.913 924.94 410.944 923.558 408.746C922.177 406.547 919.169 405.951 916.841 407.415C914.512 408.878 913.745 411.847 915.127 414.045C916.509 416.243 919.516 416.839 921.844 415.376Z" fill="white" stroke="#959DA8" stroke-width="0.957542" stroke-miterlimit="10"/>
<path d="M924.828 425.604C925.17 424.431 924.344 423.158 922.983 422.761C921.623 422.365 920.243 422.994 919.901 424.166C919.559 425.339 920.384 426.612 921.745 427.008C923.105 427.405 924.486 426.776 924.828 425.604Z" fill="white" stroke="#959DA8" stroke-width="0.976692" stroke-miterlimit="10"/>
<path d="M931.863 420.606C932.096 419.208 931.308 417.912 930.103 417.711C928.898 417.511 927.732 418.481 927.499 419.879C927.267 421.277 928.055 422.573 929.26 422.774C930.465 422.974 931.631 422.004 931.863 420.606Z" fill="white" stroke="#959DA8" stroke-width="0.957542" stroke-miterlimit="10"/>
<path d="M921.843 415.366C922.981 414.651 923.51 413.448 923.026 412.678C922.542 411.907 921.228 411.863 920.09 412.577C918.953 413.292 918.424 414.496 918.908 415.266C919.392 416.036 920.706 416.081 921.843 415.366Z" stroke="#959DA8" stroke-width="0.239385" stroke-miterlimit="10"/>
<path d="M917.793 412.463C917.85 412.211 917.692 411.959 917.44 411.901C917.187 411.844 916.935 412.002 916.878 412.254C916.82 412.507 916.978 412.759 917.231 412.816C917.484 412.874 917.735 412.716 917.793 412.463Z" fill="#959DA8"/>
<path d="M921.108 410.465C921.296 410.347 921.353 410.098 921.235 409.91C921.117 409.722 920.868 409.666 920.68 409.784C920.492 409.902 920.436 410.15 920.554 410.338C920.672 410.526 920.92 410.583 921.108 410.465Z" fill="#959DA8"/>
<path d="M921.036 414.074C921.304 413.905 921.415 413.598 921.283 413.387C921.15 413.177 920.825 413.143 920.557 413.312C920.288 413.481 920.178 413.788 920.31 413.999C920.442 414.209 920.767 414.243 921.036 414.074Z" fill="#959DA8"/>
<path d="M921.059 414.093L921.355 414.562" stroke="#959DA8" stroke-width="0.239385" stroke-miterlimit="10"/>
<path d="M920.629 414.841C921.154 414.729 921.623 414.434 921.95 414.008" stroke="#959DA8" stroke-width="0.239385" stroke-miterlimit="10"/>
<path d="M946.104 420.673H913.883V447.35H946.104V420.673Z" fill="#F4F5F6" stroke="#959DA8" stroke-width="1.91508" stroke-miterlimit="10"/>
<path d="M934.516 447.35V420.673" stroke="#959DA8" stroke-width="0.957542" stroke-miterlimit="10"/>
<path d="M912.932 419.832L905.367 426.381H928.061L934.544 419.832H912.932Z" fill="#D3DCE5"/>
<path d="M952.861 425.376H940.212L934.543 419.832H947.182L952.861 425.376Z" fill="#D3DCE5"/>
<path d="M936.534 447.351H904.312V474.028H936.534V447.351Z" fill="#F4F5F6" stroke="#959DA8" stroke-width="1.91508" stroke-miterlimit="10"/>
<path d="M924.945 474.036V448.048" stroke="#959DA8" stroke-width="0.957542" stroke-miterlimit="10"/>
<path d="M968.753 447.351H936.531V474.028H968.753V447.351Z" fill="#F4F5F6" stroke="#959DA8" stroke-width="1.91508" stroke-miterlimit="10"/>
<path d="M962.707 474.037V447.351" stroke="#959DA8" stroke-width="0.957542" stroke-miterlimit="10"/>
<path d="M897.042 474.495H876.043L891.162 445.931H912.161L897.042 474.495Z" fill="#F4F5F6" stroke="#959DA8" stroke-width="1.91508" stroke-miterlimit="10"/>
<path d="M893.679 452.193C894.856 450.385 895.272 448.568 894.607 448.135C893.942 447.703 892.449 448.818 891.272 450.626C890.095 452.434 889.68 454.251 890.344 454.684C891.009 455.117 892.502 454.002 893.679 452.193Z" fill="#D3DCE5"/>
<path d="M897.354 466.007C900.227 461.592 901.245 457.16 899.628 456.107C898.01 455.054 894.369 457.779 891.496 462.193C888.622 466.608 887.604 471.04 889.222 472.093C890.84 473.146 894.481 470.421 897.354 466.007Z" fill="#D3DCE5"/>
<path d="M887.254 461.685L897.021 449.965V461.685H887.254Z" stroke="#959DA8" stroke-width="0.957542" stroke-miterlimit="10"/>
<line y1="475" x2="1300" y2="475" stroke="#D9DDE2" stroke-width="2" stroke-miterlimit="10"/>
</g>
</svg>
