<svg width="707" height="292" viewBox="0 0 707 292" fill="none" xmlns="http://www.w3.org/2000/svg">
<path d="M159.917 290.756L105.584 290.809L105.347 55.1087L159.68 55.0552" fill="#F4F5F6"/>
<path fill-rule="evenodd" clip-rule="evenodd" d="M106.113 55.8734L159.681 55.8206L159.679 54.29L104.581 54.3444L104.819 291.575L159.918 291.521L159.917 289.991L106.348 290.043L106.113 55.8734Z" fill="#959DA8"/>
<path d="M39.8626 248.197C40.3585 245.851 40.33 243.425 39.7792 241.091C39.2284 238.758 38.1689 236.575 36.6765 234.698C35.1841 232.822 33.2955 231.298 31.1458 230.236C28.9962 229.175 26.6385 228.601 24.2413 228.556C21.8441 228.511 19.4667 228.997 17.2788 229.977C15.091 230.958 13.1469 232.41 11.5855 234.23C10.024 236.049 8.88376 238.191 8.24624 240.502C7.60873 242.814 7.48969 245.237 7.89763 247.6C6.09133 248.452 4.49194 249.687 3.21031 251.218C1.92867 252.75 0.99545 254.542 0.475322 256.47C-0.0448054 258.399 -0.139395 260.417 0.198105 262.386C0.535606 264.354 1.29712 266.226 2.42988 267.87C3.56264 269.515 5.03954 270.894 6.75822 271.912C8.4769 272.929 10.3962 273.56 12.3832 273.762C14.3702 273.964 16.3773 273.731 18.2654 273.08C20.1535 272.429 21.8774 271.375 23.3176 269.991C24.7174 271.346 26.3884 272.388 28.2205 273.049C30.0526 273.71 32.004 273.975 33.9461 273.827C35.8881 273.678 37.7766 273.119 39.4869 272.188C41.1972 271.256 42.6904 269.972 43.868 268.42C45.0456 266.869 45.8807 265.085 46.3184 263.187C46.7561 261.289 46.7863 259.32 46.4071 257.41C46.0279 255.499 45.2478 253.691 44.1184 252.104C42.9889 250.518 41.5358 249.188 39.8549 248.204L39.8626 248.197Z" fill="#80C33F"/>
<path fill-rule="evenodd" clip-rule="evenodd" d="M15.9868 257.239C16.1572 256.982 16.5039 256.912 16.7611 257.082L24.2683 262.056C24.5255 262.227 24.5958 262.574 24.4254 262.831C24.255 263.088 23.9083 263.158 23.6512 262.988L16.1439 258.014C15.8867 257.843 15.8164 257.497 15.9868 257.239Z" fill="#2A3A51"/>
<path fill-rule="evenodd" clip-rule="evenodd" d="M33.1383 260.904C33.3393 261.138 33.3126 261.491 33.0786 261.692L24.3316 269.207C24.0976 269.408 23.7449 269.381 23.5439 269.147C23.3428 268.913 23.3695 268.56 23.6035 268.359L32.3505 260.844C32.5845 260.643 32.9372 260.67 33.1383 260.904Z" fill="#2A3A51"/>
<path fill-rule="evenodd" clip-rule="evenodd" d="M23.9214 246.866C24.23 246.865 24.4803 247.115 24.4806 247.424L24.5188 292.46C24.5191 292.768 24.2692 293.018 23.9607 293.019C23.6521 293.019 23.4018 292.769 23.4015 292.46L23.3633 247.425C23.363 247.116 23.6129 246.866 23.9214 246.866Z" fill="#2A3A51"/>
<path d="M675.41 263.436C675.757 263.439 676.104 263.402 676.443 263.328C692.242 259.721 692.226 240.583 692.226 240.583C692.226 214.507 675.356 201.45 675.356 201.45C675.356 201.45 658.532 214.515 658.555 240.613C658.555 240.613 658.555 259.775 674.377 263.328C674.716 263.403 675.062 263.439 675.41 263.436Z" fill="#80C33F"/>
<path fill-rule="evenodd" clip-rule="evenodd" d="M675.39 226.925C675.69 226.925 675.933 227.169 675.933 227.469V291.751C675.933 292.051 675.69 292.294 675.39 292.294C675.09 292.294 674.847 292.051 674.847 291.751V227.469C674.847 227.169 675.09 226.925 675.39 226.925Z" fill="#2A3A51"/>
<path d="M159 172.475L630.877 172L631 291.525L159.123 292" fill="#F4F5F6"/>
<path fill-rule="evenodd" clip-rule="evenodd" d="M631.96 171.664L632.084 292.575L162.214 293.05L162.212 291.52L630.552 291.046L630.431 173.196L162.091 173.669L162.09 172.139L631.96 171.664Z" fill="#959DA8"/>
<path d="M159 55.3438L501.931 55L502 122.996L440.571 172.717L159.116 173" fill="#F4F5F6"/>
<path fill-rule="evenodd" clip-rule="evenodd" d="M502.974 53.9443L503.044 123.182L441.538 173.387L161.708 173.67L161.706 172.14L440.991 171.857L501.513 122.456L501.445 55.4764L161.593 55.82L161.591 54.2895L502.974 53.9443Z" fill="#959DA8"/>
<path d="M502.685 199.326L417.358 199.415L417.455 290.674L502.781 290.585L502.685 199.326Z" fill="#D3DCE5"/>
<path fill-rule="evenodd" clip-rule="evenodd" d="M416.959 211.732L502.669 211.647L502.67 212.405L416.96 212.489L416.959 211.732Z" fill="#F4F5F6"/>
<path fill-rule="evenodd" clip-rule="evenodd" d="M502.664 199.983L416.955 200.052L416.954 199.294L502.664 199.226L502.664 199.983Z" fill="#F4F5F6"/>
<path fill-rule="evenodd" clip-rule="evenodd" d="M416.975 224.158L502.684 224.074L502.685 224.832L416.975 224.916L416.975 224.158Z" fill="#F4F5F6"/>
<path fill-rule="evenodd" clip-rule="evenodd" d="M502.669 212.412L416.96 212.473L416.959 211.715L502.669 211.654L502.669 212.412Z" fill="#F4F5F6"/>
<path fill-rule="evenodd" clip-rule="evenodd" d="M416.991 236.587L502.701 236.503L502.701 237.261L416.992 237.345L416.991 236.587Z" fill="#F4F5F6"/>
<path fill-rule="evenodd" clip-rule="evenodd" d="M502.684 224.841L416.975 224.902L416.975 224.144L502.684 224.083L502.684 224.841Z" fill="#F4F5F6"/>
<path fill-rule="evenodd" clip-rule="evenodd" d="M416.998 249.015L502.708 248.923L502.708 249.681L416.999 249.773L416.998 249.015Z" fill="#F4F5F6"/>
<path fill-rule="evenodd" clip-rule="evenodd" d="M502.702 237.261L416.992 237.329L416.992 236.572L502.701 236.503L502.702 237.261Z" fill="#F4F5F6"/>
<path fill-rule="evenodd" clip-rule="evenodd" d="M417.014 261.114L502.723 261.03L502.724 261.788L417.014 261.872L417.014 261.114Z" fill="#F4F5F6"/>
<path fill-rule="evenodd" clip-rule="evenodd" d="M502.708 249.367L416.999 249.429L416.999 248.671L502.708 248.61L502.708 249.367Z" fill="#F4F5F6"/>
<path fill-rule="evenodd" clip-rule="evenodd" d="M417.022 273.541L502.731 273.457L502.732 274.215L417.023 274.299L417.022 273.541Z" fill="#F4F5F6"/>
<path fill-rule="evenodd" clip-rule="evenodd" d="M502.724 261.788L417.014 261.857L417.014 261.099L502.723 261.03L502.724 261.788Z" fill="#F4F5F6"/>
<path fill-rule="evenodd" clip-rule="evenodd" d="M417.037 282.08L502.747 281.996L502.747 282.754L417.038 282.838L417.037 282.08Z" fill="#F4F5F6"/>
<path d="M587.626 199.231L502.3 199.319L502.397 290.578L587.723 290.49L587.626 199.231Z" fill="#D3DCE5"/>
<path fill-rule="evenodd" clip-rule="evenodd" d="M501.903 211.647L587.612 211.562L587.613 212.32L501.904 212.404L501.903 211.647Z" fill="#F4F5F6"/>
<path fill-rule="evenodd" clip-rule="evenodd" d="M587.608 199.9L501.898 199.969L501.898 199.211L587.607 199.143L587.608 199.9Z" fill="#F4F5F6"/>
<path fill-rule="evenodd" clip-rule="evenodd" d="M501.918 224.075L587.627 223.991L587.628 224.749L501.919 224.833L501.918 224.075Z" fill="#F4F5F6"/>
<path fill-rule="evenodd" clip-rule="evenodd" d="M587.613 212.329L501.903 212.39L501.903 211.633L587.612 211.571L587.613 212.329Z" fill="#F4F5F6"/>
<path fill-rule="evenodd" clip-rule="evenodd" d="M501.935 236.503L587.644 236.418L587.645 237.176L501.936 237.26L501.935 236.503Z" fill="#F4F5F6"/>
<path fill-rule="evenodd" clip-rule="evenodd" d="M587.628 224.756L501.919 224.817L501.918 224.059L587.628 223.998L587.628 224.756Z" fill="#F4F5F6"/>
<path fill-rule="evenodd" clip-rule="evenodd" d="M501.942 248.931L587.651 248.839L587.652 249.596L501.942 249.688L501.942 248.931Z" fill="#F4F5F6"/>
<path fill-rule="evenodd" clip-rule="evenodd" d="M587.645 237.176L501.936 237.245L501.935 236.487L587.644 236.418L587.645 237.176Z" fill="#F4F5F6"/>
<path fill-rule="evenodd" clip-rule="evenodd" d="M501.957 261.029L587.666 260.945L587.667 261.703L501.958 261.787L501.957 261.029Z" fill="#F4F5F6"/>
<path fill-rule="evenodd" clip-rule="evenodd" d="M548 249.368H541V248.611H548V249.368Z" fill="#F4F5F6"/>
<path fill-rule="evenodd" clip-rule="evenodd" d="M501.966 273.456L587.675 273.372L587.676 274.13L501.966 274.214L501.966 273.456Z" fill="#F4F5F6"/>
<path fill-rule="evenodd" clip-rule="evenodd" d="M587.667 261.703L501.958 261.772L501.957 261.014L587.666 260.945L587.667 261.703Z" fill="#F4F5F6"/>
<path fill-rule="evenodd" clip-rule="evenodd" d="M501.981 281.997L587.69 281.913L587.691 282.671L501.981 282.755L501.981 281.997Z" fill="#F4F5F6"/>
<path d="M96.1384 55.3046L512.44 54.8687L512.433 47.5757L96.1308 48.0117L96.1384 55.3046Z" fill="white"/>
<path fill-rule="evenodd" clip-rule="evenodd" d="M513.207 55.6333L95.374 56.0709L95.3648 47.2474L513.197 46.8099L513.207 55.6333ZM511.674 54.1044L511.668 48.342L96.8969 48.7763L96.9029 54.5387L511.674 54.1044Z" fill="#959DA8"/>
<path d="M443.744 12.6826L164.791 12.9658L97.2026 48.5887L509.028 48.1754L511.4 48.1678L443.744 12.6826Z" fill="#F4F5F6"/>
<path fill-rule="evenodd" clip-rule="evenodd" d="M443.743 11.9175C443.867 11.9174 443.989 11.9474 444.099 12.005L511.756 47.4902C512.067 47.6536 512.227 48.0081 512.144 48.3498C512.06 48.6914 511.754 48.932 511.403 48.9332L509.029 48.9408L97.2034 49.3541C96.8514 49.3544 96.5445 49.1146 96.4598 48.773C96.3751 48.4313 96.5344 48.0759 96.8458 47.9118L164.434 12.2889C164.543 12.231 164.666 12.2007 164.79 12.2006L443.743 11.9175ZM164.98 13.731L100.302 47.8204L508.31 47.411L443.555 13.4482L164.98 13.731Z" fill="#959DA8"/>
<path d="M512.472 47.544L96.1704 47.98L96.178 55.2729L512.48 54.8369L512.472 47.544Z" fill="#F4F5F6"/>
<path fill-rule="evenodd" clip-rule="evenodd" d="M95.4045 47.2153L513.237 46.7778L513.246 55.6012L95.4138 56.0388L95.4045 47.2153ZM96.9367 48.7443L96.9427 54.5066L511.714 54.0723L511.708 48.3099L96.9367 48.7443Z" fill="#959DA8"/>
<path d="M319.75 11.2588L372.652 47.7771L372.729 135.958L266.97 136.058L266.893 47.8766L319.75 11.2588Z" fill="#F4F5F6"/>
<path fill-rule="evenodd" clip-rule="evenodd" d="M319.749 10.231L373.497 47.3333L373.575 136.803L266.125 136.904L266.047 47.4342L319.749 10.231ZM319.75 12.2872L267.739 48.3195L267.814 135.212L371.882 135.114L371.807 48.2214L319.75 12.2872Z" fill="#959DA8"/>
<path d="M386.961 55.8743L373.01 55.8896L319.886 12.4228L266.845 55.9967L252.895 56.0121L319.87 0.989746L386.961 55.8743Z" fill="#F4F5F6"/>
<path fill-rule="evenodd" clip-rule="evenodd" d="M319.885 11.9277L373.252 55.5932L372.768 56.1855L319.886 12.9173L267.088 56.2922L266.603 55.7009L319.885 11.9277Z" fill="#959DA8"/>
<path fill-rule="evenodd" clip-rule="evenodd" d="M319.869 0L389.102 56.637L373.011 56.6547L373.009 55.1241L384.82 55.1112L319.871 1.97909L255.035 55.2443L266.845 55.2313L266.846 56.7618L250.755 56.7795L319.869 0Z" fill="#959DA8"/>
<path d="M633.513 177.917L633.505 170.624L58.971 171.604L54.3588 171.604C53.8513 171.604 53.4401 172.015 53.4404 172.523L53.4446 178.524L633.513 177.917Z" fill="#F4F5F6"/>
<path fill-rule="evenodd" clip-rule="evenodd" d="M634.269 169.858L634.279 178.682L52.6799 179.291L52.6752 172.523C52.6745 171.593 53.4285 170.839 54.3587 170.839L58.9696 170.839L634.269 169.858ZM632.74 171.391L54.3587 172.369C54.2742 172.369 54.2056 172.438 54.2057 172.522L54.2093 177.759L632.746 177.153L632.74 171.391Z" fill="#959DA8"/>
<path d="M456.027 171.435L436.015 135.896L119.664 136.21L53.6216 171.84L456.027 171.435Z" fill="#F4F5F6"/>
<path fill-rule="evenodd" clip-rule="evenodd" d="M436.462 135.13L457.335 172.199L50.5859 172.609L119.47 135.445L436.462 135.13ZM119.857 136.975L56.6575 171.072L454.718 170.671L435.568 136.662L119.857 136.975Z" fill="#959DA8"/>
<path d="M630.4 170.9L372.721 171.161L501.79 94.1523L630.4 170.9Z" fill="#F4F5F6"/>
<path fill-rule="evenodd" clip-rule="evenodd" d="M501.79 93.2612L633.171 171.663L369.94 171.929L501.79 93.2612ZM375.502 170.393L627.629 170.138L501.79 95.0435L375.502 170.393Z" fill="#959DA8"/>
<path fill-rule="evenodd" clip-rule="evenodd" d="M371.894 290.158L371.78 178.047L373.31 178.046L373.425 290.157L371.894 290.158Z" fill="#959DA8"/>
<path d="M236.773 204.626H203.982L204.051 281.221H236.842L236.773 204.626Z" fill="#D3DCE5"/>
<path d="M232.157 209.13L208.641 209.155L208.676 243.079L232.193 243.054L232.157 209.13Z" fill="white"/>
<path fill-rule="evenodd" clip-rule="evenodd" d="M208.258 208.773L232.54 208.748L232.576 243.437L208.294 243.462L208.258 208.773ZM209.024 209.537L209.059 242.696L231.81 242.672L231.775 209.514L209.024 209.537Z" fill="#959DA8"/>
<path d="M63.1809 292.515L63.0652 178.491H55.5283L55.644 292.515H63.1809Z" fill="#F4F5F6"/>
<path fill-rule="evenodd" clip-rule="evenodd" d="M54.6514 177.615H63.9407L64.0582 293.391H54.7689L54.6514 177.615ZM56.4056 179.367L56.5195 291.639H62.304L62.19 179.367H56.4056Z" fill="#959DA8"/>
<path d="M184.366 292.086L184.251 178.238H176.775L176.89 292.086H184.366Z" fill="#F4F5F6"/>
<path fill-rule="evenodd" clip-rule="evenodd" d="M176.009 177.473H185.016L185.132 292.852H176.125L176.009 177.473ZM177.541 179.004L177.654 291.321H183.6L183.487 179.004H177.541Z" fill="#959DA8"/>
<path d="M263.954 292.003L263.839 178.155H256.363L256.477 292.003H263.954Z" fill="#F4F5F6"/>
<path fill-rule="evenodd" clip-rule="evenodd" d="M255.596 177.39H264.604L264.72 292.769H255.713L255.596 177.39ZM257.129 178.921L257.242 291.238H263.188L263.075 178.921H257.129Z" fill="#959DA8"/>
<path d="M399.327 265.509L393.435 265.516L393.459 288.787L399.351 288.781L399.327 265.509Z" fill="#F4F5F6"/>
<path fill-rule="evenodd" clip-rule="evenodd" d="M392.668 264.751L400.091 264.743L400.117 289.545L392.694 289.553L392.668 264.751ZM394.201 266.28L394.223 288.021L398.585 288.016L398.563 266.275L394.201 266.28Z" fill="#959DA8"/>
<path d="M396.349 233.7C399.393 233.697 402.314 234.904 404.469 237.054C406.624 239.204 407.837 242.123 407.84 245.167L407.862 266.266L384.904 266.29L384.882 245.191C384.879 242.147 386.085 239.226 388.236 237.071C390.386 234.916 393.305 233.704 396.349 233.7Z" fill="#D3DCE5"/>
<path d="M404.268 241.659L388.443 241.675L388.446 245.004L404.272 244.988L404.268 241.659Z" fill="#F4F5F6"/>
<path fill-rule="evenodd" clip-rule="evenodd" d="M388.06 241.293L404.651 241.276L404.655 245.37L388.064 245.387L388.06 241.293ZM388.826 242.057L388.829 244.621L403.889 244.605L403.886 242.042L388.826 242.057Z" fill="#959DA8"/>
<path d="M392.373 288.788L400.439 288.779C401.344 288.779 402.213 289.137 402.853 289.777C403.494 290.416 403.855 291.284 403.856 292.189L388.964 292.205C388.963 291.299 389.321 290.431 389.961 289.79C390.6 289.149 391.468 288.789 392.373 288.788Z" fill="#F4F5F6"/>
<path fill-rule="evenodd" clip-rule="evenodd" d="M392.374 289.553C391.672 289.554 390.998 289.834 390.502 290.331C390.191 290.643 389.966 291.024 389.841 291.439L402.976 291.425C402.851 291.011 402.625 290.63 402.313 290.319C401.816 289.823 401.142 289.544 400.44 289.545L392.374 289.553ZM403.855 292.189L404.621 292.188C404.62 291.08 404.178 290.018 403.394 289.235C402.609 288.452 401.546 288.013 400.438 288.015L392.372 288.023C391.264 288.024 390.202 288.465 389.419 289.25C388.636 290.034 388.197 291.097 388.198 292.206L388.199 292.971L403.856 292.955L403.855 292.189Z" fill="#959DA8"/>
<path fill-rule="evenodd" clip-rule="evenodd" d="M501.796 104.009L616.465 170.945L616.079 171.606L501.797 104.896L388.54 171.23L388.153 170.57L501.796 104.009Z" fill="#959DA8"/>
<path d="M210.027 253.585C210.872 253.584 211.557 252.898 211.556 252.053C211.555 251.208 210.869 250.523 210.024 250.524C209.179 250.525 208.494 251.211 208.495 252.056C208.496 252.902 209.182 253.586 210.027 253.585Z" fill="white"/>
<path fill-rule="evenodd" clip-rule="evenodd" d="M210.024 250.907C209.39 250.907 208.877 251.422 208.878 252.056C208.878 252.69 209.393 253.203 210.027 253.203C210.661 253.202 211.174 252.687 211.173 252.054C211.173 251.42 210.658 250.906 210.024 250.907ZM208.112 252.057C208.111 251 208.967 250.143 210.024 250.142C211.08 250.14 211.938 250.996 211.939 252.053C211.94 253.109 211.084 253.967 210.028 253.968C208.971 253.969 208.113 253.113 208.112 252.057Z" fill="#959DA8"/>
<path d="M300.496 70.7197H277.14L277.186 119.934H300.542L300.496 70.7197Z" fill="white"/>
<path fill-rule="evenodd" clip-rule="evenodd" d="M276.757 70.3369H300.878L300.925 120.316H276.804L276.757 70.3369ZM277.523 71.1022L277.568 119.551H300.159L300.114 71.1022H277.523Z" fill="#959DA8"/>
<path fill-rule="evenodd" clip-rule="evenodd" d="M288.459 90.5956L288.436 70.7294L289.201 70.7285L289.224 90.5947L288.459 90.5956Z" fill="#959DA8"/>
<path fill-rule="evenodd" clip-rule="evenodd" d="M300.519 91.3131L277.187 91.336L277.186 90.5708L300.519 90.5479L300.519 91.3131Z" fill="#959DA8"/>
<path d="M331.189 70.6899H307.833L307.879 119.904H331.235L331.189 70.6899Z" fill="white"/>
<path fill-rule="evenodd" clip-rule="evenodd" d="M307.45 70.3071H331.571L331.618 120.286H307.497L307.45 70.3071ZM308.216 71.0724L308.262 119.521H330.852L330.807 71.0724H308.216Z" fill="#959DA8"/>
<path fill-rule="evenodd" clip-rule="evenodd" d="M319.144 90.564L319.129 70.6979L319.894 70.6973L319.909 90.5634L319.144 90.564Z" fill="#959DA8"/>
<path fill-rule="evenodd" clip-rule="evenodd" d="M331.214 91.2833L307.881 91.3063L307.88 90.541L331.213 90.5181L331.214 91.2833Z" fill="#959DA8"/>
<path d="M361.886 70.6509H338.53L338.576 119.865H361.931L361.886 70.6509Z" fill="white"/>
<path fill-rule="evenodd" clip-rule="evenodd" d="M338.147 70.2681H362.268L362.314 120.247H338.193L338.147 70.2681ZM338.913 71.0333L338.958 119.482H361.548L361.503 71.0333H338.913Z" fill="#959DA8"/>
<path fill-rule="evenodd" clip-rule="evenodd" d="M349.839 90.5333L349.823 70.6671L350.589 70.6665L350.604 90.5327L349.839 90.5333Z" fill="#959DA8"/>
<path fill-rule="evenodd" clip-rule="evenodd" d="M361.907 91.2511L338.574 91.2741L338.573 90.5088L361.906 90.4858L361.907 91.2511Z" fill="#959DA8"/>
<path d="M155.862 70.8662H132.506L132.552 120.08H155.908L155.862 70.8662Z" fill="white"/>
<path fill-rule="evenodd" clip-rule="evenodd" d="M132.123 70.4834H156.244L156.29 120.463H132.169L132.123 70.4834ZM132.889 71.2487L132.934 119.697H155.525L155.479 71.2487H132.889Z" fill="#959DA8"/>
<path fill-rule="evenodd" clip-rule="evenodd" d="M143.824 90.7406L143.801 70.8744L144.566 70.8735L144.589 90.7397L143.824 90.7406Z" fill="#959DA8"/>
<path fill-rule="evenodd" clip-rule="evenodd" d="M155.885 91.4596L132.552 91.4825L132.551 90.7173L155.884 90.6943L155.885 91.4596Z" fill="#959DA8"/>
<path d="M427.529 70.5898H404.173L404.219 119.804H427.575L427.529 70.5898Z" fill="white"/>
<path fill-rule="evenodd" clip-rule="evenodd" d="M403.79 70.207H427.911L427.958 120.186H403.837L403.79 70.207ZM404.556 70.9723L404.601 119.421H427.192L427.147 70.9723H404.556Z" fill="#959DA8"/>
<path fill-rule="evenodd" clip-rule="evenodd" d="M415.492 90.4652L415.469 70.599L416.234 70.5981L416.257 90.4643L415.492 90.4652Z" fill="#959DA8"/>
<path fill-rule="evenodd" clip-rule="evenodd" d="M427.552 91.1827L404.22 91.2057L404.219 90.4405L427.552 90.4175L427.552 91.1827Z" fill="#959DA8"/>
<path d="M155.999 205.552H132.643L132.689 254.766H156.045L155.999 205.552Z" fill="white"/>
<path fill-rule="evenodd" clip-rule="evenodd" d="M132.26 205.169H156.381L156.428 255.148H132.307L132.26 205.169ZM133.026 205.934L133.071 254.383H155.662L155.617 205.934H133.026Z" fill="#959DA8"/>
<path fill-rule="evenodd" clip-rule="evenodd" d="M143.954 225.426L143.938 205.56L144.704 205.56L144.719 225.426L143.954 225.426Z" fill="#959DA8"/>
<path fill-rule="evenodd" clip-rule="evenodd" d="M156.022 226.146L132.689 226.169L132.688 225.404L156.021 225.381L156.022 226.146Z" fill="#959DA8"/>
<path d="M235.617 70.7808H212.261L212.307 119.995H235.663L235.617 70.7808Z" fill="white"/>
<path fill-rule="evenodd" clip-rule="evenodd" d="M211.878 70.3979H235.999L236.046 120.377H211.925L211.878 70.3979ZM212.644 71.1632L212.689 119.612H235.28L235.235 71.1632H212.644Z" fill="#959DA8"/>
<path fill-rule="evenodd" clip-rule="evenodd" d="M223.57 90.6563L223.555 70.7901L224.32 70.7896L224.335 90.6557L223.57 90.6563Z" fill="#959DA8"/>
<path fill-rule="evenodd" clip-rule="evenodd" d="M235.64 91.3815L212.307 91.4045L212.307 90.6392L235.639 90.6162L235.64 91.3815Z" fill="#959DA8"/>
<path d="M212.659 70.8052H189.304L189.35 120.019H212.705L212.659 70.8052Z" fill="white"/>
<path fill-rule="evenodd" clip-rule="evenodd" d="M188.921 70.4224H213.042L213.088 120.402H188.967L188.921 70.4224ZM189.687 71.1876L189.732 119.636H212.322L212.277 71.1876H189.687Z" fill="#959DA8"/>
<path fill-rule="evenodd" clip-rule="evenodd" d="M200.612 90.6783L200.597 70.8121L201.362 70.8115L201.378 90.6777L200.612 90.6783Z" fill="#959DA8"/>
<path fill-rule="evenodd" clip-rule="evenodd" d="M212.681 91.4054L189.348 91.4283L189.347 90.6631L212.68 90.6401L212.681 91.4054Z" fill="#959DA8"/>
<path d="M299.103 205.406H275.747L275.793 254.62H299.149L299.103 205.406Z" fill="white"/>
<path fill-rule="evenodd" clip-rule="evenodd" d="M275.364 205.023H299.485L299.532 255.003H275.411L275.364 205.023ZM276.13 205.789L276.175 254.237H298.766L298.721 205.789H276.13Z" fill="#959DA8"/>
<path fill-rule="evenodd" clip-rule="evenodd" d="M287.058 225.281L287.042 205.415L287.808 205.414L287.823 225.28L287.058 225.281Z" fill="#959DA8"/>
<path fill-rule="evenodd" clip-rule="evenodd" d="M299.126 225.999L275.793 226.022L275.792 225.256L299.125 225.233L299.126 225.999Z" fill="#959DA8"/>
<path d="M329.798 205.375H306.442L306.488 254.589H329.844L329.798 205.375Z" fill="white"/>
<path fill-rule="evenodd" clip-rule="evenodd" d="M306.059 204.993H330.18L330.226 254.972H306.105L306.059 204.993ZM306.825 205.758L306.87 254.207H329.461L329.415 205.758H306.825Z" fill="#959DA8"/>
<path fill-rule="evenodd" clip-rule="evenodd" d="M317.751 225.251L317.735 205.384L318.501 205.384L318.516 225.25L317.751 225.251Z" fill="#959DA8"/>
<path fill-rule="evenodd" clip-rule="evenodd" d="M329.821 225.97L306.488 225.993L306.487 225.228L329.82 225.205L329.821 225.97Z" fill="#959DA8"/>
<path d="M360.492 205.345H337.136L337.182 254.559H360.538L360.492 205.345Z" fill="white"/>
<path fill-rule="evenodd" clip-rule="evenodd" d="M336.754 204.962H360.875L360.921 254.942H336.8L336.754 204.962ZM337.52 205.728L337.565 254.176H360.155L360.11 205.728H337.52Z" fill="#959DA8"/>
<path fill-rule="evenodd" clip-rule="evenodd" d="M348.446 225.22L348.423 205.354L349.189 205.353L349.212 225.219L348.446 225.22Z" fill="#959DA8"/>
<path fill-rule="evenodd" clip-rule="evenodd" d="M360.506 225.938L337.181 225.961L337.18 225.195L360.505 225.172L360.506 225.938Z" fill="#959DA8"/>
<path fill-rule="evenodd" clip-rule="evenodd" d="M141.494 278.072L105.289 250.147L105.757 249.542L141.961 277.466L141.494 278.072Z" fill="#959DA8"/>
<path fill-rule="evenodd" clip-rule="evenodd" d="M105.318 277.497L141.461 249.512L141.929 250.117L105.786 278.102L105.318 277.497Z" fill="#959DA8"/>
<path d="M145.361 244.463L101.726 244.509C100.039 244.511 98.6735 245.878 98.6753 247.562C98.6771 249.246 100.046 250.61 101.732 250.608L145.367 250.562C147.053 250.561 148.419 249.194 148.417 247.51C148.416 245.825 147.047 244.462 145.361 244.463Z" fill="#D3DCE5"/>
<path d="M70.0661 259.968H91.2256L84.8969 244.824C84.1534 243.045 82.8998 241.526 81.2941 240.458C79.6885 239.39 77.8027 238.822 75.8744 238.824C74.2669 238.826 72.6846 239.224 71.2681 239.984C69.8515 240.744 68.6445 241.842 67.7542 243.181C66.8639 244.519 66.3178 246.057 66.1644 247.657C66.011 249.257 66.2551 250.871 66.8749 252.354L70.0661 259.968Z" fill="#D3DCE5"/>
<path fill-rule="evenodd" clip-rule="evenodd" d="M90.1628 250.112C90.1628 250.112 90.1629 250.112 90.1628 250.112L86.9948 250.242L86.9634 249.477L90.1316 249.347C92.7689 249.24 95.3783 249.923 97.6248 251.309C99.8713 252.695 101.653 254.72 102.74 257.125L112.689 279.173L111.991 279.487L102.043 257.44" fill="#959DA8"/>
<path fill-rule="evenodd" clip-rule="evenodd" d="M65.5684 279.294L69.9686 259.389L70.7158 259.554L66.3156 279.459L65.5684 279.294Z" fill="#959DA8"/>
<path fill-rule="evenodd" clip-rule="evenodd" d="M83.2019 279.271L87.5716 259.374L88.319 259.538L83.9494 279.435L83.2019 279.271Z" fill="#959DA8"/>
<path d="M101.462 259.948L69.4053 259.981L69.4022 257.043L101.459 257.009C101.849 257.009 102.223 257.163 102.498 257.438C102.774 257.714 102.929 258.087 102.93 258.477C102.93 258.67 102.892 258.861 102.819 259.039C102.745 259.218 102.637 259.38 102.501 259.516C102.364 259.653 102.202 259.761 102.024 259.835C101.846 259.909 101.655 259.948 101.462 259.948Z" fill="#D3DCE5"/>
<path fill-rule="evenodd" clip-rule="evenodd" d="M76.7374 251.846C74.7353 250.611 72.41 250.002 70.0597 250.098L65.8352 250.266L65.8047 249.501L70.0286 249.333C70.0287 249.333 70.0286 249.333 70.0286 249.333C72.5313 249.231 75.0073 249.88 77.1392 251.194C79.271 252.509 80.9616 254.431 81.9941 256.713L92.1569 279.189L91.4596 279.504L81.2969 257.028C81.2969 257.028 81.2969 257.028 81.2969 257.028C80.3272 254.885 78.7395 253.081 76.7374 251.846Z" fill="#959DA8"/>
<path d="M372.67 276.756L63.5046 277.08L63.5207 292.385L372.686 292.062L372.67 276.756Z" fill="#F4F5F6"/>
<path fill-rule="evenodd" clip-rule="evenodd" d="M62.7385 276.315L373.435 275.99L373.452 292.826L62.7562 293.151L62.7385 276.315ZM64.2707 277.844L64.2851 291.619L371.92 291.297L371.906 277.522L64.2707 277.844Z" fill="#959DA8"/>
<path d="M263.678 284.732L177.204 284.809V291.62L263.678 291.543V284.732Z" fill="#F4F5F6"/>
<path fill-rule="evenodd" clip-rule="evenodd" d="M264.444 283.966V292.308L176.438 292.386V284.044L264.444 283.966ZM177.969 285.574V290.854L262.913 290.778V285.498L177.969 285.574Z" fill="#959DA8"/>
<path d="M263.678 277.08L177.204 277.165V284.733L263.678 284.648V277.08Z" fill="#F4F5F6"/>
<path fill-rule="evenodd" clip-rule="evenodd" d="M264.444 276.314V285.412L176.438 285.499V276.401L264.444 276.314ZM177.969 277.93V283.967L262.913 283.883V277.846L177.969 277.93Z" fill="#959DA8"/>
<path d="M332.867 290.466C332.868 291.28 332.759 292.091 332.545 292.876L259.96 292.953C259.734 292.167 259.596 291.358 259.547 290.542C259.225 285.537 263.61 281.443 268.631 281.435C269.675 281.436 270.711 281.62 271.692 281.979C271.634 281.471 271.606 280.96 271.607 280.448C271.582 277.01 272.777 273.674 274.978 271.033C277.18 268.391 280.246 266.616 283.633 266.021C287.019 265.427 290.507 266.052 293.477 267.785C296.446 269.518 298.706 272.248 299.853 275.489C301.486 274.019 303.471 272.996 305.616 272.52C307.761 272.044 309.993 272.131 312.094 272.774C314.195 273.417 316.094 274.592 317.606 276.187C319.118 277.781 320.191 279.739 320.722 281.872C322.092 281.38 323.56 281.225 325.002 281.421C326.445 281.617 327.819 282.158 329.008 282.997C330.197 283.836 331.166 284.95 331.834 286.243C332.502 287.537 332.848 288.972 332.844 290.427L332.867 290.466Z" fill="#80C33F"/>
<path d="M643.984 260.425L637.873 254.253L631.778 260.433L631.77 291.751L644.014 291.735L643.984 260.425Z" fill="#F4F5F6"/>
<path fill-rule="evenodd" clip-rule="evenodd" d="M637.872 253.164L644.749 260.11L644.78 292.5L631.005 292.517L631.012 260.119L637.872 253.164ZM637.874 255.341L632.543 260.747L632.536 290.984L643.248 290.971L643.219 260.74L637.874 255.341Z" fill="#959DA8"/>
<path d="M656.228 260.419L650.121 254.253L644.029 260.434L644.014 291.751L656.258 291.736L656.228 260.419Z" fill="#F4F5F6"/>
<path fill-rule="evenodd" clip-rule="evenodd" d="M650.12 253.164L656.993 260.104L657.024 292.5L643.248 292.517L643.264 260.12L650.12 253.164ZM650.122 255.342L644.794 260.748L644.78 290.984L655.492 290.971L655.463 260.734L650.122 255.342Z" fill="#959DA8"/>
<path d="M668.465 260.419L662.358 254.253L656.266 260.434L656.258 291.751L668.502 291.743L668.465 260.419Z" fill="#F4F5F6"/>
<path fill-rule="evenodd" clip-rule="evenodd" d="M662.356 253.164L669.229 260.103L669.268 292.508L655.493 292.516L655.5 260.12L662.356 253.164ZM662.359 255.342L657.031 260.748L657.024 290.985L667.736 290.978L667.7 260.734L662.359 255.342Z" fill="#959DA8"/>
<path d="M681.479 260.425L674.987 254.253L668.51 260.433L668.502 291.751L681.511 291.735L681.479 260.425Z" fill="#F4F5F6"/>
<path fill-rule="evenodd" clip-rule="evenodd" d="M674.986 253.196L682.244 260.097L682.278 292.5L667.737 292.517L667.745 260.105L674.986 253.196ZM674.988 255.31L669.275 260.761L669.267 290.985L680.745 290.971L680.715 260.754L674.988 255.31Z" fill="#959DA8"/>
<path d="M693.726 260.419L687.619 254.253L681.527 260.434L681.512 291.751L693.756 291.736L693.726 260.419Z" fill="#F4F5F6"/>
<path fill-rule="evenodd" clip-rule="evenodd" d="M687.618 253.164L694.491 260.104L694.522 292.5L680.746 292.517L680.762 260.12L687.618 253.164ZM687.62 255.342L682.292 260.748L682.278 290.984L692.99 290.971L692.961 260.734L687.62 255.342Z" fill="#959DA8"/>
<path d="M705.97 260.419L699.863 254.253L693.764 260.434L693.756 291.751L706 291.743L705.97 260.419Z" fill="#F4F5F6"/>
<path fill-rule="evenodd" clip-rule="evenodd" d="M699.862 253.165L706.735 260.104L706.766 292.508L692.991 292.517L692.999 260.12L699.862 253.165ZM699.864 255.342L694.529 260.748L694.522 290.985L705.234 290.978L705.205 260.734L699.864 255.342Z" fill="#959DA8"/>
</svg>
