<svg width="1300" height="499" viewBox="0 0 1300 499" fill="none" xmlns="http://www.w3.org/2000/svg">
<mask id="mask0" mask-type="alpha" maskUnits="userSpaceOnUse" x="0" y="0" width="1300" height="499">
<rect width="1300" height="499" rx="16" fill="#2A3A51"/>
</mask>
<g mask="url(#mask0)">
<path d="M356.967 470.957L285.966 471.027L285.656 163.024L356.657 162.954" fill="#F4F5F6"/>
<path fill-rule="evenodd" clip-rule="evenodd" d="M286.678 164.024L356.678 163.955L356.676 161.955L284.676 162.026L284.988 472.029L356.988 471.958L356.986 469.958L286.986 470.027L286.678 164.024Z" fill="#959DA8"/>
<path d="M200.091 416.036C200.739 412.971 200.701 409.8 199.982 406.751C199.262 403.702 197.877 400.849 195.927 398.397C193.977 395.945 191.509 393.954 188.7 392.567C185.891 391.179 182.81 390.429 179.677 390.371C176.545 390.312 173.438 390.947 170.579 392.228C167.72 393.51 165.18 395.407 163.139 397.785C161.099 400.162 159.609 402.961 158.776 405.982C157.943 409.002 157.787 412.169 158.32 415.256C155.96 416.37 153.87 417.983 152.195 419.985C150.52 421.987 149.301 424.328 148.621 426.848C147.941 429.368 147.818 432.005 148.259 434.578C148.7 437.15 149.695 439.596 151.175 441.745C152.655 443.895 154.585 445.697 156.831 447.026C159.077 448.355 161.585 449.18 164.182 449.444C166.778 449.708 169.401 449.404 171.868 448.553C174.336 447.702 176.588 446.325 178.47 444.517C180.3 446.286 182.483 447.648 184.877 448.512C187.271 449.376 189.821 449.722 192.359 449.528C194.897 449.334 197.365 448.604 199.6 447.387C201.835 446.169 203.786 444.491 205.325 442.464C206.864 440.436 207.955 438.106 208.527 435.626C209.099 433.145 209.138 430.572 208.643 428.076C208.147 425.579 207.128 423.216 205.652 421.143C204.176 419.069 202.277 417.332 200.081 416.046L200.091 416.036Z" fill="#80C33F"/>
<path fill-rule="evenodd" clip-rule="evenodd" d="M168.903 427.853C169.125 427.517 169.578 427.425 169.915 427.648L179.725 434.148C180.061 434.37 180.153 434.823 179.93 435.159C179.707 435.495 179.254 435.587 178.918 435.365L169.108 428.865C168.772 428.642 168.68 428.189 168.903 427.853Z" fill="#2A3A51"/>
<path fill-rule="evenodd" clip-rule="evenodd" d="M191.296 432.642C191.559 432.948 191.524 433.408 191.218 433.671L179.788 443.491C179.482 443.754 179.021 443.719 178.758 443.413C178.496 443.107 178.531 442.647 178.836 442.384L190.266 432.564C190.572 432.301 191.033 432.336 191.296 432.642Z" fill="#2A3A51"/>
<path fill-rule="evenodd" clip-rule="evenodd" d="M179.265 414.297C179.668 414.296 179.995 414.623 179.995 415.026L180.045 473.877C180.046 474.28 179.719 474.607 179.316 474.607C178.913 474.608 178.586 474.281 178.585 473.878L178.535 415.027C178.535 414.624 178.861 414.297 179.265 414.297Z" fill="#2A3A51"/>
<path d="M1030.59 435.257C1031.04 435.26 1031.49 435.213 1031.94 435.116C1052.58 430.403 1052.56 405.393 1052.56 405.393C1052.56 371.319 1030.52 354.257 1030.52 354.257C1030.52 354.257 1008.53 371.329 1008.56 405.434C1008.56 405.434 1008.56 430.473 1029.24 435.116C1029.68 435.213 1030.13 435.261 1030.59 435.257Z" fill="#80C33F"/>
<path fill-rule="evenodd" clip-rule="evenodd" d="M1030.56 387.546C1030.95 387.546 1031.27 387.864 1031.27 388.256V472.257C1031.27 472.649 1030.95 472.967 1030.56 472.967C1030.17 472.967 1029.85 472.649 1029.85 472.257V388.256C1029.85 387.864 1030.17 387.546 1030.56 387.546Z" fill="#2A3A51"/>
<path d="M359.801 316.954L972.806 316.334L972.966 472.336L359.961 472.956" fill="#F4F5F6"/>
<path fill-rule="evenodd" clip-rule="evenodd" d="M973.806 315.333L973.968 473.335L359.963 473.956L359.961 471.956L971.966 471.337L971.808 317.336L359.803 317.955L359.801 315.955L973.806 315.333Z" fill="#959DA8"/>
<path d="M359.164 162.954L804.268 162.504L804.358 251.504L724.627 316.585L359.314 316.955" fill="#F4F5F6"/>
<path fill-rule="evenodd" clip-rule="evenodd" d="M805.264 161.503L805.356 251.979L724.981 317.585L359.312 317.955L359.31 315.955L724.268 315.585L803.355 251.03L803.266 163.505L359.162 163.954L359.16 161.954L805.264 161.503Z" fill="#959DA8"/>
<path d="M804.895 351.481L693.395 351.596L693.521 470.85L805.022 470.734L804.895 351.481Z" fill="#D3DCE5"/>
<path fill-rule="evenodd" clip-rule="evenodd" d="M692.859 367.692L804.86 367.582L804.861 368.572L692.86 368.682L692.859 367.692Z" fill="#F4F5F6"/>
<path fill-rule="evenodd" clip-rule="evenodd" d="M804.853 352.34L692.852 352.43L692.852 351.44L804.853 351.35L804.853 352.34Z" fill="#F4F5F6"/>
<path fill-rule="evenodd" clip-rule="evenodd" d="M692.875 383.931L804.876 383.821L804.877 384.811L692.876 384.921L692.875 383.931Z" fill="#F4F5F6"/>
<path fill-rule="evenodd" clip-rule="evenodd" d="M804.861 368.581L692.86 368.661L692.859 367.671L804.86 367.591L804.861 368.581Z" fill="#F4F5F6"/>
<path fill-rule="evenodd" clip-rule="evenodd" d="M692.891 400.172L804.892 400.062L804.893 401.053L692.892 401.162L692.891 400.172Z" fill="#F4F5F6"/>
<path fill-rule="evenodd" clip-rule="evenodd" d="M804.877 384.822L692.876 384.902L692.875 383.912L804.876 383.832L804.877 384.822Z" fill="#F4F5F6"/>
<path fill-rule="evenodd" clip-rule="evenodd" d="M692.93 416.412L804.931 416.292L804.932 417.282L692.931 417.402L692.93 416.412Z" fill="#F4F5F6"/>
<path fill-rule="evenodd" clip-rule="evenodd" d="M804.893 401.053L692.891 401.143L692.891 400.153L804.892 400.062L804.893 401.053Z" fill="#F4F5F6"/>
<path fill-rule="evenodd" clip-rule="evenodd" d="M692.941 432.223L804.942 432.113L804.943 433.103L692.942 433.213L692.941 432.223Z" fill="#F4F5F6"/>
<path fill-rule="evenodd" clip-rule="evenodd" d="M804.931 416.873L692.93 416.953L692.93 415.963L804.931 415.883L804.931 416.873Z" fill="#F4F5F6"/>
<path fill-rule="evenodd" clip-rule="evenodd" d="M692.953 448.462L804.954 448.352L804.955 449.342L692.954 449.452L692.953 448.462Z" fill="#F4F5F6"/>
<path fill-rule="evenodd" clip-rule="evenodd" d="M804.947 433.103L692.946 433.193L692.945 432.203L804.946 432.113L804.947 433.103Z" fill="#F4F5F6"/>
<path fill-rule="evenodd" clip-rule="evenodd" d="M692.973 459.621L804.974 459.511L804.975 460.501L692.974 460.611L692.973 459.621Z" fill="#F4F5F6"/>
<path d="M915.888 351.358L804.387 351.473L804.513 470.726L916.014 470.611L915.888 351.358Z" fill="#D3DCE5"/>
<path fill-rule="evenodd" clip-rule="evenodd" d="M803.852 367.581L915.853 367.471L915.854 368.461L803.853 368.571L803.852 367.581Z" fill="#F4F5F6"/>
<path fill-rule="evenodd" clip-rule="evenodd" d="M915.85 352.231L803.848 352.321L803.848 351.331L915.849 351.241L915.85 352.231Z" fill="#F4F5F6"/>
<path fill-rule="evenodd" clip-rule="evenodd" d="M803.891 383.823L915.892 383.713L915.893 384.703L803.892 384.813L803.891 383.823Z" fill="#F4F5F6"/>
<path fill-rule="evenodd" clip-rule="evenodd" d="M915.853 368.472L803.852 368.552L803.852 367.562L915.853 367.482L915.853 368.472Z" fill="#F4F5F6"/>
<path fill-rule="evenodd" clip-rule="evenodd" d="M803.914 400.061L915.915 399.951L915.916 400.941L803.915 401.051L803.914 400.061Z" fill="#F4F5F6"/>
<path fill-rule="evenodd" clip-rule="evenodd" d="M915.892 384.711L803.891 384.791L803.891 383.801L915.892 383.721L915.892 384.711Z" fill="#F4F5F6"/>
<path fill-rule="evenodd" clip-rule="evenodd" d="M803.922 416.302L915.923 416.182L915.924 417.172L803.923 417.292L803.922 416.302Z" fill="#F4F5F6"/>
<path fill-rule="evenodd" clip-rule="evenodd" d="M915.916 400.941L803.915 401.032L803.914 400.042L915.915 399.951L915.916 400.941Z" fill="#F4F5F6"/>
<path fill-rule="evenodd" clip-rule="evenodd" d="M803.938 432.112L915.939 432.002L915.94 432.992L803.938 433.102L803.938 432.112Z" fill="#F4F5F6"/>
<path fill-rule="evenodd" clip-rule="evenodd" d="M864.112 416.874H854.965V415.884H864.112V416.874Z" fill="#F4F5F6"/>
<path fill-rule="evenodd" clip-rule="evenodd" d="M803.945 448.352L915.946 448.242L915.947 449.232L803.946 449.342L803.945 448.352Z" fill="#F4F5F6"/>
<path fill-rule="evenodd" clip-rule="evenodd" d="M915.939 432.992L803.938 433.082L803.938 432.092L915.938 432.002L915.939 432.992Z" fill="#F4F5F6"/>
<path fill-rule="evenodd" clip-rule="evenodd" d="M803.965 459.512L915.966 459.402L915.967 460.392L803.966 460.502L803.965 459.512Z" fill="#F4F5F6"/>
<path d="M273.62 163.28L817.625 162.71L817.615 153.18L273.61 153.75L273.62 163.28Z" fill="white"/>
<path fill-rule="evenodd" clip-rule="evenodd" d="M818.637 163.71L272.632 164.282L272.62 152.752L818.625 152.18L818.637 163.71ZM816.635 161.712L816.627 154.182L274.622 154.75L274.63 162.28L816.635 161.712Z" fill="#959DA8"/>
<path d="M727.86 107.584L363.336 107.954L275.016 154.504L813.171 153.964L816.271 153.954L727.86 107.584Z" fill="#F4F5F6"/>
<path fill-rule="evenodd" clip-rule="evenodd" d="M727.847 106.584C728.009 106.584 728.169 106.624 728.313 106.699L816.723 153.069C817.13 153.283 817.34 153.746 817.23 154.192C817.121 154.639 816.722 154.953 816.262 154.955L813.16 154.965L275.005 155.505C274.545 155.505 274.144 155.192 274.033 154.745C273.923 154.299 274.131 153.835 274.538 153.62L362.859 107.07C363.002 106.994 363.162 106.955 363.324 106.954L727.847 106.584ZM363.573 108.954L279.054 153.501L812.22 152.966L727.602 108.585L363.573 108.954Z" fill="#959DA8"/>
<path d="M817.673 153.139L273.668 153.709L273.678 163.239L817.683 162.669L817.673 153.139Z" fill="#F4F5F6"/>
<path fill-rule="evenodd" clip-rule="evenodd" d="M272.656 152.709L818.661 152.138L818.673 163.668L272.668 164.239L272.656 152.709ZM274.658 154.707L274.666 162.237L816.671 161.67L816.663 154.14L274.658 154.707Z" fill="#959DA8"/>
<path d="M565.844 105.724L634.975 153.444L635.075 268.675L496.873 268.805L496.773 153.574L565.844 105.724Z" fill="#F4F5F6"/>
<path fill-rule="evenodd" clip-rule="evenodd" d="M565.82 104.38L636.056 152.864L636.157 269.779L495.746 269.911L495.645 152.996L565.82 104.38ZM565.822 107.067L497.856 154.153L497.954 267.699L633.945 267.571L633.847 154.025L565.822 107.067Z" fill="#959DA8"/>
<path d="M653.672 164.024L635.442 164.044L566.021 107.244L496.711 164.184L478.48 164.204L566.001 92.3035L653.672 164.024Z" fill="#F4F5F6"/>
<path fill-rule="evenodd" clip-rule="evenodd" d="M566.002 106.597L635.74 163.657L635.107 164.431L566.004 107.89L497.01 164.57L496.375 163.798L566.002 106.597Z" fill="#959DA8"/>
<path fill-rule="evenodd" clip-rule="evenodd" d="M565.992 91.0107L656.462 165.021L635.435 165.045L635.433 163.044L650.866 163.028L565.994 93.5969L481.268 163.201L496.701 163.185L496.703 165.185L475.676 165.208L565.992 91.0107Z" fill="#959DA8"/>
<path d="M975.837 323.505L975.827 313.975L225.052 315.255L219.025 315.255C218.362 315.255 217.824 315.793 217.825 316.456L217.83 324.298L975.837 323.505Z" fill="#F4F5F6"/>
<path fill-rule="evenodd" clip-rule="evenodd" d="M976.851 312.973L976.863 324.503L216.856 325.299L216.85 316.456C216.849 315.24 217.834 314.255 219.05 314.255L225.075 314.255L976.851 312.973ZM974.853 314.976L219.05 316.255C218.939 316.255 218.85 316.344 218.85 316.455L218.854 323.297L974.861 322.506L974.853 314.976Z" fill="#959DA8"/>
<path d="M743.919 315.035L717.769 268.594L304.375 269.004L218.074 315.565L743.919 315.035Z" fill="#F4F5F6"/>
<path fill-rule="evenodd" clip-rule="evenodd" d="M718.336 267.593L745.612 316.033L214.09 316.568L304.105 268.004L718.336 267.593ZM304.611 270.004L222.024 314.56L742.192 314.036L717.167 269.594L304.611 270.004Z" fill="#959DA8"/>
<path d="M971.774 314.336L635.051 314.676L803.712 214.045L971.774 314.336Z" fill="#F4F5F6"/>
<path fill-rule="evenodd" clip-rule="evenodd" d="M803.721 212.88L975.404 315.332L631.426 315.679L803.721 212.88ZM638.694 313.672L968.162 313.339L803.721 215.209L638.694 313.672Z" fill="#959DA8"/>
<path fill-rule="evenodd" clip-rule="evenodd" d="M633.978 470.177L633.828 323.675L635.828 323.673L635.978 470.175L633.978 470.177Z" fill="#959DA8"/>
<path d="M457.409 358.407H414.559L414.649 458.498H457.499L457.409 358.407Z" fill="#D3DCE5"/>
<path d="M451.355 364.293L420.625 364.325L420.671 408.656L451.402 408.623L451.355 364.293Z" fill="white"/>
<path fill-rule="evenodd" clip-rule="evenodd" d="M420.137 363.825L451.867 363.792L451.914 409.123L420.184 409.156L420.137 363.825ZM421.138 364.824L421.183 408.155L450.913 408.124L450.868 364.793L421.138 364.824Z" fill="#959DA8"/>
<path d="M230.543 473.256L230.392 324.255H220.543L220.694 473.256H230.543Z" fill="#F4F5F6"/>
<path fill-rule="evenodd" clip-rule="evenodd" d="M219.422 323.109H231.561L231.714 474.401H219.575L219.422 323.109ZM221.714 325.399L221.863 472.111H229.422L229.273 325.399H221.714Z" fill="#959DA8"/>
<path d="M388.904 472.696L388.754 323.924H378.984L379.134 472.696H388.904Z" fill="#F4F5F6"/>
<path fill-rule="evenodd" clip-rule="evenodd" d="M378.008 322.925H389.778L389.93 473.696H378.16L378.008 322.925ZM380.01 324.925L380.158 471.696H387.928L387.78 324.925H380.01Z" fill="#959DA8"/>
<path d="M492.928 472.587L492.778 323.816H483.008L483.158 472.587H492.928Z" fill="#F4F5F6"/>
<path fill-rule="evenodd" clip-rule="evenodd" d="M481.996 322.816H493.766L493.918 473.587H482.148L481.996 322.816ZM483.998 324.816L484.146 471.587H491.916L491.768 324.816H483.998Z" fill="#959DA8"/>
<path d="M669.825 437.966L662.125 437.974L662.157 468.385L669.857 468.377L669.825 437.966Z" fill="#F4F5F6"/>
<path fill-rule="evenodd" clip-rule="evenodd" d="M661.113 436.975L670.813 436.965L670.847 469.376L661.147 469.386L661.113 436.975ZM663.115 438.973L663.145 467.384L668.845 467.378L668.815 438.967L663.115 438.973Z" fill="#959DA8"/>
<path d="M665.926 396.4C669.904 396.396 673.721 397.972 676.537 400.782C679.353 403.592 680.938 407.406 680.942 411.384L680.971 438.955L650.97 438.986L650.941 411.416C650.937 407.438 652.514 403.621 655.324 400.805C658.134 397.989 661.948 396.404 665.926 396.4Z" fill="#D3DCE5"/>
<path d="M676.266 406.799L655.586 406.821L655.59 411.171L676.271 411.149L676.266 406.799Z" fill="#F4F5F6"/>
<path fill-rule="evenodd" clip-rule="evenodd" d="M655.098 406.321L676.778 406.298L676.783 411.648L655.103 411.671L655.098 406.321ZM656.099 407.32L656.102 410.67L675.782 410.649L675.779 407.299L656.099 407.32Z" fill="#959DA8"/>
<path d="M660.741 468.386L671.281 468.375C672.464 468.374 673.599 468.843 674.436 469.678C675.274 470.514 675.745 471.648 675.746 472.83L656.286 472.851C656.285 471.668 656.753 470.533 657.589 469.696C658.425 468.858 659.558 468.387 660.741 468.386Z" fill="#F4F5F6"/>
<path fill-rule="evenodd" clip-rule="evenodd" d="M660.732 469.386C659.814 469.387 658.934 469.753 658.286 470.402C657.879 470.81 657.585 471.308 657.422 471.85L674.587 471.832C674.423 471.291 674.127 470.793 673.719 470.386C673.07 469.738 672.189 469.374 671.272 469.375L660.732 469.386ZM675.735 472.831L676.735 472.83C676.734 471.381 676.157 469.993 675.132 468.97C674.107 467.947 672.718 467.374 671.27 467.375L660.73 467.386C659.282 467.388 657.893 467.964 656.87 468.989C655.848 470.014 655.274 471.404 655.275 472.852L655.276 473.852L675.736 473.831L675.735 472.831Z" fill="#959DA8"/>
<path fill-rule="evenodd" clip-rule="evenodd" d="M803.73 226.925L953.574 314.393L953.07 315.257L803.731 228.083L655.732 314.766L655.227 313.903L803.73 226.925Z" fill="#959DA8"/>
<path d="M422.446 422.384C423.55 422.383 424.445 421.487 424.444 420.382C424.442 419.278 423.546 418.383 422.441 418.384C421.337 418.385 420.442 419.282 420.444 420.386C420.445 421.491 421.341 422.385 422.446 422.384Z" fill="white"/>
<path fill-rule="evenodd" clip-rule="evenodd" d="M422.454 418.885C421.626 418.886 420.955 419.558 420.956 420.386C420.957 421.215 421.629 421.886 422.457 421.885C423.286 421.884 423.957 421.212 423.956 420.383C423.955 419.555 423.283 418.884 422.454 418.885ZM419.956 420.387C419.954 419.007 421.072 417.886 422.453 417.885C423.834 417.883 424.954 419.001 424.956 420.382C424.957 421.763 423.839 422.883 422.458 422.885C421.078 422.886 419.957 421.768 419.956 420.387Z" fill="#959DA8"/>
<path d="M540.669 183.424H510.148L510.208 247.734H540.729L540.669 183.424Z" fill="white"/>
<path fill-rule="evenodd" clip-rule="evenodd" d="M509.66 182.923H541.18L541.241 248.234H509.721L509.66 182.923ZM510.661 183.923L510.72 247.234H540.24L540.181 183.923H510.661Z" fill="#959DA8"/>
<path fill-rule="evenodd" clip-rule="evenodd" d="M524.956 209.397L524.926 183.437L525.926 183.436L525.956 209.396L524.956 209.397Z" fill="#959DA8"/>
<path fill-rule="evenodd" clip-rule="evenodd" d="M540.718 210.335L510.228 210.365L510.227 209.365L540.717 209.335L540.718 210.335Z" fill="#959DA8"/>
<path d="M580.782 183.385H550.262L550.322 247.696H580.842L580.782 183.385Z" fill="white"/>
<path fill-rule="evenodd" clip-rule="evenodd" d="M549.77 182.885H581.29L581.351 248.196H549.83L549.77 182.885ZM550.77 183.885L550.83 247.196H580.35L580.291 183.885H550.77Z" fill="#959DA8"/>
<path fill-rule="evenodd" clip-rule="evenodd" d="M565.055 209.356L565.035 183.396L566.035 183.395L566.055 209.355L565.055 209.356Z" fill="#959DA8"/>
<path fill-rule="evenodd" clip-rule="evenodd" d="M580.8 210.295L550.31 210.326L550.309 209.326L580.799 209.295L580.8 210.295Z" fill="#959DA8"/>
<path d="M620.903 183.334H590.383L590.443 247.645H620.963L620.903 183.334Z" fill="white"/>
<path fill-rule="evenodd" clip-rule="evenodd" d="M589.891 182.834H621.411L621.472 248.145H589.952L589.891 182.834ZM590.892 183.834L590.951 247.145H620.471L620.412 183.834H590.892Z" fill="#959DA8"/>
<path fill-rule="evenodd" clip-rule="evenodd" d="M605.141 209.315L605.121 183.355L606.121 183.354L606.141 209.315L605.141 209.315Z" fill="#959DA8"/>
<path fill-rule="evenodd" clip-rule="evenodd" d="M620.917 210.253L590.427 210.283L590.426 209.283L620.916 209.253L620.917 210.253Z" fill="#959DA8"/>
<path d="M351.665 183.615H321.145L321.205 247.926H351.725L351.665 183.615Z" fill="white"/>
<path fill-rule="evenodd" clip-rule="evenodd" d="M320.656 183.115H352.177L352.237 248.426H320.717L320.656 183.115ZM321.657 184.115L321.716 247.426H351.237L351.177 184.115H321.657Z" fill="#959DA8"/>
<path fill-rule="evenodd" clip-rule="evenodd" d="M335.952 209.586L335.922 183.626L336.922 183.625L336.952 209.585L335.952 209.586Z" fill="#959DA8"/>
<path fill-rule="evenodd" clip-rule="evenodd" d="M351.714 210.526L321.224 210.556L321.223 209.556L351.713 209.526L351.714 210.526Z" fill="#959DA8"/>
<path d="M706.684 183.254H676.164L676.224 247.565H706.744L706.684 183.254Z" fill="white"/>
<path fill-rule="evenodd" clip-rule="evenodd" d="M675.645 182.754H707.165L707.226 248.065H675.705L675.645 182.754ZM676.645 183.754L676.705 247.065H706.225L706.166 183.754H676.645Z" fill="#959DA8"/>
<path fill-rule="evenodd" clip-rule="evenodd" d="M690.94 209.226L690.91 183.266L691.91 183.265L691.94 209.225L690.94 209.226Z" fill="#959DA8"/>
<path fill-rule="evenodd" clip-rule="evenodd" d="M706.706 210.164L676.216 210.194L676.215 209.194L706.705 209.164L706.706 210.164Z" fill="#959DA8"/>
<path d="M351.841 359.616H321.32L321.38 423.927H351.901L351.841 359.616Z" fill="white"/>
<path fill-rule="evenodd" clip-rule="evenodd" d="M320.832 359.116H352.352L352.413 424.427H320.893L320.832 359.116ZM321.833 360.116L321.892 423.427H351.412L351.353 360.116H321.833Z" fill="#959DA8"/>
<path fill-rule="evenodd" clip-rule="evenodd" d="M336.114 385.588L336.094 359.628L337.094 359.627L337.114 385.587L336.114 385.588Z" fill="#959DA8"/>
<path fill-rule="evenodd" clip-rule="evenodd" d="M351.89 386.528L321.399 386.558L321.398 385.558L351.889 385.528L351.89 386.528Z" fill="#959DA8"/>
<path d="M455.891 183.503H425.371L425.431 247.814H455.951L455.891 183.503Z" fill="white"/>
<path fill-rule="evenodd" clip-rule="evenodd" d="M424.883 183.003H456.403L456.464 248.314H424.944L424.883 183.003ZM425.884 184.003L425.943 247.314H455.463L455.404 184.003H425.884Z" fill="#959DA8"/>
<path fill-rule="evenodd" clip-rule="evenodd" d="M440.161 209.477L440.141 183.516L441.141 183.516L441.161 209.476L440.161 209.477Z" fill="#959DA8"/>
<path fill-rule="evenodd" clip-rule="evenodd" d="M455.905 210.424L425.415 210.454L425.414 209.454L455.904 209.424L455.905 210.424Z" fill="#959DA8"/>
<path d="M425.903 183.536H395.383L395.443 247.846H425.963L425.903 183.536Z" fill="white"/>
<path fill-rule="evenodd" clip-rule="evenodd" d="M394.859 183.035H426.38L426.441 248.346H394.92L394.859 183.035ZM395.86 184.035L395.919 247.346H425.44L425.381 184.035H395.86Z" fill="#959DA8"/>
<path fill-rule="evenodd" clip-rule="evenodd" d="M410.141 209.505L410.121 183.545L411.121 183.544L411.141 209.505L410.141 209.505Z" fill="#959DA8"/>
<path fill-rule="evenodd" clip-rule="evenodd" d="M425.917 210.455L395.427 210.485L395.426 209.485L425.916 209.455L425.917 210.455Z" fill="#959DA8"/>
<path d="M538.852 359.426H508.332L508.392 423.736H538.912L538.852 359.426Z" fill="white"/>
<path fill-rule="evenodd" clip-rule="evenodd" d="M507.84 358.926H539.36L539.421 424.236H507.901L507.84 358.926ZM508.841 359.926L508.9 423.236H538.42L538.361 359.926H508.841Z" fill="#959DA8"/>
<path fill-rule="evenodd" clip-rule="evenodd" d="M523.125 385.397L523.105 359.437L524.105 359.436L524.125 385.397L523.125 385.397Z" fill="#959DA8"/>
<path fill-rule="evenodd" clip-rule="evenodd" d="M538.87 386.335L508.38 386.365L508.379 385.365L538.869 385.335L538.87 386.335Z" fill="#959DA8"/>
<path d="M578.969 359.386H548.449L548.509 423.697H579.029L578.969 359.386Z" fill="white"/>
<path fill-rule="evenodd" clip-rule="evenodd" d="M547.957 358.886H579.477L579.538 424.197H548.018L547.957 358.886ZM548.958 359.886L549.017 423.197H578.537L578.478 359.886H548.958Z" fill="#959DA8"/>
<path fill-rule="evenodd" clip-rule="evenodd" d="M563.207 385.358L563.188 359.398L564.188 359.397L564.207 385.357L563.207 385.358Z" fill="#959DA8"/>
<path fill-rule="evenodd" clip-rule="evenodd" d="M578.987 386.298L548.497 386.328L548.496 385.328L578.986 385.298L578.987 386.298Z" fill="#959DA8"/>
<path d="M619.083 359.346H588.562L588.622 423.657H619.143L619.083 359.346Z" fill="white"/>
<path fill-rule="evenodd" clip-rule="evenodd" d="M588.043 358.846H619.563L619.624 424.157H588.104L588.043 358.846ZM589.044 359.846L589.103 423.157H618.623L618.564 359.846H589.044Z" fill="#959DA8"/>
<path fill-rule="evenodd" clip-rule="evenodd" d="M603.327 385.318L603.297 359.358L604.297 359.356L604.327 385.317L603.327 385.318Z" fill="#959DA8"/>
<path fill-rule="evenodd" clip-rule="evenodd" d="M619.091 386.256L588.61 386.286L588.609 385.286L619.09 385.256L619.091 386.256Z" fill="#959DA8"/>
<path fill-rule="evenodd" clip-rule="evenodd" d="M332.908 454.383L285.598 417.892L286.208 417.1L333.519 453.591L332.908 454.383Z" fill="#959DA8"/>
<path fill-rule="evenodd" clip-rule="evenodd" d="M285.625 453.631L332.855 417.061L333.468 417.852L286.237 454.422L285.625 453.631Z" fill="#959DA8"/>
<path d="M337.952 410.464L280.931 410.524C278.728 410.526 276.943 412.312 276.946 414.513C276.948 416.714 278.736 418.496 280.94 418.494L337.96 418.434C340.164 418.432 341.948 416.646 341.946 414.445C341.944 412.244 340.156 410.462 337.952 410.464Z" fill="#D3DCE5"/>
<path d="M239.563 430.726H267.213L258.943 410.936C257.972 408.611 256.333 406.625 254.235 405.23C252.137 403.835 249.673 403.092 247.153 403.095C245.052 403.098 242.985 403.618 241.134 404.612C239.283 405.605 237.705 407.04 236.542 408.789C235.379 410.538 234.665 412.547 234.464 414.638C234.264 416.729 234.583 418.837 235.393 420.776L239.563 430.726Z" fill="#D3DCE5"/>
<path fill-rule="evenodd" clip-rule="evenodd" d="M265.829 417.846C265.829 417.846 265.829 417.846 265.829 417.846L261.689 418.016L261.648 417.016L265.788 416.846C269.235 416.706 272.645 417.599 275.58 419.41C278.516 421.221 280.844 423.867 282.265 427.01L295.265 455.821L294.354 456.232L281.354 427.422" fill="#959DA8"/>
<path fill-rule="evenodd" clip-rule="evenodd" d="M233.676 455.979L239.426 429.969L240.402 430.184L234.652 456.195L233.676 455.979Z" fill="#959DA8"/>
<path fill-rule="evenodd" clip-rule="evenodd" d="M256.727 455.949L262.437 429.949L263.413 430.164L257.703 456.164L256.727 455.949Z" fill="#959DA8"/>
<path d="M280.58 430.699L238.69 430.743L238.686 426.903L280.576 426.859C281.085 426.858 281.574 427.06 281.934 427.42C282.295 427.779 282.497 428.267 282.498 428.777C282.498 429.029 282.449 429.279 282.353 429.512C282.256 429.745 282.115 429.957 281.937 430.135C281.759 430.313 281.547 430.455 281.315 430.552C281.082 430.649 280.832 430.699 280.58 430.699Z" fill="#D3DCE5"/>
<path fill-rule="evenodd" clip-rule="evenodd" d="M248.271 420.112C245.655 418.498 242.616 417.703 239.545 417.828L234.024 418.048L233.984 417.048L239.504 416.828C239.504 416.828 239.504 416.828 239.504 416.828C242.774 416.696 246.01 417.543 248.796 419.261C251.582 420.979 253.791 423.49 255.14 426.472L268.42 455.842L267.509 456.254L254.229 426.884C254.229 426.884 254.229 426.884 254.229 426.884C252.962 424.084 250.887 421.726 248.271 420.112Z" fill="#959DA8"/>
<path d="M634.984 452.663L230.98 453.086L231.001 473.086L635.005 472.663L634.984 452.663Z" fill="#F4F5F6"/>
<path fill-rule="evenodd" clip-rule="evenodd" d="M229.969 452.087L635.972 451.662L635.995 473.662L229.992 474.087L229.969 452.087ZM231.971 454.085L231.99 472.085L633.993 471.664L633.974 453.664L231.971 454.085Z" fill="#959DA8"/>
<path d="M492.556 463.086L379.555 463.186V472.086L492.556 471.986V463.086Z" fill="#F4F5F6"/>
<path fill-rule="evenodd" clip-rule="evenodd" d="M493.544 462.086V472.985L378.543 473.087V462.188L493.544 462.086ZM380.543 464.186V471.086L491.544 470.987V464.087L380.543 464.186Z" fill="#959DA8"/>
<path d="M492.556 453.086L379.555 453.198V463.086L492.556 462.975V453.086Z" fill="#F4F5F6"/>
<path fill-rule="evenodd" clip-rule="evenodd" d="M493.544 452.085V463.974L378.543 464.087V452.198L493.544 452.085ZM380.543 454.197V462.085L491.544 461.976V454.087L380.543 454.197Z" fill="#959DA8"/>
<path d="M582.989 470.578C582.99 471.642 582.849 472.701 582.569 473.728L487.718 473.828C487.423 472.801 487.242 471.744 487.178 470.678C486.758 464.138 492.488 458.788 499.048 458.778C500.413 458.778 501.767 459.019 503.048 459.488C502.973 458.824 502.936 458.156 502.938 457.488C502.905 452.994 504.466 448.635 507.343 445.184C510.22 441.732 514.227 439.412 518.652 438.635C523.078 437.858 527.636 438.675 531.516 440.94C535.397 443.205 538.349 446.772 539.848 451.007C541.982 449.086 544.576 447.749 547.379 447.127C550.182 446.505 553.098 446.62 555.844 447.459C558.59 448.299 561.071 449.835 563.047 451.919C565.023 454.002 566.426 456.561 567.119 459.348C568.909 458.705 570.828 458.503 572.712 458.759C574.597 459.015 576.392 459.721 577.946 460.818C579.5 461.915 580.767 463.37 581.64 465.06C582.512 466.75 582.965 468.626 582.959 470.528L582.989 470.578Z" fill="#80C33F"/>
<path d="M989.543 431.323L981.558 423.257L973.592 431.333L973.582 472.258L989.582 472.238L989.543 431.323Z" fill="#F4F5F6"/>
<path fill-rule="evenodd" clip-rule="evenodd" d="M981.545 421.834L990.531 430.911L990.572 473.236L972.57 473.259L972.581 430.922L981.545 421.834ZM981.547 424.68L974.58 431.743L974.571 471.256L988.57 471.239L988.532 431.734L981.547 424.68Z" fill="#959DA8"/>
<path d="M1005.52 431.314L997.539 423.257L989.578 431.334L989.559 472.258L1005.56 472.238L1005.52 431.314Z" fill="#F4F5F6"/>
<path fill-rule="evenodd" clip-rule="evenodd" d="M997.557 421.834L1006.54 430.902L1006.58 473.236L988.578 473.259L988.598 430.924L997.557 421.834ZM997.561 424.68L990.598 431.744L990.579 471.256L1004.58 471.239L1004.54 431.726L997.561 424.68Z" fill="#959DA8"/>
<path d="M1021.51 431.314L1013.53 423.257L1005.57 431.334L1005.56 472.258L1021.56 472.248L1021.51 431.314Z" fill="#F4F5F6"/>
<path fill-rule="evenodd" clip-rule="evenodd" d="M1013.55 421.834L1022.53 430.902L1022.58 473.247L1004.58 473.258L1004.59 430.924L1013.55 421.834ZM1013.55 424.68L1006.59 431.744L1006.58 471.257L1020.58 471.248L1020.53 431.726L1013.55 424.68Z" fill="#959DA8"/>
<path d="M1038.52 431.323L1030.04 423.257L1021.57 431.333L1021.56 472.258L1038.56 472.238L1038.52 431.323Z" fill="#F4F5F6"/>
<path fill-rule="evenodd" clip-rule="evenodd" d="M1030.03 421.876L1039.52 430.893L1039.56 473.237L1020.56 473.259L1020.57 430.905L1030.03 421.876ZM1030.03 424.638L1022.57 431.761L1022.56 471.256L1037.56 471.239L1037.52 431.752L1030.03 424.638Z" fill="#959DA8"/>
<path d="M1054.54 431.314L1046.56 423.257L1038.6 431.334L1038.58 472.258L1054.58 472.238L1054.54 431.314Z" fill="#F4F5F6"/>
<path fill-rule="evenodd" clip-rule="evenodd" d="M1046.55 421.834L1055.53 430.902L1055.57 473.236L1037.57 473.259L1037.59 430.924L1046.55 421.834ZM1046.55 424.68L1039.59 431.744L1039.57 471.256L1053.57 471.239L1053.53 431.726L1046.55 424.68Z" fill="#959DA8"/>
<path d="M1070.52 431.314L1062.54 423.257L1054.57 431.334L1054.56 472.258L1070.56 472.248L1070.52 431.314Z" fill="#F4F5F6"/>
<path fill-rule="evenodd" clip-rule="evenodd" d="M1062.56 421.835L1071.54 430.902L1071.58 473.247L1053.58 473.258L1053.59 430.924L1062.56 421.835ZM1062.56 424.68L1055.59 431.745L1055.58 471.257L1069.58 471.248L1069.54 431.726L1062.56 424.68Z" fill="#959DA8"/>
<line y1="474" x2="1300" y2="474" stroke="#D9DDE2" stroke-width="2" stroke-miterlimit="10"/>
<path d="M953.813 224.112H897V253.889H953.813V224.112Z" fill="white"/>
<path d="M953.766 224H897V226.356H953.766V224Z" fill="#B22234"/>
<path d="M953.769 228.608H897.004V230.963H953.769V228.608Z" fill="#B22234"/>
<path d="M953.769 233.215H897.004V235.571H953.769V233.215Z" fill="#B22234"/>
<path d="M953.769 237.823H897.004V240.178H953.769V237.823Z" fill="#B22234"/>
<path d="M953.769 242.43H897.004V244.785H953.769V242.43Z" fill="#B22234"/>
<path d="M953.769 247.037H897.004V249.392H953.769V247.037Z" fill="#B22234"/>
<path d="M953.769 251.645H897.004V254H953.769V251.645Z" fill="#B22234"/>
<path d="M919.672 224H897V240.179H919.672V224Z" fill="#2A3A51"/>
<path d="M898.926 224.619L899.138 225.28H899.825L899.269 225.688L899.482 226.349L898.926 225.94L898.371 226.349L898.583 225.688L898.027 225.28H898.714L898.926 224.619Z" fill="white"/>
<path d="M900.797 226.279L901.009 226.94H901.696L901.141 227.348L901.353 228.009L900.797 227.601L900.242 228.009L900.454 227.348L899.898 226.94H900.585L900.797 226.279Z" fill="white"/>
<path d="M900.797 229.523L901.009 230.183H901.696L901.141 230.592L901.353 231.252L900.797 230.844L900.242 231.252L900.454 230.592L899.898 230.183H900.585L900.797 229.523Z" fill="white"/>
<path d="M900.797 232.767L901.009 233.427H901.696L901.141 233.835L901.353 234.495L900.797 234.087L900.242 234.495L900.454 233.835L899.898 233.427H900.585L900.797 232.767Z" fill="white"/>
<path d="M900.797 236.01L901.009 236.67H901.696L901.141 237.079L901.353 237.739L900.797 237.331L900.242 237.739L900.454 237.079L899.898 236.67H900.585L900.797 236.01Z" fill="white"/>
<path d="M904.582 226.279L904.794 226.94H905.481L904.926 227.348L905.138 228.009L904.582 227.601L904.027 228.009L904.239 227.348L903.684 226.94H904.37L904.582 226.279Z" fill="white"/>
<path d="M904.582 229.523L904.794 230.183H905.481L904.926 230.592L905.138 231.252L904.582 230.844L904.027 231.252L904.239 230.592L903.684 230.183H904.37L904.582 229.523Z" fill="white"/>
<path d="M904.582 232.767L904.794 233.427H905.481L904.926 233.835L905.138 234.495L904.582 234.087L904.027 234.495L904.239 233.835L903.684 233.427H904.37L904.582 232.767Z" fill="white"/>
<path d="M904.582 236.01L904.794 236.67H905.481L904.926 237.079L905.138 237.739L904.582 237.331L904.027 237.739L904.239 237.079L903.684 236.67H904.37L904.582 236.01Z" fill="white"/>
<path d="M908.371 226.279L908.584 226.94H909.27L908.715 227.348L908.927 228.009L908.371 227.601L907.816 228.009L908.028 227.348L907.473 226.94H908.159L908.371 226.279Z" fill="white"/>
<path d="M908.371 229.523L908.584 230.183H909.27L908.715 230.592L908.927 231.252L908.371 230.844L907.816 231.252L908.028 230.592L907.473 230.183H908.159L908.371 229.523Z" fill="white"/>
<path d="M908.371 232.767L908.584 233.427H909.27L908.715 233.835L908.927 234.495L908.371 234.087L907.816 234.495L908.028 233.835L907.473 233.427H908.159L908.371 232.767Z" fill="white"/>
<path d="M908.371 236.01L908.584 236.67H909.27L908.715 237.079L908.927 237.739L908.371 237.331L907.816 237.739L908.028 237.079L907.473 236.67H908.159L908.371 236.01Z" fill="white"/>
<path d="M912.16 226.279L912.373 226.94H913.059L912.504 227.348L912.716 228.009L912.16 227.601L911.605 228.009L911.817 227.348L911.262 226.94H911.948L912.16 226.279Z" fill="white"/>
<path d="M912.16 229.523L912.373 230.183H913.059L912.504 230.592L912.716 231.252L912.16 230.844L911.605 231.252L911.817 230.592L911.262 230.183H911.948L912.16 229.523Z" fill="white"/>
<path d="M912.16 232.767L912.373 233.427H913.059L912.504 233.835L912.716 234.495L912.16 234.087L911.605 234.495L911.817 233.835L911.262 233.427H911.948L912.16 232.767Z" fill="white"/>
<path d="M912.16 236.01L912.373 236.67H913.059L912.504 237.079L912.716 237.739L912.16 237.331L911.605 237.739L911.817 237.079L911.262 236.67H911.948L912.16 236.01Z" fill="white"/>
<path d="M915.949 226.279L916.162 226.94H916.848L916.293 227.348L916.505 228.009L915.949 227.601L915.394 228.009L915.606 227.348L915.051 226.94H915.737L915.949 226.279Z" fill="white"/>
<path d="M915.949 229.523L916.162 230.183H916.848L916.293 230.592L916.505 231.252L915.949 230.844L915.394 231.252L915.606 230.592L915.051 230.183H915.737L915.949 229.523Z" fill="white"/>
<path d="M915.949 232.767L916.162 233.427H916.848L916.293 233.835L916.505 234.495L915.949 234.087L915.394 234.495L915.606 233.835L915.051 233.427H915.737L915.949 232.767Z" fill="white"/>
<path d="M915.949 236.01L916.162 236.67H916.848L916.293 237.079L916.505 237.739L915.949 237.331L915.394 237.739L915.606 237.079L915.051 236.67H915.737L915.949 236.01Z" fill="white"/>
<path d="M898.926 227.863L899.138 228.523H899.825L899.269 228.931L899.482 229.592L898.926 229.184L898.371 229.592L898.583 228.931L898.027 228.523H898.714L898.926 227.863Z" fill="white"/>
<path d="M898.926 231.107L899.138 231.767H899.825L899.269 232.175L899.482 232.835L898.926 232.427L898.371 232.835L898.583 232.175L898.027 231.767H898.714L898.926 231.107Z" fill="white"/>
<path d="M898.926 234.35L899.138 235.01H899.825L899.269 235.419L899.482 236.079L898.926 235.671L898.371 236.079L898.583 235.419L898.027 235.01H898.714L898.926 234.35Z" fill="white"/>
<path d="M898.926 237.594L899.138 238.254H899.825L899.269 238.662L899.482 239.322L898.926 238.914L898.371 239.322L898.583 238.662L898.027 238.254H898.714L898.926 237.594Z" fill="white"/>
<path d="M902.664 224.619L902.876 225.28H903.563L903.008 225.688L903.22 226.349L902.664 225.94L902.109 226.349L902.321 225.688L901.766 225.28H902.452L902.664 224.619Z" fill="white"/>
<path d="M902.664 227.863L902.876 228.523H903.563L903.008 228.931L903.22 229.592L902.664 229.184L902.109 229.592L902.321 228.931L901.766 228.523H902.452L902.664 227.863Z" fill="white"/>
<path d="M902.664 231.107L902.876 231.767H903.563L903.008 232.175L903.22 232.835L902.664 232.427L902.109 232.835L902.321 232.175L901.766 231.767H902.452L902.664 231.107Z" fill="white"/>
<path d="M902.664 234.35L902.876 235.01H903.563L903.008 235.419L903.22 236.079L902.664 235.671L902.109 236.079L902.321 235.419L901.766 235.01H902.452L902.664 234.35Z" fill="white"/>
<path d="M902.664 237.594L902.876 238.254H903.563L903.008 238.662L903.22 239.322L902.664 238.914L902.109 239.322L902.321 238.662L901.766 238.254H902.452L902.664 237.594Z" fill="white"/>
<path d="M906.504 224.619L906.716 225.28H907.403L906.848 225.688L907.06 226.349L906.504 225.94L905.949 226.349L906.161 225.688L905.605 225.28H906.292L906.504 224.619Z" fill="white"/>
<path d="M906.504 227.863L906.716 228.523H907.403L906.848 228.931L907.06 229.592L906.504 229.184L905.949 229.592L906.161 228.931L905.605 228.523H906.292L906.504 227.863Z" fill="white"/>
<path d="M906.504 231.107L906.716 231.767H907.403L906.848 232.175L907.06 232.835L906.504 232.427L905.949 232.835L906.161 232.175L905.605 231.767H906.292L906.504 231.107Z" fill="white"/>
<path d="M906.504 234.35L906.716 235.01H907.403L906.848 235.419L907.06 236.079L906.504 235.671L905.949 236.079L906.161 235.419L905.605 235.01H906.292L906.504 234.35Z" fill="white"/>
<path d="M906.504 237.594L906.716 238.254H907.403L906.848 238.662L907.06 239.322L906.504 238.914L905.949 239.322L906.161 238.662L905.605 238.254H906.292L906.504 237.594Z" fill="white"/>
<path d="M910.266 224.619L910.478 225.28H911.165L910.609 225.688L910.821 226.349L910.266 225.94L909.71 226.349L909.922 225.688L909.367 225.28H910.054L910.266 224.619Z" fill="white"/>
<path d="M910.266 227.863L910.478 228.523H911.165L910.609 228.931L910.821 229.592L910.266 229.184L909.71 229.592L909.922 228.931L909.367 228.523H910.054L910.266 227.863Z" fill="white"/>
<path d="M910.266 231.107L910.478 231.767H911.165L910.609 232.175L910.821 232.835L910.266 232.427L909.71 232.835L909.922 232.175L909.367 231.767H910.054L910.266 231.107Z" fill="white"/>
<path d="M910.266 234.35L910.478 235.01H911.165L910.609 235.419L910.821 236.079L910.266 235.671L909.71 236.079L909.922 235.419L909.367 235.01H910.054L910.266 234.35Z" fill="white"/>
<path d="M910.266 237.594L910.478 238.254H911.165L910.609 238.662L910.821 239.322L910.266 238.914L909.71 239.322L909.922 238.662L909.367 238.254H910.054L910.266 237.594Z" fill="white"/>
<path d="M914.028 224.619L914.24 225.28H914.926L914.371 225.688L914.583 226.349L914.028 225.94L913.472 226.349L913.684 225.688L913.129 225.28H913.815L914.028 224.619Z" fill="white"/>
<path d="M914.028 227.863L914.24 228.523H914.926L914.371 228.931L914.583 229.592L914.028 229.184L913.472 229.592L913.684 228.931L913.129 228.523H913.815L914.028 227.863Z" fill="white"/>
<path d="M914.028 231.107L914.24 231.767H914.926L914.371 232.175L914.583 232.835L914.028 232.427L913.472 232.835L913.684 232.175L913.129 231.767H913.815L914.028 231.107Z" fill="white"/>
<path d="M914.028 234.35L914.24 235.01H914.926L914.371 235.419L914.583 236.079L914.028 235.671L913.472 236.079L913.684 235.419L913.129 235.01H913.815L914.028 234.35Z" fill="white"/>
<path d="M914.028 237.594L914.24 238.254H914.926L914.371 238.662L914.583 239.322L914.028 238.914L913.472 239.322L913.684 238.662L913.129 238.254H913.815L914.028 237.594Z" fill="white"/>
<path d="M917.868 224.619L918.08 225.28H918.767L918.211 225.688L918.423 226.349L917.868 225.94L917.312 226.349L917.524 225.688L916.969 225.28H917.655L917.868 224.619Z" fill="white"/>
<path d="M917.868 227.863L918.08 228.523H918.767L918.211 228.931L918.423 229.592L917.868 229.184L917.312 229.592L917.524 228.931L916.969 228.523H917.655L917.868 227.863Z" fill="white"/>
<path d="M917.868 231.107L918.08 231.767H918.767L918.211 232.175L918.423 232.835L917.868 232.427L917.312 232.835L917.524 232.175L916.969 231.767H917.655L917.868 231.107Z" fill="white"/>
<path d="M917.868 234.35L918.08 235.01H918.767L918.211 235.419L918.423 236.079L917.868 235.671L917.312 236.079L917.524 235.419L916.969 235.01H917.655L917.868 234.35Z" fill="white"/>
<path d="M917.868 237.594L918.08 238.254H918.767L918.211 238.662L918.423 239.322L917.868 238.914L917.312 239.322L917.524 238.662L916.969 238.254H917.655L917.868 237.594Z" fill="white"/>
<path d="M897 270.5V253.5M897 253.5V224H953.295V253.5H897Z" stroke="#959DA8" stroke-miterlimit="10"/>
</g>
</svg>
