<svg width="798" height="328" viewBox="0 0 798 328" fill="none" xmlns="http://www.w3.org/2000/svg">
<path d="M387.906 220.413L739.558 220.413V95.6554L387.906 95.6554V220.413Z" fill="#F4F5F6"/>
<path fill-rule="evenodd" clip-rule="evenodd" d="M740.344 221.201L387.119 221.201V94.8688L740.344 94.8688V221.201ZM738.77 219.626V96.443L388.693 96.443V219.626L738.77 219.626Z" fill="#959DA8"/>
<path d="M791.499 282.383C791.991 279.907 791.967 277.356 791.428 274.89C790.898 272.449 789.858 270.147 788.374 268.137C786.931 266.175 785.067 264.561 782.919 263.414C780.822 262.292 778.489 261.681 776.11 261.63C773.732 261.58 771.375 262.091 769.231 263.123C767.046 264.176 765.125 265.706 763.611 267.601C762.056 269.547 760.931 271.8 760.313 274.213C759.683 276.658 759.565 279.206 759.967 281.699C758.189 282.629 756.636 283.937 755.417 285.532C754.167 287.166 753.269 289.042 752.781 291.042C752.282 293.063 752.196 295.165 752.529 297.221C752.857 299.26 753.602 301.211 754.717 302.951C755.801 304.65 757.24 306.095 758.936 307.185C760.599 308.252 762.483 308.925 764.446 309.153C766.389 309.378 768.358 309.151 770.199 308.492C772.07 307.824 773.769 306.748 775.174 305.344C776.534 306.729 778.177 307.803 779.991 308.492C781.772 309.168 783.681 309.437 785.58 309.279C787.483 309.105 789.325 308.511 790.972 307.54C792.655 306.544 794.109 305.202 795.238 303.604C796.395 301.968 797.211 300.115 797.638 298.157C798.073 296.18 798.116 294.137 797.764 292.144C797.418 290.165 796.68 288.275 795.592 286.587C794.54 284.912 793.145 283.479 791.499 282.383Z" fill="#80C33F"/>
<path fill-rule="evenodd" clip-rule="evenodd" d="M768.061 291.883C768.187 291.706 768.433 291.664 768.61 291.79L776.017 297.064C776.194 297.19 776.235 297.436 776.109 297.613C775.983 297.79 775.737 297.831 775.56 297.705L768.153 292.431C767.976 292.305 767.935 292.06 768.061 291.883Z" fill="#2A3A51"/>
<path fill-rule="evenodd" clip-rule="evenodd" d="M784.738 295.837C784.884 295.998 784.872 296.247 784.711 296.393L776.053 304.264C775.892 304.411 775.643 304.399 775.497 304.238C775.351 304.077 775.363 303.828 775.523 303.682L784.182 295.811C784.342 295.665 784.591 295.676 784.738 295.837Z" fill="#2A3A51"/>
<path fill-rule="evenodd" clip-rule="evenodd" d="M775.788 281.164C776.005 281.164 776.182 281.34 776.182 281.557V329.036C776.182 329.253 776.005 329.429 775.788 329.429C775.571 329.429 775.395 329.253 775.395 329.036V281.557C775.395 281.34 775.571 281.164 775.788 281.164Z" fill="#2A3A51"/>
<path d="M387.906 329.035L739.558 329.035V220.413L387.906 220.413V329.035Z" fill="#F4F5F6"/>
<path fill-rule="evenodd" clip-rule="evenodd" d="M740.344 329.822L387.119 329.822V219.626L740.344 219.626V329.822ZM738.77 328.248V221.2L388.693 221.2V328.248L738.77 328.248Z" fill="#959DA8"/>
<path d="M586.007 242.854H619.735V316.127H586.007V242.854Z" fill="#D3DCE5"/>
<path d="M590.785 282.422H614.973V247.53H590.785V282.422Z" fill="white"/>
<path fill-rule="evenodd" clip-rule="evenodd" d="M615.366 282.816H590.391V247.136H615.366V282.816ZM614.579 282.029V247.923H591.178V282.029H614.579Z" fill="#959DA8"/>
<path d="M631.683 219.626H637.894V314.08H631.683V219.626Z" fill="#F4F5F6"/>
<path fill-rule="evenodd" clip-rule="evenodd" d="M630.896 218.839H638.681V314.867H630.896V218.839ZM632.47 220.413V313.293H637.106V220.413H632.47Z" fill="#959DA8"/>
<path d="M545.1 219.626H551.31V329.035H545.1V219.626Z" fill="#F4F5F6"/>
<path fill-rule="evenodd" clip-rule="evenodd" d="M544.313 218.839H552.098V329.822H544.313V218.839ZM545.888 220.413V328.248H550.524V220.413H545.888Z" fill="#959DA8"/>
<path d="M568.714 219.626H574.924V328.248H568.714V219.626Z" fill="#F4F5F6"/>
<path fill-rule="evenodd" clip-rule="evenodd" d="M567.927 218.839H575.711V329.035H567.927V218.839ZM569.501 220.413V327.461H574.137V220.413H569.501Z" fill="#959DA8"/>
<path d="M476.062 321.456H649.779V329.146H476.062V321.456Z" fill="#F4F5F6"/>
<path fill-rule="evenodd" clip-rule="evenodd" d="M475.275 320.668H650.566V329.932H475.275V320.668ZM476.85 322.242V328.358H648.992V322.242H476.85Z" fill="#959DA8"/>
<path d="M613.414 288.499C614.283 288.499 614.988 287.794 614.988 286.924C614.988 286.055 614.283 285.35 613.414 285.35C612.545 285.35 611.84 286.055 611.84 286.924C611.84 287.794 612.545 288.499 613.414 288.499Z" fill="white"/>
<path fill-rule="evenodd" clip-rule="evenodd" d="M613.414 285.744C612.762 285.744 612.233 286.272 612.233 286.924C612.233 287.576 612.762 288.105 613.414 288.105C614.066 288.105 614.595 287.576 614.595 286.924C614.595 286.272 614.066 285.744 613.414 285.744ZM611.446 286.924C611.446 285.838 612.327 284.957 613.414 284.957C614.501 284.957 615.382 285.838 615.382 286.924C615.382 288.011 614.501 288.892 613.414 288.892C612.327 288.892 611.446 288.011 611.446 286.924Z" fill="#959DA8"/>
<path d="M533.16 242.854H499.432V316.127H533.16V242.854Z" fill="#D3DCE5"/>
<path d="M528.382 247.529H504.194V282.422H528.382V247.529Z" fill="white"/>
<path fill-rule="evenodd" clip-rule="evenodd" d="M503.801 247.136H528.776V282.816H503.801V247.136ZM504.588 247.923V282.029H527.989V247.923H504.588Z" fill="#959DA8"/>
<path d="M505.752 288.499C506.622 288.499 507.327 287.794 507.327 286.924C507.327 286.055 506.622 285.35 505.752 285.35C504.883 285.35 504.178 286.055 504.178 286.924C504.178 287.794 504.883 288.499 505.752 288.499Z" fill="white"/>
<path fill-rule="evenodd" clip-rule="evenodd" d="M505.752 285.744C505.1 285.744 504.572 286.272 504.572 286.924C504.572 287.576 505.1 288.105 505.752 288.105C506.405 288.105 506.933 287.576 506.933 286.924C506.933 286.272 506.405 285.744 505.752 285.744ZM503.785 286.924C503.785 285.838 504.666 284.957 505.752 284.957C506.839 284.957 507.72 285.838 507.72 286.924C507.72 288.011 506.839 288.892 505.752 288.892C504.666 288.892 503.785 288.011 503.785 286.924Z" fill="#959DA8"/>
<path d="M476.062 313.781H649.779V321.471H476.062V313.781Z" fill="#F4F5F6"/>
<path fill-rule="evenodd" clip-rule="evenodd" d="M475.275 312.994H650.566V322.258H475.275V312.994ZM476.85 314.568V320.684H648.992V314.568H476.85Z" fill="#959DA8"/>
<path d="M387.906 95.2618H739.557L730.112 17.3374H387.906V95.2618Z" fill="#D3DCE5"/>
<path d="M650.22 16.2358L559.135 96.0493H739.164" fill="#F4F5F6"/>
<path d="M730.576 95.8682H569.698L578.301 88.1938H721.036L730.576 95.8682Z" fill="white"/>
<path fill-rule="evenodd" clip-rule="evenodd" d="M578.151 87.8003H721.175L731.694 96.2618H568.666L578.151 87.8003ZM578.451 88.5874L570.73 95.4747H729.459L720.898 88.5874H578.451Z" fill="#959DA8"/>
<path fill-rule="evenodd" clip-rule="evenodd" d="M649.74 15.6777L742.1 96.5373H729.679V94.963H737.912L649.739 17.7699L561.536 94.963H569.769V96.5373H557.347L649.74 15.6777Z" fill="#959DA8"/>
<path fill-rule="evenodd" clip-rule="evenodd" d="M649.724 25.8687L655.499 30.8779L655.736 31.0825L659.005 33.9195L659.01 33.9242L659.057 33.9635L666.008 39.9928L668.125 41.8346L670.549 43.9362L676.539 49.1312L677.2 49.7057L686.191 57.509L686.27 57.5718L692.927 63.3464L695.351 65.4479L696.524 66.4632L703.175 72.233L703.176 72.2339L704.419 73.3192L712.589 80.4032L712.59 80.404L713.33 81.0494L716.202 83.5358L721.42 88.0619L729.937 95.453L729.421 96.0474L720.905 88.6565L715.687 84.1308L712.814 81.6436L712.073 80.998L712.073 80.9972L707.815 77.3064L703.902 73.913L702.658 72.8267L696.009 67.0583L694.836 66.0429L692.411 63.9412L685.766 58.1767L685.687 58.1137L676.685 50.3005L676.024 49.7258L670.034 44.5309L667.609 42.4293L665.492 40.5874L658.547 34.5628L658.542 34.5581L658.494 34.5187L655.22 31.6774L654.984 31.4728L649.724 26.9107L647.723 28.6468L641.639 33.92L641.639 33.9206L640.907 34.5576L635.255 39.4616L631.839 42.4291L631.194 42.9881L624.306 48.9623L622.764 50.3004L618.6 53.9132L607.187 63.8151L604.613 66.0428L602.071 68.2464L595.545 73.9137L590.319 78.4476L587.375 80.9978L582.397 85.3198L582.389 85.3253L578.315 88.8611L570.027 96.0476L569.511 95.4529L577.799 88.2666L581.717 84.8659V84.8268L581.919 84.6925L586.859 80.4034L589.803 77.853L595.029 73.3194L601.554 67.6522L604.097 65.448L606.671 63.2207L618.084 53.3187L622.248 49.7058L630.678 42.3935L631.323 41.8348L634.739 38.8674L640.39 33.964L641.122 33.3265L641.123 33.3258L647.207 28.0523L649.724 25.8687Z" fill="#959DA8"/>
<path d="M738.172 208.52L711.457 186.567H602.442L567.415 208.213L738.172 208.52Z" fill="#D3DCE5"/>
<path d="M634.588 74.0732H663.546V48.4841H634.588V74.0732Z" fill="#F4F5F6"/>
<path fill-rule="evenodd" clip-rule="evenodd" d="M663.939 74.4668H634.194V48.0906H663.939V74.4668ZM663.152 73.6797V48.8777H634.981V73.6797H663.152Z" fill="#959DA8"/>
<path d="M639.641 53.3008H658.673V69.3894H639.609L639.641 53.3008Z" fill="white"/>
<path fill-rule="evenodd" clip-rule="evenodd" d="M639.248 52.9072H659.067V69.783H639.215L639.248 52.9072ZM640.034 53.6943L640.004 68.9959H658.28V53.6943H640.034Z" fill="#959DA8"/>
<path d="M560.237 220.327L524.077 198.375H422.932L387.906 220.02L560.237 220.327Z" fill="#D3DCE5"/>
<path d="M567.368 209.394V200.35L603.575 186.567L640.349 201.137L640.57 209.394H604.363H567.368Z" fill="#F4F5F6"/>
<path d="M644.899 302.667H678.745V242.846H644.899V302.667Z" fill="white"/>
<path fill-rule="evenodd" clip-rule="evenodd" d="M679.139 303.06H644.506V242.452H679.139V303.06ZM678.352 302.273V243.239H645.293V302.273H678.352Z" fill="#959DA8"/>
<path d="M678.745 302.667H712.591V242.846H678.745V302.667Z" fill="white"/>
<path fill-rule="evenodd" clip-rule="evenodd" d="M712.984 303.06H678.351V242.452H712.984V303.06ZM712.197 302.273V243.239H679.138V302.273H712.197Z" fill="#959DA8"/>
<path fill-rule="evenodd" clip-rule="evenodd" d="M645.292 261.737H712.591V262.524H645.292V261.737Z" fill="#959DA8"/>
<path fill-rule="evenodd" clip-rule="evenodd" d="M667.725 262.13V242.846H668.512V262.13H667.725Z" fill="#959DA8"/>
<path fill-rule="evenodd" clip-rule="evenodd" d="M656.705 262.13V242.846H657.492V262.13H656.705Z" fill="#959DA8"/>
<path fill-rule="evenodd" clip-rule="evenodd" d="M700.784 262.13V242.846H701.571V262.13H700.784Z" fill="#959DA8"/>
<path fill-rule="evenodd" clip-rule="evenodd" d="M689.764 262.13V242.846H690.551V262.13H689.764Z" fill="#959DA8"/>
<path d="M407.977 302.667H441.823V242.846H407.977V302.667Z" fill="white"/>
<path fill-rule="evenodd" clip-rule="evenodd" d="M442.217 303.06H407.584V242.452H442.217V303.06ZM441.43 302.273V243.239H408.371V302.273H441.43Z" fill="#959DA8"/>
<path d="M441.823 302.667H475.669V242.846H441.823V302.667Z" fill="white"/>
<path fill-rule="evenodd" clip-rule="evenodd" d="M476.062 303.06H441.429V242.452H476.062V303.06ZM475.275 302.273V243.239H442.217V302.273H475.275Z" fill="#959DA8"/>
<path fill-rule="evenodd" clip-rule="evenodd" d="M408.371 261.737H475.669V262.524H408.371V261.737Z" fill="#959DA8"/>
<path fill-rule="evenodd" clip-rule="evenodd" d="M430.804 262.13V242.846H431.591V262.13H430.804Z" fill="#959DA8"/>
<path fill-rule="evenodd" clip-rule="evenodd" d="M419.784 262.13V242.846H420.571V262.13H419.784Z" fill="#959DA8"/>
<path fill-rule="evenodd" clip-rule="evenodd" d="M463.862 262.13V242.846H464.649V262.13H463.862Z" fill="#959DA8"/>
<path fill-rule="evenodd" clip-rule="evenodd" d="M452.843 262.13V242.846H453.63V262.13H452.843Z" fill="#959DA8"/>
<path fill-rule="evenodd" clip-rule="evenodd" d="M559.104 314.867V96.8359H560.678V314.867H559.104Z" fill="#959DA8"/>
<path d="M469.97 1.28076L410.37 45.674H529.004" fill="#F4F5F6"/>
<path fill-rule="evenodd" clip-rule="evenodd" d="M469.49 0L531.433 46.162H516.371V44.5877H526.686L469.49 1.96312L412.264 44.5877H423.365V46.162H407.516L469.49 0Z" fill="#959DA8"/>
<path fill-rule="evenodd" clip-rule="evenodd" d="M506.366 38.2124H432.685V37.4253H506.366V38.2124Z" fill="#959DA8"/>
<path fill-rule="evenodd" clip-rule="evenodd" d="M469.37 11.7422L517.609 44.956L517.163 45.6043L469.374 12.7004L422.371 45.6025L421.919 44.9577L469.37 11.7422Z" fill="#959DA8"/>
<path d="M422.932 83.8491L516.599 83.8491V45.2805L422.932 45.2805V83.8491Z" fill="#F4F5F6"/>
<path fill-rule="evenodd" clip-rule="evenodd" d="M517.386 84.6357L422.145 84.6357V44.4929L517.386 44.4929V84.6357ZM515.812 83.0615V46.0671L423.719 46.0671V83.0615L515.812 83.0615Z" fill="#959DA8"/>
<path d="M477.951 77.2212H506.909V51.6321H477.951V77.2212Z" fill="#F4F5F6"/>
<path fill-rule="evenodd" clip-rule="evenodd" d="M507.303 77.6152H477.558V51.239H507.303V77.6152ZM506.516 76.8281V52.0261H478.345V76.8281H506.516Z" fill="#959DA8"/>
<path d="M483.005 56.4492H502.038V72.5378H482.974L483.005 56.4492Z" fill="white"/>
<path fill-rule="evenodd" clip-rule="evenodd" d="M482.613 56.0557H502.431V72.9314H482.58L482.613 56.0557ZM483.398 56.8428L483.368 72.1443H501.644V56.8428H483.398Z" fill="#959DA8"/>
<path d="M432.299 77.2212H461.257V51.6321H432.299V77.2212Z" fill="#F4F5F6"/>
<path fill-rule="evenodd" clip-rule="evenodd" d="M461.65 77.6152H431.905V51.239H461.65V77.6152ZM460.863 76.8281V52.0261H432.692V76.8281H460.863Z" fill="#959DA8"/>
<path d="M437.352 56.4492H456.385V72.5378H437.321L437.352 56.4492Z" fill="white"/>
<path fill-rule="evenodd" clip-rule="evenodd" d="M436.96 56.0557H456.779V72.9314H436.927L436.96 56.0557ZM437.745 56.8428L437.715 72.1443H455.991V56.8428H437.745Z" fill="#959DA8"/>
<path d="M407.977 46.0674L530.767 46.0674V38.1962L407.977 38.1962V46.0674Z" fill="#F4F5F6"/>
<path fill-rule="evenodd" clip-rule="evenodd" d="M531.235 46.5361L407.509 46.5361V37.7283L531.235 37.7283V46.5361ZM530.299 45.5995V38.665L408.445 38.665V45.5995L530.299 45.5995Z" fill="#959DA8"/>
<path d="M557.529 96.4424L741.714 96.4424V88.5712L557.529 88.5712V96.4424Z" fill="#F4F5F6"/>
<path fill-rule="evenodd" clip-rule="evenodd" d="M742.289 97.0171L556.955 97.0171V87.9968L742.289 87.9968V97.0171ZM741.139 95.8679V89.1459L558.104 89.1459V95.8679L741.139 95.8679Z" fill="#959DA8"/>
<path fill-rule="evenodd" clip-rule="evenodd" d="M603.581 186.51L641.136 201.389V209.394H639.562V202.459L603.569 188.199L568.155 201.68V209.394H566.581V200.594L603.581 186.51Z" fill="#959DA8"/>
<path fill-rule="evenodd" clip-rule="evenodd" d="M603.578 194.806L640.315 208.632L640.038 209.369L603.573 195.645L567.896 208.583L567.627 207.843L603.578 194.806Z" fill="#959DA8"/>
<path d="M387.906 220.413H36.2544V329.035H387.906V220.413Z" fill="#F4F5F6"/>
<path fill-rule="evenodd" clip-rule="evenodd" d="M35.6914 219.851H388.468V329.598H35.6914V219.851ZM36.817 220.976V328.472H387.343V220.976H36.817Z" fill="#959DA8"/>
<path d="M387.906 95.6558H36.2544V220.413H387.906V95.6558Z" fill="#F4F5F6"/>
<path fill-rule="evenodd" clip-rule="evenodd" d="M35.4673 94.8682H388.693V221.2H35.4673V94.8682ZM37.0415 96.4424V219.626H387.119V96.4424H37.0415Z" fill="#959DA8"/>
<path d="M387.906 95.2618H36.2544L45.6998 17.3374H394.203L387.906 95.2618Z" fill="#D3DCE5"/>
<path d="M189.805 242.854H156.077V316.127H189.805V242.854Z" fill="#D3DCE5"/>
<path d="M185.027 247.529H160.839V282.422H185.027V247.529Z" fill="white"/>
<path fill-rule="evenodd" clip-rule="evenodd" d="M160.445 247.136H185.42V282.816H160.445V247.136ZM161.232 247.923V282.029H184.633V247.923H161.232Z" fill="#959DA8"/>
<path d="M144.128 219.626H137.918V314.08H144.128V219.626Z" fill="#F4F5F6"/>
<path fill-rule="evenodd" clip-rule="evenodd" d="M137.131 218.839H144.915V314.867H137.131V218.839ZM138.705 220.413V313.293H143.341V220.413H138.705Z" fill="#959DA8"/>
<path d="M207.098 219.626H200.887V328.248H207.098V219.626Z" fill="#F4F5F6"/>
<path fill-rule="evenodd" clip-rule="evenodd" d="M200.1 218.839H207.885V329.035H200.1V218.839ZM201.674 220.413V327.461H206.31V220.413H201.674Z" fill="#959DA8"/>
<path d="M229.924 219.626H223.714V328.248H229.924V219.626Z" fill="#F4F5F6"/>
<path fill-rule="evenodd" clip-rule="evenodd" d="M222.926 218.839H230.711V329.035H222.926V218.839ZM224.5 220.413V327.461H229.137V220.413H224.5Z" fill="#959DA8"/>
<path d="M299.749 321.456H126.033V329.146H299.749V321.456Z" fill="#F4F5F6"/>
<path fill-rule="evenodd" clip-rule="evenodd" d="M125.246 320.668H300.536V329.932H125.246V320.668ZM126.82 322.242V328.358H298.962V322.242H126.82Z" fill="#959DA8"/>
<path d="M162.397 288.499C163.267 288.499 163.972 287.794 163.972 286.924C163.972 286.055 163.267 285.35 162.397 285.35C161.528 285.35 160.823 286.055 160.823 286.924C160.823 287.794 161.528 288.499 162.397 288.499Z" fill="white"/>
<path fill-rule="evenodd" clip-rule="evenodd" d="M162.397 285.744C161.745 285.744 161.217 286.272 161.217 286.924C161.217 287.576 161.745 288.105 162.397 288.105C163.05 288.105 163.578 287.576 163.578 286.924C163.578 286.272 163.05 285.744 162.397 285.744ZM160.43 286.924C160.43 285.838 161.311 284.957 162.397 284.957C163.484 284.957 164.365 285.838 164.365 286.924C164.365 288.011 163.484 288.892 162.397 288.892C161.311 288.892 160.43 288.011 160.43 286.924Z" fill="#959DA8"/>
<path d="M242.651 242.854H276.379V316.127H242.651V242.854Z" fill="#D3DCE5"/>
<path d="M247.43 282.422H271.618V247.53H247.43V282.422Z" fill="white"/>
<path fill-rule="evenodd" clip-rule="evenodd" d="M272.011 282.816H247.036V247.136H272.011V282.816ZM271.224 282.029V247.923H247.823V282.029H271.224Z" fill="#959DA8"/>
<path d="M270.059 288.499C270.929 288.499 271.633 287.794 271.633 286.924C271.633 286.055 270.929 285.35 270.059 285.35C269.19 285.35 268.485 286.055 268.485 286.924C268.485 287.794 269.19 288.499 270.059 288.499Z" fill="white"/>
<path fill-rule="evenodd" clip-rule="evenodd" d="M270.059 285.744C269.407 285.744 268.878 286.272 268.878 286.924C268.878 287.576 269.407 288.105 270.059 288.105C270.711 288.105 271.24 287.576 271.24 286.924C271.24 286.272 270.711 285.744 270.059 285.744ZM268.091 286.924C268.091 285.838 268.972 284.957 270.059 284.957C271.146 284.957 272.027 285.838 272.027 286.924C272.027 288.011 271.146 288.892 270.059 288.892C268.972 288.892 268.091 288.011 268.091 286.924Z" fill="#959DA8"/>
<path d="M299.749 313.781H126.033V321.471H299.749V313.781Z" fill="#F4F5F6"/>
<path fill-rule="evenodd" clip-rule="evenodd" d="M125.246 312.994H300.536V322.258H125.246V312.994ZM126.82 314.568V320.684H298.962V314.568H126.82Z" fill="#959DA8"/>
<path d="M125.592 16.2358L216.677 96.0493H36.6479" fill="#F4F5F6"/>
<path d="M45.2354 95.8682H206.114L197.511 88.1938H54.7752L45.2354 95.8682Z" fill="white"/>
<path fill-rule="evenodd" clip-rule="evenodd" d="M54.6369 87.8003H197.661L207.147 96.2618H44.1187L54.6369 87.8003ZM54.9142 88.5874L46.3528 95.4747H205.082L197.361 88.5874H54.9142Z" fill="#959DA8"/>
<path fill-rule="evenodd" clip-rule="evenodd" d="M126.072 15.6777L218.465 96.5373H206.043V94.963H214.275L126.072 17.7699L37.8999 94.963H46.1329V96.5373H33.7119L126.072 15.6777Z" fill="#959DA8"/>
<path fill-rule="evenodd" clip-rule="evenodd" d="M126.088 25.8687L128.604 28.0522L134.689 33.3265L135.421 33.9635L141.072 38.8673L144.488 41.8344L145.134 42.3933L153.564 49.7058L157.728 53.3186L162.639 57.5769L169.141 63.2203L171.714 65.4478L174.257 67.6519L180.782 73.3193L186.009 77.8529L188.952 80.4031L193.893 84.6925L194.094 84.8268V84.8659L198.012 88.2665L206.3 95.4529L205.785 96.0476L197.497 88.8612L193.423 85.3253L193.414 85.3197L188.437 80.998L185.493 78.4478L180.267 73.9138L173.741 68.2467L171.199 66.043L168.625 63.8155L157.212 53.9133L151.505 48.9623L144.618 42.9883L143.973 42.4295L140.557 39.4618L134.905 34.5581L134.173 33.9206L128.089 28.647L126.088 26.9106L120.828 31.4726L120.592 31.6772L117.311 34.524L117.27 34.5581L117.264 34.5633L110.32 40.587L108.203 42.4289L105.778 44.5309L99.7885 49.7255L99.1273 50.3002L94.7588 54.0862L90.1245 58.1136L90.0457 58.1766L83.4005 63.9411L80.976 66.0428L79.8033 67.0581L73.1533 72.8267L73.1523 72.8276L71.9096 73.913L71.9085 73.9139L67.9966 77.3063L63.7391 80.9972L63.7382 80.998L62.9993 81.6426L60.1254 84.1306L46.3904 96.0474L45.8745 95.453L59.6097 83.536L62.483 81.0485L63.2217 80.404L63.2226 80.4032L67.4809 76.7117L71.3918 73.3201L71.3928 73.3192L72.6355 72.2339L72.6365 72.233L79.2876 66.4635L80.4605 65.448L82.8847 63.3465L89.5417 57.5718L89.6203 57.509L94.2425 53.4921L98.611 49.7061L99.2722 49.1315L105.262 43.9362L107.686 41.835L109.804 39.9932L116.76 33.9583L116.801 33.9242L116.808 33.919L120.076 31.0827L120.312 30.878L126.088 25.8687Z" fill="#959DA8"/>
<path d="M141.231 48.4761H112.273V74.0652H141.231V48.4761Z" fill="#F4F5F6"/>
<path fill-rule="evenodd" clip-rule="evenodd" d="M111.88 48.0825H141.625V74.4587H111.88V48.0825ZM112.667 48.8696V73.6716H140.838V48.8696H112.667Z" fill="#959DA8"/>
<path d="M136.171 53.3008H117.139V69.3894H136.203L136.171 53.3008Z" fill="white"/>
<path fill-rule="evenodd" clip-rule="evenodd" d="M116.745 52.9072H136.563L136.596 69.783H116.745V52.9072ZM117.532 53.6943V68.9959H135.808L135.778 53.6943H117.532Z" fill="#959DA8"/>
<path d="M36.1123 208.52L62.8269 186.567H171.842L206.869 208.213L36.1123 208.52Z" fill="#D3DCE5"/>
<path d="M214.001 209.307L251.735 187.354H352.879L386.332 209L214.001 209.307Z" fill="#D3DCE5"/>
<path d="M208.443 209.394V200.35L172.236 186.567L135.462 201.137L135.242 209.394H171.449H208.443Z" fill="#F4F5F6"/>
<path d="M498.495 180.664H532.341V120.843H498.495V180.664Z" fill="white"/>
<path fill-rule="evenodd" clip-rule="evenodd" d="M532.735 181.057H498.102V120.449H532.735V181.057ZM531.948 180.27V121.236H498.889V180.27H531.948Z" fill="#959DA8"/>
<path fill-rule="evenodd" clip-rule="evenodd" d="M498.102 139.734H532.341V140.521H498.102V139.734Z" fill="#959DA8"/>
<path fill-rule="evenodd" clip-rule="evenodd" d="M520.535 140.128V120.843H521.322V140.128H520.535Z" fill="#959DA8"/>
<path fill-rule="evenodd" clip-rule="evenodd" d="M509.515 140.128V120.843H510.302V140.128H509.515Z" fill="#959DA8"/>
<path d="M407.977 180.664H441.823V120.843H407.977V180.664Z" fill="white"/>
<path fill-rule="evenodd" clip-rule="evenodd" d="M442.217 181.057H407.584V120.449H442.217V181.057ZM441.43 180.27V121.236H408.371V180.27H441.43Z" fill="#959DA8"/>
<path fill-rule="evenodd" clip-rule="evenodd" d="M408.371 139.734H441.823V140.521H408.371V139.734Z" fill="#959DA8"/>
<path fill-rule="evenodd" clip-rule="evenodd" d="M430.017 140.128V120.843H430.804V140.128H430.017Z" fill="#959DA8"/>
<path fill-rule="evenodd" clip-rule="evenodd" d="M418.997 140.128V120.843H419.784V140.128H418.997Z" fill="#959DA8"/>
<path d="M677.17 180.664H711.016V120.843H677.17V180.664Z" fill="white"/>
<path fill-rule="evenodd" clip-rule="evenodd" d="M711.41 181.057H676.777V120.449H711.41V181.057ZM710.623 180.27V121.236H677.564V180.27H710.623Z" fill="#959DA8"/>
<path fill-rule="evenodd" clip-rule="evenodd" d="M676.777 139.734H711.016V140.521H676.777V139.734Z" fill="#959DA8"/>
<path fill-rule="evenodd" clip-rule="evenodd" d="M699.209 140.128V120.843H699.997V140.128H699.209Z" fill="#959DA8"/>
<path fill-rule="evenodd" clip-rule="evenodd" d="M688.19 140.128V120.843H688.978V140.128H688.19Z" fill="#959DA8"/>
<path d="M586.652 180.664H620.498V120.843H586.652V180.664Z" fill="white"/>
<path fill-rule="evenodd" clip-rule="evenodd" d="M620.892 181.057H586.259V120.449H620.892V181.057ZM620.105 180.27V121.236H587.046V180.27H620.105Z" fill="#959DA8"/>
<path fill-rule="evenodd" clip-rule="evenodd" d="M587.046 139.734H620.498V140.521H587.046V139.734Z" fill="#959DA8"/>
<path fill-rule="evenodd" clip-rule="evenodd" d="M608.691 140.128V120.843H609.479V140.128H608.691Z" fill="#959DA8"/>
<path fill-rule="evenodd" clip-rule="evenodd" d="M597.672 140.128V120.843H598.459V140.128H597.672Z" fill="#959DA8"/>
<path d="M277.316 120.843H243.47V180.664H277.316V120.843Z" fill="white"/>
<path fill-rule="evenodd" clip-rule="evenodd" d="M243.077 120.45H277.71V181.058H243.077V120.45ZM243.864 121.237V180.27H276.923V121.237H243.864Z" fill="#959DA8"/>
<path fill-rule="evenodd" clip-rule="evenodd" d="M277.71 140.521H243.47V139.734H277.71V140.521Z" fill="#959DA8"/>
<path fill-rule="evenodd" clip-rule="evenodd" d="M254.49 140.128V120.843H255.277V140.128H254.49Z" fill="#959DA8"/>
<path fill-rule="evenodd" clip-rule="evenodd" d="M265.509 140.128V120.843H266.296V140.128H265.509Z" fill="#959DA8"/>
<path d="M367.834 120.843H333.988V180.664H367.834V120.843Z" fill="white"/>
<path fill-rule="evenodd" clip-rule="evenodd" d="M333.595 120.45H368.228V181.058H333.595V120.45ZM334.382 121.237V180.27H367.441V121.237H334.382Z" fill="#959DA8"/>
<path fill-rule="evenodd" clip-rule="evenodd" d="M367.441 140.521H333.988V139.734H367.441V140.521Z" fill="#959DA8"/>
<path fill-rule="evenodd" clip-rule="evenodd" d="M345.008 140.128V120.843H345.795V140.128H345.008Z" fill="#959DA8"/>
<path fill-rule="evenodd" clip-rule="evenodd" d="M356.028 140.128V120.843H356.815V140.128H356.028Z" fill="#959DA8"/>
<path d="M98.6409 120.843H64.7949V180.664H98.6409V120.843Z" fill="white"/>
<path fill-rule="evenodd" clip-rule="evenodd" d="M64.4014 120.45H99.0344V181.058H64.4014V120.45ZM65.1885 121.237V180.27H98.2473V121.237H65.1885Z" fill="#959DA8"/>
<path fill-rule="evenodd" clip-rule="evenodd" d="M99.0344 140.521H64.7949V139.734H99.0344V140.521Z" fill="#959DA8"/>
<path fill-rule="evenodd" clip-rule="evenodd" d="M75.8149 140.128V120.843H76.6021V140.128H75.8149Z" fill="#959DA8"/>
<path fill-rule="evenodd" clip-rule="evenodd" d="M86.8345 140.128V120.843H87.6216V140.128H86.8345Z" fill="#959DA8"/>
<path d="M189.159 120.843H155.313V180.664H189.159V120.843Z" fill="white"/>
<path fill-rule="evenodd" clip-rule="evenodd" d="M154.92 120.45H189.553V181.058H154.92V120.45ZM155.707 121.237V180.27H188.766V121.237H155.707Z" fill="#959DA8"/>
<path fill-rule="evenodd" clip-rule="evenodd" d="M188.766 140.521H155.313V139.734H188.766V140.521Z" fill="#959DA8"/>
<path fill-rule="evenodd" clip-rule="evenodd" d="M166.333 140.128V120.843H167.12V140.128H166.333Z" fill="#959DA8"/>
<path fill-rule="evenodd" clip-rule="evenodd" d="M177.353 140.128V120.843H178.14V140.128H177.353Z" fill="#959DA8"/>
<path d="M130.913 242.846H97.0669V302.666H130.913V242.846Z" fill="white"/>
<path fill-rule="evenodd" clip-rule="evenodd" d="M96.6733 242.453H131.306V303.06H96.6733V242.453ZM97.4605 243.24V302.273H130.519V243.24H97.4605Z" fill="#959DA8"/>
<path d="M97.0666 242.846H63.2207V302.666H97.0666V242.846Z" fill="white"/>
<path fill-rule="evenodd" clip-rule="evenodd" d="M62.8271 242.453H97.4602V303.06H62.8271V242.453ZM63.6143 243.24V302.273H96.6731V243.24H63.6143Z" fill="#959DA8"/>
<path fill-rule="evenodd" clip-rule="evenodd" d="M130.519 262.524H63.2207V261.737H130.519V262.524Z" fill="#959DA8"/>
<path fill-rule="evenodd" clip-rule="evenodd" d="M107.299 262.13V242.846H108.086V262.13H107.299Z" fill="#959DA8"/>
<path fill-rule="evenodd" clip-rule="evenodd" d="M118.319 262.13V242.846H119.106V262.13H118.319Z" fill="#959DA8"/>
<path fill-rule="evenodd" clip-rule="evenodd" d="M74.2407 262.13V242.846H75.0278V262.13H74.2407Z" fill="#959DA8"/>
<path fill-rule="evenodd" clip-rule="evenodd" d="M85.2603 262.13V242.846H86.0474V262.13H85.2603Z" fill="#959DA8"/>
<path d="M367.834 242.846H333.988V302.666H367.834V242.846Z" fill="white"/>
<path fill-rule="evenodd" clip-rule="evenodd" d="M333.595 242.453H368.228V303.06H333.595V242.453ZM334.382 243.24V302.273H367.441V243.24H334.382Z" fill="#959DA8"/>
<path d="M333.989 242.846H300.143V302.666H333.989V242.846Z" fill="white"/>
<path fill-rule="evenodd" clip-rule="evenodd" d="M299.749 242.453H334.382V303.06H299.749V242.453ZM300.536 243.24V302.273H333.595V243.24H300.536Z" fill="#959DA8"/>
<path fill-rule="evenodd" clip-rule="evenodd" d="M367.441 262.524H300.143V261.737H367.441V262.524Z" fill="#959DA8"/>
<path fill-rule="evenodd" clip-rule="evenodd" d="M344.221 262.13V242.846H345.008V262.13H344.221Z" fill="#959DA8"/>
<path fill-rule="evenodd" clip-rule="evenodd" d="M355.24 262.13V242.846H356.027V262.13H355.24Z" fill="#959DA8"/>
<path fill-rule="evenodd" clip-rule="evenodd" d="M311.162 262.13V242.846H311.949V262.13H311.162Z" fill="#959DA8"/>
<path fill-rule="evenodd" clip-rule="evenodd" d="M322.182 262.13V242.846H322.969V262.13H322.182Z" fill="#959DA8"/>
<path fill-rule="evenodd" clip-rule="evenodd" d="M215.134 314.867V96.8359H216.709V314.867H215.134Z" fill="#959DA8"/>
<path d="M305.841 1.28076L365.442 45.674H246.808" fill="#F4F5F6"/>
<path fill-rule="evenodd" clip-rule="evenodd" d="M306.321 0L368.296 46.162H352.446V44.5877H363.547L306.321 1.96312L249.126 44.5877H259.441V46.162H244.379L306.321 0Z" fill="#959DA8"/>
<path fill-rule="evenodd" clip-rule="evenodd" d="M269.445 37.4253H343.127V38.2124H269.445V37.4253Z" fill="#959DA8"/>
<path fill-rule="evenodd" clip-rule="evenodd" d="M306.442 11.7422L353.892 44.9577L353.441 45.6025L306.438 12.7004L258.649 45.6043L258.203 44.956L306.442 11.7422Z" fill="#959DA8"/>
<path d="M352.879 45.2798H259.212V83.8484H352.879V45.2798Z" fill="#F4F5F6"/>
<path fill-rule="evenodd" clip-rule="evenodd" d="M258.425 44.4932H353.666V84.636H258.425V44.4932ZM260 46.0674V83.0618H352.092V46.0674H260Z" fill="#959DA8"/>
<path d="M297.867 51.6245H268.909V77.2136H297.867V51.6245Z" fill="#F4F5F6"/>
<path fill-rule="evenodd" clip-rule="evenodd" d="M268.516 51.231H298.261V77.6072H268.516V51.231ZM269.303 52.0181V76.8201H297.474V52.0181H269.303Z" fill="#959DA8"/>
<path d="M292.807 56.4492H273.774V72.5378H292.838L292.807 56.4492Z" fill="white"/>
<path fill-rule="evenodd" clip-rule="evenodd" d="M273.381 56.0557H293.2L293.233 72.9314H273.381V56.0557ZM274.168 56.8428V72.1443H292.444L292.414 56.8428H274.168Z" fill="#959DA8"/>
<path d="M343.52 51.6245H314.562V77.2136H343.52V51.6245Z" fill="#F4F5F6"/>
<path fill-rule="evenodd" clip-rule="evenodd" d="M314.169 51.231H343.914V77.6072H314.169V51.231ZM314.956 52.0181V76.8201H343.127V52.0181H314.956Z" fill="#959DA8"/>
<path d="M338.459 56.4492H319.427V72.5378H338.491L338.459 56.4492Z" fill="white"/>
<path fill-rule="evenodd" clip-rule="evenodd" d="M319.033 56.0557H338.852L338.885 72.9314H319.033V56.0557ZM319.82 56.8428V72.1443H338.096L338.066 56.8428H319.82Z" fill="#959DA8"/>
<path d="M319.474 209.307L346.189 187.354H521.322L556.348 209L319.474 209.307Z" fill="#D3DCE5"/>
<path d="M739.746 208.606H35.2783V220.413H739.746V208.606Z" fill="#F4F5F6"/>
<path fill-rule="evenodd" clip-rule="evenodd" d="M34.4912 207.819H740.533V221.2H34.4912V207.819ZM36.0654 209.394V219.626H738.959V209.394H36.0654Z" fill="#959DA8"/>
<path d="M17.1748 298.936C17.5294 298.938 17.8831 298.901 18.2295 298.826C34.3496 295.158 34.3575 275.629 34.3575 275.629C34.3575 249.017 17.1827 235.675 17.1827 235.675C17.1827 235.675 0 248.985 0 275.629C0 275.629 -1.5013e-05 295.181 16.1201 298.826C16.4665 298.901 16.8202 298.938 17.1748 298.936Z" fill="#80C33F"/>
<path fill-rule="evenodd" clip-rule="evenodd" d="M17.1743 261.54C17.3917 261.54 17.5679 261.716 17.5679 261.934V328.358C17.5679 328.576 17.3917 328.752 17.1743 328.752C16.957 328.752 16.7808 328.576 16.7808 328.358V261.934C16.7808 261.716 16.957 261.54 17.1743 261.54Z" fill="#2A3A51"/>
<path d="M392.629 304.635C392.923 304.636 393.216 304.604 393.503 304.54C406.805 301.51 406.805 285.406 406.805 285.406C406.805 263.453 392.637 252.449 392.637 252.449C392.637 252.449 378.469 263.469 378.469 285.406C378.469 285.406 378.469 301.534 391.763 304.54C392.05 304.604 392.343 304.636 392.637 304.635H392.629Z" fill="#80C33F"/>
<path fill-rule="evenodd" clip-rule="evenodd" d="M392.628 273.709C392.846 273.709 393.022 273.885 393.022 274.103V328.894C393.022 329.111 392.846 329.287 392.628 329.287C392.411 329.287 392.235 329.111 392.235 328.894V274.103C392.235 273.885 392.411 273.709 392.628 273.709Z" fill="#2A3A51"/>
<path d="M218.283 88.5718H34.0977V96.4429H218.283V88.5718Z" fill="#F4F5F6"/>
<path fill-rule="evenodd" clip-rule="evenodd" d="M33.5234 87.9971H218.857V97.0174H33.5234V87.9971ZM34.6726 89.1463V95.8682H217.708V89.1463H34.6726Z" fill="#959DA8"/>
<path d="M367.834 38.1958H245.044V46.0669H367.834V38.1958Z" fill="#F4F5F6"/>
<path fill-rule="evenodd" clip-rule="evenodd" d="M244.576 37.7285H368.303V46.5363H244.576V37.7285ZM245.513 38.6652V45.5997H367.366V38.6652H245.513Z" fill="#959DA8"/>
<path fill-rule="evenodd" clip-rule="evenodd" d="M172.231 186.51L209.231 200.594V209.394H207.657V201.68L172.242 188.199L136.25 202.459V209.394H134.675V201.389L172.231 186.51Z" fill="#959DA8"/>
<path fill-rule="evenodd" clip-rule="evenodd" d="M172.237 194.805L208.584 208.64L208.304 209.376L172.236 195.646L135.774 209.368L135.497 208.632L172.237 194.805Z" fill="#959DA8"/>
<path d="M280.858 326.123C280.851 324.371 281.266 322.643 282.068 321.086C282.87 319.528 284.035 318.186 285.465 317.174C286.895 316.162 288.547 315.509 290.283 315.271C292.018 315.032 293.786 315.215 295.436 315.804C296.074 313.236 297.365 310.878 299.185 308.957C301.004 307.037 303.29 305.62 305.82 304.845C308.349 304.07 311.036 303.963 313.62 304.534C316.203 305.106 318.594 306.336 320.561 308.106C321.95 304.222 324.665 300.952 328.228 298.873C331.791 296.794 335.974 296.039 340.039 296.74C344.104 297.442 347.791 299.555 350.451 302.709C353.111 305.862 354.573 309.853 354.58 313.978C354.582 314.588 354.55 315.198 354.485 315.804C355.671 315.371 356.923 315.15 358.185 315.151C364.245 315.151 369.519 320.07 369.133 326.1C369.078 327.094 368.912 328.078 368.638 329.036H281.268C281.004 328.079 280.872 327.092 280.874 326.1L280.858 326.123Z" fill="#80C33F"/>
</svg>
