<svg width="1300" height="499" viewBox="0 0 1300 499" fill="none" xmlns="http://www.w3.org/2000/svg">
<mask id="mask0" mask-type="alpha" maskUnits="userSpaceOnUse" x="0" y="0" width="1300" height="499">
<rect width="1300" height="499" rx="16" fill="#2A3A51"/>
</mask>
<g mask="url(#mask0)">
<path d="M456.818 335.78L903.578 335.78V177.28L456.818 177.28V335.78Z" fill="#F4F5F6"/>
<path fill-rule="evenodd" clip-rule="evenodd" d="M904.578 336.78L455.818 336.78V176.28L904.578 176.28V336.78ZM902.578 334.78V178.28L457.818 178.28V334.78L902.578 334.78Z" fill="#959DA8"/>
<path d="M969.571 414.511C970.197 411.365 970.166 408.124 969.481 404.991C968.808 401.889 967.486 398.965 965.601 396.411C963.768 393.919 961.4 391.869 958.671 390.411C956.006 388.986 953.042 388.209 950.02 388.145C946.999 388.081 944.004 388.73 941.281 390.041C938.505 391.379 936.065 393.323 934.141 395.731C932.165 398.202 930.736 401.066 929.951 404.131C929.15 407.237 929.001 410.475 929.511 413.641C927.252 414.823 925.279 416.485 923.731 418.511C922.142 420.587 921.002 422.971 920.381 425.511C919.747 428.079 919.638 430.749 920.061 433.361C920.479 435.953 921.425 438.431 922.841 440.641C924.219 442.8 926.047 444.635 928.201 446.021C930.314 447.376 932.708 448.231 935.201 448.521C937.67 448.806 940.171 448.519 942.511 447.681C944.888 446.832 947.046 445.466 948.831 443.681C950.558 445.441 952.646 446.805 954.951 447.681C957.213 448.54 959.639 448.882 962.051 448.681C964.47 448.46 966.809 447.705 968.901 446.471C971.04 445.205 972.887 443.501 974.321 441.471C975.791 439.392 976.828 437.039 977.371 434.551C977.924 432.039 977.978 429.444 977.531 426.911C977.092 424.397 976.153 421.996 974.771 419.851C973.435 417.723 971.663 415.903 969.571 414.511Z" fill="#80C33F"/>
<path fill-rule="evenodd" clip-rule="evenodd" d="M939.792 426.579C939.952 426.354 940.264 426.302 940.489 426.462L949.899 433.162C950.124 433.322 950.177 433.634 950.017 433.859C949.857 434.084 949.544 434.137 949.319 433.976L939.909 427.276C939.684 427.116 939.632 426.804 939.792 426.579Z" fill="#2A3A51"/>
<path fill-rule="evenodd" clip-rule="evenodd" d="M960.979 431.603C961.165 431.807 961.15 432.124 960.946 432.309L949.946 442.309C949.741 442.495 949.425 442.48 949.239 442.276C949.054 442.071 949.069 441.755 949.273 441.569L960.273 431.569C960.477 431.384 960.794 431.399 960.979 431.603Z" fill="#2A3A51"/>
<path fill-rule="evenodd" clip-rule="evenodd" d="M949.609 412.961C949.886 412.961 950.109 413.185 950.109 413.461V473.781C950.109 474.057 949.886 474.281 949.609 474.281C949.333 474.281 949.109 474.057 949.109 473.781V413.461C949.109 413.185 949.333 412.961 949.609 412.961Z" fill="#2A3A51"/>
<path d="M456.818 473.78L903.578 473.78V335.78L456.818 335.78V473.78Z" fill="#F4F5F6"/>
<path fill-rule="evenodd" clip-rule="evenodd" d="M904.578 474.78L455.818 474.78V334.78L904.578 334.78V474.78ZM902.578 472.78V336.78L457.818 336.78V472.78L902.578 472.78Z" fill="#959DA8"/>
<path d="M708.5 364.29H751.35V457.38H708.5V364.29Z" fill="#D3DCE5"/>
<path d="M714.571 414.56H745.301V370.23H714.571V414.56Z" fill="white"/>
<path fill-rule="evenodd" clip-rule="evenodd" d="M745.801 415.06H714.071V369.73H745.801V415.06ZM744.801 414.06V370.73H715.071V414.06H744.801Z" fill="#959DA8"/>
<path d="M766.531 334.78H774.421V454.78H766.531V334.78Z" fill="#F4F5F6"/>
<path fill-rule="evenodd" clip-rule="evenodd" d="M765.531 333.78H775.421V455.78H765.531V333.78ZM767.531 335.78V453.78H773.421V335.78H767.531Z" fill="#959DA8"/>
<path d="M656.531 334.78H664.421V473.78H656.531V334.78Z" fill="#F4F5F6"/>
<path fill-rule="evenodd" clip-rule="evenodd" d="M655.531 333.78H665.421V474.78H655.531V333.78ZM657.531 335.78V472.78H663.421V335.78H657.531Z" fill="#959DA8"/>
<path d="M686.531 334.78H694.421V472.78H686.531V334.78Z" fill="#F4F5F6"/>
<path fill-rule="evenodd" clip-rule="evenodd" d="M685.531 333.78H695.421V473.78H685.531V333.78ZM687.531 335.78V471.78H693.421V335.78H687.531Z" fill="#959DA8"/>
<path d="M568.82 464.15H789.52V473.92H568.82V464.15Z" fill="#F4F5F6"/>
<path fill-rule="evenodd" clip-rule="evenodd" d="M567.82 463.15H790.52V474.92H567.82V463.15ZM569.82 465.15V472.92H788.52V465.15H569.82Z" fill="#959DA8"/>
<path d="M743.32 422.28C744.425 422.28 745.32 421.385 745.32 420.28C745.32 419.175 744.425 418.28 743.32 418.28C742.216 418.28 741.32 419.175 741.32 420.28C741.32 421.385 742.216 422.28 743.32 422.28Z" fill="white"/>
<path fill-rule="evenodd" clip-rule="evenodd" d="M743.32 418.78C742.492 418.78 741.82 419.452 741.82 420.28C741.82 421.108 742.492 421.78 743.32 421.78C744.149 421.78 744.82 421.108 744.82 420.28C744.82 419.452 744.149 418.78 743.32 418.78ZM740.82 420.28C740.82 418.899 741.94 417.78 743.32 417.78C744.701 417.78 745.82 418.899 745.82 420.28C745.82 421.661 744.701 422.78 743.32 422.78C741.94 422.78 740.82 421.661 740.82 420.28Z" fill="#959DA8"/>
<path d="M641.362 364.29H598.512V457.38H641.362V364.29Z" fill="#D3DCE5"/>
<path d="M635.289 370.23H604.559V414.56H635.289V370.23Z" fill="white"/>
<path fill-rule="evenodd" clip-rule="evenodd" d="M604.059 369.73H635.789V415.06H604.059V369.73ZM605.059 370.73V414.06H634.789V370.73H605.059Z" fill="#959DA8"/>
<path d="M606.539 422.28C607.644 422.28 608.539 421.385 608.539 420.28C608.539 419.175 607.644 418.28 606.539 418.28C605.434 418.28 604.539 419.175 604.539 420.28C604.539 421.385 605.434 422.28 606.539 422.28Z" fill="white"/>
<path fill-rule="evenodd" clip-rule="evenodd" d="M606.539 418.78C605.711 418.78 605.039 419.452 605.039 420.28C605.039 421.108 605.711 421.78 606.539 421.78C607.367 421.78 608.039 421.108 608.039 420.28C608.039 419.452 607.367 418.78 606.539 418.78ZM604.039 420.28C604.039 418.899 605.158 417.78 606.539 417.78C607.92 417.78 609.039 418.899 609.039 420.28C609.039 421.661 607.92 422.78 606.539 422.78C605.158 422.78 604.039 421.661 604.039 420.28Z" fill="#959DA8"/>
<path d="M568.82 454.4H789.52V464.17H568.82V454.4Z" fill="#F4F5F6"/>
<path fill-rule="evenodd" clip-rule="evenodd" d="M567.82 453.4H790.52V465.17H567.82V453.4ZM569.82 455.4V463.17H788.52V455.4H569.82Z" fill="#959DA8"/>
<path d="M456.82 176.78H903.58L891.58 77.7799H456.82V176.78Z" fill="#D3DCE5"/>
<path d="M790.079 76.38L674.359 177.78H903.079" fill="#F4F5F6"/>
<path d="M892.171 177.55H687.781L698.711 167.8H880.051L892.171 177.55Z" fill="white"/>
<path fill-rule="evenodd" clip-rule="evenodd" d="M698.52 167.3H880.227L893.59 178.05H686.469L698.52 167.3ZM698.901 168.3L689.092 177.05H890.751L879.874 168.3H698.901Z" fill="#959DA8"/>
<path fill-rule="evenodd" clip-rule="evenodd" d="M789.471 75.671L906.811 178.4H891.031V176.4H901.491L789.471 78.329L677.412 176.4H687.871V178.4H672.09L789.471 75.671Z" fill="#959DA8"/>
<path fill-rule="evenodd" clip-rule="evenodd" d="M789.45 88.618L796.788 94.9821L797.088 95.2421L801.241 98.8463L801.248 98.8523L801.308 98.9022L810.138 106.562L812.828 108.902L815.908 111.572L823.518 118.172L824.358 118.902L835.781 128.816L835.88 128.896L844.338 136.232L847.418 138.902L848.908 140.192L857.358 147.522L857.359 147.523L858.938 148.902L869.318 157.902L869.319 157.903L870.259 158.723L873.908 161.882L880.538 167.632L891.358 177.022L890.703 177.778L879.883 168.388L873.253 162.638L869.603 159.478L868.663 158.658L868.662 158.657L863.253 153.968L858.282 149.657L856.702 148.277L848.253 140.948L846.763 139.658L843.683 136.988L835.24 129.664L835.14 129.584L823.703 119.658L822.863 118.928L815.253 112.328L812.173 109.658L809.483 107.318L800.66 99.6636L800.653 99.6577L800.593 99.6077L796.433 95.9978L796.133 95.7378L789.45 89.9419L786.908 92.1476L779.179 98.847L779.178 98.8478L778.249 99.657L771.068 105.887L766.728 109.657L765.908 110.368L757.158 117.958L755.198 119.658L749.908 124.248L735.408 136.828L732.138 139.658L728.908 142.457L720.618 149.657L713.978 155.418L710.238 158.658L703.914 164.148L703.904 164.156L698.728 168.648L688.198 177.778L687.543 177.022L698.073 167.892L703.05 163.572V163.522L703.307 163.352L709.583 157.902L713.323 154.662L719.963 148.902L728.253 141.702L731.483 138.902L734.753 136.072L749.253 123.492L754.543 118.902L765.253 109.612L766.073 108.903L770.412 105.132L777.592 98.9029L778.522 98.0929L778.523 98.0921L786.253 91.3923L789.45 88.618Z" fill="#959DA8"/>
<path d="M901.819 320.67L867.879 292.78H729.379L684.879 320.28L901.819 320.67Z" fill="#D3DCE5"/>
<path d="M770.222 149.86H807.012V117.35H770.222V149.86Z" fill="#F4F5F6"/>
<path fill-rule="evenodd" clip-rule="evenodd" d="M807.512 150.36H769.722V116.85H807.512V150.36ZM806.512 149.36V117.85H770.722V149.36H806.512Z" fill="#959DA8"/>
<path d="M776.642 123.47H800.822V143.91H776.602L776.642 123.47Z" fill="white"/>
<path fill-rule="evenodd" clip-rule="evenodd" d="M776.14 122.97H801.319V144.41H776.098L776.14 122.97ZM777.138 123.97L777.1 143.41H800.319V123.97H777.138Z" fill="#959DA8"/>
<path d="M675.76 335.67L629.82 307.78H501.32L456.82 335.28L675.76 335.67Z" fill="#D3DCE5"/>
<path d="M684.82 321.78V310.29L730.82 292.78L777.54 311.29L777.82 321.78H731.82H684.82Z" fill="#F4F5F6"/>
<path d="M783.32 440.28H826.32V364.28H783.32V440.28Z" fill="white"/>
<path fill-rule="evenodd" clip-rule="evenodd" d="M826.82 440.78H782.82V363.78H826.82V440.78ZM825.82 439.78V364.78H783.82V439.78H825.82Z" fill="#959DA8"/>
<path d="M826.32 440.28H869.32V364.28H826.32V440.28Z" fill="white"/>
<path fill-rule="evenodd" clip-rule="evenodd" d="M869.82 440.78H825.82V363.78H869.82V440.78ZM868.82 439.78V364.78H826.82V439.78H868.82Z" fill="#959DA8"/>
<path fill-rule="evenodd" clip-rule="evenodd" d="M783.82 388.28H869.32V389.28H783.82V388.28Z" fill="#959DA8"/>
<path fill-rule="evenodd" clip-rule="evenodd" d="M812.32 388.78V364.28H813.32V388.78H812.32Z" fill="#959DA8"/>
<path fill-rule="evenodd" clip-rule="evenodd" d="M798.32 388.78V364.28H799.32V388.78H798.32Z" fill="#959DA8"/>
<path fill-rule="evenodd" clip-rule="evenodd" d="M854.32 388.78V364.28H855.32V388.78H854.32Z" fill="#959DA8"/>
<path fill-rule="evenodd" clip-rule="evenodd" d="M840.32 388.78V364.28H841.32V388.78H840.32Z" fill="#959DA8"/>
<path d="M482.32 440.28H525.32V364.28H482.32V440.28Z" fill="white"/>
<path fill-rule="evenodd" clip-rule="evenodd" d="M525.82 440.78H481.82V363.78H525.82V440.78ZM524.82 439.78V364.78H482.82V439.78H524.82Z" fill="#959DA8"/>
<path d="M525.32 440.28H568.32V364.28H525.32V440.28Z" fill="white"/>
<path fill-rule="evenodd" clip-rule="evenodd" d="M568.82 440.78H524.82V363.78H568.82V440.78ZM567.82 439.78V364.78H525.82V439.78H567.82Z" fill="#959DA8"/>
<path fill-rule="evenodd" clip-rule="evenodd" d="M482.82 388.28H568.32V389.28H482.82V388.28Z" fill="#959DA8"/>
<path fill-rule="evenodd" clip-rule="evenodd" d="M511.32 388.78V364.28H512.32V388.78H511.32Z" fill="#959DA8"/>
<path fill-rule="evenodd" clip-rule="evenodd" d="M497.32 388.78V364.28H498.32V388.78H497.32Z" fill="#959DA8"/>
<path fill-rule="evenodd" clip-rule="evenodd" d="M553.32 388.78V364.28H554.32V388.78H553.32Z" fill="#959DA8"/>
<path fill-rule="evenodd" clip-rule="evenodd" d="M539.32 388.78V364.28H540.32V388.78H539.32Z" fill="#959DA8"/>
<path fill-rule="evenodd" clip-rule="evenodd" d="M674.32 455.78V178.78H676.32V455.78H674.32Z" fill="#959DA8"/>
<path d="M561.079 57.38L485.359 113.78H636.079" fill="#F4F5F6"/>
<path fill-rule="evenodd" clip-rule="evenodd" d="M560.471 55.7529L639.166 114.4H620.031V112.4H633.136L560.471 58.247L487.768 112.4H501.871V114.4H481.734L560.471 55.7529Z" fill="#959DA8"/>
<path fill-rule="evenodd" clip-rule="evenodd" d="M607.321 104.3H513.711V103.3H607.321V104.3Z" fill="#959DA8"/>
<path fill-rule="evenodd" clip-rule="evenodd" d="M560.316 70.6713L621.602 112.868L621.034 113.692L560.32 71.8886L500.605 113.69L500.031 112.87L560.316 70.6713Z" fill="#959DA8"/>
<path d="M501.32 162.28L620.32 162.28V113.28L501.32 113.28V162.28Z" fill="#F4F5F6"/>
<path fill-rule="evenodd" clip-rule="evenodd" d="M621.32 163.28L500.32 163.28V112.28L621.32 112.28V163.28ZM619.32 161.28V114.28L502.32 114.28V161.28L619.32 161.28Z" fill="#959DA8"/>
<path d="M571.222 153.86H608.012V121.35H571.222V153.86Z" fill="#F4F5F6"/>
<path fill-rule="evenodd" clip-rule="evenodd" d="M608.512 154.36H570.722V120.85H608.512V154.36ZM607.512 153.36V121.85H571.722V153.36H607.512Z" fill="#959DA8"/>
<path d="M577.641 127.47H601.822V147.91H577.602L577.641 127.47Z" fill="white"/>
<path fill-rule="evenodd" clip-rule="evenodd" d="M577.14 126.97H602.319V148.41H577.098L577.14 126.97ZM578.138 127.97L578.1 147.41H601.319V127.97H578.138Z" fill="#959DA8"/>
<path d="M513.222 153.86H550.012V121.35H513.222V153.86Z" fill="#F4F5F6"/>
<path fill-rule="evenodd" clip-rule="evenodd" d="M550.512 154.36H512.722V120.85H550.512V154.36ZM549.512 153.36V121.85H513.722V153.36H549.512Z" fill="#959DA8"/>
<path d="M519.641 127.47H543.822V147.91H519.602L519.641 127.47Z" fill="white"/>
<path fill-rule="evenodd" clip-rule="evenodd" d="M519.14 126.97H544.319V148.41H519.098L519.14 126.97ZM520.138 127.97L520.1 147.41H543.319V127.97H520.138Z" fill="#959DA8"/>
<path d="M482.32 114.28L638.32 114.28V104.28L482.32 104.28V114.28Z" fill="#F4F5F6"/>
<path fill-rule="evenodd" clip-rule="evenodd" d="M638.914 114.875L481.724 114.875V103.685L638.914 103.685V114.875ZM637.724 113.685V104.875L482.914 104.875V113.685L637.724 113.685Z" fill="#959DA8"/>
<path d="M672.32 178.28L906.32 178.28V168.28L672.32 168.28V178.28Z" fill="#F4F5F6"/>
<path fill-rule="evenodd" clip-rule="evenodd" d="M907.051 179.01L671.591 179.01V167.55L907.051 167.55V179.01ZM905.591 177.55V169.01L673.051 169.01V177.55L905.591 177.55Z" fill="#959DA8"/>
<path fill-rule="evenodd" clip-rule="evenodd" d="M730.828 292.707L778.54 311.611V321.78H776.54V312.969L730.813 294.853L685.82 311.979V321.78H683.82V310.601L730.828 292.707Z" fill="#959DA8"/>
<path fill-rule="evenodd" clip-rule="evenodd" d="M730.822 303.247L777.495 320.812L777.143 321.748L730.816 304.313L685.489 320.75L685.148 319.81L730.822 303.247Z" fill="#959DA8"/>
<path d="M456.819 335.78H10.0586V473.78H456.819V335.78Z" fill="#F4F5F6"/>
<path fill-rule="evenodd" clip-rule="evenodd" d="M9.34375 335.065H457.534V474.495H9.34375V335.065ZM10.7737 336.495V473.065H456.104V336.495H10.7737Z" fill="#959DA8"/>
<path d="M456.819 177.28H10.0586V335.78H456.819V177.28Z" fill="#F4F5F6"/>
<path fill-rule="evenodd" clip-rule="evenodd" d="M9.05859 176.28H457.819V336.78H9.05859V176.28ZM11.0586 178.28V334.78H455.819V178.28H11.0586Z" fill="#959DA8"/>
<path d="M456.819 176.78H10.0586L22.0586 77.7799H464.819L456.819 176.78Z" fill="#D3DCE5"/>
<path d="M205.139 364.29H162.289V457.38H205.139V364.29Z" fill="#D3DCE5"/>
<path d="M199.07 370.23H168.34V414.56H199.07V370.23Z" fill="white"/>
<path fill-rule="evenodd" clip-rule="evenodd" d="M167.84 369.73H199.57V415.06H167.84V369.73ZM168.84 370.73V414.06H198.57V370.73H168.84Z" fill="#959DA8"/>
<path d="M147.109 334.78H139.219V454.78H147.109V334.78Z" fill="#F4F5F6"/>
<path fill-rule="evenodd" clip-rule="evenodd" d="M138.219 333.78H148.109V455.78H138.219V333.78ZM140.219 335.78V453.78H146.109V335.78H140.219Z" fill="#959DA8"/>
<path d="M227.109 334.78H219.219V472.78H227.109V334.78Z" fill="#F4F5F6"/>
<path fill-rule="evenodd" clip-rule="evenodd" d="M218.219 333.78H228.109V473.78H218.219V333.78ZM220.219 335.78V471.78H226.109V335.78H220.219Z" fill="#959DA8"/>
<path d="M256.109 334.78H248.219V472.78H256.109V334.78Z" fill="#F4F5F6"/>
<path fill-rule="evenodd" clip-rule="evenodd" d="M247.219 333.78H257.109V473.78H247.219V333.78ZM249.219 335.78V471.78H255.109V335.78H249.219Z" fill="#959DA8"/>
<path d="M344.821 464.15H124.121V473.92H344.821V464.15Z" fill="#F4F5F6"/>
<path fill-rule="evenodd" clip-rule="evenodd" d="M123.121 463.15H345.821V474.92H123.121V463.15ZM125.121 465.15V472.92H343.821V465.15H125.121Z" fill="#959DA8"/>
<path d="M170.32 422.28C171.425 422.28 172.32 421.385 172.32 420.28C172.32 419.175 171.425 418.28 170.32 418.28C169.216 418.28 168.32 419.175 168.32 420.28C168.32 421.385 169.216 422.28 170.32 422.28Z" fill="white"/>
<path fill-rule="evenodd" clip-rule="evenodd" d="M170.32 418.78C169.492 418.78 168.82 419.452 168.82 420.28C168.82 421.108 169.492 421.78 170.32 421.78C171.149 421.78 171.82 421.108 171.82 420.28C171.82 419.452 171.149 418.78 170.32 418.78ZM167.82 420.28C167.82 418.899 168.94 417.78 170.32 417.78C171.701 417.78 172.82 418.899 172.82 420.28C172.82 421.661 171.701 422.78 170.32 422.78C168.94 422.78 167.82 421.661 167.82 420.28Z" fill="#959DA8"/>
<path d="M272.281 364.29H315.131V457.38H272.281V364.29Z" fill="#D3DCE5"/>
<path d="M278.348 414.56H309.078V370.23H278.348V414.56Z" fill="white"/>
<path fill-rule="evenodd" clip-rule="evenodd" d="M309.578 415.06H277.848V369.73H309.578V415.06ZM308.578 414.06V370.73H278.848V414.06H308.578Z" fill="#959DA8"/>
<path d="M307.102 422.28C308.206 422.28 309.102 421.385 309.102 420.28C309.102 419.175 308.206 418.28 307.102 418.28C305.997 418.28 305.102 419.175 305.102 420.28C305.102 421.385 305.997 422.28 307.102 422.28Z" fill="white"/>
<path fill-rule="evenodd" clip-rule="evenodd" d="M307.102 418.78C306.273 418.78 305.602 419.452 305.602 420.28C305.602 421.108 306.273 421.78 307.102 421.78C307.93 421.78 308.602 421.108 308.602 420.28C308.602 419.452 307.93 418.78 307.102 418.78ZM304.602 420.28C304.602 418.899 305.721 417.78 307.102 417.78C308.482 417.78 309.602 418.899 309.602 420.28C309.602 421.661 308.482 422.78 307.102 422.78C305.721 422.78 304.602 421.661 304.602 420.28Z" fill="#959DA8"/>
<path d="M344.821 454.4H124.121V464.17H344.821V454.4Z" fill="#F4F5F6"/>
<path fill-rule="evenodd" clip-rule="evenodd" d="M123.121 453.4H345.821V465.17H123.121V453.4ZM125.121 455.4V463.17H343.821V455.4H125.121Z" fill="#959DA8"/>
<path d="M123.559 76.38L239.279 177.78H10.5586" fill="#F4F5F6"/>
<path d="M21.4688 177.55H225.859L214.929 167.8H33.5887L21.4688 177.55Z" fill="white"/>
<path fill-rule="evenodd" clip-rule="evenodd" d="M33.4139 167.3H215.121L227.172 178.05H20.0508L33.4139 167.3ZM33.7662 168.3L22.8892 177.05H224.548L214.739 168.3H33.7662Z" fill="#959DA8"/>
<path fill-rule="evenodd" clip-rule="evenodd" d="M124.168 75.671L241.549 178.4H225.768V176.4H236.227L124.169 78.329L12.1488 176.4H22.6085V178.4H6.82812L124.168 75.671Z" fill="#959DA8"/>
<path fill-rule="evenodd" clip-rule="evenodd" d="M124.189 88.618L127.386 91.3921L135.117 98.0929L136.047 98.9023L143.227 105.132L147.566 108.902L148.386 109.612L159.096 118.902L164.386 123.492L170.626 128.902L178.886 136.072L182.156 138.902L185.386 141.702L193.677 148.902L200.316 154.662L204.056 157.902L210.333 163.351L210.589 163.522V163.572L215.567 167.892L226.096 177.022L225.441 177.778L214.911 168.648L209.736 164.156L209.725 164.148L203.402 158.658L199.662 155.418L193.021 149.658L184.731 142.458L181.502 139.658L178.232 136.828L163.731 124.248L156.481 117.958L147.732 110.368L146.912 109.658L142.571 105.888L135.391 99.6576L134.461 98.8478L126.731 92.1478L124.189 89.9419L117.507 95.7377L117.207 95.9976L113.039 99.6143L112.987 99.6576L112.979 99.6642L104.157 107.317L101.467 109.657L98.3865 112.328L90.7769 118.927L89.937 119.657L84.3869 124.467L78.4992 129.584L78.3991 129.664L69.9566 136.988L66.8764 139.658L65.3866 140.948L56.9379 148.277L56.9366 148.278L55.3578 149.657L55.3565 149.658L50.3865 153.968L44.9776 158.657L44.9764 158.658L44.0376 159.477L40.3865 162.638L22.9367 177.778L22.2812 177.022L39.7313 161.882L43.3817 158.722L44.3202 157.903L44.3214 157.902L49.7313 153.212L54.7 148.903L54.7013 148.902L56.2801 147.523L56.2813 147.522L64.7313 140.192L66.2214 138.902L69.3013 136.232L77.7588 128.896L77.8586 128.816L83.7309 123.713L89.281 118.903L90.1209 118.173L97.7313 111.572L100.811 108.903L103.501 106.563L112.339 98.8956L112.391 98.8523L112.399 98.8457L116.551 95.2423L116.851 94.9822L124.189 88.618Z" fill="#959DA8"/>
<path d="M143.431 117.34H106.641V149.85H143.431V117.34Z" fill="#F4F5F6"/>
<path fill-rule="evenodd" clip-rule="evenodd" d="M106.141 116.84H143.931V150.35H106.141V116.84ZM107.141 117.84V149.35H142.931V117.84H107.141Z" fill="#959DA8"/>
<path d="M137 123.47H112.82V143.91H137.04L137 123.47Z" fill="white"/>
<path fill-rule="evenodd" clip-rule="evenodd" d="M112.32 122.97H137.499L137.541 144.41H112.32V122.97ZM113.32 123.97V143.41H136.539L136.501 123.97H113.32Z" fill="#959DA8"/>
<path d="M9.87891 320.67L43.8188 292.78H182.319L226.819 320.28L9.87891 320.67Z" fill="#D3DCE5"/>
<path d="M235.879 321.67L283.819 293.78H412.319L454.819 321.28L235.879 321.67Z" fill="#D3DCE5"/>
<path d="M228.82 321.78V310.29L182.82 292.78L136.1 311.29L135.82 321.78H181.82H228.82Z" fill="#F4F5F6"/>
<path d="M597.32 285.28H640.32V209.28H597.32V285.28Z" fill="white"/>
<path fill-rule="evenodd" clip-rule="evenodd" d="M640.82 285.78H596.82V208.78H640.82V285.78ZM639.82 284.78V209.78H597.82V284.78H639.82Z" fill="#959DA8"/>
<path fill-rule="evenodd" clip-rule="evenodd" d="M596.82 233.28H640.32V234.28H596.82V233.28Z" fill="#959DA8"/>
<path fill-rule="evenodd" clip-rule="evenodd" d="M625.32 233.78V209.28H626.32V233.78H625.32Z" fill="#959DA8"/>
<path fill-rule="evenodd" clip-rule="evenodd" d="M611.32 233.78V209.28H612.32V233.78H611.32Z" fill="#959DA8"/>
<path d="M482.32 285.28H525.32V209.28H482.32V285.28Z" fill="white"/>
<path fill-rule="evenodd" clip-rule="evenodd" d="M525.82 285.78H481.82V208.78H525.82V285.78ZM524.82 284.78V209.78H482.82V284.78H524.82Z" fill="#959DA8"/>
<path fill-rule="evenodd" clip-rule="evenodd" d="M482.82 233.28H525.32V234.28H482.82V233.28Z" fill="#959DA8"/>
<path fill-rule="evenodd" clip-rule="evenodd" d="M510.32 233.78V209.28H511.32V233.78H510.32Z" fill="#959DA8"/>
<path fill-rule="evenodd" clip-rule="evenodd" d="M496.32 233.78V209.28H497.32V233.78H496.32Z" fill="#959DA8"/>
<path d="M824.32 285.28H867.32V209.28H824.32V285.28Z" fill="white"/>
<path fill-rule="evenodd" clip-rule="evenodd" d="M867.82 285.78H823.82V208.78H867.82V285.78ZM866.82 284.78V209.78H824.82V284.78H866.82Z" fill="#959DA8"/>
<path fill-rule="evenodd" clip-rule="evenodd" d="M823.82 233.28H867.32V234.28H823.82V233.28Z" fill="#959DA8"/>
<path fill-rule="evenodd" clip-rule="evenodd" d="M852.32 233.78V209.28H853.32V233.78H852.32Z" fill="#959DA8"/>
<path fill-rule="evenodd" clip-rule="evenodd" d="M838.32 233.78V209.28H839.32V233.78H838.32Z" fill="#959DA8"/>
<path d="M709.32 285.28H752.32V209.28H709.32V285.28Z" fill="white"/>
<path fill-rule="evenodd" clip-rule="evenodd" d="M752.82 285.78H708.82V208.78H752.82V285.78ZM751.82 284.78V209.78H709.82V284.78H751.82Z" fill="#959DA8"/>
<path fill-rule="evenodd" clip-rule="evenodd" d="M709.82 233.28H752.32V234.28H709.82V233.28Z" fill="#959DA8"/>
<path fill-rule="evenodd" clip-rule="evenodd" d="M737.32 233.78V209.28H738.32V233.78H737.32Z" fill="#959DA8"/>
<path fill-rule="evenodd" clip-rule="evenodd" d="M723.32 233.78V209.28H724.32V233.78H723.32Z" fill="#959DA8"/>
<path d="M316.32 209.28H273.32V285.28H316.32V209.28Z" fill="white"/>
<path fill-rule="evenodd" clip-rule="evenodd" d="M272.82 208.78H316.82V285.78H272.82V208.78ZM273.82 209.78V284.78H315.82V209.78H273.82Z" fill="#959DA8"/>
<path fill-rule="evenodd" clip-rule="evenodd" d="M316.82 234.28H273.32V233.28H316.82V234.28Z" fill="#959DA8"/>
<path fill-rule="evenodd" clip-rule="evenodd" d="M287.32 233.78V209.28H288.32V233.78H287.32Z" fill="#959DA8"/>
<path fill-rule="evenodd" clip-rule="evenodd" d="M301.32 233.78V209.28H302.32V233.78H301.32Z" fill="#959DA8"/>
<path d="M431.32 209.28H388.32V285.28H431.32V209.28Z" fill="white"/>
<path fill-rule="evenodd" clip-rule="evenodd" d="M387.82 208.78H431.82V285.78H387.82V208.78ZM388.82 209.78V284.78H430.82V209.78H388.82Z" fill="#959DA8"/>
<path fill-rule="evenodd" clip-rule="evenodd" d="M430.82 234.28H388.32V233.28H430.82V234.28Z" fill="#959DA8"/>
<path fill-rule="evenodd" clip-rule="evenodd" d="M402.32 233.78V209.28H403.32V233.78H402.32Z" fill="#959DA8"/>
<path fill-rule="evenodd" clip-rule="evenodd" d="M416.32 233.78V209.28H417.32V233.78H416.32Z" fill="#959DA8"/>
<path d="M89.3203 209.28H46.3203V285.28H89.3203V209.28Z" fill="white"/>
<path fill-rule="evenodd" clip-rule="evenodd" d="M45.8203 208.78H89.8203V285.78H45.8203V208.78ZM46.8203 209.78V284.78H88.8203V209.78H46.8203Z" fill="#959DA8"/>
<path fill-rule="evenodd" clip-rule="evenodd" d="M89.8203 234.28H46.3203V233.28H89.8203V234.28Z" fill="#959DA8"/>
<path fill-rule="evenodd" clip-rule="evenodd" d="M60.3203 233.78V209.28H61.3203V233.78H60.3203Z" fill="#959DA8"/>
<path fill-rule="evenodd" clip-rule="evenodd" d="M74.3203 233.78V209.28H75.3203V233.78H74.3203Z" fill="#959DA8"/>
<path d="M204.32 209.28H161.32V285.28H204.32V209.28Z" fill="white"/>
<path fill-rule="evenodd" clip-rule="evenodd" d="M160.82 208.78H204.82V285.78H160.82V208.78ZM161.82 209.78V284.78H203.82V209.78H161.82Z" fill="#959DA8"/>
<path fill-rule="evenodd" clip-rule="evenodd" d="M203.82 234.28H161.32V233.28H203.82V234.28Z" fill="#959DA8"/>
<path fill-rule="evenodd" clip-rule="evenodd" d="M175.32 233.78V209.28H176.32V233.78H175.32Z" fill="#959DA8"/>
<path fill-rule="evenodd" clip-rule="evenodd" d="M189.32 233.78V209.28H190.32V233.78H189.32Z" fill="#959DA8"/>
<path d="M130.32 364.28H87.3203V440.28H130.32V364.28Z" fill="white"/>
<path fill-rule="evenodd" clip-rule="evenodd" d="M86.8203 363.78H130.82V440.78H86.8203V363.78ZM87.8203 364.78V439.78H129.82V364.78H87.8203Z" fill="#959DA8"/>
<path d="M87.3203 364.28H44.3203V440.28H87.3203V364.28Z" fill="white"/>
<path fill-rule="evenodd" clip-rule="evenodd" d="M43.8203 363.78H87.8203V440.78H43.8203V363.78ZM44.8203 364.78V439.78H86.8203V364.78H44.8203Z" fill="#959DA8"/>
<path fill-rule="evenodd" clip-rule="evenodd" d="M129.82 389.28H44.3203V388.28H129.82V389.28Z" fill="#959DA8"/>
<path fill-rule="evenodd" clip-rule="evenodd" d="M100.32 388.78V364.28H101.32V388.78H100.32Z" fill="#959DA8"/>
<path fill-rule="evenodd" clip-rule="evenodd" d="M114.32 388.78V364.28H115.32V388.78H114.32Z" fill="#959DA8"/>
<path fill-rule="evenodd" clip-rule="evenodd" d="M58.3203 388.78V364.28H59.3203V388.78H58.3203Z" fill="#959DA8"/>
<path fill-rule="evenodd" clip-rule="evenodd" d="M72.3203 388.78V364.28H73.3203V388.78H72.3203Z" fill="#959DA8"/>
<path d="M431.32 364.28H388.32V440.28H431.32V364.28Z" fill="white"/>
<path fill-rule="evenodd" clip-rule="evenodd" d="M387.82 363.78H431.82V440.78H387.82V363.78ZM388.82 364.78V439.78H430.82V364.78H388.82Z" fill="#959DA8"/>
<path d="M388.32 364.28H345.32V440.28H388.32V364.28Z" fill="white"/>
<path fill-rule="evenodd" clip-rule="evenodd" d="M344.82 363.78H388.82V440.78H344.82V363.78ZM345.82 364.78V439.78H387.82V364.78H345.82Z" fill="#959DA8"/>
<path fill-rule="evenodd" clip-rule="evenodd" d="M430.82 389.28H345.32V388.28H430.82V389.28Z" fill="#959DA8"/>
<path fill-rule="evenodd" clip-rule="evenodd" d="M401.32 388.78V364.28H402.32V388.78H401.32Z" fill="#959DA8"/>
<path fill-rule="evenodd" clip-rule="evenodd" d="M415.32 388.78V364.28H416.32V388.78H415.32Z" fill="#959DA8"/>
<path fill-rule="evenodd" clip-rule="evenodd" d="M359.32 388.78V364.28H360.32V388.78H359.32Z" fill="#959DA8"/>
<path fill-rule="evenodd" clip-rule="evenodd" d="M373.32 388.78V364.28H374.32V388.78H373.32Z" fill="#959DA8"/>
<path fill-rule="evenodd" clip-rule="evenodd" d="M237.32 455.78V178.78H239.32V455.78H237.32Z" fill="#959DA8"/>
<path d="M352.559 57.38L428.279 113.78H277.559" fill="#F4F5F6"/>
<path fill-rule="evenodd" clip-rule="evenodd" d="M353.172 55.7529L431.908 114.4H411.772V112.4H425.875L353.172 58.247L280.507 112.4H293.612V114.4H274.477L353.172 55.7529Z" fill="#959DA8"/>
<path fill-rule="evenodd" clip-rule="evenodd" d="M306.32 103.3H399.93V104.3H306.32V103.3Z" fill="#959DA8"/>
<path fill-rule="evenodd" clip-rule="evenodd" d="M353.321 70.6713L413.605 112.87L413.032 113.69L353.316 71.8886L292.602 113.692L292.035 112.868L353.321 70.6713Z" fill="#959DA8"/>
<path d="M412.32 113.28H293.32V162.28H412.32V113.28Z" fill="#F4F5F6"/>
<path fill-rule="evenodd" clip-rule="evenodd" d="M292.32 112.28H413.32V163.28H292.32V112.28ZM294.32 114.28V161.28H411.32V114.28H294.32Z" fill="#959DA8"/>
<path d="M342.431 121.34H305.641V153.85H342.431V121.34Z" fill="#F4F5F6"/>
<path fill-rule="evenodd" clip-rule="evenodd" d="M305.141 120.84H342.931V154.35H305.141V120.84ZM306.141 121.84V153.35H341.931V121.84H306.141Z" fill="#959DA8"/>
<path d="M336 127.47H311.82V147.91H336.04L336 127.47Z" fill="white"/>
<path fill-rule="evenodd" clip-rule="evenodd" d="M311.32 126.97H336.499L336.541 148.41H311.32V126.97ZM312.32 127.97V147.41H335.539L335.501 127.97H312.32Z" fill="#959DA8"/>
<path d="M400.431 121.34H363.641V153.85H400.431V121.34Z" fill="#F4F5F6"/>
<path fill-rule="evenodd" clip-rule="evenodd" d="M363.141 120.84H400.931V154.35H363.141V120.84ZM364.141 121.84V153.35H399.931V121.84H364.141Z" fill="#959DA8"/>
<path d="M394 127.47H369.82V147.91H394.04L394 127.47Z" fill="white"/>
<path fill-rule="evenodd" clip-rule="evenodd" d="M369.32 126.97H394.499L394.541 148.41H369.32V126.97ZM370.32 127.97V147.41H393.539L393.501 127.97H370.32Z" fill="#959DA8"/>
<path d="M369.879 321.67L403.819 293.78H626.319L670.819 321.28L369.879 321.67Z" fill="#D3DCE5"/>
<path d="M903.82 320.78H8.82031V335.78H903.82V320.78Z" fill="#F4F5F6"/>
<path fill-rule="evenodd" clip-rule="evenodd" d="M7.82031 319.78H904.82V336.78H7.82031V319.78ZM9.82031 321.78V334.78H902.82V321.78H9.82031Z" fill="#959DA8"/>
<path d="M-14.1801 435.54C-13.7296 435.543 -13.2802 435.496 -12.8401 435.4C7.63991 430.74 7.6499 405.93 7.6499 405.93C7.6499 372.12 -14.17 355.17 -14.17 355.17C-14.17 355.17 -36 372.08 -36 405.93C-36 405.93 -36 430.77 -15.52 435.4C-15.0799 435.496 -14.6305 435.543 -14.1801 435.54Z" fill="#80C33F"/>
<path d="M462.818 442.78C463.191 442.782 463.564 442.741 463.928 442.66C480.828 438.81 480.828 418.35 480.828 418.35C480.828 390.46 462.828 376.48 462.828 376.48C462.828 376.48 444.828 390.48 444.828 418.35C444.828 418.35 444.828 438.84 461.718 442.66C462.083 442.741 462.455 442.782 462.828 442.78H462.818Z" fill="#80C33F"/>
<path fill-rule="evenodd" clip-rule="evenodd" d="M462.82 403.49C463.096 403.49 463.32 403.714 463.32 403.99V473.6C463.32 473.876 463.096 474.1 462.82 474.1C462.544 474.1 462.32 473.876 462.32 473.6V403.99C462.32 403.714 462.544 403.49 462.82 403.49Z" fill="#2A3A51"/>
<path d="M241.32 168.28H7.32031V178.28H241.32V168.28Z" fill="#F4F5F6"/>
<path fill-rule="evenodd" clip-rule="evenodd" d="M6.58984 167.55H242.05V179.01H6.58984V167.55ZM8.04984 169.01V177.55H240.59V169.01H8.04984Z" fill="#959DA8"/>
<path d="M431.32 104.28H275.32V114.28H431.32V104.28Z" fill="#F4F5F6"/>
<path fill-rule="evenodd" clip-rule="evenodd" d="M274.727 103.685H431.917V114.875H274.727V103.685ZM275.917 104.875V113.685H430.727V104.875H275.917Z" fill="#959DA8"/>
<path fill-rule="evenodd" clip-rule="evenodd" d="M182.814 292.707L229.822 310.601V321.78H227.822V311.979L182.829 294.853L137.102 312.969V321.78H135.102V311.611L182.814 292.707Z" fill="#959DA8"/>
<path fill-rule="evenodd" clip-rule="evenodd" d="M182.822 303.245L228.999 320.823L228.643 321.757L182.82 304.315L136.497 321.748L136.145 320.812L182.822 303.245Z" fill="#959DA8"/>
<path d="M320.82 470.08C320.811 467.854 321.338 465.659 322.357 463.68C323.376 461.701 324.856 459.997 326.672 458.711C328.489 457.425 330.589 456.595 332.794 456.292C334.999 455.989 337.244 456.222 339.34 456.97C340.151 453.708 341.791 450.711 344.103 448.271C346.415 445.831 349.319 444.031 352.533 443.047C355.746 442.062 359.16 441.926 362.442 442.652C365.724 443.378 368.762 444.942 371.26 447.19C373.025 442.255 376.475 438.101 381.002 435.46C385.528 432.818 390.842 431.859 396.007 432.75C401.171 433.641 405.856 436.327 409.235 440.333C412.615 444.339 414.472 449.409 414.48 454.65C414.483 455.425 414.443 456.199 414.36 456.97C415.866 456.42 417.457 456.139 419.06 456.14C426.76 456.14 433.46 462.39 432.97 470.05C432.9 471.313 432.689 472.564 432.34 473.78H321.34C321.005 472.565 320.837 471.31 320.84 470.05L320.82 470.08Z" fill="#80C33F"/>
<path d="M976.342 322.605L932.82 286.086L913.68 308.897L957.202 345.416L976.342 322.605Z" fill="#F4F5F6"/>
<path d="M976.376 322.49L932.891 286.002L931.377 287.806L974.862 324.294L976.376 322.49Z" fill="#B22234"/>
<path d="M973.415 326.019L929.93 289.531L928.416 291.336L971.901 327.824L973.415 326.019Z" fill="#B22234"/>
<path d="M970.454 329.549L926.969 293.061L925.455 294.865L968.94 331.353L970.454 329.549Z" fill="#B22234"/>
<path d="M967.493 333.078L924.008 296.59L922.494 298.394L965.979 334.883L967.493 333.078Z" fill="#B22234"/>
<path d="M964.532 336.607L921.047 300.119L919.533 301.924L963.018 338.412L964.532 336.607Z" fill="#B22234"/>
<path d="M961.571 340.137L918.086 303.649L916.572 305.453L960.057 341.941L961.571 340.137Z" fill="#B22234"/>
<path d="M958.606 343.667L915.121 307.178L913.607 308.983L957.092 345.471L958.606 343.667Z" fill="#B22234"/>
<path d="M950.258 300.573L932.891 286L922.491 298.393L939.859 312.967L950.258 300.573Z" fill="#2A3A51"/>
<path d="M933.97 287.714L933.708 288.356L934.234 288.797L933.546 288.753L933.284 289.395L933.121 288.726L932.433 288.681L933.02 288.312L932.857 287.642L933.383 288.083L933.97 287.714Z" fill="#F4F5F6"/>
<path d="M934.333 290.187L934.071 290.829L934.597 291.271L933.909 291.226L933.647 291.869L933.484 291.199L932.796 291.154L933.383 290.785L933.22 290.115L933.746 290.557L934.333 290.187Z" fill="#F4F5F6"/>
<path d="M932.251 292.672L931.989 293.314L932.515 293.755L931.827 293.711L931.565 294.353L931.402 293.683L930.714 293.639L931.301 293.27L931.138 292.6L931.664 293.041L932.251 292.672Z" fill="#F4F5F6"/>
<path d="M930.165 295.156L929.903 295.798L930.429 296.24L929.741 296.196L929.479 296.838L929.316 296.168L928.628 296.124L929.215 295.754L929.052 295.084L929.578 295.526L930.165 295.156Z" fill="#F4F5F6"/>
<path d="M928.079 297.641L927.817 298.283L928.343 298.724L927.655 298.68L927.393 299.322L927.23 298.653L926.542 298.608L927.129 298.239L926.966 297.569L927.492 298.01L928.079 297.641Z" fill="#F4F5F6"/>
<path d="M937.235 292.621L936.973 293.263L937.499 293.705L936.811 293.66L936.549 294.303L936.386 293.633L935.699 293.588L936.285 293.219L936.122 292.549L936.648 292.99L937.235 292.621Z" fill="#F4F5F6"/>
<path d="M935.149 295.105L934.887 295.748L935.413 296.189L934.726 296.145L934.464 296.787L934.3 296.117L933.613 296.073L934.2 295.703L934.037 295.034L934.562 295.475L935.149 295.105Z" fill="#F4F5F6"/>
<path d="M933.063 297.59L932.802 298.232L933.328 298.674L932.64 298.629L932.378 299.272L932.214 298.602L931.527 298.558L932.114 298.188L931.951 297.518L932.477 297.96L933.063 297.59Z" fill="#F4F5F6"/>
<path d="M930.981 300.075L930.72 300.717L931.246 301.158L930.558 301.114L930.296 301.756L930.132 301.087L929.445 301.042L930.032 300.673L929.869 300.003L930.395 300.444L930.981 300.075Z" fill="#F4F5F6"/>
<path d="M940.138 295.056L939.876 295.699L940.402 296.14L939.714 296.096L939.452 296.738L939.288 296.068L938.601 296.024L939.188 295.654L939.025 294.985L939.551 295.426L940.138 295.056Z" fill="#F4F5F6"/>
<path d="M938.052 297.541L937.79 298.183L938.316 298.624L937.628 298.58L937.366 299.222L937.203 298.553L936.515 298.508L937.102 298.139L936.939 297.469L937.465 297.91L938.052 297.541Z" fill="#F4F5F6"/>
<path d="M935.966 300.026L935.704 300.668L936.23 301.109L935.542 301.065L935.28 301.707L935.117 301.037L934.429 300.993L935.016 300.624L934.853 299.954L935.379 300.395L935.966 300.026Z" fill="#F4F5F6"/>
<path d="M933.884 302.51L933.622 303.152L934.148 303.594L933.46 303.55L933.198 304.192L933.035 303.522L932.347 303.478L932.934 303.108L932.771 302.438L933.297 302.88L933.884 302.51Z" fill="#F4F5F6"/>
<path d="M943.04 297.491L942.778 298.133L943.304 298.575L942.616 298.53L942.354 299.172L942.191 298.503L941.503 298.458L942.09 298.089L941.927 297.419L942.453 297.86L943.04 297.491Z" fill="#F4F5F6"/>
<path d="M940.954 299.975L940.692 300.618L941.218 301.059L940.53 301.015L940.268 301.657L940.105 300.987L939.417 300.943L940.004 300.573L939.841 299.903L940.367 300.345L940.954 299.975Z" fill="#F4F5F6"/>
<path d="M938.868 302.46L938.606 303.102L939.132 303.544L938.444 303.499L938.182 304.142L938.019 303.472L937.332 303.427L937.918 303.058L937.755 302.388L938.281 302.829L938.868 302.46Z" fill="#F4F5F6"/>
<path d="M936.782 304.945L936.521 305.587L937.047 306.028L936.358 305.984L936.097 306.626L935.933 305.957L935.246 305.912L935.832 305.543L935.669 304.873L936.195 305.314L936.782 304.945Z" fill="#F4F5F6"/>
<path d="M945.942 299.926L945.68 300.568L946.206 301.01L945.518 300.965L945.256 301.608L945.093 300.938L944.405 300.894L944.992 300.524L944.829 299.854L945.355 300.296L945.942 299.926Z" fill="#F4F5F6"/>
<path d="M943.856 302.411L943.595 303.053L944.12 303.494L943.432 303.45L943.171 304.092L943.007 303.422L942.32 303.378L942.906 303.009L942.744 302.339L943.27 302.78L943.856 302.411Z" fill="#F4F5F6"/>
<path d="M941.77 304.895L941.509 305.538L942.034 305.979L941.347 305.935L941.085 306.577L940.921 305.907L940.234 305.863L940.821 305.493L940.658 304.824L941.184 305.265L941.77 304.895Z" fill="#F4F5F6"/>
<path d="M939.684 307.38L939.423 308.022L939.948 308.463L939.261 308.419L938.999 309.061L938.835 308.392L938.148 308.347L938.735 307.978L938.572 307.308L939.098 307.75L939.684 307.38Z" fill="#F4F5F6"/>
<path d="M931.884 290.198L931.622 290.841L932.148 291.282L931.46 291.237L931.198 291.88L931.035 291.21L930.347 291.166L930.934 290.796L930.771 290.126L931.297 290.568L931.884 290.198Z" fill="#F4F5F6"/>
<path d="M929.798 292.683L929.536 293.325L930.062 293.767L929.374 293.722L929.112 294.365L928.949 293.695L928.261 293.65L928.848 293.281L928.685 292.611L929.211 293.053L929.798 292.683Z" fill="#F4F5F6"/>
<path d="M927.716 295.168L927.454 295.81L927.98 296.251L927.292 296.207L927.03 296.849L926.867 296.18L926.179 296.135L926.766 295.766L926.603 295.096L927.129 295.537L927.716 295.168Z" fill="#F4F5F6"/>
<path d="M925.63 297.652L925.368 298.295L925.894 298.736L925.206 298.692L924.944 299.334L924.781 298.664L924.093 298.62L924.68 298.25L924.517 297.581L925.043 298.022L925.63 297.652Z" fill="#F4F5F6"/>
<path d="M936.833 290.116L936.571 290.759L937.097 291.2L936.409 291.155L936.147 291.798L935.984 291.128L935.296 291.084L935.883 290.714L935.72 290.044L936.246 290.486L936.833 290.116Z" fill="#F4F5F6"/>
<path d="M934.747 292.601L934.485 293.243L935.011 293.684L934.323 293.64L934.061 294.282L933.898 293.612L933.21 293.568L933.798 293.199L933.634 292.529L934.16 292.97L934.747 292.601Z" fill="#F4F5F6"/>
<path d="M932.661 295.086L932.399 295.728L932.925 296.169L932.237 296.125L931.975 296.767L931.812 296.097L931.124 296.053L931.711 295.683L931.548 295.014L932.074 295.455L932.661 295.086Z" fill="#F4F5F6"/>
<path d="M930.579 297.57L930.317 298.212L930.843 298.654L930.155 298.61L929.893 299.252L929.73 298.582L929.042 298.538L929.629 298.168L929.466 297.498L929.992 297.94L930.579 297.57Z" fill="#F4F5F6"/>
<path d="M928.493 300.055L928.231 300.697L928.757 301.138L928.069 301.094L927.807 301.736L927.644 301.067L926.956 301.022L927.543 300.653L927.38 299.983L927.906 300.424L928.493 300.055Z" fill="#F4F5F6"/>
<path d="M939.774 292.584L939.512 293.226L940.038 293.667L939.351 293.623L939.089 294.265L938.925 293.595L938.238 293.551L938.825 293.182L938.661 292.512L939.187 292.953L939.774 292.584Z" fill="#F4F5F6"/>
<path d="M937.688 295.068L937.427 295.71L937.953 296.152L937.265 296.107L937.003 296.75L936.84 296.08L936.152 296.036L936.739 295.666L936.576 294.996L937.102 295.438L937.688 295.068Z" fill="#F4F5F6"/>
<path d="M935.603 297.553L935.341 298.195L935.867 298.636L935.179 298.592L934.917 299.234L934.754 298.565L934.066 298.52L934.653 298.151L934.49 297.481L935.016 297.922L935.603 297.553Z" fill="#F4F5F6"/>
<path d="M933.517 300.038L933.255 300.68L933.781 301.121L933.093 301.077L932.831 301.719L932.668 301.049L931.98 301.005L932.567 300.636L932.404 299.966L932.93 300.407L933.517 300.038Z" fill="#F4F5F6"/>
<path d="M931.435 302.522L931.173 303.164L931.699 303.606L931.011 303.562L930.749 304.204L930.586 303.534L929.898 303.49L930.485 303.12L930.322 302.45L930.848 302.892L931.435 302.522Z" fill="#F4F5F6"/>
<path d="M942.653 295.002L942.391 295.644L942.917 296.086L942.229 296.041L941.967 296.684L941.804 296.014L941.116 295.969L941.703 295.6L941.54 294.93L942.066 295.372L942.653 295.002Z" fill="#F4F5F6"/>
<path d="M940.571 297.487L940.309 298.129L940.835 298.57L940.147 298.526L939.885 299.168L939.722 298.498L939.034 298.454L939.622 298.084L939.458 297.415L939.984 297.856L940.571 297.487Z" fill="#F4F5F6"/>
<path d="M938.485 299.971L938.223 300.614L938.749 301.055L938.061 301.011L937.799 301.653L937.637 300.983L936.948 300.939L937.535 300.569L937.372 299.899L937.898 300.341L938.485 299.971Z" fill="#F4F5F6"/>
<path d="M936.399 302.456L936.137 303.098L936.663 303.54L935.975 303.495L935.714 304.137L935.55 303.468L934.863 303.423L935.449 303.054L935.287 302.384L935.812 302.826L936.399 302.456Z" fill="#F4F5F6"/>
<path d="M934.317 304.941L934.055 305.583L934.581 306.024L933.893 305.98L933.631 306.622L933.468 305.953L932.78 305.908L933.367 305.539L933.204 304.869L933.73 305.31L934.317 304.941Z" fill="#F4F5F6"/>
<path d="M945.536 297.42L945.274 298.063L945.8 298.504L945.112 298.46L944.85 299.102L944.687 298.432L943.999 298.388L944.586 298.018L944.423 297.349L944.949 297.79L945.536 297.42Z" fill="#F4F5F6"/>
<path d="M943.454 299.905L943.192 300.547L943.718 300.989L943.03 300.944L942.768 301.586L942.605 300.917L941.917 300.872L942.504 300.503L942.341 299.833L942.867 300.274L943.454 299.905Z" fill="#F4F5F6"/>
<path d="M941.368 302.39L941.106 303.032L941.632 303.473L940.944 303.429L940.682 304.071L940.519 303.401L939.831 303.357L940.418 302.988L940.255 302.318L940.781 302.759L941.368 302.39Z" fill="#F4F5F6"/>
<path d="M939.282 304.875L939.02 305.517L939.546 305.958L938.858 305.914L938.596 306.556L938.433 305.886L937.745 305.842L938.332 305.472L938.169 304.803L938.695 305.244L939.282 304.875Z" fill="#F4F5F6"/>
<path d="M937.196 307.359L936.934 308.001L937.46 308.443L936.772 308.398L936.51 309.041L936.347 308.371L935.659 308.326L936.246 307.957L936.083 307.287L936.609 307.728L937.196 307.359Z" fill="#F4F5F6"/>
<path d="M948.478 299.888L948.216 300.53L948.742 300.972L948.054 300.927L947.792 301.57L947.629 300.9L946.941 300.856L947.528 300.486L947.364 299.816L947.89 300.258L948.478 299.888Z" fill="#F4F5F6"/>
<path d="M946.392 302.373L946.13 303.015L946.656 303.456L945.968 303.412L945.706 304.054L945.543 303.384L944.855 303.34L945.442 302.97L945.279 302.301L945.805 302.742L946.392 302.373Z" fill="#F4F5F6"/>
<path d="M944.31 304.857L944.048 305.5L944.574 305.941L943.886 305.897L943.624 306.539L943.461 305.869L942.773 305.825L943.36 305.455L943.197 304.785L943.723 305.227L944.31 304.857Z" fill="#F4F5F6"/>
<path d="M942.224 307.342L941.962 307.984L942.488 308.426L941.8 308.381L941.538 309.023L941.375 308.354L940.687 308.309L941.274 307.94L941.111 307.27L941.637 307.711L942.224 307.342Z" fill="#F4F5F6"/>
<path d="M940.138 309.827L939.876 310.469L940.402 310.91L939.714 310.866L939.452 311.508L939.289 310.839L938.601 310.794L939.188 310.425L939.025 309.755L939.551 310.196L940.138 309.827Z" fill="#F4F5F6"/>
<path d="M903.001 321.621L913.928 308.598M913.928 308.598L932.891 286L976.015 322.186L957.053 344.784L913.928 308.598Z" stroke="#959DA8" stroke-miterlimit="10"/>
<line y1="474" x2="1300" y2="474" stroke="#D9DDE2" stroke-width="2" stroke-miterlimit="10"/>
</g>
</svg>
