<svg width="1300" height="499" viewBox="0 0 1300 499" fill="none" xmlns="http://www.w3.org/2000/svg">
<mask id="mask0" mask-type="alpha" maskUnits="userSpaceOnUse" x="0" y="0" width="1300" height="499">
<rect width="1300" height="499" rx="16" fill="#2A3A51"/>
</mask>
<g mask="url(#mask0)">
<path d="M968.342 320.605L924.82 284.086L905.68 306.897L949.202 343.416L968.342 320.605Z" fill="#F4F5F6"/>
<path d="M968.376 320.49L924.891 284.002L923.377 285.806L966.862 322.294L968.376 320.49Z" fill="#B22234"/>
<path d="M965.415 324.019L921.93 287.531L920.416 289.336L963.901 325.824L965.415 324.019Z" fill="#B22234"/>
<path d="M962.454 327.549L918.969 291.061L917.455 292.865L960.94 329.353L962.454 327.549Z" fill="#B22234"/>
<path d="M959.493 331.078L916.008 294.59L914.494 296.394L957.979 332.883L959.493 331.078Z" fill="#B22234"/>
<path d="M956.532 334.607L913.047 298.119L911.533 299.924L955.018 336.412L956.532 334.607Z" fill="#B22234"/>
<path d="M953.571 338.137L910.086 301.649L908.572 303.453L952.057 339.941L953.571 338.137Z" fill="#B22234"/>
<path d="M950.606 341.667L907.121 305.178L905.607 306.983L949.092 343.471L950.606 341.667Z" fill="#B22234"/>
<path d="M942.258 298.573L924.891 284L914.491 296.393L931.859 310.967L942.258 298.573Z" fill="#2A3A51"/>
<path d="M925.97 285.714L925.708 286.356L926.234 286.797L925.546 286.753L925.284 287.395L925.121 286.726L924.433 286.681L925.02 286.312L924.857 285.642L925.383 286.083L925.97 285.714Z" fill="#F4F5F6"/>
<path d="M926.333 288.187L926.071 288.829L926.597 289.271L925.909 289.226L925.647 289.869L925.484 289.199L924.796 289.154L925.383 288.785L925.22 288.115L925.746 288.557L926.333 288.187Z" fill="#F4F5F6"/>
<path d="M924.251 290.672L923.989 291.314L924.515 291.755L923.827 291.711L923.565 292.353L923.402 291.683L922.714 291.639L923.301 291.27L923.138 290.6L923.664 291.041L924.251 290.672Z" fill="#F4F5F6"/>
<path d="M922.165 293.156L921.903 293.798L922.429 294.24L921.741 294.196L921.479 294.838L921.316 294.168L920.628 294.124L921.215 293.754L921.052 293.084L921.578 293.526L922.165 293.156Z" fill="#F4F5F6"/>
<path d="M920.079 295.641L919.817 296.283L920.343 296.724L919.655 296.68L919.393 297.322L919.23 296.653L918.542 296.608L919.129 296.239L918.966 295.569L919.492 296.01L920.079 295.641Z" fill="#F4F5F6"/>
<path d="M929.235 290.621L928.973 291.263L929.499 291.705L928.811 291.66L928.549 292.303L928.386 291.633L927.699 291.588L928.285 291.219L928.122 290.549L928.648 290.99L929.235 290.621Z" fill="#F4F5F6"/>
<path d="M927.149 293.105L926.887 293.748L927.413 294.189L926.726 294.145L926.464 294.787L926.3 294.117L925.613 294.073L926.2 293.703L926.037 293.034L926.562 293.475L927.149 293.105Z" fill="#F4F5F6"/>
<path d="M925.063 295.59L924.802 296.232L925.328 296.674L924.64 296.629L924.378 297.272L924.214 296.602L923.527 296.558L924.114 296.188L923.951 295.518L924.477 295.96L925.063 295.59Z" fill="#F4F5F6"/>
<path d="M922.981 298.075L922.72 298.717L923.246 299.158L922.558 299.114L922.296 299.756L922.132 299.087L921.445 299.042L922.032 298.673L921.869 298.003L922.395 298.444L922.981 298.075Z" fill="#F4F5F6"/>
<path d="M932.138 293.056L931.876 293.699L932.402 294.14L931.714 294.096L931.452 294.738L931.288 294.068L930.601 294.024L931.188 293.654L931.025 292.985L931.551 293.426L932.138 293.056Z" fill="#F4F5F6"/>
<path d="M930.052 295.541L929.79 296.183L930.316 296.624L929.628 296.58L929.366 297.222L929.203 296.553L928.515 296.508L929.102 296.139L928.939 295.469L929.465 295.91L930.052 295.541Z" fill="#F4F5F6"/>
<path d="M927.966 298.026L927.704 298.668L928.23 299.109L927.542 299.065L927.28 299.707L927.117 299.037L926.429 298.993L927.016 298.624L926.853 297.954L927.379 298.395L927.966 298.026Z" fill="#F4F5F6"/>
<path d="M925.884 300.51L925.622 301.152L926.148 301.594L925.46 301.55L925.198 302.192L925.035 301.522L924.347 301.478L924.934 301.108L924.771 300.438L925.297 300.88L925.884 300.51Z" fill="#F4F5F6"/>
<path d="M935.04 295.491L934.778 296.133L935.304 296.575L934.616 296.53L934.354 297.172L934.191 296.503L933.503 296.458L934.09 296.089L933.927 295.419L934.453 295.86L935.04 295.491Z" fill="#F4F5F6"/>
<path d="M932.954 297.975L932.692 298.618L933.218 299.059L932.53 299.015L932.268 299.657L932.105 298.987L931.417 298.943L932.004 298.573L931.841 297.903L932.367 298.345L932.954 297.975Z" fill="#F4F5F6"/>
<path d="M930.868 300.46L930.606 301.102L931.132 301.544L930.444 301.499L930.182 302.142L930.019 301.472L929.332 301.427L929.918 301.058L929.755 300.388L930.281 300.829L930.868 300.46Z" fill="#F4F5F6"/>
<path d="M928.782 302.945L928.521 303.587L929.047 304.028L928.358 303.984L928.097 304.626L927.933 303.957L927.246 303.912L927.832 303.543L927.669 302.873L928.195 303.314L928.782 302.945Z" fill="#F4F5F6"/>
<path d="M937.942 297.926L937.68 298.568L938.206 299.01L937.518 298.965L937.256 299.608L937.093 298.938L936.405 298.894L936.992 298.524L936.829 297.854L937.355 298.296L937.942 297.926Z" fill="#F4F5F6"/>
<path d="M935.856 300.411L935.595 301.053L936.12 301.494L935.432 301.45L935.171 302.092L935.007 301.422L934.32 301.378L934.906 301.009L934.744 300.339L935.27 300.78L935.856 300.411Z" fill="#F4F5F6"/>
<path d="M933.77 302.895L933.509 303.538L934.034 303.979L933.347 303.935L933.085 304.577L932.921 303.907L932.234 303.863L932.821 303.493L932.658 302.824L933.184 303.265L933.77 302.895Z" fill="#F4F5F6"/>
<path d="M931.684 305.38L931.423 306.022L931.948 306.463L931.261 306.419L930.999 307.061L930.835 306.392L930.148 306.347L930.735 305.978L930.572 305.308L931.098 305.75L931.684 305.38Z" fill="#F4F5F6"/>
<path d="M923.884 288.198L923.622 288.841L924.148 289.282L923.46 289.237L923.198 289.88L923.035 289.21L922.347 289.166L922.934 288.796L922.771 288.126L923.297 288.568L923.884 288.198Z" fill="#F4F5F6"/>
<path d="M921.798 290.683L921.536 291.325L922.062 291.767L921.374 291.722L921.112 292.365L920.949 291.695L920.261 291.65L920.848 291.281L920.685 290.611L921.211 291.053L921.798 290.683Z" fill="#F4F5F6"/>
<path d="M919.716 293.168L919.454 293.81L919.98 294.251L919.292 294.207L919.03 294.849L918.867 294.18L918.179 294.135L918.766 293.766L918.603 293.096L919.129 293.537L919.716 293.168Z" fill="#F4F5F6"/>
<path d="M917.63 295.652L917.368 296.295L917.894 296.736L917.206 296.692L916.944 297.334L916.781 296.664L916.093 296.62L916.68 296.25L916.517 295.581L917.043 296.022L917.63 295.652Z" fill="#F4F5F6"/>
<path d="M928.833 288.116L928.571 288.759L929.097 289.2L928.409 289.155L928.147 289.798L927.984 289.128L927.296 289.084L927.883 288.714L927.72 288.044L928.246 288.486L928.833 288.116Z" fill="#F4F5F6"/>
<path d="M926.747 290.601L926.485 291.243L927.011 291.684L926.323 291.64L926.061 292.282L925.898 291.612L925.21 291.568L925.798 291.199L925.634 290.529L926.16 290.97L926.747 290.601Z" fill="#F4F5F6"/>
<path d="M924.661 293.086L924.399 293.728L924.925 294.169L924.237 294.125L923.975 294.767L923.812 294.097L923.124 294.053L923.711 293.683L923.548 293.014L924.074 293.455L924.661 293.086Z" fill="#F4F5F6"/>
<path d="M922.579 295.57L922.317 296.212L922.843 296.654L922.155 296.61L921.893 297.252L921.73 296.582L921.042 296.538L921.629 296.168L921.466 295.498L921.992 295.94L922.579 295.57Z" fill="#F4F5F6"/>
<path d="M920.493 298.055L920.231 298.697L920.757 299.138L920.069 299.094L919.807 299.736L919.644 299.067L918.956 299.022L919.543 298.653L919.38 297.983L919.906 298.424L920.493 298.055Z" fill="#F4F5F6"/>
<path d="M931.774 290.584L931.512 291.226L932.038 291.667L931.351 291.623L931.089 292.265L930.925 291.595L930.238 291.551L930.825 291.182L930.661 290.512L931.187 290.953L931.774 290.584Z" fill="#F4F5F6"/>
<path d="M929.688 293.068L929.427 293.71L929.953 294.152L929.265 294.107L929.003 294.75L928.84 294.08L928.152 294.036L928.739 293.666L928.576 292.996L929.102 293.438L929.688 293.068Z" fill="#F4F5F6"/>
<path d="M927.603 295.553L927.341 296.195L927.867 296.636L927.179 296.592L926.917 297.234L926.754 296.565L926.066 296.52L926.653 296.151L926.49 295.481L927.016 295.922L927.603 295.553Z" fill="#F4F5F6"/>
<path d="M925.517 298.038L925.255 298.68L925.781 299.121L925.093 299.077L924.831 299.719L924.668 299.049L923.98 299.005L924.567 298.636L924.404 297.966L924.93 298.407L925.517 298.038Z" fill="#F4F5F6"/>
<path d="M923.435 300.522L923.173 301.164L923.699 301.606L923.011 301.562L922.749 302.204L922.586 301.534L921.898 301.49L922.485 301.12L922.322 300.45L922.848 300.892L923.435 300.522Z" fill="#F4F5F6"/>
<path d="M934.653 293.002L934.391 293.644L934.917 294.086L934.229 294.041L933.967 294.684L933.804 294.014L933.116 293.969L933.703 293.6L933.54 292.93L934.066 293.372L934.653 293.002Z" fill="#F4F5F6"/>
<path d="M932.571 295.487L932.309 296.129L932.835 296.57L932.147 296.526L931.885 297.168L931.722 296.498L931.034 296.454L931.622 296.084L931.458 295.415L931.984 295.856L932.571 295.487Z" fill="#F4F5F6"/>
<path d="M930.485 297.971L930.223 298.614L930.749 299.055L930.061 299.011L929.799 299.653L929.637 298.983L928.948 298.939L929.535 298.569L929.372 297.899L929.898 298.341L930.485 297.971Z" fill="#F4F5F6"/>
<path d="M928.399 300.456L928.137 301.098L928.663 301.54L927.975 301.495L927.714 302.137L927.55 301.468L926.863 301.423L927.449 301.054L927.287 300.384L927.812 300.826L928.399 300.456Z" fill="#F4F5F6"/>
<path d="M926.317 302.941L926.055 303.583L926.581 304.024L925.893 303.98L925.631 304.622L925.468 303.953L924.78 303.908L925.367 303.539L925.204 302.869L925.73 303.31L926.317 302.941Z" fill="#F4F5F6"/>
<path d="M937.536 295.42L937.274 296.063L937.8 296.504L937.112 296.46L936.85 297.102L936.687 296.432L935.999 296.388L936.586 296.018L936.423 295.349L936.949 295.79L937.536 295.42Z" fill="#F4F5F6"/>
<path d="M935.454 297.905L935.192 298.547L935.718 298.989L935.03 298.944L934.768 299.586L934.605 298.917L933.917 298.872L934.504 298.503L934.341 297.833L934.867 298.274L935.454 297.905Z" fill="#F4F5F6"/>
<path d="M933.368 300.39L933.106 301.032L933.632 301.473L932.944 301.429L932.682 302.071L932.519 301.401L931.831 301.357L932.418 300.988L932.255 300.318L932.781 300.759L933.368 300.39Z" fill="#F4F5F6"/>
<path d="M931.282 302.875L931.02 303.517L931.546 303.958L930.858 303.914L930.596 304.556L930.433 303.886L929.745 303.842L930.332 303.472L930.169 302.803L930.695 303.244L931.282 302.875Z" fill="#F4F5F6"/>
<path d="M929.196 305.359L928.934 306.001L929.46 306.443L928.772 306.398L928.51 307.041L928.347 306.371L927.659 306.326L928.246 305.957L928.083 305.287L928.609 305.728L929.196 305.359Z" fill="#F4F5F6"/>
<path d="M940.478 297.888L940.216 298.53L940.742 298.972L940.054 298.927L939.792 299.57L939.629 298.9L938.941 298.856L939.528 298.486L939.364 297.816L939.89 298.258L940.478 297.888Z" fill="#F4F5F6"/>
<path d="M938.392 300.373L938.13 301.015L938.656 301.456L937.968 301.412L937.706 302.054L937.543 301.384L936.855 301.34L937.442 300.97L937.279 300.301L937.805 300.742L938.392 300.373Z" fill="#F4F5F6"/>
<path d="M936.31 302.857L936.048 303.5L936.574 303.941L935.886 303.897L935.624 304.539L935.461 303.869L934.773 303.825L935.36 303.455L935.197 302.785L935.723 303.227L936.31 302.857Z" fill="#F4F5F6"/>
<path d="M934.224 305.342L933.962 305.984L934.488 306.426L933.8 306.381L933.538 307.023L933.375 306.354L932.687 306.309L933.274 305.94L933.111 305.27L933.637 305.711L934.224 305.342Z" fill="#F4F5F6"/>
<path d="M932.138 307.827L931.876 308.469L932.402 308.91L931.714 308.866L931.452 309.508L931.289 308.839L930.601 308.794L931.188 308.425L931.025 307.755L931.551 308.196L932.138 307.827Z" fill="#F4F5F6"/>
<path d="M895.001 319.621L905.928 306.598M905.928 306.598L924.891 284L968.015 320.186L949.053 342.784L905.928 306.598Z" stroke="#959DA8" stroke-miterlimit="10"/>
<path d="M193 178.78H-241L-233.7 79.7804H193V178.78Z" fill="#D3DCE5"/>
<path fill-rule="evenodd" clip-rule="evenodd" d="M-125.606 76.6704L-9.54959 178.4H52.0023V180.4H-24.0458V178.4H-12.5837L-125.606 79.3298L-238.667 178.4H-227.206V180.4H-243.984L-125.606 76.6704Z" fill="#959DA8"/>
<path d="M43.3344 365.32H0.484375V458.41H43.3344V365.32Z" fill="#D3DCE5"/>
<path d="M37.2614 371.231H6.53125V415.561H37.2614V371.231Z" fill="white"/>
<path fill-rule="evenodd" clip-rule="evenodd" d="M6.03125 370.731H37.7614V416.061H6.03125V370.731ZM7.03125 371.731V415.061H36.7614V371.731H7.03125Z" fill="#959DA8"/>
<path d="M64.0048 455.401H-21.6953V465.17H64.0048V455.401Z" fill="#F4F5F6"/>
<path fill-rule="evenodd" clip-rule="evenodd" d="M-22.6953 454.401H65.0048V466.17H-22.6953V454.401ZM-20.6953 456.401V464.17H63.0048V456.401H-20.6953Z" fill="#959DA8"/>
<path d="M64.0048 465.151H-21.6953V473.921H64.0048V465.151Z" fill="#F4F5F6"/>
<path fill-rule="evenodd" clip-rule="evenodd" d="M-22.6953 464.151H65.0048V474.921H-22.6953V464.151ZM-20.6953 466.151V472.921H63.0048V466.151H-20.6953Z" fill="#959DA8"/>
<path d="M8.50391 423.28C9.60848 423.28 10.5039 422.385 10.5039 421.28C10.5039 420.176 9.60848 419.28 8.50391 419.28C7.39934 419.28 6.50391 420.176 6.50391 421.28C6.50391 422.385 7.39934 423.28 8.50391 423.28Z" fill="#F4F5F6"/>
<path fill-rule="evenodd" clip-rule="evenodd" d="M8.50391 419.78C7.67548 419.78 7.00391 420.452 7.00391 421.28C7.00391 422.109 7.67548 422.78 8.50391 422.78C9.33233 422.78 10.0039 422.109 10.0039 421.28C10.0039 420.452 9.33233 419.78 8.50391 419.78ZM6.00391 421.28C6.00391 419.9 7.12319 418.78 8.50391 418.78C9.88462 418.78 11.0039 419.9 11.0039 421.28C11.0039 422.661 9.88462 423.78 8.50391 423.78C7.12319 423.78 6.00391 422.661 6.00391 421.28Z" fill="#959DA8"/>
<path d="M34.5416 209.78H4.01172V262.78H34.5316L34.5416 209.78Z" fill="white"/>
<path fill-rule="evenodd" clip-rule="evenodd" d="M3.51172 209.28H35.0417L35.0315 263.28H3.51172V209.28ZM4.51172 210.28V262.28H34.0317L34.0415 210.28H4.51172Z" fill="#959DA8"/>
<path fill-rule="evenodd" clip-rule="evenodd" d="M34.5416 232.61H4.01172V231.61H34.5416V232.61Z" fill="#959DA8"/>
<path d="M60.7422 178.78H893.742L879.742 79.7804H60.7422V178.78Z" fill="#D3DCE5"/>
<path d="M59.7422 473.78L883.742 473.78V179.78L59.7422 179.78V473.78Z" fill="#F4F5F6"/>
<path fill-rule="evenodd" clip-rule="evenodd" d="M884.742 474.78L58.7422 474.78V178.78L884.742 178.78V474.78ZM882.742 472.78V180.78L60.7422 180.78V472.78L882.742 472.78Z" fill="#959DA8"/>
<path d="M671.242 333.28H885.242V178.28L671.242 178.28V333.28Z" fill="#F4F5F6"/>
<path fill-rule="evenodd" clip-rule="evenodd" d="M886.242 334.28H670.242V177.28L886.242 177.28V334.28ZM884.242 332.28V179.28L672.242 179.28V332.28H884.242Z" fill="#959DA8"/>
<path d="M778.352 78.0001L894.072 179.4L663.742 179.78" fill="#F4F5F6"/>
<path d="M379.742 333.78H593.742V178.78L379.742 178.78V333.78Z" fill="#F4F5F6"/>
<path fill-rule="evenodd" clip-rule="evenodd" d="M594.742 334.78H378.742V177.78L594.742 177.78V334.78ZM592.742 332.78V179.78L380.742 179.78V332.78H592.742Z" fill="#959DA8"/>
<path d="M675.664 179.55H880.054L869.114 169.8H687.774L675.664 179.55Z" fill="#F4F5F6"/>
<path fill-rule="evenodd" clip-rule="evenodd" d="M687.594 169.3H869.301L881.363 180.05H674.242L687.594 169.3ZM687.947 170.3L677.079 179.05H878.738L868.92 170.3H687.947Z" fill="#959DA8"/>
<path fill-rule="evenodd" clip-rule="evenodd" d="M778.353 76.6704L896.732 180.4H879.954V178.4H891.415L778.354 79.3298L665.331 178.4H676.794V180.4H660.016L778.353 76.6704Z" fill="#959DA8"/>
<path fill-rule="evenodd" clip-rule="evenodd" d="M778.373 90.6185L781.57 93.3925L789.3 100.093L789.301 100.093L790.23 100.903L797.41 107.133L802.57 111.612L813.28 120.903L818.57 125.493L824.81 130.903L833.07 138.072L836.34 140.902L839.57 143.703L847.86 150.903L854.5 156.662L858.24 159.902L864.516 165.352L864.773 165.523V165.572L869.75 169.893L880.28 179.023L879.625 179.778L869.095 170.648L863.919 166.156L863.909 166.149L857.585 160.658L853.845 157.418L847.205 151.658L838.915 144.458L835.685 141.658L832.415 138.828L824.155 131.658L817.915 126.248L810.665 119.958L801.915 112.368L796.755 107.888L789.575 101.658L788.645 100.848L788.644 100.847L780.915 94.1482L778.373 91.9423L771.69 97.7381L771.39 97.998L767.223 101.614L767.17 101.658L767.163 101.664L758.341 109.318L755.651 111.658L752.57 114.328L744.961 120.928L744.121 121.658L738.571 126.468L732.683 131.584L732.583 131.665L721.06 141.658L719.57 142.948L711.12 150.278L709.542 151.657L704.57 155.968L699.161 160.657L698.22 161.478L694.57 164.638L687.94 170.388L677.12 179.778L676.465 179.023L687.285 169.633L693.915 163.883L697.564 160.724L698.505 159.903L703.915 155.213L708.885 150.903L710.464 149.524L718.915 142.193L720.405 140.903L731.942 130.896L732.042 130.816L737.915 125.713L743.465 120.903L744.305 120.173L751.915 113.573L754.994 110.903L757.684 108.563L766.522 100.896L766.575 100.853L766.582 100.846L770.735 97.2427L771.035 96.9826L778.373 90.6185Z" fill="#959DA8"/>
<path d="M485.742 78.38L601.462 179.78H370.742" fill="#F4F5F6"/>
<path d="M383.664 179.55H588.054L577.114 169.8H395.774L383.664 179.55Z" fill="#F4F5F6"/>
<path fill-rule="evenodd" clip-rule="evenodd" d="M395.594 169.3H577.301L589.363 180.05H382.242L395.594 169.3ZM395.947 170.3L385.079 179.05H586.738L576.92 170.3H395.947Z" fill="#959DA8"/>
<path fill-rule="evenodd" clip-rule="evenodd" d="M486.353 76.6704L604.732 180.4H587.954V178.4H599.415L486.354 79.3298L373.331 178.4H384.794V180.4H368.016L486.353 76.6704Z" fill="#959DA8"/>
<path fill-rule="evenodd" clip-rule="evenodd" d="M486.373 90.6185L489.57 93.3925L497.3 100.093L497.301 100.093L498.23 100.903L505.41 107.133L510.57 111.612L521.28 120.903L526.57 125.493L532.81 130.903L541.07 138.072L544.34 140.902L547.57 143.703L555.86 150.903L562.5 156.662L566.24 159.902L572.516 165.352L572.773 165.523V165.572L577.75 169.893L588.28 179.023L587.625 179.778L577.095 170.648L571.919 166.156L571.909 166.149L565.585 160.658L561.845 157.418L555.205 151.658L546.915 144.458L543.685 141.658L540.415 138.828L532.155 131.658L525.915 126.248L518.665 119.958L509.915 112.368L504.755 107.888L497.575 101.658L496.645 100.848L496.644 100.847L488.915 94.1482L486.373 91.9423L479.69 97.7381L479.39 97.998L475.223 101.614L475.17 101.658L475.163 101.664L466.341 109.318L463.651 111.658L460.57 114.328L452.961 120.928L452.121 121.658L446.571 126.468L440.683 131.584L440.583 131.665L429.06 141.658L427.57 142.948L419.12 150.278L417.542 151.657L412.57 155.968L407.161 160.657L406.22 161.478L402.57 164.638L395.94 170.388L385.12 179.778L384.465 179.023L395.285 169.633L401.915 163.883L405.564 160.724L406.505 159.903L411.915 155.213L416.885 150.903L418.464 149.524L426.915 142.193L428.405 140.903L439.942 130.896L440.042 130.816L445.915 125.713L451.465 120.903L452.305 120.173L459.915 113.573L462.994 110.903L465.684 108.563L474.522 100.896L474.575 100.853L474.582 100.846L478.735 97.2427L479.035 96.9826L486.373 90.6185Z" fill="#959DA8"/>
<path d="M735.211 365.59H821.271V442.12H735.211V365.59Z" fill="white"/>
<path fill-rule="evenodd" clip-rule="evenodd" d="M734.711 365.09H821.771V442.62H734.711V365.09ZM735.711 366.09V441.62H820.771V366.09H735.711Z" fill="#959DA8"/>
<path fill-rule="evenodd" clip-rule="evenodd" d="M777.742 442.23V365.58H778.742V442.23H777.742Z" fill="#959DA8"/>
<path fill-rule="evenodd" clip-rule="evenodd" d="M735.543 401.16H821.273V402.16H735.543V401.16Z" fill="#959DA8"/>
<path d="M443.211 209.59H529.271V286.12H443.211V209.59Z" fill="white"/>
<path fill-rule="evenodd" clip-rule="evenodd" d="M442.711 209.09H529.771V286.62H442.711V209.09ZM443.711 210.09V285.62H528.771V210.09H443.711Z" fill="#959DA8"/>
<path fill-rule="evenodd" clip-rule="evenodd" d="M485.742 286.23V209.58H486.742V286.23H485.742Z" fill="#959DA8"/>
<path fill-rule="evenodd" clip-rule="evenodd" d="M443.543 245.16H529.273V246.16H443.543V245.16Z" fill="#959DA8"/>
<path d="M59.7422 333.78H273.742V178.78L59.7422 178.78L59.7422 333.78Z" fill="#F4F5F6"/>
<path fill-rule="evenodd" clip-rule="evenodd" d="M274.742 334.78H58.7422L58.7422 177.78L274.742 177.78V334.78ZM272.742 332.78V179.78L60.7422 179.78L60.7422 332.78H272.742Z" fill="#959DA8"/>
<path d="M165.742 78.38L281.462 179.78H52.7422" fill="#F4F5F6"/>
<path d="M63.6641 179.55H268.054L257.114 169.8H75.7742L63.6641 179.55Z" fill="#F4F5F6"/>
<path fill-rule="evenodd" clip-rule="evenodd" d="M75.5944 169.3H257.301L269.363 180.05H62.2422L75.5944 169.3ZM75.9469 170.3L65.0788 179.05H266.738L256.92 170.3H75.9469Z" fill="#959DA8"/>
<path fill-rule="evenodd" clip-rule="evenodd" d="M166.353 76.6704L284.732 180.4H267.954V178.4H279.415L166.354 79.3298L53.3314 178.4H64.7935V180.4H48.0156L166.353 76.6704Z" fill="#959DA8"/>
<path fill-rule="evenodd" clip-rule="evenodd" d="M166.373 90.6185L169.57 93.3925L177.3 100.093L177.301 100.093L178.23 100.903L185.41 107.133L190.57 111.612L201.28 120.903L206.57 125.493L212.81 130.903L221.07 138.072L224.34 140.902L227.57 143.703L235.86 150.903L242.5 156.662L246.24 159.902L252.516 165.352L252.773 165.523V165.572L257.75 169.893L268.28 179.023L267.625 179.778L257.095 170.648L251.919 166.156L251.909 166.149L245.585 160.658L241.845 157.418L235.205 151.658L226.915 144.458L223.685 141.658L220.415 138.828L212.155 131.658L205.915 126.248L198.665 119.958L189.915 112.368L184.755 107.888L177.575 101.658L176.645 100.848L176.644 100.847L168.915 94.1482L166.373 91.9423L159.69 97.7381L159.39 97.998L155.223 101.614L155.17 101.658L155.163 101.664L146.341 109.318L143.651 111.658L140.57 114.328L132.961 120.928L132.121 121.658L126.571 126.468L120.683 131.584L120.583 131.665L109.06 141.658L107.57 142.948L99.1202 150.278L97.5415 151.657L92.5702 155.968L87.1613 160.657L86.2199 161.478L82.5702 164.638L75.9403 170.388L65.1203 179.778L64.4648 179.023L75.2849 169.633L81.915 163.883L85.564 160.724L86.5051 159.903L91.9151 155.213L96.885 150.903L98.4636 149.524L106.915 142.193L108.405 140.903L119.942 130.896L120.042 130.816L125.915 125.713L131.465 120.903L132.305 120.173L139.915 113.573L142.994 110.903L145.684 108.563L154.522 100.896L154.575 100.853L154.582 100.846L158.735 97.2427L159.035 96.9826L166.373 90.6185Z" fill="#959DA8"/>
<path d="M123.211 209.59H209.271V286.12H123.211V209.59Z" fill="white"/>
<path fill-rule="evenodd" clip-rule="evenodd" d="M122.711 209.09H209.771V286.62H122.711V209.09ZM123.711 210.09V285.62H208.771V210.09H123.711Z" fill="#959DA8"/>
<path fill-rule="evenodd" clip-rule="evenodd" d="M165.742 286.23V209.58H166.742V286.23H165.742Z" fill="#959DA8"/>
<path fill-rule="evenodd" clip-rule="evenodd" d="M123.543 245.16H209.273V246.16H123.543V245.16Z" fill="#959DA8"/>
<path d="M609.422 365.32H652.272V458.41H609.422V365.32Z" fill="#D3DCE5"/>
<path d="M615.493 415.561H646.223V371.231H615.493V415.561Z" fill="white"/>
<path fill-rule="evenodd" clip-rule="evenodd" d="M646.723 416.061H614.993V370.731H646.723V416.061ZM645.723 415.061V371.731H615.993V415.061H645.723Z" fill="#959DA8"/>
<path d="M666.453 335.78H674.343V455.78H666.453V335.78Z" fill="#F4F5F6"/>
<path fill-rule="evenodd" clip-rule="evenodd" d="M665.453 334.78H675.343V456.78H665.453V334.78ZM667.453 336.78V454.78H673.343V336.78H667.453Z" fill="#959DA8"/>
<path d="M878.453 335.78H886.343V473.78H878.453V335.78Z" fill="#F4F5F6"/>
<path fill-rule="evenodd" clip-rule="evenodd" d="M877.453 334.78H887.343V474.78H877.453V334.78ZM879.453 336.78V472.78H885.343V336.78H879.453Z" fill="#959DA8"/>
<path d="M588.742 455.401H674.442V465.17H588.742V455.401Z" fill="#F4F5F6"/>
<path fill-rule="evenodd" clip-rule="evenodd" d="M587.742 454.401H675.442V466.17H587.742V454.401ZM589.742 456.401V464.17H673.442V456.401H589.742Z" fill="#959DA8"/>
<path d="M698.482 413.78V474.14H692.012V413.78H698.482Z" fill="#F4F5F6"/>
<path fill-rule="evenodd" clip-rule="evenodd" d="M691.512 413.28H698.982V474.64H691.512V413.28ZM692.512 414.28V473.64H697.982V414.28H692.512Z" fill="#959DA8"/>
<path d="M588.742 465.151H674.442V473.921H588.742V465.151Z" fill="#F4F5F6"/>
<path fill-rule="evenodd" clip-rule="evenodd" d="M587.742 464.151H675.442V474.921H587.742V464.151ZM589.742 466.151V472.921H673.442V466.151H589.742Z" fill="#959DA8"/>
<path d="M644.242 423.28C645.347 423.28 646.242 422.385 646.242 421.28C646.242 420.176 645.347 419.28 644.242 419.28C643.138 419.28 642.242 420.176 642.242 421.28C642.242 422.385 643.138 423.28 644.242 423.28Z" fill="#F4F5F6"/>
<path fill-rule="evenodd" clip-rule="evenodd" d="M644.242 419.78C643.414 419.78 642.742 420.452 642.742 421.28C642.742 422.109 643.414 422.78 644.242 422.78C645.071 422.78 645.742 422.109 645.742 421.28C645.742 420.452 645.071 419.78 644.242 419.78ZM641.742 421.28C641.742 419.9 642.861 418.78 644.242 418.78C645.623 418.78 646.742 419.9 646.742 421.28C646.742 422.661 645.623 423.78 644.242 423.78C642.861 423.78 641.742 422.661 641.742 421.28Z" fill="#959DA8"/>
<path d="M59.0022 473.78L593.742 473.78V335.78L59.0022 335.78V473.78Z" fill="#F4F5F6"/>
<path fill-rule="evenodd" clip-rule="evenodd" d="M594.742 474.78L58.0022 474.78V334.78L594.742 334.78V474.78ZM592.742 472.78V336.78L60.0022 336.78V472.78L592.742 472.78Z" fill="#959DA8"/>
<path d="M586.742 319.78V306.28L632.742 273.78L679.472 307.28L679.742 320.78L633.002 319.78H586.742Z" fill="#F4F5F6"/>
<path fill-rule="evenodd" clip-rule="evenodd" d="M632.746 272.553L680.472 306.767V321.78H678.472V307.794L632.738 275.008L587.742 306.798V320.78H585.742V305.762L632.746 272.553Z" fill="#959DA8"/>
<path fill-rule="evenodd" clip-rule="evenodd" d="M632.744 287.167L679.763 320.874L679.18 321.687L632.74 288.394L587.03 320.689L586.453 319.872L632.744 287.167Z" fill="#959DA8"/>
<path d="M334.742 473.78L577.742 473.78V365.78H334.742V473.78Z" fill="#F4F5F6"/>
<path fill-rule="evenodd" clip-rule="evenodd" d="M578.242 474.28L334.242 474.28V365.28H578.242V474.28ZM577.242 473.28V366.28H335.242V473.28L577.242 473.28Z" fill="#959DA8"/>
<path d="M462.422 384.15C462.422 384.15 476.952 370.28 515.352 370.79C553.752 371.3 568.282 384.14 568.282 384.14V474.4H462.432L462.422 384.15Z" fill="#D3DCE5"/>
<path d="M345.422 384.15C345.422 384.15 359.952 370.28 398.352 370.79C436.752 371.3 451.282 384.14 451.282 384.14V474.4H345.432L345.422 384.15Z" fill="#D3DCE5"/>
<path fill-rule="evenodd" clip-rule="evenodd" d="M514.742 474.92V368.78H516.742V474.92H514.742Z" fill="#F4F5F6"/>
<path fill-rule="evenodd" clip-rule="evenodd" d="M568.812 422.851H461.672V420.851H568.812V422.851Z" fill="#F4F5F6"/>
<path fill-rule="evenodd" clip-rule="evenodd" d="M397.742 474.92V368.78H399.742V474.92H397.742Z" fill="#F4F5F6"/>
<path fill-rule="evenodd" clip-rule="evenodd" d="M451.812 422.851H344.672V420.851H451.812V422.851Z" fill="#F4F5F6"/>
<path d="M519.242 445.28H523.242V424.28H519.242V445.28Z" fill="#F4F5F6"/>
<path fill-rule="evenodd" clip-rule="evenodd" d="M523.742 445.78H518.742V423.78H523.742V445.78ZM522.742 444.78V424.78H519.742V444.78H522.742Z" fill="#959DA8"/>
<path d="M508.242 445.28H512.242V424.28H508.242V445.28Z" fill="#F4F5F6"/>
<path fill-rule="evenodd" clip-rule="evenodd" d="M512.742 445.78H507.742V423.78H512.742V445.78ZM511.742 444.78V424.78H508.742V444.78H511.742Z" fill="#959DA8"/>
<path d="M402.242 445.28H406.242V424.28H402.242V445.28Z" fill="#F4F5F6"/>
<path fill-rule="evenodd" clip-rule="evenodd" d="M406.742 445.78H401.742V423.78H406.742V445.78ZM405.742 444.78V424.78H402.742V444.78H405.742Z" fill="#959DA8"/>
<path d="M391.242 445.28H395.242V424.28H391.242V445.28Z" fill="#F4F5F6"/>
<path fill-rule="evenodd" clip-rule="evenodd" d="M395.742 445.78H390.742V423.78H395.742V445.78ZM394.742 444.78V424.78H391.742V444.78H394.742Z" fill="#959DA8"/>
<path d="M70.7422 473.78L313.742 473.78V365.78H70.7422V473.78Z" fill="#F4F5F6"/>
<path fill-rule="evenodd" clip-rule="evenodd" d="M314.242 474.28L70.2422 474.28V365.28H314.242V474.28ZM313.242 473.28V366.28H71.2422V473.28L313.242 473.28Z" fill="#959DA8"/>
<path d="M198.422 384.15C198.422 384.15 212.952 370.28 251.352 370.79C289.752 371.3 304.282 384.14 304.282 384.14V474.4H198.432L198.422 384.15Z" fill="#D3DCE5"/>
<path d="M81.4219 384.15C81.4219 384.15 95.9519 370.28 134.352 370.79C172.752 371.3 187.282 384.14 187.282 384.14V474.4H81.4319L81.4219 384.15Z" fill="#D3DCE5"/>
<path fill-rule="evenodd" clip-rule="evenodd" d="M250.742 474.92V368.78H252.742V474.92H250.742Z" fill="#F4F5F6"/>
<path fill-rule="evenodd" clip-rule="evenodd" d="M304.812 422.851H197.672V420.851H304.812V422.851Z" fill="#F4F5F6"/>
<path fill-rule="evenodd" clip-rule="evenodd" d="M133.742 474.92V368.78H135.742V474.92H133.742Z" fill="#F4F5F6"/>
<path fill-rule="evenodd" clip-rule="evenodd" d="M187.812 422.851H80.6719V420.851H187.812V422.851Z" fill="#F4F5F6"/>
<path d="M255.242 445.28H259.242V424.28H255.242V445.28Z" fill="#F4F5F6"/>
<path fill-rule="evenodd" clip-rule="evenodd" d="M259.742 445.78H254.742V423.78H259.742V445.78ZM258.742 444.78V424.78H255.742V444.78H258.742Z" fill="#959DA8"/>
<path d="M244.242 445.28H248.242V424.28H244.242V445.28Z" fill="#F4F5F6"/>
<path fill-rule="evenodd" clip-rule="evenodd" d="M248.742 445.78H243.742V423.78H248.742V445.78ZM247.742 444.78V424.78H244.742V444.78H247.742Z" fill="#959DA8"/>
<path d="M138.242 445.28H142.242V424.28H138.242V445.28Z" fill="#F4F5F6"/>
<path fill-rule="evenodd" clip-rule="evenodd" d="M142.742 445.78H137.742V423.78H142.742V445.78ZM141.742 444.78V424.78H138.742V444.78H141.742Z" fill="#959DA8"/>
<path d="M127.242 445.28H131.242V424.28H127.242V445.28Z" fill="#F4F5F6"/>
<path fill-rule="evenodd" clip-rule="evenodd" d="M131.742 445.78H126.742V423.78H131.742V445.78ZM130.742 444.78V424.78H127.742V444.78H130.742Z" fill="#959DA8"/>
<path d="M312.211 209.78H342.731V285.78H312.211V209.78Z" fill="white"/>
<path fill-rule="evenodd" clip-rule="evenodd" d="M311.711 209.28H343.231V286.28H311.711V209.28ZM312.711 210.28V285.28H342.231V210.28H312.711Z" fill="#959DA8"/>
<path fill-rule="evenodd" clip-rule="evenodd" d="M312.211 231.61H342.731V232.61H312.211V231.61Z" fill="#959DA8"/>
<path d="M618.211 209.78H648.731V262.78H618.211V209.78Z" fill="white"/>
<path fill-rule="evenodd" clip-rule="evenodd" d="M617.711 209.28H649.231V263.28H617.711V209.28ZM618.711 210.28V262.28H648.231V210.28H618.711Z" fill="#959DA8"/>
<path fill-rule="evenodd" clip-rule="evenodd" d="M618.211 231.61H648.731V232.61H618.211V231.61Z" fill="#959DA8"/>
<path d="M679.004 393.35L695.444 384.07L711.704 393.67H711.254L710.914 409.81C710.848 412.941 709.552 415.92 707.306 418.103C705.06 420.285 702.045 421.495 698.914 421.47L691.504 421.4C688.383 421.369 685.4 420.114 683.195 417.906C680.99 415.697 679.74 412.711 679.714 409.59L679.584 393.37L679.004 393.35Z" fill="#D3DCE5"/>
<path d="M683.794 402.771H706.664V397.951H683.794V402.771Z" fill="#F4F5F6"/>
<path fill-rule="evenodd" clip-rule="evenodd" d="M707.164 403.271H683.294V397.451H707.164V403.271ZM706.164 402.271V398.451H684.294V402.271H706.164Z" fill="#959DA8"/>
<path d="M323.734 445.79C323.398 445.789 323.063 445.752 322.734 445.68C306.734 442.05 306.734 422.68 306.734 422.68C306.734 396.34 323.734 383.13 323.734 383.13C323.734 383.13 340.734 396.31 340.734 422.67C340.734 422.67 340.734 442.02 324.734 445.67C324.406 445.742 324.071 445.779 323.734 445.78V445.79Z" fill="#80C33F"/>
<path fill-rule="evenodd" clip-rule="evenodd" d="M323.734 409.66C324.011 409.66 324.234 409.884 324.234 410.16V473.91C324.234 474.186 324.011 474.41 323.734 474.41C323.458 474.41 323.234 474.186 323.234 473.91V410.16C323.234 409.884 323.458 409.66 323.734 409.66Z" fill="#2A3A51"/>
<path d="M840.122 273.5H821.262V283.05H840.122V273.5Z" fill="#F4F5F6"/>
<path fill-rule="evenodd" clip-rule="evenodd" d="M820.762 273H840.622V283.55H820.762V273ZM821.762 274V282.55H839.622V274H821.762Z" fill="#959DA8"/>
<path d="M840.122 263.5H821.262V273.27H840.122V263.5Z" fill="#F4F5F6"/>
<path fill-rule="evenodd" clip-rule="evenodd" d="M820.762 263H840.622V273.77H820.762V263ZM821.762 264V272.77H839.622V264H821.762Z" fill="#959DA8"/>
<path d="M840.122 253.5H821.262V263.27H840.122V253.5Z" fill="#F4F5F6"/>
<path fill-rule="evenodd" clip-rule="evenodd" d="M820.762 253H840.622V263.77H820.762V253ZM821.762 254V262.77H839.622V254H821.762Z" fill="#959DA8"/>
<path d="M821.262 253.27H840.122V243.5H821.272V245.66L821.262 253.27Z" fill="#F4F5F6"/>
<path fill-rule="evenodd" clip-rule="evenodd" d="M820.772 243H840.622V253.77H820.762L820.772 245.66V243ZM821.772 244L821.763 252.77H839.622V244H821.772Z" fill="#959DA8"/>
<path d="M840.123 233.5H821.273V243.27H840.123V233.5Z" fill="#F4F5F6"/>
<path fill-rule="evenodd" clip-rule="evenodd" d="M820.773 233H840.623V243.77H820.773V233ZM821.773 234V242.77H839.623V234H821.773Z" fill="#959DA8"/>
<path d="M840.123 223.5H821.273V233.27H840.123V223.5Z" fill="#F4F5F6"/>
<path fill-rule="evenodd" clip-rule="evenodd" d="M820.773 223H840.623V233.77H820.773V223ZM821.773 224V232.77H839.623V224H821.773Z" fill="#959DA8"/>
<path d="M840.123 213.5H821.273V223.27H840.123V213.5Z" fill="#F4F5F6"/>
<path fill-rule="evenodd" clip-rule="evenodd" d="M820.773 213H840.623V223.77H820.773V213ZM821.773 214V222.77H839.623V214H821.773Z" fill="#959DA8"/>
<path d="M735.122 273.5H716.262V283.05H735.122V273.5Z" fill="#F4F5F6"/>
<path fill-rule="evenodd" clip-rule="evenodd" d="M715.762 273H735.622V283.55H715.762V273ZM716.762 274V282.55H734.622V274H716.762Z" fill="#959DA8"/>
<path d="M735.122 263.5H716.262V273.27H735.122V263.5Z" fill="#F4F5F6"/>
<path fill-rule="evenodd" clip-rule="evenodd" d="M715.762 263H735.622V273.77H715.762V263ZM716.762 264V272.77H734.622V264H716.762Z" fill="#959DA8"/>
<path d="M735.122 253.5H716.262V263.27H735.122V253.5Z" fill="#F4F5F6"/>
<path fill-rule="evenodd" clip-rule="evenodd" d="M715.762 253H735.622V263.77H715.762V253ZM716.762 254V262.77H734.622V254H716.762Z" fill="#959DA8"/>
<path d="M716.262 253.27H735.122V243.5H716.272V245.66L716.262 253.27Z" fill="#F4F5F6"/>
<path fill-rule="evenodd" clip-rule="evenodd" d="M715.772 243H735.622V253.77H715.762L715.772 245.66V243ZM716.772 244L716.763 252.77H734.622V244H716.772Z" fill="#959DA8"/>
<path d="M735.123 233.5H716.273V243.27H735.123V233.5Z" fill="#F4F5F6"/>
<path fill-rule="evenodd" clip-rule="evenodd" d="M715.773 233H735.623V243.77H715.773V233ZM716.773 234V242.77H734.623V234H716.773Z" fill="#959DA8"/>
<path d="M735.123 223.5H716.273V233.27H735.123V223.5Z" fill="#F4F5F6"/>
<path fill-rule="evenodd" clip-rule="evenodd" d="M715.773 223H735.623V233.77H715.773V223ZM716.773 224V232.77H734.623V224H716.773Z" fill="#959DA8"/>
<path d="M735.123 213.5H716.273V223.27H735.123V213.5Z" fill="#F4F5F6"/>
<path fill-rule="evenodd" clip-rule="evenodd" d="M715.773 213H735.623V223.77H715.773V213ZM716.773 214V222.77H734.623V214H716.773Z" fill="#959DA8"/>
<path d="M840.122 430.5H821.262V440.05H840.122V430.5Z" fill="#F4F5F6"/>
<path fill-rule="evenodd" clip-rule="evenodd" d="M820.762 430H840.622V440.55H820.762V430ZM821.762 431V439.55H839.622V431H821.762Z" fill="#959DA8"/>
<path d="M840.122 420.5H821.262V430.27H840.122V420.5Z" fill="#F4F5F6"/>
<path fill-rule="evenodd" clip-rule="evenodd" d="M820.762 420H840.622V430.77H820.762V420ZM821.762 421V429.77H839.622V421H821.762Z" fill="#959DA8"/>
<path d="M840.122 410.5H821.262V420.27H840.122V410.5Z" fill="#F4F5F6"/>
<path fill-rule="evenodd" clip-rule="evenodd" d="M820.762 410H840.622V420.77H820.762V410ZM821.762 411V419.77H839.622V411H821.762Z" fill="#959DA8"/>
<path d="M821.262 410.27H840.122V400.5H821.272V402.66L821.262 410.27Z" fill="#F4F5F6"/>
<path fill-rule="evenodd" clip-rule="evenodd" d="M820.772 400H840.622V410.77H820.762L820.772 402.66V400ZM821.772 401L821.763 409.77H839.622V401H821.772Z" fill="#959DA8"/>
<path d="M840.123 390.5H821.273V400.27H840.123V390.5Z" fill="#F4F5F6"/>
<path fill-rule="evenodd" clip-rule="evenodd" d="M820.773 390H840.623V400.77H820.773V390ZM821.773 391V399.77H839.623V391H821.773Z" fill="#959DA8"/>
<path d="M840.123 380.5H821.273V390.27H840.123V380.5Z" fill="#F4F5F6"/>
<path fill-rule="evenodd" clip-rule="evenodd" d="M820.773 380H840.623V390.77H820.773V380ZM821.773 381V389.77H839.623V381H821.773Z" fill="#959DA8"/>
<path d="M840.123 370.5H821.273V380.27H840.123V370.5Z" fill="#F4F5F6"/>
<path fill-rule="evenodd" clip-rule="evenodd" d="M820.773 370H840.623V380.77H820.773V370ZM821.773 371V379.77H839.623V371H821.773Z" fill="#959DA8"/>
<path d="M735.122 430.5H716.262V440.05H735.122V430.5Z" fill="#F4F5F6"/>
<path fill-rule="evenodd" clip-rule="evenodd" d="M715.762 430H735.622V440.55H715.762V430ZM716.762 431V439.55H734.622V431H716.762Z" fill="#959DA8"/>
<path d="M735.122 420.5H716.262V430.27H735.122V420.5Z" fill="#F4F5F6"/>
<path fill-rule="evenodd" clip-rule="evenodd" d="M715.762 420H735.622V430.77H715.762V420ZM716.762 421V429.77H734.622V421H716.762Z" fill="#959DA8"/>
<path d="M735.122 410.5H716.262V420.27H735.122V410.5Z" fill="#F4F5F6"/>
<path fill-rule="evenodd" clip-rule="evenodd" d="M715.762 410H735.622V420.77H715.762V410ZM716.762 411V419.77H734.622V411H716.762Z" fill="#959DA8"/>
<path d="M716.262 410.27H735.122V400.5H716.272V402.66L716.262 410.27Z" fill="#F4F5F6"/>
<path fill-rule="evenodd" clip-rule="evenodd" d="M715.772 400H735.622V410.77H715.762L715.772 402.66V400ZM716.772 401L716.763 409.77H734.622V401H716.772Z" fill="#959DA8"/>
<path d="M735.123 390.5H716.273V400.27H735.123V390.5Z" fill="#F4F5F6"/>
<path fill-rule="evenodd" clip-rule="evenodd" d="M715.773 390H735.623V400.77H715.773V390ZM716.773 391V399.77H734.623V391H716.773Z" fill="#959DA8"/>
<path d="M735.123 380.5H716.273V390.27H735.123V380.5Z" fill="#F4F5F6"/>
<path fill-rule="evenodd" clip-rule="evenodd" d="M715.773 380H735.623V390.77H715.773V380ZM716.773 381V389.77H734.623V381H716.773Z" fill="#959DA8"/>
<path d="M735.123 370.5H716.273V380.27H735.123V370.5Z" fill="#F4F5F6"/>
<path fill-rule="evenodd" clip-rule="evenodd" d="M715.773 370H735.623V380.77H715.773V370ZM716.773 371V379.77H734.623V371H716.773Z" fill="#959DA8"/>
<path d="M548.122 273.5H529.262V283.05H548.122V273.5Z" fill="#F4F5F6"/>
<path fill-rule="evenodd" clip-rule="evenodd" d="M528.762 273H548.622V283.55H528.762V273ZM529.762 274V282.55H547.622V274H529.762Z" fill="#959DA8"/>
<path d="M548.122 263.5H529.262V273.27H548.122V263.5Z" fill="#F4F5F6"/>
<path fill-rule="evenodd" clip-rule="evenodd" d="M528.762 263H548.622V273.77H528.762V263ZM529.762 264V272.77H547.622V264H529.762Z" fill="#959DA8"/>
<path d="M548.122 253.5H529.262V263.27H548.122V253.5Z" fill="#F4F5F6"/>
<path fill-rule="evenodd" clip-rule="evenodd" d="M528.762 253H548.622V263.77H528.762V253ZM529.762 254V262.77H547.622V254H529.762Z" fill="#959DA8"/>
<path d="M529.262 253.27H548.122V243.5H529.272V245.66L529.262 253.27Z" fill="#F4F5F6"/>
<path fill-rule="evenodd" clip-rule="evenodd" d="M528.772 243H548.622V253.77H528.762L528.772 245.66V243ZM529.772 244L529.763 252.77H547.622V244H529.772Z" fill="#959DA8"/>
<path d="M548.123 233.5H529.273V243.27H548.123V233.5Z" fill="#F4F5F6"/>
<path fill-rule="evenodd" clip-rule="evenodd" d="M528.773 233H548.623V243.77H528.773V233ZM529.773 234V242.77H547.623V234H529.773Z" fill="#959DA8"/>
<path d="M548.123 223.5H529.273V233.27H548.123V223.5Z" fill="#F4F5F6"/>
<path fill-rule="evenodd" clip-rule="evenodd" d="M528.773 223H548.623V233.77H528.773V223ZM529.773 224V232.77H547.623V224H529.773Z" fill="#959DA8"/>
<path d="M548.123 213.5H529.273V223.27H548.123V213.5Z" fill="#F4F5F6"/>
<path fill-rule="evenodd" clip-rule="evenodd" d="M528.773 213H548.623V223.77H528.773V213ZM529.773 214V222.77H547.623V214H529.773Z" fill="#959DA8"/>
<path d="M443.122 273.5H424.262V283.05H443.122V273.5Z" fill="#F4F5F6"/>
<path fill-rule="evenodd" clip-rule="evenodd" d="M423.762 273H443.622V283.55H423.762V273ZM424.762 274V282.55H442.622V274H424.762Z" fill="#959DA8"/>
<path d="M443.122 263.5H424.262V273.27H443.122V263.5Z" fill="#F4F5F6"/>
<path fill-rule="evenodd" clip-rule="evenodd" d="M423.762 263H443.622V273.77H423.762V263ZM424.762 264V272.77H442.622V264H424.762Z" fill="#959DA8"/>
<path d="M443.122 253.5H424.262V263.27H443.122V253.5Z" fill="#F4F5F6"/>
<path fill-rule="evenodd" clip-rule="evenodd" d="M423.762 253H443.622V263.77H423.762V253ZM424.762 254V262.77H442.622V254H424.762Z" fill="#959DA8"/>
<path d="M424.262 253.27H443.122V243.5H424.272V245.66L424.262 253.27Z" fill="#F4F5F6"/>
<path fill-rule="evenodd" clip-rule="evenodd" d="M423.772 243H443.622V253.77H423.762L423.772 245.66V243ZM424.772 244L424.763 252.77H442.622V244H424.772Z" fill="#959DA8"/>
<path d="M443.123 233.5H424.273V243.27H443.123V233.5Z" fill="#F4F5F6"/>
<path fill-rule="evenodd" clip-rule="evenodd" d="M423.773 233H443.623V243.77H423.773V233ZM424.773 234V242.77H442.623V234H424.773Z" fill="#959DA8"/>
<path d="M443.123 223.5H424.273V233.27H443.123V223.5Z" fill="#F4F5F6"/>
<path fill-rule="evenodd" clip-rule="evenodd" d="M423.773 223H443.623V233.77H423.773V223ZM424.773 224V232.77H442.623V224H424.773Z" fill="#959DA8"/>
<path d="M443.123 213.5H424.273V223.27H443.123V213.5Z" fill="#F4F5F6"/>
<path fill-rule="evenodd" clip-rule="evenodd" d="M423.773 213H443.623V223.77H423.773V213ZM424.773 214V222.77H442.623V214H424.773Z" fill="#959DA8"/>
<path d="M228.122 273.5H209.262V283.05H228.122V273.5Z" fill="#F4F5F6"/>
<path fill-rule="evenodd" clip-rule="evenodd" d="M208.762 273H228.622V283.55H208.762V273ZM209.762 274V282.55H227.622V274H209.762Z" fill="#959DA8"/>
<path d="M228.122 263.5H209.262V273.27H228.122V263.5Z" fill="#F4F5F6"/>
<path fill-rule="evenodd" clip-rule="evenodd" d="M208.762 263H228.622V273.77H208.762V263ZM209.762 264V272.77H227.622V264H209.762Z" fill="#959DA8"/>
<path d="M228.122 253.5H209.262V263.27H228.122V253.5Z" fill="#F4F5F6"/>
<path fill-rule="evenodd" clip-rule="evenodd" d="M208.762 253H228.622V263.77H208.762V253ZM209.762 254V262.77H227.622V254H209.762Z" fill="#959DA8"/>
<path d="M209.262 253.27H228.122V243.5H209.272V245.66L209.262 253.27Z" fill="#F4F5F6"/>
<path fill-rule="evenodd" clip-rule="evenodd" d="M208.772 243H228.622V253.77H208.762L208.772 245.66V243ZM209.772 244L209.763 252.77H227.622V244H209.772Z" fill="#959DA8"/>
<path d="M228.123 233.5H209.273V243.27H228.123V233.5Z" fill="#F4F5F6"/>
<path fill-rule="evenodd" clip-rule="evenodd" d="M208.773 233H228.623V243.77H208.773V233ZM209.773 234V242.77H227.623V234H209.773Z" fill="#959DA8"/>
<path d="M228.123 223.5H209.273V233.27H228.123V223.5Z" fill="#F4F5F6"/>
<path fill-rule="evenodd" clip-rule="evenodd" d="M208.773 223H228.623V233.77H208.773V223ZM209.773 224V232.77H227.623V224H209.773Z" fill="#959DA8"/>
<path d="M228.123 213.5H209.273V223.27H228.123V213.5Z" fill="#F4F5F6"/>
<path fill-rule="evenodd" clip-rule="evenodd" d="M208.773 213H228.623V223.77H208.773V213ZM209.773 214V222.77H227.623V214H209.773Z" fill="#959DA8"/>
<path d="M123.122 273.5H104.262V283.05H123.122V273.5Z" fill="#F4F5F6"/>
<path fill-rule="evenodd" clip-rule="evenodd" d="M103.762 273H123.622V283.55H103.762V273ZM104.762 274V282.55H122.622V274H104.762Z" fill="#959DA8"/>
<path d="M123.122 263.5H104.262V273.27H123.122V263.5Z" fill="#F4F5F6"/>
<path fill-rule="evenodd" clip-rule="evenodd" d="M103.762 263H123.622V273.77H103.762V263ZM104.762 264V272.77H122.622V264H104.762Z" fill="#959DA8"/>
<path d="M123.122 253.5H104.262V263.27H123.122V253.5Z" fill="#F4F5F6"/>
<path fill-rule="evenodd" clip-rule="evenodd" d="M103.762 253H123.622V263.77H103.762V253ZM104.762 254V262.77H122.622V254H104.762Z" fill="#959DA8"/>
<path d="M104.262 253.27H123.122V243.5H104.272V245.66L104.262 253.27Z" fill="#F4F5F6"/>
<path fill-rule="evenodd" clip-rule="evenodd" d="M103.772 243H123.622V253.77H103.762L103.772 245.66V243ZM104.772 244L104.763 252.77H122.622V244H104.772Z" fill="#959DA8"/>
<path d="M123.123 233.5H104.273V243.27H123.123V233.5Z" fill="#F4F5F6"/>
<path fill-rule="evenodd" clip-rule="evenodd" d="M103.773 233H123.623V243.77H103.773V233ZM104.773 234V242.77H122.623V234H104.773Z" fill="#959DA8"/>
<path d="M123.123 223.5H104.273V233.27H123.123V223.5Z" fill="#F4F5F6"/>
<path fill-rule="evenodd" clip-rule="evenodd" d="M103.773 223H123.623V233.77H103.773V223ZM104.773 224V232.77H122.623V224H104.773Z" fill="#959DA8"/>
<path d="M123.123 213.5H104.273V223.27H123.123V213.5Z" fill="#F4F5F6"/>
<path fill-rule="evenodd" clip-rule="evenodd" d="M103.773 213H123.623V223.77H103.773V213ZM104.773 214V222.77H122.623V214H104.773Z" fill="#959DA8"/>
<path fill-rule="evenodd" clip-rule="evenodd" d="M840.168 283.675H820.528V213.215H840.168V283.675ZM839.318 282.825V214.065H821.378V282.825H839.318Z" fill="#959DA8"/>
<path d="M735.211 209.59H821.271V286.12H735.211V209.59Z" fill="white"/>
<path fill-rule="evenodd" clip-rule="evenodd" d="M734.711 209.09H821.771V286.62H734.711V209.09ZM735.711 210.09V285.62H820.771V210.09H735.711Z" fill="#959DA8"/>
<path fill-rule="evenodd" clip-rule="evenodd" d="M777.742 286.23V209.58H778.742V286.23H777.742Z" fill="#959DA8"/>
<path fill-rule="evenodd" clip-rule="evenodd" d="M735.543 245.16H821.273V246.16H735.543V245.16Z" fill="#959DA8"/>
<path d="M177.753 101.06H155.203L166.493 91.2902H166.513L177.753 101.06Z" fill="#F4F5F6"/>
<path fill-rule="evenodd" clip-rule="evenodd" d="M166.305 90.7902H166.698L179.089 101.56H153.859L166.305 90.7902ZM166.501 91.9433L156.543 100.56H176.414L166.501 91.9433Z" fill="#959DA8"/>
<path d="M189.261 111.06H143.641L154.931 101.29H178.021L189.261 111.06Z" fill="#F4F5F6"/>
<path fill-rule="evenodd" clip-rule="evenodd" d="M154.746 100.79H178.21L190.6 111.56H142.301L154.746 100.79ZM155.119 101.79L144.985 110.56H187.925L177.836 101.79H155.119Z" fill="#959DA8"/>
<path d="M200.764 121.06H132.094L143.384 111.29H189.524L200.764 121.06Z" fill="#F4F5F6"/>
<path fill-rule="evenodd" clip-rule="evenodd" d="M143.196 110.79H189.709L202.099 121.56H130.75L143.196 110.79ZM143.568 111.79L133.434 120.56H199.425L189.335 111.79H143.568Z" fill="#959DA8"/>
<path d="M497.753 101.06H475.203L486.493 91.2902H486.513L497.753 101.06Z" fill="#F4F5F6"/>
<path fill-rule="evenodd" clip-rule="evenodd" d="M486.305 90.7902H486.698L499.089 101.56H473.859L486.305 90.7902ZM486.501 91.9433L476.543 100.56H496.414L486.501 91.9433Z" fill="#959DA8"/>
<path d="M509.261 111.06H463.641L474.931 101.29H498.021L509.261 111.06Z" fill="#F4F5F6"/>
<path fill-rule="evenodd" clip-rule="evenodd" d="M474.746 100.79H498.21L510.6 111.56H462.301L474.746 100.79ZM475.119 101.79L464.985 110.56H507.925L497.836 101.79H475.119Z" fill="#959DA8"/>
<path d="M520.764 121.06H452.094L463.384 111.29H509.524L520.764 121.06Z" fill="#F4F5F6"/>
<path fill-rule="evenodd" clip-rule="evenodd" d="M463.196 110.79H509.709L522.099 121.56H450.75L463.196 110.79ZM463.568 111.79L453.434 120.56H519.425L509.335 111.79H463.568Z" fill="#959DA8"/>
<path d="M789.753 101.06H767.203L778.493 91.2902H778.513L789.753 101.06Z" fill="#F4F5F6"/>
<path fill-rule="evenodd" clip-rule="evenodd" d="M778.305 90.7902H778.698L791.089 101.56H765.859L778.305 90.7902ZM778.501 91.9433L768.543 100.56H788.414L778.501 91.9433Z" fill="#959DA8"/>
<path d="M801.261 111.06H755.641L766.931 101.29H790.021L801.261 111.06Z" fill="#F4F5F6"/>
<path fill-rule="evenodd" clip-rule="evenodd" d="M766.746 100.79H790.21L802.6 111.56H754.301L766.746 100.79ZM767.119 101.79L756.985 110.56H799.925L789.836 101.79H767.119Z" fill="#959DA8"/>
<path d="M812.764 121.06H744.094L755.384 111.29H801.524L812.764 121.06Z" fill="#F4F5F6"/>
<path fill-rule="evenodd" clip-rule="evenodd" d="M755.196 110.79H801.709L814.099 121.56H742.75L755.196 110.79ZM755.568 111.79L745.434 120.56H811.425L801.335 111.79H755.568Z" fill="#959DA8"/>
<path d="M66.0039 319.78V306.28L20.0039 273.78L-26.7162 307.28L-26.9961 320.78L19.0039 319.78H66.0039Z" fill="#F4F5F6"/>
<path fill-rule="evenodd" clip-rule="evenodd" d="M19.9971 272.553L67.0013 305.763V320.78H65.0013V306.798L20.0056 275.008L-25.7188 307.794V321.78H-27.7188V306.767L19.9971 272.553Z" fill="#959DA8"/>
<path fill-rule="evenodd" clip-rule="evenodd" d="M20.0015 287.167L66.2922 319.872L65.7151 320.689L20.0058 288.394L-26.4251 321.687L-27.0078 320.874L20.0015 287.167Z" fill="#959DA8"/>
<path d="M894 320.78H-241V335.78H894V320.78Z" fill="#F4F5F6"/>
<path fill-rule="evenodd" clip-rule="evenodd" d="M-242 319.78H895V336.78H-242V319.78ZM-240 321.78V334.78H893V321.78H-240Z" fill="#959DA8"/>
<path d="M823 470.08C822.991 467.855 823.518 465.659 824.537 463.68C825.555 461.701 827.035 459.997 828.852 458.711C830.669 457.425 832.768 456.595 834.973 456.292C837.178 455.989 839.424 456.222 841.52 456.97C842.33 453.708 843.971 450.711 846.283 448.272C848.595 445.832 851.499 444.032 854.712 443.047C857.926 442.062 861.34 441.927 864.622 442.653C867.904 443.379 870.942 444.942 873.44 447.19C875.205 442.255 878.655 438.101 883.181 435.46C887.708 432.818 893.022 431.859 898.186 432.75C903.351 433.642 908.036 436.327 911.415 440.333C914.794 444.339 916.652 449.409 916.66 454.65C916.663 455.425 916.623 456.2 916.54 456.97C918.046 456.42 919.637 456.139 921.24 456.14C928.94 456.14 935.64 462.39 935.15 470.05C935.079 471.313 934.868 472.564 934.52 473.78H823.52C823.185 472.565 823.017 471.311 823.02 470.05L823 470.08Z" fill="#80C33F"/>
<line y1="474" x2="1300" y2="474" stroke="#D9DDE2" stroke-width="2" stroke-miterlimit="10"/>
</g>
</svg>
