<svg width="1300" height="499" viewBox="0 0 1300 499" fill="none" xmlns="http://www.w3.org/2000/svg">
<mask id="mask0" mask-type="alpha" maskUnits="userSpaceOnUse" x="0" y="0" width="1300" height="499">
<rect width="1300" height="499" rx="16" fill="#2A3A51"/>
</mask>
<g mask="url(#mask0)">
<path d="M193 178.78H-241L-233.7 79.7804H193V178.78Z" fill="#D3DCE5"/>
<path fill-rule="evenodd" clip-rule="evenodd" d="M-125.606 76.6704L-9.54959 178.4H52.0023V180.4H-24.0458V178.4H-12.5837L-125.606 79.3298L-238.667 178.4H-227.206V180.4H-243.984L-125.606 76.6704Z" fill="#959DA8"/>
<path d="M43.3344 365.32H0.484375V458.41H43.3344V365.32Z" fill="#D3DCE5"/>
<path d="M37.2614 371.231H6.53125V415.561H37.2614V371.231Z" fill="white"/>
<path fill-rule="evenodd" clip-rule="evenodd" d="M6.03125 370.731H37.7614V416.061H6.03125V370.731ZM7.03125 371.731V415.061H36.7614V371.731H7.03125Z" fill="#959DA8"/>
<path d="M64.0048 455.4H-21.6953V465.17H64.0048V455.4Z" fill="#F4F5F6"/>
<path fill-rule="evenodd" clip-rule="evenodd" d="M-22.6953 454.4H65.0048V466.17H-22.6953V454.4ZM-20.6953 456.4V464.17H63.0048V456.4H-20.6953Z" fill="#959DA8"/>
<path d="M64.0048 465.15H-21.6953V473.92H64.0048V465.15Z" fill="#F4F5F6"/>
<path fill-rule="evenodd" clip-rule="evenodd" d="M-22.6953 464.15H65.0048V474.92H-22.6953V464.15ZM-20.6953 466.15V472.92H63.0048V466.15H-20.6953Z" fill="#959DA8"/>
<path d="M8.50391 423.28C9.60848 423.28 10.5039 422.385 10.5039 421.28C10.5039 420.176 9.60848 419.28 8.50391 419.28C7.39934 419.28 6.50391 420.176 6.50391 421.28C6.50391 422.385 7.39934 423.28 8.50391 423.28Z" fill="#F4F5F6"/>
<path fill-rule="evenodd" clip-rule="evenodd" d="M8.50391 419.78C7.67548 419.78 7.00391 420.452 7.00391 421.28C7.00391 422.109 7.67548 422.78 8.50391 422.78C9.33233 422.78 10.0039 422.109 10.0039 421.28C10.0039 420.452 9.33233 419.78 8.50391 419.78ZM6.00391 421.28C6.00391 419.9 7.12319 418.78 8.50391 418.78C9.88462 418.78 11.0039 419.9 11.0039 421.28C11.0039 422.661 9.88462 423.78 8.50391 423.78C7.12319 423.78 6.00391 422.661 6.00391 421.28Z" fill="#959DA8"/>
<path d="M34.5416 209.78H4.01172V262.78H34.5316L34.5416 209.78Z" fill="white"/>
<path fill-rule="evenodd" clip-rule="evenodd" d="M3.51172 209.28H35.0417L35.0315 263.28H3.51172V209.28ZM4.51172 210.28V262.28H34.0317L34.0415 210.28H4.51172Z" fill="#959DA8"/>
<path fill-rule="evenodd" clip-rule="evenodd" d="M34.5416 232.61H4.01172V231.61H34.5416V232.61Z" fill="#959DA8"/>
<path d="M60.7422 178.78H893.742L879.742 79.7804H60.7422V178.78Z" fill="#D3DCE5"/>
<path d="M59.7422 473.78L883.742 473.78V179.78L59.7422 179.78V473.78Z" fill="#F4F5F6"/>
<path fill-rule="evenodd" clip-rule="evenodd" d="M884.742 474.78L58.7422 474.78V178.78L884.742 178.78V474.78ZM882.742 472.78V180.78L60.7422 180.78V472.78L882.742 472.78Z" fill="#959DA8"/>
<path d="M671.242 333.28H885.242V178.28L671.242 178.28V333.28Z" fill="#F4F5F6"/>
<path fill-rule="evenodd" clip-rule="evenodd" d="M886.242 334.28H670.242V177.28L886.242 177.28V334.28ZM884.242 332.28V179.28L672.242 179.28V332.28H884.242Z" fill="#959DA8"/>
<path d="M778.352 78.0001L894.072 179.4L663.742 179.78" fill="#F4F5F6"/>
<path d="M379.742 333.78H593.742V178.78L379.742 178.78V333.78Z" fill="#F4F5F6"/>
<path fill-rule="evenodd" clip-rule="evenodd" d="M594.742 334.78H378.742V177.78L594.742 177.78V334.78ZM592.742 332.78V179.78L380.742 179.78V332.78H592.742Z" fill="#959DA8"/>
<path d="M675.664 179.55H880.054L869.114 169.8H687.774L675.664 179.55Z" fill="#F4F5F6"/>
<path fill-rule="evenodd" clip-rule="evenodd" d="M687.594 169.3H869.301L881.363 180.05H674.242L687.594 169.3ZM687.947 170.3L677.079 179.05H878.738L868.92 170.3H687.947Z" fill="#959DA8"/>
<path fill-rule="evenodd" clip-rule="evenodd" d="M778.353 76.6704L896.732 180.4H879.954V178.4H891.415L778.354 79.3298L665.331 178.4H676.794V180.4H660.016L778.353 76.6704Z" fill="#959DA8"/>
<path fill-rule="evenodd" clip-rule="evenodd" d="M778.373 90.6185L781.57 93.3925L789.3 100.093L789.301 100.093L790.23 100.903L797.41 107.133L802.57 111.612L813.28 120.903L818.57 125.493L824.81 130.903L833.07 138.072L836.34 140.902L839.57 143.703L847.86 150.903L854.5 156.662L858.24 159.902L864.516 165.352L864.773 165.523V165.572L869.75 169.893L880.28 179.023L879.625 179.778L869.095 170.648L863.919 166.156L863.909 166.149L857.585 160.658L853.845 157.418L847.205 151.658L838.915 144.458L835.685 141.658L832.415 138.828L824.155 131.658L817.915 126.248L810.665 119.958L801.915 112.368L796.755 107.888L789.575 101.658L788.645 100.848L788.644 100.847L780.915 94.1482L778.373 91.9423L771.69 97.7381L771.39 97.998L767.223 101.614L767.17 101.658L767.163 101.664L758.341 109.318L755.651 111.658L752.57 114.328L744.961 120.928L744.121 121.658L738.571 126.468L732.683 131.584L732.583 131.665L721.06 141.658L719.57 142.948L711.12 150.278L709.542 151.657L704.57 155.968L699.161 160.657L698.22 161.478L694.57 164.638L687.94 170.388L677.12 179.778L676.465 179.023L687.285 169.633L693.915 163.883L697.564 160.724L698.505 159.903L703.915 155.213L708.885 150.903L710.464 149.524L718.915 142.193L720.405 140.903L731.942 130.896L732.042 130.816L737.915 125.713L743.465 120.903L744.305 120.173L751.915 113.573L754.994 110.903L757.684 108.563L766.522 100.896L766.575 100.853L766.582 100.846L770.735 97.2427L771.035 96.9826L778.373 90.6185Z" fill="#959DA8"/>
<path d="M485.742 78.38L601.462 179.78H370.742" fill="#F4F5F6"/>
<path d="M383.664 179.55H588.054L577.114 169.8H395.774L383.664 179.55Z" fill="#F4F5F6"/>
<path fill-rule="evenodd" clip-rule="evenodd" d="M395.594 169.3H577.301L589.363 180.05H382.242L395.594 169.3ZM395.947 170.3L385.079 179.05H586.738L576.92 170.3H395.947Z" fill="#959DA8"/>
<path fill-rule="evenodd" clip-rule="evenodd" d="M486.353 76.6704L604.732 180.4H587.954V178.4H599.415L486.354 79.3298L373.331 178.4H384.794V180.4H368.016L486.353 76.6704Z" fill="#959DA8"/>
<path fill-rule="evenodd" clip-rule="evenodd" d="M486.373 90.6185L489.57 93.3925L497.3 100.093L497.301 100.093L498.23 100.903L505.41 107.133L510.57 111.612L521.28 120.903L526.57 125.493L532.81 130.903L541.07 138.072L544.34 140.902L547.57 143.703L555.86 150.903L562.5 156.662L566.24 159.902L572.516 165.352L572.773 165.523V165.572L577.75 169.893L588.28 179.023L587.625 179.778L577.095 170.648L571.919 166.156L571.909 166.149L565.585 160.658L561.845 157.418L555.205 151.658L546.915 144.458L543.685 141.658L540.415 138.828L532.155 131.658L525.915 126.248L518.665 119.958L509.915 112.368L504.755 107.888L497.575 101.658L496.645 100.848L496.644 100.847L488.915 94.1482L486.373 91.9423L479.69 97.7381L479.39 97.998L475.223 101.614L475.17 101.658L475.163 101.664L466.341 109.318L463.651 111.658L460.57 114.328L452.961 120.928L452.121 121.658L446.571 126.468L440.683 131.584L440.583 131.665L429.06 141.658L427.57 142.948L419.12 150.278L417.542 151.657L412.57 155.968L407.161 160.657L406.22 161.478L402.57 164.638L395.94 170.388L385.12 179.778L384.465 179.023L395.285 169.633L401.915 163.883L405.564 160.724L406.505 159.903L411.915 155.213L416.885 150.903L418.464 149.524L426.915 142.193L428.405 140.903L439.942 130.896L440.042 130.816L445.915 125.713L451.465 120.903L452.305 120.173L459.915 113.573L462.994 110.903L465.684 108.563L474.522 100.896L474.575 100.853L474.582 100.846L478.735 97.2427L479.035 96.9826L486.373 90.6185Z" fill="#959DA8"/>
<path d="M735.211 365.59H821.271V442.12H735.211V365.59Z" fill="white"/>
<path fill-rule="evenodd" clip-rule="evenodd" d="M734.711 365.09H821.771V442.62H734.711V365.09ZM735.711 366.09V441.62H820.771V366.09H735.711Z" fill="#959DA8"/>
<path fill-rule="evenodd" clip-rule="evenodd" d="M777.742 442.23V365.58H778.742V442.23H777.742Z" fill="#959DA8"/>
<path fill-rule="evenodd" clip-rule="evenodd" d="M735.543 401.16H821.273V402.16H735.543V401.16Z" fill="#959DA8"/>
<path d="M443.211 209.59H529.271V286.12H443.211V209.59Z" fill="white"/>
<path fill-rule="evenodd" clip-rule="evenodd" d="M442.711 209.09H529.771V286.62H442.711V209.09ZM443.711 210.09V285.62H528.771V210.09H443.711Z" fill="#959DA8"/>
<path fill-rule="evenodd" clip-rule="evenodd" d="M485.742 286.23V209.58H486.742V286.23H485.742Z" fill="#959DA8"/>
<path fill-rule="evenodd" clip-rule="evenodd" d="M443.543 245.16H529.273V246.16H443.543V245.16Z" fill="#959DA8"/>
<path d="M59.7422 333.78H273.742V178.78L59.7422 178.78L59.7422 333.78Z" fill="#F4F5F6"/>
<path fill-rule="evenodd" clip-rule="evenodd" d="M274.742 334.78H58.7422L58.7422 177.78L274.742 177.78V334.78ZM272.742 332.78V179.78L60.7422 179.78L60.7422 332.78H272.742Z" fill="#959DA8"/>
<path d="M165.742 78.38L281.462 179.78H52.7422" fill="#F4F5F6"/>
<path d="M63.6641 179.55H268.054L257.114 169.8H75.7742L63.6641 179.55Z" fill="#F4F5F6"/>
<path fill-rule="evenodd" clip-rule="evenodd" d="M75.5944 169.3H257.301L269.363 180.05H62.2422L75.5944 169.3ZM75.9469 170.3L65.0788 179.05H266.738L256.92 170.3H75.9469Z" fill="#959DA8"/>
<path fill-rule="evenodd" clip-rule="evenodd" d="M166.353 76.6704L284.732 180.4H267.954V178.4H279.415L166.354 79.3298L53.3314 178.4H64.7935V180.4H48.0156L166.353 76.6704Z" fill="#959DA8"/>
<path fill-rule="evenodd" clip-rule="evenodd" d="M166.373 90.6185L169.57 93.3925L177.3 100.093L177.301 100.093L178.23 100.903L185.41 107.133L190.57 111.612L201.28 120.903L206.57 125.493L212.81 130.903L221.07 138.072L224.34 140.902L227.57 143.703L235.86 150.903L242.5 156.662L246.24 159.902L252.516 165.352L252.773 165.523V165.572L257.75 169.893L268.28 179.023L267.625 179.778L257.095 170.648L251.919 166.156L251.909 166.149L245.585 160.658L241.845 157.418L235.205 151.658L226.915 144.458L223.685 141.658L220.415 138.828L212.155 131.658L205.915 126.248L198.665 119.958L189.915 112.368L184.755 107.888L177.575 101.658L176.645 100.848L176.644 100.847L168.915 94.1482L166.373 91.9423L159.69 97.7381L159.39 97.998L155.223 101.614L155.17 101.658L155.163 101.664L146.341 109.318L143.651 111.658L140.57 114.328L132.961 120.928L132.121 121.658L126.571 126.468L120.683 131.584L120.583 131.665L109.06 141.658L107.57 142.948L99.1202 150.278L97.5415 151.657L92.5702 155.968L87.1613 160.657L86.2199 161.478L82.5702 164.638L75.9403 170.388L65.1203 179.778L64.4648 179.023L75.2849 169.633L81.915 163.883L85.564 160.724L86.5051 159.903L91.9151 155.213L96.885 150.903L98.4636 149.524L106.915 142.193L108.405 140.903L119.942 130.896L120.042 130.816L125.915 125.713L131.465 120.903L132.305 120.173L139.915 113.573L142.994 110.903L145.684 108.563L154.522 100.896L154.575 100.853L154.582 100.846L158.735 97.2427L159.035 96.9826L166.373 90.6185Z" fill="#959DA8"/>
<path d="M123.211 209.59H209.271V286.12H123.211V209.59Z" fill="white"/>
<path fill-rule="evenodd" clip-rule="evenodd" d="M122.711 209.09H209.771V286.62H122.711V209.09ZM123.711 210.09V285.62H208.771V210.09H123.711Z" fill="#959DA8"/>
<path fill-rule="evenodd" clip-rule="evenodd" d="M165.742 286.23V209.58H166.742V286.23H165.742Z" fill="#959DA8"/>
<path fill-rule="evenodd" clip-rule="evenodd" d="M123.543 245.16H209.273V246.16H123.543V245.16Z" fill="#959DA8"/>
<path d="M609.422 365.32H652.272V458.41H609.422V365.32Z" fill="#D3DCE5"/>
<path d="M615.493 415.561H646.223V371.231H615.493V415.561Z" fill="white"/>
<path fill-rule="evenodd" clip-rule="evenodd" d="M646.723 416.061H614.993V370.731H646.723V416.061ZM645.723 415.061V371.731H615.993V415.061H645.723Z" fill="#959DA8"/>
<path d="M666.453 335.78H674.343V455.78H666.453V335.78Z" fill="#F4F5F6"/>
<path fill-rule="evenodd" clip-rule="evenodd" d="M665.453 334.78H675.343V456.78H665.453V334.78ZM667.453 336.78V454.78H673.343V336.78H667.453Z" fill="#959DA8"/>
<path d="M878.453 335.78H886.343V473.78H878.453V335.78Z" fill="#F4F5F6"/>
<path fill-rule="evenodd" clip-rule="evenodd" d="M877.453 334.78H887.343V474.78H877.453V334.78ZM879.453 336.78V472.78H885.343V336.78H879.453Z" fill="#959DA8"/>
<path d="M588.742 455.4H674.442V465.17H588.742V455.4Z" fill="#F4F5F6"/>
<path fill-rule="evenodd" clip-rule="evenodd" d="M587.742 454.4H675.442V466.17H587.742V454.4ZM589.742 456.4V464.17H673.442V456.4H589.742Z" fill="#959DA8"/>
<path d="M698.482 413.78V474.14H692.012V413.78H698.482Z" fill="#F4F5F6"/>
<path fill-rule="evenodd" clip-rule="evenodd" d="M691.512 413.28H698.982V474.64H691.512V413.28ZM692.512 414.28V473.64H697.982V414.28H692.512Z" fill="#959DA8"/>
<path d="M588.742 465.15H674.442V473.92H588.742V465.15Z" fill="#F4F5F6"/>
<path fill-rule="evenodd" clip-rule="evenodd" d="M587.742 464.15H675.442V474.92H587.742V464.15ZM589.742 466.15V472.92H673.442V466.15H589.742Z" fill="#959DA8"/>
<path d="M644.242 423.28C645.347 423.28 646.242 422.385 646.242 421.28C646.242 420.176 645.347 419.28 644.242 419.28C643.138 419.28 642.242 420.176 642.242 421.28C642.242 422.385 643.138 423.28 644.242 423.28Z" fill="#F4F5F6"/>
<path fill-rule="evenodd" clip-rule="evenodd" d="M644.242 419.78C643.414 419.78 642.742 420.452 642.742 421.28C642.742 422.109 643.414 422.78 644.242 422.78C645.071 422.78 645.742 422.109 645.742 421.28C645.742 420.452 645.071 419.78 644.242 419.78ZM641.742 421.28C641.742 419.9 642.861 418.78 644.242 418.78C645.623 418.78 646.742 419.9 646.742 421.28C646.742 422.661 645.623 423.78 644.242 423.78C642.861 423.78 641.742 422.661 641.742 421.28Z" fill="#959DA8"/>
<path d="M59.0022 473.78L593.742 473.78V335.78L59.0022 335.78V473.78Z" fill="#F4F5F6"/>
<path fill-rule="evenodd" clip-rule="evenodd" d="M594.742 474.78L58.0022 474.78V334.78L594.742 334.78V474.78ZM592.742 472.78V336.78L60.0022 336.78V472.78L592.742 472.78Z" fill="#959DA8"/>
<path d="M586.742 319.78V306.28L632.742 273.78L679.472 307.28L679.742 320.78L633.002 319.78H586.742Z" fill="#F4F5F6"/>
<path fill-rule="evenodd" clip-rule="evenodd" d="M632.746 272.553L680.472 306.767V321.78H678.472V307.794L632.738 275.008L587.742 306.798V320.78H585.742V305.762L632.746 272.553Z" fill="#959DA8"/>
<path fill-rule="evenodd" clip-rule="evenodd" d="M632.744 287.167L679.763 320.874L679.18 321.687L632.74 288.394L587.03 320.689L586.453 319.872L632.744 287.167Z" fill="#959DA8"/>
<path d="M334.742 473.78L577.742 473.78V365.78H334.742V473.78Z" fill="#F4F5F6"/>
<path fill-rule="evenodd" clip-rule="evenodd" d="M578.242 474.28L334.242 474.28V365.28H578.242V474.28ZM577.242 473.28V366.28H335.242V473.28L577.242 473.28Z" fill="#959DA8"/>
<path d="M462.422 384.15C462.422 384.15 476.952 370.28 515.352 370.79C553.752 371.3 568.282 384.14 568.282 384.14V474.4H462.432L462.422 384.15Z" fill="#D3DCE5"/>
<path d="M345.422 384.15C345.422 384.15 359.952 370.28 398.352 370.79C436.752 371.3 451.282 384.14 451.282 384.14V474.4H345.432L345.422 384.15Z" fill="#D3DCE5"/>
<path fill-rule="evenodd" clip-rule="evenodd" d="M514.742 474.92V368.78H516.742V474.92H514.742Z" fill="#F4F5F6"/>
<path fill-rule="evenodd" clip-rule="evenodd" d="M568.812 422.851H461.672V420.851H568.812V422.851Z" fill="#F4F5F6"/>
<path fill-rule="evenodd" clip-rule="evenodd" d="M397.742 474.92V368.78H399.742V474.92H397.742Z" fill="#F4F5F6"/>
<path fill-rule="evenodd" clip-rule="evenodd" d="M451.812 422.851H344.672V420.851H451.812V422.851Z" fill="#F4F5F6"/>
<path d="M519.242 445.28H523.242V424.28H519.242V445.28Z" fill="#F4F5F6"/>
<path fill-rule="evenodd" clip-rule="evenodd" d="M523.742 445.78H518.742V423.78H523.742V445.78ZM522.742 444.78V424.78H519.742V444.78H522.742Z" fill="#959DA8"/>
<path d="M508.242 445.28H512.242V424.28H508.242V445.28Z" fill="#F4F5F6"/>
<path fill-rule="evenodd" clip-rule="evenodd" d="M512.742 445.78H507.742V423.78H512.742V445.78ZM511.742 444.78V424.78H508.742V444.78H511.742Z" fill="#959DA8"/>
<path d="M402.242 445.28H406.242V424.28H402.242V445.28Z" fill="#F4F5F6"/>
<path fill-rule="evenodd" clip-rule="evenodd" d="M406.742 445.78H401.742V423.78H406.742V445.78ZM405.742 444.78V424.78H402.742V444.78H405.742Z" fill="#959DA8"/>
<path d="M391.242 445.28H395.242V424.28H391.242V445.28Z" fill="#F4F5F6"/>
<path fill-rule="evenodd" clip-rule="evenodd" d="M395.742 445.78H390.742V423.78H395.742V445.78ZM394.742 444.78V424.78H391.742V444.78H394.742Z" fill="#959DA8"/>
<path d="M70.7422 473.78L313.742 473.78V365.78H70.7422V473.78Z" fill="#F4F5F6"/>
<path fill-rule="evenodd" clip-rule="evenodd" d="M314.242 474.28L70.2422 474.28V365.28H314.242V474.28ZM313.242 473.28V366.28H71.2422V473.28L313.242 473.28Z" fill="#959DA8"/>
<path d="M198.422 384.15C198.422 384.15 212.952 370.28 251.352 370.79C289.752 371.3 304.282 384.14 304.282 384.14V474.4H198.432L198.422 384.15Z" fill="#D3DCE5"/>
<path d="M81.4219 384.15C81.4219 384.15 95.9519 370.28 134.352 370.79C172.752 371.3 187.282 384.14 187.282 384.14V474.4H81.4319L81.4219 384.15Z" fill="#D3DCE5"/>
<path fill-rule="evenodd" clip-rule="evenodd" d="M250.742 474.92V368.78H252.742V474.92H250.742Z" fill="#F4F5F6"/>
<path fill-rule="evenodd" clip-rule="evenodd" d="M304.812 422.851H197.672V420.851H304.812V422.851Z" fill="#F4F5F6"/>
<path fill-rule="evenodd" clip-rule="evenodd" d="M133.742 474.92V368.78H135.742V474.92H133.742Z" fill="#F4F5F6"/>
<path fill-rule="evenodd" clip-rule="evenodd" d="M187.812 422.851H80.6719V420.851H187.812V422.851Z" fill="#F4F5F6"/>
<path d="M255.242 445.28H259.242V424.28H255.242V445.28Z" fill="#F4F5F6"/>
<path fill-rule="evenodd" clip-rule="evenodd" d="M259.742 445.78H254.742V423.78H259.742V445.78ZM258.742 444.78V424.78H255.742V444.78H258.742Z" fill="#959DA8"/>
<path d="M244.242 445.28H248.242V424.28H244.242V445.28Z" fill="#F4F5F6"/>
<path fill-rule="evenodd" clip-rule="evenodd" d="M248.742 445.78H243.742V423.78H248.742V445.78ZM247.742 444.78V424.78H244.742V444.78H247.742Z" fill="#959DA8"/>
<path d="M138.242 445.28H142.242V424.28H138.242V445.28Z" fill="#F4F5F6"/>
<path fill-rule="evenodd" clip-rule="evenodd" d="M142.742 445.78H137.742V423.78H142.742V445.78ZM141.742 444.78V424.78H138.742V444.78H141.742Z" fill="#959DA8"/>
<path d="M127.242 445.28H131.242V424.28H127.242V445.28Z" fill="#F4F5F6"/>
<path fill-rule="evenodd" clip-rule="evenodd" d="M131.742 445.78H126.742V423.78H131.742V445.78ZM130.742 444.78V424.78H127.742V444.78H130.742Z" fill="#959DA8"/>
<path d="M312.211 209.78H342.731V285.78H312.211V209.78Z" fill="white"/>
<path fill-rule="evenodd" clip-rule="evenodd" d="M311.711 209.28H343.231V286.28H311.711V209.28ZM312.711 210.28V285.28H342.231V210.28H312.711Z" fill="#959DA8"/>
<path fill-rule="evenodd" clip-rule="evenodd" d="M312.211 231.61H342.731V232.61H312.211V231.61Z" fill="#959DA8"/>
<path d="M618.211 209.78H648.731V262.78H618.211V209.78Z" fill="white"/>
<path fill-rule="evenodd" clip-rule="evenodd" d="M617.711 209.28H649.231V263.28H617.711V209.28ZM618.711 210.28V262.28H648.231V210.28H618.711Z" fill="#959DA8"/>
<path fill-rule="evenodd" clip-rule="evenodd" d="M618.211 231.61H648.731V232.61H618.211V231.61Z" fill="#959DA8"/>
<path d="M679.004 393.35L695.444 384.07L711.704 393.67H711.254L710.914 409.81C710.848 412.941 709.552 415.92 707.306 418.103C705.06 420.285 702.045 421.495 698.914 421.47L691.504 421.4C688.383 421.369 685.4 420.114 683.195 417.905C680.99 415.697 679.74 412.711 679.714 409.59L679.584 393.37L679.004 393.35Z" fill="#D3DCE5"/>
<path d="M683.794 402.771H706.664V397.951H683.794V402.771Z" fill="#F4F5F6"/>
<path fill-rule="evenodd" clip-rule="evenodd" d="M707.164 403.271H683.294V397.451H707.164V403.271ZM706.164 402.271V398.451H684.294V402.271H706.164Z" fill="#959DA8"/>
<path d="M323.734 445.79C323.398 445.789 323.063 445.752 322.734 445.68C306.734 442.05 306.734 422.68 306.734 422.68C306.734 396.34 323.734 383.13 323.734 383.13C323.734 383.13 340.734 396.31 340.734 422.67C340.734 422.67 340.734 442.02 324.734 445.67C324.406 445.742 324.071 445.779 323.734 445.78V445.79Z" fill="#80C33F"/>
<path fill-rule="evenodd" clip-rule="evenodd" d="M323.734 409.66C324.011 409.66 324.234 409.884 324.234 410.16V473.91C324.234 474.186 324.011 474.41 323.734 474.41C323.458 474.41 323.234 474.186 323.234 473.91V410.16C323.234 409.884 323.458 409.66 323.734 409.66Z" fill="#2A3A51"/>
<path d="M840.122 273.5H821.262V283.05H840.122V273.5Z" fill="#F4F5F6"/>
<path fill-rule="evenodd" clip-rule="evenodd" d="M820.762 273H840.622V283.55H820.762V273ZM821.762 274V282.55H839.622V274H821.762Z" fill="#959DA8"/>
<path d="M840.122 263.5H821.262V273.27H840.122V263.5Z" fill="#F4F5F6"/>
<path fill-rule="evenodd" clip-rule="evenodd" d="M820.762 263H840.622V273.77H820.762V263ZM821.762 264V272.77H839.622V264H821.762Z" fill="#959DA8"/>
<path d="M840.122 253.5H821.262V263.27H840.122V253.5Z" fill="#F4F5F6"/>
<path fill-rule="evenodd" clip-rule="evenodd" d="M820.762 253H840.622V263.77H820.762V253ZM821.762 254V262.77H839.622V254H821.762Z" fill="#959DA8"/>
<path d="M821.262 253.27H840.122V243.5H821.272V245.66L821.262 253.27Z" fill="#F4F5F6"/>
<path fill-rule="evenodd" clip-rule="evenodd" d="M820.772 243H840.622V253.77H820.762L820.772 245.66V243ZM821.772 244L821.763 252.77H839.622V244H821.772Z" fill="#959DA8"/>
<path d="M840.123 233.5H821.273V243.27H840.123V233.5Z" fill="#F4F5F6"/>
<path fill-rule="evenodd" clip-rule="evenodd" d="M820.773 233H840.623V243.77H820.773V233ZM821.773 234V242.77H839.623V234H821.773Z" fill="#959DA8"/>
<path d="M840.123 223.5H821.273V233.27H840.123V223.5Z" fill="#F4F5F6"/>
<path fill-rule="evenodd" clip-rule="evenodd" d="M820.773 223H840.623V233.77H820.773V223ZM821.773 224V232.77H839.623V224H821.773Z" fill="#959DA8"/>
<path d="M840.123 213.5H821.273V223.27H840.123V213.5Z" fill="#F4F5F6"/>
<path fill-rule="evenodd" clip-rule="evenodd" d="M820.773 213H840.623V223.77H820.773V213ZM821.773 214V222.77H839.623V214H821.773Z" fill="#959DA8"/>
<path d="M735.122 273.5H716.262V283.05H735.122V273.5Z" fill="#F4F5F6"/>
<path fill-rule="evenodd" clip-rule="evenodd" d="M715.762 273H735.622V283.55H715.762V273ZM716.762 274V282.55H734.622V274H716.762Z" fill="#959DA8"/>
<path d="M735.122 263.5H716.262V273.27H735.122V263.5Z" fill="#F4F5F6"/>
<path fill-rule="evenodd" clip-rule="evenodd" d="M715.762 263H735.622V273.77H715.762V263ZM716.762 264V272.77H734.622V264H716.762Z" fill="#959DA8"/>
<path d="M735.122 253.5H716.262V263.27H735.122V253.5Z" fill="#F4F5F6"/>
<path fill-rule="evenodd" clip-rule="evenodd" d="M715.762 253H735.622V263.77H715.762V253ZM716.762 254V262.77H734.622V254H716.762Z" fill="#959DA8"/>
<path d="M716.262 253.27H735.122V243.5H716.272V245.66L716.262 253.27Z" fill="#F4F5F6"/>
<path fill-rule="evenodd" clip-rule="evenodd" d="M715.772 243H735.622V253.77H715.762L715.772 245.66V243ZM716.772 244L716.763 252.77H734.622V244H716.772Z" fill="#959DA8"/>
<path d="M735.123 233.5H716.273V243.27H735.123V233.5Z" fill="#F4F5F6"/>
<path fill-rule="evenodd" clip-rule="evenodd" d="M715.773 233H735.623V243.77H715.773V233ZM716.773 234V242.77H734.623V234H716.773Z" fill="#959DA8"/>
<path d="M735.123 223.5H716.273V233.27H735.123V223.5Z" fill="#F4F5F6"/>
<path fill-rule="evenodd" clip-rule="evenodd" d="M715.773 223H735.623V233.77H715.773V223ZM716.773 224V232.77H734.623V224H716.773Z" fill="#959DA8"/>
<path d="M735.123 213.5H716.273V223.27H735.123V213.5Z" fill="#F4F5F6"/>
<path fill-rule="evenodd" clip-rule="evenodd" d="M715.773 213H735.623V223.77H715.773V213ZM716.773 214V222.77H734.623V214H716.773Z" fill="#959DA8"/>
<path d="M840.122 430.5H821.262V440.05H840.122V430.5Z" fill="#F4F5F6"/>
<path fill-rule="evenodd" clip-rule="evenodd" d="M820.762 430H840.622V440.55H820.762V430ZM821.762 431V439.55H839.622V431H821.762Z" fill="#959DA8"/>
<path d="M840.122 420.5H821.262V430.27H840.122V420.5Z" fill="#F4F5F6"/>
<path fill-rule="evenodd" clip-rule="evenodd" d="M820.762 420H840.622V430.77H820.762V420ZM821.762 421V429.77H839.622V421H821.762Z" fill="#959DA8"/>
<path d="M840.122 410.5H821.262V420.27H840.122V410.5Z" fill="#F4F5F6"/>
<path fill-rule="evenodd" clip-rule="evenodd" d="M820.762 410H840.622V420.77H820.762V410ZM821.762 411V419.77H839.622V411H821.762Z" fill="#959DA8"/>
<path d="M821.262 410.27H840.122V400.5H821.272V402.66L821.262 410.27Z" fill="#F4F5F6"/>
<path fill-rule="evenodd" clip-rule="evenodd" d="M820.772 400H840.622V410.77H820.762L820.772 402.66V400ZM821.772 401L821.763 409.77H839.622V401H821.772Z" fill="#959DA8"/>
<path d="M840.123 390.5H821.273V400.27H840.123V390.5Z" fill="#F4F5F6"/>
<path fill-rule="evenodd" clip-rule="evenodd" d="M820.773 390H840.623V400.77H820.773V390ZM821.773 391V399.77H839.623V391H821.773Z" fill="#959DA8"/>
<path d="M840.123 380.5H821.273V390.27H840.123V380.5Z" fill="#F4F5F6"/>
<path fill-rule="evenodd" clip-rule="evenodd" d="M820.773 380H840.623V390.77H820.773V380ZM821.773 381V389.77H839.623V381H821.773Z" fill="#959DA8"/>
<path d="M840.123 370.5H821.273V380.27H840.123V370.5Z" fill="#F4F5F6"/>
<path fill-rule="evenodd" clip-rule="evenodd" d="M820.773 370H840.623V380.77H820.773V370ZM821.773 371V379.77H839.623V371H821.773Z" fill="#959DA8"/>
<path d="M735.122 430.5H716.262V440.05H735.122V430.5Z" fill="#F4F5F6"/>
<path fill-rule="evenodd" clip-rule="evenodd" d="M715.762 430H735.622V440.55H715.762V430ZM716.762 431V439.55H734.622V431H716.762Z" fill="#959DA8"/>
<path d="M735.122 420.5H716.262V430.27H735.122V420.5Z" fill="#F4F5F6"/>
<path fill-rule="evenodd" clip-rule="evenodd" d="M715.762 420H735.622V430.77H715.762V420ZM716.762 421V429.77H734.622V421H716.762Z" fill="#959DA8"/>
<path d="M735.122 410.5H716.262V420.27H735.122V410.5Z" fill="#F4F5F6"/>
<path fill-rule="evenodd" clip-rule="evenodd" d="M715.762 410H735.622V420.77H715.762V410ZM716.762 411V419.77H734.622V411H716.762Z" fill="#959DA8"/>
<path d="M716.262 410.27H735.122V400.5H716.272V402.66L716.262 410.27Z" fill="#F4F5F6"/>
<path fill-rule="evenodd" clip-rule="evenodd" d="M715.772 400H735.622V410.77H715.762L715.772 402.66V400ZM716.772 401L716.763 409.77H734.622V401H716.772Z" fill="#959DA8"/>
<path d="M735.123 390.5H716.273V400.27H735.123V390.5Z" fill="#F4F5F6"/>
<path fill-rule="evenodd" clip-rule="evenodd" d="M715.773 390H735.623V400.77H715.773V390ZM716.773 391V399.77H734.623V391H716.773Z" fill="#959DA8"/>
<path d="M735.123 380.5H716.273V390.27H735.123V380.5Z" fill="#F4F5F6"/>
<path fill-rule="evenodd" clip-rule="evenodd" d="M715.773 380H735.623V390.77H715.773V380ZM716.773 381V389.77H734.623V381H716.773Z" fill="#959DA8"/>
<path d="M735.123 370.5H716.273V380.27H735.123V370.5Z" fill="#F4F5F6"/>
<path fill-rule="evenodd" clip-rule="evenodd" d="M715.773 370H735.623V380.77H715.773V370ZM716.773 371V379.77H734.623V371H716.773Z" fill="#959DA8"/>
<path d="M548.122 273.5H529.262V283.05H548.122V273.5Z" fill="#F4F5F6"/>
<path fill-rule="evenodd" clip-rule="evenodd" d="M528.762 273H548.622V283.55H528.762V273ZM529.762 274V282.55H547.622V274H529.762Z" fill="#959DA8"/>
<path d="M548.122 263.5H529.262V273.27H548.122V263.5Z" fill="#F4F5F6"/>
<path fill-rule="evenodd" clip-rule="evenodd" d="M528.762 263H548.622V273.77H528.762V263ZM529.762 264V272.77H547.622V264H529.762Z" fill="#959DA8"/>
<path d="M548.122 253.5H529.262V263.27H548.122V253.5Z" fill="#F4F5F6"/>
<path fill-rule="evenodd" clip-rule="evenodd" d="M528.762 253H548.622V263.77H528.762V253ZM529.762 254V262.77H547.622V254H529.762Z" fill="#959DA8"/>
<path d="M529.262 253.27H548.122V243.5H529.272V245.66L529.262 253.27Z" fill="#F4F5F6"/>
<path fill-rule="evenodd" clip-rule="evenodd" d="M528.772 243H548.622V253.77H528.762L528.772 245.66V243ZM529.772 244L529.763 252.77H547.622V244H529.772Z" fill="#959DA8"/>
<path d="M548.123 233.5H529.273V243.27H548.123V233.5Z" fill="#F4F5F6"/>
<path fill-rule="evenodd" clip-rule="evenodd" d="M528.773 233H548.623V243.77H528.773V233ZM529.773 234V242.77H547.623V234H529.773Z" fill="#959DA8"/>
<path d="M548.123 223.5H529.273V233.27H548.123V223.5Z" fill="#F4F5F6"/>
<path fill-rule="evenodd" clip-rule="evenodd" d="M528.773 223H548.623V233.77H528.773V223ZM529.773 224V232.77H547.623V224H529.773Z" fill="#959DA8"/>
<path d="M548.123 213.5H529.273V223.27H548.123V213.5Z" fill="#F4F5F6"/>
<path fill-rule="evenodd" clip-rule="evenodd" d="M528.773 213H548.623V223.77H528.773V213ZM529.773 214V222.77H547.623V214H529.773Z" fill="#959DA8"/>
<path d="M443.122 273.5H424.262V283.05H443.122V273.5Z" fill="#F4F5F6"/>
<path fill-rule="evenodd" clip-rule="evenodd" d="M423.762 273H443.622V283.55H423.762V273ZM424.762 274V282.55H442.622V274H424.762Z" fill="#959DA8"/>
<path d="M443.122 263.5H424.262V273.27H443.122V263.5Z" fill="#F4F5F6"/>
<path fill-rule="evenodd" clip-rule="evenodd" d="M423.762 263H443.622V273.77H423.762V263ZM424.762 264V272.77H442.622V264H424.762Z" fill="#959DA8"/>
<path d="M443.122 253.5H424.262V263.27H443.122V253.5Z" fill="#F4F5F6"/>
<path fill-rule="evenodd" clip-rule="evenodd" d="M423.762 253H443.622V263.77H423.762V253ZM424.762 254V262.77H442.622V254H424.762Z" fill="#959DA8"/>
<path d="M424.262 253.27H443.122V243.5H424.272V245.66L424.262 253.27Z" fill="#F4F5F6"/>
<path fill-rule="evenodd" clip-rule="evenodd" d="M423.772 243H443.622V253.77H423.762L423.772 245.66V243ZM424.772 244L424.763 252.77H442.622V244H424.772Z" fill="#959DA8"/>
<path d="M443.123 233.5H424.273V243.27H443.123V233.5Z" fill="#F4F5F6"/>
<path fill-rule="evenodd" clip-rule="evenodd" d="M423.773 233H443.623V243.77H423.773V233ZM424.773 234V242.77H442.623V234H424.773Z" fill="#959DA8"/>
<path d="M443.123 223.5H424.273V233.27H443.123V223.5Z" fill="#F4F5F6"/>
<path fill-rule="evenodd" clip-rule="evenodd" d="M423.773 223H443.623V233.77H423.773V223ZM424.773 224V232.77H442.623V224H424.773Z" fill="#959DA8"/>
<path d="M443.123 213.5H424.273V223.27H443.123V213.5Z" fill="#F4F5F6"/>
<path fill-rule="evenodd" clip-rule="evenodd" d="M423.773 213H443.623V223.77H423.773V213ZM424.773 214V222.77H442.623V214H424.773Z" fill="#959DA8"/>
<path d="M228.122 273.5H209.262V283.05H228.122V273.5Z" fill="#F4F5F6"/>
<path fill-rule="evenodd" clip-rule="evenodd" d="M208.762 273H228.622V283.55H208.762V273ZM209.762 274V282.55H227.622V274H209.762Z" fill="#959DA8"/>
<path d="M228.122 263.5H209.262V273.27H228.122V263.5Z" fill="#F4F5F6"/>
<path fill-rule="evenodd" clip-rule="evenodd" d="M208.762 263H228.622V273.77H208.762V263ZM209.762 264V272.77H227.622V264H209.762Z" fill="#959DA8"/>
<path d="M228.122 253.5H209.262V263.27H228.122V253.5Z" fill="#F4F5F6"/>
<path fill-rule="evenodd" clip-rule="evenodd" d="M208.762 253H228.622V263.77H208.762V253ZM209.762 254V262.77H227.622V254H209.762Z" fill="#959DA8"/>
<path d="M209.262 253.27H228.122V243.5H209.272V245.66L209.262 253.27Z" fill="#F4F5F6"/>
<path fill-rule="evenodd" clip-rule="evenodd" d="M208.772 243H228.622V253.77H208.762L208.772 245.66V243ZM209.772 244L209.763 252.77H227.622V244H209.772Z" fill="#959DA8"/>
<path d="M228.123 233.5H209.273V243.27H228.123V233.5Z" fill="#F4F5F6"/>
<path fill-rule="evenodd" clip-rule="evenodd" d="M208.773 233H228.623V243.77H208.773V233ZM209.773 234V242.77H227.623V234H209.773Z" fill="#959DA8"/>
<path d="M228.123 223.5H209.273V233.27H228.123V223.5Z" fill="#F4F5F6"/>
<path fill-rule="evenodd" clip-rule="evenodd" d="M208.773 223H228.623V233.77H208.773V223ZM209.773 224V232.77H227.623V224H209.773Z" fill="#959DA8"/>
<path d="M228.123 213.5H209.273V223.27H228.123V213.5Z" fill="#F4F5F6"/>
<path fill-rule="evenodd" clip-rule="evenodd" d="M208.773 213H228.623V223.77H208.773V213ZM209.773 214V222.77H227.623V214H209.773Z" fill="#959DA8"/>
<path d="M123.122 273.5H104.262V283.05H123.122V273.5Z" fill="#F4F5F6"/>
<path fill-rule="evenodd" clip-rule="evenodd" d="M103.762 273H123.622V283.55H103.762V273ZM104.762 274V282.55H122.622V274H104.762Z" fill="#959DA8"/>
<path d="M123.122 263.5H104.262V273.27H123.122V263.5Z" fill="#F4F5F6"/>
<path fill-rule="evenodd" clip-rule="evenodd" d="M103.762 263H123.622V273.77H103.762V263ZM104.762 264V272.77H122.622V264H104.762Z" fill="#959DA8"/>
<path d="M123.122 253.5H104.262V263.27H123.122V253.5Z" fill="#F4F5F6"/>
<path fill-rule="evenodd" clip-rule="evenodd" d="M103.762 253H123.622V263.77H103.762V253ZM104.762 254V262.77H122.622V254H104.762Z" fill="#959DA8"/>
<path d="M104.262 253.27H123.122V243.5H104.272V245.66L104.262 253.27Z" fill="#F4F5F6"/>
<path fill-rule="evenodd" clip-rule="evenodd" d="M103.772 243H123.622V253.77H103.762L103.772 245.66V243ZM104.772 244L104.763 252.77H122.622V244H104.772Z" fill="#959DA8"/>
<path d="M123.123 233.5H104.273V243.27H123.123V233.5Z" fill="#F4F5F6"/>
<path fill-rule="evenodd" clip-rule="evenodd" d="M103.773 233H123.623V243.77H103.773V233ZM104.773 234V242.77H122.623V234H104.773Z" fill="#959DA8"/>
<path d="M123.123 223.5H104.273V233.27H123.123V223.5Z" fill="#F4F5F6"/>
<path fill-rule="evenodd" clip-rule="evenodd" d="M103.773 223H123.623V233.77H103.773V223ZM104.773 224V232.77H122.623V224H104.773Z" fill="#959DA8"/>
<path d="M123.123 213.5H104.273V223.27H123.123V213.5Z" fill="#F4F5F6"/>
<path fill-rule="evenodd" clip-rule="evenodd" d="M103.773 213H123.623V223.77H103.773V213ZM104.773 214V222.77H122.623V214H104.773Z" fill="#959DA8"/>
<path fill-rule="evenodd" clip-rule="evenodd" d="M840.168 283.675H820.528V213.215H840.168V283.675ZM839.318 282.825V214.065H821.378V282.825H839.318Z" fill="#959DA8"/>
<path d="M735.211 209.59H821.271V286.12H735.211V209.59Z" fill="white"/>
<path fill-rule="evenodd" clip-rule="evenodd" d="M734.711 209.09H821.771V286.62H734.711V209.09ZM735.711 210.09V285.62H820.771V210.09H735.711Z" fill="#959DA8"/>
<path fill-rule="evenodd" clip-rule="evenodd" d="M777.742 286.23V209.58H778.742V286.23H777.742Z" fill="#959DA8"/>
<path fill-rule="evenodd" clip-rule="evenodd" d="M735.543 245.16H821.273V246.16H735.543V245.16Z" fill="#959DA8"/>
<path d="M177.753 101.06H155.203L166.493 91.2901H166.513L177.753 101.06Z" fill="#F4F5F6"/>
<path fill-rule="evenodd" clip-rule="evenodd" d="M166.305 90.7901H166.698L179.089 101.56H153.859L166.305 90.7901ZM166.501 91.9433L156.543 100.56H176.414L166.501 91.9433Z" fill="#959DA8"/>
<path d="M189.261 111.06H143.641L154.931 101.29H178.021L189.261 111.06Z" fill="#F4F5F6"/>
<path fill-rule="evenodd" clip-rule="evenodd" d="M154.746 100.79H178.21L190.6 111.56H142.301L154.746 100.79ZM155.119 101.79L144.985 110.56H187.925L177.836 101.79H155.119Z" fill="#959DA8"/>
<path d="M200.764 121.06H132.094L143.384 111.29H189.524L200.764 121.06Z" fill="#F4F5F6"/>
<path fill-rule="evenodd" clip-rule="evenodd" d="M143.196 110.79H189.709L202.099 121.56H130.75L143.196 110.79ZM143.568 111.79L133.434 120.56H199.425L189.335 111.79H143.568Z" fill="#959DA8"/>
<path d="M497.753 101.06H475.203L486.493 91.2901H486.513L497.753 101.06Z" fill="#F4F5F6"/>
<path fill-rule="evenodd" clip-rule="evenodd" d="M486.305 90.7901H486.698L499.089 101.56H473.859L486.305 90.7901ZM486.501 91.9433L476.543 100.56H496.414L486.501 91.9433Z" fill="#959DA8"/>
<path d="M509.261 111.06H463.641L474.931 101.29H498.021L509.261 111.06Z" fill="#F4F5F6"/>
<path fill-rule="evenodd" clip-rule="evenodd" d="M474.746 100.79H498.21L510.6 111.56H462.301L474.746 100.79ZM475.119 101.79L464.985 110.56H507.925L497.836 101.79H475.119Z" fill="#959DA8"/>
<path d="M520.764 121.06H452.094L463.384 111.29H509.524L520.764 121.06Z" fill="#F4F5F6"/>
<path fill-rule="evenodd" clip-rule="evenodd" d="M463.196 110.79H509.709L522.099 121.56H450.75L463.196 110.79ZM463.568 111.79L453.434 120.56H519.425L509.335 111.79H463.568Z" fill="#959DA8"/>
<path d="M789.753 101.06H767.203L778.493 91.2901H778.513L789.753 101.06Z" fill="#F4F5F6"/>
<path fill-rule="evenodd" clip-rule="evenodd" d="M778.305 90.7901H778.698L791.089 101.56H765.859L778.305 90.7901ZM778.501 91.9433L768.543 100.56H788.414L778.501 91.9433Z" fill="#959DA8"/>
<path d="M801.261 111.06H755.641L766.931 101.29H790.021L801.261 111.06Z" fill="#F4F5F6"/>
<path fill-rule="evenodd" clip-rule="evenodd" d="M766.746 100.79H790.21L802.6 111.56H754.301L766.746 100.79ZM767.119 101.79L756.985 110.56H799.925L789.836 101.79H767.119Z" fill="#959DA8"/>
<path d="M812.764 121.06H744.094L755.384 111.29H801.524L812.764 121.06Z" fill="#F4F5F6"/>
<path fill-rule="evenodd" clip-rule="evenodd" d="M755.196 110.79H801.709L814.099 121.56H742.75L755.196 110.79ZM755.568 111.79L745.434 120.56H811.425L801.335 111.79H755.568Z" fill="#959DA8"/>
<path d="M66.0039 319.78V306.28L20.0039 273.78L-26.7162 307.28L-26.9961 320.78L19.0039 319.78H66.0039Z" fill="#F4F5F6"/>
<path fill-rule="evenodd" clip-rule="evenodd" d="M19.9971 272.553L67.0013 305.762V320.78H65.0013V306.798L20.0056 275.008L-25.7188 307.794V321.78H-27.7188V306.767L19.9971 272.553Z" fill="#959DA8"/>
<path fill-rule="evenodd" clip-rule="evenodd" d="M20.0015 287.167L66.2922 319.872L65.7151 320.689L20.0058 288.394L-26.4251 321.687L-27.0078 320.874L20.0015 287.167Z" fill="#959DA8"/>
<path d="M894 320.78H-241V335.78H894V320.78Z" fill="#F4F5F6"/>
<path fill-rule="evenodd" clip-rule="evenodd" d="M-242 319.78H895V336.78H-242V319.78ZM-240 321.78V334.78H893V321.78H-240Z" fill="#959DA8"/>
<path d="M823 470.08C822.991 467.855 823.518 465.659 824.537 463.68C825.555 461.701 827.035 459.997 828.852 458.711C830.669 457.425 832.768 456.595 834.973 456.292C837.178 455.989 839.424 456.222 841.52 456.97C842.33 453.708 843.971 450.711 846.283 448.272C848.595 445.832 851.499 444.032 854.712 443.047C857.926 442.062 861.34 441.927 864.622 442.653C867.904 443.379 870.942 444.942 873.44 447.19C875.205 442.255 878.655 438.101 883.181 435.46C887.708 432.818 893.022 431.859 898.186 432.75C903.351 433.642 908.036 436.327 911.415 440.333C914.794 444.339 916.652 449.409 916.66 454.65C916.663 455.425 916.623 456.2 916.54 456.97C918.046 456.42 919.637 456.139 921.24 456.14C928.94 456.14 935.64 462.39 935.15 470.05C935.079 471.313 934.868 472.564 934.52 473.78H823.52C823.185 472.565 823.017 471.311 823.02 470.05L823 470.08Z" fill="#80C33F"/>
<path fill-rule="evenodd" clip-rule="evenodd" d="M952.934 456.48V380.985H954.832V456.48H952.934Z" fill="#959DA8"/>
<path d="M969.365 404.214H938.391L948.073 380.985H959.683L969.365 404.214Z" fill="#D3DCE5"/>
<path fill-rule="evenodd" clip-rule="evenodd" d="M945.914 404.105L951.363 380.877L952.287 381.094L946.838 404.322L945.914 404.105Z" fill="#959DA8"/>
<path fill-rule="evenodd" clip-rule="evenodd" d="M961.046 404.322L955.598 381.094L956.522 380.877L961.971 404.105L961.046 404.322Z" fill="#959DA8"/>
<path d="M914.099 414.58L912.504 414.285C911.277 416 910.754 418.12 911.042 420.209C911.105 420.638 911.331 421.027 911.672 421.296C912.012 421.565 912.443 421.693 912.876 421.654C913.308 421.615 913.709 421.412 913.997 421.087C914.284 420.762 914.436 420.339 914.422 419.905C914.476 418.124 914.368 416.341 914.099 414.58Z" fill="white"/>
<path fill-rule="evenodd" clip-rule="evenodd" d="M912.296 413.764L914.187 414.113L914.101 414.58L914.57 414.508C914.842 416.293 914.952 418.1 914.899 419.905C914.913 420.454 914.719 420.989 914.354 421.401C913.986 421.818 913.473 422.077 912.92 422.127C912.367 422.177 911.816 422.013 911.38 421.669C910.943 421.325 910.656 420.827 910.575 420.278L911.044 420.209L910.574 420.274C910.269 418.065 910.822 415.823 912.12 414.009L912.296 413.764ZM911.514 420.142C911.56 420.45 911.722 420.73 911.967 420.923C912.213 421.117 912.523 421.209 912.835 421.181C913.147 421.153 913.436 421.007 913.643 420.773C913.85 420.538 913.96 420.234 913.949 419.921L913.949 419.906L913.949 419.891C913.999 418.25 913.909 416.609 913.681 414.985L912.723 414.808C911.688 416.378 911.257 418.273 911.514 420.142Z" fill="#959DA8"/>
<path d="M918.789 411.637L919.216 410.071C921.294 409.709 923.43 410.158 925.187 411.324C925.546 411.567 925.799 411.938 925.893 412.362C925.987 412.785 925.916 413.228 925.694 413.601C925.472 413.973 925.116 414.247 924.699 414.365C924.281 414.484 923.835 414.438 923.45 414.238C921.821 413.514 920.261 412.644 918.789 411.637Z" fill="white"/>
<path fill-rule="evenodd" clip-rule="evenodd" d="M919.593 410.493L919.336 411.434C920.702 412.345 922.142 413.138 923.643 413.804L923.656 413.81L923.669 413.817C923.946 413.961 924.268 413.994 924.569 413.909C924.869 413.823 925.126 413.626 925.286 413.358C925.446 413.089 925.498 412.77 925.43 412.465C925.362 412.16 925.181 411.893 924.923 411.718C923.351 410.675 921.456 410.242 919.593 410.493ZM925.187 411.324L925.45 410.929C923.592 409.695 921.332 409.221 919.135 409.603L918.838 409.655L918.242 411.838L918.521 412.029C920.013 413.049 921.594 413.932 923.245 414.666C923.734 414.916 924.299 414.972 924.828 414.822C925.362 414.67 925.817 414.321 926.102 413.844C926.386 413.367 926.477 412.8 926.356 412.259C926.236 411.717 925.912 411.242 925.453 410.931L925.187 411.324Z" fill="#959DA8"/>
<path d="M923.575 415.025C924.197 416.132 924.369 417.435 924.056 418.665C923.743 419.895 922.97 420.957 921.896 421.633C920.821 422.309 919.528 422.545 918.284 422.294C917.04 422.043 915.94 421.323 915.212 420.284C913.845 418.101 913.247 413.003 915.554 411.551C917.861 410.099 922.208 412.842 923.575 415.025Z" fill="white"/>
<path fill-rule="evenodd" clip-rule="evenodd" d="M917.532 411.645C916.85 411.567 916.264 411.664 915.805 411.952C915.347 412.241 915.006 412.727 914.782 413.376C914.558 414.025 914.463 414.808 914.478 415.634C914.509 417.294 914.982 419.018 915.606 420.022C916.264 420.956 917.256 421.603 918.376 421.829C919.501 422.056 920.67 421.842 921.641 421.231C922.612 420.62 923.311 419.66 923.594 418.548C923.876 417.44 923.722 416.266 923.165 415.267C922.536 414.269 921.186 413.095 919.702 412.349C918.963 411.977 918.215 411.724 917.532 411.645ZM920.128 411.5C921.731 412.306 923.235 413.591 923.976 414.773L923.982 414.783L923.987 414.793C924.668 416.005 924.857 417.434 924.514 418.782C924.171 420.13 923.324 421.294 922.146 422.035C920.969 422.775 919.552 423.035 918.189 422.759C916.825 422.484 915.62 421.695 914.822 420.556L914.815 420.546L914.808 420.536C914.068 419.354 913.562 417.445 913.529 415.652C913.512 414.75 913.615 413.85 913.885 413.066C914.155 412.282 914.604 411.587 915.299 411.149C915.994 410.712 916.816 410.607 917.641 410.702C918.465 410.798 919.322 411.095 920.128 411.5Z" fill="#959DA8"/>
<path d="M910.465 410.827C911.375 410.255 911.649 409.054 911.077 408.144C910.505 407.234 909.304 406.96 908.394 407.532C907.484 408.104 907.21 409.305 907.782 410.215C908.354 411.125 909.555 411.399 910.465 410.827Z" fill="white"/>
<path fill-rule="evenodd" clip-rule="evenodd" d="M908.644 407.934C907.956 408.366 907.749 409.275 908.182 409.963C908.614 410.651 909.522 410.858 910.21 410.425C910.898 409.993 911.105 409.085 910.673 408.397C910.241 407.709 909.332 407.501 908.644 407.934ZM907.378 410.468C906.667 409.336 907.007 407.842 908.139 407.13C909.271 406.419 910.765 406.76 911.477 407.891C912.188 409.023 911.847 410.518 910.715 411.229C909.584 411.94 908.089 411.6 907.378 410.468Z" fill="#959DA8"/>
<path d="M919.545 410.85C920.459 410.28 920.737 409.078 920.168 408.164C919.598 407.251 918.396 406.972 917.482 407.542C916.569 408.111 916.29 409.314 916.859 410.227C917.429 411.141 918.631 411.419 919.545 410.85Z" fill="white"/>
<path fill-rule="evenodd" clip-rule="evenodd" d="M916.733 404.945C916.042 405.376 915.831 406.285 916.262 406.975C916.692 407.666 917.601 407.877 918.292 407.446C918.983 407.015 919.194 406.106 918.763 405.416C918.332 404.725 917.423 404.514 916.733 404.945ZM915.455 407.478C914.746 406.342 915.093 404.846 916.229 404.138C917.366 403.429 918.861 403.776 919.57 404.913C920.278 406.049 919.932 407.544 918.795 408.253C917.659 408.962 916.163 408.615 915.455 407.478Z" fill="#959DA8"/>
<path d="M917.058 413.924C919.366 412.473 920.126 409.531 918.757 407.351C917.387 405.172 914.405 404.581 912.097 406.032C909.789 407.482 909.028 410.425 910.398 412.605C911.768 414.784 914.75 415.375 917.058 413.924Z" fill="white"/>
<path fill-rule="evenodd" clip-rule="evenodd" d="M912.352 406.433C910.244 407.759 909.585 410.416 910.802 412.352C912.019 414.288 914.699 414.847 916.807 413.522C918.915 412.197 919.574 409.54 918.357 407.604C917.14 405.668 914.46 405.108 912.352 406.433ZM909.998 412.857C908.476 410.434 909.339 407.206 911.847 405.63C914.355 404.053 917.638 404.676 919.161 407.099C920.683 409.521 919.82 412.749 917.312 414.326C914.804 415.902 911.521 415.28 909.998 412.857Z" fill="#959DA8"/>
<path d="M920.022 424.062C920.361 422.899 919.542 421.638 918.194 421.244C916.845 420.851 915.476 421.474 915.137 422.637C914.798 423.8 915.617 425.061 916.966 425.454C918.315 425.848 919.683 425.224 920.022 424.062Z" fill="white"/>
<path fill-rule="evenodd" clip-rule="evenodd" d="M915.601 422.772C915.355 423.616 915.941 424.651 917.1 424.989C918.259 425.328 919.31 424.769 919.556 423.926C919.802 423.082 919.216 422.047 918.057 421.709C916.898 421.371 915.847 421.929 915.601 422.772ZM916.829 425.919C915.291 425.47 914.239 423.983 914.671 422.501C915.104 421.02 916.79 420.331 918.328 420.779C919.866 421.228 920.918 422.715 920.485 424.197C920.053 425.679 918.367 426.368 916.829 425.919Z" fill="#959DA8"/>
<path d="M926.99 419.107C927.221 417.721 926.439 416.437 925.245 416.238C924.05 416.039 922.894 417.001 922.664 418.387C922.433 419.773 923.215 421.058 924.409 421.257C925.604 421.456 926.759 420.493 926.99 419.107Z" fill="white"/>
<path fill-rule="evenodd" clip-rule="evenodd" d="M923.135 418.465C922.936 419.66 923.617 420.643 924.49 420.789C925.363 420.934 926.326 420.224 926.525 419.029C926.724 417.834 926.043 416.851 925.17 416.706C924.297 416.561 923.334 417.27 923.135 418.465ZM924.334 421.725C922.818 421.473 921.936 419.886 922.199 418.309C922.461 416.732 923.81 415.517 925.326 415.77C926.842 416.022 927.724 417.608 927.461 419.185C927.199 420.762 925.85 421.977 924.334 421.725Z" fill="#959DA8"/>
<path fill-rule="evenodd" clip-rule="evenodd" d="M914.246 412.508C914.044 412.967 914.041 413.412 914.254 413.75C914.467 414.089 914.869 414.279 915.37 414.297C915.87 414.314 916.454 414.156 917.001 413.812C917.547 413.469 917.943 413.011 918.144 412.553C918.346 412.094 918.349 411.649 918.136 411.31C917.923 410.972 917.521 410.781 917.02 410.764C916.52 410.747 915.936 410.905 915.389 411.248C914.843 411.592 914.447 412.05 914.246 412.508ZM914.028 412.412C914.251 411.906 914.682 411.413 915.263 411.048C915.844 410.682 916.475 410.508 917.028 410.527C917.581 410.546 918.07 410.759 918.337 411.184C918.604 411.609 918.584 412.142 918.361 412.648C918.138 413.155 917.708 413.648 917.127 414.013C916.546 414.378 915.915 414.553 915.362 414.534C914.809 414.515 914.32 414.302 914.053 413.877C913.786 413.452 913.806 412.918 914.028 412.412Z" fill="#959DA8"/>
<path d="M913.049 411.035C913.107 410.785 912.95 410.535 912.699 410.478C912.449 410.421 912.2 410.578 912.143 410.828C912.085 411.079 912.242 411.328 912.493 411.385C912.743 411.442 912.992 411.286 913.049 411.035Z" fill="#959DA8"/>
<path d="M916.328 409.054C916.515 408.937 916.571 408.691 916.454 408.505C916.336 408.318 916.09 408.262 915.904 408.379C915.718 408.497 915.661 408.743 915.779 408.929C915.896 409.116 916.142 409.172 916.328 409.054Z" fill="#959DA8"/>
<path d="M916.254 412.633C916.52 412.466 916.63 412.161 916.499 411.953C916.368 411.744 916.045 411.71 915.779 411.878C915.513 412.045 915.403 412.35 915.534 412.559C915.665 412.767 915.988 412.801 916.254 412.633Z" fill="#959DA8"/>
<path fill-rule="evenodd" clip-rule="evenodd" d="M916.478 413.18L916.184 412.715L916.384 412.588L916.678 413.054L916.478 413.18Z" fill="#959DA8"/>
<path fill-rule="evenodd" clip-rule="evenodd" d="M917.261 412.639C916.919 413.084 916.43 413.392 915.881 413.509L915.832 413.276C916.325 413.171 916.765 412.894 917.073 412.494L917.261 412.639Z" fill="#959DA8"/>
<path d="M941.107 419.174H909.164V445.621H941.107V419.174Z" fill="#F4F5F6"/>
<path fill-rule="evenodd" clip-rule="evenodd" d="M908.215 418.225H942.056V446.57H908.215V418.225ZM910.113 420.124V444.671H940.157V420.124H910.113Z" fill="#959DA8"/>
<path fill-rule="evenodd" clip-rule="evenodd" d="M930.098 419.174V445.621H929.148V419.174H930.098Z" fill="#959DA8"/>
<path d="M908.226 418.338L900.727 424.831H923.224L929.651 418.338H908.226Z" fill="#D3DCE5"/>
<path d="M947.812 423.834H935.272L929.652 418.338H942.183L947.812 423.834Z" fill="#D3DCE5"/>
<path d="M931.626 445.62H899.684V472.067H931.626V445.62Z" fill="#F4F5F6"/>
<path fill-rule="evenodd" clip-rule="evenodd" d="M898.734 444.671H932.576V473.016H898.734V444.671ZM900.633 446.569V471.117H930.677V446.569H900.633Z" fill="#959DA8"/>
<path fill-rule="evenodd" clip-rule="evenodd" d="M920.609 446.314V472.076H919.66V446.314H920.609Z" fill="#959DA8"/>
<path d="M963.568 445.62H931.625V472.067H963.568V445.62Z" fill="#F4F5F6"/>
<path fill-rule="evenodd" clip-rule="evenodd" d="M930.676 444.671H964.517V473.016H930.676V444.671ZM932.574 446.569V471.117H962.618V446.569H932.574Z" fill="#959DA8"/>
<path fill-rule="evenodd" clip-rule="evenodd" d="M958.039 445.62V472.076H957.09V445.62H958.039Z" fill="#959DA8"/>
<path d="M892.466 472.531H871.648L886.637 444.215H907.454L892.466 472.531Z" fill="#F4F5F6"/>
<path fill-rule="evenodd" clip-rule="evenodd" d="M886.068 443.266H909.033L893.04 473.48H870.074L886.068 443.266ZM887.211 445.164L873.227 471.582H891.896L905.88 445.164H887.211Z" fill="#959DA8"/>
<path d="M889.136 450.422C890.303 448.63 890.715 446.829 890.056 446.4C889.397 445.971 887.916 447.076 886.75 448.869C885.583 450.661 885.171 452.463 885.83 452.892C886.489 453.321 887.969 452.215 889.136 450.422Z" fill="#D3DCE5"/>
<path d="M892.786 464.116C895.634 459.74 896.643 455.346 895.04 454.302C893.436 453.258 889.826 455.959 886.978 460.336C884.129 464.712 883.12 469.106 884.724 470.15C886.328 471.194 889.937 468.492 892.786 464.116Z" fill="#D3DCE5"/>
<path fill-rule="evenodd" clip-rule="evenodd" d="M892.932 446.901V460.306H881.762L892.932 446.901ZM883.788 459.357H891.983V449.523L883.788 459.357Z" fill="#959DA8"/>
<line y1="474" x2="1300" y2="474" stroke="#D9DDE2" stroke-width="2" stroke-miterlimit="10"/>
</g>
</svg>
