<svg width="1300" height="499" viewBox="0 0 1300 499" fill="none" xmlns="http://www.w3.org/2000/svg">
<mask id="mask0" mask-type="alpha" maskUnits="userSpaceOnUse" x="0" y="0" width="1300" height="499">
<rect width="1300" height="499" rx="16" fill="#2A3A51"/>
</mask>
<g mask="url(#mask0)">
<path d="M456.818 335.78L903.578 335.78V177.28L456.818 177.28V335.78Z" fill="#F4F5F6"/>
<path fill-rule="evenodd" clip-rule="evenodd" d="M904.578 336.78L455.818 336.78V176.28L904.578 176.28V336.78ZM902.578 334.78V178.28L457.818 178.28V334.78L902.578 334.78Z" fill="#959DA8"/>
<path d="M969.571 414.511C970.197 411.365 970.166 408.124 969.481 404.991C968.808 401.889 967.486 398.965 965.601 396.411C963.768 393.919 961.4 391.868 958.671 390.411C956.006 388.986 953.042 388.209 950.02 388.145C946.999 388.081 944.004 388.73 941.281 390.041C938.505 391.379 936.065 393.323 934.141 395.731C932.165 398.202 930.736 401.066 929.951 404.131C929.15 407.237 929.001 410.474 929.511 413.641C927.252 414.823 925.279 416.485 923.731 418.511C922.142 420.587 921.002 422.971 920.381 425.511C919.747 428.079 919.638 430.749 920.061 433.361C920.479 435.953 921.425 438.431 922.841 440.641C924.219 442.8 926.047 444.635 928.201 446.021C930.314 447.376 932.708 448.231 935.201 448.521C937.67 448.806 940.171 448.519 942.511 447.681C944.888 446.832 947.046 445.466 948.831 443.681C950.558 445.441 952.646 446.805 954.951 447.681C957.213 448.54 959.639 448.882 962.051 448.681C964.47 448.46 966.809 447.705 968.901 446.471C971.04 445.205 972.887 443.501 974.321 441.471C975.791 439.392 976.828 437.039 977.371 434.551C977.924 432.039 977.978 429.444 977.531 426.911C977.092 424.397 976.153 421.996 974.771 419.851C973.435 417.723 971.663 415.903 969.571 414.511Z" fill="#80C33F"/>
<path fill-rule="evenodd" clip-rule="evenodd" d="M939.792 426.579C939.952 426.354 940.264 426.302 940.489 426.462L949.899 433.162C950.124 433.322 950.177 433.634 950.017 433.859C949.857 434.084 949.544 434.137 949.319 433.976L939.909 427.276C939.684 427.116 939.632 426.804 939.792 426.579Z" fill="#2A3A51"/>
<path fill-rule="evenodd" clip-rule="evenodd" d="M960.979 431.603C961.165 431.807 961.15 432.124 960.946 432.309L949.946 442.309C949.741 442.495 949.425 442.48 949.239 442.276C949.054 442.071 949.069 441.755 949.273 441.569L960.273 431.569C960.477 431.384 960.794 431.399 960.979 431.603Z" fill="#2A3A51"/>
<path fill-rule="evenodd" clip-rule="evenodd" d="M949.609 412.961C949.886 412.961 950.109 413.185 950.109 413.461V473.781C950.109 474.057 949.886 474.281 949.609 474.281C949.333 474.281 949.109 474.057 949.109 473.781V413.461C949.109 413.185 949.333 412.961 949.609 412.961Z" fill="#2A3A51"/>
<path d="M456.818 473.78L903.578 473.78V335.78L456.818 335.78V473.78Z" fill="#F4F5F6"/>
<path fill-rule="evenodd" clip-rule="evenodd" d="M904.578 474.78L455.818 474.78V334.78L904.578 334.78V474.78ZM902.578 472.78V336.78L457.818 336.78V472.78L902.578 472.78Z" fill="#959DA8"/>
<path d="M708.5 364.29H751.35V457.38H708.5V364.29Z" fill="#D3DCE5"/>
<path d="M714.571 414.56H745.301V370.23H714.571V414.56Z" fill="white"/>
<path fill-rule="evenodd" clip-rule="evenodd" d="M745.801 415.06H714.071V369.73H745.801V415.06ZM744.801 414.06V370.73H715.071V414.06H744.801Z" fill="#959DA8"/>
<path d="M766.531 334.78H774.421V454.78H766.531V334.78Z" fill="#F4F5F6"/>
<path fill-rule="evenodd" clip-rule="evenodd" d="M765.531 333.78H775.421V455.78H765.531V333.78ZM767.531 335.78V453.78H773.421V335.78H767.531Z" fill="#959DA8"/>
<path d="M656.531 334.78H664.421V473.78H656.531V334.78Z" fill="#F4F5F6"/>
<path fill-rule="evenodd" clip-rule="evenodd" d="M655.531 333.78H665.421V474.78H655.531V333.78ZM657.531 335.78V472.78H663.421V335.78H657.531Z" fill="#959DA8"/>
<path d="M686.531 334.78H694.421V472.78H686.531V334.78Z" fill="#F4F5F6"/>
<path fill-rule="evenodd" clip-rule="evenodd" d="M685.531 333.78H695.421V473.78H685.531V333.78ZM687.531 335.78V471.78H693.421V335.78H687.531Z" fill="#959DA8"/>
<path d="M568.82 464.15H789.52V473.92H568.82V464.15Z" fill="#F4F5F6"/>
<path fill-rule="evenodd" clip-rule="evenodd" d="M567.82 463.15H790.52V474.92H567.82V463.15ZM569.82 465.15V472.92H788.52V465.15H569.82Z" fill="#959DA8"/>
<path d="M743.32 422.28C744.425 422.28 745.32 421.385 745.32 420.28C745.32 419.175 744.425 418.28 743.32 418.28C742.216 418.28 741.32 419.175 741.32 420.28C741.32 421.385 742.216 422.28 743.32 422.28Z" fill="white"/>
<path fill-rule="evenodd" clip-rule="evenodd" d="M743.32 418.78C742.492 418.78 741.82 419.452 741.82 420.28C741.82 421.108 742.492 421.78 743.32 421.78C744.149 421.78 744.82 421.108 744.82 420.28C744.82 419.452 744.149 418.78 743.32 418.78ZM740.82 420.28C740.82 418.899 741.94 417.78 743.32 417.78C744.701 417.78 745.82 418.899 745.82 420.28C745.82 421.661 744.701 422.78 743.32 422.78C741.94 422.78 740.82 421.661 740.82 420.28Z" fill="#959DA8"/>
<path d="M641.362 364.29H598.512V457.38H641.362V364.29Z" fill="#D3DCE5"/>
<path d="M635.289 370.23H604.559V414.56H635.289V370.23Z" fill="white"/>
<path fill-rule="evenodd" clip-rule="evenodd" d="M604.059 369.73H635.789V415.06H604.059V369.73ZM605.059 370.73V414.06H634.789V370.73H605.059Z" fill="#959DA8"/>
<path d="M606.539 422.28C607.644 422.28 608.539 421.385 608.539 420.28C608.539 419.175 607.644 418.28 606.539 418.28C605.434 418.28 604.539 419.175 604.539 420.28C604.539 421.385 605.434 422.28 606.539 422.28Z" fill="white"/>
<path fill-rule="evenodd" clip-rule="evenodd" d="M606.539 418.78C605.711 418.78 605.039 419.452 605.039 420.28C605.039 421.108 605.711 421.78 606.539 421.78C607.367 421.78 608.039 421.108 608.039 420.28C608.039 419.452 607.367 418.78 606.539 418.78ZM604.039 420.28C604.039 418.899 605.158 417.78 606.539 417.78C607.92 417.78 609.039 418.899 609.039 420.28C609.039 421.661 607.92 422.78 606.539 422.78C605.158 422.78 604.039 421.661 604.039 420.28Z" fill="#959DA8"/>
<path d="M568.82 454.4H789.52V464.17H568.82V454.4Z" fill="#F4F5F6"/>
<path fill-rule="evenodd" clip-rule="evenodd" d="M567.82 453.4H790.52V465.17H567.82V453.4ZM569.82 455.4V463.17H788.52V455.4H569.82Z" fill="#959DA8"/>
<path d="M456.82 176.78H903.58L891.58 77.78H456.82V176.78Z" fill="#D3DCE5"/>
<path d="M790.079 76.38L674.359 177.78H903.079" fill="#F4F5F6"/>
<path d="M892.171 177.55H687.781L698.711 167.8H880.051L892.171 177.55Z" fill="white"/>
<path fill-rule="evenodd" clip-rule="evenodd" d="M698.52 167.3H880.227L893.59 178.05H686.469L698.52 167.3ZM698.901 168.3L689.092 177.05H890.751L879.874 168.3H698.901Z" fill="#959DA8"/>
<path fill-rule="evenodd" clip-rule="evenodd" d="M789.471 75.671L906.811 178.4H891.031V176.4H901.491L789.471 78.329L677.412 176.4H687.871V178.4H672.09L789.471 75.671Z" fill="#959DA8"/>
<path fill-rule="evenodd" clip-rule="evenodd" d="M789.45 88.618L796.788 94.9821L797.088 95.2421L801.241 98.8463L801.248 98.8523L801.308 98.9022L810.138 106.562L812.828 108.902L815.908 111.572L823.518 118.172L824.358 118.902L835.781 128.816L835.88 128.896L844.338 136.232L847.418 138.902L848.908 140.192L857.358 147.522L857.359 147.523L858.938 148.902L869.318 157.902L869.319 157.903L870.259 158.723L873.908 161.882L880.538 167.632L891.358 177.022L890.703 177.778L879.883 168.388L873.253 162.638L869.603 159.478L868.663 158.658L868.662 158.657L863.253 153.968L858.282 149.657L856.702 148.277L848.253 140.948L846.763 139.658L843.683 136.988L835.24 129.664L835.14 129.584L823.703 119.658L822.863 118.928L815.253 112.328L812.173 109.658L809.483 107.318L800.66 99.6636L800.653 99.6577L800.593 99.6077L796.433 95.9978L796.133 95.7378L789.45 89.9419L786.908 92.1476L779.179 98.847L779.178 98.8478L778.249 99.657L771.068 105.887L766.728 109.657L765.908 110.368L757.158 117.958L755.198 119.658L749.908 124.248L735.408 136.828L732.138 139.658L728.908 142.457L720.618 149.657L713.978 155.418L710.238 158.658L703.914 164.148L703.904 164.156L698.728 168.648L688.198 177.778L687.543 177.022L698.073 167.892L703.05 163.572V163.522L703.307 163.352L709.583 157.902L713.323 154.662L719.963 148.902L728.253 141.702L731.483 138.902L734.753 136.072L749.253 123.492L754.543 118.902L765.253 109.612L766.073 108.903L770.412 105.132L777.592 98.9029L778.522 98.0929L778.523 98.0921L786.253 91.3923L789.45 88.618Z" fill="#959DA8"/>
<path d="M901.819 320.67L867.879 292.78H729.379L684.879 320.28L901.819 320.67Z" fill="#D3DCE5"/>
<path d="M770.222 149.86H807.012V117.35H770.222V149.86Z" fill="#F4F5F6"/>
<path fill-rule="evenodd" clip-rule="evenodd" d="M807.512 150.36H769.722V116.85H807.512V150.36ZM806.512 149.36V117.85H770.722V149.36H806.512Z" fill="#959DA8"/>
<path d="M776.642 123.47H800.822V143.91H776.602L776.642 123.47Z" fill="white"/>
<path fill-rule="evenodd" clip-rule="evenodd" d="M776.14 122.97H801.319V144.41H776.098L776.14 122.97ZM777.138 123.97L777.1 143.41H800.319V123.97H777.138Z" fill="#959DA8"/>
<path d="M675.76 335.67L629.82 307.78H501.32L456.82 335.28L675.76 335.67Z" fill="#D3DCE5"/>
<path d="M684.82 321.78V310.29L730.82 292.78L777.54 311.29L777.82 321.78H731.82H684.82Z" fill="#F4F5F6"/>
<path d="M783.32 440.28H826.32V364.28H783.32V440.28Z" fill="white"/>
<path fill-rule="evenodd" clip-rule="evenodd" d="M826.82 440.78H782.82V363.78H826.82V440.78ZM825.82 439.78V364.78H783.82V439.78H825.82Z" fill="#959DA8"/>
<path d="M826.32 440.28H869.32V364.28H826.32V440.28Z" fill="white"/>
<path fill-rule="evenodd" clip-rule="evenodd" d="M869.82 440.78H825.82V363.78H869.82V440.78ZM868.82 439.78V364.78H826.82V439.78H868.82Z" fill="#959DA8"/>
<path fill-rule="evenodd" clip-rule="evenodd" d="M783.82 388.28H869.32V389.28H783.82V388.28Z" fill="#959DA8"/>
<path fill-rule="evenodd" clip-rule="evenodd" d="M812.32 388.78V364.28H813.32V388.78H812.32Z" fill="#959DA8"/>
<path fill-rule="evenodd" clip-rule="evenodd" d="M798.32 388.78V364.28H799.32V388.78H798.32Z" fill="#959DA8"/>
<path fill-rule="evenodd" clip-rule="evenodd" d="M854.32 388.78V364.28H855.32V388.78H854.32Z" fill="#959DA8"/>
<path fill-rule="evenodd" clip-rule="evenodd" d="M840.32 388.78V364.28H841.32V388.78H840.32Z" fill="#959DA8"/>
<path d="M482.32 440.28H525.32V364.28H482.32V440.28Z" fill="white"/>
<path fill-rule="evenodd" clip-rule="evenodd" d="M525.82 440.78H481.82V363.78H525.82V440.78ZM524.82 439.78V364.78H482.82V439.78H524.82Z" fill="#959DA8"/>
<path d="M525.32 440.28H568.32V364.28H525.32V440.28Z" fill="white"/>
<path fill-rule="evenodd" clip-rule="evenodd" d="M568.82 440.78H524.82V363.78H568.82V440.78ZM567.82 439.78V364.78H525.82V439.78H567.82Z" fill="#959DA8"/>
<path fill-rule="evenodd" clip-rule="evenodd" d="M482.82 388.28H568.32V389.28H482.82V388.28Z" fill="#959DA8"/>
<path fill-rule="evenodd" clip-rule="evenodd" d="M511.32 388.78V364.28H512.32V388.78H511.32Z" fill="#959DA8"/>
<path fill-rule="evenodd" clip-rule="evenodd" d="M497.32 388.78V364.28H498.32V388.78H497.32Z" fill="#959DA8"/>
<path fill-rule="evenodd" clip-rule="evenodd" d="M553.32 388.78V364.28H554.32V388.78H553.32Z" fill="#959DA8"/>
<path fill-rule="evenodd" clip-rule="evenodd" d="M539.32 388.78V364.28H540.32V388.78H539.32Z" fill="#959DA8"/>
<path fill-rule="evenodd" clip-rule="evenodd" d="M674.32 455.78V178.78H676.32V455.78H674.32Z" fill="#959DA8"/>
<path d="M561.079 57.38L485.359 113.78H636.079" fill="#F4F5F6"/>
<path fill-rule="evenodd" clip-rule="evenodd" d="M560.471 55.7529L639.166 114.4H620.031V112.4H633.136L560.471 58.247L487.768 112.4H501.871V114.4H481.734L560.471 55.7529Z" fill="#959DA8"/>
<path fill-rule="evenodd" clip-rule="evenodd" d="M607.321 104.3H513.711V103.3H607.321V104.3Z" fill="#959DA8"/>
<path fill-rule="evenodd" clip-rule="evenodd" d="M560.316 70.6713L621.602 112.868L621.034 113.692L560.32 71.8887L500.605 113.69L500.031 112.87L560.316 70.6713Z" fill="#959DA8"/>
<path d="M501.32 162.28L620.32 162.28V113.28L501.32 113.28V162.28Z" fill="#F4F5F6"/>
<path fill-rule="evenodd" clip-rule="evenodd" d="M621.32 163.28L500.32 163.28V112.28L621.32 112.28V163.28ZM619.32 161.28V114.28L502.32 114.28V161.28L619.32 161.28Z" fill="#959DA8"/>
<path d="M571.222 153.86H608.012V121.35H571.222V153.86Z" fill="#F4F5F6"/>
<path fill-rule="evenodd" clip-rule="evenodd" d="M608.512 154.36H570.722V120.85H608.512V154.36ZM607.512 153.36V121.85H571.722V153.36H607.512Z" fill="#959DA8"/>
<path d="M577.641 127.47H601.822V147.91H577.602L577.641 127.47Z" fill="white"/>
<path fill-rule="evenodd" clip-rule="evenodd" d="M577.14 126.97H602.319V148.41H577.098L577.14 126.97ZM578.138 127.97L578.1 147.41H601.319V127.97H578.138Z" fill="#959DA8"/>
<path d="M513.222 153.86H550.012V121.35H513.222V153.86Z" fill="#F4F5F6"/>
<path fill-rule="evenodd" clip-rule="evenodd" d="M550.512 154.36H512.722V120.85H550.512V154.36ZM549.512 153.36V121.85H513.722V153.36H549.512Z" fill="#959DA8"/>
<path d="M519.641 127.47H543.822V147.91H519.602L519.641 127.47Z" fill="white"/>
<path fill-rule="evenodd" clip-rule="evenodd" d="M519.14 126.97H544.319V148.41H519.098L519.14 126.97ZM520.138 127.97L520.1 147.41H543.319V127.97H520.138Z" fill="#959DA8"/>
<path d="M482.32 114.28L638.32 114.28V104.28L482.32 104.28V114.28Z" fill="#F4F5F6"/>
<path fill-rule="evenodd" clip-rule="evenodd" d="M638.914 114.875L481.724 114.875V103.685L638.914 103.685V114.875ZM637.724 113.685V104.875L482.914 104.875V113.685L637.724 113.685Z" fill="#959DA8"/>
<path d="M672.32 178.28L906.32 178.28V168.28L672.32 168.28V178.28Z" fill="#F4F5F6"/>
<path fill-rule="evenodd" clip-rule="evenodd" d="M907.051 179.01L671.591 179.01V167.55L907.051 167.55V179.01ZM905.591 177.55V169.01L673.051 169.01V177.55L905.591 177.55Z" fill="#959DA8"/>
<path fill-rule="evenodd" clip-rule="evenodd" d="M730.828 292.707L778.54 311.611V321.78H776.54V312.969L730.813 294.853L685.82 311.979V321.78H683.82V310.601L730.828 292.707Z" fill="#959DA8"/>
<path fill-rule="evenodd" clip-rule="evenodd" d="M730.822 303.247L777.495 320.812L777.143 321.748L730.816 304.313L685.489 320.75L685.148 319.81L730.822 303.247Z" fill="#959DA8"/>
<path d="M456.819 335.78H10.0586V473.78H456.819V335.78Z" fill="#F4F5F6"/>
<path fill-rule="evenodd" clip-rule="evenodd" d="M9.34375 335.065H457.534V474.495H9.34375V335.065ZM10.7737 336.495V473.065H456.104V336.495H10.7737Z" fill="#959DA8"/>
<path d="M456.819 177.28H10.0586V335.78H456.819V177.28Z" fill="#F4F5F6"/>
<path fill-rule="evenodd" clip-rule="evenodd" d="M9.05859 176.28H457.819V336.78H9.05859V176.28ZM11.0586 178.28V334.78H455.819V178.28H11.0586Z" fill="#959DA8"/>
<path d="M456.819 176.78H10.0586L22.0586 77.78H464.819L456.819 176.78Z" fill="#D3DCE5"/>
<path d="M205.139 364.29H162.289V457.38H205.139V364.29Z" fill="#D3DCE5"/>
<path d="M199.07 370.23H168.34V414.56H199.07V370.23Z" fill="white"/>
<path fill-rule="evenodd" clip-rule="evenodd" d="M167.84 369.73H199.57V415.06H167.84V369.73ZM168.84 370.73V414.06H198.57V370.73H168.84Z" fill="#959DA8"/>
<path d="M147.109 334.78H139.219V454.78H147.109V334.78Z" fill="#F4F5F6"/>
<path fill-rule="evenodd" clip-rule="evenodd" d="M138.219 333.78H148.109V455.78H138.219V333.78ZM140.219 335.78V453.78H146.109V335.78H140.219Z" fill="#959DA8"/>
<path d="M227.109 334.78H219.219V472.78H227.109V334.78Z" fill="#F4F5F6"/>
<path fill-rule="evenodd" clip-rule="evenodd" d="M218.219 333.78H228.109V473.78H218.219V333.78ZM220.219 335.78V471.78H226.109V335.78H220.219Z" fill="#959DA8"/>
<path d="M256.109 334.78H248.219V472.78H256.109V334.78Z" fill="#F4F5F6"/>
<path fill-rule="evenodd" clip-rule="evenodd" d="M247.219 333.78H257.109V473.78H247.219V333.78ZM249.219 335.78V471.78H255.109V335.78H249.219Z" fill="#959DA8"/>
<path d="M344.821 464.15H124.121V473.92H344.821V464.15Z" fill="#F4F5F6"/>
<path fill-rule="evenodd" clip-rule="evenodd" d="M123.121 463.15H345.821V474.92H123.121V463.15ZM125.121 465.15V472.92H343.821V465.15H125.121Z" fill="#959DA8"/>
<path d="M170.32 422.28C171.425 422.28 172.32 421.385 172.32 420.28C172.32 419.175 171.425 418.28 170.32 418.28C169.216 418.28 168.32 419.175 168.32 420.28C168.32 421.385 169.216 422.28 170.32 422.28Z" fill="white"/>
<path fill-rule="evenodd" clip-rule="evenodd" d="M170.32 418.78C169.492 418.78 168.82 419.452 168.82 420.28C168.82 421.108 169.492 421.78 170.32 421.78C171.149 421.78 171.82 421.108 171.82 420.28C171.82 419.452 171.149 418.78 170.32 418.78ZM167.82 420.28C167.82 418.899 168.94 417.78 170.32 417.78C171.701 417.78 172.82 418.899 172.82 420.28C172.82 421.661 171.701 422.78 170.32 422.78C168.94 422.78 167.82 421.661 167.82 420.28Z" fill="#959DA8"/>
<path d="M272.281 364.29H315.131V457.38H272.281V364.29Z" fill="#D3DCE5"/>
<path d="M278.348 414.56H309.078V370.23H278.348V414.56Z" fill="white"/>
<path fill-rule="evenodd" clip-rule="evenodd" d="M309.578 415.06H277.848V369.73H309.578V415.06ZM308.578 414.06V370.73H278.848V414.06H308.578Z" fill="#959DA8"/>
<path d="M307.102 422.28C308.206 422.28 309.102 421.385 309.102 420.28C309.102 419.175 308.206 418.28 307.102 418.28C305.997 418.28 305.102 419.175 305.102 420.28C305.102 421.385 305.997 422.28 307.102 422.28Z" fill="white"/>
<path fill-rule="evenodd" clip-rule="evenodd" d="M307.102 418.78C306.273 418.78 305.602 419.452 305.602 420.28C305.602 421.108 306.273 421.78 307.102 421.78C307.93 421.78 308.602 421.108 308.602 420.28C308.602 419.452 307.93 418.78 307.102 418.78ZM304.602 420.28C304.602 418.899 305.721 417.78 307.102 417.78C308.482 417.78 309.602 418.899 309.602 420.28C309.602 421.661 308.482 422.78 307.102 422.78C305.721 422.78 304.602 421.661 304.602 420.28Z" fill="#959DA8"/>
<path d="M344.821 454.4H124.121V464.17H344.821V454.4Z" fill="#F4F5F6"/>
<path fill-rule="evenodd" clip-rule="evenodd" d="M123.121 453.4H345.821V465.17H123.121V453.4ZM125.121 455.4V463.17H343.821V455.4H125.121Z" fill="#959DA8"/>
<path d="M123.559 76.38L239.279 177.78H10.5586" fill="#F4F5F6"/>
<path d="M21.4688 177.55H225.859L214.929 167.8H33.5887L21.4688 177.55Z" fill="white"/>
<path fill-rule="evenodd" clip-rule="evenodd" d="M33.4139 167.3H215.121L227.172 178.05H20.0508L33.4139 167.3ZM33.7662 168.3L22.8892 177.05H224.548L214.739 168.3H33.7662Z" fill="#959DA8"/>
<path fill-rule="evenodd" clip-rule="evenodd" d="M124.168 75.671L241.549 178.4H225.768V176.4H236.227L124.169 78.329L12.1488 176.4H22.6085V178.4H6.82812L124.168 75.671Z" fill="#959DA8"/>
<path fill-rule="evenodd" clip-rule="evenodd" d="M124.189 88.618L127.386 91.3921L135.117 98.0929L136.047 98.9023L143.227 105.132L147.566 108.902L148.386 109.612L159.096 118.902L164.386 123.492L170.626 128.902L178.886 136.072L182.156 138.902L185.386 141.702L193.677 148.902L200.316 154.662L204.056 157.902L210.333 163.351L210.589 163.522V163.572L215.567 167.892L226.096 177.022L225.441 177.778L214.911 168.648L209.736 164.156L209.725 164.148L203.402 158.658L199.662 155.418L193.021 149.658L184.731 142.458L181.502 139.658L178.232 136.828L163.731 124.248L156.481 117.958L147.732 110.368L146.912 109.658L142.571 105.888L135.391 99.6576L134.461 98.8478L126.731 92.1478L124.189 89.9419L117.507 95.7377L117.207 95.9976L113.039 99.6143L112.987 99.6576L112.979 99.6642L104.157 107.317L101.467 109.657L98.3865 112.328L90.7769 118.927L89.937 119.657L84.3869 124.467L78.4992 129.584L78.3991 129.664L69.9566 136.988L66.8764 139.658L65.3866 140.948L56.9379 148.277L56.9366 148.278L55.3578 149.657L55.3565 149.658L50.3865 153.968L44.9776 158.657L44.9764 158.658L44.0376 159.477L40.3865 162.638L22.9367 177.778L22.2812 177.022L39.7313 161.882L43.3817 158.722L44.3202 157.903L44.3214 157.902L49.7313 153.212L54.7 148.903L54.7013 148.902L56.2801 147.523L56.2813 147.522L64.7313 140.192L66.2214 138.902L69.3013 136.232L77.7588 128.896L77.8586 128.816L83.7309 123.713L89.281 118.903L90.1209 118.173L97.7313 111.572L100.811 108.903L103.501 106.563L112.339 98.8956L112.391 98.8523L112.399 98.8457L116.551 95.2423L116.851 94.9822L124.189 88.618Z" fill="#959DA8"/>
<path d="M143.431 117.34H106.641V149.85H143.431V117.34Z" fill="#F4F5F6"/>
<path fill-rule="evenodd" clip-rule="evenodd" d="M106.141 116.84H143.931V150.35H106.141V116.84ZM107.141 117.84V149.35H142.931V117.84H107.141Z" fill="#959DA8"/>
<path d="M137 123.47H112.82V143.91H137.04L137 123.47Z" fill="white"/>
<path fill-rule="evenodd" clip-rule="evenodd" d="M112.32 122.97H137.499L137.541 144.41H112.32V122.97ZM113.32 123.97V143.41H136.539L136.501 123.97H113.32Z" fill="#959DA8"/>
<path d="M9.87891 320.67L43.8188 292.78H182.319L226.819 320.28L9.87891 320.67Z" fill="#D3DCE5"/>
<path d="M235.879 321.67L283.819 293.78H412.319L454.819 321.28L235.879 321.67Z" fill="#D3DCE5"/>
<path d="M228.82 321.78V310.29L182.82 292.78L136.1 311.29L135.82 321.78H181.82H228.82Z" fill="#F4F5F6"/>
<path d="M597.32 285.28H640.32V209.28H597.32V285.28Z" fill="white"/>
<path fill-rule="evenodd" clip-rule="evenodd" d="M640.82 285.78H596.82V208.78H640.82V285.78ZM639.82 284.78V209.78H597.82V284.78H639.82Z" fill="#959DA8"/>
<path fill-rule="evenodd" clip-rule="evenodd" d="M596.82 233.28H640.32V234.28H596.82V233.28Z" fill="#959DA8"/>
<path fill-rule="evenodd" clip-rule="evenodd" d="M625.32 233.78V209.28H626.32V233.78H625.32Z" fill="#959DA8"/>
<path fill-rule="evenodd" clip-rule="evenodd" d="M611.32 233.78V209.28H612.32V233.78H611.32Z" fill="#959DA8"/>
<path d="M482.32 285.28H525.32V209.28H482.32V285.28Z" fill="white"/>
<path fill-rule="evenodd" clip-rule="evenodd" d="M525.82 285.78H481.82V208.78H525.82V285.78ZM524.82 284.78V209.78H482.82V284.78H524.82Z" fill="#959DA8"/>
<path fill-rule="evenodd" clip-rule="evenodd" d="M482.82 233.28H525.32V234.28H482.82V233.28Z" fill="#959DA8"/>
<path fill-rule="evenodd" clip-rule="evenodd" d="M510.32 233.78V209.28H511.32V233.78H510.32Z" fill="#959DA8"/>
<path fill-rule="evenodd" clip-rule="evenodd" d="M496.32 233.78V209.28H497.32V233.78H496.32Z" fill="#959DA8"/>
<path d="M824.32 285.28H867.32V209.28H824.32V285.28Z" fill="white"/>
<path fill-rule="evenodd" clip-rule="evenodd" d="M867.82 285.78H823.82V208.78H867.82V285.78ZM866.82 284.78V209.78H824.82V284.78H866.82Z" fill="#959DA8"/>
<path fill-rule="evenodd" clip-rule="evenodd" d="M823.82 233.28H867.32V234.28H823.82V233.28Z" fill="#959DA8"/>
<path fill-rule="evenodd" clip-rule="evenodd" d="M852.32 233.78V209.28H853.32V233.78H852.32Z" fill="#959DA8"/>
<path fill-rule="evenodd" clip-rule="evenodd" d="M838.32 233.78V209.28H839.32V233.78H838.32Z" fill="#959DA8"/>
<path d="M709.32 285.28H752.32V209.28H709.32V285.28Z" fill="white"/>
<path fill-rule="evenodd" clip-rule="evenodd" d="M752.82 285.78H708.82V208.78H752.82V285.78ZM751.82 284.78V209.78H709.82V284.78H751.82Z" fill="#959DA8"/>
<path fill-rule="evenodd" clip-rule="evenodd" d="M709.82 233.28H752.32V234.28H709.82V233.28Z" fill="#959DA8"/>
<path fill-rule="evenodd" clip-rule="evenodd" d="M737.32 233.78V209.28H738.32V233.78H737.32Z" fill="#959DA8"/>
<path fill-rule="evenodd" clip-rule="evenodd" d="M723.32 233.78V209.28H724.32V233.78H723.32Z" fill="#959DA8"/>
<path d="M316.32 209.28H273.32V285.28H316.32V209.28Z" fill="white"/>
<path fill-rule="evenodd" clip-rule="evenodd" d="M272.82 208.78H316.82V285.78H272.82V208.78ZM273.82 209.78V284.78H315.82V209.78H273.82Z" fill="#959DA8"/>
<path fill-rule="evenodd" clip-rule="evenodd" d="M316.82 234.28H273.32V233.28H316.82V234.28Z" fill="#959DA8"/>
<path fill-rule="evenodd" clip-rule="evenodd" d="M287.32 233.78V209.28H288.32V233.78H287.32Z" fill="#959DA8"/>
<path fill-rule="evenodd" clip-rule="evenodd" d="M301.32 233.78V209.28H302.32V233.78H301.32Z" fill="#959DA8"/>
<path d="M431.32 209.28H388.32V285.28H431.32V209.28Z" fill="white"/>
<path fill-rule="evenodd" clip-rule="evenodd" d="M387.82 208.78H431.82V285.78H387.82V208.78ZM388.82 209.78V284.78H430.82V209.78H388.82Z" fill="#959DA8"/>
<path fill-rule="evenodd" clip-rule="evenodd" d="M430.82 234.28H388.32V233.28H430.82V234.28Z" fill="#959DA8"/>
<path fill-rule="evenodd" clip-rule="evenodd" d="M402.32 233.78V209.28H403.32V233.78H402.32Z" fill="#959DA8"/>
<path fill-rule="evenodd" clip-rule="evenodd" d="M416.32 233.78V209.28H417.32V233.78H416.32Z" fill="#959DA8"/>
<path d="M89.3203 209.28H46.3203V285.28H89.3203V209.28Z" fill="white"/>
<path fill-rule="evenodd" clip-rule="evenodd" d="M45.8203 208.78H89.8203V285.78H45.8203V208.78ZM46.8203 209.78V284.78H88.8203V209.78H46.8203Z" fill="#959DA8"/>
<path fill-rule="evenodd" clip-rule="evenodd" d="M89.8203 234.28H46.3203V233.28H89.8203V234.28Z" fill="#959DA8"/>
<path fill-rule="evenodd" clip-rule="evenodd" d="M60.3203 233.78V209.28H61.3203V233.78H60.3203Z" fill="#959DA8"/>
<path fill-rule="evenodd" clip-rule="evenodd" d="M74.3203 233.78V209.28H75.3203V233.78H74.3203Z" fill="#959DA8"/>
<path d="M204.32 209.28H161.32V285.28H204.32V209.28Z" fill="white"/>
<path fill-rule="evenodd" clip-rule="evenodd" d="M160.82 208.78H204.82V285.78H160.82V208.78ZM161.82 209.78V284.78H203.82V209.78H161.82Z" fill="#959DA8"/>
<path fill-rule="evenodd" clip-rule="evenodd" d="M203.82 234.28H161.32V233.28H203.82V234.28Z" fill="#959DA8"/>
<path fill-rule="evenodd" clip-rule="evenodd" d="M175.32 233.78V209.28H176.32V233.78H175.32Z" fill="#959DA8"/>
<path fill-rule="evenodd" clip-rule="evenodd" d="M189.32 233.78V209.28H190.32V233.78H189.32Z" fill="#959DA8"/>
<path d="M130.32 364.28H87.3203V440.28H130.32V364.28Z" fill="white"/>
<path fill-rule="evenodd" clip-rule="evenodd" d="M86.8203 363.78H130.82V440.78H86.8203V363.78ZM87.8203 364.78V439.78H129.82V364.78H87.8203Z" fill="#959DA8"/>
<path d="M87.3203 364.28H44.3203V440.28H87.3203V364.28Z" fill="white"/>
<path fill-rule="evenodd" clip-rule="evenodd" d="M43.8203 363.78H87.8203V440.78H43.8203V363.78ZM44.8203 364.78V439.78H86.8203V364.78H44.8203Z" fill="#959DA8"/>
<path fill-rule="evenodd" clip-rule="evenodd" d="M129.82 389.28H44.3203V388.28H129.82V389.28Z" fill="#959DA8"/>
<path fill-rule="evenodd" clip-rule="evenodd" d="M100.32 388.78V364.28H101.32V388.78H100.32Z" fill="#959DA8"/>
<path fill-rule="evenodd" clip-rule="evenodd" d="M114.32 388.78V364.28H115.32V388.78H114.32Z" fill="#959DA8"/>
<path fill-rule="evenodd" clip-rule="evenodd" d="M58.3203 388.78V364.28H59.3203V388.78H58.3203Z" fill="#959DA8"/>
<path fill-rule="evenodd" clip-rule="evenodd" d="M72.3203 388.78V364.28H73.3203V388.78H72.3203Z" fill="#959DA8"/>
<path d="M431.32 364.28H388.32V440.28H431.32V364.28Z" fill="white"/>
<path fill-rule="evenodd" clip-rule="evenodd" d="M387.82 363.78H431.82V440.78H387.82V363.78ZM388.82 364.78V439.78H430.82V364.78H388.82Z" fill="#959DA8"/>
<path d="M388.32 364.28H345.32V440.28H388.32V364.28Z" fill="white"/>
<path fill-rule="evenodd" clip-rule="evenodd" d="M344.82 363.78H388.82V440.78H344.82V363.78ZM345.82 364.78V439.78H387.82V364.78H345.82Z" fill="#959DA8"/>
<path fill-rule="evenodd" clip-rule="evenodd" d="M430.82 389.28H345.32V388.28H430.82V389.28Z" fill="#959DA8"/>
<path fill-rule="evenodd" clip-rule="evenodd" d="M401.32 388.78V364.28H402.32V388.78H401.32Z" fill="#959DA8"/>
<path fill-rule="evenodd" clip-rule="evenodd" d="M415.32 388.78V364.28H416.32V388.78H415.32Z" fill="#959DA8"/>
<path fill-rule="evenodd" clip-rule="evenodd" d="M359.32 388.78V364.28H360.32V388.78H359.32Z" fill="#959DA8"/>
<path fill-rule="evenodd" clip-rule="evenodd" d="M373.32 388.78V364.28H374.32V388.78H373.32Z" fill="#959DA8"/>
<path fill-rule="evenodd" clip-rule="evenodd" d="M237.32 455.78V178.78H239.32V455.78H237.32Z" fill="#959DA8"/>
<path d="M352.559 57.38L428.279 113.78H277.559" fill="#F4F5F6"/>
<path fill-rule="evenodd" clip-rule="evenodd" d="M353.172 55.7529L431.908 114.4H411.772V112.4H425.875L353.172 58.247L280.507 112.4H293.612V114.4H274.477L353.172 55.7529Z" fill="#959DA8"/>
<path fill-rule="evenodd" clip-rule="evenodd" d="M306.32 103.3H399.93V104.3H306.32V103.3Z" fill="#959DA8"/>
<path fill-rule="evenodd" clip-rule="evenodd" d="M353.321 70.6713L413.605 112.87L413.032 113.69L353.316 71.8887L292.602 113.692L292.035 112.868L353.321 70.6713Z" fill="#959DA8"/>
<path d="M412.32 113.28H293.32V162.28H412.32V113.28Z" fill="#F4F5F6"/>
<path fill-rule="evenodd" clip-rule="evenodd" d="M292.32 112.28H413.32V163.28H292.32V112.28ZM294.32 114.28V161.28H411.32V114.28H294.32Z" fill="#959DA8"/>
<path d="M342.431 121.34H305.641V153.85H342.431V121.34Z" fill="#F4F5F6"/>
<path fill-rule="evenodd" clip-rule="evenodd" d="M305.141 120.84H342.931V154.35H305.141V120.84ZM306.141 121.84V153.35H341.931V121.84H306.141Z" fill="#959DA8"/>
<path d="M336 127.47H311.82V147.91H336.04L336 127.47Z" fill="white"/>
<path fill-rule="evenodd" clip-rule="evenodd" d="M311.32 126.97H336.499L336.541 148.41H311.32V126.97ZM312.32 127.97V147.41H335.539L335.501 127.97H312.32Z" fill="#959DA8"/>
<path d="M400.431 121.34H363.641V153.85H400.431V121.34Z" fill="#F4F5F6"/>
<path fill-rule="evenodd" clip-rule="evenodd" d="M363.141 120.84H400.931V154.35H363.141V120.84ZM364.141 121.84V153.35H399.931V121.84H364.141Z" fill="#959DA8"/>
<path d="M394 127.47H369.82V147.91H394.04L394 127.47Z" fill="white"/>
<path fill-rule="evenodd" clip-rule="evenodd" d="M369.32 126.97H394.499L394.541 148.41H369.32V126.97ZM370.32 127.97V147.41H393.539L393.501 127.97H370.32Z" fill="#959DA8"/>
<path d="M369.879 321.67L403.819 293.78H626.319L670.819 321.28L369.879 321.67Z" fill="#D3DCE5"/>
<path d="M903.82 320.78H8.82031V335.78H903.82V320.78Z" fill="#F4F5F6"/>
<path fill-rule="evenodd" clip-rule="evenodd" d="M7.82031 319.78H904.82V336.78H7.82031V319.78ZM9.82031 321.78V334.78H902.82V321.78H9.82031Z" fill="#959DA8"/>
<path d="M-14.1801 435.54C-13.7296 435.543 -13.2802 435.496 -12.8401 435.4C7.63991 430.74 7.6499 405.93 7.6499 405.93C7.6499 372.12 -14.17 355.17 -14.17 355.17C-14.17 355.17 -36 372.08 -36 405.93C-36 405.93 -36 430.77 -15.52 435.4C-15.0799 435.496 -14.6305 435.543 -14.1801 435.54Z" fill="#80C33F"/>
<path d="M462.818 442.78C463.191 442.782 463.564 442.741 463.928 442.66C480.828 438.81 480.828 418.35 480.828 418.35C480.828 390.46 462.828 376.48 462.828 376.48C462.828 376.48 444.828 390.48 444.828 418.35C444.828 418.35 444.828 438.84 461.718 442.66C462.083 442.741 462.455 442.782 462.828 442.78H462.818Z" fill="#80C33F"/>
<path fill-rule="evenodd" clip-rule="evenodd" d="M462.82 403.49C463.096 403.49 463.32 403.714 463.32 403.99V473.6C463.32 473.876 463.096 474.1 462.82 474.1C462.544 474.1 462.32 473.876 462.32 473.6V403.99C462.32 403.714 462.544 403.49 462.82 403.49Z" fill="#2A3A51"/>
<path d="M241.32 168.28H7.32031V178.28H241.32V168.28Z" fill="#F4F5F6"/>
<path fill-rule="evenodd" clip-rule="evenodd" d="M6.58984 167.55H242.05V179.01H6.58984V167.55ZM8.04984 169.01V177.55H240.59V169.01H8.04984Z" fill="#959DA8"/>
<path d="M431.32 104.28H275.32V114.28H431.32V104.28Z" fill="#F4F5F6"/>
<path fill-rule="evenodd" clip-rule="evenodd" d="M274.727 103.685H431.917V114.875H274.727V103.685ZM275.917 104.875V113.685H430.727V104.875H275.917Z" fill="#959DA8"/>
<path fill-rule="evenodd" clip-rule="evenodd" d="M182.814 292.707L229.822 310.601V321.78H227.822V311.979L182.829 294.853L137.102 312.969V321.78H135.102V311.611L182.814 292.707Z" fill="#959DA8"/>
<path fill-rule="evenodd" clip-rule="evenodd" d="M182.822 303.245L228.999 320.823L228.643 321.757L182.82 304.315L136.497 321.748L136.145 320.812L182.822 303.245Z" fill="#959DA8"/>
<path d="M320.82 470.08C320.811 467.854 321.338 465.659 322.357 463.68C323.376 461.701 324.856 459.997 326.672 458.711C328.489 457.425 330.589 456.595 332.794 456.292C334.999 455.989 337.244 456.222 339.34 456.97C340.151 453.708 341.791 450.711 344.103 448.271C346.415 445.831 349.319 444.031 352.533 443.047C355.746 442.062 359.16 441.926 362.442 442.652C365.724 443.378 368.762 444.942 371.26 447.19C373.025 442.255 376.475 438.101 381.002 435.46C385.528 432.818 390.842 431.859 396.007 432.75C401.171 433.641 405.856 436.327 409.235 440.333C412.615 444.339 414.472 449.409 414.48 454.65C414.483 455.425 414.443 456.199 414.36 456.97C415.866 456.42 417.457 456.139 419.06 456.14C426.76 456.14 433.46 462.39 432.97 470.05C432.9 471.313 432.689 472.564 432.34 473.78H321.34C321.005 472.565 320.837 471.31 320.84 470.05L320.82 470.08Z" fill="#80C33F"/>
<path d="M1027.33 381.15V457.303" stroke="#959DA8" stroke-width="1.91507" stroke-miterlimit="10"/>
<path d="M1042.95 404.581H1011.7L1021.47 381.15H1033.18L1042.95 404.581Z" fill="#D3DCE5"/>
<path d="M1025.25 381.15L1019.76 404.581" stroke="#959DA8" stroke-width="0.957537" stroke-miterlimit="10"/>
<path d="M1029.53 381.15L1035.02 404.581" stroke="#959DA8" stroke-width="0.957537" stroke-miterlimit="10"/>
<path d="M987.201 415.038L985.592 414.741C984.354 416.471 983.826 418.609 984.117 420.716C984.181 421.149 984.408 421.542 984.752 421.813C985.096 422.084 985.53 422.213 985.966 422.174C986.403 422.135 986.807 421.93 987.097 421.602C987.387 421.274 987.541 420.847 987.526 420.41C987.58 418.613 987.472 416.815 987.201 415.038Z" fill="white" stroke="#959DA8" stroke-width="0.957537" stroke-miterlimit="10"/>
<path d="M991.934 412.07L992.365 410.49C994.46 410.125 996.615 410.578 998.387 411.754C998.75 411.999 999.004 412.374 999.099 412.801C999.195 413.228 999.123 413.675 998.899 414.051C998.675 414.427 998.315 414.703 997.895 414.822C997.474 414.942 997.023 414.896 996.635 414.694C994.992 413.963 993.418 413.085 991.934 412.07Z" fill="white" stroke="#959DA8" stroke-width="0.957537" stroke-miterlimit="10"/>
<path d="M996.756 415.487C997.383 416.604 997.557 417.918 997.241 419.159C996.926 420.399 996.146 421.471 995.062 422.153C993.978 422.834 992.674 423.073 991.419 422.82C990.165 422.567 989.055 421.841 988.32 420.792C986.942 418.59 986.338 413.448 988.665 411.983C990.992 410.518 995.378 413.285 996.756 415.487Z" fill="white" stroke="#959DA8" stroke-width="0.957537" stroke-miterlimit="10"/>
<path d="M983.536 411.253C984.454 410.676 984.73 409.465 984.154 408.547C983.577 407.629 982.365 407.353 981.447 407.929C980.529 408.506 980.253 409.718 980.83 410.636C981.407 411.554 982.618 411.83 983.536 411.253Z" fill="white" stroke="#959DA8" stroke-width="0.957537" stroke-miterlimit="10"/>
<path d="M991.691 407.275C992.612 406.701 992.893 405.488 992.319 404.566C991.744 403.645 990.531 403.364 989.61 403.938C988.688 404.513 988.407 405.726 988.982 406.647C989.556 407.568 990.769 407.85 991.691 407.275Z" fill="white" stroke="#959DA8" stroke-width="0.959163" stroke-miterlimit="10"/>
<path d="M990.184 414.376C992.513 412.913 993.28 409.945 991.898 407.746C990.516 405.548 987.509 404.952 985.181 406.415C982.852 407.879 982.085 410.847 983.467 413.046C984.848 415.244 987.856 415.84 990.184 414.376Z" fill="white" stroke="#959DA8" stroke-width="0.957537" stroke-miterlimit="10"/>
<path d="M993.175 424.603C993.517 423.43 992.692 422.158 991.331 421.761C989.971 421.364 988.59 421.993 988.248 423.166C987.906 424.339 988.732 425.611 990.092 426.008C991.453 426.405 992.833 425.776 993.175 424.603Z" fill="white" stroke="#959DA8" stroke-width="0.976688" stroke-miterlimit="10"/>
<path d="M1000.2 419.605C1000.44 418.207 999.648 416.912 998.443 416.711C997.238 416.51 996.072 417.481 995.839 418.879C995.607 420.277 996.395 421.573 997.6 421.774C998.805 421.974 999.97 421.004 1000.2 419.605Z" fill="white" stroke="#959DA8" stroke-width="0.957537" stroke-miterlimit="10"/>
<path d="M990.191 414.366C991.328 413.651 991.858 412.447 991.374 411.677C990.89 410.907 989.575 410.862 988.438 411.577C987.301 412.292 986.771 413.495 987.255 414.266C987.739 415.036 989.054 415.08 990.191 414.366Z" stroke="#959DA8" stroke-width="0.239384" stroke-miterlimit="10"/>
<path d="M986.136 411.463C986.194 411.21 986.036 410.959 985.783 410.901C985.531 410.843 985.279 411.001 985.222 411.254C985.164 411.507 985.322 411.758 985.575 411.816C985.827 411.873 986.079 411.715 986.136 411.463Z" fill="#959DA8"/>
<path d="M989.448 409.465C989.636 409.347 989.693 409.099 989.575 408.911C989.456 408.723 989.208 408.666 989.02 408.784C988.832 408.902 988.775 409.151 988.894 409.339C989.012 409.527 989.26 409.583 989.448 409.465Z" fill="#959DA8"/>
<path d="M989.376 413.075C989.644 412.906 989.755 412.598 989.623 412.388C989.49 412.178 989.165 412.144 988.897 412.313C988.628 412.481 988.517 412.789 988.65 412.999C988.782 413.21 989.107 413.244 989.376 413.075Z" fill="#959DA8"/>
<path d="M989.402 413.094L989.699 413.563" stroke="#959DA8" stroke-width="0.239384" stroke-miterlimit="10"/>
<path d="M988.973 413.841C989.498 413.729 989.967 413.433 990.294 413.008" stroke="#959DA8" stroke-width="0.239384" stroke-miterlimit="10"/>
<path d="M1014.44 419.673H982.223V446.35H1014.44V419.673Z" fill="#F4F5F6" stroke="#959DA8" stroke-width="1.91507" stroke-miterlimit="10"/>
<path d="M1002.86 446.35V419.673" stroke="#959DA8" stroke-width="0.957537" stroke-miterlimit="10"/>
<path d="M981.272 418.829L973.707 425.379H996.401L1002.88 418.829H981.272Z" fill="#D3DCE5"/>
<path d="M1021.2 424.373H1008.56L1002.89 418.829H1015.53L1021.2 424.373Z" fill="#D3DCE5"/>
<path d="M1004.88 446.35H972.66V473.027H1004.88V446.35Z" fill="#F4F5F6" stroke="#959DA8" stroke-width="1.91507" stroke-miterlimit="10"/>
<path d="M993.289 473.036V447.048" stroke="#959DA8" stroke-width="0.957537" stroke-miterlimit="10"/>
<path d="M1037.1 446.35H1004.88V473.027H1037.1V446.35Z" fill="#F4F5F6" stroke="#959DA8" stroke-width="1.91507" stroke-miterlimit="10"/>
<path d="M1031.04 473.036V446.35" stroke="#959DA8" stroke-width="0.957537" stroke-miterlimit="10"/>
<path d="M965.378 473.495H944.379L959.498 444.931H980.497L965.378 473.495Z" fill="#F4F5F6" stroke="#959DA8" stroke-width="1.91507" stroke-miterlimit="10"/>
<path d="M962.015 451.194C963.192 449.385 963.608 447.569 962.943 447.136C962.278 446.703 960.785 447.818 959.608 449.626C958.431 451.435 958.016 453.252 958.68 453.684C959.345 454.117 960.838 453.002 962.015 451.194Z" fill="#D3DCE5"/>
<path d="M965.702 465.006C968.575 460.592 969.593 456.16 967.975 455.107C966.357 454.054 962.717 456.779 959.843 461.193C956.97 465.607 955.952 470.04 957.57 471.093C959.188 472.146 962.828 469.421 965.702 465.006Z" fill="#D3DCE5"/>
<path d="M955.602 460.684L965.368 448.964V460.684H955.602Z" stroke="#959DA8" stroke-width="0.957537" stroke-miterlimit="10"/>
<line y1="474" x2="1300" y2="474" stroke="#D9DDE2" stroke-width="2" stroke-miterlimit="10"/>
</g>
</svg>
