<svg width="360" height="400" viewBox="0 0 360 400" fill="none" xmlns="http://www.w3.org/2000/svg">
<mask id="mask0" mask-type="alpha" maskUnits="userSpaceOnUse" x="0" y="0" width="360" height="400">
<rect width="360" height="400" fill="#C4C4C4"/>
</mask>
<g mask="url(#mask0)">
<path opacity="0.2" d="M133.761 245.098C133.08 245.098 132.464 244.981 131.913 244.748C131.372 244.515 130.942 244.179 130.625 243.74C130.308 243.301 130.144 242.783 130.135 242.186H132.235C132.263 242.587 132.403 242.905 132.655 243.138C132.916 243.371 133.271 243.488 133.719 243.488C134.176 243.488 134.536 243.381 134.797 243.166C135.058 242.942 135.189 242.653 135.189 242.298C135.189 242.009 135.1 241.771 134.923 241.584C134.746 241.397 134.522 241.253 134.251 241.15C133.99 241.038 133.626 240.917 133.159 240.786C132.524 240.599 132.006 240.417 131.605 240.24C131.213 240.053 130.872 239.778 130.583 239.414C130.303 239.041 130.163 238.546 130.163 237.93C130.163 237.351 130.308 236.847 130.597 236.418C130.886 235.989 131.292 235.662 131.815 235.438C132.338 235.205 132.935 235.088 133.607 235.088C134.615 235.088 135.432 235.335 136.057 235.83C136.692 236.315 137.042 236.997 137.107 237.874H134.951C134.932 237.538 134.788 237.263 134.517 237.048C134.256 236.824 133.906 236.712 133.467 236.712C133.084 236.712 132.776 236.81 132.543 237.006C132.319 237.202 132.207 237.487 132.207 237.86C132.207 238.121 132.291 238.341 132.459 238.518C132.636 238.686 132.851 238.826 133.103 238.938C133.364 239.041 133.728 239.162 134.195 239.302C134.83 239.489 135.348 239.675 135.749 239.862C136.15 240.049 136.496 240.329 136.785 240.702C137.074 241.075 137.219 241.565 137.219 242.172C137.219 242.695 137.084 243.18 136.813 243.628C136.542 244.076 136.146 244.435 135.623 244.706C135.1 244.967 134.48 245.098 133.761 245.098ZM140.878 236.81V239.26H144.168V240.814H140.878V243.404H144.588V245H138.918V235.214H144.588V236.81H140.878ZM145.893 240.1C145.893 239.139 146.108 238.28 146.537 237.524C146.976 236.759 147.569 236.166 148.315 235.746C149.071 235.317 149.916 235.102 150.849 235.102C151.941 235.102 152.898 235.382 153.719 235.942C154.541 236.502 155.115 237.277 155.441 238.266H153.187C152.963 237.799 152.646 237.449 152.235 237.216C151.834 236.983 151.367 236.866 150.835 236.866C150.266 236.866 149.757 237.001 149.309 237.272C148.871 237.533 148.525 237.907 148.273 238.392C148.031 238.877 147.909 239.447 147.909 240.1C147.909 240.744 148.031 241.313 148.273 241.808C148.525 242.293 148.871 242.671 149.309 242.942C149.757 243.203 150.266 243.334 150.835 243.334C151.367 243.334 151.834 243.217 152.235 242.984C152.646 242.741 152.963 242.387 153.187 241.92H155.441C155.115 242.919 154.541 243.698 153.719 244.258C152.907 244.809 151.951 245.084 150.849 245.084C149.916 245.084 149.071 244.874 148.315 244.454C147.569 244.025 146.976 243.432 146.537 242.676C146.108 241.92 145.893 241.061 145.893 240.1ZM162.155 245L159.999 241.192H159.075V245H157.115V235.228H160.783C161.539 235.228 162.183 235.363 162.715 235.634C163.247 235.895 163.644 236.255 163.905 236.712C164.176 237.16 164.311 237.664 164.311 238.224C164.311 238.868 164.125 239.451 163.751 239.974C163.378 240.487 162.823 240.842 162.085 241.038L164.423 245H162.155ZM159.075 239.722H160.713C161.245 239.722 161.642 239.596 161.903 239.344C162.165 239.083 162.295 238.723 162.295 238.266C162.295 237.818 162.165 237.473 161.903 237.23C161.642 236.978 161.245 236.852 160.713 236.852H159.075V239.722ZM168.044 236.81V239.26H171.334V240.814H168.044V243.404H171.754V245H166.084V235.214H171.754V236.81H168.044ZM180.185 235.228V236.81H177.581V245H175.621V236.81H173.017V235.228H180.185ZM190.943 243.138H187.051L186.407 245H184.349L187.863 235.214H190.145L193.659 245H191.587L190.943 243.138ZM190.411 241.57L188.997 237.482L187.583 241.57H190.411ZM201.777 238.168C201.553 237.757 201.245 237.445 200.853 237.23C200.461 237.015 200.004 236.908 199.481 236.908C198.902 236.908 198.389 237.039 197.941 237.3C197.493 237.561 197.143 237.935 196.891 238.42C196.639 238.905 196.513 239.465 196.513 240.1C196.513 240.753 196.639 241.323 196.891 241.808C197.152 242.293 197.512 242.667 197.969 242.928C198.426 243.189 198.958 243.32 199.565 243.32C200.312 243.32 200.923 243.124 201.399 242.732C201.875 242.331 202.188 241.775 202.337 241.066H198.977V239.568H204.269V241.276C204.138 241.957 203.858 242.587 203.429 243.166C203 243.745 202.444 244.211 201.763 244.566C201.091 244.911 200.335 245.084 199.495 245.084C198.552 245.084 197.698 244.874 196.933 244.454C196.177 244.025 195.58 243.432 195.141 242.676C194.712 241.92 194.497 241.061 194.497 240.1C194.497 239.139 194.712 238.28 195.141 237.524C195.58 236.759 196.177 236.166 196.933 235.746C197.698 235.317 198.548 235.102 199.481 235.102C200.582 235.102 201.539 235.373 202.351 235.914C203.163 236.446 203.723 237.197 204.031 238.168H201.777ZM207.679 236.81V239.26H210.969V240.814H207.679V243.404H211.389V245H205.719V235.214H211.389V236.81H207.679ZM221.528 245H219.568L215.13 238.294V245H213.17V235.214H215.13L219.568 241.934V235.214H221.528V245ZM230.115 235.228V236.81H227.511V245H225.551V236.81H222.947V235.228H230.115Z" fill="white"/>
<mask id="mask1" mask-type="alpha" maskUnits="userSpaceOnUse" x="0" y="0" width="360" height="400">
<rect width="360" height="400" fill="#C4C4C4"/>
</mask>
<g mask="url(#mask1)">
<mask id="path-4-outside-1" maskUnits="userSpaceOnUse" x="25.7881" y="0.77931" width="328.421" height="1016.41" fill="black">
<rect fill="white" x="25.7881" y="0.77931" width="328.421" height="1016.41"/>
<path d="M318.658 338.413C319.152 337.653 319.501 337.269 318.495 335.071C317.49 332.872 315.816 332.055 316.454 330.063C317.111 324.572 316.462 319.004 314.561 313.812C312.142 305.227 299.525 243.206 296.305 218.153C293.085 193.101 288.168 184.392 287.513 183.525C286.858 182.658 284.771 182.596 284.044 181.937C280.008 179.407 275.566 177.592 270.913 176.569C267.935 175.815 258.641 172.059 248.629 167.806C248.431 163.912 247.805 160.051 246.761 156.293C245.342 151.103 242.607 146.366 238.82 142.543C232.664 137.102 225.382 133.089 217.494 130.791C216.371 130.396 215.772 128.995 214.898 128.67C221.943 123.139 232.544 121.847 239.005 115.241C242.207 111.958 244.115 107.628 244.377 103.05C244.377 99.6854 243.994 96.3321 243.238 93.0541C241.963 85.8552 241.335 78.5567 241.36 71.2459C241.699 65.3217 241.41 59.3783 240.498 53.5148C239.631 49.6997 238.228 46.0265 236.332 42.6042C233.133 36.6714 228.919 31.345 223.881 26.8665C218.776 22.5253 213.163 18.8196 207.165 15.8306C201.297 12.379 194.838 10.0469 188.118 8.95276C184.752 8.44028 181.315 8.66648 178.045 9.61564C174.775 10.5648 171.751 12.2142 169.183 14.4493C167.982 15.8576 166.68 17.1771 165.289 18.3975C162.242 19.9861 158.98 21.1219 155.606 21.7691C145.234 25.2559 139.623 36.7236 138.187 47.5388C136.752 58.3541 138.314 69.4731 136.838 80.2903C135.909 84.8094 135.38 89.4016 135.258 94.0135C135.588 98.9392 137.095 103.714 139.652 107.936C141.42 111.116 143.729 113.963 146.476 116.348C146.621 119.23 147.393 122.045 148.737 124.598C150.082 127.15 151.968 129.379 154.263 131.128C154.263 131.128 155.481 131.804 155.617 134.616C155.701 136.328 155.35 142.556 155.213 148.16C153.024 149.943 151.335 152.263 150.311 154.894C147.531 160.75 145.931 161.44 142.52 162.709C139.786 163.494 137.278 164.918 135.204 166.865C134.175 168.386 86.7265 178.21 82.7475 180.405C82.7475 180.405 80.7842 179.52 79.1175 182.216C73.1665 198.097 68.8999 214.56 66.3881 231.333C63.9731 250.571 48.3055 314.049 47.0563 322.812C46.4849 327.865 44.1066 329.37 44.5227 332.047C44.9388 334.723 44.2478 334.797 43.9512 337.1C43.6546 339.402 43.3539 341.623 44.1949 342.113C45.0359 342.604 44.0305 344.614 45.1426 346.48C46.2548 348.346 44.84 348.66 46.6403 349.553C48.4406 350.446 47.8097 354.277 51.714 358.949C55.6183 363.621 83.0907 389.17 89.9094 396.642C91.1888 398.798 92.8809 400.68 94.8889 402.181C96.8969 403.682 99.1813 404.772 101.611 405.388C96.4413 414.8 93.9491 425.449 94.4054 436.177C94.4054 436.177 94.6092 436.168 95.9136 436.104C95.9136 436.104 95.716 446.328 96.1519 449.412C96.2436 449.94 96.4955 450.427 96.8735 450.807L96.4927 450.539C97.8976 451.889 99.4949 453.023 101.232 453.904C99.2801 470.198 98.712 486.627 99.5341 503.016C101.193 525.67 104.472 548.176 109.345 570.362C116.762 595.17 126.79 619.074 134.286 643.837C138.142 656.236 140.986 668.929 142.79 681.788C144.474 694.576 142.449 707.545 144.044 720.174C144.513 723.951 145.837 727.645 145.98 731.438C145.989 733.6 145.876 735.761 145.641 737.91C145.423 740.985 144.636 744.128 144.705 747.23C144.337 757.533 144.539 767.849 145.308 778.13C146.694 789.257 148.363 800.344 150.316 811.389C154.237 833.47 159.309 855.33 165.512 876.88C166.648 880.911 166.318 883.378 170.558 883.172L172.025 883.101C172.104 884.731 172.88 886.41 173.286 888.024C173.691 889.639 173.993 890.809 174.299 892.061C174.771 893.718 175.112 895.408 175.321 897.118C175.23 901.893 174.427 906.628 172.94 911.166C172.133 915.577 176.463 920.597 175.77 924.839C173.962 932.06 172.667 939.4 171.894 946.804C172.065 950.309 171.23 956.683 170.812 963.199C170.812 963.199 163.561 989.701 168.347 996.536C172.916 1002.74 179.333 1007.33 186.676 1009.66C190.8 1010.44 204.366 1001.24 207.93 997.227C210.686 993.404 211.847 988.659 211.168 983.995C210.98 980.123 208.78 971.854 208.713 970.468C208.671 969.612 208.63 968.756 208.586 967.859C208.589 962.875 208.795 955.347 208.864 948.357C208.954 941.815 210.093 925.744 209.952 920.317C209.367 915.383 208.171 910.542 206.391 905.904C206.372 905.496 206.35 905.048 206.126 904.65C205.088 900.942 203.258 899.437 201.008 891.825C200.401 889.366 200.087 886.844 200.071 884.312C200.029 883.442 199.986 882.559 199.942 881.662C200.003 881.419 199.991 881.164 199.907 880.928L201.252 880.863C202.164 880.78 203.014 880.363 203.638 879.692C204.261 879.02 204.614 878.142 204.63 877.226C205.42 837.447 205.175 797.677 203.896 757.917C203.867 752.33 203.418 746.752 202.553 741.231C202.77 732.232 203.285 721.829 203.606 716.666C204.09 708.961 202.862 686.222 202.866 680.42C202.87 674.618 202.697 676.956 202.19 666.521C201.683 656.086 199.673 629.872 198.999 616.013C198.516 606.067 197.687 596.588 197.161 588.278C197.006 585.099 196.859 582.083 196.725 579.311C196.687 578.537 196.647 577.721 196.606 576.865C196.519 575.072 196.449 573.645 196.429 573.238C196.41 572.83 196.354 571.689 196.317 570.914C196.332 561.149 196.473 548.925 196.193 542.32C196.078 539.956 195.965 537.633 195.85 535.268C195.737 531.526 196.118 527.784 196.984 524.141L197.351 524.123C197.576 524.285 197.763 524.493 197.902 524.733C198.04 524.972 198.126 525.239 198.154 525.514C198.734 528.739 199.137 531.993 199.364 535.261C199.427 536.565 199.494 537.951 199.562 539.337C199.615 546.321 203.138 612.911 203.142 622.226C203.145 631.541 203.858 690.75 204.225 698.291C205.215 706.462 206.632 714.576 208.471 722.599C208.536 723.944 209.021 725.514 209.432 727.25C210.93 742.376 212.09 757.546 212.911 772.76C213.308 780.912 213.704 789.064 214.114 797.502L217.506 876.518C217.495 877.077 217.669 877.624 218.001 878.074C218.333 878.523 218.805 878.85 219.343 879.003L219.75 878.983C219.996 884.038 220.175 887.706 219.873 889.069C219.435 895.178 216.213 897.827 215.262 901.795C214.803 904.171 214.811 906.613 215.285 908.985C213.763 912.405 212.822 916.055 212.5 919.784C212.356 923.55 212.97 929.445 213.194 934.051C213.289 943.566 212.682 959.652 212.832 968.634C212.547 968.647 212.109 969.731 211.431 972.583C210.551 979.122 210.874 985.766 212.384 992.189C213.19 994.479 215.191 996.138 221.831 1001.62C228.471 1007.1 233.115 1008.5 236.972 1006.32C246.234 1001 257.545 991.628 257.3 984.081C256.333 974.97 254.883 965.917 252.958 956.959C252.958 956.959 252.673 956.973 252.571 957.386C252.987 948.387 252.219 939.372 250.287 930.572C248.499 925.319 248.224 919.669 249.494 914.268C251.008 910.109 249.2 901.494 248.503 893.887C248.244 889.06 248.811 884.224 250.178 879.588L252.827 879.459C255.314 879.338 257.308 878.342 257.556 875.879C259.011 861.263 260.588 846.641 263.4 832.204C265.984 818.963 266.992 806.085 269.165 792.783C270.985 779.435 270.506 765.874 267.747 752.689C267.56 748.857 265.142 745.338 264.854 741.921C264.565 738.503 265.146 735.328 265.393 732.007C265.764 730.124 265.669 728.179 265.118 726.341C264.703 725.381 263.971 724.599 263.517 723.681C262.956 722.236 262.727 720.684 262.847 719.138C262.849 707.412 262.124 695.026 262.85 683.061C263.576 671.095 266.771 659.5 267.048 647.556C267.66 623.992 288.156 555.622 291.107 509.596C292.713 484.636 286.943 458.4 281.328 439.552C283.588 438.134 282.784 437.561 282.333 435.009C281.882 432.457 278.822 423.29 279.027 423.321C279.731 422.949 280.394 422.506 281.006 421.999C281.006 421.999 281.536 421.973 279.387 413.906C277.866 409.562 276.587 405.136 275.556 400.65C275.459 398.653 278.501 397.361 288.377 387.034C298.252 376.708 315.16 349.655 316.454 347.713C317.749 345.771 316.684 346.558 318.694 345.03C320.703 343.502 318.123 339.174 318.658 338.413ZM212.407 129.527L212.375 128.875L212.407 129.527ZM212.337 128.1L212.314 127.611L212.337 128.1ZM268.996 327.916C266.827 331.209 263.406 333.949 262.738 337.863C262.455 339.593 262.674 341.584 261.425 342.789C260.792 343.282 260.077 343.662 259.314 343.913C256.918 344.98 254.97 346.852 253.811 349.206L255.258 341.985C255.567 340.635 255.746 339.258 255.793 337.874C255.344 334.23 254.415 330.662 253.03 327.262C252.9 326.91 252.881 326.526 252.977 326.162C252.963 325.877 253.36 325.653 253.385 325.325C253.446 325.041 253.432 324.746 253.344 324.469C253.12 323.512 253.161 322.513 253.46 321.577C253.76 320.642 254.309 319.805 255.047 319.156C256.549 317.863 257.572 316.1 257.949 314.153C257.892 312.971 257.47 311.848 257.453 310.664C257.35 308.544 258.885 306.508 258.582 304.48C258.535 303.502 257.961 302.631 257.791 301.659C257.676 300.432 257.839 299.195 258.269 298.04L260.155 291.452C260.135 291.044 260.482 290.619 260.888 290.558C260.967 292.189 261.047 293.833 261.128 295.49C261.109 296.563 261.328 297.627 261.77 298.605C262.234 299.337 262.803 299.998 263.458 300.566C265.083 302.184 266.442 304.048 267.486 306.09C267.836 306.709 268.05 307.395 268.115 308.102C268.082 308.866 267.925 309.618 267.651 310.331C267.054 312.777 266.778 315.29 266.83 317.807C266.475 320.319 267.081 322.872 268.526 324.957C269.044 325.544 269.767 326.122 269.723 326.9C269.588 327.304 269.335 327.658 268.996 327.916ZM103.482 306.872L103.5 307.239C104.079 308.985 104.79 310.686 105.626 312.325L105.638 312.569C106.498 315.901 106.777 319.357 106.462 322.784C106.423 328.897 106.72 335.006 107.351 341.086C107.416 341.961 107.554 342.829 107.763 343.681C108.46 345.263 108.953 346.928 109.23 348.635C105.751 346.608 102.475 344.25 99.4496 341.593C98.7716 341.094 97.7854 340.979 97.8253 340.119C97.8158 339.743 97.8992 339.37 98.0682 339.034C98.2371 338.698 98.4864 338.409 98.794 338.193C99.9794 337.106 100.71 335.611 100.838 334.007C100.921 332.36 100.588 330.718 99.8702 329.233C99.4616 328.45 99.1211 327.632 98.8525 326.79C98.2991 324.652 99.2092 322.361 98.5335 320.228C98.4879 319.29 97.8329 318.423 97.7038 317.449C97.3891 315.176 98.9731 313.302 100.052 311.125C101.037 307.935 101.564 304.622 101.617 301.284C102.115 303.185 102.738 305.052 103.482 306.872ZM155.028 152.745C155.016 152.5 155.002 152.215 154.992 152.011C155.002 152.215 155.016 152.5 155.028 152.745ZM222.616 879.089C221.76 879.131 220.944 879.17 220.088 879.212C220.914 879.122 221.744 879.082 222.575 879.091L222.616 879.089Z"/>
</mask>
<path d="M318.658 338.413C319.152 337.653 319.501 337.269 318.495 335.071C317.49 332.872 315.816 332.055 316.454 330.063C317.111 324.572 316.462 319.004 314.561 313.812C312.142 305.227 299.525 243.206 296.305 218.153C293.085 193.101 288.168 184.392 287.513 183.525C286.858 182.658 284.771 182.596 284.044 181.937C280.008 179.407 275.566 177.592 270.913 176.569C267.935 175.815 258.641 172.059 248.629 167.806C248.431 163.912 247.805 160.051 246.761 156.293C245.342 151.103 242.607 146.366 238.82 142.543C232.664 137.102 225.382 133.089 217.494 130.791C216.371 130.396 215.772 128.995 214.898 128.67C221.943 123.139 232.544 121.847 239.005 115.241C242.207 111.958 244.115 107.628 244.377 103.05C244.377 99.6854 243.994 96.3321 243.238 93.0541C241.963 85.8552 241.335 78.5567 241.36 71.2459C241.699 65.3217 241.41 59.3783 240.498 53.5148C239.631 49.6997 238.228 46.0265 236.332 42.6042C233.133 36.6714 228.919 31.345 223.881 26.8665C218.776 22.5253 213.163 18.8196 207.165 15.8306C201.297 12.379 194.838 10.0469 188.118 8.95276C184.752 8.44028 181.315 8.66648 178.045 9.61564C174.775 10.5648 171.751 12.2142 169.183 14.4493C167.982 15.8576 166.68 17.1771 165.289 18.3975C162.242 19.9861 158.98 21.1219 155.606 21.7691C145.234 25.2559 139.623 36.7236 138.187 47.5388C136.752 58.3541 138.314 69.4731 136.838 80.2903C135.909 84.8094 135.38 89.4016 135.258 94.0135C135.588 98.9392 137.095 103.714 139.652 107.936C141.42 111.116 143.729 113.963 146.476 116.348C146.621 119.23 147.393 122.045 148.737 124.598C150.082 127.15 151.968 129.379 154.263 131.128C154.263 131.128 155.481 131.804 155.617 134.616C155.701 136.328 155.35 142.556 155.213 148.16C153.024 149.943 151.335 152.263 150.311 154.894C147.531 160.75 145.931 161.44 142.52 162.709C139.786 163.494 137.278 164.918 135.204 166.865C134.175 168.386 86.7265 178.21 82.7475 180.405C82.7475 180.405 80.7842 179.52 79.1175 182.216C73.1665 198.097 68.8999 214.56 66.3881 231.333C63.9731 250.571 48.3055 314.049 47.0563 322.812C46.4849 327.865 44.1066 329.37 44.5227 332.047C44.9388 334.723 44.2478 334.797 43.9512 337.1C43.6546 339.402 43.3539 341.623 44.1949 342.113C45.0359 342.604 44.0305 344.614 45.1426 346.48C46.2548 348.346 44.84 348.66 46.6403 349.553C48.4406 350.446 47.8097 354.277 51.714 358.949C55.6183 363.621 83.0907 389.17 89.9094 396.642C91.1888 398.798 92.8809 400.68 94.8889 402.181C96.8969 403.682 99.1813 404.772 101.611 405.388C96.4413 414.8 93.9491 425.449 94.4054 436.177C94.4054 436.177 94.6092 436.168 95.9136 436.104C95.9136 436.104 95.716 446.328 96.1519 449.412C96.2436 449.94 96.4955 450.427 96.8735 450.807L96.4927 450.539C97.8976 451.889 99.4949 453.023 101.232 453.904C99.2801 470.198 98.712 486.627 99.5341 503.016C101.193 525.67 104.472 548.176 109.345 570.362C116.762 595.17 126.79 619.074 134.286 643.837C138.142 656.236 140.986 668.929 142.79 681.788C144.474 694.576 142.449 707.545 144.044 720.174C144.513 723.951 145.837 727.645 145.98 731.438C145.989 733.6 145.876 735.761 145.641 737.91C145.423 740.985 144.636 744.128 144.705 747.23C144.337 757.533 144.539 767.849 145.308 778.13C146.694 789.257 148.363 800.344 150.316 811.389C154.237 833.47 159.309 855.33 165.512 876.88C166.648 880.911 166.318 883.378 170.558 883.172L172.025 883.101C172.104 884.731 172.88 886.41 173.286 888.024C173.691 889.639 173.993 890.809 174.299 892.061C174.771 893.718 175.112 895.408 175.321 897.118C175.23 901.893 174.427 906.628 172.94 911.166C172.133 915.577 176.463 920.597 175.77 924.839C173.962 932.06 172.667 939.4 171.894 946.804C172.065 950.309 171.23 956.683 170.812 963.199C170.812 963.199 163.561 989.701 168.347 996.536C172.916 1002.74 179.333 1007.33 186.676 1009.66C190.8 1010.44 204.366 1001.24 207.93 997.227C210.686 993.404 211.847 988.659 211.168 983.995C210.98 980.123 208.78 971.854 208.713 970.468C208.671 969.612 208.63 968.756 208.586 967.859C208.589 962.875 208.795 955.347 208.864 948.357C208.954 941.815 210.093 925.744 209.952 920.317C209.367 915.383 208.171 910.542 206.391 905.904C206.372 905.496 206.35 905.048 206.126 904.65C205.088 900.942 203.258 899.437 201.008 891.825C200.401 889.366 200.087 886.844 200.071 884.312C200.029 883.442 199.986 882.559 199.942 881.662C200.003 881.419 199.991 881.164 199.907 880.928L201.252 880.863C202.164 880.78 203.014 880.363 203.638 879.692C204.261 879.02 204.614 878.142 204.63 877.226C205.42 837.447 205.175 797.677 203.896 757.917C203.867 752.33 203.418 746.752 202.553 741.231C202.77 732.232 203.285 721.829 203.606 716.666C204.09 708.961 202.862 686.222 202.866 680.42C202.87 674.618 202.697 676.956 202.19 666.521C201.683 656.086 199.673 629.872 198.999 616.013C198.516 606.067 197.687 596.588 197.161 588.278C197.006 585.099 196.859 582.083 196.725 579.311C196.687 578.537 196.647 577.721 196.606 576.865C196.519 575.072 196.449 573.645 196.429 573.238C196.41 572.83 196.354 571.689 196.317 570.914C196.332 561.149 196.473 548.925 196.193 542.32C196.078 539.956 195.965 537.633 195.85 535.268C195.737 531.526 196.118 527.784 196.984 524.141L197.351 524.123C197.576 524.285 197.763 524.493 197.902 524.733C198.04 524.972 198.126 525.239 198.154 525.514C198.734 528.739 199.137 531.993 199.364 535.261C199.427 536.565 199.494 537.951 199.562 539.337C199.615 546.321 203.138 612.911 203.142 622.226C203.145 631.541 203.858 690.75 204.225 698.291C205.215 706.462 206.632 714.576 208.471 722.599C208.536 723.944 209.021 725.514 209.432 727.25C210.93 742.376 212.09 757.546 212.911 772.76C213.308 780.912 213.704 789.064 214.114 797.502L217.506 876.518C217.495 877.077 217.669 877.624 218.001 878.074C218.333 878.523 218.805 878.85 219.343 879.003L219.75 878.983C219.996 884.038 220.175 887.706 219.873 889.069C219.435 895.178 216.213 897.827 215.262 901.795C214.803 904.171 214.811 906.613 215.285 908.985C213.763 912.405 212.822 916.055 212.5 919.784C212.356 923.55 212.97 929.445 213.194 934.051C213.289 943.566 212.682 959.652 212.832 968.634C212.547 968.647 212.109 969.731 211.431 972.583C210.551 979.122 210.874 985.766 212.384 992.189C213.19 994.479 215.191 996.138 221.831 1001.62C228.471 1007.1 233.115 1008.5 236.972 1006.32C246.234 1001 257.545 991.628 257.3 984.081C256.333 974.97 254.883 965.917 252.958 956.959C252.958 956.959 252.673 956.973 252.571 957.386C252.987 948.387 252.219 939.372 250.287 930.572C248.499 925.319 248.224 919.669 249.494 914.268C251.008 910.109 249.2 901.494 248.503 893.887C248.244 889.06 248.811 884.224 250.178 879.588L252.827 879.459C255.314 879.338 257.308 878.342 257.556 875.879C259.011 861.263 260.588 846.641 263.4 832.204C265.984 818.963 266.992 806.085 269.165 792.783C270.985 779.435 270.506 765.874 267.747 752.689C267.56 748.857 265.142 745.338 264.854 741.921C264.565 738.503 265.146 735.328 265.393 732.007C265.764 730.124 265.669 728.179 265.118 726.341C264.703 725.381 263.971 724.599 263.517 723.681C262.956 722.236 262.727 720.684 262.847 719.138C262.849 707.412 262.124 695.026 262.85 683.061C263.576 671.095 266.771 659.5 267.048 647.556C267.66 623.992 288.156 555.622 291.107 509.596C292.713 484.636 286.943 458.4 281.328 439.552C283.588 438.134 282.784 437.561 282.333 435.009C281.882 432.457 278.822 423.29 279.027 423.321C279.731 422.949 280.394 422.506 281.006 421.999C281.006 421.999 281.536 421.973 279.387 413.906C277.866 409.562 276.587 405.136 275.556 400.65C275.459 398.653 278.501 397.361 288.377 387.034C298.252 376.708 315.16 349.655 316.454 347.713C317.749 345.771 316.684 346.558 318.694 345.03C320.703 343.502 318.123 339.174 318.658 338.413ZM212.407 129.527L212.375 128.875L212.407 129.527ZM212.337 128.1L212.314 127.611L212.337 128.1ZM268.996 327.916C266.827 331.209 263.406 333.949 262.738 337.863C262.455 339.593 262.674 341.584 261.425 342.789C260.792 343.282 260.077 343.662 259.314 343.913C256.918 344.98 254.97 346.852 253.811 349.206L255.258 341.985C255.567 340.635 255.746 339.258 255.793 337.874C255.344 334.23 254.415 330.662 253.03 327.262C252.9 326.91 252.881 326.526 252.977 326.162C252.963 325.877 253.36 325.653 253.385 325.325C253.446 325.041 253.432 324.746 253.344 324.469C253.12 323.512 253.161 322.513 253.46 321.577C253.76 320.642 254.309 319.805 255.047 319.156C256.549 317.863 257.572 316.1 257.949 314.153C257.892 312.971 257.47 311.848 257.453 310.664C257.35 308.544 258.885 306.508 258.582 304.48C258.535 303.502 257.961 302.631 257.791 301.659C257.676 300.432 257.839 299.195 258.269 298.04L260.155 291.452C260.135 291.044 260.482 290.619 260.888 290.558C260.967 292.189 261.047 293.833 261.128 295.49C261.109 296.563 261.328 297.627 261.77 298.605C262.234 299.337 262.803 299.998 263.458 300.566C265.083 302.184 266.442 304.048 267.486 306.09C267.836 306.709 268.05 307.395 268.115 308.102C268.082 308.866 267.925 309.618 267.651 310.331C267.054 312.777 266.778 315.29 266.83 317.807C266.475 320.319 267.081 322.872 268.526 324.957C269.044 325.544 269.767 326.122 269.723 326.9C269.588 327.304 269.335 327.658 268.996 327.916ZM103.482 306.872L103.5 307.239C104.079 308.985 104.79 310.686 105.626 312.325L105.638 312.569C106.498 315.901 106.777 319.357 106.462 322.784C106.423 328.897 106.72 335.006 107.351 341.086C107.416 341.961 107.554 342.829 107.763 343.681C108.46 345.263 108.953 346.928 109.23 348.635C105.751 346.608 102.475 344.25 99.4496 341.593C98.7716 341.094 97.7854 340.979 97.8253 340.119C97.8158 339.743 97.8992 339.37 98.0682 339.034C98.2371 338.698 98.4864 338.409 98.794 338.193C99.9794 337.106 100.71 335.611 100.838 334.007C100.921 332.36 100.588 330.718 99.8702 329.233C99.4616 328.45 99.1211 327.632 98.8525 326.79C98.2991 324.652 99.2092 322.361 98.5335 320.228C98.4879 319.29 97.8329 318.423 97.7038 317.449C97.3891 315.176 98.9731 313.302 100.052 311.125C101.037 307.935 101.564 304.622 101.617 301.284C102.115 303.185 102.738 305.052 103.482 306.872ZM155.028 152.745C155.016 152.5 155.002 152.215 154.992 152.011C155.002 152.215 155.016 152.5 155.028 152.745ZM222.616 879.089C221.76 879.131 220.944 879.17 220.088 879.212C220.914 879.122 221.744 879.082 222.575 879.091L222.616 879.089Z" fill="#2A3A51"/>
<path d="M318.658 338.413C319.152 337.653 319.501 337.269 318.495 335.071C317.49 332.872 315.816 332.055 316.454 330.063C317.111 324.572 316.462 319.004 314.561 313.812C312.142 305.227 299.525 243.206 296.305 218.153C293.085 193.101 288.168 184.392 287.513 183.525C286.858 182.658 284.771 182.596 284.044 181.937C280.008 179.407 275.566 177.592 270.913 176.569C267.935 175.815 258.641 172.059 248.629 167.806C248.431 163.912 247.805 160.051 246.761 156.293C245.342 151.103 242.607 146.366 238.82 142.543C232.664 137.102 225.382 133.089 217.494 130.791C216.371 130.396 215.772 128.995 214.898 128.67C221.943 123.139 232.544 121.847 239.005 115.241C242.207 111.958 244.115 107.628 244.377 103.05C244.377 99.6854 243.994 96.3321 243.238 93.0541C241.963 85.8552 241.335 78.5567 241.36 71.2459C241.699 65.3217 241.41 59.3783 240.498 53.5148C239.631 49.6997 238.228 46.0265 236.332 42.6042C233.133 36.6714 228.919 31.345 223.881 26.8665C218.776 22.5253 213.163 18.8196 207.165 15.8306C201.297 12.379 194.838 10.0469 188.118 8.95276C184.752 8.44028 181.315 8.66648 178.045 9.61564C174.775 10.5648 171.751 12.2142 169.183 14.4493C167.982 15.8576 166.68 17.1771 165.289 18.3975C162.242 19.9861 158.98 21.1219 155.606 21.7691C145.234 25.2559 139.623 36.7236 138.187 47.5388C136.752 58.3541 138.314 69.4731 136.838 80.2903C135.909 84.8094 135.38 89.4016 135.258 94.0135C135.588 98.9392 137.095 103.714 139.652 107.936C141.42 111.116 143.729 113.963 146.476 116.348C146.621 119.23 147.393 122.045 148.737 124.598C150.082 127.15 151.968 129.379 154.263 131.128C154.263 131.128 155.481 131.804 155.617 134.616C155.701 136.328 155.35 142.556 155.213 148.16C153.024 149.943 151.335 152.263 150.311 154.894C147.531 160.75 145.931 161.44 142.52 162.709C139.786 163.494 137.278 164.918 135.204 166.865C134.175 168.386 86.7265 178.21 82.7475 180.405C82.7475 180.405 80.7842 179.52 79.1175 182.216C73.1665 198.097 68.8999 214.56 66.3881 231.333C63.9731 250.571 48.3055 314.049 47.0563 322.812C46.4849 327.865 44.1066 329.37 44.5227 332.047C44.9388 334.723 44.2478 334.797 43.9512 337.1C43.6546 339.402 43.3539 341.623 44.1949 342.113C45.0359 342.604 44.0305 344.614 45.1426 346.48C46.2548 348.346 44.84 348.66 46.6403 349.553C48.4406 350.446 47.8097 354.277 51.714 358.949C55.6183 363.621 83.0907 389.17 89.9094 396.642C91.1888 398.798 92.8809 400.68 94.8889 402.181C96.8969 403.682 99.1813 404.772 101.611 405.388C96.4413 414.8 93.9491 425.449 94.4054 436.177C94.4054 436.177 94.6092 436.168 95.9136 436.104C95.9136 436.104 95.716 446.328 96.1519 449.412C96.2436 449.94 96.4955 450.427 96.8735 450.807L96.4927 450.539C97.8976 451.889 99.4949 453.023 101.232 453.904C99.2801 470.198 98.712 486.627 99.5341 503.016C101.193 525.67 104.472 548.176 109.345 570.362C116.762 595.17 126.79 619.074 134.286 643.837C138.142 656.236 140.986 668.929 142.79 681.788C144.474 694.576 142.449 707.545 144.044 720.174C144.513 723.951 145.837 727.645 145.98 731.438C145.989 733.6 145.876 735.761 145.641 737.91C145.423 740.985 144.636 744.128 144.705 747.23C144.337 757.533 144.539 767.849 145.308 778.13C146.694 789.257 148.363 800.344 150.316 811.389C154.237 833.47 159.309 855.33 165.512 876.88C166.648 880.911 166.318 883.378 170.558 883.172L172.025 883.101C172.104 884.731 172.88 886.41 173.286 888.024C173.691 889.639 173.993 890.809 174.299 892.061C174.771 893.718 175.112 895.408 175.321 897.118C175.23 901.893 174.427 906.628 172.94 911.166C172.133 915.577 176.463 920.597 175.77 924.839C173.962 932.06 172.667 939.4 171.894 946.804C172.065 950.309 171.23 956.683 170.812 963.199C170.812 963.199 163.561 989.701 168.347 996.536C172.916 1002.74 179.333 1007.33 186.676 1009.66C190.8 1010.44 204.366 1001.24 207.93 997.227C210.686 993.404 211.847 988.659 211.168 983.995C210.98 980.123 208.78 971.854 208.713 970.468C208.671 969.612 208.63 968.756 208.586 967.859C208.589 962.875 208.795 955.347 208.864 948.357C208.954 941.815 210.093 925.744 209.952 920.317C209.367 915.383 208.171 910.542 206.391 905.904C206.372 905.496 206.35 905.048 206.126 904.65C205.088 900.942 203.258 899.437 201.008 891.825C200.401 889.366 200.087 886.844 200.071 884.312C200.029 883.442 199.986 882.559 199.942 881.662C200.003 881.419 199.991 881.164 199.907 880.928L201.252 880.863C202.164 880.78 203.014 880.363 203.638 879.692C204.261 879.02 204.614 878.142 204.63 877.226C205.42 837.447 205.175 797.677 203.896 757.917C203.867 752.33 203.418 746.752 202.553 741.231C202.77 732.232 203.285 721.829 203.606 716.666C204.09 708.961 202.862 686.222 202.866 680.42C202.87 674.618 202.697 676.956 202.19 666.521C201.683 656.086 199.673 629.872 198.999 616.013C198.516 606.067 197.687 596.588 197.161 588.278C197.006 585.099 196.859 582.083 196.725 579.311C196.687 578.537 196.647 577.721 196.606 576.865C196.519 575.072 196.449 573.645 196.429 573.238C196.41 572.83 196.354 571.689 196.317 570.914C196.332 561.149 196.473 548.925 196.193 542.32C196.078 539.956 195.965 537.633 195.85 535.268C195.737 531.526 196.118 527.784 196.984 524.141L197.351 524.123C197.576 524.285 197.763 524.493 197.902 524.733C198.04 524.972 198.126 525.239 198.154 525.514C198.734 528.739 199.137 531.993 199.364 535.261C199.427 536.565 199.494 537.951 199.562 539.337C199.615 546.321 203.138 612.911 203.142 622.226C203.145 631.541 203.858 690.75 204.225 698.291C205.215 706.462 206.632 714.576 208.471 722.599C208.536 723.944 209.021 725.514 209.432 727.25C210.93 742.376 212.09 757.546 212.911 772.76C213.308 780.912 213.704 789.064 214.114 797.502L217.506 876.518C217.495 877.077 217.669 877.624 218.001 878.074C218.333 878.523 218.805 878.85 219.343 879.003L219.75 878.983C219.996 884.038 220.175 887.706 219.873 889.069C219.435 895.178 216.213 897.827 215.262 901.795C214.803 904.171 214.811 906.613 215.285 908.985C213.763 912.405 212.822 916.055 212.5 919.784C212.356 923.55 212.97 929.445 213.194 934.051C213.289 943.566 212.682 959.652 212.832 968.634C212.547 968.647 212.109 969.731 211.431 972.583C210.551 979.122 210.874 985.766 212.384 992.189C213.19 994.479 215.191 996.138 221.831 1001.62C228.471 1007.1 233.115 1008.5 236.972 1006.32C246.234 1001 257.545 991.628 257.3 984.081C256.333 974.97 254.883 965.917 252.958 956.959C252.958 956.959 252.673 956.973 252.571 957.386C252.987 948.387 252.219 939.372 250.287 930.572C248.499 925.319 248.224 919.669 249.494 914.268C251.008 910.109 249.2 901.494 248.503 893.887C248.244 889.06 248.811 884.224 250.178 879.588L252.827 879.459C255.314 879.338 257.308 878.342 257.556 875.879C259.011 861.263 260.588 846.641 263.4 832.204C265.984 818.963 266.992 806.085 269.165 792.783C270.985 779.435 270.506 765.874 267.747 752.689C267.56 748.857 265.142 745.338 264.854 741.921C264.565 738.503 265.146 735.328 265.393 732.007C265.764 730.124 265.669 728.179 265.118 726.341C264.703 725.381 263.971 724.599 263.517 723.681C262.956 722.236 262.727 720.684 262.847 719.138C262.849 707.412 262.124 695.026 262.85 683.061C263.576 671.095 266.771 659.5 267.048 647.556C267.66 623.992 288.156 555.622 291.107 509.596C292.713 484.636 286.943 458.4 281.328 439.552C283.588 438.134 282.784 437.561 282.333 435.009C281.882 432.457 278.822 423.29 279.027 423.321C279.731 422.949 280.394 422.506 281.006 421.999C281.006 421.999 281.536 421.973 279.387 413.906C277.866 409.562 276.587 405.136 275.556 400.65C275.459 398.653 278.501 397.361 288.377 387.034C298.252 376.708 315.16 349.655 316.454 347.713C317.749 345.771 316.684 346.558 318.694 345.03C320.703 343.502 318.123 339.174 318.658 338.413ZM212.407 129.527L212.375 128.875L212.407 129.527ZM212.337 128.1L212.314 127.611L212.337 128.1ZM268.996 327.916C266.827 331.209 263.406 333.949 262.738 337.863C262.455 339.593 262.674 341.584 261.425 342.789C260.792 343.282 260.077 343.662 259.314 343.913C256.918 344.98 254.97 346.852 253.811 349.206L255.258 341.985C255.567 340.635 255.746 339.258 255.793 337.874C255.344 334.23 254.415 330.662 253.03 327.262C252.9 326.91 252.881 326.526 252.977 326.162C252.963 325.877 253.36 325.653 253.385 325.325C253.446 325.041 253.432 324.746 253.344 324.469C253.12 323.512 253.161 322.513 253.46 321.577C253.76 320.642 254.309 319.805 255.047 319.156C256.549 317.863 257.572 316.1 257.949 314.153C257.892 312.971 257.47 311.848 257.453 310.664C257.35 308.544 258.885 306.508 258.582 304.48C258.535 303.502 257.961 302.631 257.791 301.659C257.676 300.432 257.839 299.195 258.269 298.04L260.155 291.452C260.135 291.044 260.482 290.619 260.888 290.558C260.967 292.189 261.047 293.833 261.128 295.49C261.109 296.563 261.328 297.627 261.77 298.605C262.234 299.337 262.803 299.998 263.458 300.566C265.083 302.184 266.442 304.048 267.486 306.09C267.836 306.709 268.05 307.395 268.115 308.102C268.082 308.866 267.925 309.618 267.651 310.331C267.054 312.777 266.778 315.29 266.83 317.807C266.475 320.319 267.081 322.872 268.526 324.957C269.044 325.544 269.767 326.122 269.723 326.9C269.588 327.304 269.335 327.658 268.996 327.916ZM103.482 306.872L103.5 307.239C104.079 308.985 104.79 310.686 105.626 312.325L105.638 312.569C106.498 315.901 106.777 319.357 106.462 322.784C106.423 328.897 106.72 335.006 107.351 341.086C107.416 341.961 107.554 342.829 107.763 343.681C108.46 345.263 108.953 346.928 109.23 348.635C105.751 346.608 102.475 344.25 99.4496 341.593C98.7716 341.094 97.7854 340.979 97.8253 340.119C97.8158 339.743 97.8992 339.37 98.0682 339.034C98.2371 338.698 98.4864 338.409 98.794 338.193C99.9794 337.106 100.71 335.611 100.838 334.007C100.921 332.36 100.588 330.718 99.8702 329.233C99.4616 328.45 99.1211 327.632 98.8525 326.79C98.2991 324.652 99.2092 322.361 98.5335 320.228C98.4879 319.29 97.8329 318.423 97.7038 317.449C97.3891 315.176 98.9731 313.302 100.052 311.125C101.037 307.935 101.564 304.622 101.617 301.284C102.115 303.185 102.738 305.052 103.482 306.872ZM155.028 152.745C155.016 152.5 155.002 152.215 154.992 152.011C155.002 152.215 155.016 152.5 155.028 152.745ZM222.616 879.089C221.76 879.131 220.944 879.17 220.088 879.212C220.914 879.122 221.744 879.082 222.575 879.091L222.616 879.089Z" stroke="#2A3A51" stroke-width="4" mask="url(#path-4-outside-1)"/>
<path opacity="0.1" d="M318.658 338.413C319.152 337.654 319.501 337.269 318.495 335.071C317.49 332.872 315.816 332.055 316.454 330.063C317.111 324.572 316.462 319.004 314.561 313.812C312.142 305.227 299.525 243.206 296.305 218.154C293.085 193.101 288.168 184.392 287.513 183.525C286.858 182.658 284.771 182.596 284.044 181.937C280.008 179.408 275.566 177.592 270.913 176.569C267.935 175.815 258.641 172.059 248.629 167.806C248.431 163.912 247.805 160.051 246.761 156.293C245.342 151.103 242.607 146.367 238.82 142.543C232.664 137.102 225.382 133.089 217.494 130.791C216.371 130.396 215.772 128.996 214.898 128.67C221.943 123.139 232.544 121.847 239.005 115.241C242.207 111.958 244.115 107.628 244.377 103.05C244.377 99.6855 243.994 96.3322 243.238 93.0542C241.963 85.8553 241.335 78.5568 241.36 71.246C241.699 65.3218 241.41 59.3784 240.498 53.5149C239.631 49.6999 238.228 46.0266 236.332 42.6043C233.133 36.6715 228.919 31.3451 223.881 26.8667C218.776 22.5254 213.163 18.8197 207.165 15.8307C201.297 12.3792 194.838 10.047 188.118 8.95288C184.752 8.4404 181.315 8.6666 178.045 9.61576C174.775 10.5649 171.751 12.2143 169.183 14.4494C167.982 15.8577 166.68 17.1772 165.289 18.3976C162.242 19.9862 158.98 21.122 155.606 21.7692C145.234 25.256 139.623 36.7237 138.187 47.539C136.752 58.3542 138.314 69.4732 136.838 80.2904C135.909 84.8095 135.38 89.4017 135.258 94.0136C135.588 98.9394 137.095 103.714 139.652 107.937C141.42 111.116 143.729 113.963 146.476 116.348C146.621 119.23 147.393 122.045 148.737 124.598C150.082 127.151 151.968 129.379 154.263 131.128C154.263 131.128 155.481 131.804 155.617 134.617C155.701 136.329 155.35 142.556 155.213 148.16C153.024 149.943 151.335 152.264 150.311 154.895C147.531 160.75 145.931 161.44 142.52 162.709C139.786 163.494 137.278 164.919 135.204 166.865C134.175 168.386 86.7265 178.21 82.7475 180.406C82.7475 180.406 80.7842 179.52 79.1175 182.216C73.1665 198.098 68.8999 214.56 66.3881 231.333C63.9731 250.571 48.3055 314.049 47.0563 322.812C46.4849 327.866 44.1066 329.37 44.5227 332.047C44.9388 334.723 44.2478 334.797 43.9512 337.1C43.6546 339.402 43.3539 341.623 44.1949 342.113C45.0359 342.604 44.0305 344.614 45.1426 346.48C46.2548 348.346 44.84 348.66 46.6403 349.553C48.4406 350.446 47.8097 354.277 51.714 358.949C55.6183 363.621 83.0907 389.17 89.9094 396.642C91.1888 398.798 92.8809 400.68 94.8889 402.181C96.8969 403.682 99.1813 404.772 101.611 405.389C96.4413 414.8 93.9491 425.449 94.4054 436.178C94.4054 436.178 94.6092 436.168 95.9136 436.104C95.9136 436.104 95.716 446.328 96.1519 449.412C96.2436 449.94 96.4955 450.427 96.8735 450.807L96.4927 450.54C97.8976 451.889 99.4949 453.023 101.232 453.905C99.2801 470.198 98.712 486.627 99.5341 503.016C101.193 525.67 104.472 548.176 109.345 570.362C116.762 595.17 126.79 619.074 134.286 643.837C138.142 656.237 140.986 668.929 142.79 681.788C144.474 694.577 142.449 707.545 144.044 720.174C144.513 723.951 145.837 727.646 145.98 731.438C145.989 733.6 145.876 735.761 145.641 737.91C145.423 740.985 144.636 744.129 144.705 747.23C144.337 757.534 144.539 767.849 145.308 778.13C146.694 789.258 148.363 800.344 150.316 811.39C154.237 833.47 159.309 855.33 165.512 876.881C166.648 880.911 166.318 883.379 170.558 883.172L172.025 883.101C172.104 884.732 172.88 886.41 173.286 888.024C173.691 889.639 173.993 890.809 174.299 892.061C174.771 893.718 175.112 895.409 175.321 897.118C175.23 901.893 174.427 906.628 172.94 911.166C172.133 915.577 176.463 920.597 175.77 924.839C173.962 932.06 172.667 939.4 171.894 946.804C172.065 950.309 171.23 956.683 170.812 963.2C170.812 963.2 163.561 989.701 168.347 996.536C172.916 1002.74 179.333 1007.33 186.676 1009.66C190.8 1010.44 204.366 1001.24 207.93 997.227C210.686 993.404 211.847 988.659 211.168 983.995C210.98 980.123 208.78 971.854 208.713 970.468C208.671 969.612 208.63 968.756 208.586 967.859C208.589 962.875 208.795 955.347 208.864 948.357C208.954 941.815 210.093 925.744 209.952 920.317C209.367 915.384 208.171 910.542 206.391 905.904C206.372 905.496 206.35 905.048 206.126 904.65C205.088 900.942 203.258 899.437 201.008 891.825C200.401 889.366 200.087 886.844 200.071 884.312C200.029 883.442 199.986 882.559 199.942 881.662C200.003 881.42 199.991 881.164 199.907 880.929L201.252 880.863C202.164 880.78 203.014 880.363 203.638 879.692C204.261 879.02 204.614 878.142 204.63 877.226C205.42 837.447 205.175 797.678 203.896 757.917C203.867 752.33 203.418 746.752 202.553 741.231C202.77 732.232 203.285 721.829 203.606 716.666C204.09 708.961 202.862 686.222 202.866 680.42C202.87 674.619 202.697 676.956 202.19 666.521C201.683 656.086 199.673 629.872 198.999 616.013C198.516 606.067 197.687 596.588 197.161 588.279C197.006 585.099 196.859 582.083 196.725 579.311C196.687 578.537 196.647 577.721 196.606 576.865C196.519 575.072 196.449 573.645 196.429 573.238C196.41 572.83 196.354 571.689 196.317 570.914C196.332 561.149 196.473 548.925 196.193 542.32C196.078 539.956 195.965 537.633 195.85 535.269C195.737 531.526 196.118 527.784 196.984 524.141L197.351 524.123C197.576 524.285 197.763 524.493 197.902 524.733C198.04 524.972 198.126 525.239 198.154 525.514C198.734 528.739 199.137 531.993 199.364 535.261C199.427 536.566 199.494 537.951 199.562 539.337C199.615 546.321 203.138 612.911 203.142 622.226C203.145 631.541 203.858 690.75 204.225 698.291C205.215 706.462 206.632 714.576 208.471 722.599C208.536 723.944 209.021 725.514 209.432 727.25C210.93 742.377 212.09 757.546 212.911 772.76C213.308 780.912 213.704 789.064 214.114 797.502L217.506 876.518C217.495 877.077 217.669 877.624 218.001 878.074C218.333 878.523 218.805 878.85 219.343 879.003L219.75 878.983C219.996 884.038 220.175 887.706 219.873 889.069C219.435 895.178 216.213 897.827 215.262 901.796C214.803 904.171 214.811 906.613 215.285 908.985C213.763 912.405 212.822 916.055 212.5 919.784C212.356 923.55 212.97 929.445 213.194 934.051C213.289 943.566 212.682 959.652 212.832 968.634C212.547 968.648 212.109 969.731 211.431 972.583C210.551 979.122 210.874 985.767 212.384 992.189C213.19 994.479 215.191 996.139 221.831 1001.62C228.471 1007.1 233.115 1008.5 236.972 1006.32C246.234 1001 257.545 991.628 257.3 984.081C256.333 974.97 254.883 965.917 252.958 956.959C252.958 956.959 252.673 956.973 252.571 957.386C252.987 948.387 252.219 939.372 250.287 930.572C248.499 925.319 248.224 919.67 249.494 914.268C251.008 910.109 249.2 901.494 248.503 893.888C248.244 889.06 248.811 884.225 250.178 879.588L252.827 879.459C255.314 879.338 257.308 878.342 257.556 875.879C259.011 861.263 260.588 846.641 263.4 832.204C265.984 818.963 266.992 806.085 269.165 792.783C270.985 779.435 270.506 765.874 267.747 752.689C267.56 748.857 265.142 745.339 264.854 741.921C264.565 738.503 265.146 735.328 265.393 732.007C265.764 730.124 265.669 728.179 265.118 726.341C264.703 725.381 263.971 724.599 263.517 723.682C262.956 722.237 262.727 720.684 262.847 719.138C262.849 707.412 262.124 695.027 262.85 683.061C263.576 671.095 266.771 659.5 267.048 647.556C267.66 623.993 288.156 555.622 291.107 509.596C292.713 484.636 286.943 458.4 281.328 439.552C283.588 438.135 282.784 437.561 282.333 435.009C281.882 432.457 278.822 423.29 279.027 423.321C279.731 422.949 280.394 422.507 281.006 421.999C281.006 421.999 281.536 421.973 279.387 413.906C277.866 409.562 276.587 405.136 275.556 400.65C275.459 398.653 278.501 397.361 288.377 387.034C298.252 376.708 315.16 349.655 316.454 347.713C317.749 345.771 316.684 346.558 318.694 345.03C320.703 343.502 318.123 339.174 318.658 338.413ZM212.407 129.527L212.375 128.875L212.407 129.527ZM212.337 128.1L212.314 127.611L212.337 128.1ZM268.996 327.916C266.827 331.209 263.406 333.949 262.738 337.863C262.455 339.593 262.674 341.584 261.425 342.789C260.792 343.282 260.077 343.662 259.314 343.913C256.918 344.98 254.97 346.852 253.811 349.206L255.258 341.985C255.567 340.635 255.746 339.258 255.793 337.874C255.344 334.23 254.415 330.662 253.03 327.263C252.9 326.91 252.881 326.526 252.977 326.162C252.963 325.877 253.36 325.653 253.385 325.325C253.446 325.041 253.432 324.746 253.344 324.469C253.12 323.512 253.161 322.513 253.46 321.577C253.76 320.642 254.309 319.805 255.047 319.157C256.549 317.863 257.572 316.1 257.949 314.153C257.892 312.971 257.47 311.848 257.453 310.664C257.35 308.544 258.885 306.508 258.582 304.48C258.535 303.502 257.961 302.631 257.791 301.659C257.676 300.432 257.839 299.195 258.269 298.04L260.155 291.452C260.135 291.044 260.482 290.619 260.888 290.558C260.967 292.189 261.047 293.833 261.128 295.49C261.109 296.563 261.328 297.627 261.77 298.605C262.234 299.337 262.803 299.998 263.458 300.566C265.083 302.184 266.442 304.048 267.486 306.09C267.836 306.709 268.05 307.395 268.115 308.103C268.082 308.866 267.925 309.618 267.651 310.331C267.054 312.777 266.778 315.29 266.83 317.807C266.475 320.319 267.081 322.872 268.526 324.957C269.044 325.544 269.767 326.122 269.723 326.9C269.588 327.304 269.335 327.658 268.996 327.916ZM103.482 306.872L103.5 307.239C104.079 308.986 104.79 310.686 105.626 312.325L105.638 312.569C106.498 315.902 106.777 319.357 106.462 322.784C106.423 328.897 106.72 335.006 107.351 341.086C107.416 341.961 107.554 342.829 107.763 343.681C108.46 345.263 108.953 346.928 109.23 348.635C105.751 346.608 102.475 344.25 99.4496 341.593C98.7716 341.095 97.7854 340.979 97.8253 340.119C97.8158 339.743 97.8992 339.371 98.0682 339.034C98.2371 338.698 98.4864 338.409 98.794 338.193C99.9794 337.106 100.71 335.611 100.838 334.008C100.921 332.36 100.588 330.719 99.8702 329.233C99.4616 328.45 99.1211 327.633 98.8525 326.791C98.2991 324.652 99.2092 322.361 98.5335 320.228C98.4879 319.291 97.8329 318.424 97.7038 317.449C97.3891 315.177 98.9731 313.302 100.052 311.125C101.037 307.935 101.564 304.622 101.617 301.284C102.115 303.186 102.738 305.052 103.482 306.872ZM155.028 152.745C155.016 152.5 155.002 152.215 154.992 152.011C155.002 152.215 155.016 152.5 155.028 152.745ZM222.616 879.089C221.76 879.131 220.944 879.17 220.088 879.212C220.914 879.122 221.744 879.082 222.575 879.091L222.616 879.089Z" fill="url(#paint0_linear)"/>
</g>
</g>
<defs>
<linearGradient id="paint0_linear" x1="27.8828" y1="16.2759" x2="564.518" y2="149.78" gradientUnits="userSpaceOnUse">
<stop stop-color="white"/>
<stop offset="1" stop-color="white" stop-opacity="0.2"/>
</linearGradient>
</defs>
</svg>
