<svg width="310" height="131" viewBox="0 0 310 131" fill="none" xmlns="http://www.w3.org/2000/svg">
<path d="M304.978 112.253C305.181 112.254 305.384 112.233 305.583 112.19C314.835 110.086 314.835 98.8795 314.835 98.8795C314.835 83.6104 304.982 75.9556 304.982 75.9556C304.982 75.9556 295.125 83.5924 295.125 98.8569C295.125 98.8569 295.125 110.077 304.373 112.167C304.571 112.218 304.774 112.247 304.978 112.253Z" fill="#80C33F"/>
<path fill-rule="evenodd" clip-rule="evenodd" d="M304.985 90.6968C305.162 90.6968 305.305 90.8403 305.305 91.0172V129.134C305.305 129.311 305.162 129.454 304.985 129.454C304.808 129.454 304.664 129.311 304.664 129.134V91.0172C304.664 90.8403 304.808 90.6968 304.985 90.6968Z" fill="#2A3A51"/>
<path d="M285.194 110.998L281.534 107.342L277.878 110.998L277.855 129.549H285.194V110.998Z" fill="#F4F5F6"/>
<path fill-rule="evenodd" clip-rule="evenodd" d="M281.531 106.704L285.643 110.811V130H277.4L277.424 110.811L281.531 106.704ZM281.531 107.98L278.326 111.185L278.304 129.097H284.74V111.185L281.531 107.98Z" fill="#959DA8"/>
<path d="M292.519 110.998L288.863 107.342L285.207 110.998L285.18 129.549H292.519V110.998Z" fill="#F4F5F6"/>
<path fill-rule="evenodd" clip-rule="evenodd" d="M288.862 106.704L292.969 110.811V130H284.727L284.755 110.811L288.862 106.704ZM285.657 111.186L285.631 129.097H292.066V111.185L288.862 107.981L285.657 111.186Z" fill="#959DA8"/>
<path d="M299.849 110.998L296.193 107.342L292.537 110.998L292.51 129.549H299.849V110.998Z" fill="#F4F5F6"/>
<path fill-rule="evenodd" clip-rule="evenodd" d="M296.194 106.704L300.301 110.811V130H292.059L292.087 110.811L296.194 106.704ZM292.989 111.186L292.963 129.097H299.398V111.185L296.194 107.981L292.989 111.186Z" fill="#959DA8"/>
<path d="M307.175 110.998L303.514 107.342L299.858 110.998L299.836 129.549H307.175V110.998Z" fill="#F4F5F6"/>
<path fill-rule="evenodd" clip-rule="evenodd" d="M303.517 106.704L307.629 110.811V130H299.387L299.41 110.811L303.517 106.704ZM303.517 107.98L300.312 111.185L300.291 129.097H306.726V111.185L303.517 107.98Z" fill="#959DA8"/>
<path d="M314.503 110.998L310.847 107.342L307.191 110.998L307.164 129.549H314.503V110.998Z" fill="#F4F5F6"/>
<path fill-rule="evenodd" clip-rule="evenodd" d="M310.848 106.704L314.955 110.811V130H306.713L306.741 110.811L310.848 106.704ZM310.848 107.981L307.643 111.186L307.617 129.097H314.052V111.185L310.848 107.981Z" fill="#959DA8"/>
<path d="M38.4268 110.998L34.7709 107.342L31.115 110.998L31.0879 129.549H38.4268V110.998Z" fill="#F4F5F6"/>
<path fill-rule="evenodd" clip-rule="evenodd" d="M34.7737 106.704L38.8809 110.811V130H30.6387L30.6667 110.811L34.7737 106.704ZM31.5688 111.186L31.5427 129.097H37.9782V111.185L34.7737 107.981L31.5688 111.186Z" fill="#959DA8"/>
<path d="M45.7549 110.998L42.099 107.342L38.4431 110.998L38.416 129.549H45.7549V110.998Z" fill="#F4F5F6"/>
<path fill-rule="evenodd" clip-rule="evenodd" d="M42.1018 106.704L46.2091 110.811V130H37.9668L37.9948 110.811L42.1018 106.704ZM38.897 111.186L38.8708 129.097H45.3064V111.185L42.1018 107.981L38.897 111.186Z" fill="#959DA8"/>
<path d="M53.0889 110.998L49.433 107.342L45.7726 110.998L45.75 129.549H53.0889V110.998Z" fill="#F4F5F6"/>
<path fill-rule="evenodd" clip-rule="evenodd" d="M49.432 106.704L53.539 110.811V130H45.2969L45.3202 110.811L49.432 106.704ZM46.2225 111.185L46.2007 129.097H52.6363V111.185L49.4316 107.98L46.2225 111.185Z" fill="#959DA8"/>
<path d="M60.4151 110.998L56.7592 107.342L53.1033 110.998L53.0762 129.549H60.4151V110.998Z" fill="#F4F5F6"/>
<path fill-rule="evenodd" clip-rule="evenodd" d="M56.7561 106.704L60.8634 110.811V130H52.6211L52.6491 110.811L56.7561 106.704ZM53.5513 111.186L53.5251 129.097H59.9607V111.185L56.7561 107.981L53.5513 111.186Z" fill="#959DA8"/>
<path d="M67.7413 110.998L64.0853 107.342L60.4294 110.998L60.4023 129.549H67.7413V110.998Z" fill="#F4F5F6"/>
<path fill-rule="evenodd" clip-rule="evenodd" d="M64.0842 106.704L68.1915 110.811V130H59.9492L59.9772 110.811L64.0842 106.704ZM64.0842 107.981L60.8794 111.186L60.8532 129.097H67.2888V111.185L64.0842 107.981Z" fill="#959DA8"/>
<path d="M143.004 78.79H123.664V120.806H143.004V78.79Z" fill="#D3DCE5"/>
<path d="M140.262 81.457H126.393V101.465H140.262V81.457Z" fill="white"/>
<path fill-rule="evenodd" clip-rule="evenodd" d="M126.17 81.2319H140.491V101.692H126.17V81.2319ZM126.621 81.6833V101.24H140.04V81.6833H126.621Z" fill="#959DA8"/>
<path d="M140.499 104.724C140.499 105.223 140.095 105.627 139.596 105.627C139.098 105.627 138.693 105.223 138.693 104.724C138.693 104.225 139.098 103.821 139.596 103.821C140.095 103.821 140.499 104.225 140.499 104.724Z" fill="white"/>
<path fill-rule="evenodd" clip-rule="evenodd" d="M139.599 104.048C139.225 104.048 138.922 104.351 138.922 104.725C138.922 105.098 139.225 105.402 139.599 105.402C139.973 105.402 140.276 105.098 140.276 104.725C140.276 104.351 139.973 104.048 139.599 104.048ZM138.471 104.725C138.471 104.101 138.976 103.596 139.599 103.596C140.222 103.596 140.727 104.101 140.727 104.725C140.727 105.348 140.222 105.853 139.599 105.853C138.976 105.853 138.471 105.348 138.471 104.725Z" fill="#959DA8"/>
<path fill-rule="evenodd" clip-rule="evenodd" d="M90.3028 28.7847L189.781 28.8532L159.14 62.2365L63.4707 61.1401L90.3028 28.7847ZM90.7267 29.6877L65.374 60.2591L158.747 61.3292L187.729 29.7545L90.7267 29.6877Z" fill="#959DA8"/>
<path fill-rule="evenodd" clip-rule="evenodd" d="M114.805 120.575H166.258V125.436H114.805V120.575ZM115.256 121.027V124.985H165.807V121.027H115.256Z" fill="#959DA8"/>
<path fill-rule="evenodd" clip-rule="evenodd" d="M114.805 124.976H166.258V129.837H114.805V124.976ZM115.256 125.427V129.386H165.807V125.427H115.256Z" fill="#959DA8"/>
<path d="M161.796 60.7988H62.3145V65.1002H161.796V60.7988Z" fill="#F4F5F6"/>
<path fill-rule="evenodd" clip-rule="evenodd" d="M61.8613 60.3477H162.246V65.5517H61.8613V60.3477ZM62.764 61.2504V64.649H161.343V61.2504H62.764Z" fill="#959DA8"/>
<path d="M163.257 50.522H129.451V73.0623H163.257V50.522Z" fill="#F4F5F6"/>
<path fill-rule="evenodd" clip-rule="evenodd" d="M129.227 50.2959H163.484V73.2875H129.227V50.2959ZM129.678 50.7472V72.8362H163.033V50.7472H129.678Z" fill="#959DA8"/>
<path d="M89.7132 50.5625L115.278 72.1324V129.454H64.1309V72.1324L89.7132 50.5625Z" fill="#F4F5F6"/>
<path fill-rule="evenodd" clip-rule="evenodd" d="M89.7116 49.9722L115.727 71.9228V129.905H63.6777V71.9227L89.7116 49.9722ZM64.5804 72.3423V129.002H114.824V72.3423L89.7114 51.1531L64.5804 72.3423Z" fill="#959DA8"/>
<path d="M34.5144 103.335C34.8102 101.951 34.7966 100.519 34.4743 99.1409C34.1521 97.7631 33.5292 96.4736 32.6504 95.3646C31.7715 94.2556 30.6584 93.3546 29.3907 92.7261C28.1229 92.0976 26.7319 91.7571 25.3172 91.7289C23.9025 91.7008 22.499 91.9858 21.2073 92.5634C19.9156 93.1411 18.7675 93.9971 17.8453 95.0703C16.9231 96.1435 16.2495 97.4073 15.8728 98.7712C15.496 100.135 15.4255 101.566 15.6661 102.96C14.6001 103.461 13.656 104.189 12.8991 105.091C12.1422 105.994 11.5906 107.05 11.2826 108.187C10.9746 109.324 10.9176 110.515 11.1154 111.676C11.3133 112.837 11.7613 113.942 12.4285 114.912C13.0956 115.883 13.9659 116.698 14.979 117.299C15.9922 117.9 17.1239 118.273 18.2957 118.393C19.4676 118.513 20.6516 118.377 21.7656 117.994C22.8796 117.611 23.897 116.991 24.7472 116.175C25.5721 116.974 26.5571 117.589 27.637 117.98C28.717 118.37 29.8675 118.527 31.0126 118.441C32.1577 118.354 33.2715 118.025 34.2804 117.477C35.2892 116.928 36.1704 116.172 36.8656 115.258C37.5608 114.344 38.0544 113.293 38.3137 112.174C38.5731 111.055 38.5923 109.894 38.3701 108.768C38.1479 107.641 37.6894 106.574 37.0248 105.638C36.3602 104.701 35.5046 103.916 34.5144 103.335Z" fill="#80C33F"/>
<path fill-rule="evenodd" clip-rule="evenodd" d="M20.4303 108.644C20.5312 108.492 20.7358 108.451 20.8872 108.552L25.3104 111.5C25.4619 111.601 25.5028 111.805 25.4019 111.957C25.301 112.108 25.0965 112.149 24.945 112.048L20.5218 109.101C20.3704 109 20.3294 108.795 20.4303 108.644Z" fill="#2A3A51"/>
<path fill-rule="evenodd" clip-rule="evenodd" d="M30.5382 110.829C30.6565 110.967 30.6403 111.175 30.5021 111.293L25.3386 115.712C25.2004 115.83 24.9924 115.814 24.8741 115.676C24.7558 115.538 24.7719 115.33 24.9102 115.211L30.0736 110.793C30.2119 110.674 30.4198 110.69 30.5382 110.829Z" fill="#2A3A51"/>
<path fill-rule="evenodd" clip-rule="evenodd" d="M25.1166 102.54C25.2986 102.54 25.4461 102.688 25.4461 102.87V129.431C25.4461 129.613 25.2986 129.761 25.1166 129.761C24.9346 129.761 24.7871 129.613 24.7871 129.431V102.87C24.7871 102.688 24.9346 102.54 25.1166 102.54Z" fill="#2A3A51"/>
<path d="M126.768 50.5811H124.836V56.5163H126.768V50.5811Z" fill="white"/>
<path fill-rule="evenodd" clip-rule="evenodd" d="M124.389 50.1294H127.223V56.9673H124.389V50.1294ZM125.291 51.0321V56.0646H126.32V51.0321H125.291Z" fill="#959DA8"/>
<path d="M179.632 40.8403H127.799L123.051 52.9906H184.375L179.632 40.8403Z" fill="#F4F5F6"/>
<path fill-rule="evenodd" clip-rule="evenodd" d="M127.492 40.3892H179.941L185.037 53.4421H122.391L127.492 40.3892ZM128.108 41.2919L123.713 52.5394H183.715L179.324 41.2919H128.108Z" fill="#959DA8"/>
<path d="M139.32 55.3608H133.281V68.0934H139.325L139.32 55.3608Z" fill="white"/>
<path fill-rule="evenodd" clip-rule="evenodd" d="M133.055 55.1348H139.545L139.55 68.3186H133.055V55.1348ZM133.506 55.5861V67.8673H139.098L139.094 55.5861H133.506Z" fill="#959DA8"/>
<path fill-rule="evenodd" clip-rule="evenodd" d="M136.066 60.5017V55.3608H136.518V60.5017H136.066Z" fill="#959DA8"/>
<path fill-rule="evenodd" clip-rule="evenodd" d="M139.32 60.8171H133.285V60.3657H139.32V60.8171Z" fill="#959DA8"/>
<path d="M149.684 55.3608H143.658V68.0934H149.702L149.684 55.3608Z" fill="white"/>
<path fill-rule="evenodd" clip-rule="evenodd" d="M143.436 55.1348H149.912L149.931 68.3186H143.436V55.1348ZM143.887 55.5861V67.8673H149.479L149.461 55.5861H143.887Z" fill="#959DA8"/>
<path fill-rule="evenodd" clip-rule="evenodd" d="M146.434 60.5017V55.3608H146.885V60.5017H146.434Z" fill="#959DA8"/>
<path fill-rule="evenodd" clip-rule="evenodd" d="M149.684 60.8171H143.645V60.3657H149.684V60.8171Z" fill="#959DA8"/>
<path d="M160.049 55.3608H154.006V68.0934H160.049V55.3608Z" fill="white"/>
<path fill-rule="evenodd" clip-rule="evenodd" d="M153.783 55.1348H160.278V68.3186H153.783V55.1348ZM154.235 55.5861V67.8673H159.827V55.5861H154.235Z" fill="#959DA8"/>
<path fill-rule="evenodd" clip-rule="evenodd" d="M156.801 60.5017V55.3608H157.252V60.5017H156.801Z" fill="#959DA8"/>
<path fill-rule="evenodd" clip-rule="evenodd" d="M160.051 60.8171H154.012V60.3657H160.051V60.8171Z" fill="#959DA8"/>
<path d="M216.396 6.68262L279.133 69.2575V129.503H153.658V68.9325L216.396 6.68262Z" fill="#F4F5F6"/>
<path fill-rule="evenodd" clip-rule="evenodd" d="M216.395 6.0459L279.582 69.0701V129.955H153.205V68.7444L216.395 6.0459ZM154.108 69.1204V129.052H278.68V69.4447L216.393 7.3192L154.108 69.1204Z" fill="#959DA8"/>
<path d="M192.194 127.743C192.195 128.223 192.131 128.701 192.005 129.164H149.194C149.061 128.701 148.98 128.224 148.951 127.743C148.766 124.791 151.352 122.376 154.317 122.376C154.933 122.376 155.544 122.485 156.123 122.697C156.089 122.397 156.072 122.096 156.073 121.794C156.06 119.765 156.766 117.798 158.066 116.24C159.366 114.683 161.176 113.637 163.175 113.289C165.173 112.94 167.231 113.311 168.981 114.336C170.732 115.361 172.063 116.974 172.737 118.887C173.7 118.021 174.871 117.419 176.137 117.139C177.402 116.86 178.718 116.913 179.956 117.292C181.195 117.672 182.314 118.366 183.205 119.307C184.096 120.248 184.728 121.403 185.041 122.66C185.849 122.371 186.715 122.281 187.566 122.397C188.417 122.514 189.227 122.833 189.928 123.329C190.629 123.825 191.2 124.483 191.593 125.246C191.986 126.01 192.189 126.857 192.185 127.716L192.194 127.743Z" fill="#80C33F"/>
<path fill-rule="evenodd" clip-rule="evenodd" d="M277.856 68.1745H154.873V67.7231H277.856V68.1745Z" fill="#959DA8"/>
<path fill-rule="evenodd" clip-rule="evenodd" d="M279.254 72.4938H153.762V72.0425H279.254V72.4938Z" fill="#959DA8"/>
<path d="M240.591 64.3193H188.758L184.01 76.4651H245.334L240.591 64.3193Z" fill="#F4F5F6"/>
<path fill-rule="evenodd" clip-rule="evenodd" d="M188.451 63.8687H240.9L245.996 76.9171H183.35L188.451 63.8687ZM189.067 64.7713L184.672 76.0144H244.674L240.283 64.7713H189.067Z" fill="#959DA8"/>
<path d="M223.039 28.311H209.264V57.3327H223.039V28.311Z" fill="white"/>
<path fill-rule="evenodd" clip-rule="evenodd" d="M209.037 28.085H223.264V57.558H209.037V28.085ZM209.488 28.5363V57.1066H222.812V28.5363H209.488Z" fill="#959DA8"/>
<path fill-rule="evenodd" clip-rule="evenodd" d="M215.922 40.028V28.311H216.373V40.028H215.922Z" fill="#959DA8"/>
<path fill-rule="evenodd" clip-rule="evenodd" d="M223.037 40.4572H209.275V40.0059H223.037V40.4572Z" fill="#959DA8"/>
<path d="M203.689 78.8403H189.914V107.885H203.689V78.8403Z" fill="white"/>
<path fill-rule="evenodd" clip-rule="evenodd" d="M189.688 78.6133H203.914V108.109H189.688V78.6133ZM190.139 79.0646V107.657H203.463V79.0646H190.139Z" fill="#959DA8"/>
<path fill-rule="evenodd" clip-rule="evenodd" d="M196.57 90.5528V78.8403H197.022V90.5528H196.57Z" fill="#959DA8"/>
<path fill-rule="evenodd" clip-rule="evenodd" d="M203.689 90.9855H189.928V90.5342H203.689V90.9855Z" fill="#959DA8"/>
<path d="M221.793 78.8403H208.014V107.885H221.789L221.793 78.8403Z" fill="white"/>
<path fill-rule="evenodd" clip-rule="evenodd" d="M207.787 78.6133H222.018L222.014 108.109H207.787V78.6133ZM208.238 79.0646V107.657H221.562L221.567 79.0646H208.238Z" fill="#959DA8"/>
<path fill-rule="evenodd" clip-rule="evenodd" d="M214.674 90.5528V78.8403H215.125V90.5528H214.674Z" fill="#959DA8"/>
<path fill-rule="evenodd" clip-rule="evenodd" d="M221.793 90.9855H208.031V90.5342H221.793V90.9855Z" fill="#959DA8"/>
<path d="M239.89 78.8403H226.115V107.885H239.89V78.8403Z" fill="white"/>
<path fill-rule="evenodd" clip-rule="evenodd" d="M225.891 78.6133H240.117V108.109H225.891V78.6133ZM226.342 79.0646V107.657H239.666V79.0646H226.342Z" fill="#959DA8"/>
<path fill-rule="evenodd" clip-rule="evenodd" d="M232.775 90.5528V78.8403H233.227V90.5528H232.775Z" fill="#959DA8"/>
<path fill-rule="evenodd" clip-rule="evenodd" d="M239.892 90.9855H226.135V90.5342H239.892V90.9855Z" fill="#959DA8"/>
<path d="M87.2419 78.772H73.4668V107.798H87.2419V78.772Z" fill="white"/>
<path fill-rule="evenodd" clip-rule="evenodd" d="M73.2402 78.5454H87.4667V108.023H73.2402V78.5454ZM73.6916 78.9968V107.572H87.0154V78.9968H73.6916Z" fill="#959DA8"/>
<path fill-rule="evenodd" clip-rule="evenodd" d="M80.1289 90.489V78.772H80.5803V90.489H80.1289Z" fill="#959DA8"/>
<path fill-rule="evenodd" clip-rule="evenodd" d="M87.2415 90.9221H73.4844V90.4707H87.2415V90.9221Z" fill="#959DA8"/>
<path d="M105.342 78.772H91.5664V107.798H105.342V78.772Z" fill="white"/>
<path fill-rule="evenodd" clip-rule="evenodd" d="M91.3398 78.5454H105.566V108.023H91.3398V78.5454ZM91.7912 78.9968V107.572H105.115V78.9968H91.7912Z" fill="#959DA8"/>
<path fill-rule="evenodd" clip-rule="evenodd" d="M98.2266 90.489V78.772H98.6779V90.489H98.2266Z" fill="#959DA8"/>
<path fill-rule="evenodd" clip-rule="evenodd" d="M105.342 90.9221H91.5801V90.4707H105.342V90.9221Z" fill="#959DA8"/>
<path d="M107.463 111.738H72.1902L71.7344 107.739H107.919L107.463 111.738Z" fill="#F4F5F6"/>
<path fill-rule="evenodd" clip-rule="evenodd" d="M71.4824 107.514H108.173L107.665 111.964H71.9897L71.4824 107.514ZM71.9881 107.965L72.3926 111.513H107.263L107.667 107.965H71.9881Z" fill="#959DA8"/>
<path d="M187.568 76.4517H185.637V82.3869H187.568V76.4517Z" fill="#F4F5F6"/>
<path fill-rule="evenodd" clip-rule="evenodd" d="M185.188 76H188.022V82.8379H185.188V76ZM186.09 76.9027V81.9352H187.119V76.9027H186.09Z" fill="#959DA8"/>
<path d="M243.848 76.5195H241.916V82.4547H243.848V76.5195Z" fill="#F4F5F6"/>
<path fill-rule="evenodd" clip-rule="evenodd" d="M241.465 76.0679H244.299V82.9058H241.465V76.0679ZM242.368 76.9706V82.0031H243.397V76.9706H242.368Z" fill="#959DA8"/>
<path d="M122.192 76.9078H115.445L89.781 51.2397L64.1129 76.9078H57.3652L89.781 44.4966L122.192 76.9078Z" fill="#F4F5F6"/>
<path d="M219.677 3.762L216.559 0.638672L213.444 3.762L146.004 71.3874L152.151 71.4235L216.559 6.88532L280.966 71.4235L287.127 71.3874L219.677 3.762Z" fill="#F4F5F6"/>
<path fill-rule="evenodd" clip-rule="evenodd" d="M89.7828 50.9204L115.606 76.7481L115.287 77.0673L89.7828 51.5587L64.2742 77.0673L63.9551 76.7481L89.7828 50.9204Z" fill="#959DA8"/>
<path fill-rule="evenodd" clip-rule="evenodd" d="M89.779 43.8584L123.28 77.3593H115.443V76.4566H121.101L89.779 45.135L58.453 76.4566H64.1108V77.3593H56.2734L89.779 43.8584Z" fill="#959DA8"/>
<path fill-rule="evenodd" clip-rule="evenodd" d="M216.555 0L219.994 3.4434L288.205 71.8324L281.322 71.8752L281.319 71.8752H280.268L278.794 70.7847L279.331 70.059L280.565 70.9725L281.316 70.9725L281.319 70.9725L286.043 70.9431L219.355 4.08124L216.556 1.27799L213.761 4.08101L147.082 70.9431L151.783 70.9725L151.785 70.9725L152.539 70.9725L153.373 70.3679L153.902 71.0987L152.832 71.8752H151.783L151.78 71.8752L144.92 71.8323L216.555 0Z" fill="#959DA8"/>
<path fill-rule="evenodd" clip-rule="evenodd" d="M216.555 6.56543L281.122 71.2637L280.803 71.5825L216.555 7.20438L152.308 71.5825L151.988 71.2637L216.555 6.56543Z" fill="#959DA8"/>
<line x1="8.74228e-08" y1="130" x2="310" y2="130" stroke="#959DA8" stroke-width="2" stroke-miterlimit="10"/>
</svg>
