<svg width="1886" height="450" viewBox="0 0 1886 450" fill="none" xmlns="http://www.w3.org/2000/svg">
<path d="M1885.77 -64H-38V436.98H1885.77V-64Z" fill="white"/>
<path d="M729.55 385.06L721.45 376.96L713.35 385.06L713.3 426.16H729.55V385.06Z" fill="white" stroke="#959DA8" stroke-width="2" stroke-miterlimit="10"/>
<path d="M1112.03 385.65L1103.93 377.55L1095.83 385.65L1095.78 426.75H1112.03V385.65Z" fill="white" stroke="#959DA8" stroke-width="2" stroke-miterlimit="10"/>
<path d="M1128.27 385.65L1120.17 377.55L1112.07 385.65L1112.01 426.75H1128.27V385.65Z" fill="white" stroke="#959DA8" stroke-width="2" stroke-miterlimit="10"/>
<path d="M1144.51 385.65L1136.41 377.55L1128.31 385.65L1128.25 426.75H1144.51V385.65Z" fill="white" stroke="#959DA8" stroke-width="2" stroke-miterlimit="10"/>
<path d="M1160.74 385.65L1152.64 377.55L1144.54 385.65L1144.49 426.75H1160.74V385.65Z" fill="white" stroke="#959DA8" stroke-width="2" stroke-miterlimit="10"/>
<path d="M1176.98 385.65L1168.88 377.55L1160.78 385.65L1160.72 426.75H1176.98V385.65Z" fill="white" stroke="#959DA8" stroke-width="2" stroke-miterlimit="10"/>
<path d="M1193.22 385.65L1185.12 377.55L1177.02 385.65L1176.96 426.75H1193.22V385.65Z" fill="white" stroke="#959DA8" stroke-width="2" stroke-miterlimit="10"/>
<path d="M1209.45 385.65L1201.35 377.55L1193.25 385.65L1193.2 426.75H1209.45V385.65Z" fill="white" stroke="#959DA8" stroke-width="2" stroke-miterlimit="10"/>
<path d="M1225.69 385.65L1217.59 377.55L1209.49 385.65L1209.43 426.75H1225.69V385.65Z" fill="white" stroke="#959DA8" stroke-width="2" stroke-miterlimit="10"/>
<path d="M1242.06 385.65L1233.96 377.55L1225.86 385.65L1225.81 426.75H1242.06V385.65Z" fill="white" stroke="#959DA8" stroke-width="2" stroke-miterlimit="10"/>
<path d="M1258.3 385.65L1250.2 377.55L1242.1 385.65L1242.04 426.75H1258.3V385.65Z" fill="white" stroke="#959DA8" stroke-width="2" stroke-miterlimit="10"/>
<path d="M1274.54 385.65L1266.44 377.55L1258.34 385.65L1258.28 426.75H1274.54V385.65Z" fill="white" stroke="#959DA8" stroke-width="2" stroke-miterlimit="10"/>
<path d="M1290.78 385.65L1282.67 377.55L1274.57 385.65L1274.52 426.75H1290.78V385.65Z" fill="white" stroke="#959DA8" stroke-width="2" stroke-miterlimit="10"/>
<path d="M1307.01 385.65L1298.91 377.55L1290.81 385.65L1290.76 426.75H1307.01V385.65Z" fill="white" stroke="#959DA8" stroke-width="2" stroke-miterlimit="10"/>
<path d="M1323.27 385.65L1315.16 377.55L1307.06 385.65L1307.01 426.75H1323.27V385.65Z" fill="white" stroke="#959DA8" stroke-width="2" stroke-miterlimit="10"/>
<path d="M1339.57 385.65L1331.47 377.55L1323.37 385.65L1323.31 426.75H1339.57V385.65Z" fill="white" stroke="#959DA8" stroke-width="2" stroke-miterlimit="10"/>
<path d="M1355.81 385.65L1347.71 377.55L1339.61 385.65L1339.55 426.75H1355.81V385.65Z" fill="white" stroke="#959DA8" stroke-width="2" stroke-miterlimit="10"/>
<path d="M1372.05 385.65L1363.94 377.55L1355.84 385.65L1355.79 426.75H1372.05V385.65Z" fill="white" stroke="#959DA8" stroke-width="2" stroke-miterlimit="10"/>
<path d="M1388.28 385.65L1380.18 377.55L1372.08 385.65L1372.03 426.75H1388.28V385.65Z" fill="white" stroke="#959DA8" stroke-width="2" stroke-miterlimit="10"/>
<path d="M1878.58 385.65L1870.48 377.55L1862.38 385.65L1862.32 426.75H1878.58V385.65Z" fill="white" stroke="#959DA8" stroke-width="2" stroke-miterlimit="10"/>
<path d="M1883.35 380.91V426.75H1878.56L1878.58 411.61L1878.61 385.65L1883.35 380.91Z" fill="white" stroke="#959DA8" stroke-width="2" stroke-miterlimit="10"/>
<path d="M1404.54 385.65L1396.43 377.55L1388.33 385.65L1388.28 426.75H1404.54V385.65Z" fill="white" stroke="#959DA8" stroke-width="2" stroke-miterlimit="10"/>
<path d="M1670.66 292H1386L1386.18 428.62H1670.64L1670.66 292Z" fill="white" stroke="#959DA8" stroke-width="2" stroke-miterlimit="10"/>
<path d="M534.58 385.06L526.47 376.96L518.37 385.06L518.32 426.16H534.58V385.06Z" fill="white" stroke="#959DA8" stroke-width="2" stroke-miterlimit="10"/>
<path d="M550.81 385.06L542.71 376.96L534.61 385.06L534.55 426.16H550.81V385.06Z" fill="white" stroke="#959DA8" stroke-width="2" stroke-miterlimit="10"/>
<path d="M567.05 385.06L558.95 376.96L550.85 385.06L550.79 426.16H567.05V385.06Z" fill="white" stroke="#959DA8" stroke-width="2" stroke-miterlimit="10"/>
<path d="M583.29 385.06L575.18 376.96L567.08 385.06L567.03 426.16H583.29V385.06Z" fill="white" stroke="#959DA8" stroke-width="2" stroke-miterlimit="10"/>
<path d="M599.52 385.06L591.42 376.96L583.32 385.06L583.26 426.16H599.52V385.06Z" fill="white" stroke="#959DA8" stroke-width="2" stroke-miterlimit="10"/>
<path d="M615.76 385.06L607.66 376.96L599.56 385.06L599.5 426.16H615.76V385.06Z" fill="white" stroke="#959DA8" stroke-width="2" stroke-miterlimit="10"/>
<path d="M632 385.06L623.9 376.96L615.79 385.06L615.74 426.16H632V385.06Z" fill="white" stroke="#959DA8" stroke-width="2" stroke-miterlimit="10"/>
<path d="M648.23 385.06L640.13 376.96L632.03 385.06L631.98 426.16H648.23V385.06Z" fill="white" stroke="#959DA8" stroke-width="2" stroke-miterlimit="10"/>
<path d="M664.61 385.06L656.5 376.96L648.4 385.06L648.35 426.16H664.61V385.06Z" fill="white" stroke="#959DA8" stroke-width="2" stroke-miterlimit="10"/>
<path d="M680.84 385.06L672.74 376.96L664.64 385.06L664.59 426.16H680.84V385.06Z" fill="white" stroke="#959DA8" stroke-width="2" stroke-miterlimit="10"/>
<path d="M697.08 385.06L688.98 376.96L680.88 385.06L680.82 426.16H697.08V385.06Z" fill="white" stroke="#959DA8" stroke-width="2" stroke-miterlimit="10"/>
<path d="M713.32 385.06L705.22 376.96L697.12 385.06L697.06 426.16H713.32V385.06Z" fill="white" stroke="#959DA8" stroke-width="2" stroke-miterlimit="10"/>
<path d="M4.09008 385.06L-4.00992 376.96L-12.1099 385.06L-12.1699 426.16H4.09008V385.06Z" fill="white" stroke="#959DA8" stroke-width="2" stroke-miterlimit="10"/>
<path d="M20.3298 385.06L12.2298 376.96L4.11982 385.06L4.06982 426.16H20.3298V385.06Z" fill="white" stroke="#959DA8" stroke-width="2" stroke-miterlimit="10"/>
<path d="M36.5598 385.06L28.4598 376.96L20.3598 385.06L20.2998 426.16H36.5598V385.06Z" fill="white" stroke="#959DA8" stroke-width="2" stroke-miterlimit="10"/>
<path d="M1641.32 314.54H1598.47V407.63H1641.32V314.54Z" fill="#D3DCE5"/>
<circle cx="1633" cy="372" r="2" fill="white" stroke="#959DA8" stroke-miterlimit="10"/>
<path d="M52.8 385.06L44.7 376.96L36.6 385.06L36.54 426.16H52.8V385.06Z" fill="white" stroke="#959DA8" stroke-width="2" stroke-miterlimit="10"/>
<path d="M219.55 314.54H176.7V407.63H219.55V314.54Z" fill="#D3DCE5"/>
<path d="M213.48 320.45H182.75V364.78H213.48V320.45Z" fill="white"/>
<path d="M726.21 280.85V429.05H901.67" fill="white"/>
<path d="M726.21 280.85V429.05H901.67" stroke="#959DA8" stroke-width="2" stroke-miterlimit="10"/>
<path d="M784 315.69H764.2V378.4H784V315.69Z" fill="white" stroke="#959DA8" stroke-miterlimit="10"/>
<path d="M899.42 270.06V426H1105.42V269.62" fill="white"/>
<path d="M1669 408H1576V417H1669V408Z" fill="white" stroke="#959DA8" stroke-miterlimit="10"/>
<path d="M1669 417H1576V427H1669V417Z" fill="white" stroke="#959DA8" stroke-miterlimit="10"/>
<path d="M45.4399 274.46L103.25 204.75L320.91 204.9L254.86 276.86L45.4399 274.46Z" fill="white" stroke="#959DA8" stroke-width="2" stroke-miterlimit="10"/>
<path d="M270.57 407.62H157.57V417.39H270.57V407.62Z" fill="white" stroke="#959DA8" stroke-width="2" stroke-miterlimit="10"/>
<path d="M270.57 417.37H157.57V427.14H270.57V417.37Z" fill="white" stroke="#959DA8" stroke-width="2" stroke-miterlimit="10"/>
<path d="M929.69 232.53V191H856.11V236.51H924.69" fill="white"/>
<path d="M929.69 232.53V191H856.11V236.51H924.69" stroke="#959DA8" stroke-miterlimit="10"/>
<path d="M890 197H862.4V230.35H890V197Z" fill="white" stroke="#959DA8" stroke-miterlimit="10"/>
<path d="M923.63 197H896.07V230.35H923.62L923.63 197Z" fill="white" stroke="#959DA8" stroke-miterlimit="10"/>
<path d="M1059 367.25H1105.41V270.08" fill="white"/>
<path d="M1059 367.25H1105.41V270.08" stroke="#959DA8" stroke-miterlimit="10"/>
<path d="M945.8 426V296.66H1059V427" stroke="#959DA8" stroke-width="2" stroke-miterlimit="10"/>
<path d="M899.42 270.06V427H1105.42V269.62" stroke="#959DA8" stroke-width="2" stroke-miterlimit="10"/>
<path d="M736.62 338.49C737.614 333.834 737.566 329.015 736.48 324.38C735.395 319.744 733.298 315.405 730.34 311.675C727.382 307.944 723.636 304.913 719.37 302.798C715.104 300.684 710.424 299.538 705.663 299.444C700.903 299.349 696.181 300.308 691.834 302.251C687.488 304.195 683.624 307.075 680.52 310.685C677.417 314.296 675.149 318.547 673.88 323.136C672.611 327.725 672.372 332.538 673.18 337.23C669.649 338.948 666.53 341.408 664.036 344.442C661.542 347.476 659.733 351.012 658.731 354.809C657.729 358.606 657.559 362.575 658.231 366.444C658.904 370.313 660.403 373.991 662.628 377.228C664.852 380.464 667.749 383.183 671.12 385.197C674.491 387.211 678.257 388.474 682.161 388.9C686.065 389.326 690.015 388.903 693.741 387.663C697.467 386.422 700.881 384.391 703.75 381.71C706.539 384.317 709.843 386.309 713.449 387.559C717.056 388.809 720.884 389.288 724.688 388.967C728.491 388.645 732.185 387.528 735.53 385.69C738.875 383.852 741.797 381.332 744.108 378.294C746.418 375.256 748.066 371.767 748.944 368.052C749.822 364.338 749.911 360.48 749.205 356.729C748.5 352.978 747.015 349.416 744.847 346.275C742.68 343.133 739.877 340.481 736.62 338.49Z" fill="#80C33F"/>
<path d="M705 366.74L690.1 356.81" stroke="#2A3A51" stroke-width="1.42" stroke-linecap="round" stroke-linejoin="round"/>
<path d="M705 379.15L722.39 364.26" stroke="#2A3A51" stroke-width="1.42" stroke-linecap="round" stroke-linejoin="round"/>
<path d="M705 336.94V426.33" stroke="#2A3A51" stroke-width="1.42" stroke-linecap="round" stroke-linejoin="round"/>
<path d="M261.18 274.68H40.77V284.21H261.18V274.68Z" fill="white" stroke="#959DA8" stroke-width="2" stroke-miterlimit="10"/>
<path d="M947.94 425.45C947.945 426.595 947.793 427.735 947.49 428.84H846.66C846.344 427.734 846.153 426.597 846.09 425.45C845.65 418.45 851.73 412.81 858.73 412.81C860.183 412.812 861.625 413.069 862.99 413.57C862.914 412.869 862.878 412.165 862.88 411.46C862.895 406.704 864.586 402.106 867.655 398.473C870.725 394.841 874.976 392.406 879.663 391.598C884.349 390.79 889.171 391.659 893.28 394.053C897.389 396.448 900.522 400.214 902.13 404.69C904.398 402.644 907.158 401.222 910.14 400.56C913.122 399.899 916.224 400.021 919.145 400.916C922.066 401.81 924.705 403.446 926.805 405.663C928.905 407.881 930.395 410.605 931.13 413.57C933.033 412.891 935.072 412.68 937.074 412.955C939.076 413.23 940.982 413.983 942.631 415.15C944.281 416.317 945.625 417.864 946.551 419.66C947.477 421.456 947.957 423.449 947.95 425.47L947.94 425.45Z" fill="#80C33F"/>
<path d="M264.42 251.91H189.52V301.85H264.42V251.91Z" fill="white" stroke="#959DA8" stroke-miterlimit="10"/>
<path d="M101.48 252L158.12 299.79V426.79H44.7998V299.79L101.48 252Z" fill="white" stroke="#959DA8" stroke-width="2" stroke-miterlimit="10"/>
<path d="M49.1802 368.92C49.8357 365.854 49.8054 362.681 49.0914 359.629C48.3775 356.576 46.9975 353.719 45.0504 351.262C43.1032 348.805 40.637 346.809 37.8282 345.416C35.0194 344.024 31.9374 343.269 28.803 343.207C25.6686 343.145 22.5591 343.776 19.6972 345.056C16.8353 346.336 14.2917 348.232 12.2484 350.61C10.2051 352.988 8.71274 355.788 7.87806 358.81C7.04337 361.832 6.88702 365.001 7.42019 368.09C5.05848 369.201 2.96661 370.812 1.28959 372.812C-0.387432 374.812 -1.60949 377.153 -2.29187 379.672C-2.97424 382.191 -3.10062 384.828 -2.66224 387.401C-2.22386 389.974 -1.23121 392.421 0.246911 394.572C1.72503 396.723 3.65326 398.527 5.89792 399.859C8.14259 401.19 10.65 402.018 13.2464 402.284C15.8427 402.55 18.4659 402.249 20.9341 401.4C23.4022 400.552 25.6564 399.176 27.5402 397.37C29.3679 399.14 31.5501 400.503 33.9428 401.368C36.3356 402.233 38.8846 402.581 41.4217 402.389C43.9588 402.197 46.4264 401.469 48.6617 400.254C50.897 399.038 52.8492 397.363 54.3895 395.337C55.9299 393.312 57.0234 390.984 57.598 388.505C58.1726 386.026 58.2151 383.454 57.7229 380.958C57.2306 378.461 56.2148 376.098 54.7422 374.023C53.2697 371.948 51.374 370.209 49.1802 368.92Z" fill="#80C33F"/>
<path d="M28.3801 387.62L18.5801 381.09" stroke="#2A3A51" stroke-width="1.46" stroke-linecap="round" stroke-linejoin="round"/>
<path d="M28.3799 395.79L39.8199 386" stroke="#2A3A51" stroke-width="1.46" stroke-linecap="round" stroke-linejoin="round"/>
<path d="M28.3599 367.89V426.74" stroke="#2A3A51" stroke-width="1.46" stroke-linecap="round" stroke-linejoin="round"/>
<path d="M1798.89 200.87H1586.64V182.19H1568.08V200.84H1444.51L1386 292H1832L1798.89 200.87Z" fill="white" stroke="#959DA8" stroke-width="2" stroke-miterlimit="10"/>
<path d="M1584 299H1576V408H1584V299Z" fill="white" stroke="#959DA8" stroke-miterlimit="10"/>
<path d="M1681.16 175.37L1500.45 288.43V298.76H1669.45V429.33H1861.81V291.33L1681.16 175.37Z" fill="white" stroke="#959DA8" stroke-width="2" stroke-miterlimit="10"/>
<path d="M558.42 388.68C558.87 388.683 559.32 388.636 559.76 388.54C580.26 383.88 580.26 359.05 580.26 359.05C580.26 325.22 558.43 308.26 558.43 308.26C558.43 308.26 536.59 325.18 536.59 359C536.59 359 536.59 383.86 557.08 388.49C557.518 388.603 557.967 388.667 558.42 388.68Z" fill="#80C33F"/>
<path d="M558.43 341.63V426.08" stroke="#2A3A51" stroke-width="1.42" stroke-linecap="round" stroke-linejoin="round"/>
<path d="M1315 390.76C1315.45 390.763 1315.9 390.716 1316.34 390.62C1336.82 385.96 1336.83 361.15 1336.83 361.15C1336.83 327.34 1315.01 310.39 1315.01 310.39C1315.01 310.39 1293.18 327.3 1293.18 361.15C1293.18 361.15 1293.18 385.99 1313.66 390.62C1314.1 390.716 1314.55 390.763 1315 390.76Z" fill="#80C33F"/>
<path d="M1315 343.75V428.14" stroke="#2A3A51" stroke-width="1.46" stroke-linecap="round" stroke-linejoin="round"/>
<path d="M183.58 252.04H179.3V265.19H183.58V252.04Z" fill="white" stroke="#959DA8" stroke-width="2" stroke-miterlimit="10"/>
<path d="M1364 400.5C1364.34 400.5 1364.67 400.463 1365 400.39C1380.32 396.9 1380.32 378.39 1380.32 378.39C1380.32 353.08 1364 340.39 1364 340.39C1364 340.39 1347.68 353.04 1347.68 378.39C1347.68 378.39 1347.68 396.97 1363 400.39C1363.33 400.463 1363.66 400.5 1364 400.5Z" fill="#80C33F"/>
<path d="M1364 365.34V428.44" stroke="#2A3A51" stroke-width="1.46" stroke-linecap="round" stroke-linejoin="round"/>
<path d="M300.7 230.46H185.86L175.34 257.38H311.21L300.7 230.46Z" fill="white" stroke="#959DA8" stroke-width="2" stroke-miterlimit="10"/>
<path d="M1714.61 220.56H1647.82V253.07H1714.61V220.56Z" fill="white" stroke="#959DA8" stroke-miterlimit="10"/>
<path d="M1678.18 226.69H1654V247.13H1678.22L1678.18 226.69Z" fill="white" stroke="#959DA8" stroke-miterlimit="10"/>
<path d="M1708.49 226.69H1684.27V247.13H1708.49V226.69Z" fill="white" stroke="#959DA8" stroke-miterlimit="10"/>
<path d="M211.38 262.63H198V290.84H211.39L211.38 262.63Z" fill="white" stroke="#959DA8" stroke-miterlimit="10"/>
<path d="M204.68 262.63V274.02" stroke="#959DA8" stroke-miterlimit="10"/>
<path d="M198.01 274.22H211.38" stroke="#959DA8" stroke-miterlimit="10"/>
<path d="M234.35 262.63H221V290.84H234.39L234.35 262.63Z" fill="white" stroke="#959DA8" stroke-miterlimit="10"/>
<path d="M227.65 262.63V274.02" stroke="#959DA8" stroke-miterlimit="10"/>
<path d="M220.97 274.22H234.35" stroke="#959DA8" stroke-miterlimit="10"/>
<path d="M257.32 262.63H243.93V290.84H257.32V262.63Z" fill="white" stroke="#959DA8" stroke-miterlimit="10"/>
<path d="M250.62 262.63V274.02" stroke="#959DA8" stroke-miterlimit="10"/>
<path d="M243.94 274.22H257.32" stroke="#959DA8" stroke-miterlimit="10"/>
<path d="M382.15 154.78L521.15 293.42V426.07H243.15V292.7L382.15 154.78Z" fill="white" stroke="#959DA8" stroke-width="2" stroke-miterlimit="10"/>
<path d="M338.54 423C338.541 424.064 338.4 425.123 338.12 426.15H243.27C242.975 425.123 242.794 424.067 242.73 423C242.32 416.46 248.05 411.11 254.62 411.11C255.985 411.111 257.339 411.351 258.62 411.82C258.545 411.156 258.508 410.488 258.51 409.82C258.48 405.325 260.045 400.966 262.925 397.516C265.806 394.065 269.817 391.748 274.245 390.976C278.673 390.204 283.231 391.026 287.11 393.297C290.989 395.568 293.937 399.141 295.43 403.38C297.565 401.461 300.16 400.126 302.963 399.507C305.766 398.888 308.681 399.005 311.426 399.847C314.17 400.688 316.65 402.226 318.624 404.31C320.598 406.394 321.999 408.954 322.69 411.74C324.481 411.099 326.401 410.899 328.286 411.157C330.171 411.415 331.966 412.123 333.519 413.222C335.072 414.321 336.337 415.778 337.208 417.469C338.078 419.161 338.529 421.038 338.52 422.94L338.54 423Z" fill="#80C33F"/>
<path d="M245.84 290.52H518.32" stroke="#959DA8" stroke-miterlimit="10"/>
<path d="M243.38 300.09H521.42" stroke="#959DA8" stroke-miterlimit="10"/>
<path d="M435.76 282.48H320.92L310.4 309.39H446.27L435.76 282.48Z" fill="white" stroke="#959DA8" stroke-width="2" stroke-miterlimit="10"/>
<path d="M396.87 202.7H366.35V267H396.87V202.7Z" fill="white" stroke="#959DA8" stroke-miterlimit="10"/>
<path d="M381.6 202.7V228.66" stroke="#959DA8" stroke-miterlimit="10"/>
<path d="M366.38 229.11H396.87" stroke="#959DA8" stroke-miterlimit="10"/>
<path d="M1760.53 314.65H1730V379H1760.52L1760.53 314.65Z" fill="white" stroke="#959DA8" stroke-miterlimit="10"/>
<path d="M1745.27 314.65V340.6" stroke="#959DA8" stroke-miterlimit="10"/>
<path d="M1730.05 341.06H1760.53" stroke="#959DA8" stroke-miterlimit="10"/>
<path d="M1800.73 314.65H1770.2V379H1800.72L1800.73 314.65Z" fill="white" stroke="#959DA8" stroke-miterlimit="10"/>
<path d="M1785.46 314.65V340.6" stroke="#959DA8" stroke-miterlimit="10"/>
<path d="M1770.24 341.06H1800.73" stroke="#959DA8" stroke-miterlimit="10"/>
<path d="M1445.8 314.65H1415.28V379H1445.8V314.65Z" fill="white" stroke="#959DA8" stroke-miterlimit="10"/>
<path d="M1430.54 314.65V340.6" stroke="#959DA8" stroke-miterlimit="10"/>
<path d="M1415.31 341.06H1445.8" stroke="#959DA8" stroke-miterlimit="10"/>
<path d="M1486 314.65H1455.48V379H1486V314.65Z" fill="white" stroke="#959DA8" stroke-miterlimit="10"/>
<path d="M1470.73 314.65V340.6" stroke="#959DA8" stroke-miterlimit="10"/>
<path d="M1455.5 341.06H1485.99" stroke="#959DA8" stroke-miterlimit="10"/>
<path d="M961.5 203.5L894.07 151.78L723.26 283.07" stroke="#959DA8" stroke-miterlimit="10"/>
<path d="M969 197L902.08 145.61L894.07 139.44L886.05 145.61L707.9 283.07H723.26L726 282" stroke="#959DA8" stroke-width="2" stroke-miterlimit="10"/>
<path d="M1526.18 314.65H1495.66V379H1526.18V314.65Z" fill="white" stroke="#959DA8" stroke-miterlimit="10"/>
<path d="M1510.92 314.65V340.6" stroke="#959DA8" stroke-miterlimit="10"/>
<path d="M1495.7 341.06H1526.18" stroke="#959DA8" stroke-miterlimit="10"/>
<path d="M354 314.65H323.48V379H354V314.65Z" fill="white" stroke="#959DA8" stroke-miterlimit="10"/>
<path d="M338.73 314.65V340.6" stroke="#959DA8" stroke-miterlimit="10"/>
<path d="M323.51 341.06H354" stroke="#959DA8" stroke-miterlimit="10"/>
<path d="M394.11 314.65H363.58V379H394.1L394.11 314.65Z" fill="white" stroke="#959DA8" stroke-miterlimit="10"/>
<path d="M378.84 314.65V340.6" stroke="#959DA8" stroke-miterlimit="10"/>
<path d="M363.62 341.06H394.11" stroke="#959DA8" stroke-miterlimit="10"/>
<path d="M434.21 314.65H403.69V379H434.21V314.65Z" fill="white" stroke="#959DA8" stroke-miterlimit="10"/>
<path d="M418.95 314.65V340.6" stroke="#959DA8" stroke-miterlimit="10"/>
<path d="M403.73 341.06H434.21" stroke="#959DA8" stroke-miterlimit="10"/>
<path d="M96 314.5H65.48V378.81H96V314.5Z" fill="white" stroke="#959DA8" stroke-miterlimit="10"/>
<path d="M80.7402 314.5V340.46" stroke="#959DA8" stroke-miterlimit="10"/>
<path d="M65.52 340.92H96" stroke="#959DA8" stroke-miterlimit="10"/>
<path d="M136.1 314.5H105.58V378.81H136.1V314.5Z" fill="white" stroke="#959DA8" stroke-miterlimit="10"/>
<path d="M120.84 314.5V340.46" stroke="#959DA8" stroke-miterlimit="10"/>
<path d="M105.61 340.92H136.1" stroke="#959DA8" stroke-miterlimit="10"/>
<path d="M140.81 387.54H62.6599L61.6499 378.68H141.82L140.81 387.54Z" fill="white" stroke="#959DA8" stroke-miterlimit="10"/>
<path d="M318.29 309.36H314.01V322.51H318.29V309.36Z" fill="white" stroke="#959DA8" stroke-width="2" stroke-miterlimit="10"/>
<path d="M442.98 309.51H438.7V322.66H442.98V309.51Z" fill="white" stroke="#959DA8" stroke-width="2" stroke-miterlimit="10"/>
<path d="M970.77 314.54H955.7V364.78H970.77V314.54Z" fill="white" stroke="#959DA8" stroke-miterlimit="10"/>
<path d="M1023.38 314.54H980.53V407.63H1023.38V314.54Z" fill="#D3DCE5"/>
<circle cx="1015" cy="372" r="2" fill="white" stroke="#959DA8" stroke-miterlimit="10"/>
<path d="M1017.31 320.45H986.58V364.78H1017.31V320.45Z" fill="white"/>
<path d="M1635.25 320.45H1604.52V364.78H1635.25V320.45Z" fill="white"/>
<path d="M1105.08 269.77H900.69L911.63 260.02H1092.97L1105.08 269.77Z" fill="white" stroke="#959DA8" stroke-miterlimit="10"/>
<path d="M1858.68 288.98H1500.5V298.29H1500.35L1861.93 298.73L1858.68 288.98Z" fill="white" stroke="#959DA8" stroke-miterlimit="10"/>
<path d="M851.53 315.63H793.65V378.48H851.53V315.63Z" fill="white" stroke="#959DA8" stroke-miterlimit="10"/>
<path d="M793.64 340.94H851.53" stroke="#959DA8" stroke-miterlimit="10"/>
<path d="M822.58 315.63V340.94" stroke="#959DA8" stroke-miterlimit="10"/>
<path d="M764.31 340.99H784.16" stroke="#959DA8" stroke-miterlimit="10"/>
<path d="M881 315.7H861.13V378.4H881V315.7Z" fill="white" stroke="#959DA8" stroke-miterlimit="10"/>
<path d="M861.13 341.01H880.97" stroke="#959DA8" stroke-miterlimit="10"/>
<path d="M955.7 332.86H970.77" stroke="#959DA8" stroke-miterlimit="10"/>
<path d="M1874.63 298.73H1859.56L1681.07 176.44L1500.79 298.73H1484.54L1681.07 164.58L1874.63 298.73Z" fill="white"/>
<path d="M1047.9 314.54H1032.83V364.78H1047.9V314.54Z" fill="white" stroke="#959DA8" stroke-miterlimit="10"/>
<path d="M1032.83 332.86H1047.9" stroke="#959DA8" stroke-miterlimit="10"/>
<path d="M1859.56 298.73L1681.07 176.44L1500.79 298.73" stroke="#959DA8" stroke-miterlimit="10"/>
<path d="M1500.79 298.73H1484.54L1681.07 164.58L1874.63 298.73H1859.56" stroke="#959DA8" stroke-width="2" stroke-miterlimit="10"/>
<path d="M1514.25 298.76H1506.36V407.63H1514.25V298.76Z" fill="white" stroke="#959DA8" stroke-width="2" stroke-miterlimit="10"/>
<path d="M1479.37 423.9C1479.36 422.309 1479.74 420.74 1480.47 419.326C1481.2 417.911 1482.26 416.693 1483.56 415.774C1484.85 414.855 1486.35 414.262 1487.93 414.046C1489.51 413.829 1491.11 413.995 1492.61 414.53C1493.19 412.197 1494.36 410.054 1496.01 408.308C1497.66 406.563 1499.74 405.275 1502.03 404.57C1504.33 403.865 1506.77 403.767 1509.12 404.286C1511.46 404.805 1513.63 405.922 1515.42 407.53C1516.68 404.003 1519.15 401.035 1522.38 399.148C1525.62 397.26 1529.41 396.574 1533.11 397.211C1536.8 397.848 1540.14 399.767 1542.56 402.629C1544.97 405.492 1546.3 409.114 1546.31 412.86C1546.31 413.414 1546.28 413.969 1546.22 414.52C1547.3 414.124 1548.43 413.921 1549.58 413.92C1555.09 413.92 1559.87 418.39 1559.52 423.86C1559.47 424.76 1559.32 425.653 1559.07 426.52H1479.72C1479.48 425.654 1479.36 424.759 1479.36 423.86L1479.37 423.9Z" fill="#80C33F"/>
<path d="M1870.19 363.87C1870.94 360.543 1870.93 357.093 1870.18 353.768C1869.43 350.443 1867.95 347.327 1865.84 344.645C1863.74 341.963 1861.06 339.782 1858.01 338.261C1854.96 336.739 1851.61 335.914 1848.21 335.846C1844.8 335.778 1841.42 336.468 1838.31 337.867C1835.2 339.266 1832.44 341.338 1830.23 343.934C1828.02 346.53 1826.42 349.584 1825.53 352.877C1824.65 356.169 1824.51 359.616 1825.12 362.97C1822.61 364.189 1820.39 365.937 1818.62 368.092C1816.85 370.248 1815.56 372.761 1814.85 375.46C1814.13 378.158 1814.01 380.979 1814.49 383.729C1814.97 386.479 1816.03 389.094 1817.61 391.394C1819.19 393.694 1821.25 395.626 1823.65 397.057C1826.05 398.489 1828.72 399.386 1831.5 399.687C1834.27 399.989 1837.08 399.688 1839.73 398.805C1842.38 397.921 1844.8 396.477 1846.84 394.57C1848.82 396.429 1851.17 397.852 1853.73 398.746C1856.3 399.64 1859.02 399.986 1861.73 399.76C1864.43 399.534 1867.06 398.743 1869.44 397.436C1871.82 396.129 1873.9 394.337 1875.55 392.176C1877.19 390.014 1878.36 387.531 1878.99 384.887C1879.61 382.244 1879.67 379.499 1879.17 376.83C1878.66 374.162 1877.6 371.629 1876.06 369.396C1874.51 367.164 1872.51 365.281 1870.19 363.87Z" fill="#80C33F"/>
<path d="M1847.72 383.94L1837.13 376.88" stroke="#2A3A51" stroke-width="1.01" stroke-linecap="round" stroke-linejoin="round"/>
<path d="M1847.72 392.76L1860.07 382.18" stroke="#2A3A51" stroke-width="1.01" stroke-linecap="round" stroke-linejoin="round"/>
<path d="M1847.73 362.77V426.27" stroke="#2A3A51" stroke-width="1.01" stroke-linecap="round" stroke-linejoin="round"/>
<path d="M173.44 310.37H158.49L101.63 253.5L44.7601 310.37H29.8101L101.63 238.56L173.44 310.37Z" fill="white"/>
<path d="M389.42 148.31L382.51 141.39L375.61 148.31L226.19 298.14L239.81 298.22L382.51 155.23L525.21 298.22L538.86 298.14L389.42 148.31Z" fill="white"/>
<path d="M1103.95 269.62L1002.37 181.5L900.79 269.62" stroke="#959DA8" stroke-miterlimit="10"/>
<path d="M900.79 269.62H886.67L1002.39 168.22L1118.07 269.62H1103.95" stroke="#959DA8" stroke-width="2" stroke-miterlimit="10"/>
<path d="M158.49 310.37L101.63 253.5L44.7598 310.37" stroke="#959DA8" stroke-miterlimit="10"/>
<path d="M44.7601 310.37H29.8101L101.63 238.56L173.44 310.37H158.49" stroke="#959DA8" stroke-width="2" stroke-miterlimit="10"/>
<path d="M243.11 296.69L241 298.22H239L226.19 298.14L375.61 148.31L382.51 141.39L389.42 148.31L538.86 298.14L526 298.22H524L521 296" stroke="#959DA8" stroke-width="2" stroke-miterlimit="10"/>
<path d="M525.21 298.22L382.51 155.23L239.81 298.22" stroke="#959DA8" stroke-miterlimit="10"/>
<path d="M169.89 61.2798C168.345 61.2805 166.812 61.5512 165.36 62.0798C164.287 60.1893 162.612 58.7117 160.603 57.8819C158.593 57.052 156.364 56.9176 154.27 57.4998C153.495 55.4325 152.217 53.5907 150.552 52.1406C148.887 50.6905 146.888 49.6777 144.733 49.1935C142.579 48.7093 140.339 48.769 138.213 49.3671C136.088 49.9653 134.145 51.0831 132.56 52.6198C131.052 49.2639 128.347 46.591 124.973 45.1236C121.6 43.6561 117.8 43.4997 114.317 44.6848C110.834 45.87 107.918 48.3115 106.14 51.5321C104.361 54.7527 103.848 58.5208 104.7 62.0998C103.122 61.4706 101.424 61.1978 99.7285 61.3011C98.0328 61.4044 96.3809 61.8811 94.8909 62.6971C93.4009 63.5132 92.1096 64.6484 91.1094 66.0217C90.1092 67.3949 89.4249 68.9722 89.1053 70.6407C88.7857 72.3092 88.8387 74.0277 89.2607 75.6733C89.6826 77.319 90.463 78.851 91.5459 80.1599C92.6289 81.4688 93.9878 82.5223 95.5253 83.2448C97.0628 83.9674 98.741 84.3413 100.44 84.3398H178.93L179.05 84.2298C180.977 82.3979 182.311 80.0304 182.879 77.4329C183.448 74.8354 183.225 72.1271 182.239 69.6577C181.253 67.1883 179.549 65.0712 177.348 63.5796C175.147 62.088 172.549 61.2904 169.89 61.2898V61.2798Z" fill="#F4F5F6"/>
<path d="M1267.77 40.8799C1266.23 40.8806 1264.69 41.1513 1263.24 41.6799C1262.17 39.7894 1260.49 38.3118 1258.48 37.482C1256.47 36.6521 1254.24 36.5177 1252.15 37.0999C1251.37 35.0326 1250.1 33.1909 1248.43 31.7407C1246.77 30.2906 1244.77 29.2778 1242.61 28.7936C1240.46 28.3094 1238.22 28.3691 1236.09 28.9672C1233.97 29.5654 1232.03 30.6832 1230.44 32.2199C1228.93 28.864 1226.23 26.1911 1222.85 24.7237C1219.48 23.2562 1215.68 23.0998 1212.2 24.2849C1208.71 25.4701 1205.8 27.9116 1204.02 31.1322C1202.24 34.3528 1201.73 38.1209 1202.58 41.6999C1201 41.0707 1199.3 40.7979 1197.61 40.9012C1195.91 41.0045 1194.26 41.4812 1192.77 42.2972C1191.28 43.1133 1189.99 44.2485 1188.99 45.6218C1187.99 46.995 1187.31 48.5723 1186.99 50.2408C1186.67 51.9093 1186.72 53.6278 1187.14 55.2735C1187.56 56.9191 1188.34 58.4511 1189.43 59.76C1190.51 61.0689 1191.87 62.1224 1193.41 62.8449C1194.94 63.5675 1196.62 63.9414 1198.32 63.9399H1276.81L1276.93 63.8299C1278.86 61.998 1280.19 59.6305 1280.76 57.033C1281.33 54.4355 1281.1 51.7272 1280.12 49.2578C1279.13 46.7884 1277.43 44.6713 1275.23 43.1797C1273.03 41.6881 1270.43 40.8905 1267.77 40.8899V40.8799Z" fill="#F4F5F6"/>
<path d="M681.71 88C683.525 88.0013 685.325 88.3195 687.03 88.94C688.291 86.7257 690.253 84.9946 692.607 84.0202C694.962 83.0459 697.574 82.884 700.03 83.56C700.94 81.1289 702.441 78.9628 704.398 77.2572C706.355 75.5516 708.706 74.3602 711.238 73.7905C713.771 73.2209 716.405 73.291 718.904 73.9945C721.403 74.698 723.687 76.0127 725.55 77.82C727.307 73.8523 730.486 70.6859 734.46 68.9439C738.434 67.202 742.917 67.0107 747.025 68.4077C751.133 69.8047 754.57 72.6889 756.658 76.4925C758.747 80.2961 759.336 84.7437 758.31 88.96C760.165 88.2221 762.159 87.903 764.152 88.0256C766.144 88.1481 768.084 88.7093 769.834 89.6689C771.585 90.6285 773.101 91.9629 774.276 93.5768C775.45 95.1906 776.253 97.0439 776.628 99.0043C777.003 100.965 776.941 102.984 776.445 104.917C775.949 106.85 775.032 108.65 773.759 110.188C772.487 111.726 770.89 112.964 769.084 113.813C767.278 114.662 765.306 115.101 763.31 115.1H671.09L670.95 114.97C668.67 112.82 667.09 110.033 666.413 106.973C665.737 103.913 665.996 100.72 667.157 97.809C668.318 94.898 670.328 92.4033 672.925 90.6487C675.522 88.8942 678.586 87.9609 681.72 87.97L681.71 88Z" fill="#F4F5F6"/>
<path d="M407.4 57.7698C408.624 57.7693 409.839 57.9825 410.99 58.3998C411.841 56.8996 413.17 55.7273 414.765 55.0695C416.36 54.4117 418.128 54.3062 419.79 54.7698C420.404 53.1303 421.416 51.6696 422.736 50.5194C424.055 49.3692 425.641 48.5658 427.349 48.1817C429.057 47.7977 430.833 47.845 432.518 48.3196C434.203 48.7941 435.744 49.6809 437 50.8998C438.188 48.2268 440.333 46.0948 443.014 44.9228C445.694 43.7507 448.715 43.6233 451.485 44.5657C454.254 45.508 456.571 47.4519 457.98 50.0154C459.389 52.5789 459.789 55.5767 459.1 58.4198C460.35 57.9256 461.694 57.7133 463.036 57.798C464.377 57.8827 465.684 58.2623 466.862 58.9098C468.04 59.5573 469.061 60.4567 469.852 61.5439C470.642 62.6312 471.184 63.8795 471.437 65.1998C471.69 66.5201 471.648 67.88 471.315 69.1825C470.983 70.4851 470.367 71.6981 469.511 72.7353C468.656 73.7724 467.582 74.6081 466.367 75.1827C465.151 75.7574 463.824 76.0568 462.48 76.0598H400.23L400.13 75.9698C398.603 74.516 397.547 72.6382 397.098 70.5786C396.649 68.519 396.827 66.3719 397.609 64.4144C398.391 62.4569 399.742 60.7786 401.487 59.5961C403.232 58.4135 405.292 57.7809 407.4 57.7798V57.7698Z" fill="#F4F5F6"/>
<path d="M1574.87 89.3402C1575.94 89.3392 1577 89.5254 1578.01 89.8902C1578.75 88.579 1579.92 87.5545 1581.31 86.98C1582.7 86.4055 1584.25 86.314 1585.7 86.7202C1586.24 85.2949 1587.12 84.0255 1588.27 83.0259C1589.42 82.0263 1590.8 81.3277 1592.29 80.9927C1593.78 80.6578 1595.32 80.6969 1596.79 81.1066C1598.26 81.5163 1599.6 82.2837 1600.7 83.3402C1601.75 81.0211 1603.62 79.1752 1605.96 78.1622C1608.29 77.1492 1610.92 77.0417 1613.33 77.8607C1615.74 78.6796 1617.76 80.3663 1618.99 82.592C1620.22 84.8178 1620.58 87.4231 1620 89.9002C1621.1 89.4499 1622.28 89.249 1623.46 89.312C1624.65 89.375 1625.8 89.7004 1626.85 90.2646C1627.89 90.8288 1628.79 91.6177 1629.49 92.5743C1630.19 93.5309 1630.67 94.6312 1630.9 95.7956C1631.12 96.96 1631.08 98.1595 1630.78 99.3072C1630.49 100.455 1629.94 101.522 1629.18 102.432C1628.42 103.341 1627.46 104.071 1626.39 104.567C1625.31 105.063 1624.14 105.313 1622.95 105.3H1568.57L1568.49 105.22C1567.15 103.952 1566.23 102.311 1565.83 100.511C1565.44 98.7108 1565.59 96.8337 1566.28 95.1225C1566.96 93.4112 1568.14 91.9445 1569.67 90.9119C1571.2 89.8793 1573 89.3283 1574.84 89.3302L1574.87 89.3402Z" fill="#F4F5F6"/>
<path d="M1586.49 182.29H1568.17V200.91H1586.49V182.29Z" fill="white" stroke="#959DA8" stroke-miterlimit="10"/>
<path d="M946 367H899" stroke="#959DA8" stroke-miterlimit="10"/>
<path d="M1059.13 407.62H945.94V417.39H1059.13V407.62Z" fill="white" stroke="#959DA8" stroke-miterlimit="10"/>
<path d="M1059.13 417.62H945.94V427.39H1059.13V417.62Z" fill="white" stroke="#959DA8" stroke-miterlimit="10"/>
<path d="M1884.06 426H-41V449.95H1884.06V426Z" fill="#2A3A51"/>
</svg>
