<svg width="310" height="195" viewBox="0 0 310 195" fill="none" xmlns="http://www.w3.org/2000/svg">
<path d="M330.954 0H47.0957V9.40494H330.954V0Z" fill="#D3DCE5"/>
<path fill-rule="evenodd" clip-rule="evenodd" d="M262.145 74.3799H328.465V133.813H262.145V74.3799ZM262.583 74.8183V133.375H328.026V74.8183H262.583Z" fill="#959DA8"/>
<path fill-rule="evenodd" clip-rule="evenodd" d="M244.596 15.3853H319.846V67.9784H244.596V15.3853ZM245.034 15.8236V67.54H319.408V15.8236H245.034Z" fill="#959DA8"/>
<path fill-rule="evenodd" clip-rule="evenodd" d="M228.271 67.46H261.787V134.748H228.271V67.46ZM228.87 68.0582V134.15H261.189V68.0582H228.87Z" fill="#959DA8"/>
<path fill-rule="evenodd" clip-rule="evenodd" d="M228.291 134.167H261.77V193.54H228.291V134.167ZM228.853 134.729V192.978H261.208V134.729H228.853Z" fill="#959DA8"/>
<path fill-rule="evenodd" clip-rule="evenodd" d="M261.508 134.21H339.804V193.68H261.508V134.21ZM261.983 134.685V193.205H339.329V134.685H261.983Z" fill="#959DA8"/>
<path d="M251.246 74.2344H238.199V127.817H251.246V74.2344Z" fill="white"/>
<path fill-rule="evenodd" clip-rule="evenodd" d="M237.965 74.0078H251.469V128.047H237.965V74.0078ZM238.422 74.4645V127.59H251.012V74.4645H238.422Z" fill="#959DA8"/>
<path d="M251.246 137.077H238.199V190.66H251.246V137.077Z" fill="white"/>
<path fill-rule="evenodd" clip-rule="evenodd" d="M237.965 136.849H251.469V190.888H237.965V136.849ZM238.422 137.306V190.432H251.012V137.306H238.422Z" fill="#959DA8"/>
<path d="M322.615 15.6027V8.7627H244.811V67.3299H251.651V15.6027H322.615Z" fill="#F4F5F6"/>
<path fill-rule="evenodd" clip-rule="evenodd" d="M244.357 8.30664H323.075V16.0599H252.111V67.7871H244.357V8.30664ZM245.271 9.21997V66.8738H251.197V15.1466H322.162V9.21997H245.271Z" fill="#959DA8"/>
<path fill-rule="evenodd" clip-rule="evenodd" d="M117.117 67.46H150.633V134.748H117.117V67.46ZM117.715 68.0582V134.15H150.035V68.0582H117.715Z" fill="#959DA8"/>
<path fill-rule="evenodd" clip-rule="evenodd" d="M117.139 134.167H150.618V193.54H117.139V134.167ZM117.7 134.729V192.978H150.056V134.729H117.7Z" fill="#959DA8"/>
<path fill-rule="evenodd" clip-rule="evenodd" d="M150.361 134.21H228.658V193.68H150.361V134.21ZM150.836 134.685V193.205H228.183V134.685H150.836Z" fill="#959DA8"/>
<path d="M140.094 74.2344H127.047V127.817H140.094V74.2344Z" fill="white"/>
<path fill-rule="evenodd" clip-rule="evenodd" d="M126.824 74.0078H140.328V128.047H126.824V74.0078ZM127.281 74.4645V127.59H139.871V74.4645H127.281Z" fill="#959DA8"/>
<path d="M140.094 137.077H127.047V190.66H140.094V137.077Z" fill="white"/>
<path fill-rule="evenodd" clip-rule="evenodd" d="M126.824 136.849H140.328V190.888H126.824V136.849ZM127.281 137.306V190.432H139.871V137.306H127.281Z" fill="#959DA8"/>
<path d="M217.224 15.2437H156.947V67.5437H217.224" fill="white"/>
<path fill-rule="evenodd" clip-rule="evenodd" d="M156.627 14.9204H217.228V15.5689H157.275V67.2205H217.228V67.8689H156.627V14.9204Z" fill="#959DA8"/>
<path d="M185.811 18.2891H159.109V65.7926H185.811V18.2891Z" fill="white"/>
<path fill-rule="evenodd" clip-rule="evenodd" d="M158.879 18.0596H186.037V66.0198H158.879V18.0596ZM159.336 18.5162V65.5631H185.58V18.5162H159.336Z" fill="#959DA8"/>
<path fill-rule="evenodd" clip-rule="evenodd" d="M185.606 31.4357H159.109V30.979H185.606V31.4357Z" fill="#959DA8"/>
<path d="M217.028 15.6025H187.744V59.6348H217.028V15.6025Z" fill="#D3DCE5"/>
<path d="M324.959 77.7114H271.521V125.215H324.959V77.7114Z" fill="white"/>
<path fill-rule="evenodd" clip-rule="evenodd" d="M271.289 77.4824H325.183V125.443H271.289V77.4824ZM271.746 77.9391V124.986H324.726V77.9391H271.746Z" fill="#959DA8"/>
<path fill-rule="evenodd" clip-rule="evenodd" d="M298.027 128.464V77.7031H298.484V128.464H298.027Z" fill="#959DA8"/>
<path fill-rule="evenodd" clip-rule="evenodd" d="M324.758 90.8585H271.543V90.4019H324.758V90.8585Z" fill="#959DA8"/>
<path d="M224.494 77.7114H171.057V125.215H224.494V77.7114Z" fill="white"/>
<path fill-rule="evenodd" clip-rule="evenodd" d="M170.83 77.4824H224.724V125.443H170.83V77.4824ZM171.287 77.9391V124.986H224.267V77.9391H171.287Z" fill="#959DA8"/>
<path fill-rule="evenodd" clip-rule="evenodd" d="M197.564 128.464V77.7031H198.021V128.464H197.564Z" fill="#959DA8"/>
<path fill-rule="evenodd" clip-rule="evenodd" d="M224.295 90.8585H171.08V90.4019H224.295V90.8585Z" fill="#959DA8"/>
<path d="M111.209 141.835H57.7715V189.338H111.209V141.835Z" fill="white"/>
<path fill-rule="evenodd" clip-rule="evenodd" d="M57.5449 141.606H111.439V189.567H57.5449V141.606ZM58.0016 142.063V189.11H110.982V142.063H58.0016Z" fill="#959DA8"/>
<path fill-rule="evenodd" clip-rule="evenodd" d="M84.2773 192.588V141.827H84.734V192.588H84.2773Z" fill="#959DA8"/>
<path fill-rule="evenodd" clip-rule="evenodd" d="M111.008 154.983H57.793V154.526H111.008V154.983Z" fill="#959DA8"/>
<path d="M204.221 17.3794H191.174V65.4045H204.221V17.3794Z" fill="white"/>
<path fill-rule="evenodd" clip-rule="evenodd" d="M190.943 17.1504H204.447V65.6321H190.943V17.1504ZM191.4 17.6071V65.1755H203.991V17.6071H191.4Z" fill="#959DA8"/>
<path d="M339.284 134.448H307.658V193.015H339.284V134.448Z" fill="#D3DCE5"/>
<path d="M318.115 18.3906H253.562V67.0783H318.115V18.3906Z" fill="white"/>
<path fill-rule="evenodd" clip-rule="evenodd" d="M253.34 18.1616H318.349V67.306H253.34V18.1616ZM253.797 18.6183V66.8493H317.892V18.6183H253.797Z" fill="#959DA8"/>
<path fill-rule="evenodd" clip-rule="evenodd" d="M267.678 66.6894V18.707H268.134V66.6894H267.678Z" fill="#959DA8"/>
<path fill-rule="evenodd" clip-rule="evenodd" d="M285.631 66.6894V18.707H286.088V66.6894H285.631Z" fill="#959DA8"/>
<path fill-rule="evenodd" clip-rule="evenodd" d="M303.582 66.6894V18.707H304.039V66.6894H303.582Z" fill="#959DA8"/>
<path d="M220.451 15.6027V8.7627H150.342V66.6886L157.182 66.9024V15.6027H220.451Z" fill="#F4F5F6"/>
<path fill-rule="evenodd" clip-rule="evenodd" d="M149.885 8.30664H220.908V16.0599H157.638V67.3741L149.885 67.1319V8.30664ZM150.798 9.21997V66.2466L156.725 66.4318V15.1466H219.994V9.21997H150.798Z" fill="#959DA8"/>
<path fill-rule="evenodd" clip-rule="evenodd" d="M117.697 193.234H51.3772L51.3772 134.229H117.697L117.697 193.234ZM117.259 192.796L117.259 134.667H51.8156L51.8156 192.796H117.259Z" fill="#959DA8"/>
<path fill-rule="evenodd" clip-rule="evenodd" d="M116.84 133.812H50.5198L50.5198 74.3795H116.84L116.84 133.812ZM116.401 133.374L116.401 74.8178H50.9582L50.9582 133.374H116.401Z" fill="#959DA8"/>
<path fill-rule="evenodd" clip-rule="evenodd" d="M134.389 67.9766L59.1382 67.9766V15.3834L134.389 15.3834V67.9766ZM133.95 67.5382V15.8218L59.5766 15.8218V67.5382L133.95 67.5382Z" fill="#959DA8"/>
<path d="M80.4405 74.8115H50.5156V119.271H80.4405V74.8115Z" fill="#D3DCE5"/>
<path d="M182.275 134.662H150.648V193.229H182.275V134.662Z" fill="#D3DCE5"/>
<path fill-rule="evenodd" clip-rule="evenodd" d="M117.469 193.681H39.1722L39.1722 134.211H117.469L117.469 193.681ZM116.994 193.206L116.994 134.686H39.6471L39.6471 193.206H116.994Z" fill="#959DA8"/>
<path d="M56.373 15.6027V8.7627H134.173V67.3299H127.333V15.6027H56.373Z" fill="#F4F5F6"/>
<path fill-rule="evenodd" clip-rule="evenodd" d="M55.9121 8.30664H134.626V67.7871H126.872V16.0599H55.9121V8.30664ZM56.8254 9.21997V15.1466H127.786V66.8738H133.712V9.21997H56.8254Z" fill="#959DA8"/>
<path d="M42.9016 74.5992V67.7593H117.5V134.449H107.667H36.2754V128.036H110.66V74.5992H42.9016Z" fill="#F4F5F6"/>
<path fill-rule="evenodd" clip-rule="evenodd" d="M42.4426 67.3018H117.954V134.905H35.8164V127.579H110.201V75.055H42.4426V67.3018ZM43.3559 68.2151V74.1417H111.114V128.492H36.7297V133.991H117.041V68.2151H43.3559Z" fill="#959DA8"/>
<path d="M82.8008 77.2827H107.869V124.786H82.8008V77.2827Z" fill="white"/>
<path fill-rule="evenodd" clip-rule="evenodd" d="M82.5684 77.0547H108.093V125.015H82.5684V77.0547ZM83.025 77.5113V124.558H107.637V77.5113H83.025Z" fill="#959DA8"/>
<path fill-rule="evenodd" clip-rule="evenodd" d="M82.793 89.9731H107.87V90.4298H82.793V89.9731Z" fill="#959DA8"/>
<path d="M191.811 136.706H216.879V184.209H191.811V136.706Z" fill="white"/>
<path fill-rule="evenodd" clip-rule="evenodd" d="M191.588 136.477H217.113V184.437H191.588V136.477ZM192.045 136.933V183.98H216.656V136.933H192.045Z" fill="#959DA8"/>
<path fill-rule="evenodd" clip-rule="evenodd" d="M191.803 149.396H216.88V149.853H191.803V149.396Z" fill="#959DA8"/>
<path d="M272.182 136.706H297.25V184.209H272.182V136.706Z" fill="white"/>
<path fill-rule="evenodd" clip-rule="evenodd" d="M271.959 136.477H297.484V184.437H271.959V136.477ZM272.416 136.933V183.98H297.027V136.933H272.416Z" fill="#959DA8"/>
<path fill-rule="evenodd" clip-rule="evenodd" d="M272.172 149.396H297.249V149.853H272.172V149.396Z" fill="#959DA8"/>
<path d="M60.8691 18.3906H125.421V67.0783H60.8691V18.3906Z" fill="white"/>
<path fill-rule="evenodd" clip-rule="evenodd" d="M60.6328 18.1616H125.642V67.306H60.6328V18.1616ZM61.0895 18.6183V66.8493H125.185V18.6183H61.0895Z" fill="#959DA8"/>
<path fill-rule="evenodd" clip-rule="evenodd" d="M110.855 66.6894V18.707H111.312V66.6894H110.855Z" fill="#959DA8"/>
<path fill-rule="evenodd" clip-rule="evenodd" d="M92.8945 66.6894V18.707H93.3512V66.6894H92.8945Z" fill="#959DA8"/>
<path fill-rule="evenodd" clip-rule="evenodd" d="M74.9473 66.6894V18.707H75.4039V66.6894H74.9473Z" fill="#959DA8"/>
<path d="M228.574 74.5992V67.7593H150.342V134.449H157.182H228.574V127.609H157.182V74.5992H228.574Z" fill="#F4F5F6"/>
<path fill-rule="evenodd" clip-rule="evenodd" d="M149.885 67.3018H229.03V75.055H157.638V127.151H229.03V134.905H149.885V67.3018ZM150.798 68.2151V133.991H228.117V128.065H156.725V74.1417H228.117V68.2151H150.798Z" fill="#959DA8"/>
<path d="M336.081 75.0267V67.7593H261.482V134.449H342.707V128.036H268.322V75.0267H336.081Z" fill="#F4F5F6"/>
<path fill-rule="evenodd" clip-rule="evenodd" d="M261.031 67.3018H336.543V75.4825H268.785V127.579H343.169V134.905H261.031V67.3018ZM261.945 68.2151V133.991H342.256V128.492H267.871V74.5692H335.63V68.2151H261.945Z" fill="#959DA8"/>
<path d="M161.757 115.211C161.614 115.211 161.47 115.196 161.33 115.164C154.781 113.672 154.781 105.759 154.781 105.759C154.731 101.247 156.063 96.8266 158.598 93.0927C158.953 92.5839 159.425 92.1682 159.975 91.8812C160.524 91.5942 161.135 91.4443 161.755 91.4443C162.375 91.4443 162.986 91.5942 163.536 91.8812C164.086 92.1682 164.558 92.5839 164.912 93.0927C167.449 96.8261 168.782 101.246 168.734 105.759C168.734 105.759 168.734 113.702 162.185 115.164C162.045 115.196 161.901 115.211 161.757 115.211Z" fill="#80C33F"/>
<path fill-rule="evenodd" clip-rule="evenodd" d="M161.756 99.9521C161.882 99.9521 161.984 100.054 161.984 100.18V127.156C161.984 127.282 161.882 127.384 161.756 127.384C161.63 127.384 161.527 127.282 161.527 127.156V100.18C161.527 100.054 161.63 99.9521 161.756 99.9521Z" fill="#2A3A51"/>
<path d="M300.604 118.545C300.6 117.593 300.825 116.655 301.26 115.809C301.696 114.963 302.329 114.234 303.105 113.685C303.882 113.135 304.779 112.78 305.722 112.651C306.665 112.521 307.625 112.621 308.521 112.94C308.867 111.546 309.569 110.265 310.557 109.222C311.545 108.179 312.787 107.409 314.161 106.988C315.534 106.567 316.994 106.509 318.397 106.82C319.8 107.13 321.098 107.798 322.167 108.76C322.921 106.65 324.396 104.874 326.331 103.745C328.266 102.616 330.538 102.205 332.746 102.586C334.953 102.968 336.956 104.115 338.401 105.828C339.845 107.541 340.639 109.708 340.643 111.949C340.644 112.28 340.627 112.611 340.592 112.94C341.233 112.705 340.938 119.605 340.788 120.127H300.817C300.674 119.607 300.602 119.071 300.604 118.532V118.545Z" fill="#80C33F"/>
<path d="M89.8451 59.1235C89.849 58.172 89.6237 57.2336 89.1882 56.3876C88.7528 55.5416 88.12 54.8129 87.3434 54.2631C86.5668 53.7134 85.6692 53.3588 84.7265 53.2292C83.7839 53.0997 82.8239 53.1991 81.9278 53.5191C81.5815 52.1245 80.8801 50.8434 79.8918 49.8003C78.9035 48.7573 77.662 47.9878 76.2881 47.5669C74.9143 47.146 73.4549 47.0879 72.0519 47.3982C70.6489 47.7086 69.3502 48.3769 68.2821 49.3381C67.5276 47.2284 66.053 45.4526 64.1178 44.3234C62.1826 43.1941 59.911 42.784 57.7031 43.165C55.4952 43.5461 53.4926 44.6941 52.048 46.4067C50.6033 48.1193 49.8092 50.2867 49.8057 52.5273C49.8044 52.8585 49.8216 53.1897 49.857 53.5191C49.2157 53.2839 49.5107 60.1837 49.6603 60.7053H89.6313C89.7746 60.1859 89.8465 59.6495 89.8451 59.1107V59.1235Z" fill="#80C33F"/>
<path d="M272.56 111.363V128.035H268.473L268.477 111.363H272.56Z" fill="#F4F5F6"/>
<path fill-rule="evenodd" clip-rule="evenodd" d="M268.247 111.135H272.786V128.264H268.242L268.247 111.135ZM268.703 111.591L268.699 127.807H272.329V111.591H268.703Z" fill="#959DA8"/>
<path d="M268.284 111.363V128.035H264.197L264.202 111.363H268.284Z" fill="#F4F5F6"/>
<path fill-rule="evenodd" clip-rule="evenodd" d="M263.979 111.135H268.518V128.264H263.975L263.979 111.135ZM264.436 111.591L264.431 127.807H268.062V111.591H264.436Z" fill="#959DA8"/>
<path d="M264.009 111.363V128.035H261.205L261.209 111.363H264.009Z" fill="#F4F5F6"/>
<path fill-rule="evenodd" clip-rule="evenodd" d="M260.985 111.135H264.242V128.264H260.98L260.985 111.135ZM261.441 111.591L261.437 127.807H263.785V111.591H261.441Z" fill="#959DA8"/>
<path d="M276.837 111.363H272.66V128.035H276.837V111.363Z" fill="#F4F5F6"/>
<path fill-rule="evenodd" clip-rule="evenodd" d="M272.424 111.135H277.057V128.264H272.424V111.135ZM272.88 111.591V127.807H276.6V111.591H272.88Z" fill="#959DA8"/>
<path d="M281.11 111.363H276.934V128.035H281.11V111.363Z" fill="#F4F5F6"/>
<path fill-rule="evenodd" clip-rule="evenodd" d="M276.703 111.135H281.336V128.264H276.703V111.135ZM277.16 111.591V127.807H280.88V111.591H277.16Z" fill="#959DA8"/>
<path d="M285.38 111.363H281.203V128.035H285.38V111.363Z" fill="#F4F5F6"/>
<path fill-rule="evenodd" clip-rule="evenodd" d="M280.979 111.135H285.612V128.264H280.979V111.135ZM281.435 111.591V127.807H285.155V111.591H281.435Z" fill="#959DA8"/>
<path d="M289.659 111.363H285.482V128.035H289.659V111.363Z" fill="#F4F5F6"/>
<path fill-rule="evenodd" clip-rule="evenodd" d="M285.254 111.135H289.887V128.264H285.254V111.135ZM285.711 111.591V127.807H289.431V111.591H285.711Z" fill="#959DA8"/>
<path d="M293.936 111.363H289.76V128.035H293.936V111.363Z" fill="#F4F5F6"/>
<path fill-rule="evenodd" clip-rule="evenodd" d="M289.525 111.135H294.159V128.264H289.525V111.135ZM289.982 111.591V127.807H293.702V111.591H289.982Z" fill="#959DA8"/>
<path d="M298.206 111.363H294.029V128.035H298.206V111.363Z" fill="#F4F5F6"/>
<path fill-rule="evenodd" clip-rule="evenodd" d="M293.805 111.135H298.438V128.264H293.805V111.135ZM294.261 111.591V127.807H297.981V111.591H294.261Z" fill="#959DA8"/>
<path d="M302.483 111.363H298.307V128.035H302.483V111.363Z" fill="#F4F5F6"/>
<path fill-rule="evenodd" clip-rule="evenodd" d="M298.082 111.135H302.715V128.264H298.082V111.135ZM298.539 111.591V127.807H302.259V111.591H298.539Z" fill="#959DA8"/>
<path d="M306.763 111.363H302.586V128.035H306.763V111.363Z" fill="#F4F5F6"/>
<path fill-rule="evenodd" clip-rule="evenodd" d="M302.352 111.135H306.985V128.264H302.352V111.135ZM302.808 111.591V127.807H306.528V111.591H302.808Z" fill="#959DA8"/>
<path d="M311.032 111.363H306.855V128.035H311.032V111.363Z" fill="#F4F5F6"/>
<path fill-rule="evenodd" clip-rule="evenodd" d="M306.627 111.135H311.26V128.264H306.627V111.135ZM307.084 111.591V127.807H310.804V111.591H307.084Z" fill="#959DA8"/>
<path d="M198.171 111.363V128.035H194.084L194.088 111.363H198.171Z" fill="#F4F5F6"/>
<path fill-rule="evenodd" clip-rule="evenodd" d="M193.866 111.135H198.405V128.264H193.861L193.866 111.135ZM194.322 111.591L194.318 127.807H197.948V111.591H194.322Z" fill="#959DA8"/>
<path d="M202.448 111.363H198.271V128.035H202.448V111.363Z" fill="#F4F5F6"/>
<path fill-rule="evenodd" clip-rule="evenodd" d="M198.049 111.135H202.682V128.264H198.049V111.135ZM198.505 111.591V127.807H202.225V111.591H198.505Z" fill="#959DA8"/>
<path d="M206.727 111.363H202.551V128.035H206.727V111.363Z" fill="#F4F5F6"/>
<path fill-rule="evenodd" clip-rule="evenodd" d="M202.318 111.135H206.952V128.264H202.318V111.135ZM202.775 111.591V127.807H206.495V111.591H202.775Z" fill="#959DA8"/>
<path d="M210.999 111.363H206.822V128.035H210.999V111.363Z" fill="#F4F5F6"/>
<path fill-rule="evenodd" clip-rule="evenodd" d="M206.592 111.135H211.225V128.264H206.592V111.135ZM207.048 111.591V127.807H210.768V111.591H207.048Z" fill="#959DA8"/>
<path d="M215.27 111.363H211.094V128.035H215.27V111.363Z" fill="#F4F5F6"/>
<path fill-rule="evenodd" clip-rule="evenodd" d="M210.869 111.135H215.502V128.264H210.869V111.135ZM211.326 111.591V127.807H215.046V111.591H211.326Z" fill="#959DA8"/>
<path d="M219.55 111.363H215.373V128.035H219.55V111.363Z" fill="#F4F5F6"/>
<path fill-rule="evenodd" clip-rule="evenodd" d="M215.146 111.135H219.78V128.264H215.146V111.135ZM215.603 111.591V127.807H219.323V111.591H215.603Z" fill="#959DA8"/>
<path d="M223.827 111.363H219.65V128.035H223.827V111.363Z" fill="#F4F5F6"/>
<path fill-rule="evenodd" clip-rule="evenodd" d="M219.416 111.135H224.049V128.264H219.416V111.135ZM219.873 111.591V127.807H223.593V111.591H219.873Z" fill="#959DA8"/>
<path d="M228.099 128.035H223.922V111.363H228.099" fill="#F4F5F6"/>
<path fill-rule="evenodd" clip-rule="evenodd" d="M223.695 111.135H228.1V111.591H224.152V127.807H228.1V128.264H223.695V111.135Z" fill="#959DA8"/>
<path d="M159.702 111.363H155.525V128.035H159.702V111.363Z" fill="#F4F5F6"/>
<path fill-rule="evenodd" clip-rule="evenodd" d="M155.299 111.135H159.932V128.264H155.299V111.135ZM155.755 111.591V127.807H159.475V111.591H155.755Z" fill="#959DA8"/>
<path d="M155.423 111.363H151.246V128.035H155.423V111.363Z" fill="#F4F5F6"/>
<path fill-rule="evenodd" clip-rule="evenodd" d="M151.021 111.135H155.655V128.264H151.021V111.135ZM151.478 111.591V127.807H155.198V111.591H151.478Z" fill="#959DA8"/>
<path d="M163.977 111.363H159.801V128.035H163.977V111.363Z" fill="#F4F5F6"/>
<path fill-rule="evenodd" clip-rule="evenodd" d="M159.564 111.135H164.198V128.264H159.564V111.135ZM160.021 111.591V127.807H163.741V111.591H160.021Z" fill="#959DA8"/>
<path d="M168.245 111.363H164.068V128.035H168.245V111.363Z" fill="#F4F5F6"/>
<path fill-rule="evenodd" clip-rule="evenodd" d="M163.844 111.135H168.477V128.264H163.844V111.135ZM164.3 111.591V127.807H168.02V111.591H164.3Z" fill="#959DA8"/>
<path d="M172.524 111.363H168.348V128.035H172.524V111.363Z" fill="#F4F5F6"/>
<path fill-rule="evenodd" clip-rule="evenodd" d="M168.123 111.135H172.756V128.264H168.123V111.135ZM168.58 111.591V127.807H172.3V111.591H168.58Z" fill="#959DA8"/>
<path d="M176.804 111.363H172.627V128.035H176.804V111.363Z" fill="#F4F5F6"/>
<path fill-rule="evenodd" clip-rule="evenodd" d="M172.389 111.135H177.022V128.264H172.389V111.135ZM172.845 111.591V127.807H176.565V111.591H172.845Z" fill="#959DA8"/>
<path d="M181.075 111.363H176.898V128.035H181.075V111.363Z" fill="#F4F5F6"/>
<path fill-rule="evenodd" clip-rule="evenodd" d="M176.67 111.135H181.303V128.264H176.67V111.135ZM177.127 111.591V127.807H180.847V111.591H177.127Z" fill="#959DA8"/>
<path d="M185.347 111.363H181.17V128.035H185.347V111.363Z" fill="#F4F5F6"/>
<path fill-rule="evenodd" clip-rule="evenodd" d="M180.947 111.135H185.581V128.264H180.947V111.135ZM181.404 111.591V127.807H185.124V111.591H181.404Z" fill="#959DA8"/>
<path d="M189.622 111.363H185.445V128.035H189.622V111.363Z" fill="#F4F5F6"/>
<path fill-rule="evenodd" clip-rule="evenodd" d="M185.221 111.135H189.854V128.264H185.221V111.135ZM185.677 111.591V127.807H189.397V111.591H185.677Z" fill="#959DA8"/>
<path d="M193.903 111.363H189.727V128.035H193.903V111.363Z" fill="#F4F5F6"/>
<path fill-rule="evenodd" clip-rule="evenodd" d="M189.49 111.135H194.124V128.264H189.49V111.135ZM189.947 111.591V127.807H193.667V111.591H189.947Z" fill="#959DA8"/>
<path d="M86.6045 111.363V128.035H82.5176L82.5219 111.363H86.6045Z" fill="#F4F5F6"/>
<path fill-rule="evenodd" clip-rule="evenodd" d="M82.2876 111.135H86.8268V128.264H82.2832L82.2876 111.135ZM82.7441 111.591L82.74 127.807H86.3701V111.591H82.7441Z" fill="#959DA8"/>
<path d="M90.8759 111.363H86.6992V128.035H90.8759V111.363Z" fill="#F4F5F6"/>
<path fill-rule="evenodd" clip-rule="evenodd" d="M86.4648 111.135H91.0982V128.264H86.4648V111.135ZM86.9215 111.591V127.807H90.6415V111.591H86.9215Z" fill="#959DA8"/>
<path d="M95.1434 111.363H90.9668V128.035H95.1434V111.363Z" fill="#F4F5F6"/>
<path fill-rule="evenodd" clip-rule="evenodd" d="M90.7422 111.135H95.3755V128.264H90.7422V111.135ZM91.1988 111.591V127.807H94.9188V111.591H91.1988Z" fill="#959DA8"/>
<path d="M99.4227 111.363H95.2461V128.035H99.4227V111.363Z" fill="#F4F5F6"/>
<path fill-rule="evenodd" clip-rule="evenodd" d="M95.0234 111.135H99.6568V128.264H95.0234V111.135ZM95.4801 111.591V127.807H99.2001V111.591H95.4801Z" fill="#959DA8"/>
<path d="M103.702 111.363H99.5254V128.035H103.702V111.363Z" fill="#F4F5F6"/>
<path fill-rule="evenodd" clip-rule="evenodd" d="M99.2891 111.135H103.922V128.264H99.2891V111.135ZM99.7457 111.591V127.807H103.466V111.591H99.7457Z" fill="#959DA8"/>
<path d="M107.968 111.363H103.791V128.035H107.968V111.363Z" fill="#F4F5F6"/>
<path fill-rule="evenodd" clip-rule="evenodd" d="M103.564 111.135H108.198V128.264H103.564V111.135ZM104.021 111.591V127.807H107.741V111.591H104.021Z" fill="#959DA8"/>
<path d="M112.243 111.363H108.066V128.035H112.243V111.363Z" fill="#F4F5F6"/>
<path fill-rule="evenodd" clip-rule="evenodd" d="M107.844 111.135H112.477V128.264H107.844V111.135ZM108.3 111.591V127.807H112.02V111.591H108.3Z" fill="#959DA8"/>
<path d="M116.351 111.363H112.346V128.035H116.351V111.363Z" fill="#F4F5F6"/>
<path fill-rule="evenodd" clip-rule="evenodd" d="M112.139 111.16H116.551V128.239H112.139V111.16ZM112.545 111.566V127.832H116.144V111.566H112.545Z" fill="#959DA8"/>
<path d="M48.12 111.363H43.9434V128.035H48.12V111.363Z" fill="#F4F5F6"/>
<path fill-rule="evenodd" clip-rule="evenodd" d="M43.7188 111.135H48.3521V128.264H43.7188V111.135ZM44.1754 111.591V127.807H47.8954V111.591H44.1754Z" fill="#959DA8"/>
<path d="M43.8524 111.363H39.6758V128.035H43.8524V111.363Z" fill="#F4F5F6"/>
<path fill-rule="evenodd" clip-rule="evenodd" d="M39.4375 111.135H44.0708V128.264H39.4375V111.135ZM39.8942 111.591V127.807H43.6142V111.591H39.8942Z" fill="#959DA8"/>
<path d="M52.3954 111.363H48.2188V128.035H52.3954V111.363Z" fill="#F4F5F6"/>
<path fill-rule="evenodd" clip-rule="evenodd" d="M47.9961 111.135H52.6294V128.264H47.9961V111.135ZM48.4528 111.591V127.807H52.1727V111.591H48.4528Z" fill="#959DA8"/>
<path d="M56.6767 111.363H52.5V128.035H56.6767V111.363Z" fill="#F4F5F6"/>
<path fill-rule="evenodd" clip-rule="evenodd" d="M52.2656 111.135H56.8989V128.264H52.2656V111.135ZM52.7223 111.591V127.807H56.4423V111.591H52.7223Z" fill="#959DA8"/>
<path d="M60.952 111.363H56.7754V128.035H60.952V111.363Z" fill="#F4F5F6"/>
<path fill-rule="evenodd" clip-rule="evenodd" d="M56.5391 111.135H61.1724V128.264H56.5391V111.135ZM56.9957 111.591V127.807H60.7157V111.591H56.9957Z" fill="#959DA8"/>
<path d="M65.2196 111.363H61.043V128.035H65.2196V111.363Z" fill="#F4F5F6"/>
<path fill-rule="evenodd" clip-rule="evenodd" d="M60.8164 111.135H65.4497V128.264H60.8164V111.135ZM61.2731 111.591V127.807H64.9931V111.591H61.2731Z" fill="#959DA8"/>
<path d="M69.4989 111.363H65.3223V128.035H69.4989V111.363Z" fill="#F4F5F6"/>
<path fill-rule="evenodd" clip-rule="evenodd" d="M65.0977 111.135H69.731V128.264H65.0977V111.135ZM65.5543 111.591V127.807H69.2743V111.591H65.5543Z" fill="#959DA8"/>
<path d="M73.7743 111.363H69.5977V128.035H73.7743V111.363Z" fill="#F4F5F6"/>
<path fill-rule="evenodd" clip-rule="evenodd" d="M69.3633 111.135H73.9966V128.264H69.3633V111.135ZM69.8199 111.591V127.807H73.5399V111.591H69.8199Z" fill="#959DA8"/>
<path d="M78.0438 111.363H73.8672V128.035H78.0438V111.363Z" fill="#F4F5F6"/>
<path fill-rule="evenodd" clip-rule="evenodd" d="M73.6445 111.135H78.2778V128.264H73.6445V111.135ZM74.1012 111.591V127.807H77.8212V111.591H74.1012Z" fill="#959DA8"/>
<path d="M82.3212 111.363H78.1445V128.035H82.3212V111.363Z" fill="#F4F5F6"/>
<path fill-rule="evenodd" clip-rule="evenodd" d="M77.918 111.135H82.5513V128.264H77.918V111.135ZM78.3746 111.591V127.807H82.0946V111.591H78.3746Z" fill="#959DA8"/>
<path d="M298.208 51.0869V67.7593H294.121L294.125 51.0869H298.208Z" fill="#F4F5F6"/>
<path fill-rule="evenodd" clip-rule="evenodd" d="M293.901 50.8569H298.44V67.986H293.896L293.901 50.8569ZM294.357 51.3136L294.353 67.5293H297.983V51.3136H294.357Z" fill="#959DA8"/>
<path d="M302.483 51.0869H298.307V67.7593H302.483V51.0869Z" fill="#F4F5F6"/>
<path fill-rule="evenodd" clip-rule="evenodd" d="M298.082 50.8569H302.715V67.986H298.082V50.8569ZM298.539 51.3136V67.5293H302.259V51.3136H298.539Z" fill="#959DA8"/>
<path d="M306.763 51.0869H302.586V67.7593H306.763V51.0869Z" fill="#F4F5F6"/>
<path fill-rule="evenodd" clip-rule="evenodd" d="M302.352 50.8569H306.985V67.986H302.352V50.8569ZM302.808 51.3136V67.5293H306.528V51.3136H302.808Z" fill="#959DA8"/>
<path d="M311.032 51.0869H306.855V67.7593H311.032V51.0869Z" fill="#F4F5F6"/>
<path fill-rule="evenodd" clip-rule="evenodd" d="M306.627 50.8569H311.26V67.986H306.627V50.8569ZM307.084 51.3136V67.5293H310.804V51.3136H307.084Z" fill="#959DA8"/>
<path d="M255.46 51.0869V67.7593H251.373L251.377 51.0869H255.46Z" fill="#F4F5F6"/>
<path fill-rule="evenodd" clip-rule="evenodd" d="M251.149 50.8569H255.688V67.986H251.145L251.149 50.8569ZM251.605 51.3136L251.601 67.5293H255.231V51.3136H251.605Z" fill="#959DA8"/>
<path d="M259.737 51.0869H255.561V67.7593H259.737V51.0869Z" fill="#F4F5F6"/>
<path fill-rule="evenodd" clip-rule="evenodd" d="M255.33 50.8569H259.963V67.986H255.33V50.8569ZM255.787 51.3136V67.5293H259.507V51.3136H255.787Z" fill="#959DA8"/>
<path d="M264.011 51.0869H259.834V67.7593H264.011V51.0869Z" fill="#F4F5F6"/>
<path fill-rule="evenodd" clip-rule="evenodd" d="M259.6 50.8569H264.233V67.986H259.6V50.8569ZM260.056 51.3136V67.5293H263.776V51.3136H260.056Z" fill="#959DA8"/>
<path d="M268.278 51.0869H264.102V67.7593H268.278V51.0869Z" fill="#F4F5F6"/>
<path fill-rule="evenodd" clip-rule="evenodd" d="M263.879 50.8569H268.512V67.986H263.879V50.8569ZM264.336 51.3136V67.5293H268.056V51.3136H264.336Z" fill="#959DA8"/>
<path d="M272.556 51.0869H268.379V67.7593H272.556V51.0869Z" fill="#F4F5F6"/>
<path fill-rule="evenodd" clip-rule="evenodd" d="M268.156 50.8569H272.79V67.986H268.156V50.8569ZM268.613 51.3136V67.5293H272.333V51.3136H268.613Z" fill="#959DA8"/>
<path d="M276.837 51.0869H272.66V67.7593H276.837V51.0869Z" fill="#F4F5F6"/>
<path fill-rule="evenodd" clip-rule="evenodd" d="M272.424 50.8569H277.057V67.986H272.424V50.8569ZM272.88 51.3136V67.5293H276.6V51.3136H272.88Z" fill="#959DA8"/>
<path d="M281.11 51.0869H276.934V67.7593H281.11V51.0869Z" fill="#F4F5F6"/>
<path fill-rule="evenodd" clip-rule="evenodd" d="M276.703 50.8569H281.336V67.986H276.703V50.8569ZM277.16 51.3136V67.5293H280.88V51.3136H277.16Z" fill="#959DA8"/>
<path d="M285.38 51.0869H281.203V67.7593H285.38V51.0869Z" fill="#F4F5F6"/>
<path fill-rule="evenodd" clip-rule="evenodd" d="M280.979 50.8569H285.612V67.986H280.979V50.8569ZM281.435 51.3136V67.5293H285.155V51.3136H281.435Z" fill="#959DA8"/>
<path d="M289.659 51.0869H285.482V67.7593H289.659V51.0869Z" fill="#F4F5F6"/>
<path fill-rule="evenodd" clip-rule="evenodd" d="M285.254 50.8569H289.887V67.986H285.254V50.8569ZM285.711 51.3136V67.5293H289.431V51.3136H285.711Z" fill="#959DA8"/>
<path d="M293.936 51.0869H289.76V67.7593H293.936V51.0869Z" fill="#F4F5F6"/>
<path fill-rule="evenodd" clip-rule="evenodd" d="M289.525 50.8569H294.159V67.986H289.525V50.8569ZM289.982 51.3136V67.5293H293.702V51.3136H289.982Z" fill="#959DA8"/>
<path d="M213.138 51.0869V67.7593H209.051L209.055 51.0869H213.138Z" fill="#F4F5F6"/>
<path fill-rule="evenodd" clip-rule="evenodd" d="M208.821 50.8569H213.36V67.986H208.816L208.821 50.8569ZM209.277 51.3136L209.273 67.5293H212.903V51.3136H209.277Z" fill="#959DA8"/>
<path d="M217.415 51.0869H213.238V67.7593H217.415V51.0869Z" fill="#F4F5F6"/>
<path fill-rule="evenodd" clip-rule="evenodd" d="M213.004 50.8569H217.637V67.986H213.004V50.8569ZM213.461 51.3136V67.5293H217.181V51.3136H213.461Z" fill="#959DA8"/>
<path d="M221.683 51.0869H217.506V67.7593H221.683V51.0869Z" fill="#F4F5F6"/>
<path fill-rule="evenodd" clip-rule="evenodd" d="M217.283 50.8569H221.917V67.986H217.283V50.8569ZM217.74 51.3136V67.5293H221.46V51.3136H217.74Z" fill="#959DA8"/>
<path d="M225.958 51.0869H221.781V67.7593H225.958V51.0869Z" fill="#F4F5F6"/>
<path fill-rule="evenodd" clip-rule="evenodd" d="M221.559 50.8569H226.192V67.986H221.559V50.8569ZM222.015 51.3136V67.5293H225.735V51.3136H222.015Z" fill="#959DA8"/>
<path d="M230.239 51.0869H226.062V67.7593H230.239V51.0869Z" fill="#F4F5F6"/>
<path fill-rule="evenodd" clip-rule="evenodd" d="M225.828 50.8569H230.461V67.986H225.828V50.8569ZM226.285 51.3136V67.5293H230.005V51.3136H226.285Z" fill="#959DA8"/>
<path d="M234.511 51.0869H230.334V67.7593H234.511V51.0869Z" fill="#F4F5F6"/>
<path fill-rule="evenodd" clip-rule="evenodd" d="M230.105 50.8569H234.739V67.986H230.105V50.8569ZM230.562 51.3136V67.5293H234.282V51.3136H230.562Z" fill="#959DA8"/>
<path d="M238.784 51.0869H234.607V67.7593H238.784V51.0869Z" fill="#F4F5F6"/>
<path fill-rule="evenodd" clip-rule="evenodd" d="M234.385 50.8569H239.018V67.986H234.385V50.8569ZM234.841 51.3136V67.5293H238.561V51.3136H234.841Z" fill="#959DA8"/>
<path d="M243.063 51.0869H238.887V67.7593H243.063V51.0869Z" fill="#F4F5F6"/>
<path fill-rule="evenodd" clip-rule="evenodd" d="M238.658 50.8569H243.292V67.986H238.658V50.8569ZM239.115 51.3136V67.5293H242.835V51.3136H239.115Z" fill="#959DA8"/>
<path d="M247.339 51.0869H243.162V67.7593H247.339V51.0869Z" fill="#F4F5F6"/>
<path fill-rule="evenodd" clip-rule="evenodd" d="M242.928 50.8569H247.561V67.986H242.928V50.8569ZM243.384 51.3136V67.5293H247.104V51.3136H243.384Z" fill="#959DA8"/>
<path d="M251.606 51.0869H247.43V67.7593H251.606V51.0869Z" fill="#F4F5F6"/>
<path fill-rule="evenodd" clip-rule="evenodd" d="M247.207 50.8569H251.84V67.986H247.207V50.8569ZM247.664 51.3136V67.5293H251.384V51.3136H247.664Z" fill="#959DA8"/>
<path d="M170.386 51.0869V67.7593H166.299L166.303 51.0869H170.386Z" fill="#F4F5F6"/>
<path fill-rule="evenodd" clip-rule="evenodd" d="M166.075 50.8569H170.614V67.986H166.07L166.075 50.8569ZM166.531 51.3136L166.527 67.5293H170.157V51.3136H166.531Z" fill="#959DA8"/>
<path d="M174.657 51.0869H170.48V67.7593H174.657V51.0869Z" fill="#F4F5F6"/>
<path fill-rule="evenodd" clip-rule="evenodd" d="M170.254 50.8569H174.887V67.986H170.254V50.8569ZM170.711 51.3136V67.5293H174.431V51.3136H170.711Z" fill="#959DA8"/>
<path d="M178.934 51.0869H174.758V67.7593H178.934V51.0869Z" fill="#F4F5F6"/>
<path fill-rule="evenodd" clip-rule="evenodd" d="M174.535 50.8569H179.168V67.986H174.535V50.8569ZM174.992 51.3136V67.5293H178.712V51.3136H174.992Z" fill="#959DA8"/>
<path d="M183.212 51.0869H179.035V67.7593H183.212V51.0869Z" fill="#F4F5F6"/>
<path fill-rule="evenodd" clip-rule="evenodd" d="M178.807 50.8569H183.44V67.986H178.807V50.8569ZM179.263 51.3136V67.5293H182.983V51.3136H179.263Z" fill="#959DA8"/>
<path d="M187.491 51.0869H183.314V67.7593H187.491V51.0869Z" fill="#F4F5F6"/>
<path fill-rule="evenodd" clip-rule="evenodd" d="M183.08 50.8569H187.713V67.986H183.08V50.8569ZM183.537 51.3136V67.5293H187.257V51.3136H183.537Z" fill="#959DA8"/>
<path d="M191.759 51.0869H187.582V67.7593H191.759V51.0869Z" fill="#F4F5F6"/>
<path fill-rule="evenodd" clip-rule="evenodd" d="M187.359 50.8569H191.993V67.986H187.359V50.8569ZM187.816 51.3136V67.5293H191.536V51.3136H187.816Z" fill="#959DA8"/>
<path d="M196.034 51.0869H191.857V67.7593H196.034V51.0869Z" fill="#F4F5F6"/>
<path fill-rule="evenodd" clip-rule="evenodd" d="M191.635 50.8569H196.268V67.986H191.635V50.8569ZM192.091 51.3136V67.5293H195.811V51.3136H192.091Z" fill="#959DA8"/>
<path d="M200.315 51.0869H196.139V67.7593H200.315V51.0869Z" fill="#F4F5F6"/>
<path fill-rule="evenodd" clip-rule="evenodd" d="M195.904 50.8569H200.538V67.986H195.904V50.8569ZM196.361 51.3136V67.5293H200.081V51.3136H196.361Z" fill="#959DA8"/>
<path d="M204.585 51.0869H200.408V67.7593H204.585V51.0869Z" fill="#F4F5F6"/>
<path fill-rule="evenodd" clip-rule="evenodd" d="M200.18 50.8569H204.813V67.986H200.18V50.8569ZM200.636 51.3136V67.5293H204.356V51.3136H200.636Z" fill="#959DA8"/>
<path d="M208.86 51.0869H204.684V67.7593H208.86V51.0869Z" fill="#F4F5F6"/>
<path fill-rule="evenodd" clip-rule="evenodd" d="M204.461 50.8569H209.094V67.986H204.461V50.8569ZM204.918 51.3136V67.5293H208.638V51.3136H204.918Z" fill="#959DA8"/>
<path d="M127.636 51.0869V67.7593H123.549L123.553 51.0869H127.636Z" fill="#F4F5F6"/>
<path fill-rule="evenodd" clip-rule="evenodd" d="M123.329 50.8569H127.868V67.986H123.324L123.329 50.8569ZM123.785 51.3136L123.781 67.5293H127.411V51.3136H123.785Z" fill="#959DA8"/>
<path d="M131.909 51.0869H127.732V67.7593H131.909V51.0869Z" fill="#F4F5F6"/>
<path fill-rule="evenodd" clip-rule="evenodd" d="M127.508 50.8569H132.141V67.986H127.508V50.8569ZM127.964 51.3136V67.5293H131.684V51.3136H127.964Z" fill="#959DA8"/>
<path d="M136.186 51.0869H132.01V67.7593H136.186V51.0869Z" fill="#F4F5F6"/>
<path fill-rule="evenodd" clip-rule="evenodd" d="M131.787 50.8569H136.42V67.986H131.787V50.8569ZM132.244 51.3136V67.5293H135.964V51.3136H132.244Z" fill="#959DA8"/>
<path d="M140.466 51.0869H136.289V67.7593H140.466V51.0869Z" fill="#F4F5F6"/>
<path fill-rule="evenodd" clip-rule="evenodd" d="M136.055 50.8569H140.688V67.986H136.055V50.8569ZM136.511 51.3136V67.5293H140.231V51.3136H136.511Z" fill="#959DA8"/>
<path d="M144.733 51.0869H140.557V67.7593H144.733V51.0869Z" fill="#F4F5F6"/>
<path fill-rule="evenodd" clip-rule="evenodd" d="M140.332 50.8569H144.965V67.986H140.332V50.8569ZM140.789 51.3136V67.5293H144.509V51.3136H140.789Z" fill="#959DA8"/>
<path d="M149.013 51.0869H144.836V67.7593H149.013V51.0869Z" fill="#F4F5F6"/>
<path fill-rule="evenodd" clip-rule="evenodd" d="M144.609 50.8569H149.243V67.986H144.609V50.8569ZM145.066 51.3136V67.5293H148.786V51.3136H145.066Z" fill="#959DA8"/>
<path d="M153.286 51.0869H149.109V67.7593H153.286V51.0869Z" fill="#F4F5F6"/>
<path fill-rule="evenodd" clip-rule="evenodd" d="M148.879 50.8569H153.512V67.986H148.879V50.8569ZM149.336 51.3136V67.5293H153.056V51.3136H149.336Z" fill="#959DA8"/>
<path d="M157.565 51.0869H153.389V67.7593H157.565V51.0869Z" fill="#F4F5F6"/>
<path fill-rule="evenodd" clip-rule="evenodd" d="M153.154 50.8569H157.788V67.986H153.154V50.8569ZM153.611 51.3136V67.5293H157.331V51.3136H153.611Z" fill="#959DA8"/>
<path d="M161.833 51.0869H157.656V67.7593H161.833V51.0869Z" fill="#F4F5F6"/>
<path fill-rule="evenodd" clip-rule="evenodd" d="M157.434 50.8569H162.067V67.986H157.434V50.8569ZM157.89 51.3136V67.5293H161.61V51.3136H157.89Z" fill="#959DA8"/>
<path d="M166.112 51.0869H161.936V67.7593H166.112V51.0869Z" fill="#F4F5F6"/>
<path fill-rule="evenodd" clip-rule="evenodd" d="M161.711 50.8569H166.344V67.986H161.711V50.8569ZM162.168 51.3136V67.5293H165.888V51.3136H162.168Z" fill="#959DA8"/>
<path d="M84.8896 51.0869V67.7593H80.8027L80.807 51.0869H84.8896Z" fill="#F4F5F6"/>
<path fill-rule="evenodd" clip-rule="evenodd" d="M80.5786 50.8569H85.1178V67.986H80.5742L80.5786 50.8569ZM81.0352 51.3136L81.031 67.5293H84.6612V51.3136H81.0352Z" fill="#959DA8"/>
<path d="M89.163 51.0869H84.9863V67.7593H89.163V51.0869Z" fill="#F4F5F6"/>
<path fill-rule="evenodd" clip-rule="evenodd" d="M84.7617 50.8569H89.395V67.986H84.7617V50.8569ZM85.2184 51.3136V67.5293H88.9384V51.3136H85.2184Z" fill="#959DA8"/>
<path d="M93.4403 51.0869H89.2637V67.7593H93.4403V51.0869Z" fill="#F4F5F6"/>
<path fill-rule="evenodd" clip-rule="evenodd" d="M89.0293 50.8569H93.6626V67.986H89.0293V50.8569ZM89.486 51.3136V67.5293H93.2059V51.3136H89.486Z" fill="#959DA8"/>
<path d="M97.7157 51.0869H93.5391V67.7593H97.7157V51.0869Z" fill="#F4F5F6"/>
<path fill-rule="evenodd" clip-rule="evenodd" d="M93.3086 50.8569H97.9419V67.986H93.3086V50.8569ZM93.7653 51.3136V67.5293H97.4852V51.3136H93.7653Z" fill="#959DA8"/>
<path d="M101.985 51.0869H97.8086V67.7593H101.985V51.0869Z" fill="#F4F5F6"/>
<path fill-rule="evenodd" clip-rule="evenodd" d="M97.582 50.8569H102.215V67.986H97.582V50.8569ZM98.0387 51.3136V67.5293H101.759V51.3136H98.0387Z" fill="#959DA8"/>
<path d="M106.259 51.0869H102.082V67.7593H106.259V51.0869Z" fill="#F4F5F6"/>
<path fill-rule="evenodd" clip-rule="evenodd" d="M101.859 50.8569H106.493V67.986H101.859V50.8569ZM102.316 51.3136V67.5293H106.036V51.3136H102.316Z" fill="#959DA8"/>
<path d="M110.542 51.0869H106.365V67.7593H110.542V51.0869Z" fill="#F4F5F6"/>
<path fill-rule="evenodd" clip-rule="evenodd" d="M106.129 50.8569H110.762V67.986H106.129V50.8569ZM106.586 51.3136V67.5293H110.306V51.3136H106.586Z" fill="#959DA8"/>
<path d="M114.808 51.0869H110.631V67.7593H114.808V51.0869Z" fill="#F4F5F6"/>
<path fill-rule="evenodd" clip-rule="evenodd" d="M110.408 50.8569H115.042V67.986H110.408V50.8569ZM110.865 51.3136V67.5293H114.585V51.3136H110.865Z" fill="#959DA8"/>
<path d="M119.087 51.0869H114.91V67.7593H119.087V51.0869Z" fill="#F4F5F6"/>
<path fill-rule="evenodd" clip-rule="evenodd" d="M114.688 50.8569H119.321V67.986H114.688V50.8569ZM115.144 51.3136V67.5293H118.864V51.3136H115.144Z" fill="#959DA8"/>
<path d="M123.366 51.0869H119.189V67.7593H123.366V51.0869Z" fill="#F4F5F6"/>
<path fill-rule="evenodd" clip-rule="evenodd" d="M118.953 50.8569H123.586V67.986H118.953V50.8569ZM119.41 51.3136V67.5293H123.13V51.3136H119.41Z" fill="#959DA8"/>
<path d="M46.4154 51.0869H43.0938V67.7593H46.4154V51.0869Z" fill="#F4F5F6"/>
<path fill-rule="evenodd" clip-rule="evenodd" d="M42.8594 50.8569H46.6377V67.986H42.8594V50.8569ZM43.316 51.3136V67.5293H46.181V51.3136H43.316Z" fill="#959DA8"/>
<path d="M50.6923 51.0869H46.5156V67.7593H50.6923V51.0869Z" fill="#F4F5F6"/>
<path fill-rule="evenodd" clip-rule="evenodd" d="M46.2812 50.8569H50.9146V67.986H46.2812V50.8569ZM46.7379 51.3136V67.5293H50.4579V51.3136H46.7379Z" fill="#959DA8"/>
<path d="M54.9559 51.0869H50.7793V67.7593H54.9559V51.0869Z" fill="#F4F5F6"/>
<path fill-rule="evenodd" clip-rule="evenodd" d="M50.5566 50.8569H55.19V67.986H50.5566V50.8569ZM51.0133 51.3136V67.5293H54.7333V51.3136H51.0133Z" fill="#959DA8"/>
<path d="M59.2372 51.0869H55.0605V67.7593H59.2372V51.0869Z" fill="#F4F5F6"/>
<path fill-rule="evenodd" clip-rule="evenodd" d="M54.8379 50.8569H59.4712V67.986H54.8379V50.8569ZM55.2946 51.3136V67.5293H59.0145V51.3136H55.2946Z" fill="#959DA8"/>
<path d="M63.5126 51.0869H59.3359V67.7593H63.5126V51.0869Z" fill="#F4F5F6"/>
<path fill-rule="evenodd" clip-rule="evenodd" d="M59.1016 50.8569H63.7349V67.986H59.1016V50.8569ZM59.5582 51.3136V67.5293H63.2782V51.3136H59.5582Z" fill="#959DA8"/>
<path d="M67.7899 51.0869H63.6133V67.7593H67.7899V51.0869Z" fill="#F4F5F6"/>
<path fill-rule="evenodd" clip-rule="evenodd" d="M63.3828 50.8569H68.0161V67.986H63.3828V50.8569ZM63.8395 51.3136V67.5293H67.5595V51.3136H63.8395Z" fill="#959DA8"/>
<path d="M72.0614 51.0869H67.8848V67.7593H72.0614V51.0869Z" fill="#F4F5F6"/>
<path fill-rule="evenodd" clip-rule="evenodd" d="M67.6621 50.8569H72.2954V67.986H67.6621V50.8569ZM68.1188 51.3136V67.5293H71.8388V51.3136H68.1188Z" fill="#959DA8"/>
<path d="M76.3407 51.0869H72.1641V67.7593H76.3407V51.0869Z" fill="#F4F5F6"/>
<path fill-rule="evenodd" clip-rule="evenodd" d="M71.9375 50.8569H76.5708V67.986H71.9375V50.8569ZM72.3942 51.3136V67.5293H76.1142V51.3136H72.3942Z" fill="#959DA8"/>
<path d="M80.6161 51.0869H76.4395V67.7593H80.6161V51.0869Z" fill="#F4F5F6"/>
<path fill-rule="evenodd" clip-rule="evenodd" d="M76.2031 50.8569H80.8364V67.986H76.2031V50.8569ZM76.6598 51.3136V67.5293H80.3798V51.3136H76.6598Z" fill="#959DA8"/>
<path fill-rule="evenodd" clip-rule="evenodd" d="M42.5801 50.6294H332.909V68.2151H42.5801V50.6294ZM43.4934 51.5427V67.3018H331.996V51.5427H43.4934Z" fill="#959DA8"/>
<path fill-rule="evenodd" clip-rule="evenodd" d="M149.885 110.906H229.03V128.491H149.885V110.906ZM150.798 111.819V127.578H228.117V111.819H150.798Z" fill="#959DA8"/>
<path fill-rule="evenodd" clip-rule="evenodd" d="M261.027 110.904H341.246V128.494H261.027V110.904ZM261.945 111.822V127.576H340.328V111.822H261.945Z" fill="#959DA8"/>
<path d="M249.083 161.56C249.35 160.311 249.337 159.018 249.045 157.774C248.754 156.53 248.191 155.366 247.397 154.365C246.604 153.364 245.599 152.551 244.454 151.984C243.309 151.416 242.053 151.109 240.776 151.084C239.499 151.058 238.232 151.316 237.066 151.837C235.899 152.358 234.863 153.131 234.03 154.1C233.197 155.069 232.589 156.209 232.248 157.441C231.908 158.672 231.844 159.963 232.06 161.222C231.113 161.683 230.276 162.344 229.607 163.158C228.938 163.972 228.452 164.921 228.184 165.94C227.915 166.958 227.869 168.023 228.05 169.062C228.23 170.1 228.633 171.087 229.229 171.955C229.826 172.824 230.604 173.553 231.508 174.093C232.413 174.634 233.423 174.973 234.471 175.087C235.518 175.201 236.578 175.088 237.578 174.755C238.578 174.422 239.494 173.877 240.264 173.158C241.012 173.858 241.899 174.393 242.867 174.728C243.835 175.064 244.862 175.193 245.883 175.106C246.904 175.02 247.895 174.72 248.793 174.227C249.691 173.734 250.475 173.057 251.095 172.242C251.715 171.426 252.157 170.49 252.393 169.493C252.628 168.496 252.652 167.461 252.462 166.454C252.273 165.447 251.874 164.492 251.292 163.649C250.71 162.806 249.957 162.094 249.083 161.56Z" fill="#80C33F"/>
<path fill-rule="evenodd" clip-rule="evenodd" d="M236.409 166.336C236.479 166.231 236.621 166.203 236.726 166.273L240.723 168.936C240.828 169.006 240.856 169.148 240.787 169.253C240.717 169.358 240.575 169.386 240.47 169.316L236.473 166.653C236.368 166.583 236.34 166.441 236.409 166.336Z" fill="#2A3A51"/>
<path fill-rule="evenodd" clip-rule="evenodd" d="M245.433 168.311C245.515 168.407 245.504 168.551 245.408 168.633L240.74 172.63C240.644 172.712 240.5 172.701 240.418 172.605C240.336 172.509 240.347 172.365 240.443 172.283L245.111 168.286C245.207 168.204 245.351 168.215 245.433 168.311Z" fill="#2A3A51"/>
<path fill-rule="evenodd" clip-rule="evenodd" d="M240.596 160.904C240.722 160.904 240.824 161.007 240.824 161.133V185.12C240.824 185.246 240.722 185.348 240.596 185.348C240.469 185.348 240.367 185.246 240.367 185.12V161.133C240.367 161.007 240.469 160.904 240.596 160.904Z" fill="#2A3A51"/>
<path fill-rule="evenodd" clip-rule="evenodd" d="M117.949 128.492H38.8038V110.906L117.949 110.906V128.492ZM117.036 127.579V111.82L39.7172 111.82V127.579L117.036 127.579Z" fill="#959DA8"/>
<path d="M298.208 176.771V193.443H294.121L294.125 176.771H298.208Z" fill="#F4F5F6"/>
<path fill-rule="evenodd" clip-rule="evenodd" d="M293.901 176.542H298.44V193.672H293.896L293.901 176.542ZM294.357 176.999L294.353 193.215H297.983V176.999H294.357Z" fill="#959DA8"/>
<path d="M293.935 176.771V193.443H289.848L289.852 176.771H293.935Z" fill="#F4F5F6"/>
<path fill-rule="evenodd" clip-rule="evenodd" d="M289.622 176.542H294.161V193.672H289.617L289.622 176.542ZM290.078 176.999L290.074 193.215H293.704V176.999H290.078Z" fill="#959DA8"/>
<path d="M302.483 176.771H298.307V193.443H302.483V176.771Z" fill="#F4F5F6"/>
<path fill-rule="evenodd" clip-rule="evenodd" d="M298.082 176.542H302.715V193.672H298.082V176.542ZM298.539 176.999V193.215H302.259V176.999H298.539Z" fill="#959DA8"/>
<path d="M306.763 176.771H302.586V193.443H306.763V176.771Z" fill="#F4F5F6"/>
<path fill-rule="evenodd" clip-rule="evenodd" d="M302.352 176.542H306.985V193.672H302.352V176.542ZM302.808 176.999V193.215H306.528V176.999H302.808Z" fill="#959DA8"/>
<path d="M311.032 176.771H306.855V193.443H311.032V176.771Z" fill="#F4F5F6"/>
<path fill-rule="evenodd" clip-rule="evenodd" d="M306.627 176.542H311.26V193.672H306.627V176.542ZM307.084 176.999V193.215H310.804V176.999H307.084Z" fill="#959DA8"/>
<path d="M255.46 176.771V193.443H251.373L251.377 176.771H255.46Z" fill="#F4F5F6"/>
<path fill-rule="evenodd" clip-rule="evenodd" d="M251.149 176.542H255.688V193.672H251.145L251.149 176.542ZM251.605 176.999L251.601 193.215H255.231V176.999H251.605Z" fill="#959DA8"/>
<path d="M259.737 176.771H255.561V193.443H259.737V176.771Z" fill="#F4F5F6"/>
<path fill-rule="evenodd" clip-rule="evenodd" d="M255.33 176.542H259.963V193.672H255.33V176.542ZM255.787 176.999V193.215H259.507V176.999H255.787Z" fill="#959DA8"/>
<path d="M264.011 176.771H259.834V193.443H264.011V176.771Z" fill="#F4F5F6"/>
<path fill-rule="evenodd" clip-rule="evenodd" d="M259.6 176.542H264.233V193.672H259.6V176.542ZM260.056 176.999V193.215H263.776V176.999H260.056Z" fill="#959DA8"/>
<path d="M268.278 176.771H264.102V193.443H268.278V176.771Z" fill="#F4F5F6"/>
<path fill-rule="evenodd" clip-rule="evenodd" d="M263.879 176.542H268.512V193.672H263.879V176.542ZM264.336 176.999V193.215H268.056V176.999H264.336Z" fill="#959DA8"/>
<path d="M272.556 176.771H268.379V193.443H272.556V176.771Z" fill="#F4F5F6"/>
<path fill-rule="evenodd" clip-rule="evenodd" d="M268.156 176.542H272.79V193.672H268.156V176.542ZM268.613 176.999V193.215H272.333V176.999H268.613Z" fill="#959DA8"/>
<path d="M276.837 176.771H272.66V193.443H276.837V176.771Z" fill="#F4F5F6"/>
<path fill-rule="evenodd" clip-rule="evenodd" d="M272.424 176.542H277.057V193.672H272.424V176.542ZM272.88 176.999V193.215H276.6V176.999H272.88Z" fill="#959DA8"/>
<path d="M281.11 176.771H276.934V193.443H281.11V176.771Z" fill="#F4F5F6"/>
<path fill-rule="evenodd" clip-rule="evenodd" d="M276.703 176.542H281.336V193.672H276.703V176.542ZM277.16 176.999V193.215H280.88V176.999H277.16Z" fill="#959DA8"/>
<path d="M285.38 176.771H281.203V193.443H285.38V176.771Z" fill="#F4F5F6"/>
<path fill-rule="evenodd" clip-rule="evenodd" d="M280.979 176.542H285.612V193.672H280.979V176.542ZM281.435 176.999V193.215H285.155V176.999H281.435Z" fill="#959DA8"/>
<path d="M289.659 176.771H285.482V193.443H289.659V176.771Z" fill="#F4F5F6"/>
<path fill-rule="evenodd" clip-rule="evenodd" d="M285.254 176.542H289.887V193.672H285.254V176.542ZM285.711 176.999V193.215H289.431V176.999H285.711Z" fill="#959DA8"/>
<path d="M213.138 176.771V193.443H209.051L209.055 176.771H213.138Z" fill="#F4F5F6"/>
<path fill-rule="evenodd" clip-rule="evenodd" d="M208.821 176.542H213.36V193.672H208.816L208.821 176.542ZM209.277 176.999L209.273 193.215H212.903V176.999H209.277Z" fill="#959DA8"/>
<path d="M217.415 176.771H213.238V193.443H217.415V176.771Z" fill="#F4F5F6"/>
<path fill-rule="evenodd" clip-rule="evenodd" d="M213.004 176.542H217.637V193.672H213.004V176.542ZM213.461 176.999V193.215H217.181V176.999H213.461Z" fill="#959DA8"/>
<path d="M221.683 176.771H217.506V193.443H221.683V176.771Z" fill="#F4F5F6"/>
<path fill-rule="evenodd" clip-rule="evenodd" d="M217.283 176.542H221.917V193.672H217.283V176.542ZM217.74 176.999V193.215H221.46V176.999H217.74Z" fill="#959DA8"/>
<path d="M225.958 176.771H221.781V193.443H225.958V176.771Z" fill="#F4F5F6"/>
<path fill-rule="evenodd" clip-rule="evenodd" d="M221.559 176.542H226.192V193.672H221.559V176.542ZM222.015 176.999V193.215H225.735V176.999H222.015Z" fill="#959DA8"/>
<path d="M230.239 176.771H226.062V193.443H230.239V176.771Z" fill="#F4F5F6"/>
<path fill-rule="evenodd" clip-rule="evenodd" d="M225.828 176.542H230.461V193.672H225.828V176.542ZM226.285 176.999V193.215H230.005V176.999H226.285Z" fill="#959DA8"/>
<path d="M234.511 176.771H230.334V193.443H234.511V176.771Z" fill="#F4F5F6"/>
<path fill-rule="evenodd" clip-rule="evenodd" d="M230.105 176.542H234.739V193.672H230.105V176.542ZM230.562 176.999V193.215H234.282V176.999H230.562Z" fill="#959DA8"/>
<path d="M238.784 176.771H234.607V193.443H238.784V176.771Z" fill="#F4F5F6"/>
<path fill-rule="evenodd" clip-rule="evenodd" d="M234.385 176.542H239.018V193.672H234.385V176.542ZM234.841 176.999V193.215H238.561V176.999H234.841Z" fill="#959DA8"/>
<path d="M243.063 176.771H238.887V193.443H243.063V176.771Z" fill="#F4F5F6"/>
<path fill-rule="evenodd" clip-rule="evenodd" d="M238.658 176.542H243.292V193.672H238.658V176.542ZM239.115 176.999V193.215H242.835V176.999H239.115Z" fill="#959DA8"/>
<path d="M247.339 176.771H243.162V193.443H247.339V176.771Z" fill="#F4F5F6"/>
<path fill-rule="evenodd" clip-rule="evenodd" d="M242.928 176.542H247.561V193.672H242.928V176.542ZM243.384 176.999V193.215H247.104V176.999H243.384Z" fill="#959DA8"/>
<path d="M251.606 176.771H247.43V193.443H251.606V176.771Z" fill="#F4F5F6"/>
<path fill-rule="evenodd" clip-rule="evenodd" d="M247.207 176.542H251.84V193.672H247.207V176.542ZM247.664 176.999V193.215H251.384V176.999H247.664Z" fill="#959DA8"/>
<path d="M170.386 176.771V193.443H166.299L166.303 176.771H170.386Z" fill="#F4F5F6"/>
<path fill-rule="evenodd" clip-rule="evenodd" d="M166.075 176.542H170.614V193.672H166.07L166.075 176.542ZM166.531 176.999L166.527 193.215H170.157V176.999H166.531Z" fill="#959DA8"/>
<path d="M174.657 176.771H170.48V193.443H174.657V176.771Z" fill="#F4F5F6"/>
<path fill-rule="evenodd" clip-rule="evenodd" d="M170.254 176.542H174.887V193.672H170.254V176.542ZM170.711 176.999V193.215H174.431V176.999H170.711Z" fill="#959DA8"/>
<path d="M178.934 176.771H174.758V193.443H178.934V176.771Z" fill="#F4F5F6"/>
<path fill-rule="evenodd" clip-rule="evenodd" d="M174.535 176.542H179.168V193.672H174.535V176.542ZM174.992 176.999V193.215H178.712V176.999H174.992Z" fill="#959DA8"/>
<path d="M183.212 176.771H179.035V193.443H183.212V176.771Z" fill="#F4F5F6"/>
<path fill-rule="evenodd" clip-rule="evenodd" d="M178.807 176.542H183.44V193.672H178.807V176.542ZM179.263 176.999V193.215H182.983V176.999H179.263Z" fill="#959DA8"/>
<path d="M187.491 176.771H183.314V193.443H187.491V176.771Z" fill="#F4F5F6"/>
<path fill-rule="evenodd" clip-rule="evenodd" d="M183.08 176.542H187.713V193.672H183.08V176.542ZM183.537 176.999V193.215H187.257V176.999H183.537Z" fill="#959DA8"/>
<path d="M191.759 176.771H187.582V193.443H191.759V176.771Z" fill="#F4F5F6"/>
<path fill-rule="evenodd" clip-rule="evenodd" d="M187.359 176.542H191.993V193.672H187.359V176.542ZM187.816 176.999V193.215H191.536V176.999H187.816Z" fill="#959DA8"/>
<path d="M196.034 176.771H191.857V193.443H196.034V176.771Z" fill="#F4F5F6"/>
<path fill-rule="evenodd" clip-rule="evenodd" d="M191.635 176.542H196.268V193.672H191.635V176.542ZM192.091 176.999V193.215H195.811V176.999H192.091Z" fill="#959DA8"/>
<path d="M200.315 176.771H196.139V193.443H200.315V176.771Z" fill="#F4F5F6"/>
<path fill-rule="evenodd" clip-rule="evenodd" d="M195.904 176.542H200.538V193.672H195.904V176.542ZM196.361 176.999V193.215H200.081V176.999H196.361Z" fill="#959DA8"/>
<path d="M204.585 176.771H200.408V193.443H204.585V176.771Z" fill="#F4F5F6"/>
<path fill-rule="evenodd" clip-rule="evenodd" d="M200.18 176.542H204.813V193.672H200.18V176.542ZM200.636 176.999V193.215H204.356V176.999H200.636Z" fill="#959DA8"/>
<path d="M208.86 176.771H204.684V193.443H208.86V176.771Z" fill="#F4F5F6"/>
<path fill-rule="evenodd" clip-rule="evenodd" d="M204.461 176.542H209.094V193.672H204.461V176.542ZM204.918 176.999V193.215H208.638V176.999H204.918Z" fill="#959DA8"/>
<path d="M127.636 176.771V193.443H123.549L123.553 176.771H127.636Z" fill="#F4F5F6"/>
<path fill-rule="evenodd" clip-rule="evenodd" d="M123.329 176.542H127.868V193.672H123.324L123.329 176.542ZM123.785 176.999L123.781 193.215H127.411V176.999H123.785Z" fill="#959DA8"/>
<path d="M131.909 176.771H127.732V193.443H131.909V176.771Z" fill="#F4F5F6"/>
<path fill-rule="evenodd" clip-rule="evenodd" d="M127.508 176.542H132.141V193.672H127.508V176.542ZM127.964 176.999V193.215H131.684V176.999H127.964Z" fill="#959DA8"/>
<path d="M136.186 176.771H132.01V193.443H136.186V176.771Z" fill="#F4F5F6"/>
<path fill-rule="evenodd" clip-rule="evenodd" d="M131.787 176.542H136.42V193.672H131.787V176.542ZM132.244 176.999V193.215H135.964V176.999H132.244Z" fill="#959DA8"/>
<path d="M140.466 176.771H136.289V193.443H140.466V176.771Z" fill="#F4F5F6"/>
<path fill-rule="evenodd" clip-rule="evenodd" d="M136.055 176.542H140.688V193.672H136.055V176.542ZM136.511 176.999V193.215H140.231V176.999H136.511Z" fill="#959DA8"/>
<path d="M144.733 176.771H140.557V193.443H144.733V176.771Z" fill="#F4F5F6"/>
<path fill-rule="evenodd" clip-rule="evenodd" d="M140.332 176.542H144.965V193.672H140.332V176.542ZM140.789 176.999V193.215H144.509V176.999H140.789Z" fill="#959DA8"/>
<path d="M149.013 176.771H144.836V193.443H149.013V176.771Z" fill="#F4F5F6"/>
<path fill-rule="evenodd" clip-rule="evenodd" d="M144.609 176.542H149.243V193.672H144.609V176.542ZM145.066 176.999V193.215H148.786V176.999H145.066Z" fill="#959DA8"/>
<path d="M153.286 176.771H149.109V193.443H153.286V176.771Z" fill="#F4F5F6"/>
<path fill-rule="evenodd" clip-rule="evenodd" d="M148.879 176.542H153.512V193.672H148.879V176.542ZM149.336 176.999V193.215H153.056V176.999H149.336Z" fill="#959DA8"/>
<path d="M157.565 176.771H153.389V193.443H157.565V176.771Z" fill="#F4F5F6"/>
<path fill-rule="evenodd" clip-rule="evenodd" d="M153.154 176.542H157.788V193.672H153.154V176.542ZM153.611 176.999V193.215H157.331V176.999H153.611Z" fill="#959DA8"/>
<path d="M161.833 176.771H157.656V193.443H161.833V176.771Z" fill="#F4F5F6"/>
<path fill-rule="evenodd" clip-rule="evenodd" d="M157.434 176.542H162.067V193.672H157.434V176.542ZM157.89 176.999V193.215H161.61V176.999H157.89Z" fill="#959DA8"/>
<path d="M166.112 176.771H161.936V193.443H166.112V176.771Z" fill="#F4F5F6"/>
<path fill-rule="evenodd" clip-rule="evenodd" d="M161.711 176.542H166.344V193.672H161.711V176.542ZM162.168 176.999V193.215H165.888V176.999H162.168Z" fill="#959DA8"/>
<path d="M84.8896 176.771V193.443H80.8027L80.807 176.771H84.8896Z" fill="#F4F5F6"/>
<path fill-rule="evenodd" clip-rule="evenodd" d="M80.5786 176.542H85.1178V193.672H80.5742L80.5786 176.542ZM81.0352 176.999L81.031 193.215H84.6612V176.999H81.0352Z" fill="#959DA8"/>
<path d="M89.163 176.771H84.9863V193.443H89.163V176.771Z" fill="#F4F5F6"/>
<path fill-rule="evenodd" clip-rule="evenodd" d="M84.7617 176.542H89.395V193.672H84.7617V176.542ZM85.2184 176.999V193.215H88.9384V176.999H85.2184Z" fill="#959DA8"/>
<path d="M93.4403 176.771H89.2637V193.443H93.4403V176.771Z" fill="#F4F5F6"/>
<path fill-rule="evenodd" clip-rule="evenodd" d="M89.0293 176.542H93.6626V193.672H89.0293V176.542ZM89.486 176.999V193.215H93.2059V176.999H89.486Z" fill="#959DA8"/>
<path d="M97.7157 176.771H93.5391V193.443H97.7157V176.771Z" fill="#F4F5F6"/>
<path fill-rule="evenodd" clip-rule="evenodd" d="M93.3086 176.542H97.9419V193.672H93.3086V176.542ZM93.7653 176.999V193.215H97.4852V176.999H93.7653Z" fill="#959DA8"/>
<path d="M101.985 176.771H97.8086V193.443H101.985V176.771Z" fill="#F4F5F6"/>
<path fill-rule="evenodd" clip-rule="evenodd" d="M97.582 176.542H102.215V193.672H97.582V176.542ZM98.0387 176.999V193.215H101.759V176.999H98.0387Z" fill="#959DA8"/>
<path d="M106.259 176.771H102.082V193.443H106.259V176.771Z" fill="#F4F5F6"/>
<path fill-rule="evenodd" clip-rule="evenodd" d="M101.859 176.542H106.493V193.672H101.859V176.542ZM102.316 176.999V193.215H106.036V176.999H102.316Z" fill="#959DA8"/>
<path d="M110.542 176.771H106.365V193.443H110.542V176.771Z" fill="#F4F5F6"/>
<path fill-rule="evenodd" clip-rule="evenodd" d="M106.129 176.542H110.762V193.672H106.129V176.542ZM106.586 176.999V193.215H110.306V176.999H106.586Z" fill="#959DA8"/>
<path d="M114.808 176.771H110.631V193.443H114.808V176.771Z" fill="#F4F5F6"/>
<path fill-rule="evenodd" clip-rule="evenodd" d="M110.408 176.542H115.042V193.672H110.408V176.542ZM110.865 176.999V193.215H114.585V176.999H110.865Z" fill="#959DA8"/>
<path d="M119.087 176.771H114.91V193.443H119.087V176.771Z" fill="#F4F5F6"/>
<path fill-rule="evenodd" clip-rule="evenodd" d="M114.688 176.542H119.321V193.672H114.688V176.542ZM115.144 176.999V193.215H118.864V176.999H115.144Z" fill="#959DA8"/>
<path d="M123.366 176.771H119.189V193.443H123.366V176.771Z" fill="#F4F5F6"/>
<path fill-rule="evenodd" clip-rule="evenodd" d="M118.953 176.542H123.586V193.672H118.953V176.542ZM119.41 176.999V193.215H123.13V176.999H119.41Z" fill="#959DA8"/>
<path d="M46.4149 176.771H42.2383V193.443H46.4149V176.771Z" fill="#F4F5F6"/>
<path fill-rule="evenodd" clip-rule="evenodd" d="M42.0117 176.542H46.645V193.672H42.0117V176.542ZM42.4684 176.999V193.215H46.1884V176.999H42.4684Z" fill="#959DA8"/>
<path d="M42.1337 176.771H37.957V193.443H42.1337V176.771Z" fill="#F4F5F6"/>
<path fill-rule="evenodd" clip-rule="evenodd" d="M37.7344 176.542H42.3677V193.672H37.7344V176.542ZM38.191 176.999V193.215H41.911V176.999H38.191Z" fill="#959DA8"/>
<path d="M50.6923 176.771H46.5156V193.443H50.6923V176.771Z" fill="#F4F5F6"/>
<path fill-rule="evenodd" clip-rule="evenodd" d="M46.2812 176.542H50.9146V193.672H46.2812V176.542ZM46.7379 176.999V193.215H50.4579V176.999H46.7379Z" fill="#959DA8"/>
<path d="M54.9559 176.771H50.7793V193.443H54.9559V176.771Z" fill="#F4F5F6"/>
<path fill-rule="evenodd" clip-rule="evenodd" d="M50.5566 176.542H55.19V193.672H50.5566V176.542ZM51.0133 176.999V193.215H54.7333V176.999H51.0133Z" fill="#959DA8"/>
<path d="M59.2372 176.771H55.0605V193.443H59.2372V176.771Z" fill="#F4F5F6"/>
<path fill-rule="evenodd" clip-rule="evenodd" d="M54.8379 176.542H59.4712V193.672H54.8379V176.542ZM55.2946 176.999V193.215H59.0145V176.999H55.2946Z" fill="#959DA8"/>
<path d="M63.5126 176.771H59.3359V193.443H63.5126V176.771Z" fill="#F4F5F6"/>
<path fill-rule="evenodd" clip-rule="evenodd" d="M59.1016 176.542H63.7349V193.672H59.1016V176.542ZM59.5582 176.999V193.215H63.2782V176.999H59.5582Z" fill="#959DA8"/>
<path d="M67.7899 176.771H63.6133V193.443H67.7899V176.771Z" fill="#F4F5F6"/>
<path fill-rule="evenodd" clip-rule="evenodd" d="M63.3828 176.542H68.0161V193.672H63.3828V176.542ZM63.8395 176.999V193.215H67.5595V176.999H63.8395Z" fill="#959DA8"/>
<path d="M72.0614 176.771H67.8848V193.443H72.0614V176.771Z" fill="#F4F5F6"/>
<path fill-rule="evenodd" clip-rule="evenodd" d="M67.6621 176.542H72.2954V193.672H67.6621V176.542ZM68.1188 176.999V193.215H71.8388V176.999H68.1188Z" fill="#959DA8"/>
<path d="M76.3407 176.771H72.1641V193.443H76.3407V176.771Z" fill="#F4F5F6"/>
<path fill-rule="evenodd" clip-rule="evenodd" d="M71.9375 176.542H76.5708V193.672H71.9375V176.542ZM72.3942 176.999V193.215H76.1142V176.999H72.3942Z" fill="#959DA8"/>
<path d="M80.6161 176.771H76.4395V193.443H80.6161V176.771Z" fill="#F4F5F6"/>
<path fill-rule="evenodd" clip-rule="evenodd" d="M76.2031 176.542H80.8364V193.672H76.2031V176.542ZM76.6598 176.999V193.215H80.3798V176.999H76.6598Z" fill="#959DA8"/>
<path fill-rule="evenodd" clip-rule="evenodd" d="M37.2324 176.313H342.096V193.899H37.2324V176.313ZM38.1457 177.227V192.986H341.183V177.227H38.1457Z" fill="#959DA8"/>
<path d="M296.754 192.027C296.75 191.076 296.975 190.137 297.411 189.291C297.846 188.445 298.479 187.717 299.256 187.167C300.032 186.617 300.93 186.263 301.872 186.133C302.815 186.004 303.775 186.103 304.671 186.423C305.018 185.028 305.719 183.747 306.707 182.704C307.696 181.661 308.937 180.892 310.311 180.471C311.685 180.05 313.144 179.992 314.547 180.302C315.95 180.612 317.249 181.281 318.317 182.242C319.071 180.132 320.546 178.356 322.481 177.227C324.416 176.098 326.688 175.688 328.896 176.069C331.104 176.45 333.106 177.598 334.551 179.31C335.996 181.023 336.79 183.191 336.793 185.431C336.795 185.762 336.777 186.093 336.742 186.423C337.386 186.188 338.066 186.068 338.751 186.068C342.043 186.068 344.907 188.74 344.698 192.015C344.668 192.554 344.577 193.089 344.428 193.609H296.976C296.833 193.09 296.761 192.553 296.763 192.015L296.754 192.027Z" fill="#80C33F"/>
<path d="M33.9345 167.117C34.2531 165.695 34.2516 164.22 33.9302 162.798C33.6088 161.377 32.9754 160.045 32.076 158.898C31.1765 157.752 30.0334 156.82 28.7295 156.169C27.4255 155.518 25.9932 155.166 24.5362 155.137C23.0792 155.108 21.634 155.403 20.3051 156.001C18.9762 156.599 17.7968 157.485 16.8523 158.594C15.9078 159.704 15.2218 161.01 14.8439 162.417C14.4659 163.825 14.4056 165.299 14.6672 166.732C13.5939 167.254 12.6458 168.001 11.8877 168.922C11.1296 169.844 10.5795 170.918 10.2748 172.072C9.97009 173.225 9.91808 174.431 10.1223 175.607C10.3265 176.782 10.7821 177.9 11.458 178.883C12.1339 179.867 13.0142 180.693 14.0386 181.305C15.063 181.916 16.2075 182.3 17.3938 182.429C18.58 182.558 19.7801 182.429 20.9121 182.051C22.044 181.674 23.0811 181.056 23.9524 180.241C24.7987 181.036 25.8025 181.644 26.8988 182.027C27.9952 182.409 29.1596 182.556 30.3166 182.46C31.4737 182.363 32.5975 182.025 33.6154 181.466C34.6333 180.908 35.5225 180.142 36.2254 179.218C36.9282 178.293 37.4291 177.232 37.6956 176.102C37.9621 174.972 37.9882 173.798 37.7722 172.657C37.5562 171.517 37.103 170.434 36.4419 169.48C35.7808 168.525 34.9265 167.72 33.9345 167.117Z" fill="#80C33F"/>
<path fill-rule="evenodd" clip-rule="evenodd" d="M19.6121 172.549C19.6816 172.444 19.8233 172.415 19.9285 172.484L24.4557 175.477C24.5609 175.546 24.5898 175.688 24.5203 175.793C24.4507 175.898 24.3091 175.927 24.2039 175.858L19.6767 172.865C19.5715 172.796 19.5426 172.654 19.6121 172.549Z" fill="#2A3A51"/>
<path fill-rule="evenodd" clip-rule="evenodd" d="M29.7809 174.771C29.863 174.866 29.8519 175.011 29.7561 175.093L24.4765 179.616C24.3807 179.698 24.2366 179.687 24.1545 179.591C24.0725 179.495 24.0836 179.351 24.1794 179.269L29.459 174.746C29.5548 174.664 29.6989 174.675 29.7809 174.771Z" fill="#2A3A51"/>
<path fill-rule="evenodd" clip-rule="evenodd" d="M24.3279 166.397C24.454 166.397 24.5563 166.5 24.5563 166.626V193.772C24.5563 193.898 24.454 194 24.3279 194C24.2018 194 24.0996 193.898 24.0996 193.772V166.626C24.0996 166.5 24.2018 166.397 24.3279 166.397Z" fill="#2A3A51"/>
<line x1="8.74228e-08" y1="194" x2="310" y2="194" stroke="#959DA8" stroke-width="2" stroke-miterlimit="10"/>
</svg>
