<svg width="568" height="181" viewBox="0 0 568 181" fill="none" xmlns="http://www.w3.org/2000/svg">
<path d="M232.373 46.1515H36.2148L39.5143 1.40576H232.373V46.1515Z" fill="#D3DCE5"/>
<path d="M138.5 46.5H172" stroke="#959DA8" stroke-width="0.8"/>
<path d="M32.4915 152.691C32.7744 151.269 32.7605 149.805 32.4508 148.388C32.1467 146.986 31.5491 145.665 30.6972 144.51C29.8686 143.384 28.7984 142.457 27.565 141.799C26.3604 141.154 25.0207 140.803 23.655 140.774C22.2893 140.745 20.936 141.039 19.7051 141.631C18.4502 142.236 17.3473 143.115 16.4779 144.203C15.5847 145.32 14.9392 146.614 14.5842 148C14.2224 149.403 14.1546 150.867 14.3853 152.298C13.3641 152.832 12.4724 153.583 11.7729 154.499C11.0548 155.438 10.5392 156.515 10.2587 157.663C9.97229 158.824 9.9231 160.031 10.1141 161.211C10.3029 162.382 10.7306 163.502 11.3706 164.501C11.9933 165.477 12.8197 166.307 13.7932 166.933C14.7481 167.546 15.8302 167.932 16.957 168.063C18.0729 168.192 19.2034 168.062 20.261 167.683C21.3352 167.3 22.3109 166.682 23.1175 165.875C23.8981 166.671 24.8418 167.288 25.8836 167.683C26.9061 168.072 28.0026 168.226 29.0926 168.135C30.1858 168.035 31.2432 167.694 32.1887 167.136C33.1556 166.564 33.9905 165.794 34.6384 164.877C35.3028 163.937 35.7716 162.873 36.0169 161.749C36.2668 160.614 36.2913 159.44 36.0892 158.296C35.8907 157.159 35.4665 156.074 34.8418 155.105C34.2379 154.143 33.4368 153.32 32.4915 152.691Z" fill="#80C33F"/>
<path fill-rule="evenodd" clip-rule="evenodd" d="M19.0282 158.147C19.1006 158.045 19.2417 158.021 19.3434 158.094L23.5965 161.122C23.6982 161.194 23.7219 161.335 23.6495 161.437C23.5772 161.539 23.4361 161.563 23.3344 161.49L19.0813 158.462C18.9796 158.389 18.9559 158.248 19.0282 158.147Z" fill="#2A3A51"/>
<path fill-rule="evenodd" clip-rule="evenodd" d="M28.6052 160.422C28.6891 160.514 28.6823 160.657 28.59 160.741L23.6182 165.261C23.5259 165.345 23.383 165.338 23.299 165.246C23.2151 165.154 23.2219 165.011 23.3142 164.927L28.286 160.407C28.3783 160.323 28.5212 160.33 28.6052 160.422Z" fill="#2A3A51"/>
<path fill-rule="evenodd" clip-rule="evenodd" d="M23.4662 151.995C23.591 151.995 23.6922 152.096 23.6922 152.221V179.484C23.6922 179.609 23.591 179.71 23.4662 179.71C23.3414 179.71 23.2402 179.609 23.2402 179.484V152.221C23.2402 152.096 23.3414 151.995 23.4662 151.995Z" fill="#2A3A51"/>
<path d="M136.78 45.9253H40.0566V115.982H136.78V45.9253Z" fill="#F4F5F6"/>
<path fill-rule="evenodd" clip-rule="evenodd" d="M39.6055 45.4731H137.233V116.434H39.6055V45.4731ZM40.5094 46.3771V115.53H136.329V46.3771H40.5094Z" fill="#959DA8"/>
<path d="M88.3692 0.601074L36.0664 46.4316L140.17 46.6033" fill="#F4F5F6"/>
<path d="M134.788 46.4991H42.4082L47.3483 42.0923H129.31L134.788 46.4991Z" fill="#F4F5F6"/>
<path fill-rule="evenodd" clip-rule="evenodd" d="M47.2612 41.8662H129.389L135.428 46.725H41.8145L47.2612 41.8662ZM47.4335 42.3182L43.0001 46.273H134.145L129.229 42.3182H47.4335Z" fill="#959DA8"/>
<path fill-rule="evenodd" clip-rule="evenodd" d="M88.3697 0L141.856 46.8835H134.272V45.9795H139.453L88.3696 1.20198L37.2685 45.9795H42.4488V46.8835H34.8652L88.3697 0Z" fill="#959DA8"/>
<path fill-rule="evenodd" clip-rule="evenodd" d="M88.3607 6.3042L91.6771 9.18061L91.8126 9.29813L93.6896 10.927L93.693 10.9299L93.7167 10.9496L93.7201 10.9524L97.711 14.4146L98.9268 15.4722L100.319 16.6789L103.758 19.662L104.138 19.9919L106.647 22.1659L109.301 24.4727L109.346 24.5088L113.169 27.8247L114.561 29.0314L115.234 29.6144L119.053 32.9276L119.767 33.5513L119.768 33.5518L122.014 35.4993L124.459 37.619L124.459 37.6195L124.884 37.9896L124.884 37.9901L126.533 39.4178L129.53 42.0168L134.421 46.2609L134.124 46.6023L129.234 42.3583L126.238 39.7595L124.588 38.3313L124.587 38.3307L124.163 37.9606L124.162 37.9601L121.718 35.8408L119.471 33.8927L119.471 33.8922L118.757 33.2685L114.938 29.9561L114.265 29.3731L112.873 28.1662L109.057 24.8561L109.011 24.8199L106.351 22.5075L103.842 20.3335L103.462 20.0034L100.023 17.0204L98.6307 15.8137L97.4149 14.756L93.4272 11.2967L93.4239 11.2938L93.4001 11.2741L93.3967 11.2713L91.5166 9.63964L91.381 9.52212L88.3607 6.90253L87.2116 7.89948L83.7182 10.9275L83.2978 11.2936L80.0524 14.1096L77.72 16.1345L73.7652 19.565L72.8794 20.3334L70.4884 22.4079L67.6681 24.8531L63.9348 28.0938L62.4567 29.373L60.997 30.6384L57.2501 33.8926L54.2489 36.4961L52.5586 37.9604L49.7003 40.4421L49.6956 40.4453L47.3563 42.4757L42.5969 46.6023L42.3008 46.2609L47.06 42.1344L49.3098 40.1816V40.1593L49.4256 40.0821L52.2622 37.6192L53.9527 36.1547L56.9537 33.5514L60.7006 30.2971L62.1607 29.0315L63.6385 27.7525L67.3719 24.5118L70.1922 22.0666L72.5832 19.992L77.4239 15.7931L79.756 13.7683L83.001 10.9527L83.4217 10.5863L86.9154 7.55809L88.3607 6.3042Z" fill="#959DA8"/>
<path d="M107.868 130.585H68.9707V165.175H107.868V130.585Z" fill="white"/>
<path fill-rule="evenodd" clip-rule="evenodd" d="M68.7441 130.359H108.093V165.401H68.7441V130.359ZM69.1961 130.811V164.949H107.641V130.811H69.1961Z" fill="#959DA8"/>
<path fill-rule="evenodd" clip-rule="evenodd" d="M88.1973 165.225V130.581H88.6492V165.225H88.1973Z" fill="#959DA8"/>
<path fill-rule="evenodd" clip-rule="evenodd" d="M107.719 147.114H68.9707V146.662H107.719V147.114Z" fill="#959DA8"/>
<path d="M164.727 130.463H145.359V172.538H164.727V130.463Z" fill="#D3DCE5"/>
<path d="M161.983 133.134H148.094V153.17H161.983V133.134Z" fill="white"/>
<path fill-rule="evenodd" clip-rule="evenodd" d="M147.867 132.909H162.208V153.397H147.867V132.909ZM148.319 133.361V152.945H161.756V133.361H148.319Z" fill="#959DA8"/>
<path d="M138.945 117.112H135.379V171.349H138.945V117.112Z" fill="#F4F5F6"/>
<path fill-rule="evenodd" clip-rule="evenodd" d="M134.928 116.66H139.398V171.801H134.928V116.66ZM135.832 117.564V170.897H138.494V117.564H135.832Z" fill="#959DA8"/>
<path d="M43.126 117.112H39.5645V179.485H43.1306L43.126 117.112Z" fill="#F4F5F6"/>
<path fill-rule="evenodd" clip-rule="evenodd" d="M39.1133 116.66H43.5788L43.5834 179.936H39.1133V116.66ZM40.0172 117.564V179.033H42.6794L42.6749 117.564H40.0172Z" fill="#959DA8"/>
<path d="M174.068 171.177H135.334V175.593H174.068V171.177Z" fill="#F4F5F6"/>
<path fill-rule="evenodd" clip-rule="evenodd" d="M134.883 170.726H174.521V176.045H134.883V170.726ZM135.787 171.63V175.141H173.617V171.63H135.787Z" fill="#959DA8"/>
<path d="M174.068 175.584H135.334V179.548H174.068V175.584Z" fill="#F4F5F6"/>
<path fill-rule="evenodd" clip-rule="evenodd" d="M134.883 175.132H174.521V180H134.883V175.132ZM135.787 176.036V179.096H173.617V176.036H135.787Z" fill="#959DA8"/>
<path d="M148.984 156.66C149.483 156.66 149.888 156.255 149.888 155.756C149.888 155.257 149.483 154.852 148.984 154.852C148.485 154.852 148.08 155.257 148.08 155.756C148.08 156.255 148.485 156.66 148.984 156.66Z" fill="#F4F5F6"/>
<path fill-rule="evenodd" clip-rule="evenodd" d="M148.985 155.078C148.611 155.078 148.307 155.381 148.307 155.756C148.307 156.13 148.611 156.434 148.985 156.434C149.36 156.434 149.663 156.13 149.663 155.756C149.663 155.381 149.36 155.078 148.985 155.078ZM147.855 155.756C147.855 155.132 148.361 154.626 148.985 154.626C149.609 154.626 150.115 155.132 150.115 155.756C150.115 156.38 149.609 156.886 148.985 156.886C148.361 156.886 147.855 156.38 147.855 155.756Z" fill="#959DA8"/>
<path d="M160.754 60.1626H146.955V84.1174H160.749L160.754 60.1626Z" fill="white"/>
<path fill-rule="evenodd" clip-rule="evenodd" d="M146.729 59.9365H160.979L160.975 84.3433H146.729V59.9365ZM147.18 60.3885V83.8913H160.523L160.527 60.3885H147.18Z" fill="#959DA8"/>
<path fill-rule="evenodd" clip-rule="evenodd" d="M160.754 70.4813H146.955V70.0293H160.754V70.4813Z" fill="#959DA8"/>
<path d="M132.022 143.855L125.852 140.375L119.746 143.977L119.918 143.973L121.342 154.454L130.53 154.337L131.818 143.855H132.022Z" fill="#D3DCE5"/>
<path d="M130.228 145.586H121.641V147.394H130.228V145.586Z" fill="#F4F5F6"/>
<path fill-rule="evenodd" clip-rule="evenodd" d="M121.414 145.36H130.454V147.62H121.414V145.36ZM121.866 145.812V147.168H130.002V145.812H121.866Z" fill="#959DA8"/>
<path d="M68.9755 88.9624H60.4512V93.2788H68.9755V88.9624Z" fill="#F4F5F6"/>
<path fill-rule="evenodd" clip-rule="evenodd" d="M60.2246 88.7363H69.2009V93.5047H60.2246V88.7363ZM60.6766 89.1883V93.0527H68.7489V89.1883H60.6766Z" fill="#959DA8"/>
<path d="M68.9755 84.4429H60.4512V88.8587H68.9755V84.4429Z" fill="#F4F5F6"/>
<path fill-rule="evenodd" clip-rule="evenodd" d="M60.2246 84.2168H69.2009V89.0846H60.2246V84.2168ZM60.6766 84.6688V88.6326H68.7489V84.6688H60.6766Z" fill="#959DA8"/>
<path d="M68.9755 79.9229H60.4512V84.3387H68.9755V79.9229Z" fill="#F4F5F6"/>
<path fill-rule="evenodd" clip-rule="evenodd" d="M60.2246 79.6968H69.2009V84.5646H60.2246V79.6968ZM60.6766 80.1488V84.1126H68.7489V80.1488H60.6766Z" fill="#959DA8"/>
<path d="M68.9755 79.8191H60.4512V75.4033H68.971V76.3796L68.9755 79.8191Z" fill="#F4F5F6"/>
<path fill-rule="evenodd" clip-rule="evenodd" d="M60.2246 75.1772H69.1964V76.3792L69.2012 80.0451H60.2246V75.1772ZM60.6766 75.6292V79.5931H68.7486L68.7444 76.3798V75.6292H60.6766Z" fill="#959DA8"/>
<path d="M68.971 70.8833H60.4512V75.2991H68.971V70.8833Z" fill="#F4F5F6"/>
<path fill-rule="evenodd" clip-rule="evenodd" d="M60.2246 70.6572H69.1964V75.525H60.2246V70.6572ZM60.6766 71.1092V75.0731H68.7444V71.1092H60.6766Z" fill="#959DA8"/>
<path d="M68.971 66.3638H60.4512V70.7796H68.971V66.3638Z" fill="#F4F5F6"/>
<path fill-rule="evenodd" clip-rule="evenodd" d="M60.2246 66.1377H69.1964V71.0055H60.2246V66.1377ZM60.6766 66.5897V70.5535H68.7444V66.5897H60.6766Z" fill="#959DA8"/>
<path d="M68.971 61.8438H60.4512V66.2596H68.971V61.8438Z" fill="#F4F5F6"/>
<path fill-rule="evenodd" clip-rule="evenodd" d="M60.2246 61.6177H69.1964V66.4855H60.2246V61.6177ZM60.6766 62.0697V66.0335H68.7444V62.0697H60.6766Z" fill="#959DA8"/>
<path d="M116.432 88.9624H107.908V93.2788H116.432V88.9624Z" fill="#F4F5F6"/>
<path fill-rule="evenodd" clip-rule="evenodd" d="M107.682 88.7363H116.658V93.5047H107.682V88.7363ZM108.134 89.1883V93.0527H116.206V89.1883H108.134Z" fill="#959DA8"/>
<path d="M116.432 84.4429H107.908V88.8587H116.432V84.4429Z" fill="#F4F5F6"/>
<path fill-rule="evenodd" clip-rule="evenodd" d="M107.682 84.2168H116.658V89.0846H107.682V84.2168ZM108.134 84.6688V88.6326H116.206V84.6688H108.134Z" fill="#959DA8"/>
<path d="M116.432 79.9229H107.908V84.3387H116.432V79.9229Z" fill="#F4F5F6"/>
<path fill-rule="evenodd" clip-rule="evenodd" d="M107.682 79.6968H116.658V84.5646H107.682V79.6968ZM108.134 80.1488V84.1126H116.206V80.1488H108.134Z" fill="#959DA8"/>
<path d="M116.432 79.8191H107.908V75.4033H116.428V76.3796L116.432 79.8191Z" fill="#F4F5F6"/>
<path fill-rule="evenodd" clip-rule="evenodd" d="M107.682 75.1772H116.653V76.3792L116.658 80.0451H107.682V75.1772ZM108.134 75.6292V79.5931H116.206L116.201 76.3798V75.6292H108.134Z" fill="#959DA8"/>
<path d="M116.428 70.8833H107.908V75.2991H116.428V70.8833Z" fill="#F4F5F6"/>
<path fill-rule="evenodd" clip-rule="evenodd" d="M107.682 70.6572H116.653V75.525H107.682V70.6572ZM108.134 71.1092V75.0731H116.201V71.1092H108.134Z" fill="#959DA8"/>
<path d="M116.428 66.3638H107.908V70.7796H116.428V66.3638Z" fill="#F4F5F6"/>
<path fill-rule="evenodd" clip-rule="evenodd" d="M107.682 66.1377H116.653V71.0055H107.682V66.1377ZM108.134 66.5897V70.5535H116.201V66.5897H108.134Z" fill="#959DA8"/>
<path d="M116.428 61.8438H107.908V66.2596H116.428V61.8438Z" fill="#F4F5F6"/>
<path fill-rule="evenodd" clip-rule="evenodd" d="M107.682 61.6177H116.653V66.4855H107.682V61.6177ZM108.134 62.0697V66.0335H116.201V62.0697H108.134Z" fill="#959DA8"/>
<path fill-rule="evenodd" clip-rule="evenodd" d="M60.4297 61.7104H69.3065V93.5568H60.4297V61.7104ZM60.8139 62.0946V93.1726H68.9224V62.0946H60.8139Z" fill="#959DA8"/>
<path d="M116.432 159.923H107.908V164.239H116.432V159.923Z" fill="#F4F5F6"/>
<path fill-rule="evenodd" clip-rule="evenodd" d="M107.682 159.697H116.658V164.465H107.682V159.697ZM108.134 160.149V164.013H116.206V160.149H108.134Z" fill="#959DA8"/>
<path d="M116.432 155.403H107.908V159.819H116.432V155.403Z" fill="#F4F5F6"/>
<path fill-rule="evenodd" clip-rule="evenodd" d="M107.682 155.177H116.658V160.045H107.682V155.177ZM108.134 155.629V159.593H116.206V155.629H108.134Z" fill="#959DA8"/>
<path d="M116.432 150.883H107.908V155.299H116.432V150.883Z" fill="#F4F5F6"/>
<path fill-rule="evenodd" clip-rule="evenodd" d="M107.682 150.657H116.658V155.525H107.682V150.657ZM108.134 151.109V155.073H116.206V151.109H108.134Z" fill="#959DA8"/>
<path d="M116.432 150.78H107.908V146.364H116.428V147.34L116.432 150.78Z" fill="#F4F5F6"/>
<path fill-rule="evenodd" clip-rule="evenodd" d="M107.682 146.138H116.653V147.34L116.658 151.005H107.682V146.138ZM108.134 146.59V150.554H116.206L116.201 147.34V146.59H108.134Z" fill="#959DA8"/>
<path d="M116.428 141.844H107.908V146.26H116.428V141.844Z" fill="#F4F5F6"/>
<path fill-rule="evenodd" clip-rule="evenodd" d="M107.682 141.618H116.653V146.485H107.682V141.618ZM108.134 142.07V146.034H116.201V142.07H108.134Z" fill="#959DA8"/>
<path d="M116.428 137.324H107.908V141.74H116.428V137.324Z" fill="#F4F5F6"/>
<path fill-rule="evenodd" clip-rule="evenodd" d="M107.682 137.098H116.653V141.966H107.682V137.098ZM108.134 137.55V141.514H116.201V137.55H108.134Z" fill="#959DA8"/>
<path d="M116.428 132.804H107.908V137.22H116.428V132.804Z" fill="#F4F5F6"/>
<path fill-rule="evenodd" clip-rule="evenodd" d="M107.682 132.578H116.653V137.446H107.682V132.578ZM108.134 133.03V136.994H116.201V133.03H108.134Z" fill="#959DA8"/>
<path fill-rule="evenodd" clip-rule="evenodd" d="M60.4297 132.671H69.3065V164.517H60.4297V132.671ZM60.8139 133.055V164.133H68.9224V133.055H60.8139Z" fill="#959DA8"/>
<path d="M107.868 60.0767H68.9707V94.6665H107.868V60.0767Z" fill="white"/>
<path fill-rule="evenodd" clip-rule="evenodd" d="M68.7441 59.8506H108.093V94.8924H68.7441V59.8506ZM69.1961 60.3026V94.4404H107.641V60.3026H69.1961Z" fill="#959DA8"/>
<path fill-rule="evenodd" clip-rule="evenodd" d="M88.1973 94.7163V60.0723H88.6492V94.7163H88.1973Z" fill="#959DA8"/>
<path fill-rule="evenodd" clip-rule="evenodd" d="M107.719 76.6053H68.9707V76.1533H107.719V76.6053Z" fill="#959DA8"/>
<path d="M78.7012 177.812C78.6971 176.806 78.9353 175.814 79.3957 174.92C79.8561 174.025 80.5251 173.255 81.3462 172.674C82.1673 172.092 83.1163 171.718 84.1129 171.581C85.1095 171.444 86.1245 171.549 87.0719 171.887C87.438 170.413 88.1796 169.058 89.2245 167.955C90.2694 166.853 91.582 166.039 93.0345 165.594C94.487 165.149 96.03 165.088 97.5133 165.416C98.9966 165.744 100.37 166.45 101.499 167.467C102.297 165.236 103.856 163.359 105.902 162.165C107.948 160.971 110.349 160.537 112.684 160.94C115.018 161.343 117.135 162.557 118.663 164.367C120.19 166.178 121.03 168.47 121.033 170.838C121.035 171.189 121.017 171.539 120.979 171.887C121.66 171.638 122.379 171.511 123.103 171.512C126.584 171.512 129.612 174.337 129.39 177.799C129.359 178.37 129.263 178.935 129.106 179.485H78.9363C78.7847 178.936 78.7087 178.368 78.7103 177.799L78.7012 177.812Z" fill="#80C33F"/>
<path d="M93.5046 11.0237H83.3125L88.4153 6.60791H88.4244L93.5046 11.0237Z" fill="#F4F5F6"/>
<path fill-rule="evenodd" clip-rule="evenodd" d="M88.3302 6.38184H88.508L94.1082 11.2496H82.7051L88.3302 6.38184ZM88.4186 6.90304L83.9181 10.7976H92.8992L88.4186 6.90304Z" fill="#959DA8"/>
<path d="M98.7071 15.5432H78.0879L83.1907 11.1274H93.6269L98.7071 15.5432Z" fill="#F4F5F6"/>
<path fill-rule="evenodd" clip-rule="evenodd" d="M83.1056 10.9014H93.7105L99.3107 15.7691H77.4805L83.1056 10.9014ZM83.274 11.3533L78.6935 15.3172H98.1017L93.5415 11.3533H83.274Z" fill="#959DA8"/>
<path d="M103.904 20.0633H72.8672L77.97 15.6475H98.8243L103.904 20.0633Z" fill="#F4F5F6"/>
<path fill-rule="evenodd" clip-rule="evenodd" d="M77.8849 15.4214H98.9078L104.508 20.2892H72.2598L77.8849 15.4214ZM78.0533 15.8734L73.4728 19.8372H103.299L98.7389 15.8734H78.0533Z" fill="#959DA8"/>
<path d="M172.596 46.1515H549.093L542.765 1.40576H172.596V46.1515Z" fill="#D3DCE5"/>
<path d="M172.143 179.485L544.572 179.485V46.1516L172.143 46.1516V179.485Z" fill="#F4F5F6"/>
<path fill-rule="evenodd" clip-rule="evenodd" d="M545.025 179.937L171.692 179.937V45.6993L545.025 45.6993V179.937ZM544.121 179.033V46.6032L172.596 46.6032V179.033L544.121 179.033Z" fill="#959DA8"/>
<path d="M448.527 115.982L545.25 115.982V45.9255L448.527 45.9255V115.982Z" fill="#F4F5F6"/>
<path fill-rule="evenodd" clip-rule="evenodd" d="M545.703 116.434L448.076 116.434V45.4732L545.703 45.4732V116.434ZM544.799 115.53V46.3771L448.98 46.3771V115.53L544.799 115.53Z" fill="#959DA8"/>
<path d="M496.938 0.601074L549.241 46.4316L445.137 46.6033" fill="#F4F5F6"/>
<path d="M316.777 116.208L413.5 116.208V46.1515L316.777 46.1515V116.208Z" fill="#F4F5F6"/>
<path fill-rule="evenodd" clip-rule="evenodd" d="M413.951 116.66L316.324 116.66V45.6992L413.951 45.6992V116.66ZM413.047 115.756V46.6032L317.228 46.6032V115.756L413.047 115.756Z" fill="#959DA8"/>
<path d="M450.525 46.4991H542.905L537.96 42.0923H455.999L450.525 46.4991Z" fill="#F4F5F6"/>
<path fill-rule="evenodd" clip-rule="evenodd" d="M455.92 41.8662H538.047L543.499 46.725H449.885L455.92 41.8662ZM456.079 42.3182L451.167 46.273H542.312L537.875 42.3182H456.079Z" fill="#959DA8"/>
<path fill-rule="evenodd" clip-rule="evenodd" d="M496.939 0L550.444 46.8835H542.86V45.9795H548.04L496.939 1.20198L445.856 45.9795H451.036V46.8835H443.453L496.939 0Z" fill="#959DA8"/>
<path fill-rule="evenodd" clip-rule="evenodd" d="M496.949 6.3042L498.394 7.55802L501.888 10.5863L501.888 10.5866L502.308 10.9524L505.553 13.7683L507.885 15.7929L512.726 19.992L515.117 22.0665L517.937 24.5117L521.671 27.7522L523.149 29.0314L524.609 30.297L528.355 33.5513L531.357 36.1546L533.047 37.619L535.884 40.0821L536 40.1593V40.1816L538.249 42.1343L543.009 46.2609L542.712 46.6024L537.953 42.4758L535.614 40.4454L535.609 40.4422L532.751 37.9606L531.061 36.4962L528.059 33.8927L524.313 30.6385L522.853 29.3731L521.375 28.094L517.641 24.8532L514.821 22.408L511.544 19.565L507.589 16.1347L505.257 14.1096L502.012 11.2938L501.592 10.9278L501.591 10.9274L498.098 7.89955L496.949 6.90253L493.928 9.52209L493.793 9.63957L491.909 11.2741L491.885 11.2938L491.882 11.2967L487.895 14.7558L486.679 15.8134L485.287 17.0204L481.847 20.0033L481.468 20.3333L478.959 22.5073L476.298 24.8199L476.253 24.8561L471.045 29.373L470.371 29.956L466.552 33.269L465.839 33.8922L463.592 35.8408L461.147 37.9601L460.721 38.3313L459.072 39.7594L456.075 42.3582L451.185 46.6023L450.889 46.2609L455.779 42.0169L458.776 39.4179L460.425 37.9901L460.85 37.619L463.296 35.4993L465.542 33.5513L466.255 32.9281L470.075 29.6146L470.749 29.0315L475.963 24.5088L476.008 24.4727L478.663 22.1661L481.171 19.9921L481.551 19.6621L484.99 16.679L486.382 15.4724L487.598 14.4148L491.593 10.9496L491.616 10.9299L491.62 10.927L493.497 9.2982L493.632 9.18065L496.949 6.3042Z" fill="#959DA8"/>
<path d="M364.686 0.772461L416.989 46.603H312.709" fill="#F4F5F6"/>
<path d="M318.547 46.4991H410.927L405.982 42.0923H324.02L318.547 46.4991Z" fill="#F4F5F6"/>
<path fill-rule="evenodd" clip-rule="evenodd" d="M323.941 41.8662H406.068L411.52 46.725H317.906L323.941 41.8662ZM324.1 42.3182L319.188 46.273H410.334L405.896 42.3182H324.1Z" fill="#959DA8"/>
<path fill-rule="evenodd" clip-rule="evenodd" d="M364.963 0L418.467 46.8835H410.884V45.9795H416.064L364.963 1.20198L313.879 45.9795H319.06V46.8835H311.477L364.963 0Z" fill="#959DA8"/>
<path fill-rule="evenodd" clip-rule="evenodd" d="M364.97 6.3042L366.415 7.55802L369.909 10.5863L369.91 10.5866L370.33 10.9524L373.575 13.7683L375.907 15.7929L380.748 19.992L383.139 22.0665L385.959 24.5117L389.692 27.7522L391.17 29.0314L392.63 30.297L396.377 33.5513L399.378 36.1546L401.068 37.619L403.905 40.0821L404.021 40.1593V40.1816L406.271 42.1343L411.03 46.2609L410.734 46.6024L405.975 42.4758L403.635 40.4454L403.631 40.4422L400.772 37.9606L399.082 36.4962L396.081 33.8927L392.334 30.6385L390.874 29.3731L389.396 28.094L385.663 24.8532L382.842 22.408L379.566 19.565L375.611 16.1347L373.279 14.1096L370.033 11.2938L369.613 10.9278L369.613 10.9274L366.119 7.89955L364.97 6.90253L361.95 9.52209L361.814 9.63957L359.931 11.2741L359.907 11.2938L359.904 11.2967L355.916 14.7558L354.7 15.8134L353.308 17.0204L349.869 20.0033L349.489 20.3333L346.981 22.5073L344.319 24.8199L344.274 24.8561L339.066 29.373L338.393 29.956L334.574 33.269L333.86 33.8922L331.613 35.8408L329.168 37.9601L328.743 38.3313L327.093 39.7594L324.097 42.3582L319.206 46.6023L318.91 46.2609L323.801 42.0169L326.797 39.4179L328.446 37.9901L328.872 37.619L331.317 35.4993L333.563 33.5513L334.277 32.9281L338.097 29.6146L338.77 29.0315L343.985 24.5088L344.03 24.4727L346.684 22.1661L349.193 19.9921L349.572 19.6621L353.012 16.679L354.404 15.4724L355.62 14.4148L359.614 10.9496L359.638 10.9299L359.641 10.927L361.518 9.2982L361.654 9.18065L364.97 6.3042Z" fill="#959DA8"/>
<path d="M477.441 130.585H516.339V165.175H477.441V130.585Z" fill="white"/>
<path fill-rule="evenodd" clip-rule="evenodd" d="M477.215 130.359H516.564V165.401H477.215V130.359ZM477.667 130.811V164.949H516.112V130.811H477.667Z" fill="#959DA8"/>
<path fill-rule="evenodd" clip-rule="evenodd" d="M496.662 165.225V130.581H497.114V165.225H496.662Z" fill="#959DA8"/>
<path fill-rule="evenodd" clip-rule="evenodd" d="M477.59 146.662H516.338V147.114H477.59V146.662Z" fill="#959DA8"/>
<path d="M345.463 60.0767H384.36V94.6665H345.463V60.0767Z" fill="white"/>
<path fill-rule="evenodd" clip-rule="evenodd" d="M345.238 59.8506H384.587V94.8924H345.238V59.8506ZM345.69 60.3026V94.4404H384.135V60.3026H345.69Z" fill="#959DA8"/>
<path fill-rule="evenodd" clip-rule="evenodd" d="M364.686 94.7163V60.0723H365.138V94.7163H364.686Z" fill="#959DA8"/>
<path fill-rule="evenodd" clip-rule="evenodd" d="M345.613 76.1533H384.361V76.6053H345.613V76.1533Z" fill="#959DA8"/>
<path d="M172.144 116.208L268.867 116.208V46.1515L172.144 46.1515V116.208Z" fill="#F4F5F6"/>
<path fill-rule="evenodd" clip-rule="evenodd" d="M269.318 116.66L171.691 116.66V45.6992L269.318 45.6992V116.66ZM268.414 115.756V46.6032L172.595 46.6032V115.756L268.414 115.756Z" fill="#959DA8"/>
<path d="M220.052 0.772461L272.355 46.603H168.979" fill="#F4F5F6"/>
<path d="M173.914 46.4991H266.294L261.349 42.0923H179.388L173.914 46.4991Z" fill="#F4F5F6"/>
<path fill-rule="evenodd" clip-rule="evenodd" d="M179.308 41.8662H261.436L266.887 46.725H173.273L179.308 41.8662ZM179.468 42.3182L174.556 46.273H265.701L261.263 42.3182H179.468Z" fill="#959DA8"/>
<path fill-rule="evenodd" clip-rule="evenodd" d="M220.33 0L273.834 46.8835H266.251V45.9795H271.431L220.33 1.20198L169.246 45.9795H174.427V46.8835H166.844L220.33 0Z" fill="#959DA8"/>
<path fill-rule="evenodd" clip-rule="evenodd" d="M220.337 6.3042L221.783 7.55802L225.276 10.5863L225.277 10.5866L225.697 10.9524L228.942 13.7683L231.274 15.7929L236.115 19.992L238.506 22.0665L241.326 24.5117L245.059 27.7522L246.537 29.0314L247.997 30.297L251.744 33.5513L254.745 36.1546L256.436 37.619L259.272 40.0821L259.388 40.1593V40.1816L261.638 42.1343L266.397 46.2609L266.101 46.6024L261.342 42.4758L259.003 40.4454L258.998 40.4422L256.14 37.9606L254.449 36.4962L251.448 33.8927L247.701 30.6385L246.241 29.3731L244.763 28.094L241.03 24.8532L238.21 22.408L234.933 19.565L230.978 16.1347L228.646 14.1096L225.401 11.2938L224.98 10.9278L224.98 10.9274L221.487 7.89955L220.337 6.90253L217.317 9.52209L217.181 9.63957L215.298 11.2741L215.274 11.2938L215.271 11.2967L211.283 14.7558L210.068 15.8134L208.675 17.0204L205.236 20.0033L204.856 20.3333L202.348 22.5073L199.687 24.8199L199.641 24.8561L194.433 29.373L193.76 29.956L189.941 33.269L189.227 33.8922L186.98 35.8408L184.536 37.9601L184.11 38.3313L182.461 39.7594L179.464 42.3582L174.574 46.6023L174.277 46.2609L179.168 42.0169L182.164 39.4179L183.814 37.9901L184.239 37.619L186.684 35.4993L188.931 33.5513L189.644 32.9281L193.464 29.6146L194.137 29.0315L199.352 24.5088L199.397 24.4727L202.051 22.1661L204.56 19.9921L204.939 19.6621L208.379 16.679L209.771 15.4724L210.987 14.4148L214.981 10.9496L215.005 10.9299L215.008 10.927L216.885 9.2982L217.021 9.18065L220.337 6.3042Z" fill="#959DA8"/>
<path d="M200.83 60.0767H239.727V94.6665H200.83V60.0767Z" fill="white"/>
<path fill-rule="evenodd" clip-rule="evenodd" d="M200.605 59.8506H239.955V94.8924H200.605V59.8506ZM201.057 60.3026V94.4404H239.503V60.3026H201.057Z" fill="#959DA8"/>
<path fill-rule="evenodd" clip-rule="evenodd" d="M220.053 94.7163V60.0723H220.505V94.7163H220.053Z" fill="#959DA8"/>
<path fill-rule="evenodd" clip-rule="evenodd" d="M200.98 76.1533H239.729V76.6053H200.98V76.1533Z" fill="#959DA8"/>
<path d="M420.586 130.463H439.953V172.538H420.586V130.463Z" fill="#D3DCE5"/>
<path d="M423.329 153.171H437.219V133.135H423.329V153.171Z" fill="white"/>
<path fill-rule="evenodd" clip-rule="evenodd" d="M437.445 153.396H423.104V132.908H437.445V153.396ZM436.993 152.945V133.36H423.556V152.945H436.993Z" fill="#959DA8"/>
<path d="M446.363 117.112H449.929V171.349H446.363V117.112Z" fill="#F4F5F6"/>
<path fill-rule="evenodd" clip-rule="evenodd" d="M445.91 116.66H450.38V171.801H445.91V116.66ZM446.814 117.564V170.897H449.476V117.564H446.814Z" fill="#959DA8"/>
<path d="M542.182 117.112H545.748V179.485H542.182V117.112Z" fill="#F4F5F6"/>
<path fill-rule="evenodd" clip-rule="evenodd" d="M541.73 116.66H546.2V179.936H541.73V116.66ZM542.634 117.564V179.033H545.297V117.564H542.634Z" fill="#959DA8"/>
<path d="M411.24 171.177H449.975V175.593H411.24V171.177Z" fill="#F4F5F6"/>
<path fill-rule="evenodd" clip-rule="evenodd" d="M410.787 170.726H450.425V176.045H410.787V170.726ZM411.691 171.63V175.141H449.522V171.63H411.691Z" fill="#959DA8"/>
<path d="M460.838 152.366V179.648H457.914V152.366H460.838Z" fill="#F4F5F6"/>
<path fill-rule="evenodd" clip-rule="evenodd" d="M457.689 152.14H461.066V179.873H457.689V152.14ZM458.141 152.592V179.421H460.614V152.592H458.141Z" fill="#959DA8"/>
<path d="M411.24 175.584H449.975V179.548H411.24V175.584Z" fill="#F4F5F6"/>
<path fill-rule="evenodd" clip-rule="evenodd" d="M410.787 175.132H450.425V180H410.787V175.132ZM411.691 176.036V179.096H449.522V176.036H411.691Z" fill="#959DA8"/>
<path d="M436.324 156.66C436.823 156.66 437.228 156.255 437.228 155.756C437.228 155.257 436.823 154.852 436.324 154.852C435.825 154.852 435.42 155.257 435.42 155.756C435.42 156.255 435.825 156.66 436.324 156.66Z" fill="#F4F5F6"/>
<path fill-rule="evenodd" clip-rule="evenodd" d="M436.323 155.078C435.949 155.078 435.645 155.381 435.645 155.756C435.645 156.13 435.949 156.434 436.323 156.434C436.698 156.434 437.001 156.13 437.001 155.756C437.001 155.381 436.698 155.078 436.323 155.078ZM435.193 155.756C435.193 155.132 435.699 154.626 436.323 154.626C436.947 154.626 437.453 155.132 437.453 155.756C437.453 156.38 436.947 156.886 436.323 156.886C435.699 156.886 435.193 156.38 435.193 155.756Z" fill="#959DA8"/>
<path d="M171.81 179.485L413.5 179.485V117.112L171.81 117.112V179.485Z" fill="#F4F5F6"/>
<path fill-rule="evenodd" clip-rule="evenodd" d="M413.951 179.937L171.357 179.937V116.66L413.951 116.66V179.937ZM413.047 179.033V117.564L172.261 117.564V179.033L413.047 179.033Z" fill="#959DA8"/>
<path d="M410.336 109.88V103.779L431.127 89.0894L452.248 104.231L452.37 110.332L431.244 109.88H410.336Z" fill="#F4F5F6"/>
<path fill-rule="evenodd" clip-rule="evenodd" d="M431.128 88.5347L452.699 103.999V110.784H451.795V104.463L431.124 89.6442L410.787 104.013V110.332H409.883V103.545L431.128 88.5347Z" fill="#959DA8"/>
<path fill-rule="evenodd" clip-rule="evenodd" d="M431.127 95.1396L452.379 110.375L452.116 110.742L431.125 95.6944L410.466 110.291L410.205 109.922L431.127 95.1396Z" fill="#959DA8"/>
<path d="M296.437 179.485H406.268V130.671H296.437V179.485Z" fill="#F4F5F6"/>
<path fill-rule="evenodd" clip-rule="evenodd" d="M406.494 179.71H296.212V130.445H406.494V179.71ZM406.042 179.258V130.897H296.664V179.258H406.042Z" fill="#959DA8"/>
<path d="M354.145 138.974C354.145 138.974 360.712 132.705 378.068 132.935C395.424 133.166 401.991 138.969 401.991 138.969V179.765H354.149L354.145 138.974Z" fill="#D3DCE5"/>
<path d="M301.264 138.974C301.264 138.974 307.831 132.705 325.187 132.935C342.543 133.166 349.11 138.969 349.11 138.969V179.765H301.268L301.264 138.974Z" fill="#D3DCE5"/>
<path fill-rule="evenodd" clip-rule="evenodd" d="M377.793 180V132.027H378.697V180H377.793Z" fill="#F4F5F6"/>
<path fill-rule="evenodd" clip-rule="evenodd" d="M402.231 156.465H353.807V155.562H402.231V156.465Z" fill="#F4F5F6"/>
<path fill-rule="evenodd" clip-rule="evenodd" d="M324.912 180V132.027H325.816V180H324.912Z" fill="#F4F5F6"/>
<path fill-rule="evenodd" clip-rule="evenodd" d="M349.351 156.465H300.926V155.562H349.351V156.465Z" fill="#F4F5F6"/>
<path d="M379.827 166.604H381.635V157.112H379.827V166.604Z" fill="#F4F5F6"/>
<path fill-rule="evenodd" clip-rule="evenodd" d="M381.861 166.829H379.601V156.886H381.861V166.829ZM381.409 166.377V157.338H380.053V166.377H381.409Z" fill="#959DA8"/>
<path d="M374.854 166.604H376.662V157.112H374.854V166.604Z" fill="#F4F5F6"/>
<path fill-rule="evenodd" clip-rule="evenodd" d="M376.889 166.829H374.629V156.886H376.889V166.829ZM376.437 166.377V157.338H375.081V166.377H376.437Z" fill="#959DA8"/>
<path d="M326.946 166.604H328.754V157.112H326.946V166.604Z" fill="#F4F5F6"/>
<path fill-rule="evenodd" clip-rule="evenodd" d="M328.979 166.829H326.719V156.886H328.979V166.829ZM328.527 166.377V157.338H327.171V166.377H328.527Z" fill="#959DA8"/>
<path d="M321.973 166.604H323.781V157.112H321.973V166.604Z" fill="#F4F5F6"/>
<path fill-rule="evenodd" clip-rule="evenodd" d="M324.008 166.829H321.748V156.886H324.008V166.829ZM323.556 166.377V157.338H322.2V166.377H323.556Z" fill="#959DA8"/>
<path d="M177.115 179.485H286.945V130.671H177.115V179.485Z" fill="#F4F5F6"/>
<path fill-rule="evenodd" clip-rule="evenodd" d="M287.172 179.71H176.889V130.445H287.172V179.71ZM286.72 179.258V130.897H177.341V179.258H286.72Z" fill="#959DA8"/>
<path d="M234.824 138.974C234.824 138.974 241.391 132.705 258.747 132.935C276.103 133.166 282.671 138.969 282.671 138.969V179.765H234.829L234.824 138.974Z" fill="#D3DCE5"/>
<path d="M181.941 138.974C181.941 138.974 188.509 132.705 205.865 132.935C223.221 133.166 229.788 138.969 229.788 138.969V179.765H181.946L181.941 138.974Z" fill="#D3DCE5"/>
<path fill-rule="evenodd" clip-rule="evenodd" d="M258.471 180V132.027H259.375V180H258.471Z" fill="#F4F5F6"/>
<path fill-rule="evenodd" clip-rule="evenodd" d="M282.909 156.465H234.484V155.562H282.909V156.465Z" fill="#F4F5F6"/>
<path fill-rule="evenodd" clip-rule="evenodd" d="M205.59 180V132.027H206.494V180H205.59Z" fill="#F4F5F6"/>
<path fill-rule="evenodd" clip-rule="evenodd" d="M230.028 156.465H181.604V155.562H230.028V156.465Z" fill="#F4F5F6"/>
<path d="M260.505 166.604H262.312V157.112H260.505V166.604Z" fill="#F4F5F6"/>
<path fill-rule="evenodd" clip-rule="evenodd" d="M262.539 166.829H260.279V156.886H262.539V166.829ZM262.087 166.377V157.338H260.731V166.377H262.087Z" fill="#959DA8"/>
<path d="M255.534 166.604H257.342V157.112H255.534V166.604Z" fill="#F4F5F6"/>
<path fill-rule="evenodd" clip-rule="evenodd" d="M257.566 166.829H255.307V156.886H257.566V166.829ZM257.114 166.377V157.338H255.758V166.377H257.114Z" fill="#959DA8"/>
<path d="M207.624 166.604H209.432V157.112H207.624V166.604Z" fill="#F4F5F6"/>
<path fill-rule="evenodd" clip-rule="evenodd" d="M209.658 166.829H207.398V156.886H209.658V166.829ZM209.206 166.377V157.338H207.85V166.377H209.206Z" fill="#959DA8"/>
<path d="M202.651 166.604H204.459V157.112H202.651V166.604Z" fill="#F4F5F6"/>
<path fill-rule="evenodd" clip-rule="evenodd" d="M204.686 166.829H202.426V156.886H204.686V166.829ZM204.234 166.377V157.338H202.878V166.377H204.234Z" fill="#959DA8"/>
<path d="M286.254 60.1626H300.048V94.5129H286.254V60.1626Z" fill="white"/>
<path fill-rule="evenodd" clip-rule="evenodd" d="M286.029 59.9365H300.276V94.7388H286.029V59.9365ZM286.481 60.3885V94.2868H299.824V60.3885H286.481Z" fill="#959DA8"/>
<path fill-rule="evenodd" clip-rule="evenodd" d="M286.254 70.0293H300.048V70.4813H286.254V70.0293Z" fill="#959DA8"/>
<path d="M424.559 60.1626H438.353V84.1174H424.559V60.1626Z" fill="white"/>
<path fill-rule="evenodd" clip-rule="evenodd" d="M424.334 59.9365H438.58V84.3433H424.334V59.9365ZM424.786 60.3885V83.8913H438.128V60.3885H424.786Z" fill="#959DA8"/>
<path fill-rule="evenodd" clip-rule="evenodd" d="M424.559 70.0293H438.353V70.4813H424.559V70.0293Z" fill="#959DA8"/>
<path d="M452.035 143.132L459.466 138.938L466.815 143.277H466.611L466.458 150.572C466.428 151.987 465.842 153.333 464.827 154.32C463.812 155.306 462.449 155.853 461.034 155.842L457.685 155.81C456.274 155.796 454.926 155.229 453.929 154.231C452.933 153.232 452.368 151.883 452.356 150.472L452.297 143.141L452.035 143.132Z" fill="#D3DCE5"/>
<path d="M454.2 147.39H464.537V145.211H454.2V147.39Z" fill="#F4F5F6"/>
<path fill-rule="evenodd" clip-rule="evenodd" d="M464.762 147.616H453.973V144.985H464.762V147.616ZM464.31 147.164V145.437H454.425V147.164H464.31Z" fill="#959DA8"/>
<path d="M291.461 166.834C291.309 166.833 291.157 166.816 291.009 166.784C283.777 165.143 283.777 156.388 283.777 156.388C283.777 144.483 291.461 138.513 291.461 138.513C291.461 138.513 299.145 144.47 299.145 156.384C299.145 156.384 299.145 165.13 291.913 166.779C291.764 166.812 291.613 166.829 291.461 166.829V166.834Z" fill="#80C33F"/>
<path fill-rule="evenodd" clip-rule="evenodd" d="M291.46 150.504C291.585 150.504 291.686 150.605 291.686 150.73V179.543C291.686 179.668 291.585 179.769 291.46 179.769C291.336 179.769 291.234 179.668 291.234 179.543V150.73C291.234 150.605 291.336 150.504 291.46 150.504Z" fill="#2A3A51"/>
<path d="M524.856 88.9624H516.332V93.2788H524.856V88.9624Z" fill="#F4F5F6"/>
<path fill-rule="evenodd" clip-rule="evenodd" d="M516.107 88.7363H525.084V93.5047H516.107V88.7363ZM516.559 89.1883V93.0527H524.632V89.1883H516.559Z" fill="#959DA8"/>
<path d="M524.856 84.4429H516.332V88.8587H524.856V84.4429Z" fill="#F4F5F6"/>
<path fill-rule="evenodd" clip-rule="evenodd" d="M516.107 84.2168H525.084V89.0846H516.107V84.2168ZM516.559 84.6688V88.6326H524.632V84.6688H516.559Z" fill="#959DA8"/>
<path d="M524.856 79.9229H516.332V84.3387H524.856V79.9229Z" fill="#F4F5F6"/>
<path fill-rule="evenodd" clip-rule="evenodd" d="M516.107 79.6968H525.084V84.5646H516.107V79.6968ZM516.559 80.1488V84.1126H524.632V80.1488H516.559Z" fill="#959DA8"/>
<path d="M516.332 79.8191H524.856V75.4033H516.337V76.3796L516.332 79.8191Z" fill="#F4F5F6"/>
<path fill-rule="evenodd" clip-rule="evenodd" d="M516.112 75.1772H525.084V80.0451H516.107L516.112 76.3795V75.1772ZM516.564 75.6292L516.56 79.5931H524.632V75.6292H516.564Z" fill="#959DA8"/>
<path d="M524.858 70.8833H516.338V75.2991H524.858V70.8833Z" fill="#F4F5F6"/>
<path fill-rule="evenodd" clip-rule="evenodd" d="M516.111 70.6572H525.083V75.525H516.111V70.6572ZM516.563 71.1092V75.0731H524.631V71.1092H516.563Z" fill="#959DA8"/>
<path d="M524.858 66.3638H516.338V70.7796H524.858V66.3638Z" fill="#F4F5F6"/>
<path fill-rule="evenodd" clip-rule="evenodd" d="M516.111 66.1377H525.083V71.0055H516.111V66.1377ZM516.563 66.5897V70.5535H524.631V66.5897H516.563Z" fill="#959DA8"/>
<path d="M524.858 61.8438H516.338V66.2596H524.858V61.8438Z" fill="#F4F5F6"/>
<path fill-rule="evenodd" clip-rule="evenodd" d="M516.111 61.6177H525.083V66.4855H516.111V61.6177ZM516.563 62.0697V66.0335H524.631V62.0697H516.563Z" fill="#959DA8"/>
<path d="M477.399 88.9624H468.875V93.2788H477.399V88.9624Z" fill="#F4F5F6"/>
<path fill-rule="evenodd" clip-rule="evenodd" d="M468.648 88.7363H477.625V93.5047H468.648V88.7363ZM469.1 89.1883V93.0527H477.173V89.1883H469.1Z" fill="#959DA8"/>
<path d="M477.399 84.4429H468.875V88.8587H477.399V84.4429Z" fill="#F4F5F6"/>
<path fill-rule="evenodd" clip-rule="evenodd" d="M468.648 84.2168H477.625V89.0846H468.648V84.2168ZM469.1 84.6688V88.6326H477.173V84.6688H469.1Z" fill="#959DA8"/>
<path d="M477.399 79.9229H468.875V84.3387H477.399V79.9229Z" fill="#F4F5F6"/>
<path fill-rule="evenodd" clip-rule="evenodd" d="M468.648 79.6968H477.625V84.5646H468.648V79.6968ZM469.1 80.1488V84.1126H477.173V80.1488H469.1Z" fill="#959DA8"/>
<path d="M468.875 79.8191H477.399V75.4033H468.88V76.3796L468.875 79.8191Z" fill="#F4F5F6"/>
<path fill-rule="evenodd" clip-rule="evenodd" d="M468.653 75.1772H477.625V80.0451H468.648L468.653 76.3795V75.1772ZM469.105 75.6292L469.101 79.5931H477.173V75.6292H469.105Z" fill="#959DA8"/>
<path d="M477.401 70.8833H468.881V75.2991H477.401V70.8833Z" fill="#F4F5F6"/>
<path fill-rule="evenodd" clip-rule="evenodd" d="M468.654 70.6572H477.626V75.525H468.654V70.6572ZM469.106 71.1092V75.0731H477.174V71.1092H469.106Z" fill="#959DA8"/>
<path d="M477.401 66.3638H468.881V70.7796H477.401V66.3638Z" fill="#F4F5F6"/>
<path fill-rule="evenodd" clip-rule="evenodd" d="M468.654 66.1377H477.626V71.0055H468.654V66.1377ZM469.106 66.5897V70.5535H477.174V66.5897H469.106Z" fill="#959DA8"/>
<path d="M477.401 61.8438H468.881V66.2596H477.401V61.8438Z" fill="#F4F5F6"/>
<path fill-rule="evenodd" clip-rule="evenodd" d="M468.654 61.6177H477.626V66.4855H468.654V61.6177ZM469.106 62.0697V66.0335H477.174V62.0697H469.106Z" fill="#959DA8"/>
<path d="M524.856 159.923H516.332V164.239H524.856V159.923Z" fill="#F4F5F6"/>
<path fill-rule="evenodd" clip-rule="evenodd" d="M516.107 159.697H525.084V164.465H516.107V159.697ZM516.559 160.149V164.013H524.632V160.149H516.559Z" fill="#959DA8"/>
<path d="M524.856 155.403H516.332V159.819H524.856V155.403Z" fill="#F4F5F6"/>
<path fill-rule="evenodd" clip-rule="evenodd" d="M516.107 155.177H525.084V160.045H516.107V155.177ZM516.559 155.629V159.593H524.632V155.629H516.559Z" fill="#959DA8"/>
<path d="M524.856 150.883H516.332V155.299H524.856V150.883Z" fill="#F4F5F6"/>
<path fill-rule="evenodd" clip-rule="evenodd" d="M516.107 150.657H525.084V155.525H516.107V150.657ZM516.559 151.109V155.073H524.632V151.109H516.559Z" fill="#959DA8"/>
<path d="M516.332 150.78H524.856V146.364H516.337V147.34L516.332 150.78Z" fill="#F4F5F6"/>
<path fill-rule="evenodd" clip-rule="evenodd" d="M516.112 146.138H525.084V151.005H516.107L516.112 147.34V146.138ZM516.564 146.59L516.56 150.554H524.632V146.59H516.564Z" fill="#959DA8"/>
<path d="M524.858 141.844H516.338V146.26H524.858V141.844Z" fill="#F4F5F6"/>
<path fill-rule="evenodd" clip-rule="evenodd" d="M516.111 141.618H525.083V146.485H516.111V141.618ZM516.563 142.07V146.034H524.631V142.07H516.563Z" fill="#959DA8"/>
<path d="M524.858 137.324H516.338V141.74H524.858V137.324Z" fill="#F4F5F6"/>
<path fill-rule="evenodd" clip-rule="evenodd" d="M516.111 137.098H525.083V141.966H516.111V137.098ZM516.563 137.55V141.514H524.631V137.55H516.563Z" fill="#959DA8"/>
<path d="M524.858 132.804H516.338V137.22H524.858V132.804Z" fill="#F4F5F6"/>
<path fill-rule="evenodd" clip-rule="evenodd" d="M516.111 132.578H525.083V137.446H516.111V132.578ZM516.563 133.03V136.994H524.631V133.03H516.563Z" fill="#959DA8"/>
<path d="M477.399 159.923H468.875V164.239H477.399V159.923Z" fill="#F4F5F6"/>
<path fill-rule="evenodd" clip-rule="evenodd" d="M468.648 159.697H477.625V164.465H468.648V159.697ZM469.1 160.149V164.013H477.173V160.149H469.1Z" fill="#959DA8"/>
<path d="M477.399 155.403H468.875V159.819H477.399V155.403Z" fill="#F4F5F6"/>
<path fill-rule="evenodd" clip-rule="evenodd" d="M468.648 155.177H477.625V160.045H468.648V155.177ZM469.1 155.629V159.593H477.173V155.629H469.1Z" fill="#959DA8"/>
<path d="M477.399 150.883H468.875V155.299H477.399V150.883Z" fill="#F4F5F6"/>
<path fill-rule="evenodd" clip-rule="evenodd" d="M468.648 150.657H477.625V155.525H468.648V150.657ZM469.1 151.109V155.073H477.173V151.109H469.1Z" fill="#959DA8"/>
<path d="M468.875 150.78H477.399V146.364H468.88V147.34L468.875 150.78Z" fill="#F4F5F6"/>
<path fill-rule="evenodd" clip-rule="evenodd" d="M468.653 146.138H477.625V151.005H468.648L468.653 147.34V146.138ZM469.105 146.59L469.101 150.554H477.173V146.59H469.105Z" fill="#959DA8"/>
<path d="M477.401 141.844H468.881V146.26H477.401V141.844Z" fill="#F4F5F6"/>
<path fill-rule="evenodd" clip-rule="evenodd" d="M468.654 141.618H477.626V146.485H468.654V141.618ZM469.106 142.07V146.034H477.174V142.07H469.106Z" fill="#959DA8"/>
<path d="M477.401 137.324H468.881V141.74H477.401V137.324Z" fill="#F4F5F6"/>
<path fill-rule="evenodd" clip-rule="evenodd" d="M468.654 137.098H477.626V141.966H468.654V137.098ZM469.106 137.55V141.514H477.174V137.55H469.106Z" fill="#959DA8"/>
<path d="M477.401 132.804H468.881V137.22H477.401V132.804Z" fill="#F4F5F6"/>
<path fill-rule="evenodd" clip-rule="evenodd" d="M468.654 132.578H477.626V137.446H468.654V132.578ZM469.106 133.03V136.994H477.174V133.03H469.106Z" fill="#959DA8"/>
<path d="M392.88 88.9624H384.355V93.2788H392.88V88.9624Z" fill="#F4F5F6"/>
<path fill-rule="evenodd" clip-rule="evenodd" d="M384.129 88.7363H393.105V93.5047H384.129V88.7363ZM384.581 89.1883V93.0527H392.653V89.1883H384.581Z" fill="#959DA8"/>
<path d="M392.88 84.4429H384.355V88.8587H392.88V84.4429Z" fill="#F4F5F6"/>
<path fill-rule="evenodd" clip-rule="evenodd" d="M384.129 84.2168H393.105V89.0846H384.129V84.2168ZM384.581 84.6688V88.6326H392.653V84.6688H384.581Z" fill="#959DA8"/>
<path d="M392.88 79.9229H384.355V84.3387H392.88V79.9229Z" fill="#F4F5F6"/>
<path fill-rule="evenodd" clip-rule="evenodd" d="M384.129 79.6968H393.105V84.5646H384.129V79.6968ZM384.581 80.1488V84.1126H392.653V80.1488H384.581Z" fill="#959DA8"/>
<path d="M384.355 79.8191H392.88V75.4033H384.36V76.3796L384.355 79.8191Z" fill="#F4F5F6"/>
<path fill-rule="evenodd" clip-rule="evenodd" d="M384.134 75.1772H393.105V80.0451H384.129L384.134 76.3795V75.1772ZM384.586 75.6292L384.581 79.5931H392.653V75.6292H384.586Z" fill="#959DA8"/>
<path d="M392.881 70.8833H384.361V75.2991H392.881V70.8833Z" fill="#F4F5F6"/>
<path fill-rule="evenodd" clip-rule="evenodd" d="M384.135 70.6572H393.107V75.525H384.135V70.6572ZM384.587 71.1092V75.0731H392.655V71.1092H384.587Z" fill="#959DA8"/>
<path d="M392.881 66.3638H384.361V70.7796H392.881V66.3638Z" fill="#F4F5F6"/>
<path fill-rule="evenodd" clip-rule="evenodd" d="M384.135 66.1377H393.107V71.0055H384.135V66.1377ZM384.587 66.5897V70.5535H392.655V66.5897H384.587Z" fill="#959DA8"/>
<path d="M392.881 61.8438H384.361V66.2596H392.881V61.8438Z" fill="#F4F5F6"/>
<path fill-rule="evenodd" clip-rule="evenodd" d="M384.135 61.6177H393.107V66.4855H384.135V61.6177ZM384.587 62.0697V66.0335H392.655V62.0697H384.587Z" fill="#959DA8"/>
<path d="M345.423 88.9624H336.898V93.2788H345.423V88.9624Z" fill="#F4F5F6"/>
<path fill-rule="evenodd" clip-rule="evenodd" d="M336.672 88.7363H345.648V93.5047H336.672V88.7363ZM337.124 89.1883V93.0527H345.196V89.1883H337.124Z" fill="#959DA8"/>
<path d="M345.423 84.4429H336.898V88.8587H345.423V84.4429Z" fill="#F4F5F6"/>
<path fill-rule="evenodd" clip-rule="evenodd" d="M336.672 84.2168H345.648V89.0846H336.672V84.2168ZM337.124 84.6688V88.6326H345.196V84.6688H337.124Z" fill="#959DA8"/>
<path d="M345.423 79.9229H336.898V84.3387H345.423V79.9229Z" fill="#F4F5F6"/>
<path fill-rule="evenodd" clip-rule="evenodd" d="M336.672 79.6968H345.648V84.5646H336.672V79.6968ZM337.124 80.1488V84.1126H345.196V80.1488H337.124Z" fill="#959DA8"/>
<path d="M336.898 79.8191H345.423V75.4033H336.903V76.3796L336.898 79.8191Z" fill="#F4F5F6"/>
<path fill-rule="evenodd" clip-rule="evenodd" d="M336.677 75.1772H345.648V80.0451H336.672L336.677 76.3795V75.1772ZM337.129 75.6292L337.124 79.5931H345.196V75.6292H337.129Z" fill="#959DA8"/>
<path d="M345.422 70.8833H336.902V75.2991H345.422V70.8833Z" fill="#F4F5F6"/>
<path fill-rule="evenodd" clip-rule="evenodd" d="M336.678 70.6572H345.649V75.525H336.678V70.6572ZM337.13 71.1092V75.0731H345.197V71.1092H337.13Z" fill="#959DA8"/>
<path d="M345.422 66.3638H336.902V70.7796H345.422V66.3638Z" fill="#F4F5F6"/>
<path fill-rule="evenodd" clip-rule="evenodd" d="M336.678 66.1377H345.649V71.0055H336.678V66.1377ZM337.13 66.5897V70.5535H345.197V66.5897H337.13Z" fill="#959DA8"/>
<path d="M345.422 61.8438H336.902V66.2596H345.422V61.8438Z" fill="#F4F5F6"/>
<path fill-rule="evenodd" clip-rule="evenodd" d="M336.678 61.6177H345.649V66.4855H336.678V61.6177ZM337.13 62.0697V66.0335H345.197V62.0697H337.13Z" fill="#959DA8"/>
<path d="M248.247 88.9624H239.723V93.2788H248.247V88.9624Z" fill="#F4F5F6"/>
<path fill-rule="evenodd" clip-rule="evenodd" d="M239.496 88.7363H248.472V93.5047H239.496V88.7363ZM239.948 89.1883V93.0527H248.02V89.1883H239.948Z" fill="#959DA8"/>
<path d="M248.247 84.4429H239.723V88.8587H248.247V84.4429Z" fill="#F4F5F6"/>
<path fill-rule="evenodd" clip-rule="evenodd" d="M239.496 84.2168H248.472V89.0846H239.496V84.2168ZM239.948 84.6688V88.6326H248.02V84.6688H239.948Z" fill="#959DA8"/>
<path d="M248.247 79.9229H239.723V84.3387H248.247V79.9229Z" fill="#F4F5F6"/>
<path fill-rule="evenodd" clip-rule="evenodd" d="M239.496 79.6968H248.472V84.5646H239.496V79.6968ZM239.948 80.1488V84.1126H248.02V80.1488H239.948Z" fill="#959DA8"/>
<path d="M239.723 79.8191H248.247V75.4033H239.727V76.3796L239.723 79.8191Z" fill="#F4F5F6"/>
<path fill-rule="evenodd" clip-rule="evenodd" d="M239.501 75.1772H248.473V80.0451H239.496L239.501 76.3795V75.1772ZM239.953 75.6292L239.949 79.5931H248.021V75.6292H239.953Z" fill="#959DA8"/>
<path d="M248.248 70.8833H239.729V75.2991H248.248V70.8833Z" fill="#F4F5F6"/>
<path fill-rule="evenodd" clip-rule="evenodd" d="M239.502 70.6572H248.474V75.525H239.502V70.6572ZM239.954 71.1092V75.0731H248.022V71.1092H239.954Z" fill="#959DA8"/>
<path d="M248.248 66.3638H239.729V70.7796H248.248V66.3638Z" fill="#F4F5F6"/>
<path fill-rule="evenodd" clip-rule="evenodd" d="M239.502 66.1377H248.474V71.0055H239.502V66.1377ZM239.954 66.5897V70.5535H248.022V66.5897H239.954Z" fill="#959DA8"/>
<path d="M248.248 61.8438H239.729V66.2596H248.248V61.8438Z" fill="#F4F5F6"/>
<path fill-rule="evenodd" clip-rule="evenodd" d="M239.502 61.6177H248.474V66.4855H239.502V61.6177ZM239.954 62.0697V66.0335H248.022V62.0697H239.954Z" fill="#959DA8"/>
<path d="M200.79 88.9624H192.266V93.2788H200.79V88.9624Z" fill="#F4F5F6"/>
<path fill-rule="evenodd" clip-rule="evenodd" d="M192.039 88.7363H201.015V93.5047H192.039V88.7363ZM192.491 89.1883V93.0527H200.563V89.1883H192.491Z" fill="#959DA8"/>
<path d="M200.79 84.4429H192.266V88.8587H200.79V84.4429Z" fill="#F4F5F6"/>
<path fill-rule="evenodd" clip-rule="evenodd" d="M192.039 84.2168H201.015V89.0846H192.039V84.2168ZM192.491 84.6688V88.6326H200.563V84.6688H192.491Z" fill="#959DA8"/>
<path d="M200.79 79.9229H192.266V84.3387H200.79V79.9229Z" fill="#F4F5F6"/>
<path fill-rule="evenodd" clip-rule="evenodd" d="M192.039 79.6968H201.015V84.5646H192.039V79.6968ZM192.491 80.1488V84.1126H200.563V80.1488H192.491Z" fill="#959DA8"/>
<path d="M192.266 79.8191H200.79V75.4033H192.27V76.3796L192.266 79.8191Z" fill="#F4F5F6"/>
<path fill-rule="evenodd" clip-rule="evenodd" d="M192.044 75.1772H201.016V80.0451H192.039L192.044 76.3795V75.1772ZM192.496 75.6292L192.492 79.5931H200.564V75.6292H192.496Z" fill="#959DA8"/>
<path d="M200.789 70.8833H192.27V75.2991H200.789V70.8833Z" fill="#F4F5F6"/>
<path fill-rule="evenodd" clip-rule="evenodd" d="M192.045 70.6572H201.017V75.525H192.045V70.6572ZM192.497 71.1092V75.0731H200.565V71.1092H192.497Z" fill="#959DA8"/>
<path d="M200.789 66.3638H192.27V70.7796H200.789V66.3638Z" fill="#F4F5F6"/>
<path fill-rule="evenodd" clip-rule="evenodd" d="M192.045 66.1377H201.017V71.0055H192.045V66.1377ZM192.497 66.5897V70.5535H200.565V66.5897H192.497Z" fill="#959DA8"/>
<path d="M200.789 61.8438H192.27V66.2596H200.789V61.8438Z" fill="#F4F5F6"/>
<path fill-rule="evenodd" clip-rule="evenodd" d="M192.045 61.6177H201.017V66.4855H192.045V61.6177ZM192.497 62.0697V66.0335H200.565V62.0697H192.497Z" fill="#959DA8"/>
<path fill-rule="evenodd" clip-rule="evenodd" d="M524.879 93.5615H516.002V61.7152H524.879V93.5615ZM524.495 93.1773V62.0994H516.386V93.1773H524.495Z" fill="#959DA8"/>
<path d="M477.441 60.0767H516.339V94.6665H477.441V60.0767Z" fill="white"/>
<path fill-rule="evenodd" clip-rule="evenodd" d="M477.215 59.8506H516.564V94.8924H477.215V59.8506ZM477.667 60.3026V94.4404H516.112V60.3026H477.667Z" fill="#959DA8"/>
<path fill-rule="evenodd" clip-rule="evenodd" d="M496.662 94.7163V60.0723H497.114V94.7163H496.662Z" fill="#959DA8"/>
<path fill-rule="evenodd" clip-rule="evenodd" d="M477.59 76.1533H516.338V76.6053H477.59V76.1533Z" fill="#959DA8"/>
<path d="M225.481 11.0237H215.289L220.392 6.60791H220.401L225.481 11.0237Z" fill="#F4F5F6"/>
<path fill-rule="evenodd" clip-rule="evenodd" d="M220.307 6.38184H220.485L226.085 11.2496H214.682L220.307 6.38184ZM220.395 6.90304L215.895 10.7976H224.876L220.395 6.90304Z" fill="#959DA8"/>
<path d="M230.684 15.5432H210.064L215.167 11.1274H225.603L230.684 15.5432Z" fill="#F4F5F6"/>
<path fill-rule="evenodd" clip-rule="evenodd" d="M215.082 10.9014H225.687L231.287 15.7691H209.457L215.082 10.9014ZM215.251 11.3533L210.67 15.3172H230.078L225.518 11.3533H215.251Z" fill="#959DA8"/>
<path d="M235.881 20.0633H204.844L209.947 15.6475H230.801L235.881 20.0633Z" fill="#F4F5F6"/>
<path fill-rule="evenodd" clip-rule="evenodd" d="M209.861 15.4214H230.884L236.485 20.2892H204.236L209.861 15.4214ZM210.03 15.8734L205.449 19.8372H235.276L230.715 15.8734H210.03Z" fill="#959DA8"/>
<path d="M370.114 11.0237H359.922L365.025 6.60791H365.034L370.114 11.0237Z" fill="#F4F5F6"/>
<path fill-rule="evenodd" clip-rule="evenodd" d="M364.94 6.38184H365.117L370.718 11.2496H359.314L364.94 6.38184ZM365.028 6.90304L360.527 10.7976H369.509L365.028 6.90304Z" fill="#959DA8"/>
<path d="M375.316 15.5432H354.697L359.8 11.1274H370.236L375.316 15.5432Z" fill="#F4F5F6"/>
<path fill-rule="evenodd" clip-rule="evenodd" d="M359.715 10.9014H370.32L375.92 15.7691H354.09L359.715 10.9014ZM359.883 11.3533L355.303 15.3172H374.711L370.151 11.3533H359.883Z" fill="#959DA8"/>
<path d="M380.514 20.0633H349.477L354.579 15.6475H375.434L380.514 20.0633Z" fill="#F4F5F6"/>
<path fill-rule="evenodd" clip-rule="evenodd" d="M354.494 15.4214H375.517L381.117 20.2892H348.869L354.494 15.4214ZM354.663 15.8734L350.082 19.8372H379.908L375.348 15.8734H354.663Z" fill="#959DA8"/>
<path d="M502.093 11.0237H491.9L497.003 6.60791H497.012L502.093 11.0237Z" fill="#F4F5F6"/>
<path fill-rule="evenodd" clip-rule="evenodd" d="M496.918 6.38184H497.096L502.696 11.2496H491.293L496.918 6.38184ZM497.007 6.90304L492.506 10.7976H501.487L497.007 6.90304Z" fill="#959DA8"/>
<path d="M507.293 15.5432H486.674L491.777 11.1274H502.213L507.293 15.5432Z" fill="#F4F5F6"/>
<path fill-rule="evenodd" clip-rule="evenodd" d="M491.693 10.9014H502.298L507.899 15.7691H486.068L491.693 10.9014ZM491.862 11.3533L487.281 15.3172H506.69L502.129 11.3533H491.862Z" fill="#959DA8"/>
<path d="M512.492 20.0633H481.455L486.558 15.6475H507.412L512.492 20.0633Z" fill="#F4F5F6"/>
<path fill-rule="evenodd" clip-rule="evenodd" d="M486.473 15.4214H507.496L513.096 20.2892H480.848L486.473 15.4214ZM486.641 15.8734L482.061 19.8372H511.887L507.327 15.8734H486.641Z" fill="#959DA8"/>
<path d="M174.973 109.88V103.779L154.182 89.0894L133.066 104.231L132.939 110.332L153.73 109.88H174.973Z" fill="#F4F5F6"/>
<path fill-rule="evenodd" clip-rule="evenodd" d="M154.18 88.5342L175.425 103.544V110.332H174.521V104.012L154.184 89.6437L133.517 104.462V110.784H132.613V103.998L154.18 88.5342Z" fill="#959DA8"/>
<path fill-rule="evenodd" clip-rule="evenodd" d="M154.181 95.1396L175.103 109.922L174.842 110.291L154.183 95.6944L133.197 110.742L132.934 110.375L154.181 95.1396Z" fill="#959DA8"/>
<path d="M549.209 110.332H36.2148V117.112H549.209V110.332Z" fill="#F4F5F6"/>
<path fill-rule="evenodd" clip-rule="evenodd" d="M35.7637 109.88H549.662V117.564H35.7637V109.88ZM36.6676 110.784V116.66H548.758V110.784H36.6676Z" fill="#959DA8"/>
<path d="M517.119 177.812C517.115 176.806 517.353 175.814 517.814 174.92C518.274 174.025 518.943 173.255 519.764 172.674C520.585 172.092 521.534 171.718 522.531 171.581C523.527 171.444 524.542 171.549 525.49 171.887C525.856 170.413 526.598 169.058 527.642 167.955C528.687 166.853 530 166.039 531.452 165.594C532.905 165.149 534.448 165.088 535.931 165.416C537.415 165.744 538.788 166.45 539.917 167.467C540.715 165.236 542.274 163.359 544.32 162.165C546.366 160.971 548.767 160.537 551.102 160.94C553.436 161.343 555.553 162.557 557.081 164.367C558.608 166.178 559.448 168.47 559.451 170.838C559.453 171.189 559.435 171.539 559.397 171.887C560.078 171.638 560.797 171.511 561.521 171.512C565.002 171.512 568.03 174.337 567.808 177.799C567.777 178.37 567.681 178.935 567.524 179.485H517.354C517.203 178.936 517.127 178.368 517.128 177.799L517.119 177.812Z" fill="#80C33F"/>
<line x1="8.74228e-08" y1="179.367" x2="310" y2="179.367" stroke="#959DA8" stroke-width="2" stroke-miterlimit="10"/>
</svg>
