<svg width="752" height="401" viewBox="0 0 752 401" fill="none" xmlns="http://www.w3.org/2000/svg">
<path d="M663.803 0H77.3672V19.4301H663.803V0Z" fill="#D3DCE5"/>
<path fill-rule="evenodd" clip-rule="evenodd" d="M521.645 153.663H658.658V276.449H521.645V153.663ZM522.55 154.569V275.543H657.752V154.569H522.55Z" fill="#959DA8"/>
<path fill-rule="evenodd" clip-rule="evenodd" d="M485.387 31.7832H640.85V140.438H485.387V31.7832ZM486.292 32.6889V139.532H639.944V32.6889H486.292Z" fill="#959DA8"/>
<path fill-rule="evenodd" clip-rule="evenodd" d="M451.66 139.367H520.901V278.38H451.66V139.367ZM452.896 140.603V277.144H519.665V140.603H452.896Z" fill="#959DA8"/>
<path fill-rule="evenodd" clip-rule="evenodd" d="M451.699 277.182H520.865V399.842H451.699V277.182ZM452.86 278.342V398.682H519.705V278.342H452.86Z" fill="#959DA8"/>
<path fill-rule="evenodd" clip-rule="evenodd" d="M520.332 277.271H682.088V400.132H520.332V277.271ZM521.313 278.252V399.151H681.107V278.252H521.313Z" fill="#959DA8"/>
<path d="M499.123 153.366H472.168V264.065H499.123V153.366Z" fill="white"/>
<path fill-rule="evenodd" clip-rule="evenodd" d="M471.695 152.895H499.594V264.537H471.695V152.895ZM472.639 153.838V263.593H498.65V153.838H472.639Z" fill="#959DA8"/>
<path d="M499.123 283.193H472.168V393.891H499.123V283.193Z" fill="white"/>
<path fill-rule="evenodd" clip-rule="evenodd" d="M471.695 282.721H499.594V394.363H471.695V282.721ZM472.639 283.665V393.42H498.65V283.665H472.639Z" fill="#959DA8"/>
<path d="M646.58 32.2377V18.1067H485.84V139.103H499.971V32.2377H646.58Z" fill="#F4F5F6"/>
<path fill-rule="evenodd" clip-rule="evenodd" d="M484.895 17.1633H647.521V33.1812H500.912V140.047H484.895V17.1633ZM486.781 19.0502V138.16H499.026V31.2943H645.634V19.0502H486.781Z" fill="#959DA8"/>
<path fill-rule="evenodd" clip-rule="evenodd" d="M222.035 139.367H291.276V278.38H222.035V139.367ZM223.271 140.603V277.144H290.041V140.603H223.271Z" fill="#959DA8"/>
<path fill-rule="evenodd" clip-rule="evenodd" d="M222.074 277.182H291.24V399.842H222.074V277.182ZM223.235 278.342V398.682H290.08V278.342H223.235Z" fill="#959DA8"/>
<path fill-rule="evenodd" clip-rule="evenodd" d="M290.703 277.271H452.46V400.132H290.703V277.271ZM291.684 278.252V399.151H451.478V278.252H291.684Z" fill="#959DA8"/>
<path d="M269.498 153.366H242.543V264.065H269.498V153.366Z" fill="white"/>
<path fill-rule="evenodd" clip-rule="evenodd" d="M242.07 152.895H269.969V264.537H242.07V152.895ZM243.014 153.838V263.593H269.025V153.838H243.014Z" fill="#959DA8"/>
<path d="M269.498 283.193H242.543V393.891H269.498V283.193Z" fill="white"/>
<path fill-rule="evenodd" clip-rule="evenodd" d="M242.07 282.721H269.969V394.363H242.07V282.721ZM243.014 283.665V393.42H269.025V283.665H243.014Z" fill="#959DA8"/>
<path d="M428.85 31.4944H304.32V139.543H428.85" fill="#F4F5F6"/>
<path fill-rule="evenodd" clip-rule="evenodd" d="M303.648 30.8245H428.848V32.1641H304.988V138.874H428.848V140.213H303.648V30.8245Z" fill="#959DA8"/>
<path d="M363.941 37.7837H308.777V135.923H363.941V37.7837Z" fill="white"/>
<path fill-rule="evenodd" clip-rule="evenodd" d="M308.305 37.312H364.412V136.395H308.305V37.312ZM309.248 38.2555V135.452H363.469V38.2555H309.248Z" fill="#959DA8"/>
<path fill-rule="evenodd" clip-rule="evenodd" d="M363.517 64.9439H308.777V64.0005H363.517V64.9439Z" fill="#959DA8"/>
<path d="M428.432 32.2361H367.934V123.204H428.432V32.2361Z" fill="#D3DCE5"/>
<path d="M651.41 160.546H541.012V258.685H651.41V160.546Z" fill="white"/>
<path fill-rule="evenodd" clip-rule="evenodd" d="M540.539 160.074H651.881V259.157H540.539V160.074ZM541.483 161.017V258.213H650.937V161.017H541.483Z" fill="#959DA8"/>
<path fill-rule="evenodd" clip-rule="evenodd" d="M595.777 265.397V160.528H596.721V265.397H595.777Z" fill="#959DA8"/>
<path fill-rule="evenodd" clip-rule="evenodd" d="M650.994 187.708H541.055V186.764H650.994V187.708Z" fill="#959DA8"/>
<path d="M443.859 160.546H333.461V258.685H443.859V160.546Z" fill="white"/>
<path fill-rule="evenodd" clip-rule="evenodd" d="M332.988 160.074H444.33V259.157H332.988V160.074ZM333.932 161.017V258.213H443.387V161.017H333.932Z" fill="#959DA8"/>
<path fill-rule="evenodd" clip-rule="evenodd" d="M388.227 265.397V160.528H389.17V265.397H388.227Z" fill="#959DA8"/>
<path fill-rule="evenodd" clip-rule="evenodd" d="M443.447 187.708H333.508V186.764H443.447V187.708Z" fill="#959DA8"/>
<path d="M209.816 293.024H99.418V391.163H209.816V293.024Z" fill="white"/>
<path fill-rule="evenodd" clip-rule="evenodd" d="M98.9453 292.552H210.287V391.635H98.9453V292.552ZM99.8888 293.495V390.691H209.344V293.495H99.8888Z" fill="#959DA8"/>
<path fill-rule="evenodd" clip-rule="evenodd" d="M154.18 397.875V293.006H155.123V397.875H154.18Z" fill="#959DA8"/>
<path fill-rule="evenodd" clip-rule="evenodd" d="M209.404 320.186H99.4648V319.242H209.404V320.186Z" fill="#959DA8"/>
<path d="M401.974 35.9016H375.02V135.119H401.974V35.9016Z" fill="white"/>
<path fill-rule="evenodd" clip-rule="evenodd" d="M374.547 35.4299H402.445V135.591H374.547V35.4299ZM375.49 36.3734V134.647H401.502V36.3734H375.49Z" fill="#959DA8"/>
<path d="M681.01 277.762H615.672V398.758H681.01V277.762Z" fill="#D3DCE5"/>
<path d="M637.279 37.9929H503.918V138.579H637.279V37.9929Z" fill="white"/>
<path fill-rule="evenodd" clip-rule="evenodd" d="M503.445 37.5212H637.75V139.051H503.445V37.5212ZM504.389 38.4647V138.107H636.806V38.4647H504.389Z" fill="#959DA8"/>
<path fill-rule="evenodd" clip-rule="evenodd" d="M533.07 137.777V38.6479H534.014V137.777H533.07Z" fill="#959DA8"/>
<path fill-rule="evenodd" clip-rule="evenodd" d="M570.164 137.777V38.6479H571.108V137.777H570.164Z" fill="#959DA8"/>
<path fill-rule="evenodd" clip-rule="evenodd" d="M607.258 137.777V38.6479H608.201V137.777H607.258Z" fill="#959DA8"/>
<path d="M435.499 32.2377V18.1067H290.656V137.778L304.787 138.22V32.2377H435.499Z" fill="#F4F5F6"/>
<path fill-rule="evenodd" clip-rule="evenodd" d="M289.711 17.1633H436.44V33.1812H305.729V139.194L289.711 138.693V17.1633ZM291.598 19.0502V136.864L303.842 137.247V31.2943H434.554V19.0502H291.598Z" fill="#959DA8"/>
<path d="M644.373 110.628C644.72 110.63 645.066 110.594 645.406 110.522C661.303 106.909 661.303 87.7265 661.303 87.7265C661.44 76.0331 657.729 64.6191 650.74 55.2429C649.999 54.2624 649.041 53.4671 647.941 52.9195C646.84 52.3719 645.628 52.0869 644.399 52.0869C643.17 52.0869 641.958 52.3719 640.857 52.9195C639.757 53.4671 638.799 54.2624 638.058 55.2429C631.074 64.6178 627.366 76.0284 627.504 87.7177C627.504 87.7177 627.504 106.945 643.348 110.522C643.688 110.594 644.034 110.63 644.381 110.628H644.373Z" fill="#80C33F"/>
<path fill-rule="evenodd" clip-rule="evenodd" d="M644.382 73.7681C644.642 73.7681 644.854 73.9793 644.854 74.2398V139.543C644.854 139.803 644.642 140.014 644.382 140.014C644.121 140.014 643.91 139.803 643.91 139.543V74.2398C643.91 73.9793 644.121 73.7681 644.382 73.7681Z" fill="#2A3A51"/>
<path fill-rule="evenodd" clip-rule="evenodd" d="M223.219 399.213H86.2052L86.2052 277.31H223.219L223.219 399.213ZM222.313 398.307L222.313 278.216H87.1109L87.1109 398.307H222.313Z" fill="#959DA8"/>
<path fill-rule="evenodd" clip-rule="evenodd" d="M221.453 276.449H84.4396L84.4396 153.664H221.453L221.453 276.449ZM220.547 275.543L220.547 154.569H85.3453L85.3453 275.543H220.547Z" fill="#959DA8"/>
<path fill-rule="evenodd" clip-rule="evenodd" d="M257.703 140.438L102.24 140.437V31.783L257.703 31.783V140.438ZM256.797 139.532V32.6887L103.145 32.6887V139.532L256.797 139.532Z" fill="#959DA8"/>
<path d="M146.253 154.558H84.4297V246.409H146.253V154.558Z" fill="#D3DCE5"/>
<path d="M356.631 278.204H291.293V399.2H356.631V278.204Z" fill="#D3DCE5"/>
<path fill-rule="evenodd" clip-rule="evenodd" d="M222.762 400.132H61.0053L61.0053 277.271H222.762L222.762 400.132ZM221.781 399.151L221.781 278.253H61.9864L61.9864 399.151H221.781Z" fill="#959DA8"/>
<path d="M96.5195 32.2377V18.1067H257.251V139.103H243.12V32.2377H96.5195Z" fill="#F4F5F6"/>
<path fill-rule="evenodd" clip-rule="evenodd" d="M95.5742 17.1633H258.192V140.047H242.174V33.1812H95.5742V17.1633ZM97.4611 19.0502V31.2943H244.061V138.16H256.305V19.0502H97.4611Z" fill="#959DA8"/>
<path d="M68.6933 154.116V139.985H222.809V277.762H202.496H55.0039V264.514H208.678V154.116H68.6933Z" fill="#F4F5F6"/>
<path fill-rule="evenodd" clip-rule="evenodd" d="M67.748 139.041H223.751V278.705H54.0586V263.571H207.733V155.059H67.748V139.041ZM69.6349 140.928V153.172H209.62V265.457H55.9455V276.818H221.864V140.928H69.6349Z" fill="#959DA8"/>
<path d="M151.129 159.662H202.919V257.801H151.129V159.662Z" fill="white"/>
<path fill-rule="evenodd" clip-rule="evenodd" d="M150.656 159.19H203.39V258.273H150.656V159.19ZM151.6 160.133V257.33H202.446V160.133H151.6Z" fill="#959DA8"/>
<path fill-rule="evenodd" clip-rule="evenodd" d="M151.113 185.881H202.921V186.824H151.113V185.881Z" fill="#959DA8"/>
<path d="M376.344 282.426H428.134V380.565H376.344V282.426Z" fill="white"/>
<path fill-rule="evenodd" clip-rule="evenodd" d="M375.875 281.954H428.609V381.037H375.875V281.954ZM376.818 282.897V380.094H427.665V282.897H376.818Z" fill="#959DA8"/>
<path fill-rule="evenodd" clip-rule="evenodd" d="M376.324 308.642H428.132V309.586H376.324V308.642Z" fill="#959DA8"/>
<path d="M542.383 282.426H594.173V380.565H542.383V282.426Z" fill="white"/>
<path fill-rule="evenodd" clip-rule="evenodd" d="M541.91 281.954H594.644V381.037H541.91V281.954ZM542.854 282.897V380.094H593.7V282.897H542.854Z" fill="#959DA8"/>
<path fill-rule="evenodd" clip-rule="evenodd" d="M542.363 308.642H594.171V309.586H542.363V308.642Z" fill="#959DA8"/>
<path d="M105.816 37.9929H239.178V138.579H105.816V37.9929Z" fill="white"/>
<path fill-rule="evenodd" clip-rule="evenodd" d="M105.348 37.5212H239.652V139.051H105.348V37.5212ZM106.291 38.4647V138.107H238.709V38.4647H106.291Z" fill="#959DA8"/>
<path fill-rule="evenodd" clip-rule="evenodd" d="M209.082 137.777V38.6479H210.025V137.777H209.082Z" fill="#959DA8"/>
<path fill-rule="evenodd" clip-rule="evenodd" d="M171.988 137.777V38.6479H172.932V137.777H171.988Z" fill="#959DA8"/>
<path fill-rule="evenodd" clip-rule="evenodd" d="M134.895 137.777V38.6479H135.838V137.777H134.895Z" fill="#959DA8"/>
<path d="M452.279 154.116V139.985H290.656V277.762H304.787H452.279V263.631H304.787V154.116H452.279Z" fill="#F4F5F6"/>
<path fill-rule="evenodd" clip-rule="evenodd" d="M289.711 139.041H453.221V155.059H305.729V262.687H453.221V278.705H289.711V139.041ZM291.598 140.928V276.818H451.334V264.574H303.842V153.172H451.334V140.928H291.598Z" fill="#959DA8"/>
<path d="M674.401 154.999V139.985H520.285V277.762H688.091V264.514H534.416V154.999H674.401Z" fill="#F4F5F6"/>
<path fill-rule="evenodd" clip-rule="evenodd" d="M519.344 139.041H675.347V155.942H535.362V263.571H689.036V278.705H519.344V139.041ZM521.231 140.928V276.818H687.149V265.457H533.475V154.055H673.46V140.928H521.231Z" fill="#959DA8"/>
<path d="M314.248 238.019C313.951 238.018 313.655 237.986 313.365 237.921C299.835 234.839 299.835 218.491 299.835 218.491C299.732 209.168 302.485 200.037 307.722 192.322C308.454 191.271 309.429 190.413 310.565 189.82C311.701 189.227 312.963 188.917 314.244 188.917C315.525 188.917 316.787 189.227 317.923 189.82C319.059 190.413 320.034 191.271 320.766 192.322C326.007 200.035 328.762 209.167 328.662 218.491C328.662 218.491 328.662 234.901 315.132 237.921C314.842 237.986 314.545 238.018 314.248 238.019Z" fill="#80C33F"/>
<path fill-rule="evenodd" clip-rule="evenodd" d="M314.249 206.495C314.51 206.495 314.721 206.706 314.721 206.966V262.695C314.721 262.956 314.51 263.167 314.249 263.167C313.989 263.167 313.777 262.956 313.777 262.695V206.966C313.777 206.706 313.989 206.495 314.249 206.495Z" fill="#2A3A51"/>
<path d="M601.098 244.908C601.09 242.942 601.555 241.003 602.455 239.255C603.354 237.508 604.662 236.002 606.266 234.866C607.871 233.731 609.725 232.998 611.672 232.73C613.62 232.463 615.603 232.668 617.454 233.329C618.17 230.448 619.619 227.801 621.661 225.647C623.702 223.492 626.267 221.902 629.106 221.032C631.944 220.163 634.959 220.043 637.858 220.684C640.756 221.325 643.439 222.706 645.646 224.692C647.204 220.333 650.251 216.664 654.249 214.331C658.247 211.998 662.94 211.151 667.501 211.938C672.063 212.726 676.2 215.097 679.185 218.635C682.169 222.174 683.81 226.651 683.817 231.28C683.82 231.965 683.784 232.649 683.711 233.329C685.036 232.843 684.426 247.098 684.117 248.176H601.539C601.243 247.103 601.095 245.994 601.098 244.881V244.908Z" fill="#80C33F"/>
<path d="M165.685 122.146C165.693 120.18 165.228 118.242 164.328 116.494C163.429 114.746 162.121 113.24 160.517 112.105C158.913 110.969 157.058 110.236 155.111 109.969C153.163 109.701 151.18 109.907 149.329 110.567C148.613 107.686 147.164 105.04 145.122 102.885C143.081 100.73 140.516 99.1403 137.677 98.2707C134.839 97.401 131.824 97.281 128.926 97.9222C126.027 98.5634 123.344 99.9441 121.137 101.93C119.579 97.5713 116.532 93.9026 112.534 91.5697C108.536 89.2368 103.843 88.3893 99.2819 89.1766C94.7205 89.964 90.5831 92.3356 87.5985 95.8737C84.6139 99.4118 82.9735 103.89 82.9661 108.518C82.9636 109.203 82.9989 109.887 83.0721 110.567C81.7473 110.082 82.3567 124.336 82.6658 125.414H165.244C165.54 124.341 165.688 123.233 165.685 122.119V122.146Z" fill="#80C33F"/>
<path d="M631.478 230.07V264.515H623.035L623.044 230.07H631.478Z" fill="#F4F5F6"/>
<path fill-rule="evenodd" clip-rule="evenodd" d="M622.572 229.599H631.949V264.986H622.562L622.572 229.599ZM623.515 230.542L623.506 264.043H631.006V230.542H623.515Z" fill="#959DA8"/>
<path d="M640.308 230.07H631.68V264.515H640.308V230.07Z" fill="#F4F5F6"/>
<path fill-rule="evenodd" clip-rule="evenodd" d="M631.211 229.599H640.783V264.986H631.211V229.599ZM632.154 230.542V264.043H639.84V230.542H632.154Z" fill="#959DA8"/>
<path d="M649.14 230.07H640.512V264.515H649.14V230.07Z" fill="#F4F5F6"/>
<path fill-rule="evenodd" clip-rule="evenodd" d="M640.039 229.599H649.611V264.986H640.039V229.599ZM640.983 230.542V264.043H648.668V230.542H640.983Z" fill="#959DA8"/>
<path d="M657.972 230.07H649.344V264.515H657.972V230.07Z" fill="#F4F5F6"/>
<path fill-rule="evenodd" clip-rule="evenodd" d="M648.871 229.599H658.443V264.986H648.871V229.599ZM649.815 230.542V264.043H657.5V230.542H649.815Z" fill="#959DA8"/>
<path d="M666.805 230.07H658.176V264.515H666.805V230.07Z" fill="#F4F5F6"/>
<path fill-rule="evenodd" clip-rule="evenodd" d="M657.703 229.599H667.275V264.986H657.703V229.599ZM658.647 230.542V264.043H666.332V230.542H658.647Z" fill="#959DA8"/>
<path d="M675.637 230.07H667.008V264.515H675.637V230.07Z" fill="#F4F5F6"/>
<path fill-rule="evenodd" clip-rule="evenodd" d="M666.539 229.599H676.111V264.986H666.539V229.599ZM667.483 230.542V264.043H675.168V230.542H667.483Z" fill="#959DA8"/>
<path d="M684.469 230.07H675.84V264.515H684.469V230.07Z" fill="#F4F5F6"/>
<path fill-rule="evenodd" clip-rule="evenodd" d="M675.367 229.599H684.939V264.986H675.367V229.599ZM676.311 230.542V264.043H683.996V230.542H676.311Z" fill="#959DA8"/>
<path d="M543.158 230.07V264.515H534.715L534.724 230.07H543.158Z" fill="#F4F5F6"/>
<path fill-rule="evenodd" clip-rule="evenodd" d="M534.251 229.599H543.629V264.986H534.242L534.251 229.599ZM535.194 230.542L535.186 264.043H542.686V230.542H535.194Z" fill="#959DA8"/>
<path d="M534.326 230.07V264.515H525.883L525.892 230.07H534.326Z" fill="#F4F5F6"/>
<path fill-rule="evenodd" clip-rule="evenodd" d="M525.423 229.599H534.801V264.986H525.414L525.423 229.599ZM526.366 230.542L526.358 264.043H533.857V230.542H526.366Z" fill="#959DA8"/>
<path d="M525.497 230.07V264.515H519.703L519.712 230.07H525.497Z" fill="#F4F5F6"/>
<path fill-rule="evenodd" clip-rule="evenodd" d="M519.24 229.599H525.968V264.986H519.23L519.24 229.599ZM520.183 230.542L520.174 264.043H525.024V230.542H520.183Z" fill="#959DA8"/>
<path d="M551.992 230.07H543.363V264.515H551.992V230.07Z" fill="#F4F5F6"/>
<path fill-rule="evenodd" clip-rule="evenodd" d="M542.891 229.599H552.463V264.986H542.891V229.599ZM543.834 230.542V264.043H551.519V230.542H543.834Z" fill="#959DA8"/>
<path d="M560.824 230.07H552.195V264.515H560.824V230.07Z" fill="#F4F5F6"/>
<path fill-rule="evenodd" clip-rule="evenodd" d="M551.723 229.599H561.295V264.986H551.723V229.599ZM552.666 230.542V264.043H560.351V230.542H552.666Z" fill="#959DA8"/>
<path d="M569.652 230.07H561.023V264.515H569.652V230.07Z" fill="#F4F5F6"/>
<path fill-rule="evenodd" clip-rule="evenodd" d="M560.551 229.599H570.123V264.986H560.551V229.599ZM561.494 230.542V264.043H569.18V230.542H561.494Z" fill="#959DA8"/>
<path d="M578.488 230.07H569.859V264.515H578.488V230.07Z" fill="#F4F5F6"/>
<path fill-rule="evenodd" clip-rule="evenodd" d="M569.387 229.599H578.959V264.986H569.387V229.599ZM570.33 230.542V264.043H578.015V230.542H570.33Z" fill="#959DA8"/>
<path d="M587.316 230.07H578.688V264.515H587.316V230.07Z" fill="#F4F5F6"/>
<path fill-rule="evenodd" clip-rule="evenodd" d="M578.219 229.599H587.791V264.986H578.219V229.599ZM579.162 230.542V264.043H586.847V230.542H579.162Z" fill="#959DA8"/>
<path d="M596.148 230.07H587.52V264.515H596.148V230.07Z" fill="#F4F5F6"/>
<path fill-rule="evenodd" clip-rule="evenodd" d="M587.047 229.599H596.619V264.986H587.047V229.599ZM587.99 230.542V264.043H595.676V230.542H587.99Z" fill="#959DA8"/>
<path d="M604.984 230.07H596.355V264.515H604.984V230.07Z" fill="#F4F5F6"/>
<path fill-rule="evenodd" clip-rule="evenodd" d="M595.883 229.599H605.455V264.986H595.883V229.599ZM596.826 230.542V264.043H604.512V230.542H596.826Z" fill="#959DA8"/>
<path d="M613.812 230.07H605.184V264.515H613.812V230.07Z" fill="#F4F5F6"/>
<path fill-rule="evenodd" clip-rule="evenodd" d="M604.711 229.599H614.283V264.986H604.711V229.599ZM605.654 230.542V264.043H613.34V230.542H605.654Z" fill="#959DA8"/>
<path d="M622.644 230.07H614.016V264.515H622.644V230.07Z" fill="#F4F5F6"/>
<path fill-rule="evenodd" clip-rule="evenodd" d="M613.547 229.599H623.119V264.986H613.547V229.599ZM614.49 230.542V264.043H622.176V230.542H614.49Z" fill="#959DA8"/>
<path d="M389.482 230.07V264.515H381.039L381.048 230.07H389.482Z" fill="#F4F5F6"/>
<path fill-rule="evenodd" clip-rule="evenodd" d="M380.579 229.599H389.957V264.986H380.57L380.579 229.599ZM381.523 230.542L381.514 264.043H389.014V230.542H381.523Z" fill="#959DA8"/>
<path d="M398.316 230.07H389.688V264.515H398.316V230.07Z" fill="#F4F5F6"/>
<path fill-rule="evenodd" clip-rule="evenodd" d="M389.215 229.599H398.787V264.986H389.215V229.599ZM390.158 230.542V264.043H397.844V230.542H390.158Z" fill="#959DA8"/>
<path d="M407.152 230.07H398.523V264.515H407.152V230.07Z" fill="#F4F5F6"/>
<path fill-rule="evenodd" clip-rule="evenodd" d="M398.051 229.599H407.623V264.986H398.051V229.599ZM398.994 230.542V264.043H406.68V230.542H398.994Z" fill="#959DA8"/>
<path d="M415.976 230.07H407.348V264.515H415.976V230.07Z" fill="#F4F5F6"/>
<path fill-rule="evenodd" clip-rule="evenodd" d="M406.875 229.599H416.447V264.986H406.875V229.599ZM407.818 230.542V264.043H415.504V230.542H407.818Z" fill="#959DA8"/>
<path d="M424.812 230.07H416.184V264.515H424.812V230.07Z" fill="#F4F5F6"/>
<path fill-rule="evenodd" clip-rule="evenodd" d="M415.711 229.599H425.283V264.986H415.711V229.599ZM416.654 230.542V264.043H424.34V230.542H416.654Z" fill="#959DA8"/>
<path d="M433.644 230.07H425.016V264.515H433.644V230.07Z" fill="#F4F5F6"/>
<path fill-rule="evenodd" clip-rule="evenodd" d="M424.543 229.599H434.115V264.986H424.543V229.599ZM425.486 230.542V264.043H433.172V230.542H425.486Z" fill="#959DA8"/>
<path d="M442.472 230.07H433.844V264.515H442.472V230.07Z" fill="#F4F5F6"/>
<path fill-rule="evenodd" clip-rule="evenodd" d="M433.375 229.599H442.947V264.986H433.375V229.599ZM434.318 230.542V264.043H442.004V230.542H434.318Z" fill="#959DA8"/>
<path d="M451.308 264.515H442.68V230.07H451.308" fill="#F4F5F6"/>
<path fill-rule="evenodd" clip-rule="evenodd" d="M442.207 229.599H451.307V230.542H443.15V264.043H451.307V264.986H442.207V229.599Z" fill="#959DA8"/>
<path d="M310 230.07H301.371V264.515H310V230.07Z" fill="#F4F5F6"/>
<path fill-rule="evenodd" clip-rule="evenodd" d="M300.898 229.599H310.471V264.986H300.898V229.599ZM301.842 230.542V264.043H309.527V230.542H301.842Z" fill="#959DA8"/>
<path d="M301.164 230.07H292.535V264.515H301.164V230.07Z" fill="#F4F5F6"/>
<path fill-rule="evenodd" clip-rule="evenodd" d="M292.066 229.599H301.639V264.986H292.066V229.599ZM293.01 230.542V264.043H300.695V230.542H293.01Z" fill="#959DA8"/>
<path d="M318.832 230.07H310.203V264.515H318.832V230.07Z" fill="#F4F5F6"/>
<path fill-rule="evenodd" clip-rule="evenodd" d="M309.73 229.599H319.303V264.986H309.73V229.599ZM310.674 230.542V264.043H318.359V230.542H310.674Z" fill="#959DA8"/>
<path d="M327.66 230.07H319.031V264.515H327.66V230.07Z" fill="#F4F5F6"/>
<path fill-rule="evenodd" clip-rule="evenodd" d="M318.559 229.599H328.131V264.986H318.559V229.599ZM319.502 230.542V264.043H327.187V230.542H319.502Z" fill="#959DA8"/>
<path d="M336.496 230.07H327.867V264.515H336.496V230.07Z" fill="#F4F5F6"/>
<path fill-rule="evenodd" clip-rule="evenodd" d="M327.395 229.599H336.967V264.986H327.395V229.599ZM328.338 230.542V264.043H336.023V230.542H328.338Z" fill="#959DA8"/>
<path d="M345.324 230.07H336.695V264.515H345.324V230.07Z" fill="#F4F5F6"/>
<path fill-rule="evenodd" clip-rule="evenodd" d="M336.227 229.599H345.799V264.986H336.227V229.599ZM337.17 230.542V264.043H344.855V230.542H337.17Z" fill="#959DA8"/>
<path d="M354.156 230.07H345.527V264.515H354.156V230.07Z" fill="#F4F5F6"/>
<path fill-rule="evenodd" clip-rule="evenodd" d="M345.055 229.599H354.627V264.986H345.055V229.599ZM345.998 230.542V264.043H353.683V230.542H345.998Z" fill="#959DA8"/>
<path d="M362.992 230.07H354.363V264.515H362.992V230.07Z" fill="#F4F5F6"/>
<path fill-rule="evenodd" clip-rule="evenodd" d="M353.891 229.599H363.463V264.986H353.891V229.599ZM354.834 230.542V264.043H362.519V230.542H354.834Z" fill="#959DA8"/>
<path d="M371.82 230.07H363.191V264.515H371.82V230.07Z" fill="#F4F5F6"/>
<path fill-rule="evenodd" clip-rule="evenodd" d="M362.719 229.599H372.291V264.986H362.719V229.599ZM363.662 230.542V264.043H371.347V230.542H363.662Z" fill="#959DA8"/>
<path d="M380.652 230.07H372.023V264.515H380.652V230.07Z" fill="#F4F5F6"/>
<path fill-rule="evenodd" clip-rule="evenodd" d="M371.555 229.599H381.127V264.986H371.555V229.599ZM372.498 230.542V264.043H380.183V230.542H372.498Z" fill="#959DA8"/>
<path d="M158.975 230.07V264.515H150.531L150.54 230.07H158.975Z" fill="#F4F5F6"/>
<path fill-rule="evenodd" clip-rule="evenodd" d="M150.068 229.599H159.445V264.986H150.059L150.068 229.599ZM151.011 230.542L151.002 264.043H158.502V230.542H151.011Z" fill="#959DA8"/>
<path d="M167.805 230.07H159.176V264.515H167.805V230.07Z" fill="#F4F5F6"/>
<path fill-rule="evenodd" clip-rule="evenodd" d="M158.707 229.599H168.279V264.986H158.707V229.599ZM159.65 230.542V264.043H167.336V230.542H159.65Z" fill="#959DA8"/>
<path d="M176.633 230.07H168.004V264.515H176.633V230.07Z" fill="#F4F5F6"/>
<path fill-rule="evenodd" clip-rule="evenodd" d="M167.535 229.599H177.107V264.986H167.535V229.599ZM168.479 230.542V264.043H176.164V230.542H168.479Z" fill="#959DA8"/>
<path d="M185.469 230.07H176.84V264.515H185.469V230.07Z" fill="#F4F5F6"/>
<path fill-rule="evenodd" clip-rule="evenodd" d="M176.367 229.599H185.939V264.986H176.367V229.599ZM177.311 230.542V264.043H184.996V230.542H177.311Z" fill="#959DA8"/>
<path d="M194.301 230.07H185.672V264.515H194.301V230.07Z" fill="#F4F5F6"/>
<path fill-rule="evenodd" clip-rule="evenodd" d="M185.199 229.599H194.771V264.986H185.199V229.599ZM186.143 230.542V264.043H193.828V230.542H186.143Z" fill="#959DA8"/>
<path d="M203.133 230.07H194.504V264.515H203.133V230.07Z" fill="#F4F5F6"/>
<path fill-rule="evenodd" clip-rule="evenodd" d="M194.031 229.599H203.603V264.986H194.031V229.599ZM194.975 230.542V264.043H202.66V230.542H194.975Z" fill="#959DA8"/>
<path d="M211.965 230.07H203.336V264.515H211.965V230.07Z" fill="#F4F5F6"/>
<path fill-rule="evenodd" clip-rule="evenodd" d="M202.863 229.599H212.435V264.986H202.863V229.599ZM203.807 230.542V264.043H211.492V230.542H203.807Z" fill="#959DA8"/>
<path d="M220.44 230.07H212.164V264.515H220.44V230.07Z" fill="#F4F5F6"/>
<path fill-rule="evenodd" clip-rule="evenodd" d="M211.746 229.65H220.861V264.934H211.746V229.65ZM212.586 230.49V264.095H220.022V230.49H212.586Z" fill="#959DA8"/>
<path d="M79.4881 230.07H70.8594V264.515H79.4881V230.07Z" fill="#F4F5F6"/>
<path fill-rule="evenodd" clip-rule="evenodd" d="M70.3867 229.599H79.9589V264.986H70.3867V229.599ZM71.3302 230.542V264.043H79.0155V230.542H71.3302Z" fill="#959DA8"/>
<path d="M70.6522 230.07H62.0234V264.515H70.6522V230.07Z" fill="#F4F5F6"/>
<path fill-rule="evenodd" clip-rule="evenodd" d="M61.5547 229.599H71.1269V264.986H61.5547V229.599ZM62.4981 230.542V264.043H70.1834V230.542H62.4981Z" fill="#959DA8"/>
<path d="M88.3123 230.07H79.6836V264.515H88.3123V230.07Z" fill="#F4F5F6"/>
<path fill-rule="evenodd" clip-rule="evenodd" d="M79.2148 229.599H88.787V264.986H79.2148V229.599ZM80.1583 230.542V264.043H87.8436V230.542H80.1583Z" fill="#959DA8"/>
<path d="M97.1522 230.07H88.5234V264.515H97.1522V230.07Z" fill="#F4F5F6"/>
<path fill-rule="evenodd" clip-rule="evenodd" d="M88.0508 229.599H97.623V264.986H88.0508V229.599ZM88.9942 230.542V264.043H96.6795V230.542H88.9942Z" fill="#959DA8"/>
<path d="M105.984 230.07H97.3555V264.515H105.984V230.07Z" fill="#F4F5F6"/>
<path fill-rule="evenodd" clip-rule="evenodd" d="M96.8828 229.599H106.455V264.986H96.8828V229.599ZM97.8263 230.542V264.043H105.512V230.542H97.8263Z" fill="#959DA8"/>
<path d="M114.812 230.07H106.184V264.515H114.812V230.07Z" fill="#F4F5F6"/>
<path fill-rule="evenodd" clip-rule="evenodd" d="M105.711 229.599H115.283V264.986H105.711V229.599ZM106.654 230.542V264.043H114.34V230.542H106.654Z" fill="#959DA8"/>
<path d="M123.648 230.07H115.02V264.515H123.648V230.07Z" fill="#F4F5F6"/>
<path fill-rule="evenodd" clip-rule="evenodd" d="M114.547 229.599H124.119V264.986H114.547V229.599ZM115.49 230.542V264.043H123.176V230.542H115.49Z" fill="#959DA8"/>
<path d="M132.472 230.07H123.844V264.515H132.472V230.07Z" fill="#F4F5F6"/>
<path fill-rule="evenodd" clip-rule="evenodd" d="M123.375 229.599H132.947V264.986H123.375V229.599ZM124.318 230.542V264.043H132.004V230.542H124.318Z" fill="#959DA8"/>
<path d="M141.312 230.07H132.684V264.515H141.312V230.07Z" fill="#F4F5F6"/>
<path fill-rule="evenodd" clip-rule="evenodd" d="M132.211 229.599H141.783V264.986H132.211V229.599ZM133.154 230.542V264.043H140.84V230.542H133.154Z" fill="#959DA8"/>
<path d="M150.14 230.07H141.512V264.515H150.14V230.07Z" fill="#F4F5F6"/>
<path fill-rule="evenodd" clip-rule="evenodd" d="M141.039 229.599H150.611V264.986H141.039V229.599ZM141.983 230.542V264.043H149.668V230.542H141.983Z" fill="#959DA8"/>
<path d="M596.15 105.539V139.983H587.707L587.716 105.539H596.15Z" fill="#F4F5F6"/>
<path fill-rule="evenodd" clip-rule="evenodd" d="M587.243 105.067H596.621V140.455H587.234L587.243 105.067ZM588.187 106.011L588.178 139.511H595.678V106.011H588.187Z" fill="#959DA8"/>
<path d="M604.984 105.539H596.355V139.983H604.984V105.539Z" fill="#F4F5F6"/>
<path fill-rule="evenodd" clip-rule="evenodd" d="M595.883 105.067H605.455V140.455H595.883V105.067ZM596.826 106.011V139.511H604.512V106.011H596.826Z" fill="#959DA8"/>
<path d="M613.812 105.539H605.184V139.983H613.812V105.539Z" fill="#F4F5F6"/>
<path fill-rule="evenodd" clip-rule="evenodd" d="M604.711 105.067H614.283V140.455H604.711V105.067ZM605.654 106.011V139.511H613.34V106.011H605.654Z" fill="#959DA8"/>
<path d="M622.644 105.539H614.016V139.983H622.644V105.539Z" fill="#F4F5F6"/>
<path fill-rule="evenodd" clip-rule="evenodd" d="M613.547 105.067H623.119V140.455H613.547V105.067ZM614.49 106.011V139.511H622.176V106.011H614.49Z" fill="#959DA8"/>
<path d="M631.476 105.539H622.848V139.983H631.476V105.539Z" fill="#F4F5F6"/>
<path fill-rule="evenodd" clip-rule="evenodd" d="M622.379 105.067H631.951V140.455H622.379V105.067ZM623.322 106.011V139.511H631.008V106.011H623.322Z" fill="#959DA8"/>
<path d="M640.308 105.539H631.68V139.983H640.308V105.539Z" fill="#F4F5F6"/>
<path fill-rule="evenodd" clip-rule="evenodd" d="M631.211 105.067H640.783V140.455H631.211V105.067ZM632.154 106.011V139.511H639.84V106.011H632.154Z" fill="#959DA8"/>
<path d="M649.14 105.539H640.512V139.983H649.14V105.539Z" fill="#F4F5F6"/>
<path fill-rule="evenodd" clip-rule="evenodd" d="M640.039 105.067H649.611V140.455H640.039V105.067ZM640.983 106.011V139.511H648.668V106.011H640.983Z" fill="#959DA8"/>
<path d="M657.972 105.539H649.344V139.983H657.972V105.539Z" fill="#F4F5F6"/>
<path fill-rule="evenodd" clip-rule="evenodd" d="M648.871 105.067H658.443V140.455H648.871V105.067ZM649.815 106.011V139.511H657.5V106.011H649.815Z" fill="#959DA8"/>
<path d="M666.805 105.539H658.176V139.983H666.805V105.539Z" fill="#F4F5F6"/>
<path fill-rule="evenodd" clip-rule="evenodd" d="M657.703 105.067H667.275V140.455H657.703V105.067ZM658.647 106.011V139.511H666.332V106.011H658.647Z" fill="#959DA8"/>
<path d="M507.834 105.539V139.983H499.391L499.399 105.539H507.834Z" fill="#F4F5F6"/>
<path fill-rule="evenodd" clip-rule="evenodd" d="M498.927 105.067H508.305V140.455H498.918L498.927 105.067ZM499.87 106.011L499.862 139.511H507.361V106.011H499.87Z" fill="#959DA8"/>
<path d="M516.664 105.539H508.035V139.983H516.664V105.539Z" fill="#F4F5F6"/>
<path fill-rule="evenodd" clip-rule="evenodd" d="M507.562 105.067H517.135V140.455H507.562V105.067ZM508.506 106.011V139.511H516.191V106.011H508.506Z" fill="#959DA8"/>
<path d="M525.492 105.539H516.863V139.983H525.492V105.539Z" fill="#F4F5F6"/>
<path fill-rule="evenodd" clip-rule="evenodd" d="M516.391 105.067H525.963V140.455H516.391V105.067ZM517.334 106.011V139.511H525.019V106.011H517.334Z" fill="#959DA8"/>
<path d="M534.328 105.539H525.699V139.983H534.328V105.539Z" fill="#F4F5F6"/>
<path fill-rule="evenodd" clip-rule="evenodd" d="M525.227 105.067H534.799V140.455H525.227V105.067ZM526.17 106.011V139.511H533.855V106.011H526.17Z" fill="#959DA8"/>
<path d="M543.156 105.539H534.527V139.983H543.156V105.539Z" fill="#F4F5F6"/>
<path fill-rule="evenodd" clip-rule="evenodd" d="M534.059 105.067H543.631V140.455H534.059V105.067ZM535.002 106.011V139.511H542.687V106.011H535.002Z" fill="#959DA8"/>
<path d="M551.992 105.539H543.363V139.983H551.992V105.539Z" fill="#F4F5F6"/>
<path fill-rule="evenodd" clip-rule="evenodd" d="M542.891 105.067H552.463V140.455H542.891V105.067ZM543.834 106.011V139.511H551.519V106.011H543.834Z" fill="#959DA8"/>
<path d="M560.824 105.539H552.195V139.983H560.824V105.539Z" fill="#F4F5F6"/>
<path fill-rule="evenodd" clip-rule="evenodd" d="M551.723 105.067H561.295V140.455H551.723V105.067ZM552.666 106.011V139.511H560.351V106.011H552.666Z" fill="#959DA8"/>
<path d="M569.652 105.539H561.023V139.983H569.652V105.539Z" fill="#F4F5F6"/>
<path fill-rule="evenodd" clip-rule="evenodd" d="M560.551 105.067H570.123V140.455H560.551V105.067ZM561.494 106.011V139.511H569.18V106.011H561.494Z" fill="#959DA8"/>
<path d="M578.488 105.539H569.859V139.983H578.488V105.539Z" fill="#F4F5F6"/>
<path fill-rule="evenodd" clip-rule="evenodd" d="M569.387 105.067H578.959V140.455H569.387V105.067ZM570.33 106.011V139.511H578.015V106.011H570.33Z" fill="#959DA8"/>
<path d="M587.316 105.539H578.688V139.983H587.316V105.539Z" fill="#F4F5F6"/>
<path fill-rule="evenodd" clip-rule="evenodd" d="M578.219 105.067H587.791V140.455H578.219V105.067ZM579.162 106.011V139.511H586.847V106.011H579.162Z" fill="#959DA8"/>
<path d="M420.396 105.539V139.983H411.953L411.962 105.539H420.396Z" fill="#F4F5F6"/>
<path fill-rule="evenodd" clip-rule="evenodd" d="M411.49 105.067H420.867V140.455H411.48L411.49 105.067ZM412.433 106.011L412.424 139.511H419.924V106.011H412.433Z" fill="#959DA8"/>
<path d="M429.226 105.539H420.598V139.983H429.226V105.539Z" fill="#F4F5F6"/>
<path fill-rule="evenodd" clip-rule="evenodd" d="M420.125 105.067H429.697V140.455H420.125V105.067ZM421.068 106.011V139.511H428.754V106.011H421.068Z" fill="#959DA8"/>
<path d="M438.062 105.539H429.434V139.983H438.062V105.539Z" fill="#F4F5F6"/>
<path fill-rule="evenodd" clip-rule="evenodd" d="M428.961 105.067H438.533V140.455H428.961V105.067ZM429.904 106.011V139.511H437.59V106.011H429.904Z" fill="#959DA8"/>
<path d="M446.89 105.539H438.262V139.983H446.89V105.539Z" fill="#F4F5F6"/>
<path fill-rule="evenodd" clip-rule="evenodd" d="M437.789 105.067H447.361V140.455H437.789V105.067ZM438.733 106.011V139.511H446.418V106.011H438.733Z" fill="#959DA8"/>
<path d="M455.722 105.539H447.094V139.983H455.722V105.539Z" fill="#F4F5F6"/>
<path fill-rule="evenodd" clip-rule="evenodd" d="M446.625 105.067H456.197V140.455H446.625V105.067ZM447.568 106.011V139.511H455.254V106.011H447.568Z" fill="#959DA8"/>
<path d="M464.555 105.539H455.926V139.983H464.555V105.539Z" fill="#F4F5F6"/>
<path fill-rule="evenodd" clip-rule="evenodd" d="M455.457 105.067H465.029V140.455H455.457V105.067ZM456.4 106.011V139.511H464.086V106.011H456.4Z" fill="#959DA8"/>
<path d="M473.387 105.539H464.758V139.983H473.387V105.539Z" fill="#F4F5F6"/>
<path fill-rule="evenodd" clip-rule="evenodd" d="M464.285 105.067H473.857V140.455H464.285V105.067ZM465.229 106.011V139.511H472.914V106.011H465.229Z" fill="#959DA8"/>
<path d="M482.219 105.539H473.59V139.983H482.219V105.539Z" fill="#F4F5F6"/>
<path fill-rule="evenodd" clip-rule="evenodd" d="M473.117 105.067H482.689V140.455H473.117V105.067ZM474.061 106.011V139.511H481.746V106.011H474.061Z" fill="#959DA8"/>
<path d="M491.051 105.539H482.422V139.983H491.051V105.539Z" fill="#F4F5F6"/>
<path fill-rule="evenodd" clip-rule="evenodd" d="M481.949 105.067H491.521V140.455H481.949V105.067ZM482.893 106.011V139.511H490.578V106.011H482.893Z" fill="#959DA8"/>
<path d="M499.883 105.539H491.254V139.983H499.883V105.539Z" fill="#F4F5F6"/>
<path fill-rule="evenodd" clip-rule="evenodd" d="M490.781 105.067H500.353V140.455H490.781V105.067ZM491.725 106.011V139.511H499.41V106.011H491.725Z" fill="#959DA8"/>
<path d="M332.076 105.539V139.983H323.633L323.642 105.539H332.076Z" fill="#F4F5F6"/>
<path fill-rule="evenodd" clip-rule="evenodd" d="M323.169 105.067H332.547V140.455H323.16L323.169 105.067ZM324.112 106.011L324.104 139.511H331.604V106.011H324.112Z" fill="#959DA8"/>
<path d="M340.91 105.539H332.281V139.983H340.91V105.539Z" fill="#F4F5F6"/>
<path fill-rule="evenodd" clip-rule="evenodd" d="M331.809 105.067H341.381V140.455H331.809V105.067ZM332.752 106.011V139.511H340.437V106.011H332.752Z" fill="#959DA8"/>
<path d="M349.742 105.539H341.113V139.983H349.742V105.539Z" fill="#F4F5F6"/>
<path fill-rule="evenodd" clip-rule="evenodd" d="M340.641 105.067H350.213V140.455H340.641V105.067ZM341.584 106.011V139.511H349.269V106.011H341.584Z" fill="#959DA8"/>
<path d="M358.57 105.539H349.941V139.983H358.57V105.539Z" fill="#F4F5F6"/>
<path fill-rule="evenodd" clip-rule="evenodd" d="M349.473 105.067H359.045V140.455H349.473V105.067ZM350.416 106.011V139.511H358.101V106.011H350.416Z" fill="#959DA8"/>
<path d="M367.406 105.539H358.777V139.983H367.406V105.539Z" fill="#F4F5F6"/>
<path fill-rule="evenodd" clip-rule="evenodd" d="M358.305 105.067H367.877V140.455H358.305V105.067ZM359.248 106.011V139.511H366.933V106.011H359.248Z" fill="#959DA8"/>
<path d="M376.238 105.539H367.609V139.983H376.238V105.539Z" fill="#F4F5F6"/>
<path fill-rule="evenodd" clip-rule="evenodd" d="M367.137 105.067H376.709V140.455H367.137V105.067ZM368.08 106.011V139.511H375.765V106.011H368.08Z" fill="#959DA8"/>
<path d="M385.066 105.539H376.438V139.983H385.066V105.539Z" fill="#F4F5F6"/>
<path fill-rule="evenodd" clip-rule="evenodd" d="M375.965 105.067H385.537V140.455H375.965V105.067ZM376.908 106.011V139.511H384.594V106.011H376.908Z" fill="#959DA8"/>
<path d="M393.902 105.539H385.273V139.983H393.902V105.539Z" fill="#F4F5F6"/>
<path fill-rule="evenodd" clip-rule="evenodd" d="M384.801 105.067H394.373V140.455H384.801V105.067ZM385.744 106.011V139.511H393.43V106.011H385.744Z" fill="#959DA8"/>
<path d="M402.734 105.539H394.105V139.983H402.734V105.539Z" fill="#F4F5F6"/>
<path fill-rule="evenodd" clip-rule="evenodd" d="M393.633 105.067H403.205V140.455H393.633V105.067ZM394.576 106.011V139.511H402.262V106.011H394.576Z" fill="#959DA8"/>
<path d="M411.562 105.539H402.934V139.983H411.562V105.539Z" fill="#F4F5F6"/>
<path fill-rule="evenodd" clip-rule="evenodd" d="M402.465 105.067H412.037V140.455H402.465V105.067ZM403.408 106.011V139.511H411.094V106.011H403.408Z" fill="#959DA8"/>
<path d="M243.76 105.539V139.983H235.316L235.325 105.539H243.76Z" fill="#F4F5F6"/>
<path fill-rule="evenodd" clip-rule="evenodd" d="M234.853 105.067H244.231V140.455H234.844L234.853 105.067ZM235.796 106.011L235.787 139.511H243.287V106.011H235.796Z" fill="#959DA8"/>
<path d="M252.59 105.539H243.961V139.983H252.59V105.539Z" fill="#F4F5F6"/>
<path fill-rule="evenodd" clip-rule="evenodd" d="M243.488 105.067H253.06V140.455H243.488V105.067ZM244.432 106.011V139.511H252.117V106.011H244.432Z" fill="#959DA8"/>
<path d="M261.422 105.539H252.793V139.983H261.422V105.539Z" fill="#F4F5F6"/>
<path fill-rule="evenodd" clip-rule="evenodd" d="M252.324 105.067H261.896V140.455H252.324V105.067ZM253.268 106.011V139.511H260.953V106.011H253.268Z" fill="#959DA8"/>
<path d="M270.254 105.539H261.625V139.983H270.254V105.539Z" fill="#F4F5F6"/>
<path fill-rule="evenodd" clip-rule="evenodd" d="M261.152 105.067H270.725V140.455H261.152V105.067ZM262.096 106.011V139.511H269.781V106.011H262.096Z" fill="#959DA8"/>
<path d="M279.086 105.539H270.457V139.983H279.086V105.539Z" fill="#F4F5F6"/>
<path fill-rule="evenodd" clip-rule="evenodd" d="M269.988 105.067H279.56V140.455H269.988V105.067ZM270.932 106.011V139.511H278.617V106.011H270.932Z" fill="#959DA8"/>
<path d="M287.918 105.539H279.289V139.983H287.918V105.539Z" fill="#F4F5F6"/>
<path fill-rule="evenodd" clip-rule="evenodd" d="M278.816 105.067H288.389V140.455H278.816V105.067ZM279.76 106.011V139.511H287.445V106.011H279.76Z" fill="#959DA8"/>
<path d="M296.75 105.539H288.121V139.983H296.75V105.539Z" fill="#F4F5F6"/>
<path fill-rule="evenodd" clip-rule="evenodd" d="M287.648 105.067H297.221V140.455H287.648V105.067ZM288.592 106.011V139.511H296.277V106.011H288.592Z" fill="#959DA8"/>
<path d="M305.582 105.539H296.953V139.983H305.582V105.539Z" fill="#F4F5F6"/>
<path fill-rule="evenodd" clip-rule="evenodd" d="M296.48 105.067H306.053V140.455H296.48V105.067ZM297.424 106.011V139.511H305.109V106.011H297.424Z" fill="#959DA8"/>
<path d="M314.414 105.539H305.785V139.983H314.414V105.539Z" fill="#F4F5F6"/>
<path fill-rule="evenodd" clip-rule="evenodd" d="M305.312 105.067H314.885V140.455H305.312V105.067ZM306.256 106.011V139.511H313.941V106.011H306.256Z" fill="#959DA8"/>
<path d="M323.246 105.539H314.617V139.983H323.246V105.539Z" fill="#F4F5F6"/>
<path fill-rule="evenodd" clip-rule="evenodd" d="M314.145 105.067H323.717V140.455H314.145V105.067ZM315.088 106.011V139.511H322.773V106.011H315.088Z" fill="#959DA8"/>
<path d="M155.443 105.539V139.983H147L147.009 105.539H155.443Z" fill="#F4F5F6"/>
<path fill-rule="evenodd" clip-rule="evenodd" d="M146.536 105.067H155.914V140.455H146.527L146.536 105.067ZM147.48 106.011L147.471 139.511H154.971V106.011H147.48Z" fill="#959DA8"/>
<path d="M164.273 105.539H155.645V139.983H164.273V105.539Z" fill="#F4F5F6"/>
<path fill-rule="evenodd" clip-rule="evenodd" d="M155.172 105.067H164.744V140.455H155.172V105.067ZM156.115 106.011V139.511H163.801V106.011H156.115Z" fill="#959DA8"/>
<path d="M173.105 105.539H164.477V139.983H173.105V105.539Z" fill="#F4F5F6"/>
<path fill-rule="evenodd" clip-rule="evenodd" d="M164.004 105.067H173.576V140.455H164.004V105.067ZM164.947 106.011V139.511H172.633V106.011H164.947Z" fill="#959DA8"/>
<path d="M181.933 105.539H173.305V139.983H181.933V105.539Z" fill="#F4F5F6"/>
<path fill-rule="evenodd" clip-rule="evenodd" d="M172.836 105.067H182.408V140.455H172.836V105.067ZM173.779 106.011V139.511H181.465V106.011H173.779Z" fill="#959DA8"/>
<path d="M190.769 105.539H182.141V139.983H190.769V105.539Z" fill="#F4F5F6"/>
<path fill-rule="evenodd" clip-rule="evenodd" d="M181.668 105.067H191.24V140.455H181.668V105.067ZM182.611 106.011V139.511H190.297V106.011H182.611Z" fill="#959DA8"/>
<path d="M199.597 105.539H190.969V139.983H199.597V105.539Z" fill="#F4F5F6"/>
<path fill-rule="evenodd" clip-rule="evenodd" d="M190.496 105.067H200.068V140.455H190.496V105.067ZM191.44 106.011V139.511H199.125V106.011H191.44Z" fill="#959DA8"/>
<path d="M208.433 105.539H199.805V139.983H208.433V105.539Z" fill="#F4F5F6"/>
<path fill-rule="evenodd" clip-rule="evenodd" d="M199.332 105.067H208.904V140.455H199.332V105.067ZM200.275 106.011V139.511H207.961V106.011H200.275Z" fill="#959DA8"/>
<path d="M217.265 105.539H208.637V139.983H217.265V105.539Z" fill="#F4F5F6"/>
<path fill-rule="evenodd" clip-rule="evenodd" d="M208.164 105.067H217.736V140.455H208.164V105.067ZM209.108 106.011V139.511H216.793V106.011H209.108Z" fill="#959DA8"/>
<path d="M226.094 105.539H217.465V139.983H226.094V105.539Z" fill="#F4F5F6"/>
<path fill-rule="evenodd" clip-rule="evenodd" d="M216.992 105.067H226.564V140.455H216.992V105.067ZM217.936 106.011V139.511H225.621V106.011H217.936Z" fill="#959DA8"/>
<path d="M234.926 105.539H226.297V139.983H234.926V105.539Z" fill="#F4F5F6"/>
<path fill-rule="evenodd" clip-rule="evenodd" d="M225.828 105.067H235.4V140.455H225.828V105.067ZM226.772 106.011V139.511H234.457V106.011H226.772Z" fill="#959DA8"/>
<path d="M75.9561 105.539H69.0938V139.983H75.9561V105.539Z" fill="#F4F5F6"/>
<path fill-rule="evenodd" clip-rule="evenodd" d="M68.6211 105.067H76.4269V140.455H68.6211V105.067ZM69.5645 106.011V139.511H75.4835V106.011H69.5645Z" fill="#959DA8"/>
<path d="M84.785 105.539H76.1562V139.983H84.785V105.539Z" fill="#F4F5F6"/>
<path fill-rule="evenodd" clip-rule="evenodd" d="M75.6836 105.067H85.2558V140.455H75.6836V105.067ZM76.627 106.011V139.511H84.3123V106.011H76.627Z" fill="#959DA8"/>
<path d="M93.617 105.539H84.9883V139.983H93.617V105.539Z" fill="#F4F5F6"/>
<path fill-rule="evenodd" clip-rule="evenodd" d="M84.5156 105.067H94.0878V140.455H84.5156V105.067ZM85.4591 106.011V139.511H93.1444V106.011H85.4591Z" fill="#959DA8"/>
<path d="M102.453 105.539H93.8242V139.983H102.453V105.539Z" fill="#F4F5F6"/>
<path fill-rule="evenodd" clip-rule="evenodd" d="M93.3516 105.067H102.924V140.455H93.3516V105.067ZM94.295 106.011V139.511H101.98V106.011H94.295Z" fill="#959DA8"/>
<path d="M111.277 105.539H102.648V139.983H111.277V105.539Z" fill="#F4F5F6"/>
<path fill-rule="evenodd" clip-rule="evenodd" d="M102.176 105.067H111.748V140.455H102.176V105.067ZM103.119 106.011V139.511H110.805V106.011H103.119Z" fill="#959DA8"/>
<path d="M120.113 105.539H111.484V139.983H120.113V105.539Z" fill="#F4F5F6"/>
<path fill-rule="evenodd" clip-rule="evenodd" d="M111.016 105.067H120.588V140.455H111.016V105.067ZM111.959 106.011V139.511H119.644V106.011H111.959Z" fill="#959DA8"/>
<path d="M128.945 105.539H120.316V139.983H128.945V105.539Z" fill="#F4F5F6"/>
<path fill-rule="evenodd" clip-rule="evenodd" d="M119.844 105.067H129.416V140.455H119.844V105.067ZM120.787 106.011V139.511H128.472V106.011H120.787Z" fill="#959DA8"/>
<path d="M137.773 105.539H129.145V139.983H137.773V105.539Z" fill="#F4F5F6"/>
<path fill-rule="evenodd" clip-rule="evenodd" d="M128.676 105.067H138.248V140.455H128.676V105.067ZM129.619 106.011V139.511H137.305V106.011H129.619Z" fill="#959DA8"/>
<path d="M146.609 105.539H137.98V139.983H146.609V105.539Z" fill="#F4F5F6"/>
<path fill-rule="evenodd" clip-rule="evenodd" d="M137.508 105.067H147.08V140.455H137.508V105.067ZM138.451 106.011V139.511H146.137V106.011H138.451Z" fill="#959DA8"/>
<path fill-rule="evenodd" clip-rule="evenodd" d="M68.0391 104.595H667.843V140.927H68.0391V104.595ZM69.9259 106.482V139.04H665.956V106.482H69.9259Z" fill="#959DA8"/>
<path fill-rule="evenodd" clip-rule="evenodd" d="M289.711 229.127H453.221V265.458H289.711V229.127ZM291.598 231.014V263.571H451.334V231.014H291.598Z" fill="#959DA8"/>
<path fill-rule="evenodd" clip-rule="evenodd" d="M519.336 229.122H685.063V265.463H519.336V229.122ZM521.232 231.018V263.566H683.167V231.018H521.232Z" fill="#959DA8"/>
<path d="M494.654 333.774C495.205 331.192 495.178 328.521 494.576 325.952C493.974 323.382 492.811 320.977 491.172 318.909C489.532 316.841 487.455 315.161 485.091 313.989C482.726 312.817 480.131 312.182 477.492 312.13C474.854 312.078 472.236 312.609 469.827 313.686C467.417 314.764 465.276 316.36 463.555 318.361C461.835 320.363 460.578 322.719 459.874 325.263C459.171 327.807 459.038 330.475 459.486 333.076C457.528 334.028 455.799 335.392 454.417 337.074C453.035 338.756 452.032 340.716 451.477 342.821C450.922 344.926 450.827 347.126 451.2 349.271C451.573 351.416 452.404 353.455 453.638 355.249C454.871 357.043 456.476 358.55 458.345 359.667C460.214 360.783 462.302 361.484 464.466 361.72C466.63 361.955 468.82 361.722 470.885 361.034C472.951 360.346 474.843 359.221 476.434 357.734C477.98 359.18 479.812 360.285 481.811 360.978C483.811 361.672 485.934 361.938 488.043 361.759C490.152 361.581 492.2 360.962 494.054 359.943C495.909 358.923 497.529 357.526 498.81 355.842C500.091 354.157 501.005 352.222 501.491 350.163C501.978 348.103 502.027 345.964 501.635 343.884C501.244 341.804 500.42 339.83 499.217 338.088C498.015 336.347 496.46 334.877 494.654 333.774Z" fill="#80C33F"/>
<path fill-rule="evenodd" clip-rule="evenodd" d="M468.474 343.642C468.618 343.425 468.911 343.366 469.128 343.511L477.386 349.013C477.602 349.157 477.661 349.45 477.517 349.667C477.372 349.884 477.079 349.942 476.863 349.798L468.605 344.296C468.388 344.151 468.329 343.858 468.474 343.642Z" fill="#2A3A51"/>
<path fill-rule="evenodd" clip-rule="evenodd" d="M487.119 347.722C487.288 347.919 487.265 348.217 487.067 348.387L477.423 356.644C477.225 356.814 476.927 356.791 476.758 356.593C476.588 356.395 476.612 356.097 476.809 355.928L486.454 347.67C486.652 347.501 486.95 347.524 487.119 347.722Z" fill="#2A3A51"/>
<path fill-rule="evenodd" clip-rule="evenodd" d="M477.124 332.419C477.385 332.419 477.596 332.63 477.596 332.891V382.446C477.596 382.707 477.385 382.918 477.124 382.918C476.864 382.918 476.652 382.707 476.652 382.446V332.891C476.652 332.63 476.864 332.419 477.124 332.419Z" fill="#2A3A51"/>
<path fill-rule="evenodd" clip-rule="evenodd" d="M223.746 265.458H60.2361V229.126L223.746 229.126V265.458ZM221.859 263.571V231.013L62.123 231.013V263.571H221.859Z" fill="#959DA8"/>
<path d="M596.15 365.198V399.642H587.707L587.716 365.198H596.15Z" fill="#F4F5F6"/>
<path fill-rule="evenodd" clip-rule="evenodd" d="M587.243 364.726H596.621V400.114H587.234L587.243 364.726ZM588.187 365.67L588.178 399.17H595.678V365.67H588.187Z" fill="#959DA8"/>
<path d="M587.318 365.198V399.642H578.875L578.884 365.198H587.318Z" fill="#F4F5F6"/>
<path fill-rule="evenodd" clip-rule="evenodd" d="M578.411 364.726H587.789V400.114H578.402L578.411 364.726ZM579.355 365.67L579.346 399.17H586.846V365.67H579.355Z" fill="#959DA8"/>
<path d="M604.984 365.198H596.355V399.642H604.984V365.198Z" fill="#F4F5F6"/>
<path fill-rule="evenodd" clip-rule="evenodd" d="M595.883 364.726H605.455V400.114H595.883V364.726ZM596.826 365.67V399.17H604.512V365.67H596.826Z" fill="#959DA8"/>
<path d="M613.812 365.198H605.184V399.642H613.812V365.198Z" fill="#F4F5F6"/>
<path fill-rule="evenodd" clip-rule="evenodd" d="M604.711 364.726H614.283V400.114H604.711V364.726ZM605.654 365.67V399.17H613.34V365.67H605.654Z" fill="#959DA8"/>
<path d="M622.644 365.198H614.016V399.642H622.644V365.198Z" fill="#F4F5F6"/>
<path fill-rule="evenodd" clip-rule="evenodd" d="M613.547 364.726H623.119V400.114H613.547V364.726ZM614.49 365.67V399.17H622.176V365.67H614.49Z" fill="#959DA8"/>
<path d="M631.476 365.198H622.848V399.642H631.476V365.198Z" fill="#F4F5F6"/>
<path fill-rule="evenodd" clip-rule="evenodd" d="M622.379 364.726H631.951V400.114H622.379V364.726ZM623.322 365.67V399.17H631.008V365.67H623.322Z" fill="#959DA8"/>
<path d="M640.308 365.198H631.68V399.642H640.308V365.198Z" fill="#F4F5F6"/>
<path fill-rule="evenodd" clip-rule="evenodd" d="M631.211 364.726H640.783V400.114H631.211V364.726ZM632.154 365.67V399.17H639.84V365.67H632.154Z" fill="#959DA8"/>
<path d="M649.14 365.198H640.512V399.642H649.14V365.198Z" fill="#F4F5F6"/>
<path fill-rule="evenodd" clip-rule="evenodd" d="M640.039 364.726H649.611V400.114H640.039V364.726ZM640.983 365.67V399.17H648.668V365.67H640.983Z" fill="#959DA8"/>
<path d="M657.972 365.198H649.344V399.642H657.972V365.198Z" fill="#F4F5F6"/>
<path fill-rule="evenodd" clip-rule="evenodd" d="M648.871 364.726H658.443V400.114H648.871V364.726ZM649.815 365.67V399.17H657.5V365.67H649.815Z" fill="#959DA8"/>
<path d="M666.805 365.198H658.176V399.642H666.805V365.198Z" fill="#F4F5F6"/>
<path fill-rule="evenodd" clip-rule="evenodd" d="M657.703 364.726H667.275V400.114H657.703V364.726ZM658.647 365.67V399.17H666.332V365.67H658.647Z" fill="#959DA8"/>
<path d="M675.637 365.198H667.008V399.642H675.637V365.198Z" fill="#F4F5F6"/>
<path fill-rule="evenodd" clip-rule="evenodd" d="M666.539 364.726H676.111V400.114H666.539V364.726ZM667.483 365.67V399.17H675.168V365.67H667.483Z" fill="#959DA8"/>
<path d="M685.882 365.198H675.84V399.642H685.882V365.198Z" fill="#F4F5F6"/>
<path fill-rule="evenodd" clip-rule="evenodd" d="M675.328 364.688H686.389V400.152H675.328V364.688ZM676.347 365.707V399.133H685.37V365.707H676.347Z" fill="#959DA8"/>
<path d="M507.834 365.198V399.642H499.391L499.399 365.198H507.834Z" fill="#F4F5F6"/>
<path fill-rule="evenodd" clip-rule="evenodd" d="M498.927 364.726H508.305V400.114H498.918L498.927 364.726ZM499.87 365.67L499.862 399.17H507.361V365.67H499.87Z" fill="#959DA8"/>
<path d="M516.664 365.198H508.035V399.642H516.664V365.198Z" fill="#F4F5F6"/>
<path fill-rule="evenodd" clip-rule="evenodd" d="M507.562 364.726H517.135V400.114H507.562V364.726ZM508.506 365.67V399.17H516.191V365.67H508.506Z" fill="#959DA8"/>
<path d="M525.492 365.198H516.863V399.642H525.492V365.198Z" fill="#F4F5F6"/>
<path fill-rule="evenodd" clip-rule="evenodd" d="M516.391 364.726H525.963V400.114H516.391V364.726ZM517.334 365.67V399.17H525.019V365.67H517.334Z" fill="#959DA8"/>
<path d="M534.328 365.198H525.699V399.642H534.328V365.198Z" fill="#F4F5F6"/>
<path fill-rule="evenodd" clip-rule="evenodd" d="M525.227 364.726H534.799V400.114H525.227V364.726ZM526.17 365.67V399.17H533.855V365.67H526.17Z" fill="#959DA8"/>
<path d="M543.156 365.198H534.527V399.642H543.156V365.198Z" fill="#F4F5F6"/>
<path fill-rule="evenodd" clip-rule="evenodd" d="M534.059 364.726H543.631V400.114H534.059V364.726ZM535.002 365.67V399.17H542.687V365.67H535.002Z" fill="#959DA8"/>
<path d="M551.992 365.198H543.363V399.642H551.992V365.198Z" fill="#F4F5F6"/>
<path fill-rule="evenodd" clip-rule="evenodd" d="M542.891 364.726H552.463V400.114H542.891V364.726ZM543.834 365.67V399.17H551.519V365.67H543.834Z" fill="#959DA8"/>
<path d="M560.824 365.198H552.195V399.642H560.824V365.198Z" fill="#F4F5F6"/>
<path fill-rule="evenodd" clip-rule="evenodd" d="M551.723 364.726H561.295V400.114H551.723V364.726ZM552.666 365.67V399.17H560.351V365.67H552.666Z" fill="#959DA8"/>
<path d="M569.652 365.198H561.023V399.642H569.652V365.198Z" fill="#F4F5F6"/>
<path fill-rule="evenodd" clip-rule="evenodd" d="M560.551 364.726H570.123V400.114H560.551V364.726ZM561.494 365.67V399.17H569.18V365.67H561.494Z" fill="#959DA8"/>
<path d="M578.488 365.198H569.859V399.642H578.488V365.198Z" fill="#F4F5F6"/>
<path fill-rule="evenodd" clip-rule="evenodd" d="M569.387 364.726H578.959V400.114H569.387V364.726ZM570.33 365.67V399.17H578.015V365.67H570.33Z" fill="#959DA8"/>
<path d="M420.396 365.198V399.642H411.953L411.962 365.198H420.396Z" fill="#F4F5F6"/>
<path fill-rule="evenodd" clip-rule="evenodd" d="M411.49 364.726H420.867V400.114H411.48L411.49 364.726ZM412.433 365.67L412.424 399.17H419.924V365.67H412.433Z" fill="#959DA8"/>
<path d="M429.226 365.198H420.598V399.642H429.226V365.198Z" fill="#F4F5F6"/>
<path fill-rule="evenodd" clip-rule="evenodd" d="M420.125 364.726H429.697V400.114H420.125V364.726ZM421.068 365.67V399.17H428.754V365.67H421.068Z" fill="#959DA8"/>
<path d="M438.062 365.198H429.434V399.642H438.062V365.198Z" fill="#F4F5F6"/>
<path fill-rule="evenodd" clip-rule="evenodd" d="M428.961 364.726H438.533V400.114H428.961V364.726ZM429.904 365.67V399.17H437.59V365.67H429.904Z" fill="#959DA8"/>
<path d="M446.89 365.198H438.262V399.642H446.89V365.198Z" fill="#F4F5F6"/>
<path fill-rule="evenodd" clip-rule="evenodd" d="M437.789 364.726H447.361V400.114H437.789V364.726ZM438.733 365.67V399.17H446.418V365.67H438.733Z" fill="#959DA8"/>
<path d="M455.722 365.198H447.094V399.642H455.722V365.198Z" fill="#F4F5F6"/>
<path fill-rule="evenodd" clip-rule="evenodd" d="M446.625 364.726H456.197V400.114H446.625V364.726ZM447.568 365.67V399.17H455.254V365.67H447.568Z" fill="#959DA8"/>
<path d="M464.555 365.198H455.926V399.642H464.555V365.198Z" fill="#F4F5F6"/>
<path fill-rule="evenodd" clip-rule="evenodd" d="M455.457 364.726H465.029V400.114H455.457V364.726ZM456.4 365.67V399.17H464.086V365.67H456.4Z" fill="#959DA8"/>
<path d="M473.387 365.198H464.758V399.642H473.387V365.198Z" fill="#F4F5F6"/>
<path fill-rule="evenodd" clip-rule="evenodd" d="M464.285 364.726H473.857V400.114H464.285V364.726ZM465.229 365.67V399.17H472.914V365.67H465.229Z" fill="#959DA8"/>
<path d="M482.219 365.198H473.59V399.642H482.219V365.198Z" fill="#F4F5F6"/>
<path fill-rule="evenodd" clip-rule="evenodd" d="M473.117 364.726H482.689V400.114H473.117V364.726ZM474.061 365.67V399.17H481.746V365.67H474.061Z" fill="#959DA8"/>
<path d="M491.051 365.198H482.422V399.642H491.051V365.198Z" fill="#F4F5F6"/>
<path fill-rule="evenodd" clip-rule="evenodd" d="M481.949 364.726H491.521V400.114H481.949V364.726ZM482.893 365.67V399.17H490.578V365.67H482.893Z" fill="#959DA8"/>
<path d="M499.883 365.198H491.254V399.642H499.883V365.198Z" fill="#F4F5F6"/>
<path fill-rule="evenodd" clip-rule="evenodd" d="M490.781 364.726H500.353V400.114H490.781V364.726ZM491.725 365.67V399.17H499.41V365.67H491.725Z" fill="#959DA8"/>
<path d="M332.076 365.198V399.642H323.633L323.642 365.198H332.076Z" fill="#F4F5F6"/>
<path fill-rule="evenodd" clip-rule="evenodd" d="M323.169 364.726H332.547V400.114H323.16L323.169 364.726ZM324.112 365.67L324.104 399.17H331.604V365.67H324.112Z" fill="#959DA8"/>
<path d="M340.91 365.198H332.281V399.642H340.91V365.198Z" fill="#F4F5F6"/>
<path fill-rule="evenodd" clip-rule="evenodd" d="M331.809 364.726H341.381V400.114H331.809V364.726ZM332.752 365.67V399.17H340.437V365.67H332.752Z" fill="#959DA8"/>
<path d="M349.742 365.198H341.113V399.642H349.742V365.198Z" fill="#F4F5F6"/>
<path fill-rule="evenodd" clip-rule="evenodd" d="M340.641 364.726H350.213V400.114H340.641V364.726ZM341.584 365.67V399.17H349.269V365.67H341.584Z" fill="#959DA8"/>
<path d="M358.57 365.198H349.941V399.642H358.57V365.198Z" fill="#F4F5F6"/>
<path fill-rule="evenodd" clip-rule="evenodd" d="M349.473 364.726H359.045V400.114H349.473V364.726ZM350.416 365.67V399.17H358.101V365.67H350.416Z" fill="#959DA8"/>
<path d="M367.406 365.198H358.777V399.642H367.406V365.198Z" fill="#F4F5F6"/>
<path fill-rule="evenodd" clip-rule="evenodd" d="M358.305 364.726H367.877V400.114H358.305V364.726ZM359.248 365.67V399.17H366.933V365.67H359.248Z" fill="#959DA8"/>
<path d="M376.238 365.198H367.609V399.642H376.238V365.198Z" fill="#F4F5F6"/>
<path fill-rule="evenodd" clip-rule="evenodd" d="M367.137 364.726H376.709V400.114H367.137V364.726ZM368.08 365.67V399.17H375.765V365.67H368.08Z" fill="#959DA8"/>
<path d="M385.066 365.198H376.438V399.642H385.066V365.198Z" fill="#F4F5F6"/>
<path fill-rule="evenodd" clip-rule="evenodd" d="M375.965 364.726H385.537V400.114H375.965V364.726ZM376.908 365.67V399.17H384.594V365.67H376.908Z" fill="#959DA8"/>
<path d="M393.902 365.198H385.273V399.642H393.902V365.198Z" fill="#F4F5F6"/>
<path fill-rule="evenodd" clip-rule="evenodd" d="M384.801 364.726H394.373V400.114H384.801V364.726ZM385.744 365.67V399.17H393.43V365.67H385.744Z" fill="#959DA8"/>
<path d="M402.734 365.198H394.105V399.642H402.734V365.198Z" fill="#F4F5F6"/>
<path fill-rule="evenodd" clip-rule="evenodd" d="M393.633 364.726H403.205V400.114H393.633V364.726ZM394.576 365.67V399.17H402.262V365.67H394.576Z" fill="#959DA8"/>
<path d="M411.562 365.198H402.934V399.642H411.562V365.198Z" fill="#F4F5F6"/>
<path fill-rule="evenodd" clip-rule="evenodd" d="M402.465 364.726H412.037V400.114H402.465V364.726ZM403.408 365.67V399.17H411.094V365.67H403.408Z" fill="#959DA8"/>
<path d="M243.76 365.198V399.642H235.316L235.325 365.198H243.76Z" fill="#F4F5F6"/>
<path fill-rule="evenodd" clip-rule="evenodd" d="M234.853 364.726H244.231V400.114H234.844L234.853 364.726ZM235.796 365.67L235.787 399.17H243.287V365.67H235.796Z" fill="#959DA8"/>
<path d="M252.59 365.198H243.961V399.642H252.59V365.198Z" fill="#F4F5F6"/>
<path fill-rule="evenodd" clip-rule="evenodd" d="M243.488 364.726H253.06V400.114H243.488V364.726ZM244.432 365.67V399.17H252.117V365.67H244.432Z" fill="#959DA8"/>
<path d="M261.422 365.198H252.793V399.642H261.422V365.198Z" fill="#F4F5F6"/>
<path fill-rule="evenodd" clip-rule="evenodd" d="M252.324 364.726H261.896V400.114H252.324V364.726ZM253.268 365.67V399.17H260.953V365.67H253.268Z" fill="#959DA8"/>
<path d="M270.254 365.198H261.625V399.642H270.254V365.198Z" fill="#F4F5F6"/>
<path fill-rule="evenodd" clip-rule="evenodd" d="M261.152 364.726H270.725V400.114H261.152V364.726ZM262.096 365.67V399.17H269.781V365.67H262.096Z" fill="#959DA8"/>
<path d="M279.086 365.198H270.457V399.642H279.086V365.198Z" fill="#F4F5F6"/>
<path fill-rule="evenodd" clip-rule="evenodd" d="M269.988 364.726H279.56V400.114H269.988V364.726ZM270.932 365.67V399.17H278.617V365.67H270.932Z" fill="#959DA8"/>
<path d="M287.918 365.198H279.289V399.642H287.918V365.198Z" fill="#F4F5F6"/>
<path fill-rule="evenodd" clip-rule="evenodd" d="M278.816 364.726H288.389V400.114H278.816V364.726ZM279.76 365.67V399.17H287.445V365.67H279.76Z" fill="#959DA8"/>
<path d="M296.75 365.198H288.121V399.642H296.75V365.198Z" fill="#F4F5F6"/>
<path fill-rule="evenodd" clip-rule="evenodd" d="M287.648 364.726H297.221V400.114H287.648V364.726ZM288.592 365.67V399.17H296.277V365.67H288.592Z" fill="#959DA8"/>
<path d="M305.582 365.198H296.953V399.642H305.582V365.198Z" fill="#F4F5F6"/>
<path fill-rule="evenodd" clip-rule="evenodd" d="M296.48 364.726H306.053V400.114H296.48V364.726ZM297.424 365.67V399.17H305.109V365.67H297.424Z" fill="#959DA8"/>
<path d="M314.414 365.198H305.785V399.642H314.414V365.198Z" fill="#F4F5F6"/>
<path fill-rule="evenodd" clip-rule="evenodd" d="M305.312 364.726H314.885V400.114H305.312V364.726ZM306.256 365.67V399.17H313.941V365.67H306.256Z" fill="#959DA8"/>
<path d="M323.246 365.198H314.617V399.642H323.246V365.198Z" fill="#F4F5F6"/>
<path fill-rule="evenodd" clip-rule="evenodd" d="M314.145 364.726H323.717V400.114H314.145V364.726ZM315.088 365.67V399.17H322.773V365.67H315.088Z" fill="#959DA8"/>
<path d="M155.443 365.198V399.642H147L147.009 365.198H155.443Z" fill="#F4F5F6"/>
<path fill-rule="evenodd" clip-rule="evenodd" d="M146.536 364.726H155.914V400.114H146.527L146.536 364.726ZM147.48 365.67L147.471 399.17H154.971V365.67H147.48Z" fill="#959DA8"/>
<path d="M164.273 365.198H155.645V399.642H164.273V365.198Z" fill="#F4F5F6"/>
<path fill-rule="evenodd" clip-rule="evenodd" d="M155.172 364.726H164.744V400.114H155.172V364.726ZM156.115 365.67V399.17H163.801V365.67H156.115Z" fill="#959DA8"/>
<path d="M173.105 365.198H164.477V399.642H173.105V365.198Z" fill="#F4F5F6"/>
<path fill-rule="evenodd" clip-rule="evenodd" d="M164.004 364.726H173.576V400.114H164.004V364.726ZM164.947 365.67V399.17H172.633V365.67H164.947Z" fill="#959DA8"/>
<path d="M181.933 365.198H173.305V399.642H181.933V365.198Z" fill="#F4F5F6"/>
<path fill-rule="evenodd" clip-rule="evenodd" d="M172.836 364.726H182.408V400.114H172.836V364.726ZM173.779 365.67V399.17H181.465V365.67H173.779Z" fill="#959DA8"/>
<path d="M190.769 365.198H182.141V399.642H190.769V365.198Z" fill="#F4F5F6"/>
<path fill-rule="evenodd" clip-rule="evenodd" d="M181.668 364.726H191.24V400.114H181.668V364.726ZM182.611 365.67V399.17H190.297V365.67H182.611Z" fill="#959DA8"/>
<path d="M199.597 365.198H190.969V399.642H199.597V365.198Z" fill="#F4F5F6"/>
<path fill-rule="evenodd" clip-rule="evenodd" d="M190.496 364.726H200.068V400.114H190.496V364.726ZM191.44 365.67V399.17H199.125V365.67H191.44Z" fill="#959DA8"/>
<path d="M208.433 365.198H199.805V399.642H208.433V365.198Z" fill="#F4F5F6"/>
<path fill-rule="evenodd" clip-rule="evenodd" d="M199.332 364.726H208.904V400.114H199.332V364.726ZM200.275 365.67V399.17H207.961V365.67H200.275Z" fill="#959DA8"/>
<path d="M217.265 365.198H208.637V399.642H217.265V365.198Z" fill="#F4F5F6"/>
<path fill-rule="evenodd" clip-rule="evenodd" d="M208.164 364.726H217.736V400.114H208.164V364.726ZM209.108 365.67V399.17H216.793V365.67H209.108Z" fill="#959DA8"/>
<path d="M226.094 365.198H217.465V399.642H226.094V365.198Z" fill="#F4F5F6"/>
<path fill-rule="evenodd" clip-rule="evenodd" d="M216.992 364.726H226.564V400.114H216.992V364.726ZM217.936 365.67V399.17H225.621V365.67H217.936Z" fill="#959DA8"/>
<path d="M234.926 365.198H226.297V399.642H234.926V365.198Z" fill="#F4F5F6"/>
<path fill-rule="evenodd" clip-rule="evenodd" d="M225.828 364.726H235.4V400.114H225.828V364.726ZM226.772 365.67V399.17H234.457V365.67H226.772Z" fill="#959DA8"/>
<path d="M75.953 365.198H67.3242V399.642H75.953V365.198Z" fill="#F4F5F6"/>
<path fill-rule="evenodd" clip-rule="evenodd" d="M66.8555 364.726H76.4276V400.114H66.8555V364.726ZM67.7989 365.67V399.17H75.4842V365.67H67.7989Z" fill="#959DA8"/>
<path d="M67.117 365.198H58.4883V399.642H67.117V365.198Z" fill="#F4F5F6"/>
<path fill-rule="evenodd" clip-rule="evenodd" d="M58.0156 364.726H67.5878V400.114H58.0156V364.726ZM58.9591 365.67V399.17H66.6444V365.67H58.9591Z" fill="#959DA8"/>
<path d="M84.785 365.198H76.1562V399.642H84.785V365.198Z" fill="#F4F5F6"/>
<path fill-rule="evenodd" clip-rule="evenodd" d="M75.6836 364.726H85.2558V400.114H75.6836V364.726ZM76.627 365.67V399.17H84.3123V365.67H76.627Z" fill="#959DA8"/>
<path d="M93.617 365.198H84.9883V399.642H93.617V365.198Z" fill="#F4F5F6"/>
<path fill-rule="evenodd" clip-rule="evenodd" d="M84.5156 364.726H94.0878V400.114H84.5156V364.726ZM85.4591 365.67V399.17H93.1444V365.67H85.4591Z" fill="#959DA8"/>
<path d="M102.453 365.198H93.8242V399.642H102.453V365.198Z" fill="#F4F5F6"/>
<path fill-rule="evenodd" clip-rule="evenodd" d="M93.3516 364.726H102.924V400.114H93.3516V364.726ZM94.295 365.67V399.17H101.98V365.67H94.295Z" fill="#959DA8"/>
<path d="M111.277 365.198H102.648V399.642H111.277V365.198Z" fill="#F4F5F6"/>
<path fill-rule="evenodd" clip-rule="evenodd" d="M102.176 364.726H111.748V400.114H102.176V364.726ZM103.119 365.67V399.17H110.805V365.67H103.119Z" fill="#959DA8"/>
<path d="M120.113 365.198H111.484V399.642H120.113V365.198Z" fill="#F4F5F6"/>
<path fill-rule="evenodd" clip-rule="evenodd" d="M111.016 364.726H120.588V400.114H111.016V364.726ZM111.959 365.67V399.17H119.644V365.67H111.959Z" fill="#959DA8"/>
<path d="M128.945 365.198H120.316V399.642H128.945V365.198Z" fill="#F4F5F6"/>
<path fill-rule="evenodd" clip-rule="evenodd" d="M119.844 364.726H129.416V400.114H119.844V364.726ZM120.787 365.67V399.17H128.472V365.67H120.787Z" fill="#959DA8"/>
<path d="M137.773 365.198H129.145V399.642H137.773V365.198Z" fill="#F4F5F6"/>
<path fill-rule="evenodd" clip-rule="evenodd" d="M128.676 364.726H138.248V400.114H128.676V364.726ZM129.619 365.67V399.17H137.305V365.67H129.619Z" fill="#959DA8"/>
<path d="M146.609 365.198H137.98V399.642H146.609V365.198Z" fill="#F4F5F6"/>
<path fill-rule="evenodd" clip-rule="evenodd" d="M137.508 364.726H147.08V400.114H137.508V364.726ZM138.451 365.67V399.17H146.137V365.67H138.451Z" fill="#959DA8"/>
<path fill-rule="evenodd" clip-rule="evenodd" d="M56.9883 364.254H686.821V400.586H56.9883V364.254ZM58.8752 366.141V398.699H684.934V366.141H58.8752Z" fill="#959DA8"/>
<path d="M593.149 397.718C593.14 395.752 593.606 393.813 594.506 392.065C595.405 390.317 596.713 388.812 598.317 387.676C599.921 386.54 601.776 385.808 603.723 385.54C605.671 385.273 607.654 385.478 609.505 386.139C610.221 383.258 611.67 380.611 613.712 378.456C615.753 376.301 618.318 374.712 621.156 373.842C623.995 372.973 627.01 372.853 629.908 373.494C632.807 374.135 635.49 375.516 637.696 377.501C639.255 373.143 642.302 369.474 646.3 367.141C650.298 364.808 654.991 363.961 659.552 364.748C664.113 365.535 668.251 367.907 671.235 371.445C674.22 374.983 675.86 379.461 675.868 384.09C675.87 384.774 675.835 385.458 675.762 386.139C677.092 385.653 678.497 385.405 679.913 385.406C686.713 385.406 692.631 390.926 692.198 397.691C692.136 398.806 691.949 399.911 691.642 400.985H593.608C593.312 399.912 593.163 398.804 593.166 397.691L593.149 397.718Z" fill="#80C33F"/>
<path d="M50.1739 345.254C50.8321 342.316 50.8291 339.269 50.165 336.332C49.501 333.396 48.1925 330.643 46.3343 328.275C44.4761 325.906 42.1145 323.98 39.4206 322.636C36.7266 321.292 33.7676 320.563 30.7576 320.503C27.7476 320.443 24.7618 321.053 22.0164 322.288C19.2709 323.524 16.8344 325.354 14.8831 327.647C12.9317 329.939 11.5144 332.637 10.7337 335.545C9.95294 338.452 9.82826 341.497 10.3687 344.459C8.15128 345.536 6.19259 347.079 4.62647 348.983C3.06035 350.887 1.92371 353.106 1.29425 355.49C0.664779 357.873 0.557322 360.364 0.97922 362.793C1.40112 365.222 2.34242 367.531 3.7388 369.563C5.13518 371.594 6.95371 373.3 9.07012 374.565C11.1865 375.829 13.5509 376.621 16.0017 376.887C18.4524 377.154 20.9318 376.888 23.2703 376.108C25.6088 375.327 27.7514 374.052 29.5515 372.368C31.2998 374.01 33.3736 375.266 35.6386 376.056C37.9036 376.846 40.3092 377.151 42.6996 376.952C45.09 376.752 47.4118 376.053 49.5147 374.899C51.6176 373.745 53.4546 372.162 54.9067 370.253C56.3588 368.344 57.3937 366.151 57.9442 363.816C58.4947 361.481 58.5486 359.057 58.1024 356.7C57.6562 354.343 56.7199 352.107 55.3541 350.135C53.9882 348.163 52.2234 346.5 50.1739 345.254Z" fill="#80C33F"/>
<path fill-rule="evenodd" clip-rule="evenodd" d="M20.5704 356.476C20.7141 356.259 21.0067 356.199 21.2241 356.343L30.577 362.525C30.7944 362.669 30.8541 362.962 30.7104 363.179C30.5668 363.396 30.2741 363.456 30.0568 363.312L20.7038 357.13C20.4865 356.986 20.4268 356.694 20.5704 356.476Z" fill="#2A3A51"/>
<path fill-rule="evenodd" clip-rule="evenodd" d="M41.585 361.066C41.7545 361.264 41.7315 361.561 41.5336 361.731L30.6263 371.075C30.4284 371.244 30.1306 371.221 29.9611 371.024C29.7917 370.826 29.8146 370.528 30.0125 370.358L40.9198 361.014C41.1177 360.845 41.4155 360.868 41.585 361.066Z" fill="#2A3A51"/>
<path fill-rule="evenodd" clip-rule="evenodd" d="M30.3194 343.767C30.5799 343.767 30.7911 343.978 30.7911 344.238V400.321C30.7911 400.581 30.5799 400.792 30.3194 400.792C30.0589 400.792 29.8477 400.581 29.8477 400.321V344.238C29.8477 343.978 30.0589 343.767 30.3194 343.767Z" fill="#2A3A51"/>
<path d="M750.885 232.813L696.008 218.109L688.301 246.871L743.178 261.575L750.885 232.813Z" fill="white"/>
<path d="M750.866 232.693L696.035 218.001L695.426 220.276L750.257 234.968L750.866 232.693Z" fill="#B22234"/>
<path d="M749.675 237.143L694.844 222.451L694.234 224.727L749.065 239.419L749.675 237.143Z" fill="#B22234"/>
<path d="M748.484 241.594L693.652 226.902L693.043 229.177L747.874 243.869L748.484 241.594Z" fill="#B22234"/>
<path d="M747.292 246.044L692.461 231.352L691.851 233.627L746.683 248.319L747.292 246.044Z" fill="#B22234"/>
<path d="M746.097 250.494L691.266 235.802L690.656 238.077L745.487 252.769L746.097 250.494Z" fill="#B22234"/>
<path d="M744.906 254.945L690.074 240.253L689.465 242.528L744.296 257.22L744.906 254.945Z" fill="#B22234"/>
<path d="M743.714 259.395L688.883 244.703L688.273 246.978L743.105 261.67L743.714 259.395Z" fill="#B22234"/>
<path d="M717.934 223.868L696.035 218L691.848 233.627L713.747 239.495L717.934 223.868Z" fill="#2A3A51"/>
<path d="M697.735 219.097L697.769 219.79L698.432 219.968L697.79 220.218L697.824 220.911L697.393 220.373L696.751 220.624L697.127 220.041L696.696 219.503L697.359 219.681L697.735 219.097Z" fill="white"/>
<path d="M699.114 221.185L699.148 221.877L699.811 222.055L699.169 222.306L699.203 222.999L698.772 222.461L698.13 222.711L698.506 222.128L698.075 221.59L698.738 221.768L699.114 221.185Z" fill="white"/>
<path d="M698.274 224.318L698.308 225.01L698.972 225.188L698.33 225.439L698.364 226.131L697.933 225.593L697.291 225.844L697.666 225.261L697.235 224.723L697.899 224.9L698.274 224.318Z" fill="white"/>
<path d="M697.435 227.451L697.469 228.143L698.132 228.321L697.49 228.572L697.524 229.264L697.093 228.726L696.451 228.977L696.826 228.394L696.396 227.856L697.059 228.034L697.435 227.451Z" fill="white"/>
<path d="M696.595 230.583L696.629 231.276L697.292 231.454L696.65 231.704L696.684 232.397L696.253 231.859L695.611 232.11L695.987 231.527L695.556 230.989L696.219 231.166L696.595 230.583Z" fill="white"/>
<path d="M702.77 222.164L702.804 222.857L703.468 223.035L702.826 223.286L702.86 223.979L702.429 223.441L701.787 223.691L702.162 223.108L701.731 222.57L702.395 222.748L702.77 222.164Z" fill="white"/>
<path d="M701.931 225.298L701.965 225.99L702.628 226.168L701.986 226.419L702.02 227.111L701.589 226.573L700.947 226.824L701.323 226.241L700.892 225.703L701.555 225.88L701.931 225.298Z" fill="white"/>
<path d="M701.091 228.431L701.125 229.123L701.788 229.301L701.146 229.552L701.18 230.244L700.749 229.706L700.107 229.957L700.483 229.374L700.052 228.836L700.715 229.013L701.091 228.431Z" fill="white"/>
<path d="M700.251 231.564L700.285 232.256L700.948 232.434L700.306 232.685L700.34 233.377L699.909 232.84L699.267 233.09L699.643 232.507L699.212 231.969L699.875 232.147L700.251 231.564Z" fill="white"/>
<path d="M706.431 223.145L706.465 223.838L707.128 224.016L706.486 224.267L706.52 224.959L706.089 224.421L705.447 224.672L705.823 224.089L705.392 223.551L706.055 223.728L706.431 223.145Z" fill="white"/>
<path d="M705.591 226.278L705.625 226.971L706.288 227.149L705.646 227.399L705.68 228.092L705.249 227.554L704.607 227.804L704.983 227.222L704.552 226.683L705.215 226.861L705.591 226.278Z" fill="white"/>
<path d="M704.751 229.411L704.785 230.104L705.448 230.282L704.806 230.532L704.84 231.225L704.409 230.687L703.767 230.938L704.143 230.355L703.712 229.816L704.375 229.994L704.751 229.411Z" fill="white"/>
<path d="M703.911 232.544L703.945 233.237L704.608 233.415L703.966 233.665L704 234.358L703.569 233.82L702.927 234.07L703.303 233.487L702.872 232.949L703.535 233.127L703.911 232.544Z" fill="white"/>
<path d="M710.087 224.125L710.121 224.818L710.784 224.996L710.142 225.247L710.176 225.939L709.745 225.402L709.103 225.652L709.479 225.069L709.048 224.531L709.711 224.709L710.087 224.125Z" fill="white"/>
<path d="M709.247 227.258L709.281 227.951L709.945 228.129L709.302 228.38L709.336 229.072L708.905 228.534L708.263 228.785L708.639 228.202L708.208 227.664L708.871 227.841L709.247 227.258Z" fill="white"/>
<path d="M708.411 230.392L708.445 231.084L709.109 231.262L708.466 231.513L708.5 232.205L708.069 231.667L707.427 231.918L707.803 231.335L707.372 230.797L708.035 230.974L708.411 230.392Z" fill="white"/>
<path d="M707.571 233.524L707.606 234.217L708.269 234.395L707.626 234.645L707.66 235.338L707.229 234.8L706.587 235.051L706.963 234.468L706.532 233.93L707.195 234.107L707.571 233.524Z" fill="white"/>
<path d="M713.747 225.106L713.781 225.799L714.444 225.977L713.802 226.227L713.836 226.92L713.405 226.382L712.763 226.633L713.139 226.05L712.708 225.512L713.371 225.689L713.747 225.106Z" fill="white"/>
<path d="M712.907 228.239L712.941 228.932L713.604 229.109L712.962 229.36L712.996 230.053L712.565 229.515L711.923 229.765L712.299 229.182L711.868 228.644L712.531 228.822L712.907 228.239Z" fill="white"/>
<path d="M712.067 231.372L712.101 232.065L712.764 232.242L712.122 232.493L712.156 233.186L711.725 232.648L711.083 232.898L711.459 232.315L711.028 231.777L711.692 231.955L712.067 231.372Z" fill="white"/>
<path d="M711.231 234.505L711.265 235.198L711.928 235.375L711.286 235.626L711.32 236.319L710.889 235.781L710.247 236.031L710.623 235.448L710.192 234.91L710.856 235.088L711.231 234.505Z" fill="white"/>
<path d="M696.899 222.23L696.933 222.923L697.597 223.101L696.954 223.351L696.989 224.044L696.558 223.506L695.916 223.757L696.291 223.173L695.86 222.636L696.524 222.813L696.899 222.23Z" fill="white"/>
<path d="M696.06 225.363L696.094 226.056L696.757 226.234L696.114 226.484L696.149 227.177L695.718 226.639L695.076 226.889L695.451 226.307L695.021 225.768L695.684 225.946L696.06 225.363Z" fill="white"/>
<path d="M695.22 228.496L695.254 229.189L695.917 229.367L695.275 229.617L695.309 230.31L694.878 229.772L694.236 230.023L694.612 229.44L694.181 228.901L694.844 229.079L695.22 228.496Z" fill="white"/>
<path d="M694.38 231.629L694.414 232.322L695.077 232.5L694.435 232.75L694.469 233.443L694.038 232.905L693.396 233.156L693.772 232.573L693.341 232.035L694.004 232.212L694.38 231.629Z" fill="white"/>
<path d="M701.349 220.065L701.383 220.758L702.046 220.935L701.404 221.186L701.438 221.879L701.007 221.34L700.365 221.591L700.741 221.008L700.31 220.47L700.973 220.648L701.349 220.065Z" fill="white"/>
<path d="M700.509 223.198L700.543 223.89L701.206 224.068L700.564 224.318L700.598 225.011L700.167 224.473L699.525 224.724L699.901 224.141L699.47 223.603L700.133 223.781L700.509 223.198Z" fill="white"/>
<path d="M699.669 226.331L699.703 227.023L700.366 227.201L699.724 227.452L699.758 228.144L699.327 227.606L698.685 227.857L699.061 227.274L698.63 226.736L699.293 226.914L699.669 226.331Z" fill="white"/>
<path d="M698.829 229.464L698.863 230.156L699.526 230.334L698.884 230.585L698.918 231.277L698.487 230.739L697.845 230.99L698.221 230.407L697.79 229.869L698.453 230.046L698.829 229.464Z" fill="white"/>
<path d="M697.989 232.597L698.023 233.289L698.686 233.467L698.044 233.718L698.078 234.41L697.647 233.872L697.005 234.123L697.381 233.54L696.95 233.002L697.613 233.18L697.989 232.597Z" fill="white"/>
<path d="M705.056 221.058L705.09 221.751L705.753 221.929L705.111 222.179L705.145 222.872L704.714 222.334L704.072 222.585L704.448 222.001L704.017 221.464L704.68 221.641L705.056 221.058Z" fill="white"/>
<path d="M704.216 224.191L704.25 224.884L704.913 225.062L704.271 225.312L704.305 226.005L703.874 225.467L703.232 225.717L703.608 225.134L703.177 224.596L703.84 224.774L704.216 224.191Z" fill="white"/>
<path d="M703.376 227.324L703.41 228.017L704.073 228.195L703.431 228.445L703.465 229.138L703.034 228.6L702.392 228.85L702.768 228.267L702.337 227.729L703 227.907L703.376 227.324Z" fill="white"/>
<path d="M702.536 230.457L702.57 231.15L703.233 231.328L702.591 231.578L702.625 232.271L702.194 231.733L701.552 231.983L701.928 231.401L701.497 230.862L702.16 231.04L702.536 230.457Z" fill="white"/>
<path d="M701.696 233.59L701.73 234.283L702.393 234.461L701.751 234.711L701.785 235.404L701.354 234.866L700.712 235.117L701.088 234.534L700.657 233.995L701.32 234.173L701.696 233.59Z" fill="white"/>
<path d="M708.688 222.032L708.722 222.725L709.386 222.903L708.743 223.153L708.777 223.846L708.347 223.308L707.704 223.558L708.08 222.975L707.649 222.437L708.313 222.615L708.688 222.032Z" fill="white"/>
<path d="M707.849 225.165L707.883 225.858L708.546 226.035L707.904 226.286L707.938 226.979L707.507 226.441L706.864 226.691L707.24 226.108L706.81 225.57L707.473 225.748L707.849 225.165Z" fill="white"/>
<path d="M707.009 228.298L707.043 228.991L707.706 229.168L707.064 229.419L707.098 230.112L706.667 229.574L706.025 229.824L706.4 229.241L705.97 228.703L706.633 228.881L707.009 228.298Z" fill="white"/>
<path d="M706.169 231.431L706.203 232.124L706.866 232.301L706.224 232.552L706.258 233.245L705.827 232.707L705.185 232.957L705.561 232.374L705.13 231.836L705.793 232.014L706.169 231.431Z" fill="white"/>
<path d="M705.333 234.564L705.367 235.257L706.03 235.434L705.388 235.685L705.422 236.378L704.991 235.84L704.349 236.09L704.725 235.507L704.294 234.969L704.957 235.147L705.333 234.564Z" fill="white"/>
<path d="M712.325 223.006L712.359 223.699L713.022 223.876L712.38 224.127L712.414 224.82L711.983 224.282L711.341 224.532L711.717 223.949L711.286 223.411L711.949 223.589L712.325 223.006Z" fill="white"/>
<path d="M711.485 226.139L711.519 226.832L712.183 227.009L711.54 227.26L711.574 227.953L711.144 227.414L710.501 227.665L710.877 227.082L710.446 226.544L711.109 226.722L711.485 226.139Z" fill="white"/>
<path d="M710.645 229.272L710.679 229.964L711.343 230.142L710.7 230.393L710.734 231.085L710.304 230.547L709.661 230.798L710.037 230.215L709.606 229.677L710.269 229.854L710.645 229.272Z" fill="white"/>
<path d="M709.806 232.405L709.84 233.097L710.503 233.275L709.861 233.526L709.895 234.218L709.464 233.681L708.822 233.931L709.197 233.348L708.767 232.81L709.43 232.988L709.806 232.405Z" fill="white"/>
<path d="M708.966 235.538L709 236.23L709.663 236.408L709.021 236.659L709.055 237.351L708.624 236.814L707.982 237.064L708.357 236.481L707.927 235.943L708.59 236.121L708.966 235.538Z" fill="white"/>
<path d="M716.032 223.999L716.066 224.692L716.73 224.87L716.087 225.12L716.121 225.813L715.69 225.275L715.048 225.526L715.424 224.943L714.993 224.405L715.656 224.582L716.032 223.999Z" fill="white"/>
<path d="M715.192 227.132L715.227 227.825L715.89 228.003L715.248 228.253L715.282 228.946L714.851 228.408L714.209 228.658L714.584 228.075L714.153 227.537L714.817 227.715L715.192 227.132Z" fill="white"/>
<path d="M714.353 230.265L714.387 230.958L715.05 231.136L714.408 231.386L714.442 232.079L714.011 231.541L713.369 231.792L713.744 231.209L713.313 230.67L713.977 230.848L714.353 230.265Z" fill="white"/>
<path d="M713.513 233.398L713.547 234.091L714.21 234.269L713.568 234.519L713.602 235.212L713.171 234.674L712.529 234.925L712.905 234.342L712.474 233.804L713.137 233.981L713.513 233.398Z" fill="white"/>
<path d="M712.673 236.531L712.707 237.224L713.37 237.402L712.728 237.652L712.762 238.345L712.331 237.807L711.689 238.057L712.065 237.475L711.634 236.936L712.297 237.114L712.673 236.531Z" fill="white"/>
<path d="M684 262.916L688.4 246.495M688.4 246.495L696.035 218L750.412 232.57L742.777 261.065L688.4 246.495Z" stroke="#959DA8" stroke-miterlimit="10"/>
</svg>
