<svg width="820" height="425" viewBox="0 0 820 425" fill="none" xmlns="http://www.w3.org/2000/svg">
<path d="M607.089 0.000488281H171.273V14.4402H607.089V0.000488281Z" fill="#D3DCE5"/>
<path d="M130.69 279.932C130.469 279.932 130.249 279.907 130.034 279.86C119.979 277.569 119.979 265.42 119.979 265.42C119.903 258.491 121.948 251.705 125.84 245.972C126.384 245.191 127.109 244.553 127.953 244.112C128.797 243.672 129.735 243.441 130.687 243.441C131.639 243.441 132.577 243.672 133.421 244.112C134.265 244.553 134.99 245.191 135.534 245.972C139.428 251.704 141.476 258.49 141.402 265.42C141.402 265.42 141.402 277.615 131.347 279.86C131.131 279.907 130.911 279.932 130.69 279.932Z" fill="#80C33F"/>
<path fill-rule="evenodd" clip-rule="evenodd" d="M130.688 256.527C130.869 256.527 131.016 256.674 131.016 256.856V298.271C131.016 298.452 130.869 298.599 130.688 298.599C130.506 298.599 130.359 298.452 130.359 298.271V256.856C130.359 256.674 130.506 256.527 130.688 256.527Z" fill="#2A3A51"/>
<path d="M636.081 90.2491C635.86 90.249 635.64 90.2248 635.425 90.1769C625.369 87.8863 625.369 75.7372 625.369 75.7372C625.293 68.8085 627.338 62.0224 631.23 56.2896C631.775 55.5084 632.5 54.8702 633.344 54.4296C634.188 53.9889 635.125 53.7588 636.078 53.7588C637.03 53.7588 637.968 53.9889 638.812 54.4296C639.656 54.8702 640.381 55.5084 640.925 56.2896C644.819 62.0216 646.867 68.8078 646.792 75.7372C646.792 75.7372 646.792 87.9322 636.737 90.1769C636.522 90.2248 636.302 90.249 636.081 90.2491Z" fill="#80C33F"/>
<path fill-rule="evenodd" clip-rule="evenodd" d="M636.078 66.8428C636.259 66.8428 636.406 66.9897 636.406 67.1709V108.587C636.406 108.768 636.259 108.915 636.078 108.915C635.897 108.915 635.75 108.768 635.75 108.587V67.1709C635.75 66.9897 635.897 66.8428 636.078 66.8428Z" fill="#2A3A51"/>
<path d="M607.086 281.771C607.08 280.31 607.426 278.869 608.094 277.571C608.763 276.272 609.735 275.153 610.927 274.309C612.119 273.465 613.497 272.92 614.945 272.721C616.392 272.523 617.866 272.675 619.242 273.166C619.773 271.025 620.85 269.058 622.368 267.457C623.885 265.855 625.791 264.674 627.9 264.028C630.01 263.382 632.25 263.292 634.404 263.769C636.558 264.245 638.552 265.272 640.192 266.747C641.351 263.508 643.615 260.782 646.586 259.048C649.557 257.314 653.045 256.684 656.434 257.27C659.824 257.855 662.899 259.617 665.117 262.247C667.335 264.876 668.554 268.204 668.56 271.644C668.562 272.152 668.535 272.661 668.481 273.166C669.465 272.805 669.013 283.399 668.783 284.2H607.414C607.194 283.402 607.084 282.579 607.086 281.751V281.771Z" fill="#80C33F"/>
<path d="M211.968 95.3678C211.974 93.9069 211.628 92.4661 210.959 91.1672C210.291 89.8683 209.319 88.7495 208.127 87.9054C206.934 87.0614 205.556 86.5169 204.109 86.3181C202.662 86.1192 201.188 86.2718 199.812 86.763C199.28 84.6219 198.204 82.655 196.686 81.0536C195.169 79.4522 193.263 78.2708 191.153 77.6245C189.044 76.9783 186.803 76.8891 184.649 77.3656C182.495 77.8421 180.501 78.8682 178.862 80.3439C177.703 77.1048 175.439 74.3783 172.468 72.6446C169.497 70.9109 166.009 70.2811 162.619 70.8662C159.229 71.4514 156.155 73.2138 153.937 75.8432C151.719 78.4726 150.5 81.8003 150.494 85.2403C150.492 85.7489 150.519 86.2573 150.573 86.763C149.588 86.402 150.041 96.9955 150.271 97.7962H211.64C211.86 96.9989 211.97 96.1752 211.968 95.3481V95.3678Z" fill="#80C33F"/>
<path d="M577.082 18.8057L203.023 19.9155L203.316 118.683L577.375 117.573L577.082 18.8057Z" fill="white"/>
<path fill-rule="evenodd" clip-rule="evenodd" d="M202.645 19.5396L577.458 18.4275L577.753 117.949L202.94 119.061L202.645 19.5396ZM203.402 20.2921L203.692 118.304L576.996 117.197L576.705 19.1845L203.402 20.2921Z" fill="#959DA8"/>
<path d="M458.603 14.0488L578.209 14.0553V24.7079H202.121V14.0356L458.603 14.0488Z" fill="#F4F5F6"/>
<path fill-rule="evenodd" clip-rule="evenodd" d="M201.793 13.7075L578.537 13.7272V25.0361H201.793V13.7075ZM202.449 14.3639V24.3798H577.881V14.3836L202.449 14.3639Z" fill="#959DA8"/>
<path d="M578.209 24.7121V35.3646H202.121V24.6924L458.603 24.7055L578.209 24.7121Z" fill="#F4F5F6"/>
<path fill-rule="evenodd" clip-rule="evenodd" d="M201.793 24.3638L578.537 24.3835V35.6924H201.793V24.3638ZM202.449 25.0202V35.036H577.881V25.0398L202.449 25.0202Z" fill="#959DA8"/>
<path d="M509.883 35.3637H578.209V46.0228H202.121V35.3506H203.926L509.883 35.3637Z" fill="#F4F5F6"/>
<path fill-rule="evenodd" clip-rule="evenodd" d="M201.793 35.0225L578.537 35.0356V46.3511H201.793V35.0225ZM202.449 35.6788V45.6947H577.881V35.6919L202.449 35.6788Z" fill="#959DA8"/>
<path d="M203.926 45.7275L578.209 45.7472V56.3998H202.121V45.7275H203.926Z" fill="#F4F5F6"/>
<path fill-rule="evenodd" clip-rule="evenodd" d="M201.793 45.3994L578.537 45.4191V56.728H201.793V45.3994ZM202.449 46.0558V56.0717H577.881V46.0754L202.449 46.0558Z" fill="#959DA8"/>
<path d="M578.209 56.3994V67.0585H202.121V56.3862L509.883 56.3994H578.209Z" fill="#F4F5F6"/>
<path fill-rule="evenodd" clip-rule="evenodd" d="M201.793 56.0576L578.537 56.0708V67.3862H201.793V56.0576ZM202.449 56.714V66.7299H577.881V56.7271L202.449 56.714Z" fill="#959DA8"/>
<path d="M578.209 67.0595V77.7121H202.121V67.0464L509.883 67.0595H578.209Z" fill="#F4F5F6"/>
<path fill-rule="evenodd" clip-rule="evenodd" d="M201.793 66.7183L578.537 66.7314V78.0403H201.793V66.7183ZM202.449 67.3746V77.384H577.881V67.3877L202.449 67.3746Z" fill="#959DA8"/>
<path d="M578.209 77.7204V88.3729H202.121V77.7007L458.603 77.7138L578.209 77.7204Z" fill="#F4F5F6"/>
<path fill-rule="evenodd" clip-rule="evenodd" d="M201.793 77.3726L578.537 77.3923V88.7012H201.793V77.3726ZM202.449 78.0289V88.0448H577.881V78.0486L202.449 78.0289Z" fill="#959DA8"/>
<path d="M578.209 88.3791V99.0316H202.121V88.3594L458.603 88.3725L578.209 88.3791Z" fill="#F4F5F6"/>
<path fill-rule="evenodd" clip-rule="evenodd" d="M201.793 88.0312L578.537 88.051V99.3599H201.793V88.0312ZM202.449 88.6876V98.7035H577.881V88.7073L202.449 88.6876Z" fill="#959DA8"/>
<path d="M509.883 99.0312H578.209V109.69H202.121V99.0181H203.926L509.883 99.0312Z" fill="#F4F5F6"/>
<path fill-rule="evenodd" clip-rule="evenodd" d="M201.793 98.6895L578.537 98.7026V110.018H201.793V98.6895ZM202.449 99.3458V109.362H577.881V99.3589L202.449 99.3458Z" fill="#959DA8"/>
<path d="M203.926 109.395L578.209 109.414V120.067H202.121V109.395H203.926Z" fill="#F4F5F6"/>
<path fill-rule="evenodd" clip-rule="evenodd" d="M201.793 109.066L578.537 109.086V120.395H201.793V109.066ZM202.449 109.723V119.739H577.881V109.742L202.449 109.723Z" fill="#959DA8"/>
<path d="M577.77 218.321L202.34 219.435L202.642 321.169L578.072 320.055L577.77 218.321Z" fill="white"/>
<path fill-rule="evenodd" clip-rule="evenodd" d="M201.957 219.052L578.155 217.936L578.459 320.438L202.261 321.554L201.957 219.052ZM202.727 219.818L203.027 320.784L577.689 319.672L577.39 218.706L202.727 219.818Z" fill="#959DA8"/>
<path d="M202.258 43.978H301.367V118.73H202.258V43.978Z" fill="white"/>
<path fill-rule="evenodd" clip-rule="evenodd" d="M201.93 43.6499H301.695V119.058H201.93V43.6499ZM202.586 44.3063V118.402H301.038V44.3063H202.586Z" fill="#959DA8"/>
<path fill-rule="evenodd" clip-rule="evenodd" d="M251.457 118.144V44.4751H252.113V118.144H251.457Z" fill="#959DA8"/>
<path d="M202.258 230.381H302.023V311.112H202.258V230.381Z" fill="white"/>
<path fill-rule="evenodd" clip-rule="evenodd" d="M201.93 230.053H302.351V311.441H201.93V230.053ZM202.586 230.71V310.784H301.695V230.71H202.586Z" fill="#959DA8"/>
<path fill-rule="evenodd" clip-rule="evenodd" d="M252.113 310.467V230.917H252.77V310.467H252.113Z" fill="#959DA8"/>
<path d="M479.238 230.381H578.347V311.112H479.238V230.381Z" fill="white"/>
<path fill-rule="evenodd" clip-rule="evenodd" d="M478.91 230.053H578.675V311.441H478.91V230.053ZM479.567 230.71V310.784H578.019V230.71H479.567Z" fill="#959DA8"/>
<path fill-rule="evenodd" clip-rule="evenodd" d="M528.426 310.467V230.917H529.108V310.467H528.426Z" fill="#959DA8"/>
<path d="M202.258 330.798H301.367V422.687H202.258V330.798Z" fill="white"/>
<path fill-rule="evenodd" clip-rule="evenodd" d="M201.93 330.47H301.695V423.015H201.93V330.47ZM202.586 331.127V422.359H301.038V331.127H202.586Z" fill="#959DA8"/>
<path fill-rule="evenodd" clip-rule="evenodd" d="M251.457 421.955V331.411H252.113V421.955H251.457Z" fill="#959DA8"/>
<path d="M186.508 131.927H285.617V206.679H186.508V131.927Z" fill="white"/>
<path fill-rule="evenodd" clip-rule="evenodd" d="M186.18 131.599H285.945V207.007H186.18V131.599ZM186.836 132.255V206.35H285.288V132.255H186.836Z" fill="#959DA8"/>
<path fill-rule="evenodd" clip-rule="evenodd" d="M263.273 206.094V132.426H263.93V206.094H263.273Z" fill="#959DA8"/>
<path fill-rule="evenodd" clip-rule="evenodd" d="M235.707 206.094V132.426H236.363V206.094H235.707Z" fill="#959DA8"/>
<path fill-rule="evenodd" clip-rule="evenodd" d="M208.141 206.094V132.426H208.797V206.094H208.141Z" fill="#959DA8"/>
<path d="M479.238 43.978H578.347V118.73H479.238V43.978Z" fill="white"/>
<path fill-rule="evenodd" clip-rule="evenodd" d="M478.91 43.6499H578.675V119.058H478.91V43.6499ZM479.567 44.3063V118.402H578.019V44.3063H479.567Z" fill="#959DA8"/>
<path fill-rule="evenodd" clip-rule="evenodd" d="M528.438 118.144V44.4751H529.094V118.144H528.438Z" fill="#959DA8"/>
<path d="M143.707 118.798V219.876H318.296V422.688H462.693V219.876H636.625V118.798H143.707Z" fill="#F4F5F6"/>
<path fill-rule="evenodd" clip-rule="evenodd" d="M143.051 118.142H637.282V220.533H463.349V423.345H317.64V220.533H143.051V118.142ZM144.363 119.455V219.22H318.952V422.032H462.037V219.22H635.969V119.455H144.363Z" fill="#959DA8"/>
<path d="M170.098 133.896H269.206V208.648H170.098V133.896Z" fill="white"/>
<path fill-rule="evenodd" clip-rule="evenodd" d="M169.77 133.568H269.535V208.976H169.77V133.568ZM170.426 134.224V208.32H268.878V134.224H170.426Z" fill="#959DA8"/>
<path fill-rule="evenodd" clip-rule="evenodd" d="M245.551 208.064V134.395H246.207V208.064H245.551Z" fill="#959DA8"/>
<path fill-rule="evenodd" clip-rule="evenodd" d="M219.297 208.064V134.395H219.953V208.064H219.297Z" fill="#959DA8"/>
<path fill-rule="evenodd" clip-rule="evenodd" d="M193.043 208.064V134.395H193.699V208.064H193.043Z" fill="#959DA8"/>
<path d="M340.75 133.896H439.859V208.648H340.75V133.896Z" fill="white"/>
<path fill-rule="evenodd" clip-rule="evenodd" d="M340.418 133.568H440.183V208.976H340.418V133.568ZM341.074 134.224V208.32H439.527V134.224H341.074Z" fill="#959DA8"/>
<path fill-rule="evenodd" clip-rule="evenodd" d="M416.199 208.72V133.739H416.856V208.72H416.199Z" fill="#959DA8"/>
<path fill-rule="evenodd" clip-rule="evenodd" d="M389.949 208.72V133.739H390.606V208.72H389.949Z" fill="#959DA8"/>
<path fill-rule="evenodd" clip-rule="evenodd" d="M363.695 208.72V133.739H364.352V208.72H363.695Z" fill="#959DA8"/>
<path d="M293.707 133.896H316.213V208.648H293.707V133.896Z" fill="white"/>
<path fill-rule="evenodd" clip-rule="evenodd" d="M293.379 133.568H316.541V208.976H293.379V133.568ZM294.035 134.224V208.32H315.885V134.224H294.035Z" fill="#959DA8"/>
<path d="M464.359 133.896H486.866V208.648H464.359V133.896Z" fill="white"/>
<path fill-rule="evenodd" clip-rule="evenodd" d="M464.031 133.568H487.194V208.976H464.031V133.568ZM464.688 134.224V208.32H486.537V134.224H464.688Z" fill="#959DA8"/>
<path d="M379.688 230.381H402.194V304.549H379.688V230.381Z" fill="white"/>
<path fill-rule="evenodd" clip-rule="evenodd" d="M379.359 230.053H402.522V304.877H379.359V230.053ZM380.016 230.71V304.221H401.866V230.71H380.016Z" fill="#959DA8"/>
<path d="M379.688 332.767H402.194V406.935H379.688V332.767Z" fill="white"/>
<path fill-rule="evenodd" clip-rule="evenodd" d="M379.359 332.439H402.522V407.263H379.359V332.439ZM380.016 333.095V406.606H401.866V333.095H380.016Z" fill="#959DA8"/>
<path d="M483.395 332.767H505.901V406.935H483.395V332.767Z" fill="white"/>
<path fill-rule="evenodd" clip-rule="evenodd" d="M483.066 332.439H506.229V407.263H483.066V332.439ZM483.723 333.095V406.606H505.573V333.095H483.723Z" fill="#959DA8"/>
<path d="M598.254 332.767H620.76V406.935H598.254V332.767Z" fill="white"/>
<path fill-rule="evenodd" clip-rule="evenodd" d="M597.926 332.439H621.088V407.263H597.926V332.439ZM598.582 333.095V406.606H620.432V333.095H598.582Z" fill="#959DA8"/>
<path d="M511.398 133.896H610.507V208.648H511.398V133.896Z" fill="white"/>
<path fill-rule="evenodd" clip-rule="evenodd" d="M511.07 133.568H610.835V208.976H511.07V133.568ZM511.727 134.224V208.32H610.179V134.224H511.727Z" fill="#959DA8"/>
<path fill-rule="evenodd" clip-rule="evenodd" d="M586.852 208.72V133.739H587.508V208.72H586.852Z" fill="#959DA8"/>
<path fill-rule="evenodd" clip-rule="evenodd" d="M560.598 208.72V133.739H561.254V208.72H560.598Z" fill="#959DA8"/>
<path fill-rule="evenodd" clip-rule="evenodd" d="M534.344 208.72V133.739H535V208.72H534.344Z" fill="#959DA8"/>
<path d="M590.943 82.3716V118.799H584.668L584.674 82.3716H590.943Z" fill="#F4F5F6"/>
<path fill-rule="evenodd" clip-rule="evenodd" d="M584.346 82.0435H591.271V119.127H584.34L584.346 82.0435ZM585.003 82.6998L584.996 118.471H590.615V82.6998H585.003Z" fill="#959DA8"/>
<path d="M584.38 82.3716V118.799H578.105L578.112 82.3716H584.38Z" fill="#F4F5F6"/>
<path fill-rule="evenodd" clip-rule="evenodd" d="M577.784 82.0435H584.708V119.127H577.777L577.784 82.0435ZM578.44 82.6998L578.434 118.471H584.052V82.6998H578.44Z" fill="#959DA8"/>
<path d="M597.506 82.3716H591.094V118.799H597.506V82.3716Z" fill="#F4F5F6"/>
<path fill-rule="evenodd" clip-rule="evenodd" d="M590.766 82.0435H597.835V119.127H590.766V82.0435ZM591.422 82.6998V118.471H597.178V82.6998H591.422Z" fill="#959DA8"/>
<path d="M604.069 82.3716H597.656V118.799H604.069V82.3716Z" fill="#F4F5F6"/>
<path fill-rule="evenodd" clip-rule="evenodd" d="M597.328 82.0435H604.397V119.127H597.328V82.0435ZM597.984 82.6998V118.471H603.741V82.6998H597.984Z" fill="#959DA8"/>
<path d="M610.631 82.3716H604.219V118.799H610.631V82.3716Z" fill="#F4F5F6"/>
<path fill-rule="evenodd" clip-rule="evenodd" d="M603.891 82.0435H610.96V119.127H603.891V82.0435ZM604.547 82.6998V118.471H610.303V82.6998H604.547Z" fill="#959DA8"/>
<path d="M617.198 82.3716H610.785V118.799H617.198V82.3716Z" fill="#F4F5F6"/>
<path fill-rule="evenodd" clip-rule="evenodd" d="M610.457 82.0435H617.526V119.127H610.457V82.0435ZM611.113 82.6998V118.471H616.87V82.6998H611.113Z" fill="#959DA8"/>
<path d="M623.76 82.3716H617.348V118.799H623.76V82.3716Z" fill="#F4F5F6"/>
<path fill-rule="evenodd" clip-rule="evenodd" d="M617.02 82.0435H624.088V119.127H617.02V82.0435ZM617.676 82.6998V118.471H623.432V82.6998H617.676Z" fill="#959DA8"/>
<path d="M630.323 82.3716H623.91V118.799H630.323V82.3716Z" fill="#F4F5F6"/>
<path fill-rule="evenodd" clip-rule="evenodd" d="M623.582 82.0435H630.651V119.127H623.582V82.0435ZM624.238 82.6998V118.471H629.995V82.6998H624.238Z" fill="#959DA8"/>
<path d="M636.885 82.3716H630.473V118.799H636.885V82.3716Z" fill="#F4F5F6"/>
<path fill-rule="evenodd" clip-rule="evenodd" d="M630.145 82.0435H637.213V119.127H630.145V82.0435ZM630.801 82.6998V118.471H636.557V82.6998H630.801Z" fill="#959DA8"/>
<path d="M643.448 82.3716H637.035V118.799H643.448V82.3716Z" fill="#F4F5F6"/>
<path fill-rule="evenodd" clip-rule="evenodd" d="M636.707 82.0435H643.776V119.127H636.707V82.0435ZM637.363 82.6998V118.471H643.12V82.6998H637.363Z" fill="#959DA8"/>
<path d="M650.01 82.3716H643.598V118.799H650.01V82.3716Z" fill="#F4F5F6"/>
<path fill-rule="evenodd" clip-rule="evenodd" d="M643.27 82.0435H650.338V119.127H643.27V82.0435ZM643.926 82.6998V118.471H649.682V82.6998H643.926Z" fill="#959DA8"/>
<path fill-rule="evenodd" clip-rule="evenodd" d="M577.73 82.0444H650.408V119.456H577.73V82.0444ZM579.043 83.3571V118.144H649.095V83.3571H579.043Z" fill="#959DA8"/>
<path d="M97.1055 219.878V230.38H301.886V311.11H97.1055V321.612H318.295V219.878H97.1055Z" fill="#D3DCE5"/>
<path fill-rule="evenodd" clip-rule="evenodd" d="M104.766 311.11V230.878H106.078V311.11H104.766Z" fill="#959DA8"/>
<path d="M683.881 219.878V230.38H479.1V311.11H683.881V321.612H462.691V219.878H683.881Z" fill="#D3DCE5"/>
<path fill-rule="evenodd" clip-rule="evenodd" d="M674.906 311.11V230.878H676.219V311.11H674.906Z" fill="#959DA8"/>
<path d="M259.486 274.684V311.111H253.211L253.218 274.684H259.486Z" fill="#F4F5F6"/>
<path fill-rule="evenodd" clip-rule="evenodd" d="M252.89 274.355H259.814V311.439H252.883L252.89 274.355ZM253.546 275.012L253.539 310.783H259.158V275.012H253.546Z" fill="#959DA8"/>
<path d="M252.923 274.684V311.111H246.648L246.655 274.684H252.923Z" fill="#F4F5F6"/>
<path fill-rule="evenodd" clip-rule="evenodd" d="M246.327 274.355H253.251V311.439H246.32L246.327 274.355ZM246.983 275.012L246.977 310.783H252.595V275.012H246.983Z" fill="#959DA8"/>
<path d="M266.049 274.684H259.637V311.111H266.049V274.684Z" fill="#F4F5F6"/>
<path fill-rule="evenodd" clip-rule="evenodd" d="M259.309 274.355H266.377V311.439H259.309V274.355ZM259.965 275.012V310.783H265.721V275.012H259.965Z" fill="#959DA8"/>
<path d="M272.612 274.684H266.199V311.111H272.612V274.684Z" fill="#F4F5F6"/>
<path fill-rule="evenodd" clip-rule="evenodd" d="M265.871 274.355H272.94V311.439H265.871V274.355ZM266.527 275.012V310.783H272.284V275.012H266.527Z" fill="#959DA8"/>
<path d="M279.174 274.684H272.762V311.111H279.174V274.684Z" fill="#F4F5F6"/>
<path fill-rule="evenodd" clip-rule="evenodd" d="M272.434 274.355H279.502V311.439H272.434V274.355ZM273.09 275.012V310.783H278.846V275.012H273.09Z" fill="#959DA8"/>
<path d="M285.737 274.684H279.324V311.111H285.737V274.684Z" fill="#F4F5F6"/>
<path fill-rule="evenodd" clip-rule="evenodd" d="M278.996 274.355H286.065V311.439H278.996V274.355ZM279.652 275.012V310.783H285.409V275.012H279.652Z" fill="#959DA8"/>
<path d="M292.299 274.684H285.887V311.111H292.299V274.684Z" fill="#F4F5F6"/>
<path fill-rule="evenodd" clip-rule="evenodd" d="M285.559 274.355H292.627V311.439H285.559V274.355ZM286.215 275.012V310.783H291.971V275.012H286.215Z" fill="#959DA8"/>
<path d="M298.866 274.684H292.453V311.111H298.866V274.684Z" fill="#F4F5F6"/>
<path fill-rule="evenodd" clip-rule="evenodd" d="M292.125 274.355H299.194V311.439H292.125V274.355ZM292.781 275.012V310.783H298.538V275.012H292.781Z" fill="#959DA8"/>
<path d="M305.428 274.684H299.016V311.111H305.428V274.684Z" fill="#F4F5F6"/>
<path fill-rule="evenodd" clip-rule="evenodd" d="M298.688 274.355H305.756V311.439H298.688V274.355ZM299.344 275.012V310.783H305.1V275.012H299.344Z" fill="#959DA8"/>
<path d="M311.991 274.684H305.578V311.111H311.991V274.684Z" fill="#F4F5F6"/>
<path fill-rule="evenodd" clip-rule="evenodd" d="M305.25 274.355H312.319V311.439H305.25V274.355ZM305.906 275.012V310.783H311.663V275.012H305.906Z" fill="#959DA8"/>
<path d="M318.557 274.684H312.145V311.111H318.557V274.684Z" fill="#F4F5F6"/>
<path fill-rule="evenodd" clip-rule="evenodd" d="M311.816 274.355H318.885V311.439H311.816V274.355ZM312.473 275.012V310.783H318.229V275.012H312.473Z" fill="#959DA8"/>
<path d="M187.286 274.684V311.111H181.012L181.018 274.684H187.286Z" fill="#F4F5F6"/>
<path fill-rule="evenodd" clip-rule="evenodd" d="M180.69 274.355H187.615V311.439H180.684L180.69 274.355ZM181.347 275.012L181.34 310.783H186.958V275.012H181.347Z" fill="#959DA8"/>
<path d="M180.724 274.684V311.111H174.449L174.456 274.684H180.724Z" fill="#F4F5F6"/>
<path fill-rule="evenodd" clip-rule="evenodd" d="M174.128 274.355H181.052V311.439H174.121L174.128 274.355ZM174.784 275.012L174.778 310.783H180.396V275.012H174.784Z" fill="#959DA8"/>
<path d="M193.85 274.684H187.438V311.111H193.85V274.684Z" fill="#F4F5F6"/>
<path fill-rule="evenodd" clip-rule="evenodd" d="M187.109 274.355H194.178V311.439H187.109V274.355ZM187.766 275.012V310.783H193.522V275.012H187.766Z" fill="#959DA8"/>
<path d="M200.413 274.684H194V311.111H200.413V274.684Z" fill="#F4F5F6"/>
<path fill-rule="evenodd" clip-rule="evenodd" d="M193.672 274.355H200.741V311.439H193.672V274.355ZM194.328 275.012V310.783H200.084V275.012H194.328Z" fill="#959DA8"/>
<path d="M206.975 274.684H200.562V311.111H206.975V274.684Z" fill="#F4F5F6"/>
<path fill-rule="evenodd" clip-rule="evenodd" d="M200.234 274.355H207.303V311.439H200.234V274.355ZM200.891 275.012V310.783H206.647V275.012H200.891Z" fill="#959DA8"/>
<path d="M213.538 274.684H207.125V311.111H213.538V274.684Z" fill="#F4F5F6"/>
<path fill-rule="evenodd" clip-rule="evenodd" d="M206.797 274.355H213.866V311.439H206.797V274.355ZM207.453 275.012V310.783H213.209V275.012H207.453Z" fill="#959DA8"/>
<path d="M220.1 274.684H213.688V311.111H220.1V274.684Z" fill="#F4F5F6"/>
<path fill-rule="evenodd" clip-rule="evenodd" d="M213.359 274.355H220.428V311.439H213.359V274.355ZM214.016 275.012V310.783H219.772V275.012H214.016Z" fill="#959DA8"/>
<path d="M226.666 274.684H220.254V311.111H226.666V274.684Z" fill="#F4F5F6"/>
<path fill-rule="evenodd" clip-rule="evenodd" d="M219.926 274.355H226.995V311.439H219.926V274.355ZM220.582 275.012V310.783H226.338V275.012H220.582Z" fill="#959DA8"/>
<path d="M233.229 274.684H226.816V311.111H233.229V274.684Z" fill="#F4F5F6"/>
<path fill-rule="evenodd" clip-rule="evenodd" d="M226.488 274.355H233.557V311.439H226.488V274.355ZM227.145 275.012V310.783H232.901V275.012H227.145Z" fill="#959DA8"/>
<path d="M239.795 274.684H233.383V311.111H239.795V274.684Z" fill="#F4F5F6"/>
<path fill-rule="evenodd" clip-rule="evenodd" d="M233.055 274.355H240.124V311.439H233.055V274.355ZM233.711 275.012V310.783H239.467V275.012H233.711Z" fill="#959DA8"/>
<path d="M246.358 274.684H239.945V311.111H246.358V274.684Z" fill="#F4F5F6"/>
<path fill-rule="evenodd" clip-rule="evenodd" d="M239.617 274.355H246.686V311.439H239.617V274.355ZM240.274 275.012V310.783H246.03V275.012H240.274Z" fill="#959DA8"/>
<path d="M115.091 274.684V311.111H108.816L108.823 274.684H115.091Z" fill="#F4F5F6"/>
<path fill-rule="evenodd" clip-rule="evenodd" d="M108.491 274.355H115.415V311.439H108.484L108.491 274.355ZM109.147 275.012L109.141 310.783H114.759V275.012H109.147Z" fill="#959DA8"/>
<path d="M108.525 274.684V311.111H102.25L102.257 274.684H108.525Z" fill="#F4F5F6"/>
<path fill-rule="evenodd" clip-rule="evenodd" d="M101.929 274.355H108.853V311.439H101.922L101.929 274.355ZM102.585 275.012L102.578 310.783H108.197V275.012H102.585Z" fill="#959DA8"/>
<path d="M102.618 274.684V311.111H96.3438L96.3503 274.684H102.618Z" fill="#F4F5F6"/>
<path fill-rule="evenodd" clip-rule="evenodd" d="M96.0223 274.355H102.947V311.439H96.0156L96.0223 274.355ZM96.6785 275.012L96.6721 310.783H102.29V275.012H96.6785Z" fill="#959DA8"/>
<path d="M121.651 274.684H115.238V311.111H121.651V274.684Z" fill="#F4F5F6"/>
<path fill-rule="evenodd" clip-rule="evenodd" d="M114.91 274.355H121.979V311.439H114.91V274.355ZM115.567 275.012V310.783H121.323V275.012H115.567Z" fill="#959DA8"/>
<path d="M128.217 274.684H121.805V311.111H128.217V274.684Z" fill="#F4F5F6"/>
<path fill-rule="evenodd" clip-rule="evenodd" d="M121.477 274.355H128.545V311.439H121.477V274.355ZM122.133 275.012V310.783H127.889V275.012H122.133Z" fill="#959DA8"/>
<path d="M134.78 274.684H128.367V311.111H134.78V274.684Z" fill="#F4F5F6"/>
<path fill-rule="evenodd" clip-rule="evenodd" d="M128.039 274.355H135.108V311.439H128.039V274.355ZM128.695 275.012V310.783H134.452V275.012H128.695Z" fill="#959DA8"/>
<path d="M141.342 274.684H134.93V311.111H141.342V274.684Z" fill="#F4F5F6"/>
<path fill-rule="evenodd" clip-rule="evenodd" d="M134.602 274.355H141.67V311.439H134.602V274.355ZM135.258 275.012V310.783H141.014V275.012H135.258Z" fill="#959DA8"/>
<path d="M147.905 274.684H141.492V311.111H147.905V274.684Z" fill="#F4F5F6"/>
<path fill-rule="evenodd" clip-rule="evenodd" d="M141.164 274.355H148.233V311.439H141.164V274.355ZM141.82 275.012V310.783H147.577V275.012H141.82Z" fill="#959DA8"/>
<path d="M154.467 274.684H148.055V311.111H154.467V274.684Z" fill="#F4F5F6"/>
<path fill-rule="evenodd" clip-rule="evenodd" d="M147.727 274.355H154.795V311.439H147.727V274.355ZM148.383 275.012V310.783H154.139V275.012H148.383Z" fill="#959DA8"/>
<path d="M161.03 274.684H154.617V311.111H161.03V274.684Z" fill="#F4F5F6"/>
<path fill-rule="evenodd" clip-rule="evenodd" d="M154.289 274.355H161.358V311.439H154.289V274.355ZM154.945 275.012V310.783H160.702V275.012H154.945Z" fill="#959DA8"/>
<path d="M167.596 274.684H161.184V311.111H167.596V274.684Z" fill="#F4F5F6"/>
<path fill-rule="evenodd" clip-rule="evenodd" d="M160.855 274.355H167.924V311.439H160.855V274.355ZM161.512 275.012V310.783H167.268V275.012H161.512Z" fill="#959DA8"/>
<path d="M174.159 274.684H167.746V311.111H174.159V274.684Z" fill="#F4F5F6"/>
<path fill-rule="evenodd" clip-rule="evenodd" d="M167.418 274.355H174.487V311.439H167.418V274.355ZM168.074 275.012V310.783H173.83V275.012H168.074Z" fill="#959DA8"/>
<path fill-rule="evenodd" clip-rule="evenodd" d="M96.4615 274.353H318.952V311.764H95.7812L96.4615 274.353ZM97.7505 275.665L97.118 310.452H317.639V275.665H97.7505Z" fill="#959DA8"/>
<path d="M625.728 274.684V311.111H619.453L619.46 274.684H625.728Z" fill="#F4F5F6"/>
<path fill-rule="evenodd" clip-rule="evenodd" d="M619.132 274.355H626.056V311.439H619.125L619.132 274.355ZM619.788 275.012L619.781 310.783H625.4V275.012H619.788Z" fill="#959DA8"/>
<path d="M619.165 274.684V311.111H612.891L612.897 274.684H619.165Z" fill="#F4F5F6"/>
<path fill-rule="evenodd" clip-rule="evenodd" d="M612.569 274.355H619.494V311.439H612.562L612.569 274.355ZM613.225 275.012L613.219 310.783H618.837V275.012H613.225Z" fill="#959DA8"/>
<path d="M632.291 274.684H625.879V311.111H632.291V274.684Z" fill="#F4F5F6"/>
<path fill-rule="evenodd" clip-rule="evenodd" d="M625.551 274.355H632.62V311.439H625.551V274.355ZM626.207 275.012V310.783H631.963V275.012H626.207Z" fill="#959DA8"/>
<path d="M638.854 274.684H632.441V311.111H638.854V274.684Z" fill="#F4F5F6"/>
<path fill-rule="evenodd" clip-rule="evenodd" d="M632.113 274.355H639.182V311.439H632.113V274.355ZM632.77 275.012V310.783H638.526V275.012H632.77Z" fill="#959DA8"/>
<path d="M645.416 274.684H639.004V311.111H645.416V274.684Z" fill="#F4F5F6"/>
<path fill-rule="evenodd" clip-rule="evenodd" d="M638.676 274.355H645.745V311.439H638.676V274.355ZM639.332 275.012V310.783H645.088V275.012H639.332Z" fill="#959DA8"/>
<path d="M651.983 274.684H645.57V311.111H651.983V274.684Z" fill="#F4F5F6"/>
<path fill-rule="evenodd" clip-rule="evenodd" d="M645.242 274.355H652.311V311.439H645.242V274.355ZM645.899 275.012V310.783H651.655V275.012H645.899Z" fill="#959DA8"/>
<path d="M658.545 274.684H652.133V311.111H658.545V274.684Z" fill="#F4F5F6"/>
<path fill-rule="evenodd" clip-rule="evenodd" d="M651.805 274.355H658.874V311.439H651.805V274.355ZM652.461 275.012V310.783H658.217V275.012H652.461Z" fill="#959DA8"/>
<path d="M665.108 274.684H658.695V311.111H665.108V274.684Z" fill="#F4F5F6"/>
<path fill-rule="evenodd" clip-rule="evenodd" d="M658.367 274.355H665.436V311.439H658.367V274.355ZM659.024 275.012V310.783H664.78V275.012H659.024Z" fill="#959DA8"/>
<path d="M671.674 274.684H665.262V311.111H671.674V274.684Z" fill="#F4F5F6"/>
<path fill-rule="evenodd" clip-rule="evenodd" d="M664.934 274.355H672.002V311.439H664.934V274.355ZM665.59 275.012V310.783H671.346V275.012H665.59Z" fill="#959DA8"/>
<path d="M678.237 274.684H671.824V311.111H678.237V274.684Z" fill="#F4F5F6"/>
<path fill-rule="evenodd" clip-rule="evenodd" d="M671.496 274.355H678.565V311.439H671.496V274.355ZM672.152 275.012V310.783H677.909V275.012H672.152Z" fill="#959DA8"/>
<path d="M684.799 274.684H678.387V311.111H684.799V274.684Z" fill="#F4F5F6"/>
<path fill-rule="evenodd" clip-rule="evenodd" d="M678.059 274.355H685.127V311.439H678.059V274.355ZM678.715 275.012V310.783H684.471V275.012H678.715Z" fill="#959DA8"/>
<path d="M553.529 274.684V311.111H547.254L547.26 274.684H553.529Z" fill="#F4F5F6"/>
<path fill-rule="evenodd" clip-rule="evenodd" d="M546.932 274.355H553.857V311.439H546.926L546.932 274.355ZM547.589 275.012L547.582 310.783H553.201V275.012H547.589Z" fill="#959DA8"/>
<path d="M546.966 274.684V311.111H540.691L540.698 274.684H546.966Z" fill="#F4F5F6"/>
<path fill-rule="evenodd" clip-rule="evenodd" d="M540.37 274.355H547.294V311.439H540.363L540.37 274.355ZM541.026 275.012L541.02 310.783H546.638V275.012H541.026Z" fill="#959DA8"/>
<path d="M560.092 274.684H553.68V311.111H560.092V274.684Z" fill="#F4F5F6"/>
<path fill-rule="evenodd" clip-rule="evenodd" d="M553.352 274.355H560.42V311.439H553.352V274.355ZM554.008 275.012V310.783H559.764V275.012H554.008Z" fill="#959DA8"/>
<path d="M566.655 274.684H560.242V311.111H566.655V274.684Z" fill="#F4F5F6"/>
<path fill-rule="evenodd" clip-rule="evenodd" d="M559.914 274.355H566.983V311.439H559.914V274.355ZM560.57 275.012V310.783H566.327V275.012H560.57Z" fill="#959DA8"/>
<path d="M573.217 274.684H566.805V311.111H573.217V274.684Z" fill="#F4F5F6"/>
<path fill-rule="evenodd" clip-rule="evenodd" d="M566.477 274.355H573.545V311.439H566.477V274.355ZM567.133 275.012V310.783H572.889V275.012H567.133Z" fill="#959DA8"/>
<path d="M579.78 274.684H573.367V311.111H579.78V274.684Z" fill="#F4F5F6"/>
<path fill-rule="evenodd" clip-rule="evenodd" d="M573.039 274.355H580.108V311.439H573.039V274.355ZM573.695 275.012V310.783H579.452V275.012H573.695Z" fill="#959DA8"/>
<path d="M586.346 274.684H579.934V311.111H586.346V274.684Z" fill="#F4F5F6"/>
<path fill-rule="evenodd" clip-rule="evenodd" d="M579.605 274.355H586.674V311.439H579.605V274.355ZM580.262 275.012V310.783H586.018V275.012H580.262Z" fill="#959DA8"/>
<path d="M592.909 274.684H586.496V311.111H592.909V274.684Z" fill="#F4F5F6"/>
<path fill-rule="evenodd" clip-rule="evenodd" d="M586.168 274.355H593.237V311.439H586.168V274.355ZM586.824 275.012V310.783H592.581V275.012H586.824Z" fill="#959DA8"/>
<path d="M599.475 274.684H593.062V311.111H599.475V274.684Z" fill="#F4F5F6"/>
<path fill-rule="evenodd" clip-rule="evenodd" d="M592.734 274.355H599.803V311.439H592.734V274.355ZM593.391 275.012V310.783H599.147V275.012H593.391Z" fill="#959DA8"/>
<path d="M606.038 274.684H599.625V311.111H606.038V274.684Z" fill="#F4F5F6"/>
<path fill-rule="evenodd" clip-rule="evenodd" d="M599.297 274.355H606.366V311.439H599.297V274.355ZM599.953 275.012V310.783H605.709V275.012H599.953Z" fill="#959DA8"/>
<path d="M612.6 274.684H606.188V311.111H612.6V274.684Z" fill="#F4F5F6"/>
<path fill-rule="evenodd" clip-rule="evenodd" d="M605.859 274.355H612.928V311.439H605.859V274.355ZM606.516 275.012V310.783H612.272V275.012H606.516Z" fill="#959DA8"/>
<path d="M481.333 274.684V311.111H475.059L475.065 274.684H481.333Z" fill="#F4F5F6"/>
<path fill-rule="evenodd" clip-rule="evenodd" d="M474.737 274.355H481.662V311.439H474.73L474.737 274.355ZM475.393 275.012L475.387 310.783H481.005V275.012H475.393Z" fill="#959DA8"/>
<path d="M474.771 274.684V311.111H468.496L468.503 274.684H474.771Z" fill="#F4F5F6"/>
<path fill-rule="evenodd" clip-rule="evenodd" d="M468.175 274.355H475.099V311.439H468.168L468.175 274.355ZM468.831 275.012L468.824 310.783H474.443V275.012H468.831Z" fill="#959DA8"/>
<path d="M468.861 274.684V311.111H462.586L462.592 274.684H468.861Z" fill="#F4F5F6"/>
<path fill-rule="evenodd" clip-rule="evenodd" d="M462.264 274.355H469.189V311.439H462.258L462.264 274.355ZM462.921 275.012L462.914 310.783H468.533V275.012H462.921Z" fill="#959DA8"/>
<path d="M487.893 274.684H481.48V311.111H487.893V274.684Z" fill="#F4F5F6"/>
<path fill-rule="evenodd" clip-rule="evenodd" d="M481.152 274.355H488.221V311.439H481.152V274.355ZM481.809 275.012V310.783H487.565V275.012H481.809Z" fill="#959DA8"/>
<path d="M494.459 274.684H488.047V311.111H494.459V274.684Z" fill="#F4F5F6"/>
<path fill-rule="evenodd" clip-rule="evenodd" d="M487.719 274.355H494.788V311.439H487.719V274.355ZM488.375 275.012V310.783H494.131V275.012H488.375Z" fill="#959DA8"/>
<path d="M501.022 274.684H494.609V311.111H501.022V274.684Z" fill="#F4F5F6"/>
<path fill-rule="evenodd" clip-rule="evenodd" d="M494.281 274.355H501.35V311.439H494.281V274.355ZM494.938 275.012V310.783H500.694V275.012H494.938Z" fill="#959DA8"/>
<path d="M507.584 274.684H501.172V311.111H507.584V274.684Z" fill="#F4F5F6"/>
<path fill-rule="evenodd" clip-rule="evenodd" d="M500.844 274.355H507.913V311.439H500.844V274.355ZM501.5 275.012V310.783H507.256V275.012H501.5Z" fill="#959DA8"/>
<path d="M514.147 274.684H507.734V311.111H514.147V274.684Z" fill="#F4F5F6"/>
<path fill-rule="evenodd" clip-rule="evenodd" d="M507.406 274.355H514.475V311.439H507.406V274.355ZM508.063 275.012V310.783H513.819V275.012H508.063Z" fill="#959DA8"/>
<path d="M520.709 274.684H514.297V311.111H520.709V274.684Z" fill="#F4F5F6"/>
<path fill-rule="evenodd" clip-rule="evenodd" d="M513.969 274.355H521.038V311.439H513.969V274.355ZM514.625 275.012V310.783H520.381V275.012H514.625Z" fill="#959DA8"/>
<path d="M527.276 274.684H520.863V311.111H527.276V274.684Z" fill="#F4F5F6"/>
<path fill-rule="evenodd" clip-rule="evenodd" d="M520.535 274.355H527.604V311.439H520.535V274.355ZM521.192 275.012V310.783H526.948V275.012H521.192Z" fill="#959DA8"/>
<path d="M533.838 274.684H527.426V311.111H533.838V274.684Z" fill="#F4F5F6"/>
<path fill-rule="evenodd" clip-rule="evenodd" d="M527.098 274.355H534.167V311.439H527.098V274.355ZM527.754 275.012V310.783H533.51V275.012H527.754Z" fill="#959DA8"/>
<path d="M540.401 274.684H533.988V311.111H540.401V274.684Z" fill="#F4F5F6"/>
<path fill-rule="evenodd" clip-rule="evenodd" d="M533.66 274.355H540.729V311.439H533.66V274.355ZM534.317 275.012V310.783H540.073V275.012H534.317Z" fill="#959DA8"/>
<path fill-rule="evenodd" clip-rule="evenodd" d="M462.704 274.353H685.194V311.764H462.023L462.704 274.353ZM463.993 275.665L463.36 310.452H683.882V275.665H463.993Z" fill="#959DA8"/>
<path fill-rule="evenodd" clip-rule="evenodd" d="M143.703 422.69V321.612H142.391V424.002H637.934V321.612H636.622V422.69H143.703Z" fill="#959DA8"/>
<path d="M359.767 382.567C360.256 380.384 360.254 378.119 359.76 375.937C359.267 373.755 358.294 371.71 356.913 369.949C355.532 368.189 353.777 366.758 351.775 365.759C349.773 364.76 347.574 364.219 345.337 364.174C343.1 364.129 340.882 364.582 338.841 365.5C336.801 366.419 334.99 367.779 333.54 369.483C332.09 371.186 331.037 373.191 330.456 375.352C329.876 377.513 329.784 379.776 330.185 381.977C328.537 382.777 327.082 383.924 325.918 385.339C324.754 386.754 323.909 388.403 323.441 390.174C322.974 391.946 322.894 393.797 323.207 395.602C323.521 397.407 324.22 399.123 325.258 400.633C326.296 402.143 327.647 403.411 329.22 404.35C330.793 405.29 332.55 405.878 334.371 406.076C336.193 406.274 338.035 406.076 339.773 405.497C341.511 404.917 343.103 403.969 344.441 402.717C345.74 403.938 347.282 404.872 348.965 405.459C350.648 406.045 352.436 406.272 354.212 406.124C355.989 405.976 357.714 405.456 359.277 404.599C360.84 403.741 362.205 402.565 363.284 401.146C364.363 399.727 365.132 398.097 365.541 396.362C365.951 394.627 365.991 392.826 365.659 391.074C365.327 389.323 364.632 387.66 363.617 386.195C362.601 384.729 361.29 383.494 359.767 382.567Z" fill="#80C33F"/>
<path fill-rule="evenodd" clip-rule="evenodd" d="M337.805 390.923C337.906 390.772 338.109 390.731 338.26 390.832L345.211 395.466C345.362 395.566 345.403 395.77 345.302 395.921C345.201 396.072 344.998 396.112 344.847 396.012L337.896 391.378C337.745 391.278 337.705 391.074 337.805 390.923Z" fill="#2A3A51"/>
<path fill-rule="evenodd" clip-rule="evenodd" d="M353.375 394.372C353.493 394.51 353.477 394.717 353.339 394.835L345.233 401.779C345.095 401.897 344.888 401.881 344.77 401.743C344.652 401.606 344.668 401.398 344.806 401.28L352.912 394.336C353.05 394.218 353.257 394.234 353.375 394.372Z" fill="#2A3A51"/>
<path fill-rule="evenodd" clip-rule="evenodd" d="M345.027 381.516C345.209 381.516 345.356 381.663 345.356 381.844V423.522C345.356 423.704 345.209 423.851 345.027 423.851C344.846 423.851 344.699 423.704 344.699 423.522V381.844C344.699 381.663 344.846 381.516 345.027 381.516Z" fill="#2A3A51"/>
<path d="M580.386 347.865H552.262V412.6H580.386V347.865Z" fill="#D3DCE5"/>
<path d="M576.404 352.461H556.234V384.478H576.404V352.461Z" fill="white"/>
<path fill-rule="evenodd" clip-rule="evenodd" d="M555.891 352.116H576.749V384.822H555.891V352.116ZM556.58 352.805V384.133H576.06V352.805H556.58Z" fill="#959DA8"/>
<path d="M557.535 389.544C558.26 389.544 558.848 388.957 558.848 388.232C558.848 387.507 558.26 386.919 557.535 386.919C556.81 386.919 556.223 387.507 556.223 388.232C556.223 388.957 556.81 389.544 557.535 389.544Z" fill="white"/>
<path fill-rule="evenodd" clip-rule="evenodd" d="M557.535 387.247C556.992 387.247 556.551 387.687 556.551 388.231C556.551 388.775 556.992 389.216 557.535 389.216C558.079 389.216 558.52 388.775 558.52 388.231C558.52 387.687 558.079 387.247 557.535 387.247ZM555.895 388.231C555.895 387.325 556.629 386.59 557.535 386.59C558.442 386.59 559.176 387.325 559.176 388.231C559.176 389.137 558.442 389.872 557.535 389.872C556.629 389.872 555.895 389.137 555.895 388.231Z" fill="#959DA8"/>
<path d="M524.691 347.865H552.816V412.6H524.698L524.691 347.865Z" fill="#D3DCE5"/>
<path d="M528.674 384.476H548.844V352.459H528.674V384.476Z" fill="white"/>
<path fill-rule="evenodd" clip-rule="evenodd" d="M549.188 384.82H528.329V352.114H549.188V384.82ZM548.498 384.131V352.804H529.018V384.131H548.498Z" fill="#959DA8"/>
<path d="M547.543 389.544C548.268 389.544 548.856 388.957 548.856 388.232C548.856 387.507 548.268 386.919 547.543 386.919C546.818 386.919 546.23 387.507 546.23 388.232C546.23 388.957 546.818 389.544 547.543 389.544Z" fill="white"/>
<path fill-rule="evenodd" clip-rule="evenodd" d="M547.543 387.247C546.999 387.247 546.559 387.687 546.559 388.231C546.559 388.775 546.999 389.216 547.543 389.216C548.087 389.216 548.528 388.775 548.528 388.231C548.528 387.687 548.087 387.247 547.543 387.247ZM545.902 388.231C545.902 387.325 546.637 386.59 547.543 386.59C548.449 386.59 549.184 387.325 549.184 388.231C549.184 389.137 548.449 389.872 547.543 389.872C546.637 389.872 545.902 389.137 545.902 388.231Z" fill="#959DA8"/>
<path d="M591.991 417.024H514.738V423.437H591.991V417.024Z" fill="#D3DCE5"/>
<path fill-rule="evenodd" clip-rule="evenodd" d="M514.262 416.545H592.472V423.916H514.262V416.545ZM515.22 417.504V422.958H591.514V417.504H515.22Z" fill="#959DA8"/>
<path d="M591.991 410.625H514.738V417.038H591.991V410.625Z" fill="#D3DCE5"/>
<path fill-rule="evenodd" clip-rule="evenodd" d="M514.262 410.146H592.472V417.517H514.262V410.146ZM515.22 411.104V416.559H591.514V411.104H515.22Z" fill="#959DA8"/>
<path fill-rule="evenodd" clip-rule="evenodd" d="M201.793 13.4561H579.194V44.3045H480.085V119.397H300.665V44.3045H201.793V13.4561ZM203.106 14.7688V42.9918H301.978V118.085H478.772V42.9918H577.881V14.7688H203.106Z" fill="#959DA8"/>
<path d="M0.62117 420.917C0.615171 419.456 0.96108 418.015 1.62964 416.716C2.2982 415.418 3.26974 414.299 4.4621 413.455C5.65445 412.611 7.03254 412.066 8.47981 411.867C9.92708 411.669 11.4009 411.821 12.7768 412.312C13.3085 410.171 14.3854 408.204 15.9028 406.603C17.4201 405.001 19.3262 403.82 21.4355 403.174C23.5449 402.528 25.7856 402.438 27.9396 402.915C30.0936 403.391 32.0876 404.417 33.7274 405.893C34.8858 402.654 37.1499 399.928 40.121 398.194C43.0922 396.46 46.5798 395.83 49.9696 396.416C53.3595 397.001 56.4342 398.763 58.6522 401.393C60.8702 404.022 62.0893 407.35 62.0949 410.79C62.0967 411.298 62.0704 411.807 62.0161 412.312C63.0045 411.951 64.0487 411.767 65.1009 411.768C70.1548 411.768 74.5524 415.87 74.2308 420.897C74.1844 421.726 74.0457 422.547 73.8173 423.346H0.949345C0.729316 422.548 0.61891 421.725 0.62117 420.897V420.917Z" fill="#80C33F"/>
<path fill-rule="evenodd" clip-rule="evenodd" d="M139.135 423.851L124.656 373.738L125.917 373.374L140.396 423.486L139.135 423.851Z" fill="#959DA8"/>
<path fill-rule="evenodd" clip-rule="evenodd" d="M109.625 423.486L124.104 373.374L125.365 373.738L110.886 423.851L109.625 423.486Z" fill="#959DA8"/>
<path d="M71.8594 391.099L73.8744 397.347L77.4252 408.354H124.755L121.197 397.347L119.182 391.099H71.8594Z" fill="#F4F5F6"/>
<path fill-rule="evenodd" clip-rule="evenodd" d="M71.4102 390.771H119.423L121.511 397.246L125.207 408.682H77.1877L73.5635 397.448L71.4102 390.771ZM72.3114 391.427L74.1881 397.246L77.6656 408.026H124.305L120.886 397.448L118.945 391.427H72.3114Z" fill="#959DA8"/>
<path d="M77.4335 412.811H135.895V408.354H77.4335V412.811Z" fill="#F4F5F6"/>
<path fill-rule="evenodd" clip-rule="evenodd" d="M136.223 413.14H77.1053V408.027H136.223V413.14ZM135.566 412.483V408.683H77.7616V412.483H135.566Z" fill="#959DA8"/>
<path d="M71.8594 391.099L73.8744 397.347H121.197L119.182 391.099H71.8594Z" fill="#F4F5F6"/>
<path fill-rule="evenodd" clip-rule="evenodd" d="M71.4102 390.771H119.423L121.649 397.675H73.6368L71.4102 390.771ZM72.3114 391.427L74.1148 397.019H120.748L118.945 391.427H72.3114Z" fill="#959DA8"/>
<path fill-rule="evenodd" clip-rule="evenodd" d="M91.1978 423.851L76.7188 373.738L77.9799 373.374L92.4589 423.486L91.1978 423.851Z" fill="#959DA8"/>
<path fill-rule="evenodd" clip-rule="evenodd" d="M61.6875 423.486L76.1666 373.374L77.4277 373.738L62.9486 423.851L61.6875 423.486Z" fill="#959DA8"/>
<path d="M131.715 374.67H67.5698C67.5698 373.866 67.7282 373.069 68.036 372.326C68.3437 371.584 68.7948 370.908 69.3634 370.34C69.9321 369.771 70.6071 369.32 71.3501 369.012C72.0931 368.705 72.8894 368.546 73.6936 368.546H125.591C126.395 368.546 127.192 368.705 127.935 369.012C128.678 369.32 129.353 369.771 129.921 370.34C130.49 370.908 130.941 371.584 131.249 372.326C131.556 373.069 131.715 373.866 131.715 374.67Z" fill="#D3DCE5"/>
<path fill-rule="evenodd" clip-rule="evenodd" d="M176.364 423.557L148.922 402.35L149.323 401.831L176.765 423.038L176.364 423.557Z" fill="#959DA8"/>
<path fill-rule="evenodd" clip-rule="evenodd" d="M148.922 423.038L176.364 401.831L176.765 402.35L149.323 423.557L148.922 423.038Z" fill="#959DA8"/>
<path d="M181.115 398.122H145.016V402.749H181.115V398.122Z" fill="#D3DCE5"/>
<path fill-rule="evenodd" clip-rule="evenodd" d="M142.083 38.1289C142.445 38.1014 142.76 38.3722 142.787 38.7337L148.635 115.769C148.663 116.131 148.392 116.446 148.031 116.474C147.669 116.501 147.354 116.23 147.327 115.869L141.478 38.833C141.451 38.4716 141.722 38.1563 142.083 38.1289Z" fill="#959DA8"/>
<path d="M108.883 58.4146C114.159 59.6752 119.514 60.583 124.911 61.1319L126.69 59.071L127.51 61.3945C133.29 61.8734 139.096 61.9852 144.89 61.7292C146.487 61.6592 148.071 61.5629 149.642 61.4404L151.185 61.3092C152.887 61.1604 154.571 60.981 156.238 60.7709L157.105 60.6594L158.188 60.5084L158.66 60.4428L159.382 57.6533L161.739 59.9636L161.404 60.0227L161.739 59.9702L162.08 59.9111L162.421 59.8521C163.493 59.6639 164.559 59.4648 165.618 59.2548L167.639 58.8347L169.746 58.3621L170.763 58.1193L171.19 58.0143L172.253 57.7452L172.772 57.6139L173.77 57.3514L175.673 56.8263H175.745L176.723 56.5375C177.347 56.3537 177.964 56.1634 178.581 55.973C178.813 55.8958 179.021 55.7596 179.184 55.5777C179.348 55.3959 179.461 55.1747 179.513 54.9357C179.566 54.6968 179.555 54.4484 179.482 54.2149C179.41 53.9813 179.278 53.7707 179.099 53.6036C177.599 52.2307 176.016 50.9507 174.36 49.7705L173.94 49.4686C173.118 48.891 172.277 48.3397 171.42 47.8146C171.078 47.6046 170.763 47.3945 170.383 47.1976C168.637 46.1828 166.831 45.2754 164.974 44.4803L164.417 44.2441C162.523 43.4683 160.583 42.8107 158.608 42.275L157.485 41.914C156.888 41.7631 156.278 41.6252 155.674 41.494C155.267 41.4086 154.86 41.3299 154.453 41.2511L153.836 41.1395L153.403 41.0673C152.72 40.9536 152.033 40.8551 151.342 40.772L150.121 40.6407C149.616 40.5948 149.117 40.5554 148.612 40.5226L147.877 40.4766H147.575L146.439 40.4372C145.323 40.411 144.201 40.4219 143.072 40.4701C136.505 40.7417 130.056 42.3052 124.094 45.0712C118.132 47.8372 112.773 51.7514 108.325 56.59C108.199 56.7337 108.112 56.9073 108.072 57.0941C108.032 57.2809 108.04 57.4749 108.096 57.6576C108.152 57.8404 108.253 58.0058 108.391 58.1383C108.529 58.2708 108.698 58.3659 108.883 58.4146Z" fill="#D3DCE5"/>
<path fill-rule="evenodd" clip-rule="evenodd" d="M159.691 57.4283C159.691 57.4285 159.691 57.4286 159.392 57.5628L159.092 57.697L159.092 57.695L159.088 57.6877L159.075 57.6578C159.062 57.6311 159.044 57.591 159.019 57.5385C158.97 57.4333 158.896 57.2781 158.799 57.0792C158.604 56.6814 158.314 56.1091 157.935 55.4137C157.176 54.0225 156.064 52.1411 154.646 50.18C151.801 46.2425 147.772 42.0479 142.965 40.7756L143.133 40.1411C148.171 41.4745 152.314 45.8322 155.178 49.7955C156.616 51.7848 157.743 53.691 158.511 55.0996C158.895 55.8042 159.189 56.385 159.388 56.7903C159.487 56.9929 159.563 57.1517 159.614 57.2603C159.639 57.3145 159.658 57.3562 159.671 57.3846L159.686 57.4169L159.691 57.4283Z" fill="#959DA8"/>
<path fill-rule="evenodd" clip-rule="evenodd" d="M126.951 59.0939L126.642 58.9856C126.332 58.8772 126.332 58.8771 126.332 58.8769L126.333 58.8739L126.336 58.8651L126.348 58.8316C126.359 58.8023 126.374 58.7591 126.395 58.7028C126.436 58.5903 126.498 58.4255 126.58 58.2149C126.744 57.7939 126.988 57.1897 127.311 56.4543C127.956 54.9841 128.917 52.987 130.179 50.8801C132.694 46.6824 136.444 41.9806 141.331 40.2139L141.554 40.8311C136.891 42.5168 133.241 47.0465 130.742 51.2173C129.498 53.2947 128.549 55.266 127.912 56.7182C127.593 57.444 127.353 58.0395 127.192 58.4528C127.111 58.6595 127.051 58.8205 127.011 58.9296C126.991 58.9841 126.976 59.0256 126.966 59.0532L126.955 59.0843L126.952 59.0918L126.951 59.0939Z" fill="#959DA8"/>
<path d="M143.31 82.3716V118.799H137.035L137.042 82.3716H143.31Z" fill="#F4F5F6"/>
<path fill-rule="evenodd" clip-rule="evenodd" d="M136.714 82.0435H143.638V119.127H136.707L136.714 82.0435ZM137.37 82.6998L137.363 118.471H142.982V82.6998H137.37Z" fill="#959DA8"/>
<path d="M136.747 82.3716V118.799H130.473L130.479 82.3716H136.747Z" fill="#F4F5F6"/>
<path fill-rule="evenodd" clip-rule="evenodd" d="M130.151 82.0435H137.076V119.127H130.145L130.151 82.0435ZM130.807 82.6998L130.801 118.471H136.419V82.6998H130.807Z" fill="#959DA8"/>
<path d="M149.873 82.3716H143.461V118.799H149.873V82.3716Z" fill="#F4F5F6"/>
<path fill-rule="evenodd" clip-rule="evenodd" d="M143.133 82.0435H150.202V119.127H143.133V82.0435ZM143.789 82.6998V118.471H149.545V82.6998H143.789Z" fill="#959DA8"/>
<path d="M156.44 82.3716H150.027V118.799H156.44V82.3716Z" fill="#F4F5F6"/>
<path fill-rule="evenodd" clip-rule="evenodd" d="M149.699 82.0435H156.768V119.127H149.699V82.0435ZM150.356 82.6998V118.471H156.112V82.6998H150.356Z" fill="#959DA8"/>
<path d="M163.002 82.3716H156.59V118.799H163.002V82.3716Z" fill="#F4F5F6"/>
<path fill-rule="evenodd" clip-rule="evenodd" d="M156.262 82.0435H163.331V119.127H156.262V82.0435ZM156.918 82.6998V118.471H162.674V82.6998H156.918Z" fill="#959DA8"/>
<path d="M169.565 82.3716H163.152V118.799H169.565V82.3716Z" fill="#F4F5F6"/>
<path fill-rule="evenodd" clip-rule="evenodd" d="M162.824 82.0435H169.893V119.127H162.824V82.0435ZM163.481 82.6998V118.471H169.237V82.6998H163.481Z" fill="#959DA8"/>
<path d="M176.127 82.3716H169.715V118.799H176.127V82.3716Z" fill="#F4F5F6"/>
<path fill-rule="evenodd" clip-rule="evenodd" d="M169.387 82.0435H176.456V119.127H169.387V82.0435ZM170.043 82.6998V118.471H175.799V82.6998H170.043Z" fill="#959DA8"/>
<path d="M182.694 82.3716H176.281V118.799H182.694V82.3716Z" fill="#F4F5F6"/>
<path fill-rule="evenodd" clip-rule="evenodd" d="M175.953 82.0435H183.022V119.127H175.953V82.0435ZM176.609 82.6998V118.471H182.366V82.6998H176.609Z" fill="#959DA8"/>
<path d="M189.256 82.3716H182.844V118.799H189.256V82.3716Z" fill="#F4F5F6"/>
<path fill-rule="evenodd" clip-rule="evenodd" d="M182.516 82.0435H189.585V119.127H182.516V82.0435ZM183.172 82.6998V118.471H188.928V82.6998H183.172Z" fill="#959DA8"/>
<path d="M195.819 82.3716H189.406V118.799H195.819V82.3716Z" fill="#F4F5F6"/>
<path fill-rule="evenodd" clip-rule="evenodd" d="M189.078 82.0435H196.147V119.127H189.078V82.0435ZM189.734 82.6998V118.471H195.491V82.6998H189.734Z" fill="#959DA8"/>
<path d="M202.381 82.3716H195.969V118.799H202.381V82.3716Z" fill="#F4F5F6"/>
<path fill-rule="evenodd" clip-rule="evenodd" d="M195.641 82.0435H202.71V119.127H195.641V82.0435ZM196.297 82.6998V118.471H202.053V82.6998H196.297Z" fill="#959DA8"/>
<path fill-rule="evenodd" clip-rule="evenodd" d="M130.098 82.0444H202.775V119.456H130.098V82.0444ZM131.41 83.3571V118.144H201.463V83.3571H131.41Z" fill="#959DA8"/>
<path d="M739.948 397.751C740.25 397.753 740.55 397.722 740.845 397.657C754.542 394.541 754.548 377.948 754.548 377.948C754.548 355.336 739.955 344 739.955 344C739.955 344 725.355 355.309 725.355 377.948C725.355 377.948 725.355 394.561 739.052 397.657C739.347 397.722 739.647 397.753 739.948 397.751Z" fill="#80C33F"/>
<path d="M739.949 366.311V422.75" stroke="#2A3A51" stroke-width="0.668793" stroke-linecap="round" stroke-linejoin="round"/>
<path d="M808.703 357.375V410.565" stroke="#959DA8" stroke-width="1.33759" stroke-miterlimit="10"/>
<path d="M819.616 373.741H797.793L804.615 357.375H812.794L819.616 373.741Z" fill="#D3DCE5"/>
<path d="M807.253 357.375L803.414 373.741" stroke="#959DA8" stroke-width="0.668793" stroke-miterlimit="10"/>
<path d="M810.238 357.375L814.077 373.741" stroke="#959DA8" stroke-width="0.668793" stroke-miterlimit="10"/>
<path d="M780.677 381.044L779.553 380.837C778.689 382.045 778.32 383.539 778.523 385.01C778.568 385.313 778.726 385.587 778.967 385.776C779.207 385.966 779.51 386.056 779.815 386.029C780.12 386.001 780.402 385.858 780.605 385.629C780.807 385.4 780.914 385.102 780.904 384.796C780.942 383.541 780.866 382.285 780.677 381.044Z" fill="white" stroke="#959DA8" stroke-width="0.668793" stroke-miterlimit="10"/>
<path d="M783.984 378.971L784.285 377.868C785.749 377.613 787.254 377.929 788.492 378.751C788.745 378.922 788.923 379.183 788.989 379.482C789.056 379.78 789.006 380.092 788.849 380.355C788.693 380.617 788.442 380.81 788.148 380.893C787.854 380.977 787.539 380.945 787.268 380.804C786.12 380.294 785.021 379.68 783.984 378.971Z" fill="white" stroke="#959DA8" stroke-width="0.668793" stroke-miterlimit="10"/>
<path d="M787.353 381.359C787.791 382.139 787.912 383.057 787.692 383.923C787.471 384.79 786.926 385.539 786.169 386.015C785.412 386.49 784.502 386.657 783.625 386.48C782.749 386.303 781.974 385.796 781.461 385.064C780.498 383.526 780.076 379.934 781.702 378.911C783.327 377.888 786.39 379.821 787.353 381.359Z" fill="white" stroke="#959DA8" stroke-width="0.668793" stroke-miterlimit="10"/>
<path d="M778.116 378.4C778.757 377.997 778.95 377.151 778.547 376.51C778.144 375.869 777.298 375.676 776.657 376.079C776.016 376.481 775.823 377.328 776.226 377.969C776.629 378.61 777.475 378.803 778.116 378.4Z" fill="white" stroke="#959DA8" stroke-width="0.668793" stroke-miterlimit="10"/>
<path d="M784.513 378.416C785.157 378.015 785.353 377.168 784.952 376.524C784.551 375.88 783.704 375.684 783.06 376.085C782.416 376.487 782.22 377.334 782.621 377.977C783.022 378.621 783.87 378.817 784.513 378.416Z" fill="white" stroke="#959DA8" stroke-width="0.669928" stroke-miterlimit="10"/>
<path d="M782.764 380.582C784.39 379.56 784.926 377.487 783.961 375.951C782.995 374.416 780.895 373.999 779.269 375.021C777.643 376.043 777.107 378.117 778.072 379.652C779.037 381.188 781.137 381.604 782.764 380.582Z" fill="white" stroke="#959DA8" stroke-width="0.668793" stroke-miterlimit="10"/>
<path d="M784.847 387.725C785.085 386.906 784.509 386.017 783.558 385.74C782.608 385.463 781.644 385.902 781.405 386.722C781.166 387.541 781.743 388.429 782.693 388.706C783.644 388.984 784.608 388.544 784.847 387.725Z" fill="white" stroke="#959DA8" stroke-width="0.682168" stroke-miterlimit="10"/>
<path d="M789.76 384.234C789.923 383.258 789.372 382.353 788.53 382.213C787.689 382.073 786.875 382.751 786.712 383.727C786.55 384.704 787.1 385.609 787.942 385.749C788.784 385.889 789.598 385.211 789.76 384.234Z" fill="white" stroke="#959DA8" stroke-width="0.668793" stroke-miterlimit="10"/>
<path d="M782.764 380.575C783.558 380.076 783.928 379.235 783.59 378.697C783.252 378.159 782.334 378.128 781.54 378.627C780.746 379.127 780.376 379.967 780.714 380.505C781.052 381.043 781.97 381.074 782.764 380.575Z" stroke="#959DA8" stroke-width="0.167198" stroke-miterlimit="10"/>
<path d="M779.935 378.547C779.975 378.371 779.864 378.195 779.688 378.155C779.511 378.115 779.336 378.225 779.296 378.402C779.255 378.578 779.366 378.754 779.542 378.794C779.719 378.834 779.894 378.724 779.935 378.547Z" fill="#959DA8"/>
<path d="M782.248 377.152C782.379 377.069 782.419 376.896 782.336 376.765C782.253 376.633 782.08 376.594 781.949 376.676C781.817 376.759 781.778 376.932 781.86 377.063C781.943 377.195 782.116 377.234 782.248 377.152Z" fill="#959DA8"/>
<path d="M782.198 379.673C782.385 379.555 782.463 379.34 782.37 379.193C782.278 379.046 782.051 379.023 781.863 379.14C781.676 379.258 781.598 379.473 781.691 379.62C781.783 379.767 782.01 379.791 782.198 379.673Z" fill="#959DA8"/>
<path d="M782.215 379.686L782.422 380.014" stroke="#959DA8" stroke-width="0.167198" stroke-miterlimit="10"/>
<path d="M781.914 380.208C782.281 380.13 782.608 379.923 782.837 379.626" stroke="#959DA8" stroke-width="0.167198" stroke-miterlimit="10"/>
<path d="M799.708 384.281H777.203V402.914H799.708V384.281Z" fill="#F4F5F6" stroke="#959DA8" stroke-width="1.33759" stroke-miterlimit="10"/>
<path d="M791.613 402.914V384.281" stroke="#959DA8" stroke-width="0.668793" stroke-miterlimit="10"/>
<path d="M776.537 383.694L771.254 388.268H787.104L791.632 383.694H776.537Z" fill="#D3DCE5"/>
<path d="M804.427 387.566H795.592L791.633 383.694H800.461L804.427 387.566Z" fill="#D3DCE5"/>
<path d="M793.024 402.915H770.52V421.547H793.024V402.915Z" fill="#F4F5F6" stroke="#959DA8" stroke-width="1.33759" stroke-miterlimit="10"/>
<path d="M784.93 421.553V403.402" stroke="#959DA8" stroke-width="0.668793" stroke-miterlimit="10"/>
<path d="M815.528 402.915H793.023V421.547H815.528V402.915Z" fill="#F4F5F6" stroke="#959DA8" stroke-width="1.33759" stroke-miterlimit="10"/>
<path d="M811.305 421.554V402.915" stroke="#959DA8" stroke-width="0.668793" stroke-miterlimit="10"/>
<path d="M765.44 421.873H750.773L761.334 401.923H776L765.44 421.873Z" fill="#F4F5F6" stroke="#959DA8" stroke-width="1.33759" stroke-miterlimit="10"/>
<path d="M763.092 406.297C763.914 405.034 764.204 403.765 763.74 403.463C763.275 403.16 762.233 403.939 761.41 405.202C760.588 406.465 760.298 407.734 760.763 408.037C761.227 408.339 762.27 407.56 763.092 406.297Z" fill="#D3DCE5"/>
<path d="M765.659 415.945C767.666 412.862 768.377 409.766 767.247 409.03C766.117 408.295 763.574 410.198 761.567 413.282C759.56 416.365 758.85 419.46 759.979 420.196C761.109 420.931 763.652 419.028 765.659 415.945Z" fill="#D3DCE5"/>
<path d="M758.605 412.927L765.427 404.741V412.927H758.605Z" stroke="#959DA8" stroke-width="0.668793" stroke-miterlimit="10"/>
</svg>
