<svg width="994" height="422" viewBox="0 0 994 422" fill="none" xmlns="http://www.w3.org/2000/svg">
<path d="M725.859 124.496C725.573 124.496 725.288 124.465 725.01 124.403C712.007 121.441 712.007 105.73 712.007 105.73C711.908 96.7697 714.553 87.9939 719.586 80.5804C720.29 79.5701 721.227 78.7449 722.319 78.1751C723.41 77.6052 724.623 77.3076 725.854 77.3076C727.086 77.3076 728.299 77.6052 729.39 78.1751C730.481 78.7449 731.419 79.5701 732.123 80.5804C737.159 87.9929 739.807 96.7687 739.711 105.73C739.711 105.73 739.711 121.5 726.707 124.403C726.429 124.465 726.144 124.496 725.859 124.496Z" fill="#80C33F"/>
<path fill-rule="evenodd" clip-rule="evenodd" d="M725.86 94.25C726.083 94.25 726.264 94.4305 726.264 94.6532V148.211C726.264 148.434 726.083 148.614 725.86 148.614C725.638 148.614 725.457 148.434 725.457 148.211V94.6532C725.457 94.4305 725.638 94.25 725.86 94.25Z" fill="#2A3A51"/>
<path d="M102.711 124.328C102.703 122.439 103.151 120.576 104.015 118.896C104.88 117.216 106.136 115.769 107.678 114.678C109.22 113.586 111.002 112.882 112.874 112.625C114.745 112.368 116.651 112.565 118.43 113.2C119.118 110.432 120.511 107.888 122.473 105.817C124.435 103.746 126.9 102.218 129.628 101.383C132.355 100.547 135.253 100.432 138.039 101.048C140.824 101.664 143.403 102.991 145.523 104.899C147.021 100.711 149.949 97.1848 153.791 94.9428C157.634 92.7008 162.144 91.8864 166.527 92.643C170.911 93.3997 174.887 95.6788 177.755 99.0791C180.624 102.479 182.2 106.783 182.208 111.231C182.21 111.889 182.176 112.546 182.106 113.2C183.379 112.734 182.793 126.433 182.496 127.468H103.135C102.851 126.437 102.708 125.372 102.711 124.302V124.328Z" fill="#80C33F"/>
<path d="M167.56 110.07V157.177H159.445L159.454 110.07H167.56Z" fill="#F4F5F6"/>
<path fill-rule="evenodd" clip-rule="evenodd" d="M159.048 109.667H167.96V157.581H159.039L159.048 109.667ZM159.854 110.473L159.846 156.774H167.153V110.473H159.854Z" fill="#959DA8"/>
<path d="M159.071 110.07V157.177H150.957L150.966 110.07H159.071Z" fill="#F4F5F6"/>
<path fill-rule="evenodd" clip-rule="evenodd" d="M150.559 109.667H159.472V157.581H150.551L150.559 109.667ZM151.366 110.473L151.357 156.774H158.665V110.473H151.366Z" fill="#959DA8"/>
<path d="M176.046 110.07H167.754V157.177H176.046V110.07Z" fill="#F4F5F6"/>
<path fill-rule="evenodd" clip-rule="evenodd" d="M167.352 109.667H176.451V157.581H167.352V109.667ZM168.158 110.473V156.774H175.644V110.473H168.158Z" fill="#959DA8"/>
<path d="M184.535 110.07H176.242V157.177H184.535V110.07Z" fill="#F4F5F6"/>
<path fill-rule="evenodd" clip-rule="evenodd" d="M175.84 109.667H184.939V157.581H175.84V109.667ZM176.646 110.473V156.774H184.132V110.473H176.646Z" fill="#959DA8"/>
<path d="M193.023 110.07H184.73V157.177H193.023V110.07Z" fill="#F4F5F6"/>
<path fill-rule="evenodd" clip-rule="evenodd" d="M184.328 109.667H193.427V157.581H184.328V109.667ZM185.135 110.473V156.774H192.621V110.473H185.135Z" fill="#959DA8"/>
<path d="M125.97 110.07V157.177H117.855L117.864 110.07H125.97Z" fill="#F4F5F6"/>
<path fill-rule="evenodd" clip-rule="evenodd" d="M117.458 109.667H126.37V157.581H117.449L117.458 109.667ZM118.264 110.473L118.256 156.774H125.564V110.473H118.264Z" fill="#959DA8"/>
<path d="M117.482 110.07V157.177H109.367L109.376 110.07H117.482Z" fill="#F4F5F6"/>
<path fill-rule="evenodd" clip-rule="evenodd" d="M108.973 109.667H117.886V157.581H108.965L108.973 109.667ZM109.78 110.473L109.771 156.774H117.079V110.473H109.78Z" fill="#959DA8"/>
<path d="M108.993 110.07V157.177H100.879L100.887 110.07H108.993Z" fill="#F4F5F6"/>
<path fill-rule="evenodd" clip-rule="evenodd" d="M100.485 109.667H109.397V157.581H100.477L100.485 109.667ZM101.292 110.473L101.283 156.774H108.591V110.473H101.292Z" fill="#959DA8"/>
<path d="M100.505 110.07V157.177H92.3906L92.3991 110.07H100.505Z" fill="#F4F5F6"/>
<path fill-rule="evenodd" clip-rule="evenodd" d="M91.9969 109.667H100.909V157.581H91.9883L91.9969 109.667ZM92.8033 110.473L92.7949 156.774H100.103V110.473H92.8033Z" fill="#959DA8"/>
<path d="M134.457 110.07H126.164V157.177H134.457V110.07Z" fill="#F4F5F6"/>
<path fill-rule="evenodd" clip-rule="evenodd" d="M125.758 109.667H134.857V157.581H125.758V109.667ZM126.564 110.473V156.774H134.05V110.473H126.564Z" fill="#959DA8"/>
<path d="M142.945 110.07H134.652V157.177H142.945V110.07Z" fill="#F4F5F6"/>
<path fill-rule="evenodd" clip-rule="evenodd" d="M134.25 109.667H143.349V157.581H134.25V109.667ZM135.056 110.473V156.774H142.543V110.473H135.056Z" fill="#959DA8"/>
<path d="M151.429 110.07H143.137V157.177H151.429V110.07Z" fill="#F4F5F6"/>
<path fill-rule="evenodd" clip-rule="evenodd" d="M142.734 109.667H151.833V157.581H142.734V109.667ZM143.541 110.473V156.774H151.027V110.473H143.541Z" fill="#959DA8"/>
<path d="M201.511 110.07H193.219V157.177H201.511V110.07Z" fill="#F4F5F6"/>
<path fill-rule="evenodd" clip-rule="evenodd" d="M192.812 109.667H201.912V157.581H192.812V109.667ZM193.619 110.473V156.774H201.105V110.473H193.619Z" fill="#959DA8"/>
<path d="M210 110.07H201.707V157.177H210V110.07Z" fill="#F4F5F6"/>
<path fill-rule="evenodd" clip-rule="evenodd" d="M201.305 109.667H210.404V157.581H201.305V109.667ZM202.111 110.473V156.774H209.597V110.473H202.111Z" fill="#959DA8"/>
<path d="M218.484 110.07H210.191V157.177H218.484V110.07Z" fill="#F4F5F6"/>
<path fill-rule="evenodd" clip-rule="evenodd" d="M209.789 109.667H218.888V157.581H209.789V109.667ZM210.596 110.473V156.774H218.082V110.473H210.596Z" fill="#959DA8"/>
<path d="M226.972 110.07H218.68V157.177H226.972V110.07Z" fill="#F4F5F6"/>
<path fill-rule="evenodd" clip-rule="evenodd" d="M218.277 109.667H227.376V157.581H218.277V109.667ZM219.084 110.473V156.774H226.57V110.473H219.084Z" fill="#959DA8"/>
<path d="M235.461 110.07H227.168V157.177H235.461V110.07Z" fill="#F4F5F6"/>
<path fill-rule="evenodd" clip-rule="evenodd" d="M226.766 109.667H235.865V157.581H226.766V109.667ZM227.572 110.473V156.774H235.058V110.473H227.572Z" fill="#959DA8"/>
<path d="M243.949 110.07H235.656V157.177H243.949V110.07Z" fill="#F4F5F6"/>
<path fill-rule="evenodd" clip-rule="evenodd" d="M235.254 109.667H244.353V157.581H235.254V109.667ZM236.06 110.473V156.774H243.546V110.473H236.06Z" fill="#959DA8"/>
<path fill-rule="evenodd" clip-rule="evenodd" d="M91.7227 109.687H244.418V157.982H91.7227V109.687ZM93.3356 111.299V156.369H242.805V111.299H93.3356Z" fill="#959DA8"/>
<path d="M0.859474 417.155C0.851716 415.266 1.29905 413.403 2.16362 411.723C3.02819 410.044 4.28453 408.597 5.82646 407.505C7.36838 406.414 9.15053 405.71 11.0221 405.453C12.8937 405.195 14.7997 405.393 16.5788 406.028C17.2664 403.259 18.6591 400.716 20.6213 398.645C22.5835 396.574 25.0484 395.046 27.7761 394.21C30.5039 393.375 33.4015 393.259 36.187 393.875C38.9726 394.492 41.5511 395.819 43.6717 397.727C45.1697 393.538 48.0976 390.012 51.9399 387.77C55.7821 385.528 60.2922 384.714 64.6759 385.471C69.0595 386.227 73.0356 388.506 75.9039 391.907C78.7722 395.307 80.3488 399.61 80.356 404.059C80.3584 404.717 80.3244 405.374 80.2541 406.028C81.5323 405.561 82.8825 405.323 84.2433 405.324C90.7789 405.324 96.4657 410.628 96.0498 417.13C95.9899 418.202 95.8106 419.264 95.5151 420.296H1.30085C1.01632 419.265 0.873543 418.2 0.876466 417.13L0.859474 417.155Z" fill="#80C33F"/>
<path d="M830.963 288.734H98.4688V420.294H830.963V288.734Z" fill="#F4F5F6"/>
<path fill-rule="evenodd" clip-rule="evenodd" d="M97.6641 287.927H831.772V421.101H97.6641V287.927ZM99.277 289.54V419.488H830.159V289.54H99.277Z" fill="#959DA8"/>
<path d="M830.963 157.178H98.4688V288.738H830.963V157.178Z" fill="#F4F5F6"/>
<path fill-rule="evenodd" clip-rule="evenodd" d="M97.6641 156.371H831.772V289.544H97.6641V156.371ZM99.277 157.984V287.932H830.159V157.984H99.277Z" fill="#959DA8"/>
<path d="M684.973 25.6152H243.609V157.176H684.973V25.6152Z" fill="#F4F5F6"/>
<path fill-rule="evenodd" clip-rule="evenodd" d="M242.887 24.8936H685.694V157.898H242.887V24.8936ZM244.33 26.3371V156.454H684.251V26.3371H244.33Z" fill="#959DA8"/>
<path d="M391.297 1H243.609V420.296H391.297V1Z" fill="#F4F5F6"/>
<path fill-rule="evenodd" clip-rule="evenodd" d="M242.805 0.193359H392.105V421.102H242.805V0.193359ZM244.418 1.80631V419.489H390.492V1.80631H244.418Z" fill="#959DA8"/>
<path d="M684.972 1H537.285V420.296H684.972V1Z" fill="#F4F5F6"/>
<path fill-rule="evenodd" clip-rule="evenodd" d="M536.48 0.193359H685.781V421.102H536.48V0.193359ZM538.093 1.80631V419.489H684.168V1.80631H538.093Z" fill="#959DA8"/>
<path d="M227.482 180.939H113.746V287.885H227.482V180.939Z" fill="#F4F5F6"/>
<path fill-rule="evenodd" clip-rule="evenodd" d="M112.879 180.073H228.349V288.753H112.879V180.073ZM114.613 181.807V287.019H226.615V181.807H114.613Z" fill="#959DA8"/>
<path d="M814.838 180.939H701.102V287.885H814.838V180.939Z" fill="#F4F5F6"/>
<path fill-rule="evenodd" clip-rule="evenodd" d="M700.234 180.073H815.704V288.753H700.234V180.073ZM701.968 181.807V287.019H813.97V181.807H701.968Z" fill="#959DA8"/>
<path d="M281.406 45.9854H353.552V142.653H281.406V45.9854Z" fill="white"/>
<path fill-rule="evenodd" clip-rule="evenodd" d="M281.004 45.582H353.956V143.056H281.004V45.582ZM281.81 46.3885V142.249H353.15V46.3885H281.81Z" fill="#959DA8"/>
<path fill-rule="evenodd" clip-rule="evenodd" d="M316.77 142.745V45.7808H317.576V142.745H316.77Z" fill="#959DA8"/>
<path d="M575.082 45.9854H647.228V142.653H575.082V45.9854Z" fill="white"/>
<path fill-rule="evenodd" clip-rule="evenodd" d="M574.68 45.582H647.632V143.056H574.68V45.582ZM575.486 46.3885V142.249H646.826V46.3885H575.486Z" fill="#959DA8"/>
<path fill-rule="evenodd" clip-rule="evenodd" d="M610.449 142.745V45.7808H611.256V142.745H610.449Z" fill="#959DA8"/>
<path d="M281.406 180.939H353.552V277.607H281.406V180.939Z" fill="white"/>
<path fill-rule="evenodd" clip-rule="evenodd" d="M281.004 180.537H353.956V278.01H281.004V180.537ZM281.81 181.343V277.204H353.15V181.343H281.81Z" fill="#959DA8"/>
<path fill-rule="evenodd" clip-rule="evenodd" d="M316.77 277.701V180.737H317.576V277.701H316.77Z" fill="#959DA8"/>
<path d="M132.867 186.246H205.013V278.474H132.867V186.246Z" fill="white"/>
<path fill-rule="evenodd" clip-rule="evenodd" d="M132.465 185.842H205.417V278.877H132.465V185.842ZM133.271 186.649V278.07H204.611V186.649H133.271Z" fill="#959DA8"/>
<path fill-rule="evenodd" clip-rule="evenodd" d="M168.234 278.552V186.035H169.041V278.552H168.234Z" fill="#959DA8"/>
<path d="M724.469 186.246H796.615V278.474H724.469V186.246Z" fill="white"/>
<path fill-rule="evenodd" clip-rule="evenodd" d="M724.062 185.842H797.015V278.877H724.062V185.842ZM724.869 186.649V278.07H796.209V186.649H724.869Z" fill="#959DA8"/>
<path fill-rule="evenodd" clip-rule="evenodd" d="M759.832 278.552V186.035H760.639V278.552H759.832Z" fill="#959DA8"/>
<path d="M575.082 180.939H647.228V277.607H575.082V180.939Z" fill="white"/>
<path fill-rule="evenodd" clip-rule="evenodd" d="M574.68 180.537H647.632V278.01H574.68V180.537ZM575.486 181.343V277.204H646.826V181.343H575.486Z" fill="#959DA8"/>
<path fill-rule="evenodd" clip-rule="evenodd" d="M610.449 277.701V180.737H611.256V277.701H610.449Z" fill="#959DA8"/>
<path d="M281.406 311.654H353.552V408.322H281.406V311.654Z" fill="white"/>
<path fill-rule="evenodd" clip-rule="evenodd" d="M281.004 311.251H353.956V408.725H281.004V311.251ZM281.81 312.057V407.918H353.15V312.057H281.81Z" fill="#959DA8"/>
<path fill-rule="evenodd" clip-rule="evenodd" d="M316.77 408.41V311.446H317.576V408.41H316.77Z" fill="#959DA8"/>
<path d="M575.082 311.654H647.228V408.322H575.082V311.654Z" fill="white"/>
<path fill-rule="evenodd" clip-rule="evenodd" d="M574.68 311.251H647.632V408.725H574.68V311.251ZM575.486 312.057V407.918H646.826V312.057H575.486Z" fill="#959DA8"/>
<path fill-rule="evenodd" clip-rule="evenodd" d="M610.449 408.41V311.446H611.256V408.41H610.449Z" fill="#959DA8"/>
<path d="M724.469 311.654H796.615V408.322H724.469V311.654Z" fill="white"/>
<path fill-rule="evenodd" clip-rule="evenodd" d="M724.062 311.251H797.015V408.725H724.062V311.251ZM724.869 312.057V407.918H796.209V312.057H724.869Z" fill="#959DA8"/>
<path fill-rule="evenodd" clip-rule="evenodd" d="M759.832 408.41V311.446H760.639V408.41H759.832Z" fill="#959DA8"/>
<path d="M450.32 45.9854H479.425V142.653H450.32V45.9854Z" fill="white"/>
<path fill-rule="evenodd" clip-rule="evenodd" d="M449.918 45.582H479.829V143.056H449.918V45.582ZM450.724 46.3885V142.249H479.022V46.3885H450.724Z" fill="#959DA8"/>
<path d="M450.32 180.939H479.425V277.607H450.32V180.939Z" fill="white"/>
<path fill-rule="evenodd" clip-rule="evenodd" d="M449.918 180.537H479.829V278.01H449.918V180.537ZM450.724 181.343V277.204H479.022V181.343H450.724Z" fill="#959DA8"/>
<path d="M450.32 311.654H479.425V408.322H450.32V311.654Z" fill="white"/>
<path fill-rule="evenodd" clip-rule="evenodd" d="M449.918 311.251H479.829V408.725H449.918V311.251ZM450.724 312.057V407.918H479.022V312.057H450.724Z" fill="#959DA8"/>
<path d="M143.597 264.546C143.311 264.546 143.027 264.514 142.748 264.453C129.745 261.49 129.745 245.779 129.745 245.779C129.646 236.819 132.291 228.044 137.324 220.63C138.028 219.62 138.966 218.795 140.057 218.225C141.148 217.655 142.361 217.357 143.593 217.357C144.824 217.357 146.037 217.655 147.128 218.225C148.22 218.795 149.157 219.62 149.861 220.63C154.897 228.043 157.545 236.819 157.449 245.779C157.449 245.779 157.449 261.55 144.446 264.453C144.167 264.514 143.882 264.546 143.597 264.546Z" fill="#80C33F"/>
<path fill-rule="evenodd" clip-rule="evenodd" d="M143.599 234.296C143.821 234.296 144.002 234.476 144.002 234.699V288.257C144.002 288.48 143.821 288.66 143.599 288.66C143.376 288.66 143.195 288.48 143.195 288.257V234.699C143.195 234.476 143.376 234.296 143.599 234.296Z" fill="#2A3A51"/>
<path d="M434.73 117.708C434.444 117.707 434.16 117.676 433.881 117.614C420.878 114.652 420.878 98.9411 420.878 98.9411C420.779 89.9811 423.424 81.2053 428.457 73.7918C429.161 72.7816 430.098 71.9563 431.19 71.3865C432.281 70.8166 433.494 70.519 434.725 70.519C435.957 70.519 437.17 70.8166 438.261 71.3865C439.353 71.9563 440.29 72.7816 440.994 73.7918C446.03 81.2044 448.678 89.9802 448.582 98.9411C448.582 98.9411 448.582 114.711 435.579 117.614C435.3 117.676 435.015 117.707 434.73 117.708Z" fill="#80C33F"/>
<path fill-rule="evenodd" clip-rule="evenodd" d="M434.727 87.4614C434.95 87.4614 435.131 87.642 435.131 87.8647V141.423C435.131 141.645 434.95 141.826 434.727 141.826C434.505 141.826 434.324 141.645 434.324 141.423V87.8647C434.324 87.642 434.505 87.4614 434.727 87.4614Z" fill="#2A3A51"/>
<path d="M151.431 240.781V287.888H143.316L143.325 240.781H151.431Z" fill="#F4F5F6"/>
<path fill-rule="evenodd" clip-rule="evenodd" d="M142.923 240.377H151.835V288.291H142.914L142.923 240.377ZM143.729 241.184L143.721 287.485H151.028V241.184H143.729Z" fill="#959DA8"/>
<path d="M142.946 240.781V287.888H134.832L134.841 240.781H142.946Z" fill="#F4F5F6"/>
<path fill-rule="evenodd" clip-rule="evenodd" d="M134.438 240.377H143.351V288.291H134.43L134.438 240.377ZM135.245 241.184L135.236 287.485H142.544V241.184H135.245Z" fill="#959DA8"/>
<path d="M159.921 240.781H151.629V287.888H159.921V240.781Z" fill="#F4F5F6"/>
<path fill-rule="evenodd" clip-rule="evenodd" d="M151.227 240.377H160.326V288.291H151.227V240.377ZM152.033 241.184V287.485H159.519V241.184H152.033Z" fill="#959DA8"/>
<path d="M168.41 240.781H160.117V287.888H168.41V240.781Z" fill="#F4F5F6"/>
<path fill-rule="evenodd" clip-rule="evenodd" d="M159.711 240.377H168.81V288.291H159.711V240.377ZM160.517 241.184V287.485H168.004V241.184H160.517Z" fill="#959DA8"/>
<path d="M176.894 240.781H168.602V287.888H176.894V240.781Z" fill="#F4F5F6"/>
<path fill-rule="evenodd" clip-rule="evenodd" d="M168.199 240.377H177.298V288.291H168.199V240.377ZM169.006 241.184V287.485H176.492V241.184H169.006Z" fill="#959DA8"/>
<path d="M185.386 240.781H177.094V287.888H185.386V240.781Z" fill="#F4F5F6"/>
<path fill-rule="evenodd" clip-rule="evenodd" d="M176.691 240.377H185.79V288.291H176.691V240.377ZM177.498 241.184V287.485H184.984V241.184H177.498Z" fill="#959DA8"/>
<path d="M193.871 240.781H185.578V287.888H193.871V240.781Z" fill="#F4F5F6"/>
<path fill-rule="evenodd" clip-rule="evenodd" d="M185.176 240.377H194.275V288.291H185.176V240.377ZM185.982 241.184V287.485H193.468V241.184H185.982Z" fill="#959DA8"/>
<path d="M202.363 240.781H194.07V287.888H202.363V240.781Z" fill="#F4F5F6"/>
<path fill-rule="evenodd" clip-rule="evenodd" d="M193.664 240.377H202.763V288.291H193.664V240.377ZM194.471 241.184V287.485H201.957V241.184H194.471Z" fill="#959DA8"/>
<path d="M210.847 240.781H202.555V287.888H210.847V240.781Z" fill="#F4F5F6"/>
<path fill-rule="evenodd" clip-rule="evenodd" d="M202.152 240.377H211.251V288.291H202.152V240.377ZM202.959 241.184V287.485H210.445V241.184H202.959Z" fill="#959DA8"/>
<path d="M219.336 240.781H211.043V287.888H219.336V240.781Z" fill="#F4F5F6"/>
<path fill-rule="evenodd" clip-rule="evenodd" d="M210.641 240.377H219.74V288.291H210.641V240.377ZM211.447 241.184V287.485H218.933V241.184H211.447Z" fill="#959DA8"/>
<path d="M227.824 240.781H219.531V287.888H227.824V240.781Z" fill="#F4F5F6"/>
<path fill-rule="evenodd" clip-rule="evenodd" d="M219.125 240.377H228.224V288.291H219.125V240.377ZM219.931 241.184V287.485H227.418V241.184H219.931Z" fill="#959DA8"/>
<path d="M125.968 240.781H117.676V287.888H125.968V240.781Z" fill="#F4F5F6"/>
<path fill-rule="evenodd" clip-rule="evenodd" d="M117.273 240.377H126.372V288.291H117.273V240.377ZM118.08 241.184V287.485H125.566V241.184H118.08Z" fill="#959DA8"/>
<path d="M134.457 240.781H126.164V287.888H134.457V240.781Z" fill="#F4F5F6"/>
<path fill-rule="evenodd" clip-rule="evenodd" d="M125.758 240.377H134.857V288.291H125.758V240.377ZM126.564 241.184V287.485H134.05V241.184H126.564Z" fill="#959DA8"/>
<path fill-rule="evenodd" clip-rule="evenodd" d="M112.941 240.399H228.29V288.695H112.941V240.399ZM114.554 242.012V287.082H226.678V242.012H114.554Z" fill="#959DA8"/>
<path d="M357.999 146.598H276.907L275.863 139.07H359.043L357.999 146.598Z" fill="#D3DCE5"/>
<path d="M652.527 147.448H571.435L570.391 139.919H653.571L652.527 147.448Z" fill="#D3DCE5"/>
<path d="M357.999 281.555H276.907L275.863 274.026H359.043L357.999 281.555Z" fill="#D3DCE5"/>
<path d="M652.527 279.008H571.435L570.391 271.479H653.571L652.527 279.008Z" fill="#D3DCE5"/>
<path d="M357.999 412.267H276.907L275.863 404.739H359.043L357.999 412.267Z" fill="#D3DCE5"/>
<path d="M652.527 408.871H571.435L570.391 401.342H653.571L652.527 408.871Z" fill="#D3DCE5"/>
<path d="M801.062 408.871H719.97L718.926 401.342H802.106L801.062 408.871Z" fill="#D3DCE5"/>
<path d="M463.782 110.07V157.177H455.668L455.676 110.07H463.782Z" fill="#F4F5F6"/>
<path fill-rule="evenodd" clip-rule="evenodd" d="M455.274 109.667H464.187V157.581H455.266L455.274 109.667ZM456.081 110.473L456.072 156.774H463.38V110.473H456.081Z" fill="#959DA8"/>
<path d="M455.294 110.07V157.177H447.18L447.188 110.07H455.294Z" fill="#F4F5F6"/>
<path fill-rule="evenodd" clip-rule="evenodd" d="M446.786 109.667H455.698V157.581H446.777L446.786 109.667ZM447.592 110.473L447.584 156.774H454.892V110.473H447.592Z" fill="#959DA8"/>
<path d="M472.273 110.07H463.98V157.177H472.273V110.07Z" fill="#F4F5F6"/>
<path fill-rule="evenodd" clip-rule="evenodd" d="M463.574 109.667H472.673V157.581H463.574V109.667ZM464.381 110.473V156.774H471.867V110.473H464.381Z" fill="#959DA8"/>
<path d="M480.757 110.07H472.465V157.177H480.757V110.07Z" fill="#F4F5F6"/>
<path fill-rule="evenodd" clip-rule="evenodd" d="M472.062 109.667H481.162V157.581H472.062V109.667ZM472.869 110.473V156.774H480.355V110.473H472.869Z" fill="#959DA8"/>
<path d="M489.246 110.07H480.953V157.177H489.246V110.07Z" fill="#F4F5F6"/>
<path fill-rule="evenodd" clip-rule="evenodd" d="M480.551 109.667H489.65V157.581H480.551V109.667ZM481.357 110.473V156.774H488.843V110.473H481.357Z" fill="#959DA8"/>
<path d="M422.192 110.07V157.177H414.078L414.087 110.07H422.192Z" fill="#F4F5F6"/>
<path fill-rule="evenodd" clip-rule="evenodd" d="M413.684 109.667H422.597V157.581H413.676L413.684 109.667ZM414.491 110.473L414.482 156.774H421.79V110.473H414.491Z" fill="#959DA8"/>
<path d="M413.704 110.07V157.177H405.59L405.598 110.07H413.704Z" fill="#F4F5F6"/>
<path fill-rule="evenodd" clip-rule="evenodd" d="M405.196 109.667H414.108V157.581H405.188L405.196 109.667ZM406.002 110.473L405.994 156.774H413.302V110.473H406.002Z" fill="#959DA8"/>
<path d="M405.216 110.07V157.177H397.102L397.11 110.07H405.216Z" fill="#F4F5F6"/>
<path fill-rule="evenodd" clip-rule="evenodd" d="M396.708 109.667H405.62V157.581H396.699L396.708 109.667ZM397.514 110.473L397.506 156.774H404.814V110.473H397.514Z" fill="#959DA8"/>
<path d="M396.728 110.07V157.177H388.613L388.622 110.07H396.728Z" fill="#F4F5F6"/>
<path fill-rule="evenodd" clip-rule="evenodd" d="M388.22 109.667H397.132V157.581H388.211L388.22 109.667ZM389.026 110.473L389.018 156.774H396.325V110.473H389.026Z" fill="#959DA8"/>
<path d="M430.683 110.07H422.391V157.177H430.683V110.07Z" fill="#F4F5F6"/>
<path fill-rule="evenodd" clip-rule="evenodd" d="M421.988 109.667H431.087V157.581H421.988V109.667ZM422.795 110.473V156.774H430.281V110.473H422.795Z" fill="#959DA8"/>
<path d="M439.171 110.07H430.879V157.177H439.171V110.07Z" fill="#F4F5F6"/>
<path fill-rule="evenodd" clip-rule="evenodd" d="M430.477 109.667H439.576V157.581H430.477V109.667ZM431.283 110.473V156.774H438.769V110.473H431.283Z" fill="#959DA8"/>
<path d="M447.66 110.07H439.367V157.177H447.66V110.07Z" fill="#F4F5F6"/>
<path fill-rule="evenodd" clip-rule="evenodd" d="M438.961 109.667H448.06V157.581H438.961V109.667ZM439.767 110.473V156.774H447.254V110.473H439.767Z" fill="#959DA8"/>
<path d="M497.738 110.07H489.445V157.177H497.738V110.07Z" fill="#F4F5F6"/>
<path fill-rule="evenodd" clip-rule="evenodd" d="M489.043 109.667H498.142V157.581H489.043V109.667ZM489.849 110.473V156.774H497.336V110.473H489.849Z" fill="#959DA8"/>
<path d="M506.222 110.07H497.93V157.177H506.222V110.07Z" fill="#F4F5F6"/>
<path fill-rule="evenodd" clip-rule="evenodd" d="M497.527 109.667H506.626V157.581H497.527V109.667ZM498.334 110.473V156.774H505.82V110.473H498.334Z" fill="#959DA8"/>
<path d="M514.711 110.07H506.418V157.177H514.711V110.07Z" fill="#F4F5F6"/>
<path fill-rule="evenodd" clip-rule="evenodd" d="M506.016 109.667H515.115V157.581H506.016V109.667ZM506.822 110.473V156.774H514.308V110.473H506.822Z" fill="#959DA8"/>
<path d="M523.195 110.07H514.902V157.177H523.195V110.07Z" fill="#F4F5F6"/>
<path fill-rule="evenodd" clip-rule="evenodd" d="M514.5 109.667H523.599V157.581H514.5V109.667ZM515.306 110.473V156.774H522.793V110.473H515.306Z" fill="#959DA8"/>
<path d="M531.683 110.07H523.391V157.177H531.683V110.07Z" fill="#F4F5F6"/>
<path fill-rule="evenodd" clip-rule="evenodd" d="M522.988 109.667H532.087V157.581H522.988V109.667ZM523.795 110.473V156.774H531.281V110.473H523.795Z" fill="#959DA8"/>
<path d="M540.171 110.07H531.879V157.177H540.171V110.07Z" fill="#F4F5F6"/>
<path fill-rule="evenodd" clip-rule="evenodd" d="M531.477 109.667H540.576V157.581H531.477V109.667ZM532.283 110.473V156.774H539.769V110.473H532.283Z" fill="#959DA8"/>
<path fill-rule="evenodd" clip-rule="evenodd" d="M387.941 109.687H540.637V157.982H387.941V109.687ZM389.554 111.299V156.369H539.024V111.299H389.554Z" fill="#959DA8"/>
<path d="M394.692 260.982C394.684 259.093 395.131 257.229 395.996 255.55C396.86 253.87 398.117 252.423 399.658 251.332C401.2 250.24 402.983 249.536 404.854 249.279C406.726 249.022 408.632 249.219 410.411 249.854C411.098 247.085 412.491 244.542 414.453 242.471C416.416 240.4 418.88 238.872 421.608 238.037C424.336 237.201 427.234 237.085 430.019 237.702C432.805 238.318 435.383 239.645 437.504 241.553C439.002 237.364 441.93 233.839 445.772 231.597C449.614 229.355 454.124 228.54 458.508 229.297C462.892 230.053 466.868 232.333 469.736 235.733C472.604 239.133 474.181 243.437 474.188 247.885C474.19 248.543 474.156 249.2 474.086 249.854C475.359 249.387 474.774 263.087 474.477 264.122H395.116C394.831 263.091 394.689 262.026 394.692 260.956V260.982Z" fill="#80C33F"/>
<path d="M463.782 241.628V288.736H455.668L455.676 241.628H463.782Z" fill="#F4F5F6"/>
<path fill-rule="evenodd" clip-rule="evenodd" d="M455.274 241.225H464.187V289.139H455.266L455.274 241.225ZM456.081 242.032L456.072 288.332H463.38V242.032H456.081Z" fill="#959DA8"/>
<path d="M455.294 241.628V288.736H447.18L447.188 241.628H455.294Z" fill="#F4F5F6"/>
<path fill-rule="evenodd" clip-rule="evenodd" d="M446.786 241.225H455.698V289.139H446.777L446.786 241.225ZM447.592 242.032L447.584 288.332H454.892V242.032H447.592Z" fill="#959DA8"/>
<path d="M472.273 241.628H463.98V288.736H472.273V241.628Z" fill="#F4F5F6"/>
<path fill-rule="evenodd" clip-rule="evenodd" d="M463.574 241.225H472.673V289.139H463.574V241.225ZM464.381 242.032V288.332H471.867V242.032H464.381Z" fill="#959DA8"/>
<path d="M480.757 241.628H472.465V288.736H480.757V241.628Z" fill="#F4F5F6"/>
<path fill-rule="evenodd" clip-rule="evenodd" d="M472.062 241.225H481.162V289.139H472.062V241.225ZM472.869 242.032V288.332H480.355V242.032H472.869Z" fill="#959DA8"/>
<path d="M489.246 241.628H480.953V288.736H489.246V241.628Z" fill="#F4F5F6"/>
<path fill-rule="evenodd" clip-rule="evenodd" d="M480.551 241.225H489.65V289.139H480.551V241.225ZM481.357 242.032V288.332H488.843V242.032H481.357Z" fill="#959DA8"/>
<path d="M422.192 241.628V288.736H414.078L414.087 241.628H422.192Z" fill="#F4F5F6"/>
<path fill-rule="evenodd" clip-rule="evenodd" d="M413.684 241.225H422.597V289.139H413.676L413.684 241.225ZM414.491 242.032L414.482 288.332H421.79V242.032H414.491Z" fill="#959DA8"/>
<path d="M413.704 241.628V288.736H405.59L405.598 241.628H413.704Z" fill="#F4F5F6"/>
<path fill-rule="evenodd" clip-rule="evenodd" d="M405.196 241.225H414.108V289.139H405.188L405.196 241.225ZM406.002 242.032L405.994 288.332H413.302V242.032H406.002Z" fill="#959DA8"/>
<path d="M405.216 241.628V288.736H397.102L397.11 241.628H405.216Z" fill="#F4F5F6"/>
<path fill-rule="evenodd" clip-rule="evenodd" d="M396.708 241.225H405.62V289.139H396.699L396.708 241.225ZM397.514 242.032L397.506 288.332H404.814V242.032H397.514Z" fill="#959DA8"/>
<path d="M396.728 241.628V288.736H388.613L388.622 241.628H396.728Z" fill="#F4F5F6"/>
<path fill-rule="evenodd" clip-rule="evenodd" d="M388.22 241.225H397.132V289.139H388.211L388.22 241.225ZM389.026 242.032L389.018 288.332H396.325V242.032H389.026Z" fill="#959DA8"/>
<path d="M430.683 241.628H422.391V288.736H430.683V241.628Z" fill="#F4F5F6"/>
<path fill-rule="evenodd" clip-rule="evenodd" d="M421.988 241.225H431.087V289.139H421.988V241.225ZM422.795 242.032V288.332H430.281V242.032H422.795Z" fill="#959DA8"/>
<path d="M439.171 241.628H430.879V288.736H439.171V241.628Z" fill="#F4F5F6"/>
<path fill-rule="evenodd" clip-rule="evenodd" d="M430.477 241.225H439.576V289.139H430.477V241.225ZM431.283 242.032V288.332H438.769V242.032H431.283Z" fill="#959DA8"/>
<path d="M447.66 241.628H439.367V288.736H447.66V241.628Z" fill="#F4F5F6"/>
<path fill-rule="evenodd" clip-rule="evenodd" d="M438.961 241.225H448.06V289.139H438.961V241.225ZM439.767 242.032V288.332H447.254V242.032H439.767Z" fill="#959DA8"/>
<path d="M497.738 241.628H489.445V288.736H497.738V241.628Z" fill="#F4F5F6"/>
<path fill-rule="evenodd" clip-rule="evenodd" d="M489.043 241.225H498.142V289.139H489.043V241.225ZM489.849 242.032V288.332H497.336V242.032H489.849Z" fill="#959DA8"/>
<path d="M506.222 241.628H497.93V288.736H506.222V241.628Z" fill="#F4F5F6"/>
<path fill-rule="evenodd" clip-rule="evenodd" d="M497.527 241.225H506.626V289.139H497.527V241.225ZM498.334 242.032V288.332H505.82V242.032H498.334Z" fill="#959DA8"/>
<path d="M514.711 241.628H506.418V288.736H514.711V241.628Z" fill="#F4F5F6"/>
<path fill-rule="evenodd" clip-rule="evenodd" d="M506.016 241.225H515.115V289.139H506.016V241.225ZM506.822 242.032V288.332H514.308V242.032H506.822Z" fill="#959DA8"/>
<path d="M523.195 241.628H514.902V288.736H523.195V241.628Z" fill="#F4F5F6"/>
<path fill-rule="evenodd" clip-rule="evenodd" d="M514.5 241.225H523.599V289.139H514.5V241.225ZM515.306 242.032V288.332H522.793V242.032H515.306Z" fill="#959DA8"/>
<path d="M531.683 241.628H523.391V288.736H531.683V241.628Z" fill="#F4F5F6"/>
<path fill-rule="evenodd" clip-rule="evenodd" d="M522.988 241.225H532.087V289.139H522.988V241.225ZM523.795 242.032V288.332H531.281V242.032H523.795Z" fill="#959DA8"/>
<path d="M540.171 241.628H531.879V288.736H540.171V241.628Z" fill="#F4F5F6"/>
<path fill-rule="evenodd" clip-rule="evenodd" d="M531.477 241.225H540.576V289.139H531.477V241.225ZM532.283 242.032V288.332H539.769V242.032H532.283Z" fill="#959DA8"/>
<path fill-rule="evenodd" clip-rule="evenodd" d="M387.941 241.245H540.637V289.54H387.941V241.245ZM389.554 242.858V287.927H539.024V242.858H389.554Z" fill="#959DA8"/>
<path d="M584.982 368.411C585.614 365.588 585.611 362.659 584.973 359.837C584.335 357.015 583.078 354.37 581.292 352.094C579.506 349.817 577.236 347.966 574.647 346.674C572.058 345.383 569.215 344.683 566.322 344.625C563.429 344.567 560.56 345.153 557.921 346.34C555.283 347.528 552.941 349.287 551.066 351.49C549.191 353.693 547.829 356.286 547.078 359.08C546.328 361.875 546.208 364.801 546.727 367.647C544.596 368.682 542.714 370.165 541.209 371.995C539.704 373.825 538.611 375.958 538.007 378.248C537.402 380.539 537.298 382.933 537.704 385.267C538.109 387.601 539.014 389.821 540.356 391.773C541.698 393.725 543.445 395.365 545.479 396.58C547.513 397.795 549.786 398.556 552.141 398.812C554.496 399.068 556.879 398.812 559.126 398.063C561.374 397.313 563.433 396.087 565.163 394.469C566.843 396.047 568.836 397.255 571.013 398.013C573.189 398.772 575.501 399.066 577.799 398.874C580.096 398.682 582.327 398.01 584.348 396.901C586.369 395.792 588.135 394.271 589.53 392.436C590.926 390.601 591.92 388.494 592.449 386.25C592.978 384.007 593.03 381.677 592.601 379.412C592.173 377.147 591.273 374.997 589.96 373.102C588.648 371.207 586.951 369.609 584.982 368.411Z" fill="#80C33F"/>
<path fill-rule="evenodd" clip-rule="evenodd" d="M556.591 379.229C556.715 379.044 556.965 378.994 557.15 379.117L566.139 385.109C566.324 385.233 566.374 385.483 566.251 385.669C566.127 385.854 565.877 385.904 565.692 385.78L556.703 379.788C556.518 379.665 556.468 379.414 556.591 379.229Z" fill="#2A3A51"/>
<path fill-rule="evenodd" clip-rule="evenodd" d="M576.696 383.688C576.841 383.857 576.821 384.111 576.652 384.256L566.169 393.236C566 393.381 565.746 393.362 565.601 393.193C565.456 393.023 565.476 392.769 565.645 392.624L576.127 383.644C576.296 383.499 576.551 383.519 576.696 383.688Z" fill="#2A3A51"/>
<path fill-rule="evenodd" clip-rule="evenodd" d="M565.919 367.072C566.142 367.072 566.322 367.253 566.322 367.476V421.373C566.322 421.596 566.142 421.776 565.919 421.776C565.696 421.776 565.516 421.596 565.516 421.373V367.476C565.516 367.253 565.696 367.072 565.919 367.072Z" fill="#2A3A51"/>
<path fill-rule="evenodd" clip-rule="evenodd" d="M483.782 419.766L443.66 388.76L444.153 388.122L484.275 419.128L483.782 419.766Z" fill="#959DA8"/>
<path fill-rule="evenodd" clip-rule="evenodd" d="M443.66 419.128L483.782 388.122L484.275 388.76L444.153 419.766L443.66 419.128Z" fill="#959DA8"/>
<path d="M491.452 382.525H436.281V389.29H491.452V382.525Z" fill="#D3DCE5"/>
<path d="M401.981 399.626H425.458L415.672 376.158H392.203L401.981 399.626Z" fill="#D3DCE5"/>
<path fill-rule="evenodd" clip-rule="evenodd" d="M424.324 388.69C424.324 388.69 424.324 388.69 424.324 388.69L420.81 388.835L420.777 388.029L424.291 387.885C427.213 387.766 430.104 388.524 432.592 390.061C435.08 391.597 437.053 393.842 438.256 396.507L449.29 420.978L448.555 421.309L437.521 396.839C436.384 394.32 434.52 392.199 432.168 390.747C429.817 389.295 427.085 388.579 424.324 388.69Z" fill="#959DA8"/>
<path fill-rule="evenodd" clip-rule="evenodd" d="M397.031 421.057L401.937 398.989L402.724 399.164L397.819 421.232L397.031 421.057Z" fill="#959DA8"/>
<path fill-rule="evenodd" clip-rule="evenodd" d="M416.586 421.057L421.458 398.989L422.245 399.163L417.373 421.231L416.586 421.057Z" fill="#959DA8"/>
<path d="M401.329 399.627H438.488V396.368H401.329V399.627Z" fill="#D3DCE5"/>
<path fill-rule="evenodd" clip-rule="evenodd" d="M402.026 388.65C402.026 388.65 402.026 388.65 402.026 388.65L397.341 388.837L397.309 388.031L401.994 387.844C404.766 387.735 407.508 388.456 409.867 389.915C412.226 391.375 414.096 393.505 415.237 396.035L426.466 420.98L425.731 421.311L414.501 396.366C413.427 393.983 411.666 391.976 409.443 390.601C407.22 389.227 404.637 388.547 402.026 388.65Z" fill="#959DA8"/>
<path fill-rule="evenodd" clip-rule="evenodd" d="M504.29 387.884C504.29 387.884 504.291 387.884 504.291 387.884L508.651 388.028L508.624 388.834L504.262 388.69L504.259 388.69C501.498 388.578 498.766 389.294 496.414 390.746C494.063 392.198 492.199 394.32 491.062 396.839L480.028 421.309L479.293 420.977L490.327 396.507C491.53 393.842 493.503 391.597 495.991 390.06C498.478 388.524 501.368 387.766 504.29 387.884Z" fill="#959DA8"/>
<path d="M526.602 399.626H503.125L512.911 376.158H536.38L526.602 399.626Z" fill="#D3DCE5"/>
<path fill-rule="evenodd" clip-rule="evenodd" d="M530.765 421.226L525.859 398.309L526.648 398.14L531.554 421.057L530.765 421.226Z" fill="#959DA8"/>
<path fill-rule="evenodd" clip-rule="evenodd" d="M511.208 421.231L506.336 399.163L507.123 398.989L511.995 421.057L511.208 421.231Z" fill="#959DA8"/>
<path d="M527.245 396.368H490.086V399.627H527.245V396.368Z" fill="#D3DCE5"/>
<path fill-rule="evenodd" clip-rule="evenodd" d="M518.72 389.915C521.079 388.456 523.821 387.735 526.593 387.844L531.278 388.031L531.246 388.837L526.561 388.65C526.561 388.65 526.561 388.65 526.561 388.65C523.95 388.547 521.367 389.227 519.144 390.601C516.921 391.976 515.16 393.983 514.086 396.366L502.856 421.311L502.121 420.98L513.35 396.035C514.491 393.506 516.361 391.375 518.72 389.915Z" fill="#959DA8"/>
<path d="M738.786 240.781V287.888H730.672L730.68 240.781H738.786Z" fill="#F4F5F6"/>
<path fill-rule="evenodd" clip-rule="evenodd" d="M730.278 240.377H739.19V288.291H730.27L730.278 240.377ZM731.085 241.184L731.076 287.485H738.384V241.184H731.085Z" fill="#959DA8"/>
<path d="M730.298 240.781V287.888H722.184L722.192 240.781H730.298Z" fill="#F4F5F6"/>
<path fill-rule="evenodd" clip-rule="evenodd" d="M721.79 240.377H730.702V288.291H721.781L721.79 240.377ZM722.596 241.184L722.588 287.485H729.896V241.184H722.596Z" fill="#959DA8"/>
<path d="M747.273 240.781H738.98V287.888H747.273V240.781Z" fill="#F4F5F6"/>
<path fill-rule="evenodd" clip-rule="evenodd" d="M738.578 240.377H747.677V288.291H738.578V240.377ZM739.385 241.184V287.485H746.871V241.184H739.385Z" fill="#959DA8"/>
<path d="M755.761 240.781H747.469V287.888H755.761V240.781Z" fill="#F4F5F6"/>
<path fill-rule="evenodd" clip-rule="evenodd" d="M747.066 240.377H756.165V288.291H747.066V240.377ZM747.873 241.184V287.485H755.359V241.184H747.873Z" fill="#959DA8"/>
<path d="M764.25 240.781H755.957V287.888H764.25V240.781Z" fill="#F4F5F6"/>
<path fill-rule="evenodd" clip-rule="evenodd" d="M755.555 240.377H764.654V288.291H755.555V240.377ZM756.361 241.184V287.485H763.847V241.184H756.361Z" fill="#959DA8"/>
<path d="M772.738 240.781H764.445V287.888H772.738V240.781Z" fill="#F4F5F6"/>
<path fill-rule="evenodd" clip-rule="evenodd" d="M764.043 240.377H773.142V288.291H764.043V240.377ZM764.849 241.184V287.485H772.336V241.184H764.849Z" fill="#959DA8"/>
<path d="M781.222 240.781H772.93V287.888H781.222V240.781Z" fill="#F4F5F6"/>
<path fill-rule="evenodd" clip-rule="evenodd" d="M772.527 240.377H781.626V288.291H772.527V240.377ZM773.334 241.184V287.485H780.82V241.184H773.334Z" fill="#959DA8"/>
<path d="M789.714 240.781H781.422V287.888H789.714V240.781Z" fill="#F4F5F6"/>
<path fill-rule="evenodd" clip-rule="evenodd" d="M781.02 240.377H790.119V288.291H781.02V240.377ZM781.826 241.184V287.485H789.312V241.184H781.826Z" fill="#959DA8"/>
<path d="M798.203 240.781H789.91V287.888H798.203V240.781Z" fill="#F4F5F6"/>
<path fill-rule="evenodd" clip-rule="evenodd" d="M789.508 240.377H798.607V288.291H789.508V240.377ZM790.314 241.184V287.485H797.8V241.184H790.314Z" fill="#959DA8"/>
<path d="M806.691 240.781H798.398V287.888H806.691V240.781Z" fill="#F4F5F6"/>
<path fill-rule="evenodd" clip-rule="evenodd" d="M797.996 240.377H807.095V288.291H797.996V240.377ZM798.803 241.184V287.485H806.289V241.184H798.803Z" fill="#959DA8"/>
<path d="M815.179 240.781H806.887V287.888H815.179V240.781Z" fill="#F4F5F6"/>
<path fill-rule="evenodd" clip-rule="evenodd" d="M806.48 240.377H815.58V288.291H806.48V240.377ZM807.287 241.184V287.485H814.773V241.184H807.287Z" fill="#959DA8"/>
<path d="M713.324 240.781H705.031V287.888H713.324V240.781Z" fill="#F4F5F6"/>
<path fill-rule="evenodd" clip-rule="evenodd" d="M704.629 240.377H713.728V288.291H704.629V240.377ZM705.435 241.184V287.485H712.921V241.184H705.435Z" fill="#959DA8"/>
<path d="M721.812 240.781H713.52V287.888H721.812V240.781Z" fill="#F4F5F6"/>
<path fill-rule="evenodd" clip-rule="evenodd" d="M713.117 240.377H722.216V288.291H713.117V240.377ZM713.924 241.184V287.485H721.41V241.184H713.924Z" fill="#959DA8"/>
<path fill-rule="evenodd" clip-rule="evenodd" d="M700.293 240.399H815.642V288.695H700.293V240.399ZM701.906 242.012V287.082H814.029V242.012H701.906Z" fill="#959DA8"/>
<path fill-rule="evenodd" clip-rule="evenodd" d="M814.823 57.3554C815.265 57.4103 815.579 57.8131 815.524 58.2551L803.751 153.03C803.697 153.472 803.294 153.785 802.852 153.73C802.41 153.676 802.096 153.273 802.151 152.831L813.923 58.0563C813.978 57.6143 814.381 57.3005 814.823 57.3554Z" fill="#959DA8"/>
<path d="M854.652 88.1722C847.689 89.0396 840.677 89.4422 833.661 89.3775L831.667 86.4492L830.283 89.2757C822.787 89.0648 815.311 88.3787 807.901 87.2216C805.858 86.9047 803.838 86.5567 801.841 86.1776L799.88 85.7872C797.713 85.3515 795.571 84.879 793.455 84.3697L792.36 84.0981L790.985 83.7501L790.391 83.5973L789.865 79.9052L786.469 82.5364L786.894 82.6552L786.469 82.5364L786.037 82.4091L785.604 82.2902C784.251 81.8998 782.91 81.4924 781.581 81.068L779.034 80.2192C778.151 79.925 777.271 79.6222 776.394 79.311L775.121 78.8527L774.587 78.6575L773.254 78.1652L772.609 77.919L771.361 77.4352L768.993 76.4846H768.9L767.686 75.9753C766.914 75.6528 766.141 75.3133 765.377 74.9823C765.09 74.8496 764.841 74.6443 764.657 74.3866C764.473 74.1289 764.359 73.8276 764.326 73.5124C764.294 73.1972 764.344 72.879 764.471 72.589C764.599 72.2991 764.8 72.0474 765.055 71.8588C767.179 70.3105 769.395 68.8933 771.692 67.6149L772.278 67.2923C773.41 66.6699 774.567 66.0814 775.749 65.5269L777.175 64.8818C779.565 63.8281 782.017 62.921 784.517 62.1657L785.273 61.945C787.818 61.2195 790.406 60.6526 793.022 60.2475L794.524 60.0268C795.314 59.9165 796.111 59.8231 796.909 59.7467C797.444 59.6958 797.979 59.6449 798.514 59.6109L799.32 59.56H799.888C800.783 59.5091 801.682 59.4808 802.588 59.4751H804.175C804.828 59.4751 805.482 59.4751 806.136 59.5345L807.086 59.5854H807.477L808.945 59.6958C810.382 59.8259 811.825 60.0013 813.274 60.222C821.674 61.5056 829.74 64.4324 837.009 68.8351C844.278 73.2378 850.607 79.03 855.636 85.8806C855.784 86.084 855.876 86.3224 855.904 86.5724C855.932 86.8223 855.895 87.0752 855.795 87.3062C855.696 87.5373 855.538 87.7386 855.338 87.8904C855.137 88.0422 854.901 88.1393 854.652 88.1722Z" fill="#D3DCE5"/>
<path fill-rule="evenodd" clip-rule="evenodd" d="M789.873 86.8345L790.306 86.8854L790.241 87.43L789.809 87.3791L789.873 86.8345Z" fill="#959DA8"/>
<path fill-rule="evenodd" clip-rule="evenodd" d="M790.214 80.0311C790.214 80.0312 790.214 80.0311 789.867 79.8265C789.519 79.6218 789.519 79.6216 789.52 79.6214L789.522 79.6179L789.528 79.6076L789.551 79.5682C789.572 79.5337 789.603 79.4829 789.643 79.4168C789.724 79.2847 789.844 79.0915 790 78.8453C790.314 78.3531 790.775 77.649 791.369 76.7985C792.557 75.0982 794.278 72.8098 796.409 70.4589C800.655 65.7741 806.595 60.7679 813.241 59.77L813.361 60.5676C807.005 61.5219 801.227 66.3445 797.007 71.0005C794.904 73.3199 793.205 75.58 792.03 77.2604C791.443 78.1004 790.988 78.7948 790.681 79.2784C790.527 79.5202 790.409 79.7093 790.331 79.8375C790.292 79.9016 790.262 79.9504 790.243 79.9831L790.221 80.0197L790.216 80.0286L790.214 80.0311Z" fill="#959DA8"/>
<path fill-rule="evenodd" clip-rule="evenodd" d="M832.139 86.2367C832.139 86.2369 832.139 86.2371 831.746 86.3267L831.519 86.3784C831.353 86.4163 831.353 86.4163 831.353 86.4162L831.352 86.4134L831.35 86.4033L831.34 86.3617C831.331 86.3247 831.318 86.2692 831.3 86.1962C831.264 86.0503 831.21 85.8345 831.137 85.5574C830.99 85.003 830.767 84.2032 830.463 83.2247C829.854 81.267 828.92 78.5976 827.62 75.7496C825.011 70.0328 820.967 63.6857 815.195 60.8518L815.551 60.1279C821.586 63.0912 825.728 69.6625 828.354 75.4148C829.671 78.3014 830.617 81.0042 831.233 82.9851C831.541 83.9759 831.767 84.7869 831.917 85.3512C831.991 85.6333 832.047 85.8538 832.083 86.0042C832.102 86.0794 832.116 86.1371 832.125 86.1763L832.135 86.221L832.138 86.2327L832.139 86.2367Z" fill="#959DA8"/>
<path d="M759.157 110.07V157.177H751.043L751.051 110.07H759.157Z" fill="#F4F5F6"/>
<path fill-rule="evenodd" clip-rule="evenodd" d="M750.649 109.667H759.561V157.581H750.641L750.649 109.667ZM751.456 110.473L751.447 156.774H758.755V110.473H751.456Z" fill="#959DA8"/>
<path d="M750.669 110.07V157.177H742.555L742.563 110.07H750.669Z" fill="#F4F5F6"/>
<path fill-rule="evenodd" clip-rule="evenodd" d="M742.161 109.667H751.073V157.581H742.152L742.161 109.667ZM742.967 110.473L742.959 156.774H750.267V110.473H742.967Z" fill="#959DA8"/>
<path d="M767.644 110.07H759.352V157.177H767.644V110.07Z" fill="#F4F5F6"/>
<path fill-rule="evenodd" clip-rule="evenodd" d="M758.949 109.667H768.048V157.581H758.949V109.667ZM759.756 110.473V156.774H767.242V110.473H759.756Z" fill="#959DA8"/>
<path d="M776.132 110.07H767.84V157.177H776.132V110.07Z" fill="#F4F5F6"/>
<path fill-rule="evenodd" clip-rule="evenodd" d="M767.438 109.667H776.537V157.581H767.438V109.667ZM768.244 110.473V156.774H775.73V110.473H768.244Z" fill="#959DA8"/>
<path d="M784.621 110.07H776.328V157.177H784.621V110.07Z" fill="#F4F5F6"/>
<path fill-rule="evenodd" clip-rule="evenodd" d="M775.926 109.667H785.025V157.581H775.926V109.667ZM776.732 110.473V156.774H784.218V110.473H776.732Z" fill="#959DA8"/>
<path d="M717.567 110.07V157.177H709.453L709.462 110.07H717.567Z" fill="#F4F5F6"/>
<path fill-rule="evenodd" clip-rule="evenodd" d="M709.059 109.667H717.972V157.581H709.051L709.059 109.667ZM709.866 110.473L709.857 156.774H717.165V110.473H709.866Z" fill="#959DA8"/>
<path d="M709.079 110.07V157.177H700.965L700.973 110.07H709.079Z" fill="#F4F5F6"/>
<path fill-rule="evenodd" clip-rule="evenodd" d="M700.571 109.667H709.483V157.581H700.562L700.571 109.667ZM701.377 110.473L701.369 156.774H708.677V110.473H701.377Z" fill="#959DA8"/>
<path d="M700.591 110.07V157.177H692.477L692.485 110.07H700.591Z" fill="#F4F5F6"/>
<path fill-rule="evenodd" clip-rule="evenodd" d="M692.083 109.667H700.995V157.581H692.074L692.083 109.667ZM692.889 110.473L692.881 156.774H700.189V110.473H692.889Z" fill="#959DA8"/>
<path d="M692.107 110.07V157.177H683.992L684.001 110.07H692.107Z" fill="#F4F5F6"/>
<path fill-rule="evenodd" clip-rule="evenodd" d="M683.595 109.667H692.507V157.581H683.586L683.595 109.667ZM684.401 110.473L684.393 156.774H691.7V110.473H684.401Z" fill="#959DA8"/>
<path d="M726.054 110.07H717.762V157.177H726.054V110.07Z" fill="#F4F5F6"/>
<path fill-rule="evenodd" clip-rule="evenodd" d="M717.355 109.667H726.454V157.581H717.355V109.667ZM718.162 110.473V156.774H725.648V110.473H718.162Z" fill="#959DA8"/>
<path d="M734.543 110.07H726.25V157.177H734.543V110.07Z" fill="#F4F5F6"/>
<path fill-rule="evenodd" clip-rule="evenodd" d="M725.848 109.667H734.947V157.581H725.848V109.667ZM726.654 110.473V156.774H734.14V110.473H726.654Z" fill="#959DA8"/>
<path d="M743.031 110.07H734.738V157.177H743.031V110.07Z" fill="#F4F5F6"/>
<path fill-rule="evenodd" clip-rule="evenodd" d="M734.336 109.667H743.435V157.581H734.336V109.667ZM735.142 110.473V156.774H742.629V110.473H735.142Z" fill="#959DA8"/>
<path d="M793.109 110.07H784.816V157.177H793.109V110.07Z" fill="#F4F5F6"/>
<path fill-rule="evenodd" clip-rule="evenodd" d="M784.41 109.667H793.509V157.581H784.41V109.667ZM785.217 110.473V156.774H792.703V110.473H785.217Z" fill="#959DA8"/>
<path d="M801.597 110.07H793.305V157.177H801.597V110.07Z" fill="#F4F5F6"/>
<path fill-rule="evenodd" clip-rule="evenodd" d="M792.902 109.667H802.001V157.581H792.902V109.667ZM793.709 110.473V156.774H801.195V110.473H793.709Z" fill="#959DA8"/>
<path d="M810.086 110.07H801.793V157.177H810.086V110.07Z" fill="#F4F5F6"/>
<path fill-rule="evenodd" clip-rule="evenodd" d="M801.391 109.667H810.49V157.581H801.391V109.667ZM802.197 110.473V156.774H809.683V110.473H802.197Z" fill="#959DA8"/>
<path d="M818.574 110.07H810.281V157.177H818.574V110.07Z" fill="#F4F5F6"/>
<path fill-rule="evenodd" clip-rule="evenodd" d="M809.875 109.667H818.974V157.581H809.875V109.667ZM810.681 110.473V156.774H818.168V110.473H810.681Z" fill="#959DA8"/>
<path d="M827.058 110.07H818.766V157.177H827.058V110.07Z" fill="#F4F5F6"/>
<path fill-rule="evenodd" clip-rule="evenodd" d="M818.363 109.667H827.462V157.581H818.363V109.667ZM819.17 110.473V156.774H826.656V110.473H819.17Z" fill="#959DA8"/>
<path d="M835.546 110.07H827.254V157.177H835.546V110.07Z" fill="#F4F5F6"/>
<path fill-rule="evenodd" clip-rule="evenodd" d="M826.852 109.667H835.951V157.581H826.852V109.667ZM827.658 110.473V156.774H835.144V110.473H827.658Z" fill="#959DA8"/>
<path fill-rule="evenodd" clip-rule="evenodd" d="M683.32 109.687H836.016V157.982H683.32V109.687ZM684.933 111.299V156.369H834.403V111.299H684.933Z" fill="#959DA8"/>
<path d="M205.686 322.687H169.316V406.401H205.686V322.687Z" fill="#D3DCE5"/>
<path d="M200.532 328.629H174.449V370.033H200.532V328.629Z" fill="white"/>
<path fill-rule="evenodd" clip-rule="evenodd" d="M174.027 328.206H200.957V370.456H174.027V328.206ZM174.874 329.053V369.609H200.11V329.053H174.874Z" fill="#959DA8"/>
<path d="M176.135 376.584C177.073 376.584 177.833 375.824 177.833 374.886C177.833 373.948 177.073 373.188 176.135 373.188C175.198 373.188 174.438 373.948 174.438 374.886C174.438 375.824 175.198 376.584 176.135 376.584Z" fill="white"/>
<path fill-rule="evenodd" clip-rule="evenodd" d="M176.136 373.592C175.421 373.592 174.842 374.171 174.842 374.886C174.842 375.601 175.421 376.18 176.136 376.18C176.851 376.18 177.43 375.601 177.43 374.886C177.43 374.171 176.851 373.592 176.136 373.592ZM174.035 374.886C174.035 373.726 174.976 372.785 176.136 372.785C177.296 372.785 178.237 373.726 178.237 374.886C178.237 376.046 177.296 376.987 176.136 376.987C174.976 376.987 174.035 376.046 174.035 374.886Z" fill="#959DA8"/>
<path d="M133.66 322.687H170.03V406.401H133.66V322.687Z" fill="#D3DCE5"/>
<path d="M138.812 370.03H164.895V328.626H138.812V370.03Z" fill="white"/>
<path fill-rule="evenodd" clip-rule="evenodd" d="M165.316 370.453H138.387V328.203H165.316V370.453ZM164.47 369.606V329.05H139.234V369.606H164.47Z" fill="#959DA8"/>
<path d="M163.213 376.584C164.151 376.584 164.911 375.824 164.911 374.886C164.911 373.948 164.151 373.188 163.213 373.188C162.276 373.188 161.516 373.948 161.516 374.886C161.516 375.824 162.276 376.584 163.213 376.584Z" fill="white"/>
<path fill-rule="evenodd" clip-rule="evenodd" d="M163.214 373.592C162.499 373.592 161.92 374.171 161.92 374.886C161.92 375.601 162.499 376.18 163.214 376.18C163.929 376.18 164.508 375.601 164.508 374.886C164.508 374.171 163.929 373.592 163.214 373.592ZM161.113 374.886C161.113 373.726 162.054 372.785 163.214 372.785C164.374 372.785 165.315 373.726 165.315 374.886C165.315 376.046 164.374 376.987 163.214 376.987C162.054 376.987 161.113 376.046 161.113 374.886Z" fill="#959DA8"/>
<path d="M220.694 412.122H120.793V420.414H220.694V412.122Z" fill="#D3DCE5"/>
<path fill-rule="evenodd" clip-rule="evenodd" d="M120.203 411.533H221.282V421.003H120.203V411.533ZM121.381 412.711V419.826H220.104V412.711H121.381Z" fill="#959DA8"/>
<path d="M220.694 403.846H120.793V412.139H220.694V403.846Z" fill="#D3DCE5"/>
<path fill-rule="evenodd" clip-rule="evenodd" d="M120.203 403.258H221.282V412.728H120.203V403.258ZM121.381 404.435V411.55H220.104V404.435H121.381Z" fill="#959DA8"/>
<path d="M890.445 387.449C890.834 387.452 891.222 387.411 891.603 387.328C909.3 383.301 909.309 361.863 909.309 361.863C909.309 332.647 890.454 318 890.454 318C890.454 318 871.59 332.612 871.59 361.863C871.59 361.863 871.59 383.327 889.287 387.328C889.667 387.411 890.056 387.452 890.445 387.449Z" fill="#80C33F"/>
<path fill-rule="evenodd" clip-rule="evenodd" d="M890.444 346.395C890.682 346.395 890.876 346.588 890.876 346.827V419.75C890.876 419.988 890.682 420.182 890.444 420.182C890.205 420.182 890.012 419.988 890.012 419.75V346.827C890.012 346.588 890.205 346.395 890.444 346.395Z" fill="#2A3A51"/>
<path fill-rule="evenodd" clip-rule="evenodd" d="M978.418 405.005V336.282H980.146V405.005H978.418Z" fill="#959DA8"/>
<path d="M993.376 357.427H965.18L973.994 336.282H984.562L993.376 357.427Z" fill="#D3DCE5"/>
<path fill-rule="evenodd" clip-rule="evenodd" d="M972.027 357.328L976.987 336.183L977.829 336.38L972.869 357.525L972.027 357.328Z" fill="#959DA8"/>
<path fill-rule="evenodd" clip-rule="evenodd" d="M985.804 357.525L980.844 336.38L981.685 336.183L986.645 357.328L985.804 357.525Z" fill="#959DA8"/>
<path d="M943.068 366.864L941.616 366.596C940.499 368.157 940.023 370.086 940.285 371.988C940.343 372.379 940.548 372.733 940.858 372.978C941.168 373.222 941.561 373.339 941.954 373.304C942.348 373.268 942.713 373.084 942.975 372.787C943.236 372.491 943.375 372.106 943.362 371.711C943.411 370.09 943.312 368.467 943.068 366.864Z" fill="white"/>
<path fill-rule="evenodd" clip-rule="evenodd" d="M941.427 366.121L943.149 366.439L943.07 366.864L943.497 366.799C943.745 368.424 943.845 370.068 943.796 371.711C943.809 372.212 943.632 372.698 943.301 373.074C942.966 373.452 942.499 373.689 941.995 373.734C941.492 373.779 940.99 373.63 940.593 373.317C940.196 373.004 939.934 372.551 939.86 372.051L940.288 371.988L939.86 372.047C939.582 370.036 940.086 367.995 941.267 366.344L941.427 366.121ZM940.716 371.927C940.757 372.208 940.905 372.462 941.128 372.638C941.352 372.815 941.634 372.899 941.918 372.873C942.202 372.848 942.465 372.715 942.653 372.501C942.842 372.288 942.942 372.01 942.932 371.726L942.932 371.712L942.932 371.698C942.977 370.205 942.896 368.711 942.688 367.232L941.816 367.072C940.874 368.5 940.481 370.226 940.716 371.927Z" fill="#959DA8"/>
<path d="M947.344 364.185L947.733 362.76C949.624 362.43 951.569 362.839 953.168 363.9C953.495 364.122 953.725 364.46 953.811 364.845C953.896 365.23 953.831 365.634 953.629 365.973C953.427 366.312 953.103 366.561 952.723 366.669C952.343 366.777 951.937 366.735 951.587 366.553C950.104 365.894 948.683 365.102 947.344 364.185Z" fill="white"/>
<path fill-rule="evenodd" clip-rule="evenodd" d="M948.073 363.144L947.84 364C949.083 364.829 950.394 365.551 951.76 366.158L951.772 366.164L951.784 366.17C952.036 366.301 952.329 366.331 952.603 366.253C952.877 366.176 953.11 365.996 953.256 365.752C953.402 365.507 953.448 365.216 953.387 364.939C953.325 364.662 953.16 364.419 952.925 364.259C951.494 363.31 949.769 362.915 948.073 363.144ZM953.166 363.9L953.405 363.54C951.713 362.417 949.656 361.986 947.656 362.334L947.386 362.381L946.844 364.368L947.098 364.542C948.455 365.471 949.895 366.274 951.397 366.943C951.843 367.17 952.358 367.221 952.839 367.085C953.325 366.947 953.74 366.628 953.998 366.194C954.257 365.76 954.34 365.244 954.23 364.751C954.12 364.258 953.826 363.826 953.408 363.542L953.166 363.9Z" fill="#959DA8"/>
<path d="M951.697 367.27C952.263 368.277 952.42 369.463 952.135 370.583C951.85 371.703 951.146 372.67 950.168 373.285C949.19 373.9 948.013 374.115 946.881 373.887C945.749 373.658 944.747 373.003 944.084 372.057C942.84 370.07 942.296 365.429 944.396 364.107C946.495 362.785 950.453 365.282 951.697 367.27Z" fill="white"/>
<path fill-rule="evenodd" clip-rule="evenodd" d="M946.196 364.193C945.575 364.121 945.042 364.21 944.624 364.473C944.207 364.735 943.897 365.178 943.693 365.768C943.489 366.359 943.402 367.072 943.416 367.824C943.444 369.335 943.875 370.905 944.443 371.818C945.042 372.669 945.945 373.257 946.965 373.463C947.989 373.67 949.053 373.475 949.937 372.919C950.821 372.363 951.457 371.489 951.715 370.476C951.971 369.468 951.831 368.399 951.324 367.49C950.751 366.581 949.523 365.513 948.172 364.833C947.499 364.495 946.818 364.265 946.196 364.193ZM948.56 364.061C950.019 364.795 951.388 365.964 952.062 367.04L952.067 367.049L952.072 367.058C952.692 368.162 952.864 369.462 952.552 370.689C952.24 371.916 951.468 372.977 950.397 373.651C949.325 374.325 948.035 374.561 946.794 374.31C945.553 374.06 944.455 373.342 943.729 372.305L943.723 372.296L943.717 372.286C943.043 371.211 942.583 369.472 942.552 367.84C942.537 367.019 942.63 366.2 942.876 365.487C943.122 364.773 943.531 364.14 944.164 363.741C944.796 363.343 945.545 363.248 946.295 363.335C947.045 363.421 947.825 363.692 948.56 364.061Z" fill="#959DA8"/>
<path d="M939.76 363.447C940.588 362.927 940.838 361.833 940.317 361.005C939.797 360.176 938.703 359.927 937.875 360.448C937.046 360.968 936.797 362.062 937.318 362.89C937.838 363.718 938.932 363.968 939.76 363.447Z" fill="white"/>
<path fill-rule="evenodd" clip-rule="evenodd" d="M938.107 360.813C937.48 361.207 937.292 362.033 937.685 362.66C938.079 363.286 938.906 363.475 939.532 363.081C940.158 362.687 940.347 361.86 939.953 361.234C939.56 360.608 938.733 360.419 938.107 360.813ZM936.954 363.12C936.306 362.089 936.616 360.729 937.647 360.081C938.677 359.434 940.037 359.744 940.685 360.774C941.333 361.805 941.022 363.165 939.992 363.813C938.962 364.46 937.601 364.15 936.954 363.12Z" fill="#959DA8"/>
<path d="M948.024 363.468C948.856 362.949 949.109 361.855 948.591 361.023C948.072 360.191 946.978 359.938 946.146 360.456C945.315 360.975 945.061 362.069 945.579 362.901C946.098 363.732 947.193 363.986 948.024 363.468Z" fill="white"/>
<path fill-rule="evenodd" clip-rule="evenodd" d="M946.378 360.823C945.749 361.216 945.557 362.043 945.949 362.672C946.341 363.301 947.169 363.492 947.798 363.1C948.426 362.708 948.618 361.881 948.226 361.252C947.834 360.623 947.007 360.431 946.378 360.823ZM945.215 363.13C944.57 362.095 944.885 360.734 945.92 360.089C946.954 359.444 948.316 359.76 948.961 360.794C949.606 361.829 949.29 363.19 948.256 363.835C947.221 364.48 945.86 364.164 945.215 363.13Z" fill="#959DA8"/>
<path d="M945.761 366.266C947.862 364.945 948.555 362.267 947.308 360.283C946.061 358.299 943.347 357.761 941.246 359.082C939.145 360.402 938.452 363.081 939.699 365.065C940.946 367.049 943.66 367.587 945.761 366.266Z" fill="white"/>
<path fill-rule="evenodd" clip-rule="evenodd" d="M941.478 359.447C939.559 360.653 938.959 363.072 940.067 364.835C941.175 366.597 943.614 367.106 945.533 365.9C947.453 364.694 948.052 362.275 946.944 360.512C945.836 358.75 943.397 358.241 941.478 359.447ZM939.335 365.294C937.949 363.089 938.735 360.15 941.018 358.715C943.301 357.28 946.29 357.847 947.676 360.052C949.062 362.258 948.276 365.196 945.993 366.631C943.71 368.066 940.722 367.5 939.335 365.294Z" fill="#959DA8"/>
<path d="M948.458 375.495C948.767 374.437 948.022 373.289 946.794 372.931C945.566 372.573 944.321 373.14 944.012 374.199C943.703 375.257 944.448 376.405 945.676 376.763C946.904 377.121 948.15 376.554 948.458 375.495Z" fill="white"/>
<path fill-rule="evenodd" clip-rule="evenodd" d="M944.439 374.322C944.215 375.09 944.748 376.032 945.803 376.34C946.859 376.648 947.815 376.14 948.039 375.372C948.263 374.604 947.73 373.662 946.674 373.354C945.619 373.046 944.663 373.554 944.439 374.322ZM945.556 377.186C944.156 376.778 943.199 375.424 943.592 374.075C943.986 372.726 945.521 372.099 946.921 372.508C948.321 372.916 949.278 374.27 948.885 375.619C948.492 376.968 946.957 377.595 945.556 377.186Z" fill="#959DA8"/>
<path d="M954.803 370.985C955.013 369.723 954.301 368.554 953.214 368.373C952.126 368.192 951.075 369.068 950.865 370.329C950.655 371.591 951.366 372.761 952.453 372.942C953.541 373.123 954.593 372.246 954.803 370.985Z" fill="white"/>
<path fill-rule="evenodd" clip-rule="evenodd" d="M951.292 370.4C951.111 371.488 951.731 372.383 952.525 372.516C953.32 372.648 954.196 372.002 954.378 370.914C954.559 369.826 953.939 368.931 953.144 368.799C952.349 368.667 951.473 369.313 951.292 370.4ZM952.383 373.368C951.003 373.138 950.201 371.694 950.439 370.259C950.678 368.823 951.906 367.717 953.286 367.947C954.666 368.176 955.469 369.621 955.23 371.056C954.991 372.491 953.764 373.598 952.383 373.368Z" fill="#959DA8"/>
<path fill-rule="evenodd" clip-rule="evenodd" d="M943.2 364.978C943.016 365.396 943.013 365.801 943.207 366.109C943.401 366.417 943.767 366.591 944.223 366.607C944.678 366.622 945.21 366.478 945.707 366.166C946.205 365.853 946.565 365.436 946.748 365.019C946.932 364.602 946.934 364.196 946.741 363.888C946.547 363.58 946.181 363.407 945.725 363.391C945.27 363.376 944.738 363.519 944.241 363.832C943.743 364.145 943.383 364.562 943.2 364.978ZM943.002 364.891C943.205 364.43 943.597 363.982 944.126 363.649C944.655 363.317 945.229 363.158 945.732 363.175C946.235 363.192 946.681 363.387 946.924 363.773C947.167 364.16 947.149 364.646 946.946 365.106C946.743 365.568 946.351 366.016 945.822 366.349C945.293 366.681 944.719 366.84 944.215 366.823C943.713 366.805 943.267 366.611 943.024 366.224C942.781 365.837 942.799 365.352 943.002 364.891Z" fill="#959DA8"/>
<path d="M942.111 363.637C942.163 363.409 942.021 363.182 941.793 363.13C941.565 363.078 941.338 363.221 941.286 363.449C941.234 363.677 941.376 363.904 941.604 363.956C941.832 364.008 942.059 363.865 942.111 363.637Z" fill="#959DA8"/>
<path d="M945.1 361.834C945.27 361.727 945.321 361.503 945.214 361.334C945.107 361.164 944.883 361.113 944.714 361.219C944.544 361.326 944.493 361.55 944.599 361.72C944.706 361.89 944.93 361.941 945.1 361.834Z" fill="#959DA8"/>
<path d="M945.035 365.091C945.278 364.939 945.378 364.661 945.258 364.471C945.139 364.281 944.846 364.251 944.603 364.403C944.361 364.556 944.261 364.833 944.38 365.023C944.5 365.213 944.793 365.243 945.035 365.091Z" fill="#959DA8"/>
<path fill-rule="evenodd" clip-rule="evenodd" d="M945.237 365.589L944.969 365.166L945.151 365.05L945.419 365.474L945.237 365.589Z" fill="#959DA8"/>
<path fill-rule="evenodd" clip-rule="evenodd" d="M945.945 365.097C945.634 365.501 945.189 365.782 944.689 365.888L944.645 365.677C945.094 365.581 945.494 365.329 945.774 364.965L945.945 365.097Z" fill="#959DA8"/>
<path d="M967.656 371.046H938.578V395.121H967.656V371.046Z" fill="#F4F5F6"/>
<path fill-rule="evenodd" clip-rule="evenodd" d="M937.715 370.182H968.521V395.985H937.715V370.182ZM939.443 371.91V394.256H966.792V371.91H939.443Z" fill="#959DA8"/>
<path fill-rule="evenodd" clip-rule="evenodd" d="M957.63 371.046V395.121H956.766V371.046H957.63Z" fill="#959DA8"/>
<path d="M937.721 370.286L930.895 376.197H951.374L957.224 370.286H937.721Z" fill="#D3DCE5"/>
<path d="M973.757 375.289H962.342L957.227 370.286H968.633L973.757 375.289Z" fill="#D3DCE5"/>
<path d="M959.023 395.121H929.945V419.195H959.023V395.121Z" fill="#F4F5F6"/>
<path fill-rule="evenodd" clip-rule="evenodd" d="M929.082 394.256H959.888V420.059H929.082V394.256ZM930.81 395.985V418.331H958.16V395.985H930.81Z" fill="#959DA8"/>
<path fill-rule="evenodd" clip-rule="evenodd" d="M948.997 395.751V419.204H948.133V395.751H948.997Z" fill="#959DA8"/>
<path d="M988.101 395.121H959.023V419.195H988.101V395.121Z" fill="#F4F5F6"/>
<path fill-rule="evenodd" clip-rule="evenodd" d="M958.16 394.256H988.966V420.059H958.16V394.256ZM959.888 395.985V418.331H987.238V395.985H959.888Z" fill="#959DA8"/>
<path fill-rule="evenodd" clip-rule="evenodd" d="M983.071 395.121V419.204H982.207V395.121H983.071Z" fill="#959DA8"/>
<path d="M923.38 419.617H904.43L918.074 393.84H937.024L923.38 419.617Z" fill="#F4F5F6"/>
<path fill-rule="evenodd" clip-rule="evenodd" d="M917.551 392.976H938.457L923.898 420.48H902.992L917.551 392.976ZM918.592 394.704L905.862 418.752H922.857L935.587 394.704H918.592Z" fill="#959DA8"/>
<path d="M920.346 399.491C921.408 397.859 921.783 396.219 921.183 395.829C920.583 395.438 919.236 396.444 918.173 398.076C917.111 399.708 916.736 401.348 917.336 401.738C917.936 402.129 919.284 401.122 920.346 399.491Z" fill="#D3DCE5"/>
<path d="M923.669 411.957C926.262 407.973 927.181 403.973 925.721 403.023C924.261 402.073 920.976 404.532 918.383 408.516C915.79 412.5 914.871 416.499 916.331 417.45C917.791 418.4 921.076 415.941 923.669 411.957Z" fill="#D3DCE5"/>
<path fill-rule="evenodd" clip-rule="evenodd" d="M923.801 396.287V408.489H913.633L923.801 396.287ZM915.478 407.625H922.937V398.674L915.478 407.625Z" fill="#959DA8"/>
</svg>
