<svg width="892" height="423" viewBox="0 0 892 423" fill="none" xmlns="http://www.w3.org/2000/svg">
<path d="M727.216 124.787C726.929 124.787 726.644 124.756 726.365 124.694C713.331 121.725 713.331 105.977 713.331 105.977C713.232 96.9953 715.883 88.1989 720.928 80.7678C721.634 79.7552 722.573 78.928 723.667 78.3568C724.761 77.7856 725.977 77.4873 727.211 77.4873C728.445 77.4873 729.661 77.7856 730.755 78.3568C731.849 78.928 732.789 79.7552 733.494 80.7678C738.542 88.1979 741.196 96.9944 741.1 105.977C741.1 105.977 741.1 121.784 728.066 124.694C727.787 124.756 727.502 124.787 727.216 124.787Z" fill="#80C33F"/>
<path fill-rule="evenodd" clip-rule="evenodd" d="M727.213 94.4712C727.436 94.4712 727.617 94.6522 727.617 94.8754V148.56C727.617 148.783 727.436 148.964 727.213 148.964C726.99 148.964 726.809 148.783 726.809 148.56V94.8754C726.809 94.6522 726.99 94.4712 727.213 94.4712Z" fill="#2A3A51"/>
<path d="M102.594 124.619C102.586 122.726 103.034 120.858 103.901 119.174C104.768 117.491 106.027 116.04 107.573 114.946C109.118 113.852 110.905 113.146 112.781 112.889C114.657 112.631 116.567 112.829 118.35 113.465C119.04 110.69 120.436 108.141 122.402 106.065C124.369 103.989 126.84 102.458 129.574 101.62C132.308 100.782 135.213 100.666 138.005 101.284C140.797 101.902 143.382 103.232 145.507 105.145C147.009 100.946 149.944 97.412 153.795 95.1647C157.646 92.9174 162.167 92.1011 166.561 92.8595C170.955 93.6179 174.941 95.9025 177.816 99.3108C180.691 102.719 182.271 107.033 182.278 111.492C182.281 112.151 182.247 112.81 182.176 113.465C183.452 112.998 182.865 126.729 182.568 127.767H103.019C102.734 126.734 102.591 125.666 102.594 124.594V124.619Z" fill="#80C33F"/>
<path d="M167.594 110.327V157.546H159.461L159.469 110.327H167.594Z" fill="#F4F5F6"/>
<path fill-rule="evenodd" clip-rule="evenodd" d="M159.063 109.923H167.997V157.95H159.055L159.063 109.923ZM159.872 110.732L159.863 157.142H167.188V110.732H159.872Z" fill="#959DA8"/>
<path d="M159.087 110.327V157.546H150.953L150.962 110.327H159.087Z" fill="#F4F5F6"/>
<path fill-rule="evenodd" clip-rule="evenodd" d="M150.556 109.923H159.489V157.95H150.547L150.556 109.923ZM151.364 110.732L151.355 157.142H158.68V110.732H151.364Z" fill="#959DA8"/>
<path d="M176.101 110.327H167.789V157.546H176.101V110.327Z" fill="#F4F5F6"/>
<path fill-rule="evenodd" clip-rule="evenodd" d="M167.387 109.923H176.507V157.95H167.387V109.923ZM168.195 110.732V157.142H175.699V110.732H168.195Z" fill="#959DA8"/>
<path d="M184.609 110.327H176.297V157.546H184.609V110.327Z" fill="#F4F5F6"/>
<path fill-rule="evenodd" clip-rule="evenodd" d="M175.891 109.923H185.011V157.95H175.891V109.923ZM176.699 110.732V157.142H184.203V110.732H176.699Z" fill="#959DA8"/>
<path d="M193.117 110.327H184.805V157.546H193.117V110.327Z" fill="#F4F5F6"/>
<path fill-rule="evenodd" clip-rule="evenodd" d="M184.402 109.923H193.523V157.95H184.402V109.923ZM185.211 110.732V157.142H192.715V110.732H185.211Z" fill="#959DA8"/>
<path d="M125.907 110.327V157.546H117.773L117.782 110.327H125.907Z" fill="#F4F5F6"/>
<path fill-rule="evenodd" clip-rule="evenodd" d="M117.376 109.923H126.309V157.95H117.367L117.376 109.923ZM118.184 110.732L118.176 157.142H125.501V110.732H118.184Z" fill="#959DA8"/>
<path d="M117.399 110.327V157.546H109.266L109.274 110.327H117.399Z" fill="#F4F5F6"/>
<path fill-rule="evenodd" clip-rule="evenodd" d="M108.868 109.923H117.801V157.95H108.859L108.868 109.923ZM109.676 110.732L109.668 157.142H116.993V110.732H109.676Z" fill="#959DA8"/>
<path d="M108.891 110.327V157.546H100.758L100.766 110.327H108.891Z" fill="#F4F5F6"/>
<path fill-rule="evenodd" clip-rule="evenodd" d="M100.36 109.923H109.294V157.95H100.352L100.36 109.923ZM101.168 110.732L101.16 157.142H108.485V110.732H101.168Z" fill="#959DA8"/>
<path d="M100.384 110.327V157.546H92.25L92.2585 110.327H100.384Z" fill="#F4F5F6"/>
<path fill-rule="evenodd" clip-rule="evenodd" d="M91.8524 109.923H100.786V157.95H91.8438L91.8524 109.923ZM92.6606 110.732L92.6523 157.142H99.9774V110.732H92.6606Z" fill="#959DA8"/>
<path d="M134.41 110.327H126.098V157.546H134.41V110.327Z" fill="#F4F5F6"/>
<path fill-rule="evenodd" clip-rule="evenodd" d="M125.695 109.923H134.816V157.95H125.695V109.923ZM126.504 110.732V157.142H134.007V110.732H126.504Z" fill="#959DA8"/>
<path d="M142.922 110.327H134.609V157.546H142.922V110.327Z" fill="#F4F5F6"/>
<path fill-rule="evenodd" clip-rule="evenodd" d="M134.207 109.923H143.328V157.95H134.207V109.923ZM135.015 110.732V157.142H142.519V110.732H135.015Z" fill="#959DA8"/>
<path d="M151.429 110.327H143.117V157.546H151.429V110.327Z" fill="#F4F5F6"/>
<path fill-rule="evenodd" clip-rule="evenodd" d="M142.711 109.923H151.831V157.95H142.711V109.923ZM143.519 110.732V157.142H151.023V110.732H143.519Z" fill="#959DA8"/>
<path d="M201.625 110.327H193.312V157.546H201.625V110.327Z" fill="#F4F5F6"/>
<path fill-rule="evenodd" clip-rule="evenodd" d="M192.91 109.923H202.031V157.95H192.91V109.923ZM193.719 110.732V157.142H201.222V110.732H193.719Z" fill="#959DA8"/>
<path d="M210.136 110.327H201.824V157.546H210.136V110.327Z" fill="#F4F5F6"/>
<path fill-rule="evenodd" clip-rule="evenodd" d="M201.418 109.923H210.539V157.95H201.418V109.923ZM202.226 110.732V157.142H209.73V110.732H202.226Z" fill="#959DA8"/>
<path d="M218.64 110.327H210.328V157.546H218.64V110.327Z" fill="#F4F5F6"/>
<path fill-rule="evenodd" clip-rule="evenodd" d="M209.926 109.923H219.046V157.95H209.926V109.923ZM210.734 110.732V157.142H218.238V110.732H210.734Z" fill="#959DA8"/>
<path d="M227.148 110.327H218.836V157.546H227.148V110.327Z" fill="#F4F5F6"/>
<path fill-rule="evenodd" clip-rule="evenodd" d="M218.434 109.923H227.554V157.95H218.434V109.923ZM219.242 110.732V157.142H226.746V110.732H219.242Z" fill="#959DA8"/>
<path d="M235.656 110.327H227.344V157.546H235.656V110.327Z" fill="#F4F5F6"/>
<path fill-rule="evenodd" clip-rule="evenodd" d="M226.941 109.923H236.062V157.95H226.941V109.923ZM227.75 110.732V157.142H235.254V110.732H227.75Z" fill="#959DA8"/>
<path d="M244.164 110.327H235.852V157.546H244.164V110.327Z" fill="#F4F5F6"/>
<path fill-rule="evenodd" clip-rule="evenodd" d="M235.449 109.923H244.57V157.95H235.449V109.923ZM236.258 110.732V157.142H243.761V110.732H236.258Z" fill="#959DA8"/>
<path fill-rule="evenodd" clip-rule="evenodd" d="M91.5742 109.942H244.63V158.352H91.5742V109.942ZM93.191 111.559V156.735H243.014V111.559H93.191Z" fill="#959DA8"/>
<path d="M0.500099 418.138C0.492323 416.245 0.940717 414.377 1.80733 412.693C2.67394 411.01 3.93325 409.559 5.47882 408.465C7.0244 407.371 8.81076 406.665 10.6868 406.408C12.5628 406.15 14.4732 406.348 16.2566 406.984C16.9459 404.209 18.3418 401.66 20.3087 399.584C22.2755 397.508 24.7462 395.977 27.4804 395.139C30.2146 394.301 33.119 394.186 35.9112 394.803C38.7033 395.421 41.2879 396.751 43.4136 398.664C44.9151 394.465 47.8499 390.931 51.7012 388.684C55.5525 386.436 60.0733 385.62 64.4674 386.379C68.8614 387.137 72.8469 389.422 75.722 392.83C78.5971 396.238 80.1774 400.552 80.1845 405.011C80.1869 405.67 80.1529 406.329 80.0824 406.984C81.3636 406.516 82.7171 406.277 84.0811 406.278C90.6321 406.278 96.3324 411.596 95.9155 418.113C95.8554 419.187 95.6757 420.252 95.3795 421.286H0.942524C0.657314 420.253 0.514202 419.185 0.517132 418.113L0.500099 418.138Z" fill="#80C33F"/>
<path d="M832.566 289.415H98.3398V421.286H832.566V289.415Z" fill="#F4F5F6"/>
<path fill-rule="evenodd" clip-rule="evenodd" d="M97.5312 288.606H833.374V422.095H97.5312V288.606ZM99.148 290.223V420.478H831.758V290.223H99.148Z" fill="#959DA8"/>
<path d="M832.566 157.546H98.3398V289.417H832.566V157.546Z" fill="#F4F5F6"/>
<path fill-rule="evenodd" clip-rule="evenodd" d="M97.5312 156.737H833.374V290.226H97.5312V156.737ZM99.148 158.354V288.609H831.758V158.354H99.148Z" fill="#959DA8"/>
<path d="M686.232 25.6729H243.824V157.544H686.232V25.6729Z" fill="#F4F5F6"/>
<path fill-rule="evenodd" clip-rule="evenodd" d="M243.102 24.9492H686.956V158.268H243.102V24.9492ZM244.549 26.3962V156.821H685.509V26.3962H244.549Z" fill="#959DA8"/>
<path d="M391.861 1H243.824V421.287H391.861V1Z" fill="#F4F5F6"/>
<path fill-rule="evenodd" clip-rule="evenodd" d="M243.016 0.191406H392.669V422.095H243.016V0.191406ZM244.632 1.80817V420.478H391.052V1.80817H244.632Z" fill="#959DA8"/>
<path d="M686.232 1H538.195V421.287H686.232V1Z" fill="#F4F5F6"/>
<path fill-rule="evenodd" clip-rule="evenodd" d="M537.387 0.191406H687.04V422.095H537.387V0.191406ZM539.003 1.80817V420.478H685.423V1.80817H539.003Z" fill="#959DA8"/>
<path d="M227.661 181.366H113.656V288.564H227.661V181.366Z" fill="#F4F5F6"/>
<path fill-rule="evenodd" clip-rule="evenodd" d="M112.785 180.497H228.528V289.433H112.785V180.497ZM114.523 182.235V287.695H226.79V182.235H114.523Z" fill="#959DA8"/>
<path d="M816.403 181.366H702.398V288.564H816.403V181.366Z" fill="#F4F5F6"/>
<path fill-rule="evenodd" clip-rule="evenodd" d="M701.527 180.497H817.27V289.433H701.527V180.497ZM703.265 182.235V287.695H815.532V182.235H703.265Z" fill="#959DA8"/>
<path d="M281.711 46.0908H354.028V142.987H281.711V46.0908Z" fill="white"/>
<path fill-rule="evenodd" clip-rule="evenodd" d="M281.305 45.6865H354.43V143.391H281.305V45.6865ZM282.113 46.4949V142.582H353.621V46.4949H282.113Z" fill="#959DA8"/>
<path fill-rule="evenodd" clip-rule="evenodd" d="M317.156 143.081V45.8872H317.965V143.081H317.156Z" fill="#959DA8"/>
<path d="M576.082 46.0908H648.399V142.987H576.082V46.0908Z" fill="white"/>
<path fill-rule="evenodd" clip-rule="evenodd" d="M575.68 45.6865H648.805V143.391H575.68V45.6865ZM576.488 46.4949V142.582H647.996V46.4949H576.488Z" fill="#959DA8"/>
<path fill-rule="evenodd" clip-rule="evenodd" d="M611.527 143.081V45.8872H612.336V143.081H611.527Z" fill="#959DA8"/>
<path d="M281.711 181.366H354.028V278.261H281.711V181.366Z" fill="white"/>
<path fill-rule="evenodd" clip-rule="evenodd" d="M281.305 180.961H354.43V278.666H281.305V180.961ZM282.113 181.77V277.857H353.621V181.77H282.113Z" fill="#959DA8"/>
<path fill-rule="evenodd" clip-rule="evenodd" d="M317.156 278.356V181.162H317.965V278.356H317.156Z" fill="#959DA8"/>
<path d="M132.82 186.684H205.137V279.13H132.82V186.684Z" fill="white"/>
<path fill-rule="evenodd" clip-rule="evenodd" d="M132.418 186.279H205.543V279.534H132.418V186.279ZM133.226 187.088V278.725H204.735V187.088H133.226Z" fill="#959DA8"/>
<path fill-rule="evenodd" clip-rule="evenodd" d="M168.27 279.207V186.472H169.078V279.207H168.27Z" fill="#959DA8"/>
<path d="M725.816 186.684H798.133V279.13H725.816V186.684Z" fill="white"/>
<path fill-rule="evenodd" clip-rule="evenodd" d="M725.414 186.279H798.539V279.534H725.414V186.279ZM726.222 187.088V278.725H797.731V187.088H726.222Z" fill="#959DA8"/>
<path fill-rule="evenodd" clip-rule="evenodd" d="M761.266 279.207V186.472H762.074V279.207H761.266Z" fill="#959DA8"/>
<path d="M576.082 181.366H648.399V278.261H576.082V181.366Z" fill="white"/>
<path fill-rule="evenodd" clip-rule="evenodd" d="M575.68 180.961H648.805V278.666H575.68V180.961ZM576.488 181.77V277.857H647.996V181.77H576.488Z" fill="#959DA8"/>
<path fill-rule="evenodd" clip-rule="evenodd" d="M611.527 278.356V181.162H612.336V278.356H611.527Z" fill="#959DA8"/>
<path d="M281.711 312.388H354.028V409.283H281.711V312.388Z" fill="white"/>
<path fill-rule="evenodd" clip-rule="evenodd" d="M281.305 311.983H354.43V409.688H281.305V311.983ZM282.113 312.792V408.879H353.621V312.792H282.113Z" fill="#959DA8"/>
<path fill-rule="evenodd" clip-rule="evenodd" d="M317.156 409.374V312.18H317.965V409.374H317.156Z" fill="#959DA8"/>
<path d="M576.082 312.388H648.399V409.283H576.082V312.388Z" fill="white"/>
<path fill-rule="evenodd" clip-rule="evenodd" d="M575.68 311.983H648.805V409.688H575.68V311.983ZM576.488 312.792V408.879H647.996V312.792H576.488Z" fill="#959DA8"/>
<path fill-rule="evenodd" clip-rule="evenodd" d="M611.527 409.374V312.18H612.336V409.374H611.527Z" fill="#959DA8"/>
<path d="M725.816 312.388H798.133V409.283H725.816V312.388Z" fill="white"/>
<path fill-rule="evenodd" clip-rule="evenodd" d="M725.414 311.983H798.539V409.688H725.414V311.983ZM726.222 312.792V408.879H797.731V312.792H726.222Z" fill="#959DA8"/>
<path fill-rule="evenodd" clip-rule="evenodd" d="M761.266 409.374V312.18H762.074V409.374H761.266Z" fill="#959DA8"/>
<path d="M451.027 46.0908H480.201V142.987H451.027V46.0908Z" fill="white"/>
<path fill-rule="evenodd" clip-rule="evenodd" d="M450.621 45.6865H480.603V143.391H450.621V45.6865ZM451.429 46.4949V142.582H479.794V46.4949H451.429Z" fill="#959DA8"/>
<path d="M451.027 181.366H480.201V278.261H451.027V181.366Z" fill="white"/>
<path fill-rule="evenodd" clip-rule="evenodd" d="M450.621 180.961H480.603V278.666H450.621V180.961ZM451.429 181.77V277.857H479.794V181.77H451.429Z" fill="#959DA8"/>
<path d="M451.027 312.388H480.201V409.283H451.027V312.388Z" fill="white"/>
<path fill-rule="evenodd" clip-rule="evenodd" d="M450.621 311.983H480.603V409.688H450.621V311.983ZM451.429 312.792V408.879H479.794V312.792H451.429Z" fill="#959DA8"/>
<path d="M143.575 265.169C143.289 265.169 143.004 265.137 142.724 265.075C129.69 262.106 129.69 246.358 129.69 246.358C129.592 237.377 132.243 228.58 137.288 221.149C137.993 220.137 138.933 219.309 140.027 218.738C141.121 218.167 142.337 217.869 143.571 217.869C144.805 217.869 146.021 218.167 147.115 218.738C148.209 219.309 149.148 220.137 149.854 221.149C154.902 228.579 157.556 237.376 157.46 246.358C157.46 246.358 157.46 262.165 144.426 265.075C144.146 265.137 143.861 265.169 143.575 265.169Z" fill="#80C33F"/>
<path fill-rule="evenodd" clip-rule="evenodd" d="M143.576 234.848C143.799 234.848 143.98 235.029 143.98 235.252V288.937C143.98 289.16 143.799 289.341 143.576 289.341C143.353 289.341 143.172 289.16 143.172 288.937V235.252C143.172 235.029 143.353 234.848 143.576 234.848Z" fill="#2A3A51"/>
<path d="M435.395 117.984C435.109 117.984 434.824 117.952 434.545 117.89C421.511 114.921 421.51 99.1729 421.51 99.1729C421.412 90.1916 424.063 81.3952 429.108 73.9641C429.813 72.9515 430.753 72.1243 431.847 71.5531C432.941 70.9819 434.157 70.6836 435.391 70.6836C436.625 70.6836 437.841 70.9819 438.935 71.5531C440.029 72.1243 440.969 72.9515 441.674 73.9641C446.722 81.3942 449.376 90.1907 449.28 99.1729C449.28 99.1729 449.28 114.98 436.246 117.89C435.967 117.952 435.681 117.984 435.395 117.984Z" fill="#80C33F"/>
<path fill-rule="evenodd" clip-rule="evenodd" d="M435.396 87.6655C435.62 87.6655 435.801 87.8465 435.801 88.0697V141.754C435.801 141.977 435.62 142.158 435.396 142.158C435.173 142.158 434.992 141.977 434.992 141.754V88.0697C434.992 87.8465 435.173 87.6655 435.396 87.6655Z" fill="#2A3A51"/>
<path d="M151.427 241.347V288.566H143.293L143.301 241.347H151.427Z" fill="#F4F5F6"/>
<path fill-rule="evenodd" clip-rule="evenodd" d="M142.899 240.943H151.833V288.97H142.891L142.899 240.943ZM143.708 241.752L143.699 288.162H151.024V241.752H143.708Z" fill="#959DA8"/>
<path d="M142.923 241.347V288.566H134.789L134.798 241.347H142.923Z" fill="#F4F5F6"/>
<path fill-rule="evenodd" clip-rule="evenodd" d="M134.391 240.943H143.325V288.97H134.383L134.391 240.943ZM135.2 241.752L135.191 288.162H142.516V241.752H135.2Z" fill="#959DA8"/>
<path d="M159.937 241.347H151.625V288.566H159.937V241.347Z" fill="#F4F5F6"/>
<path fill-rule="evenodd" clip-rule="evenodd" d="M151.223 240.943H160.343V288.97H151.223V240.943ZM152.031 241.752V288.162H159.535V241.752H152.031Z" fill="#959DA8"/>
<path d="M168.445 241.347H160.133V288.566H168.445V241.347Z" fill="#F4F5F6"/>
<path fill-rule="evenodd" clip-rule="evenodd" d="M159.73 240.943H168.851V288.97H159.73V240.943ZM160.539 241.752V288.162H168.043V241.752H160.539Z" fill="#959DA8"/>
<path d="M176.953 241.347H168.641V288.566H176.953V241.347Z" fill="#F4F5F6"/>
<path fill-rule="evenodd" clip-rule="evenodd" d="M168.238 240.943H177.359V288.97H168.238V240.943ZM169.047 241.752V288.162H176.55V241.752H169.047Z" fill="#959DA8"/>
<path d="M185.461 241.347H177.148V288.566H185.461V241.347Z" fill="#F4F5F6"/>
<path fill-rule="evenodd" clip-rule="evenodd" d="M176.746 240.943H185.867V288.97H176.746V240.943ZM177.554 241.752V288.162H185.058V241.752H177.554Z" fill="#959DA8"/>
<path d="M193.968 241.347H185.656V288.566H193.968V241.347Z" fill="#F4F5F6"/>
<path fill-rule="evenodd" clip-rule="evenodd" d="M185.25 240.943H194.371V288.97H185.25V240.943ZM186.058 241.752V288.162H193.562V241.752H186.058Z" fill="#959DA8"/>
<path d="M202.476 241.347H194.164V288.566H202.476V241.347Z" fill="#F4F5F6"/>
<path fill-rule="evenodd" clip-rule="evenodd" d="M193.762 240.943H202.882V288.97H193.762V240.943ZM194.57 241.752V288.162H202.074V241.752H194.57Z" fill="#959DA8"/>
<path d="M210.984 241.347H202.672V288.566H210.984V241.347Z" fill="#F4F5F6"/>
<path fill-rule="evenodd" clip-rule="evenodd" d="M202.266 240.943H211.386V288.97H202.266V240.943ZM203.074 241.752V288.162H210.578V241.752H203.074Z" fill="#959DA8"/>
<path d="M219.492 241.347H211.18V288.566H219.492V241.347Z" fill="#F4F5F6"/>
<path fill-rule="evenodd" clip-rule="evenodd" d="M210.777 240.943H219.898V288.97H210.777V240.943ZM211.586 241.752V288.162H219.09V241.752H211.586Z" fill="#959DA8"/>
<path d="M228 241.347H219.688V288.566H228V241.347Z" fill="#F4F5F6"/>
<path fill-rule="evenodd" clip-rule="evenodd" d="M219.285 240.943H228.406V288.97H219.285V240.943ZM220.094 241.752V288.162H227.597V241.752H220.094Z" fill="#959DA8"/>
<path d="M125.906 241.347H117.594V288.566H125.906V241.347Z" fill="#F4F5F6"/>
<path fill-rule="evenodd" clip-rule="evenodd" d="M117.188 240.943H126.308V288.97H117.188V240.943ZM117.996 241.752V288.162H125.5V241.752H117.996Z" fill="#959DA8"/>
<path d="M134.41 241.347H126.098V288.566H134.41V241.347Z" fill="#F4F5F6"/>
<path fill-rule="evenodd" clip-rule="evenodd" d="M125.695 240.943H134.816V288.97H125.695V240.943ZM126.504 241.752V288.162H134.007V241.752H126.504Z" fill="#959DA8"/>
<path fill-rule="evenodd" clip-rule="evenodd" d="M112.848 240.964H228.469V289.374H112.848V240.964ZM114.464 242.581V287.757H226.853V242.581H114.464Z" fill="#959DA8"/>
<path d="M358.483 146.943H277.199L276.152 139.397H359.529L358.483 146.943Z" fill="#D3DCE5"/>
<path d="M653.709 147.794H572.425L571.379 140.248H654.756L653.709 147.794Z" fill="#D3DCE5"/>
<path d="M358.483 282.219H277.199L276.152 274.672H359.529L358.483 282.219Z" fill="#D3DCE5"/>
<path d="M653.709 279.666H572.425L571.379 272.119H654.756L653.709 279.666Z" fill="#D3DCE5"/>
<path d="M358.483 413.239H277.199L276.152 405.692H359.529L358.483 413.239Z" fill="#D3DCE5"/>
<path d="M653.709 409.835H572.425L571.379 402.288H654.756L653.709 409.835Z" fill="#D3DCE5"/>
<path d="M802.596 409.835H721.312L720.266 402.288H803.642L802.596 409.835Z" fill="#D3DCE5"/>
<path d="M464.516 110.327V157.546H456.383L456.391 110.327H464.516Z" fill="#F4F5F6"/>
<path fill-rule="evenodd" clip-rule="evenodd" d="M455.985 109.923H464.919V157.95H455.977L455.985 109.923ZM456.793 110.732L456.785 157.142H464.11V110.732H456.793Z" fill="#959DA8"/>
<path d="M456.009 110.327V157.546H447.875L447.884 110.327H456.009Z" fill="#F4F5F6"/>
<path fill-rule="evenodd" clip-rule="evenodd" d="M447.481 109.923H456.415V157.95H447.473L447.481 109.923ZM448.29 110.732L448.281 157.142H455.606V110.732H448.29Z" fill="#959DA8"/>
<path d="M473.027 110.327H464.715V157.546H473.027V110.327Z" fill="#F4F5F6"/>
<path fill-rule="evenodd" clip-rule="evenodd" d="M464.312 109.923H473.433V157.95H464.312V109.923ZM465.121 110.732V157.142H472.625V110.732H465.121Z" fill="#959DA8"/>
<path d="M481.535 110.327H473.223V157.546H481.535V110.327Z" fill="#F4F5F6"/>
<path fill-rule="evenodd" clip-rule="evenodd" d="M472.816 109.923H481.937V157.95H472.816V109.923ZM473.625 110.732V157.142H481.129V110.732H473.625Z" fill="#959DA8"/>
<path d="M490.043 110.327H481.73V157.546H490.043V110.327Z" fill="#F4F5F6"/>
<path fill-rule="evenodd" clip-rule="evenodd" d="M481.324 109.923H490.445V157.95H481.324V109.923ZM482.133 110.732V157.142H489.636V110.732H482.133Z" fill="#959DA8"/>
<path d="M422.829 110.327V157.546H414.695L414.704 110.327H422.829Z" fill="#F4F5F6"/>
<path fill-rule="evenodd" clip-rule="evenodd" d="M414.298 109.923H423.231V157.95H414.289L414.298 109.923ZM415.106 110.732L415.098 157.142H422.423V110.732H415.106Z" fill="#959DA8"/>
<path d="M414.321 110.327V157.546H406.188L406.196 110.327H414.321Z" fill="#F4F5F6"/>
<path fill-rule="evenodd" clip-rule="evenodd" d="M405.79 109.923H414.723V157.95H405.781L405.79 109.923ZM406.598 110.732L406.59 157.142H413.915V110.732H406.598Z" fill="#959DA8"/>
<path d="M405.813 110.327V157.546H397.68L397.688 110.327H405.813Z" fill="#F4F5F6"/>
<path fill-rule="evenodd" clip-rule="evenodd" d="M397.282 109.923H406.215V157.95H397.273L397.282 109.923ZM398.09 110.732L398.082 157.142H405.407V110.732H398.09Z" fill="#959DA8"/>
<path d="M397.302 110.327V157.546H389.168L389.176 110.327H397.302Z" fill="#F4F5F6"/>
<path fill-rule="evenodd" clip-rule="evenodd" d="M388.774 109.923H397.708V157.95H388.766L388.774 109.923ZM389.583 110.732L389.574 157.142H396.899V110.732H389.583Z" fill="#959DA8"/>
<path d="M431.34 110.327H423.027V157.546H431.34V110.327Z" fill="#F4F5F6"/>
<path fill-rule="evenodd" clip-rule="evenodd" d="M422.621 109.923H431.742V157.95H422.621V109.923ZM423.429 110.732V157.142H430.933V110.732H423.429Z" fill="#959DA8"/>
<path d="M439.847 110.327H431.535V157.546H439.847V110.327Z" fill="#F4F5F6"/>
<path fill-rule="evenodd" clip-rule="evenodd" d="M431.129 109.923H440.249V157.95H431.129V109.923ZM431.937 110.732V157.142H439.441V110.732H431.937Z" fill="#959DA8"/>
<path d="M448.355 110.327H440.043V157.546H448.355V110.327Z" fill="#F4F5F6"/>
<path fill-rule="evenodd" clip-rule="evenodd" d="M439.637 109.923H448.757V157.95H439.637V109.923ZM440.445 110.732V157.142H447.949V110.732H440.445Z" fill="#959DA8"/>
<path d="M498.55 110.327H490.238V157.546H498.55V110.327Z" fill="#F4F5F6"/>
<path fill-rule="evenodd" clip-rule="evenodd" d="M489.836 109.923H498.956V157.95H489.836V109.923ZM490.644 110.732V157.142H498.148V110.732H490.644Z" fill="#959DA8"/>
<path d="M507.058 110.327H498.746V157.546H507.058V110.327Z" fill="#F4F5F6"/>
<path fill-rule="evenodd" clip-rule="evenodd" d="M498.34 109.923H507.46V157.95H498.34V109.923ZM499.148 110.732V157.142H506.652V110.732H499.148Z" fill="#959DA8"/>
<path d="M515.566 110.327H507.254V157.546H515.566V110.327Z" fill="#F4F5F6"/>
<path fill-rule="evenodd" clip-rule="evenodd" d="M506.848 109.923H515.968V157.95H506.848V109.923ZM507.656 110.732V157.142H515.16V110.732H507.656Z" fill="#959DA8"/>
<path d="M524.07 110.327H515.758V157.546H524.07V110.327Z" fill="#F4F5F6"/>
<path fill-rule="evenodd" clip-rule="evenodd" d="M515.355 109.923H524.476V157.95H515.355V109.923ZM516.164 110.732V157.142H523.668V110.732H516.164Z" fill="#959DA8"/>
<path d="M532.578 110.327H524.266V157.546H532.578V110.327Z" fill="#F4F5F6"/>
<path fill-rule="evenodd" clip-rule="evenodd" d="M523.863 109.923H532.984V157.95H523.863V109.923ZM524.672 110.732V157.142H532.175V110.732H524.672Z" fill="#959DA8"/>
<path d="M541.09 110.327H532.777V157.546H541.09V110.327Z" fill="#F4F5F6"/>
<path fill-rule="evenodd" clip-rule="evenodd" d="M532.371 109.923H541.492V157.95H532.371V109.923ZM533.179 110.732V157.142H540.683V110.732H533.179Z" fill="#959DA8"/>
<path fill-rule="evenodd" clip-rule="evenodd" d="M388.5 109.942H541.556V158.352H388.5V109.942ZM390.117 111.559V156.735H539.939V111.559H390.117Z" fill="#959DA8"/>
<path d="M395.266 261.596C395.258 259.703 395.706 257.835 396.573 256.151C397.44 254.468 398.699 253.017 400.244 251.923C401.79 250.829 403.576 250.124 405.452 249.866C407.328 249.608 409.239 249.806 411.022 250.443C411.711 247.667 413.107 245.118 415.074 243.042C417.041 240.966 419.512 239.435 422.246 238.597C424.98 237.759 427.885 237.644 430.677 238.261C433.469 238.879 436.054 240.209 438.179 242.122C439.681 237.923 442.616 234.389 446.467 232.142C450.318 229.894 454.839 229.078 459.233 229.837C463.627 230.595 467.612 232.88 470.488 236.288C473.363 239.696 474.943 244.01 474.95 248.469C474.953 249.128 474.918 249.787 474.848 250.443C476.124 249.975 475.537 263.706 475.239 264.744H395.691C395.406 263.711 395.263 262.643 395.266 261.571V261.596Z" fill="#80C33F"/>
<path d="M464.516 242.196V289.415H456.383L456.391 242.196H464.516Z" fill="#F4F5F6"/>
<path fill-rule="evenodd" clip-rule="evenodd" d="M455.985 241.792H464.919V289.819H455.977L455.985 241.792ZM456.793 242.6L456.785 289.01H464.11V242.6H456.793Z" fill="#959DA8"/>
<path d="M456.009 242.196V289.415H447.875L447.884 242.196H456.009Z" fill="#F4F5F6"/>
<path fill-rule="evenodd" clip-rule="evenodd" d="M447.481 241.792H456.415V289.819H447.473L447.481 241.792ZM448.29 242.6L448.281 289.01H455.606V242.6H448.29Z" fill="#959DA8"/>
<path d="M473.027 242.196H464.715V289.415H473.027V242.196Z" fill="#F4F5F6"/>
<path fill-rule="evenodd" clip-rule="evenodd" d="M464.312 241.792H473.433V289.819H464.312V241.792ZM465.121 242.6V289.01H472.625V242.6H465.121Z" fill="#959DA8"/>
<path d="M481.535 242.196H473.223V289.415H481.535V242.196Z" fill="#F4F5F6"/>
<path fill-rule="evenodd" clip-rule="evenodd" d="M472.816 241.792H481.937V289.819H472.816V241.792ZM473.625 242.6V289.01H481.129V242.6H473.625Z" fill="#959DA8"/>
<path d="M490.043 242.196H481.73V289.415H490.043V242.196Z" fill="#F4F5F6"/>
<path fill-rule="evenodd" clip-rule="evenodd" d="M481.324 241.792H490.445V289.819H481.324V241.792ZM482.133 242.6V289.01H489.636V242.6H482.133Z" fill="#959DA8"/>
<path d="M422.829 242.196V289.415H414.695L414.704 242.196H422.829Z" fill="#F4F5F6"/>
<path fill-rule="evenodd" clip-rule="evenodd" d="M414.298 241.792H423.231V289.819H414.289L414.298 241.792ZM415.106 242.6L415.098 289.01H422.423V242.6H415.106Z" fill="#959DA8"/>
<path d="M414.321 242.196V289.415H406.188L406.196 242.196H414.321Z" fill="#F4F5F6"/>
<path fill-rule="evenodd" clip-rule="evenodd" d="M405.79 241.792H414.723V289.819H405.781L405.79 241.792ZM406.598 242.6L406.59 289.01H413.915V242.6H406.598Z" fill="#959DA8"/>
<path d="M405.813 242.196V289.415H397.68L397.688 242.196H405.813Z" fill="#F4F5F6"/>
<path fill-rule="evenodd" clip-rule="evenodd" d="M397.282 241.792H406.215V289.819H397.273L397.282 241.792ZM398.09 242.6L398.082 289.01H405.407V242.6H398.09Z" fill="#959DA8"/>
<path d="M397.302 242.196V289.415H389.168L389.176 242.196H397.302Z" fill="#F4F5F6"/>
<path fill-rule="evenodd" clip-rule="evenodd" d="M388.774 241.792H397.708V289.819H388.766L388.774 241.792ZM389.583 242.6L389.574 289.01H396.899V242.6H389.583Z" fill="#959DA8"/>
<path d="M431.34 242.196H423.027V289.415H431.34V242.196Z" fill="#F4F5F6"/>
<path fill-rule="evenodd" clip-rule="evenodd" d="M422.621 241.792H431.742V289.819H422.621V241.792ZM423.429 242.6V289.01H430.933V242.6H423.429Z" fill="#959DA8"/>
<path d="M439.847 242.196H431.535V289.415H439.847V242.196Z" fill="#F4F5F6"/>
<path fill-rule="evenodd" clip-rule="evenodd" d="M431.129 241.792H440.249V289.819H431.129V241.792ZM431.937 242.6V289.01H439.441V242.6H431.937Z" fill="#959DA8"/>
<path d="M448.355 242.196H440.043V289.415H448.355V242.196Z" fill="#F4F5F6"/>
<path fill-rule="evenodd" clip-rule="evenodd" d="M439.637 241.792H448.757V289.819H439.637V241.792ZM440.445 242.6V289.01H447.949V242.6H440.445Z" fill="#959DA8"/>
<path d="M498.55 242.196H490.238V289.415H498.55V242.196Z" fill="#F4F5F6"/>
<path fill-rule="evenodd" clip-rule="evenodd" d="M489.836 241.792H498.956V289.819H489.836V241.792ZM490.644 242.6V289.01H498.148V242.6H490.644Z" fill="#959DA8"/>
<path d="M507.058 242.196H498.746V289.415H507.058V242.196Z" fill="#F4F5F6"/>
<path fill-rule="evenodd" clip-rule="evenodd" d="M498.34 241.792H507.46V289.819H498.34V241.792ZM499.148 242.6V289.01H506.652V242.6H499.148Z" fill="#959DA8"/>
<path d="M515.566 242.196H507.254V289.415H515.566V242.196Z" fill="#F4F5F6"/>
<path fill-rule="evenodd" clip-rule="evenodd" d="M506.848 241.792H515.968V289.819H506.848V241.792ZM507.656 242.6V289.01H515.16V242.6H507.656Z" fill="#959DA8"/>
<path d="M524.07 242.196H515.758V289.415H524.07V242.196Z" fill="#F4F5F6"/>
<path fill-rule="evenodd" clip-rule="evenodd" d="M515.355 241.792H524.476V289.819H515.355V241.792ZM516.164 242.6V289.01H523.668V242.6H516.164Z" fill="#959DA8"/>
<path d="M532.578 242.196H524.266V289.415H532.578V242.196Z" fill="#F4F5F6"/>
<path fill-rule="evenodd" clip-rule="evenodd" d="M523.863 241.792H532.984V289.819H523.863V241.792ZM524.672 242.6V289.01H532.175V242.6H524.672Z" fill="#959DA8"/>
<path d="M541.09 242.196H532.777V289.415H541.09V242.196Z" fill="#F4F5F6"/>
<path fill-rule="evenodd" clip-rule="evenodd" d="M532.371 241.792H541.492V289.819H532.371V241.792ZM533.179 242.6V289.01H540.683V242.6H533.179Z" fill="#959DA8"/>
<path fill-rule="evenodd" clip-rule="evenodd" d="M388.5 241.813H541.556V290.223H388.5V241.813ZM390.117 243.43V288.607H539.939V243.43H390.117Z" fill="#959DA8"/>
<path d="M586 369.279C586.634 366.449 586.632 363.514 585.992 360.685C585.352 357.856 584.092 355.205 582.302 352.923C580.512 350.641 578.237 348.786 575.642 347.491C573.046 346.197 570.196 345.495 567.296 345.437C564.397 345.379 561.521 345.966 558.876 347.157C556.231 348.347 553.884 350.11 552.004 352.318C550.125 354.527 548.759 357.126 548.007 359.926C547.255 362.727 547.135 365.661 547.656 368.514C545.52 369.551 543.633 371.038 542.124 372.872C540.615 374.706 539.52 376.844 538.914 379.14C538.308 381.436 538.204 383.836 538.611 386.175C539.017 388.515 539.924 390.739 541.269 392.696C542.614 394.653 544.366 396.297 546.405 397.515C548.443 398.733 550.721 399.496 553.082 399.752C555.443 400.009 557.831 399.753 560.084 399.001C562.337 398.25 564.4 397.021 566.135 395.398C567.819 396.98 569.816 398.191 571.998 398.952C574.18 399.712 576.498 400.006 578.8 399.814C581.103 399.622 583.34 398.949 585.365 397.837C587.391 396.725 589.161 395.201 590.56 393.361C591.958 391.522 592.955 389.41 593.486 387.161C594.016 384.912 594.068 382.576 593.638 380.306C593.208 378.036 592.306 375.881 590.99 373.981C589.675 372.082 587.975 370.48 586 369.279Z" fill="#80C33F"/>
<path fill-rule="evenodd" clip-rule="evenodd" d="M557.544 380.123C557.668 379.937 557.919 379.887 558.105 380.011L567.115 386.017C567.301 386.141 567.351 386.392 567.227 386.578C567.103 386.764 566.852 386.814 566.666 386.69L557.657 380.683C557.471 380.56 557.421 380.309 557.544 380.123Z" fill="#2A3A51"/>
<path fill-rule="evenodd" clip-rule="evenodd" d="M577.699 384.592C577.844 384.761 577.824 385.017 577.655 385.162L567.148 394.163C566.978 394.308 566.723 394.289 566.578 394.119C566.432 393.95 566.452 393.694 566.622 393.549L577.129 384.548C577.298 384.403 577.554 384.422 577.699 384.592Z" fill="#2A3A51"/>
<path fill-rule="evenodd" clip-rule="evenodd" d="M566.892 367.938C567.116 367.938 567.297 368.119 567.297 368.343V422.367C567.297 422.591 567.116 422.772 566.892 422.772C566.669 422.772 566.488 422.591 566.488 422.367V368.343C566.488 368.119 566.669 367.938 566.892 367.938Z" fill="#2A3A51"/>
<path fill-rule="evenodd" clip-rule="evenodd" d="M484.564 420.758L444.348 389.679L444.842 389.039L485.059 420.118L484.564 420.758Z" fill="#959DA8"/>
<path fill-rule="evenodd" clip-rule="evenodd" d="M444.348 420.118L484.564 389.039L485.059 389.679L444.842 420.758L444.348 420.118Z" fill="#959DA8"/>
<path d="M492.25 383.428H436.949V390.209H492.25V383.428Z" fill="#D3DCE5"/>
<path d="M402.571 400.57H426.103L416.294 377.046H392.77L402.571 400.57Z" fill="#D3DCE5"/>
<path fill-rule="evenodd" clip-rule="evenodd" d="M432.828 391.669C430.471 390.214 427.733 389.496 424.965 389.608L421.443 389.752L421.41 388.945L424.932 388.8C427.861 388.682 430.759 389.441 433.253 390.981C435.747 392.522 437.724 394.772 438.93 397.443L449.99 421.972L449.253 422.304L438.193 397.776C437.053 395.251 435.185 393.125 432.828 391.669Z" fill="#959DA8"/>
<path fill-rule="evenodd" clip-rule="evenodd" d="M397.605 422.052L402.523 399.931L403.312 400.107L398.395 422.227L397.605 422.052Z" fill="#959DA8"/>
<path fill-rule="evenodd" clip-rule="evenodd" d="M417.211 422.052L422.094 399.932L422.884 400.106L418 422.226L417.211 422.052Z" fill="#959DA8"/>
<path d="M401.917 400.572H439.164V397.305H401.917V400.572Z" fill="#D3DCE5"/>
<path fill-rule="evenodd" clip-rule="evenodd" d="M402.615 389.568C402.615 389.568 402.615 389.568 402.615 389.568L397.919 389.755L397.887 388.947L402.583 388.76C405.362 388.65 408.11 389.373 410.475 390.836C412.84 392.299 414.714 394.434 415.857 396.969L427.113 421.974L426.376 422.306L415.12 397.302C414.043 394.914 412.278 392.901 410.05 391.523C407.822 390.145 405.233 389.464 402.615 389.568Z" fill="#959DA8"/>
<path fill-rule="evenodd" clip-rule="evenodd" d="M505.122 388.8C505.123 388.8 505.123 388.8 505.124 388.8L509.494 388.945L509.467 389.753L505.094 389.608L505.091 389.608C502.323 389.496 499.585 390.214 497.228 391.669C494.871 393.125 493.003 395.251 491.864 397.776C491.863 397.776 491.864 397.776 491.864 397.776L480.803 422.304L480.066 421.972L491.127 397.444C492.333 394.772 494.31 392.522 496.804 390.981C499.297 389.442 502.194 388.682 505.122 388.8Z" fill="#959DA8"/>
<path d="M527.486 400.57H503.953L513.763 377.046H537.287L527.486 400.57Z" fill="#D3DCE5"/>
<path fill-rule="evenodd" clip-rule="evenodd" d="M531.66 422.221L526.742 399.25L527.533 399.081L532.45 422.052L531.66 422.221Z" fill="#959DA8"/>
<path fill-rule="evenodd" clip-rule="evenodd" d="M512.055 422.226L507.172 400.106L507.961 399.932L512.845 422.052L512.055 422.226Z" fill="#959DA8"/>
<path d="M528.13 397.304H490.883V400.571H528.13V397.304Z" fill="#D3DCE5"/>
<path fill-rule="evenodd" clip-rule="evenodd" d="M519.583 390.836C521.948 389.373 524.696 388.65 527.475 388.76L532.172 388.947L532.139 389.755L527.443 389.568C527.443 389.568 527.443 389.568 527.443 389.568C524.826 389.464 522.237 390.145 520.009 391.523C517.781 392.901 516.015 394.914 514.938 397.302L503.682 422.306L502.945 421.974L514.201 396.97C515.344 394.435 517.218 392.299 519.583 390.836Z" fill="#959DA8"/>
<path d="M740.172 241.347V288.566H732.039L732.048 241.347H740.172Z" fill="#F4F5F6"/>
<path fill-rule="evenodd" clip-rule="evenodd" d="M731.641 240.943H740.575V288.97H731.633L731.641 240.943ZM732.45 241.752L732.441 288.162H739.766V241.752H732.45Z" fill="#959DA8"/>
<path d="M731.665 241.347V288.566H723.531L723.54 241.347H731.665Z" fill="#F4F5F6"/>
<path fill-rule="evenodd" clip-rule="evenodd" d="M723.134 240.943H732.067V288.97H723.125L723.134 240.943ZM723.942 241.752L723.934 288.162H731.259V241.752H723.942Z" fill="#959DA8"/>
<path d="M748.679 241.347H740.367V288.566H748.679V241.347Z" fill="#F4F5F6"/>
<path fill-rule="evenodd" clip-rule="evenodd" d="M739.965 240.943H749.085V288.97H739.965V240.943ZM740.773 241.752V288.162H748.277V241.752H740.773Z" fill="#959DA8"/>
<path d="M757.187 241.347H748.875V288.566H757.187V241.347Z" fill="#F4F5F6"/>
<path fill-rule="evenodd" clip-rule="evenodd" d="M748.473 240.943H757.593V288.97H748.473V240.943ZM749.281 241.752V288.162H756.785V241.752H749.281Z" fill="#959DA8"/>
<path d="M765.695 241.347H757.383V288.566H765.695V241.347Z" fill="#F4F5F6"/>
<path fill-rule="evenodd" clip-rule="evenodd" d="M756.98 240.943H766.101V288.97H756.98V240.943ZM757.789 241.752V288.162H765.293V241.752H757.789Z" fill="#959DA8"/>
<path d="M774.203 241.347H765.891V288.566H774.203V241.347Z" fill="#F4F5F6"/>
<path fill-rule="evenodd" clip-rule="evenodd" d="M765.488 240.943H774.609V288.97H765.488V240.943ZM766.297 241.752V288.162H773.8V241.752H766.297Z" fill="#959DA8"/>
<path d="M782.711 241.347H774.398V288.566H782.711V241.347Z" fill="#F4F5F6"/>
<path fill-rule="evenodd" clip-rule="evenodd" d="M773.992 240.943H783.113V288.97H773.992V240.943ZM774.801 241.752V288.162H782.304V241.752H774.801Z" fill="#959DA8"/>
<path d="M791.218 241.347H782.906V288.566H791.218V241.347Z" fill="#F4F5F6"/>
<path fill-rule="evenodd" clip-rule="evenodd" d="M782.504 240.943H791.624V288.97H782.504V240.943ZM783.312 241.752V288.162H790.816V241.752H783.312Z" fill="#959DA8"/>
<path d="M799.726 241.347H791.414V288.566H799.726V241.347Z" fill="#F4F5F6"/>
<path fill-rule="evenodd" clip-rule="evenodd" d="M791.012 240.943H800.132V288.97H791.012V240.943ZM791.82 241.752V288.162H799.324V241.752H791.82Z" fill="#959DA8"/>
<path d="M808.234 241.347H799.922V288.566H808.234V241.347Z" fill="#F4F5F6"/>
<path fill-rule="evenodd" clip-rule="evenodd" d="M799.52 240.943H808.64V288.97H799.52V240.943ZM800.328 241.752V288.162H807.832V241.752H800.328Z" fill="#959DA8"/>
<path d="M816.742 241.347H808.43V288.566H816.742V241.347Z" fill="#F4F5F6"/>
<path fill-rule="evenodd" clip-rule="evenodd" d="M808.027 240.943H817.148V288.97H808.027V240.943ZM808.836 241.752V288.162H816.34V241.752H808.836Z" fill="#959DA8"/>
<path d="M714.648 241.347H706.336V288.566H714.648V241.347Z" fill="#F4F5F6"/>
<path fill-rule="evenodd" clip-rule="evenodd" d="M705.93 240.943H715.05V288.97H705.93V240.943ZM706.738 241.752V288.162H714.242V241.752H706.738Z" fill="#959DA8"/>
<path d="M723.156 241.347H714.844V288.566H723.156V241.347Z" fill="#F4F5F6"/>
<path fill-rule="evenodd" clip-rule="evenodd" d="M714.441 240.943H723.562V288.97H714.441V240.943ZM715.25 241.752V288.162H722.754V241.752H715.25Z" fill="#959DA8"/>
<path fill-rule="evenodd" clip-rule="evenodd" d="M701.59 240.964H817.212V289.374H701.59V240.964ZM703.207 242.581V287.757H815.595V242.581H703.207Z" fill="#959DA8"/>
<path d="M891.208 261.946L842.961 249.019L836.185 274.306L884.432 287.233L891.208 261.946Z" fill="white"/>
<path d="M891.187 261.84L842.98 248.923L842.444 250.923L890.651 263.84L891.187 261.84Z" fill="#B22234"/>
<path d="M890.148 265.753L841.941 252.836L841.405 254.836L889.612 267.753L890.148 265.753Z" fill="#B22234"/>
<path d="M889.101 269.666L840.895 256.749L840.359 258.749L888.565 271.666L889.101 269.666Z" fill="#B22234"/>
<path d="M888.05 273.578L839.844 260.661L839.308 262.661L887.514 275.578L888.05 273.578Z" fill="#B22234"/>
<path d="M886.999 277.491L838.793 264.574L838.257 266.574L886.463 279.491L886.999 277.491Z" fill="#B22234"/>
<path d="M885.949 281.402L837.742 268.485L837.206 270.486L885.413 283.403L885.949 281.402Z" fill="#B22234"/>
<path d="M884.898 285.316L836.691 272.399L836.155 274.4L884.362 287.317L884.898 285.316Z" fill="#B22234"/>
<path d="M862.238 254.082L842.984 248.923L839.303 262.662L858.556 267.821L862.238 254.082Z" fill="#2A3A51"/>
<path d="M844.486 249.888L844.516 250.497L845.099 250.653L844.534 250.873L844.564 251.482L844.185 251.009L843.621 251.23L843.951 250.717L843.572 250.244L844.155 250.4L844.486 249.888Z" fill="white"/>
<path d="M845.689 251.721L845.719 252.33L846.302 252.487L845.737 252.707L845.767 253.316L845.388 252.843L844.824 253.063L845.154 252.551L844.775 252.078L845.359 252.234L845.689 251.721Z" fill="white"/>
<path d="M844.951 254.476L844.981 255.085L845.564 255.241L844.999 255.461L845.029 256.07L844.65 255.597L844.086 255.817L844.416 255.305L844.037 254.832L844.62 254.988L844.951 254.476Z" fill="white"/>
<path d="M844.212 257.232L844.242 257.841L844.825 257.997L844.261 258.217L844.291 258.826L843.912 258.354L843.347 258.574L843.678 258.061L843.299 257.588L843.882 257.744L844.212 257.232Z" fill="white"/>
<path d="M843.478 259.986L843.508 260.595L844.091 260.751L843.527 260.971L843.556 261.58L843.178 261.107L842.613 261.328L842.944 260.815L842.565 260.342L843.148 260.498L843.478 259.986Z" fill="white"/>
<path d="M848.908 252.583L848.938 253.193L849.521 253.349L848.956 253.569L848.986 254.178L848.607 253.705L848.043 253.925L848.373 253.413L847.994 252.94L848.577 253.096L848.908 252.583Z" fill="white"/>
<path d="M848.173 255.338L848.203 255.947L848.786 256.103L848.222 256.323L848.252 256.932L847.873 256.46L847.308 256.68L847.639 256.167L847.26 255.694L847.843 255.85L848.173 255.338Z" fill="white"/>
<path d="M847.427 258.092L847.457 258.701L848.04 258.857L847.476 259.078L847.506 259.687L847.127 259.214L846.562 259.434L846.893 258.922L846.514 258.448L847.097 258.605L847.427 258.092Z" fill="white"/>
<path d="M846.693 260.846L846.723 261.455L847.306 261.611L846.741 261.832L846.771 262.441L846.392 261.968L845.828 262.188L846.158 261.675L845.779 261.202L846.363 261.359L846.693 260.846Z" fill="white"/>
<path d="M852.123 253.445L852.152 254.054L852.736 254.211L852.171 254.431L852.201 255.04L851.822 254.567L851.258 254.787L851.588 254.275L851.209 253.802L851.792 253.958L852.123 253.445Z" fill="white"/>
<path d="M851.384 256.2L851.414 256.809L851.997 256.965L851.433 257.185L851.463 257.794L851.084 257.321L850.519 257.541L850.85 257.029L850.471 256.556L851.054 256.712L851.384 256.2Z" fill="white"/>
<path d="M850.646 258.955L850.676 259.564L851.259 259.72L850.695 259.94L850.724 260.549L850.345 260.076L849.781 260.296L850.111 259.784L849.733 259.311L850.316 259.467L850.646 258.955Z" fill="white"/>
<path d="M849.908 261.71L849.938 262.319L850.521 262.475L849.956 262.695L849.986 263.304L849.607 262.832L849.043 263.052L849.373 262.539L848.994 262.066L849.577 262.222L849.908 261.71Z" fill="white"/>
<path d="M855.337 254.308L855.368 254.917L855.951 255.073L855.386 255.293L855.416 255.902L855.037 255.429L854.472 255.65L854.803 255.137L854.424 254.664L855.007 254.82L855.337 254.308Z" fill="white"/>
<path d="M854.607 257.062L854.637 257.671L855.22 257.827L854.656 258.048L854.685 258.657L854.306 258.184L853.742 258.404L854.072 257.891L853.694 257.418L854.277 257.574L854.607 257.062Z" fill="white"/>
<path d="M853.865 259.816L853.895 260.425L854.478 260.582L853.913 260.802L853.943 261.411L853.564 260.938L853 261.158L853.33 260.646L852.951 260.173L853.534 260.329L853.865 259.816Z" fill="white"/>
<path d="M853.127 262.57L853.157 263.179L853.74 263.336L853.175 263.556L853.205 264.165L852.826 263.692L852.262 263.912L852.592 263.4L852.213 262.926L852.796 263.083L853.127 262.57Z" fill="white"/>
<path d="M858.56 255.169L858.59 255.779L859.173 255.935L858.608 256.155L858.638 256.764L858.259 256.291L857.695 256.511L858.025 255.999L857.647 255.526L858.23 255.682L858.56 255.169Z" fill="white"/>
<path d="M857.822 257.924L857.852 258.533L858.435 258.689L857.87 258.91L857.9 259.519L857.521 259.046L856.957 259.266L857.287 258.754L856.908 258.28L857.491 258.437L857.822 257.924Z" fill="white"/>
<path d="M857.079 260.679L857.11 261.288L857.692 261.444L857.128 261.664L857.158 262.273L856.779 261.8L856.214 262.02L856.545 261.508L856.166 261.035L856.749 261.191L857.079 260.679Z" fill="white"/>
<path d="M856.341 263.434L856.371 264.043L856.954 264.199L856.39 264.42L856.42 265.029L856.041 264.556L855.476 264.776L855.807 264.263L855.428 263.79L856.011 263.946L856.341 263.434Z" fill="white"/>
<path d="M843.748 252.642L843.778 253.251L844.361 253.407L843.796 253.627L843.826 254.236L843.447 253.763L842.883 253.983L843.213 253.471L842.834 252.998L843.417 253.154L843.748 252.642Z" fill="white"/>
<path d="M843.005 255.396L843.035 256.005L843.618 256.161L843.054 256.381L843.084 256.991L842.705 256.517L842.14 256.738L842.471 256.225L842.092 255.752L842.675 255.908L843.005 255.396Z" fill="white"/>
<path d="M842.267 258.15L842.297 258.759L842.88 258.916L842.315 259.136L842.346 259.745L841.967 259.272L841.402 259.492L841.733 258.98L841.354 258.507L841.937 258.663L842.267 258.15Z" fill="white"/>
<path d="M841.533 260.904L841.563 261.513L842.146 261.669L841.581 261.89L841.611 262.499L841.232 262.026L840.668 262.246L840.998 261.734L840.619 261.26L841.202 261.417L841.533 260.904Z" fill="white"/>
<path d="M847.65 250.737L847.68 251.346L848.263 251.503L847.698 251.723L847.728 252.332L847.349 251.859L846.785 252.079L847.115 251.567L846.736 251.094L847.32 251.25L847.65 250.737Z" fill="white"/>
<path d="M846.916 253.492L846.945 254.101L847.529 254.257L846.964 254.477L846.994 255.087L846.615 254.614L846.051 254.834L846.381 254.321L846.002 253.848L846.585 254.005L846.916 253.492Z" fill="white"/>
<path d="M846.177 256.247L846.207 256.855L846.79 257.012L846.226 257.232L846.256 257.841L845.877 257.368L845.312 257.588L845.643 257.076L845.264 256.603L845.847 256.759L846.177 256.247Z" fill="white"/>
<path d="M845.435 259L845.465 259.609L846.048 259.766L845.484 259.986L845.514 260.595L845.135 260.122L844.57 260.342L844.901 259.83L844.522 259.357L845.105 259.513L845.435 259Z" fill="white"/>
<path d="M844.709 261.755L844.738 262.364L845.322 262.52L844.757 262.74L844.787 263.349L844.408 262.877L843.844 263.097L844.174 262.584L843.795 262.111L844.378 262.267L844.709 261.755Z" fill="white"/>
<path d="M850.916 251.612L850.945 252.221L851.529 252.377L850.964 252.597L850.994 253.207L850.615 252.733L850.051 252.954L850.381 252.441L850.002 251.968L850.585 252.124L850.916 251.612Z" fill="white"/>
<path d="M850.177 254.366L850.207 254.975L850.79 255.131L850.226 255.351L850.256 255.96L849.877 255.487L849.312 255.707L849.643 255.195L849.264 254.722L849.847 254.878L850.177 254.366Z" fill="white"/>
<path d="M849.443 257.12L849.473 257.729L850.056 257.885L849.491 258.106L849.521 258.715L849.142 258.241L848.578 258.462L848.908 257.949L848.529 257.476L849.113 257.632L849.443 257.12Z" fill="white"/>
<path d="M848.705 259.875L848.735 260.484L849.318 260.64L848.753 260.861L848.783 261.47L848.404 260.997L847.84 261.217L848.17 260.704L847.791 260.231L848.374 260.387L848.705 259.875Z" fill="white"/>
<path d="M847.962 262.629L847.992 263.238L848.575 263.394L848.011 263.614L848.041 264.223L847.662 263.751L847.097 263.971L847.428 263.458L847.049 262.985L847.632 263.141L847.962 262.629Z" fill="white"/>
<path d="M854.107 252.467L854.137 253.076L854.72 253.232L854.155 253.452L854.185 254.061L853.806 253.588L853.242 253.809L853.572 253.296L853.193 252.823L853.777 252.979L854.107 252.467Z" fill="white"/>
<path d="M853.373 255.221L853.403 255.83L853.986 255.986L853.421 256.206L853.451 256.816L853.072 256.343L852.507 256.563L852.838 256.05L852.459 255.577L853.042 255.734L853.373 255.221Z" fill="white"/>
<path d="M852.638 257.975L852.668 258.584L853.251 258.74L852.687 258.961L852.716 259.57L852.338 259.096L851.773 259.317L852.103 258.804L851.725 258.331L852.308 258.487L852.638 257.975Z" fill="white"/>
<path d="M851.9 260.731L851.93 261.34L852.513 261.497L851.948 261.717L851.978 262.326L851.599 261.853L851.035 262.073L851.365 261.561L850.986 261.088L851.57 261.244L851.9 260.731Z" fill="white"/>
<path d="M851.154 263.486L851.184 264.095L851.767 264.251L851.202 264.471L851.232 265.08L850.853 264.607L850.289 264.828L850.619 264.315L850.24 263.842L850.823 263.998L851.154 263.486Z" fill="white"/>
<path d="M857.306 253.323L857.336 253.932L857.919 254.089L857.354 254.309L857.384 254.918L857.006 254.445L856.441 254.665L856.771 254.152L856.393 253.68L856.976 253.836L857.306 253.323Z" fill="white"/>
<path d="M856.568 256.078L856.598 256.687L857.181 256.843L856.616 257.063L856.646 257.673L856.267 257.199L855.703 257.42L856.033 256.907L855.654 256.434L856.237 256.59L856.568 256.078Z" fill="white"/>
<path d="M855.83 258.831L855.86 259.44L856.443 259.597L855.878 259.817L855.908 260.426L855.529 259.953L854.964 260.173L855.295 259.661L854.916 259.188L855.499 259.344L855.83 258.831Z" fill="white"/>
<path d="M855.084 261.587L855.113 262.196L855.697 262.352L855.132 262.572L855.162 263.181L854.783 262.709L854.218 262.929L854.549 262.416L854.17 261.943L854.753 262.099L855.084 261.587Z" fill="white"/>
<path d="M854.353 264.34L854.383 264.949L854.966 265.105L854.401 265.326L854.431 265.935L854.053 265.462L853.488 265.682L853.818 265.17L853.44 264.696L854.022 264.853L854.353 264.34Z" fill="white"/>
<path d="M860.572 254.198L860.602 254.807L861.185 254.964L860.62 255.184L860.65 255.793L860.271 255.32L859.707 255.54L860.037 255.028L859.658 254.555L860.241 254.711L860.572 254.198Z" fill="white"/>
<path d="M859.834 256.952L859.864 257.561L860.447 257.717L859.882 257.937L859.912 258.547L859.533 258.074L858.969 258.294L859.299 257.781L858.92 257.308L859.503 257.465L859.834 256.952Z" fill="white"/>
<path d="M859.087 259.706L859.118 260.316L859.701 260.472L859.136 260.692L859.166 261.301L858.787 260.828L858.222 261.048L858.553 260.536L858.174 260.063L858.757 260.219L859.087 259.706Z" fill="white"/>
<path d="M858.353 262.461L858.383 263.07L858.966 263.226L858.402 263.446L858.431 264.055L858.053 263.583L857.488 263.803L857.819 263.29L857.44 262.817L858.023 262.973L858.353 262.461Z" fill="white"/>
<path d="M857.619 265.214L857.649 265.823L858.232 265.98L857.667 266.2L857.697 266.809L857.318 266.336L856.754 266.556L857.084 266.044L856.705 265.571L857.288 265.727L857.619 265.214Z" fill="white"/>
<path fill-rule="evenodd" clip-rule="evenodd" d="M842.688 248.412L891.301 261.438L884.373 287.297L836.566 274.487L832.805 288.52L831.998 288.304L842.688 248.412ZM836.782 273.68L883.782 286.274L890.278 262.029L843.278 249.435L836.782 273.68Z" fill="#959DA8"/>
<path fill-rule="evenodd" clip-rule="evenodd" d="M816.388 57.4882C816.831 57.5432 817.146 57.947 817.091 58.39L805.29 153.389C805.235 153.832 804.832 154.146 804.389 154.091C803.945 154.036 803.631 153.632 803.686 153.189L815.486 58.1908C815.541 57.7477 815.945 57.4331 816.388 57.4882Z" fill="#959DA8"/>
<path d="M856.314 88.3773C849.336 89.2467 842.307 89.6503 835.275 89.5854L833.275 86.6502L831.888 89.4833C824.374 89.2719 816.881 88.5843 809.453 87.4244C807.406 87.1068 805.381 86.758 803.379 86.378L801.413 85.9866C799.241 85.5499 797.094 85.0763 794.973 84.5658L793.875 84.2935L792.497 83.9447L791.902 83.7916L791.374 80.0907L787.971 82.7281L788.396 82.8472L787.971 82.7281L787.537 82.6005L787.103 82.4814C785.748 82.09 784.403 81.6816 783.071 81.2562L780.518 80.4055C779.633 80.1105 778.751 79.8071 777.872 79.4951L776.596 79.0357L776.06 78.84L774.724 78.3466L774.078 78.0998L772.827 77.6149L770.453 76.662H770.36L769.143 76.1515C768.369 75.8282 767.595 75.4879 766.829 75.1561C766.541 75.0232 766.292 74.8174 766.107 74.5591C765.922 74.3007 765.808 73.9987 765.775 73.6828C765.743 73.3669 765.793 73.0479 765.921 72.7572C766.049 72.4666 766.251 72.2143 766.506 72.0252C768.635 70.4734 770.857 69.0528 773.159 67.7713L773.746 67.448C774.88 66.8241 776.04 66.2342 777.226 65.6784L778.655 65.0318C781.05 63.9756 783.508 63.0664 786.014 62.3093L786.771 62.0881C789.323 61.3609 791.917 60.7926 794.539 60.3865L796.045 60.1653C796.836 60.0547 797.636 59.9611 798.436 59.8846C798.972 59.8335 799.508 59.7825 800.044 59.7484L800.852 59.6974H801.422C802.318 59.6463 803.22 59.618 804.127 59.6123H805.718C806.373 59.6123 807.029 59.6123 807.684 59.6719L808.637 59.7229H809.028L810.5 59.8335C811.94 59.964 813.387 60.1398 814.839 60.361C823.259 61.6476 831.344 64.5814 838.63 68.9944C845.916 73.4075 852.261 79.2134 857.301 86.0802C857.45 86.2842 857.542 86.5231 857.57 86.7736C857.598 87.0242 857.56 87.2776 857.461 87.5092C857.361 87.7409 857.203 87.9426 857.002 88.0948C856.801 88.247 856.564 88.3443 856.314 88.3773Z" fill="#D3DCE5"/>
<path fill-rule="evenodd" clip-rule="evenodd" d="M791.377 87.0381L791.811 87.0891L791.746 87.6351L791.312 87.584L791.377 87.0381Z" fill="#959DA8"/>
<path fill-rule="evenodd" clip-rule="evenodd" d="M791.72 80.2187L791.371 80.0135C791.023 79.8083 791.023 79.8082 791.023 79.808L791.024 79.8072L791.026 79.8044L791.032 79.7941L791.055 79.7546C791.076 79.72 791.107 79.6691 791.147 79.6029C791.228 79.4705 791.348 79.2768 791.505 79.0301C791.819 78.5366 792.282 77.8309 792.878 76.9784C794.068 75.2741 795.793 72.9803 797.929 70.6238C802.186 65.928 808.139 60.9099 814.801 59.9097L814.921 60.7091C808.55 61.6657 802.758 66.4997 798.528 71.1667C796.421 73.4916 794.717 75.757 793.54 77.4414C792.952 78.2833 792.496 78.9794 792.187 79.4642C792.033 79.7066 791.915 79.8961 791.837 80.0246C791.798 80.0888 791.768 80.1378 791.748 80.1705L791.727 80.2072L791.721 80.2161L791.72 80.2182L791.72 80.2187Z" fill="#959DA8"/>
<path fill-rule="evenodd" clip-rule="evenodd" d="M833.742 86.4375C833.742 86.4378 833.742 86.438 833.348 86.5278L832.954 86.6175L832.953 86.6147L832.951 86.6045L832.941 86.5629C832.932 86.5258 832.919 86.4701 832.901 86.397C832.865 86.2507 832.811 86.0345 832.737 85.7566C832.59 85.201 832.367 84.3993 832.062 83.4184C831.451 81.4561 830.515 78.7804 829.212 75.9257C826.596 70.1954 822.543 63.8333 816.758 60.9927L817.114 60.2671C823.163 63.2374 827.316 69.8242 829.947 75.5901C831.268 78.4835 832.216 81.1927 832.833 83.1783C833.142 84.1714 833.369 84.9844 833.519 85.5499C833.593 85.8327 833.649 86.0537 833.686 86.2045C833.704 86.2799 833.718 86.3378 833.727 86.377L833.738 86.4218L833.741 86.4335L833.742 86.4375Z" fill="#959DA8"/>
<path d="M760.59 110.327V157.546H752.457L752.466 110.327H760.59Z" fill="#F4F5F6"/>
<path fill-rule="evenodd" clip-rule="evenodd" d="M752.059 109.923H760.993V157.95H752.051L752.059 109.923ZM752.868 110.732L752.859 157.142H760.184V110.732H752.868Z" fill="#959DA8"/>
<path d="M752.083 110.327V157.546H743.949L743.958 110.327H752.083Z" fill="#F4F5F6"/>
<path fill-rule="evenodd" clip-rule="evenodd" d="M743.552 109.923H752.485V157.95H743.543L743.552 109.923ZM744.36 110.732L744.351 157.142H751.676V110.732H744.36Z" fill="#959DA8"/>
<path d="M769.101 110.327H760.789V157.546H769.101V110.327Z" fill="#F4F5F6"/>
<path fill-rule="evenodd" clip-rule="evenodd" d="M760.383 109.923H769.503V157.95H760.383V109.923ZM761.191 110.732V157.142H768.695V110.732H761.191Z" fill="#959DA8"/>
<path d="M777.605 110.327H769.293V157.546H777.605V110.327Z" fill="#F4F5F6"/>
<path fill-rule="evenodd" clip-rule="evenodd" d="M768.891 109.923H778.011V157.95H768.891V109.923ZM769.699 110.732V157.142H777.203V110.732H769.699Z" fill="#959DA8"/>
<path d="M786.117 110.327H777.805V157.546H786.117V110.327Z" fill="#F4F5F6"/>
<path fill-rule="evenodd" clip-rule="evenodd" d="M777.398 109.923H786.519V157.95H777.398V109.923ZM778.207 110.732V157.142H785.711V110.732H778.207Z" fill="#959DA8"/>
<path d="M718.903 110.327V157.546H710.77L710.778 110.327H718.903Z" fill="#F4F5F6"/>
<path fill-rule="evenodd" clip-rule="evenodd" d="M710.372 109.923H719.305V157.95H710.363L710.372 109.923ZM711.18 110.732L711.172 157.142H718.497V110.732H711.18Z" fill="#959DA8"/>
<path d="M710.391 110.327V157.546H702.258L702.266 110.327H710.391Z" fill="#F4F5F6"/>
<path fill-rule="evenodd" clip-rule="evenodd" d="M701.864 109.923H710.797V157.95H701.855L701.864 109.923ZM702.672 110.732L702.664 157.142H709.989V110.732H702.672Z" fill="#959DA8"/>
<path d="M701.887 110.327V157.546H693.754L693.762 110.327H701.887Z" fill="#F4F5F6"/>
<path fill-rule="evenodd" clip-rule="evenodd" d="M693.356 109.923H702.29V157.95H693.348L693.356 109.923ZM694.165 110.732L694.156 157.142H701.481V110.732H694.165Z" fill="#959DA8"/>
<path d="M693.38 110.327V157.546H685.246L685.255 110.327H693.38Z" fill="#F4F5F6"/>
<path fill-rule="evenodd" clip-rule="evenodd" d="M684.849 109.923H693.782V157.95H684.84L684.849 109.923ZM685.657 110.732L685.648 157.142H692.973V110.732H685.657Z" fill="#959DA8"/>
<path d="M727.41 110.327H719.098V157.546H727.41V110.327Z" fill="#F4F5F6"/>
<path fill-rule="evenodd" clip-rule="evenodd" d="M718.691 109.923H727.812V157.95H718.691V109.923ZM719.5 110.732V157.142H727.003V110.732H719.5Z" fill="#959DA8"/>
<path d="M735.918 110.327H727.605V157.546H735.918V110.327Z" fill="#F4F5F6"/>
<path fill-rule="evenodd" clip-rule="evenodd" d="M727.203 109.923H736.324V157.95H727.203V109.923ZM728.012 110.732V157.142H735.515V110.732H728.012Z" fill="#959DA8"/>
<path d="M744.425 110.327H736.113V157.546H744.425V110.327Z" fill="#F4F5F6"/>
<path fill-rule="evenodd" clip-rule="evenodd" d="M735.711 109.923H744.831V157.95H735.711V109.923ZM736.519 110.732V157.142H744.023V110.732H736.519Z" fill="#959DA8"/>
<path d="M794.621 110.327H786.309V157.546H794.621V110.327Z" fill="#F4F5F6"/>
<path fill-rule="evenodd" clip-rule="evenodd" d="M785.906 109.923H795.027V157.95H785.906V109.923ZM786.715 110.732V157.142H794.218V110.732H786.715Z" fill="#959DA8"/>
<path d="M803.129 110.327H794.816V157.546H803.129V110.327Z" fill="#F4F5F6"/>
<path fill-rule="evenodd" clip-rule="evenodd" d="M794.414 109.923H803.535V157.95H794.414V109.923ZM795.222 110.732V157.142H802.726V110.732H795.222Z" fill="#959DA8"/>
<path d="M811.636 110.327H803.324V157.546H811.636V110.327Z" fill="#F4F5F6"/>
<path fill-rule="evenodd" clip-rule="evenodd" d="M802.922 109.923H812.042V157.95H802.922V109.923ZM803.73 110.732V157.142H811.234V110.732H803.73Z" fill="#959DA8"/>
<path d="M820.144 110.327H811.832V157.546H820.144V110.327Z" fill="#F4F5F6"/>
<path fill-rule="evenodd" clip-rule="evenodd" d="M811.43 109.923H820.55V157.95H811.43V109.923ZM812.238 110.732V157.142H819.742V110.732H812.238Z" fill="#959DA8"/>
<path d="M828.652 110.327H820.34V157.546H828.652V110.327Z" fill="#F4F5F6"/>
<path fill-rule="evenodd" clip-rule="evenodd" d="M819.938 109.923H829.058V157.95H819.938V109.923ZM820.746 110.732V157.142H828.25V110.732H820.746Z" fill="#959DA8"/>
<path d="M837.16 110.327H828.848V157.546H837.16V110.327Z" fill="#F4F5F6"/>
<path fill-rule="evenodd" clip-rule="evenodd" d="M828.445 109.923H837.566V157.95H828.445V109.923ZM829.254 110.732V157.142H836.757V110.732H829.254Z" fill="#959DA8"/>
<path fill-rule="evenodd" clip-rule="evenodd" d="M684.574 109.942H837.63V158.352H684.574V109.942ZM686.191 111.559V156.735H836.014V111.559H686.191Z" fill="#959DA8"/>
<path d="M205.812 323.447H169.355V407.36H205.812V323.447Z" fill="#D3DCE5"/>
<path d="M200.645 329.404H174.5V370.905H200.645V329.404Z" fill="white"/>
<path fill-rule="evenodd" clip-rule="evenodd" d="M174.078 328.979H201.071V371.33H174.078V328.979ZM174.927 329.828V370.481H200.223V329.828H174.927Z" fill="#959DA8"/>
<path d="M176.19 377.471C177.13 377.471 177.891 376.709 177.891 375.769C177.891 374.829 177.13 374.067 176.19 374.067C175.25 374.067 174.488 374.829 174.488 375.769C174.488 376.709 175.25 377.471 176.19 377.471Z" fill="white"/>
<path fill-rule="evenodd" clip-rule="evenodd" d="M176.188 374.471C175.471 374.471 174.89 375.052 174.89 375.769C174.89 376.485 175.471 377.066 176.188 377.066C176.904 377.066 177.485 376.485 177.485 375.769C177.485 375.052 176.904 374.471 176.188 374.471ZM174.082 375.769C174.082 374.606 175.025 373.663 176.188 373.663C177.351 373.663 178.294 374.606 178.294 375.769C178.294 376.932 177.351 377.875 176.188 377.875C175.025 377.875 174.082 376.932 174.082 375.769Z" fill="#959DA8"/>
<path d="M133.613 323.447H170.069V407.36H133.613V323.447Z" fill="#D3DCE5"/>
<path d="M138.777 370.902H164.922V329.401H138.777V370.902Z" fill="white"/>
<path fill-rule="evenodd" clip-rule="evenodd" d="M165.344 371.326H138.35V328.976H165.344V371.326ZM164.495 370.477V329.825H139.199V370.477H164.495Z" fill="#959DA8"/>
<path d="M163.237 377.471C164.176 377.471 164.938 376.709 164.938 375.769C164.938 374.829 164.176 374.067 163.237 374.067C162.297 374.067 161.535 374.829 161.535 375.769C161.535 376.709 162.297 377.471 163.237 377.471Z" fill="white"/>
<path fill-rule="evenodd" clip-rule="evenodd" d="M163.239 374.471C162.522 374.471 161.941 375.052 161.941 375.769C161.941 376.485 162.522 377.066 163.239 377.066C163.955 377.066 164.536 376.485 164.536 375.769C164.536 375.052 163.955 374.471 163.239 374.471ZM161.133 375.769C161.133 374.606 162.076 373.663 163.239 373.663C164.402 373.663 165.344 374.606 165.344 375.769C165.344 376.932 164.402 377.875 163.239 377.875C162.076 377.875 161.133 376.932 161.133 375.769Z" fill="#959DA8"/>
<path d="M220.852 413.094H120.715V421.406H220.852V413.094Z" fill="#D3DCE5"/>
<path fill-rule="evenodd" clip-rule="evenodd" d="M120.125 412.504H221.442V421.997H120.125V412.504ZM121.305 413.685V420.817H220.262V413.685H121.305Z" fill="#959DA8"/>
<path d="M220.852 404.798H120.715V413.11H220.852V404.798Z" fill="#D3DCE5"/>
<path fill-rule="evenodd" clip-rule="evenodd" d="M120.125 404.208H221.442V413.7H120.125V404.208ZM121.305 405.388V412.52H220.262V405.388H121.305Z" fill="#959DA8"/>
</svg>
