<svg width="856" height="422" viewBox="0 0 856 422" fill="none" xmlns="http://www.w3.org/2000/svg">
<path d="M725.147 124.455C724.862 124.455 724.577 124.424 724.299 124.362C711.299 121.401 711.3 105.695 711.3 105.695C711.201 96.7379 713.845 87.965 718.877 80.554C719.58 79.544 720.517 78.7191 721.608 78.1494C722.699 77.5797 723.912 77.2822 725.143 77.2822C726.374 77.2822 727.586 77.5797 728.677 78.1494C729.768 78.7191 730.706 79.544 731.409 80.554C736.444 87.9641 739.09 96.737 738.995 105.695C738.995 105.695 738.995 121.46 725.996 124.362C725.717 124.424 725.432 124.455 725.147 124.455Z" fill="#80C33F"/>
<path fill-rule="evenodd" clip-rule="evenodd" d="M725.147 94.2002C725.381 94.2002 725.571 94.3901 725.571 94.6244V148.165C725.571 148.399 725.381 148.589 725.147 148.589C724.913 148.589 724.723 148.399 724.723 148.165V94.6244C724.723 94.3901 724.913 94.2002 725.147 94.2002Z" fill="#2A3A51"/>
<path d="M102.203 124.289C102.195 122.4 102.643 120.538 103.507 118.858C104.371 117.179 105.627 115.733 107.169 114.642C108.71 113.551 110.492 112.847 112.363 112.59C114.234 112.333 116.139 112.53 117.917 113.165C118.605 110.397 119.997 107.854 121.959 105.784C123.92 103.714 126.384 102.186 129.111 101.351C131.838 100.516 134.735 100.4 137.519 101.016C140.304 101.632 142.882 102.959 145.002 104.866C146.499 100.679 149.426 97.1544 153.267 94.9131C157.108 92.6719 161.617 91.8577 165.999 92.6141C170.381 93.3705 174.356 95.649 177.223 99.0481C180.091 102.447 181.667 106.749 181.674 111.196C181.676 111.854 181.642 112.511 181.572 113.165C182.845 112.698 182.259 126.393 181.962 127.428H102.627C102.343 126.397 102.2 125.333 102.203 124.263V124.289Z" fill="#80C33F"/>
<path d="M167.03 110.033V157.125H158.918L158.926 110.033H167.03Z" fill="#F4F5F6"/>
<path fill-rule="evenodd" clip-rule="evenodd" d="M158.501 109.609H167.452V157.549H158.492L158.501 109.609ZM159.349 110.457L159.341 156.701H166.604V110.457H159.349Z" fill="#959DA8"/>
<path d="M158.541 110.033V157.125H150.43L150.438 110.033H158.541Z" fill="#F4F5F6"/>
<path fill-rule="evenodd" clip-rule="evenodd" d="M150.016 109.609H158.968V157.549H150.008L150.016 109.609ZM150.865 110.457L150.856 156.701H158.12V110.457H150.865Z" fill="#959DA8"/>
<path d="M175.516 110.033H167.227V157.125H175.516V110.033Z" fill="#F4F5F6"/>
<path fill-rule="evenodd" clip-rule="evenodd" d="M166.801 109.609H175.939V157.549H166.801V109.609ZM167.649 110.457V156.701H175.091V110.457H167.649Z" fill="#959DA8"/>
<path d="M183.997 110.033H175.707V157.125H183.997V110.033Z" fill="#F4F5F6"/>
<path fill-rule="evenodd" clip-rule="evenodd" d="M175.281 109.609H184.42V157.549H175.281V109.609ZM176.13 110.457V156.701H183.571V110.457H176.13Z" fill="#959DA8"/>
<path d="M192.485 110.033H184.195V157.125H192.485V110.033Z" fill="#F4F5F6"/>
<path fill-rule="evenodd" clip-rule="evenodd" d="M183.77 109.609H192.908V157.549H183.77V109.609ZM184.618 110.457V156.701H192.059V110.457H184.618Z" fill="#959DA8"/>
<path d="M125.452 110.033V157.125H117.34L117.348 110.033H125.452Z" fill="#F4F5F6"/>
<path fill-rule="evenodd" clip-rule="evenodd" d="M116.927 109.609H125.878V157.549H116.918L116.927 109.609ZM117.775 110.457L117.767 156.701H125.03V110.457H117.775Z" fill="#959DA8"/>
<path d="M116.967 110.033V157.125H108.855L108.864 110.033H116.967Z" fill="#F4F5F6"/>
<path fill-rule="evenodd" clip-rule="evenodd" d="M108.438 109.609H117.39V157.549H108.43L108.438 109.609ZM109.287 110.457L109.278 156.701H116.541V110.457H109.287Z" fill="#959DA8"/>
<path d="M108.483 110.033V157.125H100.371L100.38 110.033H108.483Z" fill="#F4F5F6"/>
<path fill-rule="evenodd" clip-rule="evenodd" d="M99.954 109.609H108.906V157.549H99.9453L99.954 109.609ZM100.802 110.457L100.794 156.701H108.057V110.457H100.802Z" fill="#959DA8"/>
<path d="M99.9984 110.033V157.125H91.8867L91.8952 110.033H99.9984Z" fill="#F4F5F6"/>
<path fill-rule="evenodd" clip-rule="evenodd" d="M91.4696 109.609H100.421V157.549H91.4609L91.4696 109.609ZM92.3179 110.457L92.3096 156.701H99.5727V110.457H92.3179Z" fill="#959DA8"/>
<path d="M133.934 110.033H125.645V157.125H133.934V110.033Z" fill="#F4F5F6"/>
<path fill-rule="evenodd" clip-rule="evenodd" d="M125.223 109.609H134.361V157.549H125.223V109.609ZM126.071 110.457V156.701H133.513V110.457H126.071Z" fill="#959DA8"/>
<path d="M142.423 110.033H134.133V157.125H142.423V110.033Z" fill="#F4F5F6"/>
<path fill-rule="evenodd" clip-rule="evenodd" d="M133.707 109.609H142.845V157.549H133.707V109.609ZM134.556 110.457V156.701H141.997V110.457H134.556Z" fill="#959DA8"/>
<path d="M150.903 110.033H142.613V157.125H150.903V110.033Z" fill="#F4F5F6"/>
<path fill-rule="evenodd" clip-rule="evenodd" d="M142.191 109.609H151.33V157.549H142.191V109.609ZM143.04 110.457V156.701H150.481V110.457H143.04Z" fill="#959DA8"/>
<path d="M200.97 110.033H192.68V157.125H200.97V110.033Z" fill="#F4F5F6"/>
<path fill-rule="evenodd" clip-rule="evenodd" d="M192.254 109.609H201.392V157.549H192.254V109.609ZM193.102 110.457V156.701H200.544V110.457H193.102Z" fill="#959DA8"/>
<path d="M209.454 110.033H201.164V157.125H209.454V110.033Z" fill="#F4F5F6"/>
<path fill-rule="evenodd" clip-rule="evenodd" d="M200.742 109.609H209.881V157.549H200.742V109.609ZM201.591 110.457V156.701H209.032V110.457H201.591Z" fill="#959DA8"/>
<path d="M217.938 110.033H209.648V157.125H217.938V110.033Z" fill="#F4F5F6"/>
<path fill-rule="evenodd" clip-rule="evenodd" d="M209.223 109.609H218.361V157.549H209.223V109.609ZM210.071 110.457V156.701H217.513V110.457H210.071Z" fill="#959DA8"/>
<path d="M226.423 110.033H218.133V157.125H226.423V110.033Z" fill="#F4F5F6"/>
<path fill-rule="evenodd" clip-rule="evenodd" d="M217.711 109.609H226.849V157.549H217.711V109.609ZM218.559 110.457V156.701H226.001V110.457H218.559Z" fill="#959DA8"/>
<path d="M234.911 110.033H226.621V157.125H234.911V110.033Z" fill="#F4F5F6"/>
<path fill-rule="evenodd" clip-rule="evenodd" d="M226.195 109.609H235.334V157.549H226.195V109.609ZM227.044 110.457V156.701H234.485V110.457H227.044Z" fill="#959DA8"/>
<path d="M243.391 110.033H235.102V157.125H243.391V110.033Z" fill="#F4F5F6"/>
<path fill-rule="evenodd" clip-rule="evenodd" d="M234.68 109.609H243.818V157.549H234.68V109.609ZM235.528 110.457V156.701H242.97V110.457H235.528Z" fill="#959DA8"/>
<path fill-rule="evenodd" clip-rule="evenodd" d="M91.1719 109.607H243.902V157.972H91.1719V109.607ZM92.8689 111.304V156.275H242.205V111.304H92.8689Z" fill="#959DA8"/>
<path d="M0.382912 417.018C0.375156 415.13 0.822347 413.267 1.68663 411.588C2.55092 409.909 3.80685 408.462 5.34828 407.371C6.8897 406.28 8.67127 405.576 10.5422 405.319C12.4132 405.062 14.3186 405.259 16.0972 405.894C16.7845 403.126 18.1767 400.584 20.1383 398.513C22.0999 396.443 24.564 394.916 27.2908 394.08C30.0176 393.245 32.9143 393.13 35.699 393.746C38.4836 394.362 41.0613 395.688 43.1812 397.596C44.6787 393.409 47.6057 389.884 51.4467 387.643C55.2876 385.401 59.7963 384.587 64.1785 385.344C68.5608 386.1 72.5355 388.378 75.4029 391.778C78.2703 395.177 79.8464 399.479 79.8535 403.926C79.8559 404.583 79.8219 405.24 79.7517 405.894C81.0294 405.427 82.3793 405.189 83.7396 405.19C90.2731 405.19 95.9581 410.493 95.5423 416.993C95.4824 418.064 95.3031 419.126 95.0077 420.158H0.824149C0.539705 419.127 0.396976 418.062 0.399898 416.993L0.382912 417.018Z" fill="#80C33F"/>
<path d="M830.217 288.64H97.9609V420.158H830.217V288.64Z" fill="#F4F5F6"/>
<path fill-rule="evenodd" clip-rule="evenodd" d="M97.1133 287.792H831.067V421.006H97.1133V287.792ZM98.8103 289.489V419.309H829.37V289.489H98.8103Z" fill="#959DA8"/>
<path d="M830.217 157.125H97.9609V288.643H830.217V157.125Z" fill="#F4F5F6"/>
<path fill-rule="evenodd" clip-rule="evenodd" d="M97.1133 156.276H831.067V289.491H97.1133V156.276ZM98.8103 157.973V287.794H829.37V157.973H98.8103Z" fill="#959DA8"/>
<path d="M684.275 25.606H243.055V157.124H684.275V25.606Z" fill="#F4F5F6"/>
<path fill-rule="evenodd" clip-rule="evenodd" d="M242.293 24.8462H685.032V157.883H242.293V24.8462ZM243.812 26.365V156.364H683.513V26.365H243.812Z" fill="#959DA8"/>
<path d="M390.694 1H243.055V420.159H390.694V1Z" fill="#F4F5F6"/>
<path fill-rule="evenodd" clip-rule="evenodd" d="M242.203 0.151367H391.539V421.008H242.203V0.151367ZM243.9 1.84837V419.311H389.842V1.84837H243.9Z" fill="#959DA8"/>
<path d="M684.276 1H536.637V420.159H684.276V1Z" fill="#F4F5F6"/>
<path fill-rule="evenodd" clip-rule="evenodd" d="M535.789 0.151367H685.125V421.008H535.789V0.151367ZM537.486 1.84837V419.311H683.428V1.84837H537.486Z" fill="#959DA8"/>
<path d="M226.933 180.881H113.234V287.792H226.933V180.881Z" fill="#F4F5F6"/>
<path fill-rule="evenodd" clip-rule="evenodd" d="M112.324 179.969H227.848V288.705H112.324V179.969ZM114.148 181.794V286.88H226.023V181.794H114.148Z" fill="#959DA8"/>
<path d="M814.094 180.881H700.395V287.792H814.094V180.881Z" fill="#F4F5F6"/>
<path fill-rule="evenodd" clip-rule="evenodd" d="M699.484 179.969H815.008V288.705H699.484V179.969ZM701.309 181.794V286.88H813.183V181.794H701.309Z" fill="#959DA8"/>
<path d="M280.84 45.9697H352.962V142.605H280.84V45.9697Z" fill="white"/>
<path fill-rule="evenodd" clip-rule="evenodd" d="M280.414 45.5454H353.385V143.03H280.414V45.5454ZM281.263 46.3939V142.181H352.537V46.3939H281.263Z" fill="#959DA8"/>
<path fill-rule="evenodd" clip-rule="evenodd" d="M316.172 142.7V45.7671H317.02V142.7H316.172Z" fill="#959DA8"/>
<path d="M574.422 45.9697H646.544V142.605H574.422V45.9697Z" fill="white"/>
<path fill-rule="evenodd" clip-rule="evenodd" d="M573.996 45.5454H646.967V143.03H573.996V45.5454ZM574.845 46.3939V142.181H646.119V46.3939H574.845Z" fill="#959DA8"/>
<path fill-rule="evenodd" clip-rule="evenodd" d="M609.75 142.7V45.7671H610.599V142.7H609.75Z" fill="#959DA8"/>
<path d="M280.84 180.881H352.962V277.517H280.84V180.881Z" fill="white"/>
<path fill-rule="evenodd" clip-rule="evenodd" d="M280.414 180.457H353.385V277.941H280.414V180.457ZM281.263 181.306V277.093H352.537V181.306H281.263Z" fill="#959DA8"/>
<path fill-rule="evenodd" clip-rule="evenodd" d="M316.172 277.611V180.679H317.02V277.611H316.172Z" fill="#959DA8"/>
<path d="M132.348 186.185H204.47V278.383H132.348V186.185Z" fill="white"/>
<path fill-rule="evenodd" clip-rule="evenodd" d="M131.926 185.761H204.897V278.807H131.926V185.761ZM132.774 186.609V277.959H204.048V186.609H132.774Z" fill="#959DA8"/>
<path fill-rule="evenodd" clip-rule="evenodd" d="M167.68 278.461V185.975H168.528V278.461H167.68Z" fill="#959DA8"/>
<path d="M723.754 186.185H795.876V278.383H723.754V186.185Z" fill="white"/>
<path fill-rule="evenodd" clip-rule="evenodd" d="M723.332 185.761H796.303V278.807H723.332V185.761ZM724.181 186.609V277.959H795.455V186.609H724.181Z" fill="#959DA8"/>
<path fill-rule="evenodd" clip-rule="evenodd" d="M759.086 278.461V185.975H759.934V278.461H759.086Z" fill="#959DA8"/>
<path d="M574.422 180.881H646.544V277.517H574.422V180.881Z" fill="white"/>
<path fill-rule="evenodd" clip-rule="evenodd" d="M573.996 180.457H646.967V277.941H573.996V180.457ZM574.845 181.306V277.093H646.119V181.306H574.845Z" fill="#959DA8"/>
<path fill-rule="evenodd" clip-rule="evenodd" d="M609.75 277.611V180.679H610.599V277.611H609.75Z" fill="#959DA8"/>
<path d="M280.84 311.553H352.962V408.188H280.84V311.553Z" fill="white"/>
<path fill-rule="evenodd" clip-rule="evenodd" d="M280.414 311.128H353.385V408.613H280.414V311.128ZM281.263 311.977V407.764H352.537V311.977H281.263Z" fill="#959DA8"/>
<path fill-rule="evenodd" clip-rule="evenodd" d="M316.172 408.279V311.346H317.02V408.279H316.172Z" fill="#959DA8"/>
<path d="M574.422 311.553H646.544V408.188H574.422V311.553Z" fill="white"/>
<path fill-rule="evenodd" clip-rule="evenodd" d="M573.996 311.128H646.967V408.613H573.996V311.128ZM574.845 311.977V407.764H646.119V311.977H574.845Z" fill="#959DA8"/>
<path fill-rule="evenodd" clip-rule="evenodd" d="M609.75 408.279V311.346H610.599V408.279H609.75Z" fill="#959DA8"/>
<path d="M723.754 311.553H795.876V408.188H723.754V311.553Z" fill="white"/>
<path fill-rule="evenodd" clip-rule="evenodd" d="M723.332 311.128H796.303V408.613H723.332V311.128ZM724.181 311.977V407.764H795.455V311.977H724.181Z" fill="#959DA8"/>
<path fill-rule="evenodd" clip-rule="evenodd" d="M759.086 408.279V311.346H759.934V408.279H759.086Z" fill="#959DA8"/>
<path d="M449.699 45.9697H478.794V142.605H449.699V45.9697Z" fill="white"/>
<path fill-rule="evenodd" clip-rule="evenodd" d="M449.273 45.5454H479.217V143.03H449.273V45.5454ZM450.122 46.3939V142.181H478.368V46.3939H450.122Z" fill="#959DA8"/>
<path d="M449.699 180.881H478.794V277.517H449.699V180.881Z" fill="white"/>
<path fill-rule="evenodd" clip-rule="evenodd" d="M449.273 180.457H479.217V277.941H449.273V180.457ZM450.122 181.306V277.093H478.368V181.306H450.122Z" fill="#959DA8"/>
<path d="M449.699 311.553H478.794V408.188H449.699V311.553Z" fill="white"/>
<path fill-rule="evenodd" clip-rule="evenodd" d="M449.273 311.128H479.217V408.613H449.273V311.128ZM450.122 311.977V407.764H478.368V311.977H450.122Z" fill="#959DA8"/>
<path d="M143.077 264.461C142.791 264.461 142.507 264.429 142.228 264.367C129.229 261.406 129.229 245.7 129.229 245.7C129.131 236.743 131.775 227.97 136.806 220.559C137.51 219.549 138.447 218.724 139.538 218.155C140.629 217.585 141.842 217.288 143.073 217.288C144.303 217.288 145.516 217.585 146.607 218.155C147.698 218.724 148.635 219.549 149.339 220.559C154.373 227.969 157.02 236.742 156.924 245.7C156.924 245.7 156.924 261.466 143.925 264.367C143.647 264.429 143.362 264.461 143.077 264.461Z" fill="#80C33F"/>
<path fill-rule="evenodd" clip-rule="evenodd" d="M143.077 234.199C143.311 234.199 143.501 234.389 143.501 234.623V288.164C143.501 288.398 143.311 288.588 143.077 288.588C142.842 288.588 142.652 288.398 142.652 288.164V234.623C142.652 234.389 142.842 234.199 143.077 234.199Z" fill="#2A3A51"/>
<path d="M434.112 117.671C433.827 117.671 433.542 117.639 433.263 117.577C420.264 114.616 420.264 98.9104 420.264 98.9104C420.166 89.9533 422.81 81.1804 427.842 73.7693C428.545 72.7593 429.482 71.9344 430.573 71.3647C431.664 70.7951 432.877 70.4976 434.108 70.4976C435.339 70.4976 436.551 70.7951 437.642 71.3647C438.733 71.9344 439.67 72.7593 440.374 73.7693C445.408 81.1794 448.055 89.9524 447.959 98.9104C447.959 98.9104 447.959 114.676 434.96 117.577C434.682 117.639 434.397 117.671 434.112 117.671Z" fill="#80C33F"/>
<path fill-rule="evenodd" clip-rule="evenodd" d="M434.112 87.4111C434.346 87.4111 434.536 87.6011 434.536 87.8354V141.376C434.536 141.61 434.346 141.8 434.112 141.8C433.877 141.8 433.688 141.61 433.688 141.376V87.8354C433.688 87.6011 433.877 87.4111 434.112 87.4111Z" fill="#2A3A51"/>
<path d="M150.905 240.703V287.794H142.793L142.801 240.703H150.905Z" fill="#F4F5F6"/>
<path fill-rule="evenodd" clip-rule="evenodd" d="M142.38 240.278H151.331V288.219H142.371L142.38 240.278ZM143.228 241.127L143.22 287.37H150.483V241.127H143.228Z" fill="#959DA8"/>
<path d="M142.42 240.703V287.794H134.309L134.317 240.703H142.42Z" fill="#F4F5F6"/>
<path fill-rule="evenodd" clip-rule="evenodd" d="M133.895 240.278H142.847V288.219H133.887L133.895 240.278ZM134.744 241.127L134.735 287.37H141.999V241.127H134.744Z" fill="#959DA8"/>
<path d="M159.391 240.703H151.102V287.794H159.391V240.703Z" fill="#F4F5F6"/>
<path fill-rule="evenodd" clip-rule="evenodd" d="M150.68 240.278H159.818V288.219H150.68V240.278ZM151.528 241.127V287.37H158.97V241.127H151.528Z" fill="#959DA8"/>
<path d="M167.88 240.703H159.59V287.794H167.88V240.703Z" fill="#F4F5F6"/>
<path fill-rule="evenodd" clip-rule="evenodd" d="M159.164 240.278H168.302V288.219H159.164V240.278ZM160.013 241.127V287.37H167.454V241.127H160.013Z" fill="#959DA8"/>
<path d="M176.364 240.703H168.074V287.794H176.364V240.703Z" fill="#F4F5F6"/>
<path fill-rule="evenodd" clip-rule="evenodd" d="M167.648 240.278H176.787V288.219H167.648V240.278ZM168.497 241.127V287.37H175.938V241.127H168.497Z" fill="#959DA8"/>
<path d="M184.848 240.703H176.559V287.794H184.848V240.703Z" fill="#F4F5F6"/>
<path fill-rule="evenodd" clip-rule="evenodd" d="M176.133 240.278H185.271V288.219H176.133V240.278ZM176.981 241.127V287.37H184.423V241.127H176.981Z" fill="#959DA8"/>
<path d="M193.333 240.703H185.043V287.794H193.333V240.703Z" fill="#F4F5F6"/>
<path fill-rule="evenodd" clip-rule="evenodd" d="M184.617 240.278H193.756V288.219H184.617V240.278ZM185.466 241.127V287.37H192.907V241.127H185.466Z" fill="#959DA8"/>
<path d="M201.817 240.703H193.527V287.794H201.817V240.703Z" fill="#F4F5F6"/>
<path fill-rule="evenodd" clip-rule="evenodd" d="M193.102 240.278H202.24V288.219H193.102V240.278ZM193.95 241.127V287.37H201.391V241.127H193.95Z" fill="#959DA8"/>
<path d="M210.302 240.703H202.012V287.794H210.302V240.703Z" fill="#F4F5F6"/>
<path fill-rule="evenodd" clip-rule="evenodd" d="M201.586 240.278H210.724V288.219H201.586V240.278ZM202.434 241.127V287.37H209.876V241.127H202.434Z" fill="#959DA8"/>
<path d="M218.79 240.703H210.5V287.794H218.79V240.703Z" fill="#F4F5F6"/>
<path fill-rule="evenodd" clip-rule="evenodd" d="M210.074 240.278H219.213V288.219H210.074V240.278ZM210.923 241.127V287.37H218.364V241.127H210.923Z" fill="#959DA8"/>
<path d="M227.27 240.703H218.98V287.794H227.27V240.703Z" fill="#F4F5F6"/>
<path fill-rule="evenodd" clip-rule="evenodd" d="M218.559 240.278H227.697V288.219H218.559V240.278ZM219.407 241.127V287.37H226.848V241.127H219.407Z" fill="#959DA8"/>
<path d="M125.45 240.703H117.16V287.794H125.45V240.703Z" fill="#F4F5F6"/>
<path fill-rule="evenodd" clip-rule="evenodd" d="M116.738 240.278H125.877V288.219H116.738V240.278ZM117.587 241.127V287.37H125.028V241.127H117.587Z" fill="#959DA8"/>
<path d="M133.934 240.703H125.645V287.794H133.934V240.703Z" fill="#F4F5F6"/>
<path fill-rule="evenodd" clip-rule="evenodd" d="M125.223 240.278H134.361V288.219H125.223V240.278ZM126.071 241.127V287.37H133.513V241.127H126.071Z" fill="#959DA8"/>
<path fill-rule="evenodd" clip-rule="evenodd" d="M112.387 240.279H227.783V288.643H112.387V240.279ZM114.084 241.976V286.946H226.086V241.976H114.084Z" fill="#959DA8"/>
<path d="M357.406 146.551H276.341L275.297 139.025H358.45L357.406 146.551Z" fill="#D3DCE5"/>
<path d="M651.836 147.401H570.77L569.727 139.875H652.88L651.836 147.401Z" fill="#D3DCE5"/>
<path d="M357.406 281.465H276.341L275.297 273.938H358.45L357.406 281.465Z" fill="#D3DCE5"/>
<path d="M651.836 278.918H570.77L569.727 271.392H652.88L651.836 278.918Z" fill="#D3DCE5"/>
<path d="M357.406 412.133H276.341L275.297 404.606H358.45L357.406 412.133Z" fill="#D3DCE5"/>
<path d="M651.836 408.738H570.77L569.727 401.212H652.88L651.836 408.738Z" fill="#D3DCE5"/>
<path d="M800.324 408.738H719.258L718.215 401.212H801.368L800.324 408.738Z" fill="#D3DCE5"/>
<path d="M463.155 110.033V157.125H455.043L455.051 110.033H463.155Z" fill="#F4F5F6"/>
<path fill-rule="evenodd" clip-rule="evenodd" d="M454.626 109.609H463.577V157.549H454.617L454.626 109.609ZM455.474 110.457L455.466 156.701H462.729V110.457H455.474Z" fill="#959DA8"/>
<path d="M454.67 110.033V157.125H446.559L446.567 110.033H454.67Z" fill="#F4F5F6"/>
<path fill-rule="evenodd" clip-rule="evenodd" d="M446.141 109.609H455.093V157.549H446.133L446.141 109.609ZM446.99 110.457L446.981 156.701H454.245V110.457H446.99Z" fill="#959DA8"/>
<path d="M471.641 110.033H463.352V157.125H471.641V110.033Z" fill="#F4F5F6"/>
<path fill-rule="evenodd" clip-rule="evenodd" d="M462.93 109.609H472.068V157.549H462.93V109.609ZM463.778 110.457V156.701H471.22V110.457H463.778Z" fill="#959DA8"/>
<path d="M480.126 110.033H471.836V157.125H480.126V110.033Z" fill="#F4F5F6"/>
<path fill-rule="evenodd" clip-rule="evenodd" d="M471.414 109.609H480.552V157.549H471.414V109.609ZM472.263 110.457V156.701H479.704V110.457H472.263Z" fill="#959DA8"/>
<path d="M488.61 110.033H480.32V157.125H488.61V110.033Z" fill="#F4F5F6"/>
<path fill-rule="evenodd" clip-rule="evenodd" d="M479.895 109.609H489.033V157.549H479.895V109.609ZM480.743 110.457V156.701H488.184V110.457H480.743Z" fill="#959DA8"/>
<path d="M421.58 110.033V157.125H413.469L413.477 110.033H421.58Z" fill="#F4F5F6"/>
<path fill-rule="evenodd" clip-rule="evenodd" d="M413.052 109.609H422.003V157.549H413.043L413.052 109.609ZM413.9 110.457L413.892 156.701H421.155V110.457H413.9Z" fill="#959DA8"/>
<path d="M413.092 110.033V157.125H404.98L404.989 110.033H413.092Z" fill="#F4F5F6"/>
<path fill-rule="evenodd" clip-rule="evenodd" d="M404.567 109.609H413.519V157.549H404.559L404.567 109.609ZM405.416 110.457L405.407 156.701H412.67V110.457H405.416Z" fill="#959DA8"/>
<path d="M404.608 110.033V157.125H396.496L396.505 110.033H404.608Z" fill="#F4F5F6"/>
<path fill-rule="evenodd" clip-rule="evenodd" d="M396.083 109.609H405.035V157.549H396.074L396.083 109.609ZM396.931 110.457L396.923 156.701H404.186V110.457H396.931Z" fill="#959DA8"/>
<path d="M396.12 110.033V157.125H388.008L388.016 110.033H396.12Z" fill="#F4F5F6"/>
<path fill-rule="evenodd" clip-rule="evenodd" d="M387.595 109.609H396.546V157.549H387.586L387.595 109.609ZM388.443 110.457L388.435 156.701H395.698V110.457H388.443Z" fill="#959DA8"/>
<path d="M430.063 110.033H421.773V157.125H430.063V110.033Z" fill="#F4F5F6"/>
<path fill-rule="evenodd" clip-rule="evenodd" d="M421.352 109.609H430.49V157.549H421.352V109.609ZM422.2 110.457V156.701H429.641V110.457H422.2Z" fill="#959DA8"/>
<path d="M438.552 110.033H430.262V157.125H438.552V110.033Z" fill="#F4F5F6"/>
<path fill-rule="evenodd" clip-rule="evenodd" d="M429.836 109.609H438.974V157.549H429.836V109.609ZM430.684 110.457V156.701H438.126V110.457H430.684Z" fill="#959DA8"/>
<path d="M447.036 110.033H438.746V157.125H447.036V110.033Z" fill="#F4F5F6"/>
<path fill-rule="evenodd" clip-rule="evenodd" d="M438.324 109.609H447.463V157.549H438.324V109.609ZM439.173 110.457V156.701H446.614V110.457H439.173Z" fill="#959DA8"/>
<path d="M497.098 110.033H488.809V157.125H497.098V110.033Z" fill="#F4F5F6"/>
<path fill-rule="evenodd" clip-rule="evenodd" d="M488.383 109.609H497.521V157.549H488.383V109.609ZM489.231 110.457V156.701H496.673V110.457H489.231Z" fill="#959DA8"/>
<path d="M505.583 110.033H497.293V157.125H505.583V110.033Z" fill="#F4F5F6"/>
<path fill-rule="evenodd" clip-rule="evenodd" d="M496.867 109.609H506.006V157.549H496.867V109.609ZM497.716 110.457V156.701H505.157V110.457H497.716Z" fill="#959DA8"/>
<path d="M514.067 110.033H505.777V157.125H514.067V110.033Z" fill="#F4F5F6"/>
<path fill-rule="evenodd" clip-rule="evenodd" d="M505.352 109.609H514.49V157.549H505.352V109.609ZM506.2 110.457V156.701H513.641V110.457H506.2Z" fill="#959DA8"/>
<path d="M522.548 110.033H514.258V157.125H522.548V110.033Z" fill="#F4F5F6"/>
<path fill-rule="evenodd" clip-rule="evenodd" d="M513.836 109.609H522.974V157.549H513.836V109.609ZM514.684 110.457V156.701H522.126V110.457H514.684Z" fill="#959DA8"/>
<path d="M531.036 110.033H522.746V157.125H531.036V110.033Z" fill="#F4F5F6"/>
<path fill-rule="evenodd" clip-rule="evenodd" d="M522.32 109.609H531.459V157.549H522.32V109.609ZM523.169 110.457V156.701H530.61V110.457H523.169Z" fill="#959DA8"/>
<path d="M539.52 110.033H531.23V157.125H539.52V110.033Z" fill="#F4F5F6"/>
<path fill-rule="evenodd" clip-rule="evenodd" d="M530.805 109.609H539.943V157.549H530.805V109.609ZM531.653 110.457V156.701H539.095V110.457H531.653Z" fill="#959DA8"/>
<path fill-rule="evenodd" clip-rule="evenodd" d="M387.297 109.607H540.027V157.972H387.297V109.607ZM388.994 111.304V156.275H538.33V111.304H388.994Z" fill="#959DA8"/>
<path d="M394.086 260.897C394.078 259.009 394.525 257.146 395.39 255.467C396.254 253.788 397.51 252.341 399.051 251.25C400.593 250.159 402.374 249.455 404.245 249.198C406.116 248.941 408.022 249.138 409.8 249.773C410.488 247.005 411.88 244.463 413.841 242.392C415.803 240.322 418.267 238.795 420.994 237.959C423.721 237.124 426.617 237.009 429.402 237.625C432.187 238.241 434.764 239.567 436.884 241.475C438.382 237.288 441.309 233.763 445.15 231.522C448.991 229.28 453.499 228.466 457.882 229.223C462.264 229.979 466.239 232.257 469.106 235.657C471.973 239.056 473.55 243.358 473.557 247.805C473.559 248.462 473.525 249.119 473.455 249.773C474.728 249.307 474.142 263.001 473.845 264.037H394.51C394.226 263.006 394.083 261.941 394.086 260.872V260.897Z" fill="#80C33F"/>
<path d="M463.155 241.548V288.64H455.043L455.051 241.548H463.155Z" fill="#F4F5F6"/>
<path fill-rule="evenodd" clip-rule="evenodd" d="M454.626 241.124H463.577V289.064H454.617L454.626 241.124ZM455.474 241.973L455.466 288.216H462.729V241.973H455.474Z" fill="#959DA8"/>
<path d="M454.67 241.548V288.64H446.559L446.567 241.548H454.67Z" fill="#F4F5F6"/>
<path fill-rule="evenodd" clip-rule="evenodd" d="M446.141 241.124H455.093V289.064H446.133L446.141 241.124ZM446.99 241.973L446.981 288.216H454.245V241.973H446.99Z" fill="#959DA8"/>
<path d="M471.641 241.548H463.352V288.64H471.641V241.548Z" fill="#F4F5F6"/>
<path fill-rule="evenodd" clip-rule="evenodd" d="M462.93 241.124H472.068V289.064H462.93V241.124ZM463.778 241.973V288.216H471.22V241.973H463.778Z" fill="#959DA8"/>
<path d="M480.126 241.548H471.836V288.64H480.126V241.548Z" fill="#F4F5F6"/>
<path fill-rule="evenodd" clip-rule="evenodd" d="M471.414 241.124H480.552V289.064H471.414V241.124ZM472.263 241.973V288.216H479.704V241.973H472.263Z" fill="#959DA8"/>
<path d="M488.61 241.548H480.32V288.64H488.61V241.548Z" fill="#F4F5F6"/>
<path fill-rule="evenodd" clip-rule="evenodd" d="M479.895 241.124H489.033V289.064H479.895V241.124ZM480.743 241.973V288.216H488.184V241.973H480.743Z" fill="#959DA8"/>
<path d="M421.58 241.548V288.64H413.469L413.477 241.548H421.58Z" fill="#F4F5F6"/>
<path fill-rule="evenodd" clip-rule="evenodd" d="M413.052 241.124H422.003V289.064H413.043L413.052 241.124ZM413.9 241.973L413.892 288.216H421.155V241.973H413.9Z" fill="#959DA8"/>
<path d="M413.092 241.548V288.64H404.98L404.989 241.548H413.092Z" fill="#F4F5F6"/>
<path fill-rule="evenodd" clip-rule="evenodd" d="M404.567 241.124H413.519V289.064H404.559L404.567 241.124ZM405.416 241.973L405.407 288.216H412.67V241.973H405.416Z" fill="#959DA8"/>
<path d="M404.608 241.548V288.64H396.496L396.505 241.548H404.608Z" fill="#F4F5F6"/>
<path fill-rule="evenodd" clip-rule="evenodd" d="M396.083 241.124H405.035V289.064H396.074L396.083 241.124ZM396.931 241.973L396.923 288.216H404.186V241.973H396.931Z" fill="#959DA8"/>
<path d="M396.12 241.548V288.64H388.008L388.016 241.548H396.12Z" fill="#F4F5F6"/>
<path fill-rule="evenodd" clip-rule="evenodd" d="M387.595 241.124H396.546V289.064H387.586L387.595 241.124ZM388.443 241.973L388.435 288.216H395.698V241.973H388.443Z" fill="#959DA8"/>
<path d="M430.063 241.548H421.773V288.64H430.063V241.548Z" fill="#F4F5F6"/>
<path fill-rule="evenodd" clip-rule="evenodd" d="M421.352 241.124H430.49V289.064H421.352V241.124ZM422.2 241.973V288.216H429.641V241.973H422.2Z" fill="#959DA8"/>
<path d="M438.552 241.548H430.262V288.64H438.552V241.548Z" fill="#F4F5F6"/>
<path fill-rule="evenodd" clip-rule="evenodd" d="M429.836 241.124H438.974V289.064H429.836V241.124ZM430.684 241.973V288.216H438.126V241.973H430.684Z" fill="#959DA8"/>
<path d="M447.036 241.548H438.746V288.64H447.036V241.548Z" fill="#F4F5F6"/>
<path fill-rule="evenodd" clip-rule="evenodd" d="M438.324 241.124H447.463V289.064H438.324V241.124ZM439.173 241.973V288.216H446.614V241.973H439.173Z" fill="#959DA8"/>
<path d="M497.098 241.548H488.809V288.64H497.098V241.548Z" fill="#F4F5F6"/>
<path fill-rule="evenodd" clip-rule="evenodd" d="M488.383 241.124H497.521V289.064H488.383V241.124ZM489.231 241.973V288.216H496.673V241.973H489.231Z" fill="#959DA8"/>
<path d="M505.583 241.548H497.293V288.64H505.583V241.548Z" fill="#F4F5F6"/>
<path fill-rule="evenodd" clip-rule="evenodd" d="M496.867 241.124H506.006V289.064H496.867V241.124ZM497.716 241.973V288.216H505.157V241.973H497.716Z" fill="#959DA8"/>
<path d="M514.067 241.548H505.777V288.64H514.067V241.548Z" fill="#F4F5F6"/>
<path fill-rule="evenodd" clip-rule="evenodd" d="M505.352 241.124H514.49V289.064H505.352V241.124ZM506.2 241.973V288.216H513.641V241.973H506.2Z" fill="#959DA8"/>
<path d="M522.548 241.548H514.258V288.64H522.548V241.548Z" fill="#F4F5F6"/>
<path fill-rule="evenodd" clip-rule="evenodd" d="M513.836 241.124H522.974V289.064H513.836V241.124ZM514.684 241.973V288.216H522.126V241.973H514.684Z" fill="#959DA8"/>
<path d="M531.036 241.548H522.746V288.64H531.036V241.548Z" fill="#F4F5F6"/>
<path fill-rule="evenodd" clip-rule="evenodd" d="M522.32 241.124H531.459V289.064H522.32V241.124ZM523.169 241.973V288.216H530.61V241.973H523.169Z" fill="#959DA8"/>
<path d="M539.52 241.548H531.23V288.64H539.52V241.548Z" fill="#F4F5F6"/>
<path fill-rule="evenodd" clip-rule="evenodd" d="M530.805 241.124H539.943V289.064H530.805V241.124ZM531.653 241.973V288.216H539.095V241.973H531.653Z" fill="#959DA8"/>
<path fill-rule="evenodd" clip-rule="evenodd" d="M387.297 241.125H540.027V289.489H387.297V241.125ZM388.994 242.822V287.792H538.33V242.822H388.994Z" fill="#959DA8"/>
<path d="M584.314 368.291C584.946 365.468 584.943 362.54 584.305 359.719C583.667 356.898 582.41 354.254 580.625 351.978C578.84 349.703 576.571 347.852 573.983 346.561C571.395 345.27 568.552 344.57 565.66 344.512C562.768 344.454 559.9 345.04 557.262 346.227C554.625 347.414 552.284 349.172 550.409 351.375C548.534 353.578 547.173 356.169 546.423 358.963C545.673 361.756 545.553 364.681 546.072 367.527C543.942 368.562 542.06 370.044 540.555 371.873C539.051 373.702 537.959 375.835 537.354 378.125C536.749 380.414 536.646 382.808 537.051 385.141C537.457 387.475 538.361 389.693 539.703 391.645C541.044 393.597 542.791 395.236 544.824 396.45C546.858 397.665 549.129 398.426 551.484 398.682C553.838 398.938 556.22 398.682 558.467 397.933C560.714 397.183 562.772 395.958 564.501 394.34C566.181 395.917 568.173 397.125 570.349 397.883C572.526 398.642 574.837 398.935 577.133 398.743C579.43 398.552 581.66 397.88 583.681 396.771C585.701 395.663 587.466 394.142 588.861 392.308C590.256 390.474 591.25 388.367 591.779 386.124C592.308 383.881 592.36 381.552 591.931 379.288C591.502 377.023 590.603 374.874 589.291 372.98C587.979 371.085 586.283 369.488 584.314 368.291Z" fill="#80C33F"/>
<path fill-rule="evenodd" clip-rule="evenodd" d="M555.915 379.095C556.045 378.9 556.308 378.847 556.503 378.977L565.489 384.967C565.684 385.097 565.737 385.361 565.607 385.556C565.477 385.751 565.213 385.803 565.018 385.673L556.033 379.683C555.838 379.553 555.785 379.29 555.915 379.095Z" fill="#2A3A51"/>
<path fill-rule="evenodd" clip-rule="evenodd" d="M576.05 383.549C576.202 383.727 576.181 383.995 576.003 384.147L565.524 393.124C565.347 393.277 565.079 393.256 564.926 393.078C564.774 392.9 564.795 392.633 564.972 392.48L575.451 383.503C575.629 383.351 575.897 383.371 576.05 383.549Z" fill="#2A3A51"/>
<path fill-rule="evenodd" clip-rule="evenodd" d="M565.256 366.932C565.491 366.932 565.681 367.122 565.681 367.356V421.236C565.681 421.47 565.491 421.66 565.256 421.66C565.022 421.66 564.832 421.47 564.832 421.236V367.356C564.832 367.122 565.022 366.932 565.256 366.932Z" fill="#2A3A51"/>
<path fill-rule="evenodd" clip-rule="evenodd" d="M483.136 419.648L443.027 388.652L443.546 387.981L483.655 418.977L483.136 419.648Z" fill="#959DA8"/>
<path fill-rule="evenodd" clip-rule="evenodd" d="M443.027 418.977L483.136 387.981L483.655 388.652L443.546 419.648L443.027 418.977Z" fill="#959DA8"/>
<path d="M490.817 382.403H435.664V389.165H490.817V382.403Z" fill="#D3DCE5"/>
<path d="M401.376 399.498H424.846L415.063 376.037H391.602L401.376 399.498Z" fill="#D3DCE5"/>
<path fill-rule="evenodd" clip-rule="evenodd" d="M423.711 388.587L420.199 388.731L420.164 387.883L423.677 387.739C426.602 387.621 429.496 388.38 431.987 389.918C434.478 391.456 436.452 393.703 437.657 396.372L448.688 420.834L447.914 421.183L436.884 396.721C436.884 396.721 436.884 396.721 436.884 396.721C435.749 394.207 433.888 392.089 431.541 390.64C429.194 389.19 426.468 388.476 423.711 388.587Z" fill="#959DA8"/>
<path fill-rule="evenodd" clip-rule="evenodd" d="M396.402 420.917L401.307 398.856L402.135 399.04L397.231 421.101L396.402 420.917Z" fill="#959DA8"/>
<path fill-rule="evenodd" clip-rule="evenodd" d="M415.953 420.917L420.824 398.856L421.652 399.039L416.782 421.1L415.953 420.917Z" fill="#959DA8"/>
<path d="M400.724 399.499H437.871V396.241H400.724V399.499Z" fill="#D3DCE5"/>
<path fill-rule="evenodd" clip-rule="evenodd" d="M401.42 388.547C401.42 388.547 401.421 388.547 401.42 388.547L396.737 388.733L396.703 387.886L401.387 387.699C404.162 387.589 406.907 388.311 409.269 389.772C411.632 391.233 413.504 393.367 414.645 395.899L425.871 420.836L425.097 421.185L413.872 396.248" fill="#959DA8"/>
<path fill-rule="evenodd" clip-rule="evenodd" d="M503.653 387.738C503.654 387.739 503.654 387.739 503.655 387.739L508.013 387.883L507.985 388.731L503.624 388.586L503.621 388.586C500.864 388.475 498.138 389.19 495.791 390.639C493.444 392.088 491.583 394.206 490.449 396.72C490.449 396.72 490.448 396.72 490.448 396.72L479.418 421.182L478.645 420.834L489.675 396.371L489.675 396.371C490.88 393.703 492.854 391.455 495.345 389.917C497.836 388.379 500.729 387.621 503.653 387.738Z" fill="#959DA8"/>
<path d="M525.954 399.498H502.484L512.268 376.037H535.729L525.954 399.498Z" fill="#D3DCE5"/>
<path fill-rule="evenodd" clip-rule="evenodd" d="M530.096 421.096L525.191 398.187L526.021 398.009L530.925 420.919L530.096 421.096Z" fill="#959DA8"/>
<path fill-rule="evenodd" clip-rule="evenodd" d="M510.546 421.1L505.676 399.039L506.504 398.856L511.375 420.917L510.546 421.1Z" fill="#959DA8"/>
<path d="M526.601 396.241H489.453V399.499H526.601V396.241Z" fill="#D3DCE5"/>
<path fill-rule="evenodd" clip-rule="evenodd" d="M518.063 389.772C520.425 388.311 523.17 387.589 525.945 387.699L530.629 387.886L530.595 388.733L525.912 388.547C525.911 388.547 525.912 388.547 525.912 388.547C523.305 388.444 520.727 389.122 518.509 390.494C516.29 391.866 514.532 393.87 513.46 396.248L502.235 421.185L501.461 420.836L512.687 395.899C513.828 393.367 515.7 391.233 518.063 389.772Z" fill="#959DA8"/>
<path d="M738.069 240.703V287.794H729.957L729.966 240.703H738.069Z" fill="#F4F5F6"/>
<path fill-rule="evenodd" clip-rule="evenodd" d="M729.544 240.278H738.495V288.219H729.535L729.544 240.278ZM730.392 241.127L730.384 287.37H737.647V241.127H730.392Z" fill="#959DA8"/>
<path d="M729.584 240.703V287.794H721.473L721.481 240.703H729.584Z" fill="#F4F5F6"/>
<path fill-rule="evenodd" clip-rule="evenodd" d="M721.056 240.278H730.007V288.219H721.047L721.056 240.278ZM721.904 241.127L721.896 287.37H729.159V241.127H721.904Z" fill="#959DA8"/>
<path d="M746.555 240.703H738.266V287.794H746.555V240.703Z" fill="#F4F5F6"/>
<path fill-rule="evenodd" clip-rule="evenodd" d="M737.84 240.278H746.978V288.219H737.84V240.278ZM738.688 241.127V287.37H746.13V241.127H738.688Z" fill="#959DA8"/>
<path d="M755.04 240.703H746.75V287.794H755.04V240.703Z" fill="#F4F5F6"/>
<path fill-rule="evenodd" clip-rule="evenodd" d="M746.328 240.278H755.466V288.219H746.328V240.278ZM747.177 241.127V287.37H754.618V241.127H747.177Z" fill="#959DA8"/>
<path d="M763.524 240.703H755.234V287.794H763.524V240.703Z" fill="#F4F5F6"/>
<path fill-rule="evenodd" clip-rule="evenodd" d="M754.812 240.278H763.951V288.219H754.812V240.278ZM755.661 241.127V287.37H763.102V241.127H755.661Z" fill="#959DA8"/>
<path d="M772.013 240.703H763.723V287.794H772.013V240.703Z" fill="#F4F5F6"/>
<path fill-rule="evenodd" clip-rule="evenodd" d="M763.297 240.278H772.435V288.219H763.297V240.278ZM764.145 241.127V287.37H771.587V241.127H764.145Z" fill="#959DA8"/>
<path d="M780.493 240.703H772.203V287.794H780.493V240.703Z" fill="#F4F5F6"/>
<path fill-rule="evenodd" clip-rule="evenodd" d="M771.781 240.278H780.92V288.219H771.781V240.278ZM772.63 241.127V287.37H780.071V241.127H772.63Z" fill="#959DA8"/>
<path d="M788.981 240.703H780.691V287.794H788.981V240.703Z" fill="#F4F5F6"/>
<path fill-rule="evenodd" clip-rule="evenodd" d="M780.266 240.278H789.404V288.219H780.266V240.278ZM781.114 241.127V287.37H788.555V241.127H781.114Z" fill="#959DA8"/>
<path d="M797.466 240.703H789.176V287.794H797.466V240.703Z" fill="#F4F5F6"/>
<path fill-rule="evenodd" clip-rule="evenodd" d="M788.754 240.278H797.892V288.219H788.754V240.278ZM789.602 241.127V287.37H797.044V241.127H789.602Z" fill="#959DA8"/>
<path d="M805.95 240.703H797.66V287.794H805.95V240.703Z" fill="#F4F5F6"/>
<path fill-rule="evenodd" clip-rule="evenodd" d="M797.238 240.278H806.377V288.219H797.238V240.278ZM798.087 241.127V287.37H805.528V241.127H798.087Z" fill="#959DA8"/>
<path d="M814.434 240.703H806.145V287.794H814.434V240.703Z" fill="#F4F5F6"/>
<path fill-rule="evenodd" clip-rule="evenodd" d="M805.723 240.278H814.861V288.219H805.723V240.278ZM806.571 241.127V287.37H814.013V241.127H806.571Z" fill="#959DA8"/>
<path d="M712.614 240.703H704.324V287.794H712.614V240.703Z" fill="#F4F5F6"/>
<path fill-rule="evenodd" clip-rule="evenodd" d="M703.898 240.278H713.037V288.219H703.898V240.278ZM704.747 241.127V287.37H712.188V241.127H704.747Z" fill="#959DA8"/>
<path d="M721.102 240.703H712.812V287.794H721.102V240.703Z" fill="#F4F5F6"/>
<path fill-rule="evenodd" clip-rule="evenodd" d="M712.387 240.278H721.525V288.219H712.387V240.278ZM713.235 241.127V287.37H720.677V241.127H713.235Z" fill="#959DA8"/>
<path fill-rule="evenodd" clip-rule="evenodd" d="M699.547 240.279H814.943V288.643H699.547V240.279ZM701.244 241.976V286.946H813.246V241.976H701.244Z" fill="#959DA8"/>
<path fill-rule="evenodd" clip-rule="evenodd" d="M814.089 57.2942C814.554 57.3519 814.884 57.7757 814.827 58.2408L803.058 152.984C803 153.449 802.576 153.78 802.111 153.722C801.646 153.664 801.316 153.24 801.374 152.775L813.143 58.0316C813.2 57.5666 813.624 57.2364 814.089 57.2942Z" fill="#959DA8"/>
<path d="M853.9 88.1434C846.94 89.0104 839.93 89.413 832.916 89.3482L830.922 86.4209L829.539 89.2464C822.045 89.0356 814.572 88.3498 807.164 87.1931C805.122 86.8763 803.103 86.5284 801.106 86.1494L799.146 85.7591C796.979 85.3235 794.838 84.8512 792.723 84.3421L791.628 84.0706L790.253 83.7227L789.66 83.57L789.134 79.879L785.74 82.5093L786.164 82.6281L785.74 82.5093L785.307 82.3821L784.874 82.2633C783.522 81.873 782.182 81.4657 780.852 81.0414L778.307 80.1929C777.424 79.8988 776.545 79.5961 775.668 79.285L774.395 78.8268L773.861 78.6317L772.528 78.1396L771.884 77.8935L770.636 77.4098L768.269 76.4595H768.175L766.962 75.9504C766.19 75.628 765.418 75.2886 764.654 74.9577C764.367 74.8251 764.119 74.6199 763.934 74.3622C763.75 74.1046 763.636 73.8034 763.603 73.4883C763.571 73.1732 763.621 72.8551 763.749 72.5652C763.876 72.2754 764.077 72.0238 764.332 71.8352C766.455 70.2875 768.671 68.8707 770.967 67.5927L771.553 67.2703C772.684 66.648 773.841 66.0597 775.023 65.5054L776.448 64.8605C778.837 63.8071 781.289 62.9004 783.788 62.1453L784.543 61.9247C787.088 61.1994 789.675 60.6327 792.29 60.2277L793.792 60.0071C794.581 59.8968 795.378 59.8035 796.176 59.7271C796.711 59.6762 797.245 59.6253 797.78 59.5913L798.586 59.5404H799.154C800.048 59.4895 800.948 59.4612 801.853 59.4556H803.439C804.093 59.4556 804.746 59.4556 805.399 59.515L806.35 59.5659H806.74L808.208 59.6762C809.645 59.8063 811.087 59.9816 812.535 60.2023C820.933 61.4854 828.996 64.4113 836.263 68.8125C843.529 73.2138 849.857 79.0041 854.884 85.8524C855.032 86.0559 855.124 86.2942 855.152 86.544C855.18 86.7939 855.142 87.0467 855.043 87.2777C854.944 87.5086 854.786 87.7099 854.586 87.8616C854.385 88.0134 854.149 88.1105 853.9 88.1434Z" fill="#D3DCE5"/>
<path fill-rule="evenodd" clip-rule="evenodd" d="M789.142 86.793L789.574 86.8439L789.507 87.4169L789.074 87.366L789.142 86.793Z" fill="#959DA8"/>
<path fill-rule="evenodd" clip-rule="evenodd" d="M789.496 80.0176C789.496 80.0176 789.496 80.0176 789.131 79.8023C788.765 79.5869 788.765 79.5868 788.766 79.5865L788.768 79.583L788.774 79.5726L788.797 79.5332C788.818 79.4986 788.849 79.4478 788.889 79.3817C788.97 79.2495 789.09 79.0563 789.247 78.8101C789.56 78.3178 790.021 77.6137 790.616 76.7632C791.804 75.0629 793.524 72.7746 795.655 70.4235C799.901 65.7395 805.843 60.7301 812.495 59.7314L812.621 60.5705C806.274 61.5234 800.502 66.3396 796.284 70.9934C794.183 73.3112 792.485 75.5698 791.311 77.2492C790.725 78.0886 790.27 78.7825 789.962 79.2657C789.808 79.5074 789.691 79.6963 789.613 79.8243C789.574 79.8883 789.545 79.9371 789.525 79.9697L789.503 80.0062L789.498 80.0151L789.496 80.0176Z" fill="#959DA8"/>
<path fill-rule="evenodd" clip-rule="evenodd" d="M831.41 86.2043C831.41 86.2046 831.41 86.2048 830.996 86.299C830.582 86.3933 830.582 86.3933 830.582 86.3933L830.582 86.3904L830.579 86.3804L830.57 86.3389C830.561 86.302 830.548 86.2465 830.53 86.1736C830.494 86.0279 830.44 85.8123 830.367 85.5354C830.22 84.9815 829.997 84.1822 829.693 83.2043C829.085 81.2479 828.151 78.5802 826.852 75.7342C824.244 70.0202 820.204 63.681 814.441 60.8515L814.815 60.0898C820.855 63.0556 824.999 69.6306 827.624 75.3819C828.942 78.2686 829.887 80.9714 830.503 82.9523C830.812 83.9431 831.038 84.7541 831.187 85.3184C831.262 85.6006 831.317 85.8211 831.354 85.9716C831.372 86.0469 831.386 86.1046 831.395 86.1438L831.406 86.1886L831.409 86.2003L831.41 86.2043Z" fill="#959DA8"/>
<path d="M758.432 110.033V157.125H750.32L750.329 110.033H758.432Z" fill="#F4F5F6"/>
<path fill-rule="evenodd" clip-rule="evenodd" d="M749.907 109.609H758.859V157.549H749.898L749.907 109.609ZM750.755 110.457L750.747 156.701H758.01V110.457H750.755Z" fill="#959DA8"/>
<path d="M749.947 110.033V157.125H741.836L741.844 110.033H749.947Z" fill="#F4F5F6"/>
<path fill-rule="evenodd" clip-rule="evenodd" d="M741.423 109.609H750.374V157.549H741.414L741.423 109.609ZM742.271 110.457L742.263 156.701H749.526V110.457H742.271Z" fill="#959DA8"/>
<path d="M766.923 110.033H758.633V157.125H766.923V110.033Z" fill="#F4F5F6"/>
<path fill-rule="evenodd" clip-rule="evenodd" d="M758.207 109.609H767.345V157.549H758.207V109.609ZM759.056 110.457V156.701H766.497V110.457H759.056Z" fill="#959DA8"/>
<path d="M775.403 110.033H767.113V157.125H775.403V110.033Z" fill="#F4F5F6"/>
<path fill-rule="evenodd" clip-rule="evenodd" d="M766.688 109.609H775.826V157.549H766.688V109.609ZM767.536 110.457V156.701H774.977V110.457H767.536Z" fill="#959DA8"/>
<path d="M783.891 110.033H775.602V157.125H783.891V110.033Z" fill="#F4F5F6"/>
<path fill-rule="evenodd" clip-rule="evenodd" d="M775.176 109.609H784.314V157.549H775.176V109.609ZM776.024 110.457V156.701H783.466V110.457H776.024Z" fill="#959DA8"/>
<path d="M716.858 110.033V157.125H708.746L708.755 110.033H716.858Z" fill="#F4F5F6"/>
<path fill-rule="evenodd" clip-rule="evenodd" d="M708.333 109.609H717.285V157.549H708.324L708.333 109.609ZM709.181 110.457L709.173 156.701H716.436V110.457H709.181Z" fill="#959DA8"/>
<path d="M708.37 110.033V157.125H700.258L700.266 110.033H708.37Z" fill="#F4F5F6"/>
<path fill-rule="evenodd" clip-rule="evenodd" d="M699.845 109.609H708.796V157.549H699.836L699.845 109.609ZM700.693 110.457L700.685 156.701H707.948V110.457H700.693Z" fill="#959DA8"/>
<path d="M699.889 110.033V157.125H691.777L691.786 110.033H699.889Z" fill="#F4F5F6"/>
<path fill-rule="evenodd" clip-rule="evenodd" d="M691.36 109.609H700.312V157.549H691.352L691.36 109.609ZM692.209 110.457L692.2 156.701H699.463V110.457H692.209Z" fill="#959DA8"/>
<path d="M691.401 110.033V157.125H683.289L683.298 110.033H691.401Z" fill="#F4F5F6"/>
<path fill-rule="evenodd" clip-rule="evenodd" d="M682.876 109.609H691.827V157.549H682.867L682.876 109.609ZM683.724 110.457L683.716 156.701H690.979V110.457H683.724Z" fill="#959DA8"/>
<path d="M725.341 110.033H717.051V157.125H725.341V110.033Z" fill="#F4F5F6"/>
<path fill-rule="evenodd" clip-rule="evenodd" d="M716.629 109.609H725.767V157.549H716.629V109.609ZM717.477 110.457V156.701H724.919V110.457H717.477Z" fill="#959DA8"/>
<path d="M733.829 110.033H725.539V157.125H733.829V110.033Z" fill="#F4F5F6"/>
<path fill-rule="evenodd" clip-rule="evenodd" d="M725.113 109.609H734.252V157.549H725.113V109.609ZM725.962 110.457V156.701H733.403V110.457H725.962Z" fill="#959DA8"/>
<path d="M742.313 110.033H734.023V157.125H742.313V110.033Z" fill="#F4F5F6"/>
<path fill-rule="evenodd" clip-rule="evenodd" d="M733.598 109.609H742.736V157.549H733.598V109.609ZM734.446 110.457V156.701H741.888V110.457H734.446Z" fill="#959DA8"/>
<path d="M792.372 110.033H784.082V157.125H792.372V110.033Z" fill="#F4F5F6"/>
<path fill-rule="evenodd" clip-rule="evenodd" d="M783.66 109.609H792.799V157.549H783.66V109.609ZM784.509 110.457V156.701H791.95V110.457H784.509Z" fill="#959DA8"/>
<path d="M800.86 110.033H792.57V157.125H800.86V110.033Z" fill="#F4F5F6"/>
<path fill-rule="evenodd" clip-rule="evenodd" d="M792.145 109.609H801.283V157.549H792.145V109.609ZM792.993 110.457V156.701H800.434V110.457H792.993Z" fill="#959DA8"/>
<path d="M809.345 110.033H801.055V157.125H809.345V110.033Z" fill="#F4F5F6"/>
<path fill-rule="evenodd" clip-rule="evenodd" d="M800.629 109.609H809.767V157.549H800.629V109.609ZM801.477 110.457V156.701H808.919V110.457H801.477Z" fill="#959DA8"/>
<path d="M817.829 110.033H809.539V157.125H817.829V110.033Z" fill="#F4F5F6"/>
<path fill-rule="evenodd" clip-rule="evenodd" d="M809.117 109.609H818.256V157.549H809.117V109.609ZM809.966 110.457V156.701H817.407V110.457H809.966Z" fill="#959DA8"/>
<path d="M826.313 110.033H818.023V157.125H826.313V110.033Z" fill="#F4F5F6"/>
<path fill-rule="evenodd" clip-rule="evenodd" d="M817.602 109.609H826.74V157.549H817.602V109.609ZM818.45 110.457V156.701H825.891V110.457H818.45Z" fill="#959DA8"/>
<path d="M834.802 110.033H826.512V157.125H834.802V110.033Z" fill="#F4F5F6"/>
<path fill-rule="evenodd" clip-rule="evenodd" d="M826.086 109.609H835.224V157.549H826.086V109.609ZM826.934 110.457V156.701H834.376V110.457H826.934Z" fill="#959DA8"/>
<path fill-rule="evenodd" clip-rule="evenodd" d="M682.578 109.607H835.308V157.972H682.578V109.607ZM684.275 111.304V156.275H833.611V111.304H684.275Z" fill="#959DA8"/>
<path d="M205.143 322.582H168.785V406.269H205.143V322.582Z" fill="#D3DCE5"/>
<path d="M199.992 328.522H173.918V369.912H199.992V328.522Z" fill="white"/>
<path fill-rule="evenodd" clip-rule="evenodd" d="M173.473 328.077H200.438V370.358H173.473V328.077ZM174.364 328.968V369.467H199.547V328.968H174.364Z" fill="#959DA8"/>
<path d="M175.599 376.459C176.537 376.459 177.296 375.7 177.296 374.762C177.296 373.825 176.537 373.065 175.599 373.065C174.662 373.065 173.902 373.825 173.902 374.762C173.902 375.7 174.662 376.459 175.599 376.459Z" fill="white"/>
<path fill-rule="evenodd" clip-rule="evenodd" d="M175.602 373.49C174.899 373.49 174.329 374.06 174.329 374.763C174.329 375.466 174.899 376.036 175.602 376.036C176.305 376.036 176.874 375.466 176.874 374.763C176.874 374.06 176.305 373.49 175.602 373.49ZM173.48 374.763C173.48 373.591 174.43 372.642 175.602 372.642C176.773 372.642 177.723 373.591 177.723 374.763C177.723 375.934 176.773 376.884 175.602 376.884C174.43 376.884 173.48 375.934 173.48 374.763Z" fill="#959DA8"/>
<path d="M133.141 322.582H169.499V406.269H133.141V322.582Z" fill="#D3DCE5"/>
<path d="M138.289 369.909H164.363V328.519H138.289V369.909Z" fill="white"/>
<path fill-rule="evenodd" clip-rule="evenodd" d="M164.809 370.354H137.843V328.074H164.809V370.354ZM163.918 369.464V328.965H138.734V369.464H163.918Z" fill="#959DA8"/>
<path d="M162.681 376.459C163.619 376.459 164.378 375.7 164.378 374.762C164.378 373.825 163.619 373.065 162.681 373.065C161.744 373.065 160.984 373.825 160.984 374.762C160.984 375.7 161.744 376.459 162.681 376.459Z" fill="white"/>
<path fill-rule="evenodd" clip-rule="evenodd" d="M162.684 373.49C161.981 373.49 161.411 374.06 161.411 374.763C161.411 375.466 161.981 376.036 162.684 376.036C163.387 376.036 163.957 375.466 163.957 374.763C163.957 374.06 163.387 373.49 162.684 373.49ZM160.562 374.763C160.562 373.591 161.512 372.642 162.684 372.642C163.855 372.642 164.805 373.591 164.805 374.763C164.805 375.934 163.855 376.884 162.684 376.884C161.512 376.884 160.562 375.934 160.562 374.763Z" fill="#959DA8"/>
<path d="M220.146 411.989H120.277V420.279H220.146V411.989Z" fill="#D3DCE5"/>
<path fill-rule="evenodd" clip-rule="evenodd" d="M119.656 411.37H220.764V420.898H119.656V411.37ZM120.895 412.608V419.659H219.525V412.608H120.895Z" fill="#959DA8"/>
<path d="M220.146 403.714H120.277V412.004H220.146V403.714Z" fill="#D3DCE5"/>
<path fill-rule="evenodd" clip-rule="evenodd" d="M119.656 403.094H220.764V412.623H119.656V403.094ZM120.895 404.333V411.384H219.525V404.333H120.895Z" fill="#959DA8"/>
</svg>
