<svg width="700" height="424" viewBox="0 0 700 424" fill="none" xmlns="http://www.w3.org/2000/svg">
<path d="M605.037 0.000488281H170.25V14.4061H605.037V0.000488281Z" fill="#D3DCE5"/>
<path d="M129.763 279.271C129.542 279.271 129.323 279.247 129.108 279.199C119.076 276.914 119.076 264.794 119.076 264.794C119 257.881 121.041 251.111 124.924 245.392C125.467 244.613 126.19 243.976 127.032 243.536C127.874 243.097 128.809 242.867 129.759 242.867C130.709 242.867 131.645 243.097 132.487 243.536C133.329 243.976 134.052 244.613 134.595 245.392C138.48 251.111 140.523 257.881 140.449 264.794C140.449 264.794 140.449 276.96 130.417 279.199C130.202 279.247 129.983 279.271 129.763 279.271Z" fill="#80C33F"/>
<path fill-rule="evenodd" clip-rule="evenodd" d="M129.761 255.922C129.942 255.922 130.088 256.069 130.088 256.25V297.568C130.088 297.748 129.942 297.895 129.761 297.895C129.58 297.895 129.434 297.748 129.434 297.568V256.25C129.434 256.069 129.58 255.922 129.761 255.922Z" fill="#2A3A51"/>
<path d="M633.958 90.0356C633.738 90.0354 633.518 90.0113 633.303 89.9635C623.272 87.6783 623.272 75.5579 623.272 75.5579C623.196 68.6456 625.236 61.8754 629.119 56.1562C629.662 55.3768 630.385 54.7402 631.227 54.3006C632.069 53.8609 633.005 53.6313 633.955 53.6313C634.904 53.6313 635.84 53.8609 636.682 54.3006C637.524 54.7402 638.247 55.3768 638.79 56.1562C642.676 61.8747 644.718 68.6449 644.644 75.5579C644.644 75.5579 644.644 87.7241 634.613 89.9635C634.398 90.0113 634.178 90.0354 633.958 90.0356Z" fill="#80C33F"/>
<path fill-rule="evenodd" clip-rule="evenodd" d="M633.956 66.6846C634.137 66.6846 634.284 66.8312 634.284 67.012V108.33C634.284 108.511 634.137 108.657 633.956 108.657C633.775 108.657 633.629 108.511 633.629 108.33V67.012C633.629 66.8312 633.775 66.6846 633.956 66.6846Z" fill="#2A3A51"/>
<path d="M605.035 281.106C605.029 279.649 605.374 278.212 606.041 276.916C606.708 275.62 607.678 274.504 608.867 273.662C610.057 272.82 611.431 272.276 612.875 272.078C614.319 271.88 615.79 272.032 617.162 272.522C617.693 270.386 618.767 268.424 620.281 266.826C621.795 265.228 623.696 264.05 625.8 263.405C627.905 262.76 630.14 262.671 632.289 263.147C634.438 263.622 636.427 264.646 638.063 266.118C639.219 262.886 641.478 260.166 644.442 258.437C647.406 256.707 650.885 256.079 654.267 256.663C657.649 257.246 660.716 259.005 662.929 261.628C665.142 264.251 666.358 267.571 666.364 271.003C666.366 271.51 666.339 272.017 666.285 272.522C667.267 272.162 666.816 282.73 666.586 283.529H605.363C605.143 282.734 605.033 281.912 605.035 281.087V281.106Z" fill="#80C33F"/>
<path d="M210.849 95.1419C210.855 93.6845 210.51 92.2471 209.843 90.9513C209.176 89.6554 208.206 88.5393 207.017 87.6972C205.827 86.8552 204.453 86.312 203.009 86.1136C201.565 85.9152 200.094 86.0675 198.722 86.5575C198.191 84.4215 197.117 82.4592 195.603 80.8615C194.089 79.2639 192.188 78.0854 190.084 77.4406C187.979 76.7959 185.744 76.7069 183.595 77.1823C181.446 77.6577 179.457 78.6813 177.821 80.1536C176.665 76.9221 174.406 74.2021 171.442 72.4724C168.478 70.7428 164.999 70.1145 161.617 70.6983C158.235 71.282 155.168 73.0403 152.955 75.6635C150.742 78.2867 149.526 81.6065 149.52 85.0384C149.518 85.5458 149.545 86.053 149.599 86.5575C148.617 86.1974 149.068 96.7658 149.298 97.5647H210.521C210.741 96.7692 210.851 95.9475 210.849 95.1223V95.1419Z" fill="#80C33F"/>
<path d="M575.097 18.7624L201.922 19.8696L202.214 118.404L575.39 117.296L575.097 18.7624Z" fill="white"/>
<path fill-rule="evenodd" clip-rule="evenodd" d="M201.547 19.4941L575.475 18.3847L575.77 117.672L201.841 118.781L201.547 19.4941ZM202.302 20.2449L202.592 118.026L575.015 116.921L574.725 19.1399L202.302 20.2449Z" fill="#959DA8"/>
<path d="M456.9 14.0155L576.224 14.0221V24.6495H201.023V14.0024L456.9 14.0155Z" fill="#F4F5F6"/>
<path fill-rule="evenodd" clip-rule="evenodd" d="M200.695 13.6753L576.551 13.695V24.9772H200.695V13.6753ZM201.35 14.3301V24.3224H575.896V14.3497L201.35 14.3301Z" fill="#959DA8"/>
<path d="M576.224 24.6534V35.2808H201.023V24.6338L456.9 24.6469L576.224 24.6534Z" fill="#F4F5F6"/>
<path fill-rule="evenodd" clip-rule="evenodd" d="M200.695 24.3062L576.551 24.3258V35.608H200.695V24.3062ZM201.35 24.961V34.9532H575.896V24.9806L201.35 24.961Z" fill="#959DA8"/>
<path d="M508.059 35.2797H576.224V45.9137H201.023V35.2666H202.824L508.059 35.2797Z" fill="#F4F5F6"/>
<path fill-rule="evenodd" clip-rule="evenodd" d="M200.695 34.9395L576.551 34.9525V46.2413H200.695V34.9395ZM201.35 35.5943V45.5865H575.896V35.6073L201.35 35.5943Z" fill="#959DA8"/>
<path d="M202.824 45.6191L576.224 45.6388V56.2662H201.023V45.6191H202.824Z" fill="#F4F5F6"/>
<path fill-rule="evenodd" clip-rule="evenodd" d="M200.695 45.2915L576.551 45.3112V56.5934H200.695V45.2915ZM201.35 45.9463V55.9386H575.896V45.9659L201.35 45.9463Z" fill="#959DA8"/>
<path d="M576.224 56.265V66.899H201.023V56.252L508.059 56.265H576.224Z" fill="#F4F5F6"/>
<path fill-rule="evenodd" clip-rule="evenodd" d="M200.695 55.9248L576.551 55.9379V67.2267H200.695V55.9248ZM201.35 56.5796V66.5719H575.896V56.5927L201.35 56.5796Z" fill="#959DA8"/>
<path d="M576.224 66.9023V77.5297H201.023V66.8892L508.059 66.9023H576.224Z" fill="#F4F5F6"/>
<path fill-rule="evenodd" clip-rule="evenodd" d="M200.695 66.5615L576.551 66.5746V77.8568H200.695V66.5615ZM201.35 67.2164V77.202H575.896V67.2294L201.35 67.2164Z" fill="#959DA8"/>
<path d="M576.224 77.5377V88.1651H201.023V77.5181L456.9 77.5312L576.224 77.5377Z" fill="#F4F5F6"/>
<path fill-rule="evenodd" clip-rule="evenodd" d="M200.695 77.1909L576.551 77.2106V88.4928H200.695V77.1909ZM201.35 77.8458V87.838H575.896V77.8654L201.35 77.8458Z" fill="#959DA8"/>
<path d="M576.224 88.171V98.7984H201.023V88.1514L456.9 88.1645L576.224 88.171Z" fill="#F4F5F6"/>
<path fill-rule="evenodd" clip-rule="evenodd" d="M200.695 87.8237L576.551 87.8434V99.1256H200.695V87.8237ZM201.35 88.4786V98.4708H575.896V88.4982L201.35 88.4786Z" fill="#959DA8"/>
<path d="M508.059 98.7973H576.224V109.431H201.023V98.7842H202.824L508.059 98.7973Z" fill="#F4F5F6"/>
<path fill-rule="evenodd" clip-rule="evenodd" d="M200.695 98.457L576.551 98.4701V109.759H200.695V98.457ZM201.35 99.1118V109.104H575.896V99.1249L201.35 99.1118Z" fill="#959DA8"/>
<path d="M202.824 109.137L576.224 109.156V119.784H201.023V109.137H202.824Z" fill="#F4F5F6"/>
<path fill-rule="evenodd" clip-rule="evenodd" d="M200.695 108.81L576.551 108.829V120.111H200.695V108.81ZM201.35 109.464V119.457H575.896V109.484L201.35 109.464Z" fill="#959DA8"/>
<path d="M575.79 217.805L201.246 218.916L201.547 320.41L576.091 319.298L575.79 217.805Z" fill="white"/>
<path fill-rule="evenodd" clip-rule="evenodd" d="M200.859 218.534L576.17 217.421L576.473 319.68L201.163 320.794L200.859 218.534ZM201.628 219.298L201.927 320.025L575.705 318.916L575.406 218.189L201.628 219.298Z" fill="#959DA8"/>
<path d="M201.16 43.875H300.035V118.45H201.16V43.875Z" fill="white"/>
<path fill-rule="evenodd" clip-rule="evenodd" d="M200.832 43.5479H300.362V118.778H200.832V43.5479ZM201.487 44.2027V118.123H299.707V44.2027H201.487Z" fill="#959DA8"/>
<path fill-rule="evenodd" clip-rule="evenodd" d="M250.246 117.865V44.3701H250.901V117.865H250.246Z" fill="#959DA8"/>
<path d="M201.16 229.837H300.69V310.378H201.16V229.837Z" fill="white"/>
<path fill-rule="evenodd" clip-rule="evenodd" d="M200.832 229.51H301.016V310.705H200.832V229.51ZM201.487 230.165V310.051H300.362V230.165H201.487Z" fill="#959DA8"/>
<path fill-rule="evenodd" clip-rule="evenodd" d="M250.902 309.733V230.372H251.557V309.733H250.902Z" fill="#959DA8"/>
<path d="M477.488 229.837H576.363V310.378H477.488V229.837Z" fill="white"/>
<path fill-rule="evenodd" clip-rule="evenodd" d="M477.16 229.51H576.69V310.705H477.16V229.51ZM477.815 230.165V310.051H576.035V230.165H477.815Z" fill="#959DA8"/>
<path fill-rule="evenodd" clip-rule="evenodd" d="M526.559 309.733V230.372H527.24V309.733H526.559Z" fill="#959DA8"/>
<path d="M201.16 330.017H300.035V421.689H201.16V330.017Z" fill="white"/>
<path fill-rule="evenodd" clip-rule="evenodd" d="M200.832 329.689H300.362V422.016H200.832V329.689ZM201.487 330.344V421.361H299.707V330.344H201.487Z" fill="#959DA8"/>
<path fill-rule="evenodd" clip-rule="evenodd" d="M250.246 420.958V330.628H250.901V420.958H250.246Z" fill="#959DA8"/>
<path d="M185.445 131.615H284.32V206.19H185.445V131.615Z" fill="white"/>
<path fill-rule="evenodd" clip-rule="evenodd" d="M185.117 131.288H284.647V206.518H185.117V131.288ZM185.772 131.942V205.863H283.992V131.942H185.772Z" fill="#959DA8"/>
<path fill-rule="evenodd" clip-rule="evenodd" d="M262.031 205.609V132.114H262.686V205.609H262.031Z" fill="#959DA8"/>
<path fill-rule="evenodd" clip-rule="evenodd" d="M234.531 205.609V132.114H235.186V205.609H234.531Z" fill="#959DA8"/>
<path fill-rule="evenodd" clip-rule="evenodd" d="M207.027 205.609V132.114H207.682V205.609H207.027Z" fill="#959DA8"/>
<path d="M477.488 43.875H576.363V118.45H477.488V43.875Z" fill="white"/>
<path fill-rule="evenodd" clip-rule="evenodd" d="M477.16 43.5479H576.69V118.778H477.16V43.5479ZM477.815 44.2027V118.123H576.035V44.2027H477.815Z" fill="#959DA8"/>
<path fill-rule="evenodd" clip-rule="evenodd" d="M526.57 117.865V44.3701H527.225V117.865H526.57Z" fill="#959DA8"/>
<path d="M142.75 118.519V219.358H316.927V421.691H460.983V219.358H634.505V118.519H142.75Z" fill="#F4F5F6"/>
<path fill-rule="evenodd" clip-rule="evenodd" d="M142.094 117.864H635.158V220.013H461.636V422.346H316.271V220.013H142.094V117.864ZM143.403 119.174V218.703H317.58V421.037H460.327V218.703H633.849V119.174H143.403Z" fill="#959DA8"/>
<path d="M169.074 133.579H267.949V208.154H169.074V133.579Z" fill="white"/>
<path fill-rule="evenodd" clip-rule="evenodd" d="M168.746 133.251H268.276V208.481H168.746V133.251ZM169.401 133.906V207.827H267.621V133.906H169.401Z" fill="#959DA8"/>
<path fill-rule="evenodd" clip-rule="evenodd" d="M244.352 207.572V134.078H245.006V207.572H244.352Z" fill="#959DA8"/>
<path fill-rule="evenodd" clip-rule="evenodd" d="M218.16 207.572V134.078H218.815V207.572H218.16Z" fill="#959DA8"/>
<path fill-rule="evenodd" clip-rule="evenodd" d="M191.969 207.572V134.078H192.624V207.572H191.969Z" fill="#959DA8"/>
<path d="M339.324 133.579H438.199V208.154H339.324V133.579Z" fill="white"/>
<path fill-rule="evenodd" clip-rule="evenodd" d="M338.996 133.251H438.526V208.481H338.996V133.251ZM339.651 133.906V207.827H437.871V133.906H339.651Z" fill="#959DA8"/>
<path fill-rule="evenodd" clip-rule="evenodd" d="M414.598 208.227V133.423H415.252V208.227H414.598Z" fill="#959DA8"/>
<path fill-rule="evenodd" clip-rule="evenodd" d="M388.41 208.227V133.423H389.065V208.227H388.41Z" fill="#959DA8"/>
<path fill-rule="evenodd" clip-rule="evenodd" d="M362.215 208.227V133.423H362.87V208.227H362.215Z" fill="#959DA8"/>
<path d="M292.395 133.579H314.848V208.154H292.395V133.579Z" fill="white"/>
<path fill-rule="evenodd" clip-rule="evenodd" d="M292.07 133.251H315.178V208.481H292.07V133.251ZM292.725 133.906V207.827H314.523V133.906H292.725Z" fill="#959DA8"/>
<path d="M462.641 133.579H485.094V208.154H462.641V133.579Z" fill="white"/>
<path fill-rule="evenodd" clip-rule="evenodd" d="M462.312 133.251H485.42V208.481H462.312V133.251ZM462.967 133.906V207.827H484.766V133.906H462.967Z" fill="#959DA8"/>
<path d="M378.172 229.837H400.625V303.83H378.172V229.837Z" fill="white"/>
<path fill-rule="evenodd" clip-rule="evenodd" d="M377.844 229.51H400.952V304.157H377.844V229.51ZM378.499 230.165V303.503H400.297V230.165H378.499Z" fill="#959DA8"/>
<path d="M378.172 331.982H400.625V405.975H378.172V331.982Z" fill="white"/>
<path fill-rule="evenodd" clip-rule="evenodd" d="M377.844 331.655H400.952V406.302H377.844V331.655ZM378.499 332.31V405.648H400.297V332.31H378.499Z" fill="#959DA8"/>
<path d="M481.633 331.982H504.086V405.975H481.633V331.982Z" fill="white"/>
<path fill-rule="evenodd" clip-rule="evenodd" d="M481.305 331.655H504.413V406.302H481.305V331.655ZM481.959 332.31V405.648H503.758V332.31H481.959Z" fill="#959DA8"/>
<path d="M596.223 331.982H618.676V405.975H596.223V331.982Z" fill="white"/>
<path fill-rule="evenodd" clip-rule="evenodd" d="M595.895 331.655H619.002V406.302H595.895V331.655ZM596.549 332.31V405.648H618.348V332.31H596.549Z" fill="#959DA8"/>
<path d="M509.574 133.579H608.449V208.154H509.574V133.579Z" fill="white"/>
<path fill-rule="evenodd" clip-rule="evenodd" d="M509.246 133.251H608.776V208.481H509.246V133.251ZM509.901 133.906V207.827H608.121V133.906H509.901Z" fill="#959DA8"/>
<path fill-rule="evenodd" clip-rule="evenodd" d="M584.848 208.227V133.423H585.502V208.227H584.848Z" fill="#959DA8"/>
<path fill-rule="evenodd" clip-rule="evenodd" d="M558.656 208.227V133.423H559.311V208.227H558.656Z" fill="#959DA8"/>
<path fill-rule="evenodd" clip-rule="evenodd" d="M532.461 208.227V133.423H533.116V208.227H532.461Z" fill="#959DA8"/>
<path d="M588.928 82.1772V118.519H582.668L582.674 82.1772H588.928Z" fill="#F4F5F6"/>
<path fill-rule="evenodd" clip-rule="evenodd" d="M582.346 81.8496H589.255V118.846H582.34L582.346 81.8496ZM583.001 82.5044L582.995 118.191H588.6V82.5044H583.001Z" fill="#959DA8"/>
<path d="M582.381 82.1772V118.519H576.121L576.128 82.1772H582.381Z" fill="#F4F5F6"/>
<path fill-rule="evenodd" clip-rule="evenodd" d="M575.8 81.8496H582.708V118.846H575.793L575.8 81.8496ZM576.454 82.5044L576.448 118.191H582.053V82.5044H576.454Z" fill="#959DA8"/>
<path d="M595.476 82.1772H589.078V118.519H595.476V82.1772Z" fill="#F4F5F6"/>
<path fill-rule="evenodd" clip-rule="evenodd" d="M588.75 81.8496H595.802V118.846H588.75V81.8496ZM589.405 82.5044V118.191H595.147V82.5044H589.405Z" fill="#959DA8"/>
<path d="M602.022 82.1772H595.625V118.519H602.022V82.1772Z" fill="#F4F5F6"/>
<path fill-rule="evenodd" clip-rule="evenodd" d="M595.297 81.8496H602.349V118.846H595.297V81.8496ZM595.952 82.5044V118.191H601.694V82.5044H595.952Z" fill="#959DA8"/>
<path d="M608.573 82.1772H602.176V118.519H608.573V82.1772Z" fill="#F4F5F6"/>
<path fill-rule="evenodd" clip-rule="evenodd" d="M601.848 81.8496H608.9V118.846H601.848V81.8496ZM602.502 82.5044V118.191H608.245V82.5044H602.502Z" fill="#959DA8"/>
<path d="M615.12 82.1772H608.723V118.519H615.12V82.1772Z" fill="#F4F5F6"/>
<path fill-rule="evenodd" clip-rule="evenodd" d="M608.395 81.8496H615.447V118.846H608.395V81.8496ZM609.049 82.5044V118.191H614.792V82.5044H609.049Z" fill="#959DA8"/>
<path d="M621.667 82.1772H615.27V118.519H621.667V82.1772Z" fill="#F4F5F6"/>
<path fill-rule="evenodd" clip-rule="evenodd" d="M614.941 81.8496H621.994V118.846H614.941V81.8496ZM615.596 82.5044V118.191H621.339V82.5044H615.596Z" fill="#959DA8"/>
<path d="M628.214 82.1772H621.816V118.519H628.214V82.1772Z" fill="#F4F5F6"/>
<path fill-rule="evenodd" clip-rule="evenodd" d="M621.492 81.8496H628.544V118.846H621.492V81.8496ZM622.147 82.5044V118.191H627.89V82.5044H622.147Z" fill="#959DA8"/>
<path d="M634.761 82.1772H628.363V118.519H634.761V82.1772Z" fill="#F4F5F6"/>
<path fill-rule="evenodd" clip-rule="evenodd" d="M628.039 81.8496H635.091V118.846H628.039V81.8496ZM628.694 82.5044V118.191H634.436V82.5044H628.694Z" fill="#959DA8"/>
<path d="M641.308 82.1772H634.91V118.519H641.308V82.1772Z" fill="#F4F5F6"/>
<path fill-rule="evenodd" clip-rule="evenodd" d="M634.586 81.8496H641.638V118.846H634.586V81.8496ZM635.241 82.5044V118.191H640.983V82.5044H635.241Z" fill="#959DA8"/>
<path d="M647.858 82.1772H641.461V118.519H647.858V82.1772Z" fill="#F4F5F6"/>
<path fill-rule="evenodd" clip-rule="evenodd" d="M641.133 81.8496H648.185V118.846H641.133V81.8496ZM641.788 82.5044V118.191H647.53V82.5044H641.788Z" fill="#959DA8"/>
<path fill-rule="evenodd" clip-rule="evenodd" d="M575.746 81.8516H648.252V119.175H575.746V81.8516ZM577.056 83.1612V117.866H646.943V83.1612H577.056Z" fill="#959DA8"/>
<path d="M96.2539 219.358V229.835H300.552V310.376H96.2539V320.852H316.922V219.358H96.2539Z" fill="#D3DCE5"/>
<path fill-rule="evenodd" clip-rule="evenodd" d="M103.898 310.375V230.333H105.208V310.375H103.898Z" fill="#959DA8"/>
<path d="M681.648 219.358V229.835H477.35V310.376H681.648V320.852H460.98V219.358H681.648Z" fill="#D3DCE5"/>
<path d="M699.946 187.421H660.73V207.975H699.946V187.421Z" fill="white"/>
<path d="M699.917 187.345H660.734V188.971H699.917V187.345Z" fill="#B22234"/>
<path d="M699.917 190.526H660.734V192.152H699.917V190.526Z" fill="#B22234"/>
<path d="M699.917 193.705H660.734V195.331H699.917V193.705Z" fill="#B22234"/>
<path d="M699.917 196.886H660.734V198.512H699.917V196.886Z" fill="#B22234"/>
<path d="M699.917 200.067H660.734V201.693H699.917V200.067Z" fill="#B22234"/>
<path d="M699.917 203.246H660.734V204.872H699.917V203.246Z" fill="#B22234"/>
<path d="M699.917 206.426H660.734V208.052H699.917V206.426Z" fill="#B22234"/>
<path d="M676.38 187.345H660.73V198.512H676.38V187.345Z" fill="#2A3A51"/>
<path d="M662.062 187.772L662.208 188.228H662.682L662.299 188.51L662.445 188.966L662.062 188.684L661.678 188.966L661.825 188.51L661.441 188.228H661.915L662.062 187.772Z" fill="white"/>
<path d="M663.355 188.918L663.501 189.374H663.975L663.592 189.656L663.738 190.112L663.355 189.83L662.971 190.112L663.118 189.656L662.734 189.374H663.208L663.355 188.918Z" fill="white"/>
<path d="M663.355 191.158L663.501 191.613H663.975L663.592 191.895L663.738 192.351L663.355 192.069L662.971 192.351L663.118 191.895L662.734 191.613H663.208L663.355 191.158Z" fill="white"/>
<path d="M663.355 193.396L663.501 193.852H663.975L663.592 194.134L663.738 194.589L663.355 194.308L662.971 194.589L663.118 194.134L662.734 193.852H663.208L663.355 193.396Z" fill="white"/>
<path d="M663.355 195.634L663.501 196.09H663.975L663.592 196.372L663.738 196.828L663.355 196.546L662.971 196.828L663.118 196.372L662.734 196.09H663.208L663.355 195.634Z" fill="white"/>
<path d="M665.968 188.918L666.114 189.374H666.588L666.205 189.656L666.352 190.112L665.968 189.83L665.585 190.112L665.731 189.656L665.348 189.374H665.822L665.968 188.918Z" fill="white"/>
<path d="M665.968 191.158L666.114 191.613H666.588L666.205 191.895L666.352 192.351L665.968 192.069L665.585 192.351L665.731 191.895L665.348 191.613H665.822L665.968 191.158Z" fill="white"/>
<path d="M665.968 193.396L666.114 193.852H666.588L666.205 194.134L666.352 194.589L665.968 194.308L665.585 194.589L665.731 194.134L665.348 193.852H665.822L665.968 193.396Z" fill="white"/>
<path d="M665.968 195.634L666.114 196.09H666.588L666.205 196.372L666.352 196.828L665.968 196.546L665.585 196.828L665.731 196.372L665.348 196.09H665.822L665.968 195.634Z" fill="white"/>
<path d="M668.577 188.918L668.724 189.374H669.198L668.814 189.656L668.961 190.112L668.577 189.83L668.194 190.112L668.341 189.656L667.957 189.374H668.431L668.577 188.918Z" fill="white"/>
<path d="M668.577 191.158L668.724 191.613H669.198L668.814 191.895L668.961 192.351L668.577 192.069L668.194 192.351L668.341 191.895L667.957 191.613H668.431L668.577 191.158Z" fill="white"/>
<path d="M668.577 193.396L668.724 193.852H669.198L668.814 194.134L668.961 194.589L668.577 194.308L668.194 194.589L668.341 194.134L667.957 193.852H668.431L668.577 193.396Z" fill="white"/>
<path d="M668.577 195.634L668.724 196.09H669.198L668.814 196.372L668.961 196.828L668.577 196.546L668.194 196.828L668.341 196.372L667.957 196.09H668.431L668.577 195.634Z" fill="white"/>
<path d="M671.195 188.918L671.341 189.374H671.815L671.432 189.656L671.578 190.112L671.195 189.83L670.811 190.112L670.958 189.656L670.574 189.374H671.048L671.195 188.918Z" fill="white"/>
<path d="M671.195 191.158L671.341 191.613H671.815L671.432 191.895L671.578 192.351L671.195 192.069L670.811 192.351L670.958 191.895L670.574 191.613H671.048L671.195 191.158Z" fill="white"/>
<path d="M671.195 193.396L671.341 193.852H671.815L671.432 194.134L671.578 194.589L671.195 194.308L670.811 194.589L670.958 194.134L670.574 193.852H671.048L671.195 193.396Z" fill="white"/>
<path d="M671.195 195.634L671.341 196.09H671.815L671.432 196.372L671.578 196.828L671.195 196.546L670.811 196.828L670.958 196.372L670.574 196.09H671.048L671.195 195.634Z" fill="white"/>
<path d="M673.812 188.918L673.958 189.374H674.432L674.049 189.656L674.195 190.112L673.812 189.83L673.428 190.112L673.575 189.656L673.191 189.374H673.665L673.812 188.918Z" fill="white"/>
<path d="M673.812 191.158L673.958 191.613H674.432L674.049 191.895L674.195 192.351L673.812 192.069L673.428 192.351L673.575 191.895L673.191 191.613H673.665L673.812 191.158Z" fill="white"/>
<path d="M673.812 193.396L673.958 193.852H674.432L674.049 194.134L674.195 194.589L673.812 194.308L673.428 194.589L673.575 194.134L673.191 193.852H673.665L673.812 193.396Z" fill="white"/>
<path d="M673.812 195.634L673.958 196.09H674.432L674.049 196.372L674.195 196.828L673.812 196.546L673.428 196.828L673.575 196.372L673.191 196.09H673.665L673.812 195.634Z" fill="white"/>
<path d="M662.062 190.012L662.208 190.467H662.682L662.299 190.749L662.445 191.205L662.062 190.923L661.678 191.205L661.825 190.749L661.441 190.467H661.915L662.062 190.012Z" fill="white"/>
<path d="M662.062 192.251L662.208 192.707H662.682L662.299 192.989L662.445 193.445L662.062 193.163L661.678 193.445L661.825 192.989L661.441 192.707H661.915L662.062 192.251Z" fill="white"/>
<path d="M662.062 194.489L662.208 194.945H662.682L662.299 195.226L662.445 195.682L662.062 195.4L661.678 195.682L661.825 195.226L661.441 194.945H661.915L662.062 194.489Z" fill="white"/>
<path d="M662.062 196.728L662.208 197.184H662.682L662.299 197.466L662.445 197.921L662.062 197.64L661.678 197.921L661.825 197.466L661.441 197.184H661.915L662.062 196.728Z" fill="white"/>
<path d="M664.644 187.772L664.79 188.228H665.264L664.881 188.51L665.027 188.966L664.644 188.684L664.261 188.966L664.407 188.51L664.023 188.228H664.497L664.644 187.772Z" fill="white"/>
<path d="M664.644 190.012L664.79 190.467H665.264L664.881 190.749L665.027 191.205L664.644 190.923L664.261 191.205L664.407 190.749L664.023 190.467H664.497L664.644 190.012Z" fill="white"/>
<path d="M664.644 192.251L664.79 192.707H665.264L664.881 192.989L665.027 193.445L664.644 193.163L664.261 193.445L664.407 192.989L664.023 192.707H664.497L664.644 192.251Z" fill="white"/>
<path d="M664.644 194.489L664.79 194.945H665.264L664.881 195.226L665.027 195.682L664.644 195.4L664.261 195.682L664.407 195.226L664.023 194.945H664.497L664.644 194.489Z" fill="white"/>
<path d="M664.644 196.728L664.79 197.184H665.264L664.881 197.466L665.027 197.921L664.644 197.64L664.261 197.921L664.407 197.466L664.023 197.184H664.497L664.644 196.728Z" fill="white"/>
<path d="M667.288 187.772L667.435 188.228H667.909L667.525 188.51L667.672 188.966L667.288 188.684L666.905 188.966L667.051 188.51L666.668 188.228H667.142L667.288 187.772Z" fill="white"/>
<path d="M667.288 190.012L667.435 190.467H667.909L667.525 190.749L667.672 191.205L667.288 190.923L666.905 191.205L667.051 190.749L666.668 190.467H667.142L667.288 190.012Z" fill="white"/>
<path d="M667.288 192.251L667.435 192.707H667.909L667.525 192.989L667.672 193.445L667.288 193.163L666.905 193.445L667.051 192.989L666.668 192.707H667.142L667.288 192.251Z" fill="white"/>
<path d="M667.288 194.489L667.435 194.945H667.909L667.525 195.226L667.672 195.682L667.288 195.4L666.905 195.682L667.051 195.226L666.668 194.945H667.142L667.288 194.489Z" fill="white"/>
<path d="M667.288 196.728L667.435 197.184H667.909L667.525 197.466L667.672 197.921L667.288 197.64L666.905 197.921L667.051 197.466L666.668 197.184H667.142L667.288 196.728Z" fill="white"/>
<path d="M669.886 187.772L670.032 188.228H670.506L670.123 188.51L670.269 188.966L669.886 188.684L669.502 188.966L669.649 188.51L669.266 188.228H669.74L669.886 187.772Z" fill="white"/>
<path d="M669.886 190.012L670.032 190.467H670.506L670.123 190.749L670.269 191.205L669.886 190.923L669.502 191.205L669.649 190.749L669.266 190.467H669.74L669.886 190.012Z" fill="white"/>
<path d="M669.886 192.251L670.032 192.707H670.506L670.123 192.989L670.269 193.445L669.886 193.163L669.502 193.445L669.649 192.989L669.266 192.707H669.74L669.886 192.251Z" fill="white"/>
<path d="M669.886 194.489L670.032 194.945H670.506L670.123 195.226L670.269 195.682L669.886 195.4L669.502 195.682L669.649 195.226L669.266 194.945H669.74L669.886 194.489Z" fill="white"/>
<path d="M669.886 196.728L670.032 197.184H670.506L670.123 197.466L670.269 197.921L669.886 197.64L669.502 197.921L669.649 197.466L669.266 197.184H669.74L669.886 196.728Z" fill="white"/>
<path d="M672.484 187.772L672.63 188.228H673.104L672.721 188.51L672.867 188.966L672.484 188.684L672.1 188.966L672.247 188.51L671.863 188.228H672.337L672.484 187.772Z" fill="white"/>
<path d="M672.484 190.012L672.63 190.467H673.104L672.721 190.749L672.867 191.205L672.484 190.923L672.1 191.205L672.247 190.749L671.863 190.467H672.337L672.484 190.012Z" fill="white"/>
<path d="M672.484 192.251L672.63 192.707H673.104L672.721 192.989L672.867 193.445L672.484 193.163L672.1 193.445L672.247 192.989L671.863 192.707H672.337L672.484 192.251Z" fill="white"/>
<path d="M672.484 194.489L672.63 194.945H673.104L672.721 195.226L672.867 195.682L672.484 195.4L672.1 195.682L672.247 195.226L671.863 194.945H672.337L672.484 194.489Z" fill="white"/>
<path d="M672.484 196.728L672.63 197.184H673.104L672.721 197.466L672.867 197.921L672.484 197.64L672.1 197.921L672.247 197.466L671.863 197.184H672.337L672.484 196.728Z" fill="white"/>
<path d="M675.136 187.772L675.283 188.228H675.757L675.373 188.51L675.519 188.966L675.136 188.684L674.753 188.966L674.899 188.51L674.516 188.228H674.99L675.136 187.772Z" fill="white"/>
<path d="M675.136 190.012L675.283 190.467H675.757L675.373 190.749L675.519 191.205L675.136 190.923L674.753 191.205L674.899 190.749L674.516 190.467H674.99L675.136 190.012Z" fill="white"/>
<path d="M675.136 192.251L675.283 192.707H675.757L675.373 192.989L675.519 193.445L675.136 193.163L674.753 193.445L674.899 192.989L674.516 192.707H674.99L675.136 192.251Z" fill="white"/>
<path d="M675.136 194.489L675.283 194.945H675.757L675.373 195.226L675.519 195.682L675.136 195.4L674.753 195.682L674.899 195.226L674.516 194.945H674.99L675.136 194.489Z" fill="white"/>
<path d="M675.136 196.728L675.283 197.184H675.757L675.373 197.466L675.519 197.921L675.136 197.64L674.753 197.921L674.899 197.466L674.516 197.184H674.99L675.136 196.728Z" fill="white"/>
<path fill-rule="evenodd" clip-rule="evenodd" d="M660.391 187H699.938V208.053H661.081V219.442H660.391V187ZM661.081 207.362H699.248V187.69H661.081V207.362Z" fill="#959DA8"/>
<path fill-rule="evenodd" clip-rule="evenodd" d="M672.695 310.375V230.333H674.005V310.375H672.695Z" fill="#959DA8"/>
<path d="M258.252 274.036V310.377H251.992L251.999 274.036H258.252Z" fill="#F4F5F6"/>
<path fill-rule="evenodd" clip-rule="evenodd" d="M251.675 273.708H258.583V310.705H251.668L251.675 273.708ZM252.329 274.363L252.323 310.05H257.928V274.363H252.329Z" fill="#959DA8"/>
<path d="M251.705 274.036V310.377H245.445L245.452 274.036H251.705Z" fill="#F4F5F6"/>
<path fill-rule="evenodd" clip-rule="evenodd" d="M245.128 273.708H252.036V310.705H245.121L245.128 273.708ZM245.782 274.363L245.776 310.05H251.381V274.363H245.782Z" fill="#959DA8"/>
<path d="M264.8 274.036H258.402V310.377H264.8V274.036Z" fill="#F4F5F6"/>
<path fill-rule="evenodd" clip-rule="evenodd" d="M258.074 273.708H265.126V310.705H258.074V273.708ZM258.729 274.363V310.05H264.472V274.363H258.729Z" fill="#959DA8"/>
<path d="M271.351 274.036H264.953V310.377H271.351V274.036Z" fill="#F4F5F6"/>
<path fill-rule="evenodd" clip-rule="evenodd" d="M264.625 273.708H271.677V310.705H264.625V273.708ZM265.28 274.363V310.05H271.022V274.363H265.28Z" fill="#959DA8"/>
<path d="M277.897 274.036H271.5V310.377H277.897V274.036Z" fill="#F4F5F6"/>
<path fill-rule="evenodd" clip-rule="evenodd" d="M271.172 273.708H278.224V310.705H271.172V273.708ZM271.827 274.363V310.05H277.569V274.363H271.827Z" fill="#959DA8"/>
<path d="M284.444 274.036H278.047V310.377H284.444V274.036Z" fill="#F4F5F6"/>
<path fill-rule="evenodd" clip-rule="evenodd" d="M277.719 273.708H284.771V310.705H277.719V273.708ZM278.374 274.363V310.05H284.116V274.363H278.374Z" fill="#959DA8"/>
<path d="M290.991 274.036H284.594V310.377H290.991V274.036Z" fill="#F4F5F6"/>
<path fill-rule="evenodd" clip-rule="evenodd" d="M284.266 273.708H291.318V310.705H284.266V273.708ZM284.92 274.363V310.05H290.663V274.363H284.92Z" fill="#959DA8"/>
<path d="M297.542 274.036H291.145V310.377H297.542V274.036Z" fill="#F4F5F6"/>
<path fill-rule="evenodd" clip-rule="evenodd" d="M290.816 273.708H297.869V310.705H290.816V273.708ZM291.471 274.363V310.05H297.214V274.363H291.471Z" fill="#959DA8"/>
<path d="M304.089 274.036H297.691V310.377H304.089V274.036Z" fill="#F4F5F6"/>
<path fill-rule="evenodd" clip-rule="evenodd" d="M297.363 273.708H304.415V310.705H297.363V273.708ZM298.018 274.363V310.05H303.761V274.363H298.018Z" fill="#959DA8"/>
<path d="M310.636 274.036H304.238V310.377H310.636V274.036Z" fill="#F4F5F6"/>
<path fill-rule="evenodd" clip-rule="evenodd" d="M303.91 273.708H310.962V310.705H303.91V273.708ZM304.565 274.363V310.05H310.308V274.363H304.565Z" fill="#959DA8"/>
<path d="M317.183 274.036H310.785V310.377H317.183V274.036Z" fill="#F4F5F6"/>
<path fill-rule="evenodd" clip-rule="evenodd" d="M310.457 273.708H317.509V310.705H310.457V273.708ZM311.112 274.363V310.05H316.854V274.363H311.112Z" fill="#959DA8"/>
<path d="M186.225 274.036V310.377H179.965L179.971 274.036H186.225Z" fill="#F4F5F6"/>
<path fill-rule="evenodd" clip-rule="evenodd" d="M179.643 273.708H186.551V310.705H179.637L179.643 273.708ZM180.298 274.363L180.292 310.05H185.897V274.363H180.298Z" fill="#959DA8"/>
<path d="M179.678 274.036V310.377H173.418L173.425 274.036H179.678Z" fill="#F4F5F6"/>
<path fill-rule="evenodd" clip-rule="evenodd" d="M173.097 273.708H180.005V310.705H173.09L173.097 273.708ZM173.751 274.363L173.745 310.05H179.35V274.363H173.751Z" fill="#959DA8"/>
<path d="M192.772 274.036H186.375V310.377H192.772V274.036Z" fill="#F4F5F6"/>
<path fill-rule="evenodd" clip-rule="evenodd" d="M186.047 273.708H193.099V310.705H186.047V273.708ZM186.702 274.363V310.05H192.444V274.363H186.702Z" fill="#959DA8"/>
<path d="M199.319 274.036H192.922V310.377H199.319V274.036Z" fill="#F4F5F6"/>
<path fill-rule="evenodd" clip-rule="evenodd" d="M192.594 273.708H199.646V310.705H192.594V273.708ZM193.249 274.363V310.05H198.991V274.363H193.249Z" fill="#959DA8"/>
<path d="M205.866 274.036H199.469V310.377H205.866V274.036Z" fill="#F4F5F6"/>
<path fill-rule="evenodd" clip-rule="evenodd" d="M199.141 273.708H206.193V310.705H199.141V273.708ZM199.795 274.363V310.05H205.538V274.363H199.795Z" fill="#959DA8"/>
<path d="M212.413 274.036H206.016V310.377H212.413V274.036Z" fill="#F4F5F6"/>
<path fill-rule="evenodd" clip-rule="evenodd" d="M205.688 273.708H212.74V310.705H205.688V273.708ZM206.342 274.363V310.05H212.085V274.363H206.342Z" fill="#959DA8"/>
<path d="M218.964 274.036H212.566V310.377H218.964V274.036Z" fill="#F4F5F6"/>
<path fill-rule="evenodd" clip-rule="evenodd" d="M212.238 273.708H219.29V310.705H212.238V273.708ZM212.893 274.363V310.05H218.636V274.363H212.893Z" fill="#959DA8"/>
<path d="M225.511 274.036H219.113V310.377H225.511V274.036Z" fill="#F4F5F6"/>
<path fill-rule="evenodd" clip-rule="evenodd" d="M218.785 273.708H225.837V310.705H218.785V273.708ZM219.44 274.363V310.05H225.183V274.363H219.44Z" fill="#959DA8"/>
<path d="M232.061 274.036H225.664V310.377H232.061V274.036Z" fill="#F4F5F6"/>
<path fill-rule="evenodd" clip-rule="evenodd" d="M225.336 273.708H232.388V310.705H225.336V273.708ZM225.991 274.363V310.05H231.733V274.363H225.991Z" fill="#959DA8"/>
<path d="M238.608 274.036H232.211V310.377H238.608V274.036Z" fill="#F4F5F6"/>
<path fill-rule="evenodd" clip-rule="evenodd" d="M231.887 273.708H238.939V310.705H231.887V273.708ZM232.542 274.363V310.05H238.284V274.363H232.542Z" fill="#959DA8"/>
<path d="M245.155 274.036H238.758V310.377H245.155V274.036Z" fill="#F4F5F6"/>
<path fill-rule="evenodd" clip-rule="evenodd" d="M238.434 273.708H245.486V310.705H238.434V273.708ZM239.088 274.363V310.05H244.831V274.363H239.088Z" fill="#959DA8"/>
<path d="M114.197 274.036V310.377H107.938L107.944 274.036H114.197Z" fill="#F4F5F6"/>
<path fill-rule="evenodd" clip-rule="evenodd" d="M107.616 273.708H114.524V310.705H107.609L107.616 273.708ZM108.271 274.363L108.264 310.05H113.869V274.363H108.271Z" fill="#959DA8"/>
<path d="M107.651 274.036V310.377H101.391L101.397 274.036H107.651Z" fill="#F4F5F6"/>
<path fill-rule="evenodd" clip-rule="evenodd" d="M101.069 273.708H107.977V310.705H101.062L101.069 273.708ZM101.724 274.363L101.717 310.05H107.322V274.363H101.724Z" fill="#959DA8"/>
<path d="M101.756 274.036V310.377H95.4961L95.5026 274.036H101.756Z" fill="#F4F5F6"/>
<path fill-rule="evenodd" clip-rule="evenodd" d="M95.1746 273.708H102.083V310.705H95.168L95.1746 273.708ZM95.8293 274.363L95.8229 310.05H101.428V274.363H95.8293Z" fill="#959DA8"/>
<path d="M120.745 274.036H114.348V310.377H120.745V274.036Z" fill="#F4F5F6"/>
<path fill-rule="evenodd" clip-rule="evenodd" d="M114.02 273.708H121.072V310.705H114.02V273.708ZM114.674 274.363V310.05H120.417V274.363H114.674Z" fill="#959DA8"/>
<path d="M127.296 274.036H120.898V310.377H127.296V274.036Z" fill="#F4F5F6"/>
<path fill-rule="evenodd" clip-rule="evenodd" d="M120.57 273.708H127.623V310.705H120.57V273.708ZM121.225 274.363V310.05H126.968V274.363H121.225Z" fill="#959DA8"/>
<path d="M133.843 274.036H127.445V310.377H133.843V274.036Z" fill="#F4F5F6"/>
<path fill-rule="evenodd" clip-rule="evenodd" d="M127.117 273.708H134.169V310.705H127.117V273.708ZM127.772 274.363V310.05H133.515V274.363H127.772Z" fill="#959DA8"/>
<path d="M140.39 274.036H133.992V310.377H140.39V274.036Z" fill="#F4F5F6"/>
<path fill-rule="evenodd" clip-rule="evenodd" d="M133.664 273.708H140.716V310.705H133.664V273.708ZM134.319 274.363V310.05H140.061V274.363H134.319Z" fill="#959DA8"/>
<path d="M146.936 274.036H140.539V310.377H146.936V274.036Z" fill="#F4F5F6"/>
<path fill-rule="evenodd" clip-rule="evenodd" d="M140.215 273.708H147.267V310.705H140.215V273.708ZM140.87 274.363V310.05H146.612V274.363H140.87Z" fill="#959DA8"/>
<path d="M153.483 274.036H147.086V310.377H153.483V274.036Z" fill="#F4F5F6"/>
<path fill-rule="evenodd" clip-rule="evenodd" d="M146.758 273.708H153.81V310.705H146.758V273.708ZM147.413 274.363V310.05H153.155V274.363H147.413Z" fill="#959DA8"/>
<path d="M160.03 274.036H153.633V310.377H160.03V274.036Z" fill="#F4F5F6"/>
<path fill-rule="evenodd" clip-rule="evenodd" d="M153.309 273.708H160.361V310.705H153.309V273.708ZM153.963 274.363V310.05H159.706V274.363H153.963Z" fill="#959DA8"/>
<path d="M166.581 274.036H160.184V310.377H166.581V274.036Z" fill="#F4F5F6"/>
<path fill-rule="evenodd" clip-rule="evenodd" d="M159.855 273.708H166.908V310.705H159.855V273.708ZM160.51 274.363V310.05H166.253V274.363H160.51Z" fill="#959DA8"/>
<path d="M173.128 274.036H166.73V310.377H173.128V274.036Z" fill="#F4F5F6"/>
<path fill-rule="evenodd" clip-rule="evenodd" d="M166.402 273.708H173.455V310.705H166.402V273.708ZM167.057 274.363V310.05H172.8V274.363H167.057Z" fill="#959DA8"/>
<path fill-rule="evenodd" clip-rule="evenodd" d="M95.6122 273.705H317.578V311.028H94.9336L95.6122 273.705ZM96.8982 275.014L96.2672 309.719H316.268V275.014H96.8982Z" fill="#959DA8"/>
<path d="M623.631 274.036V310.377H617.371L617.378 274.036H623.631Z" fill="#F4F5F6"/>
<path fill-rule="evenodd" clip-rule="evenodd" d="M617.05 273.708H623.958V310.705H617.043L617.05 273.708ZM617.704 274.363L617.698 310.05H623.303V274.363H617.704Z" fill="#959DA8"/>
<path d="M617.084 274.036V310.377H610.824L610.831 274.036H617.084Z" fill="#F4F5F6"/>
<path fill-rule="evenodd" clip-rule="evenodd" d="M610.503 273.708H617.411V310.705H610.496L610.503 273.708ZM611.157 274.363L611.151 310.05H616.756V274.363H611.157Z" fill="#959DA8"/>
<path d="M630.179 274.036H623.781V310.377H630.179V274.036Z" fill="#F4F5F6"/>
<path fill-rule="evenodd" clip-rule="evenodd" d="M623.453 273.708H630.505V310.705H623.453V273.708ZM624.108 274.363V310.05H629.851V274.363H624.108Z" fill="#959DA8"/>
<path d="M636.726 274.036H630.328V310.377H636.726V274.036Z" fill="#F4F5F6"/>
<path fill-rule="evenodd" clip-rule="evenodd" d="M630 273.708H637.052V310.705H630V273.708ZM630.655 274.363V310.05H636.397V274.363H630.655Z" fill="#959DA8"/>
<path d="M643.276 274.036H636.879V310.377H643.276V274.036Z" fill="#F4F5F6"/>
<path fill-rule="evenodd" clip-rule="evenodd" d="M636.551 273.708H643.603V310.705H636.551V273.708ZM637.206 274.363V310.05H642.948V274.363H637.206Z" fill="#959DA8"/>
<path d="M649.823 274.036H643.426V310.377H649.823V274.036Z" fill="#F4F5F6"/>
<path fill-rule="evenodd" clip-rule="evenodd" d="M643.098 273.708H650.15V310.705H643.098V273.708ZM643.752 274.363V310.05H649.495V274.363H643.752Z" fill="#959DA8"/>
<path d="M656.37 274.036H649.973V310.377H656.37V274.036Z" fill="#F4F5F6"/>
<path fill-rule="evenodd" clip-rule="evenodd" d="M649.648 273.708H656.701V310.705H649.648V273.708ZM650.303 274.363V310.05H656.046V274.363H650.303Z" fill="#959DA8"/>
<path d="M662.921 274.036H656.523V310.377H662.921V274.036Z" fill="#F4F5F6"/>
<path fill-rule="evenodd" clip-rule="evenodd" d="M656.195 273.708H663.248V310.705H656.195V273.708ZM656.85 274.363V310.05H662.593V274.363H656.85Z" fill="#959DA8"/>
<path d="M669.468 274.036H663.07V310.377H669.468V274.036Z" fill="#F4F5F6"/>
<path fill-rule="evenodd" clip-rule="evenodd" d="M662.742 273.708H669.794V310.705H662.742V273.708ZM663.397 274.363V310.05H669.14V274.363H663.397Z" fill="#959DA8"/>
<path d="M676.015 274.036H669.617V310.377H676.015V274.036Z" fill="#F4F5F6"/>
<path fill-rule="evenodd" clip-rule="evenodd" d="M669.289 273.708H676.341V310.705H669.289V273.708ZM669.944 274.363V310.05H675.686V274.363H669.944Z" fill="#959DA8"/>
<path d="M682.561 274.036H676.164V310.377H682.561V274.036Z" fill="#F4F5F6"/>
<path fill-rule="evenodd" clip-rule="evenodd" d="M675.84 273.708H682.892V310.705H675.84V273.708ZM676.495 274.363V310.05H682.237V274.363H676.495Z" fill="#959DA8"/>
<path d="M551.604 274.036V310.377H545.344L545.35 274.036H551.604Z" fill="#F4F5F6"/>
<path fill-rule="evenodd" clip-rule="evenodd" d="M545.022 273.708H551.93V310.705H545.016L545.022 273.708ZM545.677 274.363L545.671 310.05H551.276V274.363H545.677Z" fill="#959DA8"/>
<path d="M545.057 274.036V310.377H538.797L538.803 274.036H545.057Z" fill="#F4F5F6"/>
<path fill-rule="evenodd" clip-rule="evenodd" d="M538.475 273.708H545.383V310.705H538.469L538.475 273.708ZM539.13 274.363L539.124 310.05H544.729V274.363H539.13Z" fill="#959DA8"/>
<path d="M558.151 274.036H551.754V310.377H558.151V274.036Z" fill="#F4F5F6"/>
<path fill-rule="evenodd" clip-rule="evenodd" d="M551.426 273.708H558.478V310.705H551.426V273.708ZM552.081 274.363V310.05H557.823V274.363H552.081Z" fill="#959DA8"/>
<path d="M564.698 274.036H558.301V310.377H564.698V274.036Z" fill="#F4F5F6"/>
<path fill-rule="evenodd" clip-rule="evenodd" d="M557.973 273.708H565.025V310.705H557.973V273.708ZM558.627 274.363V310.05H564.37V274.363H558.627Z" fill="#959DA8"/>
<path d="M571.245 274.036H564.848V310.377H571.245V274.036Z" fill="#F4F5F6"/>
<path fill-rule="evenodd" clip-rule="evenodd" d="M564.523 273.708H571.576V310.705H564.523V273.708ZM565.178 274.363V310.05H570.921V274.363H565.178Z" fill="#959DA8"/>
<path d="M577.792 274.036H571.395V310.377H577.792V274.036Z" fill="#F4F5F6"/>
<path fill-rule="evenodd" clip-rule="evenodd" d="M571.07 273.708H578.123V310.705H571.07V273.708ZM571.725 274.363V310.05H577.468V274.363H571.725Z" fill="#959DA8"/>
<path d="M584.339 274.036H577.941V310.377H584.339V274.036Z" fill="#F4F5F6"/>
<path fill-rule="evenodd" clip-rule="evenodd" d="M577.617 273.708H584.669V310.705H577.617V273.708ZM578.272 274.363V310.05H584.015V274.363H578.272Z" fill="#959DA8"/>
<path d="M590.89 274.036H584.492V310.377H590.89V274.036Z" fill="#F4F5F6"/>
<path fill-rule="evenodd" clip-rule="evenodd" d="M584.168 273.708H591.22V310.705H584.168V273.708ZM584.823 274.363V310.05H590.565V274.363H584.823Z" fill="#959DA8"/>
<path d="M597.44 274.036H591.043V310.377H597.44V274.036Z" fill="#F4F5F6"/>
<path fill-rule="evenodd" clip-rule="evenodd" d="M590.715 273.708H597.767V310.705H590.715V273.708ZM591.37 274.363V310.05H597.112V274.363H591.37Z" fill="#959DA8"/>
<path d="M603.987 274.036H597.59V310.377H603.987V274.036Z" fill="#F4F5F6"/>
<path fill-rule="evenodd" clip-rule="evenodd" d="M597.262 273.708H604.314V310.705H597.262V273.708ZM597.917 274.363V310.05H603.659V274.363H597.917Z" fill="#959DA8"/>
<path d="M610.538 274.036H604.141V310.377H610.538V274.036Z" fill="#F4F5F6"/>
<path fill-rule="evenodd" clip-rule="evenodd" d="M603.812 273.708H610.865V310.705H603.812V273.708ZM604.467 274.363V310.05H610.21V274.363H604.467Z" fill="#959DA8"/>
<path d="M479.576 274.036V310.377H473.316L473.323 274.036H479.576Z" fill="#F4F5F6"/>
<path fill-rule="evenodd" clip-rule="evenodd" d="M472.999 273.708H479.907V310.705H472.992L472.999 273.708ZM473.654 274.363L473.647 310.05H479.252V274.363H473.654Z" fill="#959DA8"/>
<path d="M473.029 274.036V310.377H466.77L466.776 274.036H473.029Z" fill="#F4F5F6"/>
<path fill-rule="evenodd" clip-rule="evenodd" d="M466.448 273.708H473.356V310.705H466.441L466.448 273.708ZM467.103 274.363L467.096 310.05H472.701V274.363H467.103Z" fill="#959DA8"/>
<path d="M467.135 274.036V310.377H460.875L460.882 274.036H467.135Z" fill="#F4F5F6"/>
<path fill-rule="evenodd" clip-rule="evenodd" d="M460.554 273.708H467.462V310.705H460.547L460.554 273.708ZM461.208 274.363L461.202 310.05H466.807V274.363H461.208Z" fill="#959DA8"/>
<path d="M486.124 274.036H479.727V310.377H486.124V274.036Z" fill="#F4F5F6"/>
<path fill-rule="evenodd" clip-rule="evenodd" d="M479.398 273.708H486.451V310.705H479.398V273.708ZM480.053 274.363V310.05H485.796V274.363H480.053Z" fill="#959DA8"/>
<path d="M492.671 274.036H486.273V310.377H492.671V274.036Z" fill="#F4F5F6"/>
<path fill-rule="evenodd" clip-rule="evenodd" d="M485.945 273.708H492.998V310.705H485.945V273.708ZM486.6 274.363V310.05H492.343V274.363H486.6Z" fill="#959DA8"/>
<path d="M499.222 274.036H492.824V310.377H499.222V274.036Z" fill="#F4F5F6"/>
<path fill-rule="evenodd" clip-rule="evenodd" d="M492.496 273.708H499.548V310.705H492.496V273.708ZM493.151 274.363V310.05H498.894V274.363H493.151Z" fill="#959DA8"/>
<path d="M505.769 274.036H499.371V310.377H505.769V274.036Z" fill="#F4F5F6"/>
<path fill-rule="evenodd" clip-rule="evenodd" d="M499.043 273.708H506.095V310.705H499.043V273.708ZM499.698 274.363V310.05H505.44V274.363H499.698Z" fill="#959DA8"/>
<path d="M512.315 274.036H505.918V310.377H512.315V274.036Z" fill="#F4F5F6"/>
<path fill-rule="evenodd" clip-rule="evenodd" d="M505.59 273.708H512.642V310.705H505.59V273.708ZM506.245 274.363V310.05H511.987V274.363H506.245Z" fill="#959DA8"/>
<path d="M518.862 274.036H512.465V310.377H518.862V274.036Z" fill="#F4F5F6"/>
<path fill-rule="evenodd" clip-rule="evenodd" d="M512.137 273.708H519.189V310.705H512.137V273.708ZM512.792 274.363V310.05H518.534V274.363H512.792Z" fill="#959DA8"/>
<path d="M525.413 274.036H519.016V310.377H525.413V274.036Z" fill="#F4F5F6"/>
<path fill-rule="evenodd" clip-rule="evenodd" d="M518.688 273.708H525.74V310.705H518.688V273.708ZM519.342 274.363V310.05H525.085V274.363H519.342Z" fill="#959DA8"/>
<path d="M531.96 274.036H525.562V310.377H531.96V274.036Z" fill="#F4F5F6"/>
<path fill-rule="evenodd" clip-rule="evenodd" d="M525.234 273.708H532.287V310.705H525.234V273.708ZM525.889 274.363V310.05H531.632V274.363H525.889Z" fill="#959DA8"/>
<path d="M538.507 274.036H532.109V310.377H538.507V274.036Z" fill="#F4F5F6"/>
<path fill-rule="evenodd" clip-rule="evenodd" d="M531.781 273.708H538.833V310.705H531.781V273.708ZM532.436 274.363V310.05H538.179V274.363H532.436Z" fill="#959DA8"/>
<path fill-rule="evenodd" clip-rule="evenodd" d="M460.991 273.705H682.957V311.028H460.312L460.991 273.705ZM462.277 275.014L461.646 309.719H681.647V275.014H462.277Z" fill="#959DA8"/>
<path fill-rule="evenodd" clip-rule="evenodd" d="M142.747 421.692V320.853H141.438V423.001H635.812V320.853H634.502V421.692H142.747Z" fill="#959DA8"/>
<path d="M358.301 381.664C358.789 379.486 358.787 377.227 358.295 375.05C357.802 372.872 356.832 370.832 355.454 369.076C354.077 367.32 352.326 365.892 350.329 364.895C348.331 363.899 346.137 363.359 343.906 363.314C341.674 363.269 339.46 363.722 337.425 364.637C335.389 365.553 333.583 366.91 332.136 368.61C330.69 370.31 329.639 372.31 329.06 374.466C328.481 376.622 328.389 378.879 328.789 381.075C327.145 381.873 325.693 383.018 324.532 384.429C323.371 385.841 322.528 387.486 322.062 389.253C321.595 391.02 321.515 392.867 321.828 394.668C322.141 396.469 322.839 398.181 323.874 399.687C324.909 401.193 326.257 402.458 327.827 403.395C329.396 404.333 331.149 404.92 332.966 405.117C334.783 405.315 336.621 405.118 338.355 404.539C340.088 403.961 341.677 403.015 343.012 401.766C344.308 402.984 345.845 403.916 347.525 404.501C349.204 405.087 350.987 405.313 352.76 405.165C354.532 405.017 356.253 404.499 357.812 403.643C359.372 402.788 360.734 401.614 361.81 400.199C362.887 398.783 363.654 397.157 364.062 395.426C364.47 393.695 364.51 391.898 364.179 390.151C363.849 388.403 363.154 386.745 362.142 385.283C361.129 383.821 359.821 382.588 358.301 381.664Z" fill="#80C33F"/>
<path fill-rule="evenodd" clip-rule="evenodd" d="M336.387 390.001C336.487 389.851 336.691 389.81 336.841 389.91L343.775 394.533C343.926 394.634 343.966 394.837 343.866 394.987C343.766 395.138 343.563 395.179 343.412 395.078L336.478 390.455C336.327 390.355 336.287 390.152 336.387 390.001Z" fill="#2A3A51"/>
<path fill-rule="evenodd" clip-rule="evenodd" d="M351.925 393.442C352.042 393.579 352.026 393.786 351.889 393.904L343.802 400.831C343.665 400.949 343.458 400.933 343.34 400.796C343.223 400.659 343.239 400.452 343.376 400.334L351.463 393.406C351.6 393.289 351.807 393.305 351.925 393.442Z" fill="#2A3A51"/>
<path fill-rule="evenodd" clip-rule="evenodd" d="M343.593 380.616C343.774 380.616 343.92 380.762 343.92 380.943V422.523C343.92 422.704 343.774 422.85 343.593 422.85C343.412 422.85 343.266 422.704 343.266 422.523V380.943C343.266 380.762 343.412 380.616 343.593 380.616Z" fill="#2A3A51"/>
<path d="M578.398 347.042H550.34V411.625H578.398V347.042Z" fill="#D3DCE5"/>
<path d="M574.423 351.629H554.301V383.571H574.423V351.629Z" fill="white"/>
<path fill-rule="evenodd" clip-rule="evenodd" d="M553.957 351.286H574.767V383.914H553.957V351.286ZM554.645 351.973V383.227H574.079V351.973H554.645Z" fill="#959DA8"/>
<path d="M555.599 388.625C556.322 388.625 556.908 388.038 556.908 387.315C556.908 386.592 556.322 386.005 555.599 386.005C554.875 386.005 554.289 386.592 554.289 387.315C554.289 388.038 554.875 388.625 555.599 388.625Z" fill="white"/>
<path fill-rule="evenodd" clip-rule="evenodd" d="M555.598 386.333C555.055 386.333 554.616 386.772 554.616 387.315C554.616 387.857 555.055 388.297 555.598 388.297C556.14 388.297 556.58 387.857 556.58 387.315C556.58 386.772 556.14 386.333 555.598 386.333ZM553.961 387.315C553.961 386.411 554.694 385.678 555.598 385.678C556.502 385.678 557.235 386.411 557.235 387.315C557.235 388.219 556.502 388.952 555.598 388.952C554.694 388.952 553.961 388.219 553.961 387.315Z" fill="#959DA8"/>
<path d="M522.832 347.042H550.89V411.625H522.839L522.832 347.042Z" fill="#D3DCE5"/>
<path d="M526.808 383.567H546.93V351.626H526.808V383.567Z" fill="white"/>
<path fill-rule="evenodd" clip-rule="evenodd" d="M547.273 383.911H526.464V351.282H547.273V383.911ZM546.586 383.224V351.97H527.151V383.224H546.586Z" fill="#959DA8"/>
<path d="M545.634 388.625C546.357 388.625 546.943 388.038 546.943 387.315C546.943 386.592 546.357 386.005 545.634 386.005C544.911 386.005 544.324 386.592 544.324 387.315C544.324 388.038 544.911 388.625 545.634 388.625Z" fill="white"/>
<path fill-rule="evenodd" clip-rule="evenodd" d="M545.633 386.333C545.091 386.333 544.651 386.772 544.651 387.315C544.651 387.857 545.091 388.297 545.633 388.297C546.176 388.297 546.615 387.857 546.615 387.315C546.615 386.772 546.176 386.333 545.633 386.333ZM543.996 387.315C543.996 386.411 544.729 385.678 545.633 385.678C546.537 385.678 547.27 386.411 547.27 387.315C547.27 388.219 546.537 388.952 545.633 388.952C544.729 388.952 543.996 388.219 543.996 387.315Z" fill="#959DA8"/>
<path d="M589.972 416.04H512.902V422.437H589.972V416.04Z" fill="#D3DCE5"/>
<path fill-rule="evenodd" clip-rule="evenodd" d="M512.426 415.562H590.452V422.915H512.426V415.562ZM513.382 416.518V421.959H589.496V416.518H513.382Z" fill="#959DA8"/>
<path d="M589.972 409.656H512.902V416.054H589.972V409.656Z" fill="#D3DCE5"/>
<path fill-rule="evenodd" clip-rule="evenodd" d="M512.426 409.178H590.452V416.532H512.426V409.178ZM513.382 410.134V415.576H589.496V410.134H513.382Z" fill="#959DA8"/>
<path fill-rule="evenodd" clip-rule="evenodd" d="M200.695 13.4238H577.205V44.1994H478.331V119.115H299.334V44.1994H200.695V13.4238ZM202.005 14.7334V42.8898H300.644V117.806H477.021V42.8898H575.896V14.7334H202.005Z" fill="#959DA8"/>
<path d="M7.65462e-05 419.923C-0.00590869 418.465 0.339184 417.028 1.00616 415.732C1.67315 414.436 2.6424 413.32 3.83194 412.478C5.02148 411.636 6.39631 411.093 7.84017 410.894C9.28402 410.696 10.7544 410.848 12.127 411.338C12.6574 409.202 13.7318 407.24 15.2456 405.642C16.7594 404.045 18.661 402.866 20.7653 402.221C22.8696 401.577 25.1051 401.488 27.254 401.963C29.4029 402.438 31.3922 403.462 33.0282 404.934C34.1838 401.703 36.4426 398.983 39.4067 397.253C42.3708 395.524 45.8502 394.895 49.232 395.479C52.6139 396.063 55.6813 397.821 57.8941 400.444C60.1069 403.067 61.3232 406.387 61.3287 409.819C61.3305 410.327 61.3043 410.834 61.2501 411.338C62.2361 410.978 63.2779 410.794 64.3276 410.795C69.3696 410.795 73.7568 414.887 73.4359 419.903C73.3897 420.73 73.2513 421.549 73.0234 422.345H0.327477C0.107967 421.55 -0.00217851 420.728 7.65462e-05 419.903V419.923Z" fill="#80C33F"/>
<path fill-rule="evenodd" clip-rule="evenodd" d="M138.187 422.851L123.742 372.857L125 372.494L139.445 422.488L138.187 422.851Z" fill="#959DA8"/>
<path fill-rule="evenodd" clip-rule="evenodd" d="M108.746 422.488L123.191 372.494L124.449 372.857L110.004 422.851L108.746 422.488Z" fill="#959DA8"/>
<path d="M71.0703 390.175L73.0805 396.409L76.623 407.389H123.841L120.292 396.409L118.281 390.175H71.0703Z" fill="#F4F5F6"/>
<path fill-rule="evenodd" clip-rule="evenodd" d="M70.6211 389.848H118.52L120.604 396.308L124.291 407.717H76.385L72.7693 396.509L70.6211 389.848ZM71.5203 390.502L73.3925 396.308L76.8618 407.062H123.391L119.98 396.509L118.043 390.502H71.5203Z" fill="#959DA8"/>
<path d="M76.6301 411.837H134.953V407.391H76.6301V411.837Z" fill="#F4F5F6"/>
<path fill-rule="evenodd" clip-rule="evenodd" d="M135.281 412.164H76.3034V407.063H135.281V412.164ZM134.626 411.509V407.718H76.9582V411.509H134.626Z" fill="#959DA8"/>
<path d="M71.0703 390.175L73.0805 396.409H120.292L118.281 390.175H71.0703Z" fill="#F4F5F6"/>
<path fill-rule="evenodd" clip-rule="evenodd" d="M70.6211 389.848H118.52L120.742 396.736H72.8425L70.6211 389.848ZM71.5203 390.502L73.3193 396.081H119.842L118.043 390.502H71.5203Z" fill="#959DA8"/>
<path fill-rule="evenodd" clip-rule="evenodd" d="M90.3629 422.851L75.918 372.857L77.1761 372.494L91.621 422.488L90.3629 422.851Z" fill="#959DA8"/>
<path fill-rule="evenodd" clip-rule="evenodd" d="M60.9219 422.488L75.3668 372.494L76.6249 372.857L62.18 422.851L60.9219 422.488Z" fill="#959DA8"/>
<path d="M130.781 373.786H66.7876C66.7876 372.984 66.9457 372.189 67.2527 371.448C67.5597 370.707 68.0097 370.034 68.577 369.466C69.1443 368.899 69.8178 368.449 70.559 368.142C71.3002 367.835 72.0946 367.677 72.8969 367.677H124.672C125.474 367.677 126.269 367.835 127.01 368.142C127.751 368.449 128.425 368.899 128.992 369.466C129.559 370.034 130.009 370.707 130.316 371.448C130.623 372.189 130.781 372.984 130.781 373.786Z" fill="#D3DCE5"/>
<path fill-rule="evenodd" clip-rule="evenodd" d="M175.326 422.557L147.949 401.4L148.35 400.882L175.727 422.039L175.326 422.557Z" fill="#959DA8"/>
<path fill-rule="evenodd" clip-rule="evenodd" d="M147.949 422.039L175.326 400.882L175.727 401.4L148.35 422.557L147.949 422.039Z" fill="#959DA8"/>
<path d="M180.069 397.182H144.055V401.798H180.069V397.182Z" fill="#D3DCE5"/>
<path fill-rule="evenodd" clip-rule="evenodd" d="M141.125 38.039C141.485 38.0116 141.8 38.2818 141.827 38.6424L147.662 115.496C147.689 115.857 147.419 116.171 147.058 116.199C146.698 116.226 146.383 115.956 146.356 115.595L140.521 38.7415C140.494 38.3809 140.764 38.0664 141.125 38.039Z" fill="#959DA8"/>
<path d="M108.01 58.276C113.274 59.5336 118.616 60.4392 124 60.9869L125.774 58.9308L126.593 61.2488C132.36 61.7266 138.151 61.8381 143.932 61.5827C145.525 61.5129 147.106 61.4168 148.673 61.2946L150.212 61.1637C151.91 61.0152 153.59 60.8363 155.254 60.6267L156.118 60.5154L157.198 60.3648L157.67 60.2993L158.39 57.5164L160.741 59.8213L160.407 59.8803L160.741 59.8279L161.081 59.7689L161.422 59.71C162.491 59.5223 163.554 59.3237 164.611 59.1141L166.627 58.6951L168.729 58.2236L169.744 57.9813L170.17 57.8766L171.231 57.6081L171.748 57.4771L172.743 57.2152L174.642 56.6914H174.714L175.69 56.4033C176.312 56.2199 176.927 56.03 177.543 55.8401C177.774 55.7631 177.982 55.6272 178.145 55.4458C178.308 55.2644 178.422 55.0437 178.474 54.8053C178.526 54.5669 178.515 54.3191 178.443 54.0861C178.37 53.8531 178.238 53.643 178.06 53.4763C176.564 52.1067 174.985 50.8296 173.333 49.6523L172.914 49.3511C172.093 48.7748 171.255 48.2248 170.399 47.701C170.059 47.4914 169.744 47.2819 169.365 47.0855C167.623 46.073 165.821 45.1677 163.969 44.3746L163.412 44.1389C161.523 43.3649 159.588 42.7088 157.617 42.1745L156.498 41.8143C155.902 41.6637 155.293 41.5262 154.69 41.3952C154.284 41.3101 153.878 41.2315 153.473 41.153L152.857 41.0417L152.425 40.9696C151.744 40.8561 151.058 40.7579 150.369 40.675L149.151 40.544C148.647 40.4982 148.149 40.4589 147.645 40.4261L146.911 40.3803H146.61L145.477 40.341C144.364 40.3148 143.245 40.3257 142.118 40.3738C135.567 40.6448 129.133 42.2046 123.185 44.9641C117.237 47.7236 111.891 51.6285 107.453 56.4556C107.328 56.5991 107.241 56.7722 107.201 56.9585C107.161 57.1449 107.169 57.3385 107.225 57.5208C107.28 57.7031 107.382 57.8681 107.519 58.0003C107.657 58.1324 107.825 58.2273 108.01 58.276Z" fill="#D3DCE5"/>
<path fill-rule="evenodd" clip-rule="evenodd" d="M158.695 57.2918C158.695 57.292 158.695 57.2921 158.396 57.426C158.097 57.5599 158.097 57.5599 158.097 57.5599L158.096 57.5578L158.093 57.5506L158.08 57.5207C158.067 57.4941 158.049 57.4541 158.024 57.4017C157.975 57.2968 157.902 57.142 157.804 56.9436C157.61 56.5467 157.32 55.9757 156.942 55.282C156.186 53.894 155.076 52.0171 153.662 50.0606C150.823 46.1324 146.804 41.9477 142.008 40.6784L142.175 40.0454C147.202 41.3757 151.335 45.723 154.192 49.677C155.627 51.6616 156.751 53.5633 157.517 54.9686C157.9 55.6715 158.194 56.2509 158.392 56.6553C158.491 56.8574 158.567 57.0159 158.617 57.1241C158.643 57.1783 158.662 57.2199 158.675 57.2481L158.69 57.2804L158.693 57.2889L158.695 57.2918Z" fill="#959DA8"/>
<path fill-rule="evenodd" clip-rule="evenodd" d="M125.935 58.9204L125.723 58.8461C125.414 58.738 125.414 58.7378 125.414 58.7377L125.415 58.7346L125.418 58.7259L125.43 58.6925C125.441 58.6632 125.456 58.6201 125.477 58.5639C125.518 58.4517 125.58 58.2873 125.662 58.0772C125.825 57.6572 126.069 57.0544 126.391 56.3208C127.034 54.854 127.993 52.8616 129.252 50.7597C131.761 46.572 135.502 41.8812 140.377 40.1187L140.6 40.7344C135.948 42.4161 132.306 46.9352 129.814 51.0962C128.573 53.1686 127.626 55.1352 126.99 56.584C126.672 57.3081 126.432 57.9022 126.272 58.3145C126.192 58.5207 126.131 58.6814 126.091 58.7902C126.071 58.8446 126.056 58.886 126.046 58.9136L126.035 58.9445L126.033 58.9521L126.032 58.9538C126.032 58.9538 126.032 58.9542 125.935 58.9204Z" fill="#959DA8"/>
<path d="M142.354 82.1772V118.519H136.094L136.1 82.1772H142.354Z" fill="#F4F5F6"/>
<path fill-rule="evenodd" clip-rule="evenodd" d="M135.772 81.8496H142.68V118.846H135.766L135.772 81.8496ZM136.427 82.5044L136.421 118.191H142.026V82.5044H136.427Z" fill="#959DA8"/>
<path d="M135.807 82.1772V118.519H129.547L129.553 82.1772H135.807Z" fill="#F4F5F6"/>
<path fill-rule="evenodd" clip-rule="evenodd" d="M129.225 81.8496H136.133V118.846H129.219L129.225 81.8496ZM129.88 82.5044L129.874 118.191H135.479V82.5044H129.88Z" fill="#959DA8"/>
<path d="M148.901 82.1772H142.504V118.519H148.901V82.1772Z" fill="#F4F5F6"/>
<path fill-rule="evenodd" clip-rule="evenodd" d="M142.176 81.8496H149.228V118.846H142.176V81.8496ZM142.831 82.5044V118.191H148.573V82.5044H142.831Z" fill="#959DA8"/>
<path d="M155.448 82.1772H149.051V118.519H155.448V82.1772Z" fill="#F4F5F6"/>
<path fill-rule="evenodd" clip-rule="evenodd" d="M148.723 81.8496H155.775V118.846H148.723V81.8496ZM149.377 82.5044V118.191H155.12V82.5044H149.377Z" fill="#959DA8"/>
<path d="M161.999 82.1772H155.602V118.519H161.999V82.1772Z" fill="#F4F5F6"/>
<path fill-rule="evenodd" clip-rule="evenodd" d="M155.273 81.8496H162.326V118.846H155.273V81.8496ZM155.928 82.5044V118.191H161.671V82.5044H155.928Z" fill="#959DA8"/>
<path d="M168.546 82.1772H162.148V118.519H168.546V82.1772Z" fill="#F4F5F6"/>
<path fill-rule="evenodd" clip-rule="evenodd" d="M161.82 81.8496H168.873V118.846H161.82V81.8496ZM162.475 82.5044V118.191H168.218V82.5044H162.475Z" fill="#959DA8"/>
<path d="M175.093 82.1772H168.695V118.519H175.093V82.1772Z" fill="#F4F5F6"/>
<path fill-rule="evenodd" clip-rule="evenodd" d="M168.367 81.8496H175.419V118.846H168.367V81.8496ZM169.022 82.5044V118.191H174.765V82.5044H169.022Z" fill="#959DA8"/>
<path d="M181.643 82.1772H175.246V118.519H181.643V82.1772Z" fill="#F4F5F6"/>
<path fill-rule="evenodd" clip-rule="evenodd" d="M174.918 81.8496H181.97V118.846H174.918V81.8496ZM175.573 82.5044V118.191H181.315V82.5044H175.573Z" fill="#959DA8"/>
<path d="M188.19 82.1772H181.793V118.519H188.19V82.1772Z" fill="#F4F5F6"/>
<path fill-rule="evenodd" clip-rule="evenodd" d="M181.465 81.8496H188.517V118.846H181.465V81.8496ZM182.12 82.5044V118.191H187.862V82.5044H182.12Z" fill="#959DA8"/>
<path d="M194.737 82.1772H188.34V118.519H194.737V82.1772Z" fill="#F4F5F6"/>
<path fill-rule="evenodd" clip-rule="evenodd" d="M188.016 81.8496H195.068V118.846H188.016V81.8496ZM188.67 82.5044V118.191H194.413V82.5044H188.67Z" fill="#959DA8"/>
<path d="M201.284 82.1772H194.887V118.519H201.284V82.1772Z" fill="#F4F5F6"/>
<path fill-rule="evenodd" clip-rule="evenodd" d="M194.559 81.8496H201.611V118.846H194.559V81.8496ZM195.213 82.5044V118.191H200.956V82.5044H195.213Z" fill="#959DA8"/>
<path fill-rule="evenodd" clip-rule="evenodd" d="M129.172 81.8516H201.678V119.175H129.172V81.8516ZM130.481 83.1612V117.866H200.368V83.1612H130.481Z" fill="#959DA8"/>
</svg>
