<svg width="1500" height="450" viewBox="0 0 1500 450" fill="none" xmlns="http://www.w3.org/2000/svg">
<path d="M1635.77 -64H-288V436.98H1635.77V-64Z" fill="white"/>
<path d="M862.029 385.65L853.929 377.55L845.829 385.65L845.779 426.75H862.029V385.65Z" fill="white" stroke="#959DA8" stroke-width="2" stroke-miterlimit="10"/>
<path d="M878.27 385.65L870.17 377.55L862.07 385.65L862.01 426.75H878.27V385.65Z" fill="white" stroke="#959DA8" stroke-width="2" stroke-miterlimit="10"/>
<path d="M894.51 385.65L886.41 377.55L878.31 385.65L878.25 426.75H894.51V385.65Z" fill="white" stroke="#959DA8" stroke-width="2" stroke-miterlimit="10"/>
<path d="M910.74 385.65L902.64 377.55L894.54 385.65L894.49 426.75H910.74V385.65Z" fill="white" stroke="#959DA8" stroke-width="2" stroke-miterlimit="10"/>
<path d="M926.981 385.65L918.881 377.55L910.781 385.65L910.721 426.75H926.981V385.65Z" fill="white" stroke="#959DA8" stroke-width="2" stroke-miterlimit="10"/>
<path d="M943.221 385.65L935.121 377.55L927.021 385.65L926.961 426.75H943.221V385.65Z" fill="white" stroke="#959DA8" stroke-width="2" stroke-miterlimit="10"/>
<path d="M959.449 385.65L951.349 377.55L943.249 385.65L943.199 426.75H959.449V385.65Z" fill="white" stroke="#959DA8" stroke-width="2" stroke-miterlimit="10"/>
<path d="M975.69 385.65L967.59 377.55L959.49 385.65L959.43 426.75H975.69V385.65Z" fill="white" stroke="#959DA8" stroke-width="2" stroke-miterlimit="10"/>
<path d="M992.061 385.65L983.96 377.55L975.86 385.65L975.811 426.75H992.061V385.65Z" fill="white" stroke="#959DA8" stroke-width="2" stroke-miterlimit="10"/>
<path d="M1008.3 385.65L1000.2 377.55L992.099 385.65L992.039 426.75H1008.3V385.65Z" fill="white" stroke="#959DA8" stroke-width="2" stroke-miterlimit="10"/>
<path d="M1024.54 385.65L1016.44 377.55L1008.34 385.65L1008.28 426.75H1024.54V385.65Z" fill="white" stroke="#959DA8" stroke-width="2" stroke-miterlimit="10"/>
<path d="M1040.78 385.65L1032.67 377.55L1024.57 385.65L1024.52 426.75H1040.78V385.65Z" fill="white" stroke="#959DA8" stroke-width="2" stroke-miterlimit="10"/>
<path d="M1057.01 385.65L1048.91 377.55L1040.81 385.65L1040.76 426.75H1057.01V385.65Z" fill="white" stroke="#959DA8" stroke-width="2" stroke-miterlimit="10"/>
<path d="M1073.27 385.65L1065.16 377.55L1057.06 385.65L1057.01 426.75H1073.27V385.65Z" fill="white" stroke="#959DA8" stroke-width="2" stroke-miterlimit="10"/>
<path d="M1089.57 385.65L1081.47 377.55L1073.37 385.65L1073.31 426.75H1089.57V385.65Z" fill="white" stroke="#959DA8" stroke-width="2" stroke-miterlimit="10"/>
<path d="M1105.81 385.65L1097.71 377.55L1089.61 385.65L1089.55 426.75H1105.81V385.65Z" fill="white" stroke="#959DA8" stroke-width="2" stroke-miterlimit="10"/>
<path d="M1122.05 385.65L1113.94 377.55L1105.84 385.65L1105.79 426.75H1122.05V385.65Z" fill="white" stroke="#959DA8" stroke-width="2" stroke-miterlimit="10"/>
<path d="M1138.28 385.65L1130.18 377.55L1122.08 385.65L1122.03 426.75H1138.28V385.65Z" fill="white" stroke="#959DA8" stroke-width="2" stroke-miterlimit="10"/>
<path d="M1154.54 385.65L1146.43 377.55L1138.33 385.65L1138.28 426.75H1154.54V385.65Z" fill="white" stroke="#959DA8" stroke-width="2" stroke-miterlimit="10"/>
<path d="M1420.66 292H1136L1136.18 428.62H1420.64L1420.66 292Z" fill="white" stroke="#959DA8" stroke-width="2" stroke-miterlimit="10"/>
<path d="M284.58 385.06L276.47 376.96L268.37 385.06L268.32 426.16H284.58V385.06Z" fill="white" stroke="#959DA8" stroke-width="2" stroke-miterlimit="10"/>
<path d="M300.811 385.06L292.711 376.96L284.611 385.06L284.551 426.16H300.811V385.06Z" fill="white" stroke="#959DA8" stroke-width="2" stroke-miterlimit="10"/>
<path d="M317.049 385.06L308.949 376.96L300.849 385.06L300.789 426.16H317.049V385.06Z" fill="white" stroke="#959DA8" stroke-width="2" stroke-miterlimit="10"/>
<path d="M333.289 385.06L325.179 376.96L317.079 385.06L317.029 426.16H333.289V385.06Z" fill="white" stroke="#959DA8" stroke-width="2" stroke-miterlimit="10"/>
<path d="M349.52 385.06L341.42 376.96L333.32 385.06L333.26 426.16H349.52V385.06Z" fill="white" stroke="#959DA8" stroke-width="2" stroke-miterlimit="10"/>
<path d="M365.76 385.06L357.66 376.96L349.56 385.06L349.5 426.16H365.76V385.06Z" fill="white" stroke="#959DA8" stroke-width="2" stroke-miterlimit="10"/>
<path d="M382 385.06L373.9 376.96L365.79 385.06L365.74 426.16H382V385.06Z" fill="white" stroke="#959DA8" stroke-width="2" stroke-miterlimit="10"/>
<path d="M398.23 385.06L390.13 376.96L382.031 385.06L381.98 426.16H398.23V385.06Z" fill="white" stroke="#959DA8" stroke-width="2" stroke-miterlimit="10"/>
<path d="M414.61 385.06L406.5 376.96L398.4 385.06L398.35 426.16H414.61V385.06Z" fill="white" stroke="#959DA8" stroke-width="2" stroke-miterlimit="10"/>
<path d="M430.84 385.06L422.74 376.96L414.64 385.06L414.59 426.16H430.84V385.06Z" fill="white" stroke="#959DA8" stroke-width="2" stroke-miterlimit="10"/>
<path d="M447.08 385.06L438.98 376.96L430.88 385.06L430.82 426.16H447.08V385.06Z" fill="white" stroke="#959DA8" stroke-width="2" stroke-miterlimit="10"/>
<path d="M463.321 385.06L455.221 376.96L447.121 385.06L447.061 426.16H463.321V385.06Z" fill="white" stroke="#959DA8" stroke-width="2" stroke-miterlimit="10"/>
<path d="M479.551 385.06L471.451 376.96L463.351 385.06L463.301 426.16H479.551V385.06Z" fill="white" stroke="#959DA8" stroke-width="2" stroke-miterlimit="10"/>
<path d="M1391.32 314.54H1348.47V407.63H1391.32V314.54Z" fill="#D3DCE5"/>
<circle cx="1383" cy="372" r="2" fill="white" stroke="#959DA8" stroke-miterlimit="10"/>
<path d="M476.211 280.85V429.05H651.671" stroke="#959DA8" stroke-width="2" stroke-miterlimit="10"/>
<path d="M533.999 315.689H514.199V378.399H533.999V315.689Z" fill="white" stroke="#959DA8" stroke-miterlimit="10"/>
<path d="M649.42 270.06V426H855.42V269.62" fill="white"/>
<path d="M1419 408H1326V417H1419V408Z" fill="white" stroke="#959DA8" stroke-miterlimit="10"/>
<path d="M1419 417H1326V427H1419V417Z" fill="white" stroke="#959DA8" stroke-miterlimit="10"/>
<path d="M-204.561 274.46L-146.751 204.75L70.9095 204.9L4.85944 276.86L-204.561 274.46Z" fill="white" stroke="#959DA8" stroke-width="2" stroke-miterlimit="10"/>
<path d="M20.5703 407.62H-92.4297V417.39H20.5703V407.62Z" fill="white" stroke="#959DA8" stroke-width="2" stroke-miterlimit="10"/>
<path d="M20.5703 417.37H-92.4297V427.14H20.5703V417.37Z" fill="white" stroke="#959DA8" stroke-width="2" stroke-miterlimit="10"/>
<path d="M679.689 232.53V191H606.109V236.51H674.689" fill="white"/>
<path d="M679.689 232.53V191H606.109V236.51H674.689" stroke="#959DA8" stroke-miterlimit="10"/>
<path d="M640 197H612.4V230.35H640V197Z" fill="white" stroke="#959DA8" stroke-miterlimit="10"/>
<path d="M673.63 197H646.07V230.35H673.62L673.63 197Z" fill="white" stroke="#959DA8" stroke-miterlimit="10"/>
<path d="M809 367.25H855.41V270.08" fill="white"/>
<path d="M809 367.25H855.41V270.08" stroke="#959DA8" stroke-miterlimit="10"/>
<path d="M695.801 426V296.66H809.001V427" stroke="#959DA8" stroke-width="2" stroke-miterlimit="10"/>
<path d="M649.42 270.06V427H855.42V269.62" stroke="#959DA8" stroke-width="2" stroke-miterlimit="10"/>
<path d="M486.62 338.49C487.614 333.834 487.566 329.015 486.48 324.38C485.395 319.744 483.298 315.405 480.34 311.675C477.382 307.944 473.636 304.913 469.37 302.798C465.104 300.684 460.424 299.538 455.663 299.444C450.903 299.349 446.181 300.308 441.834 302.251C437.488 304.195 433.624 307.075 430.52 310.685C427.417 314.296 425.149 318.547 423.88 323.136C422.611 327.725 422.372 332.538 423.18 337.23C419.649 338.948 416.53 341.408 414.036 344.442C411.542 347.476 409.733 351.012 408.731 354.809C407.729 358.606 407.559 362.575 408.231 366.444C408.904 370.313 410.403 373.991 412.628 377.228C414.852 380.464 417.749 383.183 421.12 385.197C424.491 387.211 428.257 388.474 432.161 388.9C436.065 389.326 440.015 388.903 443.741 387.663C447.467 386.422 450.881 384.391 453.75 381.71C456.539 384.317 459.843 386.309 463.449 387.559C467.056 388.809 470.884 389.288 474.688 388.967C478.491 388.645 482.185 387.528 485.53 385.69C488.875 383.852 491.797 381.332 494.108 378.294C496.418 375.256 498.066 371.767 498.944 368.052C499.822 364.338 499.911 360.48 499.205 356.729C498.5 352.978 497.015 349.416 494.847 346.275C492.68 343.133 489.877 340.481 486.62 338.49Z" fill="#80C33F"/>
<path d="M455 366.741L440.1 356.811" stroke="#2A3A51" stroke-width="1.42" stroke-linecap="round" stroke-linejoin="round"/>
<path d="M455 379.15L472.39 364.26" stroke="#2A3A51" stroke-width="1.42" stroke-linecap="round" stroke-linejoin="round"/>
<path d="M455 336.94V426.33" stroke="#2A3A51" stroke-width="1.42" stroke-linecap="round" stroke-linejoin="round"/>
<path d="M11.1795 274.68H-209.23V284.21H11.1795V274.68Z" fill="white" stroke="#959DA8" stroke-width="2" stroke-miterlimit="10"/>
<path d="M697.941 425.45C697.946 426.595 697.794 427.735 697.491 428.84H596.661C596.345 427.734 596.154 426.597 596.091 425.45C595.651 418.45 601.731 412.81 608.731 412.81C610.184 412.812 611.626 413.069 612.991 413.57C612.915 412.869 612.879 412.165 612.881 411.46C612.896 406.704 614.587 402.106 617.656 398.473C620.726 394.841 624.977 392.406 629.664 391.598C634.35 390.79 639.172 391.659 643.281 394.053C647.39 396.448 650.523 400.214 652.131 404.69C654.399 402.644 657.159 401.222 660.141 400.56C663.123 399.899 666.225 400.021 669.146 400.916C672.067 401.81 674.706 403.446 676.806 405.663C678.906 407.881 680.396 410.605 681.131 413.57C683.034 412.891 685.073 412.68 687.075 412.955C689.076 413.23 690.983 413.983 692.632 415.15C694.282 416.317 695.626 417.864 696.552 419.66C697.478 421.456 697.958 423.449 697.951 425.47L697.941 425.45Z" fill="#80C33F"/>
<path d="M14.4195 251.91H-60.4805V301.85H14.4195V251.91Z" fill="white" stroke="#959DA8" stroke-miterlimit="10"/>
<path d="M1548.89 200.869H1336.64V182.189H1318.08V200.839H1194.51L1136 291.999H1582L1548.89 200.869Z" fill="white" stroke="#959DA8" stroke-width="2" stroke-miterlimit="10"/>
<path d="M1334 299H1326V408H1334V299Z" fill="white" stroke="#959DA8" stroke-miterlimit="10"/>
<path d="M1431.16 175.37L1250.45 288.43V298.76H1419.45V429.33H1611.81V291.33L1431.16 175.37Z" fill="white" stroke="#959DA8" stroke-width="2" stroke-miterlimit="10"/>
<path d="M308.42 388.68C308.87 388.683 309.32 388.636 309.76 388.54C330.26 383.88 330.26 359.05 330.26 359.05C330.26 325.22 308.43 308.26 308.43 308.26C308.43 308.26 286.59 325.18 286.59 359C286.59 359 286.59 383.86 307.08 388.49C307.518 388.603 307.967 388.667 308.42 388.68Z" fill="#80C33F"/>
<path d="M308.43 341.63V426.08" stroke="#2A3A51" stroke-width="1.42" stroke-linecap="round" stroke-linejoin="round"/>
<path d="M1065 390.761C1065.45 390.764 1065.9 390.717 1066.34 390.621C1086.82 385.961 1086.83 361.151 1086.83 361.151C1086.83 327.341 1065.01 310.391 1065.01 310.391C1065.01 310.391 1043.18 327.301 1043.18 361.151C1043.18 361.151 1043.18 385.991 1063.66 390.621C1064.1 390.717 1064.55 390.764 1065 390.761Z" fill="#80C33F"/>
<path d="M1065 343.75V428.14" stroke="#2A3A51" stroke-width="1.46" stroke-linecap="round" stroke-linejoin="round"/>
<path d="M1114 400.501C1114.34 400.5 1114.67 400.464 1115 400.391C1130.32 396.901 1130.32 378.391 1130.32 378.391C1130.32 353.081 1114 340.391 1114 340.391C1114 340.391 1097.68 353.041 1097.68 378.391C1097.68 378.391 1097.68 396.971 1113 400.391C1113.33 400.464 1113.66 400.5 1114 400.501Z" fill="#80C33F"/>
<path d="M1114 365.34V428.44" stroke="#2A3A51" stroke-width="1.46" stroke-linecap="round" stroke-linejoin="round"/>
<path d="M50.6999 230.46H-64.1402L-74.6602 257.38H61.2098L50.6999 230.46Z" fill="white" stroke="#959DA8" stroke-width="2" stroke-miterlimit="10"/>
<path d="M1464.61 220.561H1397.82V253.071H1464.61V220.561Z" fill="white" stroke="#959DA8" stroke-miterlimit="10"/>
<path d="M1428.18 226.689H1404V247.129H1428.22L1428.18 226.689Z" fill="white" stroke="#959DA8" stroke-miterlimit="10"/>
<path d="M1458.49 226.689H1434.27V247.129H1458.49V226.689Z" fill="white" stroke="#959DA8" stroke-miterlimit="10"/>
<path d="M7.3197 262.63H-6.07031V290.84H7.3197V262.63Z" fill="white" stroke="#959DA8" stroke-miterlimit="10"/>
<path d="M0.619141 262.63V274.02" stroke="#959DA8" stroke-miterlimit="10"/>
<path d="M-6.06055 274.221H7.31946" stroke="#959DA8" stroke-miterlimit="10"/>
<path d="M132.15 154.779L271.15 293.419V426.069H-6.84961V292.699L132.15 154.779Z" fill="white" stroke="#959DA8" stroke-width="2" stroke-miterlimit="10"/>
<path d="M88.5397 423C88.5409 424.064 88.3997 425.123 88.1197 426.15H-6.7303C-7.02542 425.123 -7.20649 424.067 -7.27028 423C-7.68028 416.46 -1.9503 411.11 4.6197 411.11C5.98431 411.111 7.33819 411.351 8.6197 411.82C8.54437 411.156 8.50766 410.488 8.50972 409.82C8.47976 405.325 10.0442 400.966 12.925 397.516C15.8058 394.065 19.8165 391.748 24.2444 390.976C28.6723 390.204 33.2306 391.026 37.1094 393.297C40.9881 395.568 43.9362 399.141 45.4297 403.38C47.5642 401.461 50.1592 400.126 52.9622 399.507C55.7652 398.888 58.6808 399.005 61.4252 399.847C64.1697 400.688 66.6495 402.226 68.6235 404.31C70.5974 406.394 71.9983 408.954 72.6897 411.74C74.4809 411.099 76.4003 410.899 78.2852 411.157C80.1702 411.415 81.9652 412.123 83.5183 413.222C85.0714 414.321 86.3368 415.778 87.2074 417.469C88.078 419.161 88.5282 421.038 88.5197 422.94L88.5397 423Z" fill="#80C33F"/>
<path d="M-4.16016 290.52H268.32" stroke="#959DA8" stroke-miterlimit="10"/>
<path d="M-6.61914 300.09H271.421" stroke="#959DA8" stroke-miterlimit="10"/>
<path d="M185.76 282.48H70.9204L60.4004 309.39H196.27L185.76 282.48Z" fill="white" stroke="#959DA8" stroke-width="2" stroke-miterlimit="10"/>
<path d="M146.87 202.7H116.35V267H146.87V202.7Z" fill="white" stroke="#959DA8" stroke-miterlimit="10"/>
<path d="M131.6 202.7V228.66" stroke="#959DA8" stroke-miterlimit="10"/>
<path d="M116.381 229.109H146.871" stroke="#959DA8" stroke-miterlimit="10"/>
<path d="M1510.53 314.65H1480V379H1510.52L1510.53 314.65Z" fill="white" stroke="#959DA8" stroke-miterlimit="10"/>
<path d="M1495.27 314.65V340.6" stroke="#959DA8" stroke-miterlimit="10"/>
<path d="M1480.05 341.061H1510.53" stroke="#959DA8" stroke-miterlimit="10"/>
<path d="M1195.8 314.65H1165.28V379H1195.8V314.65Z" fill="white" stroke="#959DA8" stroke-miterlimit="10"/>
<path d="M1180.54 314.65V340.6" stroke="#959DA8" stroke-miterlimit="10"/>
<path d="M1165.31 341.061H1195.8" stroke="#959DA8" stroke-miterlimit="10"/>
<path d="M1236 314.65H1205.48V379H1236V314.65Z" fill="white" stroke="#959DA8" stroke-miterlimit="10"/>
<path d="M1220.73 314.65V340.6" stroke="#959DA8" stroke-miterlimit="10"/>
<path d="M1205.5 341.061H1235.99" stroke="#959DA8" stroke-miterlimit="10"/>
<path d="M711.5 203.499L644.07 151.779L473.26 283.069" stroke="#959DA8" stroke-miterlimit="10"/>
<path d="M719 196.999L652.08 145.609L644.07 139.439L636.05 145.609L457.9 283.069H473.26L476 281.999" stroke="#959DA8" stroke-width="2" stroke-miterlimit="10"/>
<path d="M1276.18 314.65H1245.66V379H1276.18V314.65Z" fill="white" stroke="#959DA8" stroke-miterlimit="10"/>
<path d="M1260.92 314.65V340.6" stroke="#959DA8" stroke-miterlimit="10"/>
<path d="M1245.7 341.061H1276.18" stroke="#959DA8" stroke-miterlimit="10"/>
<path d="M104 314.65H73.4805V379H104V314.65Z" fill="white" stroke="#959DA8" stroke-miterlimit="10"/>
<path d="M88.7305 314.65V340.6" stroke="#959DA8" stroke-miterlimit="10"/>
<path d="M73.5098 341.061H104" stroke="#959DA8" stroke-miterlimit="10"/>
<path d="M144.11 314.65H113.58V379H144.1L144.11 314.65Z" fill="white" stroke="#959DA8" stroke-miterlimit="10"/>
<path d="M128.84 314.65V340.6" stroke="#959DA8" stroke-miterlimit="10"/>
<path d="M113.619 341.061H144.109" stroke="#959DA8" stroke-miterlimit="10"/>
<path d="M184.209 314.65H153.689V379H184.209V314.65Z" fill="white" stroke="#959DA8" stroke-miterlimit="10"/>
<path d="M168.949 314.65V340.6" stroke="#959DA8" stroke-miterlimit="10"/>
<path d="M153.73 341.061H184.21" stroke="#959DA8" stroke-miterlimit="10"/>
<path d="M68.2898 309.359H64.0098V322.509H68.2898V309.359Z" fill="white" stroke="#959DA8" stroke-width="2" stroke-miterlimit="10"/>
<path d="M192.979 309.51H188.699V322.66H192.979V309.51Z" fill="white" stroke="#959DA8" stroke-width="2" stroke-miterlimit="10"/>
<path d="M720.769 314.54H705.699V364.78H720.769V314.54Z" fill="white" stroke="#959DA8" stroke-miterlimit="10"/>
<path d="M773.379 314.54H730.529V407.63H773.379V314.54Z" fill="#D3DCE5"/>
<circle cx="765" cy="372" r="2" fill="white" stroke="#959DA8" stroke-miterlimit="10"/>
<path d="M767.31 320.45H736.58V364.78H767.31V320.45Z" fill="white"/>
<path d="M1385.25 320.45H1354.52V364.78H1385.25V320.45Z" fill="white"/>
<path d="M855.079 269.77H650.689L661.629 260.02H842.969L855.079 269.77Z" fill="white" stroke="#959DA8" stroke-miterlimit="10"/>
<path d="M1608.68 288.98H1250.5V298.29H1250.35L1611.93 298.73L1608.68 288.98Z" fill="white" stroke="#959DA8" stroke-miterlimit="10"/>
<path d="M601.53 315.63H543.65V378.48H601.53V315.63Z" fill="white" stroke="#959DA8" stroke-miterlimit="10"/>
<path d="M543.641 340.939H601.531" stroke="#959DA8" stroke-miterlimit="10"/>
<path d="M572.58 315.63V340.94" stroke="#959DA8" stroke-miterlimit="10"/>
<path d="M514.311 340.99H534.161" stroke="#959DA8" stroke-miterlimit="10"/>
<path d="M631.001 315.7H611.131V378.4H631.001V315.7Z" fill="white" stroke="#959DA8" stroke-miterlimit="10"/>
<path d="M611.131 341.01H630.971" stroke="#959DA8" stroke-miterlimit="10"/>
<path d="M705.699 332.859H720.769" stroke="#959DA8" stroke-miterlimit="10"/>
<path d="M1624.63 298.73H1609.56L1431.07 176.44L1250.79 298.73H1234.54L1431.07 164.58L1624.63 298.73Z" fill="white"/>
<path d="M797.9 314.54H782.83V364.78H797.9V314.54Z" fill="white" stroke="#959DA8" stroke-miterlimit="10"/>
<path d="M782.83 332.859H797.9" stroke="#959DA8" stroke-miterlimit="10"/>
<path d="M1609.56 298.729L1431.07 176.439L1250.79 298.729" stroke="#959DA8" stroke-miterlimit="10"/>
<path d="M1250.79 298.73H1234.54L1431.07 164.58L1624.63 298.73H1609.56" stroke="#959DA8" stroke-width="2" stroke-miterlimit="10"/>
<path d="M1264.25 298.76H1256.36V407.63H1264.25V298.76Z" fill="white" stroke="#959DA8" stroke-width="2" stroke-miterlimit="10"/>
<path d="M1229.37 423.9C1229.36 422.309 1229.74 420.74 1230.47 419.326C1231.2 417.911 1232.26 416.693 1233.55 415.774C1234.85 414.855 1236.35 414.262 1237.93 414.046C1239.51 413.829 1241.11 413.995 1242.61 414.53C1243.19 412.197 1244.36 410.054 1246.01 408.308C1247.66 406.563 1249.73 405.275 1252.03 404.57C1254.33 403.865 1256.77 403.767 1259.12 404.286C1261.46 404.805 1263.63 405.922 1265.42 407.53C1266.68 404.003 1269.15 401.035 1272.38 399.148C1275.62 397.26 1279.41 396.574 1283.1 397.211C1286.8 397.848 1290.14 399.767 1292.56 402.629C1294.97 405.492 1296.3 409.114 1296.31 412.86C1296.31 413.414 1296.28 413.969 1296.22 414.52C1297.3 414.124 1298.43 413.921 1299.58 413.92C1305.09 413.92 1309.87 418.39 1309.52 423.86C1309.47 424.76 1309.32 425.653 1309.07 426.52H1229.72C1229.48 425.654 1229.36 424.759 1229.36 423.86L1229.37 423.9Z" fill="#80C33F"/>
<path d="M139.419 148.311L132.509 141.391L125.609 148.311L-23.8105 298.141L-10.1906 298.221L132.509 155.231L275.209 298.221L288.859 298.141L139.419 148.311Z" fill="white"/>
<path d="M853.949 269.62L752.369 181.5L650.789 269.62" stroke="#959DA8" stroke-miterlimit="10"/>
<path d="M650.79 269.621H636.67L752.39 168.221L868.07 269.621H853.95" stroke="#959DA8" stroke-width="2" stroke-miterlimit="10"/>
<path d="M-6.89056 296.691L-9.00055 298.221H-11.0005L-23.8105 298.141L125.609 148.311L132.509 141.391L139.419 148.311L288.859 298.141L275.999 298.221H273.999L270.999 296.001" stroke="#959DA8" stroke-width="2" stroke-miterlimit="10"/>
<path d="M275.211 298.22L132.511 155.23L-10.1895 298.22" stroke="#959DA8" stroke-miterlimit="10"/>
<path d="M1336.49 182.29H1318.17V200.91H1336.49V182.29Z" fill="white" stroke="#959DA8" stroke-miterlimit="10"/>
<path d="M696 367H649" stroke="#959DA8" stroke-miterlimit="10"/>
<path d="M809.129 407.62H695.939V417.39H809.129V407.62Z" fill="white" stroke="#959DA8" stroke-miterlimit="10"/>
<path d="M809.129 417.62H695.939V427.39H809.129V417.62Z" fill="white" stroke="#959DA8" stroke-miterlimit="10"/>
<path d="M1634.06 426H-291V449.95H1634.06V426Z" fill="#2A3A51"/>
</svg>
