<svg width="80" height="16" viewBox="0 0 80 16" fill="none" xmlns="http://www.w3.org/2000/svg">
<path d="M8 12.6177L3.05548 15.2173L4 9.71119L0 5.81214L5.52774 5.00941L8 0L10.4723 5.00941L16 5.81214L12 9.71119L12.9445 15.2173L8 12.6177Z" fill="#FFDD2C"/>
<path d="M24 12.6177L19.0555 15.2173L20 9.71119L16 5.81214L21.5277 5.00941L24 0L26.4723 5.00941L32 5.81214L28 9.71119L28.9445 15.2173L24 12.6177Z" fill="#FFDD2C"/>
<path d="M40 12.6177L35.0555 15.2173L36 9.71119L32 5.81214L37.5277 5.00941L40 0L42.4723 5.00941L48 5.81214L44 9.71119L44.9445 15.2173L40 12.6177Z" fill="#FFDD2C"/>
<path d="M56 12.6177L51.0555 15.2173L52 9.71119L48 5.81214L53.5277 5.00941L56 0L58.4723 5.00941L64 5.81214L60 9.71119L60.9445 15.2173L56 12.6177Z" fill="#FFDD2C"/>
<path d="M72 12.6177L67.0555 15.2173L68 9.71119L64 5.81214L69.5277 5.00941L72 0L74.4723 5.00941L80 5.81214L76 9.71119L76.9445 15.2173L72 12.6177Z" fill="#EEEEEE"/>
<path d="M67.0555 15.2173L72 12.6177V0L69.5277 5.00941L64 5.81214L68 9.71119L67.0555 15.2173Z" fill="#FFDD2C"/>
</svg>
