<svg width="447" height="202" viewBox="0 0 447 202" fill="none" xmlns="http://www.w3.org/2000/svg">
<path d="M46.1829 175.017C46.4757 175.019 46.7678 174.988 47.0539 174.926C60.3658 171.897 60.3723 155.77 60.3723 155.77C60.3723 133.794 46.1894 122.776 46.1894 122.776C46.1894 122.776 32 133.768 32 155.77C32 155.77 32 171.916 45.3119 174.926C45.598 174.988 45.8901 175.019 46.1829 175.017Z" fill="#80C33F"/>
<path d="M46.1836 144.46V199.313" stroke="#2A3A51" stroke-width="1.46" stroke-linecap="round" stroke-linejoin="round"/>
<path d="M12.5625 173.714L7.2975 168.449L2.03245 173.714L2 200.429H12.5625V173.714Z" fill="white" stroke="#959DA8" stroke-width="2" stroke-miterlimit="10"/>
<path d="M23.1178 173.714L17.8528 168.449L12.5878 173.714L12.5488 200.429H23.1178V173.714Z" fill="white" stroke="#959DA8" stroke-width="2" stroke-miterlimit="10"/>
<path d="M33.6744 173.714L28.4095 168.449L23.1445 173.714L23.1055 200.429H33.6744V173.714Z" fill="white" stroke="#959DA8" stroke-width="2" stroke-miterlimit="10"/>
<path d="M44.2226 173.714L38.9577 168.449L33.6927 173.714L33.6602 200.429H44.2226V173.714Z" fill="white" stroke="#959DA8" stroke-width="2" stroke-miterlimit="10"/>
<path d="M54.778 173.714L49.513 168.449L44.248 173.714L44.209 200.429H54.778V173.714Z" fill="white" stroke="#959DA8" stroke-width="2" stroke-miterlimit="10"/>
<path d="M65.3365 173.714L60.0716 168.449L54.8066 173.714L54.7676 200.429H65.3365V173.714Z" fill="white" stroke="#959DA8" stroke-width="2" stroke-miterlimit="10"/>
<path d="M385.202 173.695L379.937 168.43L374.672 173.695L374.633 200.41H385.202V173.695Z" fill="white" stroke="#959DA8" stroke-width="2" stroke-miterlimit="10"/>
<path d="M77.0768 171.695L71.8053 166.43L66.5403 171.695L66.5078 198.41H77.0768V171.695Z" fill="white" stroke="#959DA8" stroke-width="2" stroke-miterlimit="10"/>
<path d="M250.054 110.822H65.0254L65.1424 199.625H250.041L250.054 110.822Z" fill="white" stroke="#959DA8" stroke-width="2" stroke-miterlimit="10"/>
<path d="M230.981 125.474H203.129V185.982H230.981V125.474Z" fill="#D3DCE5"/>
<circle cx="225.575" cy="162.822" r="1.3" fill="white" stroke="#959DA8" stroke-miterlimit="10"/>
<path d="M248.975 186.223H188.525V192.073H248.975V186.223Z" fill="white" stroke="#959DA8" stroke-miterlimit="10"/>
<path d="M248.975 192.072H188.525V198.572H248.975V192.072Z" fill="white" stroke="#959DA8" stroke-miterlimit="10"/>
<path d="M333.403 51.5882H195.441V39.4463H183.377V51.5687H103.057L65.0254 110.823H354.924L333.403 51.5882Z" fill="white" stroke="#959DA8" stroke-width="2" stroke-miterlimit="10"/>
<path d="M193.725 115.373H188.525V186.223H193.725V115.373Z" fill="white" stroke="#959DA8" stroke-miterlimit="10"/>
<path d="M256.879 35.0137L139.418 108.502V115.217H249.268V200.087H374.301V110.387L256.879 35.0137Z" fill="white" stroke="#959DA8" stroke-width="2" stroke-miterlimit="10"/>
<path d="M278.62 64.3867H235.207V85.5181H278.62V64.3867Z" fill="white" stroke="#959DA8" stroke-miterlimit="10"/>
<path d="M254.942 68.3711H239.225V81.657H254.968L254.942 68.3711Z" fill="white" stroke="#959DA8" stroke-miterlimit="10"/>
<path d="M274.643 68.3711H258.9V81.657H274.643V68.3711Z" fill="white" stroke="#959DA8" stroke-miterlimit="10"/>
<path d="M308.469 125.545H288.625V167.372H308.463L308.469 125.545Z" fill="white" stroke="#959DA8" stroke-miterlimit="10"/>
<path d="M298.549 125.545V142.412" stroke="#959DA8" stroke-miterlimit="10"/>
<path d="M288.658 142.712H308.47" stroke="#959DA8" stroke-miterlimit="10"/>
<path d="M334.598 125.545H314.754V167.372H334.592L334.598 125.545Z" fill="white" stroke="#959DA8" stroke-miterlimit="10"/>
<path d="M324.674 125.545V142.412" stroke="#959DA8" stroke-miterlimit="10"/>
<path d="M314.781 142.712H334.6" stroke="#959DA8" stroke-miterlimit="10"/>
<path d="M103.897 125.545H84.0586V167.372H103.897V125.545Z" fill="white" stroke="#959DA8" stroke-miterlimit="10"/>
<path d="M93.9766 125.545V142.412" stroke="#959DA8" stroke-miterlimit="10"/>
<path d="M84.0781 142.712H103.897" stroke="#959DA8" stroke-miterlimit="10"/>
<path d="M130.025 125.545H110.188V167.372H130.025V125.545Z" fill="white" stroke="#959DA8" stroke-miterlimit="10"/>
<path d="M120.1 125.545V142.412" stroke="#959DA8" stroke-miterlimit="10"/>
<path d="M110.201 142.712H130.02" stroke="#959DA8" stroke-miterlimit="10"/>
<path d="M156.143 125.545H136.305V167.372H156.143V125.545Z" fill="white" stroke="#959DA8" stroke-miterlimit="10"/>
<path d="M146.223 125.545V142.412" stroke="#959DA8" stroke-miterlimit="10"/>
<path d="M136.33 142.712H156.142" stroke="#959DA8" stroke-miterlimit="10"/>
<path d="M227.037 129.315H207.062V158.13H227.037V129.315Z" fill="white" stroke="#959DA8" stroke-miterlimit="10"/>
<path d="M372.265 108.86H139.449V114.912H139.352L374.378 115.198L372.265 108.86Z" fill="white" stroke="#959DA8" stroke-miterlimit="10"/>
<path d="M382.634 115.197H372.838L256.82 35.709L139.639 115.197H129.076L256.82 28L382.634 115.197Z" fill="white"/>
<path d="M372.838 115.197L256.82 35.709L139.639 115.197" stroke="#959DA8" stroke-miterlimit="10"/>
<path d="M139.639 115.197H129.076L256.82 28L382.634 115.197H372.838" stroke="#959DA8" stroke-width="2" stroke-miterlimit="10"/>
<path d="M148 115H143V200H148V115Z" fill="white" stroke="#959DA8" stroke-width="2" stroke-miterlimit="10"/>
<path d="M293.007 197.557C293.003 196.523 293.248 195.503 293.721 194.584C294.195 193.664 294.883 192.873 295.727 192.275C296.571 191.678 297.546 191.292 298.571 191.152C299.595 191.011 300.639 191.119 301.612 191.466C301.987 189.95 302.748 188.557 303.822 187.422C304.895 186.288 306.244 185.451 307.737 184.992C309.23 184.534 310.817 184.471 312.342 184.808C313.867 185.145 315.278 185.871 316.439 186.916C317.259 184.624 318.862 182.695 320.964 181.468C323.067 180.241 325.535 179.795 327.934 180.209C330.333 180.623 332.509 181.87 334.08 183.731C335.65 185.591 336.513 187.946 336.517 190.381C336.518 190.741 336.498 191.101 336.459 191.46C337.158 191.203 337.898 191.071 338.643 191.07C342.224 191.07 345.331 193.975 345.104 197.531C345.071 198.116 344.973 198.696 344.811 199.26H293.234C293.078 198.697 292.999 198.115 293 197.531L293.007 197.557Z" fill="#80C33F"/>
<path d="M392.562 173.265L387.297 168L382.032 173.265L382 199.98H392.562V173.265Z" fill="white" stroke="#959DA8" stroke-width="2" stroke-miterlimit="10"/>
<path d="M403.118 173.265L397.853 168L392.588 173.265L392.549 199.98H403.118V173.265Z" fill="white" stroke="#959DA8" stroke-width="2" stroke-miterlimit="10"/>
<path d="M413.674 173.265L408.409 168L403.145 173.265L403.105 199.98H413.674V173.265Z" fill="white" stroke="#959DA8" stroke-width="2" stroke-miterlimit="10"/>
<path d="M424.223 173.265L418.958 168L413.693 173.265L413.66 199.98H424.223V173.265Z" fill="white" stroke="#959DA8" stroke-width="2" stroke-miterlimit="10"/>
<path d="M434.778 173.265L429.513 168L424.248 173.265L424.209 199.98H434.778V173.265Z" fill="white" stroke="#959DA8" stroke-width="2" stroke-miterlimit="10"/>
<path d="M445.337 173.265L440.072 168L434.807 173.265L434.768 199.98H445.337V173.265Z" fill="white" stroke="#959DA8" stroke-width="2" stroke-miterlimit="10"/>
<path d="M379.747 157.538C380.232 155.376 380.229 153.133 379.741 150.972C379.252 148.811 378.289 146.785 376.921 145.042C375.554 143.299 373.816 141.881 371.833 140.892C369.85 139.903 367.673 139.367 365.457 139.322C363.242 139.278 361.045 139.727 359.024 140.636C357.004 141.545 355.21 142.892 353.774 144.58C352.338 146.267 351.295 148.252 350.72 150.392C350.146 152.532 350.054 154.773 350.452 156.953C348.82 157.746 347.378 158.881 346.226 160.282C345.073 161.684 344.237 163.317 343.773 165.071C343.31 166.825 343.231 168.659 343.541 170.446C343.852 172.234 344.545 173.933 345.572 175.429C346.6 176.924 347.938 178.179 349.496 179.11C351.054 180.04 352.794 180.623 354.597 180.819C356.401 181.015 358.226 180.819 359.947 180.245C361.668 179.671 363.245 178.732 364.57 177.493C365.856 178.701 367.383 179.626 369.05 180.207C370.717 180.789 372.487 181.013 374.246 180.866C376.006 180.72 377.714 180.205 379.262 179.356C380.81 178.506 382.162 177.342 383.23 175.936C384.299 174.531 385.061 172.917 385.466 171.199C385.871 169.481 385.911 167.697 385.582 165.962C385.254 164.228 384.565 162.581 383.56 161.13C382.554 159.679 381.256 158.455 379.747 157.538Z" fill="#80C33F"/>
<path d="M365.141 170.583L358.258 165.994" stroke="#2A3A51" stroke-width="1.01" stroke-linecap="round" stroke-linejoin="round"/>
<path d="M365.141 176.316L373.168 169.439" stroke="#2A3A51" stroke-width="1.01" stroke-linecap="round" stroke-linejoin="round"/>
<path d="M365.148 156.822V198.097" stroke="#2A3A51" stroke-width="1.01" stroke-linecap="round" stroke-linejoin="round"/>
<path d="M195.343 39.5117H183.436V51.6147H195.343V39.5117Z" fill="white" stroke="#959DA8" stroke-width="2" stroke-miterlimit="10"/>
<line x1="27" y1="201" x2="402" y2="201" stroke="#D9DDE2" stroke-width="2" stroke-miterlimit="10"/>
<rect x="63" y="160" width="75" height="25" fill="#2A3A51"/>
<path d="M79.4355 168.624V169.98H75.9435V172.128H78.6195V173.46H75.9435V177H74.2635V168.624H79.4355ZM84.5148 177.084C83.7308 177.084 83.0108 176.9 82.3548 176.532C81.6988 176.164 81.1788 175.656 80.7948 175.008C80.4108 174.352 80.2188 173.612 80.2188 172.788C80.2188 171.972 80.4108 171.24 80.7948 170.592C81.1788 169.936 81.6988 169.424 82.3548 169.056C83.0108 168.688 83.7308 168.504 84.5148 168.504C85.3068 168.504 86.0268 168.688 86.6748 169.056C87.3308 169.424 87.8468 169.936 88.2228 170.592C88.6068 171.24 88.7988 171.972 88.7988 172.788C88.7988 173.612 88.6068 174.352 88.2228 175.008C87.8468 175.656 87.3308 176.164 86.6748 176.532C86.0188 176.9 85.2988 177.084 84.5148 177.084ZM84.5148 175.584C85.0188 175.584 85.4628 175.472 85.8468 175.248C86.2308 175.016 86.5308 174.688 86.7468 174.264C86.9628 173.84 87.0708 173.348 87.0708 172.788C87.0708 172.228 86.9628 171.74 86.7468 171.324C86.5308 170.9 86.2308 170.576 85.8468 170.352C85.4628 170.128 85.0188 170.016 84.5148 170.016C84.0108 170.016 83.5628 170.128 83.1708 170.352C82.7868 170.576 82.4868 170.9 82.2708 171.324C82.0548 171.74 81.9468 172.228 81.9468 172.788C81.9468 173.348 82.0548 173.84 82.2708 174.264C82.4868 174.688 82.7868 175.016 83.1708 175.248C83.5628 175.472 84.0108 175.584 84.5148 175.584ZM94.3687 177L92.5207 173.736H91.7287V177H90.0487V168.624H93.1927C93.8407 168.624 94.3927 168.74 94.8487 168.972C95.3047 169.196 95.6447 169.504 95.8687 169.896C96.1007 170.28 96.2167 170.712 96.2167 171.192C96.2167 171.744 96.0567 172.244 95.7367 172.692C95.4167 173.132 94.9407 173.436 94.3087 173.604L96.3127 177H94.3687ZM91.7287 172.476H93.1327C93.5887 172.476 93.9287 172.368 94.1527 172.152C94.3767 171.928 94.4887 171.62 94.4887 171.228C94.4887 170.844 94.3767 170.548 94.1527 170.34C93.9287 170.124 93.5887 170.016 93.1327 170.016H91.7287V172.476ZM103.488 177.084C102.904 177.084 102.376 176.984 101.904 176.784C101.44 176.584 101.072 176.296 100.8 175.92C100.528 175.544 100.388 175.1 100.38 174.588H102.18C102.204 174.932 102.324 175.204 102.54 175.404C102.764 175.604 103.068 175.704 103.452 175.704C103.844 175.704 104.152 175.612 104.376 175.428C104.6 175.236 104.712 174.988 104.712 174.684C104.712 174.436 104.636 174.232 104.484 174.072C104.332 173.912 104.14 173.788 103.908 173.7C103.684 173.604 103.372 173.5 102.972 173.388C102.428 173.228 101.984 173.072 101.64 172.92C101.304 172.76 101.012 172.524 100.764 172.212C100.524 171.892 100.404 171.468 100.404 170.94C100.404 170.444 100.528 170.012 100.776 169.644C101.024 169.276 101.372 168.996 101.82 168.804C102.268 168.604 102.78 168.504 103.356 168.504C104.22 168.504 104.92 168.716 105.456 169.14C106 169.556 106.3 170.14 106.356 170.892H104.508C104.492 170.604 104.368 170.368 104.136 170.184C103.912 169.992 103.612 169.896 103.236 169.896C102.908 169.896 102.644 169.98 102.444 170.148C102.252 170.316 102.156 170.56 102.156 170.88C102.156 171.104 102.228 171.292 102.372 171.444C102.524 171.588 102.708 171.708 102.924 171.804C103.148 171.892 103.46 171.996 103.86 172.116C104.404 172.276 104.848 172.436 105.192 172.596C105.536 172.756 105.832 172.996 106.08 173.316C106.328 173.636 106.452 174.056 106.452 174.576C106.452 175.024 106.336 175.44 106.104 175.824C105.872 176.208 105.532 176.516 105.084 176.748C104.636 176.972 104.104 177.084 103.488 177.084ZM113.044 175.404H109.708L109.156 177H107.392L110.404 168.612H112.36L115.372 177H113.596L113.044 175.404ZM112.588 174.06L111.376 170.556L110.164 174.06H112.588ZM118.178 175.668H120.938V177H116.498V168.624H118.178V175.668ZM123.686 169.98V172.08H126.506V173.412H123.686V175.632H126.866V177H122.006V168.612H126.866V169.98H123.686Z" fill="white"/>
<line x1="73.5" y1="185" x2="73.5" y2="200" stroke="#2A3A51"/>
<line x1="127.5" y1="185" x2="127.5" y2="200" stroke="#2A3A51"/>
<path d="M244.641 7.3068C245.297 7.3071 245.947 7.42091 246.563 7.64308C247.018 6.84841 247.729 6.22732 248.581 5.87851C249.433 5.52969 250.379 5.47316 251.268 5.71789C251.596 4.84893 252.139 4.07475 252.845 3.4652C253.551 2.85565 254.399 2.42991 255.313 2.22638C256.227 2.02284 257.178 2.04793 258.079 2.29936C258.981 2.5508 259.805 3.02067 260.478 3.6666C261.117 2.25597 262.265 1.13242 263.696 0.515591C265.127 -0.101236 266.739 -0.166993 268.217 0.331177C269.695 0.829346 270.932 1.85563 271.686 3.20939C272.441 4.56315 272.658 6.14706 272.297 7.65149C272.966 7.387 273.687 7.27236 274.406 7.31577C275.125 7.35918 275.826 7.55956 276.458 7.90259C277.09 8.24562 277.638 8.72281 278.062 9.30004C278.487 9.87727 278.777 10.5403 278.913 11.2416C279.048 11.943 279.026 12.6654 278.847 13.3571C278.668 14.0488 278.337 14.6928 277.877 15.243C277.418 15.7932 276.841 16.236 276.189 16.5397C275.537 16.8435 274.825 17.0006 274.104 17H240.806L240.755 16.9538C239.937 16.1837 239.372 15.1886 239.13 14.0967C238.889 13.0048 238.984 11.8664 239.402 10.8284C239.821 9.79044 240.543 8.9005 241.477 8.27351C242.411 7.64652 243.513 7.31126 244.641 7.31101V7.3068Z" fill="#F4F5F6"/>
<path d="M86.3846 29.8857C85.4997 29.8861 84.6217 30.0401 83.7902 30.3406C83.1754 29.2655 82.2165 28.4252 81.0657 27.9533C79.9149 27.4813 78.6383 27.4049 77.4388 27.736C76.9948 26.5603 76.263 25.5129 75.3095 24.6882C74.356 23.8635 73.2108 23.2875 71.9771 23.0122C70.7434 22.7368 69.4601 22.7707 68.2429 23.1109C67.0257 23.4511 65.913 24.0868 65.005 24.9607C64.1415 23.0522 62.5923 21.5321 60.6601 20.6976C58.7279 19.863 56.5517 19.7741 54.557 20.4481C52.5623 21.1221 50.8924 22.5106 49.8738 24.3421C48.8552 26.1737 48.5612 28.3166 49.0491 30.352C48.1454 29.9942 47.1731 29.8391 46.202 29.8978C45.2308 29.9565 44.2847 30.2276 43.4314 30.6917C42.578 31.1558 41.8385 31.8014 41.2656 32.5824C40.6928 33.3634 40.3009 34.2604 40.1179 35.2093C39.9349 36.1582 39.9653 37.1355 40.2069 38.0714C40.4485 39.0072 40.8954 39.8785 41.5156 40.6229C42.1359 41.3673 42.9141 41.9664 43.7947 42.3773C44.6753 42.7882 45.6364 43.0009 46.6093 43H91.562L91.6307 42.9374C92.7345 41.8956 93.4984 40.5492 93.8239 39.072C94.1494 37.5948 94.0217 36.0546 93.4569 34.6502C92.8922 33.2459 91.9165 32.0419 90.6559 31.1936C89.3952 30.3453 87.9074 29.8917 86.3846 29.8914V29.8857Z" fill="#F4F5F6"/>
<path d="M336.897 30.8683C336.537 30.8685 336.179 30.9287 335.84 31.0463C335.59 30.6256 335.199 30.2968 334.73 30.1122C334.262 29.9275 333.742 29.8976 333.253 30.0271C333.072 29.5671 332.774 29.1572 332.385 28.8345C331.997 28.5118 331.53 28.2864 331.028 28.1787C330.525 28.0709 330.002 28.0842 329.506 28.2173C329.01 28.3504 328.557 28.5992 328.187 28.9411C327.835 28.1943 327.204 27.5995 326.417 27.273C325.63 26.9464 324.743 26.9116 323.931 27.1753C323.118 27.4391 322.438 27.9824 322.023 28.6991C321.608 29.4158 321.488 30.2543 321.687 31.0508C321.318 30.9108 320.922 30.8501 320.527 30.8731C320.131 30.896 319.746 31.0021 319.398 31.1837C319.05 31.3653 318.749 31.618 318.516 31.9236C318.282 32.2291 318.123 32.5801 318.048 32.9515C317.973 33.3228 317.986 33.7052 318.084 34.0714C318.183 34.4376 318.365 34.7786 318.617 35.0698C318.87 35.3611 319.187 35.5955 319.546 35.7563C319.905 35.9171 320.296 36.0003 320.693 36H339.007L339.035 35.9755C339.484 35.5679 339.796 35.041 339.928 34.463C340.061 33.8849 340.009 33.2822 339.779 32.7327C339.549 32.1832 339.151 31.712 338.638 31.3801C338.124 31.0482 337.518 30.8707 336.897 30.8705V30.8683Z" fill="#F4F5F6"/>
</svg>
