<svg width="640" height="671" viewBox="0 0 640 671" fill="none" xmlns="http://www.w3.org/2000/svg">
<g opacity="0.1">
<path d="M97.2901 236.422L303.714 103.789C308.536 100.639 314.154 98.9634 319.894 98.9634C325.634 98.9634 331.252 100.639 336.074 103.789L542.921 236.422C547.218 239.264 550.758 243.131 553.229 247.682C555.7 252.233 557.027 257.329 557.092 262.521V295.68C216.576 255.034 83.1196 473.665 83.1196 473.665V262.949C83.1185 257.661 84.4357 252.458 86.9496 247.822C89.4634 243.185 93.0927 239.264 97.5016 236.422H97.2901ZM640 328.196V216.741C639.963 211.466 638.604 206.286 636.053 201.684C633.501 197.083 629.838 193.211 625.406 190.429L336.709 4.9556C331.684 1.71916 325.851 0 319.894 0C313.937 0 308.104 1.71916 303.08 4.9556L14.1705 190.429C9.87375 193.27 6.33384 197.137 3.86269 201.688C1.39155 206.239 0.0650242 211.335 0 216.527V639.671C0 647.841 3.20875 655.676 8.92037 661.454C14.632 667.231 22.3786 670.476 30.456 670.476H79.3126C104.693 599.025 245.552 267.014 639.788 328.196" fill="url(#paint0_linear)"/>
<path d="M525.862 585.05H306.043C313.334 560.935 323.037 537.646 335 515.548C367.55 458.956 433.496 383.429 557.144 366V553.419C557.144 561.865 553.848 569.965 547.982 575.938C542.115 581.91 534.158 585.265 525.862 585.265V585.05ZM152.38 670.475H609.562C613.567 670.504 617.538 669.722 621.243 668.175C624.948 666.628 628.315 664.347 631.147 661.464C633.979 658.581 636.22 655.154 637.739 651.381C639.259 647.609 640.027 643.567 639.999 639.49V338.457C639.999 338.457 274.338 279.068 152.38 670.475Z" fill="url(#paint1_linear)"/>
</g>
<defs>
<linearGradient id="paint0_linear" x1="0" y1="0" x2="642.54" y2="670.476" gradientUnits="userSpaceOnUse">
<stop stop-color="white"/>
<stop offset="1" stop-color="white" stop-opacity="0.2"/>
</linearGradient>
<linearGradient id="paint1_linear" x1="0" y1="0" x2="642.54" y2="670.476" gradientUnits="userSpaceOnUse">
<stop stop-color="white"/>
<stop offset="1" stop-color="white" stop-opacity="0.2"/>
</linearGradient>
</defs>
</svg>
