<svg width="40" height="42" viewBox="0 0 40 42" fill="none" xmlns="http://www.w3.org/2000/svg">
<path d="M6.08063 14.6924L18.9822 6.44995C19.2835 6.2542 19.6346 6.15007 19.9934 6.15007C20.3521 6.15007 20.7033 6.2542 21.0046 6.44995L33.9326 14.6924C34.2011 14.869 34.4224 15.1093 34.5768 15.3922C34.7313 15.675 34.8142 15.9917 34.8182 16.3144V18.375C13.536 15.849 5.19498 29.4359 5.19498 29.4359V16.3409C5.19491 16.0123 5.27723 15.689 5.43435 15.4008C5.59147 15.1127 5.81829 14.869 6.09385 14.6924H6.08063ZM40 20.3957V13.4694C39.9977 13.1415 39.9128 12.8196 39.7533 12.5337C39.5938 12.2477 39.3649 12.0071 39.0879 11.8342L21.0443 0.307965C20.7303 0.106837 20.3657 0 19.9934 0C19.6211 0 19.2565 0.106837 18.9425 0.307965L0.885658 11.8342C0.617109 12.0107 0.395865 12.251 0.241418 12.5339C0.0869718 12.8167 0.00406401 13.1334 0 13.4561V39.7523C0 40.26 0.200547 40.7469 0.557523 41.1059C0.914499 41.465 1.39866 41.6667 1.9035 41.6667H4.95704C6.54329 37.2263 15.347 16.5935 39.9868 20.3957" fill="#80C33F"/>
<path d="M32.8641 36.3585H19.1254C19.5811 34.8599 20.1875 33.4126 20.9352 32.0393C22.9696 28.5224 27.0912 23.8288 34.8192 22.7457V34.3928C34.8192 34.9177 34.6132 35.4211 34.2466 35.7922C33.8799 36.1634 33.3826 36.3719 32.8641 36.3719V36.3585ZM9.52148 41.6673H38.0953C38.3456 41.669 38.5938 41.6205 38.8254 41.5243C39.057 41.4282 39.2674 41.2864 39.4444 41.1072C39.6214 40.9281 39.7614 40.7151 39.8564 40.4807C39.9514 40.2462 39.9994 39.995 39.9976 39.7417V21.034C39.9976 21.034 17.1438 17.3433 9.52148 41.6673Z" fill="#3F546F"/>
</svg>
