<svg width="656" height="269" viewBox="0 0 656 269" fill="none" xmlns="http://www.w3.org/2000/svg">
<path d="M16.3199 237.92C16.6563 237.92 16.9916 237.883 17.3199 237.81C32.6399 234.32 32.6399 215.81 32.6399 215.81C32.6399 190.5 16.3199 177.81 16.3199 177.81C16.3199 177.81 0 190.46 0 215.81C0 215.81 -5.34058e-05 234.39 15.3199 237.81C15.6483 237.883 15.9836 237.92 16.3199 237.92Z" fill="#80C33F"/>
<path d="M16.3203 202.76V265.86" stroke="#2A3A51" stroke-width="1.46" stroke-linecap="round" stroke-linejoin="round"/>
<path d="M105.32 228.18C105.77 228.183 106.22 228.136 106.66 228.04C127.14 223.38 127.15 198.57 127.15 198.57C127.15 164.76 105.33 147.81 105.33 147.81C105.33 147.81 83.5 164.72 83.5 198.57C83.5 198.57 83.5 223.41 103.98 228.04C104.42 228.136 104.869 228.183 105.32 228.18Z" fill="#80C33F"/>
<path d="M105.32 181.17V265.56" stroke="#2A3A51" stroke-width="1.46" stroke-linecap="round" stroke-linejoin="round"/>
<path d="M81.6094 223.1L73.5094 215L65.4093 223.1L65.3594 264.2H81.6094V223.1Z" fill="white" stroke="#959DA8" stroke-width="2" stroke-miterlimit="10"/>
<path d="M97.8479 223.1L89.7479 215L81.6478 223.1L81.5879 264.2H97.8479V223.1Z" fill="white" stroke="#959DA8" stroke-width="2" stroke-miterlimit="10"/>
<path d="M114.088 223.1L105.988 215L97.8882 223.1L97.8281 264.2H114.088V223.1Z" fill="white" stroke="#959DA8" stroke-width="2" stroke-miterlimit="10"/>
<path d="M130.318 223.1L122.218 215L114.118 223.1L114.068 264.2H130.318V223.1Z" fill="white" stroke="#959DA8" stroke-width="2" stroke-miterlimit="10"/>
<path d="M146.557 223.1L138.457 215L130.357 223.1L130.297 264.2H146.557V223.1Z" fill="white" stroke="#959DA8" stroke-width="2" stroke-miterlimit="10"/>
<path d="M162.799 223.1L154.699 215L146.599 223.1L146.539 264.2H162.799V223.1Z" fill="white" stroke="#959DA8" stroke-width="2" stroke-miterlimit="10"/>
<path d="M180.862 223.07L172.752 214.97L164.651 223.07L164.602 264.17H180.862V223.07Z" fill="white" stroke="#959DA8" stroke-width="2" stroke-miterlimit="10"/>
<path d="M446.98 129.42H162.32L162.5 266.04H446.96L446.98 129.42Z" fill="white" stroke="#959DA8" stroke-width="2" stroke-miterlimit="10"/>
<path d="M417.639 151.96H374.789V245.05H417.639V151.96Z" fill="#D3DCE5"/>
<circle cx="409.32" cy="209.42" r="2" fill="white" stroke="#959DA8" stroke-miterlimit="10"/>
<path d="M445.32 245.42H352.32V254.42H445.32V245.42Z" fill="white" stroke="#959DA8" stroke-miterlimit="10"/>
<path d="M445.32 254.42H352.32V264.42H445.32V254.42Z" fill="white" stroke="#959DA8" stroke-miterlimit="10"/>
<path d="M575.21 38.2899H362.96V19.6099H344.4V38.2599H220.83L162.32 129.42H608.32L575.21 38.2899Z" fill="white" stroke="#959DA8" stroke-width="2" stroke-miterlimit="10"/>
<path d="M360.32 136.42H352.32V245.42H360.32V136.42Z" fill="white" stroke="#959DA8" stroke-miterlimit="10"/>
<path d="M457.48 12.79L276.77 125.85V136.18H445.77V266.75H638.13V128.75L457.48 12.79Z" fill="white" stroke="#959DA8" stroke-width="2" stroke-miterlimit="10"/>
<path d="M490.931 57.98H424.141V90.49H490.931V57.98Z" fill="white" stroke="#959DA8" stroke-miterlimit="10"/>
<path d="M454.5 64.1099H430.32V84.5499H454.54L454.5 64.1099Z" fill="white" stroke="#959DA8" stroke-miterlimit="10"/>
<path d="M484.81 64.1099H460.59V84.5499H484.81V64.1099Z" fill="white" stroke="#959DA8" stroke-miterlimit="10"/>
<path d="M536.85 152.07H506.32V216.42H536.84L536.85 152.07Z" fill="white" stroke="#959DA8" stroke-miterlimit="10"/>
<path d="M521.59 152.07V178.02" stroke="#959DA8" stroke-miterlimit="10"/>
<path d="M506.371 178.48H536.851" stroke="#959DA8" stroke-miterlimit="10"/>
<path d="M577.05 152.07H546.52V216.42H577.04L577.05 152.07Z" fill="white" stroke="#959DA8" stroke-miterlimit="10"/>
<path d="M561.781 152.07V178.02" stroke="#959DA8" stroke-miterlimit="10"/>
<path d="M546.561 178.48H577.051" stroke="#959DA8" stroke-miterlimit="10"/>
<path d="M222.122 152.07H191.602V216.42H222.122V152.07Z" fill="white" stroke="#959DA8" stroke-miterlimit="10"/>
<path d="M206.859 152.07V178.02" stroke="#959DA8" stroke-miterlimit="10"/>
<path d="M191.631 178.48H222.121" stroke="#959DA8" stroke-miterlimit="10"/>
<path d="M262.321 152.07H231.801V216.42H262.321V152.07Z" fill="white" stroke="#959DA8" stroke-miterlimit="10"/>
<path d="M247.051 152.07V178.02" stroke="#959DA8" stroke-miterlimit="10"/>
<path d="M231.82 178.48H262.31" stroke="#959DA8" stroke-miterlimit="10"/>
<path d="M302.5 152.07H271.98V216.42H302.5V152.07Z" fill="white" stroke="#959DA8" stroke-miterlimit="10"/>
<path d="M287.24 152.07V178.02" stroke="#959DA8" stroke-miterlimit="10"/>
<path d="M272.02 178.48H302.5" stroke="#959DA8" stroke-miterlimit="10"/>
<path d="M411.57 157.87H380.84V202.2H411.57V157.87Z" fill="white" stroke="#959DA8" stroke-miterlimit="10"/>
<path d="M635 126.4H276.82V135.71H276.67L638.25 136.15L635 126.4Z" fill="white" stroke="#959DA8" stroke-miterlimit="10"/>
<path d="M650.949 136.15H635.879L457.389 13.86L277.109 136.15H260.859L457.389 2L650.949 136.15Z" fill="white"/>
<path d="M635.879 136.15L457.389 13.8599L277.109 136.15" stroke="#959DA8" stroke-miterlimit="10"/>
<path d="M277.109 136.15H260.859L457.389 2L650.949 136.15H635.879" stroke="#959DA8" stroke-width="2" stroke-miterlimit="10"/>
<path d="M290.57 136.18H282.68V245.05H290.57V136.18Z" fill="white" stroke="#959DA8" stroke-width="2" stroke-miterlimit="10"/>
<path d="M255.69 261.32C255.684 259.729 256.061 258.16 256.79 256.746C257.518 255.331 258.576 254.113 259.875 253.194C261.173 252.275 262.674 251.682 264.25 251.466C265.826 251.249 267.431 251.415 268.93 251.95C269.506 249.617 270.677 247.474 272.329 245.728C273.98 243.983 276.055 242.695 278.352 241.99C280.649 241.285 283.09 241.187 285.436 241.706C287.782 242.225 289.954 243.342 291.74 244.95C293.001 241.423 295.467 238.455 298.702 236.567C301.937 234.68 305.734 233.994 309.425 234.631C313.116 235.268 316.464 237.187 318.879 240.049C321.295 242.911 322.623 246.534 322.63 250.28C322.63 250.834 322.6 251.388 322.54 251.94C323.616 251.544 324.753 251.341 325.9 251.34C331.41 251.34 336.19 255.81 335.84 261.28C335.789 262.18 335.638 263.072 335.39 263.94H256.04C255.8 263.073 255.679 262.179 255.68 261.28L255.69 261.32Z" fill="#80C33F"/>
<path d="M646.511 201.29C647.256 197.964 647.253 194.513 646.501 191.189C645.749 187.864 644.267 184.748 642.163 182.066C640.059 179.384 637.386 177.203 634.335 175.681C631.285 174.159 627.935 173.334 624.526 173.266C621.118 173.198 617.738 173.889 614.629 175.287C611.521 176.686 608.762 178.759 606.552 181.354C604.343 183.95 602.738 187.005 601.854 190.297C600.97 193.589 600.829 197.037 601.441 200.39C598.93 201.61 596.712 203.357 594.939 205.513C593.166 207.668 591.879 210.181 591.166 212.88C590.453 215.579 590.332 218.4 590.81 221.15C591.287 223.9 592.353 226.514 593.934 228.814C595.515 231.115 597.574 233.047 599.971 234.478C602.367 235.909 605.044 236.806 607.819 237.108C610.594 237.409 613.401 237.108 616.049 236.225C618.697 235.342 621.123 233.897 623.161 231.99C625.14 233.85 627.488 235.273 630.053 236.167C632.618 237.061 635.341 237.406 638.048 237.181C640.755 236.955 643.383 236.163 645.764 234.856C648.145 233.55 650.226 231.758 651.87 229.596C653.514 227.434 654.686 224.951 655.309 222.308C655.932 219.664 655.993 216.919 655.488 214.251C654.983 211.582 653.923 209.05 652.376 206.817C650.83 204.584 648.831 202.701 646.511 201.29Z" fill="#80C33F"/>
<path d="M624.039 221.36L613.449 214.3" stroke="#2A3A51" stroke-width="1.01" stroke-linecap="round" stroke-linejoin="round"/>
<path d="M624.039 230.18L636.389 219.6" stroke="#2A3A51" stroke-width="1.01" stroke-linecap="round" stroke-linejoin="round"/>
<path d="M624.051 200.19V263.69" stroke="#2A3A51" stroke-width="1.01" stroke-linecap="round" stroke-linejoin="round"/>
<path d="M362.81 19.71H344.49V38.33H362.81V19.71Z" fill="white" stroke="#959DA8" stroke-width="2" stroke-miterlimit="10"/>
<path d="M328.21 234.57H320.51V264.98H328.21V234.57Z" fill="white" stroke="#959DA8" stroke-width="2" stroke-miterlimit="10"/>
<path d="M324.359 193C328.338 193 332.153 194.58 334.966 197.393C337.779 200.206 339.359 204.022 339.359 208V235.57H309.359V208C309.359 204.022 310.94 200.206 313.753 197.393C316.566 194.58 320.381 193 324.359 193Z" fill="#D3DCE5"/>
<path d="M334.709 203.41H314.029V207.76H334.709V203.41Z" fill="white" stroke="#959DA8" stroke-miterlimit="10"/>
<rect x="177.359" y="229" width="75" height="25" fill="#2A3A51"/>
<path d="M193.795 237.624V238.98H190.303V241.128H192.979V242.46H190.303V246H188.623V237.624H193.795ZM198.874 246.084C198.09 246.084 197.37 245.9 196.714 245.532C196.058 245.164 195.538 244.656 195.154 244.008C194.77 243.352 194.578 242.612 194.578 241.788C194.578 240.972 194.77 240.24 195.154 239.592C195.538 238.936 196.058 238.424 196.714 238.056C197.37 237.688 198.09 237.504 198.874 237.504C199.666 237.504 200.386 237.688 201.034 238.056C201.69 238.424 202.206 238.936 202.582 239.592C202.966 240.24 203.158 240.972 203.158 241.788C203.158 242.612 202.966 243.352 202.582 244.008C202.206 244.656 201.69 245.164 201.034 245.532C200.378 245.9 199.658 246.084 198.874 246.084ZM198.874 244.584C199.378 244.584 199.822 244.472 200.206 244.248C200.59 244.016 200.89 243.688 201.106 243.264C201.322 242.84 201.43 242.348 201.43 241.788C201.43 241.228 201.322 240.74 201.106 240.324C200.89 239.9 200.59 239.576 200.206 239.352C199.822 239.128 199.378 239.016 198.874 239.016C198.37 239.016 197.922 239.128 197.53 239.352C197.146 239.576 196.846 239.9 196.63 240.324C196.414 240.74 196.306 241.228 196.306 241.788C196.306 242.348 196.414 242.84 196.63 243.264C196.846 243.688 197.146 244.016 197.53 244.248C197.922 244.472 198.37 244.584 198.874 244.584ZM208.728 246L206.88 242.736H206.088V246H204.408V237.624H207.552C208.2 237.624 208.752 237.74 209.208 237.972C209.664 238.196 210.004 238.504 210.228 238.896C210.46 239.28 210.576 239.712 210.576 240.192C210.576 240.744 210.416 241.244 210.096 241.692C209.776 242.132 209.3 242.436 208.668 242.604L210.672 246H208.728ZM206.088 241.476H207.492C207.948 241.476 208.288 241.368 208.512 241.152C208.736 240.928 208.848 240.62 208.848 240.228C208.848 239.844 208.736 239.548 208.512 239.34C208.288 239.124 207.948 239.016 207.492 239.016H206.088V241.476ZM217.847 246.084C217.263 246.084 216.735 245.984 216.263 245.784C215.799 245.584 215.431 245.296 215.159 244.92C214.887 244.544 214.747 244.1 214.739 243.588H216.539C216.563 243.932 216.683 244.204 216.899 244.404C217.123 244.604 217.427 244.704 217.811 244.704C218.203 244.704 218.511 244.612 218.735 244.428C218.959 244.236 219.071 243.988 219.071 243.684C219.071 243.436 218.995 243.232 218.843 243.072C218.691 242.912 218.499 242.788 218.267 242.7C218.043 242.604 217.731 242.5 217.331 242.388C216.787 242.228 216.343 242.072 215.999 241.92C215.663 241.76 215.371 241.524 215.123 241.212C214.883 240.892 214.763 240.468 214.763 239.94C214.763 239.444 214.887 239.012 215.135 238.644C215.383 238.276 215.731 237.996 216.179 237.804C216.627 237.604 217.139 237.504 217.715 237.504C218.579 237.504 219.279 237.716 219.815 238.14C220.359 238.556 220.659 239.14 220.715 239.892H218.867C218.851 239.604 218.727 239.368 218.495 239.184C218.271 238.992 217.971 238.896 217.595 238.896C217.267 238.896 217.003 238.98 216.803 239.148C216.611 239.316 216.515 239.56 216.515 239.88C216.515 240.104 216.587 240.292 216.731 240.444C216.883 240.588 217.067 240.708 217.283 240.804C217.507 240.892 217.819 240.996 218.219 241.116C218.763 241.276 219.207 241.436 219.551 241.596C219.895 241.756 220.191 241.996 220.439 242.316C220.687 242.636 220.811 243.056 220.811 243.576C220.811 244.024 220.695 244.44 220.463 244.824C220.231 245.208 219.891 245.516 219.443 245.748C218.995 245.972 218.463 246.084 217.847 246.084ZM227.403 244.404H224.067L223.515 246H221.751L224.763 237.612H226.719L229.731 246H227.955L227.403 244.404ZM226.947 243.06L225.735 239.556L224.523 243.06H226.947ZM232.537 244.668H235.297V246H230.857V237.624H232.537V244.668ZM238.045 238.98V241.08H240.865V242.412H238.045V244.632H241.225V246H236.365V237.612H241.225V238.98H238.045Z" fill="white"/>
<line x1="187.859" y1="254" x2="187.859" y2="269" stroke="#2A3A51"/>
<line x1="241.859" y1="254" x2="241.859" y2="269" stroke="#2A3A51"/>
</svg>
