<svg width="697" height="295" viewBox="0 0 697 295" fill="none" xmlns="http://www.w3.org/2000/svg">
<path d="M558.62 176.49C559.614 171.834 559.566 167.015 558.48 162.379C557.395 157.744 555.298 153.405 552.34 149.674C549.382 145.943 545.636 142.912 541.37 140.798C537.104 138.684 532.424 137.538 527.663 137.444C522.903 137.349 518.181 138.308 513.834 140.251C509.488 142.194 505.624 145.074 502.52 148.685C499.417 152.295 497.149 156.547 495.88 161.136C494.611 165.725 494.372 170.538 495.18 175.23C491.649 176.948 488.53 179.408 486.036 182.442C483.542 185.475 481.733 189.012 480.731 192.809C479.729 196.606 479.559 200.575 480.231 204.444C480.904 208.313 482.403 211.991 484.628 215.228C486.852 218.464 489.749 221.182 493.12 223.197C496.491 225.211 500.257 226.474 504.161 226.9C508.065 227.325 512.015 226.903 515.741 225.662C519.467 224.422 522.881 222.391 525.75 219.71C528.539 222.316 531.843 224.309 535.449 225.559C539.056 226.809 542.884 227.288 546.688 226.966C550.491 226.644 554.185 225.528 557.53 223.69C560.875 221.851 563.797 219.332 566.108 216.294C568.418 213.255 570.066 209.766 570.944 206.052C571.822 202.337 571.911 198.48 571.205 194.729C570.5 190.978 569.015 187.416 566.847 184.274C564.68 181.133 561.877 178.481 558.62 176.49Z" fill="#80C33F"/>
<path d="M527 204.74L512.1 194.81" stroke="#2A3A51" stroke-width="1.42" stroke-linecap="round" stroke-linejoin="round"/>
<path d="M527 217.15L544.39 202.26" stroke="#2A3A51" stroke-width="1.42" stroke-linecap="round" stroke-linejoin="round"/>
<path d="M527 174.94V264.33" stroke="#2A3A51" stroke-width="1.42" stroke-linecap="round" stroke-linejoin="round"/>
<path d="M600.06 213.63L578 289.98" stroke="#959DA8" stroke-width="1.7" stroke-miterlimit="10"/>
<path d="M600.91 213.63L622.96 289.98" stroke="#959DA8" stroke-width="1.7" stroke-miterlimit="10"/>
<path d="M681.461 240.36L678.391 249.88L672.981 266.65H600.871L606.291 249.88L609.361 240.36H681.461Z" fill="white" stroke="#959DA8" stroke-width="0.85" stroke-miterlimit="10"/>
<path d="M672.98 266.65H583.91V273.44H672.98V266.65Z" fill="white" stroke="#959DA8" stroke-width="0.86" stroke-miterlimit="10"/>
<path d="M681.459 240.36L678.389 249.88H606.289L609.359 240.36H681.459Z" fill="white" stroke="#959DA8" stroke-width="0.87" stroke-miterlimit="10"/>
<path d="M673.101 213.63L651.051 289.98" stroke="#959DA8" stroke-width="1.7" stroke-miterlimit="10"/>
<path d="M673.949 213.63L695.999 289.98" stroke="#959DA8" stroke-width="1.7" stroke-miterlimit="10"/>
<path d="M688 206H590.27V215.33H688V206Z" fill="#D3DCE5"/>
<path d="M611.59 249.88L606.34 266.61" stroke="#959DA8" stroke-width="0.87" stroke-miterlimit="10"/>
<path d="M618.25 249.88L613 266.61" stroke="#959DA8" stroke-width="0.87" stroke-miterlimit="10"/>
<path d="M624.92 249.88L619.67 266.61" stroke="#959DA8" stroke-width="0.87" stroke-miterlimit="10"/>
<path d="M631.59 249.88L626.34 266.61" stroke="#959DA8" stroke-width="0.87" stroke-miterlimit="10"/>
<path d="M638.25 249.88L633 266.61" stroke="#959DA8" stroke-width="0.87" stroke-miterlimit="10"/>
<path d="M644.92 249.88L639.67 266.61" stroke="#959DA8" stroke-width="0.87" stroke-miterlimit="10"/>
<path d="M651.59 249.88L646.34 266.61" stroke="#959DA8" stroke-width="0.87" stroke-miterlimit="10"/>
<path d="M658.25 249.88L653 266.61" stroke="#959DA8" stroke-width="0.87" stroke-miterlimit="10"/>
<path d="M664.92 249.88L659.67 266.61" stroke="#959DA8" stroke-width="0.87" stroke-miterlimit="10"/>
<path d="M671.59 249.88L666.34 266.61" stroke="#959DA8" stroke-width="0.87" stroke-miterlimit="10"/>
<path d="M470.25 249.1L462.15 241L454.05 249.1L454 290.2H470.25V249.1Z" fill="white" stroke="#959DA8" stroke-width="2" stroke-miterlimit="10"/>
<path d="M486.489 249.1L478.389 241L470.288 249.1L470.229 290.2H486.489V249.1Z" fill="white" stroke="#959DA8" stroke-width="2" stroke-miterlimit="10"/>
<path d="M502.729 249.1L494.629 241L486.529 249.1L486.469 290.2H502.729V249.1Z" fill="white" stroke="#959DA8" stroke-width="2" stroke-miterlimit="10"/>
<path d="M518.959 249.1L510.859 241L502.759 249.1L502.709 290.2H518.959V249.1Z" fill="white" stroke="#959DA8" stroke-width="2" stroke-miterlimit="10"/>
<path d="M535.198 249.1L527.098 241L518.998 249.1L518.938 290.2H535.198V249.1Z" fill="white" stroke="#959DA8" stroke-width="2" stroke-miterlimit="10"/>
<path d="M551.44 249.1L543.34 241L535.24 249.1L535.18 290.2H551.44V249.1Z" fill="white" stroke="#959DA8" stroke-width="2" stroke-miterlimit="10"/>
<path d="M74 143V290H250" stroke="#959DA8" stroke-width="2" stroke-miterlimit="10"/>
<path d="M132.101 178.25H112.301V240.96H132.101V178.25Z" fill="white" stroke="#959DA8" stroke-miterlimit="10"/>
<path d="M277.791 95.0901V53.5601H204.211V99.0701H272.791" stroke="#959DA8" stroke-miterlimit="10"/>
<path d="M238.1 59.5601H210.5V92.9101H238.1V59.5601Z" fill="white" stroke="#959DA8" stroke-miterlimit="10"/>
<path d="M271.73 59.5601H244.17V92.9101H271.72L271.73 59.5601Z" fill="white" stroke="#959DA8" stroke-miterlimit="10"/>
<path d="M407.1 229.81H453.51V132.64" stroke="#959DA8" stroke-miterlimit="10"/>
<path d="M293.9 288.56V159.22H407.1V289.56" stroke="#959DA8" stroke-width="2" stroke-miterlimit="10"/>
<path d="M247.52 132.442V290H453.52V132" stroke="#959DA8" stroke-width="2" stroke-miterlimit="10"/>
<path d="M444.16 195.7L430.51 188L417 195.97L417.38 195.96L420.53 219.15L440.86 218.89L443.71 195.7H444.16Z" fill="#D3DCE5"/>
<path d="M440.189 199.53H421.189V203.53H440.189V199.53Z" fill="white" stroke="#959DA8" stroke-miterlimit="10"/>
<path d="M309.599 66.0603L242.169 14.3403L71.3594 145.63" stroke="#959DA8" stroke-miterlimit="10"/>
<path d="M317.1 59.56L250.18 8.17L242.17 2L234.15 8.17L56 145.63H71.36L74.1 144.56" stroke="#959DA8" stroke-width="2" stroke-miterlimit="10"/>
<path d="M318.871 177.1H303.801V227.34H318.871V177.1Z" fill="white" stroke="#959DA8" stroke-miterlimit="10"/>
<path d="M371.481 177.1H328.631V270.19H371.481V177.1Z" fill="#D3DCE5"/>
<path d="M365.41 183.01H334.68V227.34H365.41V183.01Z" fill="white" stroke="#959DA8" stroke-miterlimit="10"/>
<circle cx="363.68" cy="235" r="2" fill="white" stroke="#959DA8" stroke-miterlimit="10"/>
<path d="M453.179 132.33H248.789L259.729 122.58H441.069L453.179 132.33Z" stroke="#959DA8" stroke-miterlimit="10"/>
<path d="M199.63 178.19H141.75V241.04H199.63V178.19Z" fill="white" stroke="#959DA8" stroke-miterlimit="10"/>
<path d="M141.74 203.5H199.63" stroke="#959DA8" stroke-miterlimit="10"/>
<path d="M170.68 178.19V203.5" stroke="#959DA8" stroke-miterlimit="10"/>
<path d="M112.41 203.55H132.26" stroke="#959DA8" stroke-miterlimit="10"/>
<path d="M229.1 178.26H209.23V240.96H229.1V178.26Z" fill="white" stroke="#959DA8" stroke-miterlimit="10"/>
<path d="M209.23 203.57H229.07" stroke="#959DA8" stroke-miterlimit="10"/>
<path d="M303.801 195.42H318.871" stroke="#959DA8" stroke-miterlimit="10"/>
<path d="M396 177.1H380.93V227.34H396V177.1Z" fill="white" stroke="#959DA8" stroke-miterlimit="10"/>
<path d="M380.93 195.42H396" stroke="#959DA8" stroke-miterlimit="10"/>
<path d="M452.051 132.18L350.471 44.0601L248.891 132.18" stroke="#959DA8" stroke-miterlimit="10"/>
<path d="M248.89 132.18H234.77L350.49 30.7798L466.169 132.18H452.049" stroke="#959DA8" stroke-width="2" stroke-miterlimit="10"/>
<path d="M294.1 229.56H247.1" stroke="#959DA8" stroke-miterlimit="10"/>
<path d="M407.229 270.18H294.039V279.95H407.229V270.18Z" stroke="#959DA8" stroke-miterlimit="10"/>
<path d="M407.229 280.18H294.039V289.95H407.229V280.18Z" stroke="#959DA8" stroke-miterlimit="10"/>
<path d="M78.7921 202.053C79.7858 197.396 79.738 192.578 78.6523 187.942C77.5666 183.306 75.4698 178.968 72.5118 175.237C69.5538 171.506 65.8079 168.475 61.5419 166.361C57.2759 164.246 52.5954 163.101 47.8352 163.006C43.0749 162.912 38.3526 163.87 34.006 165.814C29.6595 167.757 25.7961 170.637 22.6923 174.248C19.5886 177.858 17.3211 182.11 16.0521 186.699C14.7832 191.288 14.5442 196.101 15.3521 200.793C11.8207 202.511 8.70165 204.97 6.20797 208.004C3.71429 211.038 1.90473 214.574 0.902919 218.371C-0.0988962 222.169 -0.269386 226.137 0.403102 230.006C1.07559 233.875 2.5752 237.554 4.79953 240.79C7.02385 244.027 9.92049 246.745 13.2916 248.759C16.6627 250.774 20.4289 252.037 24.3328 252.462C28.2368 252.888 32.1867 252.466 35.9126 251.225C39.6386 249.984 43.0528 247.954 45.9221 245.273C48.7106 247.879 52.0148 249.872 55.6212 251.122C59.2277 252.372 63.0563 252.851 66.8596 252.529C70.663 252.207 74.3565 251.091 77.7015 249.252C81.0465 247.414 83.9688 244.894 86.2794 241.856C88.59 238.818 90.2375 235.329 91.1156 231.615C91.9937 227.9 92.0829 224.043 91.3773 220.291C90.6717 216.54 89.187 212.979 87.0192 209.837C84.8514 206.696 82.0487 204.044 78.7921 202.053Z" fill="#80C33F"/>
<path d="M47.1715 230.303L32.2715 220.373" stroke="#2A3A51" stroke-width="1.42" stroke-linecap="round" stroke-linejoin="round"/>
<path d="M47.1719 242.713L64.5619 227.823" stroke="#2A3A51" stroke-width="1.42" stroke-linecap="round" stroke-linejoin="round"/>
<path d="M47.1719 200.503V289.893" stroke="#2A3A51" stroke-width="1.42" stroke-linecap="round" stroke-linejoin="round"/>
<path d="M304.111 286.013C304.116 287.158 303.964 288.298 303.661 289.403H202.831C202.515 288.297 202.324 287.16 202.261 286.013C201.821 279.013 207.901 273.373 214.901 273.373C216.354 273.375 217.796 273.632 219.161 274.133C219.085 273.432 219.048 272.728 219.051 272.023C219.066 267.267 220.757 262.669 223.826 259.036C226.896 255.404 231.147 252.969 235.834 252.161C240.52 251.353 245.342 252.222 249.451 254.616C253.56 257.011 256.693 260.777 258.301 265.253C260.569 263.207 263.329 261.785 266.311 261.123C269.293 260.462 272.395 260.584 275.316 261.479C278.237 262.373 280.876 264.009 282.976 266.226C285.076 268.444 286.566 271.168 287.301 274.133C289.204 273.454 291.243 273.243 293.245 273.518C295.246 273.793 297.153 274.546 298.802 275.713C300.452 276.88 301.796 278.427 302.722 280.223C303.648 282.019 304.127 284.012 304.121 286.033L304.111 286.013Z" fill="#80C33F"/>
<rect x="422" y="255" width="75" height="25" fill="#2A3A51"/>
<path d="M438.436 263.624V264.98H434.944V267.128H437.62V268.46H434.944V272H433.264V263.624H438.436ZM443.515 272.084C442.731 272.084 442.011 271.9 441.355 271.532C440.699 271.164 440.179 270.656 439.795 270.008C439.411 269.352 439.219 268.612 439.219 267.788C439.219 266.972 439.411 266.24 439.795 265.592C440.179 264.936 440.699 264.424 441.355 264.056C442.011 263.688 442.731 263.504 443.515 263.504C444.307 263.504 445.027 263.688 445.675 264.056C446.331 264.424 446.847 264.936 447.223 265.592C447.607 266.24 447.799 266.972 447.799 267.788C447.799 268.612 447.607 269.352 447.223 270.008C446.847 270.656 446.331 271.164 445.675 271.532C445.019 271.9 444.299 272.084 443.515 272.084ZM443.515 270.584C444.019 270.584 444.463 270.472 444.847 270.248C445.231 270.016 445.531 269.688 445.747 269.264C445.963 268.84 446.071 268.348 446.071 267.788C446.071 267.228 445.963 266.74 445.747 266.324C445.531 265.9 445.231 265.576 444.847 265.352C444.463 265.128 444.019 265.016 443.515 265.016C443.011 265.016 442.563 265.128 442.171 265.352C441.787 265.576 441.487 265.9 441.271 266.324C441.055 266.74 440.947 267.228 440.947 267.788C440.947 268.348 441.055 268.84 441.271 269.264C441.487 269.688 441.787 270.016 442.171 270.248C442.563 270.472 443.011 270.584 443.515 270.584ZM453.369 272L451.521 268.736H450.729V272H449.049V263.624H452.193C452.841 263.624 453.393 263.74 453.849 263.972C454.305 264.196 454.645 264.504 454.869 264.896C455.101 265.28 455.217 265.712 455.217 266.192C455.217 266.744 455.057 267.244 454.737 267.692C454.417 268.132 453.941 268.436 453.309 268.604L455.313 272H453.369ZM450.729 267.476H452.133C452.589 267.476 452.929 267.368 453.153 267.152C453.377 266.928 453.489 266.62 453.489 266.228C453.489 265.844 453.377 265.548 453.153 265.34C452.929 265.124 452.589 265.016 452.133 265.016H450.729V267.476ZM462.488 272.084C461.904 272.084 461.376 271.984 460.904 271.784C460.44 271.584 460.072 271.296 459.8 270.92C459.528 270.544 459.388 270.1 459.38 269.588H461.18C461.204 269.932 461.324 270.204 461.54 270.404C461.764 270.604 462.068 270.704 462.452 270.704C462.844 270.704 463.152 270.612 463.376 270.428C463.6 270.236 463.712 269.988 463.712 269.684C463.712 269.436 463.636 269.232 463.484 269.072C463.332 268.912 463.14 268.788 462.908 268.7C462.684 268.604 462.372 268.5 461.972 268.388C461.428 268.228 460.984 268.072 460.64 267.92C460.304 267.76 460.012 267.524 459.764 267.212C459.524 266.892 459.404 266.468 459.404 265.94C459.404 265.444 459.528 265.012 459.776 264.644C460.024 264.276 460.372 263.996 460.82 263.804C461.268 263.604 461.78 263.504 462.356 263.504C463.22 263.504 463.92 263.716 464.456 264.14C465 264.556 465.3 265.14 465.356 265.892H463.508C463.492 265.604 463.368 265.368 463.136 265.184C462.912 264.992 462.612 264.896 462.236 264.896C461.908 264.896 461.644 264.98 461.444 265.148C461.252 265.316 461.156 265.56 461.156 265.88C461.156 266.104 461.228 266.292 461.372 266.444C461.524 266.588 461.708 266.708 461.924 266.804C462.148 266.892 462.46 266.996 462.86 267.116C463.404 267.276 463.848 267.436 464.192 267.596C464.536 267.756 464.832 267.996 465.08 268.316C465.328 268.636 465.452 269.056 465.452 269.576C465.452 270.024 465.336 270.44 465.104 270.824C464.872 271.208 464.532 271.516 464.084 271.748C463.636 271.972 463.104 272.084 462.488 272.084ZM472.044 270.404H468.708L468.156 272H466.392L469.404 263.612H471.36L474.372 272H472.596L472.044 270.404ZM471.588 269.06L470.376 265.556L469.164 269.06H471.588ZM477.178 270.668H479.938V272H475.498V263.624H477.178V270.668ZM482.686 264.98V267.08H485.506V268.412H482.686V270.632H485.866V272H481.006V263.612H485.866V264.98H482.686Z" fill="white"/>
<line x1="432.5" y1="280" x2="432.5" y2="295" stroke="#2A3A51"/>
<line x1="486.5" y1="280" x2="486.5" y2="295" stroke="#2A3A51"/>
</svg>
