<svg width="532" height="434" viewBox="0 0 532 434" fill="none" xmlns="http://www.w3.org/2000/svg">
<path d="M519.905 0H30.1602V11.2468H519.905V0Z" fill="#D3DCE5"/>
<path d="M501.344 361.942H52.2461V432.49H501.344V361.942Z" fill="#F4F5F6" stroke="#959DA8" stroke-width="1.02243" stroke-miterlimit="10"/>
<path d="M501.344 291.393H52.2461V361.94H501.344V291.393Z" fill="#F4F5F6" stroke="#959DA8" stroke-width="1.02243" stroke-miterlimit="10"/>
<path d="M501.344 221.357H52.2461V291.905H501.344V221.357Z" fill="#F4F5F6" stroke="#959DA8" stroke-width="1.02243" stroke-miterlimit="10"/>
<path d="M501.344 150.811H52.2461V221.359H501.344V150.811Z" fill="#F4F5F6" stroke="#959DA8" stroke-width="1.02243" stroke-miterlimit="10"/>
<path d="M501.344 80.2632H52.2461V150.811H501.344V80.2632Z" fill="#F4F5F6" stroke="#959DA8" stroke-width="1.02243" stroke-miterlimit="10"/>
<path d="M108.381 303.152H66.9727V361.374H108.381V303.152Z" fill="white" stroke="#959DA8" stroke-width="0.511216" stroke-miterlimit="10"/>
<path d="M90.2227 303.032V360.411" stroke="#959DA8" stroke-width="0.511216" stroke-miterlimit="10"/>
<path d="M108.381 232.602H66.9727V290.824H108.381V232.602Z" fill="white" stroke="#959DA8" stroke-width="0.511216" stroke-miterlimit="10"/>
<path d="M90.2227 232.482V289.861" stroke="#959DA8" stroke-width="0.511216" stroke-miterlimit="10"/>
<path d="M108.381 162.054H66.9727V220.277H108.381V162.054Z" fill="white" stroke="#959DA8" stroke-width="0.511216" stroke-miterlimit="10"/>
<path d="M90.2227 161.933V219.312" stroke="#959DA8" stroke-width="0.511216" stroke-miterlimit="10"/>
<path d="M108.381 91.5063H66.9727V149.729H108.381V91.5063Z" fill="white" stroke="#959DA8" stroke-width="0.511216" stroke-miterlimit="10"/>
<path d="M90.2227 91.3848V148.764" stroke="#959DA8" stroke-width="0.511216" stroke-miterlimit="10"/>
<path d="M485.143 303.664H443.734V361.886H485.143V303.664Z" fill="white" stroke="#959DA8" stroke-width="0.511216" stroke-miterlimit="10"/>
<path d="M467 303.54V360.919" stroke="#959DA8" stroke-width="0.511216" stroke-miterlimit="10"/>
<path d="M485.143 233.114H443.734V291.337H485.143V233.114Z" fill="white" stroke="#959DA8" stroke-width="0.511216" stroke-miterlimit="10"/>
<path d="M467 232.99V290.369" stroke="#959DA8" stroke-width="0.511216" stroke-miterlimit="10"/>
<path d="M485.143 162.564H443.734V220.787H485.143V162.564Z" fill="white" stroke="#959DA8" stroke-width="0.511216" stroke-miterlimit="10"/>
<path d="M467 162.444V219.823" stroke="#959DA8" stroke-width="0.511216" stroke-miterlimit="10"/>
<path d="M485.143 92.0166H443.734V150.239H485.143V92.0166Z" fill="white" stroke="#959DA8" stroke-width="0.511216" stroke-miterlimit="10"/>
<path d="M467 91.8965V149.275" stroke="#959DA8" stroke-width="0.511216" stroke-miterlimit="10"/>
<path d="M501.344 10.2236H52.2461V80.7715H501.344V10.2236Z" fill="#F4F5F6" stroke="#959DA8" stroke-width="1.02243" stroke-miterlimit="10"/>
<path d="M108.381 21.4707H66.9727V79.6931H108.381V21.4707Z" fill="white" stroke="#959DA8" stroke-width="0.511216" stroke-miterlimit="10"/>
<path d="M90.2227 21.3506V78.7295" stroke="#959DA8" stroke-width="0.511216" stroke-miterlimit="10"/>
<path d="M485.143 21.9824H443.734V80.2048H485.143V21.9824Z" fill="white" stroke="#959DA8" stroke-width="0.511216" stroke-miterlimit="10"/>
<path d="M467 21.8589V79.2378" stroke="#959DA8" stroke-width="0.511216" stroke-miterlimit="10"/>
<path d="M327.053 402.189C327.373 400.581 327.357 398.924 327.007 397.323C326.663 395.737 325.987 394.242 325.023 392.936C324.086 391.662 322.875 390.614 321.48 389.869C320.118 389.14 318.603 388.744 317.058 388.711C315.513 388.678 313.983 389.01 312.59 389.68C311.171 390.364 309.924 391.358 308.94 392.589C307.93 393.852 307.2 395.316 306.798 396.883C306.389 398.471 306.312 400.126 306.573 401.745C305.418 402.349 304.41 403.199 303.618 404.234C302.806 405.296 302.223 406.514 301.906 407.813C301.582 409.126 301.526 410.491 301.742 411.826C301.956 413.151 302.44 414.418 303.164 415.548C303.868 416.651 304.803 417.589 305.904 418.298C306.984 418.991 308.208 419.428 309.482 419.576C310.744 419.722 312.023 419.575 313.219 419.146C314.434 418.712 315.538 418.014 316.45 417.102C317.333 418.001 318.4 418.699 319.579 419.146C320.735 419.586 321.975 419.76 323.208 419.658C324.445 419.545 325.641 419.159 326.71 418.528C327.804 417.881 328.748 417.01 329.481 415.972C330.232 414.909 330.763 413.706 331.04 412.434C331.323 411.15 331.351 409.823 331.122 408.529C330.91 407.233 330.439 405.993 329.737 404.884C329.042 403.806 328.127 402.888 327.053 402.189Z" fill="#80C33F"/>
<path d="M316.846 411.931L312.035 408.506" stroke="#2A3A51" stroke-width="0.511216" stroke-linecap="round" stroke-linejoin="round"/>
<path d="M316.844 416.21L322.467 411.098" stroke="#2A3A51" stroke-width="0.511216" stroke-linecap="round" stroke-linejoin="round"/>
<path d="M316.844 401.653V432.489" stroke="#2A3A51" stroke-width="0.511216" stroke-linecap="round" stroke-linejoin="round"/>
<path d="M519.909 413.453C520.139 413.454 520.369 413.43 520.594 413.381C531.063 410.999 531.068 398.316 531.068 398.316C531.068 381.031 519.914 372.366 519.914 372.366C519.914 372.366 508.754 381.011 508.754 398.316C508.754 398.316 508.754 411.014 519.224 413.381C519.449 413.43 519.678 413.454 519.909 413.453Z" fill="#80C33F"/>
<path d="M519.906 389.421V432.562" stroke="#2A3A51" stroke-width="0.511216" stroke-linecap="round" stroke-linejoin="round"/>
<path d="M5.97612e-05 431.109C-0.00461304 429.971 0.264808 428.849 0.785534 427.837C1.30626 426.825 2.06297 425.954 2.99167 425.297C3.92037 424.639 4.99374 424.215 6.12098 424.06C7.24823 423.905 8.39619 424.024 9.46778 424.407C9.88192 422.739 10.7207 421.207 11.9026 419.96C13.0844 418.713 14.569 417.792 16.2119 417.289C17.8548 416.786 19.6 416.716 21.2778 417.087C22.9555 417.459 24.5085 418.258 25.7858 419.407C26.688 416.884 28.4515 414.761 30.7656 413.41C33.0798 412.06 35.7962 411.569 38.4365 412.025C41.0768 412.481 43.4716 413.854 45.1991 415.902C46.9267 417.95 47.8763 420.542 47.8806 423.221C47.882 423.617 47.8615 424.013 47.8192 424.407C48.589 424.126 49.4023 423.982 50.2219 423.983C54.1583 423.983 57.5834 427.178 57.333 431.094C57.2969 431.739 57.1888 432.379 57.0109 433H0.255668C0.0842921 432.379 -0.00170081 431.738 5.97612e-05 431.094V431.109Z" fill="#80C33F"/>
<path d="M378 10H172V433H378V10Z" fill="#F4F5F6" stroke="#959DA8" stroke-width="1.10934" stroke-miterlimit="10"/>
<path d="M287.468 376.529H265.562V424.118H287.468V376.529Z" fill="#D3DCE5"/>
<path d="M284.37 379.552H268.66V402.214H284.37V379.552Z" fill="white" stroke="#959DA8" stroke-width="0.511216" stroke-miterlimit="10"/>
<path d="M248.088 361.43H244.055V422.776H248.088V361.43Z" fill="#F4F5F6" stroke="#959DA8" stroke-width="1.02243" stroke-miterlimit="10"/>
<path d="M309.428 361.43H305.395V431.978H309.428V361.43Z" fill="#F4F5F6" stroke="#959DA8" stroke-width="1.02243" stroke-miterlimit="10"/>
<path d="M309.286 422.58H244.004V427.574H309.286V422.58Z" fill="#F4F5F6" stroke="#959DA8" stroke-width="1.02243" stroke-miterlimit="10"/>
<path d="M309.286 427.567H244.004V432.562H309.286V427.567Z" fill="#F4F5F6" stroke="#959DA8" stroke-width="1.02243" stroke-miterlimit="10"/>
<path d="M269.663 406.162C270.228 406.162 270.685 405.704 270.685 405.139C270.685 404.574 270.228 404.117 269.663 404.117C269.098 404.117 268.641 404.574 268.641 405.139C268.641 405.704 269.098 406.162 269.663 406.162Z" fill="white" stroke="#959DA8" stroke-width="0.511216" stroke-miterlimit="10"/>
<path d="M336.382 351.203H216.246V362.45H336.382V351.203Z" fill="#D3DCE5"/>
<path d="M103.469 192.983V221.356H98.582L98.5871 192.983H103.469Z" fill="#F4F5F6" stroke="#959DA8" stroke-width="0.511216" stroke-miterlimit="10"/>
<path d="M108.584 192.983H103.59V221.356H108.584V192.983Z" fill="#F4F5F6" stroke="#959DA8" stroke-width="0.511216" stroke-miterlimit="10"/>
<path d="M113.694 192.983H108.699V221.356H113.694V192.983Z" fill="#F4F5F6" stroke="#959DA8" stroke-width="0.511216" stroke-miterlimit="10"/>
<path d="M118.807 192.983H113.812V221.356H118.807V192.983Z" fill="#F4F5F6" stroke="#959DA8" stroke-width="0.511216" stroke-miterlimit="10"/>
<path d="M52.3482 192.983V221.356H47.4609L47.4661 192.983H52.3482Z" fill="#F4F5F6" stroke="#959DA8" stroke-width="0.511216" stroke-miterlimit="10"/>
<path d="M47.2349 192.983V221.356H42.3477L42.3528 192.983H47.2349Z" fill="#F4F5F6" stroke="#959DA8" stroke-width="0.511216" stroke-miterlimit="10"/>
<path d="M57.4594 192.983H52.4648V221.356H57.4594V192.983Z" fill="#F4F5F6" stroke="#959DA8" stroke-width="0.511216" stroke-miterlimit="10"/>
<path d="M62.5688 192.983H57.5742V221.356H62.5688V192.983Z" fill="#F4F5F6" stroke="#959DA8" stroke-width="0.511216" stroke-miterlimit="10"/>
<path d="M67.686 192.983H62.6914V221.356H67.686V192.983Z" fill="#F4F5F6" stroke="#959DA8" stroke-width="0.511216" stroke-miterlimit="10"/>
<path d="M72.7954 192.983H67.8008V221.356H72.7954V192.983Z" fill="#F4F5F6" stroke="#959DA8" stroke-width="0.511216" stroke-miterlimit="10"/>
<path d="M77.9086 192.983H72.9141V221.356H77.9086V192.983Z" fill="#F4F5F6" stroke="#959DA8" stroke-width="0.511216" stroke-miterlimit="10"/>
<path d="M83.0219 192.983H78.0273V221.356H83.0219V192.983Z" fill="#F4F5F6" stroke="#959DA8" stroke-width="0.511216" stroke-miterlimit="10"/>
<path d="M88.1352 192.983H83.1406V221.356H88.1352V192.983Z" fill="#F4F5F6" stroke="#959DA8" stroke-width="0.511216" stroke-miterlimit="10"/>
<path d="M93.2446 192.983H88.25V221.356H93.2446V192.983Z" fill="#F4F5F6" stroke="#959DA8" stroke-width="0.511216" stroke-miterlimit="10"/>
<path d="M98.354 192.983H93.3594V221.356H98.354V192.983Z" fill="#F4F5F6" stroke="#959DA8" stroke-width="0.511216" stroke-miterlimit="10"/>
<path d="M118.604 193.238H42.5703V221.355H118.604V193.238Z" stroke="#959DA8" stroke-width="1.02243" stroke-miterlimit="10"/>
<path d="M103.469 122.438V150.81H98.582L98.5871 122.438H103.469Z" fill="#F4F5F6" stroke="#959DA8" stroke-width="0.511216" stroke-miterlimit="10"/>
<path d="M108.584 122.438H103.59V150.81H108.584V122.438Z" fill="#F4F5F6" stroke="#959DA8" stroke-width="0.511216" stroke-miterlimit="10"/>
<path d="M113.694 122.438H108.699V150.81H113.694V122.438Z" fill="#F4F5F6" stroke="#959DA8" stroke-width="0.511216" stroke-miterlimit="10"/>
<path d="M118.807 122.438H113.812V150.81H118.807V122.438Z" fill="#F4F5F6" stroke="#959DA8" stroke-width="0.511216" stroke-miterlimit="10"/>
<path d="M52.3482 122.438V150.81H47.4609L47.4661 122.438H52.3482Z" fill="#F4F5F6" stroke="#959DA8" stroke-width="0.511216" stroke-miterlimit="10"/>
<path d="M47.2349 122.438V150.81H42.3477L42.3528 122.438H47.2349Z" fill="#F4F5F6" stroke="#959DA8" stroke-width="0.511216" stroke-miterlimit="10"/>
<path d="M57.4594 122.438H52.4648V150.81H57.4594V122.438Z" fill="#F4F5F6" stroke="#959DA8" stroke-width="0.511216" stroke-miterlimit="10"/>
<path d="M62.5688 122.438H57.5742V150.81H62.5688V122.438Z" fill="#F4F5F6" stroke="#959DA8" stroke-width="0.511216" stroke-miterlimit="10"/>
<path d="M67.686 122.438H62.6914V150.81H67.686V122.438Z" fill="#F4F5F6" stroke="#959DA8" stroke-width="0.511216" stroke-miterlimit="10"/>
<path d="M72.7954 122.438H67.8008V150.81H72.7954V122.438Z" fill="#F4F5F6" stroke="#959DA8" stroke-width="0.511216" stroke-miterlimit="10"/>
<path d="M77.9086 122.438H72.9141V150.81H77.9086V122.438Z" fill="#F4F5F6" stroke="#959DA8" stroke-width="0.511216" stroke-miterlimit="10"/>
<path d="M83.0219 122.438H78.0273V150.81H83.0219V122.438Z" fill="#F4F5F6" stroke="#959DA8" stroke-width="0.511216" stroke-miterlimit="10"/>
<path d="M88.1352 122.438H83.1406V150.81H88.1352V122.438Z" fill="#F4F5F6" stroke="#959DA8" stroke-width="0.511216" stroke-miterlimit="10"/>
<path d="M93.2446 122.438H88.25V150.81H93.2446V122.438Z" fill="#F4F5F6" stroke="#959DA8" stroke-width="0.511216" stroke-miterlimit="10"/>
<path d="M98.354 122.438H93.3594V150.81H98.354V122.438Z" fill="#F4F5F6" stroke="#959DA8" stroke-width="0.511216" stroke-miterlimit="10"/>
<path d="M118.604 122.692H42.5703V150.809H118.604V122.692Z" stroke="#959DA8" stroke-width="1.02243" stroke-miterlimit="10"/>
<path d="M103.469 263.531V291.904H98.582L98.5871 263.531H103.469Z" fill="#F4F5F6" stroke="#959DA8" stroke-width="0.511216" stroke-miterlimit="10"/>
<path d="M108.584 263.531H103.59V291.904H108.584V263.531Z" fill="#F4F5F6" stroke="#959DA8" stroke-width="0.511216" stroke-miterlimit="10"/>
<path d="M113.694 263.531H108.699V291.904H113.694V263.531Z" fill="#F4F5F6" stroke="#959DA8" stroke-width="0.511216" stroke-miterlimit="10"/>
<path d="M118.807 263.531H113.812V291.904H118.807V263.531Z" fill="#F4F5F6" stroke="#959DA8" stroke-width="0.511216" stroke-miterlimit="10"/>
<path d="M52.3482 263.531V291.904H47.4609L47.4661 263.531H52.3482Z" fill="#F4F5F6" stroke="#959DA8" stroke-width="0.511216" stroke-miterlimit="10"/>
<path d="M47.2349 263.531V291.904H42.3477L42.3528 263.531H47.2349Z" fill="#F4F5F6" stroke="#959DA8" stroke-width="0.511216" stroke-miterlimit="10"/>
<path d="M57.4594 263.531H52.4648V291.904H57.4594V263.531Z" fill="#F4F5F6" stroke="#959DA8" stroke-width="0.511216" stroke-miterlimit="10"/>
<path d="M62.5688 263.531H57.5742V291.904H62.5688V263.531Z" fill="#F4F5F6" stroke="#959DA8" stroke-width="0.511216" stroke-miterlimit="10"/>
<path d="M67.686 263.531H62.6914V291.904H67.686V263.531Z" fill="#F4F5F6" stroke="#959DA8" stroke-width="0.511216" stroke-miterlimit="10"/>
<path d="M72.7954 263.531H67.8008V291.904H72.7954V263.531Z" fill="#F4F5F6" stroke="#959DA8" stroke-width="0.511216" stroke-miterlimit="10"/>
<path d="M77.9086 263.531H72.9141V291.904H77.9086V263.531Z" fill="#F4F5F6" stroke="#959DA8" stroke-width="0.511216" stroke-miterlimit="10"/>
<path d="M83.0219 263.531H78.0273V291.904H83.0219V263.531Z" fill="#F4F5F6" stroke="#959DA8" stroke-width="0.511216" stroke-miterlimit="10"/>
<path d="M88.1352 263.531H83.1406V291.904H88.1352V263.531Z" fill="#F4F5F6" stroke="#959DA8" stroke-width="0.511216" stroke-miterlimit="10"/>
<path d="M93.2446 263.531H88.25V291.904H93.2446V263.531Z" fill="#F4F5F6" stroke="#959DA8" stroke-width="0.511216" stroke-miterlimit="10"/>
<path d="M98.354 263.531H93.3594V291.904H98.354V263.531Z" fill="#F4F5F6" stroke="#959DA8" stroke-width="0.511216" stroke-miterlimit="10"/>
<path d="M118.604 263.788H42.5703V291.905H118.604V263.788Z" stroke="#959DA8" stroke-width="1.02243" stroke-miterlimit="10"/>
<path d="M493.524 122.438V150.81H488.637L488.642 122.438H493.524Z" fill="#F4F5F6" stroke="#959DA8" stroke-width="0.511216" stroke-miterlimit="10"/>
<path d="M498.647 122.438H493.652V150.81H498.647V122.438Z" fill="#F4F5F6" stroke="#959DA8" stroke-width="0.511216" stroke-miterlimit="10"/>
<path d="M503.748 122.438H498.754V150.81H503.748V122.438Z" fill="#F4F5F6" stroke="#959DA8" stroke-width="0.511216" stroke-miterlimit="10"/>
<path d="M508.862 122.438H503.867V150.81H508.862V122.438Z" fill="#F4F5F6" stroke="#959DA8" stroke-width="0.511216" stroke-miterlimit="10"/>
<path d="M442.407 122.438V150.81H437.52L437.525 122.438H442.407Z" fill="#F4F5F6" stroke="#959DA8" stroke-width="0.511216" stroke-miterlimit="10"/>
<path d="M437.293 122.438V150.81H432.406L432.411 122.438H437.293Z" fill="#F4F5F6" stroke="#959DA8" stroke-width="0.511216" stroke-miterlimit="10"/>
<path d="M447.518 122.438H442.523V150.81H447.518V122.438Z" fill="#F4F5F6" stroke="#959DA8" stroke-width="0.511216" stroke-miterlimit="10"/>
<path d="M452.627 122.438H447.633V150.81H452.627V122.438Z" fill="#F4F5F6" stroke="#959DA8" stroke-width="0.511216" stroke-miterlimit="10"/>
<path d="M457.741 122.438H452.746V150.81H457.741V122.438Z" fill="#F4F5F6" stroke="#959DA8" stroke-width="0.511216" stroke-miterlimit="10"/>
<path d="M462.854 122.438H457.859V150.81H462.854V122.438Z" fill="#F4F5F6" stroke="#959DA8" stroke-width="0.511216" stroke-miterlimit="10"/>
<path d="M467.967 122.438H462.973V150.81H467.967V122.438Z" fill="#F4F5F6" stroke="#959DA8" stroke-width="0.511216" stroke-miterlimit="10"/>
<path d="M473.077 122.438H468.082V150.81H473.077V122.438Z" fill="#F4F5F6" stroke="#959DA8" stroke-width="0.511216" stroke-miterlimit="10"/>
<path d="M478.19 122.438H473.195V150.81H478.19V122.438Z" fill="#F4F5F6" stroke="#959DA8" stroke-width="0.511216" stroke-miterlimit="10"/>
<path d="M483.307 122.438H478.312V150.81H483.307V122.438Z" fill="#F4F5F6" stroke="#959DA8" stroke-width="0.511216" stroke-miterlimit="10"/>
<path d="M488.409 122.438H483.414V150.81H488.409V122.438Z" fill="#F4F5F6" stroke="#959DA8" stroke-width="0.511216" stroke-miterlimit="10"/>
<path d="M508.666 122.692H432.633V150.809H508.666V122.692Z" stroke="#959DA8" stroke-width="1.02243" stroke-miterlimit="10"/>
<path d="M493.524 334.077V362.45H488.637L488.642 334.077H493.524Z" fill="#F4F5F6" stroke="#959DA8" stroke-width="0.511216" stroke-miterlimit="10"/>
<path d="M498.647 334.077H493.652V362.45H498.647V334.077Z" fill="#F4F5F6" stroke="#959DA8" stroke-width="0.511216" stroke-miterlimit="10"/>
<path d="M503.748 334.077H498.754V362.45H503.748V334.077Z" fill="#F4F5F6" stroke="#959DA8" stroke-width="0.511216" stroke-miterlimit="10"/>
<path d="M508.862 334.077H503.867V362.45H508.862V334.077Z" fill="#F4F5F6" stroke="#959DA8" stroke-width="0.511216" stroke-miterlimit="10"/>
<path d="M442.407 334.077V362.45H437.52L437.525 334.077H442.407Z" fill="#F4F5F6" stroke="#959DA8" stroke-width="0.511216" stroke-miterlimit="10"/>
<path d="M437.293 334.077V362.45H432.406L432.411 334.077H437.293Z" fill="#F4F5F6" stroke="#959DA8" stroke-width="0.511216" stroke-miterlimit="10"/>
<path d="M447.518 334.077H442.523V362.45H447.518V334.077Z" fill="#F4F5F6" stroke="#959DA8" stroke-width="0.511216" stroke-miterlimit="10"/>
<path d="M452.627 334.077H447.633V362.45H452.627V334.077Z" fill="#F4F5F6" stroke="#959DA8" stroke-width="0.511216" stroke-miterlimit="10"/>
<path d="M457.741 334.077H452.746V362.45H457.741V334.077Z" fill="#F4F5F6" stroke="#959DA8" stroke-width="0.511216" stroke-miterlimit="10"/>
<path d="M462.854 334.077H457.859V362.45H462.854V334.077Z" fill="#F4F5F6" stroke="#959DA8" stroke-width="0.511216" stroke-miterlimit="10"/>
<path d="M467.967 334.077H462.973V362.45H467.967V334.077Z" fill="#F4F5F6" stroke="#959DA8" stroke-width="0.511216" stroke-miterlimit="10"/>
<path d="M473.077 334.077H468.082V362.45H473.077V334.077Z" fill="#F4F5F6" stroke="#959DA8" stroke-width="0.511216" stroke-miterlimit="10"/>
<path d="M478.19 334.077H473.195V362.45H478.19V334.077Z" fill="#F4F5F6" stroke="#959DA8" stroke-width="0.511216" stroke-miterlimit="10"/>
<path d="M483.307 334.077H478.312V362.45H483.307V334.077Z" fill="#F4F5F6" stroke="#959DA8" stroke-width="0.511216" stroke-miterlimit="10"/>
<path d="M488.409 334.077H483.414V362.45H488.409V334.077Z" fill="#F4F5F6" stroke="#959DA8" stroke-width="0.511216" stroke-miterlimit="10"/>
<path d="M508.666 334.336H432.633V362.453H508.666V334.336Z" stroke="#959DA8" stroke-width="1.02243" stroke-miterlimit="10"/>
<path d="M493.524 263.531V291.904H488.637L488.642 263.531H493.524Z" fill="#F4F5F6" stroke="#959DA8" stroke-width="0.511216" stroke-miterlimit="10"/>
<path d="M498.647 263.531H493.652V291.904H498.647V263.531Z" fill="#F4F5F6" stroke="#959DA8" stroke-width="0.511216" stroke-miterlimit="10"/>
<path d="M503.748 263.531H498.754V291.904H503.748V263.531Z" fill="#F4F5F6" stroke="#959DA8" stroke-width="0.511216" stroke-miterlimit="10"/>
<path d="M508.862 263.531H503.867V291.904H508.862V263.531Z" fill="#F4F5F6" stroke="#959DA8" stroke-width="0.511216" stroke-miterlimit="10"/>
<path d="M442.407 263.531V291.904H437.52L437.525 263.531H442.407Z" fill="#F4F5F6" stroke="#959DA8" stroke-width="0.511216" stroke-miterlimit="10"/>
<path d="M437.293 263.531V291.904H432.406L432.411 263.531H437.293Z" fill="#F4F5F6" stroke="#959DA8" stroke-width="0.511216" stroke-miterlimit="10"/>
<path d="M447.518 263.531H442.523V291.904H447.518V263.531Z" fill="#F4F5F6" stroke="#959DA8" stroke-width="0.511216" stroke-miterlimit="10"/>
<path d="M452.627 263.531H447.633V291.904H452.627V263.531Z" fill="#F4F5F6" stroke="#959DA8" stroke-width="0.511216" stroke-miterlimit="10"/>
<path d="M457.741 263.531H452.746V291.904H457.741V263.531Z" fill="#F4F5F6" stroke="#959DA8" stroke-width="0.511216" stroke-miterlimit="10"/>
<path d="M462.854 263.531H457.859V291.904H462.854V263.531Z" fill="#F4F5F6" stroke="#959DA8" stroke-width="0.511216" stroke-miterlimit="10"/>
<path d="M467.967 263.531H462.973V291.904H467.967V263.531Z" fill="#F4F5F6" stroke="#959DA8" stroke-width="0.511216" stroke-miterlimit="10"/>
<path d="M473.077 263.531H468.082V291.904H473.077V263.531Z" fill="#F4F5F6" stroke="#959DA8" stroke-width="0.511216" stroke-miterlimit="10"/>
<path d="M478.19 263.531H473.195V291.904H478.19V263.531Z" fill="#F4F5F6" stroke="#959DA8" stroke-width="0.511216" stroke-miterlimit="10"/>
<path d="M483.307 263.531H478.312V291.904H483.307V263.531Z" fill="#F4F5F6" stroke="#959DA8" stroke-width="0.511216" stroke-miterlimit="10"/>
<path d="M488.409 263.531H483.414V291.904H488.409V263.531Z" fill="#F4F5F6" stroke="#959DA8" stroke-width="0.511216" stroke-miterlimit="10"/>
<path d="M508.666 263.788H432.633V291.905H508.666V263.788Z" stroke="#959DA8" stroke-width="1.02243" stroke-miterlimit="10"/>
<path d="M493.524 52.3999V80.7724H488.637L488.642 52.3999H493.524Z" fill="#F4F5F6" stroke="#959DA8" stroke-width="0.511216" stroke-miterlimit="10"/>
<path d="M498.647 52.3999H493.652V80.7724H498.647V52.3999Z" fill="#F4F5F6" stroke="#959DA8" stroke-width="0.511216" stroke-miterlimit="10"/>
<path d="M503.748 52.3999H498.754V80.7724H503.748V52.3999Z" fill="#F4F5F6" stroke="#959DA8" stroke-width="0.511216" stroke-miterlimit="10"/>
<path d="M508.862 52.3999H503.867V80.7724H508.862V52.3999Z" fill="#F4F5F6" stroke="#959DA8" stroke-width="0.511216" stroke-miterlimit="10"/>
<path d="M442.407 52.3999V80.7724H437.52L437.525 52.3999H442.407Z" fill="#F4F5F6" stroke="#959DA8" stroke-width="0.511216" stroke-miterlimit="10"/>
<path d="M437.293 52.3999V80.7724H432.406L432.411 52.3999H437.293Z" fill="#F4F5F6" stroke="#959DA8" stroke-width="0.511216" stroke-miterlimit="10"/>
<path d="M447.518 52.3999H442.523V80.7724H447.518V52.3999Z" fill="#F4F5F6" stroke="#959DA8" stroke-width="0.511216" stroke-miterlimit="10"/>
<path d="M452.627 52.3999H447.633V80.7724H452.627V52.3999Z" fill="#F4F5F6" stroke="#959DA8" stroke-width="0.511216" stroke-miterlimit="10"/>
<path d="M457.741 52.3999H452.746V80.7724H457.741V52.3999Z" fill="#F4F5F6" stroke="#959DA8" stroke-width="0.511216" stroke-miterlimit="10"/>
<path d="M462.854 52.3999H457.859V80.7724H462.854V52.3999Z" fill="#F4F5F6" stroke="#959DA8" stroke-width="0.511216" stroke-miterlimit="10"/>
<path d="M467.967 52.3999H462.973V80.7724H467.967V52.3999Z" fill="#F4F5F6" stroke="#959DA8" stroke-width="0.511216" stroke-miterlimit="10"/>
<path d="M473.077 52.3999H468.082V80.7724H473.077V52.3999Z" fill="#F4F5F6" stroke="#959DA8" stroke-width="0.511216" stroke-miterlimit="10"/>
<path d="M478.19 52.3999H473.195V80.7724H478.19V52.3999Z" fill="#F4F5F6" stroke="#959DA8" stroke-width="0.511216" stroke-miterlimit="10"/>
<path d="M483.307 52.3999H478.312V80.7724H483.307V52.3999Z" fill="#F4F5F6" stroke="#959DA8" stroke-width="0.511216" stroke-miterlimit="10"/>
<path d="M488.409 52.3999H483.414V80.7724H488.409V52.3999Z" fill="#F4F5F6" stroke="#959DA8" stroke-width="0.511216" stroke-miterlimit="10"/>
<path d="M508.666 52.6548H432.633V80.7717H508.666V52.6548Z" stroke="#959DA8" stroke-width="1.02243" stroke-miterlimit="10"/>
<path d="M357.607 303.489H342V336.381H357.602L357.607 303.489Z" fill="white" stroke="#959DA8" stroke-width="0.511216" stroke-miterlimit="10"/>
<path d="M349.809 303.485V316.757" stroke="#959DA8" stroke-width="0.511216" stroke-miterlimit="10"/>
<path d="M342.027 316.991H357.609" stroke="#959DA8" stroke-width="0.511216" stroke-miterlimit="10"/>
<path d="M357.607 233.452H342V266.343H357.602L357.607 233.452Z" fill="white" stroke="#959DA8" stroke-width="0.511216" stroke-miterlimit="10"/>
<path d="M349.809 233.446V246.717" stroke="#959DA8" stroke-width="0.511216" stroke-miterlimit="10"/>
<path d="M342.027 246.953H357.609" stroke="#959DA8" stroke-width="0.511216" stroke-miterlimit="10"/>
<path d="M357.607 162.394H342V195.285H357.602L357.607 162.394Z" fill="white" stroke="#959DA8" stroke-width="0.511216" stroke-miterlimit="10"/>
<path d="M349.809 162.386V175.657" stroke="#959DA8" stroke-width="0.511216" stroke-miterlimit="10"/>
<path d="M342.027 175.895H357.609" stroke="#959DA8" stroke-width="0.511216" stroke-miterlimit="10"/>
<path d="M357.607 91.334H342V124.226H357.602L357.607 91.334Z" fill="white" stroke="#959DA8" stroke-width="0.511216" stroke-miterlimit="10"/>
<path d="M349.809 91.3301V104.601" stroke="#959DA8" stroke-width="0.511216" stroke-miterlimit="10"/>
<path d="M342.027 104.835H357.609" stroke="#959DA8" stroke-width="0.511216" stroke-miterlimit="10"/>
<path d="M204.756 303.489H189.148V336.381H204.751L204.756 303.489Z" fill="white" stroke="#959DA8" stroke-width="0.511216" stroke-miterlimit="10"/>
<path d="M196.957 303.485V316.757" stroke="#959DA8" stroke-width="0.511216" stroke-miterlimit="10"/>
<path d="M189.18 316.991H204.762" stroke="#959DA8" stroke-width="0.511216" stroke-miterlimit="10"/>
<path d="M357.607 376.595H342V409.486H357.602L357.607 376.595Z" fill="white" stroke="#959DA8" stroke-width="0.511216" stroke-miterlimit="10"/>
<path d="M349.809 376.587V389.859" stroke="#959DA8" stroke-width="0.511216" stroke-miterlimit="10"/>
<path d="M342.027 390.092H357.609" stroke="#959DA8" stroke-width="0.511216" stroke-miterlimit="10"/>
<path d="M204.756 376.081H189.148V408.973H204.751L204.756 376.081Z" fill="white" stroke="#959DA8" stroke-width="0.511216" stroke-miterlimit="10"/>
<path d="M196.957 376.075V389.346" stroke="#959DA8" stroke-width="0.511216" stroke-miterlimit="10"/>
<path d="M189.18 389.582H204.762" stroke="#959DA8" stroke-width="0.511216" stroke-miterlimit="10"/>
<path d="M204.756 233.452H189.148V266.343H204.751L204.756 233.452Z" fill="white" stroke="#959DA8" stroke-width="0.511216" stroke-miterlimit="10"/>
<path d="M196.957 233.446V246.717" stroke="#959DA8" stroke-width="0.511216" stroke-miterlimit="10"/>
<path d="M189.18 246.953H204.762" stroke="#959DA8" stroke-width="0.511216" stroke-miterlimit="10"/>
<path d="M204.248 161.882H188.641V194.773H204.243L204.248 161.882Z" fill="white" stroke="#959DA8" stroke-width="0.511216" stroke-miterlimit="10"/>
<path d="M196.441 161.878V175.149" stroke="#959DA8" stroke-width="0.511216" stroke-miterlimit="10"/>
<path d="M188.664 175.385H204.246" stroke="#959DA8" stroke-width="0.511216" stroke-miterlimit="10"/>
<path d="M204.756 91.334H189.148V124.226H204.751L204.756 91.334Z" fill="white" stroke="#959DA8" stroke-width="0.511216" stroke-miterlimit="10"/>
<path d="M196.957 91.3301V104.601" stroke="#959DA8" stroke-width="0.511216" stroke-miterlimit="10"/>
<path d="M189.18 104.835H204.762" stroke="#959DA8" stroke-width="0.511216" stroke-miterlimit="10"/>
<path d="M204.756 21.2983H189.148V54.19H204.751L204.756 21.2983Z" fill="white" stroke="#959DA8" stroke-width="0.511216" stroke-miterlimit="10"/>
<path d="M196.957 21.2925V34.5637" stroke="#959DA8" stroke-width="0.511216" stroke-miterlimit="10"/>
<path d="M189.18 34.7993H204.762" stroke="#959DA8" stroke-width="0.511216" stroke-miterlimit="10"/>
<path d="M357.607 21.2983H342V54.19H357.602L357.607 21.2983Z" fill="white" stroke="#959DA8" stroke-width="0.511216" stroke-miterlimit="10"/>
<path d="M349.809 21.2925V34.5637" stroke="#959DA8" stroke-width="0.511216" stroke-miterlimit="10"/>
<path d="M342.027 34.7993H357.609" stroke="#959DA8" stroke-width="0.511216" stroke-miterlimit="10"/>
<path d="M62.8812 64.0348C63.0822 64.0362 63.2827 64.0156 63.4793 63.9735C72.6812 61.8826 72.6812 50.779 72.6812 50.779C72.7624 44.0134 70.6177 37.4087 66.5772 31.9816C66.1483 31.414 65.5936 30.9537 64.9567 30.6367C64.3198 30.3198 63.6181 30.1548 62.9067 30.1548C62.1953 30.1548 61.4936 30.3198 60.8567 30.6367C60.2198 30.9537 59.6651 31.414 59.2362 31.9816C55.1939 37.4081 53.0474 44.0129 53.1271 50.779C53.1271 50.779 53.1271 61.9082 62.2984 63.9786C62.4949 64.0207 62.6955 64.0413 62.8965 64.04L62.8812 64.0348Z" fill="#80C33F"/>
<path d="M62.875 42.9697V80.7691" stroke="#2A3A51" stroke-width="0.511216" stroke-linecap="round" stroke-linejoin="round"/>
<path d="M488.725 198.997C488.926 198.998 489.126 198.978 489.323 198.935C498.525 196.845 498.525 185.741 498.525 185.741C498.606 178.975 496.461 172.371 492.421 166.943C491.992 166.376 491.437 165.916 490.8 165.599C490.164 165.282 489.462 165.117 488.75 165.117C488.039 165.117 487.337 165.282 486.7 165.599C486.064 165.916 485.509 166.376 485.08 166.943C481.038 172.37 478.891 178.975 478.971 185.741C478.971 185.741 478.971 196.87 488.142 198.941C488.339 198.983 488.539 199.003 488.74 199.002L488.725 198.997Z" fill="#80C33F"/>
<path d="M488.727 177.935V215.734" stroke="#2A3A51" stroke-width="0.511216" stroke-linecap="round" stroke-linejoin="round"/>
<path d="M67.9905 342.648C68.1915 342.649 68.3921 342.629 68.5886 342.587C77.7905 340.496 77.7905 329.392 77.7905 329.392C77.8718 322.627 75.7271 316.022 71.6866 310.595C71.2577 310.027 70.703 309.567 70.0661 309.25C69.4292 308.933 68.7275 308.768 68.0161 308.768C67.3047 308.768 66.603 308.933 65.9661 309.25C65.3292 309.567 64.7745 310.027 64.3456 310.595C60.3033 316.021 58.1567 322.626 58.2365 329.392C58.2365 329.392 58.2365 340.521 67.4077 342.592C67.6043 342.634 67.8049 342.655 68.0059 342.653L67.9905 342.648Z" fill="#80C33F"/>
<path d="M67.9883 321.585V359.384" stroke="#2A3A51" stroke-width="0.511216" stroke-linecap="round" stroke-linejoin="round"/>
<path d="M103.469 52.3999V80.7724H98.582L98.5871 52.3999H103.469Z" fill="#F4F5F6" stroke="#959DA8" stroke-width="0.511216" stroke-miterlimit="10"/>
<path d="M108.584 52.3999H103.59V80.7724H108.584V52.3999Z" fill="#F4F5F6" stroke="#959DA8" stroke-width="0.511216" stroke-miterlimit="10"/>
<path d="M113.694 52.3999H108.699V80.7724H113.694V52.3999Z" fill="#F4F5F6" stroke="#959DA8" stroke-width="0.511216" stroke-miterlimit="10"/>
<path d="M118.807 52.3999H113.812V80.7724H118.807V52.3999Z" fill="#F4F5F6" stroke="#959DA8" stroke-width="0.511216" stroke-miterlimit="10"/>
<path d="M52.3482 52.3999V80.7724H47.4609L47.4661 52.3999H52.3482Z" fill="#F4F5F6" stroke="#959DA8" stroke-width="0.511216" stroke-miterlimit="10"/>
<path d="M47.2349 52.3999V80.7724H42.3477L42.3528 52.3999H47.2349Z" fill="#F4F5F6" stroke="#959DA8" stroke-width="0.511216" stroke-miterlimit="10"/>
<path d="M57.4594 52.3999H52.4648V80.7724H57.4594V52.3999Z" fill="#F4F5F6" stroke="#959DA8" stroke-width="0.511216" stroke-miterlimit="10"/>
<path d="M62.5688 52.3999H57.5742V80.7724H62.5688V52.3999Z" fill="#F4F5F6" stroke="#959DA8" stroke-width="0.511216" stroke-miterlimit="10"/>
<path d="M67.686 52.3999H62.6914V80.7724H67.686V52.3999Z" fill="#F4F5F6" stroke="#959DA8" stroke-width="0.511216" stroke-miterlimit="10"/>
<path d="M72.7954 52.3999H67.8008V80.7724H72.7954V52.3999Z" fill="#F4F5F6" stroke="#959DA8" stroke-width="0.511216" stroke-miterlimit="10"/>
<path d="M77.9086 52.3999H72.9141V80.7724H77.9086V52.3999Z" fill="#F4F5F6" stroke="#959DA8" stroke-width="0.511216" stroke-miterlimit="10"/>
<path d="M83.0219 52.3999H78.0273V80.7724H83.0219V52.3999Z" fill="#F4F5F6" stroke="#959DA8" stroke-width="0.511216" stroke-miterlimit="10"/>
<path d="M88.1352 52.3999H83.1406V80.7724H88.1352V52.3999Z" fill="#F4F5F6" stroke="#959DA8" stroke-width="0.511216" stroke-miterlimit="10"/>
<path d="M93.2446 52.3999H88.25V80.7724H93.2446V52.3999Z" fill="#F4F5F6" stroke="#959DA8" stroke-width="0.511216" stroke-miterlimit="10"/>
<path d="M98.354 52.3999H93.3594V80.7724H98.354V52.3999Z" fill="#F4F5F6" stroke="#959DA8" stroke-width="0.511216" stroke-miterlimit="10"/>
<path d="M118.604 52.6548H42.5703V80.7717H118.604V52.6548Z" stroke="#959DA8" stroke-width="1.02243" stroke-miterlimit="10"/>
<path d="M493.524 192.983V221.356H488.637L488.642 192.983H493.524Z" fill="#F4F5F6" stroke="#959DA8" stroke-width="0.511216" stroke-miterlimit="10"/>
<path d="M498.647 192.983H493.652V221.356H498.647V192.983Z" fill="#F4F5F6" stroke="#959DA8" stroke-width="0.511216" stroke-miterlimit="10"/>
<path d="M503.748 192.983H498.754V221.356H503.748V192.983Z" fill="#F4F5F6" stroke="#959DA8" stroke-width="0.511216" stroke-miterlimit="10"/>
<path d="M508.862 192.983H503.867V221.356H508.862V192.983Z" fill="#F4F5F6" stroke="#959DA8" stroke-width="0.511216" stroke-miterlimit="10"/>
<path d="M442.407 192.983V221.356H437.52L437.525 192.983H442.407Z" fill="#F4F5F6" stroke="#959DA8" stroke-width="0.511216" stroke-miterlimit="10"/>
<path d="M437.293 192.983V221.356H432.406L432.411 192.983H437.293Z" fill="#F4F5F6" stroke="#959DA8" stroke-width="0.511216" stroke-miterlimit="10"/>
<path d="M447.518 192.983H442.523V221.356H447.518V192.983Z" fill="#F4F5F6" stroke="#959DA8" stroke-width="0.511216" stroke-miterlimit="10"/>
<path d="M452.627 192.983H447.633V221.356H452.627V192.983Z" fill="#F4F5F6" stroke="#959DA8" stroke-width="0.511216" stroke-miterlimit="10"/>
<path d="M457.741 192.983H452.746V221.356H457.741V192.983Z" fill="#F4F5F6" stroke="#959DA8" stroke-width="0.511216" stroke-miterlimit="10"/>
<path d="M462.854 192.983H457.859V221.356H462.854V192.983Z" fill="#F4F5F6" stroke="#959DA8" stroke-width="0.511216" stroke-miterlimit="10"/>
<path d="M467.967 192.983H462.973V221.356H467.967V192.983Z" fill="#F4F5F6" stroke="#959DA8" stroke-width="0.511216" stroke-miterlimit="10"/>
<path d="M473.077 192.983H468.082V221.356H473.077V192.983Z" fill="#F4F5F6" stroke="#959DA8" stroke-width="0.511216" stroke-miterlimit="10"/>
<path d="M478.19 192.983H473.195V221.356H478.19V192.983Z" fill="#F4F5F6" stroke="#959DA8" stroke-width="0.511216" stroke-miterlimit="10"/>
<path d="M483.307 192.983H478.312V221.356H483.307V192.983Z" fill="#F4F5F6" stroke="#959DA8" stroke-width="0.511216" stroke-miterlimit="10"/>
<path d="M488.409 192.983H483.414V221.356H488.409V192.983Z" fill="#F4F5F6" stroke="#959DA8" stroke-width="0.511216" stroke-miterlimit="10"/>
<path d="M508.666 193.238H432.633V221.355H508.666V193.238Z" stroke="#959DA8" stroke-width="1.02243" stroke-miterlimit="10"/>
<path d="M103.469 334.077V362.45H98.582L98.5871 334.077H103.469Z" fill="#F4F5F6" stroke="#959DA8" stroke-width="0.511216" stroke-miterlimit="10"/>
<path d="M108.584 334.077H103.59V362.45H108.584V334.077Z" fill="#F4F5F6" stroke="#959DA8" stroke-width="0.511216" stroke-miterlimit="10"/>
<path d="M113.694 334.077H108.699V362.45H113.694V334.077Z" fill="#F4F5F6" stroke="#959DA8" stroke-width="0.511216" stroke-miterlimit="10"/>
<path d="M118.807 334.077H113.812V362.45H118.807V334.077Z" fill="#F4F5F6" stroke="#959DA8" stroke-width="0.511216" stroke-miterlimit="10"/>
<path d="M52.3482 334.077V362.45H47.4609L47.4661 334.077H52.3482Z" fill="#F4F5F6" stroke="#959DA8" stroke-width="0.511216" stroke-miterlimit="10"/>
<path d="M47.2349 334.077V362.45H42.3477L42.3528 334.077H47.2349Z" fill="#F4F5F6" stroke="#959DA8" stroke-width="0.511216" stroke-miterlimit="10"/>
<path d="M57.4594 334.077H52.4648V362.45H57.4594V334.077Z" fill="#F4F5F6" stroke="#959DA8" stroke-width="0.511216" stroke-miterlimit="10"/>
<path d="M62.5688 334.077H57.5742V362.45H62.5688V334.077Z" fill="#F4F5F6" stroke="#959DA8" stroke-width="0.511216" stroke-miterlimit="10"/>
<path d="M67.686 334.077H62.6914V362.45H67.686V334.077Z" fill="#F4F5F6" stroke="#959DA8" stroke-width="0.511216" stroke-miterlimit="10"/>
<path d="M72.7954 334.077H67.8008V362.45H72.7954V334.077Z" fill="#F4F5F6" stroke="#959DA8" stroke-width="0.511216" stroke-miterlimit="10"/>
<path d="M77.9086 334.077H72.9141V362.45H77.9086V334.077Z" fill="#F4F5F6" stroke="#959DA8" stroke-width="0.511216" stroke-miterlimit="10"/>
<path d="M83.0219 334.077H78.0273V362.45H83.0219V334.077Z" fill="#F4F5F6" stroke="#959DA8" stroke-width="0.511216" stroke-miterlimit="10"/>
<path d="M88.1352 334.077H83.1406V362.45H88.1352V334.077Z" fill="#F4F5F6" stroke="#959DA8" stroke-width="0.511216" stroke-miterlimit="10"/>
<path d="M93.2446 334.077H88.25V362.45H93.2446V334.077Z" fill="#F4F5F6" stroke="#959DA8" stroke-width="0.511216" stroke-miterlimit="10"/>
<path d="M98.354 334.077H93.3594V362.45H98.354V334.077Z" fill="#F4F5F6" stroke="#959DA8" stroke-width="0.511216" stroke-miterlimit="10"/>
<path d="M118.604 334.336H42.5703V362.453H118.604V334.336Z" stroke="#959DA8" stroke-width="1.02243" stroke-miterlimit="10"/>
<path d="M280.763 21.3789H324.758V60.5023H280.758L280.763 21.3789Z" fill="white" stroke="#959DA8" stroke-width="0.511216" stroke-miterlimit="10"/>
<path d="M302.758 21.3677V60.5575" stroke="#959DA8" stroke-width="0.511216" stroke-miterlimit="10"/>
<path d="M324.756 39.8135H280.93" stroke="#959DA8" stroke-width="0.511216" stroke-miterlimit="10"/>
<path d="M220.95 21.3789H264.946V60.5023H220.945L220.95 21.3789Z" fill="white" stroke="#959DA8" stroke-width="0.511216" stroke-miterlimit="10"/>
<path d="M242.949 21.3677V60.5575" stroke="#959DA8" stroke-width="0.511216" stroke-miterlimit="10"/>
<path d="M264.948 39.8135H221.121" stroke="#959DA8" stroke-width="0.511216" stroke-miterlimit="10"/>
<path d="M280.763 91.4146H324.758V130.538H280.758L280.763 91.4146Z" fill="white" stroke="#959DA8" stroke-width="0.511216" stroke-miterlimit="10"/>
<path d="M302.758 91.4053V130.595" stroke="#959DA8" stroke-width="0.511216" stroke-miterlimit="10"/>
<path d="M324.756 109.848H280.93" stroke="#959DA8" stroke-width="0.511216" stroke-miterlimit="10"/>
<path d="M220.95 91.4146H264.946V130.538H220.945L220.95 91.4146Z" fill="white" stroke="#959DA8" stroke-width="0.511216" stroke-miterlimit="10"/>
<path d="M242.949 91.4053V130.595" stroke="#959DA8" stroke-width="0.511216" stroke-miterlimit="10"/>
<path d="M264.948 109.848H221.121" stroke="#959DA8" stroke-width="0.511216" stroke-miterlimit="10"/>
<path d="M280.763 161.962H324.758V201.086H280.758L280.763 161.962Z" fill="white" stroke="#959DA8" stroke-width="0.511216" stroke-miterlimit="10"/>
<path d="M302.758 161.955V201.145" stroke="#959DA8" stroke-width="0.511216" stroke-miterlimit="10"/>
<path d="M324.756 180.401H280.93" stroke="#959DA8" stroke-width="0.511216" stroke-miterlimit="10"/>
<path d="M220.95 161.962H264.946V201.086H220.945L220.95 161.962Z" fill="white" stroke="#959DA8" stroke-width="0.511216" stroke-miterlimit="10"/>
<path d="M242.949 161.955V201.145" stroke="#959DA8" stroke-width="0.511216" stroke-miterlimit="10"/>
<path d="M264.948 180.401H221.121" stroke="#959DA8" stroke-width="0.511216" stroke-miterlimit="10"/>
<path d="M280.763 233.534H324.758V272.658H280.758L280.763 233.534Z" fill="white" stroke="#959DA8" stroke-width="0.511216" stroke-miterlimit="10"/>
<path d="M302.758 233.525V272.715" stroke="#959DA8" stroke-width="0.511216" stroke-miterlimit="10"/>
<path d="M324.756 251.965H280.93" stroke="#959DA8" stroke-width="0.511216" stroke-miterlimit="10"/>
<path d="M220.95 233.534H264.946V272.658H220.945L220.95 233.534Z" fill="white" stroke="#959DA8" stroke-width="0.511216" stroke-miterlimit="10"/>
<path d="M242.949 233.525V272.715" stroke="#959DA8" stroke-width="0.511216" stroke-miterlimit="10"/>
<path d="M264.948 251.965H221.121" stroke="#959DA8" stroke-width="0.511216" stroke-miterlimit="10"/>
<path d="M280.763 303.568H324.758V342.691H280.758L280.763 303.568Z" fill="white" stroke="#959DA8" stroke-width="0.511216" stroke-miterlimit="10"/>
<path d="M302.758 303.561V342.75" stroke="#959DA8" stroke-width="0.511216" stroke-miterlimit="10"/>
<path d="M324.756 322.003H280.93" stroke="#959DA8" stroke-width="0.511216" stroke-miterlimit="10"/>
<path d="M220.95 303.568H264.946V342.691H220.945L220.95 303.568Z" fill="white" stroke="#959DA8" stroke-width="0.511216" stroke-miterlimit="10"/>
<path d="M242.949 303.561V342.75" stroke="#959DA8" stroke-width="0.511216" stroke-miterlimit="10"/>
<path d="M264.948 322.003H221.121" stroke="#959DA8" stroke-width="0.511216" stroke-miterlimit="10"/>
<path d="M64.009 376.166H108.004V415.289H64.0039L64.009 376.166Z" fill="white" stroke="#959DA8" stroke-width="0.511216" stroke-miterlimit="10"/>
<path d="M86 376.154V415.344" stroke="#959DA8" stroke-width="0.511216" stroke-miterlimit="10"/>
<path d="M108.002 394.597H64.1758" stroke="#959DA8" stroke-width="0.511216" stroke-miterlimit="10"/>
<path d="M442.302 376.166H486.297V415.289H442.297L442.302 376.166Z" fill="white" stroke="#959DA8" stroke-width="0.511216" stroke-miterlimit="10"/>
<path d="M464.305 376.154V415.344" stroke="#959DA8" stroke-width="0.511216" stroke-miterlimit="10"/>
<path d="M486.303 394.597H442.477" stroke="#959DA8" stroke-width="0.511216" stroke-miterlimit="10"/>
<path d="M137.617 232.602H153.22V271.454H137.622L137.617 232.602Z" fill="white" stroke="#959DA8" stroke-width="0.511216" stroke-miterlimit="10"/>
<path d="M153.223 244.018H137.621" stroke="#959DA8" stroke-width="0.511216" stroke-miterlimit="10"/>
<path d="M137.617 162.054H153.22V200.907H137.622L137.617 162.054Z" fill="white" stroke="#959DA8" stroke-width="0.511216" stroke-miterlimit="10"/>
<path d="M153.223 173.47H137.621" stroke="#959DA8" stroke-width="0.511216" stroke-miterlimit="10"/>
<path d="M137.617 91.5063H153.22V130.359H137.622L137.617 91.5063Z" fill="white" stroke="#959DA8" stroke-width="0.511216" stroke-miterlimit="10"/>
<path d="M153.223 102.923H137.621" stroke="#959DA8" stroke-width="0.511216" stroke-miterlimit="10"/>
<path d="M137.617 21.4707H153.22V60.3231H137.622L137.617 21.4707Z" fill="white" stroke="#959DA8" stroke-width="0.511216" stroke-miterlimit="10"/>
<path d="M153.223 32.8848H137.621" stroke="#959DA8" stroke-width="0.511216" stroke-miterlimit="10"/>
<path d="M137.617 303.664H153.22V342.516H137.622L137.617 303.664Z" fill="white" stroke="#959DA8" stroke-width="0.511216" stroke-miterlimit="10"/>
<path d="M153.223 315.08H137.621" stroke="#959DA8" stroke-width="0.511216" stroke-miterlimit="10"/>
<path d="M154.45 344.835H136.22L135.984 340.301H154.685L154.45 344.835Z" fill="#D3DCE5"/>
<path d="M137.617 376.257H153.22V415.11H137.622L137.617 376.257Z" fill="white" stroke="#959DA8" stroke-width="0.511216" stroke-miterlimit="10"/>
<path d="M153.223 387.673H137.621" stroke="#959DA8" stroke-width="0.511216" stroke-miterlimit="10"/>
<path d="M154.45 417.429H136.22L135.984 412.895H154.685L154.45 417.429Z" fill="#D3DCE5"/>
<path d="M394.762 376.257H410.364V415.11H394.767L394.762 376.257Z" fill="white" stroke="#959DA8" stroke-width="0.511216" stroke-miterlimit="10"/>
<path d="M410.368 387.673H394.766" stroke="#959DA8" stroke-width="0.511216" stroke-miterlimit="10"/>
<path d="M411.586 417.429H393.356L393.121 412.895H411.821L411.586 417.429Z" fill="#D3DCE5"/>
<path d="M154.45 271.734H136.22L135.984 267.199H154.685L154.45 271.734Z" fill="#D3DCE5"/>
<path d="M154.45 203.23H136.22L135.984 198.695H154.685L154.45 203.23Z" fill="#D3DCE5"/>
<path d="M154.45 132.682H136.22L135.984 128.147H154.685L154.45 132.682Z" fill="#D3DCE5"/>
<path d="M154.45 62.6463H136.22L135.984 58.1118H154.685L154.45 62.6463Z" fill="#D3DCE5"/>
<path d="M394.762 232.602H410.364V271.454H394.767L394.762 232.602Z" fill="white" stroke="#959DA8" stroke-width="0.511216" stroke-miterlimit="10"/>
<path d="M410.368 244.018H394.766" stroke="#959DA8" stroke-width="0.511216" stroke-miterlimit="10"/>
<path d="M394.762 162.054H410.364V200.907H394.767L394.762 162.054Z" fill="white" stroke="#959DA8" stroke-width="0.511216" stroke-miterlimit="10"/>
<path d="M410.368 173.47H394.766" stroke="#959DA8" stroke-width="0.511216" stroke-miterlimit="10"/>
<path d="M394.762 91.5063H410.364V130.359H394.767L394.762 91.5063Z" fill="white" stroke="#959DA8" stroke-width="0.511216" stroke-miterlimit="10"/>
<path d="M410.368 102.923H394.766" stroke="#959DA8" stroke-width="0.511216" stroke-miterlimit="10"/>
<path d="M394.762 21.4707H410.364V60.3231H394.767L394.762 21.4707Z" fill="white" stroke="#959DA8" stroke-width="0.511216" stroke-miterlimit="10"/>
<path d="M410.368 32.8848H394.766" stroke="#959DA8" stroke-width="0.511216" stroke-miterlimit="10"/>
<path d="M394.762 303.664H410.364V342.516H394.767L394.762 303.664Z" fill="white" stroke="#959DA8" stroke-width="0.511216" stroke-miterlimit="10"/>
<path d="M410.368 315.08H394.766" stroke="#959DA8" stroke-width="0.511216" stroke-miterlimit="10"/>
<path d="M411.586 344.835H393.356L393.121 340.301H411.821L411.586 344.835Z" fill="#D3DCE5"/>
<path d="M411.586 271.734H393.356L393.121 267.199H411.821L411.586 271.734Z" fill="#D3DCE5"/>
<path d="M411.586 203.23H393.356L393.121 198.695H411.821L411.586 203.23Z" fill="#D3DCE5"/>
<path d="M411.586 132.682H393.356L393.121 128.147H411.821L411.586 132.682Z" fill="#D3DCE5"/>
<path d="M411.586 62.6463H393.356L393.121 58.1118H411.821L411.586 62.6463Z" fill="#D3DCE5"/>
</svg>
