<svg width="593" height="401" viewBox="0 0 593 401" fill="none" xmlns="http://www.w3.org/2000/svg">
<path d="M572.149 0H33.1914V12.3769H572.149V0Z" fill="#D3DCE5"/>
<path d="M551.719 321.799H57.4922V399.436H551.719V321.799Z" fill="#F4F5F6" stroke="#959DA8" stroke-width="1.09175" stroke-miterlimit="10"/>
<path d="M551.719 244.163H57.4922V321.8H551.719V244.163Z" fill="#F4F5F6" stroke="#959DA8" stroke-width="1.09175" stroke-miterlimit="10"/>
<path d="M551.719 167.088H57.4922V244.725H551.719V167.088Z" fill="#F4F5F6" stroke="#959DA8" stroke-width="1.09175" stroke-miterlimit="10"/>
<path d="M551.719 89.4502H57.4922V167.087H551.719V89.4502Z" fill="#F4F5F6" stroke="#959DA8" stroke-width="1.09175" stroke-miterlimit="10"/>
<path d="M551.719 11.814H57.4922V89.4509H551.719V11.814Z" fill="#F4F5F6" stroke="#959DA8" stroke-width="1.09175" stroke-miterlimit="10"/>
<path d="M114.947 337.854H90.8398V390.225H114.947V337.854Z" fill="#D3DCE5"/>
<path d="M111.534 341.181H94.2461V366.121H111.534V341.181Z" fill="white" stroke="#959DA8" stroke-width="0.545875" stroke-miterlimit="10"/>
<path d="M82.8646 321.235H78.4258V388.746H82.8646V321.235Z" fill="#F4F5F6" stroke="#959DA8" stroke-width="1.09175" stroke-miterlimit="10"/>
<path d="M126.744 321.235H122.305V398.872H126.744V321.235Z" fill="#F4F5F6" stroke="#959DA8" stroke-width="1.09175" stroke-miterlimit="10"/>
<path d="M138.959 388.531H67.1172V394.028H138.959V388.531Z" fill="#F4F5F6" stroke="#959DA8" stroke-width="1.09175" stroke-miterlimit="10"/>
<path d="M138.959 394.016H67.1172V399.513H138.959V394.016Z" fill="#F4F5F6" stroke="#959DA8" stroke-width="1.09175" stroke-miterlimit="10"/>
<path d="M95.3595 370.461C95.981 370.461 96.4847 369.958 96.4847 369.336C96.4847 368.715 95.981 368.211 95.3595 368.211C94.7381 368.211 94.2344 368.715 94.2344 369.336C94.2344 369.958 94.7381 370.461 95.3595 370.461Z" fill="white" stroke="#959DA8" stroke-width="0.545875" stroke-miterlimit="10"/>
<path d="M401.238 101.828H418.408V144.584H401.238V101.828Z" fill="white" stroke="#959DA8" stroke-width="0.545875" stroke-miterlimit="10"/>
<path d="M418.412 114.39H401.242" stroke="#959DA8" stroke-width="0.545875" stroke-miterlimit="10"/>
<path d="M401.238 24.1914H418.408V66.948H401.238V24.1914Z" fill="white" stroke="#959DA8" stroke-width="0.545875" stroke-miterlimit="10"/>
<path d="M418.412 36.7539H401.242" stroke="#959DA8" stroke-width="0.545875" stroke-miterlimit="10"/>
<path d="M401.238 179.466H418.408V222.222H401.238V179.466Z" fill="white" stroke="#959DA8" stroke-width="0.545875" stroke-miterlimit="10"/>
<path d="M418.412 192.028H401.242" stroke="#959DA8" stroke-width="0.545875" stroke-miterlimit="10"/>
<path d="M401.238 256.54H418.408V299.297H401.238V256.54Z" fill="white" stroke="#959DA8" stroke-width="0.545875" stroke-miterlimit="10"/>
<path d="M418.412 269.101H401.242" stroke="#959DA8" stroke-width="0.545875" stroke-miterlimit="10"/>
<path d="M401.238 337.55H418.408V380.306H401.238V337.55Z" fill="white" stroke="#959DA8" stroke-width="0.545875" stroke-miterlimit="10"/>
<path d="M418.412 350.115H401.242" stroke="#959DA8" stroke-width="0.545875" stroke-miterlimit="10"/>
<path d="M192.516 258.791H209.686V301.547H192.516V258.791Z" fill="white" stroke="#959DA8" stroke-width="0.545875" stroke-miterlimit="10"/>
<path d="M209.697 271.351H192.527" stroke="#959DA8" stroke-width="0.545875" stroke-miterlimit="10"/>
<path d="M192.516 179.466H209.686V222.222H192.516V179.466Z" fill="white" stroke="#959DA8" stroke-width="0.545875" stroke-miterlimit="10"/>
<path d="M209.697 192.028H192.527" stroke="#959DA8" stroke-width="0.545875" stroke-miterlimit="10"/>
<path d="M192.516 101.828H209.686V144.584H192.516V101.828Z" fill="white" stroke="#959DA8" stroke-width="0.545875" stroke-miterlimit="10"/>
<path d="M209.697 114.39H192.527" stroke="#959DA8" stroke-width="0.545875" stroke-miterlimit="10"/>
<path d="M192.516 24.1914H209.686V66.948H192.516V24.1914Z" fill="white" stroke="#959DA8" stroke-width="0.545875" stroke-miterlimit="10"/>
<path d="M209.697 36.7539H192.527" stroke="#959DA8" stroke-width="0.545875" stroke-miterlimit="10"/>
<path d="M192.516 339.241H209.686V381.997H192.516V339.241Z" fill="white" stroke="#959DA8" stroke-width="0.545875" stroke-miterlimit="10"/>
<path d="M209.697 351.801H192.527" stroke="#959DA8" stroke-width="0.545875" stroke-miterlimit="10"/>
<path d="M211.035 384.552H190.974L190.715 379.562H211.294L211.035 384.552Z" fill="#D3DCE5"/>
<path d="M211.035 301.851H190.974L190.715 296.861H211.294L211.035 301.851Z" fill="#D3DCE5"/>
<path d="M211.035 224.774H190.974L190.715 219.784H211.294L211.035 224.774Z" fill="#D3DCE5"/>
<path d="M211.035 147.138H190.974L190.715 142.148H211.294L211.035 147.138Z" fill="#D3DCE5"/>
<path d="M211.035 69.5019H190.974L190.715 64.5117H211.294L211.035 69.5019Z" fill="#D3DCE5"/>
<path d="M419.992 384.552H399.931L399.672 379.562H420.251L419.992 384.552Z" fill="#D3DCE5"/>
<path d="M419.992 301.851H399.931L399.672 296.861H420.251L419.992 301.851Z" fill="#D3DCE5"/>
<path d="M419.992 224.774H399.931L399.672 219.784H420.251L419.992 224.774Z" fill="#D3DCE5"/>
<path d="M419.992 147.138H399.931L399.672 142.148H420.251L419.992 147.138Z" fill="#D3DCE5"/>
<path d="M419.992 69.5019H399.931L399.672 64.5117H420.251L419.992 69.5019Z" fill="#D3DCE5"/>
<path d="M68.0724 67.6556C68.2936 67.6571 68.5144 67.6345 68.7307 67.5881C78.8572 65.2871 78.8572 53.0678 78.8572 53.0678C78.9466 45.6224 76.5864 38.354 72.1399 32.3815C71.6679 31.7569 71.0574 31.2503 70.3566 30.9015C69.6557 30.5526 68.8835 30.3711 68.1006 30.3711C67.3177 30.3711 66.5454 30.5526 65.8445 30.9015C65.1436 31.2503 64.5332 31.7569 64.0612 32.3815C59.6127 38.3532 57.2505 45.6217 57.3383 53.0678C57.3383 53.0678 57.3383 65.3153 67.4311 67.5937C67.6474 67.6401 67.8681 67.6627 68.0893 67.6612L68.0724 67.6556Z" fill="#80C33F"/>
<path d="M68.0742 44.4795V86.0771" stroke="#2A3A51" stroke-width="0.545875" stroke-linecap="round" stroke-linejoin="round"/>
<path d="M463.006 65.4071C463.227 65.4086 463.448 65.3859 463.664 65.3396C473.791 63.0386 473.791 50.8192 473.791 50.8192C473.88 43.3738 471.52 36.1054 467.074 30.1329C466.601 29.5084 465.991 29.0018 465.29 28.6529C464.589 28.3041 463.817 28.1226 463.034 28.1226C462.251 28.1226 461.479 28.3041 460.778 28.6529C460.077 29.0018 459.467 29.5084 458.995 30.1329C454.546 36.1047 452.184 43.3732 452.272 50.8192C452.272 50.8192 452.272 63.0667 462.365 65.3452C462.581 65.3916 462.802 65.4142 463.023 65.4127L463.006 65.4071Z" fill="#80C33F"/>
<path d="M463.008 42.2271V83.8247" stroke="#2A3A51" stroke-width="0.545875" stroke-linecap="round" stroke-linejoin="round"/>
<path d="M105.766 302.841C105.761 301.589 106.057 300.354 106.63 299.241C107.203 298.127 108.036 297.168 109.058 296.445C110.08 295.721 111.261 295.255 112.502 295.084C113.742 294.914 115.006 295.045 116.185 295.466C116.641 293.63 117.564 291.944 118.864 290.572C120.165 289.199 121.799 288.187 123.607 287.633C125.415 287.079 127.335 287.002 129.181 287.411C131.028 287.819 132.737 288.699 134.143 289.963C135.135 287.187 137.076 284.85 139.623 283.364C142.169 281.878 145.159 281.338 148.064 281.84C150.97 282.341 153.605 283.852 155.507 286.106C157.408 288.359 158.453 291.212 158.458 294.16C158.459 294.596 158.437 295.032 158.39 295.466C159.237 295.156 160.132 294.998 161.034 294.999C165.366 294.999 169.135 298.515 168.86 302.824C168.82 303.535 168.701 304.239 168.505 304.923H106.058C105.87 304.239 105.775 303.533 105.777 302.824L105.766 302.841Z" fill="#80C33F"/>
<path d="M6.57642e-05 397.919C-0.00507659 396.667 0.291427 395.432 0.864479 394.319C1.43753 393.205 2.27026 392.246 3.29228 391.523C4.3143 390.799 5.49555 390.333 6.73606 390.162C7.97658 389.992 9.2399 390.123 10.4192 390.544C10.8749 388.708 11.798 387.023 13.0986 385.65C14.3992 384.277 16.033 383.265 17.841 382.711C19.649 382.157 21.5696 382.08 23.4159 382.489C25.2622 382.897 26.9713 383.777 28.3769 385.042C29.3698 382.265 31.3105 379.928 33.8572 378.442C36.4039 376.956 39.3932 376.416 42.2988 376.918C45.2044 377.419 47.8398 378.93 49.741 381.184C51.6422 383.438 52.6872 386.29 52.6919 389.238C52.6935 389.674 52.671 390.11 52.6244 390.544C53.4716 390.234 54.3666 390.076 55.2685 390.077C59.6005 390.077 63.3698 393.593 63.0941 397.902C63.0544 398.613 62.9356 399.317 62.7397 400.001H0.292622C0.104025 399.317 0.009391 398.611 0.0113285 397.902L6.57642e-05 397.919Z" fill="#80C33F"/>
<path d="M133.065 24.3706H84.6484V69.6926H133.065V24.3706Z" fill="white" stroke="#959DA8" stroke-width="0.545875" stroke-miterlimit="10"/>
<path d="M108.859 24.3643V69.7593" stroke="#959DA8" stroke-width="0.545875" stroke-miterlimit="10"/>
<path d="M133.065 102.009H84.6484V147.331H133.065V102.009Z" fill="white" stroke="#959DA8" stroke-width="0.545875" stroke-miterlimit="10"/>
<path d="M108.859 102.002V147.398" stroke="#959DA8" stroke-width="0.545875" stroke-miterlimit="10"/>
<path d="M133.065 179.083H84.6484V224.405H133.065V179.083Z" fill="white" stroke="#959DA8" stroke-width="0.545875" stroke-miterlimit="10"/>
<path d="M108.859 179.077V224.472" stroke="#959DA8" stroke-width="0.545875" stroke-miterlimit="10"/>
<path d="M133.065 258.406H84.6484V303.728H133.065V258.406Z" fill="white" stroke="#959DA8" stroke-width="0.545875" stroke-miterlimit="10"/>
<path d="M108.859 258.402V303.797" stroke="#959DA8" stroke-width="0.545875" stroke-miterlimit="10"/>
<path d="M297.338 24.3706H248.922V69.6926H297.338V24.3706Z" fill="white" stroke="#959DA8" stroke-width="0.545875" stroke-miterlimit="10"/>
<path d="M273.137 24.3643V69.7593" stroke="#959DA8" stroke-width="0.545875" stroke-miterlimit="10"/>
<path d="M297.338 102.009H248.922V147.331H297.338V102.009Z" fill="white" stroke="#959DA8" stroke-width="0.545875" stroke-miterlimit="10"/>
<path d="M273.137 102.002V147.398" stroke="#959DA8" stroke-width="0.545875" stroke-miterlimit="10"/>
<path d="M297.338 179.083H248.922V224.405H297.338V179.083Z" fill="white" stroke="#959DA8" stroke-width="0.545875" stroke-miterlimit="10"/>
<path d="M273.137 179.077V224.472" stroke="#959DA8" stroke-width="0.545875" stroke-miterlimit="10"/>
<path d="M297.338 258.406H248.922V303.728H297.338V258.406Z" fill="white" stroke="#959DA8" stroke-width="0.545875" stroke-miterlimit="10"/>
<path d="M273.137 258.402V303.797" stroke="#959DA8" stroke-width="0.545875" stroke-miterlimit="10"/>
<path d="M297.338 339.42H248.922V384.742H297.338V339.42Z" fill="white" stroke="#959DA8" stroke-width="0.545875" stroke-miterlimit="10"/>
<path d="M273.137 339.414V384.809" stroke="#959DA8" stroke-width="0.545875" stroke-miterlimit="10"/>
<path d="M364.85 24.3706H316.434V69.6926H364.85V24.3706Z" fill="white" stroke="#959DA8" stroke-width="0.545875" stroke-miterlimit="10"/>
<path d="M340.645 24.3643V69.7593" stroke="#959DA8" stroke-width="0.545875" stroke-miterlimit="10"/>
<path d="M364.85 102.009H316.434V147.331H364.85V102.009Z" fill="white" stroke="#959DA8" stroke-width="0.545875" stroke-miterlimit="10"/>
<path d="M340.645 102.002V147.398" stroke="#959DA8" stroke-width="0.545875" stroke-miterlimit="10"/>
<path d="M364.85 179.083H316.434V224.405H364.85V179.083Z" fill="white" stroke="#959DA8" stroke-width="0.545875" stroke-miterlimit="10"/>
<path d="M340.645 179.077V224.472" stroke="#959DA8" stroke-width="0.545875" stroke-miterlimit="10"/>
<path d="M364.85 258.406H316.434V303.728H364.85V258.406Z" fill="white" stroke="#959DA8" stroke-width="0.545875" stroke-miterlimit="10"/>
<path d="M340.645 258.402V303.797" stroke="#959DA8" stroke-width="0.545875" stroke-miterlimit="10"/>
<path d="M364.85 339.42H316.434V384.742H364.85V339.42Z" fill="white" stroke="#959DA8" stroke-width="0.545875" stroke-miterlimit="10"/>
<path d="M340.645 339.414V384.809" stroke="#959DA8" stroke-width="0.545875" stroke-miterlimit="10"/>
<path d="M522.373 24.3706H473.957V69.6926H522.373V24.3706Z" fill="white" stroke="#959DA8" stroke-width="0.545875" stroke-miterlimit="10"/>
<path d="M498.172 24.3643V69.7593" stroke="#959DA8" stroke-width="0.545875" stroke-miterlimit="10"/>
<path d="M522.373 102.009H473.957V147.331H522.373V102.009Z" fill="white" stroke="#959DA8" stroke-width="0.545875" stroke-miterlimit="10"/>
<path d="M498.172 102.002V147.398" stroke="#959DA8" stroke-width="0.545875" stroke-miterlimit="10"/>
<path d="M522.373 179.083H473.957V224.405H522.373V179.083Z" fill="white" stroke="#959DA8" stroke-width="0.545875" stroke-miterlimit="10"/>
<path d="M498.172 179.077V224.472" stroke="#959DA8" stroke-width="0.545875" stroke-miterlimit="10"/>
<path d="M522.373 258.406H473.957V303.728H522.373V258.406Z" fill="white" stroke="#959DA8" stroke-width="0.545875" stroke-miterlimit="10"/>
<path d="M498.172 258.402V303.797" stroke="#959DA8" stroke-width="0.545875" stroke-miterlimit="10"/>
<path d="M522.373 339.42H473.957V384.742H522.373V339.42Z" fill="white" stroke="#959DA8" stroke-width="0.545875" stroke-miterlimit="10"/>
<path d="M498.172 339.414V384.809" stroke="#959DA8" stroke-width="0.545875" stroke-miterlimit="10"/>
<path d="M171.586 136.989H45.8477V167.932H171.586V136.989Z" fill="#D3DCE5"/>
<path d="M171.586 59.353H45.8477V90.2953H171.586V59.353Z" fill="#D3DCE5"/>
<path d="M171.586 291.702H45.8477V322.644H171.586V291.702Z" fill="#D3DCE5"/>
<path d="M565.398 214.627H439.66V245.569H565.398V214.627Z" fill="#D3DCE5"/>
<path d="M592.537 207.228L564.48 191.03L555.99 205.735L584.047 221.933L592.537 207.228Z" fill="white"/>
<path d="M592.545 207.162L564.512 190.977L563.84 192.14L591.873 208.325L592.545 207.162Z" fill="#B22234"/>
<path d="M591.229 209.436L563.195 193.251L562.524 194.415L590.557 210.6L591.229 209.436Z" fill="#B22234"/>
<path d="M589.916 211.712L561.883 195.527L561.211 196.69L589.244 212.875L589.916 211.712Z" fill="#B22234"/>
<path d="M588.604 213.987L560.57 197.802L559.899 198.965L587.932 215.15L588.604 213.987Z" fill="#B22234"/>
<path d="M587.287 216.262L559.254 200.077L558.582 201.24L586.616 217.425L587.287 216.262Z" fill="#B22234"/>
<path d="M585.975 218.538L557.941 202.353L557.27 203.516L585.303 219.701L585.975 218.538Z" fill="#B22234"/>
<path d="M584.658 220.813L556.625 204.628L555.953 205.791L583.987 221.976L584.658 220.813Z" fill="#B22234"/>
<path d="M575.704 197.44L564.508 190.976L559.895 198.966L571.091 205.43L575.704 197.44Z" fill="#2A3A51"/>
<path d="M565.284 191.83L565.2 192.217L565.539 192.413L565.148 192.456L565.065 192.843L564.907 192.483L564.516 192.526L564.81 192.26L564.652 191.9L564.991 192.096L565.284 191.83Z" fill="white"/>
<path d="M565.733 193.183L565.649 193.57L565.988 193.766L565.598 193.809L565.514 194.196L565.356 193.836L564.966 193.879L565.259 193.614L565.101 193.253L565.44 193.449L565.733 193.183Z" fill="white"/>
<path d="M564.811 194.785L564.728 195.172L565.067 195.367L564.676 195.411L564.592 195.797L564.434 195.437L564.044 195.481L564.337 195.215L564.179 194.855L564.518 195.051L564.811 194.785Z" fill="white"/>
<path d="M563.885 196.387L563.802 196.774L564.141 196.969L563.75 197.013L563.667 197.399L563.509 197.039L563.118 197.083L563.411 196.817L563.253 196.457L563.592 196.653L563.885 196.387Z" fill="white"/>
<path d="M562.959 197.988L562.876 198.375L563.215 198.571L562.824 198.614L562.741 199L562.583 198.64L562.192 198.684L562.485 198.418L562.327 198.058L562.666 198.254L562.959 197.988Z" fill="white"/>
<path d="M567.604 194.263L567.52 194.649L567.859 194.845L567.469 194.888L567.385 195.275L567.227 194.915L566.837 194.958L567.13 194.693L566.972 194.333L567.311 194.528L567.604 194.263Z" fill="white"/>
<path d="M566.678 195.865L566.595 196.251L566.934 196.447L566.543 196.49L566.46 196.877L566.302 196.517L565.911 196.56L566.204 196.295L566.046 195.934L566.385 196.13L566.678 195.865Z" fill="white"/>
<path d="M565.752 197.467L565.669 197.854L566.008 198.05L565.617 198.093L565.534 198.479L565.376 198.119L564.985 198.163L565.278 197.897L565.12 197.537L565.459 197.733L565.752 197.467Z" fill="white"/>
<path d="M564.831 199.068L564.747 199.455L565.086 199.651L564.696 199.694L564.612 200.08L564.454 199.721L564.063 199.764L564.356 199.498L564.198 199.138L564.538 199.334L564.831 199.068Z" fill="white"/>
<path d="M569.475 195.343L569.392 195.729L569.731 195.925L569.34 195.968L569.256 196.355L569.098 195.995L568.708 196.038L569.001 195.773L568.843 195.413L569.182 195.608L569.475 195.343Z" fill="white"/>
<path d="M568.545 196.946L568.462 197.332L568.801 197.528L568.41 197.571L568.327 197.958L568.169 197.598L567.778 197.641L568.071 197.376L567.913 197.016L568.252 197.211L568.545 196.946Z" fill="white"/>
<path d="M567.627 198.547L567.544 198.934L567.883 199.13L567.492 199.173L567.409 199.559L567.251 199.2L566.86 199.243L567.153 198.977L566.995 198.617L567.334 198.813L567.627 198.547Z" fill="white"/>
<path d="M566.698 200.149L566.614 200.535L566.953 200.731L566.563 200.774L566.479 201.161L566.321 200.801L565.931 200.844L566.224 200.579L566.066 200.219L566.405 200.414L566.698 200.149Z" fill="white"/>
<path d="M571.346 196.423L571.263 196.81L571.602 197.006L571.211 197.049L571.128 197.436L570.969 197.076L570.579 197.119L570.872 196.853L570.714 196.493L571.053 196.689L571.346 196.423Z" fill="white"/>
<path d="M570.416 198.025L570.333 198.412L570.672 198.608L570.281 198.651L570.198 199.037L570.04 198.678L569.649 198.721L569.942 198.455L569.784 198.095L570.123 198.291L570.416 198.025Z" fill="white"/>
<path d="M569.495 199.626L569.411 200.013L569.75 200.209L569.36 200.252L569.276 200.639L569.118 200.279L568.727 200.322L569.02 200.056L568.863 199.696L569.202 199.892L569.495 199.626Z" fill="white"/>
<path d="M568.569 201.229L568.485 201.616L568.825 201.812L568.434 201.855L568.35 202.242L568.192 201.882L567.802 201.925L568.095 201.659L567.937 201.299L568.276 201.495L568.569 201.229Z" fill="white"/>
<path d="M573.213 197.503L573.13 197.89L573.469 198.086L573.078 198.129L572.995 198.516L572.837 198.156L572.446 198.199L572.739 197.933L572.581 197.573L572.92 197.769L573.213 197.503Z" fill="white"/>
<path d="M572.291 199.106L572.208 199.492L572.547 199.688L572.156 199.731L572.073 200.118L571.915 199.758L571.524 199.801L571.817 199.536L571.659 199.176L571.998 199.371L572.291 199.106Z" fill="white"/>
<path d="M571.366 200.707L571.282 201.094L571.621 201.29L571.231 201.333L571.147 201.72L570.989 201.36L570.598 201.403L570.891 201.137L570.734 200.777L571.073 200.973L571.366 200.707Z" fill="white"/>
<path d="M570.436 202.309L570.353 202.696L570.691 202.892L570.301 202.935L570.217 203.322L570.059 202.962L569.669 203.005L569.962 202.739L569.804 202.379L570.143 202.575L570.436 202.309Z" fill="white"/>
<path d="M564.362 193.432L564.278 193.819L564.617 194.014L564.227 194.057L564.143 194.444L563.985 194.084L563.595 194.127L563.888 193.862L563.73 193.502L564.069 193.698L564.362 193.432Z" fill="white"/>
<path d="M563.432 195.035L563.349 195.421L563.688 195.617L563.297 195.66L563.214 196.047L563.056 195.687L562.665 195.73L562.958 195.464L562.8 195.104L563.139 195.3L563.432 195.035Z" fill="white"/>
<path d="M562.51 196.636L562.427 197.023L562.766 197.218L562.375 197.262L562.292 197.648L562.134 197.288L561.743 197.332L562.036 197.066L561.878 196.706L562.217 196.902L562.51 196.636Z" fill="white"/>
<path d="M561.584 198.239L561.501 198.625L561.84 198.821L561.449 198.864L561.366 199.251L561.208 198.891L560.817 198.934L561.11 198.669L560.952 198.309L561.291 198.504L561.584 198.239Z" fill="white"/>
<path d="M567.127 192.897L567.044 193.284L567.383 193.479L566.992 193.523L566.909 193.909L566.751 193.549L566.36 193.592L566.653 193.327L566.495 192.967L566.834 193.163L567.127 192.897Z" fill="white"/>
<path d="M566.206 194.497L566.122 194.884L566.461 195.08L566.071 195.123L565.987 195.51L565.829 195.15L565.438 195.193L565.731 194.927L565.573 194.567L565.913 194.763L566.206 194.497Z" fill="white"/>
<path d="M565.28 196.1L565.196 196.487L565.535 196.682L565.145 196.726L565.061 197.112L564.903 196.752L564.513 196.795L564.806 196.53L564.648 196.17L564.987 196.366L565.28 196.1Z" fill="white"/>
<path d="M564.354 197.702L564.27 198.089L564.61 198.284L564.219 198.328L564.135 198.714L563.977 198.354L563.587 198.398L563.88 198.132L563.722 197.772L564.061 197.968L564.354 197.702Z" fill="white"/>
<path d="M563.428 199.304L563.345 199.69L563.684 199.886L563.293 199.929L563.21 200.316L563.052 199.956L562.661 199.999L562.954 199.733L562.796 199.373L563.135 199.569L563.428 199.304Z" fill="white"/>
<path d="M569.026 193.991L568.942 194.377L569.281 194.573L568.891 194.616L568.807 195.003L568.649 194.643L568.259 194.686L568.552 194.42L568.394 194.061L568.733 194.256L569.026 193.991Z" fill="white"/>
<path d="M568.096 195.593L568.013 195.98L568.352 196.175L567.961 196.219L567.878 196.605L567.72 196.245L567.329 196.289L567.622 196.023L567.464 195.663L567.803 195.859L568.096 195.593Z" fill="white"/>
<path d="M567.178 197.194L567.095 197.581L567.434 197.777L567.043 197.82L566.96 198.206L566.802 197.846L566.411 197.89L566.704 197.624L566.546 197.264L566.885 197.46L567.178 197.194Z" fill="white"/>
<path d="M566.252 198.796L566.169 199.182L566.508 199.378L566.117 199.421L566.034 199.808L565.876 199.448L565.485 199.491L565.778 199.226L565.62 198.866L565.959 199.061L566.252 198.796Z" fill="white"/>
<path d="M565.323 200.398L565.239 200.785L565.578 200.981L565.188 201.024L565.104 201.411L564.946 201.051L564.556 201.094L564.849 200.828L564.691 200.468L565.03 200.664L565.323 200.398Z" fill="white"/>
<path d="M570.881 195.063L570.798 195.45L571.137 195.646L570.746 195.689L570.663 196.076L570.505 195.716L570.114 195.759L570.407 195.493L570.249 195.133L570.588 195.329L570.881 195.063Z" fill="white"/>
<path d="M569.959 196.665L569.876 197.052L570.215 197.248L569.824 197.291L569.741 197.678L569.583 197.318L569.192 197.361L569.485 197.095L569.327 196.735L569.666 196.931L569.959 196.665Z" fill="white"/>
<path d="M569.034 198.267L568.95 198.654L569.289 198.849L568.898 198.893L568.815 199.279L568.657 198.919L568.266 198.962L568.559 198.697L568.402 198.337L568.741 198.533L569.034 198.267Z" fill="white"/>
<path d="M568.108 199.869L568.024 200.255L568.363 200.451L567.973 200.494L567.889 200.881L567.731 200.521L567.341 200.564L567.634 200.298L567.476 199.938L567.815 200.134L568.108 199.869Z" fill="white"/>
<path d="M567.182 201.472L567.099 201.858L567.438 202.054L567.047 202.097L566.963 202.484L566.806 202.124L566.415 202.167L566.708 201.901L566.55 201.541L566.889 201.737L567.182 201.472Z" fill="white"/>
<path d="M572.741 196.136L572.657 196.523L572.996 196.719L572.606 196.762L572.522 197.148L572.364 196.788L571.973 196.832L572.266 196.566L572.109 196.206L572.447 196.402L572.741 196.136Z" fill="white"/>
<path d="M571.811 197.738L571.728 198.125L572.067 198.321L571.676 198.364L571.592 198.75L571.435 198.39L571.044 198.434L571.337 198.168L571.179 197.808L571.518 198.004L571.811 197.738Z" fill="white"/>
<path d="M570.893 199.34L570.81 199.726L571.149 199.922L570.758 199.965L570.674 200.352L570.517 199.992L570.126 200.035L570.419 199.77L570.261 199.41L570.6 199.605L570.893 199.34Z" fill="white"/>
<path d="M569.967 200.941L569.884 201.328L570.223 201.524L569.832 201.567L569.749 201.953L569.591 201.594L569.2 201.637L569.493 201.371L569.335 201.011L569.674 201.207L569.967 200.941Z" fill="white"/>
<path d="M569.041 202.543L568.958 202.93L569.297 203.126L568.906 203.169L568.823 203.555L568.665 203.196L568.274 203.239L568.567 202.973L568.409 202.613L568.748 202.809L569.041 202.543Z" fill="white"/>
<path d="M574.635 197.232L574.552 197.619L574.891 197.814L574.5 197.857L574.417 198.244L574.259 197.884L573.868 197.927L574.161 197.662L574.003 197.302L574.342 197.498L574.635 197.232Z" fill="white"/>
<path d="M573.713 198.832L573.63 199.219L573.969 199.415L573.578 199.458L573.495 199.845L573.337 199.485L572.946 199.528L573.239 199.262L573.081 198.902L573.42 199.098L573.713 198.832Z" fill="white"/>
<path d="M572.788 200.434L572.704 200.821L573.043 201.017L572.653 201.06L572.569 201.447L572.411 201.087L572.02 201.13L572.313 200.864L572.155 200.504L572.495 200.7L572.788 200.434Z" fill="white"/>
<path d="M571.862 202.037L571.778 202.423L572.118 202.619L571.727 202.662L571.643 203.049L571.485 202.689L571.095 202.732L571.388 202.466L571.23 202.106L571.569 202.302L571.862 202.037Z" fill="white"/>
<path d="M570.94 203.638L570.857 204.024L571.196 204.22L570.805 204.263L570.721 204.65L570.563 204.29L570.173 204.333L570.466 204.067L570.308 203.707L570.647 203.903L570.94 203.638Z" fill="white"/>
<path fill-rule="evenodd" clip-rule="evenodd" d="M564.402 190.585L592.697 206.921L584.001 221.984L556.2 205.933L551.496 214.081L551.002 213.796L564.402 190.585ZM556.485 205.439L583.792 221.205L591.918 207.13L564.611 191.364L556.485 205.439Z" fill="#959DA8"/>
<path d="M565.398 59.353H439.66V90.2953H565.398V59.353Z" fill="#D3DCE5"/>
<path d="M565.398 291.702H439.66V322.644H565.398V291.702Z" fill="#D3DCE5"/>
<path d="M565.398 368.774H439.66V399.717H565.398V368.774Z" fill="#D3DCE5"/>
<path d="M330.664 366.091C331.016 364.322 330.998 362.498 330.613 360.736C330.234 358.991 329.491 357.345 328.43 355.909C327.399 354.507 326.067 353.353 324.531 352.533C323.032 351.731 321.365 351.294 319.665 351.258C317.965 351.222 316.28 351.588 314.748 352.325C313.186 353.077 311.813 354.171 310.731 355.526C309.619 356.916 308.816 358.527 308.374 360.252C307.924 361.999 307.839 363.821 308.126 365.602C306.855 366.267 305.745 367.202 304.875 368.342C303.981 369.51 303.339 370.851 302.99 372.28C302.634 373.725 302.572 375.227 302.81 376.696C303.045 378.154 303.577 379.548 304.374 380.792C305.149 382.006 306.178 383.039 307.389 383.819C308.578 384.581 309.925 385.062 311.328 385.225C312.716 385.385 314.124 385.224 315.44 384.752C316.777 384.275 317.992 383.506 318.996 382.502C319.967 383.492 321.142 384.26 322.439 384.752C323.711 385.236 325.076 385.428 326.433 385.315C327.794 385.191 329.11 384.766 330.287 384.072C331.49 383.36 332.529 382.401 333.336 381.259C334.163 380.089 334.747 378.765 335.052 377.366C335.363 375.953 335.393 374.492 335.142 373.068C334.908 371.642 334.39 370.277 333.617 369.056C332.853 367.871 331.846 366.86 330.664 366.091Z" fill="#80C33F"/>
<path d="M319.431 376.815L314.137 373.046" stroke="#2A3A51" stroke-width="0.545875" stroke-linecap="round" stroke-linejoin="round"/>
<path d="M319.43 381.524L325.618 375.898" stroke="#2A3A51" stroke-width="0.545875" stroke-linecap="round" stroke-linejoin="round"/>
<path d="M319.43 365.501V399.437" stroke="#2A3A51" stroke-width="0.545875" stroke-linecap="round" stroke-linejoin="round"/>
<path d="M93.9513 225.182C94.1725 225.183 94.3933 225.161 94.6096 225.114C104.736 222.814 104.736 210.594 104.736 210.594C104.826 203.149 102.465 195.88 98.0188 189.908C97.5468 189.283 96.9363 188.777 96.2355 188.428C95.5346 188.079 94.7624 187.897 93.9795 187.897C93.1966 187.897 92.4243 188.079 91.7234 188.428C91.0226 188.777 90.4121 189.283 89.9401 189.908C85.4916 195.88 83.1294 203.148 83.2172 210.594C83.2172 210.594 83.2172 222.842 93.31 225.12C93.5263 225.166 93.747 225.189 93.9682 225.188L93.9513 225.182Z" fill="#80C33F"/>
<path d="M93.9492 202.002V243.6" stroke="#2A3A51" stroke-width="0.545875" stroke-linecap="round" stroke-linejoin="round"/>
<path d="M171.586 214.627H45.8477V245.569H171.586V214.627Z" fill="#D3DCE5"/>
<path d="M498.449 145.316C498.444 144.064 498.741 142.829 499.314 141.716C499.887 140.602 500.72 139.643 501.742 138.92C502.764 138.196 503.945 137.73 505.185 137.559C506.426 137.389 507.689 137.52 508.868 137.941C509.324 136.105 510.247 134.419 511.548 133.047C512.848 131.674 514.482 130.662 516.29 130.108C518.098 129.554 520.019 129.477 521.865 129.886C523.711 130.294 525.421 131.174 526.826 132.439C527.819 129.662 529.76 127.325 532.306 125.839C534.853 124.353 537.842 123.813 540.748 124.315C543.654 124.816 546.289 126.327 548.19 128.581C550.091 130.835 551.136 133.687 551.141 136.635C551.143 137.071 551.12 137.507 551.074 137.941C551.921 137.631 552.816 137.473 553.718 137.474C558.05 137.474 561.819 140.99 561.543 145.299C561.504 146.01 561.385 146.714 561.189 147.398H498.742C498.553 146.714 498.459 146.008 498.461 145.299L498.449 145.316Z" fill="#80C33F"/>
<path d="M565.398 136.989H439.66V167.932H565.398V136.989Z" fill="#D3DCE5"/>
<path d="M572.147 378.486C572.4 378.487 572.653 378.461 572.901 378.407C584.422 375.785 584.428 361.827 584.428 361.827C584.428 342.806 572.152 333.271 572.152 333.271C572.152 333.271 559.871 342.784 559.871 361.827C559.871 361.827 559.871 375.802 571.393 378.407C571.64 378.461 571.893 378.487 572.147 378.486Z" fill="#80C33F"/>
<path d="M572.148 352.039V399.516" stroke="#2A3A51" stroke-width="0.545875" stroke-linecap="round" stroke-linejoin="round"/>
</svg>
