<svg width="639" height="434" viewBox="0 0 639 434" fill="none" xmlns="http://www.w3.org/2000/svg">
<path d="M519.905 0H30.1602V11.2468H519.905V0Z" fill="#D3DCE5"/>
<path d="M501.344 361.942H52.2461V432.49H501.344V361.942Z" fill="#F4F5F6" stroke="#959DA8" stroke-width="1.02243" stroke-miterlimit="10"/>
<path d="M501.344 291.393H52.2461V361.94H501.344V291.393Z" fill="#F4F5F6" stroke="#959DA8" stroke-width="1.02243" stroke-miterlimit="10"/>
<path d="M501.344 221.357H52.2461V291.905H501.344V221.357Z" fill="#F4F5F6" stroke="#959DA8" stroke-width="1.02243" stroke-miterlimit="10"/>
<path d="M501.344 150.811H52.2461V221.359H501.344V150.811Z" fill="#F4F5F6" stroke="#959DA8" stroke-width="1.02243" stroke-miterlimit="10"/>
<path d="M501.344 80.2632H52.2461V150.811H501.344V80.2632Z" fill="#F4F5F6" stroke="#959DA8" stroke-width="1.02243" stroke-miterlimit="10"/>
<path d="M108.381 303.152H66.9727V361.374H108.381V303.152Z" fill="white" stroke="#959DA8" stroke-width="0.511216" stroke-miterlimit="10"/>
<path d="M90.2227 303.032V360.411" stroke="#959DA8" stroke-width="0.511216" stroke-miterlimit="10"/>
<path d="M108.381 232.602H66.9727V290.824H108.381V232.602Z" fill="white" stroke="#959DA8" stroke-width="0.511216" stroke-miterlimit="10"/>
<path d="M90.2227 232.482V289.861" stroke="#959DA8" stroke-width="0.511216" stroke-miterlimit="10"/>
<path d="M108.381 162.054H66.9727V220.277H108.381V162.054Z" fill="white" stroke="#959DA8" stroke-width="0.511216" stroke-miterlimit="10"/>
<path d="M90.2227 161.933V219.312" stroke="#959DA8" stroke-width="0.511216" stroke-miterlimit="10"/>
<path d="M108.381 91.5063H66.9727V149.729H108.381V91.5063Z" fill="white" stroke="#959DA8" stroke-width="0.511216" stroke-miterlimit="10"/>
<path d="M90.2227 91.3848V148.764" stroke="#959DA8" stroke-width="0.511216" stroke-miterlimit="10"/>
<path d="M485.143 303.664H443.734V361.886H485.143V303.664Z" fill="white" stroke="#959DA8" stroke-width="0.511216" stroke-miterlimit="10"/>
<path d="M467 303.54V360.919" stroke="#959DA8" stroke-width="0.511216" stroke-miterlimit="10"/>
<path d="M485.143 233.114H443.734V291.337H485.143V233.114Z" fill="white" stroke="#959DA8" stroke-width="0.511216" stroke-miterlimit="10"/>
<path d="M467 232.99V290.369" stroke="#959DA8" stroke-width="0.511216" stroke-miterlimit="10"/>
<path d="M485.143 162.564H443.734V220.787H485.143V162.564Z" fill="white" stroke="#959DA8" stroke-width="0.511216" stroke-miterlimit="10"/>
<path d="M467 162.444V219.823" stroke="#959DA8" stroke-width="0.511216" stroke-miterlimit="10"/>
<path d="M485.143 92.0166H443.734V150.239H485.143V92.0166Z" fill="white" stroke="#959DA8" stroke-width="0.511216" stroke-miterlimit="10"/>
<path d="M467 91.8965V149.275" stroke="#959DA8" stroke-width="0.511216" stroke-miterlimit="10"/>
<path d="M501.344 10.2236H52.2461V80.7715H501.344V10.2236Z" fill="#F4F5F6" stroke="#959DA8" stroke-width="1.02243" stroke-miterlimit="10"/>
<path d="M108.381 21.4707H66.9727V79.6931H108.381V21.4707Z" fill="white" stroke="#959DA8" stroke-width="0.511216" stroke-miterlimit="10"/>
<path d="M90.2227 21.3506V78.7295" stroke="#959DA8" stroke-width="0.511216" stroke-miterlimit="10"/>
<path d="M485.143 21.9824H443.734V80.2048H485.143V21.9824Z" fill="white" stroke="#959DA8" stroke-width="0.511216" stroke-miterlimit="10"/>
<path d="M467 21.8589V79.2378" stroke="#959DA8" stroke-width="0.511216" stroke-miterlimit="10"/>
<path d="M327.053 402.189C327.373 400.581 327.357 398.924 327.007 397.323C326.663 395.737 325.987 394.242 325.023 392.936C324.086 391.662 322.875 390.614 321.48 389.869C320.118 389.14 318.603 388.744 317.058 388.711C315.513 388.678 313.983 389.01 312.59 389.68C311.171 390.364 309.924 391.358 308.94 392.589C307.93 393.852 307.2 395.316 306.798 396.883C306.389 398.471 306.312 400.126 306.573 401.745C305.418 402.349 304.41 403.199 303.618 404.234C302.806 405.296 302.223 406.514 301.906 407.813C301.582 409.126 301.526 410.491 301.742 411.826C301.956 413.151 302.44 414.418 303.164 415.548C303.868 416.651 304.803 417.589 305.904 418.298C306.984 418.991 308.208 419.428 309.482 419.576C310.744 419.722 312.023 419.575 313.219 419.146C314.434 418.712 315.538 418.014 316.45 417.102C317.333 418.001 318.4 418.699 319.579 419.146C320.735 419.586 321.975 419.76 323.208 419.658C324.445 419.545 325.641 419.159 326.71 418.528C327.804 417.881 328.748 417.01 329.481 415.972C330.232 414.909 330.763 413.706 331.04 412.434C331.323 411.15 331.351 409.823 331.122 408.529C330.91 407.233 330.439 405.993 329.737 404.884C329.042 403.806 328.127 402.888 327.053 402.189Z" fill="#80C33F"/>
<path d="M316.846 411.931L312.035 408.506" stroke="#2A3A51" stroke-width="0.511216" stroke-linecap="round" stroke-linejoin="round"/>
<path d="M316.844 416.21L322.467 411.098" stroke="#2A3A51" stroke-width="0.511216" stroke-linecap="round" stroke-linejoin="round"/>
<path d="M316.844 401.653V432.489" stroke="#2A3A51" stroke-width="0.511216" stroke-linecap="round" stroke-linejoin="round"/>
<path d="M519.909 413.453C520.139 413.454 520.369 413.43 520.594 413.381C531.063 410.999 531.068 398.316 531.068 398.316C531.068 381.031 519.914 372.366 519.914 372.366C519.914 372.366 508.754 381.011 508.754 398.316C508.754 398.316 508.754 411.014 519.224 413.381C519.449 413.43 519.678 413.454 519.909 413.453Z" fill="#80C33F"/>
<path d="M519.906 389.421V432.562" stroke="#2A3A51" stroke-width="0.511216" stroke-linecap="round" stroke-linejoin="round"/>
<path d="M5.97612e-05 431.109C-0.00461304 429.971 0.264808 428.849 0.785534 427.837C1.30626 426.825 2.06297 425.954 2.99167 425.297C3.92037 424.639 4.99374 424.215 6.12098 424.06C7.24823 423.905 8.39619 424.024 9.46778 424.407C9.88192 422.739 10.7207 421.207 11.9026 419.96C13.0844 418.713 14.569 417.792 16.2119 417.289C17.8548 416.786 19.6 416.716 21.2778 417.087C22.9555 417.459 24.5085 418.258 25.7858 419.407C26.688 416.884 28.4515 414.761 30.7656 413.41C33.0798 412.06 35.7962 411.569 38.4365 412.025C41.0768 412.481 43.4716 413.854 45.1991 415.902C46.9267 417.95 47.8763 420.542 47.8806 423.221C47.882 423.617 47.8615 424.013 47.8192 424.407C48.589 424.126 49.4023 423.982 50.2219 423.983C54.1583 423.983 57.5834 427.178 57.333 431.094C57.2969 431.739 57.1888 432.379 57.0109 433H0.255668C0.0842921 432.379 -0.00170081 431.738 5.97612e-05 431.094V431.109Z" fill="#80C33F"/>
<path d="M377.536 10.2236H172.027V432.233H377.536V10.2236Z" fill="#F4F5F6" stroke="#959DA8" stroke-width="1.10934" stroke-miterlimit="10"/>
<path d="M287.468 376.529H265.562V424.118H287.468V376.529Z" fill="#D3DCE5"/>
<path d="M284.37 379.552H268.66V402.214H284.37V379.552Z" fill="white" stroke="#959DA8" stroke-width="0.511216" stroke-miterlimit="10"/>
<path d="M248.088 361.43H244.055V422.776H248.088V361.43Z" fill="#F4F5F6" stroke="#959DA8" stroke-width="1.02243" stroke-miterlimit="10"/>
<path d="M309.428 361.43H305.395V431.978H309.428V361.43Z" fill="#F4F5F6" stroke="#959DA8" stroke-width="1.02243" stroke-miterlimit="10"/>
<path d="M309.286 422.58H244.004V427.574H309.286V422.58Z" fill="#F4F5F6" stroke="#959DA8" stroke-width="1.02243" stroke-miterlimit="10"/>
<path d="M309.286 427.567H244.004V432.562H309.286V427.567Z" fill="#F4F5F6" stroke="#959DA8" stroke-width="1.02243" stroke-miterlimit="10"/>
<path d="M269.663 406.162C270.228 406.162 270.685 405.704 270.685 405.139C270.685 404.574 270.228 404.117 269.663 404.117C269.098 404.117 268.641 404.574 268.641 405.139C268.641 405.704 269.098 406.162 269.663 406.162Z" fill="white" stroke="#959DA8" stroke-width="0.511216" stroke-miterlimit="10"/>
<path d="M336.382 351.203H216.246V362.45H336.382V351.203Z" fill="#D3DCE5"/>
<path d="M103.469 192.983V221.356H98.582L98.5871 192.983H103.469Z" fill="#F4F5F6" stroke="#959DA8" stroke-width="0.511216" stroke-miterlimit="10"/>
<path d="M108.584 192.983H103.59V221.356H108.584V192.983Z" fill="#F4F5F6" stroke="#959DA8" stroke-width="0.511216" stroke-miterlimit="10"/>
<path d="M113.694 192.983H108.699V221.356H113.694V192.983Z" fill="#F4F5F6" stroke="#959DA8" stroke-width="0.511216" stroke-miterlimit="10"/>
<path d="M118.807 192.983H113.812V221.356H118.807V192.983Z" fill="#F4F5F6" stroke="#959DA8" stroke-width="0.511216" stroke-miterlimit="10"/>
<path d="M52.3482 192.983V221.356H47.4609L47.4661 192.983H52.3482Z" fill="#F4F5F6" stroke="#959DA8" stroke-width="0.511216" stroke-miterlimit="10"/>
<path d="M47.2349 192.983V221.356H42.3477L42.3528 192.983H47.2349Z" fill="#F4F5F6" stroke="#959DA8" stroke-width="0.511216" stroke-miterlimit="10"/>
<path d="M57.4594 192.983H52.4648V221.356H57.4594V192.983Z" fill="#F4F5F6" stroke="#959DA8" stroke-width="0.511216" stroke-miterlimit="10"/>
<path d="M62.5688 192.983H57.5742V221.356H62.5688V192.983Z" fill="#F4F5F6" stroke="#959DA8" stroke-width="0.511216" stroke-miterlimit="10"/>
<path d="M67.686 192.983H62.6914V221.356H67.686V192.983Z" fill="#F4F5F6" stroke="#959DA8" stroke-width="0.511216" stroke-miterlimit="10"/>
<path d="M72.7954 192.983H67.8008V221.356H72.7954V192.983Z" fill="#F4F5F6" stroke="#959DA8" stroke-width="0.511216" stroke-miterlimit="10"/>
<path d="M77.9086 192.983H72.9141V221.356H77.9086V192.983Z" fill="#F4F5F6" stroke="#959DA8" stroke-width="0.511216" stroke-miterlimit="10"/>
<path d="M83.0219 192.983H78.0273V221.356H83.0219V192.983Z" fill="#F4F5F6" stroke="#959DA8" stroke-width="0.511216" stroke-miterlimit="10"/>
<path d="M88.1352 192.983H83.1406V221.356H88.1352V192.983Z" fill="#F4F5F6" stroke="#959DA8" stroke-width="0.511216" stroke-miterlimit="10"/>
<path d="M93.2446 192.983H88.25V221.356H93.2446V192.983Z" fill="#F4F5F6" stroke="#959DA8" stroke-width="0.511216" stroke-miterlimit="10"/>
<path d="M98.354 192.983H93.3594V221.356H98.354V192.983Z" fill="#F4F5F6" stroke="#959DA8" stroke-width="0.511216" stroke-miterlimit="10"/>
<path d="M118.604 193.238H42.5703V221.355H118.604V193.238Z" stroke="#959DA8" stroke-width="1.02243" stroke-miterlimit="10"/>
<path d="M103.469 122.438V150.81H98.582L98.5871 122.438H103.469Z" fill="#F4F5F6" stroke="#959DA8" stroke-width="0.511216" stroke-miterlimit="10"/>
<path d="M108.584 122.438H103.59V150.81H108.584V122.438Z" fill="#F4F5F6" stroke="#959DA8" stroke-width="0.511216" stroke-miterlimit="10"/>
<path d="M113.694 122.438H108.699V150.81H113.694V122.438Z" fill="#F4F5F6" stroke="#959DA8" stroke-width="0.511216" stroke-miterlimit="10"/>
<path d="M118.807 122.438H113.812V150.81H118.807V122.438Z" fill="#F4F5F6" stroke="#959DA8" stroke-width="0.511216" stroke-miterlimit="10"/>
<path d="M52.3482 122.438V150.81H47.4609L47.4661 122.438H52.3482Z" fill="#F4F5F6" stroke="#959DA8" stroke-width="0.511216" stroke-miterlimit="10"/>
<path d="M47.2349 122.438V150.81H42.3477L42.3528 122.438H47.2349Z" fill="#F4F5F6" stroke="#959DA8" stroke-width="0.511216" stroke-miterlimit="10"/>
<path d="M57.4594 122.438H52.4648V150.81H57.4594V122.438Z" fill="#F4F5F6" stroke="#959DA8" stroke-width="0.511216" stroke-miterlimit="10"/>
<path d="M62.5688 122.438H57.5742V150.81H62.5688V122.438Z" fill="#F4F5F6" stroke="#959DA8" stroke-width="0.511216" stroke-miterlimit="10"/>
<path d="M67.686 122.438H62.6914V150.81H67.686V122.438Z" fill="#F4F5F6" stroke="#959DA8" stroke-width="0.511216" stroke-miterlimit="10"/>
<path d="M72.7954 122.438H67.8008V150.81H72.7954V122.438Z" fill="#F4F5F6" stroke="#959DA8" stroke-width="0.511216" stroke-miterlimit="10"/>
<path d="M77.9086 122.438H72.9141V150.81H77.9086V122.438Z" fill="#F4F5F6" stroke="#959DA8" stroke-width="0.511216" stroke-miterlimit="10"/>
<path d="M83.0219 122.438H78.0273V150.81H83.0219V122.438Z" fill="#F4F5F6" stroke="#959DA8" stroke-width="0.511216" stroke-miterlimit="10"/>
<path d="M88.1352 122.438H83.1406V150.81H88.1352V122.438Z" fill="#F4F5F6" stroke="#959DA8" stroke-width="0.511216" stroke-miterlimit="10"/>
<path d="M93.2446 122.438H88.25V150.81H93.2446V122.438Z" fill="#F4F5F6" stroke="#959DA8" stroke-width="0.511216" stroke-miterlimit="10"/>
<path d="M98.354 122.438H93.3594V150.81H98.354V122.438Z" fill="#F4F5F6" stroke="#959DA8" stroke-width="0.511216" stroke-miterlimit="10"/>
<path d="M118.604 122.692H42.5703V150.809H118.604V122.692Z" stroke="#959DA8" stroke-width="1.02243" stroke-miterlimit="10"/>
<path d="M103.469 263.531V291.904H98.582L98.5871 263.531H103.469Z" fill="#F4F5F6" stroke="#959DA8" stroke-width="0.511216" stroke-miterlimit="10"/>
<path d="M108.584 263.531H103.59V291.904H108.584V263.531Z" fill="#F4F5F6" stroke="#959DA8" stroke-width="0.511216" stroke-miterlimit="10"/>
<path d="M113.694 263.531H108.699V291.904H113.694V263.531Z" fill="#F4F5F6" stroke="#959DA8" stroke-width="0.511216" stroke-miterlimit="10"/>
<path d="M118.807 263.531H113.812V291.904H118.807V263.531Z" fill="#F4F5F6" stroke="#959DA8" stroke-width="0.511216" stroke-miterlimit="10"/>
<path d="M52.3482 263.531V291.904H47.4609L47.4661 263.531H52.3482Z" fill="#F4F5F6" stroke="#959DA8" stroke-width="0.511216" stroke-miterlimit="10"/>
<path d="M47.2349 263.531V291.904H42.3477L42.3528 263.531H47.2349Z" fill="#F4F5F6" stroke="#959DA8" stroke-width="0.511216" stroke-miterlimit="10"/>
<path d="M57.4594 263.531H52.4648V291.904H57.4594V263.531Z" fill="#F4F5F6" stroke="#959DA8" stroke-width="0.511216" stroke-miterlimit="10"/>
<path d="M62.5688 263.531H57.5742V291.904H62.5688V263.531Z" fill="#F4F5F6" stroke="#959DA8" stroke-width="0.511216" stroke-miterlimit="10"/>
<path d="M67.686 263.531H62.6914V291.904H67.686V263.531Z" fill="#F4F5F6" stroke="#959DA8" stroke-width="0.511216" stroke-miterlimit="10"/>
<path d="M72.7954 263.531H67.8008V291.904H72.7954V263.531Z" fill="#F4F5F6" stroke="#959DA8" stroke-width="0.511216" stroke-miterlimit="10"/>
<path d="M77.9086 263.531H72.9141V291.904H77.9086V263.531Z" fill="#F4F5F6" stroke="#959DA8" stroke-width="0.511216" stroke-miterlimit="10"/>
<path d="M83.0219 263.531H78.0273V291.904H83.0219V263.531Z" fill="#F4F5F6" stroke="#959DA8" stroke-width="0.511216" stroke-miterlimit="10"/>
<path d="M88.1352 263.531H83.1406V291.904H88.1352V263.531Z" fill="#F4F5F6" stroke="#959DA8" stroke-width="0.511216" stroke-miterlimit="10"/>
<path d="M93.2446 263.531H88.25V291.904H93.2446V263.531Z" fill="#F4F5F6" stroke="#959DA8" stroke-width="0.511216" stroke-miterlimit="10"/>
<path d="M98.354 263.531H93.3594V291.904H98.354V263.531Z" fill="#F4F5F6" stroke="#959DA8" stroke-width="0.511216" stroke-miterlimit="10"/>
<path d="M118.604 263.788H42.5703V291.905H118.604V263.788Z" stroke="#959DA8" stroke-width="1.02243" stroke-miterlimit="10"/>
<path d="M493.524 122.438V150.81H488.637L488.642 122.438H493.524Z" fill="#F4F5F6" stroke="#959DA8" stroke-width="0.511216" stroke-miterlimit="10"/>
<path d="M498.647 122.438H493.652V150.81H498.647V122.438Z" fill="#F4F5F6" stroke="#959DA8" stroke-width="0.511216" stroke-miterlimit="10"/>
<path d="M503.748 122.438H498.754V150.81H503.748V122.438Z" fill="#F4F5F6" stroke="#959DA8" stroke-width="0.511216" stroke-miterlimit="10"/>
<path d="M508.862 122.438H503.867V150.81H508.862V122.438Z" fill="#F4F5F6" stroke="#959DA8" stroke-width="0.511216" stroke-miterlimit="10"/>
<path d="M442.407 122.438V150.81H437.52L437.525 122.438H442.407Z" fill="#F4F5F6" stroke="#959DA8" stroke-width="0.511216" stroke-miterlimit="10"/>
<path d="M437.293 122.438V150.81H432.406L432.411 122.438H437.293Z" fill="#F4F5F6" stroke="#959DA8" stroke-width="0.511216" stroke-miterlimit="10"/>
<path d="M447.518 122.438H442.523V150.81H447.518V122.438Z" fill="#F4F5F6" stroke="#959DA8" stroke-width="0.511216" stroke-miterlimit="10"/>
<path d="M452.627 122.438H447.633V150.81H452.627V122.438Z" fill="#F4F5F6" stroke="#959DA8" stroke-width="0.511216" stroke-miterlimit="10"/>
<path d="M457.741 122.438H452.746V150.81H457.741V122.438Z" fill="#F4F5F6" stroke="#959DA8" stroke-width="0.511216" stroke-miterlimit="10"/>
<path d="M462.854 122.438H457.859V150.81H462.854V122.438Z" fill="#F4F5F6" stroke="#959DA8" stroke-width="0.511216" stroke-miterlimit="10"/>
<path d="M467.967 122.438H462.973V150.81H467.967V122.438Z" fill="#F4F5F6" stroke="#959DA8" stroke-width="0.511216" stroke-miterlimit="10"/>
<path d="M473.077 122.438H468.082V150.81H473.077V122.438Z" fill="#F4F5F6" stroke="#959DA8" stroke-width="0.511216" stroke-miterlimit="10"/>
<path d="M478.19 122.438H473.195V150.81H478.19V122.438Z" fill="#F4F5F6" stroke="#959DA8" stroke-width="0.511216" stroke-miterlimit="10"/>
<path d="M483.307 122.438H478.312V150.81H483.307V122.438Z" fill="#F4F5F6" stroke="#959DA8" stroke-width="0.511216" stroke-miterlimit="10"/>
<path d="M488.409 122.438H483.414V150.81H488.409V122.438Z" fill="#F4F5F6" stroke="#959DA8" stroke-width="0.511216" stroke-miterlimit="10"/>
<path d="M508.666 122.692H432.633V150.809H508.666V122.692Z" stroke="#959DA8" stroke-width="1.02243" stroke-miterlimit="10"/>
<path d="M493.524 334.077V362.45H488.637L488.642 334.077H493.524Z" fill="#F4F5F6" stroke="#959DA8" stroke-width="0.511216" stroke-miterlimit="10"/>
<path d="M498.647 334.077H493.652V362.45H498.647V334.077Z" fill="#F4F5F6" stroke="#959DA8" stroke-width="0.511216" stroke-miterlimit="10"/>
<path d="M503.748 334.077H498.754V362.45H503.748V334.077Z" fill="#F4F5F6" stroke="#959DA8" stroke-width="0.511216" stroke-miterlimit="10"/>
<path d="M508.862 334.077H503.867V362.45H508.862V334.077Z" fill="#F4F5F6" stroke="#959DA8" stroke-width="0.511216" stroke-miterlimit="10"/>
<path d="M442.407 334.077V362.45H437.52L437.525 334.077H442.407Z" fill="#F4F5F6" stroke="#959DA8" stroke-width="0.511216" stroke-miterlimit="10"/>
<path d="M437.293 334.077V362.45H432.406L432.411 334.077H437.293Z" fill="#F4F5F6" stroke="#959DA8" stroke-width="0.511216" stroke-miterlimit="10"/>
<path d="M447.518 334.077H442.523V362.45H447.518V334.077Z" fill="#F4F5F6" stroke="#959DA8" stroke-width="0.511216" stroke-miterlimit="10"/>
<path d="M452.627 334.077H447.633V362.45H452.627V334.077Z" fill="#F4F5F6" stroke="#959DA8" stroke-width="0.511216" stroke-miterlimit="10"/>
<path d="M457.741 334.077H452.746V362.45H457.741V334.077Z" fill="#F4F5F6" stroke="#959DA8" stroke-width="0.511216" stroke-miterlimit="10"/>
<path d="M462.854 334.077H457.859V362.45H462.854V334.077Z" fill="#F4F5F6" stroke="#959DA8" stroke-width="0.511216" stroke-miterlimit="10"/>
<path d="M467.967 334.077H462.973V362.45H467.967V334.077Z" fill="#F4F5F6" stroke="#959DA8" stroke-width="0.511216" stroke-miterlimit="10"/>
<path d="M473.077 334.077H468.082V362.45H473.077V334.077Z" fill="#F4F5F6" stroke="#959DA8" stroke-width="0.511216" stroke-miterlimit="10"/>
<path d="M478.19 334.077H473.195V362.45H478.19V334.077Z" fill="#F4F5F6" stroke="#959DA8" stroke-width="0.511216" stroke-miterlimit="10"/>
<path d="M483.307 334.077H478.312V362.45H483.307V334.077Z" fill="#F4F5F6" stroke="#959DA8" stroke-width="0.511216" stroke-miterlimit="10"/>
<path d="M488.409 334.077H483.414V362.45H488.409V334.077Z" fill="#F4F5F6" stroke="#959DA8" stroke-width="0.511216" stroke-miterlimit="10"/>
<path d="M508.666 334.336H432.633V362.453H508.666V334.336Z" stroke="#959DA8" stroke-width="1.02243" stroke-miterlimit="10"/>
<path d="M493.524 263.531V291.904H488.637L488.642 263.531H493.524Z" fill="#F4F5F6" stroke="#959DA8" stroke-width="0.511216" stroke-miterlimit="10"/>
<path d="M498.647 263.531H493.652V291.904H498.647V263.531Z" fill="#F4F5F6" stroke="#959DA8" stroke-width="0.511216" stroke-miterlimit="10"/>
<path d="M503.748 263.531H498.754V291.904H503.748V263.531Z" fill="#F4F5F6" stroke="#959DA8" stroke-width="0.511216" stroke-miterlimit="10"/>
<path d="M508.862 263.531H503.867V291.904H508.862V263.531Z" fill="#F4F5F6" stroke="#959DA8" stroke-width="0.511216" stroke-miterlimit="10"/>
<path d="M442.407 263.531V291.904H437.52L437.525 263.531H442.407Z" fill="#F4F5F6" stroke="#959DA8" stroke-width="0.511216" stroke-miterlimit="10"/>
<path d="M437.293 263.531V291.904H432.406L432.411 263.531H437.293Z" fill="#F4F5F6" stroke="#959DA8" stroke-width="0.511216" stroke-miterlimit="10"/>
<path d="M447.518 263.531H442.523V291.904H447.518V263.531Z" fill="#F4F5F6" stroke="#959DA8" stroke-width="0.511216" stroke-miterlimit="10"/>
<path d="M452.627 263.531H447.633V291.904H452.627V263.531Z" fill="#F4F5F6" stroke="#959DA8" stroke-width="0.511216" stroke-miterlimit="10"/>
<path d="M457.741 263.531H452.746V291.904H457.741V263.531Z" fill="#F4F5F6" stroke="#959DA8" stroke-width="0.511216" stroke-miterlimit="10"/>
<path d="M462.854 263.531H457.859V291.904H462.854V263.531Z" fill="#F4F5F6" stroke="#959DA8" stroke-width="0.511216" stroke-miterlimit="10"/>
<path d="M467.967 263.531H462.973V291.904H467.967V263.531Z" fill="#F4F5F6" stroke="#959DA8" stroke-width="0.511216" stroke-miterlimit="10"/>
<path d="M473.077 263.531H468.082V291.904H473.077V263.531Z" fill="#F4F5F6" stroke="#959DA8" stroke-width="0.511216" stroke-miterlimit="10"/>
<path d="M478.19 263.531H473.195V291.904H478.19V263.531Z" fill="#F4F5F6" stroke="#959DA8" stroke-width="0.511216" stroke-miterlimit="10"/>
<path d="M483.307 263.531H478.312V291.904H483.307V263.531Z" fill="#F4F5F6" stroke="#959DA8" stroke-width="0.511216" stroke-miterlimit="10"/>
<path d="M488.409 263.531H483.414V291.904H488.409V263.531Z" fill="#F4F5F6" stroke="#959DA8" stroke-width="0.511216" stroke-miterlimit="10"/>
<path d="M508.666 263.788H432.633V291.905H508.666V263.788Z" stroke="#959DA8" stroke-width="1.02243" stroke-miterlimit="10"/>
<path d="M493.524 52.3999V80.7724H488.637L488.642 52.3999H493.524Z" fill="#F4F5F6" stroke="#959DA8" stroke-width="0.511216" stroke-miterlimit="10"/>
<path d="M498.647 52.3999H493.652V80.7724H498.647V52.3999Z" fill="#F4F5F6" stroke="#959DA8" stroke-width="0.511216" stroke-miterlimit="10"/>
<path d="M503.748 52.3999H498.754V80.7724H503.748V52.3999Z" fill="#F4F5F6" stroke="#959DA8" stroke-width="0.511216" stroke-miterlimit="10"/>
<path d="M508.862 52.3999H503.867V80.7724H508.862V52.3999Z" fill="#F4F5F6" stroke="#959DA8" stroke-width="0.511216" stroke-miterlimit="10"/>
<path d="M442.407 52.3999V80.7724H437.52L437.525 52.3999H442.407Z" fill="#F4F5F6" stroke="#959DA8" stroke-width="0.511216" stroke-miterlimit="10"/>
<path d="M437.293 52.3999V80.7724H432.406L432.411 52.3999H437.293Z" fill="#F4F5F6" stroke="#959DA8" stroke-width="0.511216" stroke-miterlimit="10"/>
<path d="M447.518 52.3999H442.523V80.7724H447.518V52.3999Z" fill="#F4F5F6" stroke="#959DA8" stroke-width="0.511216" stroke-miterlimit="10"/>
<path d="M452.627 52.3999H447.633V80.7724H452.627V52.3999Z" fill="#F4F5F6" stroke="#959DA8" stroke-width="0.511216" stroke-miterlimit="10"/>
<path d="M457.741 52.3999H452.746V80.7724H457.741V52.3999Z" fill="#F4F5F6" stroke="#959DA8" stroke-width="0.511216" stroke-miterlimit="10"/>
<path d="M462.854 52.3999H457.859V80.7724H462.854V52.3999Z" fill="#F4F5F6" stroke="#959DA8" stroke-width="0.511216" stroke-miterlimit="10"/>
<path d="M467.967 52.3999H462.973V80.7724H467.967V52.3999Z" fill="#F4F5F6" stroke="#959DA8" stroke-width="0.511216" stroke-miterlimit="10"/>
<path d="M473.077 52.3999H468.082V80.7724H473.077V52.3999Z" fill="#F4F5F6" stroke="#959DA8" stroke-width="0.511216" stroke-miterlimit="10"/>
<path d="M478.19 52.3999H473.195V80.7724H478.19V52.3999Z" fill="#F4F5F6" stroke="#959DA8" stroke-width="0.511216" stroke-miterlimit="10"/>
<path d="M483.307 52.3999H478.312V80.7724H483.307V52.3999Z" fill="#F4F5F6" stroke="#959DA8" stroke-width="0.511216" stroke-miterlimit="10"/>
<path d="M488.409 52.3999H483.414V80.7724H488.409V52.3999Z" fill="#F4F5F6" stroke="#959DA8" stroke-width="0.511216" stroke-miterlimit="10"/>
<path d="M508.666 52.6548H432.633V80.7717H508.666V52.6548Z" stroke="#959DA8" stroke-width="1.02243" stroke-miterlimit="10"/>
<path d="M357.607 303.489H342V336.381H357.602L357.607 303.489Z" fill="white" stroke="#959DA8" stroke-width="0.511216" stroke-miterlimit="10"/>
<path d="M349.809 303.485V316.757" stroke="#959DA8" stroke-width="0.511216" stroke-miterlimit="10"/>
<path d="M342.027 316.991H357.609" stroke="#959DA8" stroke-width="0.511216" stroke-miterlimit="10"/>
<path d="M357.607 233.452H342V266.343H357.602L357.607 233.452Z" fill="white" stroke="#959DA8" stroke-width="0.511216" stroke-miterlimit="10"/>
<path d="M349.809 233.446V246.717" stroke="#959DA8" stroke-width="0.511216" stroke-miterlimit="10"/>
<path d="M342.027 246.953H357.609" stroke="#959DA8" stroke-width="0.511216" stroke-miterlimit="10"/>
<path d="M357.607 162.394H342V195.285H357.602L357.607 162.394Z" fill="white" stroke="#959DA8" stroke-width="0.511216" stroke-miterlimit="10"/>
<path d="M349.809 162.386V175.657" stroke="#959DA8" stroke-width="0.511216" stroke-miterlimit="10"/>
<path d="M342.027 175.895H357.609" stroke="#959DA8" stroke-width="0.511216" stroke-miterlimit="10"/>
<path d="M357.607 91.334H342V124.226H357.602L357.607 91.334Z" fill="white" stroke="#959DA8" stroke-width="0.511216" stroke-miterlimit="10"/>
<path d="M349.809 91.3301V104.601" stroke="#959DA8" stroke-width="0.511216" stroke-miterlimit="10"/>
<path d="M342.027 104.835H357.609" stroke="#959DA8" stroke-width="0.511216" stroke-miterlimit="10"/>
<path d="M204.756 303.489H189.148V336.381H204.751L204.756 303.489Z" fill="white" stroke="#959DA8" stroke-width="0.511216" stroke-miterlimit="10"/>
<path d="M196.957 303.485V316.757" stroke="#959DA8" stroke-width="0.511216" stroke-miterlimit="10"/>
<path d="M189.18 316.991H204.762" stroke="#959DA8" stroke-width="0.511216" stroke-miterlimit="10"/>
<path d="M357.607 376.595H342V409.486H357.602L357.607 376.595Z" fill="white" stroke="#959DA8" stroke-width="0.511216" stroke-miterlimit="10"/>
<path d="M349.809 376.587V389.859" stroke="#959DA8" stroke-width="0.511216" stroke-miterlimit="10"/>
<path d="M342.027 390.092H357.609" stroke="#959DA8" stroke-width="0.511216" stroke-miterlimit="10"/>
<path d="M204.756 376.081H189.148V408.973H204.751L204.756 376.081Z" fill="white" stroke="#959DA8" stroke-width="0.511216" stroke-miterlimit="10"/>
<path d="M196.957 376.075V389.346" stroke="#959DA8" stroke-width="0.511216" stroke-miterlimit="10"/>
<path d="M189.18 389.582H204.762" stroke="#959DA8" stroke-width="0.511216" stroke-miterlimit="10"/>
<path d="M204.756 233.452H189.148V266.343H204.751L204.756 233.452Z" fill="white" stroke="#959DA8" stroke-width="0.511216" stroke-miterlimit="10"/>
<path d="M196.957 233.446V246.717" stroke="#959DA8" stroke-width="0.511216" stroke-miterlimit="10"/>
<path d="M189.18 246.953H204.762" stroke="#959DA8" stroke-width="0.511216" stroke-miterlimit="10"/>
<path d="M204.248 161.882H188.641V194.773H204.243L204.248 161.882Z" fill="white" stroke="#959DA8" stroke-width="0.511216" stroke-miterlimit="10"/>
<path d="M196.441 161.878V175.149" stroke="#959DA8" stroke-width="0.511216" stroke-miterlimit="10"/>
<path d="M188.664 175.385H204.246" stroke="#959DA8" stroke-width="0.511216" stroke-miterlimit="10"/>
<path d="M204.756 91.334H189.148V124.226H204.751L204.756 91.334Z" fill="white" stroke="#959DA8" stroke-width="0.511216" stroke-miterlimit="10"/>
<path d="M196.957 91.3301V104.601" stroke="#959DA8" stroke-width="0.511216" stroke-miterlimit="10"/>
<path d="M189.18 104.835H204.762" stroke="#959DA8" stroke-width="0.511216" stroke-miterlimit="10"/>
<path d="M204.756 21.2983H189.148V54.19H204.751L204.756 21.2983Z" fill="white" stroke="#959DA8" stroke-width="0.511216" stroke-miterlimit="10"/>
<path d="M196.957 21.2925V34.5637" stroke="#959DA8" stroke-width="0.511216" stroke-miterlimit="10"/>
<path d="M189.18 34.7993H204.762" stroke="#959DA8" stroke-width="0.511216" stroke-miterlimit="10"/>
<path d="M357.607 21.2983H342V54.19H357.602L357.607 21.2983Z" fill="white" stroke="#959DA8" stroke-width="0.511216" stroke-miterlimit="10"/>
<path d="M349.809 21.2925V34.5637" stroke="#959DA8" stroke-width="0.511216" stroke-miterlimit="10"/>
<path d="M342.027 34.7993H357.609" stroke="#959DA8" stroke-width="0.511216" stroke-miterlimit="10"/>
<path d="M62.8812 64.0348C63.0822 64.0362 63.2827 64.0156 63.4793 63.9735C72.6812 61.8826 72.6812 50.779 72.6812 50.779C72.7624 44.0134 70.6177 37.4087 66.5772 31.9816C66.1483 31.414 65.5936 30.9537 64.9567 30.6367C64.3198 30.3198 63.6181 30.1548 62.9067 30.1548C62.1953 30.1548 61.4936 30.3198 60.8567 30.6367C60.2198 30.9537 59.6651 31.414 59.2362 31.9816C55.1939 37.4081 53.0474 44.0129 53.1271 50.779C53.1271 50.779 53.1271 61.9082 62.2984 63.9786C62.4949 64.0207 62.6955 64.0413 62.8965 64.04L62.8812 64.0348Z" fill="#80C33F"/>
<path d="M62.875 42.9697V80.7691" stroke="#2A3A51" stroke-width="0.511216" stroke-linecap="round" stroke-linejoin="round"/>
<path d="M488.725 198.997C488.926 198.998 489.126 198.978 489.323 198.935C498.525 196.845 498.525 185.741 498.525 185.741C498.606 178.975 496.461 172.371 492.421 166.943C491.992 166.376 491.437 165.916 490.8 165.599C490.164 165.282 489.462 165.117 488.75 165.117C488.039 165.117 487.337 165.282 486.7 165.599C486.064 165.916 485.509 166.376 485.08 166.943C481.038 172.37 478.891 178.975 478.971 185.741C478.971 185.741 478.971 196.87 488.142 198.941C488.339 198.983 488.539 199.003 488.74 199.002L488.725 198.997Z" fill="#80C33F"/>
<path d="M488.727 177.935V215.734" stroke="#2A3A51" stroke-width="0.511216" stroke-linecap="round" stroke-linejoin="round"/>
<path d="M67.9905 342.648C68.1915 342.649 68.3921 342.629 68.5886 342.587C77.7905 340.496 77.7905 329.392 77.7905 329.392C77.8718 322.627 75.7271 316.022 71.6866 310.595C71.2577 310.027 70.703 309.567 70.0661 309.25C69.4292 308.933 68.7275 308.768 68.0161 308.768C67.3047 308.768 66.603 308.933 65.9661 309.25C65.3292 309.567 64.7745 310.027 64.3456 310.595C60.3033 316.021 58.1567 322.626 58.2365 329.392C58.2365 329.392 58.2365 340.521 67.4077 342.592C67.6043 342.634 67.8049 342.655 68.0059 342.653L67.9905 342.648Z" fill="#80C33F"/>
<path d="M67.9883 321.585V359.384" stroke="#2A3A51" stroke-width="0.511216" stroke-linecap="round" stroke-linejoin="round"/>
<path d="M103.469 52.3999V80.7724H98.582L98.5871 52.3999H103.469Z" fill="#F4F5F6" stroke="#959DA8" stroke-width="0.511216" stroke-miterlimit="10"/>
<path d="M108.584 52.3999H103.59V80.7724H108.584V52.3999Z" fill="#F4F5F6" stroke="#959DA8" stroke-width="0.511216" stroke-miterlimit="10"/>
<path d="M113.694 52.3999H108.699V80.7724H113.694V52.3999Z" fill="#F4F5F6" stroke="#959DA8" stroke-width="0.511216" stroke-miterlimit="10"/>
<path d="M118.807 52.3999H113.812V80.7724H118.807V52.3999Z" fill="#F4F5F6" stroke="#959DA8" stroke-width="0.511216" stroke-miterlimit="10"/>
<path d="M52.3482 52.3999V80.7724H47.4609L47.4661 52.3999H52.3482Z" fill="#F4F5F6" stroke="#959DA8" stroke-width="0.511216" stroke-miterlimit="10"/>
<path d="M47.2349 52.3999V80.7724H42.3477L42.3528 52.3999H47.2349Z" fill="#F4F5F6" stroke="#959DA8" stroke-width="0.511216" stroke-miterlimit="10"/>
<path d="M57.4594 52.3999H52.4648V80.7724H57.4594V52.3999Z" fill="#F4F5F6" stroke="#959DA8" stroke-width="0.511216" stroke-miterlimit="10"/>
<path d="M62.5688 52.3999H57.5742V80.7724H62.5688V52.3999Z" fill="#F4F5F6" stroke="#959DA8" stroke-width="0.511216" stroke-miterlimit="10"/>
<path d="M67.686 52.3999H62.6914V80.7724H67.686V52.3999Z" fill="#F4F5F6" stroke="#959DA8" stroke-width="0.511216" stroke-miterlimit="10"/>
<path d="M72.7954 52.3999H67.8008V80.7724H72.7954V52.3999Z" fill="#F4F5F6" stroke="#959DA8" stroke-width="0.511216" stroke-miterlimit="10"/>
<path d="M77.9086 52.3999H72.9141V80.7724H77.9086V52.3999Z" fill="#F4F5F6" stroke="#959DA8" stroke-width="0.511216" stroke-miterlimit="10"/>
<path d="M83.0219 52.3999H78.0273V80.7724H83.0219V52.3999Z" fill="#F4F5F6" stroke="#959DA8" stroke-width="0.511216" stroke-miterlimit="10"/>
<path d="M88.1352 52.3999H83.1406V80.7724H88.1352V52.3999Z" fill="#F4F5F6" stroke="#959DA8" stroke-width="0.511216" stroke-miterlimit="10"/>
<path d="M93.2446 52.3999H88.25V80.7724H93.2446V52.3999Z" fill="#F4F5F6" stroke="#959DA8" stroke-width="0.511216" stroke-miterlimit="10"/>
<path d="M98.354 52.3999H93.3594V80.7724H98.354V52.3999Z" fill="#F4F5F6" stroke="#959DA8" stroke-width="0.511216" stroke-miterlimit="10"/>
<path d="M118.604 52.6548H42.5703V80.7717H118.604V52.6548Z" stroke="#959DA8" stroke-width="1.02243" stroke-miterlimit="10"/>
<path d="M493.524 192.983V221.356H488.637L488.642 192.983H493.524Z" fill="#F4F5F6" stroke="#959DA8" stroke-width="0.511216" stroke-miterlimit="10"/>
<path d="M498.647 192.983H493.652V221.356H498.647V192.983Z" fill="#F4F5F6" stroke="#959DA8" stroke-width="0.511216" stroke-miterlimit="10"/>
<path d="M503.748 192.983H498.754V221.356H503.748V192.983Z" fill="#F4F5F6" stroke="#959DA8" stroke-width="0.511216" stroke-miterlimit="10"/>
<path d="M508.862 192.983H503.867V221.356H508.862V192.983Z" fill="#F4F5F6" stroke="#959DA8" stroke-width="0.511216" stroke-miterlimit="10"/>
<path d="M442.407 192.983V221.356H437.52L437.525 192.983H442.407Z" fill="#F4F5F6" stroke="#959DA8" stroke-width="0.511216" stroke-miterlimit="10"/>
<path d="M437.293 192.983V221.356H432.406L432.411 192.983H437.293Z" fill="#F4F5F6" stroke="#959DA8" stroke-width="0.511216" stroke-miterlimit="10"/>
<path d="M447.518 192.983H442.523V221.356H447.518V192.983Z" fill="#F4F5F6" stroke="#959DA8" stroke-width="0.511216" stroke-miterlimit="10"/>
<path d="M452.627 192.983H447.633V221.356H452.627V192.983Z" fill="#F4F5F6" stroke="#959DA8" stroke-width="0.511216" stroke-miterlimit="10"/>
<path d="M457.741 192.983H452.746V221.356H457.741V192.983Z" fill="#F4F5F6" stroke="#959DA8" stroke-width="0.511216" stroke-miterlimit="10"/>
<path d="M462.854 192.983H457.859V221.356H462.854V192.983Z" fill="#F4F5F6" stroke="#959DA8" stroke-width="0.511216" stroke-miterlimit="10"/>
<path d="M467.967 192.983H462.973V221.356H467.967V192.983Z" fill="#F4F5F6" stroke="#959DA8" stroke-width="0.511216" stroke-miterlimit="10"/>
<path d="M473.077 192.983H468.082V221.356H473.077V192.983Z" fill="#F4F5F6" stroke="#959DA8" stroke-width="0.511216" stroke-miterlimit="10"/>
<path d="M478.19 192.983H473.195V221.356H478.19V192.983Z" fill="#F4F5F6" stroke="#959DA8" stroke-width="0.511216" stroke-miterlimit="10"/>
<path d="M483.307 192.983H478.312V221.356H483.307V192.983Z" fill="#F4F5F6" stroke="#959DA8" stroke-width="0.511216" stroke-miterlimit="10"/>
<path d="M488.409 192.983H483.414V221.356H488.409V192.983Z" fill="#F4F5F6" stroke="#959DA8" stroke-width="0.511216" stroke-miterlimit="10"/>
<path d="M508.666 193.238H432.633V221.355H508.666V193.238Z" stroke="#959DA8" stroke-width="1.02243" stroke-miterlimit="10"/>
<path d="M103.469 334.077V362.45H98.582L98.5871 334.077H103.469Z" fill="#F4F5F6" stroke="#959DA8" stroke-width="0.511216" stroke-miterlimit="10"/>
<path d="M108.584 334.077H103.59V362.45H108.584V334.077Z" fill="#F4F5F6" stroke="#959DA8" stroke-width="0.511216" stroke-miterlimit="10"/>
<path d="M113.694 334.077H108.699V362.45H113.694V334.077Z" fill="#F4F5F6" stroke="#959DA8" stroke-width="0.511216" stroke-miterlimit="10"/>
<path d="M118.807 334.077H113.812V362.45H118.807V334.077Z" fill="#F4F5F6" stroke="#959DA8" stroke-width="0.511216" stroke-miterlimit="10"/>
<path d="M52.3482 334.077V362.45H47.4609L47.4661 334.077H52.3482Z" fill="#F4F5F6" stroke="#959DA8" stroke-width="0.511216" stroke-miterlimit="10"/>
<path d="M47.2349 334.077V362.45H42.3477L42.3528 334.077H47.2349Z" fill="#F4F5F6" stroke="#959DA8" stroke-width="0.511216" stroke-miterlimit="10"/>
<path d="M57.4594 334.077H52.4648V362.45H57.4594V334.077Z" fill="#F4F5F6" stroke="#959DA8" stroke-width="0.511216" stroke-miterlimit="10"/>
<path d="M62.5688 334.077H57.5742V362.45H62.5688V334.077Z" fill="#F4F5F6" stroke="#959DA8" stroke-width="0.511216" stroke-miterlimit="10"/>
<path d="M67.686 334.077H62.6914V362.45H67.686V334.077Z" fill="#F4F5F6" stroke="#959DA8" stroke-width="0.511216" stroke-miterlimit="10"/>
<path d="M72.7954 334.077H67.8008V362.45H72.7954V334.077Z" fill="#F4F5F6" stroke="#959DA8" stroke-width="0.511216" stroke-miterlimit="10"/>
<path d="M77.9086 334.077H72.9141V362.45H77.9086V334.077Z" fill="#F4F5F6" stroke="#959DA8" stroke-width="0.511216" stroke-miterlimit="10"/>
<path d="M83.0219 334.077H78.0273V362.45H83.0219V334.077Z" fill="#F4F5F6" stroke="#959DA8" stroke-width="0.511216" stroke-miterlimit="10"/>
<path d="M88.1352 334.077H83.1406V362.45H88.1352V334.077Z" fill="#F4F5F6" stroke="#959DA8" stroke-width="0.511216" stroke-miterlimit="10"/>
<path d="M93.2446 334.077H88.25V362.45H93.2446V334.077Z" fill="#F4F5F6" stroke="#959DA8" stroke-width="0.511216" stroke-miterlimit="10"/>
<path d="M98.354 334.077H93.3594V362.45H98.354V334.077Z" fill="#F4F5F6" stroke="#959DA8" stroke-width="0.511216" stroke-miterlimit="10"/>
<path d="M118.604 334.336H42.5703V362.453H118.604V334.336Z" stroke="#959DA8" stroke-width="1.02243" stroke-miterlimit="10"/>
<path d="M280.763 21.3789H324.758V60.5023H280.758L280.763 21.3789Z" fill="white" stroke="#959DA8" stroke-width="0.511216" stroke-miterlimit="10"/>
<path d="M302.758 21.3677V60.5575" stroke="#959DA8" stroke-width="0.511216" stroke-miterlimit="10"/>
<path d="M324.756 39.8135H280.93" stroke="#959DA8" stroke-width="0.511216" stroke-miterlimit="10"/>
<path d="M220.95 21.3789H264.946V60.5023H220.945L220.95 21.3789Z" fill="white" stroke="#959DA8" stroke-width="0.511216" stroke-miterlimit="10"/>
<path d="M242.949 21.3677V60.5575" stroke="#959DA8" stroke-width="0.511216" stroke-miterlimit="10"/>
<path d="M264.948 39.8135H221.121" stroke="#959DA8" stroke-width="0.511216" stroke-miterlimit="10"/>
<path d="M280.763 91.4146H324.758V130.538H280.758L280.763 91.4146Z" fill="white" stroke="#959DA8" stroke-width="0.511216" stroke-miterlimit="10"/>
<path d="M302.758 91.4053V130.595" stroke="#959DA8" stroke-width="0.511216" stroke-miterlimit="10"/>
<path d="M324.756 109.848H280.93" stroke="#959DA8" stroke-width="0.511216" stroke-miterlimit="10"/>
<path d="M220.95 91.4146H264.946V130.538H220.945L220.95 91.4146Z" fill="white" stroke="#959DA8" stroke-width="0.511216" stroke-miterlimit="10"/>
<path d="M242.949 91.4053V130.595" stroke="#959DA8" stroke-width="0.511216" stroke-miterlimit="10"/>
<path d="M264.948 109.848H221.121" stroke="#959DA8" stroke-width="0.511216" stroke-miterlimit="10"/>
<path d="M280.763 161.962H324.758V201.086H280.758L280.763 161.962Z" fill="white" stroke="#959DA8" stroke-width="0.511216" stroke-miterlimit="10"/>
<path d="M302.758 161.955V201.145" stroke="#959DA8" stroke-width="0.511216" stroke-miterlimit="10"/>
<path d="M324.756 180.401H280.93" stroke="#959DA8" stroke-width="0.511216" stroke-miterlimit="10"/>
<path d="M220.95 161.962H264.946V201.086H220.945L220.95 161.962Z" fill="white" stroke="#959DA8" stroke-width="0.511216" stroke-miterlimit="10"/>
<path d="M242.949 161.955V201.145" stroke="#959DA8" stroke-width="0.511216" stroke-miterlimit="10"/>
<path d="M264.948 180.401H221.121" stroke="#959DA8" stroke-width="0.511216" stroke-miterlimit="10"/>
<path d="M280.763 233.534H324.758V272.658H280.758L280.763 233.534Z" fill="white" stroke="#959DA8" stroke-width="0.511216" stroke-miterlimit="10"/>
<path d="M302.758 233.525V272.715" stroke="#959DA8" stroke-width="0.511216" stroke-miterlimit="10"/>
<path d="M324.756 251.965H280.93" stroke="#959DA8" stroke-width="0.511216" stroke-miterlimit="10"/>
<path d="M220.95 233.534H264.946V272.658H220.945L220.95 233.534Z" fill="white" stroke="#959DA8" stroke-width="0.511216" stroke-miterlimit="10"/>
<path d="M242.949 233.525V272.715" stroke="#959DA8" stroke-width="0.511216" stroke-miterlimit="10"/>
<path d="M264.948 251.965H221.121" stroke="#959DA8" stroke-width="0.511216" stroke-miterlimit="10"/>
<path d="M280.763 303.568H324.758V342.691H280.758L280.763 303.568Z" fill="white" stroke="#959DA8" stroke-width="0.511216" stroke-miterlimit="10"/>
<path d="M302.758 303.561V342.75" stroke="#959DA8" stroke-width="0.511216" stroke-miterlimit="10"/>
<path d="M324.756 322.003H280.93" stroke="#959DA8" stroke-width="0.511216" stroke-miterlimit="10"/>
<path d="M220.95 303.568H264.946V342.691H220.945L220.95 303.568Z" fill="white" stroke="#959DA8" stroke-width="0.511216" stroke-miterlimit="10"/>
<path d="M242.949 303.561V342.75" stroke="#959DA8" stroke-width="0.511216" stroke-miterlimit="10"/>
<path d="M264.948 322.003H221.121" stroke="#959DA8" stroke-width="0.511216" stroke-miterlimit="10"/>
<path d="M64.009 376.166H108.004V415.289H64.0039L64.009 376.166Z" fill="white" stroke="#959DA8" stroke-width="0.511216" stroke-miterlimit="10"/>
<path d="M86 376.154V415.344" stroke="#959DA8" stroke-width="0.511216" stroke-miterlimit="10"/>
<path d="M108.002 394.597H64.1758" stroke="#959DA8" stroke-width="0.511216" stroke-miterlimit="10"/>
<path d="M442.302 376.166H486.297V415.289H442.297L442.302 376.166Z" fill="white" stroke="#959DA8" stroke-width="0.511216" stroke-miterlimit="10"/>
<path d="M464.305 376.154V415.344" stroke="#959DA8" stroke-width="0.511216" stroke-miterlimit="10"/>
<path d="M486.303 394.597H442.477" stroke="#959DA8" stroke-width="0.511216" stroke-miterlimit="10"/>
<path d="M137.617 232.602H153.22V271.454H137.622L137.617 232.602Z" fill="white" stroke="#959DA8" stroke-width="0.511216" stroke-miterlimit="10"/>
<path d="M153.223 244.018H137.621" stroke="#959DA8" stroke-width="0.511216" stroke-miterlimit="10"/>
<path d="M137.617 162.054H153.22V200.907H137.622L137.617 162.054Z" fill="white" stroke="#959DA8" stroke-width="0.511216" stroke-miterlimit="10"/>
<path d="M153.223 173.47H137.621" stroke="#959DA8" stroke-width="0.511216" stroke-miterlimit="10"/>
<path d="M137.617 91.5063H153.22V130.359H137.622L137.617 91.5063Z" fill="white" stroke="#959DA8" stroke-width="0.511216" stroke-miterlimit="10"/>
<path d="M153.223 102.923H137.621" stroke="#959DA8" stroke-width="0.511216" stroke-miterlimit="10"/>
<path d="M137.617 21.4707H153.22V60.3231H137.622L137.617 21.4707Z" fill="white" stroke="#959DA8" stroke-width="0.511216" stroke-miterlimit="10"/>
<path d="M153.223 32.8848H137.621" stroke="#959DA8" stroke-width="0.511216" stroke-miterlimit="10"/>
<path d="M137.617 303.664H153.22V342.516H137.622L137.617 303.664Z" fill="white" stroke="#959DA8" stroke-width="0.511216" stroke-miterlimit="10"/>
<path d="M153.223 315.08H137.621" stroke="#959DA8" stroke-width="0.511216" stroke-miterlimit="10"/>
<path d="M154.45 344.835H136.22L135.984 340.301H154.685L154.45 344.835Z" fill="#D3DCE5"/>
<path d="M137.617 376.257H153.22V415.11H137.622L137.617 376.257Z" fill="white" stroke="#959DA8" stroke-width="0.511216" stroke-miterlimit="10"/>
<path d="M153.223 387.673H137.621" stroke="#959DA8" stroke-width="0.511216" stroke-miterlimit="10"/>
<path d="M154.45 417.429H136.22L135.984 412.895H154.685L154.45 417.429Z" fill="#D3DCE5"/>
<path d="M394.762 376.257H410.364V415.11H394.767L394.762 376.257Z" fill="white" stroke="#959DA8" stroke-width="0.511216" stroke-miterlimit="10"/>
<path d="M410.368 387.673H394.766" stroke="#959DA8" stroke-width="0.511216" stroke-miterlimit="10"/>
<path d="M411.586 417.429H393.356L393.121 412.895H411.821L411.586 417.429Z" fill="#D3DCE5"/>
<path d="M154.45 271.734H136.22L135.984 267.199H154.685L154.45 271.734Z" fill="#D3DCE5"/>
<path d="M154.45 203.23H136.22L135.984 198.695H154.685L154.45 203.23Z" fill="#D3DCE5"/>
<path d="M154.45 132.682H136.22L135.984 128.147H154.685L154.45 132.682Z" fill="#D3DCE5"/>
<path d="M154.45 62.6463H136.22L135.984 58.1118H154.685L154.45 62.6463Z" fill="#D3DCE5"/>
<path d="M394.762 232.602H410.364V271.454H394.767L394.762 232.602Z" fill="white" stroke="#959DA8" stroke-width="0.511216" stroke-miterlimit="10"/>
<path d="M410.368 244.018H394.766" stroke="#959DA8" stroke-width="0.511216" stroke-miterlimit="10"/>
<path d="M394.762 162.054H410.364V200.907H394.767L394.762 162.054Z" fill="white" stroke="#959DA8" stroke-width="0.511216" stroke-miterlimit="10"/>
<path d="M410.368 173.47H394.766" stroke="#959DA8" stroke-width="0.511216" stroke-miterlimit="10"/>
<path d="M394.762 91.5063H410.364V130.359H394.767L394.762 91.5063Z" fill="white" stroke="#959DA8" stroke-width="0.511216" stroke-miterlimit="10"/>
<path d="M410.368 102.923H394.766" stroke="#959DA8" stroke-width="0.511216" stroke-miterlimit="10"/>
<path d="M394.762 21.4707H410.364V60.3231H394.767L394.762 21.4707Z" fill="white" stroke="#959DA8" stroke-width="0.511216" stroke-miterlimit="10"/>
<path d="M410.368 32.8848H394.766" stroke="#959DA8" stroke-width="0.511216" stroke-miterlimit="10"/>
<path d="M394.762 303.664H410.364V342.516H394.767L394.762 303.664Z" fill="white" stroke="#959DA8" stroke-width="0.511216" stroke-miterlimit="10"/>
<path d="M410.368 315.08H394.766" stroke="#959DA8" stroke-width="0.511216" stroke-miterlimit="10"/>
<path d="M411.586 344.835H393.356L393.121 340.301H411.821L411.586 344.835Z" fill="#D3DCE5"/>
<path d="M411.586 271.734H393.356L393.121 267.199H411.821L411.586 271.734Z" fill="#D3DCE5"/>
<path d="M411.586 203.23H393.356L393.121 198.695H411.821L411.586 203.23Z" fill="#D3DCE5"/>
<path d="M411.586 132.682H393.356L393.121 128.147H411.821L411.586 132.682Z" fill="#D3DCE5"/>
<path d="M411.586 62.6463H393.356L393.121 58.1118H411.821L411.586 62.6463Z" fill="#D3DCE5"/>
<path d="M581.52 414.749C581.737 414.75 581.954 414.728 582.166 414.681C592.04 412.435 592.045 400.473 592.045 400.473C592.045 384.172 581.525 376 581.525 376C581.525 376 571 384.153 571 400.473C571 400.473 571 412.449 580.874 414.681C581.086 414.728 581.303 414.75 581.52 414.749Z" fill="#80C33F"/>
<path fill-rule="evenodd" clip-rule="evenodd" d="M581.522 391.843C581.655 391.843 581.763 391.951 581.763 392.084V432.771C581.763 432.904 581.655 433.012 581.522 433.012C581.389 433.012 581.281 432.904 581.281 432.771V392.084C581.281 391.951 581.389 391.843 581.522 391.843Z" fill="#2A3A51"/>
<path fill-rule="evenodd" clip-rule="evenodd" d="M630.605 423.986V385.642H631.57V423.986H630.605Z" fill="#959DA8"/>
<path d="M638.951 397.44H623.219L628.136 385.642H634.033L638.951 397.44Z" fill="#D3DCE5"/>
<path fill-rule="evenodd" clip-rule="evenodd" d="M627.039 397.385L629.806 385.587L630.276 385.697L627.508 397.495L627.039 397.385Z" fill="#959DA8"/>
<path fill-rule="evenodd" clip-rule="evenodd" d="M634.728 397.495L631.961 385.697L632.43 385.587L635.198 397.385L634.728 397.495Z" fill="#959DA8"/>
<path d="M610.885 402.705L610.075 402.556C609.451 403.427 609.186 404.503 609.332 405.564C609.364 405.782 609.479 405.98 609.652 406.116C609.825 406.253 610.044 406.318 610.263 406.298C610.483 406.279 610.687 406.176 610.833 406.01C610.979 405.845 611.056 405.63 611.049 405.41C611.076 404.505 611.021 403.6 610.885 402.705Z" fill="white"/>
<path fill-rule="evenodd" clip-rule="evenodd" d="M609.963 402.291L610.924 402.468L610.88 402.705L611.118 402.669C611.256 403.576 611.312 404.493 611.285 405.41C611.292 405.689 611.193 405.961 611.008 406.17C610.822 406.382 610.561 406.513 610.28 406.539C609.999 406.564 609.719 406.481 609.498 406.306C609.276 406.131 609.13 405.878 609.089 405.599L609.327 405.564L609.089 405.597C608.934 404.475 609.215 403.337 609.874 402.416L609.963 402.291ZM609.566 405.53C609.589 405.687 609.672 405.829 609.796 405.927C609.921 406.026 610.079 406.073 610.237 406.058C610.395 406.044 610.542 405.97 610.647 405.851C610.752 405.732 610.808 405.577 610.803 405.418L610.803 405.41L610.803 405.403C610.828 404.57 610.782 403.736 610.666 402.911L610.18 402.821C609.654 403.618 609.435 404.581 609.566 405.53Z" fill="#959DA8"/>
<path d="M613.27 401.211L613.487 400.415C614.542 400.231 615.627 400.459 616.519 401.051C616.701 401.175 616.83 401.364 616.878 401.579C616.925 401.794 616.889 402.019 616.777 402.208C616.664 402.397 616.483 402.536 616.271 402.596C616.059 402.656 615.832 402.633 615.637 402.532C614.809 402.164 614.017 401.722 613.27 401.211Z" fill="white"/>
<path fill-rule="evenodd" clip-rule="evenodd" d="M613.678 400.63L613.548 401.108C614.241 401.57 614.973 401.973 615.735 402.312L615.742 402.315L615.748 402.318C615.889 402.391 616.053 402.408 616.205 402.365C616.358 402.321 616.489 402.221 616.57 402.085C616.651 401.949 616.677 401.786 616.643 401.631C616.608 401.477 616.516 401.341 616.385 401.252C615.587 400.722 614.624 400.502 613.678 400.63ZM616.519 401.052L616.653 400.851C615.709 400.225 614.561 399.984 613.446 400.178L613.295 400.204L612.992 401.313L613.134 401.41C613.891 401.928 614.694 402.376 615.533 402.749C615.781 402.876 616.069 402.905 616.337 402.828C616.608 402.752 616.84 402.574 616.984 402.332C617.128 402.09 617.175 401.802 617.113 401.527C617.052 401.251 616.888 401.01 616.655 400.852L616.519 401.052Z" fill="#959DA8"/>
<path d="M615.697 402.932C616.013 403.494 616.1 404.156 615.941 404.78C615.783 405.405 615.39 405.945 614.844 406.288C614.298 406.631 613.642 406.751 613.01 406.624C612.378 406.496 611.82 406.131 611.45 405.603C610.755 404.494 610.452 401.905 611.623 401.167C612.795 400.43 615.003 401.823 615.697 402.932Z" fill="white"/>
<path fill-rule="evenodd" clip-rule="evenodd" d="M612.632 401.215C612.285 401.175 611.987 401.224 611.755 401.371C611.522 401.518 611.348 401.765 611.235 402.094C611.121 402.424 611.073 402.821 611.081 403.241C611.096 404.084 611.337 404.96 611.653 405.469C611.988 405.944 612.491 406.272 613.06 406.387C613.632 406.503 614.225 406.394 614.719 406.084C615.212 405.774 615.567 405.286 615.711 404.721C615.854 404.158 615.776 403.562 615.493 403.055C615.173 402.548 614.488 401.951 613.734 401.572C613.358 401.384 612.978 401.255 612.632 401.215ZM613.95 401.142C614.765 401.551 615.528 402.203 615.904 402.804L615.91 402.814L615.91 402.814C616.256 403.43 616.352 404.155 616.178 404.84C616.004 405.524 615.573 406.116 614.975 406.492C614.377 406.868 613.658 407 612.965 406.86C612.273 406.72 611.66 406.32 611.255 405.741L611.248 405.731L611.248 405.731C610.872 405.131 610.615 404.161 610.599 403.25C610.59 402.792 610.642 402.335 610.779 401.937C610.916 401.539 611.145 401.185 611.498 400.963C611.851 400.741 612.268 400.688 612.687 400.736C613.105 400.785 613.541 400.936 613.95 401.142Z" fill="#959DA8"/>
<path d="M609.037 400.799C609.499 400.509 609.638 399.898 609.348 399.436C609.058 398.974 608.447 398.835 607.985 399.125C607.523 399.416 607.384 400.026 607.674 400.488C607.965 400.95 608.575 401.09 609.037 400.799Z" fill="white"/>
<path fill-rule="evenodd" clip-rule="evenodd" d="M608.114 399.329C607.764 399.549 607.659 400.01 607.879 400.36C608.098 400.709 608.56 400.814 608.909 400.595C609.259 400.375 609.364 399.914 609.144 399.564C608.925 399.215 608.463 399.11 608.114 399.329ZM607.471 400.616C607.109 400.041 607.282 399.282 607.857 398.921C608.432 398.56 609.191 398.733 609.552 399.308C609.914 399.883 609.741 400.641 609.166 401.003C608.591 401.364 607.832 401.191 607.471 400.616Z" fill="#959DA8"/>
<path d="M613.65 400.811C614.113 400.521 614.255 399.911 613.966 399.447C613.676 398.983 613.066 398.841 612.602 399.13C612.138 399.42 611.996 400.03 612.286 400.494C612.575 400.958 613.186 401.1 613.65 400.811Z" fill="white"/>
<path fill-rule="evenodd" clip-rule="evenodd" d="M611.73 397.335C611.379 397.554 611.272 398.015 611.491 398.366C611.71 398.717 612.172 398.824 612.522 398.605C612.873 398.387 612.98 397.925 612.761 397.574C612.543 397.223 612.081 397.116 611.73 397.335ZM611.081 398.622C610.721 398.045 610.898 397.285 611.475 396.925C612.052 396.565 612.811 396.741 613.171 397.318C613.531 397.896 613.355 398.655 612.778 399.015C612.201 399.375 611.441 399.199 611.081 398.622Z" fill="#959DA8"/>
<path d="M612.384 402.371C613.557 401.634 613.943 400.14 613.247 399.033C612.551 397.926 611.037 397.626 609.865 398.363C608.693 399.099 608.306 400.594 609.002 401.701C609.698 402.808 611.212 403.108 612.384 402.371Z" fill="white"/>
<path fill-rule="evenodd" clip-rule="evenodd" d="M609.993 398.567C608.923 399.24 608.588 400.59 609.206 401.573C609.824 402.556 611.186 402.84 612.256 402.167C613.327 401.494 613.661 400.145 613.043 399.161C612.425 398.178 611.064 397.894 609.993 398.567ZM608.798 401.829C608.025 400.599 608.463 398.959 609.737 398.159C611.011 397.358 612.678 397.674 613.452 398.905C614.225 400.135 613.787 401.775 612.513 402.575C611.239 403.376 609.572 403.06 608.798 401.829Z" fill="#959DA8"/>
<path d="M613.89 407.522C614.063 406.931 613.647 406.29 612.962 406.091C612.277 405.891 611.582 406.208 611.409 406.798C611.237 407.389 611.653 408.029 612.338 408.229C613.023 408.429 613.718 408.112 613.89 407.522Z" fill="white"/>
<path fill-rule="evenodd" clip-rule="evenodd" d="M611.646 406.867C611.521 407.295 611.818 407.821 612.407 407.993C612.996 408.164 613.53 407.881 613.654 407.453C613.779 407.024 613.482 406.498 612.893 406.326C612.304 406.155 611.771 406.438 611.646 406.867ZM612.269 408.465C611.488 408.237 610.954 407.482 611.174 406.729C611.393 405.976 612.25 405.626 613.031 405.854C613.812 406.082 614.346 406.838 614.127 407.59C613.907 408.343 613.051 408.693 612.269 408.465Z" fill="#959DA8"/>
<path d="M617.429 405.005C617.546 404.301 617.149 403.648 616.542 403.547C615.936 403.446 615.349 403.935 615.232 404.639C615.115 405.343 615.511 405.995 616.118 406.096C616.725 406.197 617.312 405.709 617.429 405.005Z" fill="white"/>
<path fill-rule="evenodd" clip-rule="evenodd" d="M615.47 404.679C615.368 405.286 615.714 405.785 616.158 405.859C616.601 405.932 617.09 405.572 617.191 404.965C617.292 404.358 616.946 403.859 616.503 403.785C616.059 403.711 615.571 404.072 615.47 404.679ZM616.079 406.334C615.309 406.206 614.861 405.4 614.994 404.599C615.127 403.799 615.812 403.181 616.582 403.31C617.352 403.438 617.8 404.243 617.667 405.044C617.533 405.845 616.849 406.462 616.079 406.334Z" fill="#959DA8"/>
<path fill-rule="evenodd" clip-rule="evenodd" d="M610.954 401.654C610.852 401.887 610.85 402.113 610.958 402.285C611.066 402.457 611.271 402.553 611.525 402.562C611.779 402.571 612.076 402.491 612.353 402.316C612.631 402.142 612.832 401.909 612.934 401.676C613.037 401.444 613.038 401.217 612.93 401.046C612.822 400.874 612.617 400.777 612.363 400.768C612.109 400.759 611.812 400.84 611.535 401.014C611.257 401.188 611.056 401.421 610.954 401.654ZM610.844 401.605C610.957 401.348 611.176 401.097 611.471 400.912C611.766 400.726 612.086 400.638 612.367 400.648C612.648 400.657 612.896 400.765 613.032 400.981C613.168 401.197 613.157 401.468 613.044 401.725C612.931 401.982 612.713 402.233 612.417 402.418C612.122 402.604 611.802 402.692 611.521 402.683C611.24 402.673 610.992 402.565 610.856 402.349C610.72 402.133 610.731 401.862 610.844 401.605Z" fill="#959DA8"/>
<path d="M610.345 400.906C610.374 400.778 610.295 400.652 610.167 400.623C610.04 400.594 609.914 400.673 609.885 400.8C609.856 400.928 609.935 401.054 610.062 401.083C610.19 401.112 610.316 401.033 610.345 400.906Z" fill="#959DA8"/>
<path d="M612.016 399.899C612.111 399.84 612.139 399.715 612.08 399.62C612.02 399.525 611.895 399.497 611.8 399.556C611.706 399.616 611.677 399.741 611.737 399.835C611.796 399.93 611.921 399.959 612.016 399.899Z" fill="#959DA8"/>
<path d="M611.978 401.716C612.114 401.631 612.169 401.476 612.103 401.37C612.036 401.264 611.872 401.247 611.737 401.332C611.602 401.417 611.546 401.572 611.613 401.678C611.679 401.784 611.843 401.801 611.978 401.716Z" fill="#959DA8"/>
<path fill-rule="evenodd" clip-rule="evenodd" d="M612.091 401.994L611.941 401.758L612.043 401.693L612.193 401.93L612.091 401.994Z" fill="#959DA8"/>
<path fill-rule="evenodd" clip-rule="evenodd" d="M612.487 401.719C612.314 401.945 612.065 402.101 611.787 402.161L611.762 402.043C612.012 401.989 612.236 401.849 612.392 401.646L612.487 401.719Z" fill="#959DA8"/>
<path d="M624.603 405.04H608.379V418.472H624.603V405.04Z" fill="#F4F5F6"/>
<path fill-rule="evenodd" clip-rule="evenodd" d="M607.895 404.557H625.082V418.953H607.895V404.557ZM608.859 405.521V417.989H624.118V405.521H608.859Z" fill="#959DA8"/>
<path fill-rule="evenodd" clip-rule="evenodd" d="M619.006 405.04V418.472H618.523V405.04H619.006Z" fill="#959DA8"/>
<path d="M607.903 404.615L604.094 407.913H615.52L618.784 404.615H607.903Z" fill="#D3DCE5"/>
<path d="M628.004 407.406H621.635L618.781 404.615H625.145L628.004 407.406Z" fill="#D3DCE5"/>
<path d="M619.786 418.471H603.562V431.903H619.786V418.471Z" fill="#F4F5F6"/>
<path fill-rule="evenodd" clip-rule="evenodd" d="M603.078 417.989H620.266V432.385H603.078V417.989ZM604.042 418.953V431.421H619.302V418.953H604.042Z" fill="#959DA8"/>
<path fill-rule="evenodd" clip-rule="evenodd" d="M614.189 418.823V431.908H613.707V418.823H614.189Z" fill="#959DA8"/>
<path d="M636.009 418.471H619.785V431.903H636.009V418.471Z" fill="#F4F5F6"/>
<path fill-rule="evenodd" clip-rule="evenodd" d="M619.301 417.989H636.489V432.385H619.301V417.989ZM620.265 418.953V431.421H635.524V418.953H620.265Z" fill="#959DA8"/>
<path fill-rule="evenodd" clip-rule="evenodd" d="M633.205 418.471V431.908H632.723V418.471H633.205Z" fill="#959DA8"/>
<path d="M599.901 432.139H589.328L596.941 417.757H607.514L599.901 432.139Z" fill="#F4F5F6"/>
<path fill-rule="evenodd" clip-rule="evenodd" d="M596.647 417.275H608.311L600.188 432.621H588.523L596.647 417.275ZM597.227 418.239L590.125 431.657H599.607L606.709 418.239H597.227Z" fill="#959DA8"/>
<path d="M598.203 420.91C598.796 419.999 599.005 419.085 598.67 418.867C598.336 418.649 597.584 419.21 596.991 420.121C596.398 421.031 596.189 421.946 596.524 422.164C596.859 422.382 597.611 421.82 598.203 420.91Z" fill="#D3DCE5"/>
<path d="M600.058 427.865C601.504 425.642 602.017 423.411 601.202 422.881C600.388 422.35 598.555 423.722 597.108 425.945C595.661 428.168 595.149 430.4 595.963 430.93C596.778 431.46 598.611 430.088 600.058 427.865Z" fill="#D3DCE5"/>
<path fill-rule="evenodd" clip-rule="evenodd" d="M600.13 419.122V425.93H594.457L600.13 419.122ZM595.486 425.448H599.648V420.454L595.486 425.448Z" fill="#959DA8"/>
</svg>
