<svg width="585" height="401" viewBox="0 0 585 401" fill="none" xmlns="http://www.w3.org/2000/svg">
<path d="M572.149 0H33.1914V12.3769H572.149V0Z" fill="#D3DCE5"/>
<path d="M551.719 321.799H57.4922V399.436H551.719V321.799Z" fill="#F4F5F6" stroke="#959DA8" stroke-width="1.09175" stroke-miterlimit="10"/>
<path d="M551.719 244.163H57.4922V321.8H551.719V244.163Z" fill="#F4F5F6" stroke="#959DA8" stroke-width="1.09175" stroke-miterlimit="10"/>
<path d="M551.719 167.088H57.4922V244.725H551.719V167.088Z" fill="#F4F5F6" stroke="#959DA8" stroke-width="1.09175" stroke-miterlimit="10"/>
<path d="M551.719 89.4502H57.4922V167.087H551.719V89.4502Z" fill="#F4F5F6" stroke="#959DA8" stroke-width="1.09175" stroke-miterlimit="10"/>
<path d="M551.719 11.814H57.4922V89.4509H551.719V11.814Z" fill="#F4F5F6" stroke="#959DA8" stroke-width="1.09175" stroke-miterlimit="10"/>
<path d="M114.947 337.854H90.8398V390.225H114.947V337.854Z" fill="#D3DCE5"/>
<path d="M111.534 341.181H94.2461V366.121H111.534V341.181Z" fill="white" stroke="#959DA8" stroke-width="0.545875" stroke-miterlimit="10"/>
<path d="M82.8646 321.235H78.4258V388.746H82.8646V321.235Z" fill="#F4F5F6" stroke="#959DA8" stroke-width="1.09175" stroke-miterlimit="10"/>
<path d="M126.744 321.235H122.305V398.872H126.744V321.235Z" fill="#F4F5F6" stroke="#959DA8" stroke-width="1.09175" stroke-miterlimit="10"/>
<path d="M138.959 388.531H67.1172V394.028H138.959V388.531Z" fill="#F4F5F6" stroke="#959DA8" stroke-width="1.09175" stroke-miterlimit="10"/>
<path d="M138.959 394.016H67.1172V399.513H138.959V394.016Z" fill="#F4F5F6" stroke="#959DA8" stroke-width="1.09175" stroke-miterlimit="10"/>
<path d="M95.3595 370.461C95.981 370.461 96.4847 369.958 96.4847 369.336C96.4847 368.715 95.981 368.211 95.3595 368.211C94.7381 368.211 94.2344 368.715 94.2344 369.336C94.2344 369.958 94.7381 370.461 95.3595 370.461Z" fill="white" stroke="#959DA8" stroke-width="0.545875" stroke-miterlimit="10"/>
<path d="M401.238 101.828H418.408V144.584H401.238V101.828Z" fill="white" stroke="#959DA8" stroke-width="0.545875" stroke-miterlimit="10"/>
<path d="M418.412 114.39H401.242" stroke="#959DA8" stroke-width="0.545875" stroke-miterlimit="10"/>
<path d="M401.238 24.1914H418.408V66.948H401.238V24.1914Z" fill="white" stroke="#959DA8" stroke-width="0.545875" stroke-miterlimit="10"/>
<path d="M418.412 36.7539H401.242" stroke="#959DA8" stroke-width="0.545875" stroke-miterlimit="10"/>
<path d="M401.238 179.466H418.408V222.222H401.238V179.466Z" fill="white" stroke="#959DA8" stroke-width="0.545875" stroke-miterlimit="10"/>
<path d="M418.412 192.028H401.242" stroke="#959DA8" stroke-width="0.545875" stroke-miterlimit="10"/>
<path d="M401.238 256.54H418.408V299.297H401.238V256.54Z" fill="white" stroke="#959DA8" stroke-width="0.545875" stroke-miterlimit="10"/>
<path d="M418.412 269.101H401.242" stroke="#959DA8" stroke-width="0.545875" stroke-miterlimit="10"/>
<path d="M401.238 337.55H418.408V380.306H401.238V337.55Z" fill="white" stroke="#959DA8" stroke-width="0.545875" stroke-miterlimit="10"/>
<path d="M418.412 350.115H401.242" stroke="#959DA8" stroke-width="0.545875" stroke-miterlimit="10"/>
<path d="M192.516 258.791H209.686V301.547H192.516V258.791Z" fill="white" stroke="#959DA8" stroke-width="0.545875" stroke-miterlimit="10"/>
<path d="M209.697 271.351H192.527" stroke="#959DA8" stroke-width="0.545875" stroke-miterlimit="10"/>
<path d="M192.516 179.466H209.686V222.222H192.516V179.466Z" fill="white" stroke="#959DA8" stroke-width="0.545875" stroke-miterlimit="10"/>
<path d="M209.697 192.028H192.527" stroke="#959DA8" stroke-width="0.545875" stroke-miterlimit="10"/>
<path d="M192.516 101.828H209.686V144.584H192.516V101.828Z" fill="white" stroke="#959DA8" stroke-width="0.545875" stroke-miterlimit="10"/>
<path d="M209.697 114.39H192.527" stroke="#959DA8" stroke-width="0.545875" stroke-miterlimit="10"/>
<path d="M192.516 24.1914H209.686V66.948H192.516V24.1914Z" fill="white" stroke="#959DA8" stroke-width="0.545875" stroke-miterlimit="10"/>
<path d="M209.697 36.7539H192.527" stroke="#959DA8" stroke-width="0.545875" stroke-miterlimit="10"/>
<path d="M192.516 339.241H209.686V381.997H192.516V339.241Z" fill="white" stroke="#959DA8" stroke-width="0.545875" stroke-miterlimit="10"/>
<path d="M209.697 351.801H192.527" stroke="#959DA8" stroke-width="0.545875" stroke-miterlimit="10"/>
<path d="M211.035 384.552H190.974L190.715 379.562H211.294L211.035 384.552Z" fill="#D3DCE5"/>
<path d="M211.035 301.851H190.974L190.715 296.861H211.294L211.035 301.851Z" fill="#D3DCE5"/>
<path d="M211.035 224.774H190.974L190.715 219.784H211.294L211.035 224.774Z" fill="#D3DCE5"/>
<path d="M211.035 147.138H190.974L190.715 142.148H211.294L211.035 147.138Z" fill="#D3DCE5"/>
<path d="M211.035 69.5019H190.974L190.715 64.5117H211.294L211.035 69.5019Z" fill="#D3DCE5"/>
<path d="M419.992 384.552H399.931L399.672 379.562H420.251L419.992 384.552Z" fill="#D3DCE5"/>
<path d="M419.992 301.851H399.931L399.672 296.861H420.251L419.992 301.851Z" fill="#D3DCE5"/>
<path d="M419.992 224.774H399.931L399.672 219.784H420.251L419.992 224.774Z" fill="#D3DCE5"/>
<path d="M419.992 147.138H399.931L399.672 142.148H420.251L419.992 147.138Z" fill="#D3DCE5"/>
<path d="M419.992 69.5019H399.931L399.672 64.5117H420.251L419.992 69.5019Z" fill="#D3DCE5"/>
<path d="M68.0724 67.6556C68.2936 67.6571 68.5144 67.6345 68.7307 67.5881C78.8572 65.2871 78.8572 53.0678 78.8572 53.0678C78.9466 45.6224 76.5864 38.354 72.1399 32.3815C71.6679 31.7569 71.0574 31.2503 70.3566 30.9015C69.6557 30.5526 68.8835 30.3711 68.1006 30.3711C67.3177 30.3711 66.5454 30.5526 65.8445 30.9015C65.1436 31.2503 64.5332 31.7569 64.0612 32.3815C59.6127 38.3532 57.2505 45.6217 57.3383 53.0678C57.3383 53.0678 57.3383 65.3153 67.4311 67.5937C67.6474 67.6401 67.8681 67.6627 68.0893 67.6612L68.0724 67.6556Z" fill="#80C33F"/>
<path d="M68.0742 44.4795V86.0771" stroke="#2A3A51" stroke-width="0.545875" stroke-linecap="round" stroke-linejoin="round"/>
<path d="M463.006 65.4071C463.227 65.4086 463.448 65.3859 463.664 65.3396C473.791 63.0386 473.791 50.8192 473.791 50.8192C473.88 43.3738 471.52 36.1054 467.074 30.1329C466.601 29.5084 465.991 29.0018 465.29 28.6529C464.589 28.3041 463.817 28.1226 463.034 28.1226C462.251 28.1226 461.479 28.3041 460.778 28.6529C460.077 29.0018 459.467 29.5084 458.995 30.1329C454.546 36.1047 452.184 43.3732 452.272 50.8192C452.272 50.8192 452.272 63.0667 462.365 65.3452C462.581 65.3916 462.802 65.4142 463.023 65.4127L463.006 65.4071Z" fill="#80C33F"/>
<path d="M463.008 42.2271V83.8247" stroke="#2A3A51" stroke-width="0.545875" stroke-linecap="round" stroke-linejoin="round"/>
<path d="M105.766 302.841C105.761 301.589 106.057 300.354 106.63 299.241C107.203 298.127 108.036 297.168 109.058 296.445C110.08 295.721 111.261 295.255 112.502 295.084C113.742 294.914 115.006 295.045 116.185 295.466C116.641 293.63 117.564 291.944 118.864 290.572C120.165 289.199 121.799 288.187 123.607 287.633C125.415 287.079 127.335 287.002 129.181 287.411C131.028 287.819 132.737 288.699 134.143 289.963C135.135 287.187 137.076 284.85 139.623 283.364C142.169 281.878 145.159 281.338 148.064 281.84C150.97 282.341 153.605 283.852 155.507 286.106C157.408 288.359 158.453 291.212 158.458 294.16C158.459 294.596 158.437 295.032 158.39 295.466C159.237 295.156 160.132 294.998 161.034 294.999C165.366 294.999 169.135 298.515 168.86 302.824C168.82 303.535 168.701 304.239 168.505 304.923H106.058C105.87 304.239 105.775 303.533 105.777 302.824L105.766 302.841Z" fill="#80C33F"/>
<path d="M6.57642e-05 397.919C-0.00507659 396.667 0.291427 395.432 0.864479 394.319C1.43753 393.205 2.27026 392.246 3.29228 391.523C4.3143 390.799 5.49555 390.333 6.73606 390.162C7.97658 389.992 9.2399 390.123 10.4192 390.544C10.8749 388.708 11.798 387.023 13.0986 385.65C14.3992 384.277 16.033 383.265 17.841 382.711C19.649 382.157 21.5696 382.08 23.4159 382.489C25.2622 382.897 26.9713 383.777 28.3769 385.042C29.3698 382.265 31.3105 379.928 33.8572 378.442C36.4039 376.956 39.3932 376.416 42.2988 376.918C45.2044 377.419 47.8398 378.93 49.741 381.184C51.6422 383.438 52.6872 386.29 52.6919 389.238C52.6935 389.674 52.671 390.11 52.6244 390.544C53.4716 390.234 54.3666 390.076 55.2685 390.077C59.6005 390.077 63.3698 393.593 63.0941 397.902C63.0544 398.613 62.9356 399.317 62.7397 400.001H0.292622C0.104025 399.317 0.009391 398.611 0.0113285 397.902L6.57642e-05 397.919Z" fill="#80C33F"/>
<path d="M133.065 24.3706H84.6484V69.6926H133.065V24.3706Z" fill="white" stroke="#959DA8" stroke-width="0.545875" stroke-miterlimit="10"/>
<path d="M108.859 24.3643V69.7593" stroke="#959DA8" stroke-width="0.545875" stroke-miterlimit="10"/>
<path d="M133.065 102.009H84.6484V147.331H133.065V102.009Z" fill="white" stroke="#959DA8" stroke-width="0.545875" stroke-miterlimit="10"/>
<path d="M108.859 102.002V147.398" stroke="#959DA8" stroke-width="0.545875" stroke-miterlimit="10"/>
<path d="M133.065 179.083H84.6484V224.405H133.065V179.083Z" fill="white" stroke="#959DA8" stroke-width="0.545875" stroke-miterlimit="10"/>
<path d="M108.859 179.077V224.472" stroke="#959DA8" stroke-width="0.545875" stroke-miterlimit="10"/>
<path d="M133.065 258.406H84.6484V303.728H133.065V258.406Z" fill="white" stroke="#959DA8" stroke-width="0.545875" stroke-miterlimit="10"/>
<path d="M108.859 258.402V303.797" stroke="#959DA8" stroke-width="0.545875" stroke-miterlimit="10"/>
<path d="M297.338 24.3706H248.922V69.6926H297.338V24.3706Z" fill="white" stroke="#959DA8" stroke-width="0.545875" stroke-miterlimit="10"/>
<path d="M273.137 24.3643V69.7593" stroke="#959DA8" stroke-width="0.545875" stroke-miterlimit="10"/>
<path d="M297.338 102.009H248.922V147.331H297.338V102.009Z" fill="white" stroke="#959DA8" stroke-width="0.545875" stroke-miterlimit="10"/>
<path d="M273.137 102.002V147.398" stroke="#959DA8" stroke-width="0.545875" stroke-miterlimit="10"/>
<path d="M297.338 179.083H248.922V224.405H297.338V179.083Z" fill="white" stroke="#959DA8" stroke-width="0.545875" stroke-miterlimit="10"/>
<path d="M273.137 179.077V224.472" stroke="#959DA8" stroke-width="0.545875" stroke-miterlimit="10"/>
<path d="M297.338 258.406H248.922V303.728H297.338V258.406Z" fill="white" stroke="#959DA8" stroke-width="0.545875" stroke-miterlimit="10"/>
<path d="M273.137 258.402V303.797" stroke="#959DA8" stroke-width="0.545875" stroke-miterlimit="10"/>
<path d="M297.338 339.42H248.922V384.742H297.338V339.42Z" fill="white" stroke="#959DA8" stroke-width="0.545875" stroke-miterlimit="10"/>
<path d="M273.137 339.414V384.809" stroke="#959DA8" stroke-width="0.545875" stroke-miterlimit="10"/>
<path d="M364.85 24.3706H316.434V69.6926H364.85V24.3706Z" fill="white" stroke="#959DA8" stroke-width="0.545875" stroke-miterlimit="10"/>
<path d="M340.645 24.3643V69.7593" stroke="#959DA8" stroke-width="0.545875" stroke-miterlimit="10"/>
<path d="M364.85 102.009H316.434V147.331H364.85V102.009Z" fill="white" stroke="#959DA8" stroke-width="0.545875" stroke-miterlimit="10"/>
<path d="M340.645 102.002V147.398" stroke="#959DA8" stroke-width="0.545875" stroke-miterlimit="10"/>
<path d="M364.85 179.083H316.434V224.405H364.85V179.083Z" fill="white" stroke="#959DA8" stroke-width="0.545875" stroke-miterlimit="10"/>
<path d="M340.645 179.077V224.472" stroke="#959DA8" stroke-width="0.545875" stroke-miterlimit="10"/>
<path d="M364.85 258.406H316.434V303.728H364.85V258.406Z" fill="white" stroke="#959DA8" stroke-width="0.545875" stroke-miterlimit="10"/>
<path d="M340.645 258.402V303.797" stroke="#959DA8" stroke-width="0.545875" stroke-miterlimit="10"/>
<path d="M364.85 339.42H316.434V384.742H364.85V339.42Z" fill="white" stroke="#959DA8" stroke-width="0.545875" stroke-miterlimit="10"/>
<path d="M340.645 339.414V384.809" stroke="#959DA8" stroke-width="0.545875" stroke-miterlimit="10"/>
<path d="M522.373 24.3706H473.957V69.6926H522.373V24.3706Z" fill="white" stroke="#959DA8" stroke-width="0.545875" stroke-miterlimit="10"/>
<path d="M498.172 24.3643V69.7593" stroke="#959DA8" stroke-width="0.545875" stroke-miterlimit="10"/>
<path d="M522.373 102.009H473.957V147.331H522.373V102.009Z" fill="white" stroke="#959DA8" stroke-width="0.545875" stroke-miterlimit="10"/>
<path d="M498.172 102.002V147.398" stroke="#959DA8" stroke-width="0.545875" stroke-miterlimit="10"/>
<path d="M522.373 179.083H473.957V224.405H522.373V179.083Z" fill="white" stroke="#959DA8" stroke-width="0.545875" stroke-miterlimit="10"/>
<path d="M498.172 179.077V224.472" stroke="#959DA8" stroke-width="0.545875" stroke-miterlimit="10"/>
<path d="M522.373 258.406H473.957V303.728H522.373V258.406Z" fill="white" stroke="#959DA8" stroke-width="0.545875" stroke-miterlimit="10"/>
<path d="M498.172 258.402V303.797" stroke="#959DA8" stroke-width="0.545875" stroke-miterlimit="10"/>
<path d="M522.373 339.42H473.957V384.742H522.373V339.42Z" fill="white" stroke="#959DA8" stroke-width="0.545875" stroke-miterlimit="10"/>
<path d="M498.172 339.414V384.809" stroke="#959DA8" stroke-width="0.545875" stroke-miterlimit="10"/>
<path d="M171.586 136.989H45.8477V167.932H171.586V136.989Z" fill="#D3DCE5"/>
<path d="M171.586 59.353H45.8477V90.2953H171.586V59.353Z" fill="#D3DCE5"/>
<path d="M171.586 291.702H45.8477V322.644H171.586V291.702Z" fill="#D3DCE5"/>
<path d="M565.398 214.627H439.66V245.569H565.398V214.627Z" fill="#D3DCE5"/>
<path d="M565.398 59.353H439.66V90.2953H565.398V59.353Z" fill="#D3DCE5"/>
<path d="M565.398 291.702H439.66V322.644H565.398V291.702Z" fill="#D3DCE5"/>
<path d="M565.398 368.774H439.66V399.717H565.398V368.774Z" fill="#D3DCE5"/>
<path d="M330.664 366.091C331.016 364.322 330.998 362.498 330.613 360.736C330.234 358.991 329.491 357.345 328.43 355.909C327.399 354.507 326.067 353.353 324.531 352.533C323.032 351.731 321.365 351.294 319.665 351.258C317.965 351.222 316.28 351.588 314.748 352.325C313.186 353.077 311.813 354.171 310.731 355.526C309.619 356.916 308.816 358.527 308.374 360.252C307.924 361.999 307.839 363.821 308.126 365.602C306.855 366.267 305.745 367.202 304.875 368.342C303.981 369.51 303.339 370.851 302.99 372.28C302.634 373.725 302.572 375.227 302.81 376.696C303.045 378.154 303.577 379.548 304.374 380.792C305.149 382.006 306.178 383.039 307.389 383.819C308.578 384.581 309.925 385.062 311.328 385.225C312.716 385.385 314.124 385.224 315.44 384.752C316.777 384.275 317.992 383.506 318.996 382.502C319.967 383.492 321.142 384.26 322.439 384.752C323.711 385.236 325.076 385.428 326.433 385.315C327.794 385.191 329.11 384.766 330.287 384.072C331.49 383.36 332.529 382.401 333.336 381.259C334.163 380.089 334.747 378.765 335.052 377.366C335.363 375.953 335.393 374.492 335.142 373.068C334.908 371.642 334.39 370.277 333.617 369.056C332.853 367.871 331.846 366.86 330.664 366.091Z" fill="#80C33F"/>
<path d="M319.431 376.815L314.137 373.046" stroke="#2A3A51" stroke-width="0.545875" stroke-linecap="round" stroke-linejoin="round"/>
<path d="M319.43 381.524L325.618 375.898" stroke="#2A3A51" stroke-width="0.545875" stroke-linecap="round" stroke-linejoin="round"/>
<path d="M319.43 365.501V399.437" stroke="#2A3A51" stroke-width="0.545875" stroke-linecap="round" stroke-linejoin="round"/>
<path d="M93.9513 225.182C94.1725 225.183 94.3933 225.161 94.6096 225.114C104.736 222.814 104.736 210.594 104.736 210.594C104.826 203.149 102.465 195.88 98.0188 189.908C97.5468 189.283 96.9363 188.777 96.2355 188.428C95.5346 188.079 94.7624 187.897 93.9795 187.897C93.1966 187.897 92.4243 188.079 91.7234 188.428C91.0226 188.777 90.4121 189.283 89.9401 189.908C85.4916 195.88 83.1294 203.148 83.2172 210.594C83.2172 210.594 83.2172 222.842 93.31 225.12C93.5263 225.166 93.747 225.189 93.9682 225.188L93.9513 225.182Z" fill="#80C33F"/>
<path d="M93.9492 202.002V243.6" stroke="#2A3A51" stroke-width="0.545875" stroke-linecap="round" stroke-linejoin="round"/>
<path d="M171.586 214.627H45.8477V245.569H171.586V214.627Z" fill="#D3DCE5"/>
<path d="M498.449 145.316C498.444 144.064 498.741 142.829 499.314 141.716C499.887 140.602 500.72 139.643 501.742 138.92C502.764 138.196 503.945 137.73 505.185 137.559C506.426 137.389 507.689 137.52 508.868 137.941C509.324 136.105 510.247 134.419 511.548 133.047C512.848 131.674 514.482 130.662 516.29 130.108C518.098 129.554 520.019 129.477 521.865 129.886C523.711 130.294 525.421 131.174 526.826 132.439C527.819 129.662 529.76 127.325 532.306 125.839C534.853 124.353 537.842 123.813 540.748 124.315C543.654 124.816 546.289 126.327 548.19 128.581C550.091 130.835 551.136 133.687 551.141 136.635C551.143 137.071 551.12 137.507 551.074 137.941C551.921 137.631 552.816 137.473 553.718 137.474C558.05 137.474 561.819 140.99 561.543 145.299C561.504 146.01 561.385 146.714 561.189 147.398H498.742C498.553 146.714 498.459 146.008 498.461 145.299L498.449 145.316Z" fill="#80C33F"/>
<path d="M565.398 136.989H439.66V167.932H565.398V136.989Z" fill="#D3DCE5"/>
<path d="M572.147 378.486C572.4 378.487 572.653 378.461 572.901 378.407C584.422 375.785 584.428 361.827 584.428 361.827C584.428 342.806 572.152 333.271 572.152 333.271C572.152 333.271 559.871 342.784 559.871 361.827C559.871 361.827 559.871 375.802 571.393 378.407C571.64 378.461 571.893 378.487 572.147 378.486Z" fill="#80C33F"/>
<path d="M572.148 352.039V399.516" stroke="#2A3A51" stroke-width="0.545875" stroke-linecap="round" stroke-linejoin="round"/>
</svg>
