<svg width="701" height="401" viewBox="0 0 701 401" fill="none" xmlns="http://www.w3.org/2000/svg">
<path d="M572.149 0H33.1914V12.3769H572.149V0Z" fill="#D3DCE5"/>
<path d="M551.719 321.799H57.4922V399.436H551.719V321.799Z" fill="#F4F5F6" stroke="#959DA8" stroke-width="1.09175" stroke-miterlimit="10"/>
<path d="M551.719 244.163H57.4922V321.8H551.719V244.163Z" fill="#F4F5F6" stroke="#959DA8" stroke-width="1.09175" stroke-miterlimit="10"/>
<path d="M551.719 167.088H57.4922V244.725H551.719V167.088Z" fill="#F4F5F6" stroke="#959DA8" stroke-width="1.09175" stroke-miterlimit="10"/>
<path d="M551.719 89.4502H57.4922V167.087H551.719V89.4502Z" fill="#F4F5F6" stroke="#959DA8" stroke-width="1.09175" stroke-miterlimit="10"/>
<path d="M551.719 11.814H57.4922V89.4509H551.719V11.814Z" fill="#F4F5F6" stroke="#959DA8" stroke-width="1.09175" stroke-miterlimit="10"/>
<path d="M114.947 337.854H90.8398V390.225H114.947V337.854Z" fill="#D3DCE5"/>
<path d="M111.534 341.181H94.2461V366.121H111.534V341.181Z" fill="white" stroke="#959DA8" stroke-width="0.545875" stroke-miterlimit="10"/>
<path d="M82.8646 321.235H78.4258V388.746H82.8646V321.235Z" fill="#F4F5F6" stroke="#959DA8" stroke-width="1.09175" stroke-miterlimit="10"/>
<path d="M126.744 321.235H122.305V398.872H126.744V321.235Z" fill="#F4F5F6" stroke="#959DA8" stroke-width="1.09175" stroke-miterlimit="10"/>
<path d="M138.959 388.531H67.1172V394.028H138.959V388.531Z" fill="#F4F5F6" stroke="#959DA8" stroke-width="1.09175" stroke-miterlimit="10"/>
<path d="M138.959 394.016H67.1172V399.513H138.959V394.016Z" fill="#F4F5F6" stroke="#959DA8" stroke-width="1.09175" stroke-miterlimit="10"/>
<path d="M95.3595 370.461C95.981 370.461 96.4847 369.958 96.4847 369.336C96.4847 368.715 95.981 368.211 95.3595 368.211C94.7381 368.211 94.2344 368.715 94.2344 369.336C94.2344 369.958 94.7381 370.461 95.3595 370.461Z" fill="white" stroke="#959DA8" stroke-width="0.545875" stroke-miterlimit="10"/>
<path d="M401.238 101.828H418.408V144.584H401.238V101.828Z" fill="white" stroke="#959DA8" stroke-width="0.545875" stroke-miterlimit="10"/>
<path d="M418.412 114.39H401.242" stroke="#959DA8" stroke-width="0.545875" stroke-miterlimit="10"/>
<path d="M401.238 24.1914H418.408V66.948H401.238V24.1914Z" fill="white" stroke="#959DA8" stroke-width="0.545875" stroke-miterlimit="10"/>
<path d="M418.412 36.7539H401.242" stroke="#959DA8" stroke-width="0.545875" stroke-miterlimit="10"/>
<path d="M401.238 179.466H418.408V222.222H401.238V179.466Z" fill="white" stroke="#959DA8" stroke-width="0.545875" stroke-miterlimit="10"/>
<path d="M418.412 192.028H401.242" stroke="#959DA8" stroke-width="0.545875" stroke-miterlimit="10"/>
<path d="M401.238 256.54H418.408V299.297H401.238V256.54Z" fill="white" stroke="#959DA8" stroke-width="0.545875" stroke-miterlimit="10"/>
<path d="M418.412 269.101H401.242" stroke="#959DA8" stroke-width="0.545875" stroke-miterlimit="10"/>
<path d="M401.238 337.55H418.408V380.306H401.238V337.55Z" fill="white" stroke="#959DA8" stroke-width="0.545875" stroke-miterlimit="10"/>
<path d="M418.412 350.115H401.242" stroke="#959DA8" stroke-width="0.545875" stroke-miterlimit="10"/>
<path d="M192.516 258.791H209.686V301.547H192.516V258.791Z" fill="white" stroke="#959DA8" stroke-width="0.545875" stroke-miterlimit="10"/>
<path d="M209.697 271.351H192.527" stroke="#959DA8" stroke-width="0.545875" stroke-miterlimit="10"/>
<path d="M192.516 179.466H209.686V222.222H192.516V179.466Z" fill="white" stroke="#959DA8" stroke-width="0.545875" stroke-miterlimit="10"/>
<path d="M209.697 192.028H192.527" stroke="#959DA8" stroke-width="0.545875" stroke-miterlimit="10"/>
<path d="M192.516 101.828H209.686V144.584H192.516V101.828Z" fill="white" stroke="#959DA8" stroke-width="0.545875" stroke-miterlimit="10"/>
<path d="M209.697 114.39H192.527" stroke="#959DA8" stroke-width="0.545875" stroke-miterlimit="10"/>
<path d="M192.516 24.1914H209.686V66.948H192.516V24.1914Z" fill="white" stroke="#959DA8" stroke-width="0.545875" stroke-miterlimit="10"/>
<path d="M209.697 36.7539H192.527" stroke="#959DA8" stroke-width="0.545875" stroke-miterlimit="10"/>
<path d="M192.516 339.241H209.686V381.997H192.516V339.241Z" fill="white" stroke="#959DA8" stroke-width="0.545875" stroke-miterlimit="10"/>
<path d="M209.697 351.801H192.527" stroke="#959DA8" stroke-width="0.545875" stroke-miterlimit="10"/>
<path d="M211.035 384.552H190.974L190.715 379.562H211.294L211.035 384.552Z" fill="#D3DCE5"/>
<path d="M211.035 301.851H190.974L190.715 296.861H211.294L211.035 301.851Z" fill="#D3DCE5"/>
<path d="M211.035 224.774H190.974L190.715 219.784H211.294L211.035 224.774Z" fill="#D3DCE5"/>
<path d="M211.035 147.138H190.974L190.715 142.148H211.294L211.035 147.138Z" fill="#D3DCE5"/>
<path d="M211.035 69.5019H190.974L190.715 64.5117H211.294L211.035 69.5019Z" fill="#D3DCE5"/>
<path d="M419.992 384.552H399.931L399.672 379.562H420.251L419.992 384.552Z" fill="#D3DCE5"/>
<path d="M419.992 301.851H399.931L399.672 296.861H420.251L419.992 301.851Z" fill="#D3DCE5"/>
<path d="M419.992 224.774H399.931L399.672 219.784H420.251L419.992 224.774Z" fill="#D3DCE5"/>
<path d="M419.992 147.138H399.931L399.672 142.148H420.251L419.992 147.138Z" fill="#D3DCE5"/>
<path d="M419.992 69.5019H399.931L399.672 64.5117H420.251L419.992 69.5019Z" fill="#D3DCE5"/>
<path d="M68.0724 67.6556C68.2936 67.6571 68.5144 67.6345 68.7307 67.5881C78.8572 65.2871 78.8572 53.0678 78.8572 53.0678C78.9466 45.6224 76.5864 38.354 72.1399 32.3815C71.6679 31.7569 71.0574 31.2503 70.3566 30.9015C69.6557 30.5526 68.8835 30.3711 68.1006 30.3711C67.3177 30.3711 66.5454 30.5526 65.8445 30.9015C65.1436 31.2503 64.5332 31.7569 64.0612 32.3815C59.6127 38.3532 57.2505 45.6217 57.3383 53.0678C57.3383 53.0678 57.3383 65.3153 67.4311 67.5937C67.6474 67.6401 67.8681 67.6627 68.0893 67.6612L68.0724 67.6556Z" fill="#80C33F"/>
<path d="M68.0742 44.4795V86.0771" stroke="#2A3A51" stroke-width="0.545875" stroke-linecap="round" stroke-linejoin="round"/>
<path d="M463.006 65.4071C463.227 65.4086 463.448 65.3859 463.664 65.3396C473.791 63.0386 473.791 50.8192 473.791 50.8192C473.88 43.3738 471.52 36.1054 467.074 30.1329C466.601 29.5084 465.991 29.0018 465.29 28.6529C464.589 28.3041 463.817 28.1226 463.034 28.1226C462.251 28.1226 461.479 28.3041 460.778 28.6529C460.077 29.0018 459.467 29.5084 458.995 30.1329C454.546 36.1047 452.184 43.3732 452.272 50.8192C452.272 50.8192 452.272 63.0667 462.365 65.3452C462.581 65.3916 462.802 65.4142 463.023 65.4127L463.006 65.4071Z" fill="#80C33F"/>
<path d="M463.008 42.2271V83.8247" stroke="#2A3A51" stroke-width="0.545875" stroke-linecap="round" stroke-linejoin="round"/>
<path d="M105.766 302.841C105.761 301.589 106.057 300.354 106.63 299.241C107.203 298.127 108.036 297.168 109.058 296.445C110.08 295.721 111.261 295.255 112.502 295.084C113.742 294.914 115.006 295.045 116.185 295.466C116.641 293.63 117.564 291.944 118.864 290.572C120.165 289.199 121.799 288.187 123.607 287.633C125.415 287.079 127.335 287.002 129.181 287.411C131.028 287.819 132.737 288.699 134.143 289.963C135.135 287.187 137.076 284.85 139.623 283.364C142.169 281.878 145.159 281.338 148.064 281.84C150.97 282.341 153.605 283.852 155.507 286.106C157.408 288.359 158.453 291.212 158.458 294.16C158.459 294.596 158.437 295.032 158.39 295.466C159.237 295.156 160.132 294.998 161.034 294.999C165.366 294.999 169.135 298.515 168.86 302.824C168.82 303.535 168.701 304.239 168.505 304.923H106.058C105.87 304.239 105.775 303.533 105.777 302.824L105.766 302.841Z" fill="#80C33F"/>
<path d="M6.57642e-05 397.919C-0.00507659 396.667 0.291427 395.432 0.864479 394.319C1.43753 393.205 2.27026 392.246 3.29228 391.523C4.3143 390.799 5.49555 390.333 6.73606 390.162C7.97658 389.992 9.2399 390.123 10.4192 390.544C10.8749 388.708 11.798 387.023 13.0986 385.65C14.3992 384.277 16.033 383.265 17.841 382.711C19.649 382.157 21.5696 382.08 23.4159 382.489C25.2622 382.897 26.9713 383.777 28.3769 385.042C29.3698 382.265 31.3105 379.928 33.8572 378.442C36.4039 376.956 39.3932 376.416 42.2988 376.918C45.2044 377.419 47.8398 378.93 49.741 381.184C51.6422 383.438 52.6872 386.29 52.6919 389.238C52.6935 389.674 52.671 390.11 52.6244 390.544C53.4716 390.234 54.3666 390.076 55.2685 390.077C59.6005 390.077 63.3698 393.593 63.0941 397.902C63.0544 398.613 62.9356 399.317 62.7397 400.001H0.292622C0.104025 399.317 0.009391 398.611 0.0113285 397.902L6.57642e-05 397.919Z" fill="#80C33F"/>
<path d="M133.065 24.3706H84.6484V69.6926H133.065V24.3706Z" fill="white" stroke="#959DA8" stroke-width="0.545875" stroke-miterlimit="10"/>
<path d="M108.859 24.3643V69.7593" stroke="#959DA8" stroke-width="0.545875" stroke-miterlimit="10"/>
<path d="M133.065 102.009H84.6484V147.331H133.065V102.009Z" fill="white" stroke="#959DA8" stroke-width="0.545875" stroke-miterlimit="10"/>
<path d="M108.859 102.002V147.398" stroke="#959DA8" stroke-width="0.545875" stroke-miterlimit="10"/>
<path d="M133.065 179.083H84.6484V224.405H133.065V179.083Z" fill="white" stroke="#959DA8" stroke-width="0.545875" stroke-miterlimit="10"/>
<path d="M108.859 179.077V224.472" stroke="#959DA8" stroke-width="0.545875" stroke-miterlimit="10"/>
<path d="M133.065 258.406H84.6484V303.728H133.065V258.406Z" fill="white" stroke="#959DA8" stroke-width="0.545875" stroke-miterlimit="10"/>
<path d="M108.859 258.402V303.797" stroke="#959DA8" stroke-width="0.545875" stroke-miterlimit="10"/>
<path d="M297.338 24.3706H248.922V69.6926H297.338V24.3706Z" fill="white" stroke="#959DA8" stroke-width="0.545875" stroke-miterlimit="10"/>
<path d="M273.137 24.3643V69.7593" stroke="#959DA8" stroke-width="0.545875" stroke-miterlimit="10"/>
<path d="M297.338 102.009H248.922V147.331H297.338V102.009Z" fill="white" stroke="#959DA8" stroke-width="0.545875" stroke-miterlimit="10"/>
<path d="M273.137 102.002V147.398" stroke="#959DA8" stroke-width="0.545875" stroke-miterlimit="10"/>
<path d="M297.338 179.083H248.922V224.405H297.338V179.083Z" fill="white" stroke="#959DA8" stroke-width="0.545875" stroke-miterlimit="10"/>
<path d="M273.137 179.077V224.472" stroke="#959DA8" stroke-width="0.545875" stroke-miterlimit="10"/>
<path d="M297.338 258.406H248.922V303.728H297.338V258.406Z" fill="white" stroke="#959DA8" stroke-width="0.545875" stroke-miterlimit="10"/>
<path d="M273.137 258.402V303.797" stroke="#959DA8" stroke-width="0.545875" stroke-miterlimit="10"/>
<path d="M297.338 339.42H248.922V384.742H297.338V339.42Z" fill="white" stroke="#959DA8" stroke-width="0.545875" stroke-miterlimit="10"/>
<path d="M273.137 339.414V384.809" stroke="#959DA8" stroke-width="0.545875" stroke-miterlimit="10"/>
<path d="M364.85 24.3706H316.434V69.6926H364.85V24.3706Z" fill="white" stroke="#959DA8" stroke-width="0.545875" stroke-miterlimit="10"/>
<path d="M340.645 24.3643V69.7593" stroke="#959DA8" stroke-width="0.545875" stroke-miterlimit="10"/>
<path d="M364.85 102.009H316.434V147.331H364.85V102.009Z" fill="white" stroke="#959DA8" stroke-width="0.545875" stroke-miterlimit="10"/>
<path d="M340.645 102.002V147.398" stroke="#959DA8" stroke-width="0.545875" stroke-miterlimit="10"/>
<path d="M364.85 179.083H316.434V224.405H364.85V179.083Z" fill="white" stroke="#959DA8" stroke-width="0.545875" stroke-miterlimit="10"/>
<path d="M340.645 179.077V224.472" stroke="#959DA8" stroke-width="0.545875" stroke-miterlimit="10"/>
<path d="M364.85 258.406H316.434V303.728H364.85V258.406Z" fill="white" stroke="#959DA8" stroke-width="0.545875" stroke-miterlimit="10"/>
<path d="M340.645 258.402V303.797" stroke="#959DA8" stroke-width="0.545875" stroke-miterlimit="10"/>
<path d="M364.85 339.42H316.434V384.742H364.85V339.42Z" fill="white" stroke="#959DA8" stroke-width="0.545875" stroke-miterlimit="10"/>
<path d="M340.645 339.414V384.809" stroke="#959DA8" stroke-width="0.545875" stroke-miterlimit="10"/>
<path d="M522.373 24.3706H473.957V69.6926H522.373V24.3706Z" fill="white" stroke="#959DA8" stroke-width="0.545875" stroke-miterlimit="10"/>
<path d="M498.172 24.3643V69.7593" stroke="#959DA8" stroke-width="0.545875" stroke-miterlimit="10"/>
<path d="M522.373 102.009H473.957V147.331H522.373V102.009Z" fill="white" stroke="#959DA8" stroke-width="0.545875" stroke-miterlimit="10"/>
<path d="M498.172 102.002V147.398" stroke="#959DA8" stroke-width="0.545875" stroke-miterlimit="10"/>
<path d="M522.373 179.083H473.957V224.405H522.373V179.083Z" fill="white" stroke="#959DA8" stroke-width="0.545875" stroke-miterlimit="10"/>
<path d="M498.172 179.077V224.472" stroke="#959DA8" stroke-width="0.545875" stroke-miterlimit="10"/>
<path d="M522.373 258.406H473.957V303.728H522.373V258.406Z" fill="white" stroke="#959DA8" stroke-width="0.545875" stroke-miterlimit="10"/>
<path d="M498.172 258.402V303.797" stroke="#959DA8" stroke-width="0.545875" stroke-miterlimit="10"/>
<path d="M522.373 339.42H473.957V384.742H522.373V339.42Z" fill="white" stroke="#959DA8" stroke-width="0.545875" stroke-miterlimit="10"/>
<path d="M498.172 339.414V384.809" stroke="#959DA8" stroke-width="0.545875" stroke-miterlimit="10"/>
<path d="M171.586 136.989H45.8477V167.932H171.586V136.989Z" fill="#D3DCE5"/>
<path d="M171.586 59.353H45.8477V90.2953H171.586V59.353Z" fill="#D3DCE5"/>
<path d="M171.586 291.702H45.8477V322.644H171.586V291.702Z" fill="#D3DCE5"/>
<path d="M565.398 214.627H439.66V245.569H565.398V214.627Z" fill="#D3DCE5"/>
<path d="M565.398 59.353H439.66V90.2953H565.398V59.353Z" fill="#D3DCE5"/>
<path d="M565.398 291.702H439.66V322.644H565.398V291.702Z" fill="#D3DCE5"/>
<path d="M565.398 368.774H439.66V399.717H565.398V368.774Z" fill="#D3DCE5"/>
<path d="M330.664 366.091C331.016 364.322 330.998 362.498 330.613 360.736C330.234 358.991 329.491 357.345 328.43 355.909C327.399 354.507 326.067 353.353 324.531 352.533C323.032 351.731 321.365 351.294 319.665 351.258C317.965 351.222 316.28 351.588 314.748 352.325C313.186 353.077 311.813 354.171 310.731 355.526C309.619 356.916 308.816 358.527 308.374 360.252C307.924 361.999 307.839 363.821 308.126 365.602C306.855 366.267 305.745 367.202 304.875 368.342C303.981 369.51 303.339 370.851 302.99 372.28C302.634 373.725 302.572 375.227 302.81 376.696C303.045 378.154 303.577 379.548 304.374 380.792C305.149 382.006 306.178 383.039 307.389 383.819C308.578 384.581 309.925 385.062 311.328 385.225C312.716 385.385 314.124 385.224 315.44 384.752C316.777 384.275 317.992 383.506 318.996 382.502C319.967 383.492 321.142 384.26 322.439 384.752C323.711 385.236 325.076 385.428 326.433 385.315C327.794 385.191 329.11 384.766 330.287 384.072C331.49 383.36 332.529 382.401 333.336 381.259C334.163 380.089 334.747 378.765 335.052 377.366C335.363 375.953 335.393 374.492 335.142 373.068C334.908 371.642 334.39 370.277 333.617 369.056C332.853 367.871 331.846 366.86 330.664 366.091Z" fill="#80C33F"/>
<path d="M319.431 376.815L314.137 373.046" stroke="#2A3A51" stroke-width="0.545875" stroke-linecap="round" stroke-linejoin="round"/>
<path d="M319.43 381.524L325.618 375.898" stroke="#2A3A51" stroke-width="0.545875" stroke-linecap="round" stroke-linejoin="round"/>
<path d="M319.43 365.501V399.437" stroke="#2A3A51" stroke-width="0.545875" stroke-linecap="round" stroke-linejoin="round"/>
<path d="M93.9513 225.182C94.1725 225.183 94.3933 225.161 94.6096 225.114C104.736 222.814 104.736 210.594 104.736 210.594C104.826 203.149 102.465 195.88 98.0188 189.908C97.5468 189.283 96.9363 188.777 96.2355 188.428C95.5346 188.079 94.7624 187.897 93.9795 187.897C93.1966 187.897 92.4243 188.079 91.7234 188.428C91.0226 188.777 90.4121 189.283 89.9401 189.908C85.4916 195.88 83.1294 203.148 83.2172 210.594C83.2172 210.594 83.2172 222.842 93.31 225.12C93.5263 225.166 93.747 225.189 93.9682 225.188L93.9513 225.182Z" fill="#80C33F"/>
<path d="M93.9492 202.002V243.6" stroke="#2A3A51" stroke-width="0.545875" stroke-linecap="round" stroke-linejoin="round"/>
<path d="M171.586 214.627H45.8477V245.569H171.586V214.627Z" fill="#D3DCE5"/>
<path d="M498.449 145.316C498.444 144.064 498.741 142.829 499.314 141.716C499.887 140.602 500.72 139.643 501.742 138.92C502.764 138.196 503.945 137.73 505.185 137.559C506.426 137.389 507.689 137.52 508.868 137.941C509.324 136.105 510.247 134.419 511.548 133.047C512.848 131.674 514.482 130.662 516.29 130.108C518.098 129.554 520.019 129.477 521.865 129.886C523.711 130.294 525.421 131.174 526.826 132.439C527.819 129.662 529.76 127.325 532.306 125.839C534.853 124.353 537.842 123.813 540.748 124.315C543.654 124.816 546.289 126.327 548.19 128.581C550.091 130.835 551.136 133.687 551.141 136.635C551.143 137.071 551.12 137.507 551.074 137.941C551.921 137.631 552.816 137.473 553.718 137.474C558.05 137.474 561.819 140.99 561.543 145.299C561.504 146.01 561.385 146.714 561.189 147.398H498.742C498.553 146.714 498.459 146.008 498.461 145.299L498.449 145.316Z" fill="#80C33F"/>
<path d="M565.398 136.989H439.66V167.932H565.398V136.989Z" fill="#D3DCE5"/>
<path d="M572.147 378.486C572.4 378.487 572.653 378.461 572.901 378.407C584.422 375.785 584.428 361.827 584.428 361.827C584.428 342.806 572.152 333.271 572.152 333.271C572.152 333.271 559.871 342.784 559.871 361.827C559.871 361.827 559.871 375.802 571.393 378.407C571.64 378.461 571.893 378.487 572.147 378.486Z" fill="#80C33F"/>
<path d="M572.148 352.039V399.516" stroke="#2A3A51" stroke-width="0.545875" stroke-linecap="round" stroke-linejoin="round"/>
<path d="M636.627 379.827C636.867 379.829 637.107 379.804 637.341 379.752C648.254 377.269 648.26 364.049 648.26 364.049C648.26 346.032 636.633 337 636.633 337C636.633 337 625 346.011 625 364.049C625 364.049 625 377.285 635.913 379.752C636.148 379.803 636.387 379.828 636.627 379.827Z" fill="#80C33F"/>
<path fill-rule="evenodd" clip-rule="evenodd" d="M636.626 354.51C636.773 354.51 636.892 354.629 636.892 354.776V399.745C636.892 399.892 636.773 400.012 636.626 400.012C636.479 400.012 636.359 399.892 636.359 399.745V354.776C636.359 354.629 636.479 354.51 636.626 354.51Z" fill="#2A3A51"/>
<path fill-rule="evenodd" clip-rule="evenodd" d="M690.875 390.036V347.657H691.941V390.036H690.875Z" fill="#959DA8"/>
<path d="M700.099 360.696H682.711L688.146 347.657H694.663L700.099 360.696Z" fill="#D3DCE5"/>
<path fill-rule="evenodd" clip-rule="evenodd" d="M686.934 360.635L689.992 347.596L690.511 347.717L687.452 360.757L686.934 360.635Z" fill="#959DA8"/>
<path fill-rule="evenodd" clip-rule="evenodd" d="M695.43 360.757L692.371 347.717L692.89 347.596L695.949 360.635L695.43 360.757Z" fill="#959DA8"/>
<path d="M669.076 366.516L668.181 366.351C667.492 367.313 667.198 368.503 667.36 369.676C667.395 369.917 667.522 370.135 667.713 370.286C667.904 370.437 668.146 370.509 668.389 370.487C668.632 370.465 668.857 370.351 669.018 370.169C669.18 369.986 669.265 369.749 669.257 369.505C669.287 368.505 669.227 367.505 669.076 366.516Z" fill="white"/>
<path fill-rule="evenodd" clip-rule="evenodd" d="M668.059 366.058L669.121 366.254L669.073 366.516L669.336 366.475C669.489 367.478 669.551 368.492 669.52 369.505C669.528 369.813 669.419 370.114 669.215 370.345C669.008 370.579 668.72 370.724 668.41 370.752C668.099 370.78 667.79 370.688 667.545 370.495C667.3 370.302 667.139 370.023 667.093 369.714L667.357 369.675L667.093 369.712C666.922 368.472 667.232 367.213 667.961 366.195L668.059 366.058ZM667.621 369.638C667.646 369.811 667.737 369.968 667.875 370.077C668.013 370.185 668.187 370.237 668.362 370.221C668.537 370.206 668.699 370.124 668.816 369.992C668.932 369.861 668.993 369.689 668.988 369.514L668.987 369.505L668.988 369.497C669.015 368.576 668.965 367.655 668.837 366.743L668.299 366.644C667.718 367.525 667.476 368.589 667.621 369.638Z" fill="#959DA8"/>
<path d="M671.711 364.864L671.951 363.985C673.117 363.782 674.316 364.034 675.302 364.688C675.504 364.825 675.646 365.033 675.699 365.271C675.752 365.509 675.712 365.758 675.587 365.967C675.462 366.176 675.262 366.329 675.028 366.396C674.794 366.462 674.543 366.437 674.327 366.324C673.413 365.918 672.537 365.429 671.711 364.864Z" fill="white"/>
<path fill-rule="evenodd" clip-rule="evenodd" d="M672.165 364.222L672.02 364.75C672.787 365.261 673.596 365.706 674.438 366.081L674.445 366.084L674.453 366.088C674.608 366.169 674.789 366.187 674.958 366.139C675.127 366.091 675.271 365.981 675.36 365.83C675.45 365.679 675.479 365.5 675.441 365.329C675.403 365.158 675.301 365.008 675.156 364.91C674.274 364.324 673.21 364.081 672.165 364.222ZM675.305 364.688L675.452 364.466C674.409 363.774 673.141 363.508 671.907 363.722L671.741 363.751L671.406 364.977L671.563 365.084C672.4 365.657 673.288 366.152 674.214 366.565C674.489 366.705 674.806 366.736 675.103 366.652C675.403 366.567 675.659 366.37 675.818 366.103C675.978 365.835 676.029 365.517 675.961 365.213C675.893 364.909 675.712 364.642 675.454 364.468L675.305 364.688Z" fill="#959DA8"/>
<path d="M674.396 366.766C674.745 367.387 674.842 368.119 674.666 368.809C674.491 369.5 674.057 370.096 673.453 370.476C672.85 370.855 672.125 370.988 671.426 370.847C670.728 370.706 670.111 370.302 669.702 369.718C668.934 368.493 668.599 365.631 669.894 364.816C671.189 364.001 673.629 365.541 674.396 366.766Z" fill="white"/>
<path fill-rule="evenodd" clip-rule="evenodd" d="M671.006 364.869C670.623 364.825 670.294 364.879 670.036 365.041C669.779 365.203 669.588 365.476 669.462 365.84C669.337 366.204 669.283 366.644 669.292 367.108C669.309 368.04 669.574 369.008 669.925 369.571C670.294 370.095 670.851 370.458 671.48 370.585C672.111 370.713 672.767 370.593 673.312 370.25C673.858 369.907 674.25 369.368 674.409 368.744C674.567 368.121 674.481 367.462 674.168 366.902C673.815 366.341 673.057 365.682 672.224 365.264C671.809 365.055 671.389 364.913 671.006 364.869ZM672.463 364.788C673.363 365.24 674.207 365.961 674.623 366.625L674.63 366.635L674.63 366.636C675.012 367.316 675.118 368.118 674.925 368.875C674.733 369.632 674.257 370.285 673.596 370.701C672.935 371.117 672.14 371.262 671.374 371.108C670.609 370.953 669.932 370.51 669.484 369.871L669.476 369.86L669.477 369.86C669.062 369.196 668.777 368.124 668.759 367.118C668.749 366.612 668.807 366.106 668.958 365.667C669.11 365.226 669.362 364.836 669.752 364.59C670.143 364.345 670.604 364.286 671.067 364.34C671.53 364.393 672.01 364.56 672.463 364.788Z" fill="#959DA8"/>
<path d="M667.037 364.409C667.547 364.088 667.701 363.414 667.38 362.903C667.059 362.392 666.385 362.238 665.874 362.559C665.363 362.88 665.209 363.555 665.531 364.065C665.852 364.576 666.526 364.73 667.037 364.409Z" fill="white"/>
<path fill-rule="evenodd" clip-rule="evenodd" d="M666.012 362.785C665.626 363.027 665.51 363.537 665.752 363.924C665.995 364.31 666.505 364.426 666.891 364.183C667.277 363.941 667.394 363.431 667.151 363.044C666.908 362.658 666.398 362.542 666.012 362.785ZM665.301 364.207C664.902 363.572 665.093 362.733 665.729 362.334C666.364 361.934 667.203 362.126 667.602 362.761C668.001 363.396 667.81 364.235 667.175 364.634C666.539 365.034 665.701 364.842 665.301 364.207Z" fill="#959DA8"/>
<path d="M672.137 364.422C672.65 364.102 672.807 363.427 672.487 362.914C672.167 362.401 671.492 362.245 670.979 362.565C670.467 362.884 670.31 363.559 670.63 364.072C670.949 364.585 671.624 364.741 672.137 364.422Z" fill="white"/>
<path fill-rule="evenodd" clip-rule="evenodd" d="M670.117 360.791C669.729 361.033 669.611 361.543 669.853 361.931C670.095 362.318 670.605 362.437 670.993 362.195C671.38 361.953 671.499 361.443 671.257 361.055C671.015 360.667 670.505 360.549 670.117 360.791ZM669.4 362.213C669.002 361.575 669.197 360.736 669.835 360.338C670.473 359.94 671.312 360.135 671.71 360.773C672.108 361.411 671.913 362.25 671.275 362.648C670.637 363.046 669.798 362.851 669.4 362.213Z" fill="#959DA8"/>
<path d="M670.74 366.147C672.036 365.332 672.463 363.681 671.694 362.457C670.925 361.234 669.251 360.902 667.955 361.716C666.66 362.531 666.233 364.183 667.002 365.406C667.771 366.63 669.444 366.961 670.74 366.147Z" fill="white"/>
<path fill-rule="evenodd" clip-rule="evenodd" d="M668.093 361.942C666.91 362.686 666.54 364.178 667.224 365.265C667.907 366.351 669.411 366.665 670.594 365.921C671.778 365.178 672.147 363.686 671.464 362.599C670.781 361.512 669.277 361.198 668.093 361.942ZM666.772 365.548C665.918 364.188 666.402 362.376 667.81 361.491C669.218 360.606 671.061 360.956 671.916 362.316C672.77 363.676 672.286 365.488 670.878 366.373C669.47 367.258 667.627 366.908 666.772 365.548Z" fill="#959DA8"/>
<path d="M672.403 371.839C672.593 371.186 672.134 370.478 671.377 370.257C670.62 370.036 669.851 370.386 669.661 371.039C669.471 371.692 669.93 372.4 670.687 372.621C671.445 372.841 672.213 372.491 672.403 371.839Z" fill="white"/>
<path fill-rule="evenodd" clip-rule="evenodd" d="M669.919 371.115C669.781 371.589 670.11 372.17 670.761 372.36C671.411 372.55 672.001 372.236 672.139 371.763C672.277 371.289 671.949 370.708 671.298 370.518C670.647 370.329 670.057 370.642 669.919 371.115ZM670.608 372.882C669.745 372.63 669.155 371.795 669.397 370.963C669.64 370.131 670.586 369.745 671.45 369.997C672.313 370.248 672.904 371.083 672.661 371.915C672.418 372.747 671.472 373.134 670.608 372.882Z" fill="#959DA8"/>
<path d="M676.311 369.057C676.441 368.279 676.002 367.558 675.332 367.447C674.661 367.335 674.012 367.875 673.883 368.653C673.753 369.431 674.192 370.152 674.863 370.264C675.533 370.376 676.182 369.835 676.311 369.057Z" fill="white"/>
<path fill-rule="evenodd" clip-rule="evenodd" d="M674.148 368.697C674.036 369.368 674.418 369.919 674.908 370.001C675.398 370.083 675.939 369.684 676.05 369.013C676.162 368.343 675.78 367.791 675.29 367.709C674.8 367.628 674.259 368.026 674.148 368.697ZM674.821 370.527C673.97 370.385 673.475 369.494 673.622 368.609C673.769 367.724 674.526 367.042 675.377 367.184C676.228 367.325 676.723 368.216 676.576 369.101C676.429 369.986 675.672 370.668 674.821 370.527Z" fill="#959DA8"/>
<path fill-rule="evenodd" clip-rule="evenodd" d="M669.155 365.353C669.041 365.611 669.04 365.861 669.159 366.051C669.279 366.241 669.505 366.348 669.786 366.357C670.066 366.367 670.395 366.278 670.701 366.085C671.008 365.893 671.23 365.635 671.343 365.378C671.456 365.121 671.458 364.871 671.339 364.681C671.219 364.491 670.993 364.384 670.712 364.374C670.431 364.365 670.103 364.453 669.797 364.646C669.49 364.839 669.268 365.096 669.155 365.353ZM669.033 365.3C669.158 365.015 669.4 364.738 669.726 364.533C670.052 364.328 670.406 364.231 670.717 364.241C671.027 364.252 671.301 364.371 671.451 364.61C671.601 364.849 671.59 365.148 671.465 365.432C671.34 365.716 671.098 365.993 670.772 366.198C670.446 366.403 670.092 366.501 669.781 366.49C669.471 366.48 669.197 366.36 669.047 366.121C668.897 365.883 668.908 365.584 669.033 365.3Z" fill="#959DA8"/>
<path d="M668.485 364.526C668.517 364.386 668.429 364.246 668.289 364.213C668.148 364.181 668.008 364.269 667.976 364.41C667.944 364.551 668.032 364.691 668.173 364.723C668.313 364.755 668.453 364.667 668.485 364.526Z" fill="#959DA8"/>
<path d="M670.33 363.414C670.435 363.348 670.466 363.21 670.4 363.106C670.335 363.001 670.197 362.969 670.092 363.035C669.987 363.101 669.956 363.239 670.021 363.344C670.087 363.448 670.225 363.48 670.33 363.414Z" fill="#959DA8"/>
<path d="M670.287 365.423C670.437 365.329 670.498 365.158 670.425 365.041C670.351 364.924 670.17 364.905 670.021 364.999C669.871 365.093 669.81 365.264 669.883 365.381C669.957 365.498 670.138 365.517 670.287 365.423Z" fill="#959DA8"/>
<path fill-rule="evenodd" clip-rule="evenodd" d="M670.411 365.73L670.246 365.469L670.359 365.397L670.524 365.659L670.411 365.73Z" fill="#959DA8"/>
<path fill-rule="evenodd" clip-rule="evenodd" d="M670.853 365.426C670.661 365.676 670.386 365.849 670.078 365.914L670.051 365.784C670.328 365.725 670.575 365.569 670.747 365.345L670.853 365.426Z" fill="#959DA8"/>
<path d="M684.24 369.095H666.309V383.941H684.24V369.095Z" fill="#F4F5F6"/>
<path fill-rule="evenodd" clip-rule="evenodd" d="M665.773 368.562H684.77V384.474H665.773V368.562ZM666.839 369.628V383.408H683.705V369.628H666.839Z" fill="#959DA8"/>
<path fill-rule="evenodd" clip-rule="evenodd" d="M678.056 369.095V383.941H677.523V369.095H678.056Z" fill="#959DA8"/>
<path d="M665.78 368.626L661.57 372.271H674.199L677.807 368.626H665.78Z" fill="#D3DCE5"/>
<path d="M687.999 371.712H680.959L677.805 368.626H684.839L687.999 371.712Z" fill="#D3DCE5"/>
<path d="M678.915 383.941H660.984V398.787H678.915V383.941Z" fill="#F4F5F6"/>
<path fill-rule="evenodd" clip-rule="evenodd" d="M660.453 383.408H679.45V399.319H660.453V383.408ZM661.519 384.473V398.254H678.384V384.473H661.519Z" fill="#959DA8"/>
<path fill-rule="evenodd" clip-rule="evenodd" d="M672.728 384.33V398.792H672.195V384.33H672.728Z" fill="#959DA8"/>
<path d="M696.849 383.941H678.918V398.787H696.849V383.941Z" fill="#F4F5F6"/>
<path fill-rule="evenodd" clip-rule="evenodd" d="M678.379 383.408H697.376V399.319H678.379V383.408ZM679.445 384.473V398.254H696.31V384.473H679.445Z" fill="#959DA8"/>
<path fill-rule="evenodd" clip-rule="evenodd" d="M693.748 383.941V398.792H693.215V383.941H693.748Z" fill="#959DA8"/>
<path d="M656.936 399.047H645.25L653.664 383.151H665.35L656.936 399.047Z" fill="#F4F5F6"/>
<path fill-rule="evenodd" clip-rule="evenodd" d="M653.341 382.619H666.233L657.255 399.58H644.363L653.341 382.619ZM653.983 383.684L646.133 398.514H656.613L664.463 383.684H653.983Z" fill="#959DA8"/>
<path d="M655.061 386.636C655.716 385.63 655.947 384.619 655.577 384.378C655.207 384.137 654.376 384.757 653.721 385.764C653.066 386.77 652.835 387.781 653.205 388.022C653.575 388.263 654.406 387.642 655.061 386.636Z" fill="#D3DCE5"/>
<path d="M657.112 394.323C658.711 391.867 659.278 389.4 658.378 388.814C657.477 388.228 655.451 389.745 653.852 392.201C652.253 394.658 651.687 397.124 652.587 397.71C653.487 398.296 655.513 396.78 657.112 394.323Z" fill="#D3DCE5"/>
<path fill-rule="evenodd" clip-rule="evenodd" d="M657.196 384.66V392.185H650.926L657.196 384.66ZM652.063 391.652H656.663V386.132L652.063 391.652Z" fill="#959DA8"/>
</svg>
