<svg width="538" height="434" viewBox="0 0 538 434" fill="none" xmlns="http://www.w3.org/2000/svg">
<path d="M519.905 0H30.1602V11.2468H519.905V0Z" fill="#D3DCE5"/>
<path d="M501.344 361.942H52.2461V432.49H501.344V361.942Z" fill="#F4F5F6" stroke="#959DA8" stroke-width="1.02243" stroke-miterlimit="10"/>
<path d="M501.344 291.393H52.2461V361.94H501.344V291.393Z" fill="#F4F5F6" stroke="#959DA8" stroke-width="1.02243" stroke-miterlimit="10"/>
<path d="M501.344 221.357H52.2461V291.905H501.344V221.357Z" fill="#F4F5F6" stroke="#959DA8" stroke-width="1.02243" stroke-miterlimit="10"/>
<path d="M501.344 150.811H52.2461V221.359H501.344V150.811Z" fill="#F4F5F6" stroke="#959DA8" stroke-width="1.02243" stroke-miterlimit="10"/>
<path d="M501.344 80.2632H52.2461V150.811H501.344V80.2632Z" fill="#F4F5F6" stroke="#959DA8" stroke-width="1.02243" stroke-miterlimit="10"/>
<path d="M108.381 303.152H66.9727V361.374H108.381V303.152Z" fill="white" stroke="#959DA8" stroke-width="0.511216" stroke-miterlimit="10"/>
<path d="M90.2227 303.032V360.411" stroke="#959DA8" stroke-width="0.511216" stroke-miterlimit="10"/>
<path d="M108.381 232.602H66.9727V290.824H108.381V232.602Z" fill="white" stroke="#959DA8" stroke-width="0.511216" stroke-miterlimit="10"/>
<path d="M90.2227 232.482V289.861" stroke="#959DA8" stroke-width="0.511216" stroke-miterlimit="10"/>
<path d="M108.381 162.054H66.9727V220.277H108.381V162.054Z" fill="white" stroke="#959DA8" stroke-width="0.511216" stroke-miterlimit="10"/>
<path d="M90.2227 161.933V219.312" stroke="#959DA8" stroke-width="0.511216" stroke-miterlimit="10"/>
<path d="M108.381 91.5063H66.9727V149.729H108.381V91.5063Z" fill="white" stroke="#959DA8" stroke-width="0.511216" stroke-miterlimit="10"/>
<path d="M90.2227 91.3848V148.764" stroke="#959DA8" stroke-width="0.511216" stroke-miterlimit="10"/>
<path d="M485.143 303.664H443.734V361.886H485.143V303.664Z" fill="white" stroke="#959DA8" stroke-width="0.511216" stroke-miterlimit="10"/>
<path d="M467 303.54V360.919" stroke="#959DA8" stroke-width="0.511216" stroke-miterlimit="10"/>
<path d="M485.143 233.114H443.734V291.337H485.143V233.114Z" fill="white" stroke="#959DA8" stroke-width="0.511216" stroke-miterlimit="10"/>
<path d="M467 232.99V290.369" stroke="#959DA8" stroke-width="0.511216" stroke-miterlimit="10"/>
<path d="M485.143 162.564H443.734V220.787H485.143V162.564Z" fill="white" stroke="#959DA8" stroke-width="0.511216" stroke-miterlimit="10"/>
<path d="M467 162.444V219.823" stroke="#959DA8" stroke-width="0.511216" stroke-miterlimit="10"/>
<path d="M485.143 92.0166H443.734V150.239H485.143V92.0166Z" fill="white" stroke="#959DA8" stroke-width="0.511216" stroke-miterlimit="10"/>
<path d="M467 91.8965V149.275" stroke="#959DA8" stroke-width="0.511216" stroke-miterlimit="10"/>
<path d="M501.344 10.2236H52.2461V80.7715H501.344V10.2236Z" fill="#F4F5F6" stroke="#959DA8" stroke-width="1.02243" stroke-miterlimit="10"/>
<path d="M108.381 21.4707H66.9727V79.6931H108.381V21.4707Z" fill="white" stroke="#959DA8" stroke-width="0.511216" stroke-miterlimit="10"/>
<path d="M90.2227 21.3506V78.7295" stroke="#959DA8" stroke-width="0.511216" stroke-miterlimit="10"/>
<path d="M485.143 21.9824H443.734V80.2048H485.143V21.9824Z" fill="white" stroke="#959DA8" stroke-width="0.511216" stroke-miterlimit="10"/>
<path d="M467 21.8589V79.2378" stroke="#959DA8" stroke-width="0.511216" stroke-miterlimit="10"/>
<path d="M327.053 402.189C327.373 400.581 327.357 398.924 327.007 397.323C326.663 395.737 325.987 394.242 325.023 392.936C324.086 391.662 322.875 390.614 321.48 389.869C320.118 389.14 318.603 388.744 317.058 388.711C315.513 388.678 313.983 389.01 312.59 389.68C311.171 390.364 309.924 391.358 308.94 392.589C307.93 393.852 307.2 395.316 306.798 396.883C306.389 398.471 306.312 400.126 306.573 401.745C305.418 402.349 304.41 403.199 303.618 404.234C302.806 405.296 302.223 406.514 301.906 407.813C301.582 409.126 301.526 410.491 301.742 411.826C301.956 413.151 302.44 414.418 303.164 415.548C303.868 416.651 304.803 417.589 305.904 418.298C306.984 418.991 308.208 419.428 309.482 419.576C310.744 419.722 312.023 419.575 313.219 419.146C314.434 418.712 315.538 418.014 316.45 417.102C317.333 418.001 318.4 418.699 319.579 419.146C320.735 419.586 321.975 419.76 323.208 419.658C324.445 419.545 325.641 419.159 326.71 418.528C327.804 417.881 328.748 417.01 329.481 415.972C330.232 414.909 330.763 413.706 331.04 412.434C331.323 411.15 331.351 409.823 331.122 408.529C330.91 407.233 330.439 405.993 329.737 404.884C329.042 403.806 328.127 402.888 327.053 402.189Z" fill="#80C33F"/>
<path d="M316.846 411.931L312.035 408.506" stroke="#2A3A51" stroke-width="0.511216" stroke-linecap="round" stroke-linejoin="round"/>
<path d="M316.844 416.21L322.467 411.098" stroke="#2A3A51" stroke-width="0.511216" stroke-linecap="round" stroke-linejoin="round"/>
<path d="M316.844 401.653V432.489" stroke="#2A3A51" stroke-width="0.511216" stroke-linecap="round" stroke-linejoin="round"/>
<path d="M519.909 413.453C520.139 413.454 520.369 413.43 520.594 413.381C531.063 410.999 531.068 398.316 531.068 398.316C531.068 381.031 519.914 372.366 519.914 372.366C519.914 372.366 508.754 381.011 508.754 398.316C508.754 398.316 508.754 411.014 519.224 413.381C519.449 413.43 519.678 413.454 519.909 413.453Z" fill="#80C33F"/>
<path d="M519.906 389.421V432.562" stroke="#2A3A51" stroke-width="0.511216" stroke-linecap="round" stroke-linejoin="round"/>
<path d="M5.97612e-05 431.109C-0.00461304 429.971 0.264808 428.849 0.785534 427.837C1.30626 426.825 2.06297 425.954 2.99167 425.297C3.92037 424.639 4.99374 424.215 6.12098 424.06C7.24823 423.905 8.39619 424.024 9.46778 424.407C9.88192 422.739 10.7207 421.207 11.9026 419.96C13.0844 418.713 14.569 417.792 16.2119 417.289C17.8548 416.786 19.6 416.716 21.2778 417.087C22.9555 417.459 24.5085 418.258 25.7858 419.407C26.688 416.884 28.4515 414.761 30.7656 413.41C33.0798 412.06 35.7962 411.569 38.4365 412.025C41.0768 412.481 43.4716 413.854 45.1991 415.902C46.9267 417.95 47.8763 420.542 47.8806 423.221C47.882 423.617 47.8615 424.013 47.8192 424.407C48.589 424.126 49.4023 423.982 50.2219 423.983C54.1583 423.983 57.5834 427.178 57.333 431.094C57.2969 431.739 57.1888 432.379 57.0109 433H0.255668C0.0842921 432.379 -0.00170081 431.738 5.97612e-05 431.094V431.109Z" fill="#80C33F"/>
<path d="M377.536 10.2236H172.027V432.233H377.536V10.2236Z" fill="#F4F5F6" stroke="#959DA8" stroke-width="1.10934" stroke-miterlimit="10"/>
<path d="M287.468 376.529H265.562V424.118H287.468V376.529Z" fill="#D3DCE5"/>
<path d="M284.37 379.552H268.66V402.214H284.37V379.552Z" fill="white" stroke="#959DA8" stroke-width="0.511216" stroke-miterlimit="10"/>
<path d="M248.088 361.43H244.055V422.776H248.088V361.43Z" fill="#F4F5F6" stroke="#959DA8" stroke-width="1.02243" stroke-miterlimit="10"/>
<path d="M309.428 361.43H305.395V431.978H309.428V361.43Z" fill="#F4F5F6" stroke="#959DA8" stroke-width="1.02243" stroke-miterlimit="10"/>
<path d="M309.286 422.58H244.004V427.574H309.286V422.58Z" fill="#F4F5F6" stroke="#959DA8" stroke-width="1.02243" stroke-miterlimit="10"/>
<path d="M309.286 427.567H244.004V432.562H309.286V427.567Z" fill="#F4F5F6" stroke="#959DA8" stroke-width="1.02243" stroke-miterlimit="10"/>
<path d="M269.663 406.162C270.228 406.162 270.685 405.704 270.685 405.139C270.685 404.574 270.228 404.117 269.663 404.117C269.098 404.117 268.641 404.574 268.641 405.139C268.641 405.704 269.098 406.162 269.663 406.162Z" fill="white" stroke="#959DA8" stroke-width="0.511216" stroke-miterlimit="10"/>
<path d="M336.382 351.203H216.246V362.45H336.382V351.203Z" fill="#D3DCE5"/>
<path d="M103.469 192.983V221.356H98.582L98.5871 192.983H103.469Z" fill="#F4F5F6" stroke="#959DA8" stroke-width="0.511216" stroke-miterlimit="10"/>
<path d="M108.584 192.983H103.59V221.356H108.584V192.983Z" fill="#F4F5F6" stroke="#959DA8" stroke-width="0.511216" stroke-miterlimit="10"/>
<path d="M113.694 192.983H108.699V221.356H113.694V192.983Z" fill="#F4F5F6" stroke="#959DA8" stroke-width="0.511216" stroke-miterlimit="10"/>
<path d="M118.807 192.983H113.812V221.356H118.807V192.983Z" fill="#F4F5F6" stroke="#959DA8" stroke-width="0.511216" stroke-miterlimit="10"/>
<path d="M52.3482 192.983V221.356H47.4609L47.4661 192.983H52.3482Z" fill="#F4F5F6" stroke="#959DA8" stroke-width="0.511216" stroke-miterlimit="10"/>
<path d="M47.2349 192.983V221.356H42.3477L42.3528 192.983H47.2349Z" fill="#F4F5F6" stroke="#959DA8" stroke-width="0.511216" stroke-miterlimit="10"/>
<path d="M57.4594 192.983H52.4648V221.356H57.4594V192.983Z" fill="#F4F5F6" stroke="#959DA8" stroke-width="0.511216" stroke-miterlimit="10"/>
<path d="M62.5688 192.983H57.5742V221.356H62.5688V192.983Z" fill="#F4F5F6" stroke="#959DA8" stroke-width="0.511216" stroke-miterlimit="10"/>
<path d="M67.686 192.983H62.6914V221.356H67.686V192.983Z" fill="#F4F5F6" stroke="#959DA8" stroke-width="0.511216" stroke-miterlimit="10"/>
<path d="M72.7954 192.983H67.8008V221.356H72.7954V192.983Z" fill="#F4F5F6" stroke="#959DA8" stroke-width="0.511216" stroke-miterlimit="10"/>
<path d="M77.9086 192.983H72.9141V221.356H77.9086V192.983Z" fill="#F4F5F6" stroke="#959DA8" stroke-width="0.511216" stroke-miterlimit="10"/>
<path d="M83.0219 192.983H78.0273V221.356H83.0219V192.983Z" fill="#F4F5F6" stroke="#959DA8" stroke-width="0.511216" stroke-miterlimit="10"/>
<path d="M88.1352 192.983H83.1406V221.356H88.1352V192.983Z" fill="#F4F5F6" stroke="#959DA8" stroke-width="0.511216" stroke-miterlimit="10"/>
<path d="M93.2446 192.983H88.25V221.356H93.2446V192.983Z" fill="#F4F5F6" stroke="#959DA8" stroke-width="0.511216" stroke-miterlimit="10"/>
<path d="M98.354 192.983H93.3594V221.356H98.354V192.983Z" fill="#F4F5F6" stroke="#959DA8" stroke-width="0.511216" stroke-miterlimit="10"/>
<path d="M118.604 193.238H42.5703V221.355H118.604V193.238Z" stroke="#959DA8" stroke-width="1.02243" stroke-miterlimit="10"/>
<path d="M103.469 122.438V150.81H98.582L98.5871 122.438H103.469Z" fill="#F4F5F6" stroke="#959DA8" stroke-width="0.511216" stroke-miterlimit="10"/>
<path d="M108.584 122.438H103.59V150.81H108.584V122.438Z" fill="#F4F5F6" stroke="#959DA8" stroke-width="0.511216" stroke-miterlimit="10"/>
<path d="M113.694 122.438H108.699V150.81H113.694V122.438Z" fill="#F4F5F6" stroke="#959DA8" stroke-width="0.511216" stroke-miterlimit="10"/>
<path d="M118.807 122.438H113.812V150.81H118.807V122.438Z" fill="#F4F5F6" stroke="#959DA8" stroke-width="0.511216" stroke-miterlimit="10"/>
<path d="M52.3482 122.438V150.81H47.4609L47.4661 122.438H52.3482Z" fill="#F4F5F6" stroke="#959DA8" stroke-width="0.511216" stroke-miterlimit="10"/>
<path d="M47.2349 122.438V150.81H42.3477L42.3528 122.438H47.2349Z" fill="#F4F5F6" stroke="#959DA8" stroke-width="0.511216" stroke-miterlimit="10"/>
<path d="M57.4594 122.438H52.4648V150.81H57.4594V122.438Z" fill="#F4F5F6" stroke="#959DA8" stroke-width="0.511216" stroke-miterlimit="10"/>
<path d="M62.5688 122.438H57.5742V150.81H62.5688V122.438Z" fill="#F4F5F6" stroke="#959DA8" stroke-width="0.511216" stroke-miterlimit="10"/>
<path d="M67.686 122.438H62.6914V150.81H67.686V122.438Z" fill="#F4F5F6" stroke="#959DA8" stroke-width="0.511216" stroke-miterlimit="10"/>
<path d="M72.7954 122.438H67.8008V150.81H72.7954V122.438Z" fill="#F4F5F6" stroke="#959DA8" stroke-width="0.511216" stroke-miterlimit="10"/>
<path d="M77.9086 122.438H72.9141V150.81H77.9086V122.438Z" fill="#F4F5F6" stroke="#959DA8" stroke-width="0.511216" stroke-miterlimit="10"/>
<path d="M83.0219 122.438H78.0273V150.81H83.0219V122.438Z" fill="#F4F5F6" stroke="#959DA8" stroke-width="0.511216" stroke-miterlimit="10"/>
<path d="M88.1352 122.438H83.1406V150.81H88.1352V122.438Z" fill="#F4F5F6" stroke="#959DA8" stroke-width="0.511216" stroke-miterlimit="10"/>
<path d="M93.2446 122.438H88.25V150.81H93.2446V122.438Z" fill="#F4F5F6" stroke="#959DA8" stroke-width="0.511216" stroke-miterlimit="10"/>
<path d="M98.354 122.438H93.3594V150.81H98.354V122.438Z" fill="#F4F5F6" stroke="#959DA8" stroke-width="0.511216" stroke-miterlimit="10"/>
<path d="M118.604 122.692H42.5703V150.809H118.604V122.692Z" stroke="#959DA8" stroke-width="1.02243" stroke-miterlimit="10"/>
<path d="M103.469 263.531V291.904H98.582L98.5871 263.531H103.469Z" fill="#F4F5F6" stroke="#959DA8" stroke-width="0.511216" stroke-miterlimit="10"/>
<path d="M108.584 263.531H103.59V291.904H108.584V263.531Z" fill="#F4F5F6" stroke="#959DA8" stroke-width="0.511216" stroke-miterlimit="10"/>
<path d="M113.694 263.531H108.699V291.904H113.694V263.531Z" fill="#F4F5F6" stroke="#959DA8" stroke-width="0.511216" stroke-miterlimit="10"/>
<path d="M118.807 263.531H113.812V291.904H118.807V263.531Z" fill="#F4F5F6" stroke="#959DA8" stroke-width="0.511216" stroke-miterlimit="10"/>
<path d="M52.3482 263.531V291.904H47.4609L47.4661 263.531H52.3482Z" fill="#F4F5F6" stroke="#959DA8" stroke-width="0.511216" stroke-miterlimit="10"/>
<path d="M47.2349 263.531V291.904H42.3477L42.3528 263.531H47.2349Z" fill="#F4F5F6" stroke="#959DA8" stroke-width="0.511216" stroke-miterlimit="10"/>
<path d="M57.4594 263.531H52.4648V291.904H57.4594V263.531Z" fill="#F4F5F6" stroke="#959DA8" stroke-width="0.511216" stroke-miterlimit="10"/>
<path d="M62.5688 263.531H57.5742V291.904H62.5688V263.531Z" fill="#F4F5F6" stroke="#959DA8" stroke-width="0.511216" stroke-miterlimit="10"/>
<path d="M67.686 263.531H62.6914V291.904H67.686V263.531Z" fill="#F4F5F6" stroke="#959DA8" stroke-width="0.511216" stroke-miterlimit="10"/>
<path d="M72.7954 263.531H67.8008V291.904H72.7954V263.531Z" fill="#F4F5F6" stroke="#959DA8" stroke-width="0.511216" stroke-miterlimit="10"/>
<path d="M77.9086 263.531H72.9141V291.904H77.9086V263.531Z" fill="#F4F5F6" stroke="#959DA8" stroke-width="0.511216" stroke-miterlimit="10"/>
<path d="M83.0219 263.531H78.0273V291.904H83.0219V263.531Z" fill="#F4F5F6" stroke="#959DA8" stroke-width="0.511216" stroke-miterlimit="10"/>
<path d="M88.1352 263.531H83.1406V291.904H88.1352V263.531Z" fill="#F4F5F6" stroke="#959DA8" stroke-width="0.511216" stroke-miterlimit="10"/>
<path d="M93.2446 263.531H88.25V291.904H93.2446V263.531Z" fill="#F4F5F6" stroke="#959DA8" stroke-width="0.511216" stroke-miterlimit="10"/>
<path d="M98.354 263.531H93.3594V291.904H98.354V263.531Z" fill="#F4F5F6" stroke="#959DA8" stroke-width="0.511216" stroke-miterlimit="10"/>
<path d="M118.604 263.788H42.5703V291.905H118.604V263.788Z" stroke="#959DA8" stroke-width="1.02243" stroke-miterlimit="10"/>
<path d="M493.524 122.438V150.81H488.637L488.642 122.438H493.524Z" fill="#F4F5F6" stroke="#959DA8" stroke-width="0.511216" stroke-miterlimit="10"/>
<path d="M498.647 122.438H493.652V150.81H498.647V122.438Z" fill="#F4F5F6" stroke="#959DA8" stroke-width="0.511216" stroke-miterlimit="10"/>
<path d="M503.748 122.438H498.754V150.81H503.748V122.438Z" fill="#F4F5F6" stroke="#959DA8" stroke-width="0.511216" stroke-miterlimit="10"/>
<path d="M508.862 122.438H503.867V150.81H508.862V122.438Z" fill="#F4F5F6" stroke="#959DA8" stroke-width="0.511216" stroke-miterlimit="10"/>
<path d="M442.407 122.438V150.81H437.52L437.525 122.438H442.407Z" fill="#F4F5F6" stroke="#959DA8" stroke-width="0.511216" stroke-miterlimit="10"/>
<path d="M437.293 122.438V150.81H432.406L432.411 122.438H437.293Z" fill="#F4F5F6" stroke="#959DA8" stroke-width="0.511216" stroke-miterlimit="10"/>
<path d="M447.518 122.438H442.523V150.81H447.518V122.438Z" fill="#F4F5F6" stroke="#959DA8" stroke-width="0.511216" stroke-miterlimit="10"/>
<path d="M452.627 122.438H447.633V150.81H452.627V122.438Z" fill="#F4F5F6" stroke="#959DA8" stroke-width="0.511216" stroke-miterlimit="10"/>
<path d="M457.741 122.438H452.746V150.81H457.741V122.438Z" fill="#F4F5F6" stroke="#959DA8" stroke-width="0.511216" stroke-miterlimit="10"/>
<path d="M462.854 122.438H457.859V150.81H462.854V122.438Z" fill="#F4F5F6" stroke="#959DA8" stroke-width="0.511216" stroke-miterlimit="10"/>
<path d="M467.967 122.438H462.973V150.81H467.967V122.438Z" fill="#F4F5F6" stroke="#959DA8" stroke-width="0.511216" stroke-miterlimit="10"/>
<path d="M473.077 122.438H468.082V150.81H473.077V122.438Z" fill="#F4F5F6" stroke="#959DA8" stroke-width="0.511216" stroke-miterlimit="10"/>
<path d="M478.19 122.438H473.195V150.81H478.19V122.438Z" fill="#F4F5F6" stroke="#959DA8" stroke-width="0.511216" stroke-miterlimit="10"/>
<path d="M483.307 122.438H478.312V150.81H483.307V122.438Z" fill="#F4F5F6" stroke="#959DA8" stroke-width="0.511216" stroke-miterlimit="10"/>
<path d="M488.409 122.438H483.414V150.81H488.409V122.438Z" fill="#F4F5F6" stroke="#959DA8" stroke-width="0.511216" stroke-miterlimit="10"/>
<path d="M508.666 122.692H432.633V150.809H508.666V122.692Z" stroke="#959DA8" stroke-width="1.02243" stroke-miterlimit="10"/>
<path d="M493.524 334.077V362.45H488.637L488.642 334.077H493.524Z" fill="#F4F5F6" stroke="#959DA8" stroke-width="0.511216" stroke-miterlimit="10"/>
<path d="M498.647 334.077H493.652V362.45H498.647V334.077Z" fill="#F4F5F6" stroke="#959DA8" stroke-width="0.511216" stroke-miterlimit="10"/>
<path d="M503.748 334.077H498.754V362.45H503.748V334.077Z" fill="#F4F5F6" stroke="#959DA8" stroke-width="0.511216" stroke-miterlimit="10"/>
<path d="M508.862 334.077H503.867V362.45H508.862V334.077Z" fill="#F4F5F6" stroke="#959DA8" stroke-width="0.511216" stroke-miterlimit="10"/>
<path d="M442.407 334.077V362.45H437.52L437.525 334.077H442.407Z" fill="#F4F5F6" stroke="#959DA8" stroke-width="0.511216" stroke-miterlimit="10"/>
<path d="M437.293 334.077V362.45H432.406L432.411 334.077H437.293Z" fill="#F4F5F6" stroke="#959DA8" stroke-width="0.511216" stroke-miterlimit="10"/>
<path d="M447.518 334.077H442.523V362.45H447.518V334.077Z" fill="#F4F5F6" stroke="#959DA8" stroke-width="0.511216" stroke-miterlimit="10"/>
<path d="M452.627 334.077H447.633V362.45H452.627V334.077Z" fill="#F4F5F6" stroke="#959DA8" stroke-width="0.511216" stroke-miterlimit="10"/>
<path d="M457.741 334.077H452.746V362.45H457.741V334.077Z" fill="#F4F5F6" stroke="#959DA8" stroke-width="0.511216" stroke-miterlimit="10"/>
<path d="M462.854 334.077H457.859V362.45H462.854V334.077Z" fill="#F4F5F6" stroke="#959DA8" stroke-width="0.511216" stroke-miterlimit="10"/>
<path d="M467.967 334.077H462.973V362.45H467.967V334.077Z" fill="#F4F5F6" stroke="#959DA8" stroke-width="0.511216" stroke-miterlimit="10"/>
<path d="M473.077 334.077H468.082V362.45H473.077V334.077Z" fill="#F4F5F6" stroke="#959DA8" stroke-width="0.511216" stroke-miterlimit="10"/>
<path d="M478.19 334.077H473.195V362.45H478.19V334.077Z" fill="#F4F5F6" stroke="#959DA8" stroke-width="0.511216" stroke-miterlimit="10"/>
<path d="M483.307 334.077H478.312V362.45H483.307V334.077Z" fill="#F4F5F6" stroke="#959DA8" stroke-width="0.511216" stroke-miterlimit="10"/>
<path d="M488.409 334.077H483.414V362.45H488.409V334.077Z" fill="#F4F5F6" stroke="#959DA8" stroke-width="0.511216" stroke-miterlimit="10"/>
<path d="M508.666 334.336H432.633V362.453H508.666V334.336Z" stroke="#959DA8" stroke-width="1.02243" stroke-miterlimit="10"/>
<path d="M493.524 263.531V291.904H488.637L488.642 263.531H493.524Z" fill="#F4F5F6" stroke="#959DA8" stroke-width="0.511216" stroke-miterlimit="10"/>
<path d="M498.647 263.531H493.652V291.904H498.647V263.531Z" fill="#F4F5F6" stroke="#959DA8" stroke-width="0.511216" stroke-miterlimit="10"/>
<path d="M503.748 263.531H498.754V291.904H503.748V263.531Z" fill="#F4F5F6" stroke="#959DA8" stroke-width="0.511216" stroke-miterlimit="10"/>
<path d="M508.862 263.531H503.867V291.904H508.862V263.531Z" fill="#F4F5F6" stroke="#959DA8" stroke-width="0.511216" stroke-miterlimit="10"/>
<path d="M442.407 263.531V291.904H437.52L437.525 263.531H442.407Z" fill="#F4F5F6" stroke="#959DA8" stroke-width="0.511216" stroke-miterlimit="10"/>
<path d="M437.293 263.531V291.904H432.406L432.411 263.531H437.293Z" fill="#F4F5F6" stroke="#959DA8" stroke-width="0.511216" stroke-miterlimit="10"/>
<path d="M447.518 263.531H442.523V291.904H447.518V263.531Z" fill="#F4F5F6" stroke="#959DA8" stroke-width="0.511216" stroke-miterlimit="10"/>
<path d="M452.627 263.531H447.633V291.904H452.627V263.531Z" fill="#F4F5F6" stroke="#959DA8" stroke-width="0.511216" stroke-miterlimit="10"/>
<path d="M457.741 263.531H452.746V291.904H457.741V263.531Z" fill="#F4F5F6" stroke="#959DA8" stroke-width="0.511216" stroke-miterlimit="10"/>
<path d="M462.854 263.531H457.859V291.904H462.854V263.531Z" fill="#F4F5F6" stroke="#959DA8" stroke-width="0.511216" stroke-miterlimit="10"/>
<path d="M467.967 263.531H462.973V291.904H467.967V263.531Z" fill="#F4F5F6" stroke="#959DA8" stroke-width="0.511216" stroke-miterlimit="10"/>
<path d="M473.077 263.531H468.082V291.904H473.077V263.531Z" fill="#F4F5F6" stroke="#959DA8" stroke-width="0.511216" stroke-miterlimit="10"/>
<path d="M478.19 263.531H473.195V291.904H478.19V263.531Z" fill="#F4F5F6" stroke="#959DA8" stroke-width="0.511216" stroke-miterlimit="10"/>
<path d="M483.307 263.531H478.312V291.904H483.307V263.531Z" fill="#F4F5F6" stroke="#959DA8" stroke-width="0.511216" stroke-miterlimit="10"/>
<path d="M488.409 263.531H483.414V291.904H488.409V263.531Z" fill="#F4F5F6" stroke="#959DA8" stroke-width="0.511216" stroke-miterlimit="10"/>
<path d="M508.666 263.788H432.633V291.905H508.666V263.788Z" stroke="#959DA8" stroke-width="1.02243" stroke-miterlimit="10"/>
<path d="M493.524 52.3999V80.7724H488.637L488.642 52.3999H493.524Z" fill="#F4F5F6" stroke="#959DA8" stroke-width="0.511216" stroke-miterlimit="10"/>
<path d="M498.647 52.3999H493.652V80.7724H498.647V52.3999Z" fill="#F4F5F6" stroke="#959DA8" stroke-width="0.511216" stroke-miterlimit="10"/>
<path d="M503.748 52.3999H498.754V80.7724H503.748V52.3999Z" fill="#F4F5F6" stroke="#959DA8" stroke-width="0.511216" stroke-miterlimit="10"/>
<path d="M508.862 52.3999H503.867V80.7724H508.862V52.3999Z" fill="#F4F5F6" stroke="#959DA8" stroke-width="0.511216" stroke-miterlimit="10"/>
<path d="M442.407 52.3999V80.7724H437.52L437.525 52.3999H442.407Z" fill="#F4F5F6" stroke="#959DA8" stroke-width="0.511216" stroke-miterlimit="10"/>
<path d="M437.293 52.3999V80.7724H432.406L432.411 52.3999H437.293Z" fill="#F4F5F6" stroke="#959DA8" stroke-width="0.511216" stroke-miterlimit="10"/>
<path d="M447.518 52.3999H442.523V80.7724H447.518V52.3999Z" fill="#F4F5F6" stroke="#959DA8" stroke-width="0.511216" stroke-miterlimit="10"/>
<path d="M452.627 52.3999H447.633V80.7724H452.627V52.3999Z" fill="#F4F5F6" stroke="#959DA8" stroke-width="0.511216" stroke-miterlimit="10"/>
<path d="M457.741 52.3999H452.746V80.7724H457.741V52.3999Z" fill="#F4F5F6" stroke="#959DA8" stroke-width="0.511216" stroke-miterlimit="10"/>
<path d="M462.854 52.3999H457.859V80.7724H462.854V52.3999Z" fill="#F4F5F6" stroke="#959DA8" stroke-width="0.511216" stroke-miterlimit="10"/>
<path d="M467.967 52.3999H462.973V80.7724H467.967V52.3999Z" fill="#F4F5F6" stroke="#959DA8" stroke-width="0.511216" stroke-miterlimit="10"/>
<path d="M473.077 52.3999H468.082V80.7724H473.077V52.3999Z" fill="#F4F5F6" stroke="#959DA8" stroke-width="0.511216" stroke-miterlimit="10"/>
<path d="M478.19 52.3999H473.195V80.7724H478.19V52.3999Z" fill="#F4F5F6" stroke="#959DA8" stroke-width="0.511216" stroke-miterlimit="10"/>
<path d="M483.307 52.3999H478.312V80.7724H483.307V52.3999Z" fill="#F4F5F6" stroke="#959DA8" stroke-width="0.511216" stroke-miterlimit="10"/>
<path d="M488.409 52.3999H483.414V80.7724H488.409V52.3999Z" fill="#F4F5F6" stroke="#959DA8" stroke-width="0.511216" stroke-miterlimit="10"/>
<path d="M508.666 52.6548H432.633V80.7717H508.666V52.6548Z" stroke="#959DA8" stroke-width="1.02243" stroke-miterlimit="10"/>
<path d="M357.607 303.489H342V336.381H357.602L357.607 303.489Z" fill="white" stroke="#959DA8" stroke-width="0.511216" stroke-miterlimit="10"/>
<path d="M349.809 303.485V316.757" stroke="#959DA8" stroke-width="0.511216" stroke-miterlimit="10"/>
<path d="M342.027 316.991H357.609" stroke="#959DA8" stroke-width="0.511216" stroke-miterlimit="10"/>
<path d="M357.607 233.452H342V266.343H357.602L357.607 233.452Z" fill="white" stroke="#959DA8" stroke-width="0.511216" stroke-miterlimit="10"/>
<path d="M349.809 233.446V246.717" stroke="#959DA8" stroke-width="0.511216" stroke-miterlimit="10"/>
<path d="M342.027 246.953H357.609" stroke="#959DA8" stroke-width="0.511216" stroke-miterlimit="10"/>
<path d="M357.607 162.394H342V195.285H357.602L357.607 162.394Z" fill="white" stroke="#959DA8" stroke-width="0.511216" stroke-miterlimit="10"/>
<path d="M349.809 162.386V175.657" stroke="#959DA8" stroke-width="0.511216" stroke-miterlimit="10"/>
<path d="M342.027 175.895H357.609" stroke="#959DA8" stroke-width="0.511216" stroke-miterlimit="10"/>
<path d="M357.607 91.334H342V124.226H357.602L357.607 91.334Z" fill="white" stroke="#959DA8" stroke-width="0.511216" stroke-miterlimit="10"/>
<path d="M349.809 91.3301V104.601" stroke="#959DA8" stroke-width="0.511216" stroke-miterlimit="10"/>
<path d="M342.027 104.835H357.609" stroke="#959DA8" stroke-width="0.511216" stroke-miterlimit="10"/>
<path d="M204.756 303.489H189.148V336.381H204.751L204.756 303.489Z" fill="white" stroke="#959DA8" stroke-width="0.511216" stroke-miterlimit="10"/>
<path d="M196.957 303.485V316.757" stroke="#959DA8" stroke-width="0.511216" stroke-miterlimit="10"/>
<path d="M189.18 316.991H204.762" stroke="#959DA8" stroke-width="0.511216" stroke-miterlimit="10"/>
<path d="M357.607 376.595H342V409.486H357.602L357.607 376.595Z" fill="white" stroke="#959DA8" stroke-width="0.511216" stroke-miterlimit="10"/>
<path d="M349.809 376.587V389.859" stroke="#959DA8" stroke-width="0.511216" stroke-miterlimit="10"/>
<path d="M342.027 390.092H357.609" stroke="#959DA8" stroke-width="0.511216" stroke-miterlimit="10"/>
<path d="M204.756 376.081H189.148V408.973H204.751L204.756 376.081Z" fill="white" stroke="#959DA8" stroke-width="0.511216" stroke-miterlimit="10"/>
<path d="M196.957 376.075V389.346" stroke="#959DA8" stroke-width="0.511216" stroke-miterlimit="10"/>
<path d="M189.18 389.582H204.762" stroke="#959DA8" stroke-width="0.511216" stroke-miterlimit="10"/>
<path d="M204.756 233.452H189.148V266.343H204.751L204.756 233.452Z" fill="white" stroke="#959DA8" stroke-width="0.511216" stroke-miterlimit="10"/>
<path d="M196.957 233.446V246.717" stroke="#959DA8" stroke-width="0.511216" stroke-miterlimit="10"/>
<path d="M189.18 246.953H204.762" stroke="#959DA8" stroke-width="0.511216" stroke-miterlimit="10"/>
<path d="M204.248 161.882H188.641V194.773H204.243L204.248 161.882Z" fill="white" stroke="#959DA8" stroke-width="0.511216" stroke-miterlimit="10"/>
<path d="M196.441 161.878V175.149" stroke="#959DA8" stroke-width="0.511216" stroke-miterlimit="10"/>
<path d="M188.664 175.385H204.246" stroke="#959DA8" stroke-width="0.511216" stroke-miterlimit="10"/>
<path d="M204.756 91.334H189.148V124.226H204.751L204.756 91.334Z" fill="white" stroke="#959DA8" stroke-width="0.511216" stroke-miterlimit="10"/>
<path d="M196.957 91.3301V104.601" stroke="#959DA8" stroke-width="0.511216" stroke-miterlimit="10"/>
<path d="M189.18 104.835H204.762" stroke="#959DA8" stroke-width="0.511216" stroke-miterlimit="10"/>
<path d="M204.756 21.2983H189.148V54.19H204.751L204.756 21.2983Z" fill="white" stroke="#959DA8" stroke-width="0.511216" stroke-miterlimit="10"/>
<path d="M196.957 21.2925V34.5637" stroke="#959DA8" stroke-width="0.511216" stroke-miterlimit="10"/>
<path d="M189.18 34.7993H204.762" stroke="#959DA8" stroke-width="0.511216" stroke-miterlimit="10"/>
<path d="M357.607 21.2983H342V54.19H357.602L357.607 21.2983Z" fill="white" stroke="#959DA8" stroke-width="0.511216" stroke-miterlimit="10"/>
<path d="M349.809 21.2925V34.5637" stroke="#959DA8" stroke-width="0.511216" stroke-miterlimit="10"/>
<path d="M342.027 34.7993H357.609" stroke="#959DA8" stroke-width="0.511216" stroke-miterlimit="10"/>
<path d="M62.8812 64.0348C63.0822 64.0362 63.2827 64.0156 63.4793 63.9735C72.6812 61.8826 72.6812 50.779 72.6812 50.779C72.7624 44.0134 70.6177 37.4087 66.5772 31.9816C66.1483 31.414 65.5936 30.9537 64.9567 30.6367C64.3198 30.3198 63.6181 30.1548 62.9067 30.1548C62.1953 30.1548 61.4936 30.3198 60.8567 30.6367C60.2198 30.9537 59.6651 31.414 59.2362 31.9816C55.1939 37.4081 53.0474 44.0129 53.1271 50.779C53.1271 50.779 53.1271 61.9082 62.2984 63.9786C62.4949 64.0207 62.6955 64.0413 62.8965 64.04L62.8812 64.0348Z" fill="#80C33F"/>
<path d="M62.875 42.9697V80.7691" stroke="#2A3A51" stroke-width="0.511216" stroke-linecap="round" stroke-linejoin="round"/>
<path d="M488.725 198.997C488.926 198.998 489.126 198.978 489.323 198.935C498.525 196.845 498.525 185.741 498.525 185.741C498.606 178.975 496.461 172.371 492.421 166.943C491.992 166.376 491.437 165.916 490.8 165.599C490.164 165.282 489.462 165.117 488.75 165.117C488.039 165.117 487.337 165.282 486.7 165.599C486.064 165.916 485.509 166.376 485.08 166.943C481.038 172.37 478.891 178.975 478.971 185.741C478.971 185.741 478.971 196.87 488.142 198.941C488.339 198.983 488.539 199.003 488.74 199.002L488.725 198.997Z" fill="#80C33F"/>
<path d="M488.727 177.935V215.734" stroke="#2A3A51" stroke-width="0.511216" stroke-linecap="round" stroke-linejoin="round"/>
<path d="M67.9905 342.648C68.1915 342.649 68.3921 342.629 68.5886 342.587C77.7905 340.496 77.7905 329.392 77.7905 329.392C77.8718 322.627 75.7271 316.022 71.6866 310.595C71.2577 310.027 70.703 309.567 70.0661 309.25C69.4292 308.933 68.7275 308.768 68.0161 308.768C67.3047 308.768 66.603 308.933 65.9661 309.25C65.3292 309.567 64.7745 310.027 64.3456 310.595C60.3033 316.021 58.1567 322.626 58.2365 329.392C58.2365 329.392 58.2365 340.521 67.4077 342.592C67.6043 342.634 67.8049 342.655 68.0059 342.653L67.9905 342.648Z" fill="#80C33F"/>
<path d="M67.9883 321.585V359.384" stroke="#2A3A51" stroke-width="0.511216" stroke-linecap="round" stroke-linejoin="round"/>
<path d="M103.469 52.3999V80.7724H98.582L98.5871 52.3999H103.469Z" fill="#F4F5F6" stroke="#959DA8" stroke-width="0.511216" stroke-miterlimit="10"/>
<path d="M108.584 52.3999H103.59V80.7724H108.584V52.3999Z" fill="#F4F5F6" stroke="#959DA8" stroke-width="0.511216" stroke-miterlimit="10"/>
<path d="M113.694 52.3999H108.699V80.7724H113.694V52.3999Z" fill="#F4F5F6" stroke="#959DA8" stroke-width="0.511216" stroke-miterlimit="10"/>
<path d="M118.807 52.3999H113.812V80.7724H118.807V52.3999Z" fill="#F4F5F6" stroke="#959DA8" stroke-width="0.511216" stroke-miterlimit="10"/>
<path d="M52.3482 52.3999V80.7724H47.4609L47.4661 52.3999H52.3482Z" fill="#F4F5F6" stroke="#959DA8" stroke-width="0.511216" stroke-miterlimit="10"/>
<path d="M47.2349 52.3999V80.7724H42.3477L42.3528 52.3999H47.2349Z" fill="#F4F5F6" stroke="#959DA8" stroke-width="0.511216" stroke-miterlimit="10"/>
<path d="M57.4594 52.3999H52.4648V80.7724H57.4594V52.3999Z" fill="#F4F5F6" stroke="#959DA8" stroke-width="0.511216" stroke-miterlimit="10"/>
<path d="M62.5688 52.3999H57.5742V80.7724H62.5688V52.3999Z" fill="#F4F5F6" stroke="#959DA8" stroke-width="0.511216" stroke-miterlimit="10"/>
<path d="M67.686 52.3999H62.6914V80.7724H67.686V52.3999Z" fill="#F4F5F6" stroke="#959DA8" stroke-width="0.511216" stroke-miterlimit="10"/>
<path d="M72.7954 52.3999H67.8008V80.7724H72.7954V52.3999Z" fill="#F4F5F6" stroke="#959DA8" stroke-width="0.511216" stroke-miterlimit="10"/>
<path d="M77.9086 52.3999H72.9141V80.7724H77.9086V52.3999Z" fill="#F4F5F6" stroke="#959DA8" stroke-width="0.511216" stroke-miterlimit="10"/>
<path d="M83.0219 52.3999H78.0273V80.7724H83.0219V52.3999Z" fill="#F4F5F6" stroke="#959DA8" stroke-width="0.511216" stroke-miterlimit="10"/>
<path d="M88.1352 52.3999H83.1406V80.7724H88.1352V52.3999Z" fill="#F4F5F6" stroke="#959DA8" stroke-width="0.511216" stroke-miterlimit="10"/>
<path d="M93.2446 52.3999H88.25V80.7724H93.2446V52.3999Z" fill="#F4F5F6" stroke="#959DA8" stroke-width="0.511216" stroke-miterlimit="10"/>
<path d="M98.354 52.3999H93.3594V80.7724H98.354V52.3999Z" fill="#F4F5F6" stroke="#959DA8" stroke-width="0.511216" stroke-miterlimit="10"/>
<path d="M118.604 52.6548H42.5703V80.7717H118.604V52.6548Z" stroke="#959DA8" stroke-width="1.02243" stroke-miterlimit="10"/>
<path d="M493.524 192.983V221.356H488.637L488.642 192.983H493.524Z" fill="#F4F5F6" stroke="#959DA8" stroke-width="0.511216" stroke-miterlimit="10"/>
<path d="M498.647 192.983H493.652V221.356H498.647V192.983Z" fill="#F4F5F6" stroke="#959DA8" stroke-width="0.511216" stroke-miterlimit="10"/>
<path d="M503.748 192.983H498.754V221.356H503.748V192.983Z" fill="#F4F5F6" stroke="#959DA8" stroke-width="0.511216" stroke-miterlimit="10"/>
<path d="M508.862 192.983H503.867V221.356H508.862V192.983Z" fill="#F4F5F6" stroke="#959DA8" stroke-width="0.511216" stroke-miterlimit="10"/>
<path d="M442.407 192.983V221.356H437.52L437.525 192.983H442.407Z" fill="#F4F5F6" stroke="#959DA8" stroke-width="0.511216" stroke-miterlimit="10"/>
<path d="M437.293 192.983V221.356H432.406L432.411 192.983H437.293Z" fill="#F4F5F6" stroke="#959DA8" stroke-width="0.511216" stroke-miterlimit="10"/>
<path d="M447.518 192.983H442.523V221.356H447.518V192.983Z" fill="#F4F5F6" stroke="#959DA8" stroke-width="0.511216" stroke-miterlimit="10"/>
<path d="M452.627 192.983H447.633V221.356H452.627V192.983Z" fill="#F4F5F6" stroke="#959DA8" stroke-width="0.511216" stroke-miterlimit="10"/>
<path d="M457.741 192.983H452.746V221.356H457.741V192.983Z" fill="#F4F5F6" stroke="#959DA8" stroke-width="0.511216" stroke-miterlimit="10"/>
<path d="M462.854 192.983H457.859V221.356H462.854V192.983Z" fill="#F4F5F6" stroke="#959DA8" stroke-width="0.511216" stroke-miterlimit="10"/>
<path d="M467.967 192.983H462.973V221.356H467.967V192.983Z" fill="#F4F5F6" stroke="#959DA8" stroke-width="0.511216" stroke-miterlimit="10"/>
<path d="M473.077 192.983H468.082V221.356H473.077V192.983Z" fill="#F4F5F6" stroke="#959DA8" stroke-width="0.511216" stroke-miterlimit="10"/>
<path d="M478.19 192.983H473.195V221.356H478.19V192.983Z" fill="#F4F5F6" stroke="#959DA8" stroke-width="0.511216" stroke-miterlimit="10"/>
<path d="M483.307 192.983H478.312V221.356H483.307V192.983Z" fill="#F4F5F6" stroke="#959DA8" stroke-width="0.511216" stroke-miterlimit="10"/>
<path d="M488.409 192.983H483.414V221.356H488.409V192.983Z" fill="#F4F5F6" stroke="#959DA8" stroke-width="0.511216" stroke-miterlimit="10"/>
<path d="M508.666 193.238H432.633V221.355H508.666V193.238Z" stroke="#959DA8" stroke-width="1.02243" stroke-miterlimit="10"/>
<path d="M103.469 334.077V362.45H98.582L98.5871 334.077H103.469Z" fill="#F4F5F6" stroke="#959DA8" stroke-width="0.511216" stroke-miterlimit="10"/>
<path d="M108.584 334.077H103.59V362.45H108.584V334.077Z" fill="#F4F5F6" stroke="#959DA8" stroke-width="0.511216" stroke-miterlimit="10"/>
<path d="M113.694 334.077H108.699V362.45H113.694V334.077Z" fill="#F4F5F6" stroke="#959DA8" stroke-width="0.511216" stroke-miterlimit="10"/>
<path d="M118.807 334.077H113.812V362.45H118.807V334.077Z" fill="#F4F5F6" stroke="#959DA8" stroke-width="0.511216" stroke-miterlimit="10"/>
<path d="M52.3482 334.077V362.45H47.4609L47.4661 334.077H52.3482Z" fill="#F4F5F6" stroke="#959DA8" stroke-width="0.511216" stroke-miterlimit="10"/>
<path d="M47.2349 334.077V362.45H42.3477L42.3528 334.077H47.2349Z" fill="#F4F5F6" stroke="#959DA8" stroke-width="0.511216" stroke-miterlimit="10"/>
<path d="M57.4594 334.077H52.4648V362.45H57.4594V334.077Z" fill="#F4F5F6" stroke="#959DA8" stroke-width="0.511216" stroke-miterlimit="10"/>
<path d="M62.5688 334.077H57.5742V362.45H62.5688V334.077Z" fill="#F4F5F6" stroke="#959DA8" stroke-width="0.511216" stroke-miterlimit="10"/>
<path d="M67.686 334.077H62.6914V362.45H67.686V334.077Z" fill="#F4F5F6" stroke="#959DA8" stroke-width="0.511216" stroke-miterlimit="10"/>
<path d="M72.7954 334.077H67.8008V362.45H72.7954V334.077Z" fill="#F4F5F6" stroke="#959DA8" stroke-width="0.511216" stroke-miterlimit="10"/>
<path d="M77.9086 334.077H72.9141V362.45H77.9086V334.077Z" fill="#F4F5F6" stroke="#959DA8" stroke-width="0.511216" stroke-miterlimit="10"/>
<path d="M83.0219 334.077H78.0273V362.45H83.0219V334.077Z" fill="#F4F5F6" stroke="#959DA8" stroke-width="0.511216" stroke-miterlimit="10"/>
<path d="M88.1352 334.077H83.1406V362.45H88.1352V334.077Z" fill="#F4F5F6" stroke="#959DA8" stroke-width="0.511216" stroke-miterlimit="10"/>
<path d="M93.2446 334.077H88.25V362.45H93.2446V334.077Z" fill="#F4F5F6" stroke="#959DA8" stroke-width="0.511216" stroke-miterlimit="10"/>
<path d="M98.354 334.077H93.3594V362.45H98.354V334.077Z" fill="#F4F5F6" stroke="#959DA8" stroke-width="0.511216" stroke-miterlimit="10"/>
<path d="M118.604 334.336H42.5703V362.453H118.604V334.336Z" stroke="#959DA8" stroke-width="1.02243" stroke-miterlimit="10"/>
<path d="M280.763 21.3789H324.758V60.5023H280.758L280.763 21.3789Z" fill="white" stroke="#959DA8" stroke-width="0.511216" stroke-miterlimit="10"/>
<path d="M302.758 21.3677V60.5575" stroke="#959DA8" stroke-width="0.511216" stroke-miterlimit="10"/>
<path d="M324.756 39.8135H280.93" stroke="#959DA8" stroke-width="0.511216" stroke-miterlimit="10"/>
<path d="M220.95 21.3789H264.946V60.5023H220.945L220.95 21.3789Z" fill="white" stroke="#959DA8" stroke-width="0.511216" stroke-miterlimit="10"/>
<path d="M242.949 21.3677V60.5575" stroke="#959DA8" stroke-width="0.511216" stroke-miterlimit="10"/>
<path d="M264.948 39.8135H221.121" stroke="#959DA8" stroke-width="0.511216" stroke-miterlimit="10"/>
<path d="M280.763 91.4146H324.758V130.538H280.758L280.763 91.4146Z" fill="white" stroke="#959DA8" stroke-width="0.511216" stroke-miterlimit="10"/>
<path d="M302.758 91.4053V130.595" stroke="#959DA8" stroke-width="0.511216" stroke-miterlimit="10"/>
<path d="M324.756 109.848H280.93" stroke="#959DA8" stroke-width="0.511216" stroke-miterlimit="10"/>
<path d="M220.95 91.4146H264.946V130.538H220.945L220.95 91.4146Z" fill="white" stroke="#959DA8" stroke-width="0.511216" stroke-miterlimit="10"/>
<path d="M242.949 91.4053V130.595" stroke="#959DA8" stroke-width="0.511216" stroke-miterlimit="10"/>
<path d="M264.948 109.848H221.121" stroke="#959DA8" stroke-width="0.511216" stroke-miterlimit="10"/>
<path d="M280.763 161.962H324.758V201.086H280.758L280.763 161.962Z" fill="white" stroke="#959DA8" stroke-width="0.511216" stroke-miterlimit="10"/>
<path d="M302.758 161.955V201.145" stroke="#959DA8" stroke-width="0.511216" stroke-miterlimit="10"/>
<path d="M324.756 180.401H280.93" stroke="#959DA8" stroke-width="0.511216" stroke-miterlimit="10"/>
<path d="M220.95 161.962H264.946V201.086H220.945L220.95 161.962Z" fill="white" stroke="#959DA8" stroke-width="0.511216" stroke-miterlimit="10"/>
<path d="M242.949 161.955V201.145" stroke="#959DA8" stroke-width="0.511216" stroke-miterlimit="10"/>
<path d="M264.948 180.401H221.121" stroke="#959DA8" stroke-width="0.511216" stroke-miterlimit="10"/>
<path d="M280.763 233.534H324.758V272.658H280.758L280.763 233.534Z" fill="white" stroke="#959DA8" stroke-width="0.511216" stroke-miterlimit="10"/>
<path d="M302.758 233.525V272.715" stroke="#959DA8" stroke-width="0.511216" stroke-miterlimit="10"/>
<path d="M324.756 251.965H280.93" stroke="#959DA8" stroke-width="0.511216" stroke-miterlimit="10"/>
<path d="M220.95 233.534H264.946V272.658H220.945L220.95 233.534Z" fill="white" stroke="#959DA8" stroke-width="0.511216" stroke-miterlimit="10"/>
<path d="M242.949 233.525V272.715" stroke="#959DA8" stroke-width="0.511216" stroke-miterlimit="10"/>
<path d="M264.948 251.965H221.121" stroke="#959DA8" stroke-width="0.511216" stroke-miterlimit="10"/>
<path d="M280.763 303.568H324.758V342.691H280.758L280.763 303.568Z" fill="white" stroke="#959DA8" stroke-width="0.511216" stroke-miterlimit="10"/>
<path d="M302.758 303.561V342.75" stroke="#959DA8" stroke-width="0.511216" stroke-miterlimit="10"/>
<path d="M324.756 322.003H280.93" stroke="#959DA8" stroke-width="0.511216" stroke-miterlimit="10"/>
<path d="M220.95 303.568H264.946V342.691H220.945L220.95 303.568Z" fill="white" stroke="#959DA8" stroke-width="0.511216" stroke-miterlimit="10"/>
<path d="M242.949 303.561V342.75" stroke="#959DA8" stroke-width="0.511216" stroke-miterlimit="10"/>
<path d="M264.948 322.003H221.121" stroke="#959DA8" stroke-width="0.511216" stroke-miterlimit="10"/>
<path d="M64.009 376.166H108.004V415.289H64.0039L64.009 376.166Z" fill="white" stroke="#959DA8" stroke-width="0.511216" stroke-miterlimit="10"/>
<path d="M86 376.154V415.344" stroke="#959DA8" stroke-width="0.511216" stroke-miterlimit="10"/>
<path d="M108.002 394.597H64.1758" stroke="#959DA8" stroke-width="0.511216" stroke-miterlimit="10"/>
<path d="M442.302 376.166H486.297V415.289H442.297L442.302 376.166Z" fill="white" stroke="#959DA8" stroke-width="0.511216" stroke-miterlimit="10"/>
<path d="M464.305 376.154V415.344" stroke="#959DA8" stroke-width="0.511216" stroke-miterlimit="10"/>
<path d="M486.303 394.597H442.477" stroke="#959DA8" stroke-width="0.511216" stroke-miterlimit="10"/>
<path d="M137.617 232.602H153.22V271.454H137.622L137.617 232.602Z" fill="white" stroke="#959DA8" stroke-width="0.511216" stroke-miterlimit="10"/>
<path d="M153.223 244.018H137.621" stroke="#959DA8" stroke-width="0.511216" stroke-miterlimit="10"/>
<path d="M137.617 162.054H153.22V200.907H137.622L137.617 162.054Z" fill="white" stroke="#959DA8" stroke-width="0.511216" stroke-miterlimit="10"/>
<path d="M153.223 173.47H137.621" stroke="#959DA8" stroke-width="0.511216" stroke-miterlimit="10"/>
<path d="M137.617 91.5063H153.22V130.359H137.622L137.617 91.5063Z" fill="white" stroke="#959DA8" stroke-width="0.511216" stroke-miterlimit="10"/>
<path d="M153.223 102.923H137.621" stroke="#959DA8" stroke-width="0.511216" stroke-miterlimit="10"/>
<path d="M137.617 21.4707H153.22V60.3231H137.622L137.617 21.4707Z" fill="white" stroke="#959DA8" stroke-width="0.511216" stroke-miterlimit="10"/>
<path d="M153.223 32.8848H137.621" stroke="#959DA8" stroke-width="0.511216" stroke-miterlimit="10"/>
<path d="M137.617 303.664H153.22V342.516H137.622L137.617 303.664Z" fill="white" stroke="#959DA8" stroke-width="0.511216" stroke-miterlimit="10"/>
<path d="M153.223 315.08H137.621" stroke="#959DA8" stroke-width="0.511216" stroke-miterlimit="10"/>
<path d="M154.45 344.835H136.22L135.984 340.301H154.685L154.45 344.835Z" fill="#D3DCE5"/>
<path d="M137.617 376.257H153.22V415.11H137.622L137.617 376.257Z" fill="white" stroke="#959DA8" stroke-width="0.511216" stroke-miterlimit="10"/>
<path d="M153.223 387.673H137.621" stroke="#959DA8" stroke-width="0.511216" stroke-miterlimit="10"/>
<path d="M154.45 417.429H136.22L135.984 412.895H154.685L154.45 417.429Z" fill="#D3DCE5"/>
<path d="M394.762 376.257H410.364V415.11H394.767L394.762 376.257Z" fill="white" stroke="#959DA8" stroke-width="0.511216" stroke-miterlimit="10"/>
<path d="M410.368 387.673H394.766" stroke="#959DA8" stroke-width="0.511216" stroke-miterlimit="10"/>
<path d="M411.586 417.429H393.356L393.121 412.895H411.821L411.586 417.429Z" fill="#D3DCE5"/>
<path d="M154.45 271.734H136.22L135.984 267.199H154.685L154.45 271.734Z" fill="#D3DCE5"/>
<path d="M154.45 203.23H136.22L135.984 198.695H154.685L154.45 203.23Z" fill="#D3DCE5"/>
<path d="M154.45 132.682H136.22L135.984 128.147H154.685L154.45 132.682Z" fill="#D3DCE5"/>
<path d="M154.45 62.6463H136.22L135.984 58.1118H154.685L154.45 62.6463Z" fill="#D3DCE5"/>
<path d="M394.762 232.602H410.364V271.454H394.767L394.762 232.602Z" fill="white" stroke="#959DA8" stroke-width="0.511216" stroke-miterlimit="10"/>
<path d="M410.368 244.018H394.766" stroke="#959DA8" stroke-width="0.511216" stroke-miterlimit="10"/>
<path d="M394.762 162.054H410.364V200.907H394.767L394.762 162.054Z" fill="white" stroke="#959DA8" stroke-width="0.511216" stroke-miterlimit="10"/>
<path d="M410.368 173.47H394.766" stroke="#959DA8" stroke-width="0.511216" stroke-miterlimit="10"/>
<path d="M394.762 91.5063H410.364V130.359H394.767L394.762 91.5063Z" fill="white" stroke="#959DA8" stroke-width="0.511216" stroke-miterlimit="10"/>
<path d="M410.368 102.923H394.766" stroke="#959DA8" stroke-width="0.511216" stroke-miterlimit="10"/>
<path d="M394.762 21.4707H410.364V60.3231H394.767L394.762 21.4707Z" fill="white" stroke="#959DA8" stroke-width="0.511216" stroke-miterlimit="10"/>
<path d="M410.368 32.8848H394.766" stroke="#959DA8" stroke-width="0.511216" stroke-miterlimit="10"/>
<path d="M394.762 303.664H410.364V342.516H394.767L394.762 303.664Z" fill="white" stroke="#959DA8" stroke-width="0.511216" stroke-miterlimit="10"/>
<path d="M410.368 315.08H394.766" stroke="#959DA8" stroke-width="0.511216" stroke-miterlimit="10"/>
<path d="M411.586 344.835H393.356L393.121 340.301H411.821L411.586 344.835Z" fill="#D3DCE5"/>
<path d="M411.586 271.734H393.356L393.121 267.199H411.821L411.586 271.734Z" fill="#D3DCE5"/>
<path d="M411.586 203.23H393.356L393.121 198.695H411.821L411.586 203.23Z" fill="#D3DCE5"/>
<path d="M411.586 132.682H393.356L393.121 128.147H411.821L411.586 132.682Z" fill="#D3DCE5"/>
<path d="M411.586 62.6463H393.356L393.121 58.1118H411.821L411.586 62.6463Z" fill="#D3DCE5"/>
<path d="M537.142 258.142L512.727 244.046L505.338 256.843L529.754 270.939L537.142 258.142Z" fill="white"/>
<path d="M537.149 258.084L512.754 243.999L512.169 245.011L536.565 259.096L537.149 258.084Z" fill="#B22234"/>
<path d="M536.005 260.063L511.609 245.978L511.025 246.99L535.42 261.075L536.005 260.063Z" fill="#B22234"/>
<path d="M534.86 262.043L510.465 247.958L509.88 248.97L534.276 263.055L534.86 262.043Z" fill="#B22234"/>
<path d="M533.716 264.022L509.32 249.938L508.736 250.95L533.131 265.034L533.716 264.022Z" fill="#B22234"/>
<path d="M532.575 266.003L508.18 251.918L507.595 252.93L531.991 267.015L532.575 266.003Z" fill="#B22234"/>
<path d="M531.43 267.983L507.035 253.898L506.451 254.91L530.846 268.995L531.43 267.983Z" fill="#B22234"/>
<path d="M530.286 269.963L505.891 255.878L505.306 256.89L529.701 270.975L530.286 269.963Z" fill="#B22234"/>
<path d="M522.493 249.623L512.75 243.998L508.736 250.951L518.479 256.576L522.493 249.623Z" fill="#2A3A51"/>
<path d="M513.425 244.741L513.353 245.078L513.648 245.248L513.308 245.285L513.235 245.622L513.098 245.309L512.758 245.346L513.013 245.115L512.875 244.802L513.17 244.972L513.425 244.741Z" fill="white"/>
<path d="M513.816 245.919L513.743 246.255L514.038 246.426L513.698 246.463L513.626 246.8L513.488 246.487L513.148 246.524L513.403 246.293L513.266 245.98L513.561 246.15L513.816 245.919Z" fill="white"/>
<path d="M513.015 247.312L512.942 247.649L513.238 247.819L512.898 247.857L512.825 248.193L512.687 247.88L512.348 247.918L512.603 247.686L512.465 247.373L512.76 247.543L513.015 247.312Z" fill="white"/>
<path d="M512.207 248.706L512.134 249.043L512.429 249.213L512.089 249.251L512.016 249.587L511.879 249.274L511.539 249.312L511.794 249.08L511.656 248.767L511.952 248.938L512.207 248.706Z" fill="white"/>
<path d="M511.402 250.1L511.329 250.436L511.624 250.607L511.284 250.644L511.212 250.981L511.074 250.668L510.734 250.705L510.989 250.474L510.852 250.161L511.147 250.331L511.402 250.1Z" fill="white"/>
<path d="M515.445 246.858L515.372 247.195L515.667 247.365L515.327 247.403L515.255 247.739L515.117 247.426L514.777 247.464L515.032 247.232L514.895 246.919L515.19 247.09L515.445 246.858Z" fill="white"/>
<path d="M514.64 248.252L514.567 248.589L514.863 248.759L514.523 248.797L514.45 249.133L514.312 248.82L513.973 248.857L514.228 248.626L514.09 248.313L514.385 248.483L514.64 248.252Z" fill="white"/>
<path d="M513.835 249.647L513.763 249.983L514.058 250.154L513.718 250.191L513.645 250.528L513.508 250.214L513.168 250.252L513.423 250.021L513.285 249.708L513.58 249.878L513.835 249.647Z" fill="white"/>
<path d="M513.031 251.04L512.958 251.376L513.253 251.547L512.913 251.584L512.841 251.921L512.703 251.608L512.363 251.645L512.618 251.414L512.481 251.101L512.776 251.271L513.031 251.04Z" fill="white"/>
<path d="M517.074 247.798L517.001 248.134L517.296 248.305L516.956 248.342L516.883 248.679L516.746 248.365L516.406 248.403L516.661 248.172L516.524 247.859L516.819 248.029L517.074 247.798Z" fill="white"/>
<path d="M516.265 249.193L516.192 249.529L516.488 249.699L516.148 249.737L516.075 250.074L515.937 249.76L515.598 249.798L515.853 249.567L515.715 249.253L516.01 249.424L516.265 249.193Z" fill="white"/>
<path d="M515.464 250.586L515.392 250.923L515.687 251.093L515.347 251.131L515.274 251.467L515.137 251.154L514.797 251.191L515.052 250.96L514.914 250.647L515.209 250.817L515.464 250.586Z" fill="white"/>
<path d="M514.656 251.98L514.583 252.317L514.878 252.487L514.538 252.525L514.466 252.861L514.328 252.548L513.988 252.586L514.243 252.354L514.106 252.041L514.401 252.211L514.656 251.98Z" fill="white"/>
<path d="M518.699 248.738L518.626 249.075L518.921 249.245L518.581 249.283L518.508 249.619L518.371 249.306L518.031 249.343L518.286 249.112L518.149 248.799L518.444 248.969L518.699 248.738Z" fill="white"/>
<path d="M517.894 250.132L517.822 250.469L518.117 250.639L517.777 250.677L517.704 251.013L517.566 250.7L517.226 250.737L517.481 250.506L517.344 250.193L517.639 250.363L517.894 250.132Z" fill="white"/>
<path d="M517.093 251.525L517.021 251.862L517.316 252.032L516.976 252.07L516.903 252.406L516.766 252.093L516.426 252.13L516.681 251.899L516.543 251.586L516.838 251.756L517.093 251.525Z" fill="white"/>
<path d="M516.285 252.92L516.212 253.257L516.507 253.427L516.167 253.465L516.094 253.801L515.957 253.488L515.617 253.525L515.872 253.294L515.735 252.981L516.03 253.151L516.285 252.92Z" fill="white"/>
<path d="M520.328 249.678L520.255 250.015L520.55 250.185L520.21 250.223L520.137 250.559L520 250.246L519.66 250.283L519.915 250.052L519.778 249.739L520.073 249.909L520.328 249.678Z" fill="white"/>
<path d="M519.523 251.073L519.45 251.409L519.745 251.579L519.405 251.617L519.333 251.953L519.195 251.64L518.855 251.678L519.11 251.447L518.973 251.133L519.268 251.304L519.523 251.073Z" fill="white"/>
<path d="M518.718 252.466L518.646 252.803L518.941 252.973L518.601 253.011L518.528 253.347L518.39 253.034L518.051 253.071L518.306 252.84L518.168 252.527L518.463 252.697L518.718 252.466Z" fill="white"/>
<path d="M517.91 253.861L517.837 254.197L518.132 254.367L517.792 254.405L517.719 254.741L517.582 254.428L517.242 254.466L517.497 254.235L517.36 253.921L517.655 254.092L517.91 253.861Z" fill="white"/>
<path d="M512.625 246.135L512.552 246.471L512.847 246.642L512.507 246.679L512.434 247.016L512.297 246.703L511.957 246.74L512.212 246.509L512.074 246.196L512.37 246.366L512.625 246.135Z" fill="white"/>
<path d="M511.816 247.53L511.743 247.866L512.038 248.036L511.698 248.074L511.626 248.41L511.488 248.097L511.148 248.135L511.403 247.904L511.266 247.59L511.561 247.761L511.816 247.53Z" fill="white"/>
<path d="M511.011 248.923L510.939 249.26L511.234 249.43L510.894 249.468L510.821 249.804L510.684 249.491L510.344 249.528L510.599 249.297L510.461 248.984L510.756 249.154L511.011 248.923Z" fill="white"/>
<path d="M510.207 250.318L510.134 250.654L510.429 250.824L510.089 250.862L510.016 251.199L509.879 250.885L509.539 250.923L509.794 250.692L509.656 250.378L509.952 250.549L510.207 250.318Z" fill="white"/>
<path d="M515.031 245.669L514.958 246.006L515.253 246.176L514.913 246.214L514.841 246.55L514.703 246.237L514.363 246.275L514.618 246.043L514.481 245.73L514.776 245.901L515.031 245.669Z" fill="white"/>
<path d="M514.23 247.062L514.157 247.399L514.452 247.569L514.113 247.607L514.04 247.943L513.902 247.63L513.562 247.668L513.817 247.436L513.68 247.123L513.975 247.293L514.23 247.062Z" fill="white"/>
<path d="M513.421 248.457L513.349 248.793L513.644 248.964L513.304 249.001L513.231 249.338L513.094 249.024L512.754 249.062L513.009 248.831L512.871 248.518L513.166 248.688L513.421 248.457Z" fill="white"/>
<path d="M512.617 249.851L512.544 250.187L512.839 250.358L512.499 250.395L512.427 250.732L512.289 250.419L511.949 250.456L512.204 250.225L512.067 249.912L512.362 250.082L512.617 249.851Z" fill="white"/>
<path d="M511.812 251.244L511.739 251.581L512.034 251.751L511.694 251.789L511.622 252.125L511.484 251.812L511.144 251.85L511.399 251.619L511.262 251.305L511.557 251.476L511.812 251.244Z" fill="white"/>
<path d="M516.683 246.621L516.61 246.958L516.905 247.128L516.566 247.166L516.493 247.502L516.355 247.189L516.015 247.227L516.271 246.996L516.133 246.682L516.428 246.853L516.683 246.621Z" fill="white"/>
<path d="M515.875 248.016L515.802 248.352L516.097 248.523L515.757 248.56L515.684 248.897L515.547 248.583L515.207 248.621L515.462 248.39L515.324 248.077L515.62 248.247L515.875 248.016Z" fill="white"/>
<path d="M515.074 249.409L515.001 249.745L515.296 249.916L514.956 249.953L514.884 250.29L514.746 249.977L514.406 250.014L514.661 249.783L514.524 249.47L514.819 249.64L515.074 249.409Z" fill="white"/>
<path d="M514.269 250.803L514.196 251.139L514.491 251.309L514.152 251.347L514.079 251.683L513.941 251.37L513.601 251.408L513.856 251.177L513.719 250.863L514.014 251.034L514.269 250.803Z" fill="white"/>
<path d="M513.46 252.197L513.388 252.534L513.683 252.704L513.343 252.742L513.27 253.078L513.133 252.765L512.793 252.802L513.048 252.571L512.91 252.258L513.205 252.428L513.46 252.197Z" fill="white"/>
<path d="M518.296 247.555L518.224 247.892L518.519 248.062L518.179 248.099L518.106 248.436L517.969 248.123L517.629 248.16L517.884 247.929L517.746 247.616L518.041 247.786L518.296 247.555Z" fill="white"/>
<path d="M517.496 248.949L517.423 249.285L517.718 249.456L517.378 249.493L517.305 249.83L517.168 249.517L516.828 249.554L517.083 249.323L516.946 249.01L517.241 249.18L517.496 248.949Z" fill="white"/>
<path d="M516.691 250.343L516.618 250.679L516.913 250.849L516.573 250.887L516.501 251.223L516.363 250.91L516.023 250.948L516.278 250.717L516.141 250.403L516.436 250.574L516.691 250.343Z" fill="white"/>
<path d="M515.886 251.736L515.814 252.073L516.109 252.243L515.769 252.281L515.696 252.617L515.559 252.304L515.219 252.341L515.474 252.11L515.336 251.797L515.631 251.967L515.886 251.736Z" fill="white"/>
<path d="M515.078 253.131L515.005 253.468L515.3 253.638L514.96 253.676L514.887 254.012L514.75 253.699L514.41 253.736L514.665 253.505L514.528 253.192L514.823 253.362L515.078 253.131Z" fill="white"/>
<path d="M519.914 248.489L519.841 248.825L520.136 248.996L519.796 249.033L519.723 249.37L519.586 249.056L519.246 249.094L519.501 248.863L519.363 248.55L519.658 248.72L519.914 248.489Z" fill="white"/>
<path d="M519.105 249.883L519.032 250.219L519.327 250.389L518.987 250.427L518.915 250.763L518.777 250.45L518.437 250.488L518.692 250.257L518.555 249.943L518.85 250.114L519.105 249.883Z" fill="white"/>
<path d="M518.304 251.276L518.232 251.613L518.527 251.783L518.187 251.821L518.114 252.157L517.977 251.844L517.636 251.881L517.891 251.65L517.754 251.337L518.049 251.507L518.304 251.276Z" fill="white"/>
<path d="M517.5 252.67L517.427 253.006L517.722 253.177L517.382 253.214L517.309 253.551L517.172 253.237L516.832 253.275L517.087 253.044L516.949 252.731L517.244 252.901L517.5 252.67Z" fill="white"/>
<path d="M516.695 254.064L516.622 254.4L516.917 254.571L516.577 254.608L516.505 254.945L516.367 254.631L516.027 254.669L516.282 254.438L516.145 254.125L516.44 254.295L516.695 254.064Z" fill="white"/>
<path d="M521.562 249.442L521.489 249.778L521.784 249.949L521.444 249.986L521.372 250.323L521.234 250.009L520.894 250.047L521.149 249.816L521.012 249.503L521.307 249.673L521.562 249.442Z" fill="white"/>
<path d="M520.761 250.835L520.689 251.171L520.984 251.342L520.644 251.379L520.571 251.716L520.434 251.402L520.094 251.44L520.349 251.209L520.211 250.896L520.506 251.066L520.761 250.835Z" fill="white"/>
<path d="M519.957 252.229L519.884 252.565L520.179 252.736L519.839 252.773L519.766 253.11L519.629 252.796L519.289 252.834L519.544 252.603L519.406 252.29L519.702 252.46L519.957 252.229Z" fill="white"/>
<path d="M519.148 253.623L519.075 253.959L519.37 254.13L519.03 254.167L518.958 254.504L518.82 254.191L518.48 254.228L518.735 253.997L518.598 253.684L518.893 253.854L519.148 253.623Z" fill="white"/>
<path d="M518.347 255.016L518.275 255.353L518.57 255.523L518.23 255.561L518.157 255.897L518.019 255.584L517.68 255.622L517.935 255.391L517.797 255.077L518.092 255.248L518.347 255.016Z" fill="white"/>
<path fill-rule="evenodd" clip-rule="evenodd" d="M512.66 243.658L537.283 257.874L529.715 270.981L505.522 257.013L501.428 264.104L500.999 263.856L512.66 243.658ZM505.77 256.584L529.534 270.303L536.605 258.055L512.842 244.336L505.77 256.584Z" fill="#959DA8"/>
</svg>
