<svg width="882" height="289" viewBox="0 0 882 289" fill="none" xmlns="http://www.w3.org/2000/svg">
<path d="M651.338 249.29C651.788 249.293 652.238 249.246 652.678 249.15C673.178 244.49 673.178 219.66 673.178 219.66C673.178 185.83 651.348 168.87 651.348 168.87C651.348 168.87 629.508 185.79 629.508 219.61C629.508 219.61 629.508 244.47 649.998 249.1C650.436 249.213 650.885 249.277 651.338 249.29Z" fill="#80C33F"/>
<path fill-rule="evenodd" clip-rule="evenodd" d="M651.347 201.53C651.739 201.53 652.057 201.848 652.057 202.24V286.69C652.057 287.082 651.739 287.4 651.347 287.4C650.955 287.4 650.637 287.082 650.637 286.69V202.24C650.637 201.848 650.955 201.53 651.347 201.53Z" fill="#2A3A51"/>
<path d="M607.498 246.51L599.388 238.41L591.288 246.51L591.238 287.61H607.498V246.51Z" fill="#F4F5F6"/>
<path fill-rule="evenodd" clip-rule="evenodd" d="M599.389 236.997L608.5 246.096V288.61H590.238L590.29 246.096L599.389 236.997ZM599.39 239.824L592.289 246.925L592.241 286.61H606.5V246.925L599.39 239.824Z" fill="#959DA8"/>
<path d="M623.729 246.51L615.629 238.41L607.529 246.51L607.469 287.61H623.729V246.51Z" fill="#F4F5F6"/>
<path fill-rule="evenodd" clip-rule="evenodd" d="M615.63 236.996L624.73 246.096V288.61H606.469L606.531 246.095L615.63 236.996ZM608.53 246.925L608.472 286.61H622.73V246.925L615.63 239.825L608.53 246.925Z" fill="#959DA8"/>
<path d="M639.967 246.51L631.867 238.41L623.767 246.51L623.707 287.61H639.967V246.51Z" fill="#F4F5F6"/>
<path fill-rule="evenodd" clip-rule="evenodd" d="M631.869 236.996L640.969 246.096V288.61H622.707L622.769 246.095L631.869 236.996ZM624.768 246.925L624.71 286.61H638.969V246.925L631.869 239.825L624.768 246.925Z" fill="#959DA8"/>
<path d="M656.205 246.51L648.095 238.41L639.995 246.51L639.945 287.61H656.205V246.51Z" fill="#F4F5F6"/>
<path fill-rule="evenodd" clip-rule="evenodd" d="M648.096 236.997L657.206 246.096V288.61H638.945L638.997 246.096L648.096 236.997ZM648.097 239.824L640.996 246.925L640.948 286.61H655.206V246.925L648.097 239.824Z" fill="#959DA8"/>
<path d="M672.44 246.51L664.34 238.41L656.24 246.51L656.18 287.61H672.44V246.51Z" fill="#F4F5F6"/>
<path fill-rule="evenodd" clip-rule="evenodd" d="M664.337 236.996L673.437 246.096V288.61H655.176L655.238 246.095L664.337 236.996ZM664.337 239.825L657.237 246.925L657.179 286.61H671.437V246.925L664.337 239.825Z" fill="#959DA8"/>
<path d="M688.678 246.51L680.578 238.41L672.478 246.51L672.418 287.61H688.678V246.51Z" fill="#F4F5F6"/>
<path fill-rule="evenodd" clip-rule="evenodd" d="M680.579 236.996L689.679 246.096V288.61H671.418L671.48 246.095L680.579 236.996ZM680.579 239.825L673.479 246.925L673.421 286.61H687.679V246.925L680.579 239.825Z" fill="#959DA8"/>
<path d="M704.916 246.51L696.816 238.41L688.706 246.51L688.656 287.61H704.916V246.51Z" fill="#F4F5F6"/>
<path fill-rule="evenodd" clip-rule="evenodd" d="M696.818 236.997L705.917 246.096V288.61H687.656L687.708 246.095L696.818 236.997ZM689.707 246.925L689.659 286.61H703.917V246.925L696.817 239.824L689.707 246.925Z" fill="#959DA8"/>
<path d="M60.7678 246.51L52.6678 238.41L44.5678 246.51L44.5078 287.61H60.7678V246.51Z" fill="#F4F5F6"/>
<path fill-rule="evenodd" clip-rule="evenodd" d="M52.6693 236.996L61.7693 246.096V288.61H43.5078L43.5699 246.095L52.6693 236.996ZM45.5687 246.925L45.5107 286.61H59.7693V246.925L52.6693 239.825L45.5687 246.925Z" fill="#959DA8"/>
<path d="M77.01 246.51L68.91 238.41L60.81 246.51L60.75 287.61H77.01V246.51Z" fill="#F4F5F6"/>
<path fill-rule="evenodd" clip-rule="evenodd" d="M68.9076 236.996L78.0076 246.096V288.61H59.7461L59.8082 246.095L68.9076 236.996ZM61.8069 246.925L61.749 286.61H76.0076V246.925L68.9076 239.825L61.8069 246.925Z" fill="#959DA8"/>
<path d="M93.2483 246.51L85.1483 238.41L77.0383 246.51L76.9883 287.61H93.2483V246.51Z" fill="#F4F5F6"/>
<path fill-rule="evenodd" clip-rule="evenodd" d="M85.1499 236.997L94.2495 246.096V288.61H75.9883L76.04 246.095L85.1499 236.997ZM78.039 246.925L77.9907 286.61H92.2495V246.925L85.1491 239.824L78.039 246.925Z" fill="#959DA8"/>
<path d="M109.479 246.51L101.379 238.41L93.2788 246.51L93.2188 287.61H109.479V246.51Z" fill="#F4F5F6"/>
<path fill-rule="evenodd" clip-rule="evenodd" d="M101.38 236.996L110.48 246.096V288.61H92.2188L92.2808 246.095L101.38 236.996ZM94.2796 246.925L94.2217 286.61H108.48V246.925L101.38 239.825L94.2796 246.925Z" fill="#959DA8"/>
<path d="M125.717 246.51L117.617 238.41L109.517 246.51L109.457 287.61H125.717V246.51Z" fill="#F4F5F6"/>
<path fill-rule="evenodd" clip-rule="evenodd" d="M117.618 236.996L126.718 246.096V288.61H108.457L108.519 246.095L117.618 236.996ZM117.618 239.825L110.518 246.925L110.46 286.61H124.718V246.925L117.618 239.825Z" fill="#959DA8"/>
<path d="M292.467 175.15H249.617V268.24H292.467V175.15Z" fill="#D3DCE5"/>
<path d="M286.398 181.06H255.668V225.39H286.398V181.06Z" fill="white"/>
<path fill-rule="evenodd" clip-rule="evenodd" d="M255.168 180.56H286.898V225.89H255.168V180.56ZM256.168 181.56V224.89H285.898V181.56H256.168Z" fill="#959DA8"/>
<path d="M286.918 232.61C286.918 233.714 286.023 234.61 284.918 234.61C283.813 234.61 282.918 233.714 282.918 232.61C282.918 231.505 283.813 230.61 284.918 230.61C286.023 230.61 286.918 231.505 286.918 232.61Z" fill="white"/>
<path fill-rule="evenodd" clip-rule="evenodd" d="M284.918 231.11C284.09 231.11 283.418 231.781 283.418 232.61C283.418 233.438 284.09 234.11 284.918 234.11C285.746 234.11 286.418 233.438 286.418 232.61C286.418 231.781 285.746 231.11 284.918 231.11ZM282.418 232.61C282.418 231.229 283.537 230.11 284.918 230.11C286.299 230.11 287.418 231.229 287.418 232.61C287.418 233.991 286.299 235.11 284.918 235.11C283.537 235.11 282.418 233.991 282.418 232.61Z" fill="#959DA8"/>
<path fill-rule="evenodd" clip-rule="evenodd" d="M175.699 64.3599L396.102 64.5117L328.213 138.475L116.25 136.046L175.699 64.3599ZM176.638 66.3605L120.467 134.094L327.344 136.465L391.555 66.5086L176.638 66.3605Z" fill="#959DA8"/>
<path fill-rule="evenodd" clip-rule="evenodd" d="M229.988 267.73H343.988V278.5H229.988V267.73ZM230.988 268.73V277.5H342.988V268.73H230.988Z" fill="#959DA8"/>
<path fill-rule="evenodd" clip-rule="evenodd" d="M229.988 277.48H343.988V288.25H229.988V277.48ZM230.988 278.48V287.25H342.988V278.48H230.988Z" fill="#959DA8"/>
<path d="M334.098 135.29H113.688V144.82H334.098V135.29Z" fill="#F4F5F6"/>
<path fill-rule="evenodd" clip-rule="evenodd" d="M112.688 134.29H335.098V145.82H112.688V134.29ZM114.688 136.29V143.82H333.098V136.29H114.688Z" fill="#959DA8"/>
<path d="M337.338 112.52H262.438V162.46H337.338V112.52Z" fill="#F4F5F6"/>
<path fill-rule="evenodd" clip-rule="evenodd" d="M261.938 112.02H337.838V162.96H261.938V112.02ZM262.938 113.02V161.96H336.838V113.02H262.938Z" fill="#959DA8"/>
<path d="M174.399 112.61L231.039 160.4V287.4H117.719V160.4L174.399 112.61Z" fill="#F4F5F6"/>
<path fill-rule="evenodd" clip-rule="evenodd" d="M174.399 111.302L232.039 159.936V288.4H116.719V159.936L174.399 111.302ZM118.719 160.865V286.4H230.039V160.865L174.399 113.919L118.719 160.865Z" fill="#959DA8"/>
<path d="M52.0982 229.53C52.7537 226.465 52.7234 223.292 52.0094 220.239C51.2955 217.186 49.9155 214.329 47.9683 211.872C46.0212 209.415 43.5549 207.419 40.7461 206.026C37.9373 204.634 34.8554 203.879 31.721 203.817C28.5865 203.755 25.4771 204.386 22.6152 205.666C19.7532 206.946 17.2096 208.843 15.1664 211.22C13.1231 213.598 11.6307 216.398 10.796 219.42C9.96134 222.442 9.80499 225.611 10.3382 228.7C7.97645 229.811 5.88458 231.423 4.20756 233.422C2.53054 235.422 1.30848 237.763 0.626103 240.282C-0.0562761 242.801 -0.182655 245.439 0.255727 248.012C0.694108 250.584 1.68676 253.031 3.16488 255.182C4.643 257.333 6.57122 259.137 8.81589 260.469C11.0606 261.801 13.568 262.628 16.1643 262.894C18.7607 263.161 21.3839 262.859 23.852 262.01C26.3202 261.162 28.5743 259.787 30.4582 257.98C32.2858 259.75 34.468 261.113 36.8608 261.978C39.2536 262.843 41.8026 263.191 44.3397 262.999C46.8768 262.807 49.3444 262.079 51.5797 260.864C53.8149 259.648 55.7671 257.973 57.3075 255.948C58.8479 253.923 59.9414 251.594 60.516 249.115C61.0905 246.637 61.1331 244.064 60.6409 241.568C60.1486 239.072 59.1327 236.708 57.6602 234.633C56.1877 232.558 54.292 230.819 52.0982 229.53Z" fill="#80C33F"/>
<path fill-rule="evenodd" clip-rule="evenodd" d="M20.8882 241.296C21.1118 240.96 21.565 240.869 21.9005 241.093L31.7005 247.623C32.036 247.846 32.1267 248.3 31.9032 248.635C31.6796 248.971 31.2264 249.061 30.8909 248.838L21.0909 242.308C20.7554 242.084 20.6647 241.631 20.8882 241.296Z" fill="#2A3A51"/>
<path fill-rule="evenodd" clip-rule="evenodd" d="M43.2911 246.136C43.5532 246.442 43.5174 246.903 43.2111 247.165L31.7711 256.955C31.4647 257.217 31.0039 257.181 30.7418 256.875C30.4797 256.569 30.5155 256.108 30.8218 255.846L42.2618 246.056C42.5681 245.794 43.0289 245.829 43.2911 246.136Z" fill="#2A3A51"/>
<path fill-rule="evenodd" clip-rule="evenodd" d="M31.2769 227.77C31.68 227.77 32.0069 228.097 32.0069 228.5V287.35C32.0069 287.753 31.68 288.08 31.2769 288.08C30.8737 288.08 30.5469 287.753 30.5469 287.35V228.5C30.5469 228.097 30.8737 227.77 31.2769 227.77Z" fill="#2A3A51"/>
<path d="M256.499 112.65H252.219V125.8H256.499V112.65Z" fill="#F4F5F6"/>
<path fill-rule="evenodd" clip-rule="evenodd" d="M251.219 111.65H257.499V126.8H251.219V111.65ZM253.219 113.65V124.8H255.499V113.65H253.219Z" fill="#959DA8"/>
<path d="M373.618 91.0703H258.778L248.258 117.99H384.128L373.618 91.0703Z" fill="#F4F5F6"/>
<path fill-rule="evenodd" clip-rule="evenodd" d="M258.095 90.0703H374.301L385.591 118.99H246.793L258.095 90.0703ZM259.46 92.0703L249.722 116.99H382.663L372.934 92.0703H259.46Z" fill="#959DA8"/>
<path d="M284.298 123.24H270.918V151.45H284.308L284.298 123.24Z" fill="white"/>
<path fill-rule="evenodd" clip-rule="evenodd" d="M270.418 122.74H284.798L284.808 151.95H270.418V122.74ZM271.418 123.74V150.95H283.808L283.798 123.74H271.418Z" fill="#959DA8"/>
<path fill-rule="evenodd" clip-rule="evenodd" d="M277.098 134.63V123.24H278.098V134.63H277.098Z" fill="#959DA8"/>
<path fill-rule="evenodd" clip-rule="evenodd" d="M284.3 135.33H270.93V134.33H284.3V135.33Z" fill="#959DA8"/>
<path d="M307.268 123.24H293.918V151.45H307.308L307.268 123.24Z" fill="white"/>
<path fill-rule="evenodd" clip-rule="evenodd" d="M293.418 122.74H307.767L307.809 151.95H293.418V122.74ZM294.418 123.74V150.95H306.807L306.769 123.74H294.418Z" fill="#959DA8"/>
<path fill-rule="evenodd" clip-rule="evenodd" d="M300.066 134.63V123.24H301.066V134.63H300.066Z" fill="#959DA8"/>
<path fill-rule="evenodd" clip-rule="evenodd" d="M307.267 135.33H293.887V134.33H307.267V135.33Z" fill="#959DA8"/>
<path d="M330.238 123.24H316.848V151.45H330.238V123.24Z" fill="white"/>
<path fill-rule="evenodd" clip-rule="evenodd" d="M316.348 122.74H330.738V151.95H316.348V122.74ZM317.348 123.74V150.95H329.738V123.74H317.348Z" fill="#959DA8"/>
<path fill-rule="evenodd" clip-rule="evenodd" d="M323.039 134.63V123.24H324.039V134.63H323.039Z" fill="#959DA8"/>
<path fill-rule="evenodd" clip-rule="evenodd" d="M330.239 135.33H316.859V134.33H330.239V135.33Z" fill="#959DA8"/>
<path d="M455.066 15.3901L594.066 154.03V287.51H316.066V153.31L455.066 15.3901Z" fill="#F4F5F6"/>
<path fill-rule="evenodd" clip-rule="evenodd" d="M455.068 13.9795L595.066 153.615V288.51H315.066V152.894L455.068 13.9795ZM317.066 153.727V286.51H593.066V154.445L455.065 16.8006L317.066 153.727Z" fill="#959DA8"/>
<path d="M401.456 284.737C401.457 285.801 401.316 286.86 401.036 287.887H306.186C305.891 286.86 305.71 285.803 305.646 284.737C305.236 278.197 310.966 272.847 317.536 272.847C318.9 272.848 320.254 273.088 321.536 273.557C321.46 272.893 321.424 272.225 321.426 271.557C321.396 267.062 322.96 262.703 325.841 259.252C328.722 255.802 332.733 253.485 337.16 252.713C341.588 251.94 346.147 252.763 350.025 255.034C353.904 257.305 356.852 260.878 358.346 265.117C360.48 263.197 363.075 261.863 365.878 261.244C368.681 260.625 371.597 260.742 374.341 261.583C377.086 262.425 379.566 263.963 381.539 266.047C383.513 268.131 384.914 270.691 385.606 273.477C387.397 272.836 389.316 272.636 391.201 272.894C393.086 273.152 394.881 273.86 396.434 274.959C397.987 276.058 399.253 277.515 400.123 279.206C400.994 280.898 401.444 282.774 401.436 284.677L401.456 284.737Z" fill="#80C33F"/>
<path fill-rule="evenodd" clip-rule="evenodd" d="M591.238 151.63H318.758V150.63H591.238V151.63Z" fill="#959DA8"/>
<path fill-rule="evenodd" clip-rule="evenodd" d="M594.337 161.2H316.297V160.2H594.337V161.2Z" fill="#959DA8"/>
<path d="M508.676 143.09H393.836L383.316 170H519.186L508.676 143.09Z" fill="#F4F5F6"/>
<path fill-rule="evenodd" clip-rule="evenodd" d="M393.153 142.09H509.359L520.65 171H381.852L393.153 142.09ZM394.519 144.09L384.781 169H517.722L507.993 144.09H394.519Z" fill="#959DA8"/>
<path d="M469.79 63.3101H439.27V127.61H469.79V63.3101Z" fill="white"/>
<path fill-rule="evenodd" clip-rule="evenodd" d="M438.77 62.8101H470.29V128.11H438.77V62.8101ZM439.77 63.8101V127.11H469.29V63.8101H439.77Z" fill="#959DA8"/>
<path fill-rule="evenodd" clip-rule="evenodd" d="M454.02 89.2701V63.3101H455.02V89.2701H454.02Z" fill="#959DA8"/>
<path fill-rule="evenodd" clip-rule="evenodd" d="M469.787 90.2202H439.297V89.2202H469.787V90.2202Z" fill="#959DA8"/>
<path d="M426.918 175.26H396.398V239.61H426.918V175.26Z" fill="white"/>
<path fill-rule="evenodd" clip-rule="evenodd" d="M395.898 174.76H427.418V240.11H395.898V174.76ZM396.898 175.76V239.11H426.418V175.76H396.898Z" fill="#959DA8"/>
<path fill-rule="evenodd" clip-rule="evenodd" d="M411.148 201.21V175.26H412.148V201.21H411.148Z" fill="#959DA8"/>
<path fill-rule="evenodd" clip-rule="evenodd" d="M426.92 202.17H396.43V201.17H426.92V202.17Z" fill="#959DA8"/>
<path d="M467.026 175.26H436.496V239.61H467.016L467.026 175.26Z" fill="white"/>
<path fill-rule="evenodd" clip-rule="evenodd" d="M435.996 174.76H467.526L467.516 240.11H435.996V174.76ZM436.996 175.76V239.11H466.516L466.526 175.76H436.996Z" fill="#959DA8"/>
<path fill-rule="evenodd" clip-rule="evenodd" d="M451.258 201.21V175.26H452.258V201.21H451.258Z" fill="#959DA8"/>
<path fill-rule="evenodd" clip-rule="evenodd" d="M467.029 202.17H436.539V201.17H467.029V202.17Z" fill="#959DA8"/>
<path d="M507.129 175.26H476.609V239.61H507.129V175.26Z" fill="white"/>
<path fill-rule="evenodd" clip-rule="evenodd" d="M476.109 174.76H507.629V240.11H476.109V174.76ZM477.109 175.76V239.11H506.629V175.76H477.109Z" fill="#959DA8"/>
<path fill-rule="evenodd" clip-rule="evenodd" d="M491.367 201.21V175.26H492.367V201.21H491.367Z" fill="#959DA8"/>
<path fill-rule="evenodd" clip-rule="evenodd" d="M507.128 202.17H476.648V201.17H507.128V202.17Z" fill="#959DA8"/>
<path d="M168.918 175.11H138.398V239.42H168.918V175.11Z" fill="white"/>
<path fill-rule="evenodd" clip-rule="evenodd" d="M137.898 174.61H169.418V239.92H137.898V174.61ZM138.898 175.61V238.92H168.418V175.61H138.898Z" fill="#959DA8"/>
<path fill-rule="evenodd" clip-rule="evenodd" d="M153.156 201.07V175.11H154.156V201.07H153.156Z" fill="#959DA8"/>
<path fill-rule="evenodd" clip-rule="evenodd" d="M168.918 202.03H138.438V201.03H168.918V202.03Z" fill="#959DA8"/>
<path d="M209.016 175.11H178.496V239.42H209.016V175.11Z" fill="white"/>
<path fill-rule="evenodd" clip-rule="evenodd" d="M177.996 174.61H209.516V239.92H177.996V174.61ZM178.996 175.61V238.92H208.516V175.61H178.996Z" fill="#959DA8"/>
<path fill-rule="evenodd" clip-rule="evenodd" d="M193.258 201.07V175.11H194.258V201.07H193.258Z" fill="#959DA8"/>
<path fill-rule="evenodd" clip-rule="evenodd" d="M209.017 202.03H178.527V201.03H209.017V202.03Z" fill="#959DA8"/>
<path d="M213.726 248.15H135.576L134.566 239.29H214.736L213.726 248.15Z" fill="#F4F5F6"/>
<path fill-rule="evenodd" clip-rule="evenodd" d="M134.008 238.79H215.298L214.174 248.65H135.132L134.008 238.79ZM135.128 239.79L136.024 247.65H213.282L214.178 239.79H135.128Z" fill="#959DA8"/>
<path d="M391.21 169.97H386.93V183.12H391.21V169.97Z" fill="#F4F5F6"/>
<path fill-rule="evenodd" clip-rule="evenodd" d="M385.93 168.97H392.21V184.12H385.93V168.97ZM387.93 170.97V182.12H390.21V170.97H387.93Z" fill="#959DA8"/>
<path d="M515.897 170.12H511.617V183.27H515.897V170.12Z" fill="#F4F5F6"/>
<path fill-rule="evenodd" clip-rule="evenodd" d="M510.617 169.12H516.897V184.27H510.617V169.12ZM512.617 171.12V182.27H514.897V171.12H512.617Z" fill="#959DA8"/>
<path d="M246.357 170.98H231.407L174.547 114.11L117.677 170.98H102.727L174.547 99.1699L246.357 170.98Z" fill="#F4F5F6"/>
<path d="M462.339 8.92L455.429 2L448.529 8.92L299.109 158.75L312.729 158.83L455.429 15.84L598.129 158.83L611.779 158.75L462.339 8.92Z" fill="#F4F5F6"/>
<path fill-rule="evenodd" clip-rule="evenodd" d="M174.548 113.403L231.761 170.627L231.054 171.334L174.548 114.818L118.031 171.334L117.324 170.627L174.548 113.403Z" fill="#959DA8"/>
<path fill-rule="evenodd" clip-rule="evenodd" d="M174.547 97.7559L248.771 171.98H231.407V169.98H243.943L174.547 100.584L105.141 169.98H117.677V171.98H100.312L174.547 97.7559Z" fill="#959DA8"/>
<path fill-rule="evenodd" clip-rule="evenodd" d="M455.429 0.584473L463.047 8.21362L614.174 159.735L598.926 159.83L598.919 159.83H596.59L593.325 157.414L594.514 155.806L597.249 157.83L598.913 157.83L598.919 157.83L609.385 157.765L461.632 9.62681L455.43 3.41597L449.238 9.6263L301.504 157.765L311.919 157.83L311.926 157.83L313.595 157.83L315.442 156.491L316.617 158.11L314.244 159.83H311.919L311.913 159.83L296.715 159.735L455.429 0.584473Z" fill="#959DA8"/>
<path fill-rule="evenodd" clip-rule="evenodd" d="M455.429 15.1323L598.483 158.477L597.775 159.183L455.429 16.548L313.083 159.183L312.375 158.477L455.429 15.1323Z" fill="#959DA8"/>
<path d="M767.546 250.958C767.977 250.961 768.408 250.916 768.829 250.824C788.439 246.361 788.449 222.605 788.449 222.605C788.449 190.23 767.555 174 767.555 174C767.555 174 746.652 190.192 746.652 222.605C746.652 222.605 746.652 246.39 766.263 250.824C766.684 250.916 767.115 250.961 767.546 250.958Z" fill="#80C33F"/>
<path d="M767.547 205.943V286.75" stroke="#2A3A51" stroke-width="0.957542" stroke-linecap="round" stroke-linejoin="round"/>
<path d="M865.984 193.15V269.304" stroke="#959DA8" stroke-width="1.91508" stroke-miterlimit="10"/>
<path d="M881.608 216.581H850.363L860.13 193.15H871.841L881.608 216.581Z" fill="#D3DCE5"/>
<path d="M863.91 193.15L858.414 216.581" stroke="#959DA8" stroke-width="0.957542" stroke-miterlimit="10"/>
<path d="M868.184 193.15L873.68 216.581" stroke="#959DA8" stroke-width="0.957542" stroke-miterlimit="10"/>
<path d="M825.857 227.038L824.248 226.741C823.01 228.471 822.482 230.609 822.774 232.716C822.837 233.15 823.064 233.542 823.408 233.813C823.752 234.084 824.187 234.214 824.623 234.174C825.059 234.135 825.464 233.93 825.754 233.602C826.044 233.274 826.197 232.848 826.182 232.41C826.237 230.613 826.128 228.815 825.857 227.038Z" fill="white" stroke="#959DA8" stroke-width="0.957542" stroke-miterlimit="10"/>
<path d="M830.594 224.07L831.025 222.49C833.12 222.126 835.276 222.578 837.048 223.754C837.41 224 837.665 224.374 837.76 224.801C837.855 225.228 837.783 225.675 837.559 226.051C837.335 226.427 836.976 226.703 836.555 226.822C836.134 226.942 835.683 226.896 835.295 226.694C833.652 225.964 832.078 225.085 830.594 224.07Z" fill="white" stroke="#959DA8" stroke-width="0.957542" stroke-miterlimit="10"/>
<path d="M835.417 227.489C836.043 228.605 836.217 229.919 835.902 231.16C835.586 232.401 834.806 233.473 833.722 234.154C832.639 234.836 831.334 235.074 830.08 234.821C828.825 234.568 827.715 233.842 826.981 232.793C825.602 230.591 824.999 225.449 827.325 223.984C829.652 222.519 834.038 225.286 835.417 227.489Z" fill="white" stroke="#959DA8" stroke-width="0.957542" stroke-miterlimit="10"/>
<path d="M822.192 223.252C823.11 222.675 823.387 221.463 822.81 220.545C822.233 219.628 821.021 219.351 820.103 219.928C819.185 220.505 818.909 221.717 819.486 222.635C820.063 223.552 821.275 223.829 822.192 223.252Z" fill="white" stroke="#959DA8" stroke-width="0.957542" stroke-miterlimit="10"/>
<path d="M830.351 219.275C831.272 218.701 831.554 217.488 830.979 216.566C830.404 215.645 829.192 215.364 828.27 215.938C827.349 216.513 827.067 217.726 827.642 218.647C828.217 219.569 829.429 219.85 830.351 219.275Z" fill="white" stroke="#959DA8" stroke-width="0.959168" stroke-miterlimit="10"/>
<path d="M828.844 226.376C831.173 224.913 831.94 221.944 830.558 219.746C829.177 217.547 826.169 216.951 823.841 218.415C821.512 219.878 820.745 222.847 822.127 225.045C823.509 227.243 826.516 227.839 828.844 226.376Z" fill="white" stroke="#959DA8" stroke-width="0.957542" stroke-miterlimit="10"/>
<path d="M831.832 236.604C832.174 235.431 831.348 234.159 829.987 233.762C828.627 233.365 827.247 233.994 826.904 235.167C826.562 236.339 827.388 237.612 828.749 238.009C830.109 238.405 831.49 237.776 831.832 236.604Z" fill="white" stroke="#959DA8" stroke-width="0.976692" stroke-miterlimit="10"/>
<path d="M838.863 231.606C839.096 230.207 838.308 228.912 837.103 228.711C835.898 228.51 834.732 229.481 834.499 230.879C834.267 232.277 835.055 233.573 836.26 233.774C837.465 233.974 838.631 233.004 838.863 231.606Z" fill="white" stroke="#959DA8" stroke-width="0.957542" stroke-miterlimit="10"/>
<path d="M828.847 226.366C829.984 225.651 830.514 224.448 830.03 223.678C829.546 222.907 828.232 222.863 827.094 223.577C825.957 224.292 825.428 225.496 825.912 226.266C826.396 227.036 827.71 227.081 828.847 226.366Z" stroke="#959DA8" stroke-width="0.239385" stroke-miterlimit="10"/>
<path d="M824.797 223.463C824.854 223.211 824.696 222.959 824.443 222.901C824.191 222.844 823.939 223.002 823.882 223.254C823.824 223.507 823.982 223.759 824.235 223.816C824.487 223.874 824.739 223.716 824.797 223.463Z" fill="#959DA8"/>
<path d="M828.108 221.465C828.296 221.347 828.353 221.099 828.235 220.911C828.117 220.722 827.868 220.666 827.68 220.784C827.492 220.902 827.436 221.15 827.554 221.339C827.672 221.527 827.92 221.583 828.108 221.465Z" fill="#959DA8"/>
<path d="M828.036 225.074C828.304 224.905 828.415 224.598 828.283 224.387C828.15 224.177 827.825 224.143 827.557 224.312C827.288 224.481 827.178 224.788 827.31 224.999C827.442 225.209 827.767 225.243 828.036 225.074Z" fill="#959DA8"/>
<path d="M828.062 225.093L828.359 225.562" stroke="#959DA8" stroke-width="0.239385" stroke-miterlimit="10"/>
<path d="M827.633 225.841C828.158 225.729 828.627 225.434 828.954 225.008" stroke="#959DA8" stroke-width="0.239385" stroke-miterlimit="10"/>
<path d="M853.104 231.673H820.883V258.35H853.104V231.673Z" fill="#F4F5F6" stroke="#959DA8" stroke-width="1.91508" stroke-miterlimit="10"/>
<path d="M841.516 258.35V231.673" stroke="#959DA8" stroke-width="0.957542" stroke-miterlimit="10"/>
<path d="M819.932 230.832L812.367 237.381H835.061L841.544 230.832H819.932Z" fill="#D3DCE5"/>
<path d="M859.861 236.376H847.212L841.543 230.832H854.182L859.861 236.376Z" fill="#D3DCE5"/>
<path d="M843.538 258.351H811.316V285.028H843.538V258.351Z" fill="#F4F5F6" stroke="#959DA8" stroke-width="1.91508" stroke-miterlimit="10"/>
<path d="M831.945 285.036V259.048" stroke="#959DA8" stroke-width="0.957542" stroke-miterlimit="10"/>
<path d="M875.756 258.351H843.535V285.028H875.756V258.351Z" fill="#F4F5F6" stroke="#959DA8" stroke-width="1.91508" stroke-miterlimit="10"/>
<path d="M869.707 285.037V258.351" stroke="#959DA8" stroke-width="0.957542" stroke-miterlimit="10"/>
<path d="M804.042 285.495H783.043L798.162 256.931H819.161L804.042 285.495Z" fill="#F4F5F6" stroke="#959DA8" stroke-width="1.91508" stroke-miterlimit="10"/>
<path d="M800.679 263.193C801.856 261.385 802.272 259.568 801.607 259.135C800.942 258.703 799.449 259.818 798.272 261.626C797.095 263.434 796.68 265.251 797.344 265.684C798.009 266.117 799.502 265.001 800.679 263.193Z" fill="#D3DCE5"/>
<path d="M804.358 277.007C807.231 272.592 808.249 268.16 806.631 267.107C805.014 266.054 801.373 268.779 798.5 273.194C795.626 277.608 794.608 282.04 796.226 283.093C797.844 284.146 801.485 281.421 804.358 277.007Z" fill="#D3DCE5"/>
<path d="M794.258 272.686L804.025 260.965V272.686H794.258Z" stroke="#959DA8" stroke-width="0.957542" stroke-miterlimit="10"/>
</svg>
