<svg width="706" height="289" viewBox="0 0 706 289" fill="none" xmlns="http://www.w3.org/2000/svg">
<path d="M651.338 249.29C651.788 249.293 652.238 249.246 652.678 249.15C673.178 244.49 673.178 219.66 673.178 219.66C673.178 185.83 651.348 168.87 651.348 168.87C651.348 168.87 629.508 185.79 629.508 219.61C629.508 219.61 629.508 244.47 649.998 249.1C650.436 249.213 650.885 249.277 651.338 249.29Z" fill="#80C33F"/>
<path fill-rule="evenodd" clip-rule="evenodd" d="M651.347 201.53C651.739 201.53 652.057 201.848 652.057 202.24V286.69C652.057 287.082 651.739 287.4 651.347 287.4C650.955 287.4 650.637 287.082 650.637 286.69V202.24C650.637 201.848 650.955 201.53 651.347 201.53Z" fill="#2A3A51"/>
<path d="M607.498 246.51L599.388 238.41L591.288 246.51L591.238 287.61H607.498V246.51Z" fill="#F4F5F6"/>
<path fill-rule="evenodd" clip-rule="evenodd" d="M599.389 236.997L608.5 246.096V288.61H590.238L590.29 246.096L599.389 236.997ZM599.39 239.824L592.289 246.925L592.241 286.61H606.5V246.925L599.39 239.824Z" fill="#959DA8"/>
<path d="M623.729 246.51L615.629 238.41L607.529 246.51L607.469 287.61H623.729V246.51Z" fill="#F4F5F6"/>
<path fill-rule="evenodd" clip-rule="evenodd" d="M615.63 236.996L624.73 246.096V288.61H606.469L606.531 246.095L615.63 236.996ZM608.53 246.925L608.472 286.61H622.73V246.925L615.63 239.825L608.53 246.925Z" fill="#959DA8"/>
<path d="M639.967 246.51L631.867 238.41L623.767 246.51L623.707 287.61H639.967V246.51Z" fill="#F4F5F6"/>
<path fill-rule="evenodd" clip-rule="evenodd" d="M631.869 236.996L640.969 246.096V288.61H622.707L622.769 246.095L631.869 236.996ZM624.768 246.925L624.71 286.61H638.969V246.925L631.869 239.825L624.768 246.925Z" fill="#959DA8"/>
<path d="M656.205 246.51L648.095 238.41L639.995 246.51L639.945 287.61H656.205V246.51Z" fill="#F4F5F6"/>
<path fill-rule="evenodd" clip-rule="evenodd" d="M648.096 236.997L657.206 246.096V288.61H638.945L638.997 246.096L648.096 236.997ZM648.097 239.824L640.996 246.925L640.948 286.61H655.206V246.925L648.097 239.824Z" fill="#959DA8"/>
<path d="M672.44 246.51L664.34 238.41L656.24 246.51L656.18 287.61H672.44V246.51Z" fill="#F4F5F6"/>
<path fill-rule="evenodd" clip-rule="evenodd" d="M664.337 236.996L673.437 246.096V288.61H655.176L655.238 246.095L664.337 236.996ZM664.337 239.825L657.237 246.925L657.179 286.61H671.437V246.925L664.337 239.825Z" fill="#959DA8"/>
<path d="M688.678 246.51L680.578 238.41L672.478 246.51L672.418 287.61H688.678V246.51Z" fill="#F4F5F6"/>
<path fill-rule="evenodd" clip-rule="evenodd" d="M680.579 236.996L689.679 246.096V288.61H671.418L671.48 246.095L680.579 236.996ZM680.579 239.825L673.479 246.925L673.421 286.61H687.679V246.925L680.579 239.825Z" fill="#959DA8"/>
<path d="M704.916 246.51L696.816 238.41L688.706 246.51L688.656 287.61H704.916V246.51Z" fill="#F4F5F6"/>
<path fill-rule="evenodd" clip-rule="evenodd" d="M696.818 236.997L705.917 246.096V288.61H687.656L687.708 246.095L696.818 236.997ZM689.707 246.925L689.659 286.61H703.917V246.925L696.817 239.824L689.707 246.925Z" fill="#959DA8"/>
<path d="M60.7678 246.51L52.6678 238.41L44.5678 246.51L44.5078 287.61H60.7678V246.51Z" fill="#F4F5F6"/>
<path fill-rule="evenodd" clip-rule="evenodd" d="M52.6693 236.996L61.7693 246.096V288.61H43.5078L43.5699 246.095L52.6693 236.996ZM45.5687 246.925L45.5107 286.61H59.7693V246.925L52.6693 239.825L45.5687 246.925Z" fill="#959DA8"/>
<path d="M77.01 246.51L68.91 238.41L60.81 246.51L60.75 287.61H77.01V246.51Z" fill="#F4F5F6"/>
<path fill-rule="evenodd" clip-rule="evenodd" d="M68.9076 236.996L78.0076 246.096V288.61H59.7461L59.8082 246.095L68.9076 236.996ZM61.8069 246.925L61.749 286.61H76.0076V246.925L68.9076 239.825L61.8069 246.925Z" fill="#959DA8"/>
<path d="M93.2483 246.51L85.1483 238.41L77.0383 246.51L76.9883 287.61H93.2483V246.51Z" fill="#F4F5F6"/>
<path fill-rule="evenodd" clip-rule="evenodd" d="M85.1499 236.997L94.2495 246.096V288.61H75.9883L76.04 246.095L85.1499 236.997ZM78.039 246.925L77.9907 286.61H92.2495V246.925L85.1491 239.824L78.039 246.925Z" fill="#959DA8"/>
<path d="M109.479 246.51L101.379 238.41L93.2788 246.51L93.2188 287.61H109.479V246.51Z" fill="#F4F5F6"/>
<path fill-rule="evenodd" clip-rule="evenodd" d="M101.38 236.996L110.48 246.096V288.61H92.2188L92.2808 246.095L101.38 236.996ZM94.2796 246.925L94.2217 286.61H108.48V246.925L101.38 239.825L94.2796 246.925Z" fill="#959DA8"/>
<path d="M125.717 246.51L117.617 238.41L109.517 246.51L109.457 287.61H125.717V246.51Z" fill="#F4F5F6"/>
<path fill-rule="evenodd" clip-rule="evenodd" d="M117.618 236.996L126.718 246.096V288.61H108.457L108.519 246.095L117.618 236.996ZM117.618 239.825L110.518 246.925L110.46 286.61H124.718V246.925L117.618 239.825Z" fill="#959DA8"/>
<path d="M292.467 175.15H249.617V268.24H292.467V175.15Z" fill="#D3DCE5"/>
<path d="M286.398 181.06H255.668V225.39H286.398V181.06Z" fill="white"/>
<path fill-rule="evenodd" clip-rule="evenodd" d="M255.168 180.56H286.898V225.89H255.168V180.56ZM256.168 181.56V224.89H285.898V181.56H256.168Z" fill="#959DA8"/>
<path d="M286.918 232.61C286.918 233.714 286.023 234.61 284.918 234.61C283.813 234.61 282.918 233.714 282.918 232.61C282.918 231.505 283.813 230.61 284.918 230.61C286.023 230.61 286.918 231.505 286.918 232.61Z" fill="white"/>
<path fill-rule="evenodd" clip-rule="evenodd" d="M284.918 231.11C284.09 231.11 283.418 231.781 283.418 232.61C283.418 233.438 284.09 234.11 284.918 234.11C285.746 234.11 286.418 233.438 286.418 232.61C286.418 231.781 285.746 231.11 284.918 231.11ZM282.418 232.61C282.418 231.229 283.537 230.11 284.918 230.11C286.299 230.11 287.418 231.229 287.418 232.61C287.418 233.991 286.299 235.11 284.918 235.11C283.537 235.11 282.418 233.991 282.418 232.61Z" fill="#959DA8"/>
<path fill-rule="evenodd" clip-rule="evenodd" d="M175.699 64.3599L396.102 64.5117L328.213 138.475L116.25 136.046L175.699 64.3599ZM176.638 66.3605L120.467 134.094L327.344 136.465L391.555 66.5086L176.638 66.3605Z" fill="#959DA8"/>
<path fill-rule="evenodd" clip-rule="evenodd" d="M229.988 267.73H343.988V278.5H229.988V267.73ZM230.988 268.73V277.5H342.988V268.73H230.988Z" fill="#959DA8"/>
<path fill-rule="evenodd" clip-rule="evenodd" d="M229.988 277.48H343.988V288.25H229.988V277.48ZM230.988 278.48V287.25H342.988V278.48H230.988Z" fill="#959DA8"/>
<path d="M334.098 135.29H113.688V144.82H334.098V135.29Z" fill="#F4F5F6"/>
<path fill-rule="evenodd" clip-rule="evenodd" d="M112.688 134.29H335.098V145.82H112.688V134.29ZM114.688 136.29V143.82H333.098V136.29H114.688Z" fill="#959DA8"/>
<path d="M337.338 112.52H262.438V162.46H337.338V112.52Z" fill="#F4F5F6"/>
<path fill-rule="evenodd" clip-rule="evenodd" d="M261.938 112.02H337.838V162.96H261.938V112.02ZM262.938 113.02V161.96H336.838V113.02H262.938Z" fill="#959DA8"/>
<path d="M174.399 112.61L231.039 160.4V287.4H117.719V160.4L174.399 112.61Z" fill="#F4F5F6"/>
<path fill-rule="evenodd" clip-rule="evenodd" d="M174.399 111.302L232.039 159.936V288.4H116.719V159.936L174.399 111.302ZM118.719 160.865V286.4H230.039V160.865L174.399 113.919L118.719 160.865Z" fill="#959DA8"/>
<path d="M52.0982 229.53C52.7537 226.465 52.7234 223.292 52.0094 220.239C51.2955 217.186 49.9155 214.329 47.9683 211.872C46.0212 209.415 43.5549 207.419 40.7461 206.026C37.9373 204.634 34.8554 203.879 31.721 203.817C28.5865 203.755 25.4771 204.386 22.6152 205.666C19.7532 206.946 17.2096 208.843 15.1664 211.22C13.1231 213.598 11.6307 216.398 10.796 219.42C9.96134 222.442 9.80499 225.611 10.3382 228.7C7.97645 229.811 5.88458 231.423 4.20756 233.422C2.53054 235.422 1.30848 237.763 0.626103 240.282C-0.0562761 242.801 -0.182655 245.439 0.255727 248.012C0.694108 250.584 1.68676 253.031 3.16488 255.182C4.643 257.333 6.57122 259.137 8.81589 260.469C11.0606 261.801 13.568 262.628 16.1643 262.894C18.7607 263.161 21.3839 262.859 23.852 262.01C26.3202 261.162 28.5743 259.787 30.4582 257.98C32.2858 259.75 34.468 261.113 36.8608 261.978C39.2536 262.843 41.8026 263.191 44.3397 262.999C46.8768 262.807 49.3444 262.079 51.5797 260.864C53.8149 259.648 55.7671 257.973 57.3075 255.948C58.8479 253.923 59.9414 251.594 60.516 249.115C61.0905 246.637 61.1331 244.064 60.6409 241.568C60.1486 239.072 59.1327 236.708 57.6602 234.633C56.1877 232.558 54.292 230.819 52.0982 229.53Z" fill="#80C33F"/>
<path fill-rule="evenodd" clip-rule="evenodd" d="M20.8882 241.296C21.1118 240.96 21.565 240.869 21.9005 241.093L31.7005 247.623C32.036 247.846 32.1267 248.3 31.9032 248.635C31.6796 248.971 31.2264 249.061 30.8909 248.838L21.0909 242.308C20.7554 242.084 20.6647 241.631 20.8882 241.296Z" fill="#2A3A51"/>
<path fill-rule="evenodd" clip-rule="evenodd" d="M43.2911 246.136C43.5532 246.442 43.5174 246.903 43.2111 247.165L31.7711 256.955C31.4647 257.217 31.0039 257.181 30.7418 256.875C30.4797 256.569 30.5155 256.108 30.8218 255.846L42.2618 246.056C42.5681 245.794 43.0289 245.829 43.2911 246.136Z" fill="#2A3A51"/>
<path fill-rule="evenodd" clip-rule="evenodd" d="M31.2769 227.77C31.68 227.77 32.0069 228.097 32.0069 228.5V287.35C32.0069 287.753 31.68 288.08 31.2769 288.08C30.8737 288.08 30.5469 287.753 30.5469 287.35V228.5C30.5469 228.097 30.8737 227.77 31.2769 227.77Z" fill="#2A3A51"/>
<path d="M256.499 112.65H252.219V125.8H256.499V112.65Z" fill="#F4F5F6"/>
<path fill-rule="evenodd" clip-rule="evenodd" d="M251.219 111.65H257.499V126.8H251.219V111.65ZM253.219 113.65V124.8H255.499V113.65H253.219Z" fill="#959DA8"/>
<path d="M373.618 91.0703H258.778L248.258 117.99H384.128L373.618 91.0703Z" fill="#F4F5F6"/>
<path fill-rule="evenodd" clip-rule="evenodd" d="M258.095 90.0703H374.301L385.591 118.99H246.793L258.095 90.0703ZM259.46 92.0703L249.722 116.99H382.663L372.934 92.0703H259.46Z" fill="#959DA8"/>
<path d="M284.298 123.24H270.918V151.45H284.308L284.298 123.24Z" fill="white"/>
<path fill-rule="evenodd" clip-rule="evenodd" d="M270.418 122.74H284.798L284.808 151.95H270.418V122.74ZM271.418 123.74V150.95H283.808L283.798 123.74H271.418Z" fill="#959DA8"/>
<path fill-rule="evenodd" clip-rule="evenodd" d="M277.098 134.63V123.24H278.098V134.63H277.098Z" fill="#959DA8"/>
<path fill-rule="evenodd" clip-rule="evenodd" d="M284.3 135.33H270.93V134.33H284.3V135.33Z" fill="#959DA8"/>
<path d="M307.268 123.24H293.918V151.45H307.308L307.268 123.24Z" fill="white"/>
<path fill-rule="evenodd" clip-rule="evenodd" d="M293.418 122.74H307.767L307.809 151.95H293.418V122.74ZM294.418 123.74V150.95H306.807L306.769 123.74H294.418Z" fill="#959DA8"/>
<path fill-rule="evenodd" clip-rule="evenodd" d="M300.066 134.63V123.24H301.066V134.63H300.066Z" fill="#959DA8"/>
<path fill-rule="evenodd" clip-rule="evenodd" d="M307.267 135.33H293.887V134.33H307.267V135.33Z" fill="#959DA8"/>
<path d="M330.238 123.24H316.848V151.45H330.238V123.24Z" fill="white"/>
<path fill-rule="evenodd" clip-rule="evenodd" d="M316.348 122.74H330.738V151.95H316.348V122.74ZM317.348 123.74V150.95H329.738V123.74H317.348Z" fill="#959DA8"/>
<path fill-rule="evenodd" clip-rule="evenodd" d="M323.039 134.63V123.24H324.039V134.63H323.039Z" fill="#959DA8"/>
<path fill-rule="evenodd" clip-rule="evenodd" d="M330.239 135.33H316.859V134.33H330.239V135.33Z" fill="#959DA8"/>
<path d="M455.066 15.3901L594.066 154.03V287.51H316.066V153.31L455.066 15.3901Z" fill="#F4F5F6"/>
<path fill-rule="evenodd" clip-rule="evenodd" d="M455.068 13.9795L595.066 153.615V288.51H315.066V152.894L455.068 13.9795ZM317.066 153.727V286.51H593.066V154.445L455.065 16.8006L317.066 153.727Z" fill="#959DA8"/>
<path d="M401.456 284.737C401.457 285.801 401.316 286.86 401.036 287.887H306.186C305.891 286.86 305.71 285.803 305.646 284.737C305.236 278.197 310.966 272.847 317.536 272.847C318.9 272.848 320.254 273.088 321.536 273.557C321.46 272.893 321.424 272.225 321.426 271.557C321.396 267.062 322.96 262.703 325.841 259.252C328.722 255.802 332.733 253.485 337.16 252.713C341.588 251.94 346.147 252.763 350.025 255.034C353.904 257.305 356.852 260.878 358.346 265.117C360.48 263.197 363.075 261.863 365.878 261.244C368.681 260.625 371.597 260.742 374.341 261.583C377.086 262.425 379.566 263.963 381.539 266.047C383.513 268.131 384.914 270.691 385.606 273.477C387.397 272.836 389.316 272.636 391.201 272.894C393.086 273.152 394.881 273.86 396.434 274.959C397.987 276.058 399.253 277.515 400.123 279.206C400.994 280.898 401.444 282.774 401.436 284.677L401.456 284.737Z" fill="#80C33F"/>
<path fill-rule="evenodd" clip-rule="evenodd" d="M591.238 151.63H318.758V150.63H591.238V151.63Z" fill="#959DA8"/>
<path fill-rule="evenodd" clip-rule="evenodd" d="M594.337 161.2H316.297V160.2H594.337V161.2Z" fill="#959DA8"/>
<path d="M508.676 143.09H393.836L383.316 170H519.186L508.676 143.09Z" fill="#F4F5F6"/>
<path fill-rule="evenodd" clip-rule="evenodd" d="M393.153 142.09H509.359L520.65 171H381.852L393.153 142.09ZM394.519 144.09L384.781 169H517.722L507.993 144.09H394.519Z" fill="#959DA8"/>
<path d="M469.79 63.3101H439.27V127.61H469.79V63.3101Z" fill="white"/>
<path fill-rule="evenodd" clip-rule="evenodd" d="M438.77 62.8101H470.29V128.11H438.77V62.8101ZM439.77 63.8101V127.11H469.29V63.8101H439.77Z" fill="#959DA8"/>
<path fill-rule="evenodd" clip-rule="evenodd" d="M454.02 89.2701V63.3101H455.02V89.2701H454.02Z" fill="#959DA8"/>
<path fill-rule="evenodd" clip-rule="evenodd" d="M469.787 90.2202H439.297V89.2202H469.787V90.2202Z" fill="#959DA8"/>
<path d="M426.918 175.26H396.398V239.61H426.918V175.26Z" fill="white"/>
<path fill-rule="evenodd" clip-rule="evenodd" d="M395.898 174.76H427.418V240.11H395.898V174.76ZM396.898 175.76V239.11H426.418V175.76H396.898Z" fill="#959DA8"/>
<path fill-rule="evenodd" clip-rule="evenodd" d="M411.148 201.21V175.26H412.148V201.21H411.148Z" fill="#959DA8"/>
<path fill-rule="evenodd" clip-rule="evenodd" d="M426.92 202.17H396.43V201.17H426.92V202.17Z" fill="#959DA8"/>
<path d="M467.026 175.26H436.496V239.61H467.016L467.026 175.26Z" fill="white"/>
<path fill-rule="evenodd" clip-rule="evenodd" d="M435.996 174.76H467.526L467.516 240.11H435.996V174.76ZM436.996 175.76V239.11H466.516L466.526 175.76H436.996Z" fill="#959DA8"/>
<path fill-rule="evenodd" clip-rule="evenodd" d="M451.258 201.21V175.26H452.258V201.21H451.258Z" fill="#959DA8"/>
<path fill-rule="evenodd" clip-rule="evenodd" d="M467.029 202.17H436.539V201.17H467.029V202.17Z" fill="#959DA8"/>
<path d="M507.129 175.26H476.609V239.61H507.129V175.26Z" fill="white"/>
<path fill-rule="evenodd" clip-rule="evenodd" d="M476.109 174.76H507.629V240.11H476.109V174.76ZM477.109 175.76V239.11H506.629V175.76H477.109Z" fill="#959DA8"/>
<path fill-rule="evenodd" clip-rule="evenodd" d="M491.367 201.21V175.26H492.367V201.21H491.367Z" fill="#959DA8"/>
<path fill-rule="evenodd" clip-rule="evenodd" d="M507.128 202.17H476.648V201.17H507.128V202.17Z" fill="#959DA8"/>
<path d="M168.918 175.11H138.398V239.42H168.918V175.11Z" fill="white"/>
<path fill-rule="evenodd" clip-rule="evenodd" d="M137.898 174.61H169.418V239.92H137.898V174.61ZM138.898 175.61V238.92H168.418V175.61H138.898Z" fill="#959DA8"/>
<path fill-rule="evenodd" clip-rule="evenodd" d="M153.156 201.07V175.11H154.156V201.07H153.156Z" fill="#959DA8"/>
<path fill-rule="evenodd" clip-rule="evenodd" d="M168.918 202.03H138.438V201.03H168.918V202.03Z" fill="#959DA8"/>
<path d="M209.016 175.11H178.496V239.42H209.016V175.11Z" fill="white"/>
<path fill-rule="evenodd" clip-rule="evenodd" d="M177.996 174.61H209.516V239.92H177.996V174.61ZM178.996 175.61V238.92H208.516V175.61H178.996Z" fill="#959DA8"/>
<path fill-rule="evenodd" clip-rule="evenodd" d="M193.258 201.07V175.11H194.258V201.07H193.258Z" fill="#959DA8"/>
<path fill-rule="evenodd" clip-rule="evenodd" d="M209.017 202.03H178.527V201.03H209.017V202.03Z" fill="#959DA8"/>
<path d="M213.726 248.15H135.576L134.566 239.29H214.736L213.726 248.15Z" fill="#F4F5F6"/>
<path fill-rule="evenodd" clip-rule="evenodd" d="M134.008 238.79H215.298L214.174 248.65H135.132L134.008 238.79ZM135.128 239.79L136.024 247.65H213.282L214.178 239.79H135.128Z" fill="#959DA8"/>
<path d="M391.21 169.97H386.93V183.12H391.21V169.97Z" fill="#F4F5F6"/>
<path fill-rule="evenodd" clip-rule="evenodd" d="M385.93 168.97H392.21V184.12H385.93V168.97ZM387.93 170.97V182.12H390.21V170.97H387.93Z" fill="#959DA8"/>
<path d="M515.897 170.12H511.617V183.27H515.897V170.12Z" fill="#F4F5F6"/>
<path fill-rule="evenodd" clip-rule="evenodd" d="M510.617 169.12H516.897V184.27H510.617V169.12ZM512.617 171.12V182.27H514.897V171.12H512.617Z" fill="#959DA8"/>
<path d="M246.357 170.98H231.407L174.547 114.11L117.677 170.98H102.727L174.547 99.1699L246.357 170.98Z" fill="#F4F5F6"/>
<path d="M462.339 8.92L455.429 2L448.529 8.92L299.109 158.75L312.729 158.83L455.429 15.84L598.129 158.83L611.779 158.75L462.339 8.92Z" fill="#F4F5F6"/>
<path fill-rule="evenodd" clip-rule="evenodd" d="M174.548 113.403L231.761 170.627L231.054 171.334L174.548 114.818L118.031 171.334L117.324 170.627L174.548 113.403Z" fill="#959DA8"/>
<path fill-rule="evenodd" clip-rule="evenodd" d="M174.547 97.7559L248.771 171.98H231.407V169.98H243.943L174.547 100.584L105.141 169.98H117.677V171.98H100.312L174.547 97.7559Z" fill="#959DA8"/>
<path fill-rule="evenodd" clip-rule="evenodd" d="M455.429 0.584473L463.047 8.21362L614.174 159.735L598.926 159.83L598.919 159.83H596.59L593.325 157.414L594.514 155.806L597.249 157.83L598.913 157.83L598.919 157.83L609.385 157.765L461.632 9.62681L455.43 3.41597L449.238 9.6263L301.504 157.765L311.919 157.83L311.926 157.83L313.595 157.83L315.442 156.491L316.617 158.11L314.244 159.83H311.919L311.913 159.83L296.715 159.735L455.429 0.584473Z" fill="#959DA8"/>
<path d="M629.813 73.1123H573V102.889H629.813V73.1123Z" fill="white"/>
<path d="M629.766 73.0005H573V75.3559H629.766V73.0005Z" fill="#B22234"/>
<path d="M629.769 77.6079H573.004V79.9633H629.769V77.6079Z" fill="#B22234"/>
<path d="M629.769 82.2153H573.004V84.5708H629.769V82.2153Z" fill="#B22234"/>
<path d="M629.769 86.8228H573.004V89.1782H629.769V86.8228Z" fill="#B22234"/>
<path d="M629.769 91.4297H573.004V93.7851H629.769V91.4297Z" fill="#B22234"/>
<path d="M629.769 96.0371H573.004V98.3925H629.769V96.0371Z" fill="#B22234"/>
<path d="M629.769 100.645H573.004V103H629.769V100.645Z" fill="#B22234"/>
<path d="M595.672 73H573V89.1786H595.672V73Z" fill="#2A3A51"/>
<path d="M574.926 73.6196L575.138 74.2802H575.825L575.269 74.6882L575.482 75.3488L574.926 74.9405L574.371 75.3488L574.583 74.6882L574.027 74.2802H574.714L574.926 73.6196Z" fill="white"/>
<path d="M576.797 75.2793L577.009 75.9399H577.696L577.141 76.3482L577.353 77.0084L576.797 76.6004L576.242 77.0084L576.454 76.3482L575.898 75.9399H576.585L576.797 75.2793Z" fill="white"/>
<path d="M576.797 78.5229L577.009 79.1832H577.696L577.141 79.5915L577.353 80.2518L576.797 79.8438L576.242 80.2518L576.454 79.5915L575.898 79.1832H576.585L576.797 78.5229Z" fill="white"/>
<path d="M576.797 81.7666L577.009 82.4269H577.696L577.141 82.8352L577.353 83.4955L576.797 83.0875L576.242 83.4955L576.454 82.8352L575.898 82.4269H576.585L576.797 81.7666Z" fill="white"/>
<path d="M576.797 85.0103L577.009 85.6705H577.696L577.141 86.0788L577.353 86.7391L576.797 86.3311L576.242 86.7391L576.454 86.0788L575.898 85.6705H576.585L576.797 85.0103Z" fill="white"/>
<path d="M580.582 75.2793L580.794 75.9399H581.481L580.926 76.3482L581.138 77.0084L580.582 76.6004L580.027 77.0084L580.239 76.3482L579.684 75.9399H580.37L580.582 75.2793Z" fill="white"/>
<path d="M580.582 78.5229L580.794 79.1832H581.481L580.926 79.5915L581.138 80.2518L580.582 79.8438L580.027 80.2518L580.239 79.5915L579.684 79.1832H580.37L580.582 78.5229Z" fill="white"/>
<path d="M580.582 81.7666L580.794 82.4269H581.481L580.926 82.8352L581.138 83.4955L580.582 83.0875L580.027 83.4955L580.239 82.8352L579.684 82.4269H580.37L580.582 81.7666Z" fill="white"/>
<path d="M580.582 85.0103L580.794 85.6705H581.481L580.926 86.0788L581.138 86.7391L580.582 86.3311L580.027 86.7391L580.239 86.0788L579.684 85.6705H580.37L580.582 85.0103Z" fill="white"/>
<path d="M584.371 75.2793L584.584 75.9399H585.27L584.715 76.3482L584.927 77.0084L584.371 76.6004L583.816 77.0084L584.028 76.3482L583.473 75.9399H584.159L584.371 75.2793Z" fill="white"/>
<path d="M584.371 78.5229L584.584 79.1832H585.27L584.715 79.5915L584.927 80.2518L584.371 79.8438L583.816 80.2518L584.028 79.5915L583.473 79.1832H584.159L584.371 78.5229Z" fill="white"/>
<path d="M584.371 81.7666L584.584 82.4269H585.27L584.715 82.8352L584.927 83.4955L584.371 83.0875L583.816 83.4955L584.028 82.8352L583.473 82.4269H584.159L584.371 81.7666Z" fill="white"/>
<path d="M584.371 85.0103L584.584 85.6705H585.27L584.715 86.0788L584.927 86.7391L584.371 86.3311L583.816 86.7391L584.028 86.0788L583.473 85.6705H584.159L584.371 85.0103Z" fill="white"/>
<path d="M588.16 75.2793L588.373 75.9399H589.059L588.504 76.3482L588.716 77.0084L588.16 76.6004L587.605 77.0084L587.817 76.3482L587.262 75.9399H587.948L588.16 75.2793Z" fill="white"/>
<path d="M588.16 78.5229L588.373 79.1832H589.059L588.504 79.5915L588.716 80.2518L588.16 79.8438L587.605 80.2518L587.817 79.5915L587.262 79.1832H587.948L588.16 78.5229Z" fill="white"/>
<path d="M588.16 81.7666L588.373 82.4269H589.059L588.504 82.8352L588.716 83.4955L588.16 83.0875L587.605 83.4955L587.817 82.8352L587.262 82.4269H587.948L588.16 81.7666Z" fill="white"/>
<path d="M588.16 85.0103L588.373 85.6705H589.059L588.504 86.0788L588.716 86.7391L588.16 86.3311L587.605 86.7391L587.817 86.0788L587.262 85.6705H587.948L588.16 85.0103Z" fill="white"/>
<path d="M591.949 75.2793L592.162 75.9399H592.848L592.293 76.3482L592.505 77.0084L591.949 76.6004L591.394 77.0084L591.606 76.3482L591.051 75.9399H591.737L591.949 75.2793Z" fill="white"/>
<path d="M591.949 78.5229L592.162 79.1832H592.848L592.293 79.5915L592.505 80.2518L591.949 79.8438L591.394 80.2518L591.606 79.5915L591.051 79.1832H591.737L591.949 78.5229Z" fill="white"/>
<path d="M591.949 81.7666L592.162 82.4269H592.848L592.293 82.8352L592.505 83.4955L591.949 83.0875L591.394 83.4955L591.606 82.8352L591.051 82.4269H591.737L591.949 81.7666Z" fill="white"/>
<path d="M591.949 85.0103L592.162 85.6705H592.848L592.293 86.0788L592.505 86.7391L591.949 86.3311L591.394 86.7391L591.606 86.0788L591.051 85.6705H591.737L591.949 85.0103Z" fill="white"/>
<path d="M574.926 76.8628L575.138 77.5231H575.825L575.269 77.9311L575.482 78.5916L574.926 78.1834L574.371 78.5916L574.583 77.9311L574.027 77.5231H574.714L574.926 76.8628Z" fill="white"/>
<path d="M574.926 80.1064L575.138 80.7667H575.825L575.269 81.175L575.482 81.8353L574.926 81.427L574.371 81.8353L574.583 81.175L574.027 80.7667H574.714L574.926 80.1064Z" fill="white"/>
<path d="M574.926 83.3501L575.138 84.0104H575.825L575.269 84.4187L575.482 85.079L574.926 84.671L574.371 85.079L574.583 84.4187L574.027 84.0104H574.714L574.926 83.3501Z" fill="white"/>
<path d="M574.926 86.5938L575.138 87.254H575.825L575.269 87.6623L575.482 88.3226L574.926 87.9146L574.371 88.3226L574.583 87.6623L574.027 87.254H574.714L574.926 86.5938Z" fill="white"/>
<path d="M578.664 73.6196L578.876 74.2802H579.563L579.008 74.6882L579.22 75.3488L578.664 74.9405L578.109 75.3488L578.321 74.6882L577.766 74.2802H578.452L578.664 73.6196Z" fill="white"/>
<path d="M578.664 76.8628L578.876 77.5231H579.563L579.008 77.9311L579.22 78.5916L578.664 78.1834L578.109 78.5916L578.321 77.9311L577.766 77.5231H578.452L578.664 76.8628Z" fill="white"/>
<path d="M578.664 80.1064L578.876 80.7667H579.563L579.008 81.175L579.22 81.8353L578.664 81.427L578.109 81.8353L578.321 81.175L577.766 80.7667H578.452L578.664 80.1064Z" fill="white"/>
<path d="M578.664 83.3501L578.876 84.0104H579.563L579.008 84.4187L579.22 85.079L578.664 84.671L578.109 85.079L578.321 84.4187L577.766 84.0104H578.452L578.664 83.3501Z" fill="white"/>
<path d="M578.664 86.5938L578.876 87.254H579.563L579.008 87.6623L579.22 88.3226L578.664 87.9146L578.109 88.3226L578.321 87.6623L577.766 87.254H578.452L578.664 86.5938Z" fill="white"/>
<path d="M582.504 73.6196L582.716 74.2802H583.403L582.848 74.6882L583.06 75.3488L582.504 74.9405L581.949 75.3488L582.161 74.6882L581.605 74.2802H582.292L582.504 73.6196Z" fill="white"/>
<path d="M582.504 76.8628L582.716 77.5231H583.403L582.848 77.9311L583.06 78.5916L582.504 78.1834L581.949 78.5916L582.161 77.9311L581.605 77.5231H582.292L582.504 76.8628Z" fill="white"/>
<path d="M582.504 80.1064L582.716 80.7667H583.403L582.848 81.175L583.06 81.8353L582.504 81.427L581.949 81.8353L582.161 81.175L581.605 80.7667H582.292L582.504 80.1064Z" fill="white"/>
<path d="M582.504 83.3501L582.716 84.0104H583.403L582.848 84.4187L583.06 85.079L582.504 84.671L581.949 85.079L582.161 84.4187L581.605 84.0104H582.292L582.504 83.3501Z" fill="white"/>
<path d="M582.504 86.5938L582.716 87.254H583.403L582.848 87.6623L583.06 88.3226L582.504 87.9146L581.949 88.3226L582.161 87.6623L581.605 87.254H582.292L582.504 86.5938Z" fill="white"/>
<path d="M586.266 73.6196L586.478 74.2802H587.165L586.609 74.6882L586.821 75.3488L586.266 74.9405L585.71 75.3488L585.922 74.6882L585.367 74.2802H586.054L586.266 73.6196Z" fill="white"/>
<path d="M586.266 76.8628L586.478 77.5231H587.165L586.609 77.9311L586.821 78.5916L586.266 78.1834L585.71 78.5916L585.922 77.9311L585.367 77.5231H586.054L586.266 76.8628Z" fill="white"/>
<path d="M586.266 80.1064L586.478 80.7667H587.165L586.609 81.175L586.821 81.8353L586.266 81.427L585.71 81.8353L585.922 81.175L585.367 80.7667H586.054L586.266 80.1064Z" fill="white"/>
<path d="M586.266 83.3501L586.478 84.0104H587.165L586.609 84.4187L586.821 85.079L586.266 84.671L585.71 85.079L585.922 84.4187L585.367 84.0104H586.054L586.266 83.3501Z" fill="white"/>
<path d="M586.266 86.5938L586.478 87.254H587.165L586.609 87.6623L586.821 88.3226L586.266 87.9146L585.71 88.3226L585.922 87.6623L585.367 87.254H586.054L586.266 86.5938Z" fill="white"/>
<path d="M590.028 73.6196L590.24 74.2802H590.926L590.371 74.6882L590.583 75.3488L590.028 74.9405L589.472 75.3488L589.684 74.6882L589.129 74.2802H589.815L590.028 73.6196Z" fill="white"/>
<path d="M590.028 76.8628L590.24 77.5231H590.926L590.371 77.9311L590.583 78.5916L590.028 78.1834L589.472 78.5916L589.684 77.9311L589.129 77.5231H589.815L590.028 76.8628Z" fill="white"/>
<path d="M590.028 80.1064L590.24 80.7667H590.926L590.371 81.175L590.583 81.8353L590.028 81.427L589.472 81.8353L589.684 81.175L589.129 80.7667H589.815L590.028 80.1064Z" fill="white"/>
<path d="M590.028 83.3501L590.24 84.0104H590.926L590.371 84.4187L590.583 85.079L590.028 84.671L589.472 85.079L589.684 84.4187L589.129 84.0104H589.815L590.028 83.3501Z" fill="white"/>
<path d="M590.028 86.5938L590.24 87.254H590.926L590.371 87.6623L590.583 88.3226L590.028 87.9146L589.472 88.3226L589.684 87.6623L589.129 87.254H589.815L590.028 86.5938Z" fill="white"/>
<path d="M593.868 73.6196L594.08 74.2802H594.767L594.211 74.6882L594.423 75.3488L593.868 74.9405L593.312 75.3488L593.524 74.6882L592.969 74.2802H593.655L593.868 73.6196Z" fill="white"/>
<path d="M593.868 76.8628L594.08 77.5231H594.767L594.211 77.9311L594.423 78.5916L593.868 78.1834L593.312 78.5916L593.524 77.9311L592.969 77.5231H593.655L593.868 76.8628Z" fill="white"/>
<path d="M593.868 80.1064L594.08 80.7667H594.767L594.211 81.175L594.423 81.8353L593.868 81.427L593.312 81.8353L593.524 81.175L592.969 80.7667H593.655L593.868 80.1064Z" fill="white"/>
<path d="M593.868 83.3501L594.08 84.0104H594.767L594.211 84.4187L594.423 85.079L593.868 84.671L593.312 85.079L593.524 84.4187L592.969 84.0104H593.655L593.868 83.3501Z" fill="white"/>
<path d="M593.868 86.5938L594.08 87.254H594.767L594.211 87.6623L594.423 88.3226L593.868 87.9146L593.312 88.3226L593.524 87.6623L592.969 87.254H593.655L593.868 86.5938Z" fill="white"/>
<path fill-rule="evenodd" clip-rule="evenodd" d="M572.5 72.5H629.795V103H573.5V119.5H572.5V72.5ZM573.5 102H628.795V73.5H573.5V102Z" fill="#959DA8"/>
<path fill-rule="evenodd" clip-rule="evenodd" d="M455.429 15.1323L598.483 158.477L597.775 159.183L455.429 16.548L313.083 159.183L312.375 158.477L455.429 15.1323Z" fill="#959DA8"/>
</svg>
