<svg width="705" height="295" viewBox="0 0 705 295" fill="none" xmlns="http://www.w3.org/2000/svg">
<path d="M565.042 178.496C566.047 173.786 565.998 168.912 564.9 164.223C563.802 159.534 561.681 155.146 558.689 151.372C555.697 147.598 551.908 144.532 547.593 142.393C543.278 140.255 538.544 139.096 533.729 139.001C528.914 138.905 524.137 139.875 519.741 141.84C515.344 143.806 511.436 146.719 508.297 150.371C505.157 154.023 502.864 158.324 501.58 162.965C500.297 167.607 500.055 172.475 500.872 177.221C497.3 178.959 494.145 181.447 491.623 184.516C489.101 187.584 487.27 191.161 486.257 195.002C485.244 198.843 485.071 202.857 485.751 206.771C486.432 210.684 487.949 214.405 490.198 217.679C492.448 220.952 495.378 223.702 498.788 225.739C502.198 227.777 506.007 229.054 509.956 229.485C513.905 229.915 517.9 229.488 521.669 228.233C525.438 226.978 528.891 224.925 531.794 222.213C534.614 224.849 537.956 226.864 541.604 228.129C545.252 229.393 549.125 229.878 552.972 229.552C556.819 229.227 560.555 228.097 563.938 226.238C567.322 224.378 570.278 221.83 572.615 218.757C574.952 215.684 576.618 212.155 577.507 208.397C578.395 204.64 578.485 200.738 577.771 196.944C577.058 193.15 575.556 189.547 573.363 186.37C571.17 183.192 568.336 180.51 565.042 178.496Z" fill="#80C33F"/>
<path fill-rule="evenodd" clip-rule="evenodd" d="M517.397 196.633C517.614 196.306 518.055 196.218 518.381 196.436L533.452 206.48C533.779 206.697 533.867 207.138 533.65 207.464C533.432 207.791 532.991 207.879 532.665 207.661L517.594 197.617C517.267 197.4 517.179 196.959 517.397 196.633Z" fill="#2A3A51"/>
<path fill-rule="evenodd" clip-rule="evenodd" d="M551.187 204.1C551.442 204.398 551.407 204.846 551.109 205.101L533.519 220.162C533.222 220.417 532.773 220.382 532.518 220.084C532.263 219.787 532.298 219.338 532.596 219.083L550.186 204.022C550.484 203.767 550.932 203.802 551.187 204.1Z" fill="#2A3A51"/>
<path fill-rule="evenodd" clip-rule="evenodd" d="M533.058 176.217C533.45 176.217 533.768 176.535 533.768 176.927V267.344C533.768 267.736 533.45 268.054 533.058 268.054C532.666 268.054 532.348 267.736 532.348 267.344V176.927C532.348 176.535 532.666 176.217 533.058 176.217Z" fill="#2A3A51"/>
<path fill-rule="evenodd" clip-rule="evenodd" d="M583.824 293.052L606.138 215.824L607.771 216.296L585.457 293.524L583.824 293.052Z" fill="#959DA8"/>
<path fill-rule="evenodd" clip-rule="evenodd" d="M629.3 293.523L606.996 216.296L608.629 215.824L630.933 293.052L629.3 293.523Z" fill="#959DA8"/>
<path d="M689.29 243.098L686.184 252.727L680.712 269.69H607.773L613.256 252.727L616.361 243.098H689.29Z" fill="#F4F5F6"/>
<path fill-rule="evenodd" clip-rule="evenodd" d="M616.053 242.673H689.875L681.024 270.115H607.191L612.853 252.597L616.053 242.673ZM616.672 243.523L608.359 269.265H680.405L688.708 243.523H616.672Z" fill="#959DA8"/>
<path d="M680.711 269.691H590.617V276.559H680.711V269.691Z" fill="#F4F5F6"/>
<path fill-rule="evenodd" clip-rule="evenodd" d="M590.188 269.262H681.141V276.99H590.188V269.262ZM591.048 270.122V276.13H680.281V270.122H591.048Z" fill="#959DA8"/>
<path d="M689.288 243.098L686.183 252.727H613.254L616.359 243.098H689.288Z" fill="#F4F5F6"/>
<path fill-rule="evenodd" clip-rule="evenodd" d="M616.042 242.663H689.885L686.499 253.163H612.656L616.042 242.663ZM616.676 243.533L613.851 252.293H685.866L688.69 243.533H616.676Z" fill="#959DA8"/>
<path fill-rule="evenodd" clip-rule="evenodd" d="M657.715 293.052L680.018 215.824L681.652 216.296L659.348 293.523L657.715 293.052Z" fill="#959DA8"/>
<path fill-rule="evenodd" clip-rule="evenodd" d="M703.178 293.523L680.875 216.296L682.508 215.824L704.812 293.052L703.178 293.523Z" fill="#959DA8"/>
<path d="M695.904 208.344H597.051V217.781H695.904V208.344Z" fill="#D3DCE5"/>
<path fill-rule="evenodd" clip-rule="evenodd" d="M612.891 269.519L618.201 252.597L619.031 252.857L613.721 269.779L612.891 269.519Z" fill="#959DA8"/>
<path fill-rule="evenodd" clip-rule="evenodd" d="M619.629 269.519L624.939 252.597L625.769 252.857L620.459 269.779L619.629 269.519Z" fill="#959DA8"/>
<path fill-rule="evenodd" clip-rule="evenodd" d="M626.375 269.519L631.685 252.597L632.515 252.857L627.205 269.779L626.375 269.519Z" fill="#959DA8"/>
<path fill-rule="evenodd" clip-rule="evenodd" d="M633.121 269.519L638.431 252.597L639.262 252.857L633.951 269.779L633.121 269.519Z" fill="#959DA8"/>
<path fill-rule="evenodd" clip-rule="evenodd" d="M639.859 269.519L645.17 252.597L646 252.857L640.689 269.779L639.859 269.519Z" fill="#959DA8"/>
<path fill-rule="evenodd" clip-rule="evenodd" d="M646.605 269.519L651.916 252.597L652.746 252.857L647.436 269.779L646.605 269.519Z" fill="#959DA8"/>
<path fill-rule="evenodd" clip-rule="evenodd" d="M653.352 269.519L658.662 252.597L659.492 252.857L654.182 269.779L653.352 269.519Z" fill="#959DA8"/>
<path fill-rule="evenodd" clip-rule="evenodd" d="M660.086 269.519L665.396 252.597L666.226 252.857L660.916 269.779L660.086 269.519Z" fill="#959DA8"/>
<path fill-rule="evenodd" clip-rule="evenodd" d="M666.836 269.519L672.146 252.597L672.976 252.857L667.666 269.779L666.836 269.519Z" fill="#959DA8"/>
<path fill-rule="evenodd" clip-rule="evenodd" d="M673.582 269.519L678.892 252.597L679.722 252.857L674.412 269.779L673.582 269.519Z" fill="#959DA8"/>
<path d="M475.656 251.94L467.462 243.747L459.269 251.94L459.219 293.513H475.656V251.94Z" fill="#F4F5F6"/>
<path fill-rule="evenodd" clip-rule="evenodd" d="M467.464 242.333L476.657 251.526V294.513H458.219L458.271 251.526L467.464 242.333ZM460.27 252.355L460.221 292.513H474.657V252.355L467.464 245.161L460.27 252.355Z" fill="#959DA8"/>
<path d="M492.08 251.941L483.887 243.748L475.693 251.941L475.633 293.514H492.08V251.941Z" fill="#F4F5F6"/>
<path fill-rule="evenodd" clip-rule="evenodd" d="M483.888 242.334L493.081 251.527V294.514H474.633L474.696 251.526L483.888 242.334ZM476.694 252.356L476.636 292.514H491.081V252.356L483.888 245.162L476.694 252.356Z" fill="#959DA8"/>
<path d="M508.509 251.941L500.316 243.748L492.123 251.941L492.062 293.514H508.509V251.941Z" fill="#F4F5F6"/>
<path fill-rule="evenodd" clip-rule="evenodd" d="M500.314 242.334L509.507 251.527V294.514H491.059L491.121 251.526L500.314 242.334ZM493.12 252.356L493.062 292.514H507.507V252.356L500.314 245.162L493.12 252.356Z" fill="#959DA8"/>
<path d="M524.925 251.941L516.732 243.748L508.539 251.941L508.488 293.514H524.925V251.941Z" fill="#F4F5F6"/>
<path fill-rule="evenodd" clip-rule="evenodd" d="M516.733 242.334L525.926 251.527V294.514H507.488L507.541 251.527L516.733 242.334ZM509.54 252.356L509.491 292.514H523.926V252.356L516.733 245.162L509.54 252.356Z" fill="#959DA8"/>
<path d="M541.349 251.941L533.156 243.748L524.963 251.941L524.902 293.514H541.349V251.941Z" fill="#F4F5F6"/>
<path fill-rule="evenodd" clip-rule="evenodd" d="M533.158 242.334L542.351 251.527V294.514H523.902L523.965 251.526L533.158 242.334ZM525.964 252.356L525.905 292.514H540.351V252.356L533.158 245.162L525.964 252.356Z" fill="#959DA8"/>
<path d="M557.779 251.941L549.586 243.748L541.393 251.941L541.332 293.514H557.779V251.941Z" fill="#F4F5F6"/>
<path fill-rule="evenodd" clip-rule="evenodd" d="M549.587 242.334L558.78 251.527V294.514H540.332L540.395 251.526L549.587 242.334ZM542.394 252.356L542.335 292.514H556.78V252.356L549.587 245.162L542.394 252.356Z" fill="#959DA8"/>
<path fill-rule="evenodd" clip-rule="evenodd" d="M73.8516 144.621H75.8516V292.311H252.875V294.311H73.8516V144.621Z" fill="#959DA8"/>
<path d="M133.617 180.276H113.59V243.707H133.617V180.276Z" fill="white"/>
<path fill-rule="evenodd" clip-rule="evenodd" d="M113.09 179.776H134.117V244.207H113.09V179.776ZM114.09 180.776V243.207H133.117V180.776H114.09Z" fill="#959DA8"/>
<path fill-rule="evenodd" clip-rule="evenodd" d="M206.059 53.6533H281.484V96.1607H280.484V54.6533H207.059V99.6864H275.927V100.686H206.059V53.6533Z" fill="#959DA8"/>
<path d="M240.835 60.2227H212.918V93.956H240.835V60.2227Z" fill="white"/>
<path fill-rule="evenodd" clip-rule="evenodd" d="M212.418 59.7227H241.335V94.456H212.418V59.7227ZM213.418 60.7227V93.456H240.335V60.7227H213.418Z" fill="#959DA8"/>
<path d="M274.853 60.2227H246.977V93.956H274.843L274.853 60.2227Z" fill="white"/>
<path fill-rule="evenodd" clip-rule="evenodd" d="M246.477 59.7227H275.353L275.343 94.456H246.477V59.7227ZM247.477 60.7227V93.456H274.343L274.353 60.7227H247.477Z" fill="#959DA8"/>
<path fill-rule="evenodd" clip-rule="evenodd" d="M459.221 134.143V232.929H411.777V231.929H458.221V134.143H459.221Z" fill="#959DA8"/>
<path fill-rule="evenodd" clip-rule="evenodd" d="M296.277 160.028H412.778V292.866H410.778V162.028H298.277V291.855H296.277V160.028Z" fill="#959DA8"/>
<path fill-rule="evenodd" clip-rule="evenodd" d="M459.731 133.494V294.31H249.363V133.941H251.363V292.31H457.731V133.494H459.731Z" fill="#959DA8"/>
<path d="M449.265 197.926L435.458 190.138L421.793 198.199L422.177 198.189L425.364 221.646L445.927 221.383L448.81 197.926H449.265Z" fill="#D3DCE5"/>
<path d="M445.25 201.799H426.031V205.845H445.25V201.799Z" fill="white"/>
<path fill-rule="evenodd" clip-rule="evenodd" d="M425.531 201.299H445.75V206.345H425.531V201.299ZM426.531 202.299V205.345H444.75V202.299H426.531Z" fill="#959DA8"/>
<path fill-rule="evenodd" clip-rule="evenodd" d="M244.953 13.8516L313.462 66.3997L312.854 67.1932L244.953 15.1123L72.4844 147.677L71.875 146.885L244.953 13.8516Z" fill="#959DA8"/>
<path fill-rule="evenodd" clip-rule="evenodd" d="M244.954 0.738281L253.665 7.44806L321.354 59.4287L320.136 61.015L252.446 9.0334L244.953 3.26225L59.5769 146.281H71.9921L74.5882 145.267L75.3157 147.13L72.3688 148.281H53.7109L244.954 0.738281Z" fill="#959DA8"/>
<path d="M322.536 179.112H307.293V229.93H322.536V179.112Z" fill="white"/>
<path fill-rule="evenodd" clip-rule="evenodd" d="M306.793 178.612H323.036V230.43H306.793V178.612ZM307.793 179.612V229.43H322.036V179.612H307.793Z" fill="#959DA8"/>
<path d="M375.749 179.112H332.406V273.272H375.749V179.112Z" fill="#D3DCE5"/>
<path d="M369.611 185.091H338.527V229.93H369.611V185.091Z" fill="white"/>
<path fill-rule="evenodd" clip-rule="evenodd" d="M338.027 184.591H370.111V230.43H338.027V184.591ZM339.027 185.591V229.43H369.111V185.591H339.027Z" fill="#959DA8"/>
<path d="M369.882 237.678C369.882 238.796 368.976 239.701 367.859 239.701C366.742 239.701 365.836 238.796 365.836 237.678C365.836 236.561 366.742 235.655 367.859 235.655C368.976 235.655 369.882 236.561 369.882 237.678Z" fill="white"/>
<path fill-rule="evenodd" clip-rule="evenodd" d="M367.859 236.155C367.018 236.155 366.336 236.837 366.336 237.678C366.336 238.519 367.018 239.201 367.859 239.201C368.7 239.201 369.382 238.519 369.382 237.678C369.382 236.837 368.7 236.155 367.859 236.155ZM365.336 237.678C365.336 236.285 366.466 235.155 367.859 235.155C369.252 235.155 370.382 236.285 370.382 237.678C370.382 239.072 369.252 240.201 367.859 240.201C366.466 240.201 365.336 239.072 365.336 237.678Z" fill="#959DA8"/>
<path fill-rule="evenodd" clip-rule="evenodd" d="M262.524 123.466H446.315L459.806 134.328H250.336L262.524 123.466ZM262.905 124.466L252.961 133.328H456.969L445.962 124.466H262.905Z" fill="#959DA8"/>
<path d="M201.924 180.215H143.379V243.787H201.924V180.215Z" fill="white"/>
<path fill-rule="evenodd" clip-rule="evenodd" d="M142.879 179.715H202.424V244.287H142.879V179.715ZM143.879 180.715V243.287H201.424V180.715H143.879Z" fill="#959DA8"/>
<path fill-rule="evenodd" clip-rule="evenodd" d="M201.923 206.316H143.367V205.316H201.923V206.316Z" fill="#959DA8"/>
<path fill-rule="evenodd" clip-rule="evenodd" d="M172.141 205.816V180.215H173.141V205.816H172.141Z" fill="#959DA8"/>
<path fill-rule="evenodd" clip-rule="evenodd" d="M133.781 206.367H113.703V205.367H133.781V206.367Z" fill="#959DA8"/>
<path d="M231.731 180.286H211.633V243.707H231.731V180.286Z" fill="white"/>
<path fill-rule="evenodd" clip-rule="evenodd" d="M211.133 179.786H232.231V244.207H211.133V179.786ZM212.133 180.786V243.207H231.231V180.786H212.133Z" fill="#959DA8"/>
<path fill-rule="evenodd" clip-rule="evenodd" d="M231.701 206.388H211.633V205.388H231.701V206.388Z" fill="#959DA8"/>
<path fill-rule="evenodd" clip-rule="evenodd" d="M322.536 198.144H307.293V197.144H322.536V198.144Z" fill="#959DA8"/>
<path d="M400.552 179.112H385.309V229.93H400.552V179.112Z" fill="white"/>
<path fill-rule="evenodd" clip-rule="evenodd" d="M384.809 178.612H401.052V230.43H384.809V178.612ZM385.809 179.612V229.43H400.052V179.612H385.809Z" fill="#959DA8"/>
<path fill-rule="evenodd" clip-rule="evenodd" d="M400.552 198.144H385.309V197.144H400.552V198.144Z" fill="#959DA8"/>
<path fill-rule="evenodd" clip-rule="evenodd" d="M354.497 43.8828L457.572 133.3L456.917 134.055L354.497 45.2066L252.077 134.055L251.422 133.3L354.497 43.8828Z" fill="#959DA8"/>
<path fill-rule="evenodd" clip-rule="evenodd" d="M354.517 29.7803L474.185 134.675H457.245V132.675H468.869L354.517 32.4397L240.126 132.675H251.749V134.675H234.809L354.517 29.7803Z" fill="#959DA8"/>
<path fill-rule="evenodd" clip-rule="evenodd" d="M249.938 231.677H297.478V232.677H249.938V231.677Z" fill="#959DA8"/>
<path fill-rule="evenodd" clip-rule="evenodd" d="M296.918 272.763H412.409V283.645H296.918V272.763ZM297.918 273.763V282.645H411.409V273.763H297.918Z" fill="#959DA8"/>
<path fill-rule="evenodd" clip-rule="evenodd" d="M296.918 282.877H412.409V293.759H296.918V282.877ZM297.918 283.877V292.759H411.409V283.877H297.918Z" fill="#959DA8"/>
<path d="M79.6978 204.352C80.7028 199.642 80.6545 194.769 79.5563 190.079C78.4581 185.39 76.3372 181.002 73.3452 177.228C70.3533 173.455 66.5643 170.389 62.2493 168.25C57.9343 166.111 53.2 164.953 48.385 164.857C43.57 164.761 38.7934 165.731 34.3969 167.697C30.0004 169.662 26.0926 172.575 22.9532 176.227C19.8137 179.879 17.5202 184.18 16.2367 188.822C14.9531 193.464 14.7114 198.332 15.5286 203.078C11.9566 204.815 8.80167 207.303 6.27933 210.372C3.75698 213.441 1.92663 217.018 0.913297 220.858C-0.100033 224.699 -0.272482 228.714 0.407735 232.627C1.08795 236.541 2.6048 240.261 4.85469 243.535C7.10458 246.809 10.0345 249.558 13.4444 251.596C16.8542 253.633 20.6637 254.911 24.6125 255.341C28.5614 255.772 32.5566 255.345 36.3254 254.09C40.0942 252.835 43.5476 250.781 46.45 248.069C49.2705 250.705 52.6126 252.721 56.2605 253.985C59.9085 255.249 63.7811 255.734 67.6281 255.409C71.4752 255.083 75.2111 253.954 78.5946 252.094C81.9781 250.235 84.9339 247.686 87.2711 244.613C89.6082 241.54 91.2747 238.011 92.1629 234.254C93.0511 230.497 93.1413 226.595 92.4276 222.8C91.7138 219.006 90.2121 215.404 88.0194 212.226C85.8267 209.048 82.9918 206.366 79.6978 204.352Z" fill="#80C33F"/>
<path fill-rule="evenodd" clip-rule="evenodd" d="M32.0529 222.49C32.2703 222.164 32.7111 222.076 33.0374 222.293L48.1087 232.337C48.435 232.555 48.5232 232.995 48.3058 233.322C48.0883 233.648 47.6475 233.736 47.3212 233.519L32.2499 223.475C31.9236 223.257 31.8354 222.816 32.0529 222.49Z" fill="#2A3A51"/>
<path fill-rule="evenodd" clip-rule="evenodd" d="M65.8431 229.957C66.0982 230.255 66.0634 230.703 65.7656 230.958L48.1757 246.019C47.8778 246.274 47.4296 246.24 47.1746 245.942C46.9196 245.644 46.9543 245.196 47.2521 244.941L64.842 229.88C65.1399 229.625 65.5881 229.659 65.8431 229.957Z" fill="#2A3A51"/>
<path fill-rule="evenodd" clip-rule="evenodd" d="M47.7139 202.074C48.106 202.074 48.4239 202.392 48.4239 202.784V293.202C48.4239 293.594 48.106 293.912 47.7139 293.912C47.3218 293.912 47.0039 293.594 47.0039 293.202V202.784C47.0039 202.392 47.3218 202.074 47.7139 202.074Z" fill="#2A3A51"/>
<path d="M307.606 289.278C307.611 290.436 307.458 291.59 307.151 292.707H205.162C204.843 291.589 204.649 290.439 204.585 289.278C204.14 282.197 210.29 276.492 217.37 276.492C218.841 276.495 220.299 276.755 221.679 277.261C221.603 276.552 221.566 275.84 221.568 275.127C221.583 270.317 223.294 265.666 226.398 261.991C229.503 258.317 233.804 255.855 238.544 255.037C243.285 254.219 248.161 255.099 252.318 257.521C256.474 259.942 259.644 263.752 261.269 268.279C263.564 266.21 266.355 264.771 269.372 264.102C272.388 263.433 275.526 263.557 278.48 264.462C281.434 265.366 284.104 267.021 286.228 269.264C288.353 271.507 289.86 274.262 290.603 277.261C292.528 276.574 294.59 276.361 296.615 276.639C298.64 276.918 300.568 277.679 302.236 278.86C303.905 280.04 305.265 281.605 306.201 283.422C307.138 285.239 307.623 287.254 307.616 289.298L307.606 289.278Z" fill="#80C33F"/>
</svg>
