<svg width="858" height="294" viewBox="0 0 858 294" fill="none" xmlns="http://www.w3.org/2000/svg">
<path d="M159.918 290.767L105.585 290.821L105.348 55.12L159.681 55.0664" fill="#F4F5F6"/>
<path fill-rule="evenodd" clip-rule="evenodd" d="M106.114 55.8841L159.682 55.8313L159.681 54.3008L104.582 54.3551L104.821 291.586L159.92 291.532L159.918 290.001L106.35 290.054L106.114 55.8841Z" fill="#959DA8"/>
<path d="M39.8626 247.207C40.3585 244.861 40.33 242.435 39.7792 240.101C39.2284 237.768 38.1689 235.585 36.6765 233.708C35.1841 231.832 33.2955 230.308 31.1458 229.247C28.9962 228.185 26.6385 227.611 24.2413 227.566C21.8441 227.522 19.4667 228.007 17.2788 228.988C15.091 229.968 13.1469 231.42 11.5855 233.24C10.024 235.059 8.88376 237.201 8.24624 239.513C7.60873 241.824 7.48969 244.247 7.89763 246.61C6.09133 247.462 4.49194 248.697 3.21031 250.229C1.92867 251.76 0.99545 253.552 0.475322 255.481C-0.0448054 257.409 -0.139395 259.427 0.198105 261.396C0.535606 263.364 1.29712 265.236 2.42988 266.881C3.56264 268.526 5.03954 269.904 6.75822 270.922C8.4769 271.939 10.3962 272.571 12.3832 272.772C14.3702 272.974 16.3773 272.741 18.2654 272.09C20.1535 271.439 21.8774 270.385 23.3176 269.002C24.7174 270.356 26.3884 271.398 28.2205 272.059C30.0526 272.72 32.004 272.985 33.9461 272.837C35.8881 272.688 37.7766 272.13 39.4869 271.198C41.1972 270.266 42.6904 268.982 43.868 267.43C45.0456 265.879 45.8807 264.096 46.3184 262.198C46.7561 260.3 46.7863 258.331 46.4071 256.42C46.0279 254.51 45.2478 252.701 44.1184 251.115C42.9889 249.528 41.5358 248.199 39.8549 247.215L39.8626 247.207Z" fill="#80C33F"/>
<path fill-rule="evenodd" clip-rule="evenodd" d="M15.9875 256.25C16.158 255.993 16.5046 255.923 16.7618 256.093L24.269 261.067C24.5262 261.238 24.5966 261.584 24.4261 261.841C24.2557 262.099 23.9091 262.169 23.6519 261.999L16.1447 257.024C15.8875 256.854 15.8171 256.507 15.9875 256.25Z" fill="#2A3A51"/>
<path fill-rule="evenodd" clip-rule="evenodd" d="M33.1395 259.915C33.3405 260.149 33.3138 260.502 33.0798 260.703L24.3329 268.218C24.0988 268.419 23.7461 268.392 23.5451 268.158C23.344 267.924 23.3707 267.572 23.6048 267.37L32.3517 259.856C32.5857 259.655 32.9384 259.681 33.1395 259.915Z" fill="#2A3A51"/>
<path fill-rule="evenodd" clip-rule="evenodd" d="M23.9214 245.876C24.23 245.876 24.4803 246.126 24.4806 246.434L24.5188 291.47C24.5191 291.778 24.2692 292.029 23.9607 292.029C23.6521 292.029 23.4018 291.779 23.4015 291.471L23.3633 246.435C23.363 246.127 23.6129 245.876 23.9214 245.876Z" fill="#2A3A51"/>
<path d="M675.41 263.447C675.757 263.449 676.104 263.413 676.443 263.339C692.242 259.732 692.226 240.593 692.226 240.593C692.226 214.518 675.356 201.461 675.356 201.461C675.356 201.461 658.532 214.526 658.555 240.624C658.555 240.624 658.555 259.786 674.377 263.339C674.716 263.413 675.062 263.449 675.41 263.447Z" fill="#80C33F"/>
<path fill-rule="evenodd" clip-rule="evenodd" d="M675.391 226.936C675.691 226.936 675.934 227.179 675.934 227.479V291.761C675.934 292.061 675.691 292.304 675.391 292.304C675.091 292.304 674.848 292.061 674.848 291.761V227.479C674.848 227.179 675.091 226.936 675.391 226.936Z" fill="#2A3A51"/>
<path d="M162.09 172.915L631.195 172.44L631.318 291.821L162.212 292.296" fill="#F4F5F6"/>
<path fill-rule="evenodd" clip-rule="evenodd" d="M631.96 171.675L632.084 292.586L162.214 293.061L162.212 291.531L630.552 291.057L630.431 173.207L162.091 173.681L162.09 172.15L631.96 171.675Z" fill="#959DA8"/>
<path d="M161.594 55.0651L502.212 54.7207L502.28 122.829L441.266 172.632L161.709 172.915" fill="#F4F5F6"/>
<path fill-rule="evenodd" clip-rule="evenodd" d="M502.973 53.9551L503.043 123.192L441.536 173.398L161.706 173.681L161.705 172.15L440.99 171.868L501.512 122.466L501.444 55.4871L161.591 55.8308L161.59 54.3002L502.973 53.9551Z" fill="#959DA8"/>
<path d="M502.686 199.337L417.359 199.425L417.456 290.684L502.783 290.596L502.686 199.337Z" fill="#D3DCE5"/>
<path fill-rule="evenodd" clip-rule="evenodd" d="M416.961 211.742L502.67 211.658L502.671 212.416L416.962 212.5L416.961 211.742Z" fill="#F4F5F6"/>
<path fill-rule="evenodd" clip-rule="evenodd" d="M502.663 199.994L416.954 200.063L416.953 199.305L502.662 199.236L502.663 199.994Z" fill="#F4F5F6"/>
<path fill-rule="evenodd" clip-rule="evenodd" d="M416.977 224.169L502.686 224.085L502.687 224.843L416.977 224.927L416.977 224.169Z" fill="#F4F5F6"/>
<path fill-rule="evenodd" clip-rule="evenodd" d="M502.671 212.423L416.961 212.484L416.961 211.726L502.67 211.665L502.671 212.423Z" fill="#F4F5F6"/>
<path fill-rule="evenodd" clip-rule="evenodd" d="M416.992 236.598L502.701 236.514L502.702 237.271L416.993 237.355L416.992 236.598Z" fill="#F4F5F6"/>
<path fill-rule="evenodd" clip-rule="evenodd" d="M502.686 224.851L416.977 224.913L416.977 224.155L502.686 224.094L502.686 224.851Z" fill="#F4F5F6"/>
<path fill-rule="evenodd" clip-rule="evenodd" d="M417 249.026L502.709 248.935L502.71 249.692L417.001 249.784L417 249.026Z" fill="#F4F5F6"/>
<path fill-rule="evenodd" clip-rule="evenodd" d="M502.702 237.271L416.993 237.34L416.992 236.583L502.701 236.514L502.702 237.271Z" fill="#F4F5F6"/>
<path fill-rule="evenodd" clip-rule="evenodd" d="M417.012 261.125L502.721 261.041L502.722 261.799L417.012 261.883L417.012 261.125Z" fill="#F4F5F6"/>
<path fill-rule="evenodd" clip-rule="evenodd" d="M502.71 249.378L417.001 249.439L417 248.681L502.709 248.62L502.71 249.378Z" fill="#F4F5F6"/>
<path fill-rule="evenodd" clip-rule="evenodd" d="M417.023 273.552L502.733 273.468L502.733 274.225L417.024 274.31L417.023 273.552Z" fill="#F4F5F6"/>
<path fill-rule="evenodd" clip-rule="evenodd" d="M502.726 261.799L417.016 261.868L417.016 261.11L502.725 261.041L502.726 261.799Z" fill="#F4F5F6"/>
<path fill-rule="evenodd" clip-rule="evenodd" d="M417.039 282.091L502.748 282.007L502.749 282.764L417.04 282.849L417.039 282.091Z" fill="#F4F5F6"/>
<path d="M587.627 199.242L502.301 199.33L502.398 290.589L587.724 290.501L587.627 199.242Z" fill="#D3DCE5"/>
<path fill-rule="evenodd" clip-rule="evenodd" d="M501.902 211.657L587.612 211.573L587.612 212.331L501.903 212.415L501.902 211.657Z" fill="#F4F5F6"/>
<path fill-rule="evenodd" clip-rule="evenodd" d="M587.608 199.911L501.899 199.98L501.898 199.222L587.608 199.153L587.608 199.911Z" fill="#F4F5F6"/>
<path fill-rule="evenodd" clip-rule="evenodd" d="M501.918 224.086L587.627 224.002L587.628 224.76L501.919 224.844L501.918 224.086Z" fill="#F4F5F6"/>
<path fill-rule="evenodd" clip-rule="evenodd" d="M587.612 212.34L501.903 212.401L501.902 211.643L587.612 211.582L587.612 212.34Z" fill="#F4F5F6"/>
<path fill-rule="evenodd" clip-rule="evenodd" d="M501.934 236.513L587.643 236.429L587.644 237.186L501.934 237.27L501.934 236.513Z" fill="#F4F5F6"/>
<path fill-rule="evenodd" clip-rule="evenodd" d="M587.628 224.766L501.919 224.828L501.918 224.07L587.627 224.009L587.628 224.766Z" fill="#F4F5F6"/>
<path fill-rule="evenodd" clip-rule="evenodd" d="M501.941 248.941L587.651 248.85L587.652 249.607L501.942 249.699L501.941 248.941Z" fill="#F4F5F6"/>
<path fill-rule="evenodd" clip-rule="evenodd" d="M587.644 237.186L501.934 237.255L501.934 236.498L587.643 236.429L587.644 237.186Z" fill="#F4F5F6"/>
<path fill-rule="evenodd" clip-rule="evenodd" d="M501.957 261.04L587.666 260.956L587.667 261.714L501.958 261.798L501.957 261.04Z" fill="#F4F5F6"/>
<path fill-rule="evenodd" clip-rule="evenodd" d="M587.651 249.294L501.942 249.355L501.941 248.597L587.651 248.536L587.651 249.294Z" fill="#F4F5F6"/>
<path fill-rule="evenodd" clip-rule="evenodd" d="M501.965 273.467L587.674 273.383L587.675 274.14L501.966 274.225L501.965 273.467Z" fill="#F4F5F6"/>
<path fill-rule="evenodd" clip-rule="evenodd" d="M587.667 261.714L501.958 261.783L501.957 261.025L587.666 260.956L587.667 261.714Z" fill="#F4F5F6"/>
<path fill-rule="evenodd" clip-rule="evenodd" d="M501.98 282.008L587.69 281.924L587.69 282.681L501.981 282.766L501.98 282.008Z" fill="#F4F5F6"/>
<path d="M96.1394 55.3158L512.441 54.8799L512.434 47.587L96.1318 48.0229L96.1394 55.3158Z" fill="white"/>
<path fill-rule="evenodd" clip-rule="evenodd" d="M513.207 55.6436L95.3745 56.0811L95.3653 47.2577L513.198 46.8201L513.207 55.6436ZM511.675 54.1146L511.669 48.3522L96.8974 48.7866L96.9034 54.549L511.675 54.1146Z" fill="#959DA8"/>
<path d="M443.744 12.6934L164.791 12.9765L97.2031 48.5994L509.029 48.1862L511.401 48.1785L443.744 12.6934Z" fill="#F4F5F6"/>
<path fill-rule="evenodd" clip-rule="evenodd" d="M443.743 11.9277C443.867 11.9276 443.989 11.9577 444.099 12.0153L511.756 47.5005C512.067 47.6638 512.227 48.0184 512.144 48.36C512.06 48.7016 511.755 48.9423 511.403 48.9434L509.029 48.9511L97.2036 49.3643C96.8516 49.3647 96.5448 49.1249 96.4601 48.7832C96.3754 48.4416 96.5346 48.0862 96.846 47.9221L164.434 12.2992C164.544 12.2413 164.666 12.211 164.79 12.2109L443.743 11.9277ZM164.98 13.7412L100.302 47.8307L508.31 47.4213L443.556 13.4584L164.98 13.7412Z" fill="#959DA8"/>
<path d="M512.474 47.5543L96.1719 47.9902L96.1795 55.2831L512.482 54.8472L512.474 47.5543Z" fill="#F4F5F6"/>
<path fill-rule="evenodd" clip-rule="evenodd" d="M95.4062 47.2266L513.239 46.789L513.248 55.6124L95.4155 56.05L95.4062 47.2266ZM96.9384 48.7555L96.9444 54.5179L511.716 54.0835L511.71 48.3211L96.9384 48.7555Z" fill="#959DA8"/>
<path d="M319.751 11.2695L372.654 47.7878L372.73 135.969L266.971 136.068L266.895 47.8873L319.751 11.2695Z" fill="#F4F5F6"/>
<path fill-rule="evenodd" clip-rule="evenodd" d="M319.749 10.2412L373.497 47.3436L373.575 136.814L266.125 136.915L266.047 47.4445L319.749 10.2412ZM319.75 12.2974L267.739 48.3297L267.814 135.222L371.882 135.124L371.807 48.2317L319.75 12.2974Z" fill="#959DA8"/>
<path d="M386.961 55.8846L373.01 55.8998L319.886 12.433L266.845 56.007L252.895 56.0223L319.87 1L386.961 55.8846Z" fill="#F4F5F6"/>
<path fill-rule="evenodd" clip-rule="evenodd" d="M319.884 11.9385L373.251 55.604L372.767 56.1962L319.885 12.9281L267.087 56.3029L266.602 55.7116L319.884 11.9385Z" fill="#959DA8"/>
<path fill-rule="evenodd" clip-rule="evenodd" d="M319.868 0.0107422L389.101 56.6478L373.01 56.6654L373.008 55.1349L384.819 55.1219L319.871 1.98983L255.034 55.255L266.844 55.242L266.845 56.7725L250.754 56.7902L319.868 0.0107422Z" fill="#959DA8"/>
<path d="M633.513 177.928L633.505 170.635L58.9714 171.614L54.3593 171.614C53.8518 171.614 53.4406 172.026 53.4409 172.533L53.4451 178.535L633.513 177.928Z" fill="#F4F5F6"/>
<path fill-rule="evenodd" clip-rule="evenodd" d="M634.271 169.868L634.28 178.692L52.6811 179.301L52.6764 172.534C52.6757 171.604 53.4297 170.849 54.36 170.849L58.9708 170.849L634.271 169.868ZM632.742 171.402L54.36 172.38C54.2754 172.38 54.2068 172.449 54.2069 172.533L54.2106 177.769L632.748 177.164L632.742 171.402Z" fill="#959DA8"/>
<path d="M456.026 171.446L436.015 135.907L119.663 136.221L53.6211 171.852L456.026 171.446Z" fill="#F4F5F6"/>
<path fill-rule="evenodd" clip-rule="evenodd" d="M436.462 135.142L457.335 172.21L50.5859 172.62L119.47 135.456L436.462 135.142ZM119.857 136.986L56.6575 171.083L454.718 170.682L435.568 136.673L119.857 136.986Z" fill="#959DA8"/>
<path d="M630.402 170.911L372.723 171.171L501.792 94.1631L630.402 170.911Z" fill="#F4F5F6"/>
<path fill-rule="evenodd" clip-rule="evenodd" d="M501.791 93.2725L633.172 171.674L369.941 171.94L501.791 93.2725ZM375.503 170.404L627.63 170.149L501.791 95.0547L375.503 170.404Z" fill="#959DA8"/>
<path fill-rule="evenodd" clip-rule="evenodd" d="M371.896 290.169L371.781 178.058L373.312 178.057L373.427 290.167L371.896 290.169Z" fill="#959DA8"/>
<path d="M236.772 204.637H203.98L204.049 281.232H236.841L236.772 204.637Z" fill="#D3DCE5"/>
<path d="M232.157 209.141L208.641 209.166L208.676 243.09L232.193 243.065L232.157 209.141Z" fill="white"/>
<path fill-rule="evenodd" clip-rule="evenodd" d="M208.258 208.783L232.54 208.758L232.576 243.447L208.294 243.472L208.258 208.783ZM209.024 209.548L209.059 242.706L231.81 242.683L231.775 209.524L209.024 209.548Z" fill="#959DA8"/>
<path d="M63.18 292.526L63.0642 178.502H55.5273L55.6431 292.526H63.18Z" fill="#F4F5F6"/>
<path fill-rule="evenodd" clip-rule="evenodd" d="M54.6523 177.625H63.9417L64.0592 293.401H54.7698L54.6523 177.625ZM56.4066 179.377L56.5205 291.649H62.305L62.191 179.377H56.4066Z" fill="#959DA8"/>
<path d="M184.365 292.097L184.25 178.249H176.773L176.888 292.097H184.365Z" fill="#F4F5F6"/>
<path fill-rule="evenodd" clip-rule="evenodd" d="M176.008 177.483H185.015L185.131 292.862H176.124L176.008 177.483ZM177.54 179.014L177.653 291.331H183.599L183.486 179.014H177.54Z" fill="#959DA8"/>
<path d="M263.955 292.014L263.84 178.166H256.363L256.478 292.014H263.955Z" fill="#F4F5F6"/>
<path fill-rule="evenodd" clip-rule="evenodd" d="M255.598 177.4H264.605L264.721 292.779H255.714L255.598 177.4ZM257.13 178.931L257.243 291.248H263.189L263.076 178.931H257.13Z" fill="#959DA8"/>
<path d="M399.326 265.52L393.434 265.526L393.458 288.798L399.35 288.792L399.326 265.52Z" fill="#F4F5F6"/>
<path fill-rule="evenodd" clip-rule="evenodd" d="M392.668 264.762L400.091 264.754L400.117 289.556L392.694 289.564L392.668 264.762ZM394.2 266.291L394.223 288.032L398.585 288.027L398.562 266.286L394.2 266.291Z" fill="#959DA8"/>
<path d="M396.35 233.712C399.394 233.708 402.315 234.915 404.47 237.065C406.625 239.216 407.838 242.134 407.841 245.179L407.863 266.277L384.905 266.301L384.883 245.203C384.88 242.158 386.086 239.237 388.237 237.082C390.387 234.927 393.306 233.715 396.35 233.712Z" fill="#D3DCE5"/>
<path d="M404.267 241.669L388.441 241.686L388.445 245.014L404.27 244.998L404.267 241.669Z" fill="#F4F5F6"/>
<path fill-rule="evenodd" clip-rule="evenodd" d="M388.059 241.304L404.649 241.286L404.654 245.38L388.063 245.398L388.059 241.304ZM388.825 242.068L388.827 244.632L403.888 244.616L403.885 242.052L388.825 242.068Z" fill="#959DA8"/>
<path d="M392.374 288.799L400.44 288.791C401.345 288.79 402.214 289.148 402.854 289.788C403.495 290.427 403.856 291.295 403.857 292.2L388.965 292.216C388.964 291.311 389.322 290.442 389.962 289.801C390.601 289.161 391.469 288.8 392.374 288.799Z" fill="#F4F5F6"/>
<path fill-rule="evenodd" clip-rule="evenodd" d="M392.375 289.564C391.673 289.565 391 289.845 390.504 290.342C390.193 290.654 389.967 291.035 389.842 291.449L402.978 291.436C402.852 291.022 402.626 290.641 402.314 290.329C401.817 289.833 401.143 289.555 400.441 289.556L392.375 289.564ZM403.857 292.2L404.622 292.199C404.621 291.091 404.18 290.029 403.395 289.246C402.611 288.463 401.548 288.024 400.439 288.025L392.374 288.034C391.266 288.035 390.203 288.476 389.42 289.261C388.638 290.045 388.199 291.108 388.2 292.216L388.2 292.982L403.858 292.965L403.857 292.2Z" fill="#959DA8"/>
<path fill-rule="evenodd" clip-rule="evenodd" d="M501.795 104.02L616.464 170.955L616.078 171.616L501.796 104.906L388.539 171.241L388.152 170.58L501.795 104.02Z" fill="#959DA8"/>
<path d="M210.026 253.597C210.871 253.596 211.556 252.91 211.555 252.064C211.554 251.219 210.868 250.535 210.023 250.536C209.177 250.536 208.493 251.222 208.494 252.068C208.495 252.913 209.181 253.597 210.026 253.597Z" fill="white"/>
<path fill-rule="evenodd" clip-rule="evenodd" d="M210.023 250.918C209.389 250.918 208.876 251.433 208.877 252.067C208.877 252.701 209.392 253.214 210.026 253.213C210.66 253.213 211.173 252.698 211.172 252.064C211.172 251.43 210.657 250.917 210.023 250.918ZM208.111 252.067C208.11 251.011 208.966 250.153 210.023 250.152C211.079 250.151 211.937 251.007 211.938 252.063C211.939 253.12 211.083 253.977 210.027 253.979C208.97 253.98 208.112 253.124 208.111 252.067Z" fill="#959DA8"/>
<path d="M300.496 70.7305H277.141L277.187 119.944H300.542L300.496 70.7305Z" fill="white"/>
<path fill-rule="evenodd" clip-rule="evenodd" d="M276.758 70.3477H300.879L300.925 120.327H276.804L276.758 70.3477ZM277.524 71.1129L277.569 119.562H300.16L300.114 71.1129H277.524Z" fill="#959DA8"/>
<path fill-rule="evenodd" clip-rule="evenodd" d="M288.46 90.6063L288.438 70.7401L289.203 70.7393L289.226 90.6055L288.46 90.6063Z" fill="#959DA8"/>
<path fill-rule="evenodd" clip-rule="evenodd" d="M300.521 91.3239L277.188 91.3468L277.188 90.5815L300.52 90.5586L300.521 91.3239Z" fill="#959DA8"/>
<path d="M331.188 70.7002H307.832L307.878 119.914H331.234L331.188 70.7002Z" fill="white"/>
<path fill-rule="evenodd" clip-rule="evenodd" d="M307.449 70.3184H331.57L331.617 120.298H307.496L307.449 70.3184ZM308.215 71.0836L308.26 119.532H330.851L330.806 71.0836H308.215Z" fill="#959DA8"/>
<path fill-rule="evenodd" clip-rule="evenodd" d="M319.144 90.5748L319.129 70.7086L319.894 70.708L319.909 90.5742L319.144 90.5748Z" fill="#959DA8"/>
<path fill-rule="evenodd" clip-rule="evenodd" d="M331.212 91.2946L307.88 91.3175L307.879 90.5523L331.212 90.5293L331.212 91.2946Z" fill="#959DA8"/>
<path d="M361.887 70.6621H338.531L338.577 119.876H361.933L361.887 70.6621Z" fill="white"/>
<path fill-rule="evenodd" clip-rule="evenodd" d="M338.148 70.2793H362.269L362.316 120.259H338.195L338.148 70.2793ZM338.914 71.0446L338.96 119.493H361.55L361.505 71.0446H338.914Z" fill="#959DA8"/>
<path fill-rule="evenodd" clip-rule="evenodd" d="M349.84 90.5445L349.824 70.6783L350.589 70.6777L350.605 90.5439L349.84 90.5445Z" fill="#959DA8"/>
<path fill-rule="evenodd" clip-rule="evenodd" d="M361.908 91.2623L338.575 91.2853L338.574 90.5201L361.907 90.4971L361.908 91.2623Z" fill="#959DA8"/>
<path d="M155.86 70.877H132.504L132.55 120.091H155.906L155.86 70.877Z" fill="white"/>
<path fill-rule="evenodd" clip-rule="evenodd" d="M132.121 70.4941H156.242L156.289 120.473H132.168L132.121 70.4941ZM132.887 71.2594L132.932 119.708H155.523L155.478 71.2594H132.887Z" fill="#959DA8"/>
<path fill-rule="evenodd" clip-rule="evenodd" d="M143.824 90.7509L143.801 70.8847L144.566 70.8838L144.589 90.75L143.824 90.7509Z" fill="#959DA8"/>
<path fill-rule="evenodd" clip-rule="evenodd" d="M155.884 91.4703L132.552 91.4933L132.551 90.728L155.884 90.7051L155.884 91.4703Z" fill="#959DA8"/>
<path d="M427.528 70.6006H404.172L404.218 119.815H427.574L427.528 70.6006Z" fill="white"/>
<path fill-rule="evenodd" clip-rule="evenodd" d="M403.789 70.2178H427.91L427.957 120.197H403.836L403.789 70.2178ZM404.555 70.983L404.6 119.432H427.191L427.146 70.983H404.555Z" fill="#959DA8"/>
<path fill-rule="evenodd" clip-rule="evenodd" d="M415.492 90.4754L415.469 70.6093L416.234 70.6084L416.257 90.4746L415.492 90.4754Z" fill="#959DA8"/>
<path fill-rule="evenodd" clip-rule="evenodd" d="M427.552 91.193L404.22 91.216L404.219 90.4507L427.552 90.4277L427.552 91.193Z" fill="#959DA8"/>
<path d="M156 205.562H132.645L132.69 254.776H156.046L156 205.562Z" fill="white"/>
<path fill-rule="evenodd" clip-rule="evenodd" d="M132.262 205.18H156.383L156.429 255.159H132.308L132.262 205.18ZM133.028 205.945L133.073 254.394H155.663L155.618 205.945H133.028Z" fill="#959DA8"/>
<path fill-rule="evenodd" clip-rule="evenodd" d="M143.953 225.437L143.938 205.571L144.703 205.57L144.718 225.437L143.953 225.437Z" fill="#959DA8"/>
<path fill-rule="evenodd" clip-rule="evenodd" d="M156.021 226.157L132.688 226.18L132.688 225.415L156.02 225.392L156.021 226.157Z" fill="#959DA8"/>
<path d="M235.617 70.791H212.262L212.308 120.005H235.663L235.617 70.791Z" fill="white"/>
<path fill-rule="evenodd" clip-rule="evenodd" d="M211.879 70.4082H236L236.047 120.387H211.926L211.879 70.4082ZM212.645 71.1735L212.69 119.622H235.281L235.235 71.1735H212.645Z" fill="#959DA8"/>
<path fill-rule="evenodd" clip-rule="evenodd" d="M223.57 90.6675L223.555 70.8014L224.32 70.8008L224.335 90.6669L223.57 90.6675Z" fill="#959DA8"/>
<path fill-rule="evenodd" clip-rule="evenodd" d="M235.638 91.3922L212.305 91.4152L212.305 90.6499L235.638 90.627L235.638 91.3922Z" fill="#959DA8"/>
<path d="M212.66 70.8154H189.305L189.351 120.029H212.706L212.66 70.8154Z" fill="white"/>
<path fill-rule="evenodd" clip-rule="evenodd" d="M188.922 70.4336H213.043L213.09 120.413H188.969L188.922 70.4336ZM189.688 71.1989L189.733 119.648H212.324L212.278 71.1989H189.688Z" fill="#959DA8"/>
<path fill-rule="evenodd" clip-rule="evenodd" d="M200.613 90.6891L200.598 70.8229L201.363 70.8223L201.378 90.6885L200.613 90.6891Z" fill="#959DA8"/>
<path fill-rule="evenodd" clip-rule="evenodd" d="M212.681 91.4166L189.348 91.4396L189.348 90.6743L212.68 90.6514L212.681 91.4166Z" fill="#959DA8"/>
<path d="M299.102 205.417H275.746L275.792 254.631H299.148L299.102 205.417Z" fill="white"/>
<path fill-rule="evenodd" clip-rule="evenodd" d="M275.363 205.034H299.484L299.531 255.013H275.41L275.363 205.034ZM276.129 205.799L276.174 254.248H298.765L298.72 205.799H276.129Z" fill="#959DA8"/>
<path fill-rule="evenodd" clip-rule="evenodd" d="M287.058 225.292L287.043 205.425L287.808 205.425L287.824 225.291L287.058 225.292Z" fill="#959DA8"/>
<path fill-rule="evenodd" clip-rule="evenodd" d="M299.127 226.009L275.794 226.032L275.793 225.267L299.126 225.244L299.127 226.009Z" fill="#959DA8"/>
<path d="M329.797 205.386H306.441L306.487 254.6H329.843L329.797 205.386Z" fill="white"/>
<path fill-rule="evenodd" clip-rule="evenodd" d="M306.059 205.004H330.18L330.226 254.983H306.105L306.059 205.004ZM306.825 205.769L306.87 254.218H329.46L329.415 205.769H306.825Z" fill="#959DA8"/>
<path fill-rule="evenodd" clip-rule="evenodd" d="M317.75 225.261L317.734 205.395L318.5 205.395L318.515 225.261L317.75 225.261Z" fill="#959DA8"/>
<path fill-rule="evenodd" clip-rule="evenodd" d="M329.822 225.98L306.489 226.003L306.488 225.238L329.821 225.215L329.822 225.98Z" fill="#959DA8"/>
<path d="M360.493 205.355H337.137L337.183 254.569H360.538L360.493 205.355Z" fill="white"/>
<path fill-rule="evenodd" clip-rule="evenodd" d="M336.754 204.973H360.875L360.922 254.952H336.801L336.754 204.973ZM337.52 205.738L337.565 254.187H360.156L360.11 205.738H337.52Z" fill="#959DA8"/>
<path fill-rule="evenodd" clip-rule="evenodd" d="M348.445 225.23L348.422 205.364L349.187 205.363L349.21 225.229L348.445 225.23Z" fill="#959DA8"/>
<path fill-rule="evenodd" clip-rule="evenodd" d="M360.506 225.948L337.18 225.971L337.18 225.206L360.505 225.183L360.506 225.948Z" fill="#959DA8"/>
<path fill-rule="evenodd" clip-rule="evenodd" d="M141.494 278.083L105.289 250.159L105.756 249.553L141.961 277.477L141.494 278.083Z" fill="#959DA8"/>
<path fill-rule="evenodd" clip-rule="evenodd" d="M105.316 277.508L141.46 249.522L141.928 250.128L105.785 278.113L105.316 277.508Z" fill="#959DA8"/>
<path d="M145.36 244.475L101.725 244.52C100.039 244.522 98.6733 245.889 98.6751 247.573C98.6768 249.257 100.045 250.621 101.732 250.619L145.367 250.574C147.053 250.572 148.419 249.205 148.417 247.521C148.415 245.837 147.047 244.473 145.36 244.475Z" fill="#D3DCE5"/>
<path d="M70.0673 259.979H91.2268L84.8981 244.835C84.1546 243.055 82.901 241.536 81.2953 240.469C79.6897 239.401 77.8039 238.832 75.8756 238.835C74.2681 238.837 72.6858 239.235 71.2693 239.995C69.8527 240.755 68.6457 241.853 67.7554 243.192C66.8651 244.53 66.319 246.068 66.1656 247.668C66.0123 249.268 66.2563 250.882 66.8762 252.365L70.0673 259.979Z" fill="#D3DCE5"/>
<path fill-rule="evenodd" clip-rule="evenodd" d="M90.1643 250.123C90.1642 250.123 90.1643 250.123 90.1643 250.123L86.9962 250.253L86.9648 249.489L90.133 249.359C92.7704 249.251 95.3798 249.934 97.6263 251.32C99.8727 252.706 101.654 254.731 102.742 257.136L112.69 279.184L111.993 279.499L102.044 257.452" fill="#959DA8"/>
<path fill-rule="evenodd" clip-rule="evenodd" d="M65.5664 279.304L69.9667 259.399L70.7139 259.565L66.3136 279.469L65.5664 279.304Z" fill="#959DA8"/>
<path fill-rule="evenodd" clip-rule="evenodd" d="M83.2031 279.282L87.5728 259.385L88.3202 259.549L83.9506 279.446L83.2031 279.282Z" fill="#959DA8"/>
<path d="M101.46 259.959L69.4036 259.992L69.4005 257.054L101.457 257.02C101.847 257.02 102.221 257.174 102.497 257.449C102.773 257.724 102.928 258.098 102.928 258.488C102.928 258.681 102.891 258.872 102.817 259.05C102.743 259.228 102.635 259.391 102.499 259.527C102.363 259.664 102.201 259.772 102.023 259.846C101.844 259.92 101.653 259.958 101.46 259.959Z" fill="#D3DCE5"/>
<path fill-rule="evenodd" clip-rule="evenodd" d="M76.7374 251.857C74.7353 250.622 72.41 250.014 70.0597 250.109L65.8352 250.277L65.8047 249.513L70.0286 249.344C70.0287 249.344 70.0286 249.344 70.0286 249.344C72.5313 249.243 75.0073 249.891 77.1392 251.206C79.271 252.521 80.9616 254.442 81.9941 256.724L92.1569 279.2L91.4596 279.515L81.2969 257.04C81.2969 257.04 81.2969 257.04 81.2969 257.04C80.3272 254.896 78.7395 253.092 76.7374 251.857Z" fill="#959DA8"/>
<path d="M372.669 276.767L63.5039 277.091L63.5199 292.396L372.685 292.072L372.669 276.767Z" fill="#F4F5F6"/>
<path fill-rule="evenodd" clip-rule="evenodd" d="M62.7383 276.326L373.434 276.001L373.452 292.837L62.7559 293.162L62.7383 276.326ZM64.2704 277.855L64.2848 291.63L371.92 291.308L371.905 277.533L64.2704 277.855Z" fill="#959DA8"/>
<path d="M263.678 284.743L177.203 284.82V291.631L263.678 291.554V284.743Z" fill="#F4F5F6"/>
<path fill-rule="evenodd" clip-rule="evenodd" d="M264.443 283.978V292.319L176.438 292.397V284.056L264.443 283.978ZM177.968 285.585V290.865L262.912 290.79V285.509L177.968 285.585Z" fill="#959DA8"/>
<path d="M263.678 277.091L177.203 277.176V284.743L263.678 284.658V277.091Z" fill="#F4F5F6"/>
<path fill-rule="evenodd" clip-rule="evenodd" d="M264.443 276.324V285.422L176.438 285.509V276.411L264.443 276.324ZM177.968 277.94V283.977L262.912 283.893V277.856L177.968 277.94Z" fill="#959DA8"/>
<path d="M332.868 290.476C332.869 291.29 332.76 292.101 332.546 292.886L259.961 292.963C259.735 292.177 259.597 291.369 259.548 290.552C259.226 285.548 263.611 281.453 268.632 281.446C269.676 281.446 270.712 281.63 271.693 281.989C271.635 281.481 271.607 280.97 271.608 280.459C271.583 277.02 272.778 273.684 274.979 271.043C277.181 268.402 280.247 266.626 283.634 266.032C287.02 265.437 290.508 266.062 293.478 267.795C296.447 269.529 298.707 272.258 299.854 275.5C301.487 274.029 303.472 273.006 305.617 272.53C307.762 272.054 309.994 272.142 312.095 272.784C314.196 273.427 316.095 274.603 317.607 276.197C319.119 277.791 320.192 279.75 320.723 281.882C322.093 281.39 323.561 281.236 325.003 281.432C326.446 281.628 327.82 282.168 329.009 283.007C330.198 283.847 331.167 284.96 331.835 286.253C332.503 287.547 332.849 288.982 332.845 290.438L332.868 290.476Z" fill="#80C33F"/>
<path d="M643.984 260.436L637.873 254.264L631.777 260.443L631.77 291.761L644.014 291.746L643.984 260.436Z" fill="#F4F5F6"/>
<path fill-rule="evenodd" clip-rule="evenodd" d="M637.872 253.175L644.748 260.121L644.78 292.51L631.004 292.528L631.012 260.129L637.872 253.175ZM637.874 255.352L632.542 260.757L632.535 290.995L643.248 290.982L643.218 260.751L637.874 255.352Z" fill="#959DA8"/>
<path d="M656.23 260.429L650.123 254.264L644.031 260.445L644.016 291.761L656.26 291.746L656.23 260.429Z" fill="#F4F5F6"/>
<path fill-rule="evenodd" clip-rule="evenodd" d="M650.121 253.175L656.995 260.114L657.026 292.511L643.25 292.528L643.266 260.131L650.121 253.175ZM650.124 255.352L644.796 260.759L644.781 290.995L655.494 290.982L655.465 260.745L650.124 255.352Z" fill="#959DA8"/>
<path d="M668.464 260.429L662.357 254.264L656.265 260.445L656.258 291.761L668.502 291.754L668.464 260.429Z" fill="#F4F5F6"/>
<path fill-rule="evenodd" clip-rule="evenodd" d="M662.356 253.175L669.229 260.114L669.268 292.519L655.492 292.527L655.5 260.131L662.356 253.175ZM662.358 255.352L657.03 260.758L657.023 290.996L667.736 290.989L667.699 260.745L662.358 255.352Z" fill="#959DA8"/>
<path d="M681.477 260.436L674.985 254.264L668.508 260.443L668.5 291.761L681.509 291.746L681.477 260.436Z" fill="#F4F5F6"/>
<path fill-rule="evenodd" clip-rule="evenodd" d="M674.987 253.207L682.246 260.107L682.279 292.511L667.738 292.528L667.747 260.116L674.987 253.207ZM674.989 255.321L669.277 260.771L669.269 290.995L680.747 290.982L680.716 260.765L674.989 255.321Z" fill="#959DA8"/>
<path d="M693.726 260.429L687.619 254.264L681.527 260.445L681.512 291.761L693.756 291.746L693.726 260.429Z" fill="#F4F5F6"/>
<path fill-rule="evenodd" clip-rule="evenodd" d="M687.617 253.175L694.491 260.114L694.522 292.511L680.746 292.528L680.762 260.131L687.617 253.175ZM687.62 255.352L682.292 260.759L682.277 290.995L692.99 290.982L692.961 260.745L687.62 255.352Z" fill="#959DA8"/>
<path d="M705.972 260.429L699.865 254.264L693.765 260.445L693.758 291.761L706.002 291.754L705.972 260.429Z" fill="#F4F5F6"/>
<path fill-rule="evenodd" clip-rule="evenodd" d="M699.864 253.175L706.737 260.114L706.768 292.518L692.992 292.527L693 260.13L699.864 253.175ZM699.866 255.352L694.53 260.758L694.523 290.995L705.236 290.989L705.207 260.744L699.866 255.352Z" fill="#959DA8"/>
<path d="M763.957 263.307C764.312 263.309 764.666 263.272 765.012 263.196C781.144 259.526 781.152 239.983 781.152 239.983C781.152 213.351 763.965 200 763.965 200C763.965 200 746.77 213.32 746.77 239.983C746.77 239.983 746.77 259.549 762.901 263.196C763.248 263.272 763.602 263.309 763.957 263.307Z" fill="#80C33F"/>
<path d="M763.961 226.277V292.751" stroke="#2A3A51" stroke-width="0.78769" stroke-linecap="round" stroke-linejoin="round"/>
<path d="M844.934 215.753V278.398" stroke="#959DA8" stroke-width="1.57538" stroke-miterlimit="10"/>
<path d="M857.788 235.028H832.086L840.12 215.753H849.754L857.788 235.028Z" fill="#D3DCE5"/>
<path d="M843.228 215.753L838.707 235.028" stroke="#959DA8" stroke-width="0.78769" stroke-miterlimit="10"/>
<path d="M846.746 215.753L851.267 235.028" stroke="#959DA8" stroke-width="0.78769" stroke-miterlimit="10"/>
<path d="M811.925 243.63L810.602 243.386C809.583 244.809 809.149 246.568 809.389 248.301C809.441 248.657 809.628 248.98 809.911 249.203C810.193 249.426 810.551 249.533 810.91 249.5C811.269 249.468 811.601 249.3 811.84 249.03C812.079 248.76 812.205 248.409 812.193 248.049C812.237 246.571 812.148 245.092 811.925 243.63Z" fill="white" stroke="#959DA8" stroke-width="0.78769" stroke-miterlimit="10"/>
<path d="M815.824 241.188L816.179 239.888C817.902 239.588 819.676 239.96 821.133 240.928C821.431 241.13 821.641 241.438 821.719 241.789C821.797 242.141 821.738 242.509 821.554 242.818C821.37 243.127 821.074 243.354 820.728 243.452C820.382 243.55 820.011 243.513 819.692 243.346C818.34 242.746 817.045 242.023 815.824 241.188Z" fill="white" stroke="#959DA8" stroke-width="0.78769" stroke-miterlimit="10"/>
<path d="M819.79 244.001C820.305 244.92 820.448 246.001 820.189 247.021C819.929 248.042 819.288 248.924 818.396 249.484C817.505 250.045 816.432 250.241 815.4 250.033C814.367 249.825 813.455 249.228 812.85 248.365C811.716 246.553 811.22 242.324 813.134 241.118C815.048 239.913 818.656 242.19 819.79 244.001Z" fill="white" stroke="#959DA8" stroke-width="0.78769" stroke-miterlimit="10"/>
<path d="M808.914 240.516C809.669 240.041 809.896 239.044 809.422 238.289C808.947 237.534 807.95 237.307 807.195 237.781C806.44 238.256 806.213 239.253 806.687 240.008C807.162 240.763 808.159 240.99 808.914 240.516Z" fill="white" stroke="#959DA8" stroke-width="0.78769" stroke-miterlimit="10"/>
<path d="M815.444 237.535C816.202 237.062 816.433 236.064 815.96 235.306C815.488 234.548 814.49 234.317 813.732 234.79C812.974 235.262 812.743 236.26 813.215 237.018C813.688 237.776 814.686 238.007 815.444 237.535Z" fill="white" stroke="#959DA8" stroke-width="0.789028" stroke-miterlimit="10"/>
<path d="M814.385 243.086C816.3 241.882 816.931 239.441 815.795 237.632C814.658 235.824 812.184 235.333 810.269 236.537C808.353 237.741 807.722 240.183 808.859 241.991C809.996 243.8 812.47 244.29 814.385 243.086Z" fill="white" stroke="#959DA8" stroke-width="0.78769" stroke-miterlimit="10"/>
<path d="M816.84 251.498C817.121 250.533 816.442 249.486 815.323 249.16C814.204 248.834 813.068 249.351 812.787 250.316C812.505 251.28 813.185 252.327 814.304 252.654C815.423 252.98 816.559 252.463 816.84 251.498Z" fill="white" stroke="#959DA8" stroke-width="0.803444" stroke-miterlimit="10"/>
<path d="M822.628 247.387C822.819 246.237 822.171 245.171 821.179 245.006C820.188 244.841 819.229 245.64 819.038 246.79C818.847 247.94 819.495 249.006 820.486 249.171C821.478 249.336 822.436 248.537 822.628 247.387Z" fill="white" stroke="#959DA8" stroke-width="0.78769" stroke-miterlimit="10"/>
<path d="M814.386 243.078C815.321 242.49 815.757 241.5 815.359 240.866C814.961 240.233 813.879 240.196 812.944 240.784C812.008 241.372 811.573 242.362 811.971 242.996C812.369 243.629 813.45 243.666 814.386 243.078Z" stroke="#959DA8" stroke-width="0.196922" stroke-miterlimit="10"/>
<path d="M811.053 240.69C811.101 240.482 810.971 240.275 810.763 240.228C810.555 240.18 810.348 240.31 810.301 240.518C810.253 240.726 810.383 240.933 810.591 240.98C810.799 241.028 811.006 240.898 811.053 240.69Z" fill="#959DA8"/>
<path d="M813.777 239.045C813.931 238.948 813.978 238.744 813.881 238.589C813.784 238.434 813.579 238.388 813.425 238.485C813.27 238.582 813.223 238.787 813.321 238.941C813.418 239.096 813.622 239.142 813.777 239.045Z" fill="#959DA8"/>
<path d="M813.72 242.015C813.941 241.876 814.032 241.623 813.923 241.45C813.814 241.277 813.547 241.249 813.326 241.388C813.105 241.527 813.014 241.78 813.123 241.953C813.232 242.126 813.499 242.154 813.72 242.015Z" fill="#959DA8"/>
<path d="M813.738 242.03L813.983 242.416" stroke="#959DA8" stroke-width="0.196922" stroke-miterlimit="10"/>
<path d="M813.387 242.645C813.819 242.553 814.204 242.31 814.474 241.96" stroke="#959DA8" stroke-width="0.196922" stroke-miterlimit="10"/>
<path d="M834.338 247.442H807.832V269.387H834.338V247.442Z" fill="#F4F5F6" stroke="#959DA8" stroke-width="1.57538" stroke-miterlimit="10"/>
<path d="M824.809 269.387V247.442" stroke="#959DA8" stroke-width="0.78769" stroke-miterlimit="10"/>
<path d="M807.051 246.751L800.828 252.139H819.496L824.829 246.751H807.051Z" fill="#D3DCE5"/>
<path d="M839.901 251.312H829.495L824.832 246.751H835.229L839.901 251.312Z" fill="#D3DCE5"/>
<path d="M826.471 269.389H799.965V291.334H826.471V269.389Z" fill="#F4F5F6" stroke="#959DA8" stroke-width="1.57538" stroke-miterlimit="10"/>
<path d="M816.934 291.34V269.962" stroke="#959DA8" stroke-width="0.78769" stroke-miterlimit="10"/>
<path d="M852.975 269.389H826.469V291.334H852.975V269.389Z" fill="#F4F5F6" stroke="#959DA8" stroke-width="1.57538" stroke-miterlimit="10"/>
<path d="M848 291.342V269.389" stroke="#959DA8" stroke-width="0.78769" stroke-miterlimit="10"/>
<path d="M793.981 291.718H776.707L789.145 268.222H806.419L793.981 291.718Z" fill="#F4F5F6" stroke="#959DA8" stroke-width="1.57538" stroke-miterlimit="10"/>
<path d="M791.214 273.371C792.182 271.883 792.524 270.389 791.977 270.033C791.43 269.677 790.202 270.594 789.234 272.082C788.265 273.569 787.924 275.064 788.471 275.42C789.018 275.776 790.246 274.859 791.214 273.371Z" fill="#D3DCE5"/>
<path d="M794.24 284.735C796.603 281.104 797.441 277.458 796.11 276.592C794.779 275.726 791.784 277.967 789.42 281.599C787.057 285.23 786.219 288.876 787.55 289.742C788.881 290.608 791.876 288.367 794.24 284.735Z" fill="#D3DCE5"/>
<path d="M785.93 281.179L793.964 271.538V281.179H785.93Z" stroke="#959DA8" stroke-width="0.78769" stroke-miterlimit="10"/>
</svg>
