<svg width="383" height="313" viewBox="0 0 383 313" fill="none" xmlns="http://www.w3.org/2000/svg">
<path d="M147.335 284.271L153.521 290.92L161.756 287.09L157.345 295.029L163.531 301.678L154.618 299.935L150.206 307.873L149.109 298.858L140.196 297.115L148.432 293.286L147.335 284.271Z" stroke="#959DA8" stroke-miterlimit="10"/>
<path d="M370.485 155.391L370.079 164.463L378.582 167.653L369.828 170.07L369.421 179.143L364.417 171.564L355.663 173.982L361.324 166.881L356.32 159.302L364.823 162.492L370.485 155.391Z" stroke="#959DA8" stroke-width="2" stroke-miterlimit="10"/>
<path d="M257.557 8.87875L253.397 16.9519L259.79 23.4027L250.826 21.9414L246.667 30.0146L245.286 21.0383L236.323 19.577L244.433 15.4906L243.053 6.51434L249.446 12.9651L257.557 8.87875Z" stroke="#959DA8" stroke-miterlimit="10"/>
<path d="M217.026 40.3768L214.521 45.24L218.371 49.1259L212.972 48.2456L210.466 53.1088L209.635 47.7016L204.235 46.8213L209.121 44.3597L208.29 38.9525L212.141 42.8384L217.026 40.3768Z" stroke="#959DA8" stroke-miterlimit="10"/>
<path d="M29.314 51.4107L21.0733 55.2278L22.1571 64.2447L15.9803 57.5869L7.73968 61.404L12.1629 53.4722L5.98606 46.8144L14.8965 48.57L19.3197 40.6382L20.4035 49.6551L29.314 51.4107Z" fill="#80C33F"/>
<path d="M58.313 98.4107L50.0724 102.228L51.1562 111.245L44.9794 104.587L36.7387 108.404L41.1619 100.472L34.9851 93.8144L43.8956 95.57L48.3187 87.6382L49.4025 96.6551L58.313 98.4107Z" fill="#80C33F"/>
<path d="M323.225 263.773L320.725 275.345L332.556 275.754L321.951 281.014L329.008 290.519L318.283 285.507L315.251 296.951L312.482 285.441L301.645 290.206L308.918 280.865L298.436 275.363L310.274 275.225L308.04 263.599L315.528 272.768L323.225 263.773Z" stroke="#959DA8" stroke-miterlimit="10"/>
<path d="M312.297 171.695L311.06 177.42L316.914 177.622L311.667 180.224L315.158 184.927L309.852 182.447L308.352 188.109L306.983 182.414L301.621 184.772L305.219 180.151L300.034 177.429L305.89 177.36L304.785 171.609L308.49 176.145L312.297 171.695Z" stroke="#959DA8" stroke-miterlimit="10"/>
<path d="M239.097 212.31L230.46 220.407L239.96 227.471L228.245 225.767L228.644 237.599L222.672 227.377L213.671 235.067L217.939 224.025L206.315 221.781L217.609 218.233L212.116 207.747L221.931 214.365L226.705 203.532L227.651 215.332L239.097 212.31Z" stroke="#959DA8" stroke-width="2" stroke-miterlimit="10"/>
<path d="M151.097 53.31L142.46 61.4068L151.96 68.4714L140.245 66.7675L140.644 78.5991L134.672 68.3775L125.671 76.0667L129.939 65.0245L118.315 62.7812L129.609 59.2334L124.116 48.7468L133.931 55.3649L138.705 44.5317L139.651 56.3322L151.097 53.31Z" stroke="#959DA8" stroke-width="2" stroke-miterlimit="10"/>
<path d="M15.8032 152.422L20.2512 161.865L29.8341 157.726L23.8796 166.3L32.2562 172.529L21.8536 171.659L20.6474 182.028L16.1993 172.584L6.61641 176.724L12.571 168.15L4.1943 161.921L14.5969 162.791L15.8032 152.422Z" stroke="#959DA8" stroke-width="2" stroke-miterlimit="10"/>
<path d="M21.2614 253.902L21.4881 259.86L27.4508 259.826L22.404 263.002L25.4145 268.149L20.1409 265.366L17.1886 270.547L16.9619 264.588L10.9992 264.622L16.046 261.446L13.0355 256.299L18.3091 259.082L21.2614 253.902Z" stroke="#959DA8" stroke-width="2" stroke-miterlimit="10"/>
<path d="M327.426 71.1109L332.513 79.8909L340.252 73.3284L336.559 82.7797L346.515 84.7389L336.823 87.7445L341.499 96.7501L333.107 91.0468L328.981 100.317L328.207 90.1998L318.387 92.7544L325.815 85.8413L317.695 79.7563L327.731 81.2534L327.426 71.1109Z" fill="#80C33F"/>
<path d="M63.4257 212.111L68.5126 220.891L76.252 214.328L72.5591 223.78L82.5153 225.739L72.8235 228.745L77.4993 237.75L69.1067 232.047L64.9811 241.317L64.2075 231.2L54.3872 233.754L61.8151 226.841L53.695 220.756L63.7311 222.253L63.4257 212.111Z" fill="#80C33F"/>
</svg>
