<svg width="1016" height="399" viewBox="0 0 1016 399" fill="none" xmlns="http://www.w3.org/2000/svg">
<path d="M273 102.78H-161L-153.7 3.78027H273V102.78Z" fill="#D3DCE5"/>
<path d="M61.5001 102.28H-152.5V257.28H61.5001V102.28Z" fill="#F4F5F6"/>
<path fill-rule="evenodd" clip-rule="evenodd" d="M-153.5 101.28H62.5001V258.28H-153.5V101.28ZM-151.5 103.28V256.28H60.5001V103.28H-151.5Z" fill="#959DA8"/>
<path d="M-45.6081 2L-161.328 103.4L69.0019 103.78" fill="#F4F5F6"/>
<path d="M57.0931 103.55H-147.297L-136.367 93.7998H44.9731L57.0931 103.55Z" fill="#F4F5F6"/>
<path fill-rule="evenodd" clip-rule="evenodd" d="M-136.558 93.2998H45.1484L58.5115 104.05H-148.609L-136.558 93.2998ZM-136.177 94.2998L-145.986 103.05H55.673L44.7961 94.2998H-136.177Z" fill="#959DA8"/>
<path fill-rule="evenodd" clip-rule="evenodd" d="M-45.6056 0.67041L70.4504 102.4H132.002V104.4H55.9542V102.4H67.4163L-45.6059 3.32979L-158.667 102.4H-147.206V104.4H-163.984L-45.6056 0.67041Z" fill="#959DA8"/>
<path fill-rule="evenodd" clip-rule="evenodd" d="M-45.6276 14.6187L-38.2901 20.9827L-37.9901 21.2427L-33.8374 24.8466L-33.8299 24.8529L-33.7774 24.8966L-33.77 24.9028L-24.94 32.5628L-22.2502 34.9028L-19.1701 37.5727L-11.56 44.1728L-10.7202 44.9027L-5.17012 49.7127L0.702621 54.8164L0.802551 54.8964L9.25986 62.2327L12.3397 64.9025L13.8297 66.1925L22.28 73.5229L23.8599 74.9028L23.8612 74.904L28.83 79.2128L34.2398 83.9028L34.241 83.9038L35.1797 84.7225L35.1811 84.7238L38.8297 87.8825L45.46 93.6328L56.2801 103.023L55.6246 103.778L44.8048 94.3883L38.1751 88.6386L34.5251 85.4786L34.5237 85.4774L33.5848 84.6584L33.5836 84.6574L28.1749 79.9684L23.2047 75.6583L23.2034 75.6571L21.6234 74.2771L13.1751 66.9486L11.6852 65.6586L8.60483 62.9883L0.162277 55.6648L0.0620728 55.5846L-5.82506 50.4684L-11.3751 45.6584L-12.2152 44.9282L-19.8251 38.3284L-22.9052 35.6584L-25.5953 33.3182L-34.4179 25.6645L-34.4253 25.6583L-34.4779 25.6146L-34.4854 25.6083L-38.6452 21.9983L-38.9451 21.7383L-45.6275 15.9425L-48.1699 18.1482L-55.8992 24.8476L-56.8292 25.6576L-64.0097 31.888L-69.17 36.3682L-77.92 43.9582L-79.8799 45.6582L-85.17 50.2482L-91.4099 55.6581L-99.6699 62.8281L-102.94 65.6584L-106.17 68.458L-114.46 75.6581L-121.1 81.4183L-124.84 84.6581L-131.164 90.1488L-131.174 90.1558L-136.35 94.6482L-146.88 103.778L-147.535 103.023L-137.005 93.893L-132.028 89.5724V89.5231L-131.772 89.3522L-125.495 83.903L-121.755 80.6629L-115.115 74.9031L-106.826 67.703L-103.595 64.9028L-100.325 62.073L-92.0654 54.903L-85.8253 49.4929L-80.5353 44.9029L-69.8253 35.6128L-64.6655 31.1331L-57.486 24.9035L-56.5551 24.0927L-48.8253 17.3929L-45.6276 14.6187Z" fill="#959DA8"/>
<path d="M123.334 289.32H80.4844V382.41H123.334V289.32Z" fill="#D3DCE5"/>
<path d="M117.261 295.23H86.5312V339.56H117.261V295.23Z" fill="white"/>
<path fill-rule="evenodd" clip-rule="evenodd" d="M86.0312 294.73H117.761V340.06H86.0312V294.73ZM87.0312 295.73V339.06H116.761V295.73H87.0312Z" fill="#959DA8"/>
<path d="M66.2924 259.78H58.4023V379.78H66.2924V259.78Z" fill="#F4F5F6"/>
<path fill-rule="evenodd" clip-rule="evenodd" d="M57.4023 258.78H67.2924V380.78H57.4023V258.78ZM59.4023 260.78V378.78H65.2924V260.78H59.4023Z" fill="#959DA8"/>
<path d="M144.005 379.4H58.3047V389.17H144.005V379.4Z" fill="#F4F5F6"/>
<path fill-rule="evenodd" clip-rule="evenodd" d="M57.3047 378.4H145.005V390.17H57.3047V378.4ZM59.3047 380.4V388.17H143.005V380.4H59.3047Z" fill="#959DA8"/>
<path d="M144.005 389.15H58.3047V397.92H144.005V389.15Z" fill="#F4F5F6"/>
<path fill-rule="evenodd" clip-rule="evenodd" d="M57.3047 388.15H145.005V398.92H57.3047V388.15ZM59.3047 390.15V396.92H143.005V390.15H59.3047Z" fill="#959DA8"/>
<path d="M88.5039 347.28C89.6085 347.28 90.5039 346.385 90.5039 345.28C90.5039 344.176 89.6085 343.28 88.5039 343.28C87.3993 343.28 86.5039 344.176 86.5039 345.28C86.5039 346.385 87.3993 347.28 88.5039 347.28Z" fill="#F4F5F6"/>
<path fill-rule="evenodd" clip-rule="evenodd" d="M88.5039 343.78C87.6755 343.78 87.0039 344.452 87.0039 345.28C87.0039 346.109 87.6755 346.78 88.5039 346.78C89.3323 346.78 90.0039 346.109 90.0039 345.28C90.0039 344.452 89.3323 343.78 88.5039 343.78ZM86.0039 345.28C86.0039 343.9 87.1232 342.78 88.5039 342.78C89.8846 342.78 91.0039 343.9 91.0039 345.28C91.0039 346.661 89.8846 347.78 88.5039 347.78C87.1232 347.78 86.0039 346.661 86.0039 345.28Z" fill="#959DA8"/>
<path d="M114.542 133.78H84.0117V186.78H114.532L114.542 133.78Z" fill="white"/>
<path fill-rule="evenodd" clip-rule="evenodd" d="M83.5117 133.28H115.042L115.032 187.28H83.5117V133.28ZM84.5117 134.28V186.28H114.032L114.042 134.28H84.5117Z" fill="#959DA8"/>
<path fill-rule="evenodd" clip-rule="evenodd" d="M114.542 156.61H84.0117V155.61H114.542V156.61Z" fill="#959DA8"/>
<path d="M50.9725 318.95L37.3225 311.25L23.8125 319.22L24.1925 319.21L27.3425 342.4L47.6725 342.14L50.5226 318.95H50.9725Z" fill="#D3DCE5"/>
<path d="M47.0039 322.78H28.0039V326.78H47.0039V322.78Z" fill="#F4F5F6"/>
<path fill-rule="evenodd" clip-rule="evenodd" d="M27.5039 322.28H47.5039V327.28H27.5039V322.28ZM28.5039 323.28V326.28H46.5039V323.28H28.5039Z" fill="#959DA8"/>
<path d="M16.4811 197.5H-2.37891V207.05H16.4811V197.5Z" fill="#F4F5F6"/>
<path fill-rule="evenodd" clip-rule="evenodd" d="M-2.87891 197H16.9811V207.55H-2.87891V197ZM-1.87891 198V206.55H15.9811V198H-1.87891Z" fill="#959DA8"/>
<path d="M16.4811 187.5H-2.37891V197.27H16.4811V187.5Z" fill="#F4F5F6"/>
<path fill-rule="evenodd" clip-rule="evenodd" d="M-2.87891 187H16.9811V197.77H-2.87891V187ZM-1.87891 188V196.77H15.9811V188H-1.87891Z" fill="#959DA8"/>
<path d="M16.4811 177.5H-2.37891V187.27H16.4811V177.5Z" fill="#F4F5F6"/>
<path fill-rule="evenodd" clip-rule="evenodd" d="M-2.87891 177H16.9811V187.77H-2.87891V177ZM-1.87891 178V186.77H15.9811V178H-1.87891Z" fill="#959DA8"/>
<path d="M16.4811 177.27H-2.37891V167.5H16.4711V169.66L16.4811 177.27Z" fill="#F4F5F6"/>
<path fill-rule="evenodd" clip-rule="evenodd" d="M-2.87891 167H16.9711V169.659L16.9817 177.77H-2.87891V167ZM-1.87891 168V176.77H15.9804L15.9711 169.661V168H-1.87891Z" fill="#959DA8"/>
<path d="M16.4711 157.5H-2.37891V167.27H16.4711V157.5Z" fill="#F4F5F6"/>
<path fill-rule="evenodd" clip-rule="evenodd" d="M-2.87891 157H16.9711V167.77H-2.87891V157ZM-1.87891 158V166.77H15.9711V158H-1.87891Z" fill="#959DA8"/>
<path d="M16.4711 147.5H-2.37891V157.27H16.4711V147.5Z" fill="#F4F5F6"/>
<path fill-rule="evenodd" clip-rule="evenodd" d="M-2.87891 147H16.9711V157.77H-2.87891V147ZM-1.87891 148V156.77H15.9711V148H-1.87891Z" fill="#959DA8"/>
<path d="M16.4711 137.5H-2.37891V147.27H16.4711V137.5Z" fill="#F4F5F6"/>
<path fill-rule="evenodd" clip-rule="evenodd" d="M-2.87891 137H16.9711V147.77H-2.87891V137ZM-1.87891 138V146.77H15.9711V138H-1.87891Z" fill="#959DA8"/>
<path d="M16.4811 354.5H-2.37891V364.05H16.4811V354.5Z" fill="#F4F5F6"/>
<path fill-rule="evenodd" clip-rule="evenodd" d="M-2.87891 354H16.9811V364.55H-2.87891V354ZM-1.87891 355V363.55H15.9811V355H-1.87891Z" fill="#959DA8"/>
<path d="M16.4811 344.5H-2.37891V354.27H16.4811V344.5Z" fill="#F4F5F6"/>
<path fill-rule="evenodd" clip-rule="evenodd" d="M-2.87891 344H16.9811V354.77H-2.87891V344ZM-1.87891 345V353.77H15.9811V345H-1.87891Z" fill="#959DA8"/>
<path d="M16.4811 334.5H-2.37891V344.27H16.4811V334.5Z" fill="#F4F5F6"/>
<path fill-rule="evenodd" clip-rule="evenodd" d="M-2.87891 334H16.9811V344.77H-2.87891V334ZM-1.87891 335V343.77H15.9811V335H-1.87891Z" fill="#959DA8"/>
<path d="M16.4811 334.27H-2.37891V324.5H16.4711V326.66L16.4811 334.27Z" fill="#F4F5F6"/>
<path fill-rule="evenodd" clip-rule="evenodd" d="M-2.87891 324H16.9711V326.659L16.9817 334.77H-2.87891V324ZM-1.87891 325V333.77H15.9804L15.9711 326.661V325H-1.87891Z" fill="#959DA8"/>
<path d="M16.4711 314.5H-2.37891V324.27H16.4711V314.5Z" fill="#F4F5F6"/>
<path fill-rule="evenodd" clip-rule="evenodd" d="M-2.87891 314H16.9711V324.77H-2.87891V314ZM-1.87891 315V323.77H15.9711V315H-1.87891Z" fill="#959DA8"/>
<path d="M16.4711 304.5H-2.37891V314.27H16.4711V304.5Z" fill="#F4F5F6"/>
<path fill-rule="evenodd" clip-rule="evenodd" d="M-2.87891 304H16.9711V314.77H-2.87891V304ZM-1.87891 305V313.77H15.9711V305H-1.87891Z" fill="#959DA8"/>
<path d="M16.4711 294.5H-2.37891V304.27H16.4711V294.5Z" fill="#F4F5F6"/>
<path fill-rule="evenodd" clip-rule="evenodd" d="M-2.87891 294H16.9711V304.77H-2.87891V294ZM-1.87891 295V303.77H15.9711V295H-1.87891Z" fill="#959DA8"/>
<path d="M-66.9999 394.08C-67.009 391.854 -66.482 389.659 -65.4634 387.68C-64.4448 385.701 -62.9645 383.997 -61.1479 382.711C-59.3312 381.425 -57.2316 380.595 -55.0266 380.292C-52.8215 379.989 -50.576 380.222 -48.4798 380.97C-47.6697 377.708 -46.0289 374.711 -43.7171 372.271C-41.4053 369.832 -38.5013 368.032 -35.2875 367.047C-32.0738 366.062 -28.6599 365.926 -25.3781 366.652C-22.0963 367.379 -19.0583 368.942 -16.5599 371.19C-14.795 366.255 -11.3454 362.101 -6.81867 359.46C-2.29191 356.818 3.02163 355.859 8.18633 356.75C13.351 357.642 18.0356 360.327 21.415 364.333C24.7943 368.339 26.6517 373.409 26.6601 378.65C26.6629 379.425 26.6229 380.2 26.5401 380.97C28.046 380.42 29.6369 380.139 31.2402 380.14C38.9402 380.14 45.6401 386.39 45.1501 394.05C45.0795 395.313 44.8683 396.564 44.5202 397.78H-66.4799C-66.8151 396.565 -66.9833 395.31 -66.9799 394.05L-66.9999 394.08Z" fill="#80C33F"/>
<path d="M140.742 102.78H973.742L959.742 3.78027H140.742V102.78Z" fill="#D3DCE5"/>
<path d="M139.742 397.78L963.742 397.78V103.78L139.742 103.78V397.78Z" fill="#F4F5F6"/>
<path fill-rule="evenodd" clip-rule="evenodd" d="M964.742 398.78L138.742 398.78V102.78L964.742 102.78V398.78ZM962.742 396.78V104.78L140.742 104.78V396.78L962.742 396.78Z" fill="#959DA8"/>
<path d="M751.242 257.28H965.242V102.28L751.242 102.28V257.28Z" fill="#F4F5F6"/>
<path fill-rule="evenodd" clip-rule="evenodd" d="M966.242 258.28H750.242V101.28L966.242 101.28V258.28ZM964.242 256.28V103.28L752.242 103.28V256.28H964.242Z" fill="#959DA8"/>
<path d="M858.352 2L974.072 103.4L743.742 103.78" fill="#F4F5F6"/>
<path d="M459.742 257.78H673.742V102.78L459.742 102.78V257.78Z" fill="#F4F5F6"/>
<path fill-rule="evenodd" clip-rule="evenodd" d="M674.742 258.78H458.742V101.78L674.742 101.78V258.78ZM672.742 256.78V103.78L460.742 103.78V256.78H672.742Z" fill="#959DA8"/>
<path d="M755.664 103.55H960.054L949.114 93.7998H767.774L755.664 103.55Z" fill="#F4F5F6"/>
<path fill-rule="evenodd" clip-rule="evenodd" d="M767.594 93.2998H949.301L961.363 104.05H754.242L767.594 93.2998ZM767.947 94.2998L757.079 103.05H958.738L948.92 94.2998H767.947Z" fill="#959DA8"/>
<path fill-rule="evenodd" clip-rule="evenodd" d="M858.353 0.67041L976.732 104.4H959.954V102.4H971.415L858.354 3.32979L745.331 102.4H756.794V104.4H740.016L858.353 0.67041Z" fill="#959DA8"/>
<path fill-rule="evenodd" clip-rule="evenodd" d="M858.373 14.6187L861.57 17.3927L869.3 24.0927L869.301 24.0935L870.23 24.9029L877.41 31.1329L882.57 35.6125L893.28 44.9028L898.57 49.4927L904.81 54.9028L913.07 62.0725L916.34 64.9025L919.57 67.7027L927.86 74.9029L934.5 80.6627L938.24 83.9026L944.516 89.3522L944.773 89.523V89.5724L949.75 93.8928L960.28 103.023L959.625 103.778L949.095 94.6483L943.919 90.156L943.909 90.1489L937.585 84.6585L933.845 81.4185L927.205 75.6583L918.915 68.4584L915.685 65.6586L912.415 62.8286L904.155 55.6583L897.915 50.2483L890.665 43.9583L881.915 36.3685L876.755 31.8882L869.575 25.6582L868.645 24.8484L868.644 24.8476L860.915 18.1484L858.373 15.9425L851.69 21.7382L851.39 21.9982L847.223 25.6146L847.17 25.6582L847.163 25.6645L838.341 33.3178L835.651 35.6578L832.57 38.3283L824.961 44.9279L824.121 45.658L818.571 50.468L812.683 55.5846L812.583 55.6647L801.06 65.6584L799.57 66.9482L791.12 74.2783L789.542 75.6571L784.57 79.9683L779.161 84.6573L778.22 85.4786L774.57 88.6383L767.94 94.3882L757.12 103.778L756.465 103.023L767.285 93.6329L773.915 87.8828L777.564 84.7238L778.505 83.9028L783.915 79.2128L788.885 74.9028L790.464 73.524L798.915 66.1928L800.405 64.9028L811.942 54.8964L812.042 54.8165L817.915 49.7132L823.465 44.9032L824.305 44.1731L831.915 37.5728L834.994 34.9033L837.684 32.5633L846.522 24.8965L846.575 24.8529L846.582 24.8466L850.735 21.2429L851.035 20.9828L858.373 14.6187Z" fill="#959DA8"/>
<path d="M565.742 2.37988L681.462 103.78H450.742" fill="#F4F5F6"/>
<path d="M463.664 103.55H668.054L657.114 93.7998H475.774L463.664 103.55Z" fill="#F4F5F6"/>
<path fill-rule="evenodd" clip-rule="evenodd" d="M475.594 93.2998H657.301L669.363 104.05H462.242L475.594 93.2998ZM475.947 94.2998L465.079 103.05H666.738L656.92 94.2998H475.947Z" fill="#959DA8"/>
<path fill-rule="evenodd" clip-rule="evenodd" d="M566.353 0.67041L684.732 104.4H667.954V102.4H679.415L566.354 3.32979L453.331 102.4H464.794V104.4H448.016L566.353 0.67041Z" fill="#959DA8"/>
<path fill-rule="evenodd" clip-rule="evenodd" d="M566.373 14.6187L569.57 17.3927L577.3 24.0927L577.301 24.0935L578.23 24.9029L585.41 31.1329L590.57 35.6125L601.28 44.9028L606.57 49.4927L612.81 54.9028L621.07 62.0725L624.34 64.9025L627.57 67.7027L635.86 74.9029L642.5 80.6627L646.24 83.9026L652.516 89.3522L652.773 89.523V89.5724L657.75 93.8928L668.28 103.023L667.625 103.778L657.095 94.6483L651.919 90.156L651.909 90.1489L645.585 84.6585L641.845 81.4185L635.205 75.6583L626.915 68.4584L623.685 65.6586L620.415 62.8286L612.155 55.6583L605.915 50.2483L598.665 43.9583L589.915 36.3685L584.755 31.8882L577.575 25.6582L576.645 24.8484L576.644 24.8476L568.915 18.1484L566.373 15.9425L559.69 21.7382L559.39 21.9982L555.223 25.6146L555.17 25.6582L555.163 25.6645L546.341 33.3178L543.651 35.6578L540.57 38.3283L532.961 44.9279L532.121 45.658L526.571 50.468L520.683 55.5846L520.583 55.6647L509.06 65.6584L507.57 66.9482L499.12 74.2783L497.542 75.6571L492.57 79.9683L487.161 84.6573L486.22 85.4786L482.57 88.6383L475.94 94.3882L465.12 103.778L464.465 103.023L475.285 93.6329L481.915 87.8828L485.564 84.7238L486.505 83.9028L491.915 79.2128L496.885 74.9028L498.464 73.524L506.915 66.1928L508.405 64.9028L519.942 54.8964L520.042 54.8165L525.915 49.7132L531.465 44.9032L532.305 44.1731L539.915 37.5728L542.994 34.9033L545.684 32.5633L554.522 24.8965L554.575 24.8529L554.582 24.8466L558.735 21.2429L559.035 20.9828L566.373 14.6187Z" fill="#959DA8"/>
<path d="M815.211 289.59H901.271V366.12H815.211V289.59Z" fill="white"/>
<path fill-rule="evenodd" clip-rule="evenodd" d="M814.711 289.09H901.771V366.62H814.711V289.09ZM815.711 290.09V365.62H900.771V290.09H815.711Z" fill="#959DA8"/>
<path fill-rule="evenodd" clip-rule="evenodd" d="M857.742 366.23V289.58H858.742V366.23H857.742Z" fill="#959DA8"/>
<path fill-rule="evenodd" clip-rule="evenodd" d="M815.543 325.16H901.273V326.16H815.543V325.16Z" fill="#959DA8"/>
<path d="M523.211 133.59H609.271V210.12H523.211V133.59Z" fill="white"/>
<path fill-rule="evenodd" clip-rule="evenodd" d="M522.711 133.09H609.771V210.62H522.711V133.09ZM523.711 134.09V209.62H608.771V134.09H523.711Z" fill="#959DA8"/>
<path fill-rule="evenodd" clip-rule="evenodd" d="M565.742 210.23V133.58H566.742V210.23H565.742Z" fill="#959DA8"/>
<path fill-rule="evenodd" clip-rule="evenodd" d="M523.543 169.16H609.273V170.16H523.543V169.16Z" fill="#959DA8"/>
<path d="M139.742 257.78H353.742V102.78L139.742 102.78L139.742 257.78Z" fill="#F4F5F6"/>
<path fill-rule="evenodd" clip-rule="evenodd" d="M354.742 258.78H138.742L138.742 101.78L354.742 101.78V258.78ZM352.742 256.78V103.78L140.742 103.78L140.742 256.78H352.742Z" fill="#959DA8"/>
<path d="M245.742 2.37988L361.462 103.78H132.742" fill="#F4F5F6"/>
<path d="M143.664 103.55H348.054L337.114 93.7998H155.774L143.664 103.55Z" fill="#F4F5F6"/>
<path fill-rule="evenodd" clip-rule="evenodd" d="M155.594 93.2998H337.301L349.363 104.05H142.242L155.594 93.2998ZM155.947 94.2998L145.079 103.05H346.738L336.92 94.2998H155.947Z" fill="#959DA8"/>
<path fill-rule="evenodd" clip-rule="evenodd" d="M246.353 0.67041L364.732 104.4H347.954V102.4H359.415L246.354 3.32979L133.331 102.4H144.794V104.4H128.016L246.353 0.67041Z" fill="#959DA8"/>
<path fill-rule="evenodd" clip-rule="evenodd" d="M246.373 14.6187L249.57 17.3927L257.3 24.0927L257.301 24.0935L258.23 24.9029L265.41 31.1329L270.57 35.6125L281.28 44.9028L286.57 49.4927L292.81 54.9028L301.07 62.0725L304.34 64.9025L307.57 67.7027L315.86 74.9029L322.5 80.6627L326.24 83.9026L332.516 89.3522L332.773 89.523V89.5724L337.75 93.8928L348.28 103.023L347.625 103.778L337.095 94.6483L331.919 90.156L331.909 90.1489L325.585 84.6585L321.845 81.4185L315.205 75.6583L306.915 68.4584L303.685 65.6586L300.415 62.8286L292.155 55.6583L285.915 50.2483L278.665 43.9583L269.915 36.3685L264.755 31.8882L257.575 25.6582L256.645 24.8484L256.644 24.8476L248.915 18.1484L246.373 15.9425L239.69 21.7382L239.39 21.9982L235.223 25.6146L235.17 25.6582L235.163 25.6645L226.341 33.3178L223.651 35.6578L220.57 38.3283L212.961 44.9279L212.121 45.658L206.571 50.468L200.683 55.5846L200.583 55.6647L189.06 65.6584L187.57 66.9482L179.12 74.2783L177.542 75.6571L172.57 79.9683L167.161 84.6573L166.22 85.4786L162.57 88.6383L155.94 94.3882L145.12 103.778L144.465 103.023L155.285 93.6329L161.915 87.8828L165.564 84.7238L166.505 83.9028L171.915 79.2128L176.885 74.9028L178.464 73.524L186.915 66.1928L188.405 64.9028L199.942 54.8964L200.042 54.8165L205.915 49.7132L211.465 44.9032L212.305 44.1731L219.915 37.5728L222.994 34.9033L225.684 32.5633L234.522 24.8965L234.575 24.8529L234.582 24.8466L238.735 21.2429L239.035 20.9828L246.373 14.6187Z" fill="#959DA8"/>
<path d="M203.211 133.59H289.271V210.12H203.211V133.59Z" fill="white"/>
<path fill-rule="evenodd" clip-rule="evenodd" d="M202.711 133.09H289.771V210.62H202.711V133.09ZM203.711 134.09V209.62H288.771V134.09H203.711Z" fill="#959DA8"/>
<path fill-rule="evenodd" clip-rule="evenodd" d="M245.742 210.23V133.58H246.742V210.23H245.742Z" fill="#959DA8"/>
<path fill-rule="evenodd" clip-rule="evenodd" d="M203.543 169.16H289.273V170.16H203.543V169.16Z" fill="#959DA8"/>
<path d="M689.422 289.32H732.272V382.41H689.422V289.32Z" fill="#D3DCE5"/>
<path d="M695.493 339.561H726.223V295.231H695.493V339.561Z" fill="white"/>
<path fill-rule="evenodd" clip-rule="evenodd" d="M726.723 340.061H694.993V294.731H726.723V340.061ZM725.723 339.061V295.731H695.993V339.061H725.723Z" fill="#959DA8"/>
<path d="M746.453 259.78H754.343V379.78H746.453V259.78Z" fill="#F4F5F6"/>
<path fill-rule="evenodd" clip-rule="evenodd" d="M745.453 258.78H755.343V380.78H745.453V258.78ZM747.453 260.78V378.78H753.343V260.78H747.453Z" fill="#959DA8"/>
<path d="M958.453 259.78H966.343V397.78H958.453V259.78Z" fill="#F4F5F6"/>
<path fill-rule="evenodd" clip-rule="evenodd" d="M957.453 258.78H967.343V398.78H957.453V258.78ZM959.453 260.78V396.78H965.343V260.78H959.453Z" fill="#959DA8"/>
<path d="M668.742 379.4H754.442V389.17H668.742V379.4Z" fill="#F4F5F6"/>
<path fill-rule="evenodd" clip-rule="evenodd" d="M667.742 378.4H755.442V390.17H667.742V378.4ZM669.742 380.4V388.17H753.442V380.4H669.742Z" fill="#959DA8"/>
<path d="M778.482 337.78V398.14H772.012V337.78H778.482Z" fill="#F4F5F6"/>
<path fill-rule="evenodd" clip-rule="evenodd" d="M771.512 337.28H778.982V398.64H771.512V337.28ZM772.512 338.28V397.64H777.982V338.28H772.512Z" fill="#959DA8"/>
<path d="M668.742 389.15H754.442V397.92H668.742V389.15Z" fill="#F4F5F6"/>
<path fill-rule="evenodd" clip-rule="evenodd" d="M667.742 388.15H755.442V398.92H667.742V388.15ZM669.742 390.15V396.92H753.442V390.15H669.742Z" fill="#959DA8"/>
<path d="M724.242 347.28C725.347 347.28 726.242 346.385 726.242 345.28C726.242 344.176 725.347 343.28 724.242 343.28C723.138 343.28 722.242 344.176 722.242 345.28C722.242 346.385 723.138 347.28 724.242 347.28Z" fill="#F4F5F6"/>
<path fill-rule="evenodd" clip-rule="evenodd" d="M724.242 343.78C723.414 343.78 722.742 344.452 722.742 345.28C722.742 346.109 723.414 346.78 724.242 346.78C725.071 346.78 725.742 346.109 725.742 345.28C725.742 344.452 725.071 343.78 724.242 343.78ZM721.742 345.28C721.742 343.9 722.861 342.78 724.242 342.78C725.623 342.78 726.742 343.9 726.742 345.28C726.742 346.661 725.623 347.78 724.242 347.78C722.861 347.78 721.742 346.661 721.742 345.28Z" fill="#959DA8"/>
<path d="M139.002 397.78L673.742 397.78V259.78L139.002 259.78V397.78Z" fill="#F4F5F6"/>
<path fill-rule="evenodd" clip-rule="evenodd" d="M674.742 398.78L138.002 398.78V258.78L674.742 258.78V398.78ZM672.742 396.78V260.78L140.002 260.78V396.78L672.742 396.78Z" fill="#959DA8"/>
<path d="M666.742 243.78V230.28L712.742 197.78L759.472 231.28L759.742 244.78L713.002 243.78H666.742Z" fill="#F4F5F6"/>
<path fill-rule="evenodd" clip-rule="evenodd" d="M712.746 196.553L760.472 230.767V245.781H758.472V231.794L712.738 199.008L667.742 230.799V244.781H665.742V229.763L712.746 196.553Z" fill="#959DA8"/>
<path fill-rule="evenodd" clip-rule="evenodd" d="M712.744 211.167L759.763 244.874L759.18 245.687L712.74 212.394L667.03 244.689L666.453 243.872L712.744 211.167Z" fill="#959DA8"/>
<path d="M414.742 397.78L657.742 397.78V289.78H414.742V397.78Z" fill="#F4F5F6"/>
<path fill-rule="evenodd" clip-rule="evenodd" d="M658.242 398.28L414.242 398.28V289.28H658.242V398.28ZM657.242 397.28V290.28H415.242V397.28L657.242 397.28Z" fill="#959DA8"/>
<path d="M542.422 308.15C542.422 308.15 556.952 294.28 595.352 294.79C633.752 295.3 648.282 308.14 648.282 308.14V398.4H542.432L542.422 308.15Z" fill="#D3DCE5"/>
<path d="M425.422 308.15C425.422 308.15 439.952 294.28 478.352 294.79C516.752 295.3 531.282 308.14 531.282 308.14V398.4H425.432L425.422 308.15Z" fill="#D3DCE5"/>
<path fill-rule="evenodd" clip-rule="evenodd" d="M594.742 398.92V292.78H596.742V398.92H594.742Z" fill="#F4F5F6"/>
<path fill-rule="evenodd" clip-rule="evenodd" d="M648.812 346.851H541.672V344.851H648.812V346.851Z" fill="#F4F5F6"/>
<path fill-rule="evenodd" clip-rule="evenodd" d="M477.742 398.92V292.78H479.742V398.92H477.742Z" fill="#F4F5F6"/>
<path fill-rule="evenodd" clip-rule="evenodd" d="M531.812 346.851H424.672V344.851H531.812V346.851Z" fill="#F4F5F6"/>
<path d="M599.242 369.28H603.242V348.28H599.242V369.28Z" fill="#F4F5F6"/>
<path fill-rule="evenodd" clip-rule="evenodd" d="M603.742 369.78H598.742V347.78H603.742V369.78ZM602.742 368.78V348.78H599.742V368.78H602.742Z" fill="#959DA8"/>
<path d="M588.242 369.28H592.242V348.28H588.242V369.28Z" fill="#F4F5F6"/>
<path fill-rule="evenodd" clip-rule="evenodd" d="M592.742 369.78H587.742V347.78H592.742V369.78ZM591.742 368.78V348.78H588.742V368.78H591.742Z" fill="#959DA8"/>
<path d="M482.242 369.28H486.242V348.28H482.242V369.28Z" fill="#F4F5F6"/>
<path fill-rule="evenodd" clip-rule="evenodd" d="M486.742 369.78H481.742V347.78H486.742V369.78ZM485.742 368.78V348.78H482.742V368.78H485.742Z" fill="#959DA8"/>
<path d="M471.242 369.28H475.242V348.28H471.242V369.28Z" fill="#F4F5F6"/>
<path fill-rule="evenodd" clip-rule="evenodd" d="M475.742 369.78H470.742V347.78H475.742V369.78ZM474.742 368.78V348.78H471.742V368.78H474.742Z" fill="#959DA8"/>
<path d="M150.742 397.78L393.742 397.78V289.78H150.742V397.78Z" fill="#F4F5F6"/>
<path fill-rule="evenodd" clip-rule="evenodd" d="M394.242 398.28L150.242 398.28V289.28H394.242V398.28ZM393.242 397.28V290.28H151.242V397.28L393.242 397.28Z" fill="#959DA8"/>
<path d="M278.422 308.15C278.422 308.15 292.952 294.28 331.352 294.79C369.752 295.3 384.282 308.14 384.282 308.14V398.4H278.432L278.422 308.15Z" fill="#D3DCE5"/>
<path d="M161.422 308.15C161.422 308.15 175.952 294.28 214.352 294.79C252.752 295.3 267.282 308.14 267.282 308.14V398.4H161.432L161.422 308.15Z" fill="#D3DCE5"/>
<path fill-rule="evenodd" clip-rule="evenodd" d="M330.742 398.92V292.78H332.742V398.92H330.742Z" fill="#F4F5F6"/>
<path fill-rule="evenodd" clip-rule="evenodd" d="M384.812 346.851H277.672V344.851H384.812V346.851Z" fill="#F4F5F6"/>
<path fill-rule="evenodd" clip-rule="evenodd" d="M213.742 398.92V292.78H215.742V398.92H213.742Z" fill="#F4F5F6"/>
<path fill-rule="evenodd" clip-rule="evenodd" d="M267.812 346.851H160.672V344.851H267.812V346.851Z" fill="#F4F5F6"/>
<path d="M335.242 369.28H339.242V348.28H335.242V369.28Z" fill="#F4F5F6"/>
<path fill-rule="evenodd" clip-rule="evenodd" d="M339.742 369.78H334.742V347.78H339.742V369.78ZM338.742 368.78V348.78H335.742V368.78H338.742Z" fill="#959DA8"/>
<path d="M324.242 369.28H328.242V348.28H324.242V369.28Z" fill="#F4F5F6"/>
<path fill-rule="evenodd" clip-rule="evenodd" d="M328.742 369.78H323.742V347.78H328.742V369.78ZM327.742 368.78V348.78H324.742V368.78H327.742Z" fill="#959DA8"/>
<path d="M218.242 369.28H222.242V348.28H218.242V369.28Z" fill="#F4F5F6"/>
<path fill-rule="evenodd" clip-rule="evenodd" d="M222.742 369.78H217.742V347.78H222.742V369.78ZM221.742 368.78V348.78H218.742V368.78H221.742Z" fill="#959DA8"/>
<path d="M207.242 369.28H211.242V348.28H207.242V369.28Z" fill="#F4F5F6"/>
<path fill-rule="evenodd" clip-rule="evenodd" d="M211.742 369.78H206.742V347.78H211.742V369.78ZM210.742 368.78V348.78H207.742V368.78H210.742Z" fill="#959DA8"/>
<path d="M392.211 133.78H422.731V209.78H392.211V133.78Z" fill="white"/>
<path fill-rule="evenodd" clip-rule="evenodd" d="M391.711 133.28H423.231V210.28H391.711V133.28ZM392.711 134.28V209.28H422.231V134.28H392.711Z" fill="#959DA8"/>
<path fill-rule="evenodd" clip-rule="evenodd" d="M392.211 155.61H422.731V156.61H392.211V155.61Z" fill="#959DA8"/>
<path d="M698.211 133.78H728.731V186.78H698.211V133.78Z" fill="white"/>
<path fill-rule="evenodd" clip-rule="evenodd" d="M697.711 133.28H729.231V187.28H697.711V133.28ZM698.711 134.28V186.28H728.231V134.28H698.711Z" fill="#959DA8"/>
<path fill-rule="evenodd" clip-rule="evenodd" d="M698.211 155.61H728.731V156.61H698.211V155.61Z" fill="#959DA8"/>
<path d="M759.004 317.35L775.444 308.07L791.704 317.67H791.254L790.914 333.81C790.848 336.941 789.552 339.92 787.306 342.102C785.06 344.285 782.045 345.495 778.914 345.47L771.504 345.4C768.383 345.369 765.4 344.114 763.195 341.905C760.99 339.697 759.74 336.711 759.714 333.59L759.584 317.37L759.004 317.35Z" fill="#D3DCE5"/>
<path d="M763.794 326.771H786.664V321.951H763.794V326.771Z" fill="#F4F5F6"/>
<path fill-rule="evenodd" clip-rule="evenodd" d="M787.164 327.271H763.294V321.451H787.164V327.271ZM786.164 326.271V322.451H764.294V326.271H786.164Z" fill="#959DA8"/>
<path d="M403.734 369.79C403.398 369.789 403.063 369.752 402.734 369.68C386.734 366.05 386.734 346.68 386.734 346.68C386.734 320.34 403.734 307.13 403.734 307.13C403.734 307.13 420.734 320.31 420.734 346.67C420.734 346.67 420.734 366.02 404.734 369.67C404.406 369.742 404.071 369.779 403.734 369.78V369.79Z" fill="#80C33F"/>
<path fill-rule="evenodd" clip-rule="evenodd" d="M403.734 333.66C404.011 333.66 404.234 333.884 404.234 334.16V397.91C404.234 398.186 404.011 398.41 403.734 398.41C403.458 398.41 403.234 398.186 403.234 397.91V334.16C403.234 333.884 403.458 333.66 403.734 333.66Z" fill="#2A3A51"/>
<path d="M920.122 197.5H901.262V207.05H920.122V197.5Z" fill="#F4F5F6"/>
<path fill-rule="evenodd" clip-rule="evenodd" d="M900.762 197H920.622V207.55H900.762V197ZM901.762 198V206.55H919.622V198H901.762Z" fill="#959DA8"/>
<path d="M920.122 187.5H901.262V197.27H920.122V187.5Z" fill="#F4F5F6"/>
<path fill-rule="evenodd" clip-rule="evenodd" d="M900.762 187H920.622V197.77H900.762V187ZM901.762 188V196.77H919.622V188H901.762Z" fill="#959DA8"/>
<path d="M920.122 177.5H901.262V187.27H920.122V177.5Z" fill="#F4F5F6"/>
<path fill-rule="evenodd" clip-rule="evenodd" d="M900.762 177H920.622V187.77H900.762V177ZM901.762 178V186.77H919.622V178H901.762Z" fill="#959DA8"/>
<path d="M901.262 177.27H920.122V167.5H901.272V169.66L901.262 177.27Z" fill="#F4F5F6"/>
<path fill-rule="evenodd" clip-rule="evenodd" d="M900.772 167H920.622V177.77H900.762L900.772 169.66V167ZM901.772 168L901.763 176.77H919.622V168H901.772Z" fill="#959DA8"/>
<path d="M920.123 157.5H901.273V167.27H920.123V157.5Z" fill="#F4F5F6"/>
<path fill-rule="evenodd" clip-rule="evenodd" d="M900.773 157H920.623V167.77H900.773V157ZM901.773 158V166.77H919.623V158H901.773Z" fill="#959DA8"/>
<path d="M920.123 147.5H901.273V157.27H920.123V147.5Z" fill="#F4F5F6"/>
<path fill-rule="evenodd" clip-rule="evenodd" d="M900.773 147H920.623V157.77H900.773V147ZM901.773 148V156.77H919.623V148H901.773Z" fill="#959DA8"/>
<path d="M920.123 137.5H901.273V147.27H920.123V137.5Z" fill="#F4F5F6"/>
<path fill-rule="evenodd" clip-rule="evenodd" d="M900.773 137H920.623V147.77H900.773V137ZM901.773 138V146.77H919.623V138H901.773Z" fill="#959DA8"/>
<path d="M815.122 197.5H796.262V207.05H815.122V197.5Z" fill="#F4F5F6"/>
<path fill-rule="evenodd" clip-rule="evenodd" d="M795.762 197H815.622V207.55H795.762V197ZM796.762 198V206.55H814.622V198H796.762Z" fill="#959DA8"/>
<path d="M815.122 187.5H796.262V197.27H815.122V187.5Z" fill="#F4F5F6"/>
<path fill-rule="evenodd" clip-rule="evenodd" d="M795.762 187H815.622V197.77H795.762V187ZM796.762 188V196.77H814.622V188H796.762Z" fill="#959DA8"/>
<path d="M815.122 177.5H796.262V187.27H815.122V177.5Z" fill="#F4F5F6"/>
<path fill-rule="evenodd" clip-rule="evenodd" d="M795.762 177H815.622V187.77H795.762V177ZM796.762 178V186.77H814.622V178H796.762Z" fill="#959DA8"/>
<path d="M796.262 177.27H815.122V167.5H796.272V169.66L796.262 177.27Z" fill="#F4F5F6"/>
<path fill-rule="evenodd" clip-rule="evenodd" d="M795.772 167H815.622V177.77H795.762L795.772 169.66V167ZM796.772 168L796.763 176.77H814.622V168H796.772Z" fill="#959DA8"/>
<path d="M815.123 157.5H796.273V167.27H815.123V157.5Z" fill="#F4F5F6"/>
<path fill-rule="evenodd" clip-rule="evenodd" d="M795.773 157H815.623V167.77H795.773V157ZM796.773 158V166.77H814.623V158H796.773Z" fill="#959DA8"/>
<path d="M815.123 147.5H796.273V157.27H815.123V147.5Z" fill="#F4F5F6"/>
<path fill-rule="evenodd" clip-rule="evenodd" d="M795.773 147H815.623V157.77H795.773V147ZM796.773 148V156.77H814.623V148H796.773Z" fill="#959DA8"/>
<path d="M815.123 137.5H796.273V147.27H815.123V137.5Z" fill="#F4F5F6"/>
<path fill-rule="evenodd" clip-rule="evenodd" d="M795.773 137H815.623V147.77H795.773V137ZM796.773 138V146.77H814.623V138H796.773Z" fill="#959DA8"/>
<path d="M920.122 354.5H901.262V364.05H920.122V354.5Z" fill="#F4F5F6"/>
<path fill-rule="evenodd" clip-rule="evenodd" d="M900.762 354H920.622V364.55H900.762V354ZM901.762 355V363.55H919.622V355H901.762Z" fill="#959DA8"/>
<path d="M920.122 344.5H901.262V354.27H920.122V344.5Z" fill="#F4F5F6"/>
<path fill-rule="evenodd" clip-rule="evenodd" d="M900.762 344H920.622V354.77H900.762V344ZM901.762 345V353.77H919.622V345H901.762Z" fill="#959DA8"/>
<path d="M920.122 334.5H901.262V344.27H920.122V334.5Z" fill="#F4F5F6"/>
<path fill-rule="evenodd" clip-rule="evenodd" d="M900.762 334H920.622V344.77H900.762V334ZM901.762 335V343.77H919.622V335H901.762Z" fill="#959DA8"/>
<path d="M901.262 334.27H920.122V324.5H901.272V326.66L901.262 334.27Z" fill="#F4F5F6"/>
<path fill-rule="evenodd" clip-rule="evenodd" d="M900.772 324H920.622V334.77H900.762L900.772 326.66V324ZM901.772 325L901.763 333.77H919.622V325H901.772Z" fill="#959DA8"/>
<path d="M920.123 314.5H901.273V324.27H920.123V314.5Z" fill="#F4F5F6"/>
<path fill-rule="evenodd" clip-rule="evenodd" d="M900.773 314H920.623V324.77H900.773V314ZM901.773 315V323.77H919.623V315H901.773Z" fill="#959DA8"/>
<path d="M920.123 304.5H901.273V314.27H920.123V304.5Z" fill="#F4F5F6"/>
<path fill-rule="evenodd" clip-rule="evenodd" d="M900.773 304H920.623V314.77H900.773V304ZM901.773 305V313.77H919.623V305H901.773Z" fill="#959DA8"/>
<path d="M920.123 294.5H901.273V304.27H920.123V294.5Z" fill="#F4F5F6"/>
<path fill-rule="evenodd" clip-rule="evenodd" d="M900.773 294H920.623V304.77H900.773V294ZM901.773 295V303.77H919.623V295H901.773Z" fill="#959DA8"/>
<path d="M815.122 354.5H796.262V364.05H815.122V354.5Z" fill="#F4F5F6"/>
<path fill-rule="evenodd" clip-rule="evenodd" d="M795.762 354H815.622V364.55H795.762V354ZM796.762 355V363.55H814.622V355H796.762Z" fill="#959DA8"/>
<path d="M815.122 344.5H796.262V354.27H815.122V344.5Z" fill="#F4F5F6"/>
<path fill-rule="evenodd" clip-rule="evenodd" d="M795.762 344H815.622V354.77H795.762V344ZM796.762 345V353.77H814.622V345H796.762Z" fill="#959DA8"/>
<path d="M815.122 334.5H796.262V344.27H815.122V334.5Z" fill="#F4F5F6"/>
<path fill-rule="evenodd" clip-rule="evenodd" d="M795.762 334H815.622V344.77H795.762V334ZM796.762 335V343.77H814.622V335H796.762Z" fill="#959DA8"/>
<path d="M796.262 334.27H815.122V324.5H796.272V326.66L796.262 334.27Z" fill="#F4F5F6"/>
<path fill-rule="evenodd" clip-rule="evenodd" d="M795.772 324H815.622V334.77H795.762L795.772 326.66V324ZM796.772 325L796.763 333.77H814.622V325H796.772Z" fill="#959DA8"/>
<path d="M815.123 314.5H796.273V324.27H815.123V314.5Z" fill="#F4F5F6"/>
<path fill-rule="evenodd" clip-rule="evenodd" d="M795.773 314H815.623V324.77H795.773V314ZM796.773 315V323.77H814.623V315H796.773Z" fill="#959DA8"/>
<path d="M815.123 304.5H796.273V314.27H815.123V304.5Z" fill="#F4F5F6"/>
<path fill-rule="evenodd" clip-rule="evenodd" d="M795.773 304H815.623V314.77H795.773V304ZM796.773 305V313.77H814.623V305H796.773Z" fill="#959DA8"/>
<path d="M815.123 294.5H796.273V304.27H815.123V294.5Z" fill="#F4F5F6"/>
<path fill-rule="evenodd" clip-rule="evenodd" d="M795.773 294H815.623V304.77H795.773V294ZM796.773 295V303.77H814.623V295H796.773Z" fill="#959DA8"/>
<path d="M628.122 197.5H609.262V207.05H628.122V197.5Z" fill="#F4F5F6"/>
<path fill-rule="evenodd" clip-rule="evenodd" d="M608.762 197H628.622V207.55H608.762V197ZM609.762 198V206.55H627.622V198H609.762Z" fill="#959DA8"/>
<path d="M628.122 187.5H609.262V197.27H628.122V187.5Z" fill="#F4F5F6"/>
<path fill-rule="evenodd" clip-rule="evenodd" d="M608.762 187H628.622V197.77H608.762V187ZM609.762 188V196.77H627.622V188H609.762Z" fill="#959DA8"/>
<path d="M628.122 177.5H609.262V187.27H628.122V177.5Z" fill="#F4F5F6"/>
<path fill-rule="evenodd" clip-rule="evenodd" d="M608.762 177H628.622V187.77H608.762V177ZM609.762 178V186.77H627.622V178H609.762Z" fill="#959DA8"/>
<path d="M609.262 177.27H628.122V167.5H609.272V169.66L609.262 177.27Z" fill="#F4F5F6"/>
<path fill-rule="evenodd" clip-rule="evenodd" d="M608.772 167H628.622V177.77H608.762L608.772 169.66V167ZM609.772 168L609.763 176.77H627.622V168H609.772Z" fill="#959DA8"/>
<path d="M628.123 157.5H609.273V167.27H628.123V157.5Z" fill="#F4F5F6"/>
<path fill-rule="evenodd" clip-rule="evenodd" d="M608.773 157H628.623V167.77H608.773V157ZM609.773 158V166.77H627.623V158H609.773Z" fill="#959DA8"/>
<path d="M628.123 147.5H609.273V157.27H628.123V147.5Z" fill="#F4F5F6"/>
<path fill-rule="evenodd" clip-rule="evenodd" d="M608.773 147H628.623V157.77H608.773V147ZM609.773 148V156.77H627.623V148H609.773Z" fill="#959DA8"/>
<path d="M628.123 137.5H609.273V147.27H628.123V137.5Z" fill="#F4F5F6"/>
<path fill-rule="evenodd" clip-rule="evenodd" d="M608.773 137H628.623V147.77H608.773V137ZM609.773 138V146.77H627.623V138H609.773Z" fill="#959DA8"/>
<path d="M523.122 197.5H504.262V207.05H523.122V197.5Z" fill="#F4F5F6"/>
<path fill-rule="evenodd" clip-rule="evenodd" d="M503.762 197H523.622V207.55H503.762V197ZM504.762 198V206.55H522.622V198H504.762Z" fill="#959DA8"/>
<path d="M523.122 187.5H504.262V197.27H523.122V187.5Z" fill="#F4F5F6"/>
<path fill-rule="evenodd" clip-rule="evenodd" d="M503.762 187H523.622V197.77H503.762V187ZM504.762 188V196.77H522.622V188H504.762Z" fill="#959DA8"/>
<path d="M523.122 177.5H504.262V187.27H523.122V177.5Z" fill="#F4F5F6"/>
<path fill-rule="evenodd" clip-rule="evenodd" d="M503.762 177H523.622V187.77H503.762V177ZM504.762 178V186.77H522.622V178H504.762Z" fill="#959DA8"/>
<path d="M504.262 177.27H523.122V167.5H504.272V169.66L504.262 177.27Z" fill="#F4F5F6"/>
<path fill-rule="evenodd" clip-rule="evenodd" d="M503.772 167H523.622V177.77H503.762L503.772 169.66V167ZM504.772 168L504.763 176.77H522.622V168H504.772Z" fill="#959DA8"/>
<path d="M523.123 157.5H504.273V167.27H523.123V157.5Z" fill="#F4F5F6"/>
<path fill-rule="evenodd" clip-rule="evenodd" d="M503.773 157H523.623V167.77H503.773V157ZM504.773 158V166.77H522.623V158H504.773Z" fill="#959DA8"/>
<path d="M523.123 147.5H504.273V157.27H523.123V147.5Z" fill="#F4F5F6"/>
<path fill-rule="evenodd" clip-rule="evenodd" d="M503.773 147H523.623V157.77H503.773V147ZM504.773 148V156.77H522.623V148H504.773Z" fill="#959DA8"/>
<path d="M523.123 137.5H504.273V147.27H523.123V137.5Z" fill="#F4F5F6"/>
<path fill-rule="evenodd" clip-rule="evenodd" d="M503.773 137H523.623V147.77H503.773V137ZM504.773 138V146.77H522.623V138H504.773Z" fill="#959DA8"/>
<path d="M308.122 197.5H289.262V207.05H308.122V197.5Z" fill="#F4F5F6"/>
<path fill-rule="evenodd" clip-rule="evenodd" d="M288.762 197H308.622V207.55H288.762V197ZM289.762 198V206.55H307.622V198H289.762Z" fill="#959DA8"/>
<path d="M308.122 187.5H289.262V197.27H308.122V187.5Z" fill="#F4F5F6"/>
<path fill-rule="evenodd" clip-rule="evenodd" d="M288.762 187H308.622V197.77H288.762V187ZM289.762 188V196.77H307.622V188H289.762Z" fill="#959DA8"/>
<path d="M308.122 177.5H289.262V187.27H308.122V177.5Z" fill="#F4F5F6"/>
<path fill-rule="evenodd" clip-rule="evenodd" d="M288.762 177H308.622V187.77H288.762V177ZM289.762 178V186.77H307.622V178H289.762Z" fill="#959DA8"/>
<path d="M289.262 177.27H308.122V167.5H289.272V169.66L289.262 177.27Z" fill="#F4F5F6"/>
<path fill-rule="evenodd" clip-rule="evenodd" d="M288.772 167H308.622V177.77H288.762L288.772 169.66V167ZM289.772 168L289.763 176.77H307.622V168H289.772Z" fill="#959DA8"/>
<path d="M308.123 157.5H289.273V167.27H308.123V157.5Z" fill="#F4F5F6"/>
<path fill-rule="evenodd" clip-rule="evenodd" d="M288.773 157H308.623V167.77H288.773V157ZM289.773 158V166.77H307.623V158H289.773Z" fill="#959DA8"/>
<path d="M308.123 147.5H289.273V157.27H308.123V147.5Z" fill="#F4F5F6"/>
<path fill-rule="evenodd" clip-rule="evenodd" d="M288.773 147H308.623V157.77H288.773V147ZM289.773 148V156.77H307.623V148H289.773Z" fill="#959DA8"/>
<path d="M308.123 137.5H289.273V147.27H308.123V137.5Z" fill="#F4F5F6"/>
<path fill-rule="evenodd" clip-rule="evenodd" d="M288.773 137H308.623V147.77H288.773V137ZM289.773 138V146.77H307.623V138H289.773Z" fill="#959DA8"/>
<path d="M203.122 197.5H184.262V207.05H203.122V197.5Z" fill="#F4F5F6"/>
<path fill-rule="evenodd" clip-rule="evenodd" d="M183.762 197H203.622V207.55H183.762V197ZM184.762 198V206.55H202.622V198H184.762Z" fill="#959DA8"/>
<path d="M203.122 187.5H184.262V197.27H203.122V187.5Z" fill="#F4F5F6"/>
<path fill-rule="evenodd" clip-rule="evenodd" d="M183.762 187H203.622V197.77H183.762V187ZM184.762 188V196.77H202.622V188H184.762Z" fill="#959DA8"/>
<path d="M203.122 177.5H184.262V187.27H203.122V177.5Z" fill="#F4F5F6"/>
<path fill-rule="evenodd" clip-rule="evenodd" d="M183.762 177H203.622V187.77H183.762V177ZM184.762 178V186.77H202.622V178H184.762Z" fill="#959DA8"/>
<path d="M184.262 177.27H203.122V167.5H184.272V169.66L184.262 177.27Z" fill="#F4F5F6"/>
<path fill-rule="evenodd" clip-rule="evenodd" d="M183.772 167H203.622V177.77H183.762L183.772 169.66V167ZM184.772 168L184.763 176.77H202.622V168H184.772Z" fill="#959DA8"/>
<path d="M203.123 157.5H184.273V167.27H203.123V157.5Z" fill="#F4F5F6"/>
<path fill-rule="evenodd" clip-rule="evenodd" d="M183.773 157H203.623V167.77H183.773V157ZM184.773 158V166.77H202.623V158H184.773Z" fill="#959DA8"/>
<path d="M203.123 147.5H184.273V157.27H203.123V147.5Z" fill="#F4F5F6"/>
<path fill-rule="evenodd" clip-rule="evenodd" d="M183.773 147H203.623V157.77H183.773V147ZM184.773 148V156.77H202.623V148H184.773Z" fill="#959DA8"/>
<path d="M203.123 137.5H184.273V147.27H203.123V137.5Z" fill="#F4F5F6"/>
<path fill-rule="evenodd" clip-rule="evenodd" d="M183.773 137H203.623V147.77H183.773V137ZM184.773 138V146.77H202.623V138H184.773Z" fill="#959DA8"/>
<path fill-rule="evenodd" clip-rule="evenodd" d="M920.168 207.675H900.528V137.215H920.168V207.675ZM919.318 206.825V138.065H901.378V206.825H919.318Z" fill="#959DA8"/>
<path d="M815.211 133.59H901.271V210.12H815.211V133.59Z" fill="white"/>
<path fill-rule="evenodd" clip-rule="evenodd" d="M814.711 133.09H901.771V210.62H814.711V133.09ZM815.711 134.09V209.62H900.771V134.09H815.711Z" fill="#959DA8"/>
<path fill-rule="evenodd" clip-rule="evenodd" d="M857.742 210.23V133.58H858.742V210.23H857.742Z" fill="#959DA8"/>
<path fill-rule="evenodd" clip-rule="evenodd" d="M815.543 169.16H901.273V170.16H815.543V169.16Z" fill="#959DA8"/>
<path d="M257.753 25.06H235.203L246.493 15.29H246.513L257.753 25.06Z" fill="#F4F5F6"/>
<path fill-rule="evenodd" clip-rule="evenodd" d="M246.305 14.79H246.698L259.089 25.56H233.859L246.305 14.79ZM246.501 15.9432L236.543 24.56H256.414L246.501 15.9432Z" fill="#959DA8"/>
<path d="M269.261 35.06H223.641L234.931 25.29H258.021L269.261 35.06Z" fill="#F4F5F6"/>
<path fill-rule="evenodd" clip-rule="evenodd" d="M234.746 24.79H258.21L270.6 35.56H222.301L234.746 24.79ZM235.119 25.79L224.985 34.56H267.925L257.836 25.79H235.119Z" fill="#959DA8"/>
<path d="M280.764 45.06H212.094L223.384 35.29H269.524L280.764 45.06Z" fill="#F4F5F6"/>
<path fill-rule="evenodd" clip-rule="evenodd" d="M223.196 34.79H269.709L282.099 45.56H210.75L223.196 34.79ZM223.568 35.79L213.434 44.56H279.425L269.335 35.79H223.568Z" fill="#959DA8"/>
<path d="M577.753 25.06H555.203L566.493 15.29H566.513L577.753 25.06Z" fill="#F4F5F6"/>
<path fill-rule="evenodd" clip-rule="evenodd" d="M566.305 14.79H566.698L579.089 25.56H553.859L566.305 14.79ZM566.501 15.9432L556.543 24.56H576.414L566.501 15.9432Z" fill="#959DA8"/>
<path d="M589.261 35.06H543.641L554.931 25.29H578.021L589.261 35.06Z" fill="#F4F5F6"/>
<path fill-rule="evenodd" clip-rule="evenodd" d="M554.746 24.79H578.21L590.6 35.56H542.301L554.746 24.79ZM555.119 25.79L544.985 34.56H587.925L577.836 25.79H555.119Z" fill="#959DA8"/>
<path d="M600.764 45.06H532.094L543.384 35.29H589.524L600.764 45.06Z" fill="#F4F5F6"/>
<path fill-rule="evenodd" clip-rule="evenodd" d="M543.196 34.79H589.709L602.099 45.56H530.75L543.196 34.79ZM543.568 35.79L533.434 44.56H599.425L589.335 35.79H543.568Z" fill="#959DA8"/>
<path d="M869.753 25.06H847.203L858.493 15.29H858.513L869.753 25.06Z" fill="#F4F5F6"/>
<path fill-rule="evenodd" clip-rule="evenodd" d="M858.305 14.79H858.698L871.089 25.56H845.859L858.305 14.79ZM858.501 15.9432L848.543 24.56H868.414L858.501 15.9432Z" fill="#959DA8"/>
<path d="M881.261 35.06H835.641L846.931 25.29H870.021L881.261 35.06Z" fill="#F4F5F6"/>
<path fill-rule="evenodd" clip-rule="evenodd" d="M846.746 24.79H870.21L882.6 35.56H834.301L846.746 24.79ZM847.119 25.79L836.985 34.56H879.925L869.836 25.79H847.119Z" fill="#959DA8"/>
<path d="M892.764 45.06H824.094L835.384 35.29H881.524L892.764 45.06Z" fill="#F4F5F6"/>
<path fill-rule="evenodd" clip-rule="evenodd" d="M835.196 34.79H881.709L894.099 45.56H822.75L835.196 34.79ZM835.568 35.79L825.434 44.56H891.425L881.335 35.79H835.568Z" fill="#959DA8"/>
<path d="M146.004 243.78V230.28L100.004 197.78L53.2838 231.28L53.0039 244.78L99.0039 243.78H146.004Z" fill="#F4F5F6"/>
<path fill-rule="evenodd" clip-rule="evenodd" d="M99.9971 196.553L147.001 229.762V244.78H145.001V230.798L100.006 199.008L54.2812 231.794V245.78H52.2812V230.767L99.9971 196.553Z" fill="#959DA8"/>
<path fill-rule="evenodd" clip-rule="evenodd" d="M100.001 211.167L146.292 243.872L145.715 244.689L100.006 212.394L53.5749 245.687L52.9922 244.874L100.001 211.167Z" fill="#959DA8"/>
<path d="M974 244.78H-161V259.78H974V244.78Z" fill="#F4F5F6"/>
<path fill-rule="evenodd" clip-rule="evenodd" d="M-162 243.78H975V260.78H-162V243.78ZM-160 245.78V258.78H973V245.78H-160Z" fill="#959DA8"/>
<path d="M903 394.08C902.991 391.854 903.518 389.659 904.537 387.68C905.555 385.701 907.035 383.997 908.852 382.711C910.669 381.425 912.768 380.595 914.973 380.292C917.178 379.989 919.424 380.222 921.52 380.97C922.33 377.708 923.971 374.711 926.283 372.271C928.595 369.832 931.499 368.032 934.712 367.047C937.926 366.062 941.34 365.926 944.622 366.652C947.904 367.379 950.942 368.942 953.44 371.19C955.205 366.255 958.655 362.101 963.181 359.46C967.708 356.818 973.022 355.859 978.186 356.75C983.351 357.642 988.036 360.327 991.415 364.333C994.794 368.339 996.652 373.409 996.66 378.65C996.663 379.425 996.623 380.2 996.54 380.97C998.046 380.42 999.637 380.139 1001.24 380.14C1008.94 380.14 1015.64 386.39 1015.15 394.05C1015.08 395.313 1014.87 396.564 1014.52 397.78H903.52C903.185 396.565 903.017 395.31 903.02 394.05L903 394.08Z" fill="#80C33F"/>
</svg>
