<svg width="958" height="420" viewBox="0 0 958 420" fill="none" xmlns="http://www.w3.org/2000/svg">
<path d="M436.818 280.78L883.578 280.78V122.28L436.818 122.28V280.78Z" fill="#F4F5F6"/>
<path fill-rule="evenodd" clip-rule="evenodd" d="M884.578 281.78L435.818 281.78V121.28L884.578 121.28V281.78ZM882.578 279.78V123.28L437.818 123.28V279.78L882.578 279.78Z" fill="#959DA8"/>
<path d="M949.571 359.511C950.197 356.365 950.166 353.124 949.481 349.991C948.808 346.889 947.486 343.965 945.601 341.411C943.768 338.919 941.4 336.869 938.671 335.411C936.006 333.986 933.042 333.209 930.02 333.145C926.999 333.081 924.004 333.73 921.281 335.041C918.505 336.379 916.065 338.323 914.141 340.731C912.165 343.202 910.736 346.066 909.951 349.131C909.15 352.237 909.001 355.475 909.511 358.641C907.252 359.823 905.279 361.485 903.731 363.511C902.142 365.587 901.002 367.971 900.381 370.511C899.747 373.079 899.638 375.749 900.061 378.361C900.479 380.953 901.425 383.431 902.841 385.641C904.219 387.8 906.047 389.635 908.201 391.021C910.314 392.376 912.708 393.231 915.201 393.521C917.67 393.806 920.171 393.519 922.511 392.681C924.888 391.832 927.046 390.466 928.831 388.681C930.558 390.441 932.646 391.805 934.951 392.681C937.213 393.54 939.639 393.882 942.051 393.681C944.47 393.46 946.809 392.705 948.901 391.471C951.04 390.205 952.887 388.501 954.321 386.471C955.791 384.392 956.828 382.039 957.371 379.551C957.924 377.039 957.978 374.444 957.531 371.911C957.092 369.397 956.153 366.996 954.771 364.851C953.435 362.723 951.663 360.903 949.571 359.511Z" fill="#80C33F"/>
<path fill-rule="evenodd" clip-rule="evenodd" d="M919.792 371.579C919.952 371.354 920.264 371.302 920.489 371.462L929.899 378.162C930.124 378.322 930.177 378.634 930.017 378.859C929.857 379.084 929.544 379.137 929.319 378.976L919.909 372.276C919.684 372.116 919.632 371.804 919.792 371.579Z" fill="#2A3A51"/>
<path fill-rule="evenodd" clip-rule="evenodd" d="M940.979 376.603C941.165 376.807 941.15 377.124 940.946 377.309L929.946 387.309C929.741 387.495 929.425 387.48 929.239 387.276C929.054 387.071 929.069 386.755 929.273 386.569L940.273 376.569C940.477 376.384 940.794 376.399 940.979 376.603Z" fill="#2A3A51"/>
<path fill-rule="evenodd" clip-rule="evenodd" d="M929.609 357.961C929.886 357.961 930.109 358.185 930.109 358.461V418.781C930.109 419.057 929.886 419.281 929.609 419.281C929.333 419.281 929.109 419.057 929.109 418.781V358.461C929.109 358.185 929.333 357.961 929.609 357.961Z" fill="#2A3A51"/>
<path d="M436.818 418.78L883.578 418.78V280.78L436.818 280.78V418.78Z" fill="#F4F5F6"/>
<path fill-rule="evenodd" clip-rule="evenodd" d="M884.578 419.78L435.818 419.78V279.78L884.578 279.78V419.78ZM882.578 417.78V281.78L437.818 281.78V417.78L882.578 417.78Z" fill="#959DA8"/>
<path d="M688.5 309.29H731.35V402.38H688.5V309.29Z" fill="#D3DCE5"/>
<path d="M694.571 359.56H725.301V315.23H694.571V359.56Z" fill="white"/>
<path fill-rule="evenodd" clip-rule="evenodd" d="M725.801 360.06H694.071V314.73H725.801V360.06ZM724.801 359.06V315.73H695.071V359.06H724.801Z" fill="#959DA8"/>
<path d="M746.531 279.78H754.421V399.78H746.531V279.78Z" fill="#F4F5F6"/>
<path fill-rule="evenodd" clip-rule="evenodd" d="M745.531 278.78H755.421V400.78H745.531V278.78ZM747.531 280.78V398.78H753.421V280.78H747.531Z" fill="#959DA8"/>
<path d="M636.531 279.78H644.421V418.78H636.531V279.78Z" fill="#F4F5F6"/>
<path fill-rule="evenodd" clip-rule="evenodd" d="M635.531 278.78H645.421V419.78H635.531V278.78ZM637.531 280.78V417.78H643.421V280.78H637.531Z" fill="#959DA8"/>
<path d="M666.531 279.78H674.421V417.78H666.531V279.78Z" fill="#F4F5F6"/>
<path fill-rule="evenodd" clip-rule="evenodd" d="M665.531 278.78H675.421V418.78H665.531V278.78ZM667.531 280.78V416.78H673.421V280.78H667.531Z" fill="#959DA8"/>
<path d="M548.82 409.15H769.52V418.92H548.82V409.15Z" fill="#F4F5F6"/>
<path fill-rule="evenodd" clip-rule="evenodd" d="M547.82 408.15H770.52V419.92H547.82V408.15ZM549.82 410.15V417.92H768.52V410.15H549.82Z" fill="#959DA8"/>
<path d="M723.32 367.28C724.425 367.28 725.32 366.385 725.32 365.28C725.32 364.176 724.425 363.28 723.32 363.28C722.216 363.28 721.32 364.176 721.32 365.28C721.32 366.385 722.216 367.28 723.32 367.28Z" fill="white"/>
<path fill-rule="evenodd" clip-rule="evenodd" d="M723.32 363.78C722.492 363.78 721.82 364.452 721.82 365.28C721.82 366.109 722.492 366.78 723.32 366.78C724.149 366.78 724.82 366.109 724.82 365.28C724.82 364.452 724.149 363.78 723.32 363.78ZM720.82 365.28C720.82 363.9 721.94 362.78 723.32 362.78C724.701 362.78 725.82 363.9 725.82 365.28C725.82 366.661 724.701 367.78 723.32 367.78C721.94 367.78 720.82 366.661 720.82 365.28Z" fill="#959DA8"/>
<path d="M621.362 309.29H578.512V402.38H621.362V309.29Z" fill="#D3DCE5"/>
<path d="M615.289 315.23H584.559V359.56H615.289V315.23Z" fill="white"/>
<path fill-rule="evenodd" clip-rule="evenodd" d="M584.059 314.73H615.789V360.06H584.059V314.73ZM585.059 315.73V359.06H614.789V315.73H585.059Z" fill="#959DA8"/>
<path d="M586.539 367.28C587.644 367.28 588.539 366.385 588.539 365.28C588.539 364.176 587.644 363.28 586.539 363.28C585.434 363.28 584.539 364.176 584.539 365.28C584.539 366.385 585.434 367.28 586.539 367.28Z" fill="white"/>
<path fill-rule="evenodd" clip-rule="evenodd" d="M586.539 363.78C585.711 363.78 585.039 364.452 585.039 365.28C585.039 366.109 585.711 366.78 586.539 366.78C587.367 366.78 588.039 366.109 588.039 365.28C588.039 364.452 587.367 363.78 586.539 363.78ZM584.039 365.28C584.039 363.9 585.158 362.78 586.539 362.78C587.92 362.78 589.039 363.9 589.039 365.28C589.039 366.661 587.92 367.78 586.539 367.78C585.158 367.78 584.039 366.661 584.039 365.28Z" fill="#959DA8"/>
<path d="M548.82 399.4H769.52V409.17H548.82V399.4Z" fill="#F4F5F6"/>
<path fill-rule="evenodd" clip-rule="evenodd" d="M547.82 398.4H770.52V410.17H547.82V398.4ZM549.82 400.4V408.17H768.52V400.4H549.82Z" fill="#959DA8"/>
<path d="M436.82 121.78H883.58L871.58 22.7803H436.82V121.78Z" fill="#D3DCE5"/>
<path d="M770.079 21.3799L654.359 122.78H883.079" fill="#F4F5F6"/>
<path d="M872.171 122.55H667.781L678.711 112.8H860.051L872.171 122.55Z" fill="white"/>
<path fill-rule="evenodd" clip-rule="evenodd" d="M678.52 112.3H860.227L873.59 123.05H666.469L678.52 112.3ZM678.901 113.3L669.092 122.05H870.751L859.874 113.3H678.901Z" fill="#959DA8"/>
<path fill-rule="evenodd" clip-rule="evenodd" d="M769.471 20.6709L886.811 123.4H871.031V121.4H881.491L769.471 23.3289L657.412 121.4H667.871V123.4H652.09L769.471 20.6709Z" fill="#959DA8"/>
<path fill-rule="evenodd" clip-rule="evenodd" d="M769.45 33.6182L776.788 39.9822L777.088 40.2422L781.241 43.8465L781.248 43.8524L781.308 43.9023L790.138 51.5624L792.828 53.9023L795.908 56.5723L803.518 63.1723L804.358 63.9022L815.781 73.816L815.88 73.8958L824.338 81.2323L827.418 83.9021L828.908 85.1921L837.358 92.5224L837.359 92.5235L838.938 93.9023L849.318 102.902L849.319 102.903L850.259 103.723L853.908 106.882L860.538 112.632L871.358 122.022L870.703 122.778L859.883 113.388L853.253 107.638L849.603 104.478L848.663 103.658L848.662 103.657L843.253 98.9679L838.282 94.6567L836.702 93.2767L828.253 85.9481L826.763 84.6581L823.683 81.9879L815.24 74.6643L815.14 74.5842L803.703 64.6579L802.863 63.9278L795.253 57.3279L792.173 54.6579L789.483 52.3178L780.66 44.6637L780.653 44.6578L780.593 44.6078L776.433 40.998L776.133 40.738L769.45 34.942L766.908 37.1477L759.179 43.8471L759.178 43.8479L758.249 44.6571L751.068 50.8875L746.728 54.6576L745.908 55.3678L737.158 62.9578L735.198 64.6577L729.908 69.2477L715.408 81.8277L712.138 84.6579L708.908 87.4576L700.618 94.6576L693.978 100.418L690.238 103.658L683.914 109.149L683.904 109.156L678.728 113.648L668.198 122.778L667.543 122.022L678.073 112.892L683.05 108.572V108.522L683.307 108.352L689.583 102.903L693.323 99.6624L699.963 93.9026L708.253 86.7026L711.483 83.9023L714.753 81.0725L729.253 68.4924L734.543 63.9024L745.253 54.6124L746.073 53.9026L750.412 50.1326L757.592 43.9031L758.522 43.093L758.523 43.0922L766.253 36.3924L769.45 33.6182Z" fill="#959DA8"/>
<path d="M881.819 265.67L847.879 237.78H709.379L664.879 265.28L881.819 265.67Z" fill="#D3DCE5"/>
<path d="M750.222 94.8604H787.012V62.3504L750.222 62.3504V94.8604Z" fill="#F4F5F6"/>
<path fill-rule="evenodd" clip-rule="evenodd" d="M787.512 95.3604H749.722V61.8504L787.512 61.8504V95.3604ZM786.512 94.3604V62.8504L750.722 62.8504V94.3604H786.512Z" fill="#959DA8"/>
<path d="M756.642 68.4697H780.822V88.9097H756.602L756.642 68.4697Z" fill="white"/>
<path fill-rule="evenodd" clip-rule="evenodd" d="M756.14 67.9697H781.319V89.4097H756.098L756.14 67.9697ZM757.138 68.9697L757.1 88.4097H780.319V68.9697H757.138Z" fill="#959DA8"/>
<path d="M655.76 280.67L609.82 252.78H481.32L436.82 280.28L655.76 280.67Z" fill="#D3DCE5"/>
<path d="M664.82 266.78V255.29L710.82 237.78L757.54 256.29L757.82 266.78H711.82H664.82Z" fill="#F4F5F6"/>
<path d="M763.32 385.28H806.32V309.28H763.32V385.28Z" fill="white"/>
<path fill-rule="evenodd" clip-rule="evenodd" d="M806.82 385.78H762.82V308.78H806.82V385.78ZM805.82 384.78V309.78H763.82V384.78H805.82Z" fill="#959DA8"/>
<path d="M806.32 385.28H849.32V309.28H806.32V385.28Z" fill="white"/>
<path fill-rule="evenodd" clip-rule="evenodd" d="M849.82 385.78H805.82V308.78H849.82V385.78ZM848.82 384.78V309.78H806.82V384.78H848.82Z" fill="#959DA8"/>
<path fill-rule="evenodd" clip-rule="evenodd" d="M763.82 333.28H849.32V334.28H763.82V333.28Z" fill="#959DA8"/>
<path fill-rule="evenodd" clip-rule="evenodd" d="M792.32 333.78V309.28H793.32V333.78H792.32Z" fill="#959DA8"/>
<path fill-rule="evenodd" clip-rule="evenodd" d="M778.32 333.78V309.28H779.32V333.78H778.32Z" fill="#959DA8"/>
<path fill-rule="evenodd" clip-rule="evenodd" d="M834.32 333.78V309.28H835.32V333.78H834.32Z" fill="#959DA8"/>
<path fill-rule="evenodd" clip-rule="evenodd" d="M820.32 333.78V309.28H821.32V333.78H820.32Z" fill="#959DA8"/>
<path d="M462.32 385.28H505.32V309.28H462.32V385.28Z" fill="white"/>
<path fill-rule="evenodd" clip-rule="evenodd" d="M505.82 385.78H461.82V308.78H505.82V385.78ZM504.82 384.78V309.78H462.82V384.78H504.82Z" fill="#959DA8"/>
<path d="M505.32 385.28H548.32V309.28H505.32V385.28Z" fill="white"/>
<path fill-rule="evenodd" clip-rule="evenodd" d="M548.82 385.78H504.82V308.78H548.82V385.78ZM547.82 384.78V309.78H505.82V384.78H547.82Z" fill="#959DA8"/>
<path fill-rule="evenodd" clip-rule="evenodd" d="M462.82 333.28H548.32V334.28H462.82V333.28Z" fill="#959DA8"/>
<path fill-rule="evenodd" clip-rule="evenodd" d="M491.32 333.78V309.28H492.32V333.78H491.32Z" fill="#959DA8"/>
<path fill-rule="evenodd" clip-rule="evenodd" d="M477.32 333.78V309.28H478.32V333.78H477.32Z" fill="#959DA8"/>
<path fill-rule="evenodd" clip-rule="evenodd" d="M533.32 333.78V309.28H534.32V333.78H533.32Z" fill="#959DA8"/>
<path fill-rule="evenodd" clip-rule="evenodd" d="M519.32 333.78V309.28H520.32V333.78H519.32Z" fill="#959DA8"/>
<path fill-rule="evenodd" clip-rule="evenodd" d="M654.32 400.78V123.78H656.32V400.78H654.32Z" fill="#959DA8"/>
<path d="M541.079 2.37988L465.359 58.7799H616.079" fill="#F4F5F6"/>
<path fill-rule="evenodd" clip-rule="evenodd" d="M540.471 0.75293L619.166 59.4H600.031V57.4H613.136L540.471 3.247L467.768 57.4H481.871V59.4H461.734L540.471 0.75293Z" fill="#959DA8"/>
<path fill-rule="evenodd" clip-rule="evenodd" d="M587.321 49.2998H493.711V48.2998H587.321V49.2998Z" fill="#959DA8"/>
<path fill-rule="evenodd" clip-rule="evenodd" d="M540.316 15.6709L601.602 57.8678L601.034 58.6914L540.32 16.8883L480.605 58.6892L480.031 57.87L540.316 15.6709Z" fill="#959DA8"/>
<path d="M481.32 107.28L600.32 107.28V58.2803L481.32 58.2803V107.28Z" fill="#F4F5F6"/>
<path fill-rule="evenodd" clip-rule="evenodd" d="M601.32 108.28L480.32 108.28V57.2803L601.32 57.2803V108.28ZM599.32 106.28V59.2803L482.32 59.2803V106.28L599.32 106.28Z" fill="#959DA8"/>
<path d="M551.222 98.8604H588.012V66.3504H551.222V98.8604Z" fill="#F4F5F6"/>
<path fill-rule="evenodd" clip-rule="evenodd" d="M588.512 99.3604H550.722V65.8504H588.512V99.3604ZM587.512 98.3604V66.8504H551.722V98.3604H587.512Z" fill="#959DA8"/>
<path d="M557.641 72.4697H581.822V92.9097H557.602L557.641 72.4697Z" fill="white"/>
<path fill-rule="evenodd" clip-rule="evenodd" d="M557.14 71.9697H582.319V93.4097H557.098L557.14 71.9697ZM558.138 72.9697L558.1 92.4097H581.319V72.9697H558.138Z" fill="#959DA8"/>
<path d="M493.222 98.8604H530.012V66.3504H493.222V98.8604Z" fill="#F4F5F6"/>
<path fill-rule="evenodd" clip-rule="evenodd" d="M530.512 99.3604H492.722V65.8504H530.512V99.3604ZM529.512 98.3604V66.8504H493.722V98.3604H529.512Z" fill="#959DA8"/>
<path d="M499.641 72.4697H523.822V92.9097H499.602L499.641 72.4697Z" fill="white"/>
<path fill-rule="evenodd" clip-rule="evenodd" d="M499.14 71.9697H524.319V93.4097H499.098L499.14 71.9697ZM500.138 72.9697L500.1 92.4097H523.319V72.9697H500.138Z" fill="#959DA8"/>
<path d="M462.32 59.2803L618.32 59.2803V49.2803L462.32 49.2803V59.2803Z" fill="#F4F5F6"/>
<path fill-rule="evenodd" clip-rule="evenodd" d="M618.914 59.875L461.724 59.875V48.685L618.914 48.685V59.875ZM617.724 58.685V49.875L462.914 49.875V58.685L617.724 58.685Z" fill="#959DA8"/>
<path d="M652.32 123.28L886.32 123.28V113.28L652.32 113.28V123.28Z" fill="#F4F5F6"/>
<path fill-rule="evenodd" clip-rule="evenodd" d="M887.051 124.01L651.591 124.01V112.55L887.051 112.55V124.01ZM885.591 122.55V114.01L653.051 114.01V122.55L885.591 122.55Z" fill="#959DA8"/>
<path fill-rule="evenodd" clip-rule="evenodd" d="M710.828 237.707L758.54 256.61V266.78H756.54V257.969L710.813 239.853L665.82 256.979V266.78H663.82V255.6L710.828 237.707Z" fill="#959DA8"/>
<path fill-rule="evenodd" clip-rule="evenodd" d="M710.822 248.247L757.495 265.812L757.143 266.748L710.816 249.313L665.489 265.75L665.148 264.81L710.822 248.247Z" fill="#959DA8"/>
<path d="M436.819 280.78H-9.94141V418.78H436.819V280.78Z" fill="#F4F5F6"/>
<path fill-rule="evenodd" clip-rule="evenodd" d="M-10.6562 280.065H437.534V419.495H-10.6562V280.065ZM-9.22625 281.495V418.065H436.104V281.495H-9.22625Z" fill="#959DA8"/>
<path d="M436.819 122.28H-9.94141V280.78H436.819V122.28Z" fill="#F4F5F6"/>
<path fill-rule="evenodd" clip-rule="evenodd" d="M-10.9414 121.28H437.819V281.78H-10.9414V121.28ZM-8.94141 123.28V279.78H435.819V123.28H-8.94141Z" fill="#959DA8"/>
<path d="M436.819 121.78H-9.94141L2.05859 22.7803H444.819L436.819 121.78Z" fill="#D3DCE5"/>
<path d="M185.139 309.29H142.289V402.38H185.139V309.29Z" fill="#D3DCE5"/>
<path d="M179.07 315.23H148.34V359.56H179.07V315.23Z" fill="white"/>
<path fill-rule="evenodd" clip-rule="evenodd" d="M147.84 314.73H179.57V360.06H147.84V314.73ZM148.84 315.73V359.06H178.57V315.73H148.84Z" fill="#959DA8"/>
<path d="M127.109 279.78H119.219V399.78H127.109V279.78Z" fill="#F4F5F6"/>
<path fill-rule="evenodd" clip-rule="evenodd" d="M118.219 278.78H128.109V400.78H118.219V278.78ZM120.219 280.78V398.78H126.109V280.78H120.219Z" fill="#959DA8"/>
<path d="M207.109 279.78H199.219V417.78H207.109V279.78Z" fill="#F4F5F6"/>
<path fill-rule="evenodd" clip-rule="evenodd" d="M198.219 278.78H208.109V418.78H198.219V278.78ZM200.219 280.78V416.78H206.109V280.78H200.219Z" fill="#959DA8"/>
<path d="M236.109 279.78H228.219V417.78H236.109V279.78Z" fill="#F4F5F6"/>
<path fill-rule="evenodd" clip-rule="evenodd" d="M227.219 278.78H237.109V418.78H227.219V278.78ZM229.219 280.78V416.78H235.109V280.78H229.219Z" fill="#959DA8"/>
<path d="M324.821 409.15H104.121V418.92H324.821V409.15Z" fill="#F4F5F6"/>
<path fill-rule="evenodd" clip-rule="evenodd" d="M103.121 408.15H325.821V419.92H103.121V408.15ZM105.121 410.15V417.92H323.821V410.15H105.121Z" fill="#959DA8"/>
<path d="M150.32 367.28C151.425 367.28 152.32 366.385 152.32 365.28C152.32 364.176 151.425 363.28 150.32 363.28C149.216 363.28 148.32 364.176 148.32 365.28C148.32 366.385 149.216 367.28 150.32 367.28Z" fill="white"/>
<path fill-rule="evenodd" clip-rule="evenodd" d="M150.32 363.78C149.492 363.78 148.82 364.452 148.82 365.28C148.82 366.109 149.492 366.78 150.32 366.78C151.149 366.78 151.82 366.109 151.82 365.28C151.82 364.452 151.149 363.78 150.32 363.78ZM147.82 365.28C147.82 363.9 148.94 362.78 150.32 362.78C151.701 362.78 152.82 363.9 152.82 365.28C152.82 366.661 151.701 367.78 150.32 367.78C148.94 367.78 147.82 366.661 147.82 365.28Z" fill="#959DA8"/>
<path d="M252.281 309.29H295.131V402.38H252.281V309.29Z" fill="#D3DCE5"/>
<path d="M258.348 359.56H289.078V315.23H258.348V359.56Z" fill="white"/>
<path fill-rule="evenodd" clip-rule="evenodd" d="M289.578 360.06H257.848V314.73H289.578V360.06ZM288.578 359.06V315.73H258.848V359.06H288.578Z" fill="#959DA8"/>
<path d="M287.102 367.28C288.206 367.28 289.102 366.385 289.102 365.28C289.102 364.176 288.206 363.28 287.102 363.28C285.997 363.28 285.102 364.176 285.102 365.28C285.102 366.385 285.997 367.28 287.102 367.28Z" fill="white"/>
<path fill-rule="evenodd" clip-rule="evenodd" d="M287.102 363.78C286.273 363.78 285.602 364.452 285.602 365.28C285.602 366.109 286.273 366.78 287.102 366.78C287.93 366.78 288.602 366.109 288.602 365.28C288.602 364.452 287.93 363.78 287.102 363.78ZM284.602 365.28C284.602 363.9 285.721 362.78 287.102 362.78C288.482 362.78 289.602 363.9 289.602 365.28C289.602 366.661 288.482 367.78 287.102 367.78C285.721 367.78 284.602 366.661 284.602 365.28Z" fill="#959DA8"/>
<path d="M324.821 399.4H104.121V409.17H324.821V399.4Z" fill="#F4F5F6"/>
<path fill-rule="evenodd" clip-rule="evenodd" d="M103.121 398.4H325.821V410.17H103.121V398.4ZM105.121 400.4V408.17H323.821V400.4H105.121Z" fill="#959DA8"/>
<path d="M103.559 21.3799L219.279 122.78H-9.44141" fill="#F4F5F6"/>
<path d="M1.46875 122.55H205.859L194.929 112.8H13.5887L1.46875 122.55Z" fill="white"/>
<path fill-rule="evenodd" clip-rule="evenodd" d="M13.4139 112.3H195.121L207.172 123.05H0.0507812L13.4139 112.3ZM13.7662 113.3L2.88924 122.05H204.548L194.739 113.3H13.7662Z" fill="#959DA8"/>
<path fill-rule="evenodd" clip-rule="evenodd" d="M104.168 20.6709L221.549 123.4H205.768V121.4H216.227L104.169 23.3289L-7.85118 121.4H2.60847V123.4H-13.1719L104.168 20.6709Z" fill="#959DA8"/>
<path fill-rule="evenodd" clip-rule="evenodd" d="M104.189 33.6182L107.386 36.3923L115.117 43.093L116.047 43.9024L123.227 50.1324L127.566 53.9021L128.386 54.6121L139.096 63.9024L144.386 68.4923L150.626 73.9023L158.886 81.072L162.156 83.902L165.386 86.7023L173.677 93.9024L180.316 99.6622L184.056 102.902L190.333 108.352L190.589 108.522V108.572L195.567 112.892L206.096 122.022L205.441 122.778L194.911 113.648L189.736 109.156L189.725 109.149L183.402 103.658L179.662 100.418L173.021 94.6578L164.731 87.4579L161.502 84.6582L158.232 81.8282L143.731 69.2479L136.481 62.9578L127.732 55.3681L126.912 54.6581L122.571 50.8877L115.391 44.6577L114.461 43.8479L106.731 37.1479L104.189 34.942L97.5065 40.7378L97.2067 40.9977L93.0389 44.6144L92.9865 44.6578L92.9788 44.6643L84.1571 52.3173L81.467 54.6573L78.3865 57.3278L70.7769 63.9275L69.937 64.6575L64.3869 69.4675L58.4992 74.5841L58.3991 74.6642L49.9566 81.9878L46.8764 84.6579L45.3866 85.9478L36.9379 93.2767L36.9366 93.2778L35.3578 94.6567L35.3565 94.6578L30.3865 98.9678L24.9776 103.657L24.9764 103.658L24.0376 104.477L20.3865 107.638L2.93669 122.778L2.28125 122.022L19.7313 106.882L23.3817 103.722L24.3202 102.903L24.3214 102.902L29.7313 98.2123L34.7 93.9035L34.7013 93.9023L36.2801 92.5235L36.2813 92.5224L44.7313 85.1924L46.2214 83.9023L49.3013 81.2324L57.7588 73.8959L57.8586 73.816L63.7309 68.7127L69.281 63.9027L70.1209 63.1727L77.7313 56.5723L80.8107 53.9028L83.5008 51.5628L92.3389 43.8957L92.3913 43.8524L92.399 43.8458L96.5513 40.2424L96.8513 39.9824L104.189 33.6182Z" fill="#959DA8"/>
<path d="M123.431 62.3398H86.6406V94.8498H123.431V62.3398Z" fill="#F4F5F6"/>
<path fill-rule="evenodd" clip-rule="evenodd" d="M86.1406 61.8398H123.931V95.3498H86.1406V61.8398ZM87.1406 62.8398V94.3498H122.931V62.8398H87.1406Z" fill="#959DA8"/>
<path d="M117 68.4697H92.8203V88.9097H117.04L117 68.4697Z" fill="white"/>
<path fill-rule="evenodd" clip-rule="evenodd" d="M92.3203 67.9697H117.499L117.541 89.4097H92.3203V67.9697ZM93.3203 68.9697V88.4097H116.539L116.501 68.9697H93.3203Z" fill="#959DA8"/>
<path d="M-10.1211 265.67L23.8188 237.78H162.319L206.819 265.28L-10.1211 265.67Z" fill="#D3DCE5"/>
<path d="M215.879 266.67L263.819 238.78H392.319L434.819 266.28L215.879 266.67Z" fill="#D3DCE5"/>
<path d="M208.82 266.78V255.29L162.82 237.78L116.1 256.29L115.82 266.78H161.82H208.82Z" fill="#F4F5F6"/>
<path d="M577.32 230.28H620.32V154.28H577.32V230.28Z" fill="white"/>
<path fill-rule="evenodd" clip-rule="evenodd" d="M620.82 230.78H576.82V153.78H620.82V230.78ZM619.82 229.78V154.78H577.82V229.78H619.82Z" fill="#959DA8"/>
<path fill-rule="evenodd" clip-rule="evenodd" d="M576.82 178.28H620.32V179.28H576.82V178.28Z" fill="#959DA8"/>
<path fill-rule="evenodd" clip-rule="evenodd" d="M605.32 178.78V154.28H606.32V178.78H605.32Z" fill="#959DA8"/>
<path fill-rule="evenodd" clip-rule="evenodd" d="M591.32 178.78V154.28H592.32V178.78H591.32Z" fill="#959DA8"/>
<path d="M462.32 230.28H505.32V154.28H462.32V230.28Z" fill="white"/>
<path fill-rule="evenodd" clip-rule="evenodd" d="M505.82 230.78H461.82V153.78H505.82V230.78ZM504.82 229.78V154.78H462.82V229.78H504.82Z" fill="#959DA8"/>
<path fill-rule="evenodd" clip-rule="evenodd" d="M462.82 178.28H505.32V179.28H462.82V178.28Z" fill="#959DA8"/>
<path fill-rule="evenodd" clip-rule="evenodd" d="M490.32 178.78V154.28H491.32V178.78H490.32Z" fill="#959DA8"/>
<path fill-rule="evenodd" clip-rule="evenodd" d="M476.32 178.78V154.28H477.32V178.78H476.32Z" fill="#959DA8"/>
<path d="M804.32 230.28H847.32V154.28H804.32V230.28Z" fill="white"/>
<path fill-rule="evenodd" clip-rule="evenodd" d="M847.82 230.78H803.82V153.78H847.82V230.78ZM846.82 229.78V154.78H804.82V229.78H846.82Z" fill="#959DA8"/>
<path fill-rule="evenodd" clip-rule="evenodd" d="M803.82 178.28H847.32V179.28H803.82V178.28Z" fill="#959DA8"/>
<path fill-rule="evenodd" clip-rule="evenodd" d="M832.32 178.78V154.28H833.32V178.78H832.32Z" fill="#959DA8"/>
<path fill-rule="evenodd" clip-rule="evenodd" d="M818.32 178.78V154.28H819.32V178.78H818.32Z" fill="#959DA8"/>
<path d="M689.32 230.28H732.32V154.28H689.32V230.28Z" fill="white"/>
<path fill-rule="evenodd" clip-rule="evenodd" d="M732.82 230.78H688.82V153.78H732.82V230.78ZM731.82 229.78V154.78H689.82V229.78H731.82Z" fill="#959DA8"/>
<path fill-rule="evenodd" clip-rule="evenodd" d="M689.82 178.28H732.32V179.28H689.82V178.28Z" fill="#959DA8"/>
<path fill-rule="evenodd" clip-rule="evenodd" d="M717.32 178.78V154.28H718.32V178.78H717.32Z" fill="#959DA8"/>
<path fill-rule="evenodd" clip-rule="evenodd" d="M703.32 178.78V154.28H704.32V178.78H703.32Z" fill="#959DA8"/>
<path d="M296.32 154.28H253.32V230.28H296.32V154.28Z" fill="white"/>
<path fill-rule="evenodd" clip-rule="evenodd" d="M252.82 153.78H296.82V230.78H252.82V153.78ZM253.82 154.78V229.78H295.82V154.78H253.82Z" fill="#959DA8"/>
<path fill-rule="evenodd" clip-rule="evenodd" d="M296.82 179.28H253.32V178.28H296.82V179.28Z" fill="#959DA8"/>
<path fill-rule="evenodd" clip-rule="evenodd" d="M267.32 178.78V154.28H268.32V178.78H267.32Z" fill="#959DA8"/>
<path fill-rule="evenodd" clip-rule="evenodd" d="M281.32 178.78V154.28H282.32V178.78H281.32Z" fill="#959DA8"/>
<path d="M411.32 154.28H368.32V230.28H411.32V154.28Z" fill="white"/>
<path fill-rule="evenodd" clip-rule="evenodd" d="M367.82 153.78H411.82V230.78H367.82V153.78ZM368.82 154.78V229.78H410.82V154.78H368.82Z" fill="#959DA8"/>
<path fill-rule="evenodd" clip-rule="evenodd" d="M410.82 179.28H368.32V178.28H410.82V179.28Z" fill="#959DA8"/>
<path fill-rule="evenodd" clip-rule="evenodd" d="M382.32 178.78V154.28H383.32V178.78H382.32Z" fill="#959DA8"/>
<path fill-rule="evenodd" clip-rule="evenodd" d="M396.32 178.78V154.28H397.32V178.78H396.32Z" fill="#959DA8"/>
<path d="M69.3203 154.28H26.3203V230.28H69.3203V154.28Z" fill="white"/>
<path fill-rule="evenodd" clip-rule="evenodd" d="M25.8203 153.78H69.8203V230.78H25.8203V153.78ZM26.8203 154.78V229.78H68.8203V154.78H26.8203Z" fill="#959DA8"/>
<path fill-rule="evenodd" clip-rule="evenodd" d="M69.8203 179.28H26.3203V178.28H69.8203V179.28Z" fill="#959DA8"/>
<path fill-rule="evenodd" clip-rule="evenodd" d="M40.3203 178.78V154.28H41.3203V178.78H40.3203Z" fill="#959DA8"/>
<path fill-rule="evenodd" clip-rule="evenodd" d="M54.3203 178.78V154.28H55.3203V178.78H54.3203Z" fill="#959DA8"/>
<path d="M184.32 154.28H141.32V230.28H184.32V154.28Z" fill="white"/>
<path fill-rule="evenodd" clip-rule="evenodd" d="M140.82 153.78H184.82V230.78H140.82V153.78ZM141.82 154.78V229.78H183.82V154.78H141.82Z" fill="#959DA8"/>
<path fill-rule="evenodd" clip-rule="evenodd" d="M183.82 179.28H141.32V178.28H183.82V179.28Z" fill="#959DA8"/>
<path fill-rule="evenodd" clip-rule="evenodd" d="M155.32 178.78V154.28H156.32V178.78H155.32Z" fill="#959DA8"/>
<path fill-rule="evenodd" clip-rule="evenodd" d="M169.32 178.78V154.28H170.32V178.78H169.32Z" fill="#959DA8"/>
<path d="M110.32 309.28H67.3203V385.28H110.32V309.28Z" fill="white"/>
<path fill-rule="evenodd" clip-rule="evenodd" d="M66.8203 308.78H110.82V385.78H66.8203V308.78ZM67.8203 309.78V384.78H109.82V309.78H67.8203Z" fill="#959DA8"/>
<path d="M67.3203 309.28H24.3203V385.28H67.3203V309.28Z" fill="white"/>
<path fill-rule="evenodd" clip-rule="evenodd" d="M23.8203 308.78H67.8203V385.78H23.8203V308.78ZM24.8203 309.78V384.78H66.8203V309.78H24.8203Z" fill="#959DA8"/>
<path fill-rule="evenodd" clip-rule="evenodd" d="M109.82 334.28H24.3203V333.28H109.82V334.28Z" fill="#959DA8"/>
<path fill-rule="evenodd" clip-rule="evenodd" d="M80.3203 333.78V309.28H81.3203V333.78H80.3203Z" fill="#959DA8"/>
<path fill-rule="evenodd" clip-rule="evenodd" d="M94.3203 333.78V309.28H95.3203V333.78H94.3203Z" fill="#959DA8"/>
<path fill-rule="evenodd" clip-rule="evenodd" d="M38.3203 333.78V309.28H39.3203V333.78H38.3203Z" fill="#959DA8"/>
<path fill-rule="evenodd" clip-rule="evenodd" d="M52.3203 333.78V309.28H53.3203V333.78H52.3203Z" fill="#959DA8"/>
<path d="M411.32 309.28H368.32V385.28H411.32V309.28Z" fill="white"/>
<path fill-rule="evenodd" clip-rule="evenodd" d="M367.82 308.78H411.82V385.78H367.82V308.78ZM368.82 309.78V384.78H410.82V309.78H368.82Z" fill="#959DA8"/>
<path d="M368.32 309.28H325.32V385.28H368.32V309.28Z" fill="white"/>
<path fill-rule="evenodd" clip-rule="evenodd" d="M324.82 308.78H368.82V385.78H324.82V308.78ZM325.82 309.78V384.78H367.82V309.78H325.82Z" fill="#959DA8"/>
<path fill-rule="evenodd" clip-rule="evenodd" d="M410.82 334.28H325.32V333.28H410.82V334.28Z" fill="#959DA8"/>
<path fill-rule="evenodd" clip-rule="evenodd" d="M381.32 333.78V309.28H382.32V333.78H381.32Z" fill="#959DA8"/>
<path fill-rule="evenodd" clip-rule="evenodd" d="M395.32 333.78V309.28H396.32V333.78H395.32Z" fill="#959DA8"/>
<path fill-rule="evenodd" clip-rule="evenodd" d="M339.32 333.78V309.28H340.32V333.78H339.32Z" fill="#959DA8"/>
<path fill-rule="evenodd" clip-rule="evenodd" d="M353.32 333.78V309.28H354.32V333.78H353.32Z" fill="#959DA8"/>
<path fill-rule="evenodd" clip-rule="evenodd" d="M217.32 400.78V123.78H219.32V400.78H217.32Z" fill="#959DA8"/>
<path d="M332.559 2.37988L408.279 58.7799H257.559" fill="#F4F5F6"/>
<path fill-rule="evenodd" clip-rule="evenodd" d="M333.172 0.75293L411.908 59.4H391.772V57.4H405.875L333.172 3.247L260.507 57.4H273.612V59.4H254.477L333.172 0.75293Z" fill="#959DA8"/>
<path fill-rule="evenodd" clip-rule="evenodd" d="M286.32 48.2998H379.93V49.2998H286.32V48.2998Z" fill="#959DA8"/>
<path fill-rule="evenodd" clip-rule="evenodd" d="M333.321 15.6709L393.605 57.87L393.032 58.6892L333.316 16.8883L272.602 58.6914L272.035 57.8678L333.321 15.6709Z" fill="#959DA8"/>
<path d="M392.32 58.2803H273.32V107.28H392.32V58.2803Z" fill="#F4F5F6"/>
<path fill-rule="evenodd" clip-rule="evenodd" d="M272.32 57.2803H393.32V108.28H272.32V57.2803ZM274.32 59.2803V106.28H391.32V59.2803H274.32Z" fill="#959DA8"/>
<path d="M322.431 66.3398H285.641V98.8498H322.431V66.3398Z" fill="#F4F5F6"/>
<path fill-rule="evenodd" clip-rule="evenodd" d="M285.141 65.8398H322.931V99.3498H285.141V65.8398ZM286.141 66.8398V98.3498H321.931V66.8398H286.141Z" fill="#959DA8"/>
<path d="M316 72.4697H291.82V92.9097H316.04L316 72.4697Z" fill="white"/>
<path fill-rule="evenodd" clip-rule="evenodd" d="M291.32 71.9697H316.499L316.541 93.4097H291.32V71.9697ZM292.32 72.9697V92.4097H315.539L315.501 72.9697H292.32Z" fill="#959DA8"/>
<path d="M380.431 66.3398H343.641V98.8498H380.431V66.3398Z" fill="#F4F5F6"/>
<path fill-rule="evenodd" clip-rule="evenodd" d="M343.141 65.8398H380.931V99.3498H343.141V65.8398ZM344.141 66.8398V98.3498H379.931V66.8398H344.141Z" fill="#959DA8"/>
<path d="M374 72.4697H349.82V92.9097H374.04L374 72.4697Z" fill="white"/>
<path fill-rule="evenodd" clip-rule="evenodd" d="M349.32 71.9697H374.499L374.541 93.4097H349.32V71.9697ZM350.32 72.9697V92.4097H373.539L373.501 72.9697H350.32Z" fill="#959DA8"/>
<path d="M349.879 266.67L383.819 238.78H606.319L650.819 266.28L349.879 266.67Z" fill="#D3DCE5"/>
<path d="M883.82 265.78H-11.1797V280.78H883.82V265.78Z" fill="#F4F5F6"/>
<path fill-rule="evenodd" clip-rule="evenodd" d="M-12.1797 264.78H884.82V281.78H-12.1797V264.78ZM-10.1797 266.78V279.78H882.82V266.78H-10.1797Z" fill="#959DA8"/>
<path d="M442.818 387.78C443.191 387.782 443.564 387.742 443.928 387.66C460.828 383.81 460.828 363.35 460.828 363.35C460.828 335.46 442.828 321.48 442.828 321.48C442.828 321.48 424.828 335.48 424.828 363.35C424.828 363.35 424.828 383.84 441.718 387.66C442.083 387.742 442.455 387.782 442.828 387.78H442.818Z" fill="#80C33F"/>
<path fill-rule="evenodd" clip-rule="evenodd" d="M442.82 348.49C443.096 348.49 443.32 348.714 443.32 348.99V418.6C443.32 418.876 443.096 419.1 442.82 419.1C442.544 419.1 442.32 418.876 442.32 418.6V348.99C442.32 348.714 442.544 348.49 442.82 348.49Z" fill="#2A3A51"/>
<path d="M221.32 113.28H-12.6797V123.28H221.32V113.28Z" fill="#F4F5F6"/>
<path fill-rule="evenodd" clip-rule="evenodd" d="M-13.4102 112.55H222.05V124.01H-13.4102V112.55ZM-11.9502 114.01V122.55H220.59V114.01H-11.9502Z" fill="#959DA8"/>
<path d="M411.32 49.2803H255.32V59.2803H411.32V49.2803Z" fill="#F4F5F6"/>
<path fill-rule="evenodd" clip-rule="evenodd" d="M254.727 48.6846H411.917V59.8746H254.727V48.6846ZM255.917 49.8746V58.6846H410.727V49.8746H255.917Z" fill="#959DA8"/>
<path fill-rule="evenodd" clip-rule="evenodd" d="M162.814 237.707L209.822 255.6V266.78H207.822V256.979L162.829 239.853L117.102 257.969V266.78H115.102V256.61L162.814 237.707Z" fill="#959DA8"/>
<path fill-rule="evenodd" clip-rule="evenodd" d="M162.822 248.245L208.999 265.822L208.643 266.757L162.82 249.314L116.497 266.748L116.145 265.812L162.822 248.245Z" fill="#959DA8"/>
<path d="M300.82 415.08C300.811 412.854 301.338 410.659 302.357 408.68C303.376 406.701 304.856 404.997 306.672 403.711C308.489 402.425 310.589 401.595 312.794 401.292C314.999 400.989 317.244 401.222 319.34 401.97C320.151 398.708 321.791 395.711 324.103 393.271C326.415 390.831 329.319 389.032 332.533 388.047C335.746 387.062 339.16 386.926 342.442 387.652C345.724 388.379 348.762 389.942 351.26 392.19C353.025 387.255 356.475 383.101 361.002 380.46C365.528 377.818 370.842 376.859 376.007 377.75C381.171 378.642 385.856 381.327 389.235 385.333C392.615 389.339 394.472 394.409 394.48 399.65C394.483 400.425 394.443 401.2 394.36 401.97C395.866 401.42 397.457 401.139 399.06 401.14C406.76 401.14 413.46 407.39 412.97 415.05C412.9 416.313 412.689 417.564 412.34 418.78H301.34C301.005 417.565 300.837 416.31 300.84 415.05L300.82 415.08Z" fill="#80C33F"/>
<path d="M956.342 267.606L912.82 231.087L893.68 253.897L937.202 290.416L956.342 267.606Z" fill="#F4F5F6"/>
<path d="M956.376 267.49L912.891 231.002L911.377 232.806L954.862 269.295L956.376 267.49Z" fill="#B22234"/>
<path d="M953.415 271.019L909.93 234.531L908.416 236.336L951.901 272.824L953.415 271.019Z" fill="#B22234"/>
<path d="M950.454 274.549L906.969 238.061L905.455 239.865L948.94 276.353L950.454 274.549Z" fill="#B22234"/>
<path d="M947.493 278.078L904.008 241.59L902.494 243.394L945.979 279.882L947.493 278.078Z" fill="#B22234"/>
<path d="M944.532 281.607L901.047 245.119L899.533 246.924L943.018 283.412L944.532 281.607Z" fill="#B22234"/>
<path d="M941.571 285.137L898.086 248.648L896.572 250.453L940.057 286.941L941.571 285.137Z" fill="#B22234"/>
<path d="M938.606 288.667L895.121 252.179L893.607 253.983L937.092 290.471L938.606 288.667Z" fill="#B22234"/>
<path d="M930.258 245.573L912.891 231L902.491 243.393L919.859 257.967L930.258 245.573Z" fill="#2A3A51"/>
<path d="M913.97 232.713L913.708 233.356L914.234 233.797L913.546 233.753L913.284 234.395L913.121 233.725L912.433 233.681L913.02 233.311L912.857 232.642L913.383 233.083L913.97 232.713Z" fill="#F4F5F6"/>
<path d="M914.333 235.187L914.071 235.829L914.597 236.271L913.909 236.227L913.647 236.869L913.484 236.199L912.796 236.155L913.383 235.785L913.22 235.115L913.746 235.557L914.333 235.187Z" fill="#F4F5F6"/>
<path d="M912.251 237.671L911.989 238.314L912.515 238.755L911.827 238.711L911.565 239.353L911.402 238.683L910.714 238.639L911.301 238.269L911.138 237.6L911.664 238.041L912.251 237.671Z" fill="#F4F5F6"/>
<path d="M910.165 240.156L909.903 240.798L910.429 241.239L909.741 241.195L909.479 241.837L909.316 241.168L908.628 241.123L909.215 240.754L909.052 240.084L909.578 240.525L910.165 240.156Z" fill="#F4F5F6"/>
<path d="M908.079 242.641L907.817 243.283L908.343 243.725L907.655 243.681L907.393 244.323L907.23 243.653L906.542 243.609L907.129 243.239L906.966 242.569L907.492 243.011L908.079 242.641Z" fill="#F4F5F6"/>
<path d="M917.235 237.621L916.973 238.263L917.499 238.704L916.811 238.66L916.549 239.302L916.386 238.633L915.699 238.588L916.285 238.219L916.122 237.549L916.648 237.99L917.235 237.621Z" fill="#F4F5F6"/>
<path d="M915.149 240.105L914.887 240.747L915.413 241.189L914.726 241.144L914.464 241.787L914.3 241.117L913.613 241.072L914.2 240.703L914.037 240.033L914.562 240.475L915.149 240.105Z" fill="#F4F5F6"/>
<path d="M913.063 242.59L912.802 243.233L913.328 243.674L912.64 243.63L912.378 244.272L912.214 243.602L911.527 243.558L912.114 243.188L911.951 242.519L912.477 242.96L913.063 242.59Z" fill="#F4F5F6"/>
<path d="M910.981 245.075L910.72 245.717L911.246 246.158L910.558 246.114L910.296 246.756L910.132 246.087L909.445 246.042L910.032 245.673L909.869 245.003L910.395 245.444L910.981 245.075Z" fill="#F4F5F6"/>
<path d="M920.138 240.056L919.876 240.699L920.402 241.14L919.714 241.096L919.452 241.738L919.288 241.068L918.601 241.024L919.188 240.654L919.025 239.985L919.551 240.426L920.138 240.056Z" fill="#F4F5F6"/>
<path d="M918.052 242.541L917.79 243.183L918.316 243.624L917.628 243.58L917.366 244.222L917.203 243.552L916.515 243.508L917.102 243.139L916.939 242.469L917.465 242.91L918.052 242.541Z" fill="#F4F5F6"/>
<path d="M915.966 245.026L915.704 245.668L916.23 246.109L915.542 246.065L915.28 246.707L915.117 246.038L914.429 245.993L915.016 245.624L914.853 244.954L915.379 245.395L915.966 245.026Z" fill="#F4F5F6"/>
<path d="M913.884 247.51L913.622 248.152L914.148 248.594L913.46 248.55L913.198 249.192L913.035 248.522L912.347 248.478L912.934 248.108L912.771 247.438L913.297 247.88L913.884 247.51Z" fill="#F4F5F6"/>
<path d="M923.04 242.491L922.778 243.133L923.304 243.575L922.616 243.53L922.354 244.173L922.191 243.503L921.503 243.458L922.09 243.089L921.927 242.419L922.453 242.86L923.04 242.491Z" fill="#F4F5F6"/>
<path d="M920.954 244.975L920.692 245.618L921.218 246.059L920.53 246.015L920.268 246.657L920.105 245.987L919.417 245.943L920.004 245.573L919.841 244.903L920.367 245.345L920.954 244.975Z" fill="#F4F5F6"/>
<path d="M918.868 247.461L918.606 248.103L919.132 248.544L918.444 248.5L918.182 249.142L918.019 248.472L917.332 248.428L917.918 248.059L917.755 247.389L918.281 247.83L918.868 247.461Z" fill="#F4F5F6"/>
<path d="M916.782 249.945L916.521 250.587L917.047 251.029L916.358 250.984L916.097 251.626L915.933 250.957L915.246 250.912L915.832 250.543L915.669 249.873L916.195 250.314L916.782 249.945Z" fill="#F4F5F6"/>
<path d="M925.942 244.926L925.68 245.569L926.206 246.01L925.518 245.966L925.256 246.608L925.093 245.938L924.405 245.894L924.992 245.524L924.829 244.855L925.355 245.296L925.942 244.926Z" fill="#F4F5F6"/>
<path d="M923.856 247.411L923.595 248.053L924.12 248.494L923.432 248.45L923.171 249.092L923.007 248.422L922.32 248.378L922.906 248.009L922.744 247.339L923.27 247.78L923.856 247.411Z" fill="#F4F5F6"/>
<path d="M921.77 249.895L921.509 250.537L922.034 250.978L921.347 250.934L921.085 251.576L920.921 250.907L920.234 250.862L920.821 250.493L920.658 249.823L921.184 250.265L921.77 249.895Z" fill="#F4F5F6"/>
<path d="M919.684 252.38L919.423 253.023L919.948 253.464L919.261 253.42L918.999 254.062L918.835 253.392L918.148 253.348L918.735 252.978L918.572 252.309L919.098 252.75L919.684 252.38Z" fill="#F4F5F6"/>
<path d="M911.884 235.199L911.622 235.841L912.148 236.282L911.46 236.238L911.198 236.88L911.035 236.21L910.347 236.166L910.934 235.797L910.771 235.127L911.297 235.568L911.884 235.199Z" fill="#F4F5F6"/>
<path d="M909.798 237.683L909.536 238.325L910.062 238.767L909.374 238.722L909.112 239.365L908.949 238.695L908.261 238.651L908.848 238.281L908.685 237.611L909.211 238.053L909.798 237.683Z" fill="#F4F5F6"/>
<path d="M907.716 240.168L907.454 240.81L907.98 241.251L907.292 241.207L907.03 241.849L906.867 241.179L906.179 241.135L906.766 240.766L906.603 240.096L907.129 240.537L907.716 240.168Z" fill="#F4F5F6"/>
<path d="M905.63 242.653L905.368 243.295L905.894 243.736L905.206 243.692L904.944 244.334L904.781 243.665L904.093 243.62L904.68 243.251L904.517 242.581L905.043 243.022L905.63 242.653Z" fill="#F4F5F6"/>
<path d="M916.833 235.116L916.571 235.758L917.097 236.2L916.409 236.155L916.147 236.798L915.984 236.128L915.296 236.083L915.883 235.714L915.72 235.044L916.246 235.485L916.833 235.116Z" fill="#F4F5F6"/>
<path d="M914.747 237.601L914.485 238.243L915.011 238.685L914.323 238.64L914.061 239.283L913.898 238.613L913.21 238.569L913.798 238.199L913.634 237.529L914.16 237.971L914.747 237.601Z" fill="#F4F5F6"/>
<path d="M912.661 240.086L912.399 240.728L912.925 241.169L912.237 241.125L911.975 241.767L911.812 241.097L911.124 241.053L911.711 240.683L911.548 240.014L912.074 240.455L912.661 240.086Z" fill="#F4F5F6"/>
<path d="M910.579 242.57L910.317 243.212L910.843 243.653L910.155 243.609L909.893 244.251L909.73 243.582L909.042 243.537L909.629 243.168L909.466 242.498L909.992 242.939L910.579 242.57Z" fill="#F4F5F6"/>
<path d="M908.493 245.055L908.231 245.697L908.757 246.139L908.069 246.095L907.807 246.737L907.644 246.067L906.956 246.023L907.543 245.653L907.38 244.983L907.906 245.425L908.493 245.055Z" fill="#F4F5F6"/>
<path d="M919.774 237.584L919.512 238.226L920.038 238.667L919.351 238.623L919.089 239.265L918.925 238.595L918.238 238.551L918.825 238.182L918.661 237.512L919.187 237.953L919.774 237.584Z" fill="#F4F5F6"/>
<path d="M917.688 240.068L917.427 240.71L917.953 241.151L917.265 241.107L917.003 241.749L916.84 241.08L916.152 241.035L916.739 240.666L916.576 239.996L917.102 240.437L917.688 240.068Z" fill="#F4F5F6"/>
<path d="M915.603 242.553L915.341 243.195L915.867 243.637L915.179 243.593L914.917 244.235L914.754 243.565L914.066 243.521L914.653 243.151L914.49 242.481L915.016 242.923L915.603 242.553Z" fill="#F4F5F6"/>
<path d="M913.517 245.038L913.255 245.68L913.781 246.121L913.093 246.077L912.831 246.719L912.668 246.049L911.98 246.005L912.567 245.636L912.404 244.966L912.93 245.407L913.517 245.038Z" fill="#F4F5F6"/>
<path d="M911.435 247.522L911.173 248.164L911.699 248.606L911.011 248.561L910.749 249.204L910.586 248.534L909.898 248.49L910.485 248.12L910.322 247.45L910.848 247.892L911.435 247.522Z" fill="#F4F5F6"/>
<path d="M922.653 240.002L922.391 240.644L922.917 241.085L922.229 241.041L921.967 241.683L921.804 241.013L921.116 240.969L921.703 240.599L921.54 239.93L922.066 240.371L922.653 240.002Z" fill="#F4F5F6"/>
<path d="M920.571 242.487L920.309 243.129L920.835 243.57L920.147 243.526L919.885 244.168L919.722 243.498L919.034 243.454L919.622 243.084L919.458 242.415L919.984 242.856L920.571 242.487Z" fill="#F4F5F6"/>
<path d="M918.485 244.971L918.223 245.613L918.749 246.055L918.061 246.01L917.799 246.653L917.637 245.983L916.948 245.939L917.535 245.569L917.372 244.899L917.898 245.341L918.485 244.971Z" fill="#F4F5F6"/>
<path d="M916.399 247.456L916.137 248.098L916.663 248.539L915.975 248.495L915.714 249.137L915.55 248.467L914.863 248.423L915.449 248.053L915.287 247.384L915.812 247.825L916.399 247.456Z" fill="#F4F5F6"/>
<path d="M914.317 249.941L914.055 250.583L914.581 251.025L913.893 250.98L913.631 251.622L913.468 250.953L912.78 250.908L913.367 250.539L913.204 249.869L913.73 250.31L914.317 249.941Z" fill="#F4F5F6"/>
<path d="M925.536 242.42L925.274 243.063L925.8 243.504L925.112 243.46L924.85 244.102L924.687 243.432L923.999 243.388L924.586 243.018L924.423 242.349L924.949 242.79L925.536 242.42Z" fill="#F4F5F6"/>
<path d="M923.454 244.905L923.192 245.547L923.718 245.988L923.03 245.944L922.768 246.586L922.605 245.916L921.917 245.872L922.504 245.502L922.341 244.833L922.867 245.274L923.454 244.905Z" fill="#F4F5F6"/>
<path d="M921.368 247.39L921.106 248.032L921.632 248.474L920.944 248.429L920.682 249.072L920.519 248.402L919.831 248.357L920.418 247.988L920.255 247.318L920.781 247.759L921.368 247.39Z" fill="#F4F5F6"/>
<path d="M919.282 249.875L919.02 250.517L919.546 250.958L918.858 250.914L918.596 251.556L918.433 250.886L917.745 250.842L918.332 250.472L918.169 249.803L918.695 250.244L919.282 249.875Z" fill="#F4F5F6"/>
<path d="M917.196 252.359L916.934 253.001L917.46 253.442L916.772 253.398L916.51 254.04L916.347 253.371L915.659 253.326L916.246 252.957L916.083 252.287L916.609 252.728L917.196 252.359Z" fill="#F4F5F6"/>
<path d="M928.478 244.888L928.216 245.531L928.742 245.972L928.054 245.928L927.792 246.57L927.629 245.9L926.941 245.856L927.528 245.486L927.364 244.817L927.89 245.258L928.478 244.888Z" fill="#F4F5F6"/>
<path d="M926.392 247.373L926.13 248.015L926.656 248.456L925.968 248.412L925.706 249.054L925.543 248.384L924.855 248.34L925.442 247.97L925.279 247.301L925.805 247.742L926.392 247.373Z" fill="#F4F5F6"/>
<path d="M924.31 249.857L924.048 250.499L924.574 250.941L923.886 250.896L923.624 251.538L923.461 250.869L922.773 250.824L923.36 250.455L923.197 249.785L923.723 250.226L924.31 249.857Z" fill="#F4F5F6"/>
<path d="M922.224 252.342L921.962 252.985L922.488 253.426L921.8 253.382L921.538 254.024L921.375 253.354L920.687 253.31L921.274 252.94L921.111 252.27L921.637 252.712L922.224 252.342Z" fill="#F4F5F6"/>
<path d="M920.138 254.827L919.876 255.469L920.402 255.91L919.714 255.866L919.452 256.508L919.289 255.839L918.601 255.794L919.188 255.425L919.025 254.755L919.551 255.196L920.138 254.827Z" fill="#F4F5F6"/>
<path d="M883.001 266.621L893.928 253.598M893.928 253.598L912.891 231L956.015 267.186L937.053 289.784L893.928 253.598Z" stroke="#959DA8" stroke-miterlimit="10"/>
</svg>
