<svg width="1133" height="421" viewBox="0 0 1133 421" fill="none" xmlns="http://www.w3.org/2000/svg">
<path d="M436.818 280.78L883.578 280.78V122.28L436.818 122.28V280.78Z" fill="#F4F5F6"/>
<path fill-rule="evenodd" clip-rule="evenodd" d="M884.578 281.78L435.818 281.78V121.28L884.578 121.28V281.78ZM882.578 279.78V123.28L437.818 123.28V279.78L882.578 279.78Z" fill="#959DA8"/>
<path d="M949.571 359.511C950.197 356.365 950.166 353.124 949.481 349.991C948.808 346.889 947.486 343.965 945.601 341.411C943.768 338.919 941.4 336.869 938.671 335.411C936.006 333.986 933.042 333.209 930.02 333.145C926.999 333.081 924.004 333.73 921.281 335.041C918.505 336.379 916.065 338.323 914.141 340.731C912.165 343.202 910.736 346.066 909.951 349.131C909.15 352.237 909.001 355.475 909.511 358.641C907.252 359.823 905.279 361.485 903.731 363.511C902.142 365.587 901.002 367.971 900.381 370.511C899.747 373.079 899.638 375.749 900.061 378.361C900.479 380.953 901.425 383.431 902.841 385.641C904.219 387.8 906.047 389.635 908.201 391.021C910.314 392.376 912.708 393.231 915.201 393.521C917.67 393.806 920.171 393.519 922.511 392.681C924.888 391.832 927.046 390.466 928.831 388.681C930.558 390.441 932.646 391.805 934.951 392.681C937.213 393.54 939.639 393.882 942.051 393.681C944.47 393.46 946.809 392.705 948.901 391.471C951.04 390.205 952.887 388.501 954.321 386.471C955.791 384.392 956.828 382.039 957.371 379.551C957.924 377.039 957.978 374.444 957.531 371.911C957.092 369.397 956.153 366.996 954.771 364.851C953.435 362.723 951.663 360.903 949.571 359.511Z" fill="#80C33F"/>
<path fill-rule="evenodd" clip-rule="evenodd" d="M919.792 371.579C919.952 371.354 920.264 371.302 920.489 371.462L929.899 378.162C930.124 378.322 930.177 378.634 930.017 378.859C929.857 379.084 929.544 379.137 929.319 378.976L919.909 372.276C919.684 372.116 919.632 371.804 919.792 371.579Z" fill="#2A3A51"/>
<path fill-rule="evenodd" clip-rule="evenodd" d="M940.979 376.603C941.165 376.807 941.15 377.124 940.946 377.309L929.946 387.309C929.741 387.495 929.425 387.48 929.239 387.276C929.054 387.071 929.069 386.755 929.273 386.569L940.273 376.569C940.477 376.384 940.794 376.399 940.979 376.603Z" fill="#2A3A51"/>
<path fill-rule="evenodd" clip-rule="evenodd" d="M929.609 357.961C929.886 357.961 930.109 358.185 930.109 358.461V418.781C930.109 419.057 929.886 419.281 929.609 419.281C929.333 419.281 929.109 419.057 929.109 418.781V358.461C929.109 358.185 929.333 357.961 929.609 357.961Z" fill="#2A3A51"/>
<path d="M436.818 418.78L883.578 418.78V280.78L436.818 280.78V418.78Z" fill="#F4F5F6"/>
<path fill-rule="evenodd" clip-rule="evenodd" d="M884.578 419.78L435.818 419.78V279.78L884.578 279.78V419.78ZM882.578 417.78V281.78L437.818 281.78V417.78L882.578 417.78Z" fill="#959DA8"/>
<path d="M688.5 309.29H731.35V402.38H688.5V309.29Z" fill="#D3DCE5"/>
<path d="M694.571 359.56H725.301V315.23H694.571V359.56Z" fill="white"/>
<path fill-rule="evenodd" clip-rule="evenodd" d="M725.801 360.06H694.071V314.73H725.801V360.06ZM724.801 359.06V315.73H695.071V359.06H724.801Z" fill="#959DA8"/>
<path d="M746.531 279.78H754.421V399.78H746.531V279.78Z" fill="#F4F5F6"/>
<path fill-rule="evenodd" clip-rule="evenodd" d="M745.531 278.78H755.421V400.78H745.531V278.78ZM747.531 280.78V398.78H753.421V280.78H747.531Z" fill="#959DA8"/>
<path d="M636.531 279.78H644.421V418.78H636.531V279.78Z" fill="#F4F5F6"/>
<path fill-rule="evenodd" clip-rule="evenodd" d="M635.531 278.78H645.421V419.78H635.531V278.78ZM637.531 280.78V417.78H643.421V280.78H637.531Z" fill="#959DA8"/>
<path d="M666.531 279.78H674.421V417.78H666.531V279.78Z" fill="#F4F5F6"/>
<path fill-rule="evenodd" clip-rule="evenodd" d="M665.531 278.78H675.421V418.78H665.531V278.78ZM667.531 280.78V416.78H673.421V280.78H667.531Z" fill="#959DA8"/>
<path d="M548.82 409.15H769.52V418.92H548.82V409.15Z" fill="#F4F5F6"/>
<path fill-rule="evenodd" clip-rule="evenodd" d="M547.82 408.15H770.52V419.92H547.82V408.15ZM549.82 410.15V417.92H768.52V410.15H549.82Z" fill="#959DA8"/>
<path d="M723.32 367.28C724.425 367.28 725.32 366.385 725.32 365.28C725.32 364.176 724.425 363.28 723.32 363.28C722.216 363.28 721.32 364.176 721.32 365.28C721.32 366.385 722.216 367.28 723.32 367.28Z" fill="white"/>
<path fill-rule="evenodd" clip-rule="evenodd" d="M723.32 363.78C722.492 363.78 721.82 364.452 721.82 365.28C721.82 366.109 722.492 366.78 723.32 366.78C724.149 366.78 724.82 366.109 724.82 365.28C724.82 364.452 724.149 363.78 723.32 363.78ZM720.82 365.28C720.82 363.9 721.94 362.78 723.32 362.78C724.701 362.78 725.82 363.9 725.82 365.28C725.82 366.661 724.701 367.78 723.32 367.78C721.94 367.78 720.82 366.661 720.82 365.28Z" fill="#959DA8"/>
<path d="M621.362 309.29H578.512V402.38H621.362V309.29Z" fill="#D3DCE5"/>
<path d="M615.289 315.23H584.559V359.56H615.289V315.23Z" fill="white"/>
<path fill-rule="evenodd" clip-rule="evenodd" d="M584.059 314.73H615.789V360.06H584.059V314.73ZM585.059 315.73V359.06H614.789V315.73H585.059Z" fill="#959DA8"/>
<path d="M586.539 367.28C587.644 367.28 588.539 366.385 588.539 365.28C588.539 364.176 587.644 363.28 586.539 363.28C585.434 363.28 584.539 364.176 584.539 365.28C584.539 366.385 585.434 367.28 586.539 367.28Z" fill="white"/>
<path fill-rule="evenodd" clip-rule="evenodd" d="M586.539 363.78C585.711 363.78 585.039 364.452 585.039 365.28C585.039 366.109 585.711 366.78 586.539 366.78C587.367 366.78 588.039 366.109 588.039 365.28C588.039 364.452 587.367 363.78 586.539 363.78ZM584.039 365.28C584.039 363.9 585.158 362.78 586.539 362.78C587.92 362.78 589.039 363.9 589.039 365.28C589.039 366.661 587.92 367.78 586.539 367.78C585.158 367.78 584.039 366.661 584.039 365.28Z" fill="#959DA8"/>
<path d="M548.82 399.4H769.52V409.17H548.82V399.4Z" fill="#F4F5F6"/>
<path fill-rule="evenodd" clip-rule="evenodd" d="M547.82 398.4H770.52V410.17H547.82V398.4ZM549.82 400.4V408.17H768.52V400.4H549.82Z" fill="#959DA8"/>
<path d="M436.82 121.78H883.58L871.58 22.7803H436.82V121.78Z" fill="#D3DCE5"/>
<path d="M770.079 21.3799L654.359 122.78H883.079" fill="#F4F5F6"/>
<path d="M872.171 122.55H667.781L678.711 112.8H860.051L872.171 122.55Z" fill="white"/>
<path fill-rule="evenodd" clip-rule="evenodd" d="M678.52 112.3H860.227L873.59 123.05H666.469L678.52 112.3ZM678.901 113.3L669.092 122.05H870.751L859.874 113.3H678.901Z" fill="#959DA8"/>
<path fill-rule="evenodd" clip-rule="evenodd" d="M769.471 20.6709L886.811 123.4H871.031V121.4H881.491L769.471 23.3289L657.412 121.4H667.871V123.4H652.09L769.471 20.6709Z" fill="#959DA8"/>
<path fill-rule="evenodd" clip-rule="evenodd" d="M769.45 33.6182L776.788 39.9822L777.088 40.2422L781.241 43.8465L781.248 43.8524L781.308 43.9023L790.138 51.5624L792.828 53.9023L795.908 56.5723L803.518 63.1723L804.358 63.9022L815.781 73.816L815.88 73.8958L824.338 81.2323L827.418 83.9021L828.908 85.1921L837.358 92.5224L837.359 92.5235L838.938 93.9023L849.318 102.902L849.319 102.903L850.259 103.723L853.908 106.882L860.538 112.632L871.358 122.022L870.703 122.778L859.883 113.388L853.253 107.638L849.603 104.478L848.663 103.658L848.662 103.657L843.253 98.9679L838.282 94.6567L836.702 93.2767L828.253 85.9481L826.763 84.6581L823.683 81.9879L815.24 74.6643L815.14 74.5842L803.703 64.6579L802.863 63.9278L795.253 57.3279L792.173 54.6579L789.483 52.3178L780.66 44.6637L780.653 44.6578L780.593 44.6078L776.433 40.998L776.133 40.738L769.45 34.942L766.908 37.1477L759.179 43.8471L759.178 43.8479L758.249 44.6571L751.068 50.8875L746.728 54.6576L745.908 55.3678L737.158 62.9578L735.198 64.6577L729.908 69.2477L715.408 81.8277L712.138 84.6579L708.908 87.4576L700.618 94.6576L693.978 100.418L690.238 103.658L683.914 109.149L683.904 109.156L678.728 113.648L668.198 122.778L667.543 122.022L678.073 112.892L683.05 108.572V108.522L683.307 108.352L689.583 102.903L693.323 99.6624L699.963 93.9026L708.253 86.7026L711.483 83.9023L714.753 81.0725L729.253 68.4924L734.543 63.9024L745.253 54.6124L746.073 53.9026L750.412 50.1326L757.592 43.9031L758.522 43.093L758.523 43.0922L766.253 36.3924L769.45 33.6182Z" fill="#959DA8"/>
<path d="M881.819 265.67L847.879 237.78H709.379L664.879 265.28L881.819 265.67Z" fill="#D3DCE5"/>
<path d="M750.222 94.8604H787.012V62.3504L750.222 62.3504V94.8604Z" fill="#F4F5F6"/>
<path fill-rule="evenodd" clip-rule="evenodd" d="M787.512 95.3604H749.722V61.8504L787.512 61.8504V95.3604ZM786.512 94.3604V62.8504L750.722 62.8504V94.3604H786.512Z" fill="#959DA8"/>
<path d="M756.642 68.4697H780.822V88.9097H756.602L756.642 68.4697Z" fill="white"/>
<path fill-rule="evenodd" clip-rule="evenodd" d="M756.14 67.9697H781.319V89.4097H756.098L756.14 67.9697ZM757.138 68.9697L757.1 88.4097H780.319V68.9697H757.138Z" fill="#959DA8"/>
<path d="M655.76 280.67L609.82 252.78H481.32L436.82 280.28L655.76 280.67Z" fill="#D3DCE5"/>
<path d="M664.82 266.78V255.29L710.82 237.78L757.54 256.29L757.82 266.78H711.82H664.82Z" fill="#F4F5F6"/>
<path d="M763.32 385.28H806.32V309.28H763.32V385.28Z" fill="white"/>
<path fill-rule="evenodd" clip-rule="evenodd" d="M806.82 385.78H762.82V308.78H806.82V385.78ZM805.82 384.78V309.78H763.82V384.78H805.82Z" fill="#959DA8"/>
<path d="M806.32 385.28H849.32V309.28H806.32V385.28Z" fill="white"/>
<path fill-rule="evenodd" clip-rule="evenodd" d="M849.82 385.78H805.82V308.78H849.82V385.78ZM848.82 384.78V309.78H806.82V384.78H848.82Z" fill="#959DA8"/>
<path fill-rule="evenodd" clip-rule="evenodd" d="M763.82 333.28H849.32V334.28H763.82V333.28Z" fill="#959DA8"/>
<path fill-rule="evenodd" clip-rule="evenodd" d="M792.32 333.78V309.28H793.32V333.78H792.32Z" fill="#959DA8"/>
<path fill-rule="evenodd" clip-rule="evenodd" d="M778.32 333.78V309.28H779.32V333.78H778.32Z" fill="#959DA8"/>
<path fill-rule="evenodd" clip-rule="evenodd" d="M834.32 333.78V309.28H835.32V333.78H834.32Z" fill="#959DA8"/>
<path fill-rule="evenodd" clip-rule="evenodd" d="M820.32 333.78V309.28H821.32V333.78H820.32Z" fill="#959DA8"/>
<path d="M462.32 385.28H505.32V309.28H462.32V385.28Z" fill="white"/>
<path fill-rule="evenodd" clip-rule="evenodd" d="M505.82 385.78H461.82V308.78H505.82V385.78ZM504.82 384.78V309.78H462.82V384.78H504.82Z" fill="#959DA8"/>
<path d="M505.32 385.28H548.32V309.28H505.32V385.28Z" fill="white"/>
<path fill-rule="evenodd" clip-rule="evenodd" d="M548.82 385.78H504.82V308.78H548.82V385.78ZM547.82 384.78V309.78H505.82V384.78H547.82Z" fill="#959DA8"/>
<path fill-rule="evenodd" clip-rule="evenodd" d="M462.82 333.28H548.32V334.28H462.82V333.28Z" fill="#959DA8"/>
<path fill-rule="evenodd" clip-rule="evenodd" d="M491.32 333.78V309.28H492.32V333.78H491.32Z" fill="#959DA8"/>
<path fill-rule="evenodd" clip-rule="evenodd" d="M477.32 333.78V309.28H478.32V333.78H477.32Z" fill="#959DA8"/>
<path fill-rule="evenodd" clip-rule="evenodd" d="M533.32 333.78V309.28H534.32V333.78H533.32Z" fill="#959DA8"/>
<path fill-rule="evenodd" clip-rule="evenodd" d="M519.32 333.78V309.28H520.32V333.78H519.32Z" fill="#959DA8"/>
<path fill-rule="evenodd" clip-rule="evenodd" d="M654.32 400.78V123.78H656.32V400.78H654.32Z" fill="#959DA8"/>
<path d="M541.079 2.37988L465.359 58.7799H616.079" fill="#F4F5F6"/>
<path fill-rule="evenodd" clip-rule="evenodd" d="M540.471 0.75293L619.166 59.4H600.031V57.4H613.136L540.471 3.247L467.768 57.4H481.871V59.4H461.734L540.471 0.75293Z" fill="#959DA8"/>
<path fill-rule="evenodd" clip-rule="evenodd" d="M587.321 49.2998H493.711V48.2998H587.321V49.2998Z" fill="#959DA8"/>
<path fill-rule="evenodd" clip-rule="evenodd" d="M540.316 15.6709L601.602 57.8678L601.034 58.6914L540.32 16.8883L480.605 58.6892L480.031 57.87L540.316 15.6709Z" fill="#959DA8"/>
<path d="M481.32 107.28L600.32 107.28V58.2803L481.32 58.2803V107.28Z" fill="#F4F5F6"/>
<path fill-rule="evenodd" clip-rule="evenodd" d="M601.32 108.28L480.32 108.28V57.2803L601.32 57.2803V108.28ZM599.32 106.28V59.2803L482.32 59.2803V106.28L599.32 106.28Z" fill="#959DA8"/>
<path d="M551.222 98.8604H588.012V66.3504H551.222V98.8604Z" fill="#F4F5F6"/>
<path fill-rule="evenodd" clip-rule="evenodd" d="M588.512 99.3604H550.722V65.8504H588.512V99.3604ZM587.512 98.3604V66.8504H551.722V98.3604H587.512Z" fill="#959DA8"/>
<path d="M557.641 72.4697H581.822V92.9097H557.602L557.641 72.4697Z" fill="white"/>
<path fill-rule="evenodd" clip-rule="evenodd" d="M557.14 71.9697H582.319V93.4097H557.098L557.14 71.9697ZM558.138 72.9697L558.1 92.4097H581.319V72.9697H558.138Z" fill="#959DA8"/>
<path d="M493.222 98.8604H530.012V66.3504H493.222V98.8604Z" fill="#F4F5F6"/>
<path fill-rule="evenodd" clip-rule="evenodd" d="M530.512 99.3604H492.722V65.8504H530.512V99.3604ZM529.512 98.3604V66.8504H493.722V98.3604H529.512Z" fill="#959DA8"/>
<path d="M499.641 72.4697H523.822V92.9097H499.602L499.641 72.4697Z" fill="white"/>
<path fill-rule="evenodd" clip-rule="evenodd" d="M499.14 71.9697H524.319V93.4097H499.098L499.14 71.9697ZM500.138 72.9697L500.1 92.4097H523.319V72.9697H500.138Z" fill="#959DA8"/>
<path d="M462.32 59.2803L618.32 59.2803V49.2803L462.32 49.2803V59.2803Z" fill="#F4F5F6"/>
<path fill-rule="evenodd" clip-rule="evenodd" d="M618.914 59.875L461.724 59.875V48.685L618.914 48.685V59.875ZM617.724 58.685V49.875L462.914 49.875V58.685L617.724 58.685Z" fill="#959DA8"/>
<path d="M652.32 123.28L886.32 123.28V113.28L652.32 113.28V123.28Z" fill="#F4F5F6"/>
<path fill-rule="evenodd" clip-rule="evenodd" d="M887.051 124.01L651.591 124.01V112.55L887.051 112.55V124.01ZM885.591 122.55V114.01L653.051 114.01V122.55L885.591 122.55Z" fill="#959DA8"/>
<path fill-rule="evenodd" clip-rule="evenodd" d="M710.828 237.707L758.54 256.61V266.78H756.54V257.969L710.813 239.853L665.82 256.979V266.78H663.82V255.6L710.828 237.707Z" fill="#959DA8"/>
<path fill-rule="evenodd" clip-rule="evenodd" d="M710.822 248.247L757.495 265.812L757.143 266.748L710.816 249.313L665.489 265.75L665.148 264.81L710.822 248.247Z" fill="#959DA8"/>
<path d="M436.819 280.78H-9.94141V418.78H436.819V280.78Z" fill="#F4F5F6"/>
<path fill-rule="evenodd" clip-rule="evenodd" d="M-10.6562 280.065H437.534V419.495H-10.6562V280.065ZM-9.22625 281.495V418.065H436.104V281.495H-9.22625Z" fill="#959DA8"/>
<path d="M436.819 122.28H-9.94141V280.78H436.819V122.28Z" fill="#F4F5F6"/>
<path fill-rule="evenodd" clip-rule="evenodd" d="M-10.9414 121.28H437.819V281.78H-10.9414V121.28ZM-8.94141 123.28V279.78H435.819V123.28H-8.94141Z" fill="#959DA8"/>
<path d="M436.819 121.78H-9.94141L2.05859 22.7803H444.819L436.819 121.78Z" fill="#D3DCE5"/>
<path d="M185.139 309.29H142.289V402.38H185.139V309.29Z" fill="#D3DCE5"/>
<path d="M179.07 315.23H148.34V359.56H179.07V315.23Z" fill="white"/>
<path fill-rule="evenodd" clip-rule="evenodd" d="M147.84 314.73H179.57V360.06H147.84V314.73ZM148.84 315.73V359.06H178.57V315.73H148.84Z" fill="#959DA8"/>
<path d="M127.109 279.78H119.219V399.78H127.109V279.78Z" fill="#F4F5F6"/>
<path fill-rule="evenodd" clip-rule="evenodd" d="M118.219 278.78H128.109V400.78H118.219V278.78ZM120.219 280.78V398.78H126.109V280.78H120.219Z" fill="#959DA8"/>
<path d="M207.109 279.78H199.219V417.78H207.109V279.78Z" fill="#F4F5F6"/>
<path fill-rule="evenodd" clip-rule="evenodd" d="M198.219 278.78H208.109V418.78H198.219V278.78ZM200.219 280.78V416.78H206.109V280.78H200.219Z" fill="#959DA8"/>
<path d="M236.109 279.78H228.219V417.78H236.109V279.78Z" fill="#F4F5F6"/>
<path fill-rule="evenodd" clip-rule="evenodd" d="M227.219 278.78H237.109V418.78H227.219V278.78ZM229.219 280.78V416.78H235.109V280.78H229.219Z" fill="#959DA8"/>
<path d="M324.821 409.15H104.121V418.92H324.821V409.15Z" fill="#F4F5F6"/>
<path fill-rule="evenodd" clip-rule="evenodd" d="M103.121 408.15H325.821V419.92H103.121V408.15ZM105.121 410.15V417.92H323.821V410.15H105.121Z" fill="#959DA8"/>
<path d="M150.32 367.28C151.425 367.28 152.32 366.385 152.32 365.28C152.32 364.176 151.425 363.28 150.32 363.28C149.216 363.28 148.32 364.176 148.32 365.28C148.32 366.385 149.216 367.28 150.32 367.28Z" fill="white"/>
<path fill-rule="evenodd" clip-rule="evenodd" d="M150.32 363.78C149.492 363.78 148.82 364.452 148.82 365.28C148.82 366.109 149.492 366.78 150.32 366.78C151.149 366.78 151.82 366.109 151.82 365.28C151.82 364.452 151.149 363.78 150.32 363.78ZM147.82 365.28C147.82 363.9 148.94 362.78 150.32 362.78C151.701 362.78 152.82 363.9 152.82 365.28C152.82 366.661 151.701 367.78 150.32 367.78C148.94 367.78 147.82 366.661 147.82 365.28Z" fill="#959DA8"/>
<path d="M252.281 309.29H295.131V402.38H252.281V309.29Z" fill="#D3DCE5"/>
<path d="M258.348 359.56H289.078V315.23H258.348V359.56Z" fill="white"/>
<path fill-rule="evenodd" clip-rule="evenodd" d="M289.578 360.06H257.848V314.73H289.578V360.06ZM288.578 359.06V315.73H258.848V359.06H288.578Z" fill="#959DA8"/>
<path d="M287.102 367.28C288.206 367.28 289.102 366.385 289.102 365.28C289.102 364.176 288.206 363.28 287.102 363.28C285.997 363.28 285.102 364.176 285.102 365.28C285.102 366.385 285.997 367.28 287.102 367.28Z" fill="white"/>
<path fill-rule="evenodd" clip-rule="evenodd" d="M287.102 363.78C286.273 363.78 285.602 364.452 285.602 365.28C285.602 366.109 286.273 366.78 287.102 366.78C287.93 366.78 288.602 366.109 288.602 365.28C288.602 364.452 287.93 363.78 287.102 363.78ZM284.602 365.28C284.602 363.9 285.721 362.78 287.102 362.78C288.482 362.78 289.602 363.9 289.602 365.28C289.602 366.661 288.482 367.78 287.102 367.78C285.721 367.78 284.602 366.661 284.602 365.28Z" fill="#959DA8"/>
<path d="M324.821 399.4H104.121V409.17H324.821V399.4Z" fill="#F4F5F6"/>
<path fill-rule="evenodd" clip-rule="evenodd" d="M103.121 398.4H325.821V410.17H103.121V398.4ZM105.121 400.4V408.17H323.821V400.4H105.121Z" fill="#959DA8"/>
<path d="M103.559 21.3799L219.279 122.78H-9.44141" fill="#F4F5F6"/>
<path d="M1.46875 122.55H205.859L194.929 112.8H13.5887L1.46875 122.55Z" fill="white"/>
<path fill-rule="evenodd" clip-rule="evenodd" d="M13.4139 112.3H195.121L207.172 123.05H0.0507812L13.4139 112.3ZM13.7662 113.3L2.88924 122.05H204.548L194.739 113.3H13.7662Z" fill="#959DA8"/>
<path fill-rule="evenodd" clip-rule="evenodd" d="M104.168 20.6709L221.549 123.4H205.768V121.4H216.227L104.169 23.3289L-7.85118 121.4H2.60847V123.4H-13.1719L104.168 20.6709Z" fill="#959DA8"/>
<path fill-rule="evenodd" clip-rule="evenodd" d="M104.189 33.6182L107.386 36.3923L115.117 43.093L116.047 43.9024L123.227 50.1324L127.566 53.9021L128.386 54.6121L139.096 63.9024L144.386 68.4923L150.626 73.9023L158.886 81.072L162.156 83.902L165.386 86.7023L173.677 93.9024L180.316 99.6622L184.056 102.902L190.333 108.352L190.589 108.522V108.572L195.567 112.892L206.096 122.022L205.441 122.778L194.911 113.648L189.736 109.156L189.725 109.149L183.402 103.658L179.662 100.418L173.021 94.6578L164.731 87.4579L161.502 84.6582L158.232 81.8282L143.731 69.2479L136.481 62.9578L127.732 55.3681L126.912 54.6581L122.571 50.8877L115.391 44.6577L114.461 43.8479L106.731 37.1479L104.189 34.942L97.5065 40.7378L97.2067 40.9977L93.0389 44.6144L92.9865 44.6578L92.9788 44.6643L84.1571 52.3173L81.467 54.6573L78.3865 57.3278L70.7769 63.9275L69.937 64.6575L64.3869 69.4675L58.4992 74.5841L58.3991 74.6642L49.9566 81.9878L46.8764 84.6579L45.3866 85.9478L36.9379 93.2767L36.9366 93.2778L35.3578 94.6567L35.3565 94.6578L30.3865 98.9678L24.9776 103.657L24.9764 103.658L24.0376 104.477L20.3865 107.638L2.93669 122.778L2.28125 122.022L19.7313 106.882L23.3817 103.722L24.3202 102.903L24.3214 102.902L29.7313 98.2123L34.7 93.9035L34.7013 93.9023L36.2801 92.5235L36.2813 92.5224L44.7313 85.1924L46.2214 83.9023L49.3013 81.2324L57.7588 73.8959L57.8586 73.816L63.7309 68.7127L69.281 63.9027L70.1209 63.1727L77.7313 56.5723L80.8107 53.9028L83.5008 51.5628L92.3389 43.8957L92.3913 43.8524L92.399 43.8458L96.5513 40.2424L96.8513 39.9824L104.189 33.6182Z" fill="#959DA8"/>
<path d="M123.431 62.3398H86.6406V94.8498H123.431V62.3398Z" fill="#F4F5F6"/>
<path fill-rule="evenodd" clip-rule="evenodd" d="M86.1406 61.8398H123.931V95.3498H86.1406V61.8398ZM87.1406 62.8398V94.3498H122.931V62.8398H87.1406Z" fill="#959DA8"/>
<path d="M117 68.4697H92.8203V88.9097H117.04L117 68.4697Z" fill="white"/>
<path fill-rule="evenodd" clip-rule="evenodd" d="M92.3203 67.9697H117.499L117.541 89.4097H92.3203V67.9697ZM93.3203 68.9697V88.4097H116.539L116.501 68.9697H93.3203Z" fill="#959DA8"/>
<path d="M-10.1211 265.67L23.8188 237.78H162.319L206.819 265.28L-10.1211 265.67Z" fill="#D3DCE5"/>
<path d="M215.879 266.67L263.819 238.78H392.319L434.819 266.28L215.879 266.67Z" fill="#D3DCE5"/>
<path d="M208.82 266.78V255.29L162.82 237.78L116.1 256.29L115.82 266.78H161.82H208.82Z" fill="#F4F5F6"/>
<path d="M577.32 230.28H620.32V154.28H577.32V230.28Z" fill="white"/>
<path fill-rule="evenodd" clip-rule="evenodd" d="M620.82 230.78H576.82V153.78H620.82V230.78ZM619.82 229.78V154.78H577.82V229.78H619.82Z" fill="#959DA8"/>
<path fill-rule="evenodd" clip-rule="evenodd" d="M576.82 178.28H620.32V179.28H576.82V178.28Z" fill="#959DA8"/>
<path fill-rule="evenodd" clip-rule="evenodd" d="M605.32 178.78V154.28H606.32V178.78H605.32Z" fill="#959DA8"/>
<path fill-rule="evenodd" clip-rule="evenodd" d="M591.32 178.78V154.28H592.32V178.78H591.32Z" fill="#959DA8"/>
<path d="M462.32 230.28H505.32V154.28H462.32V230.28Z" fill="white"/>
<path fill-rule="evenodd" clip-rule="evenodd" d="M505.82 230.78H461.82V153.78H505.82V230.78ZM504.82 229.78V154.78H462.82V229.78H504.82Z" fill="#959DA8"/>
<path fill-rule="evenodd" clip-rule="evenodd" d="M462.82 178.28H505.32V179.28H462.82V178.28Z" fill="#959DA8"/>
<path fill-rule="evenodd" clip-rule="evenodd" d="M490.32 178.78V154.28H491.32V178.78H490.32Z" fill="#959DA8"/>
<path fill-rule="evenodd" clip-rule="evenodd" d="M476.32 178.78V154.28H477.32V178.78H476.32Z" fill="#959DA8"/>
<path d="M804.32 230.28H847.32V154.28H804.32V230.28Z" fill="white"/>
<path fill-rule="evenodd" clip-rule="evenodd" d="M847.82 230.78H803.82V153.78H847.82V230.78ZM846.82 229.78V154.78H804.82V229.78H846.82Z" fill="#959DA8"/>
<path fill-rule="evenodd" clip-rule="evenodd" d="M803.82 178.28H847.32V179.28H803.82V178.28Z" fill="#959DA8"/>
<path fill-rule="evenodd" clip-rule="evenodd" d="M832.32 178.78V154.28H833.32V178.78H832.32Z" fill="#959DA8"/>
<path fill-rule="evenodd" clip-rule="evenodd" d="M818.32 178.78V154.28H819.32V178.78H818.32Z" fill="#959DA8"/>
<path d="M689.32 230.28H732.32V154.28H689.32V230.28Z" fill="white"/>
<path fill-rule="evenodd" clip-rule="evenodd" d="M732.82 230.78H688.82V153.78H732.82V230.78ZM731.82 229.78V154.78H689.82V229.78H731.82Z" fill="#959DA8"/>
<path fill-rule="evenodd" clip-rule="evenodd" d="M689.82 178.28H732.32V179.28H689.82V178.28Z" fill="#959DA8"/>
<path fill-rule="evenodd" clip-rule="evenodd" d="M717.32 178.78V154.28H718.32V178.78H717.32Z" fill="#959DA8"/>
<path fill-rule="evenodd" clip-rule="evenodd" d="M703.32 178.78V154.28H704.32V178.78H703.32Z" fill="#959DA8"/>
<path d="M296.32 154.28H253.32V230.28H296.32V154.28Z" fill="white"/>
<path fill-rule="evenodd" clip-rule="evenodd" d="M252.82 153.78H296.82V230.78H252.82V153.78ZM253.82 154.78V229.78H295.82V154.78H253.82Z" fill="#959DA8"/>
<path fill-rule="evenodd" clip-rule="evenodd" d="M296.82 179.28H253.32V178.28H296.82V179.28Z" fill="#959DA8"/>
<path fill-rule="evenodd" clip-rule="evenodd" d="M267.32 178.78V154.28H268.32V178.78H267.32Z" fill="#959DA8"/>
<path fill-rule="evenodd" clip-rule="evenodd" d="M281.32 178.78V154.28H282.32V178.78H281.32Z" fill="#959DA8"/>
<path d="M411.32 154.28H368.32V230.28H411.32V154.28Z" fill="white"/>
<path fill-rule="evenodd" clip-rule="evenodd" d="M367.82 153.78H411.82V230.78H367.82V153.78ZM368.82 154.78V229.78H410.82V154.78H368.82Z" fill="#959DA8"/>
<path fill-rule="evenodd" clip-rule="evenodd" d="M410.82 179.28H368.32V178.28H410.82V179.28Z" fill="#959DA8"/>
<path fill-rule="evenodd" clip-rule="evenodd" d="M382.32 178.78V154.28H383.32V178.78H382.32Z" fill="#959DA8"/>
<path fill-rule="evenodd" clip-rule="evenodd" d="M396.32 178.78V154.28H397.32V178.78H396.32Z" fill="#959DA8"/>
<path d="M69.3203 154.28H26.3203V230.28H69.3203V154.28Z" fill="white"/>
<path fill-rule="evenodd" clip-rule="evenodd" d="M25.8203 153.78H69.8203V230.78H25.8203V153.78ZM26.8203 154.78V229.78H68.8203V154.78H26.8203Z" fill="#959DA8"/>
<path fill-rule="evenodd" clip-rule="evenodd" d="M69.8203 179.28H26.3203V178.28H69.8203V179.28Z" fill="#959DA8"/>
<path fill-rule="evenodd" clip-rule="evenodd" d="M40.3203 178.78V154.28H41.3203V178.78H40.3203Z" fill="#959DA8"/>
<path fill-rule="evenodd" clip-rule="evenodd" d="M54.3203 178.78V154.28H55.3203V178.78H54.3203Z" fill="#959DA8"/>
<path d="M184.32 154.28H141.32V230.28H184.32V154.28Z" fill="white"/>
<path fill-rule="evenodd" clip-rule="evenodd" d="M140.82 153.78H184.82V230.78H140.82V153.78ZM141.82 154.78V229.78H183.82V154.78H141.82Z" fill="#959DA8"/>
<path fill-rule="evenodd" clip-rule="evenodd" d="M183.82 179.28H141.32V178.28H183.82V179.28Z" fill="#959DA8"/>
<path fill-rule="evenodd" clip-rule="evenodd" d="M155.32 178.78V154.28H156.32V178.78H155.32Z" fill="#959DA8"/>
<path fill-rule="evenodd" clip-rule="evenodd" d="M169.32 178.78V154.28H170.32V178.78H169.32Z" fill="#959DA8"/>
<path d="M110.32 309.28H67.3203V385.28H110.32V309.28Z" fill="white"/>
<path fill-rule="evenodd" clip-rule="evenodd" d="M66.8203 308.78H110.82V385.78H66.8203V308.78ZM67.8203 309.78V384.78H109.82V309.78H67.8203Z" fill="#959DA8"/>
<path d="M67.3203 309.28H24.3203V385.28H67.3203V309.28Z" fill="white"/>
<path fill-rule="evenodd" clip-rule="evenodd" d="M23.8203 308.78H67.8203V385.78H23.8203V308.78ZM24.8203 309.78V384.78H66.8203V309.78H24.8203Z" fill="#959DA8"/>
<path fill-rule="evenodd" clip-rule="evenodd" d="M109.82 334.28H24.3203V333.28H109.82V334.28Z" fill="#959DA8"/>
<path fill-rule="evenodd" clip-rule="evenodd" d="M80.3203 333.78V309.28H81.3203V333.78H80.3203Z" fill="#959DA8"/>
<path fill-rule="evenodd" clip-rule="evenodd" d="M94.3203 333.78V309.28H95.3203V333.78H94.3203Z" fill="#959DA8"/>
<path fill-rule="evenodd" clip-rule="evenodd" d="M38.3203 333.78V309.28H39.3203V333.78H38.3203Z" fill="#959DA8"/>
<path fill-rule="evenodd" clip-rule="evenodd" d="M52.3203 333.78V309.28H53.3203V333.78H52.3203Z" fill="#959DA8"/>
<path d="M411.32 309.28H368.32V385.28H411.32V309.28Z" fill="white"/>
<path fill-rule="evenodd" clip-rule="evenodd" d="M367.82 308.78H411.82V385.78H367.82V308.78ZM368.82 309.78V384.78H410.82V309.78H368.82Z" fill="#959DA8"/>
<path d="M368.32 309.28H325.32V385.28H368.32V309.28Z" fill="white"/>
<path fill-rule="evenodd" clip-rule="evenodd" d="M324.82 308.78H368.82V385.78H324.82V308.78ZM325.82 309.78V384.78H367.82V309.78H325.82Z" fill="#959DA8"/>
<path fill-rule="evenodd" clip-rule="evenodd" d="M410.82 334.28H325.32V333.28H410.82V334.28Z" fill="#959DA8"/>
<path fill-rule="evenodd" clip-rule="evenodd" d="M381.32 333.78V309.28H382.32V333.78H381.32Z" fill="#959DA8"/>
<path fill-rule="evenodd" clip-rule="evenodd" d="M395.32 333.78V309.28H396.32V333.78H395.32Z" fill="#959DA8"/>
<path fill-rule="evenodd" clip-rule="evenodd" d="M339.32 333.78V309.28H340.32V333.78H339.32Z" fill="#959DA8"/>
<path fill-rule="evenodd" clip-rule="evenodd" d="M353.32 333.78V309.28H354.32V333.78H353.32Z" fill="#959DA8"/>
<path fill-rule="evenodd" clip-rule="evenodd" d="M217.32 400.78V123.78H219.32V400.78H217.32Z" fill="#959DA8"/>
<path d="M332.559 2.37988L408.279 58.7799H257.559" fill="#F4F5F6"/>
<path fill-rule="evenodd" clip-rule="evenodd" d="M333.172 0.75293L411.908 59.4H391.772V57.4H405.875L333.172 3.247L260.507 57.4H273.612V59.4H254.477L333.172 0.75293Z" fill="#959DA8"/>
<path fill-rule="evenodd" clip-rule="evenodd" d="M286.32 48.2998H379.93V49.2998H286.32V48.2998Z" fill="#959DA8"/>
<path fill-rule="evenodd" clip-rule="evenodd" d="M333.321 15.6709L393.605 57.87L393.032 58.6892L333.316 16.8883L272.602 58.6914L272.035 57.8678L333.321 15.6709Z" fill="#959DA8"/>
<path d="M392.32 58.2803H273.32V107.28H392.32V58.2803Z" fill="#F4F5F6"/>
<path fill-rule="evenodd" clip-rule="evenodd" d="M272.32 57.2803H393.32V108.28H272.32V57.2803ZM274.32 59.2803V106.28H391.32V59.2803H274.32Z" fill="#959DA8"/>
<path d="M322.431 66.3398H285.641V98.8498H322.431V66.3398Z" fill="#F4F5F6"/>
<path fill-rule="evenodd" clip-rule="evenodd" d="M285.141 65.8398H322.931V99.3498H285.141V65.8398ZM286.141 66.8398V98.3498H321.931V66.8398H286.141Z" fill="#959DA8"/>
<path d="M316 72.4697H291.82V92.9097H316.04L316 72.4697Z" fill="white"/>
<path fill-rule="evenodd" clip-rule="evenodd" d="M291.32 71.9697H316.499L316.541 93.4097H291.32V71.9697ZM292.32 72.9697V92.4097H315.539L315.501 72.9697H292.32Z" fill="#959DA8"/>
<path d="M380.431 66.3398H343.641V98.8498H380.431V66.3398Z" fill="#F4F5F6"/>
<path fill-rule="evenodd" clip-rule="evenodd" d="M343.141 65.8398H380.931V99.3498H343.141V65.8398ZM344.141 66.8398V98.3498H379.931V66.8398H344.141Z" fill="#959DA8"/>
<path d="M374 72.4697H349.82V92.9097H374.04L374 72.4697Z" fill="white"/>
<path fill-rule="evenodd" clip-rule="evenodd" d="M349.32 71.9697H374.499L374.541 93.4097H349.32V71.9697ZM350.32 72.9697V92.4097H373.539L373.501 72.9697H350.32Z" fill="#959DA8"/>
<path d="M349.879 266.67L383.819 238.78H606.319L650.819 266.28L349.879 266.67Z" fill="#D3DCE5"/>
<path d="M883.82 265.78H-11.1797V280.78H883.82V265.78Z" fill="#F4F5F6"/>
<path fill-rule="evenodd" clip-rule="evenodd" d="M-12.1797 264.78H884.82V281.78H-12.1797V264.78ZM-10.1797 266.78V279.78H882.82V266.78H-10.1797Z" fill="#959DA8"/>
<path d="M442.818 387.78C443.191 387.782 443.564 387.742 443.928 387.66C460.828 383.81 460.828 363.35 460.828 363.35C460.828 335.46 442.828 321.48 442.828 321.48C442.828 321.48 424.828 335.48 424.828 363.35C424.828 363.35 424.828 383.84 441.718 387.66C442.083 387.742 442.455 387.782 442.828 387.78H442.818Z" fill="#80C33F"/>
<path fill-rule="evenodd" clip-rule="evenodd" d="M442.82 348.49C443.096 348.49 443.32 348.714 443.32 348.99V418.6C443.32 418.876 443.096 419.1 442.82 419.1C442.544 419.1 442.32 418.876 442.32 418.6V348.99C442.32 348.714 442.544 348.49 442.82 348.49Z" fill="#2A3A51"/>
<path d="M221.32 113.28H-12.6797V123.28H221.32V113.28Z" fill="#F4F5F6"/>
<path fill-rule="evenodd" clip-rule="evenodd" d="M-13.4102 112.55H222.05V124.01H-13.4102V112.55ZM-11.9502 114.01V122.55H220.59V114.01H-11.9502Z" fill="#959DA8"/>
<path d="M411.32 49.2803H255.32V59.2803H411.32V49.2803Z" fill="#F4F5F6"/>
<path fill-rule="evenodd" clip-rule="evenodd" d="M254.727 48.6846H411.917V59.8746H254.727V48.6846ZM255.917 49.8746V58.6846H410.727V49.8746H255.917Z" fill="#959DA8"/>
<path fill-rule="evenodd" clip-rule="evenodd" d="M162.814 237.707L209.822 255.6V266.78H207.822V256.979L162.829 239.853L117.102 257.969V266.78H115.102V256.61L162.814 237.707Z" fill="#959DA8"/>
<path fill-rule="evenodd" clip-rule="evenodd" d="M162.822 248.245L208.999 265.822L208.643 266.757L162.82 249.314L116.497 266.748L116.145 265.812L162.822 248.245Z" fill="#959DA8"/>
<path d="M300.82 415.08C300.811 412.854 301.338 410.659 302.357 408.68C303.376 406.701 304.856 404.997 306.672 403.711C308.489 402.425 310.589 401.595 312.794 401.292C314.999 400.989 317.244 401.222 319.34 401.97C320.151 398.708 321.791 395.711 324.103 393.271C326.415 390.831 329.319 389.032 332.533 388.047C335.746 387.062 339.16 386.926 342.442 387.652C345.724 388.379 348.762 389.942 351.26 392.19C353.025 387.255 356.475 383.101 361.002 380.46C365.528 377.818 370.842 376.859 376.007 377.75C381.171 378.642 385.856 381.327 389.235 385.333C392.615 389.339 394.472 394.409 394.48 399.65C394.483 400.425 394.443 401.2 394.36 401.97C395.866 401.42 397.457 401.139 399.06 401.14C406.76 401.14 413.46 407.39 412.97 415.05C412.9 416.313 412.689 417.564 412.34 418.78H301.34C301.005 417.565 300.837 416.31 300.84 415.05L300.82 415.08Z" fill="#80C33F"/>
<path d="M1018.89 383.957C1019.32 383.96 1019.75 383.915 1020.17 383.823C1039.78 379.361 1039.79 355.605 1039.79 355.605C1039.79 323.23 1018.9 307 1018.9 307C1018.9 307 997.992 323.192 997.992 355.605C997.992 355.605 997.992 379.39 1017.6 383.823C1018.02 383.915 1018.45 383.96 1018.89 383.957Z" fill="#80C33F"/>
<path d="M1018.89 338.943V419.75" stroke="#2A3A51" stroke-width="0.957537" stroke-linecap="round" stroke-linejoin="round"/>
<path d="M1117.33 326.15V402.303" stroke="#959DA8" stroke-width="1.91507" stroke-miterlimit="10"/>
<path d="M1132.95 349.581H1101.7L1111.47 326.15H1123.18L1132.95 349.581Z" fill="#D3DCE5"/>
<path d="M1115.25 326.15L1109.75 349.581" stroke="#959DA8" stroke-width="0.957537" stroke-miterlimit="10"/>
<path d="M1119.52 326.15L1125.02 349.581" stroke="#959DA8" stroke-width="0.957537" stroke-miterlimit="10"/>
<path d="M1077.2 360.038L1075.59 359.741C1074.35 361.471 1073.83 363.609 1074.12 365.716C1074.18 366.15 1074.41 366.542 1074.75 366.813C1075.1 367.084 1075.53 367.213 1075.97 367.174C1076.4 367.135 1076.81 366.93 1077.1 366.602C1077.39 366.274 1077.54 365.847 1077.53 365.41C1077.58 363.613 1077.47 361.815 1077.2 360.038Z" fill="white" stroke="#959DA8" stroke-width="0.957537" stroke-miterlimit="10"/>
<path d="M1081.93 357.07L1082.36 355.49C1084.46 355.126 1086.62 355.578 1088.39 356.754C1088.75 357 1089 357.374 1089.1 357.801C1089.19 358.228 1089.12 358.675 1088.9 359.051C1088.67 359.427 1088.32 359.703 1087.89 359.822C1087.47 359.942 1087.02 359.896 1086.64 359.694C1084.99 358.964 1083.42 358.085 1081.93 357.07Z" fill="white" stroke="#959DA8" stroke-width="0.957537" stroke-miterlimit="10"/>
<path d="M1086.76 360.488C1087.38 361.604 1087.56 362.918 1087.24 364.159C1086.93 365.4 1086.15 366.472 1085.06 367.153C1083.98 367.835 1082.67 368.073 1081.42 367.82C1080.16 367.567 1079.05 366.841 1078.32 365.792C1076.94 363.59 1076.34 358.448 1078.67 356.983C1080.99 355.518 1085.38 358.285 1086.76 360.488Z" fill="white" stroke="#959DA8" stroke-width="0.957537" stroke-miterlimit="10"/>
<path d="M1073.53 356.253C1074.45 355.676 1074.73 354.464 1074.15 353.546C1073.57 352.629 1072.36 352.352 1071.44 352.929C1070.53 353.506 1070.25 354.718 1070.83 355.636C1071.4 356.553 1072.61 356.83 1073.53 356.253Z" fill="white" stroke="#959DA8" stroke-width="0.957537" stroke-miterlimit="10"/>
<path d="M1081.69 352.275C1082.61 351.701 1082.89 350.488 1082.32 349.566C1081.74 348.645 1080.53 348.364 1079.61 348.938C1078.69 349.513 1078.41 350.726 1078.98 351.647C1079.56 352.569 1080.77 352.85 1081.69 352.275Z" fill="white" stroke="#959DA8" stroke-width="0.959163" stroke-miterlimit="10"/>
<path d="M1080.18 359.377C1082.51 357.914 1083.28 354.945 1081.9 352.747C1080.52 350.548 1077.51 349.952 1075.18 351.416C1072.85 352.879 1072.08 355.848 1073.47 358.046C1074.85 360.244 1077.86 360.84 1080.18 359.377Z" fill="white" stroke="#959DA8" stroke-width="0.957537" stroke-miterlimit="10"/>
<path d="M1083.17 369.603C1083.51 368.43 1082.69 367.158 1081.33 366.761C1079.97 366.364 1078.59 366.993 1078.24 368.166C1077.9 369.338 1078.73 370.611 1080.09 371.008C1081.45 371.404 1082.83 370.775 1083.17 369.603Z" fill="white" stroke="#959DA8" stroke-width="0.976688" stroke-miterlimit="10"/>
<path d="M1090.2 364.605C1090.44 363.207 1089.65 361.911 1088.44 361.711C1087.24 361.51 1086.07 362.481 1085.84 363.879C1085.61 365.277 1086.39 366.573 1087.6 366.773C1088.8 366.974 1089.97 366.003 1090.2 364.605Z" fill="white" stroke="#959DA8" stroke-width="0.957537" stroke-miterlimit="10"/>
<path d="M1080.19 359.366C1081.32 358.651 1081.85 357.447 1081.37 356.677C1080.89 355.907 1079.57 355.862 1078.43 356.577C1077.3 357.292 1076.77 358.495 1077.25 359.266C1077.74 360.036 1079.05 360.08 1080.19 359.366Z" stroke="#959DA8" stroke-width="0.239384" stroke-miterlimit="10"/>
<path d="M1076.14 356.463C1076.19 356.211 1076.04 355.959 1075.78 355.901C1075.53 355.844 1075.28 356.002 1075.22 356.254C1075.16 356.507 1075.32 356.759 1075.57 356.816C1075.83 356.874 1076.08 356.716 1076.14 356.463Z" fill="#959DA8"/>
<path d="M1079.45 354.465C1079.64 354.347 1079.69 354.099 1079.57 353.911C1079.46 353.722 1079.21 353.666 1079.02 353.784C1078.83 353.902 1078.78 354.15 1078.89 354.339C1079.01 354.527 1079.26 354.583 1079.45 354.465Z" fill="#959DA8"/>
<path d="M1079.38 358.074C1079.64 357.906 1079.75 357.598 1079.62 357.388C1079.49 357.177 1079.17 357.144 1078.9 357.312C1078.63 357.481 1078.52 357.789 1078.65 357.999C1078.78 358.21 1079.11 358.243 1079.38 358.074Z" fill="#959DA8"/>
<path d="M1079.4 358.094L1079.7 358.563" stroke="#959DA8" stroke-width="0.239384" stroke-miterlimit="10"/>
<path d="M1078.97 358.841C1079.49 358.729 1079.96 358.434 1080.29 358.008" stroke="#959DA8" stroke-width="0.239384" stroke-miterlimit="10"/>
<path d="M1104.44 364.673H1072.22V391.35H1104.44V364.673Z" fill="#F4F5F6" stroke="#959DA8" stroke-width="1.91507" stroke-miterlimit="10"/>
<path d="M1092.86 391.35V364.673" stroke="#959DA8" stroke-width="0.957537" stroke-miterlimit="10"/>
<path d="M1071.27 363.829L1063.71 370.379H1086.4L1092.88 363.829H1071.27Z" fill="#D3DCE5"/>
<path d="M1111.2 369.373H1098.56L1092.89 363.829H1105.53L1111.2 369.373Z" fill="#D3DCE5"/>
<path d="M1094.88 391.35H1062.66V418.027H1094.88V391.35Z" fill="#F4F5F6" stroke="#959DA8" stroke-width="1.91507" stroke-miterlimit="10"/>
<path d="M1083.29 418.036V392.049" stroke="#959DA8" stroke-width="0.957537" stroke-miterlimit="10"/>
<path d="M1127.1 391.35H1094.88V418.027H1127.1V391.35Z" fill="#F4F5F6" stroke="#959DA8" stroke-width="1.91507" stroke-miterlimit="10"/>
<path d="M1121.04 418.036V391.35" stroke="#959DA8" stroke-width="0.957537" stroke-miterlimit="10"/>
<path d="M1055.38 418.495H1034.38L1049.5 389.932H1070.5L1055.38 418.495Z" fill="#F4F5F6" stroke="#959DA8" stroke-width="1.91507" stroke-miterlimit="10"/>
<path d="M1052.02 396.193C1053.19 394.385 1053.61 392.568 1052.94 392.135C1052.28 391.703 1050.78 392.818 1049.61 394.626C1048.43 396.434 1048.02 398.251 1048.68 398.684C1049.35 399.117 1050.84 398.001 1052.02 396.193Z" fill="#D3DCE5"/>
<path d="M1055.7 410.007C1058.57 405.592 1059.59 401.16 1057.97 400.107C1056.35 399.054 1052.71 401.779 1049.84 406.194C1046.97 410.608 1045.95 415.04 1047.57 416.093C1049.18 417.146 1052.82 414.421 1055.7 410.007Z" fill="#D3DCE5"/>
<path d="M1045.6 405.684L1055.36 393.964V405.684H1045.6Z" stroke="#959DA8" stroke-width="0.957537" stroke-miterlimit="10"/>
</svg>
