<svg width="1107" height="400" viewBox="0 0 1107 400" fill="none" xmlns="http://www.w3.org/2000/svg">
<path d="M890.616 52.0981V69.9883L882.752 67.9044L792.318 43.9432L702.67 20.1865L694.02 17.8903V0L890.616 52.0981Z" fill="#D3DCE5"/>
<path d="M882.75 66.6379V299.211H702.668V19.6514L703.69 19.9187L752.682 32.6975L752.698 32.7054L801.642 45.4763L801.666 45.4841L850.563 58.2393L850.65 58.2629L882.75 66.6379Z" fill="#F4F5F6"/>
<path fill-rule="evenodd" clip-rule="evenodd" d="M701.883 18.6328L752.961 31.9573L752.977 31.9651L801.867 44.7219L801.891 44.7297L801.892 44.7301L850.771 57.4805L850.85 57.5019L850.858 57.5041L883.538 66.0303V299.998H701.883V18.6328ZM703.456 20.6698V298.425H881.965V67.2454L850.453 59.0238L850.445 59.0216L850.366 59.0002L850.358 58.998L801.444 46.2384L801.419 46.2302L752.421 33.4455L752.405 33.4377L703.456 20.6698Z" fill="#959DA8"/>
<path d="M882.75 299.211H702.668V398.296H882.75V299.211Z" fill="#F4F5F6"/>
<path fill-rule="evenodd" clip-rule="evenodd" d="M702.094 298.637H883.324V398.869H702.094V298.637ZM703.242 299.785V397.721H882.176V299.785H703.242Z" fill="#959DA8"/>
<path d="M752.697 32.7056H702.234V19.9189H702.903L751.895 32.6977H752.681L752.697 32.7056Z" fill="#F4F5F6"/>
<path fill-rule="evenodd" clip-rule="evenodd" d="M701.844 19.5254H702.956L751.948 32.3042H752.776L754.367 33.0984H701.844V19.5254ZM748.862 32.312L702.855 20.3118H702.63V32.312H748.862Z" fill="#959DA8"/>
<path d="M792.315 43.2516V45.4771H702.234V32.6904H702.667L751.895 32.6983H752.681L752.697 32.7062H751.91L792.315 43.2516Z" fill="#F4F5F6"/>
<path fill-rule="evenodd" clip-rule="evenodd" d="M701.844 32.2969L752.776 32.3047L753.699 32.7656L792.711 42.9475V45.8699H701.844V32.2969ZM751.832 33.0911L702.63 33.0833V45.0835H791.924V43.555L751.832 33.0911Z" fill="#959DA8"/>
<path d="M792.315 45.4816V58.2368H702.234V45.458L775.95 45.4737L792.315 45.4816Z" fill="#F4F5F6"/>
<path fill-rule="evenodd" clip-rule="evenodd" d="M701.844 45.0645L792.711 45.0883V58.6297H701.844V45.0645ZM702.63 45.851V57.8433H791.924V45.8743L702.63 45.851Z" fill="#959DA8"/>
<path d="M763.667 58.2384L792.315 58.2462V71.0093H702.234V58.2227L763.667 58.2384Z" fill="#F4F5F6"/>
<path fill-rule="evenodd" clip-rule="evenodd" d="M701.844 57.8291L792.711 57.8529V71.4022H701.844V57.8291ZM702.63 58.6157V70.6158H791.924V58.6391L702.63 58.6157Z" fill="#959DA8"/>
<path d="M792.315 71.0197V83.7827H702.234V70.9961L763.667 71.0118L792.315 71.0197Z" fill="#F4F5F6"/>
<path fill-rule="evenodd" clip-rule="evenodd" d="M701.844 70.6025L792.711 70.6263V84.1757H701.844V70.6025ZM702.63 71.3891V83.3893H791.924V71.4125L702.63 71.3891Z" fill="#959DA8"/>
<path d="M775.95 83.7814H792.315V96.5523H702.234V83.7656H702.667L775.95 83.7814Z" fill="#F4F5F6"/>
<path fill-rule="evenodd" clip-rule="evenodd" d="M701.844 83.3721L792.711 83.3878V96.9451H701.844V83.3721ZM702.63 84.1585V96.1587H791.924V84.1742L702.63 84.1585Z" fill="#959DA8"/>
<path d="M702.667 96.1982L792.315 96.2218V108.985H702.234V96.1982H702.667Z" fill="#F4F5F6"/>
<path fill-rule="evenodd" clip-rule="evenodd" d="M701.844 95.8057L792.711 95.8294V109.379H701.844V95.8057ZM702.63 96.592V108.592H791.924V96.6155L702.63 96.592Z" fill="#959DA8"/>
<path d="M792.315 108.985V121.756H702.234V108.97L775.95 108.985H792.315Z" fill="#F4F5F6"/>
<path fill-rule="evenodd" clip-rule="evenodd" d="M701.844 108.576L792.711 108.592V122.149H701.844V108.576ZM702.63 109.363V121.363H791.924V109.378L702.63 109.363Z" fill="#959DA8"/>
<path d="M792.315 121.755V134.518H702.234V121.739L775.95 121.755H792.315Z" fill="#F4F5F6"/>
<path fill-rule="evenodd" clip-rule="evenodd" d="M701.844 121.347L792.711 121.362V134.912H701.844V121.347ZM702.63 122.133V134.126H791.924V122.149L702.63 122.133Z" fill="#959DA8"/>
<path d="M792.315 134.526V147.289H702.234V134.502L763.667 134.518L792.315 134.526Z" fill="#F4F5F6"/>
<path fill-rule="evenodd" clip-rule="evenodd" d="M701.844 134.108L792.711 134.132V147.682H701.844V134.108ZM702.63 134.895V146.895H791.924V134.918L702.63 134.895Z" fill="#959DA8"/>
<path d="M792.315 147.299V160.062H702.234V147.275L763.667 147.291L792.315 147.299Z" fill="#F4F5F6"/>
<path fill-rule="evenodd" clip-rule="evenodd" d="M701.844 146.882L792.711 146.906V160.455H701.844V146.882ZM702.63 147.668V159.669H791.924V147.692L702.63 147.668Z" fill="#959DA8"/>
<path d="M775.95 160.061H792.315V172.832H702.234V160.045H702.667L775.95 160.061Z" fill="#F4F5F6"/>
<path fill-rule="evenodd" clip-rule="evenodd" d="M701.844 159.651L792.711 159.667V173.224H701.844V159.651ZM702.63 160.438V172.438H791.924V160.453L702.63 160.438Z" fill="#959DA8"/>
<path d="M702.667 172.478L792.315 172.501V185.264H702.234V172.478H702.667Z" fill="#F4F5F6"/>
<path fill-rule="evenodd" clip-rule="evenodd" d="M701.844 172.085L792.711 172.109V185.658H701.844V172.085ZM702.63 172.871V184.872H791.924V172.895L702.63 172.871Z" fill="#959DA8"/>
<path d="M792.315 185.265V198.036H702.234V185.249L775.95 185.265H792.315Z" fill="#F4F5F6"/>
<path fill-rule="evenodd" clip-rule="evenodd" d="M701.844 184.856L792.711 184.872V198.43H701.844V184.856ZM702.63 185.643V197.643H791.924V185.659L702.63 185.643Z" fill="#959DA8"/>
<path d="M792.315 198.035V210.798H702.234V198.02L775.95 198.035H792.315Z" fill="#F4F5F6"/>
<path fill-rule="evenodd" clip-rule="evenodd" d="M701.844 197.626L792.711 197.642V211.191H701.844V197.626ZM702.63 198.413V210.405H791.924V198.428L702.63 198.413Z" fill="#959DA8"/>
<path d="M792.315 210.805V223.568H702.234V210.781L763.667 210.797L792.315 210.805Z" fill="#F4F5F6"/>
<path fill-rule="evenodd" clip-rule="evenodd" d="M701.844 210.388L792.711 210.411V223.961H701.844V210.388ZM702.63 211.174V223.174H791.924V211.198L702.63 211.174Z" fill="#959DA8"/>
<path d="M792.315 223.576V236.339H702.234V223.553L763.667 223.568L792.315 223.576Z" fill="#F4F5F6"/>
<path fill-rule="evenodd" clip-rule="evenodd" d="M701.844 223.159L792.711 223.183V236.732H701.844V223.159ZM702.63 223.946V235.946H791.924V223.969L702.63 223.946Z" fill="#959DA8"/>
<path d="M792.315 236.34V249.103L702.234 249.111V236.324L775.95 236.34H792.315Z" fill="#F4F5F6"/>
<path fill-rule="evenodd" clip-rule="evenodd" d="M701.844 235.931L792.711 235.946V249.496L701.844 249.504V235.931ZM702.63 236.717V248.717L791.924 248.71V236.733L702.63 236.717Z" fill="#959DA8"/>
<path d="M792.315 248.781V261.544H702.234V248.758L792.315 248.781Z" fill="#F4F5F6"/>
<path fill-rule="evenodd" clip-rule="evenodd" d="M701.844 248.364L792.711 248.388V261.937H701.844V248.364ZM702.63 249.151V261.151H791.924V249.174L702.63 249.151Z" fill="#959DA8"/>
<path d="M792.315 261.545V274.316H702.234V261.529L775.95 261.545H792.315Z" fill="#F4F5F6"/>
<path fill-rule="evenodd" clip-rule="evenodd" d="M701.844 261.136L792.711 261.152V274.709H701.844V261.136ZM702.63 261.922V273.922H791.924V261.938L702.63 261.922Z" fill="#959DA8"/>
<path d="M792.315 274.317V287.08H702.234V274.301L775.95 274.317H792.315Z" fill="#F4F5F6"/>
<path fill-rule="evenodd" clip-rule="evenodd" d="M701.844 273.907L792.711 273.923V287.472H701.844V273.907ZM702.63 274.694V286.686H791.924V274.709L702.63 274.694Z" fill="#959DA8"/>
<path d="M792.315 287.084V299.21H702.234V287.061L763.667 287.076L792.315 287.084Z" fill="#F4F5F6"/>
<path fill-rule="evenodd" clip-rule="evenodd" d="M701.844 286.668L792.711 286.692V299.604H701.844V286.668ZM702.63 287.455V298.818H791.924V287.478L702.63 287.455Z" fill="#959DA8"/>
<path d="M871.317 210.752H804.898V298.387H871.309L871.317 210.752Z" fill="white"/>
<path fill-rule="evenodd" clip-rule="evenodd" d="M804.316 210.17H871.898L871.89 298.969H804.316V210.17ZM805.48 211.334V297.805H870.727L870.734 211.334H805.48Z" fill="#959DA8"/>
<path d="M848.151 210.752H805.285V298.387H848.151V210.752Z" fill="white"/>
<path fill-rule="evenodd" clip-rule="evenodd" d="M804.816 210.283H848.618V298.854H804.816V210.283ZM805.752 211.219V297.918H847.682V211.219H805.752Z" fill="#959DA8"/>
<path fill-rule="evenodd" clip-rule="evenodd" d="M791.922 299.212V42.8506H792.708V299.212H791.922Z" fill="#959DA8"/>
<path d="M762.818 210.752H729.004V289.021H762.818V210.752Z" fill="white"/>
<path fill-rule="evenodd" clip-rule="evenodd" d="M728.609 210.358H763.21V289.414H728.609V210.358ZM729.396 211.145V288.627H762.424V211.145H729.396Z" fill="#959DA8"/>
<path fill-rule="evenodd" clip-rule="evenodd" d="M748.867 288.658V210.389H749.654V288.658H748.867Z" fill="#959DA8"/>
<path d="M762.818 88.8633H729.004V167.132H762.818V88.8633Z" fill="white"/>
<path fill-rule="evenodd" clip-rule="evenodd" d="M728.609 88.4697H763.21V167.525H728.609V88.4697ZM729.396 89.2561V166.739H762.424V89.2561H729.396Z" fill="#959DA8"/>
<path fill-rule="evenodd" clip-rule="evenodd" d="M748.867 166.768V88.499H749.654V166.768H748.867Z" fill="#959DA8"/>
<path d="M852.869 88.4619H819.055V130.14H852.869V88.4619Z" fill="white"/>
<path fill-rule="evenodd" clip-rule="evenodd" d="M818.66 88.0684H853.261V130.533H818.66V88.0684ZM819.447 88.8547V129.747H852.475V88.8547H819.447Z" fill="#959DA8"/>
<path fill-rule="evenodd" clip-rule="evenodd" d="M839.305 129.745V88.499H840.091V129.745H839.305Z" fill="#959DA8"/>
<path d="M879.604 312.58H791.922V397.903H879.604V312.58Z" fill="#D3DCE5"/>
<path fill-rule="evenodd" clip-rule="evenodd" d="M882.751 398.87H699.523V397.722H882.751V398.87Z" fill="#959DA8"/>
<path fill-rule="evenodd" clip-rule="evenodd" d="M701.883 18.6328L752.961 31.9573L752.977 31.9651L801.867 44.7219L801.891 44.7297L801.892 44.7301L850.771 57.4805L850.85 57.5019L850.858 57.5041L883.538 66.0303V299.998H701.883V18.6328ZM703.456 20.6698V298.425H881.965V67.2454L850.453 59.0238L850.445 59.0216L850.366 59.0002L850.358 58.998L801.444 46.2384L801.419 46.2302L752.421 33.4455L752.405 33.4377L703.456 20.6698Z" fill="#959DA8"/>
<path d="M880.705 255.568V299.213H873.188L873.195 255.568H880.705Z" fill="#F4F5F6"/>
<path fill-rule="evenodd" clip-rule="evenodd" d="M872.801 255.175H881.097V299.606H872.793L872.801 255.175ZM873.587 255.961L873.579 298.819H880.311V255.961H873.587Z" fill="#959DA8"/>
<path d="M888.57 255.568H880.887V299.213H888.57V255.568Z" fill="#F4F5F6"/>
<path fill-rule="evenodd" clip-rule="evenodd" d="M880.492 255.175H888.962V299.606H880.492V255.175ZM881.279 255.961V298.819H888.175V255.961H881.279Z" fill="#959DA8"/>
<path d="M802.065 255.568V299.213H794.547L794.555 255.568H802.065Z" fill="#F4F5F6"/>
<path fill-rule="evenodd" clip-rule="evenodd" d="M794.164 255.175H802.461V299.606H794.156L794.164 255.175ZM794.951 255.961L794.943 298.819H801.674V255.961H794.951Z" fill="#959DA8"/>
<path d="M794.201 255.568V299.213H786.684L786.691 255.568H794.201Z" fill="#F4F5F6"/>
<path fill-rule="evenodd" clip-rule="evenodd" d="M786.301 255.175H794.597V299.606H786.293L786.301 255.175ZM787.087 255.961L787.079 298.819H793.811V255.961H787.087Z" fill="#959DA8"/>
<path d="M809.933 255.568H802.25V299.213H809.933V255.568Z" fill="#F4F5F6"/>
<path fill-rule="evenodd" clip-rule="evenodd" d="M801.855 255.175H810.325V299.606H801.855V255.175ZM802.642 255.961V298.819H809.538V255.961H802.642Z" fill="#959DA8"/>
<path d="M817.792 255.568H810.109V299.213H817.792V255.568Z" fill="#F4F5F6"/>
<path fill-rule="evenodd" clip-rule="evenodd" d="M809.715 255.175H818.184V299.606H809.715V255.175ZM810.501 255.961V298.819H817.398V255.961H810.501Z" fill="#959DA8"/>
<path d="M825.66 255.568H817.977V299.213H825.66V255.568Z" fill="#F4F5F6"/>
<path fill-rule="evenodd" clip-rule="evenodd" d="M817.582 255.175H826.051V299.606H817.582V255.175ZM818.368 255.961V298.819H825.265V255.961H818.368Z" fill="#959DA8"/>
<path d="M833.523 255.568H825.84V299.213H833.523V255.568Z" fill="#F4F5F6"/>
<path fill-rule="evenodd" clip-rule="evenodd" d="M825.445 255.175H833.915V299.606H825.445V255.175ZM826.232 255.961V298.819H833.128V255.961H826.232Z" fill="#959DA8"/>
<path d="M841.386 255.568H833.703V299.213H841.386V255.568Z" fill="#F4F5F6"/>
<path fill-rule="evenodd" clip-rule="evenodd" d="M833.309 255.175H841.778V299.606H833.309V255.175ZM834.095 255.961V298.819H840.992V255.961H834.095Z" fill="#959DA8"/>
<path d="M849.249 255.568H841.566V299.213H849.249V255.568Z" fill="#F4F5F6"/>
<path fill-rule="evenodd" clip-rule="evenodd" d="M841.172 255.175H849.641V299.606H841.172V255.175ZM841.958 255.961V298.819H848.855V255.961H841.958Z" fill="#959DA8"/>
<path d="M857.113 255.568H849.43V299.213H857.113V255.568Z" fill="#F4F5F6"/>
<path fill-rule="evenodd" clip-rule="evenodd" d="M849.039 255.175H857.508V299.606H849.039V255.175ZM849.825 255.961V298.819H856.722V255.961H849.825Z" fill="#959DA8"/>
<path d="M864.976 255.568H857.293V299.213H864.976V255.568Z" fill="#F4F5F6"/>
<path fill-rule="evenodd" clip-rule="evenodd" d="M856.902 255.175H865.372V299.606H856.902V255.175ZM857.689 255.961V298.819H864.585V255.961H857.689Z" fill="#959DA8"/>
<path d="M872.839 255.568H865.156V299.213H872.839V255.568Z" fill="#F4F5F6"/>
<path fill-rule="evenodd" clip-rule="evenodd" d="M864.766 255.175H873.235V299.606H864.766V255.175ZM865.552 255.961V298.819H872.449V255.961H865.552Z" fill="#959DA8"/>
<path fill-rule="evenodd" clip-rule="evenodd" d="M786.238 255.174H889.042V299.998H786.238V255.174ZM787.811 256.747V298.425H887.47V256.747H787.811Z" fill="#959DA8"/>
<path fill-rule="evenodd" clip-rule="evenodd" d="M791.141 312.443L879.994 312.459V326.001H791.141V312.443ZM791.919 313.222V325.222H879.216V313.238L791.919 313.222Z" fill="#F4F5F6"/>
<path fill-rule="evenodd" clip-rule="evenodd" d="M791.141 325.205L879.994 325.229V338.77H791.141V325.205ZM791.919 325.984V337.992H879.216V326.007L791.919 325.984Z" fill="#F4F5F6"/>
<path fill-rule="evenodd" clip-rule="evenodd" d="M791.141 337.977L879.994 338V351.542H791.141V337.977ZM791.919 338.755V350.763H879.216V338.779L791.919 338.755Z" fill="#F4F5F6"/>
<path fill-rule="evenodd" clip-rule="evenodd" d="M791.141 350.747L879.994 350.763V364.304L791.141 364.312V350.747ZM791.919 351.526V363.534L879.216 363.526V351.541L791.919 351.526Z" fill="#F4F5F6"/>
<path fill-rule="evenodd" clip-rule="evenodd" d="M791.141 363.18L879.994 363.203V376.745H791.141V363.18ZM791.919 363.958V375.966H879.216V363.982L791.919 363.958Z" fill="#F4F5F6"/>
<path fill-rule="evenodd" clip-rule="evenodd" d="M791.141 375.951L879.994 375.967V389.516H791.141V375.951ZM791.919 376.73V388.738H879.216V376.745L791.919 376.73Z" fill="#F4F5F6"/>
<path fill-rule="evenodd" clip-rule="evenodd" d="M791.141 388.723L879.994 388.738V398.745H879.216V389.517L791.919 389.501V398.745H791.141V388.723Z" fill="#F4F5F6"/>
<path d="M763.47 312.194H729.773V385.399H763.47V312.194Z" fill="#D3DCE5"/>
<path d="M758.697 316.864H734.531V351.725H758.697V316.864Z" fill="white"/>
<path fill-rule="evenodd" clip-rule="evenodd" d="M734.137 316.472H759.089V352.119H734.137V316.472ZM734.923 317.258V351.332H758.302V317.258H734.923Z" fill="#959DA8"/>
<path d="M792.315 390.723H699.758V398.406H792.315V390.723Z" fill="#F4F5F6"/>
<path fill-rule="evenodd" clip-rule="evenodd" d="M699.184 390.148H792.889V398.98H699.184V390.148ZM700.332 391.297V397.831H791.741V391.297H700.332Z" fill="#959DA8"/>
<path d="M736.088 357.799C736.957 357.799 737.661 357.095 737.661 356.226C737.661 355.357 736.957 354.653 736.088 354.653C735.22 354.653 734.516 355.357 734.516 356.226C734.516 357.095 735.22 357.799 736.088 357.799Z" fill="white"/>
<path fill-rule="evenodd" clip-rule="evenodd" d="M736.091 355.046C735.44 355.046 734.911 355.574 734.911 356.226C734.911 356.877 735.44 357.405 736.091 357.405C736.742 357.405 737.271 356.877 737.271 356.226C737.271 355.574 736.742 355.046 736.091 355.046ZM734.125 356.226C734.125 355.14 735.005 354.26 736.091 354.26C737.177 354.26 738.057 355.14 738.057 356.226C738.057 357.312 737.177 358.192 736.091 358.192C735.005 358.192 734.125 357.312 734.125 356.226Z" fill="#959DA8"/>
<path d="M792.315 383.057H699.758V390.74H792.315V383.057Z" fill="#F4F5F6"/>
<path fill-rule="evenodd" clip-rule="evenodd" d="M699.184 382.482H792.889V391.314H699.184V382.482ZM700.332 383.631V390.165H791.741V383.631H700.332Z" fill="#959DA8"/>
<path d="M710.53 52.0981V69.9883L702.666 67.9044L612.232 43.9432L522.584 20.1865L513.934 17.8903V0L710.53 52.0981Z" fill="#D3DCE5"/>
<path d="M702.664 66.6379V299.211H522.582V19.6514L523.604 19.9187L572.596 32.6975L572.612 32.7054L621.557 45.4763L621.58 45.4841L670.478 58.2393L670.564 58.2629L702.664 66.6379Z" fill="#F4F5F6"/>
<path fill-rule="evenodd" clip-rule="evenodd" d="M521.797 18.6328L572.875 31.9573L572.891 31.9651L621.781 44.7219L621.805 44.7297L621.806 44.7301L670.686 57.4805L670.764 57.5019L670.772 57.5042L703.452 66.0303V299.998H521.797V18.6328ZM523.37 20.6698V298.425H701.879V67.2454L670.367 59.0238L670.358 59.0215L670.28 59.0002L670.272 58.9979L621.358 46.2384L621.333 46.2302L572.335 33.4455L572.319 33.4377L523.37 20.6698Z" fill="#959DA8"/>
<path d="M702.664 299.211H522.582V398.296H702.664V299.211Z" fill="#F4F5F6"/>
<path fill-rule="evenodd" clip-rule="evenodd" d="M522.012 298.637H703.242V398.869H522.012V298.637ZM523.16 299.785V397.721H702.094V299.785H523.16Z" fill="#959DA8"/>
<path d="M572.615 32.7056H522.152V19.9189H522.821L571.813 32.6977H572.599L572.615 32.7056Z" fill="#F4F5F6"/>
<path fill-rule="evenodd" clip-rule="evenodd" d="M521.758 19.5254H522.87L571.862 32.3042H572.69L574.281 33.0984H521.758V19.5254ZM568.776 32.312L522.769 20.3118H522.544V32.312H568.776Z" fill="#959DA8"/>
<path d="M612.233 43.2516V45.4771H522.152V32.6904H522.585L571.813 32.6983H572.599L572.615 32.7062H571.828L612.233 43.2516Z" fill="#F4F5F6"/>
<path fill-rule="evenodd" clip-rule="evenodd" d="M521.758 32.2969L572.69 32.3047L573.613 32.7656L612.625 42.9475V45.8699H521.758V32.2969ZM571.746 33.0911L522.544 33.0833V45.0835H611.838V43.555L571.746 33.0911Z" fill="#959DA8"/>
<path d="M612.233 45.4816V58.2368H522.152V45.458L595.868 45.4737L612.233 45.4816Z" fill="#F4F5F6"/>
<path fill-rule="evenodd" clip-rule="evenodd" d="M521.758 45.0645L612.625 45.0883V58.6297H521.758V45.0645ZM522.544 45.851V57.8433H611.838V45.8743L522.544 45.851Z" fill="#959DA8"/>
<path d="M583.585 58.2384L612.233 58.2462V71.0093H522.152V58.2227L583.585 58.2384Z" fill="#F4F5F6"/>
<path fill-rule="evenodd" clip-rule="evenodd" d="M521.758 57.8291L612.625 57.8529V71.4022H521.758V57.8291ZM522.544 58.6157V70.6158H611.838V58.6391L522.544 58.6157Z" fill="#959DA8"/>
<path d="M612.233 71.0197V83.7827H522.152V70.9961L583.585 71.0118L612.233 71.0197Z" fill="#F4F5F6"/>
<path fill-rule="evenodd" clip-rule="evenodd" d="M521.758 70.6025L612.625 70.6263V84.1757H521.758V70.6025ZM522.544 71.3891V83.3893H611.838V71.4125L522.544 71.3891Z" fill="#959DA8"/>
<path d="M595.868 83.7814H612.233V96.5523H522.152V83.7656H522.585L595.868 83.7814Z" fill="#F4F5F6"/>
<path fill-rule="evenodd" clip-rule="evenodd" d="M521.758 83.3721L612.625 83.3878V96.9451H521.758V83.3721ZM522.544 84.1585V96.1587H611.838V84.1742L522.544 84.1585Z" fill="#959DA8"/>
<path d="M522.585 96.1982L612.233 96.2218V108.985H522.152V96.1982H522.585Z" fill="#F4F5F6"/>
<path fill-rule="evenodd" clip-rule="evenodd" d="M521.758 95.8057L612.625 95.8294V109.379H521.758V95.8057ZM522.544 96.592V108.592H611.838V96.6155L522.544 96.592Z" fill="#959DA8"/>
<path d="M612.233 108.985V121.756H522.152V108.97L595.868 108.985H612.233Z" fill="#F4F5F6"/>
<path fill-rule="evenodd" clip-rule="evenodd" d="M521.758 108.576L612.625 108.592V122.149H521.758V108.576ZM522.544 109.363V121.363H611.838V109.378L522.544 109.363Z" fill="#959DA8"/>
<path d="M612.233 121.755V134.518H522.152V121.739L595.868 121.755H612.233Z" fill="#F4F5F6"/>
<path fill-rule="evenodd" clip-rule="evenodd" d="M521.758 121.347L612.625 121.362V134.912H521.758V121.347ZM522.544 122.133V134.126H611.838V122.149L522.544 122.133Z" fill="#959DA8"/>
<path d="M612.233 134.526V147.289H522.152V134.502L583.585 134.518L612.233 134.526Z" fill="#F4F5F6"/>
<path fill-rule="evenodd" clip-rule="evenodd" d="M521.758 134.108L612.625 134.132V147.682H521.758V134.108ZM522.544 134.895V146.895H611.838V134.918L522.544 134.895Z" fill="#959DA8"/>
<path d="M612.233 147.299V160.062H522.152V147.275L583.585 147.291L612.233 147.299Z" fill="#F4F5F6"/>
<path fill-rule="evenodd" clip-rule="evenodd" d="M521.758 146.882L612.625 146.906V160.455H521.758V146.882ZM522.544 147.668V159.669H611.838V147.692L522.544 147.668Z" fill="#959DA8"/>
<path d="M595.868 160.061H612.233V172.832H522.152V160.045H522.585L595.868 160.061Z" fill="#F4F5F6"/>
<path fill-rule="evenodd" clip-rule="evenodd" d="M521.758 159.651L612.625 159.667V173.224H521.758V159.651ZM522.544 160.438V172.438H611.838V160.453L522.544 160.438Z" fill="#959DA8"/>
<path d="M522.585 172.478L612.233 172.501V185.264H522.152V172.478H522.585Z" fill="#F4F5F6"/>
<path fill-rule="evenodd" clip-rule="evenodd" d="M521.758 172.085L612.625 172.109V185.658H521.758V172.085ZM522.544 172.871V184.872H611.838V172.895L522.544 172.871Z" fill="#959DA8"/>
<path d="M612.233 185.265V198.036H522.152V185.249L595.868 185.265H612.233Z" fill="#F4F5F6"/>
<path fill-rule="evenodd" clip-rule="evenodd" d="M521.758 184.856L612.625 184.872V198.43H521.758V184.856ZM522.544 185.643V197.643H611.838V185.659L522.544 185.643Z" fill="#959DA8"/>
<path d="M612.233 198.035V210.798H522.152V198.02L595.868 198.035H612.233Z" fill="#F4F5F6"/>
<path fill-rule="evenodd" clip-rule="evenodd" d="M521.758 197.626L612.625 197.642V211.191H521.758V197.626ZM522.544 198.413V210.405H611.838V198.428L522.544 198.413Z" fill="#959DA8"/>
<path d="M612.233 210.805V223.568H522.152V210.781L583.585 210.797L612.233 210.805Z" fill="#F4F5F6"/>
<path fill-rule="evenodd" clip-rule="evenodd" d="M521.758 210.388L612.625 210.411V223.961H521.758V210.388ZM522.544 211.174V223.174H611.838V211.198L522.544 211.174Z" fill="#959DA8"/>
<path d="M612.233 223.576V236.339H522.152V223.553L583.585 223.568L612.233 223.576Z" fill="#F4F5F6"/>
<path fill-rule="evenodd" clip-rule="evenodd" d="M521.758 223.159L612.625 223.183V236.732H521.758V223.159ZM522.544 223.946V235.946H611.838V223.969L522.544 223.946Z" fill="#959DA8"/>
<path d="M612.233 236.34V249.103L522.152 249.111V236.324L595.868 236.34H612.233Z" fill="#F4F5F6"/>
<path fill-rule="evenodd" clip-rule="evenodd" d="M521.758 235.931L612.625 235.946V249.496L521.758 249.504V235.931ZM522.544 236.717V248.717L611.838 248.71V236.733L522.544 236.717Z" fill="#959DA8"/>
<path d="M612.233 248.781V261.544H522.152V248.758L612.233 248.781Z" fill="#F4F5F6"/>
<path fill-rule="evenodd" clip-rule="evenodd" d="M521.758 248.364L612.625 248.388V261.937H521.758V248.364ZM522.544 249.151V261.151H611.838V249.174L522.544 249.151Z" fill="#959DA8"/>
<path d="M612.233 261.545V274.316H522.152V261.529L595.868 261.545H612.233Z" fill="#F4F5F6"/>
<path fill-rule="evenodd" clip-rule="evenodd" d="M521.758 261.136L612.625 261.152V274.709H521.758V261.136ZM522.544 261.922V273.922H611.838V261.938L522.544 261.922Z" fill="#959DA8"/>
<path d="M612.233 274.317V287.08H522.152V274.301L595.868 274.317H612.233Z" fill="#F4F5F6"/>
<path fill-rule="evenodd" clip-rule="evenodd" d="M521.758 273.907L612.625 273.923V287.472H521.758V273.907ZM522.544 274.694V286.686H611.838V274.709L522.544 274.694Z" fill="#959DA8"/>
<path d="M612.233 287.084V299.21H522.152V287.061L583.585 287.076L612.233 287.084Z" fill="#F4F5F6"/>
<path fill-rule="evenodd" clip-rule="evenodd" d="M521.758 286.668L612.625 286.692V299.604H521.758V286.668ZM522.544 287.455V298.818H611.838V287.478L522.544 287.455Z" fill="#959DA8"/>
<path d="M691.235 210.752H624.816V298.387H691.227L691.235 210.752Z" fill="white"/>
<path fill-rule="evenodd" clip-rule="evenodd" d="M624.234 210.17H691.816L691.808 298.969H624.234V210.17ZM625.398 211.334V297.805H690.645L690.652 211.334H625.398Z" fill="#959DA8"/>
<path d="M668.065 210.752H625.199V298.387H668.065V210.752Z" fill="white"/>
<path fill-rule="evenodd" clip-rule="evenodd" d="M624.734 210.283H668.536V298.854H624.734V210.283ZM625.67 211.219V297.918H667.6V211.219H625.67Z" fill="#959DA8"/>
<path fill-rule="evenodd" clip-rule="evenodd" d="M611.84 299.212V42.8506H612.626V299.212H611.84Z" fill="#959DA8"/>
<path d="M582.736 210.752H548.922V289.021H582.736V210.752Z" fill="white"/>
<path fill-rule="evenodd" clip-rule="evenodd" d="M548.527 210.358H583.128V289.414H548.527V210.358ZM549.314 211.145V288.627H582.342V211.145H549.314Z" fill="#959DA8"/>
<path fill-rule="evenodd" clip-rule="evenodd" d="M568.785 288.658V210.389H569.572V288.658H568.785Z" fill="#959DA8"/>
<path d="M582.736 88.8633H548.922V167.132H582.736V88.8633Z" fill="white"/>
<path fill-rule="evenodd" clip-rule="evenodd" d="M548.527 88.4697H583.128V167.525H548.527V88.4697ZM549.314 89.2561V166.739H582.342V89.2561H549.314Z" fill="#959DA8"/>
<path fill-rule="evenodd" clip-rule="evenodd" d="M568.785 166.768V88.499H569.572V166.768H568.785Z" fill="#959DA8"/>
<path d="M672.783 88.4619H638.969V130.14H672.783V88.4619Z" fill="white"/>
<path fill-rule="evenodd" clip-rule="evenodd" d="M638.574 88.0684H673.175V130.533H638.574V88.0684ZM639.361 88.8547V129.747H672.389V88.8547H639.361Z" fill="#959DA8"/>
<path fill-rule="evenodd" clip-rule="evenodd" d="M659.219 129.745V88.499H660.005V129.745H659.219Z" fill="#959DA8"/>
<path d="M699.522 312.58H611.84V397.903H699.522V312.58Z" fill="#D3DCE5"/>
<path fill-rule="evenodd" clip-rule="evenodd" d="M702.665 398.87H519.438V397.722H702.665V398.87Z" fill="#959DA8"/>
<path fill-rule="evenodd" clip-rule="evenodd" d="M521.797 18.6328L572.875 31.9573L572.891 31.9651L621.781 44.7219L621.805 44.7297L621.806 44.7301L670.686 57.4805L670.764 57.5019L670.772 57.5042L703.452 66.0303V299.998H521.797V18.6328ZM523.37 20.6698V298.425H701.879V67.2454L670.367 59.0238L670.358 59.0215L670.28 59.0002L670.272 58.9979L621.358 46.2384L621.333 46.2302L572.335 33.4455L572.319 33.4377L523.37 20.6698Z" fill="#959DA8"/>
<path fill-rule="evenodd" clip-rule="evenodd" d="M611.059 312.443L699.912 312.459V326.001H611.059V312.443ZM611.837 313.222V325.222H699.134V313.238L611.837 313.222Z" fill="#F4F5F6"/>
<path fill-rule="evenodd" clip-rule="evenodd" d="M611.059 325.205L699.912 325.229V338.77H611.059V325.205ZM611.837 325.984V337.992H699.134V326.007L611.837 325.984Z" fill="#F4F5F6"/>
<path fill-rule="evenodd" clip-rule="evenodd" d="M611.059 337.977L699.912 338V351.542H611.059V337.977ZM611.837 338.755V350.763H699.134V338.779L611.837 338.755Z" fill="#F4F5F6"/>
<path fill-rule="evenodd" clip-rule="evenodd" d="M611.059 350.747L699.912 350.763V364.304L611.059 364.312V350.747ZM611.837 351.526V363.534L699.134 363.526V351.541L611.837 351.526Z" fill="#F4F5F6"/>
<path fill-rule="evenodd" clip-rule="evenodd" d="M611.059 363.18L699.912 363.203V376.745H611.059V363.18ZM611.837 363.958V375.966H699.134V363.982L611.837 363.958Z" fill="#F4F5F6"/>
<path fill-rule="evenodd" clip-rule="evenodd" d="M611.059 375.951L699.912 375.967V389.516H611.059V375.951ZM611.837 376.73V388.738H699.134V376.745L611.837 376.73Z" fill="#F4F5F6"/>
<path fill-rule="evenodd" clip-rule="evenodd" d="M611.059 388.723L699.912 388.738V398.745H699.134V389.517L611.837 389.501V398.745H611.059V388.723Z" fill="white"/>
<path d="M583.388 312.194H549.691V385.399H583.388V312.194Z" fill="#D3DCE5"/>
<path d="M578.615 316.864H554.449V351.725H578.615V316.864Z" fill="white"/>
<path fill-rule="evenodd" clip-rule="evenodd" d="M554.055 316.472H579.007V352.119H554.055V316.472ZM554.841 317.258V351.332H578.22V317.258H554.841Z" fill="#959DA8"/>
<path d="M612.233 390.723H519.676V398.406H612.233V390.723Z" fill="#F4F5F6"/>
<path fill-rule="evenodd" clip-rule="evenodd" d="M519.102 390.148H612.807V398.98H519.102V390.148ZM520.25 391.297V397.831H611.659V391.297H520.25Z" fill="#959DA8"/>
<path d="M556.006 357.799C556.875 357.799 557.579 357.095 557.579 356.226C557.579 355.357 556.875 354.653 556.006 354.653C555.138 354.653 554.434 355.357 554.434 356.226C554.434 357.095 555.138 357.799 556.006 357.799Z" fill="white"/>
<path fill-rule="evenodd" clip-rule="evenodd" d="M556.005 355.046C555.354 355.046 554.825 355.574 554.825 356.226C554.825 356.877 555.354 357.405 556.005 357.405C556.656 357.405 557.185 356.877 557.185 356.226C557.185 355.574 556.656 355.046 556.005 355.046ZM554.039 356.226C554.039 355.14 554.919 354.26 556.005 354.26C557.091 354.26 557.971 355.14 557.971 356.226C557.971 357.312 557.091 358.192 556.005 358.192C554.919 358.192 554.039 357.312 554.039 356.226Z" fill="#959DA8"/>
<path d="M612.233 383.057H519.676V390.74H612.233V383.057Z" fill="#F4F5F6"/>
<path fill-rule="evenodd" clip-rule="evenodd" d="M519.102 382.482H612.807V391.314H519.102V382.482ZM520.25 383.631V390.165H611.659V383.631H520.25Z" fill="#959DA8"/>
<path d="M530.448 52.0981V69.9883L522.584 67.9044L432.15 43.9432L342.502 20.1865L333.852 17.8903V0L530.448 52.0981Z" fill="#D3DCE5"/>
<path d="M522.586 66.6379V299.211H342.504V19.6514L343.526 19.9187L392.518 32.6975L392.534 32.7054L441.478 45.4763L441.502 45.4841L490.399 58.2393L490.486 58.2629L522.586 66.6379Z" fill="#F4F5F6"/>
<path fill-rule="evenodd" clip-rule="evenodd" d="M341.715 18.6328L392.793 31.9573L392.809 31.9651L441.699 44.7219L441.723 44.7297L441.724 44.7301L490.604 57.4805L490.682 57.5019L490.69 57.5042L523.37 66.0303V299.998H341.715V18.6328ZM343.288 20.6698V298.425H521.797V67.2454L490.285 59.0238L490.276 59.0215L490.198 59.0002L490.19 58.9979L441.276 46.2384L441.251 46.2302L392.253 33.4455L392.237 33.4377L343.288 20.6698Z" fill="#959DA8"/>
<path d="M522.586 299.211H342.504V398.296H522.586V299.211Z" fill="#F4F5F6"/>
<path fill-rule="evenodd" clip-rule="evenodd" d="M341.93 298.637H523.16V398.869H341.93V298.637ZM343.078 299.785V397.721H522.012V299.785H343.078Z" fill="#959DA8"/>
<path d="M392.533 32.7056H342.07V19.9189H342.739L391.731 32.6977H392.517L392.533 32.7056Z" fill="#F4F5F6"/>
<path fill-rule="evenodd" clip-rule="evenodd" d="M341.676 19.5254H342.788L391.78 32.3042H392.608L394.199 33.0984H341.676V19.5254ZM388.694 32.312L342.687 20.3118H342.462V32.312H388.694Z" fill="#959DA8"/>
<path d="M432.151 43.2516V45.4771H342.07V32.6904H342.503L391.731 32.6983H392.517L392.533 32.7062H391.746L432.151 43.2516Z" fill="#F4F5F6"/>
<path fill-rule="evenodd" clip-rule="evenodd" d="M341.676 32.2969L392.608 32.3047L393.531 32.7656L432.543 42.9475V45.8699H341.676V32.2969ZM391.664 33.0911L342.462 33.0833V45.0835H431.756V43.555L391.664 33.0911Z" fill="#959DA8"/>
<path d="M432.151 45.4816V58.2368H342.07V45.458L415.786 45.4737L432.151 45.4816Z" fill="#F4F5F6"/>
<path fill-rule="evenodd" clip-rule="evenodd" d="M341.676 45.0645L432.543 45.0883V58.6297H341.676V45.0645ZM342.462 45.851V57.8433H431.756V45.8743L342.462 45.851Z" fill="#959DA8"/>
<path d="M403.503 58.2384L432.151 58.2462V71.0093H342.07V58.2227L403.503 58.2384Z" fill="#F4F5F6"/>
<path fill-rule="evenodd" clip-rule="evenodd" d="M341.676 57.8291L432.543 57.8529V71.4022H341.676V57.8291ZM342.462 58.6157V70.6158H431.756V58.6391L342.462 58.6157Z" fill="#959DA8"/>
<path d="M432.151 71.0197V83.7827H342.07V70.9961L403.503 71.0118L432.151 71.0197Z" fill="#F4F5F6"/>
<path fill-rule="evenodd" clip-rule="evenodd" d="M341.676 70.6025L432.543 70.6263V84.1757H341.676V70.6025ZM342.462 71.3891V83.3893H431.756V71.4125L342.462 71.3891Z" fill="#959DA8"/>
<path d="M415.786 83.7814H432.151V96.5523H342.07V83.7656H342.503L415.786 83.7814Z" fill="#F4F5F6"/>
<path fill-rule="evenodd" clip-rule="evenodd" d="M341.676 83.3721L432.543 83.3878V96.9451H341.676V83.3721ZM342.462 84.1585V96.1587H431.756V84.1742L342.462 84.1585Z" fill="#959DA8"/>
<path d="M342.503 96.1982L432.151 96.2218V108.985H342.07V96.1982H342.503Z" fill="#F4F5F6"/>
<path fill-rule="evenodd" clip-rule="evenodd" d="M341.676 95.8057L432.543 95.8294V109.379H341.676V95.8057ZM342.462 96.592V108.592H431.756V96.6155L342.462 96.592Z" fill="#959DA8"/>
<path d="M432.151 108.985V121.756H342.07V108.97L415.786 108.985H432.151Z" fill="#F4F5F6"/>
<path fill-rule="evenodd" clip-rule="evenodd" d="M341.676 108.576L432.543 108.592V122.149H341.676V108.576ZM342.462 109.363V121.363H431.756V109.378L342.462 109.363Z" fill="#959DA8"/>
<path d="M432.151 121.755V134.518H342.07V121.739L415.786 121.755H432.151Z" fill="#F4F5F6"/>
<path fill-rule="evenodd" clip-rule="evenodd" d="M341.676 121.347L432.543 121.362V134.912H341.676V121.347ZM342.462 122.133V134.126H431.756V122.149L342.462 122.133Z" fill="#959DA8"/>
<path d="M432.151 134.526V147.289H342.07V134.502L403.503 134.518L432.151 134.526Z" fill="#F4F5F6"/>
<path fill-rule="evenodd" clip-rule="evenodd" d="M341.676 134.108L432.543 134.132V147.682H341.676V134.108ZM342.462 134.895V146.895H431.756V134.918L342.462 134.895Z" fill="#959DA8"/>
<path d="M432.151 147.299V160.062H342.07V147.275L403.503 147.291L432.151 147.299Z" fill="#F4F5F6"/>
<path fill-rule="evenodd" clip-rule="evenodd" d="M341.676 146.882L432.543 146.906V160.455H341.676V146.882ZM342.462 147.668V159.669H431.756V147.692L342.462 147.668Z" fill="#959DA8"/>
<path d="M415.786 160.061H432.151V172.832H342.07V160.045H342.503L415.786 160.061Z" fill="#F4F5F6"/>
<path fill-rule="evenodd" clip-rule="evenodd" d="M341.676 159.651L432.543 159.667V173.224H341.676V159.651ZM342.462 160.438V172.438H431.756V160.453L342.462 160.438Z" fill="#959DA8"/>
<path d="M342.503 172.478L432.151 172.501V185.264H342.07V172.478H342.503Z" fill="#F4F5F6"/>
<path fill-rule="evenodd" clip-rule="evenodd" d="M341.676 172.085L432.543 172.109V185.658H341.676V172.085ZM342.462 172.871V184.872H431.756V172.895L342.462 172.871Z" fill="#959DA8"/>
<path d="M432.151 185.265V198.036H342.07V185.249L415.786 185.265H432.151Z" fill="#F4F5F6"/>
<path fill-rule="evenodd" clip-rule="evenodd" d="M341.676 184.856L432.543 184.872V198.43H341.676V184.856ZM342.462 185.643V197.643H431.756V185.659L342.462 185.643Z" fill="#959DA8"/>
<path d="M432.151 198.035V210.798H342.07V198.02L415.786 198.035H432.151Z" fill="#F4F5F6"/>
<path fill-rule="evenodd" clip-rule="evenodd" d="M341.676 197.626L432.543 197.642V211.191H341.676V197.626ZM342.462 198.413V210.405H431.756V198.428L342.462 198.413Z" fill="#959DA8"/>
<path d="M432.151 210.805V223.568H342.07V210.781L403.503 210.797L432.151 210.805Z" fill="#F4F5F6"/>
<path fill-rule="evenodd" clip-rule="evenodd" d="M341.676 210.388L432.543 210.411V223.961H341.676V210.388ZM342.462 211.174V223.174H431.756V211.198L342.462 211.174Z" fill="#959DA8"/>
<path d="M432.151 223.576V236.339H342.07V223.553L403.503 223.568L432.151 223.576Z" fill="#F4F5F6"/>
<path fill-rule="evenodd" clip-rule="evenodd" d="M341.676 223.159L432.543 223.183V236.732H341.676V223.159ZM342.462 223.946V235.946H431.756V223.969L342.462 223.946Z" fill="#959DA8"/>
<path d="M432.151 236.34V249.103L342.07 249.111V236.324L415.786 236.34H432.151Z" fill="#F4F5F6"/>
<path fill-rule="evenodd" clip-rule="evenodd" d="M341.676 235.931L432.543 235.946V249.496L341.676 249.504V235.931ZM342.462 236.717V248.717L431.756 248.71V236.733L342.462 236.717Z" fill="#959DA8"/>
<path d="M432.151 248.781V261.544H342.07V248.758L432.151 248.781Z" fill="#F4F5F6"/>
<path fill-rule="evenodd" clip-rule="evenodd" d="M341.676 248.364L432.543 248.388V261.937H341.676V248.364ZM342.462 249.151V261.151H431.756V249.174L342.462 249.151Z" fill="#959DA8"/>
<path d="M432.151 261.545V274.316H342.07V261.529L415.786 261.545H432.151Z" fill="#F4F5F6"/>
<path fill-rule="evenodd" clip-rule="evenodd" d="M341.676 261.136L432.543 261.152V274.709H341.676V261.136ZM342.462 261.922V273.922H431.756V261.938L342.462 261.922Z" fill="#959DA8"/>
<path d="M432.151 274.317V287.08H342.07V274.301L415.786 274.317H432.151Z" fill="#F4F5F6"/>
<path fill-rule="evenodd" clip-rule="evenodd" d="M341.676 273.907L432.543 273.923V287.472H341.676V273.907ZM342.462 274.694V286.686H431.756V274.709L342.462 274.694Z" fill="#959DA8"/>
<path d="M432.151 287.084V299.21H342.07V287.061L403.503 287.076L432.151 287.084Z" fill="#F4F5F6"/>
<path fill-rule="evenodd" clip-rule="evenodd" d="M341.676 286.668L432.543 286.692V299.604H341.676V286.668ZM342.462 287.455V298.818H431.756V287.478L342.462 287.455Z" fill="#959DA8"/>
<path d="M511.149 210.752H444.73V298.387H511.141L511.149 210.752Z" fill="white"/>
<path fill-rule="evenodd" clip-rule="evenodd" d="M444.148 210.17H511.73L511.723 298.969H444.148V210.17ZM445.312 211.334V297.805H510.559L510.567 211.334H445.312Z" fill="#959DA8"/>
<path d="M487.983 210.752H445.117V298.387H487.983V210.752Z" fill="white"/>
<path fill-rule="evenodd" clip-rule="evenodd" d="M444.648 210.283H488.45V298.854H444.648V210.283ZM445.584 211.219V297.918H487.514V211.219H445.584Z" fill="#959DA8"/>
<path fill-rule="evenodd" clip-rule="evenodd" d="M431.758 299.212V42.8506H432.544V299.212H431.758Z" fill="#959DA8"/>
<path d="M402.654 210.752H368.84V289.021H402.654V210.752Z" fill="white"/>
<path fill-rule="evenodd" clip-rule="evenodd" d="M368.445 210.358H403.046V289.414H368.445V210.358ZM369.232 211.145V288.627H402.26V211.145H369.232Z" fill="#959DA8"/>
<path fill-rule="evenodd" clip-rule="evenodd" d="M388.703 288.658V210.389H389.49V288.658H388.703Z" fill="#959DA8"/>
<path d="M402.654 88.8633H368.84V167.132H402.654V88.8633Z" fill="white"/>
<path fill-rule="evenodd" clip-rule="evenodd" d="M368.445 88.4697H403.046V167.525H368.445V88.4697ZM369.232 89.2561V166.739H402.26V89.2561H369.232Z" fill="#959DA8"/>
<path fill-rule="evenodd" clip-rule="evenodd" d="M388.703 166.768V88.499H389.49V166.768H388.703Z" fill="#959DA8"/>
<path d="M492.701 88.4619H458.887V130.14H492.701V88.4619Z" fill="white"/>
<path fill-rule="evenodd" clip-rule="evenodd" d="M458.496 88.0684H493.097V130.533H458.496V88.0684ZM459.282 88.8547V129.747H492.311V88.8547H459.282Z" fill="#959DA8"/>
<path fill-rule="evenodd" clip-rule="evenodd" d="M479.137 129.745V88.499H479.923V129.745H479.137Z" fill="#959DA8"/>
<path d="M519.44 312.58H431.758V397.903H519.44V312.58Z" fill="#D3DCE5"/>
<path fill-rule="evenodd" clip-rule="evenodd" d="M522.587 398.87H339.359V397.722H522.587V398.87Z" fill="#959DA8"/>
<path fill-rule="evenodd" clip-rule="evenodd" d="M341.715 18.6328L392.793 31.9573L392.809 31.9651L441.699 44.7219L441.723 44.7297L441.724 44.7301L490.604 57.4805L490.682 57.5019L490.69 57.5042L523.37 66.0303V299.998H341.715V18.6328ZM343.288 20.6698V298.425H521.797V67.2454L490.285 59.0238L490.276 59.0215L490.198 59.0002L490.19 58.9979L441.276 46.2384L441.251 46.2302L392.253 33.4455L392.237 33.4377L343.288 20.6698Z" fill="#959DA8"/>
<path fill-rule="evenodd" clip-rule="evenodd" d="M430.977 312.443L519.83 312.459V326.001H430.977V312.443ZM431.755 313.222V325.222H519.052V313.238L431.755 313.222Z" fill="#F4F5F6"/>
<path fill-rule="evenodd" clip-rule="evenodd" d="M430.977 325.205L519.83 325.229V338.77H430.977V325.205ZM431.755 325.984V337.992H519.052V326.007L431.755 325.984Z" fill="#F4F5F6"/>
<path fill-rule="evenodd" clip-rule="evenodd" d="M430.977 337.977L519.83 338V351.542H430.977V337.977ZM431.755 338.755V350.763H519.052V338.779L431.755 338.755Z" fill="#F4F5F6"/>
<path fill-rule="evenodd" clip-rule="evenodd" d="M430.977 350.747L519.83 350.763V364.304L430.977 364.312V350.747ZM431.755 351.526V363.534L519.052 363.526V351.541L431.755 351.526Z" fill="#F4F5F6"/>
<path fill-rule="evenodd" clip-rule="evenodd" d="M430.977 363.18L519.83 363.203V376.745H430.977V363.18ZM431.755 363.958V375.966H519.052V363.982L431.755 363.958Z" fill="#F4F5F6"/>
<path fill-rule="evenodd" clip-rule="evenodd" d="M430.977 375.951L519.83 375.967V389.516H430.977V375.951ZM431.755 376.73V388.738H519.052V376.745L431.755 376.73Z" fill="#F4F5F6"/>
<path fill-rule="evenodd" clip-rule="evenodd" d="M430.977 388.723L519.83 388.738V398.745H519.052V389.517L431.755 389.501V398.745H430.977V388.723Z" fill="white"/>
<path d="M403.306 312.194H369.609V385.399H403.306V312.194Z" fill="#D3DCE5"/>
<path d="M398.533 316.864H374.367V351.725H398.533V316.864Z" fill="white"/>
<path fill-rule="evenodd" clip-rule="evenodd" d="M373.973 316.472H398.925V352.119H373.973V316.472ZM374.759 317.258V351.332H398.138V317.258H374.759Z" fill="#959DA8"/>
<path d="M432.151 390.723H339.594V398.406H432.151V390.723Z" fill="#F4F5F6"/>
<path fill-rule="evenodd" clip-rule="evenodd" d="M339.02 390.148H432.725V398.98H339.02V390.148ZM340.168 391.297V397.831H431.577V391.297H340.168Z" fill="#959DA8"/>
<path d="M375.924 357.799C376.793 357.799 377.497 357.095 377.497 356.226C377.497 355.357 376.793 354.653 375.924 354.653C375.056 354.653 374.352 355.357 374.352 356.226C374.352 357.095 375.056 357.799 375.924 357.799Z" fill="white"/>
<path fill-rule="evenodd" clip-rule="evenodd" d="M375.923 355.046C375.272 355.046 374.743 355.574 374.743 356.226C374.743 356.877 375.272 357.405 375.923 357.405C376.574 357.405 377.103 356.877 377.103 356.226C377.103 355.574 376.574 355.046 375.923 355.046ZM373.957 356.226C373.957 355.14 374.837 354.26 375.923 354.26C377.009 354.26 377.889 355.14 377.889 356.226C377.889 357.312 377.009 358.192 375.923 358.192C374.837 358.192 373.957 357.312 373.957 356.226Z" fill="#959DA8"/>
<path d="M432.151 383.057H339.594V390.74H432.151V383.057Z" fill="#F4F5F6"/>
<path fill-rule="evenodd" clip-rule="evenodd" d="M339.02 382.482H432.725V391.314H339.02V382.482ZM340.168 383.631V390.165H431.577V383.631H340.168Z" fill="#959DA8"/>
<path d="M351.155 52.0981V69.9883L343.291 67.9044L252.857 43.9432L163.209 20.1865L154.559 17.8903V0L351.155 52.0981Z" fill="#D3DCE5"/>
<path d="M343.289 66.6379V299.211H163.207V19.6514L164.229 19.9187L213.221 32.6975L213.237 32.7054L262.182 45.4763L262.205 45.4841L311.103 58.2393L311.189 58.2629L343.289 66.6379Z" fill="#F4F5F6"/>
<path fill-rule="evenodd" clip-rule="evenodd" d="M162.422 18.6328L213.501 31.9573L213.516 31.9652L262.406 44.7219L262.43 44.7297L262.431 44.7301L311.311 57.4805L311.389 57.5019L311.397 57.5042L344.077 66.0303V299.998H162.422V18.6328ZM163.995 20.6698V298.425H342.504V67.2454L310.992 59.0238L310.983 59.0215L310.905 59.0002L310.897 58.9979L261.983 46.2384L261.958 46.2302L212.96 33.4455L212.944 33.4376L163.995 20.6698Z" fill="#959DA8"/>
<path d="M343.289 299.211H163.207V398.296H343.289V299.211Z" fill="#F4F5F6"/>
<path fill-rule="evenodd" clip-rule="evenodd" d="M162.633 298.637H343.863V398.869H162.633V298.637ZM163.781 299.785V397.721H342.715V299.785H163.781Z" fill="#959DA8"/>
<path d="M213.236 32.7056H162.773V19.9189H163.442L212.434 32.6977H213.22L213.236 32.7056Z" fill="#F4F5F6"/>
<path fill-rule="evenodd" clip-rule="evenodd" d="M162.379 19.5254H163.491L212.483 32.3042H213.312L214.899 33.0984H162.379V19.5254ZM209.397 32.312L163.39 20.3118H163.165V32.312H209.397Z" fill="#959DA8"/>
<path d="M252.854 43.2516V45.4771H162.773V32.6904H163.206L212.434 32.6983H213.22L213.236 32.7062H212.449L252.854 43.2516Z" fill="#F4F5F6"/>
<path fill-rule="evenodd" clip-rule="evenodd" d="M162.379 32.2969L213.312 32.3047L214.232 32.7649L253.246 42.9475V45.8699H162.379V32.2969ZM212.367 33.0911L163.165 33.0833V45.0835H252.459V43.555L212.367 33.0911Z" fill="#959DA8"/>
<path d="M252.854 45.4816V58.2368H162.773V45.458L236.489 45.4737L252.854 45.4816Z" fill="#F4F5F6"/>
<path fill-rule="evenodd" clip-rule="evenodd" d="M162.379 45.0645L253.246 45.0883V58.6297H162.379V45.0645ZM163.165 45.851V57.8433H252.459V45.8743L163.165 45.851Z" fill="#959DA8"/>
<path d="M224.206 58.2384L252.854 58.2462V71.0093H162.773V58.2227L224.206 58.2384Z" fill="#F4F5F6"/>
<path fill-rule="evenodd" clip-rule="evenodd" d="M162.379 57.8291L253.246 57.8529V71.4022H162.379V57.8291ZM163.165 58.6157V70.6158H252.459V58.6391L163.165 58.6157Z" fill="#959DA8"/>
<path d="M252.854 71.0197V83.7827H162.773V70.9961L224.206 71.0118L252.854 71.0197Z" fill="#F4F5F6"/>
<path fill-rule="evenodd" clip-rule="evenodd" d="M162.379 70.6025L253.246 70.6263V84.1757H162.379V70.6025ZM163.165 71.3891V83.3893H252.459V71.4125L163.165 71.3891Z" fill="#959DA8"/>
<path d="M236.489 83.7814H252.854V96.5523H162.773V83.7656H163.206L236.489 83.7814Z" fill="#F4F5F6"/>
<path fill-rule="evenodd" clip-rule="evenodd" d="M162.379 83.3721L253.246 83.3878V96.9451H162.379V83.3721ZM163.165 84.1585V96.1587H252.459V84.1742L163.165 84.1585Z" fill="#959DA8"/>
<path d="M163.206 96.1982L252.854 96.2218V108.985H162.773V96.1982H163.206Z" fill="#F4F5F6"/>
<path fill-rule="evenodd" clip-rule="evenodd" d="M162.379 95.8057L253.246 95.8294V109.379H162.379V95.8057ZM163.165 96.592V108.592H252.459V96.6155L163.165 96.592Z" fill="#959DA8"/>
<path d="M252.854 108.985V121.756H162.773V108.97L236.489 108.985H252.854Z" fill="#F4F5F6"/>
<path fill-rule="evenodd" clip-rule="evenodd" d="M162.379 108.576L253.246 108.592V122.149H162.379V108.576ZM163.165 109.363V121.363H252.459V109.378L163.165 109.363Z" fill="#959DA8"/>
<path d="M252.854 121.755V134.518H162.773V121.739L236.489 121.755H252.854Z" fill="#F4F5F6"/>
<path fill-rule="evenodd" clip-rule="evenodd" d="M162.379 121.347L253.246 121.362V134.912H162.379V121.347ZM163.165 122.133V134.126H252.459V122.149L163.165 122.133Z" fill="#959DA8"/>
<path d="M252.854 134.526V147.289H162.773V134.502L224.206 134.518L252.854 134.526Z" fill="#F4F5F6"/>
<path fill-rule="evenodd" clip-rule="evenodd" d="M162.379 134.108L253.246 134.132V147.682H162.379V134.108ZM163.165 134.895V146.895H252.459V134.918L163.165 134.895Z" fill="#959DA8"/>
<path d="M252.854 147.299V160.062H162.773V147.275L224.206 147.291L252.854 147.299Z" fill="#F4F5F6"/>
<path fill-rule="evenodd" clip-rule="evenodd" d="M162.379 146.882L253.246 146.906V160.455H162.379V146.882ZM163.165 147.668V159.669H252.459V147.692L163.165 147.668Z" fill="#959DA8"/>
<path d="M236.489 160.061H252.854V172.832H162.773V160.045H163.206L236.489 160.061Z" fill="#F4F5F6"/>
<path fill-rule="evenodd" clip-rule="evenodd" d="M162.379 159.651L253.246 159.667V173.224H162.379V159.651ZM163.165 160.438V172.438H252.459V160.453L163.165 160.438Z" fill="#959DA8"/>
<path d="M163.206 172.478L252.854 172.501V185.264H162.773V172.478H163.206Z" fill="#F4F5F6"/>
<path fill-rule="evenodd" clip-rule="evenodd" d="M162.379 172.085L253.246 172.109V185.658H162.379V172.085ZM163.165 172.871V184.872H252.459V172.895L163.165 172.871Z" fill="#959DA8"/>
<path d="M252.854 185.265V198.036H162.773V185.249L236.489 185.265H252.854Z" fill="#F4F5F6"/>
<path fill-rule="evenodd" clip-rule="evenodd" d="M162.379 184.856L253.246 184.872V198.43H162.379V184.856ZM163.165 185.643V197.643H252.459V185.659L163.165 185.643Z" fill="#959DA8"/>
<path d="M252.854 198.035V210.798H162.773V198.02L236.489 198.035H252.854Z" fill="#F4F5F6"/>
<path fill-rule="evenodd" clip-rule="evenodd" d="M162.379 197.626L253.246 197.642V211.191H162.379V197.626ZM163.165 198.413V210.405H252.459V198.428L163.165 198.413Z" fill="#959DA8"/>
<path d="M252.854 210.805V223.568H162.773V210.781L224.206 210.797L252.854 210.805Z" fill="#F4F5F6"/>
<path fill-rule="evenodd" clip-rule="evenodd" d="M162.379 210.388L253.246 210.411V223.961H162.379V210.388ZM163.165 211.174V223.174H252.459V211.198L163.165 211.174Z" fill="#959DA8"/>
<path d="M252.854 223.576V236.339H162.773V223.553L224.206 223.568L252.854 223.576Z" fill="#F4F5F6"/>
<path fill-rule="evenodd" clip-rule="evenodd" d="M162.379 223.159L253.246 223.183V236.732H162.379V223.159ZM163.165 223.946V235.946H252.459V223.969L163.165 223.946Z" fill="#959DA8"/>
<path d="M252.854 236.34V249.103L162.773 249.111V236.324L236.489 236.34H252.854Z" fill="#F4F5F6"/>
<path fill-rule="evenodd" clip-rule="evenodd" d="M162.379 235.931L253.246 235.946V249.496L162.379 249.504V235.931ZM163.165 236.717V248.717L252.459 248.71V236.733L163.165 236.717Z" fill="#959DA8"/>
<path d="M252.854 248.781V261.544H162.773V248.758L252.854 248.781Z" fill="#F4F5F6"/>
<path fill-rule="evenodd" clip-rule="evenodd" d="M162.379 248.364L253.246 248.388V261.937H162.379V248.364ZM163.165 249.151V261.151H252.459V249.174L163.165 249.151Z" fill="#959DA8"/>
<path d="M252.854 261.545V274.316H162.773V261.529L236.489 261.545H252.854Z" fill="#F4F5F6"/>
<path fill-rule="evenodd" clip-rule="evenodd" d="M162.379 261.136L253.246 261.152V274.709H162.379V261.136ZM163.165 261.922V273.922H252.459V261.938L163.165 261.922Z" fill="#959DA8"/>
<path d="M252.854 274.317V287.08H162.773V274.301L236.489 274.317H252.854Z" fill="#F4F5F6"/>
<path fill-rule="evenodd" clip-rule="evenodd" d="M162.379 273.907L253.246 273.923V287.472H162.379V273.907ZM163.165 274.694V286.686H252.459V274.709L163.165 274.694Z" fill="#959DA8"/>
<path d="M252.854 287.084V299.21H162.773V287.061L224.206 287.076L252.854 287.084Z" fill="#F4F5F6"/>
<path fill-rule="evenodd" clip-rule="evenodd" d="M162.379 286.668L253.246 286.692V299.604H162.379V286.668ZM163.165 287.455V298.818H252.459V287.478L163.165 287.455Z" fill="#959DA8"/>
<path d="M331.856 210.752H265.438V298.387H331.848L331.856 210.752Z" fill="white"/>
<path fill-rule="evenodd" clip-rule="evenodd" d="M264.855 210.17H332.438L332.43 298.969H264.855V210.17ZM266.019 211.334V297.805H331.266L331.274 211.334H266.019Z" fill="#959DA8"/>
<path d="M308.686 210.752H265.82V298.387H308.686V210.752Z" fill="white"/>
<path fill-rule="evenodd" clip-rule="evenodd" d="M265.355 210.283H309.157V298.854H265.355V210.283ZM266.291 211.219V297.918H308.221V211.219H266.291Z" fill="#959DA8"/>
<path fill-rule="evenodd" clip-rule="evenodd" d="M252.461 299.212V42.8506H253.247V299.212H252.461Z" fill="#959DA8"/>
<path d="M223.358 210.752H189.543V289.021H223.358V210.752Z" fill="white"/>
<path fill-rule="evenodd" clip-rule="evenodd" d="M189.148 210.358H223.749V289.414H189.148V210.358ZM189.935 211.145V288.627H222.963V211.145H189.935Z" fill="#959DA8"/>
<path fill-rule="evenodd" clip-rule="evenodd" d="M209.406 288.658V210.389H210.193V288.658H209.406Z" fill="#959DA8"/>
<path d="M223.358 88.8633H189.543V167.132H223.358V88.8633Z" fill="white"/>
<path fill-rule="evenodd" clip-rule="evenodd" d="M189.148 88.4697H223.749V167.525H189.148V88.4697ZM189.935 89.2561V166.739H222.963V89.2561H189.935Z" fill="#959DA8"/>
<path fill-rule="evenodd" clip-rule="evenodd" d="M209.406 166.768V88.499H210.193V166.768H209.406Z" fill="#959DA8"/>
<path d="M313.408 88.4619H279.594V130.14H313.408V88.4619Z" fill="white"/>
<path fill-rule="evenodd" clip-rule="evenodd" d="M279.199 88.0684H313.8V130.533H279.199V88.0684ZM279.986 88.8547V129.747H313.014V88.8547H279.986Z" fill="#959DA8"/>
<path fill-rule="evenodd" clip-rule="evenodd" d="M299.84 129.745V88.499H300.626V129.745H299.84Z" fill="#959DA8"/>
<path d="M340.143 312.58H252.461V397.903H340.143V312.58Z" fill="#D3DCE5"/>
<path fill-rule="evenodd" clip-rule="evenodd" d="M343.29 398.87H160.062V397.722H343.29V398.87Z" fill="#959DA8"/>
<path fill-rule="evenodd" clip-rule="evenodd" d="M162.422 18.6328L213.501 31.9573L213.516 31.9652L262.406 44.7219L262.43 44.7297L262.431 44.7301L311.311 57.4805L311.389 57.5019L311.397 57.5042L344.077 66.0303V299.998H162.422V18.6328ZM163.995 20.6698V298.425H342.504V67.2454L310.992 59.0238L310.983 59.0215L310.905 59.0002L310.897 58.9979L261.983 46.2384L261.958 46.2302L212.96 33.4455L212.944 33.4376L163.995 20.6698Z" fill="#959DA8"/>
<path d="M341.244 255.568V299.213H333.727L333.734 255.568H341.244Z" fill="#F4F5F6"/>
<path fill-rule="evenodd" clip-rule="evenodd" d="M333.34 255.175H341.636V299.606H333.332L333.34 255.175ZM334.126 255.961L334.119 298.819H340.85V255.961H334.126Z" fill="#959DA8"/>
<path d="M349.109 255.568H341.426V299.213H349.109V255.568Z" fill="#F4F5F6"/>
<path fill-rule="evenodd" clip-rule="evenodd" d="M341.031 255.175H349.501V299.606H341.031V255.175ZM341.818 255.961V298.819H348.714V255.961H341.818Z" fill="#959DA8"/>
<path d="M262.604 255.568V299.213H255.086L255.094 255.568H262.604Z" fill="#F4F5F6"/>
<path fill-rule="evenodd" clip-rule="evenodd" d="M254.703 255.175H263V299.606H254.695L254.703 255.175ZM255.49 255.961L255.482 298.819H262.213V255.961H255.49Z" fill="#959DA8"/>
<path d="M254.744 255.568V299.213H247.227L247.234 255.568H254.744Z" fill="#F4F5F6"/>
<path fill-rule="evenodd" clip-rule="evenodd" d="M246.84 255.175H255.136V299.606H246.832L246.84 255.175ZM247.626 255.961L247.619 298.819H254.35V255.961H247.626Z" fill="#959DA8"/>
<path d="M270.468 255.568H262.785V299.213H270.468V255.568Z" fill="#F4F5F6"/>
<path fill-rule="evenodd" clip-rule="evenodd" d="M262.395 255.175H270.864V299.606H262.395V255.175ZM263.181 255.961V298.819H270.078V255.961H263.181Z" fill="#959DA8"/>
<path d="M278.331 255.568H270.648V299.213H278.331V255.568Z" fill="#F4F5F6"/>
<path fill-rule="evenodd" clip-rule="evenodd" d="M270.258 255.175H278.727V299.606H270.258V255.175ZM271.044 255.961V298.819H277.941V255.961H271.044Z" fill="#959DA8"/>
<path d="M286.195 255.568H278.512V299.213H286.195V255.568Z" fill="#F4F5F6"/>
<path fill-rule="evenodd" clip-rule="evenodd" d="M278.121 255.175H286.59V299.606H278.121V255.175ZM278.907 255.961V298.819H285.804V255.961H278.907Z" fill="#959DA8"/>
<path d="M294.062 255.568H286.379V299.213H294.062V255.568Z" fill="#F4F5F6"/>
<path fill-rule="evenodd" clip-rule="evenodd" d="M285.984 255.175H294.454V299.606H285.984V255.175ZM286.771 255.961V298.819H293.667V255.961H286.771Z" fill="#959DA8"/>
<path d="M301.925 255.568H294.242V299.213H301.925V255.568Z" fill="#F4F5F6"/>
<path fill-rule="evenodd" clip-rule="evenodd" d="M293.848 255.175H302.317V299.606H293.848V255.175ZM294.634 255.961V298.819H301.531V255.961H294.634Z" fill="#959DA8"/>
<path d="M309.788 255.568H302.105V299.213H309.788V255.568Z" fill="#F4F5F6"/>
<path fill-rule="evenodd" clip-rule="evenodd" d="M301.711 255.175H310.18V299.606H301.711V255.175ZM302.497 255.961V298.819H309.394V255.961H302.497Z" fill="#959DA8"/>
<path d="M317.652 255.568H309.969V299.213H317.652V255.568Z" fill="#F4F5F6"/>
<path fill-rule="evenodd" clip-rule="evenodd" d="M309.574 255.175H318.044V299.606H309.574V255.175ZM310.361 255.961V298.819H317.257V255.961H310.361Z" fill="#959DA8"/>
<path d="M325.519 255.568H317.836V299.213H325.519V255.568Z" fill="#F4F5F6"/>
<path fill-rule="evenodd" clip-rule="evenodd" d="M317.441 255.175H325.911V299.606H317.441V255.175ZM318.228 255.961V298.819H325.124V255.961H318.228Z" fill="#959DA8"/>
<path d="M333.378 255.568H325.695V299.213H333.378V255.568Z" fill="#F4F5F6"/>
<path fill-rule="evenodd" clip-rule="evenodd" d="M325.301 255.175H333.77V299.606H325.301V255.175ZM326.087 255.961V298.819H332.984V255.961H326.087Z" fill="#959DA8"/>
<path fill-rule="evenodd" clip-rule="evenodd" d="M246.777 255.174H349.582V299.998H246.777V255.174ZM248.35 256.747V298.425H348.009V256.747H248.35Z" fill="#959DA8"/>
<path fill-rule="evenodd" clip-rule="evenodd" d="M251.68 312.443L340.533 312.459V326.001H251.68V312.443ZM252.458 313.222V325.222H339.755V313.238L252.458 313.222Z" fill="#F4F5F6"/>
<path fill-rule="evenodd" clip-rule="evenodd" d="M251.68 325.205L340.533 325.229V338.77H251.68V325.205ZM252.458 325.984V337.992H339.755V326.007L252.458 325.984Z" fill="#F4F5F6"/>
<path fill-rule="evenodd" clip-rule="evenodd" d="M251.68 337.977L340.533 338V351.542H251.68V337.977ZM252.458 338.755V350.763H339.755V338.779L252.458 338.755Z" fill="#F4F5F6"/>
<path fill-rule="evenodd" clip-rule="evenodd" d="M251.68 350.747L340.533 350.763V364.304L251.68 364.312V350.747ZM252.458 351.526V363.534L339.755 363.526V351.541L252.458 351.526Z" fill="#F4F5F6"/>
<path fill-rule="evenodd" clip-rule="evenodd" d="M251.68 363.18L340.533 363.203V376.745H251.68V363.18ZM252.458 363.958V375.966H339.755V363.982L252.458 363.958Z" fill="#F4F5F6"/>
<path fill-rule="evenodd" clip-rule="evenodd" d="M251.68 375.951L340.533 375.967V389.516H251.68V375.951ZM252.458 376.73V388.738H339.755V376.745L252.458 376.73Z" fill="#F4F5F6"/>
<path fill-rule="evenodd" clip-rule="evenodd" d="M251.68 388.723L340.533 388.738V398.745H339.755V389.517L252.458 389.501V398.745H251.68V388.723Z" fill="#F4F5F6"/>
<path d="M224.009 312.194H190.312V385.399H224.009V312.194Z" fill="#D3DCE5"/>
<path d="M219.236 316.864H195.07V351.725H219.236V316.864Z" fill="white"/>
<path fill-rule="evenodd" clip-rule="evenodd" d="M194.68 316.472H219.632V352.119H194.68V316.472ZM195.466 317.258V351.332H218.845V317.258H195.466Z" fill="#959DA8"/>
<path d="M252.854 390.723H160.297V398.406H252.854V390.723Z" fill="#F4F5F6"/>
<path fill-rule="evenodd" clip-rule="evenodd" d="M159.723 390.148H253.428V398.98H159.723V390.148ZM160.871 391.297V397.831H252.28V391.297H160.871Z" fill="#959DA8"/>
<path d="M196.627 357.799C197.496 357.799 198.2 357.095 198.2 356.226C198.2 355.357 197.496 354.653 196.627 354.653C195.759 354.653 195.055 355.357 195.055 356.226C195.055 357.095 195.759 357.799 196.627 357.799Z" fill="white"/>
<path fill-rule="evenodd" clip-rule="evenodd" d="M196.626 355.046C195.975 355.046 195.447 355.574 195.447 356.226C195.447 356.877 195.975 357.405 196.626 357.405C197.278 357.405 197.806 356.877 197.806 356.226C197.806 355.574 197.278 355.046 196.626 355.046ZM194.66 356.226C194.66 355.14 195.54 354.26 196.626 354.26C197.712 354.26 198.592 355.14 198.592 356.226C198.592 357.312 197.712 358.192 196.626 358.192C195.54 358.192 194.66 357.312 194.66 356.226Z" fill="#959DA8"/>
<path d="M252.854 383.057H160.297V390.74H252.854V383.057Z" fill="#F4F5F6"/>
<path fill-rule="evenodd" clip-rule="evenodd" d="M159.723 382.482H253.428V391.314H159.723V382.482ZM160.871 383.631V390.165H252.28V383.631H160.871Z" fill="#959DA8"/>
<path d="M869.383 396.385C869.376 394.635 869.79 392.909 870.591 391.352C871.392 389.796 872.556 388.456 873.985 387.445C875.413 386.433 877.065 385.781 878.799 385.543C880.533 385.304 882.298 385.487 883.947 386.076C884.584 383.511 885.874 381.154 887.692 379.235C889.51 377.316 891.794 375.901 894.321 375.127C896.848 374.352 899.533 374.246 902.114 374.817C904.694 375.387 907.083 376.617 909.048 378.385C910.436 374.504 913.149 371.237 916.708 369.16C920.268 367.083 924.447 366.328 928.508 367.03C932.57 367.731 936.254 369.842 938.911 372.993C941.568 376.143 943.029 380.13 943.036 384.251C943.038 384.861 943.007 385.47 942.941 386.076C944.126 385.643 945.377 385.422 946.637 385.423C952.693 385.423 957.961 390.338 957.576 396.362C957.521 397.355 957.354 398.339 957.081 399.295H869.792C869.528 398.34 869.396 397.353 869.399 396.362L869.383 396.385Z" fill="#80C33F"/>
<path d="M696.377 267.992C696.384 266.241 695.97 264.515 695.169 262.959C694.368 261.403 693.204 260.062 691.775 259.051C690.347 258.04 688.696 257.387 686.962 257.149C685.228 256.911 683.462 257.094 681.813 257.682C681.176 255.117 679.886 252.76 678.068 250.842C676.25 248.923 673.966 247.508 671.439 246.733C668.912 245.959 666.227 245.852 663.646 246.423C661.066 246.994 658.677 248.223 656.712 249.991C655.324 246.111 652.611 242.844 649.052 240.767C645.492 238.689 641.313 237.935 637.252 238.636C633.19 239.337 629.506 241.449 626.849 244.599C624.192 247.749 622.731 251.736 622.724 255.858C622.722 256.467 622.754 257.076 622.819 257.682C621.634 257.25 620.383 257.029 619.123 257.03C613.067 257.03 607.799 261.944 608.184 267.968C608.239 268.961 608.406 269.945 608.679 270.901H695.968C696.232 269.946 696.364 268.959 696.361 267.968L696.377 267.992Z" fill="#80C33F"/>
<path d="M420.354 368.227C420.709 368.23 421.062 368.193 421.408 368.117C437.513 364.453 437.521 344.942 437.521 344.942C437.521 318.355 420.362 305.025 420.362 305.025C420.362 305.025 403.195 318.323 403.195 344.942C403.195 344.942 403.195 364.476 419.3 368.117C419.647 368.193 420 368.23 420.354 368.227Z" fill="#80C33F"/>
<path fill-rule="evenodd" clip-rule="evenodd" d="M420.354 330.863C420.571 330.863 420.747 331.039 420.747 331.256V397.62C420.747 397.837 420.571 398.013 420.354 398.013C420.137 398.013 419.961 397.837 419.961 397.62V331.256C419.961 331.039 420.137 330.863 420.354 330.863Z" fill="#2A3A51"/>
<path d="M724.488 351.686C724.98 349.213 724.956 346.664 724.417 344.2C723.888 341.761 722.848 339.461 721.366 337.453C719.924 335.493 718.062 333.881 715.916 332.735C713.82 331.614 711.49 331.003 709.114 330.953C706.737 330.902 704.383 331.413 702.241 332.444C700.058 333.495 698.139 335.025 696.626 336.918C695.072 338.862 693.949 341.113 693.331 343.524C692.702 345.966 692.584 348.512 692.985 351.002C691.209 351.932 689.657 353.239 688.44 354.832C687.191 356.465 686.294 358.339 685.806 360.337C685.307 362.357 685.222 364.456 685.554 366.51C685.882 368.548 686.627 370.497 687.74 372.235C688.823 373.933 690.261 375.376 691.955 376.465C693.617 377.531 695.499 378.204 697.46 378.431C699.401 378.656 701.368 378.43 703.208 377.771C705.077 377.103 706.775 376.029 708.178 374.625C709.537 376.009 711.178 377.082 712.991 377.771C714.77 378.447 716.678 378.715 718.574 378.557C720.476 378.383 722.316 377.79 723.961 376.819C725.643 375.824 727.096 374.484 728.223 372.887C729.379 371.253 730.195 369.402 730.622 367.446C731.056 365.471 731.099 363.429 730.748 361.438C730.402 359.461 729.664 357.573 728.577 355.886C727.526 354.213 726.133 352.781 724.488 351.686Z" fill="#80C33F"/>
<path fill-rule="evenodd" clip-rule="evenodd" d="M701.073 361.18C701.199 361.003 701.444 360.962 701.621 361.088L709.021 366.356C709.198 366.482 709.239 366.728 709.113 366.905C708.987 367.082 708.742 367.123 708.565 366.997L701.165 361.728C700.988 361.602 700.947 361.357 701.073 361.18Z" fill="#2A3A51"/>
<path fill-rule="evenodd" clip-rule="evenodd" d="M717.733 365.129C717.879 365.289 717.867 365.538 717.706 365.684L709.056 373.548C708.895 373.694 708.647 373.682 708.501 373.522C708.355 373.361 708.366 373.112 708.527 372.966L717.177 365.102C717.338 364.956 717.587 364.968 717.733 365.129Z" fill="#2A3A51"/>
<path fill-rule="evenodd" clip-rule="evenodd" d="M708.792 350.47C709.009 350.47 709.185 350.646 709.185 350.863V398.298C709.185 398.515 709.009 398.691 708.792 398.691C708.574 398.691 708.398 398.515 708.398 398.298V350.863C708.398 350.646 708.574 350.47 708.792 350.47Z" fill="#2A3A51"/>
<path d="M454.172 269.532C454.481 269.534 454.79 269.502 455.092 269.437C469.247 266.221 469.247 249.141 469.247 249.141C469.371 238.717 466.061 228.541 459.826 220.186C459.166 219.313 458.313 218.605 457.333 218.117C456.353 217.63 455.274 217.376 454.18 217.376C453.085 217.376 452.006 217.63 451.026 218.117C450.047 218.605 449.193 219.313 448.533 220.186C442.315 228.533 439.013 238.693 439.136 249.101C439.136 249.101 439.136 266.221 453.244 269.406C453.546 269.471 453.855 269.502 454.164 269.5L454.172 269.532Z" fill="#80C33F"/>
<path fill-rule="evenodd" clip-rule="evenodd" d="M454.171 236.742C454.388 236.742 454.564 236.918 454.564 237.135V295.281C454.564 295.498 454.388 295.674 454.171 295.674C453.953 295.674 453.777 295.498 453.777 295.281V237.135C453.777 236.918 453.953 236.742 454.171 236.742Z" fill="#2A3A51"/>
<path d="M520.541 255.568V299.213H513.023L513.031 255.568H520.541Z" fill="#F4F5F6"/>
<path fill-rule="evenodd" clip-rule="evenodd" d="M512.637 255.175H520.933V299.606H512.629L512.637 255.175ZM513.423 255.961L513.415 298.819H520.147V255.961H513.423Z" fill="#959DA8"/>
<path d="M528.402 255.568H520.719V299.213H528.402V255.568Z" fill="#F4F5F6"/>
<path fill-rule="evenodd" clip-rule="evenodd" d="M520.328 255.175H528.798V299.606H520.328V255.175ZM521.115 255.961V298.819H528.011V255.961H521.115Z" fill="#959DA8"/>
<path d="M441.901 255.568V299.213H434.383L434.391 255.568H441.901Z" fill="#F4F5F6"/>
<path fill-rule="evenodd" clip-rule="evenodd" d="M433.996 255.175H442.293V299.606H433.988L433.996 255.175ZM434.782 255.961L434.775 298.819H441.506V255.961H434.782Z" fill="#959DA8"/>
<path d="M434.037 255.568V299.213H426.52L426.527 255.568H434.037Z" fill="#F4F5F6"/>
<path fill-rule="evenodd" clip-rule="evenodd" d="M426.137 255.175H434.433V299.606H426.129L426.137 255.175ZM426.923 255.961L426.915 298.819H433.647V255.961H426.923Z" fill="#959DA8"/>
<path d="M449.765 255.568H442.082V299.213H449.765V255.568Z" fill="#F4F5F6"/>
<path fill-rule="evenodd" clip-rule="evenodd" d="M441.688 255.175H450.157V299.606H441.688V255.175ZM442.474 255.961V298.819H449.371V255.961H442.474Z" fill="#959DA8"/>
<path d="M457.628 255.568H449.945V299.213H457.628V255.568Z" fill="#F4F5F6"/>
<path fill-rule="evenodd" clip-rule="evenodd" d="M449.551 255.175H458.02V299.606H449.551V255.175ZM450.337 255.961V298.819H457.234V255.961H450.337Z" fill="#959DA8"/>
<path d="M465.492 255.568H457.809V299.213H465.492V255.568Z" fill="#F4F5F6"/>
<path fill-rule="evenodd" clip-rule="evenodd" d="M457.418 255.175H465.887V299.606H457.418V255.175ZM458.204 255.961V298.819H465.101V255.961H458.204Z" fill="#959DA8"/>
<path d="M473.359 255.568H465.676V299.213H473.359V255.568Z" fill="#F4F5F6"/>
<path fill-rule="evenodd" clip-rule="evenodd" d="M465.281 255.175H473.751V299.606H465.281V255.175ZM466.068 255.961V298.819H472.964V255.961H466.068Z" fill="#959DA8"/>
<path d="M481.222 255.568H473.539V299.213H481.222V255.568Z" fill="#F4F5F6"/>
<path fill-rule="evenodd" clip-rule="evenodd" d="M473.145 255.175H481.614V299.606H473.145V255.175ZM473.931 255.961V298.819H480.828V255.961H473.931Z" fill="#959DA8"/>
<path d="M489.085 255.568H481.402V299.213H489.085V255.568Z" fill="#F4F5F6"/>
<path fill-rule="evenodd" clip-rule="evenodd" d="M481.008 255.175H489.477V299.606H481.008V255.175ZM481.794 255.961V298.819H488.691V255.961H481.794Z" fill="#959DA8"/>
<path d="M496.949 255.568H489.266V299.213H496.949V255.568Z" fill="#F4F5F6"/>
<path fill-rule="evenodd" clip-rule="evenodd" d="M488.871 255.175H497.34V299.606H488.871V255.175ZM489.657 255.961V298.819H496.554V255.961H489.657Z" fill="#959DA8"/>
<path d="M504.812 255.568H497.129V299.213H504.812V255.568Z" fill="#F4F5F6"/>
<path fill-rule="evenodd" clip-rule="evenodd" d="M496.738 255.175H505.208V299.606H496.738V255.175ZM497.525 255.961V298.819H504.421V255.961H497.525Z" fill="#959DA8"/>
<path d="M512.675 255.568H504.992V299.213H512.675V255.568Z" fill="#F4F5F6"/>
<path fill-rule="evenodd" clip-rule="evenodd" d="M504.598 255.175H513.067V299.606H504.598V255.175ZM505.384 255.961V298.819H512.281V255.961H505.384Z" fill="#959DA8"/>
<path fill-rule="evenodd" clip-rule="evenodd" d="M426.07 255.174H528.874V299.998H426.07V255.174ZM427.643 256.747V298.425H527.302V256.747H427.643Z" fill="#959DA8"/>
<path d="M171.069 52.0981V69.9883L163.205 67.9044L72.7709 43.9432L-16.8771 20.1865L-25.5273 17.8903V0L171.069 52.0981Z" fill="#D3DCE5"/>
<path d="M163.207 66.6379V299.211H-16.875V19.6514L-15.8527 19.9187L33.1391 32.6975L33.1548 32.7054L82.0995 45.4763L82.1231 45.4841L131.021 58.2393L131.107 58.2629L163.207 66.6379Z" fill="#F4F5F6"/>
<path d="M163.207 299.211H-16.875V398.296H163.207V299.211Z" fill="#F4F5F6"/>
<path fill-rule="evenodd" clip-rule="evenodd" d="M-17.4492 298.637H163.781V398.869H-17.4492V298.637ZM-16.3011 299.785V397.721H162.633V299.785H-16.3011Z" fill="#959DA8"/>
<path d="M33.1538 32.7056H-17.3086V19.9189H-16.6402L32.3517 32.6977H33.1381L33.1538 32.7056Z" fill="#F4F5F6"/>
<path fill-rule="evenodd" clip-rule="evenodd" d="M-17.6992 19.5254H-16.5872L32.4047 32.3042H33.2335L34.8214 33.0984H-17.6992V19.5254ZM29.3191 32.312L-16.688 20.3118H-16.9128V32.312H29.3191Z" fill="#959DA8"/>
<path d="M72.7719 43.2516V45.4771H-17.3086V32.6904H-16.8761L32.3517 32.6983H33.1381L33.1538 32.7062H32.3674L72.7719 43.2516Z" fill="#F4F5F6"/>
<path fill-rule="evenodd" clip-rule="evenodd" d="M-17.6992 32.2969L33.2335 32.3047L34.1535 32.7649L73.1676 42.9475V45.8699H-17.6992V32.2969ZM32.2893 33.0911L-16.9128 33.0833V45.0835H72.3813V43.555L32.2893 33.0911Z" fill="#959DA8"/>
<path d="M72.7719 45.4816V58.2368H-17.3086V45.458L56.4072 45.4737L72.7719 45.4816Z" fill="#F4F5F6"/>
<path fill-rule="evenodd" clip-rule="evenodd" d="M-17.6992 45.0645L73.1676 45.0883V58.6297H-17.6992V45.0645ZM-16.9128 45.851V57.8433H72.3813V45.8743L-16.9128 45.851Z" fill="#959DA8"/>
<path d="M44.1239 58.2384L72.7719 58.2462V71.0093H-17.3086V58.2227L44.1239 58.2384Z" fill="#F4F5F6"/>
<path fill-rule="evenodd" clip-rule="evenodd" d="M-17.6992 57.8291L73.1676 57.8529V71.4022H-17.6992V57.8291ZM-16.9128 58.6157V70.6158H72.3813V58.6391L-16.9128 58.6157Z" fill="#959DA8"/>
<path d="M72.7719 71.0197V83.7827H-17.3086V70.9961L44.1239 71.0118L72.7719 71.0197Z" fill="#F4F5F6"/>
<path fill-rule="evenodd" clip-rule="evenodd" d="M-17.6992 70.6025L73.1676 70.6263V84.1757H-17.6992V70.6025ZM-16.9128 71.3891V83.3893H72.3813V71.4125L-16.9128 71.3891Z" fill="#959DA8"/>
<path d="M56.4072 83.7814H72.7719V96.5523H-17.3086V83.7656H-16.8761L56.4072 83.7814Z" fill="#F4F5F6"/>
<path fill-rule="evenodd" clip-rule="evenodd" d="M-17.6992 83.3721L73.1676 83.3878V96.9451H-17.6992V83.3721ZM-16.9128 84.1585V96.1587H72.3813V84.1742L-16.9128 84.1585Z" fill="#959DA8"/>
<path d="M-16.8761 96.1982L72.7719 96.2218V108.985H-17.3086V96.1982H-16.8761Z" fill="#F4F5F6"/>
<path fill-rule="evenodd" clip-rule="evenodd" d="M-17.6992 95.8057L73.1676 95.8294V109.379H-17.6992V95.8057ZM-16.9128 96.592V108.592H72.3813V96.6155L-16.9128 96.592Z" fill="#959DA8"/>
<path d="M72.7719 108.985V121.756H-17.3086V108.97L56.4072 108.985H72.7719Z" fill="#F4F5F6"/>
<path fill-rule="evenodd" clip-rule="evenodd" d="M-17.6992 108.576L73.1676 108.592V122.149H-17.6992V108.576ZM-16.9128 109.363V121.363H72.3813V109.378L-16.9128 109.363Z" fill="#959DA8"/>
<path d="M72.7719 121.755V134.518H-17.3086V121.739L56.4072 121.755H72.7719Z" fill="#F4F5F6"/>
<path fill-rule="evenodd" clip-rule="evenodd" d="M-17.6992 121.347L73.1676 121.362V134.912H-17.6992V121.347ZM-16.9128 122.133V134.126H72.3813V122.149L-16.9128 122.133Z" fill="#959DA8"/>
<path d="M72.7719 134.526V147.289H-17.3086V134.502L44.1239 134.518L72.7719 134.526Z" fill="#F4F5F6"/>
<path fill-rule="evenodd" clip-rule="evenodd" d="M-17.6992 134.108L73.1676 134.132V147.682H-17.6992V134.108ZM-16.9128 134.895V146.895H72.3813V134.918L-16.9128 134.895Z" fill="#959DA8"/>
<path d="M72.7719 147.299V160.062H-17.3086V147.275L44.1239 147.291L72.7719 147.299Z" fill="#F4F5F6"/>
<path fill-rule="evenodd" clip-rule="evenodd" d="M-17.6992 146.882L73.1676 146.906V160.455H-17.6992V146.882ZM-16.9128 147.668V159.669H72.3813V147.692L-16.9128 147.668Z" fill="#959DA8"/>
<path d="M56.4072 160.061H72.7719V172.832H-17.3086V160.045H-16.8761L56.4072 160.061Z" fill="#F4F5F6"/>
<path fill-rule="evenodd" clip-rule="evenodd" d="M-17.6992 159.651L73.1676 159.667V173.224H-17.6992V159.651ZM-16.9128 160.438V172.438H72.3813V160.453L-16.9128 160.438Z" fill="#959DA8"/>
<path d="M-16.8761 172.478L72.7719 172.501V185.264H-17.3086V172.478H-16.8761Z" fill="#F4F5F6"/>
<path fill-rule="evenodd" clip-rule="evenodd" d="M-17.6992 172.085L73.1676 172.109V185.658H-17.6992V172.085ZM-16.9128 172.871V184.872H72.3813V172.895L-16.9128 172.871Z" fill="#959DA8"/>
<path d="M72.7719 185.265V198.036H-17.3086V185.249L56.4072 185.265H72.7719Z" fill="#F4F5F6"/>
<path fill-rule="evenodd" clip-rule="evenodd" d="M-17.6992 184.856L73.1676 184.872V198.43H-17.6992V184.856ZM-16.9128 185.643V197.643H72.3813V185.659L-16.9128 185.643Z" fill="#959DA8"/>
<path d="M72.7719 198.035V210.798H-17.3086V198.02L56.4072 198.035H72.7719Z" fill="#F4F5F6"/>
<path fill-rule="evenodd" clip-rule="evenodd" d="M-17.6992 197.626L73.1676 197.642V211.191H-17.6992V197.626ZM-16.9128 198.413V210.405H72.3813V198.428L-16.9128 198.413Z" fill="#959DA8"/>
<path d="M72.7719 210.805V223.568H-17.3086V210.781L44.1239 210.797L72.7719 210.805Z" fill="#F4F5F6"/>
<path fill-rule="evenodd" clip-rule="evenodd" d="M-17.6992 210.388L73.1676 210.411V223.961H-17.6992V210.388ZM-16.9128 211.174V223.174H72.3813V211.198L-16.9128 211.174Z" fill="#959DA8"/>
<path d="M72.7719 223.576V236.339H-17.3086V223.553L44.1239 223.568L72.7719 223.576Z" fill="#F4F5F6"/>
<path fill-rule="evenodd" clip-rule="evenodd" d="M-17.6992 223.159L73.1676 223.183V236.732H-17.6992V223.159ZM-16.9128 223.946V235.946H72.3813V223.969L-16.9128 223.946Z" fill="#959DA8"/>
<path d="M72.7719 236.34V249.103L-17.3086 249.111V236.324L56.4072 236.34H72.7719Z" fill="#F4F5F6"/>
<path fill-rule="evenodd" clip-rule="evenodd" d="M-17.6992 235.931L73.1676 235.946V249.496L-17.6992 249.504V235.931ZM-16.9128 236.717V248.717L72.3813 248.71V236.733L-16.9128 236.717Z" fill="#959DA8"/>
<path d="M72.7719 248.781V261.544H-17.3086V248.758L72.7719 248.781Z" fill="#F4F5F6"/>
<path fill-rule="evenodd" clip-rule="evenodd" d="M-17.6992 248.364L73.1676 248.388V261.937H-17.6992V248.364ZM-16.9128 249.151V261.151H72.3813V249.174L-16.9128 249.151Z" fill="#959DA8"/>
<path d="M72.7719 261.545V274.316H-17.3086V261.529L56.4072 261.545H72.7719Z" fill="#F4F5F6"/>
<path fill-rule="evenodd" clip-rule="evenodd" d="M-17.6992 261.136L73.1676 261.152V274.709H-17.6992V261.136ZM-16.9128 261.922V273.922H72.3813V261.938L-16.9128 261.922Z" fill="#959DA8"/>
<path d="M72.7719 274.317V287.08H-17.3086V274.301L56.4072 274.317H72.7719Z" fill="#F4F5F6"/>
<path fill-rule="evenodd" clip-rule="evenodd" d="M-17.6992 273.907L73.1676 273.923V287.472H-17.6992V273.907ZM-16.9128 274.694V286.686H72.3813V274.709L-16.9128 274.694Z" fill="#959DA8"/>
<path d="M72.7719 287.084V299.21H-17.3086V287.061L44.1239 287.076L72.7719 287.084Z" fill="#F4F5F6"/>
<path fill-rule="evenodd" clip-rule="evenodd" d="M-17.6992 286.668L73.1676 286.692V299.604H-17.6992V286.668ZM-16.9128 287.455V298.818H72.3813V287.478L-16.9128 287.455Z" fill="#959DA8"/>
<path d="M151.774 210.752H85.3555V298.387H151.766L151.774 210.752Z" fill="white"/>
<path fill-rule="evenodd" clip-rule="evenodd" d="M84.7734 210.17H152.355L152.348 298.969H84.7734V210.17ZM85.9373 211.334V297.805H151.184L151.192 211.334H85.9373Z" fill="#959DA8"/>
<path d="M128.604 210.752H85.7383V298.387H128.604V210.752Z" fill="white"/>
<path fill-rule="evenodd" clip-rule="evenodd" d="M85.2695 210.283H129.071V298.854H85.2695V210.283ZM86.2053 211.219V297.918H128.135V211.219H86.2053Z" fill="#959DA8"/>
<path fill-rule="evenodd" clip-rule="evenodd" d="M72.3789 299.212V42.8506H73.1653V299.212H72.3789Z" fill="#959DA8"/>
<path d="M43.2755 210.752H9.46094V289.021H43.2755V210.752Z" fill="white"/>
<path fill-rule="evenodd" clip-rule="evenodd" d="M9.06641 210.358H43.6674V289.414H9.06641V210.358ZM9.85279 211.145V288.627H42.881V211.145H9.85279Z" fill="#959DA8"/>
<path fill-rule="evenodd" clip-rule="evenodd" d="M29.3242 288.658V210.389H30.1106V288.658H29.3242Z" fill="#959DA8"/>
<path d="M43.2755 88.8633H9.46094V167.132H43.2755V88.8633Z" fill="white"/>
<path fill-rule="evenodd" clip-rule="evenodd" d="M9.06641 88.4697H43.6674V167.525H9.06641V88.4697ZM9.85279 89.2561V166.739H42.881V89.2561H9.85279Z" fill="#959DA8"/>
<path fill-rule="evenodd" clip-rule="evenodd" d="M29.3242 166.768V88.499H30.1106V166.768H29.3242Z" fill="#959DA8"/>
<path d="M133.326 88.4619H99.5117V130.14H133.326V88.4619Z" fill="white"/>
<path fill-rule="evenodd" clip-rule="evenodd" d="M99.1172 88.0684H133.718V130.533H99.1172V88.0684ZM99.9036 88.8547V129.747H132.932V88.8547H99.9036Z" fill="#959DA8"/>
<path fill-rule="evenodd" clip-rule="evenodd" d="M119.758 129.745V88.499H120.544V129.745H119.758Z" fill="#959DA8"/>
<path d="M160.061 312.58H72.3789V397.903H160.061V312.58Z" fill="#D3DCE5"/>
<path fill-rule="evenodd" clip-rule="evenodd" d="M163.208 398.87H-20.0195V397.722H163.208V398.87Z" fill="#959DA8"/>
<path fill-rule="evenodd" clip-rule="evenodd" d="M71.5977 312.443L160.451 312.459V326.001H71.5977V312.443ZM72.3762 313.222V325.222H159.673V313.238L72.3762 313.222Z" fill="#F4F5F6"/>
<path fill-rule="evenodd" clip-rule="evenodd" d="M71.5977 325.205L160.451 325.229V338.77H71.5977V325.205ZM72.3762 325.984V337.992H159.673V326.007L72.3762 325.984Z" fill="#F4F5F6"/>
<path fill-rule="evenodd" clip-rule="evenodd" d="M71.5977 337.977L160.451 338V351.542H71.5977V337.977ZM72.3762 338.755V350.763H159.673V338.779L72.3762 338.755Z" fill="#F4F5F6"/>
<path fill-rule="evenodd" clip-rule="evenodd" d="M71.5977 350.747L160.451 350.763V364.304L71.5977 364.312V350.747ZM72.3762 351.526V363.534L159.673 363.526V351.541L72.3762 351.526Z" fill="#F4F5F6"/>
<path fill-rule="evenodd" clip-rule="evenodd" d="M71.5977 363.18L160.451 363.203V376.745H71.5977V363.18ZM72.3762 363.958V375.966H159.673V363.982L72.3762 363.958Z" fill="#F4F5F6"/>
<path fill-rule="evenodd" clip-rule="evenodd" d="M71.5977 375.951L160.451 375.967V389.516H71.5977V375.951ZM72.3762 376.73V388.738H159.673V376.745L72.3762 376.73Z" fill="#F4F5F6"/>
<path fill-rule="evenodd" clip-rule="evenodd" d="M71.5977 388.723L160.451 388.738V398.745H159.673V389.517L72.3762 389.501V398.745H71.5977V388.723Z" fill="#F4F5F6"/>
<path d="M43.9271 312.194H10.2305V385.399H43.9271V312.194Z" fill="#D3DCE5"/>
<path d="M39.1539 316.864H14.9883V351.725H39.1539V316.864Z" fill="white"/>
<path fill-rule="evenodd" clip-rule="evenodd" d="M14.5938 316.472H39.5458V352.119H14.5938V316.472ZM15.3801 317.258V351.332H38.7594V317.258H15.3801Z" fill="#959DA8"/>
<path d="M72.7724 390.723H-19.7852V398.406H72.7724V390.723Z" fill="#F4F5F6"/>
<path fill-rule="evenodd" clip-rule="evenodd" d="M-20.3594 390.148H73.3463V398.98H-20.3594V390.148ZM-19.2113 391.297V397.831H72.1982V391.297H-19.2113Z" fill="#959DA8"/>
<path d="M16.5454 357.799C17.414 357.799 18.1182 357.095 18.1182 356.226C18.1182 355.357 17.414 354.653 16.5454 354.653C15.6768 354.653 14.9727 355.357 14.9727 356.226C14.9727 357.095 15.6768 357.799 16.5454 357.799Z" fill="white"/>
<path fill-rule="evenodd" clip-rule="evenodd" d="M16.548 355.046C15.8965 355.046 15.3684 355.574 15.3684 356.226C15.3684 356.877 15.8965 357.405 16.548 357.405C17.1995 357.405 17.7276 356.877 17.7276 356.226C17.7276 355.574 17.1995 355.046 16.548 355.046ZM14.582 356.226C14.582 355.14 15.4622 354.26 16.548 354.26C17.6338 354.26 18.514 355.14 18.514 356.226C18.514 357.312 17.6338 358.192 16.548 358.192C15.4622 358.192 14.582 357.312 14.582 356.226Z" fill="#959DA8"/>
<path d="M72.7724 383.057H-19.7852V390.74H72.7724V383.057Z" fill="#F4F5F6"/>
<path fill-rule="evenodd" clip-rule="evenodd" d="M-20.3594 382.482H73.3463V391.314H-20.3594V382.482ZM-19.2113 383.631V390.165H72.1982V383.631H-19.2113Z" fill="#959DA8"/>
<path d="M-78.9999 395.385C-79.0071 393.635 -78.5927 391.909 -77.7916 390.352C-76.9906 388.796 -75.8266 387.456 -74.398 386.445C-72.9694 385.433 -71.3183 384.781 -69.5843 384.543C-67.8503 384.304 -66.0844 384.487 -64.436 385.076C-63.799 382.511 -62.5087 380.154 -60.6907 378.235C-58.8727 376.316 -56.589 374.901 -54.0618 374.127C-51.5346 373.352 -48.8499 373.246 -46.2692 373.817C-43.6884 374.387 -41.2994 375.617 -39.3346 377.385C-37.9468 373.504 -35.2341 370.237 -31.6743 368.16C-28.1145 366.083 -23.936 365.328 -19.8745 366.03C-15.8131 366.731 -12.1292 368.842 -9.47177 371.993C-6.81429 375.143 -5.35364 379.13 -5.34704 383.251C-5.3448 383.861 -5.37631 384.47 -5.44141 385.076C-4.25721 384.643 -3.00614 384.422 -1.7454 384.423C4.30977 384.423 9.57856 389.338 9.19323 395.362C9.13773 396.355 8.97155 397.339 8.6978 398.295H-78.6067C-78.8703 397.34 -79.0026 396.353 -78.9999 395.362V395.385Z" fill="#80C33F"/>
<path d="M81.4259 270.35C81.4187 268.6 81.8331 266.874 82.6341 265.317C83.4352 263.761 84.5992 262.421 86.0278 261.409C87.4564 260.398 89.1075 259.746 90.8415 259.508C92.5755 259.269 94.3413 259.452 95.9897 260.041C96.6268 257.475 97.9171 255.119 99.7351 253.2C101.553 251.281 103.837 249.866 106.364 249.092C108.891 248.317 111.576 248.21 114.157 248.781C116.737 249.352 119.126 250.582 121.091 252.35C122.479 248.469 125.192 245.202 128.751 243.125C132.311 241.048 136.49 240.293 140.551 240.994C144.613 241.695 148.297 243.807 150.954 246.957C153.611 250.108 155.072 254.095 155.079 258.216C155.081 258.826 155.049 259.435 154.984 260.041C156.169 259.608 157.42 259.387 158.68 259.388C164.736 259.388 170.004 264.303 169.619 270.327C169.563 271.32 169.397 272.303 169.124 273.26H81.8348C81.5712 272.304 81.4389 271.318 81.4416 270.327L81.4259 270.35Z" fill="#80C33F"/>
<path d="M161.162 255.568V299.213H153.645L153.652 255.568H161.162Z" fill="#F4F5F6"/>
<path fill-rule="evenodd" clip-rule="evenodd" d="M153.258 255.175H161.554V299.606H153.25L153.258 255.175ZM154.044 255.961L154.037 298.819H160.768V255.961H154.044Z" fill="#959DA8"/>
<path d="M169.027 255.568H161.344V299.213H169.027V255.568Z" fill="#F4F5F6"/>
<path fill-rule="evenodd" clip-rule="evenodd" d="M160.949 255.175H169.419V299.606H160.949V255.175ZM161.736 255.961V298.819H168.632V255.961H161.736Z" fill="#959DA8"/>
<path d="M82.5257 255.568V299.213H75.0078L75.0157 255.568H82.5257Z" fill="#F4F5F6"/>
<path fill-rule="evenodd" clip-rule="evenodd" d="M74.6213 255.175H82.9176V299.606H74.6133L74.6213 255.175ZM75.4075 255.961L75.3998 298.819H82.1312V255.961H75.4075Z" fill="#959DA8"/>
<path d="M74.6585 255.568V299.213H67.1406L67.1485 255.568H74.6585Z" fill="#F4F5F6"/>
<path fill-rule="evenodd" clip-rule="evenodd" d="M66.7541 255.175H75.0504V299.606H66.7461L66.7541 255.175ZM67.5404 255.961L67.5326 298.819H74.264V255.961H67.5404Z" fill="#959DA8"/>
<path d="M90.3861 255.568H82.7031V299.213H90.3861V255.568Z" fill="#F4F5F6"/>
<path fill-rule="evenodd" clip-rule="evenodd" d="M82.3125 255.175H90.7819V299.606H82.3125V255.175ZM83.0989 255.961V298.819H89.9955V255.961H83.0989Z" fill="#959DA8"/>
<path d="M98.2494 255.568H90.5664V299.213H98.2494V255.568Z" fill="#F4F5F6"/>
<path fill-rule="evenodd" clip-rule="evenodd" d="M90.1758 255.175H98.6451V299.606H90.1758V255.175ZM90.9622 255.961V298.819H97.8588V255.961H90.9622Z" fill="#959DA8"/>
<path d="M106.117 255.568H98.4336V299.213H106.117V255.568Z" fill="#F4F5F6"/>
<path fill-rule="evenodd" clip-rule="evenodd" d="M98.0391 255.175H106.508V299.606H98.0391V255.175ZM98.8254 255.961V298.819H105.722V255.961H98.8254Z" fill="#959DA8"/>
<path d="M113.976 255.568H106.293V299.213H113.976V255.568Z" fill="#F4F5F6"/>
<path fill-rule="evenodd" clip-rule="evenodd" d="M105.902 255.175H114.372V299.606H105.902V255.175ZM106.689 255.961V298.819H113.585V255.961H106.689Z" fill="#959DA8"/>
<path d="M121.843 255.568H114.16V299.213H121.843V255.568Z" fill="#F4F5F6"/>
<path fill-rule="evenodd" clip-rule="evenodd" d="M113.766 255.175H122.235V299.606H113.766V255.175ZM114.552 255.961V298.819H121.449V255.961H114.552Z" fill="#959DA8"/>
<path d="M129.706 255.568H122.023V299.213H129.706V255.568Z" fill="#F4F5F6"/>
<path fill-rule="evenodd" clip-rule="evenodd" d="M121.629 255.175H130.098V299.606H121.629V255.175ZM122.415 255.961V298.819H129.312V255.961H122.415Z" fill="#959DA8"/>
<path d="M137.57 255.568H129.887V299.213H137.57V255.568Z" fill="#F4F5F6"/>
<path fill-rule="evenodd" clip-rule="evenodd" d="M129.496 255.175H137.965V299.606H129.496V255.175ZM130.282 255.961V298.819H137.179V255.961H130.282Z" fill="#959DA8"/>
<path d="M145.433 255.568H137.75V299.213H145.433V255.568Z" fill="#F4F5F6"/>
<path fill-rule="evenodd" clip-rule="evenodd" d="M137.355 255.175H145.825V299.606H137.355V255.175ZM138.142 255.961V298.819H145.038V255.961H138.142Z" fill="#959DA8"/>
<path d="M153.296 255.568H145.613V299.213H153.296V255.568Z" fill="#F4F5F6"/>
<path fill-rule="evenodd" clip-rule="evenodd" d="M145.223 255.175H153.692V299.606H145.223V255.175ZM146.009 255.961V298.819H152.906V255.961H146.009Z" fill="#959DA8"/>
<path fill-rule="evenodd" clip-rule="evenodd" d="M66.6914 255.174H169.496V299.998H66.6914V255.174ZM68.2642 256.747V298.425H167.923V256.747H68.2642Z" fill="#959DA8"/>
<path d="M700.623 255.568V299.213H693.105L693.113 255.568H700.623Z" fill="#F4F5F6"/>
<path fill-rule="evenodd" clip-rule="evenodd" d="M692.719 255.175H701.015V299.606H692.711L692.719 255.175ZM693.505 255.961L693.497 298.819H700.229V255.961H693.505Z" fill="#959DA8"/>
<path d="M708.484 255.568H700.801V299.213H708.484V255.568Z" fill="#F4F5F6"/>
<path fill-rule="evenodd" clip-rule="evenodd" d="M700.406 255.175H708.876V299.606H700.406V255.175ZM701.193 255.961V298.819H708.089V255.961H701.193Z" fill="#959DA8"/>
<path d="M621.987 255.568V299.213H614.469L614.477 255.568H621.987Z" fill="#F4F5F6"/>
<path fill-rule="evenodd" clip-rule="evenodd" d="M614.082 255.175H622.379V299.606H614.074L614.082 255.175ZM614.868 255.961L614.861 298.819H621.592V255.961H614.868Z" fill="#959DA8"/>
<path d="M614.119 255.568V299.213H606.602L606.609 255.568H614.119Z" fill="#F4F5F6"/>
<path fill-rule="evenodd" clip-rule="evenodd" d="M606.215 255.175H614.511V299.606H606.207L606.215 255.175ZM607.001 255.961L606.994 298.819H613.725V255.961H607.001Z" fill="#959DA8"/>
<path d="M629.847 255.568H622.164V299.213H629.847V255.568Z" fill="#F4F5F6"/>
<path fill-rule="evenodd" clip-rule="evenodd" d="M621.77 255.175H630.239V299.606H621.77V255.175ZM622.556 255.961V298.819H629.453V255.961H622.556Z" fill="#959DA8"/>
<path d="M637.71 255.568H630.027V299.213H637.71V255.568Z" fill="#F4F5F6"/>
<path fill-rule="evenodd" clip-rule="evenodd" d="M629.637 255.175H638.106V299.606H629.637V255.175ZM630.423 255.961V298.819H637.32V255.961H630.423Z" fill="#959DA8"/>
<path d="M645.574 255.568H637.891V299.213H645.574V255.568Z" fill="#F4F5F6"/>
<path fill-rule="evenodd" clip-rule="evenodd" d="M637.496 255.175H645.965V299.606H637.496V255.175ZM638.282 255.961V298.819H645.179V255.961H638.282Z" fill="#959DA8"/>
<path d="M653.437 255.568H645.754V299.213H653.437V255.568Z" fill="#F4F5F6"/>
<path fill-rule="evenodd" clip-rule="evenodd" d="M645.363 255.175H653.833V299.606H645.363V255.175ZM646.15 255.961V298.819H653.046V255.961H646.15Z" fill="#959DA8"/>
<path d="M661.3 255.568H653.617V299.213H661.3V255.568Z" fill="#F4F5F6"/>
<path fill-rule="evenodd" clip-rule="evenodd" d="M653.227 255.175H661.696V299.606H653.227V255.175ZM654.013 255.961V298.819H660.91V255.961H654.013Z" fill="#959DA8"/>
<path d="M669.167 255.568H661.484V299.213H669.167V255.568Z" fill="#F4F5F6"/>
<path fill-rule="evenodd" clip-rule="evenodd" d="M661.09 255.175H669.559V299.606H661.09V255.175ZM661.876 255.961V298.819H668.773V255.961H661.876Z" fill="#959DA8"/>
<path d="M677.031 255.568H669.348V299.213H677.031V255.568Z" fill="#F4F5F6"/>
<path fill-rule="evenodd" clip-rule="evenodd" d="M668.953 255.175H677.423V299.606H668.953V255.175ZM669.74 255.961V298.819H676.636V255.961H669.74Z" fill="#959DA8"/>
<path d="M684.894 255.568H677.211V299.213H684.894V255.568Z" fill="#F4F5F6"/>
<path fill-rule="evenodd" clip-rule="evenodd" d="M676.816 255.175H685.286V299.606H676.816V255.175ZM677.603 255.961V298.819H684.499V255.961H677.603Z" fill="#959DA8"/>
<path d="M692.757 255.568H685.074V299.213H692.757V255.568Z" fill="#F4F5F6"/>
<path fill-rule="evenodd" clip-rule="evenodd" d="M684.68 255.175H693.149V299.606H684.68V255.175ZM685.466 255.961V298.819H692.363V255.961H685.466Z" fill="#959DA8"/>
<path fill-rule="evenodd" clip-rule="evenodd" d="M606.156 255.174H708.96V299.998H606.156V255.174ZM607.729 256.747V298.425H707.388V256.747H607.729Z" fill="#959DA8"/>
<path d="M1016.8 369.576C1017.14 369.578 1017.48 369.543 1017.81 369.47C1033.24 365.958 1033.25 347.259 1033.25 347.259C1033.25 321.775 1016.81 309 1016.81 309C1016.81 309 1000.35 321.745 1000.35 347.259C1000.35 347.259 1000.35 365.981 1015.79 369.47C1016.12 369.543 1016.46 369.578 1016.8 369.576Z" fill="#80C33F"/>
<path fill-rule="evenodd" clip-rule="evenodd" d="M1016.8 333.767C1017.01 333.767 1017.18 333.935 1017.18 334.143V397.749C1017.18 397.958 1017.01 398.126 1016.8 398.126C1016.59 398.126 1016.42 397.958 1016.42 397.749V334.143C1016.42 333.935 1016.59 333.767 1016.8 333.767Z" fill="#2A3A51"/>
<path fill-rule="evenodd" clip-rule="evenodd" d="M1093.54 384.017V324.074H1095.04V384.017H1093.54Z" fill="#959DA8"/>
<path d="M1106.58 342.518H1081.99L1089.68 324.074H1098.89L1106.58 342.518Z" fill="#D3DCE5"/>
<path fill-rule="evenodd" clip-rule="evenodd" d="M1087.96 342.432L1092.29 323.988L1093.02 324.16L1088.69 342.604L1087.96 342.432Z" fill="#959DA8"/>
<path fill-rule="evenodd" clip-rule="evenodd" d="M1099.98 342.604L1095.65 324.16L1096.39 323.988L1100.71 342.432L1099.98 342.604Z" fill="#959DA8"/>
<path d="M1062.7 350.748L1061.44 350.515C1060.46 351.876 1060.05 353.559 1060.28 355.218C1060.33 355.559 1060.51 355.868 1060.78 356.081C1061.05 356.295 1061.39 356.396 1061.73 356.366C1062.08 356.335 1062.39 356.174 1062.62 355.915C1062.85 355.657 1062.97 355.321 1062.96 354.977C1063 353.562 1062.92 352.147 1062.7 350.748Z" fill="white"/>
<path fill-rule="evenodd" clip-rule="evenodd" d="M1061.27 350.101L1062.77 350.378L1062.7 350.748L1063.07 350.691C1063.29 352.109 1063.38 353.543 1063.33 354.977C1063.35 355.413 1063.19 355.838 1062.9 356.165C1062.61 356.495 1062.2 356.701 1061.76 356.741C1061.32 356.78 1060.89 356.65 1060.54 356.377C1060.19 356.104 1059.97 355.709 1059.9 355.273L1060.27 355.218L1059.9 355.269C1059.66 353.515 1060.1 351.735 1061.13 350.295L1061.27 350.101ZM1060.65 355.165C1060.68 355.41 1060.81 355.632 1061.01 355.785C1061.2 355.939 1061.45 356.012 1061.7 355.99C1061.94 355.968 1062.17 355.852 1062.34 355.666C1062.5 355.48 1062.59 355.238 1062.58 354.989L1062.58 354.977L1062.58 354.965C1062.62 353.663 1062.55 352.36 1062.37 351.07L1061.61 350.93C1060.79 352.176 1060.44 353.681 1060.65 355.165Z" fill="#959DA8"/>
<path d="M1066.43 348.412L1066.77 347.168C1068.42 346.881 1070.11 347.237 1071.51 348.163C1071.79 348.356 1072 348.651 1072.07 348.987C1072.15 349.323 1072.09 349.675 1071.91 349.971C1071.74 350.267 1071.45 350.484 1071.12 350.578C1070.79 350.672 1070.44 350.636 1070.13 350.477C1068.84 349.902 1067.6 349.211 1066.43 348.412Z" fill="white"/>
<path fill-rule="evenodd" clip-rule="evenodd" d="M1067.06 347.503L1066.86 348.251C1067.95 348.974 1069.09 349.603 1070.28 350.133L1070.29 350.137L1070.3 350.143C1070.52 350.257 1070.78 350.283 1071.02 350.216C1071.25 350.148 1071.46 349.991 1071.59 349.778C1071.71 349.565 1071.75 349.311 1071.7 349.069C1071.65 348.827 1071.5 348.615 1071.3 348.476C1070.05 347.648 1068.54 347.304 1067.06 347.503ZM1071.51 348.163L1071.71 347.849C1070.24 346.87 1068.45 346.493 1066.7 346.797L1066.47 346.838L1065.99 348.571L1066.21 348.723C1067.4 349.533 1068.65 350.234 1069.96 350.817C1070.35 351.015 1070.8 351.06 1071.22 350.941C1071.65 350.82 1072.01 350.542 1072.23 350.164C1072.46 349.786 1072.53 349.335 1072.43 348.905C1072.34 348.475 1072.08 348.098 1071.72 347.851L1071.51 348.163Z" fill="#959DA8"/>
<path d="M1070.23 351.102C1070.72 351.98 1070.86 353.015 1070.61 353.992C1070.36 354.968 1069.75 355.812 1068.89 356.348C1068.04 356.885 1067.02 357.073 1066.03 356.873C1065.04 356.674 1064.17 356.102 1063.59 355.277C1062.5 353.544 1062.03 349.496 1063.86 348.343C1065.69 347.19 1069.14 349.368 1070.23 351.102Z" fill="white"/>
<path fill-rule="evenodd" clip-rule="evenodd" d="M1065.43 348.418C1064.89 348.355 1064.42 348.433 1064.06 348.662C1063.69 348.891 1063.42 349.277 1063.25 349.792C1063.07 350.307 1062.99 350.929 1063 351.585C1063.03 352.903 1063.41 354.272 1063.9 355.069C1064.42 355.811 1065.21 356.324 1066.1 356.504C1066.99 356.684 1067.92 356.514 1068.69 356.029C1069.46 355.544 1070.02 354.781 1070.24 353.899C1070.47 353.019 1070.34 352.087 1069.9 351.294C1069.4 350.501 1068.33 349.569 1067.15 348.976C1066.57 348.681 1065.97 348.481 1065.43 348.418ZM1067.49 348.303C1068.76 348.943 1069.96 349.963 1070.55 350.902L1070.55 350.909L1070.56 350.917C1071.1 351.88 1071.25 353.014 1070.97 354.084C1070.7 355.155 1070.03 356.079 1069.09 356.667C1068.16 357.255 1067.03 357.461 1065.95 357.243C1064.87 357.024 1063.91 356.398 1063.28 355.493L1063.27 355.485L1063.27 355.477C1062.68 354.539 1062.28 353.023 1062.25 351.599C1062.24 350.883 1062.32 350.168 1062.53 349.546C1062.75 348.924 1063.11 348.371 1063.66 348.024C1064.21 347.677 1064.86 347.594 1065.52 347.669C1066.17 347.745 1066.85 347.981 1067.49 348.303Z" fill="#959DA8"/>
<path d="M1059.81 347.769C1060.53 347.315 1060.75 346.361 1060.3 345.638C1059.84 344.916 1058.89 344.698 1058.17 345.152C1057.45 345.607 1057.23 346.56 1057.68 347.283C1058.14 348.005 1059.09 348.223 1059.81 347.769Z" fill="white"/>
<path fill-rule="evenodd" clip-rule="evenodd" d="M1058.37 345.472C1057.82 345.815 1057.66 346.536 1058 347.083C1058.34 347.629 1059.07 347.793 1059.61 347.45C1060.16 347.107 1060.32 346.386 1059.98 345.839C1059.64 345.293 1058.91 345.129 1058.37 345.472ZM1057.36 347.484C1056.8 346.585 1057.07 345.399 1057.97 344.834C1058.87 344.269 1060.05 344.539 1060.62 345.438C1061.18 346.337 1060.91 347.523 1060.01 348.088C1059.11 348.653 1057.93 348.382 1057.36 347.484Z" fill="#959DA8"/>
<path d="M1067.02 347.786C1067.75 347.334 1067.97 346.379 1067.52 345.654C1067.06 344.929 1066.11 344.707 1065.38 345.16C1064.66 345.612 1064.44 346.567 1064.89 347.292C1065.34 348.017 1066.3 348.239 1067.02 347.786Z" fill="white"/>
<path fill-rule="evenodd" clip-rule="evenodd" d="M1064.58 342.48C1064.04 342.822 1063.87 343.544 1064.21 344.093C1064.55 344.641 1065.27 344.808 1065.82 344.466C1066.37 344.124 1066.54 343.403 1066.2 342.854C1065.85 342.306 1065.13 342.138 1064.58 342.48ZM1063.57 344.492C1063.01 343.59 1063.28 342.402 1064.18 341.84C1065.09 341.277 1066.27 341.553 1066.84 342.455C1067.4 343.357 1067.12 344.544 1066.22 345.107C1065.32 345.67 1064.13 345.394 1063.57 344.492Z" fill="#959DA8"/>
<path d="M1065.05 350.229C1066.88 349.077 1067.49 346.74 1066.4 345.01C1065.31 343.279 1062.94 342.81 1061.11 343.962C1059.28 345.114 1058.67 347.451 1059.76 349.181C1060.85 350.912 1063.22 351.381 1065.05 350.229Z" fill="white"/>
<path fill-rule="evenodd" clip-rule="evenodd" d="M1061.31 344.281C1059.64 345.333 1059.12 347.443 1060.08 348.98C1061.05 350.517 1063.18 350.961 1064.85 349.909C1066.52 348.857 1067.05 346.747 1066.08 345.21C1065.11 343.673 1062.99 343.229 1061.31 344.281ZM1059.44 349.381C1058.23 347.457 1058.92 344.894 1060.91 343.643C1062.9 342.391 1065.51 342.885 1066.72 344.809C1067.93 346.732 1067.24 349.296 1065.25 350.547C1063.26 351.799 1060.65 351.305 1059.44 349.381Z" fill="#959DA8"/>
<path d="M1067.4 358.277C1067.67 357.354 1067.02 356.352 1065.95 356.04C1064.88 355.728 1063.79 356.223 1063.52 357.146C1063.25 358.069 1063.9 359.071 1064.97 359.383C1066.05 359.695 1067.13 359.2 1067.4 358.277Z" fill="white"/>
<path fill-rule="evenodd" clip-rule="evenodd" d="M1063.89 357.254C1063.7 357.924 1064.16 358.746 1065.08 359.014C1066 359.283 1066.84 358.84 1067.03 358.17C1067.23 357.5 1066.76 356.678 1065.84 356.409C1064.92 356.141 1064.09 356.584 1063.89 357.254ZM1064.87 359.752C1063.65 359.396 1062.81 358.215 1063.15 357.039C1063.5 355.862 1064.84 355.315 1066.06 355.671C1067.28 356.028 1068.11 357.209 1067.77 358.385C1067.43 359.562 1066.09 360.109 1064.87 359.752Z" fill="#959DA8"/>
<path d="M1072.94 354.343C1073.12 353.242 1072.5 352.222 1071.55 352.064C1070.6 351.907 1069.69 352.671 1069.5 353.771C1069.32 354.872 1069.94 355.892 1070.89 356.05C1071.84 356.207 1072.76 355.443 1072.94 354.343Z" fill="white"/>
<path fill-rule="evenodd" clip-rule="evenodd" d="M1069.88 353.834C1069.72 354.783 1070.26 355.563 1070.95 355.678C1071.64 355.794 1072.41 355.231 1072.57 354.282C1072.72 353.333 1072.18 352.552 1071.49 352.437C1070.8 352.321 1070.03 352.885 1069.88 353.834ZM1070.83 356.422C1069.62 356.222 1068.92 354.962 1069.13 353.71C1069.34 352.458 1070.41 351.493 1071.61 351.693C1072.82 351.894 1073.52 353.153 1073.31 354.405C1073.1 355.657 1072.03 356.622 1070.83 356.422Z" fill="#959DA8"/>
<path fill-rule="evenodd" clip-rule="evenodd" d="M1062.81 349.104C1062.65 349.469 1062.65 349.822 1062.82 350.091C1062.99 350.359 1063.31 350.511 1063.71 350.524C1064.1 350.538 1064.57 350.413 1065 350.14C1065.44 349.867 1065.75 349.504 1065.91 349.14C1066.07 348.776 1066.07 348.422 1065.9 348.154C1065.73 347.885 1065.42 347.733 1065.02 347.72C1064.62 347.706 1064.16 347.832 1063.72 348.104C1063.29 348.377 1062.97 348.741 1062.81 349.104ZM1062.64 349.028C1062.82 348.626 1063.16 348.235 1063.62 347.945C1064.08 347.655 1064.58 347.517 1065.02 347.532C1065.46 347.546 1065.85 347.716 1066.06 348.053C1066.28 348.391 1066.26 348.814 1066.08 349.216C1065.91 349.618 1065.56 350.01 1065.1 350.3C1064.64 350.59 1064.14 350.728 1063.7 350.713C1063.26 350.698 1062.87 350.529 1062.66 350.191C1062.45 349.854 1062.47 349.43 1062.64 349.028Z" fill="#959DA8"/>
<path d="M1061.86 347.935C1061.91 347.736 1061.79 347.538 1061.59 347.493C1061.39 347.448 1061.19 347.572 1061.14 347.771C1061.1 347.97 1061.22 348.168 1061.42 348.213C1061.62 348.258 1061.82 348.134 1061.86 347.935Z" fill="#959DA8"/>
<path d="M1064.47 346.361C1064.62 346.268 1064.66 346.072 1064.57 345.924C1064.48 345.776 1064.28 345.732 1064.14 345.825C1063.99 345.918 1063.94 346.113 1064.04 346.261C1064.13 346.409 1064.32 346.454 1064.47 346.361Z" fill="#959DA8"/>
<path d="M1064.42 349.203C1064.63 349.07 1064.71 348.828 1064.61 348.662C1064.51 348.497 1064.25 348.47 1064.04 348.603C1063.83 348.736 1063.74 348.978 1063.84 349.144C1063.95 349.309 1064.2 349.336 1064.42 349.203Z" fill="#959DA8"/>
<path fill-rule="evenodd" clip-rule="evenodd" d="M1064.59 349.637L1064.36 349.268L1064.51 349.167L1064.75 349.536L1064.59 349.637Z" fill="#959DA8"/>
<path fill-rule="evenodd" clip-rule="evenodd" d="M1065.21 349.208C1064.94 349.561 1064.55 349.805 1064.12 349.898L1064.08 349.714C1064.47 349.63 1064.82 349.41 1065.06 349.093L1065.21 349.208Z" fill="#959DA8"/>
<path d="M1084.15 354.396H1058.79V375.395H1084.15V354.396Z" fill="#F4F5F6"/>
<path fill-rule="evenodd" clip-rule="evenodd" d="M1058.03 353.643H1084.9V376.148H1058.03V353.643ZM1059.54 355.15V374.641H1083.39V355.15H1059.54Z" fill="#959DA8"/>
<path fill-rule="evenodd" clip-rule="evenodd" d="M1075.4 354.396V375.395H1074.64V354.396H1075.4Z" fill="#959DA8"/>
<path d="M1058.04 353.733L1052.08 358.889H1069.95L1075.05 353.733H1058.04Z" fill="#D3DCE5"/>
<path d="M1089.47 358.097H1079.51L1075.05 353.733H1085L1089.47 358.097Z" fill="#D3DCE5"/>
<path d="M1076.62 375.395H1051.25V396.393H1076.62V375.395Z" fill="#F4F5F6"/>
<path fill-rule="evenodd" clip-rule="evenodd" d="M1050.5 374.641H1077.37V397.147H1050.5V374.641ZM1052.01 376.148V395.639H1075.86V376.148H1052.01Z" fill="#959DA8"/>
<path fill-rule="evenodd" clip-rule="evenodd" d="M1067.87 375.946V396.402H1067.12V375.946H1067.87Z" fill="#959DA8"/>
<path d="M1101.98 375.395H1076.61V396.393H1101.98V375.395Z" fill="#F4F5F6"/>
<path fill-rule="evenodd" clip-rule="evenodd" d="M1075.86 374.641H1102.73V397.147H1075.86V374.641ZM1077.37 376.148V395.639H1101.22V376.148H1077.37Z" fill="#959DA8"/>
<path fill-rule="evenodd" clip-rule="evenodd" d="M1097.59 375.395V396.401H1096.83V375.395H1097.59Z" fill="#959DA8"/>
<path d="M1045.53 396.762H1029L1040.9 374.278H1057.43L1045.53 396.762Z" fill="#F4F5F6"/>
<path fill-rule="evenodd" clip-rule="evenodd" d="M1040.45 373.524H1058.68L1045.98 397.515H1027.75L1040.45 373.524ZM1041.35 375.032L1030.25 396.008H1045.07L1056.18 375.032H1041.35Z" fill="#959DA8"/>
<path d="M1042.88 379.207C1043.8 377.784 1044.13 376.354 1043.61 376.013C1043.08 375.672 1041.91 376.55 1040.98 377.973C1040.06 379.397 1039.73 380.827 1040.25 381.168C1040.78 381.508 1041.95 380.63 1042.88 379.207Z" fill="#D3DCE5"/>
<path d="M1045.78 390.081C1048.04 386.606 1048.84 383.117 1047.57 382.289C1046.29 381.46 1043.43 383.605 1041.17 387.08C1038.9 390.554 1038.1 394.043 1039.38 394.872C1040.65 395.701 1043.52 393.556 1045.78 390.081Z" fill="#D3DCE5"/>
<path fill-rule="evenodd" clip-rule="evenodd" d="M1045.89 376.412V387.055H1037.02L1045.89 376.412ZM1038.63 386.302H1045.14V378.494L1038.63 386.302Z" fill="#959DA8"/>
</svg>
